%TF.GenerationSoftware,KiCad,Pcbnew,7.0.7*%
%TF.CreationDate,2024-04-01T01:41:43+05:30*%
%TF.ProjectId,Telemetry_Stack,54656c65-6d65-4747-9279-5f537461636b,rev?*%
%TF.SameCoordinates,Original*%
%TF.FileFunction,Copper,L2,Bot*%
%TF.FilePolarity,Positive*%
%FSLAX46Y46*%
G04 Gerber Fmt 4.6, Leading zero omitted, Abs format (unit mm)*
G04 Created by KiCad (PCBNEW 7.0.7) date 2024-04-01 01:41:43*
%MOMM*%
%LPD*%
G01*
G04 APERTURE LIST*
%TA.AperFunction,ComponentPad*%
%ADD10R,1.700000X1.700000*%
%TD*%
%TA.AperFunction,ComponentPad*%
%ADD11O,1.700000X1.700000*%
%TD*%
%TA.AperFunction,ComponentPad*%
%ADD12C,10.400000*%
%TD*%
%TA.AperFunction,Conductor*%
%ADD13C,0.500000*%
%TD*%
G04 APERTURE END LIST*
D10*
%TO.P,J2,1,Pin_1*%
%TO.N,TX_TELEM*%
X158419800Y-103657400D03*
D11*
%TO.P,J2,2,Pin_2*%
%TO.N,RX_MODULE*%
X158419800Y-106197400D03*
%TO.P,J2,3,Pin_3*%
%TO.N,RX_TELEM*%
X158419800Y-108737400D03*
%TD*%
D10*
%TO.P,J1,1,Pin_1*%
%TO.N,TX_TELEM*%
X151485600Y-103647000D03*
D11*
%TO.P,J1,2,Pin_2*%
%TO.N,TX_MODULE*%
X151485600Y-106187000D03*
%TO.P,J1,3,Pin_3*%
%TO.N,RX_TELEM*%
X151485600Y-108727000D03*
%TD*%
D10*
%TO.P,U2,1*%
%TO.N,unconnected-(U2-Pad1)*%
X165296800Y-73947400D03*
D11*
%TO.P,U2,2*%
%TO.N,unconnected-(U2-Pad2)*%
X165296800Y-76487400D03*
%TO.P,U2,3*%
%TO.N,unconnected-(U2-Pad3)*%
X165296800Y-79027400D03*
%TO.P,U2,4*%
%TO.N,unconnected-(U2-Pad4)*%
X165296800Y-81567400D03*
%TO.P,U2,5*%
%TO.N,unconnected-(U2-Pad5)*%
X165296800Y-84107400D03*
%TO.P,U2,6*%
%TO.N,unconnected-(U2-Pad6)*%
X165296800Y-86647400D03*
%TO.P,U2,7*%
%TO.N,unconnected-(U2-Pad7)*%
X165296800Y-89187400D03*
%TO.P,U2,8*%
%TO.N,TX_TELEM*%
X165296800Y-91727400D03*
%TO.P,U2,9*%
%TO.N,RX_TELEM*%
X165296800Y-94267400D03*
%TO.P,U2,10*%
%TO.N,unconnected-(U2-Pad10)*%
X165296800Y-96807400D03*
%TO.P,U2,11*%
%TO.N,unconnected-(U2-Pad11)*%
X165296800Y-99347400D03*
%TO.P,U2,12*%
%TO.N,unconnected-(U2-Pad12)*%
X165296800Y-101887400D03*
%TO.P,U2,13*%
%TO.N,unconnected-(U2-Pad13)*%
X165296800Y-104427400D03*
%TO.P,U2,14*%
%TO.N,unconnected-(U2-Pad14)*%
X165296800Y-106967400D03*
%TO.P,U2,15*%
%TO.N,unconnected-(U2-Pad15)*%
X165296800Y-109507400D03*
%TO.P,U2,16*%
%TO.N,unconnected-(U2-Pad16)*%
X108896800Y-109477400D03*
%TO.P,U2,17*%
%TO.N,unconnected-(U2-Pad17)*%
X108896800Y-106937400D03*
%TO.P,U2,18*%
%TO.N,unconnected-(U2-Pad18)*%
X108896800Y-104397400D03*
%TO.P,U2,19*%
%TO.N,unconnected-(U2-Pad19)*%
X108896800Y-101857400D03*
%TO.P,U2,20*%
%TO.N,unconnected-(U2-Pad20)*%
X108896800Y-99317400D03*
%TO.P,U2,21*%
%TO.N,unconnected-(U2-Pad21)*%
X108896800Y-96777400D03*
%TO.P,U2,22*%
%TO.N,unconnected-(U2-Pad22)*%
X108896800Y-94237400D03*
%TO.P,U2,23*%
%TO.N,unconnected-(U2-Pad23)*%
X108896800Y-91697400D03*
%TO.P,U2,24*%
%TO.N,unconnected-(U2-Pad24)*%
X108896800Y-89157400D03*
%TO.P,U2,25*%
%TO.N,unconnected-(U2-Pad25)*%
X108896800Y-86617400D03*
%TO.P,U2,26*%
%TO.N,unconnected-(U2-Pad26)*%
X108896800Y-84077400D03*
%TO.P,U2,27*%
%TO.N,unconnected-(U2-Pad27)*%
X108896800Y-81537400D03*
%TO.P,U2,28*%
%TO.N,unconnected-(U2-Pad28)*%
X108896800Y-78997400D03*
%TO.P,U2,29*%
%TO.N,unconnected-(U2-Pad29)*%
X108896800Y-76457400D03*
D10*
%TO.P,U2,30*%
%TO.N,unconnected-(U2-Pad30)*%
X108896800Y-73917400D03*
%TO.P,U2,31*%
%TO.N,unconnected-(U2-Pad31)*%
X119321800Y-63532400D03*
D11*
%TO.P,U2,32*%
%TO.N,unconnected-(U2-Pad32)*%
X121861800Y-63532400D03*
%TO.P,U2,33*%
%TO.N,unconnected-(U2-Pad33)*%
X124401800Y-63532400D03*
%TO.P,U2,34*%
%TO.N,unconnected-(U2-Pad34)*%
X126941800Y-63532400D03*
%TO.P,U2,35*%
%TO.N,unconnected-(U2-Pad35)*%
X129481800Y-63532400D03*
%TO.P,U2,36*%
%TO.N,unconnected-(U2-Pad36)*%
X132021800Y-63532400D03*
%TO.P,U2,37*%
%TO.N,3.3V*%
X134561800Y-63532400D03*
%TO.P,U2,38*%
%TO.N,unconnected-(U2-Pad38)*%
X137101800Y-63532400D03*
%TO.P,U2,39*%
%TO.N,3.3V*%
X139641800Y-63532400D03*
%TO.P,U2,40*%
X142181800Y-63532400D03*
%TO.P,U2,41*%
%TO.N,unconnected-(U2-Pad41)*%
X144721800Y-63532400D03*
%TO.P,U2,42*%
%TO.N,unconnected-(U2-Pad42)*%
X147261800Y-63532400D03*
%TO.P,U2,43*%
%TO.N,unconnected-(U2-Pad43)*%
X149801800Y-63532400D03*
%TO.P,U2,44*%
%TO.N,unconnected-(U2-Pad44)*%
X152341800Y-63532400D03*
%TO.P,U2,45*%
%TO.N,unconnected-(U2-Pad45)*%
X154881800Y-63532400D03*
D12*
%TO.P,U2,49,1*%
%TO.N,GND*%
X164896800Y-119532400D03*
%TO.P,U2,50,1*%
X109296800Y-119532400D03*
%TO.P,U2,51,1*%
X109296800Y-63832400D03*
%TO.P,U2,52,1*%
X164896800Y-63847400D03*
%TD*%
D11*
%TO.P,U1,1,VDD*%
%TO.N,3.3V*%
X142732200Y-115388400D03*
%TO.P,U1,2,RST*%
%TO.N,unconnected-(U1-RST-Pad2)*%
X140192200Y-115388400D03*
%TO.P,U1,3,RXD*%
%TO.N,RX_MODULE*%
X137652200Y-115388400D03*
%TO.P,U1,4,TXD*%
%TO.N,TX_MODULE*%
X135112200Y-115388400D03*
D10*
%TO.P,U1,5,GND*%
%TO.N,GND*%
X132572200Y-115388400D03*
%TD*%
D13*
%TO.N,RX_MODULE*%
X151638000Y-112979200D02*
X140061400Y-112979200D01*
X140061400Y-112979200D02*
X137652200Y-115388400D01*
X158419800Y-106197400D02*
X151638000Y-112979200D01*
%TD*%
%TA.AperFunction,Conductor*%
%TO.N,RX_MODULE*%
G36*
X157645074Y-105876484D02*
G01*
X158416015Y-106194838D01*
X158422352Y-106201161D01*
X158422362Y-106201185D01*
X158740714Y-106972123D01*
X158740705Y-106981078D01*
X158734607Y-106987300D01*
X157401818Y-107573039D01*
X157392866Y-107573231D01*
X157388838Y-107570601D01*
X157046598Y-107228361D01*
X157043171Y-107220088D01*
X157044159Y-107215384D01*
X157629899Y-105882591D01*
X157636365Y-105876396D01*
X157645074Y-105876484D01*
G37*
%TD.AperFunction*%
%TD*%
%TA.AperFunction,Conductor*%
%TO.N,GND*%
G36*
X170599007Y-56733057D02*
G01*
X170666555Y-56737889D01*
X170813444Y-56749449D01*
X170821747Y-56750674D01*
X170916560Y-56771299D01*
X171033025Y-56799260D01*
X171040201Y-56801451D01*
X171136537Y-56837383D01*
X171214722Y-56869768D01*
X171242656Y-56881339D01*
X171248647Y-56884205D01*
X171339737Y-56933943D01*
X171342380Y-56935473D01*
X171437703Y-56993888D01*
X171442443Y-56997105D01*
X171526240Y-57059835D01*
X171529320Y-57062298D01*
X171613737Y-57134397D01*
X171617313Y-57137703D01*
X171691495Y-57211885D01*
X171694801Y-57215461D01*
X171766894Y-57299871D01*
X171769376Y-57302974D01*
X171832089Y-57386749D01*
X171835321Y-57391511D01*
X171893710Y-57486793D01*
X171895263Y-57489476D01*
X171944993Y-57580551D01*
X171947859Y-57586541D01*
X171991816Y-57692660D01*
X172027742Y-57788982D01*
X172029940Y-57796181D01*
X172057898Y-57912631D01*
X172078523Y-58007444D01*
X172079750Y-58015767D01*
X172091317Y-58162731D01*
X172096142Y-58230189D01*
X172096300Y-58234613D01*
X172096300Y-125230186D01*
X172096142Y-125234608D01*
X172094758Y-125253955D01*
X172091317Y-125302068D01*
X172079750Y-125449032D01*
X172078523Y-125457355D01*
X172057901Y-125552155D01*
X172029940Y-125668617D01*
X172027742Y-125675816D01*
X171991816Y-125772139D01*
X171947859Y-125878257D01*
X171944993Y-125884247D01*
X171895263Y-125975322D01*
X171893710Y-125978005D01*
X171835321Y-126073287D01*
X171832089Y-126078049D01*
X171769376Y-126161824D01*
X171766887Y-126164936D01*
X171694801Y-126249337D01*
X171691495Y-126252913D01*
X171617313Y-126327095D01*
X171613737Y-126330401D01*
X171529336Y-126402487D01*
X171526224Y-126404976D01*
X171442449Y-126467689D01*
X171437687Y-126470921D01*
X171342405Y-126529310D01*
X171339722Y-126530863D01*
X171248647Y-126580593D01*
X171242657Y-126583459D01*
X171136539Y-126627416D01*
X171040216Y-126663342D01*
X171033017Y-126665540D01*
X170916555Y-126693501D01*
X170821755Y-126714123D01*
X170813432Y-126715350D01*
X170666468Y-126726917D01*
X170618355Y-126730358D01*
X170599008Y-126731742D01*
X170594586Y-126731900D01*
X103599014Y-126731900D01*
X103594591Y-126731742D01*
X103567044Y-126729771D01*
X103527173Y-126726920D01*
X103380161Y-126715349D01*
X103371838Y-126714122D01*
X103277072Y-126693507D01*
X103160586Y-126665541D01*
X103153386Y-126663343D01*
X103057069Y-126627419D01*
X102950935Y-126583456D01*
X102944944Y-126580590D01*
X102853886Y-126530869D01*
X102851205Y-126529316D01*
X102755910Y-126470920D01*
X102751152Y-126467691D01*
X102667367Y-126404970D01*
X102664271Y-126402494D01*
X102579861Y-126330401D01*
X102576285Y-126327095D01*
X102502103Y-126252913D01*
X102498797Y-126249337D01*
X102426698Y-126164920D01*
X102424235Y-126161840D01*
X102361501Y-126078038D01*
X102358287Y-126073301D01*
X102299879Y-125977988D01*
X102298335Y-125975322D01*
X102248602Y-125884241D01*
X102245742Y-125878263D01*
X102201780Y-125772130D01*
X102196551Y-125758110D01*
X102165852Y-125675804D01*
X102163659Y-125668617D01*
X102135700Y-125552164D01*
X102115075Y-125457353D01*
X102113851Y-125449051D01*
X102102280Y-125302026D01*
X102099636Y-125265073D01*
X102097457Y-125234607D01*
X102097300Y-125230187D01*
X102097300Y-119532400D01*
X103591927Y-119532400D01*
X103611412Y-120003509D01*
X103669733Y-120471389D01*
X103669734Y-120471389D01*
X103766494Y-120932859D01*
X103901032Y-121384765D01*
X104072426Y-121824015D01*
X104072426Y-121824016D01*
X104279514Y-122247620D01*
X104279515Y-122247621D01*
X104520869Y-122652666D01*
X104520868Y-122652665D01*
X104794850Y-123036401D01*
X105090349Y-123385295D01*
X106063182Y-122412462D01*
X106124505Y-122378977D01*
X106194196Y-122383961D01*
X106242741Y-122416870D01*
X106323369Y-122505830D01*
X106412328Y-122586457D01*
X106448782Y-122646063D01*
X106447223Y-122715915D01*
X106416736Y-122766016D01*
X105443903Y-123738849D01*
X105443903Y-123738850D01*
X105792799Y-124034350D01*
X106176535Y-124308332D01*
X106176534Y-124308331D01*
X106581579Y-124549685D01*
X106581580Y-124549686D01*
X107005184Y-124756774D01*
X107005185Y-124756774D01*
X107444435Y-124928168D01*
X107896341Y-125062706D01*
X108357811Y-125159466D01*
X108357811Y-125159467D01*
X108825691Y-125217788D01*
X109296800Y-125237273D01*
X109767909Y-125217788D01*
X110235789Y-125159467D01*
X110235789Y-125159466D01*
X110697259Y-125062706D01*
X111149165Y-124928168D01*
X111588415Y-124756774D01*
X111588416Y-124756774D01*
X112012020Y-124549686D01*
X112012021Y-124549685D01*
X112417066Y-124308331D01*
X112417065Y-124308332D01*
X112800801Y-124034350D01*
X113149695Y-123738850D01*
X113149695Y-123738849D01*
X112176862Y-122766016D01*
X112143377Y-122704693D01*
X112148361Y-122635001D01*
X112181268Y-122586460D01*
X112270230Y-122505830D01*
X112350859Y-122416868D01*
X112410462Y-122380417D01*
X112480314Y-122381974D01*
X112530416Y-122412462D01*
X113503249Y-123385295D01*
X113503250Y-123385295D01*
X113798750Y-123036401D01*
X114072732Y-122652665D01*
X114072731Y-122652666D01*
X114314085Y-122247621D01*
X114314086Y-122247620D01*
X114521174Y-121824016D01*
X114521174Y-121824015D01*
X114692568Y-121384765D01*
X114827106Y-120932859D01*
X114923866Y-120471389D01*
X114923867Y-120471389D01*
X114982188Y-120003509D01*
X115001673Y-119532400D01*
X159191927Y-119532400D01*
X159211412Y-120003509D01*
X159269733Y-120471389D01*
X159269734Y-120471389D01*
X159366494Y-120932859D01*
X159501032Y-121384765D01*
X159672426Y-121824015D01*
X159672426Y-121824016D01*
X159879514Y-122247620D01*
X159879515Y-122247621D01*
X160120869Y-122652666D01*
X160120868Y-122652665D01*
X160394850Y-123036401D01*
X160690349Y-123385295D01*
X161663182Y-122412462D01*
X161724505Y-122378977D01*
X161794196Y-122383961D01*
X161842741Y-122416870D01*
X161923369Y-122505830D01*
X162012328Y-122586457D01*
X162048782Y-122646063D01*
X162047223Y-122715915D01*
X162016736Y-122766016D01*
X161043903Y-123738849D01*
X161043903Y-123738850D01*
X161392799Y-124034350D01*
X161776535Y-124308332D01*
X161776534Y-124308331D01*
X162181579Y-124549685D01*
X162181580Y-124549686D01*
X162605184Y-124756774D01*
X162605185Y-124756774D01*
X163044435Y-124928168D01*
X163496341Y-125062706D01*
X163957811Y-125159466D01*
X163957811Y-125159467D01*
X164425691Y-125217788D01*
X164896800Y-125237273D01*
X165367909Y-125217788D01*
X165835789Y-125159467D01*
X165835789Y-125159466D01*
X166297259Y-125062706D01*
X166749165Y-124928168D01*
X167188415Y-124756774D01*
X167188416Y-124756774D01*
X167612020Y-124549686D01*
X167612021Y-124549685D01*
X168017066Y-124308331D01*
X168017065Y-124308332D01*
X168400801Y-124034350D01*
X168749695Y-123738850D01*
X168749695Y-123738849D01*
X167776862Y-122766016D01*
X167743377Y-122704693D01*
X167748361Y-122635001D01*
X167781268Y-122586460D01*
X167870230Y-122505830D01*
X167950859Y-122416868D01*
X168010462Y-122380417D01*
X168080314Y-122381974D01*
X168130416Y-122412462D01*
X169103249Y-123385295D01*
X169103250Y-123385295D01*
X169398750Y-123036401D01*
X169672732Y-122652665D01*
X169672731Y-122652666D01*
X169914085Y-122247621D01*
X169914086Y-122247620D01*
X170121174Y-121824016D01*
X170121174Y-121824015D01*
X170292568Y-121384765D01*
X170427106Y-120932859D01*
X170523866Y-120471389D01*
X170523867Y-120471389D01*
X170582188Y-120003509D01*
X170601673Y-119532400D01*
X170582188Y-119061291D01*
X170523867Y-118593411D01*
X170523866Y-118593411D01*
X170427106Y-118131941D01*
X170292568Y-117680035D01*
X170121174Y-117240785D01*
X170121174Y-117240784D01*
X169914086Y-116817180D01*
X169914085Y-116817179D01*
X169672731Y-116412134D01*
X169672732Y-116412135D01*
X169398750Y-116028399D01*
X169103250Y-115679503D01*
X169103249Y-115679503D01*
X168130416Y-116652336D01*
X168069093Y-116685821D01*
X167999401Y-116680837D01*
X167950857Y-116647928D01*
X167870230Y-116558969D01*
X167781270Y-116478341D01*
X167744816Y-116418735D01*
X167746375Y-116348883D01*
X167776862Y-116298782D01*
X168749695Y-115325949D01*
X168400801Y-115030450D01*
X168017065Y-114756468D01*
X168017066Y-114756469D01*
X167612021Y-114515115D01*
X167612020Y-114515114D01*
X167188416Y-114308026D01*
X167188415Y-114308026D01*
X166749165Y-114136632D01*
X166297259Y-114002094D01*
X165835789Y-113905334D01*
X165835789Y-113905333D01*
X165367909Y-113847012D01*
X164896800Y-113827527D01*
X164425691Y-113847012D01*
X163957811Y-113905333D01*
X163957811Y-113905334D01*
X163496341Y-114002094D01*
X163044435Y-114136632D01*
X162605185Y-114308026D01*
X162605184Y-114308026D01*
X162181580Y-114515114D01*
X162181579Y-114515115D01*
X161776534Y-114756469D01*
X161776535Y-114756468D01*
X161392799Y-115030450D01*
X161043903Y-115325949D01*
X162016736Y-116298782D01*
X162050221Y-116360105D01*
X162045237Y-116429797D01*
X162012329Y-116478340D01*
X161923369Y-116558969D01*
X161842740Y-116647929D01*
X161783134Y-116684382D01*
X161713281Y-116682823D01*
X161663182Y-116652336D01*
X160690349Y-115679503D01*
X160394850Y-116028399D01*
X160120868Y-116412135D01*
X160120869Y-116412134D01*
X159879515Y-116817179D01*
X159879514Y-116817180D01*
X159672426Y-117240784D01*
X159672426Y-117240785D01*
X159501032Y-117680035D01*
X159366494Y-118131941D01*
X159269734Y-118593411D01*
X159269733Y-118593411D01*
X159211412Y-119061291D01*
X159191927Y-119532400D01*
X115001673Y-119532400D01*
X114982188Y-119061291D01*
X114923867Y-118593411D01*
X114923866Y-118593411D01*
X114827106Y-118131941D01*
X114692568Y-117680035D01*
X114521174Y-117240785D01*
X114521174Y-117240784D01*
X114314086Y-116817180D01*
X114314085Y-116817179D01*
X114072731Y-116412134D01*
X114072732Y-116412135D01*
X113982848Y-116286244D01*
X131222200Y-116286244D01*
X131228601Y-116345772D01*
X131228603Y-116345779D01*
X131278845Y-116480486D01*
X131278849Y-116480493D01*
X131365009Y-116595587D01*
X131365012Y-116595590D01*
X131480106Y-116681750D01*
X131480113Y-116681754D01*
X131614820Y-116731996D01*
X131614827Y-116731998D01*
X131674355Y-116738399D01*
X131674372Y-116738400D01*
X132322200Y-116738400D01*
X132322200Y-116000701D01*
X132341885Y-115933662D01*
X132394689Y-115887907D01*
X132463847Y-115877963D01*
X132536437Y-115888400D01*
X132536438Y-115888400D01*
X132607962Y-115888400D01*
X132607963Y-115888400D01*
X132680553Y-115877963D01*
X132749712Y-115887907D01*
X132802515Y-115933662D01*
X132822200Y-116000701D01*
X132822200Y-116738400D01*
X133470028Y-116738400D01*
X133470044Y-116738399D01*
X133529572Y-116731998D01*
X133529579Y-116731996D01*
X133664286Y-116681754D01*
X133664293Y-116681750D01*
X133779387Y-116595590D01*
X133779390Y-116595587D01*
X133865550Y-116480493D01*
X133865554Y-116480486D01*
X133914622Y-116348929D01*
X133956493Y-116292995D01*
X134021957Y-116268578D01*
X134090230Y-116283430D01*
X134118485Y-116304581D01*
X134240799Y-116426895D01*
X134317335Y-116480486D01*
X134434365Y-116562432D01*
X134434367Y-116562433D01*
X134434370Y-116562435D01*
X134648537Y-116662303D01*
X134876792Y-116723463D01*
X135047519Y-116738400D01*
X135112199Y-116744059D01*
X135112200Y-116744059D01*
X135112201Y-116744059D01*
X135176881Y-116738400D01*
X135347608Y-116723463D01*
X135575863Y-116662303D01*
X135790030Y-116562435D01*
X135983601Y-116426895D01*
X136150695Y-116259801D01*
X136280624Y-116074242D01*
X136335202Y-116030617D01*
X136404700Y-116023423D01*
X136467055Y-116054946D01*
X136483775Y-116074242D01*
X136613700Y-116259795D01*
X136613705Y-116259801D01*
X136780799Y-116426895D01*
X136857335Y-116480486D01*
X136974365Y-116562432D01*
X136974367Y-116562433D01*
X136974370Y-116562435D01*
X137188537Y-116662303D01*
X137416792Y-116723463D01*
X137587519Y-116738400D01*
X137652199Y-116744059D01*
X137652200Y-116744059D01*
X137652201Y-116744059D01*
X137716881Y-116738400D01*
X137887608Y-116723463D01*
X138115863Y-116662303D01*
X138330030Y-116562435D01*
X138523601Y-116426895D01*
X138690695Y-116259801D01*
X138820624Y-116074242D01*
X138875202Y-116030617D01*
X138944700Y-116023423D01*
X139007055Y-116054946D01*
X139023775Y-116074242D01*
X139153700Y-116259795D01*
X139153705Y-116259801D01*
X139320799Y-116426895D01*
X139397335Y-116480486D01*
X139514365Y-116562432D01*
X139514367Y-116562433D01*
X139514370Y-116562435D01*
X139728537Y-116662303D01*
X139956792Y-116723463D01*
X140127519Y-116738400D01*
X140192199Y-116744059D01*
X140192200Y-116744059D01*
X140192201Y-116744059D01*
X140256881Y-116738400D01*
X140427608Y-116723463D01*
X140655863Y-116662303D01*
X140870030Y-116562435D01*
X141063601Y-116426895D01*
X141230695Y-116259801D01*
X141360624Y-116074242D01*
X141415202Y-116030617D01*
X141484700Y-116023423D01*
X141547055Y-116054946D01*
X141563775Y-116074242D01*
X141693700Y-116259795D01*
X141693705Y-116259801D01*
X141860799Y-116426895D01*
X141937335Y-116480486D01*
X142054365Y-116562432D01*
X142054367Y-116562433D01*
X142054370Y-116562435D01*
X142268537Y-116662303D01*
X142496792Y-116723463D01*
X142667519Y-116738400D01*
X142732199Y-116744059D01*
X142732200Y-116744059D01*
X142732201Y-116744059D01*
X142796881Y-116738400D01*
X142967608Y-116723463D01*
X143195863Y-116662303D01*
X143410030Y-116562435D01*
X143603601Y-116426895D01*
X143770695Y-116259801D01*
X143906235Y-116066230D01*
X144006103Y-115852063D01*
X144067263Y-115623808D01*
X144087859Y-115388400D01*
X144067263Y-115152992D01*
X144006103Y-114924737D01*
X143906235Y-114710571D01*
X143900625Y-114702558D01*
X143770694Y-114516997D01*
X143603602Y-114349906D01*
X143603595Y-114349901D01*
X143410034Y-114214367D01*
X143410030Y-114214365D01*
X143315466Y-114170269D01*
X143195863Y-114114497D01*
X143195859Y-114114496D01*
X143195855Y-114114494D01*
X142967613Y-114053338D01*
X142967603Y-114053336D01*
X142732201Y-114032741D01*
X142732199Y-114032741D01*
X142496796Y-114053336D01*
X142496786Y-114053338D01*
X142268544Y-114114494D01*
X142268535Y-114114498D01*
X142054371Y-114214364D01*
X142054369Y-114214365D01*
X141860797Y-114349905D01*
X141693705Y-114516997D01*
X141563775Y-114702558D01*
X141509198Y-114746183D01*
X141439700Y-114753377D01*
X141377345Y-114721854D01*
X141360625Y-114702558D01*
X141230694Y-114516997D01*
X141063602Y-114349906D01*
X141063595Y-114349901D01*
X140870034Y-114214367D01*
X140870030Y-114214365D01*
X140775466Y-114170269D01*
X140655863Y-114114497D01*
X140655859Y-114114496D01*
X140655855Y-114114494D01*
X140427613Y-114053338D01*
X140427603Y-114053336D01*
X140344024Y-114046024D01*
X140278955Y-114020571D01*
X140237977Y-113963980D01*
X140234099Y-113894218D01*
X140267148Y-113834817D01*
X140335949Y-113766016D01*
X140397272Y-113732534D01*
X140423629Y-113729700D01*
X151574295Y-113729700D01*
X151592265Y-113731009D01*
X151616023Y-113734489D01*
X151668068Y-113729935D01*
X151673470Y-113729700D01*
X151681704Y-113729700D01*
X151681709Y-113729700D01*
X151693327Y-113728341D01*
X151714276Y-113725893D01*
X151727028Y-113724777D01*
X151790797Y-113719199D01*
X151790805Y-113719196D01*
X151797866Y-113717739D01*
X151797878Y-113717798D01*
X151805243Y-113716165D01*
X151805229Y-113716106D01*
X151812246Y-113714441D01*
X151812255Y-113714441D01*
X151884423Y-113688174D01*
X151957334Y-113664014D01*
X151957343Y-113664007D01*
X151963882Y-113660960D01*
X151963908Y-113661016D01*
X151970690Y-113657732D01*
X151970663Y-113657678D01*
X151977106Y-113654440D01*
X151977117Y-113654437D01*
X152041283Y-113612234D01*
X152106656Y-113571912D01*
X152106662Y-113571905D01*
X152112325Y-113567429D01*
X152112362Y-113567477D01*
X152118204Y-113562718D01*
X152118164Y-113562671D01*
X152123691Y-113558032D01*
X152123696Y-113558030D01*
X152176386Y-113502181D01*
X156866217Y-108812348D01*
X156927538Y-108778865D01*
X156997230Y-108783849D01*
X157053163Y-108825721D01*
X157077424Y-108889223D01*
X157084736Y-108972803D01*
X157084738Y-108972813D01*
X157145894Y-109201055D01*
X157145896Y-109201059D01*
X157145897Y-109201063D01*
X157178969Y-109271986D01*
X157245765Y-109415230D01*
X157245767Y-109415234D01*
X157310302Y-109507399D01*
X157381305Y-109608801D01*
X157548399Y-109775895D01*
X157645184Y-109843665D01*
X157741965Y-109911432D01*
X157741967Y-109911433D01*
X157741970Y-109911435D01*
X157956137Y-110011303D01*
X158184392Y-110072463D01*
X158372718Y-110088939D01*
X158419799Y-110093059D01*
X158419800Y-110093059D01*
X158419801Y-110093059D01*
X158459034Y-110089626D01*
X158655208Y-110072463D01*
X158883463Y-110011303D01*
X159097630Y-109911435D01*
X159291201Y-109775895D01*
X159458295Y-109608801D01*
X159529297Y-109507400D01*
X163941141Y-109507400D01*
X163961736Y-109742803D01*
X163961738Y-109742813D01*
X164022894Y-109971055D01*
X164022896Y-109971059D01*
X164022897Y-109971063D01*
X164065330Y-110062061D01*
X164122765Y-110185230D01*
X164122767Y-110185234D01*
X164231081Y-110339921D01*
X164258305Y-110378801D01*
X164425399Y-110545895D01*
X164522184Y-110613665D01*
X164618965Y-110681432D01*
X164618967Y-110681433D01*
X164618970Y-110681435D01*
X164833137Y-110781303D01*
X165061392Y-110842463D01*
X165249718Y-110858939D01*
X165296799Y-110863059D01*
X165296800Y-110863059D01*
X165296801Y-110863059D01*
X165336034Y-110859626D01*
X165532208Y-110842463D01*
X165760463Y-110781303D01*
X165974630Y-110681435D01*
X166168201Y-110545895D01*
X166335295Y-110378801D01*
X166470835Y-110185230D01*
X166570703Y-109971063D01*
X166631863Y-109742808D01*
X166652459Y-109507400D01*
X166631863Y-109271992D01*
X166570703Y-109043737D01*
X166470835Y-108829571D01*
X166468140Y-108825721D01*
X166335294Y-108635997D01*
X166168202Y-108468906D01*
X166168196Y-108468901D01*
X165982642Y-108338975D01*
X165939017Y-108284398D01*
X165931823Y-108214900D01*
X165963346Y-108152545D01*
X165982642Y-108135825D01*
X166025486Y-108105825D01*
X166168201Y-108005895D01*
X166335295Y-107838801D01*
X166470835Y-107645230D01*
X166570703Y-107431063D01*
X166631863Y-107202808D01*
X166652459Y-106967400D01*
X166631863Y-106731992D01*
X166570703Y-106503737D01*
X166470835Y-106289571D01*
X166449828Y-106259569D01*
X166335294Y-106095997D01*
X166168202Y-105928906D01*
X166168196Y-105928901D01*
X165982642Y-105798975D01*
X165939017Y-105744398D01*
X165931823Y-105674900D01*
X165963346Y-105612545D01*
X165982642Y-105595825D01*
X166025488Y-105565824D01*
X166168201Y-105465895D01*
X166335295Y-105298801D01*
X166470835Y-105105230D01*
X166570703Y-104891063D01*
X166631863Y-104662808D01*
X166652459Y-104427400D01*
X166631863Y-104191992D01*
X166570703Y-103963737D01*
X166470835Y-103749571D01*
X166449828Y-103719569D01*
X166335294Y-103555997D01*
X166168202Y-103388906D01*
X166168196Y-103388901D01*
X165982642Y-103258975D01*
X165939017Y-103204398D01*
X165931823Y-103134900D01*
X165963346Y-103072545D01*
X165982642Y-103055825D01*
X166025486Y-103025825D01*
X166168201Y-102925895D01*
X166335295Y-102758801D01*
X166470835Y-102565230D01*
X166570703Y-102351063D01*
X166631863Y-102122808D01*
X166652459Y-101887400D01*
X166631863Y-101651992D01*
X166570703Y-101423737D01*
X166470835Y-101209571D01*
X166449828Y-101179569D01*
X166335294Y-101015997D01*
X166168202Y-100848906D01*
X166168196Y-100848901D01*
X165982642Y-100718975D01*
X165939017Y-100664398D01*
X165931823Y-100594900D01*
X165963346Y-100532545D01*
X165982642Y-100515825D01*
X166025488Y-100485824D01*
X166168201Y-100385895D01*
X166335295Y-100218801D01*
X166470835Y-100025230D01*
X166570703Y-99811063D01*
X166631863Y-99582808D01*
X166652459Y-99347400D01*
X166631863Y-99111992D01*
X166570703Y-98883737D01*
X166470835Y-98669571D01*
X166449828Y-98639569D01*
X166335294Y-98475997D01*
X166168202Y-98308906D01*
X166168196Y-98308901D01*
X165982642Y-98178975D01*
X165939017Y-98124398D01*
X165931823Y-98054900D01*
X165963346Y-97992545D01*
X165982642Y-97975825D01*
X166025486Y-97945825D01*
X166168201Y-97845895D01*
X166335295Y-97678801D01*
X166470835Y-97485230D01*
X166570703Y-97271063D01*
X166631863Y-97042808D01*
X166652459Y-96807400D01*
X166631863Y-96571992D01*
X166570703Y-96343737D01*
X166470835Y-96129571D01*
X166449828Y-96099569D01*
X166335294Y-95935997D01*
X166168202Y-95768906D01*
X166168196Y-95768901D01*
X165982642Y-95638975D01*
X165939017Y-95584398D01*
X165931823Y-95514900D01*
X165963346Y-95452545D01*
X165982642Y-95435825D01*
X166025486Y-95405825D01*
X166168201Y-95305895D01*
X166335295Y-95138801D01*
X166470835Y-94945230D01*
X166570703Y-94731063D01*
X166631863Y-94502808D01*
X166652459Y-94267400D01*
X166631863Y-94031992D01*
X166570703Y-93803737D01*
X166470835Y-93589571D01*
X166449828Y-93559569D01*
X166335294Y-93395997D01*
X166168202Y-93228906D01*
X166168196Y-93228901D01*
X165982642Y-93098975D01*
X165939017Y-93044398D01*
X165931823Y-92974900D01*
X165963346Y-92912545D01*
X165982642Y-92895825D01*
X166025486Y-92865825D01*
X166168201Y-92765895D01*
X166335295Y-92598801D01*
X166470835Y-92405230D01*
X166570703Y-92191063D01*
X166631863Y-91962808D01*
X166652459Y-91727400D01*
X166631863Y-91491992D01*
X166570703Y-91263737D01*
X166470835Y-91049571D01*
X166449828Y-91019569D01*
X166335294Y-90855997D01*
X166168202Y-90688906D01*
X166168196Y-90688901D01*
X165982642Y-90558975D01*
X165939017Y-90504398D01*
X165931823Y-90434900D01*
X165963346Y-90372545D01*
X165982642Y-90355825D01*
X166025486Y-90325825D01*
X166168201Y-90225895D01*
X166335295Y-90058801D01*
X166470835Y-89865230D01*
X166570703Y-89651063D01*
X166631863Y-89422808D01*
X166652459Y-89187400D01*
X166631863Y-88951992D01*
X166570703Y-88723737D01*
X166470835Y-88509571D01*
X166449828Y-88479569D01*
X166335294Y-88315997D01*
X166168202Y-88148906D01*
X166168196Y-88148901D01*
X165982642Y-88018975D01*
X165939017Y-87964398D01*
X165931823Y-87894900D01*
X165963346Y-87832545D01*
X165982642Y-87815825D01*
X166025486Y-87785825D01*
X166168201Y-87685895D01*
X166335295Y-87518801D01*
X166470835Y-87325230D01*
X166570703Y-87111063D01*
X166631863Y-86882808D01*
X166652459Y-86647400D01*
X166631863Y-86411992D01*
X166570703Y-86183737D01*
X166470835Y-85969571D01*
X166449828Y-85939569D01*
X166335294Y-85775997D01*
X166168202Y-85608906D01*
X166168196Y-85608901D01*
X165982642Y-85478975D01*
X165939017Y-85424398D01*
X165931823Y-85354900D01*
X165963346Y-85292545D01*
X165982642Y-85275825D01*
X166025486Y-85245825D01*
X166168201Y-85145895D01*
X166335295Y-84978801D01*
X166470835Y-84785230D01*
X166570703Y-84571063D01*
X166631863Y-84342808D01*
X166652459Y-84107400D01*
X166631863Y-83871992D01*
X166570703Y-83643737D01*
X166470835Y-83429571D01*
X166449828Y-83399569D01*
X166335294Y-83235997D01*
X166168202Y-83068906D01*
X166168196Y-83068901D01*
X165982642Y-82938975D01*
X165939017Y-82884398D01*
X165931823Y-82814900D01*
X165963346Y-82752545D01*
X165982642Y-82735825D01*
X166025486Y-82705825D01*
X166168201Y-82605895D01*
X166335295Y-82438801D01*
X166470835Y-82245230D01*
X166570703Y-82031063D01*
X166631863Y-81802808D01*
X166652459Y-81567400D01*
X166631863Y-81331992D01*
X166570703Y-81103737D01*
X166470835Y-80889571D01*
X166449828Y-80859569D01*
X166335294Y-80695997D01*
X166168202Y-80528906D01*
X166168196Y-80528901D01*
X165982642Y-80398975D01*
X165939017Y-80344398D01*
X165931823Y-80274900D01*
X165963346Y-80212545D01*
X165982642Y-80195825D01*
X166025486Y-80165825D01*
X166168201Y-80065895D01*
X166335295Y-79898801D01*
X166470835Y-79705230D01*
X166570703Y-79491063D01*
X166631863Y-79262808D01*
X166652459Y-79027400D01*
X166631863Y-78791992D01*
X166570703Y-78563737D01*
X166470835Y-78349571D01*
X166449828Y-78319569D01*
X166335294Y-78155997D01*
X166168202Y-77988906D01*
X166168196Y-77988901D01*
X165982642Y-77858975D01*
X165939017Y-77804398D01*
X165931823Y-77734900D01*
X165963346Y-77672545D01*
X165982642Y-77655825D01*
X166025486Y-77625825D01*
X166168201Y-77525895D01*
X166335295Y-77358801D01*
X166470835Y-77165230D01*
X166570703Y-76951063D01*
X166631863Y-76722808D01*
X166652459Y-76487400D01*
X166631863Y-76251992D01*
X166570703Y-76023737D01*
X166470835Y-75809571D01*
X166449827Y-75779569D01*
X166335296Y-75616000D01*
X166305295Y-75585999D01*
X166213367Y-75494071D01*
X166179884Y-75432751D01*
X166184868Y-75363059D01*
X166226739Y-75307125D01*
X166257715Y-75290210D01*
X166389131Y-75241196D01*
X166504346Y-75154946D01*
X166590596Y-75039731D01*
X166640891Y-74904883D01*
X166647300Y-74845273D01*
X166647299Y-73049528D01*
X166640891Y-72989917D01*
X166629701Y-72959916D01*
X166590597Y-72855071D01*
X166590593Y-72855064D01*
X166504347Y-72739855D01*
X166504344Y-72739852D01*
X166389135Y-72653606D01*
X166389128Y-72653602D01*
X166254282Y-72603308D01*
X166254283Y-72603308D01*
X166194683Y-72596901D01*
X166194681Y-72596900D01*
X166194673Y-72596900D01*
X166194664Y-72596900D01*
X164398929Y-72596900D01*
X164398923Y-72596901D01*
X164339316Y-72603308D01*
X164204471Y-72653602D01*
X164204464Y-72653606D01*
X164089255Y-72739852D01*
X164089252Y-72739855D01*
X164003006Y-72855064D01*
X164003002Y-72855071D01*
X163952708Y-72989917D01*
X163946301Y-73049516D01*
X163946301Y-73049523D01*
X163946300Y-73049535D01*
X163946300Y-74845270D01*
X163946301Y-74845276D01*
X163952708Y-74904883D01*
X164003002Y-75039728D01*
X164003006Y-75039735D01*
X164089252Y-75154944D01*
X164089255Y-75154947D01*
X164204464Y-75241193D01*
X164204471Y-75241197D01*
X164335881Y-75290210D01*
X164391815Y-75332081D01*
X164416232Y-75397545D01*
X164401380Y-75465818D01*
X164380230Y-75494073D01*
X164258303Y-75616000D01*
X164122765Y-75809569D01*
X164122764Y-75809571D01*
X164022898Y-76023735D01*
X164022894Y-76023744D01*
X163961738Y-76251986D01*
X163961736Y-76251996D01*
X163941141Y-76487399D01*
X163941141Y-76487400D01*
X163961736Y-76722803D01*
X163961738Y-76722813D01*
X164022894Y-76951055D01*
X164022896Y-76951059D01*
X164022897Y-76951063D01*
X164108776Y-77135230D01*
X164122765Y-77165230D01*
X164122767Y-77165234D01*
X164231081Y-77319921D01*
X164237299Y-77328802D01*
X164258301Y-77358795D01*
X164258306Y-77358802D01*
X164425397Y-77525893D01*
X164425403Y-77525898D01*
X164610958Y-77655825D01*
X164654583Y-77710402D01*
X164661777Y-77779900D01*
X164630254Y-77842255D01*
X164610958Y-77858975D01*
X164425397Y-77988905D01*
X164258305Y-78155997D01*
X164122765Y-78349569D01*
X164122764Y-78349571D01*
X164022898Y-78563735D01*
X164022894Y-78563744D01*
X163961738Y-78791986D01*
X163961736Y-78791996D01*
X163941141Y-79027399D01*
X163941141Y-79027400D01*
X163961736Y-79262803D01*
X163961738Y-79262813D01*
X164022894Y-79491055D01*
X164022896Y-79491059D01*
X164022897Y-79491063D01*
X164108776Y-79675230D01*
X164122765Y-79705230D01*
X164122767Y-79705234D01*
X164231081Y-79859921D01*
X164237299Y-79868802D01*
X164258301Y-79898795D01*
X164258306Y-79898802D01*
X164425397Y-80065893D01*
X164425403Y-80065898D01*
X164610958Y-80195825D01*
X164654583Y-80250402D01*
X164661777Y-80319900D01*
X164630254Y-80382255D01*
X164610958Y-80398975D01*
X164425397Y-80528905D01*
X164258305Y-80695997D01*
X164122765Y-80889569D01*
X164122764Y-80889571D01*
X164022898Y-81103735D01*
X164022894Y-81103744D01*
X163961738Y-81331986D01*
X163961736Y-81331996D01*
X163941141Y-81567399D01*
X163941141Y-81567400D01*
X163961736Y-81802803D01*
X163961738Y-81802813D01*
X164022894Y-82031055D01*
X164022896Y-82031059D01*
X164022897Y-82031063D01*
X164108776Y-82215230D01*
X164122765Y-82245230D01*
X164122767Y-82245234D01*
X164231081Y-82399921D01*
X164237299Y-82408802D01*
X164258301Y-82438795D01*
X164258306Y-82438802D01*
X164425397Y-82605893D01*
X164425403Y-82605898D01*
X164610958Y-82735825D01*
X164654583Y-82790402D01*
X164661777Y-82859900D01*
X164630254Y-82922255D01*
X164610958Y-82938975D01*
X164425397Y-83068905D01*
X164258305Y-83235997D01*
X164122765Y-83429569D01*
X164122764Y-83429571D01*
X164022898Y-83643735D01*
X164022894Y-83643744D01*
X163961738Y-83871986D01*
X163961736Y-83871996D01*
X163941141Y-84107399D01*
X163941141Y-84107400D01*
X163961736Y-84342803D01*
X163961738Y-84342813D01*
X164022894Y-84571055D01*
X164022896Y-84571059D01*
X164022897Y-84571063D01*
X164108776Y-84755230D01*
X164122765Y-84785230D01*
X164122767Y-84785234D01*
X164231081Y-84939921D01*
X164237299Y-84948802D01*
X164258301Y-84978795D01*
X164258306Y-84978802D01*
X164425397Y-85145893D01*
X164425403Y-85145898D01*
X164610958Y-85275825D01*
X164654583Y-85330402D01*
X164661777Y-85399900D01*
X164630254Y-85462255D01*
X164610958Y-85478975D01*
X164425397Y-85608905D01*
X164258305Y-85775997D01*
X164122765Y-85969569D01*
X164122764Y-85969571D01*
X164022898Y-86183735D01*
X164022894Y-86183744D01*
X163961738Y-86411986D01*
X163961736Y-86411996D01*
X163941141Y-86647399D01*
X163941141Y-86647400D01*
X163961736Y-86882803D01*
X163961738Y-86882813D01*
X164022894Y-87111055D01*
X164022896Y-87111059D01*
X164022897Y-87111063D01*
X164108776Y-87295230D01*
X164122765Y-87325230D01*
X164122767Y-87325234D01*
X164231081Y-87479921D01*
X164237299Y-87488802D01*
X164258301Y-87518795D01*
X164258306Y-87518802D01*
X164425397Y-87685893D01*
X164425403Y-87685898D01*
X164610958Y-87815825D01*
X164654583Y-87870402D01*
X164661777Y-87939900D01*
X164630254Y-88002255D01*
X164610958Y-88018975D01*
X164425397Y-88148905D01*
X164258305Y-88315997D01*
X164122765Y-88509569D01*
X164122764Y-88509571D01*
X164022898Y-88723735D01*
X164022894Y-88723744D01*
X163961738Y-88951986D01*
X163961736Y-88951996D01*
X163941141Y-89187399D01*
X163941141Y-89187400D01*
X163961736Y-89422803D01*
X163961738Y-89422813D01*
X164022894Y-89651055D01*
X164022896Y-89651059D01*
X164022897Y-89651063D01*
X164108776Y-89835230D01*
X164122765Y-89865230D01*
X164122767Y-89865234D01*
X164231081Y-90019921D01*
X164237299Y-90028802D01*
X164258301Y-90058795D01*
X164258306Y-90058802D01*
X164425397Y-90225893D01*
X164425403Y-90225898D01*
X164610958Y-90355825D01*
X164654583Y-90410402D01*
X164661777Y-90479900D01*
X164630254Y-90542255D01*
X164610958Y-90558975D01*
X164425397Y-90688905D01*
X164258305Y-90855997D01*
X164122765Y-91049569D01*
X164122764Y-91049571D01*
X164022898Y-91263735D01*
X164022894Y-91263744D01*
X163961738Y-91491986D01*
X163961736Y-91491996D01*
X163941141Y-91727399D01*
X163941141Y-91727400D01*
X163961736Y-91962803D01*
X163961738Y-91962813D01*
X164022894Y-92191055D01*
X164022896Y-92191059D01*
X164022897Y-92191063D01*
X164108776Y-92375230D01*
X164122765Y-92405230D01*
X164122767Y-92405234D01*
X164231081Y-92559921D01*
X164237299Y-92568802D01*
X164258301Y-92598795D01*
X164258306Y-92598802D01*
X164425397Y-92765893D01*
X164425403Y-92765898D01*
X164610958Y-92895825D01*
X164654583Y-92950402D01*
X164661777Y-93019900D01*
X164630254Y-93082255D01*
X164610958Y-93098975D01*
X164425397Y-93228905D01*
X164258305Y-93395997D01*
X164122765Y-93589569D01*
X164122764Y-93589571D01*
X164022898Y-93803735D01*
X164022894Y-93803744D01*
X163961738Y-94031986D01*
X163961736Y-94031996D01*
X163941141Y-94267399D01*
X163941141Y-94267400D01*
X163961736Y-94502803D01*
X163961738Y-94502813D01*
X164022894Y-94731055D01*
X164022896Y-94731059D01*
X164022897Y-94731063D01*
X164108776Y-94915230D01*
X164122765Y-94945230D01*
X164122767Y-94945234D01*
X164231081Y-95099921D01*
X164237299Y-95108802D01*
X164258301Y-95138795D01*
X164258306Y-95138802D01*
X164425397Y-95305893D01*
X164425403Y-95305898D01*
X164610958Y-95435825D01*
X164654583Y-95490402D01*
X164661777Y-95559900D01*
X164630254Y-95622255D01*
X164610958Y-95638975D01*
X164425397Y-95768905D01*
X164258305Y-95935997D01*
X164122765Y-96129569D01*
X164122764Y-96129571D01*
X164022898Y-96343735D01*
X164022894Y-96343744D01*
X163961738Y-96571986D01*
X163961736Y-96571996D01*
X163941141Y-96807399D01*
X163941141Y-96807400D01*
X163961736Y-97042803D01*
X163961738Y-97042813D01*
X164022894Y-97271055D01*
X164022896Y-97271059D01*
X164022897Y-97271063D01*
X164108776Y-97455230D01*
X164122765Y-97485230D01*
X164122767Y-97485234D01*
X164231081Y-97639921D01*
X164237299Y-97648802D01*
X164258301Y-97678795D01*
X164258306Y-97678802D01*
X164425397Y-97845893D01*
X164425403Y-97845898D01*
X164610958Y-97975825D01*
X164654583Y-98030402D01*
X164661777Y-98099900D01*
X164630254Y-98162255D01*
X164610958Y-98178975D01*
X164425397Y-98308905D01*
X164258305Y-98475997D01*
X164122765Y-98669569D01*
X164122764Y-98669571D01*
X164022898Y-98883735D01*
X164022894Y-98883744D01*
X163961738Y-99111986D01*
X163961736Y-99111996D01*
X163941141Y-99347399D01*
X163941141Y-99347400D01*
X163961736Y-99582803D01*
X163961738Y-99582813D01*
X164022894Y-99811055D01*
X164022896Y-99811059D01*
X164022897Y-99811063D01*
X164108776Y-99995230D01*
X164122765Y-100025230D01*
X164122767Y-100025234D01*
X164231081Y-100179921D01*
X164237299Y-100188802D01*
X164258301Y-100218795D01*
X164258306Y-100218802D01*
X164425397Y-100385893D01*
X164425403Y-100385898D01*
X164610958Y-100515825D01*
X164654583Y-100570402D01*
X164661777Y-100639900D01*
X164630254Y-100702255D01*
X164610958Y-100718975D01*
X164425397Y-100848905D01*
X164258305Y-101015997D01*
X164122765Y-101209569D01*
X164122764Y-101209571D01*
X164022898Y-101423735D01*
X164022894Y-101423744D01*
X163961738Y-101651986D01*
X163961736Y-101651996D01*
X163941141Y-101887399D01*
X163941141Y-101887400D01*
X163961736Y-102122803D01*
X163961738Y-102122813D01*
X164022894Y-102351055D01*
X164022896Y-102351059D01*
X164022897Y-102351063D01*
X164028745Y-102363604D01*
X164122765Y-102565230D01*
X164122767Y-102565234D01*
X164209791Y-102689516D01*
X164251528Y-102749123D01*
X164258301Y-102758795D01*
X164258306Y-102758802D01*
X164425397Y-102925893D01*
X164425403Y-102925898D01*
X164610958Y-103055825D01*
X164654583Y-103110402D01*
X164661777Y-103179900D01*
X164630254Y-103242255D01*
X164610958Y-103258975D01*
X164425397Y-103388905D01*
X164258305Y-103555997D01*
X164122765Y-103749569D01*
X164122764Y-103749571D01*
X164022898Y-103963735D01*
X164022894Y-103963744D01*
X163961738Y-104191986D01*
X163961736Y-104191996D01*
X163941141Y-104427399D01*
X163941141Y-104427400D01*
X163961736Y-104662803D01*
X163961738Y-104662813D01*
X164022894Y-104891055D01*
X164022896Y-104891059D01*
X164022897Y-104891063D01*
X164093318Y-105042081D01*
X164122765Y-105105230D01*
X164122767Y-105105234D01*
X164191976Y-105204074D01*
X164237299Y-105268802D01*
X164258301Y-105298795D01*
X164258306Y-105298802D01*
X164425397Y-105465893D01*
X164425403Y-105465898D01*
X164610958Y-105595825D01*
X164654583Y-105650402D01*
X164661777Y-105719900D01*
X164630254Y-105782255D01*
X164610958Y-105798975D01*
X164425397Y-105928905D01*
X164258305Y-106095997D01*
X164122765Y-106289569D01*
X164122764Y-106289571D01*
X164022898Y-106503735D01*
X164022894Y-106503744D01*
X163961738Y-106731986D01*
X163961736Y-106731996D01*
X163941141Y-106967399D01*
X163941141Y-106967400D01*
X163961736Y-107202803D01*
X163961738Y-107202813D01*
X164022894Y-107431055D01*
X164022896Y-107431059D01*
X164022897Y-107431063D01*
X164079741Y-107552965D01*
X164122765Y-107645230D01*
X164122767Y-107645234D01*
X164160349Y-107698906D01*
X164237299Y-107808802D01*
X164258301Y-107838795D01*
X164258306Y-107838802D01*
X164425397Y-108005893D01*
X164425403Y-108005898D01*
X164610958Y-108135825D01*
X164654583Y-108190402D01*
X164661777Y-108259900D01*
X164630254Y-108322255D01*
X164610958Y-108338975D01*
X164425397Y-108468905D01*
X164258305Y-108635997D01*
X164122765Y-108829569D01*
X164122764Y-108829571D01*
X164022898Y-109043735D01*
X164022894Y-109043744D01*
X163961738Y-109271986D01*
X163961736Y-109271996D01*
X163941141Y-109507399D01*
X163941141Y-109507400D01*
X159529297Y-109507400D01*
X159593835Y-109415230D01*
X159693703Y-109201063D01*
X159754863Y-108972808D01*
X159775459Y-108737400D01*
X159754863Y-108501992D01*
X159693703Y-108273737D01*
X159593835Y-108059571D01*
X159586552Y-108049169D01*
X159458294Y-107865997D01*
X159291202Y-107698906D01*
X159291196Y-107698901D01*
X159105642Y-107568975D01*
X159062017Y-107514398D01*
X159054823Y-107444900D01*
X159086346Y-107382545D01*
X159105642Y-107365825D01*
X159127826Y-107350291D01*
X159291201Y-107235895D01*
X159458295Y-107068801D01*
X159593835Y-106875230D01*
X159693703Y-106661063D01*
X159754863Y-106432808D01*
X159775459Y-106197400D01*
X159754863Y-105961992D01*
X159693703Y-105733737D01*
X159593835Y-105519571D01*
X159586551Y-105509169D01*
X159458296Y-105326000D01*
X159401091Y-105268795D01*
X159336367Y-105204071D01*
X159302884Y-105142751D01*
X159307868Y-105073059D01*
X159349739Y-105017125D01*
X159380715Y-105000210D01*
X159512131Y-104951196D01*
X159627346Y-104864946D01*
X159713596Y-104749731D01*
X159763891Y-104614883D01*
X159770300Y-104555273D01*
X159770299Y-102759528D01*
X159763891Y-102699917D01*
X159713596Y-102565069D01*
X159713595Y-102565068D01*
X159713593Y-102565064D01*
X159627347Y-102449855D01*
X159627344Y-102449852D01*
X159512135Y-102363606D01*
X159512128Y-102363602D01*
X159377282Y-102313308D01*
X159377283Y-102313308D01*
X159317683Y-102306901D01*
X159317681Y-102306900D01*
X159317673Y-102306900D01*
X159317664Y-102306900D01*
X157521929Y-102306900D01*
X157521923Y-102306901D01*
X157462316Y-102313308D01*
X157327471Y-102363602D01*
X157327464Y-102363606D01*
X157212255Y-102449852D01*
X157212252Y-102449855D01*
X157126006Y-102565064D01*
X157126002Y-102565071D01*
X157075708Y-102699917D01*
X157070418Y-102749127D01*
X157069301Y-102759523D01*
X157069300Y-102759535D01*
X157069300Y-104555270D01*
X157069301Y-104555276D01*
X157075708Y-104614883D01*
X157126002Y-104749728D01*
X157126006Y-104749735D01*
X157212252Y-104864944D01*
X157212255Y-104864947D01*
X157327464Y-104951193D01*
X157327471Y-104951197D01*
X157458881Y-105000210D01*
X157514815Y-105042081D01*
X157539232Y-105107545D01*
X157524380Y-105175818D01*
X157503230Y-105204073D01*
X157381303Y-105326000D01*
X157245765Y-105519569D01*
X157245761Y-105519576D01*
X157185455Y-105648902D01*
X157181895Y-105655471D01*
X157167123Y-105679198D01*
X157167123Y-105679199D01*
X157167120Y-105679204D01*
X157167119Y-105679207D01*
X156804748Y-106503744D01*
X156620187Y-106923694D01*
X156594347Y-106961484D01*
X151363451Y-112192381D01*
X151302128Y-112225866D01*
X151275770Y-112228700D01*
X140125105Y-112228700D01*
X140107135Y-112227391D01*
X140083372Y-112223910D01*
X140038290Y-112227855D01*
X140031333Y-112228464D01*
X140025932Y-112228700D01*
X140017688Y-112228700D01*
X139985107Y-112232508D01*
X139908599Y-112239201D01*
X139901533Y-112240661D01*
X139901521Y-112240604D01*
X139894154Y-112242238D01*
X139894168Y-112242294D01*
X139887151Y-112243956D01*
X139814973Y-112270226D01*
X139742062Y-112294387D01*
X139735519Y-112297438D01*
X139735494Y-112297386D01*
X139728710Y-112300670D01*
X139728736Y-112300721D01*
X139722285Y-112303961D01*
X139658123Y-112346161D01*
X139592746Y-112386485D01*
X139587082Y-112390965D01*
X139587046Y-112390919D01*
X139581198Y-112395684D01*
X139581235Y-112395728D01*
X139575710Y-112400364D01*
X139523014Y-112456217D01*
X138416285Y-113562945D01*
X138378495Y-113588785D01*
X137134017Y-114135714D01*
X137134015Y-114135715D01*
X137134007Y-114135719D01*
X137123531Y-114140935D01*
X137090646Y-114157309D01*
X137085621Y-114160442D01*
X137085495Y-114160240D01*
X137068933Y-114170269D01*
X136974368Y-114214366D01*
X136780797Y-114349905D01*
X136613705Y-114516997D01*
X136483775Y-114702558D01*
X136429198Y-114746183D01*
X136359700Y-114753377D01*
X136297345Y-114721854D01*
X136280625Y-114702558D01*
X136150694Y-114516997D01*
X135983602Y-114349906D01*
X135983595Y-114349901D01*
X135790034Y-114214367D01*
X135790030Y-114214365D01*
X135695466Y-114170269D01*
X135575863Y-114114497D01*
X135575859Y-114114496D01*
X135575855Y-114114494D01*
X135347613Y-114053338D01*
X135347603Y-114053336D01*
X135112201Y-114032741D01*
X135112199Y-114032741D01*
X134876796Y-114053336D01*
X134876786Y-114053338D01*
X134648544Y-114114494D01*
X134648535Y-114114498D01*
X134434371Y-114214364D01*
X134434369Y-114214365D01*
X134240800Y-114349903D01*
X134118484Y-114472219D01*
X134057161Y-114505703D01*
X133987469Y-114500719D01*
X133931536Y-114458847D01*
X133914621Y-114427870D01*
X133865554Y-114296313D01*
X133865550Y-114296306D01*
X133779390Y-114181212D01*
X133779387Y-114181209D01*
X133664293Y-114095049D01*
X133664286Y-114095045D01*
X133529579Y-114044803D01*
X133529572Y-114044801D01*
X133470044Y-114038400D01*
X132822200Y-114038400D01*
X132822200Y-114776098D01*
X132802515Y-114843137D01*
X132749711Y-114888892D01*
X132680555Y-114898836D01*
X132607966Y-114888400D01*
X132607963Y-114888400D01*
X132536437Y-114888400D01*
X132536433Y-114888400D01*
X132463845Y-114898836D01*
X132394687Y-114888892D01*
X132341884Y-114843136D01*
X132322200Y-114776098D01*
X132322200Y-114038400D01*
X131674355Y-114038400D01*
X131614827Y-114044801D01*
X131614820Y-114044803D01*
X131480113Y-114095045D01*
X131480106Y-114095049D01*
X131365012Y-114181209D01*
X131365009Y-114181212D01*
X131278849Y-114296306D01*
X131278845Y-114296313D01*
X131228603Y-114431020D01*
X131228601Y-114431027D01*
X131222200Y-114490555D01*
X131222200Y-115138400D01*
X131958853Y-115138400D01*
X132025892Y-115158085D01*
X132071647Y-115210889D01*
X132081591Y-115280047D01*
X132077831Y-115297333D01*
X132072200Y-115316511D01*
X132072200Y-115460288D01*
X132077831Y-115479467D01*
X132077830Y-115549336D01*
X132040055Y-115608114D01*
X131976499Y-115637138D01*
X131958853Y-115638400D01*
X131222200Y-115638400D01*
X131222200Y-116286244D01*
X113982848Y-116286244D01*
X113798750Y-116028399D01*
X113503250Y-115679503D01*
X113503249Y-115679503D01*
X112530416Y-116652336D01*
X112469093Y-116685821D01*
X112399401Y-116680837D01*
X112350857Y-116647928D01*
X112270230Y-116558969D01*
X112181270Y-116478341D01*
X112144816Y-116418735D01*
X112146375Y-116348883D01*
X112176862Y-116298782D01*
X113149695Y-115325949D01*
X112800801Y-115030450D01*
X112417065Y-114756468D01*
X112417066Y-114756469D01*
X112012021Y-114515115D01*
X112012020Y-114515114D01*
X111588416Y-114308026D01*
X111588415Y-114308026D01*
X111149165Y-114136632D01*
X110697259Y-114002094D01*
X110235789Y-113905334D01*
X110235789Y-113905333D01*
X109767909Y-113847012D01*
X109296800Y-113827527D01*
X108825691Y-113847012D01*
X108357811Y-113905333D01*
X108357811Y-113905334D01*
X107896341Y-114002094D01*
X107444435Y-114136632D01*
X107005185Y-114308026D01*
X107005184Y-114308026D01*
X106581580Y-114515114D01*
X106581579Y-114515115D01*
X106176534Y-114756469D01*
X106176535Y-114756468D01*
X105792799Y-115030450D01*
X105443903Y-115325949D01*
X106416736Y-116298782D01*
X106450221Y-116360105D01*
X106445237Y-116429797D01*
X106412329Y-116478340D01*
X106323369Y-116558969D01*
X106242740Y-116647929D01*
X106183134Y-116684382D01*
X106113281Y-116682823D01*
X106063182Y-116652336D01*
X105090349Y-115679503D01*
X104794850Y-116028399D01*
X104520868Y-116412135D01*
X104520869Y-116412134D01*
X104279515Y-116817179D01*
X104279514Y-116817180D01*
X104072426Y-117240784D01*
X104072426Y-117240785D01*
X103901032Y-117680035D01*
X103766494Y-118131941D01*
X103669734Y-118593411D01*
X103669733Y-118593411D01*
X103611412Y-119061291D01*
X103591927Y-119532400D01*
X102097300Y-119532400D01*
X102097300Y-109477400D01*
X107541141Y-109477400D01*
X107561736Y-109712803D01*
X107561738Y-109712813D01*
X107622894Y-109941055D01*
X107622896Y-109941059D01*
X107622897Y-109941063D01*
X107693774Y-110093059D01*
X107722765Y-110155230D01*
X107722767Y-110155234D01*
X107831081Y-110309921D01*
X107858305Y-110348801D01*
X108025399Y-110515895D01*
X108068248Y-110545898D01*
X108218965Y-110651432D01*
X108218967Y-110651433D01*
X108218970Y-110651435D01*
X108433137Y-110751303D01*
X108661392Y-110812463D01*
X108849718Y-110828939D01*
X108896799Y-110833059D01*
X108896800Y-110833059D01*
X108896801Y-110833059D01*
X108936034Y-110829626D01*
X109132208Y-110812463D01*
X109360463Y-110751303D01*
X109574630Y-110651435D01*
X109768201Y-110515895D01*
X109935295Y-110348801D01*
X110070835Y-110155230D01*
X110170703Y-109941063D01*
X110231863Y-109712808D01*
X110252459Y-109477400D01*
X110231863Y-109241992D01*
X110170703Y-109013737D01*
X110070835Y-108799571D01*
X110059827Y-108783849D01*
X110020021Y-108727000D01*
X150129941Y-108727000D01*
X150150536Y-108962403D01*
X150150538Y-108962413D01*
X150211694Y-109190655D01*
X150211696Y-109190659D01*
X150211697Y-109190663D01*
X150311565Y-109404829D01*
X150311565Y-109404830D01*
X150311567Y-109404834D01*
X150383385Y-109507400D01*
X150447105Y-109598401D01*
X150614199Y-109765495D01*
X150710984Y-109833265D01*
X150807765Y-109901032D01*
X150807767Y-109901033D01*
X150807770Y-109901035D01*
X151021937Y-110000903D01*
X151250192Y-110062063D01*
X151438518Y-110078539D01*
X151485599Y-110082659D01*
X151485600Y-110082659D01*
X151485601Y-110082659D01*
X151524834Y-110079226D01*
X151721008Y-110062063D01*
X151949263Y-110000903D01*
X152163430Y-109901035D01*
X152357001Y-109765495D01*
X152524095Y-109598401D01*
X152659635Y-109404830D01*
X152759503Y-109190663D01*
X152820663Y-108962408D01*
X152841259Y-108727000D01*
X152820663Y-108491592D01*
X152770228Y-108303365D01*
X152759505Y-108263344D01*
X152759504Y-108263343D01*
X152759503Y-108263337D01*
X152659635Y-108049171D01*
X152608326Y-107975893D01*
X152524094Y-107855597D01*
X152357002Y-107688506D01*
X152356996Y-107688501D01*
X152171442Y-107558575D01*
X152127817Y-107503998D01*
X152120623Y-107434500D01*
X152152146Y-107372145D01*
X152171442Y-107355425D01*
X152193626Y-107339891D01*
X152357001Y-107225495D01*
X152524095Y-107058401D01*
X152659635Y-106864830D01*
X152759503Y-106650663D01*
X152820663Y-106422408D01*
X152841259Y-106187000D01*
X152820663Y-105951592D01*
X152770228Y-105763365D01*
X152759505Y-105723344D01*
X152759504Y-105723343D01*
X152759503Y-105723337D01*
X152659635Y-105509171D01*
X152608325Y-105435893D01*
X152524096Y-105315600D01*
X152477291Y-105268795D01*
X152402167Y-105193671D01*
X152368684Y-105132351D01*
X152373668Y-105062659D01*
X152415539Y-105006725D01*
X152446515Y-104989810D01*
X152577931Y-104940796D01*
X152693146Y-104854546D01*
X152779396Y-104739331D01*
X152829691Y-104604483D01*
X152836100Y-104544873D01*
X152836099Y-102749128D01*
X152829691Y-102689517D01*
X152783336Y-102565234D01*
X152779397Y-102554671D01*
X152779393Y-102554664D01*
X152693147Y-102439455D01*
X152693144Y-102439452D01*
X152577935Y-102353206D01*
X152577928Y-102353202D01*
X152443082Y-102302908D01*
X152443083Y-102302908D01*
X152383483Y-102296501D01*
X152383481Y-102296500D01*
X152383473Y-102296500D01*
X152383464Y-102296500D01*
X150587729Y-102296500D01*
X150587723Y-102296501D01*
X150528116Y-102302908D01*
X150393271Y-102353202D01*
X150393264Y-102353206D01*
X150278055Y-102439452D01*
X150278052Y-102439455D01*
X150191806Y-102554664D01*
X150191802Y-102554671D01*
X150141508Y-102689517D01*
X150137286Y-102728795D01*
X150135101Y-102749123D01*
X150135100Y-102749135D01*
X150135100Y-104544870D01*
X150135101Y-104544876D01*
X150141508Y-104604483D01*
X150191802Y-104739328D01*
X150191806Y-104739335D01*
X150278052Y-104854544D01*
X150278055Y-104854547D01*
X150393264Y-104940793D01*
X150393271Y-104940797D01*
X150524681Y-104989810D01*
X150580615Y-105031681D01*
X150605032Y-105097145D01*
X150590180Y-105165418D01*
X150569030Y-105193673D01*
X150447103Y-105315600D01*
X150311565Y-105509169D01*
X150311564Y-105509171D01*
X150211698Y-105723335D01*
X150211694Y-105723344D01*
X150150538Y-105951586D01*
X150150536Y-105951596D01*
X150129941Y-106186999D01*
X150129941Y-106187000D01*
X150150536Y-106422403D01*
X150150538Y-106422413D01*
X150211694Y-106650655D01*
X150211696Y-106650659D01*
X150211697Y-106650663D01*
X150311565Y-106864830D01*
X150311567Y-106864834D01*
X150447101Y-107058395D01*
X150447106Y-107058402D01*
X150614197Y-107225493D01*
X150614203Y-107225498D01*
X150799758Y-107355425D01*
X150843383Y-107410002D01*
X150850577Y-107479500D01*
X150819054Y-107541855D01*
X150799758Y-107558575D01*
X150614197Y-107688505D01*
X150447105Y-107855597D01*
X150311565Y-108049169D01*
X150311564Y-108049171D01*
X150211698Y-108263335D01*
X150211694Y-108263344D01*
X150150538Y-108491586D01*
X150150536Y-108491596D01*
X150129941Y-108726999D01*
X150129941Y-108727000D01*
X110020021Y-108727000D01*
X109935294Y-108605997D01*
X109768202Y-108438906D01*
X109768196Y-108438901D01*
X109582642Y-108308975D01*
X109539017Y-108254398D01*
X109531823Y-108184900D01*
X109563346Y-108122545D01*
X109582642Y-108105825D01*
X109725352Y-108005898D01*
X109768201Y-107975895D01*
X109935295Y-107808801D01*
X110070835Y-107615230D01*
X110170703Y-107401063D01*
X110231863Y-107172808D01*
X110252459Y-106937400D01*
X110231863Y-106701992D01*
X110170703Y-106473737D01*
X110070835Y-106259571D01*
X110020021Y-106187000D01*
X109935294Y-106065997D01*
X109768202Y-105898906D01*
X109768201Y-105898905D01*
X109625486Y-105798975D01*
X109582641Y-105768974D01*
X109539016Y-105714397D01*
X109531824Y-105644898D01*
X109563346Y-105582544D01*
X109582636Y-105565828D01*
X109768201Y-105435895D01*
X109935295Y-105268801D01*
X110070835Y-105075230D01*
X110170703Y-104861063D01*
X110231863Y-104632808D01*
X110252459Y-104397400D01*
X110231863Y-104161992D01*
X110170703Y-103933737D01*
X110070835Y-103719571D01*
X109956302Y-103555999D01*
X109935294Y-103525997D01*
X109768202Y-103358906D01*
X109768196Y-103358901D01*
X109582642Y-103228975D01*
X109539017Y-103174398D01*
X109531823Y-103104900D01*
X109563346Y-103042545D01*
X109582642Y-103025825D01*
X109725352Y-102925898D01*
X109768201Y-102895895D01*
X109935295Y-102728801D01*
X110070835Y-102535230D01*
X110170703Y-102321063D01*
X110231863Y-102092808D01*
X110252459Y-101857400D01*
X110231863Y-101621992D01*
X110170703Y-101393737D01*
X110070835Y-101179571D01*
X109956302Y-101015999D01*
X109935294Y-100985997D01*
X109768202Y-100818906D01*
X109768201Y-100818905D01*
X109625486Y-100718975D01*
X109582641Y-100688974D01*
X109539016Y-100634397D01*
X109531824Y-100564898D01*
X109563346Y-100502544D01*
X109582636Y-100485828D01*
X109768201Y-100355895D01*
X109935295Y-100188801D01*
X110070835Y-99995230D01*
X110170703Y-99781063D01*
X110231863Y-99552808D01*
X110252459Y-99317400D01*
X110231863Y-99081992D01*
X110170703Y-98853737D01*
X110070835Y-98639571D01*
X109956302Y-98475999D01*
X109935294Y-98445997D01*
X109768202Y-98278906D01*
X109768196Y-98278901D01*
X109582642Y-98148975D01*
X109539017Y-98094398D01*
X109531823Y-98024900D01*
X109563346Y-97962545D01*
X109582642Y-97945825D01*
X109725352Y-97845898D01*
X109768201Y-97815895D01*
X109935295Y-97648801D01*
X110070835Y-97455230D01*
X110170703Y-97241063D01*
X110231863Y-97012808D01*
X110252459Y-96777400D01*
X110231863Y-96541992D01*
X110170703Y-96313737D01*
X110070835Y-96099571D01*
X109956302Y-95935999D01*
X109935294Y-95905997D01*
X109768202Y-95738906D01*
X109768196Y-95738901D01*
X109582642Y-95608975D01*
X109539017Y-95554398D01*
X109531823Y-95484900D01*
X109563346Y-95422545D01*
X109582642Y-95405825D01*
X109725352Y-95305898D01*
X109768201Y-95275895D01*
X109935295Y-95108801D01*
X110070835Y-94915230D01*
X110170703Y-94701063D01*
X110231863Y-94472808D01*
X110252459Y-94237400D01*
X110231863Y-94001992D01*
X110170703Y-93773737D01*
X110070835Y-93559571D01*
X109956302Y-93395999D01*
X109935294Y-93365997D01*
X109768202Y-93198906D01*
X109768196Y-93198901D01*
X109582642Y-93068975D01*
X109539017Y-93014398D01*
X109531823Y-92944900D01*
X109563346Y-92882545D01*
X109582642Y-92865825D01*
X109725352Y-92765898D01*
X109768201Y-92735895D01*
X109935295Y-92568801D01*
X110070835Y-92375230D01*
X110170703Y-92161063D01*
X110231863Y-91932808D01*
X110252459Y-91697400D01*
X110231863Y-91461992D01*
X110170703Y-91233737D01*
X110070835Y-91019571D01*
X109956302Y-90855999D01*
X109935294Y-90825997D01*
X109768202Y-90658906D01*
X109768196Y-90658901D01*
X109582642Y-90528975D01*
X109539017Y-90474398D01*
X109531823Y-90404900D01*
X109563346Y-90342545D01*
X109582642Y-90325825D01*
X109725352Y-90225898D01*
X109768201Y-90195895D01*
X109935295Y-90028801D01*
X110070835Y-89835230D01*
X110170703Y-89621063D01*
X110231863Y-89392808D01*
X110252459Y-89157400D01*
X110231863Y-88921992D01*
X110170703Y-88693737D01*
X110070835Y-88479571D01*
X109956302Y-88315999D01*
X109935294Y-88285997D01*
X109768202Y-88118906D01*
X109768196Y-88118901D01*
X109582642Y-87988975D01*
X109539017Y-87934398D01*
X109531823Y-87864900D01*
X109563346Y-87802545D01*
X109582642Y-87785825D01*
X109725352Y-87685898D01*
X109768201Y-87655895D01*
X109935295Y-87488801D01*
X110070835Y-87295230D01*
X110170703Y-87081063D01*
X110231863Y-86852808D01*
X110252459Y-86617400D01*
X110231863Y-86381992D01*
X110170703Y-86153737D01*
X110070835Y-85939571D01*
X109956302Y-85775999D01*
X109935294Y-85745997D01*
X109768202Y-85578906D01*
X109768196Y-85578901D01*
X109582642Y-85448975D01*
X109539017Y-85394398D01*
X109531823Y-85324900D01*
X109563346Y-85262545D01*
X109582642Y-85245825D01*
X109725352Y-85145898D01*
X109768201Y-85115895D01*
X109935295Y-84948801D01*
X110070835Y-84755230D01*
X110170703Y-84541063D01*
X110231863Y-84312808D01*
X110252459Y-84077400D01*
X110231863Y-83841992D01*
X110170703Y-83613737D01*
X110070835Y-83399571D01*
X109956302Y-83235999D01*
X109935294Y-83205997D01*
X109768202Y-83038906D01*
X109768196Y-83038901D01*
X109582642Y-82908975D01*
X109539017Y-82854398D01*
X109531823Y-82784900D01*
X109563346Y-82722545D01*
X109582642Y-82705825D01*
X109725352Y-82605898D01*
X109768201Y-82575895D01*
X109935295Y-82408801D01*
X110070835Y-82215230D01*
X110170703Y-82001063D01*
X110231863Y-81772808D01*
X110252459Y-81537400D01*
X110231863Y-81301992D01*
X110170703Y-81073737D01*
X110070835Y-80859571D01*
X109956302Y-80695999D01*
X109935294Y-80665997D01*
X109768202Y-80498906D01*
X109768196Y-80498901D01*
X109582642Y-80368975D01*
X109539017Y-80314398D01*
X109531823Y-80244900D01*
X109563346Y-80182545D01*
X109582642Y-80165825D01*
X109725352Y-80065898D01*
X109768201Y-80035895D01*
X109935295Y-79868801D01*
X110070835Y-79675230D01*
X110170703Y-79461063D01*
X110231863Y-79232808D01*
X110252459Y-78997400D01*
X110231863Y-78761992D01*
X110170703Y-78533737D01*
X110070835Y-78319571D01*
X109956302Y-78155999D01*
X109935294Y-78125997D01*
X109768202Y-77958906D01*
X109768196Y-77958901D01*
X109582642Y-77828975D01*
X109539017Y-77774398D01*
X109531823Y-77704900D01*
X109563346Y-77642545D01*
X109582642Y-77625825D01*
X109725352Y-77525898D01*
X109768201Y-77495895D01*
X109935295Y-77328801D01*
X110070835Y-77135230D01*
X110170703Y-76921063D01*
X110231863Y-76692808D01*
X110252459Y-76457400D01*
X110231863Y-76221992D01*
X110170703Y-75993737D01*
X110070835Y-75779571D01*
X109935295Y-75585999D01*
X109813367Y-75464071D01*
X109779884Y-75402751D01*
X109784868Y-75333059D01*
X109826739Y-75277125D01*
X109857715Y-75260210D01*
X109989131Y-75211196D01*
X110104346Y-75124946D01*
X110190596Y-75009731D01*
X110240891Y-74874883D01*
X110247300Y-74815273D01*
X110247299Y-73019528D01*
X110240891Y-72959917D01*
X110201785Y-72855069D01*
X110190597Y-72825071D01*
X110190593Y-72825064D01*
X110104347Y-72709855D01*
X110104344Y-72709852D01*
X109989135Y-72623606D01*
X109989128Y-72623602D01*
X109854282Y-72573308D01*
X109854283Y-72573308D01*
X109794683Y-72566901D01*
X109794681Y-72566900D01*
X109794673Y-72566900D01*
X109794664Y-72566900D01*
X107998929Y-72566900D01*
X107998923Y-72566901D01*
X107939316Y-72573308D01*
X107804471Y-72623602D01*
X107804464Y-72623606D01*
X107689255Y-72709852D01*
X107689252Y-72709855D01*
X107603006Y-72825064D01*
X107603002Y-72825071D01*
X107552708Y-72959917D01*
X107546301Y-73019516D01*
X107546301Y-73019523D01*
X107546300Y-73019535D01*
X107546300Y-74815270D01*
X107546301Y-74815276D01*
X107552708Y-74874883D01*
X107603002Y-75009728D01*
X107603006Y-75009735D01*
X107689252Y-75124944D01*
X107689255Y-75124947D01*
X107804464Y-75211193D01*
X107804471Y-75211197D01*
X107935881Y-75260210D01*
X107991815Y-75302081D01*
X108016232Y-75367545D01*
X108001380Y-75435818D01*
X107980230Y-75464073D01*
X107858303Y-75586000D01*
X107722765Y-75779569D01*
X107722764Y-75779571D01*
X107622898Y-75993735D01*
X107622894Y-75993744D01*
X107561738Y-76221986D01*
X107561736Y-76221996D01*
X107541141Y-76457399D01*
X107541141Y-76457400D01*
X107561736Y-76692803D01*
X107561738Y-76692813D01*
X107622894Y-76921055D01*
X107622896Y-76921059D01*
X107622897Y-76921063D01*
X107636887Y-76951064D01*
X107722765Y-77135230D01*
X107722767Y-77135234D01*
X107858301Y-77328795D01*
X107858306Y-77328802D01*
X108025397Y-77495893D01*
X108025403Y-77495898D01*
X108210958Y-77625825D01*
X108254583Y-77680402D01*
X108261777Y-77749900D01*
X108230254Y-77812255D01*
X108210958Y-77828975D01*
X108025397Y-77958905D01*
X107858305Y-78125997D01*
X107722765Y-78319569D01*
X107722764Y-78319571D01*
X107622898Y-78533735D01*
X107622894Y-78533744D01*
X107561738Y-78761986D01*
X107561736Y-78761996D01*
X107541141Y-78997399D01*
X107541141Y-78997400D01*
X107561736Y-79232803D01*
X107561738Y-79232813D01*
X107622894Y-79461055D01*
X107622896Y-79461059D01*
X107622897Y-79461063D01*
X107636887Y-79491064D01*
X107722765Y-79675230D01*
X107722767Y-79675234D01*
X107858301Y-79868795D01*
X107858306Y-79868802D01*
X108025397Y-80035893D01*
X108025403Y-80035898D01*
X108210958Y-80165825D01*
X108254583Y-80220402D01*
X108261777Y-80289900D01*
X108230254Y-80352255D01*
X108210958Y-80368975D01*
X108025397Y-80498905D01*
X107858305Y-80665997D01*
X107722765Y-80859569D01*
X107722764Y-80859571D01*
X107622898Y-81073735D01*
X107622894Y-81073744D01*
X107561738Y-81301986D01*
X107561736Y-81301996D01*
X107541141Y-81537399D01*
X107541141Y-81537400D01*
X107561736Y-81772803D01*
X107561738Y-81772813D01*
X107622894Y-82001055D01*
X107622896Y-82001059D01*
X107622897Y-82001063D01*
X107636887Y-82031064D01*
X107722765Y-82215230D01*
X107722767Y-82215234D01*
X107858301Y-82408795D01*
X107858306Y-82408802D01*
X108025397Y-82575893D01*
X108025403Y-82575898D01*
X108210958Y-82705825D01*
X108254583Y-82760402D01*
X108261777Y-82829900D01*
X108230254Y-82892255D01*
X108210958Y-82908975D01*
X108025397Y-83038905D01*
X107858305Y-83205997D01*
X107722765Y-83399569D01*
X107722764Y-83399571D01*
X107622898Y-83613735D01*
X107622894Y-83613744D01*
X107561738Y-83841986D01*
X107561736Y-83841996D01*
X107541141Y-84077399D01*
X107541141Y-84077400D01*
X107561736Y-84312803D01*
X107561738Y-84312813D01*
X107622894Y-84541055D01*
X107622896Y-84541059D01*
X107622897Y-84541063D01*
X107636887Y-84571064D01*
X107722765Y-84755230D01*
X107722767Y-84755234D01*
X107858301Y-84948795D01*
X107858306Y-84948802D01*
X108025397Y-85115893D01*
X108025403Y-85115898D01*
X108210958Y-85245825D01*
X108254583Y-85300402D01*
X108261777Y-85369900D01*
X108230254Y-85432255D01*
X108210958Y-85448975D01*
X108025397Y-85578905D01*
X107858305Y-85745997D01*
X107722765Y-85939569D01*
X107722764Y-85939571D01*
X107622898Y-86153735D01*
X107622894Y-86153744D01*
X107561738Y-86381986D01*
X107561736Y-86381996D01*
X107541141Y-86617399D01*
X107541141Y-86617400D01*
X107561736Y-86852803D01*
X107561738Y-86852813D01*
X107622894Y-87081055D01*
X107622896Y-87081059D01*
X107622897Y-87081063D01*
X107636887Y-87111064D01*
X107722765Y-87295230D01*
X107722767Y-87295234D01*
X107858301Y-87488795D01*
X107858306Y-87488802D01*
X108025397Y-87655893D01*
X108025403Y-87655898D01*
X108210958Y-87785825D01*
X108254583Y-87840402D01*
X108261777Y-87909900D01*
X108230254Y-87972255D01*
X108210958Y-87988975D01*
X108025397Y-88118905D01*
X107858305Y-88285997D01*
X107722765Y-88479569D01*
X107722764Y-88479571D01*
X107622898Y-88693735D01*
X107622894Y-88693744D01*
X107561738Y-88921986D01*
X107561736Y-88921996D01*
X107541141Y-89157399D01*
X107541141Y-89157400D01*
X107561736Y-89392803D01*
X107561738Y-89392813D01*
X107622894Y-89621055D01*
X107622896Y-89621059D01*
X107622897Y-89621063D01*
X107636887Y-89651064D01*
X107722765Y-89835230D01*
X107722767Y-89835234D01*
X107858301Y-90028795D01*
X107858306Y-90028802D01*
X108025397Y-90195893D01*
X108025403Y-90195898D01*
X108210958Y-90325825D01*
X108254583Y-90380402D01*
X108261777Y-90449900D01*
X108230254Y-90512255D01*
X108210958Y-90528975D01*
X108025397Y-90658905D01*
X107858305Y-90825997D01*
X107722765Y-91019569D01*
X107722764Y-91019571D01*
X107622898Y-91233735D01*
X107622894Y-91233744D01*
X107561738Y-91461986D01*
X107561736Y-91461996D01*
X107541141Y-91697399D01*
X107541141Y-91697400D01*
X107561736Y-91932803D01*
X107561738Y-91932813D01*
X107622894Y-92161055D01*
X107622896Y-92161059D01*
X107622897Y-92161063D01*
X107636887Y-92191064D01*
X107722765Y-92375230D01*
X107722767Y-92375234D01*
X107858301Y-92568795D01*
X107858306Y-92568802D01*
X108025397Y-92735893D01*
X108025403Y-92735898D01*
X108210958Y-92865825D01*
X108254583Y-92920402D01*
X108261777Y-92989900D01*
X108230254Y-93052255D01*
X108210958Y-93068975D01*
X108025397Y-93198905D01*
X107858305Y-93365997D01*
X107722765Y-93559569D01*
X107722764Y-93559571D01*
X107622898Y-93773735D01*
X107622894Y-93773744D01*
X107561738Y-94001986D01*
X107561736Y-94001996D01*
X107541141Y-94237399D01*
X107541141Y-94237400D01*
X107561736Y-94472803D01*
X107561738Y-94472813D01*
X107622894Y-94701055D01*
X107622896Y-94701059D01*
X107622897Y-94701063D01*
X107636887Y-94731064D01*
X107722765Y-94915230D01*
X107722767Y-94915234D01*
X107858301Y-95108795D01*
X107858306Y-95108802D01*
X108025397Y-95275893D01*
X108025403Y-95275898D01*
X108210958Y-95405825D01*
X108254583Y-95460402D01*
X108261777Y-95529900D01*
X108230254Y-95592255D01*
X108210958Y-95608975D01*
X108025397Y-95738905D01*
X107858305Y-95905997D01*
X107722765Y-96099569D01*
X107722764Y-96099571D01*
X107622898Y-96313735D01*
X107622894Y-96313744D01*
X107561738Y-96541986D01*
X107561736Y-96541996D01*
X107541141Y-96777399D01*
X107541141Y-96777400D01*
X107561736Y-97012803D01*
X107561738Y-97012813D01*
X107622894Y-97241055D01*
X107622896Y-97241059D01*
X107622897Y-97241063D01*
X107636887Y-97271064D01*
X107722765Y-97455230D01*
X107722767Y-97455234D01*
X107858301Y-97648795D01*
X107858306Y-97648802D01*
X108025397Y-97815893D01*
X108025403Y-97815898D01*
X108210958Y-97945825D01*
X108254583Y-98000402D01*
X108261777Y-98069900D01*
X108230254Y-98132255D01*
X108210958Y-98148975D01*
X108025397Y-98278905D01*
X107858305Y-98445997D01*
X107722765Y-98639569D01*
X107722764Y-98639571D01*
X107622898Y-98853735D01*
X107622894Y-98853744D01*
X107561738Y-99081986D01*
X107561736Y-99081996D01*
X107541141Y-99317399D01*
X107541141Y-99317400D01*
X107561736Y-99552803D01*
X107561738Y-99552813D01*
X107622894Y-99781055D01*
X107622896Y-99781059D01*
X107622897Y-99781063D01*
X107636887Y-99811064D01*
X107722765Y-99995230D01*
X107722767Y-99995234D01*
X107858301Y-100188795D01*
X107858306Y-100188802D01*
X108025397Y-100355893D01*
X108025403Y-100355898D01*
X108210958Y-100485825D01*
X108254583Y-100540402D01*
X108261777Y-100609900D01*
X108230254Y-100672255D01*
X108210958Y-100688975D01*
X108025397Y-100818905D01*
X107858305Y-100985997D01*
X107722765Y-101179569D01*
X107722764Y-101179571D01*
X107622898Y-101393735D01*
X107622894Y-101393744D01*
X107561738Y-101621986D01*
X107561736Y-101621996D01*
X107541141Y-101857399D01*
X107541141Y-101857400D01*
X107561736Y-102092803D01*
X107561738Y-102092813D01*
X107622894Y-102321055D01*
X107622896Y-102321059D01*
X107622897Y-102321063D01*
X107682954Y-102449855D01*
X107722765Y-102535230D01*
X107722767Y-102535234D01*
X107830797Y-102689516D01*
X107838079Y-102699916D01*
X107858301Y-102728795D01*
X107858306Y-102728802D01*
X108025397Y-102895893D01*
X108025403Y-102895898D01*
X108210958Y-103025825D01*
X108254583Y-103080402D01*
X108261777Y-103149900D01*
X108230254Y-103212255D01*
X108210958Y-103228975D01*
X108025397Y-103358905D01*
X107858305Y-103525997D01*
X107722765Y-103719569D01*
X107722764Y-103719571D01*
X107622898Y-103933735D01*
X107622894Y-103933744D01*
X107561738Y-104161986D01*
X107561736Y-104161996D01*
X107541141Y-104397399D01*
X107541141Y-104397400D01*
X107561736Y-104632803D01*
X107561738Y-104632813D01*
X107622894Y-104861055D01*
X107622896Y-104861059D01*
X107622897Y-104861063D01*
X107693730Y-105012965D01*
X107722765Y-105075230D01*
X107722767Y-105075234D01*
X107858301Y-105268795D01*
X107858306Y-105268802D01*
X108025397Y-105435893D01*
X108025403Y-105435898D01*
X108210958Y-105565825D01*
X108254583Y-105620402D01*
X108261777Y-105689900D01*
X108230254Y-105752255D01*
X108210958Y-105768975D01*
X108025397Y-105898905D01*
X107858305Y-106065997D01*
X107722765Y-106259569D01*
X107722764Y-106259571D01*
X107622898Y-106473735D01*
X107622894Y-106473744D01*
X107561738Y-106701986D01*
X107561736Y-106701996D01*
X107541141Y-106937399D01*
X107541141Y-106937400D01*
X107561736Y-107172803D01*
X107561738Y-107172813D01*
X107622894Y-107401055D01*
X107622896Y-107401059D01*
X107622897Y-107401063D01*
X107636887Y-107431064D01*
X107722765Y-107615230D01*
X107722767Y-107615234D01*
X107858301Y-107808795D01*
X107858306Y-107808802D01*
X108025397Y-107975893D01*
X108025403Y-107975898D01*
X108210958Y-108105825D01*
X108254583Y-108160402D01*
X108261777Y-108229900D01*
X108230254Y-108292255D01*
X108210958Y-108308975D01*
X108025397Y-108438905D01*
X107858305Y-108605997D01*
X107722765Y-108799569D01*
X107722764Y-108799571D01*
X107622898Y-109013735D01*
X107622894Y-109013744D01*
X107561738Y-109241986D01*
X107561736Y-109241996D01*
X107541141Y-109477399D01*
X107541141Y-109477400D01*
X102097300Y-109477400D01*
X102097300Y-63832400D01*
X103591927Y-63832400D01*
X103611412Y-64303509D01*
X103669733Y-64771389D01*
X103669734Y-64771389D01*
X103766494Y-65232859D01*
X103901032Y-65684765D01*
X104072426Y-66124015D01*
X104072426Y-66124016D01*
X104279514Y-66547620D01*
X104279515Y-66547621D01*
X104520869Y-66952666D01*
X104520868Y-66952665D01*
X104794850Y-67336401D01*
X105090349Y-67685295D01*
X106063182Y-66712462D01*
X106124505Y-66678977D01*
X106194196Y-66683961D01*
X106242741Y-66716870D01*
X106323369Y-66805830D01*
X106412328Y-66886457D01*
X106448782Y-66946063D01*
X106447223Y-67015915D01*
X106416736Y-67066016D01*
X105443903Y-68038849D01*
X105443903Y-68038850D01*
X105792799Y-68334350D01*
X106176535Y-68608332D01*
X106176534Y-68608331D01*
X106581579Y-68849685D01*
X106581580Y-68849686D01*
X107005184Y-69056774D01*
X107005185Y-69056774D01*
X107444435Y-69228168D01*
X107896341Y-69362706D01*
X108357811Y-69459466D01*
X108357811Y-69459467D01*
X108825691Y-69517788D01*
X109296800Y-69537273D01*
X109767909Y-69517788D01*
X110235789Y-69459467D01*
X110235789Y-69459466D01*
X110697259Y-69362706D01*
X111149165Y-69228168D01*
X111588415Y-69056774D01*
X111588416Y-69056774D01*
X112012020Y-68849686D01*
X112012021Y-68849685D01*
X112417066Y-68608331D01*
X112417065Y-68608332D01*
X112800801Y-68334350D01*
X113149695Y-68038850D01*
X113149695Y-68038849D01*
X112176862Y-67066016D01*
X112143377Y-67004693D01*
X112148361Y-66935001D01*
X112181268Y-66886460D01*
X112270230Y-66805830D01*
X112350859Y-66716868D01*
X112410462Y-66680417D01*
X112480314Y-66681974D01*
X112530416Y-66712462D01*
X113503249Y-67685295D01*
X113503250Y-67685295D01*
X113798750Y-67336401D01*
X114072732Y-66952665D01*
X114072731Y-66952666D01*
X114314085Y-66547621D01*
X114314086Y-66547620D01*
X114521174Y-66124016D01*
X114521174Y-66124015D01*
X114692568Y-65684765D01*
X114827106Y-65232859D01*
X114923866Y-64771389D01*
X114923867Y-64771389D01*
X114966387Y-64430270D01*
X117971300Y-64430270D01*
X117971301Y-64430276D01*
X117977708Y-64489883D01*
X118028002Y-64624728D01*
X118028006Y-64624735D01*
X118114252Y-64739944D01*
X118114255Y-64739947D01*
X118229464Y-64826193D01*
X118229471Y-64826197D01*
X118364317Y-64876491D01*
X118364316Y-64876491D01*
X118371244Y-64877235D01*
X118423927Y-64882900D01*
X120219672Y-64882899D01*
X120279283Y-64876491D01*
X120414131Y-64826196D01*
X120529346Y-64739946D01*
X120615596Y-64624731D01*
X120664610Y-64493316D01*
X120706481Y-64437384D01*
X120771945Y-64412966D01*
X120840218Y-64427817D01*
X120868473Y-64448969D01*
X120990399Y-64570895D01*
X121087184Y-64638665D01*
X121183965Y-64706432D01*
X121183967Y-64706433D01*
X121183970Y-64706435D01*
X121398137Y-64806303D01*
X121626392Y-64867463D01*
X121802834Y-64882900D01*
X121861799Y-64888059D01*
X121861800Y-64888059D01*
X121861801Y-64888059D01*
X121920766Y-64882900D01*
X122097208Y-64867463D01*
X122325463Y-64806303D01*
X122539630Y-64706435D01*
X122733201Y-64570895D01*
X122900295Y-64403801D01*
X123030224Y-64218242D01*
X123084802Y-64174617D01*
X123154300Y-64167423D01*
X123216655Y-64198946D01*
X123233375Y-64218242D01*
X123363300Y-64403795D01*
X123363305Y-64403801D01*
X123530399Y-64570895D01*
X123627184Y-64638665D01*
X123723965Y-64706432D01*
X123723967Y-64706433D01*
X123723970Y-64706435D01*
X123938137Y-64806303D01*
X124166392Y-64867463D01*
X124342834Y-64882900D01*
X124401799Y-64888059D01*
X124401800Y-64888059D01*
X124401801Y-64888059D01*
X124460766Y-64882900D01*
X124637208Y-64867463D01*
X124865463Y-64806303D01*
X125079630Y-64706435D01*
X125273201Y-64570895D01*
X125440295Y-64403801D01*
X125570224Y-64218242D01*
X125624802Y-64174617D01*
X125694300Y-64167423D01*
X125756655Y-64198946D01*
X125773375Y-64218242D01*
X125903300Y-64403795D01*
X125903305Y-64403801D01*
X126070399Y-64570895D01*
X126167184Y-64638665D01*
X126263965Y-64706432D01*
X126263967Y-64706433D01*
X126263970Y-64706435D01*
X126478137Y-64806303D01*
X126706392Y-64867463D01*
X126882834Y-64882900D01*
X126941799Y-64888059D01*
X126941800Y-64888059D01*
X126941801Y-64888059D01*
X127000766Y-64882900D01*
X127177208Y-64867463D01*
X127405463Y-64806303D01*
X127619630Y-64706435D01*
X127813201Y-64570895D01*
X127980295Y-64403801D01*
X128110224Y-64218242D01*
X128164802Y-64174617D01*
X128234300Y-64167423D01*
X128296655Y-64198946D01*
X128313375Y-64218242D01*
X128443300Y-64403795D01*
X128443305Y-64403801D01*
X128610399Y-64570895D01*
X128707184Y-64638665D01*
X128803965Y-64706432D01*
X128803967Y-64706433D01*
X128803970Y-64706435D01*
X129018137Y-64806303D01*
X129246392Y-64867463D01*
X129422834Y-64882900D01*
X129481799Y-64888059D01*
X129481800Y-64888059D01*
X129481801Y-64888059D01*
X129540766Y-64882900D01*
X129717208Y-64867463D01*
X129945463Y-64806303D01*
X130159630Y-64706435D01*
X130353201Y-64570895D01*
X130520295Y-64403801D01*
X130650224Y-64218242D01*
X130704802Y-64174617D01*
X130774300Y-64167423D01*
X130836655Y-64198946D01*
X130853375Y-64218242D01*
X130983300Y-64403795D01*
X130983305Y-64403801D01*
X131150399Y-64570895D01*
X131247184Y-64638665D01*
X131343965Y-64706432D01*
X131343967Y-64706433D01*
X131343970Y-64706435D01*
X131558137Y-64806303D01*
X131786392Y-64867463D01*
X131962834Y-64882900D01*
X132021799Y-64888059D01*
X132021800Y-64888059D01*
X132021801Y-64888059D01*
X132080766Y-64882900D01*
X132257208Y-64867463D01*
X132485463Y-64806303D01*
X132699630Y-64706435D01*
X132893201Y-64570895D01*
X133060295Y-64403801D01*
X133190224Y-64218242D01*
X133244802Y-64174617D01*
X133314300Y-64167423D01*
X133376655Y-64198946D01*
X133393375Y-64218242D01*
X133523300Y-64403795D01*
X133523305Y-64403801D01*
X133690399Y-64570895D01*
X133787184Y-64638665D01*
X133883965Y-64706432D01*
X133883967Y-64706433D01*
X133883970Y-64706435D01*
X134098137Y-64806303D01*
X134326392Y-64867463D01*
X134502834Y-64882900D01*
X134561799Y-64888059D01*
X134561800Y-64888059D01*
X134561801Y-64888059D01*
X134620766Y-64882900D01*
X134797208Y-64867463D01*
X135025463Y-64806303D01*
X135239630Y-64706435D01*
X135433201Y-64570895D01*
X135600295Y-64403801D01*
X135730224Y-64218242D01*
X135784802Y-64174617D01*
X135854300Y-64167423D01*
X135916655Y-64198946D01*
X135933375Y-64218242D01*
X136063300Y-64403795D01*
X136063305Y-64403801D01*
X136230399Y-64570895D01*
X136327184Y-64638665D01*
X136423965Y-64706432D01*
X136423967Y-64706433D01*
X136423970Y-64706435D01*
X136638137Y-64806303D01*
X136866392Y-64867463D01*
X137042834Y-64882900D01*
X137101799Y-64888059D01*
X137101800Y-64888059D01*
X137101801Y-64888059D01*
X137160766Y-64882900D01*
X137337208Y-64867463D01*
X137565463Y-64806303D01*
X137779630Y-64706435D01*
X137973201Y-64570895D01*
X138140295Y-64403801D01*
X138270224Y-64218242D01*
X138324802Y-64174617D01*
X138394300Y-64167423D01*
X138456655Y-64198946D01*
X138473375Y-64218242D01*
X138603300Y-64403795D01*
X138603305Y-64403801D01*
X138770399Y-64570895D01*
X138867184Y-64638665D01*
X138963965Y-64706432D01*
X138963967Y-64706433D01*
X138963970Y-64706435D01*
X139178137Y-64806303D01*
X139406392Y-64867463D01*
X139582834Y-64882900D01*
X139641799Y-64888059D01*
X139641800Y-64888059D01*
X139641801Y-64888059D01*
X139700766Y-64882900D01*
X139877208Y-64867463D01*
X140105463Y-64806303D01*
X140319630Y-64706435D01*
X140513201Y-64570895D01*
X140680295Y-64403801D01*
X140810224Y-64218242D01*
X140864802Y-64174617D01*
X140934300Y-64167423D01*
X140996655Y-64198946D01*
X141013375Y-64218242D01*
X141143300Y-64403795D01*
X141143305Y-64403801D01*
X141310399Y-64570895D01*
X141407184Y-64638665D01*
X141503965Y-64706432D01*
X141503967Y-64706433D01*
X141503970Y-64706435D01*
X141718137Y-64806303D01*
X141946392Y-64867463D01*
X142122834Y-64882900D01*
X142181799Y-64888059D01*
X142181800Y-64888059D01*
X142181801Y-64888059D01*
X142240766Y-64882900D01*
X142417208Y-64867463D01*
X142645463Y-64806303D01*
X142859630Y-64706435D01*
X143053201Y-64570895D01*
X143220295Y-64403801D01*
X143350224Y-64218242D01*
X143404802Y-64174617D01*
X143474300Y-64167423D01*
X143536655Y-64198946D01*
X143553375Y-64218242D01*
X143683300Y-64403795D01*
X143683305Y-64403801D01*
X143850399Y-64570895D01*
X143947184Y-64638665D01*
X144043965Y-64706432D01*
X144043967Y-64706433D01*
X144043970Y-64706435D01*
X144258137Y-64806303D01*
X144486392Y-64867463D01*
X144662834Y-64882900D01*
X144721799Y-64888059D01*
X144721800Y-64888059D01*
X144721801Y-64888059D01*
X144780766Y-64882900D01*
X144957208Y-64867463D01*
X145185463Y-64806303D01*
X145399630Y-64706435D01*
X145593201Y-64570895D01*
X145760295Y-64403801D01*
X145890224Y-64218242D01*
X145944802Y-64174617D01*
X146014300Y-64167423D01*
X146076655Y-64198946D01*
X146093375Y-64218242D01*
X146223300Y-64403795D01*
X146223305Y-64403801D01*
X146390399Y-64570895D01*
X146487184Y-64638665D01*
X146583965Y-64706432D01*
X146583967Y-64706433D01*
X146583970Y-64706435D01*
X146798137Y-64806303D01*
X147026392Y-64867463D01*
X147202834Y-64882900D01*
X147261799Y-64888059D01*
X147261800Y-64888059D01*
X147261801Y-64888059D01*
X147320766Y-64882900D01*
X147497208Y-64867463D01*
X147725463Y-64806303D01*
X147939630Y-64706435D01*
X148133201Y-64570895D01*
X148300295Y-64403801D01*
X148430224Y-64218242D01*
X148484802Y-64174617D01*
X148554300Y-64167423D01*
X148616655Y-64198946D01*
X148633375Y-64218242D01*
X148763300Y-64403795D01*
X148763305Y-64403801D01*
X148930399Y-64570895D01*
X149027184Y-64638665D01*
X149123965Y-64706432D01*
X149123967Y-64706433D01*
X149123970Y-64706435D01*
X149338137Y-64806303D01*
X149566392Y-64867463D01*
X149742834Y-64882900D01*
X149801799Y-64888059D01*
X149801800Y-64888059D01*
X149801801Y-64888059D01*
X149860766Y-64882900D01*
X150037208Y-64867463D01*
X150265463Y-64806303D01*
X150479630Y-64706435D01*
X150673201Y-64570895D01*
X150840295Y-64403801D01*
X150970224Y-64218242D01*
X151024802Y-64174617D01*
X151094300Y-64167423D01*
X151156655Y-64198946D01*
X151173375Y-64218242D01*
X151303300Y-64403795D01*
X151303305Y-64403801D01*
X151470399Y-64570895D01*
X151567184Y-64638665D01*
X151663965Y-64706432D01*
X151663967Y-64706433D01*
X151663970Y-64706435D01*
X151878137Y-64806303D01*
X152106392Y-64867463D01*
X152282834Y-64882900D01*
X152341799Y-64888059D01*
X152341800Y-64888059D01*
X152341801Y-64888059D01*
X152400766Y-64882900D01*
X152577208Y-64867463D01*
X152805463Y-64806303D01*
X153019630Y-64706435D01*
X153213201Y-64570895D01*
X153380295Y-64403801D01*
X153510224Y-64218242D01*
X153564802Y-64174617D01*
X153634300Y-64167423D01*
X153696655Y-64198946D01*
X153713375Y-64218242D01*
X153843300Y-64403795D01*
X153843305Y-64403801D01*
X154010399Y-64570895D01*
X154107184Y-64638665D01*
X154203965Y-64706432D01*
X154203967Y-64706433D01*
X154203970Y-64706435D01*
X154418137Y-64806303D01*
X154646392Y-64867463D01*
X154822834Y-64882900D01*
X154881799Y-64888059D01*
X154881800Y-64888059D01*
X154881801Y-64888059D01*
X154940766Y-64882900D01*
X155117208Y-64867463D01*
X155345463Y-64806303D01*
X155559630Y-64706435D01*
X155753201Y-64570895D01*
X155920295Y-64403801D01*
X156055835Y-64210230D01*
X156155703Y-63996063D01*
X156195537Y-63847400D01*
X159191927Y-63847400D01*
X159211412Y-64318509D01*
X159269733Y-64786389D01*
X159269734Y-64786389D01*
X159366494Y-65247859D01*
X159501032Y-65699765D01*
X159672426Y-66139015D01*
X159672426Y-66139016D01*
X159879514Y-66562620D01*
X159879515Y-66562621D01*
X160120869Y-66967666D01*
X160120868Y-66967665D01*
X160394850Y-67351401D01*
X160690349Y-67700295D01*
X161663182Y-66727462D01*
X161724505Y-66693977D01*
X161794196Y-66698961D01*
X161842741Y-66731870D01*
X161923369Y-66820830D01*
X162012328Y-66901457D01*
X162048782Y-66961063D01*
X162047223Y-67030915D01*
X162016736Y-67081016D01*
X161043903Y-68053849D01*
X161043903Y-68053850D01*
X161392799Y-68349350D01*
X161776535Y-68623332D01*
X161776534Y-68623331D01*
X162181579Y-68864685D01*
X162181580Y-68864686D01*
X162605184Y-69071774D01*
X162605185Y-69071774D01*
X163044435Y-69243168D01*
X163496341Y-69377706D01*
X163957811Y-69474466D01*
X163957811Y-69474467D01*
X164425691Y-69532788D01*
X164896800Y-69552273D01*
X165367909Y-69532788D01*
X165835789Y-69474467D01*
X165835789Y-69474466D01*
X166297259Y-69377706D01*
X166749165Y-69243168D01*
X167188415Y-69071774D01*
X167188416Y-69071774D01*
X167612020Y-68864686D01*
X167612021Y-68864685D01*
X168017066Y-68623331D01*
X168017065Y-68623332D01*
X168400801Y-68349350D01*
X168749695Y-68053850D01*
X168749695Y-68053849D01*
X167776862Y-67081016D01*
X167743377Y-67019693D01*
X167748361Y-66950001D01*
X167781268Y-66901460D01*
X167870230Y-66820830D01*
X167950859Y-66731868D01*
X168010462Y-66695417D01*
X168080314Y-66696974D01*
X168130416Y-66727462D01*
X169103249Y-67700295D01*
X169103250Y-67700295D01*
X169398750Y-67351401D01*
X169672732Y-66967665D01*
X169672731Y-66967666D01*
X169914085Y-66562621D01*
X169914086Y-66562620D01*
X170121174Y-66139016D01*
X170121174Y-66139015D01*
X170292568Y-65699765D01*
X170427106Y-65247859D01*
X170523866Y-64786389D01*
X170523867Y-64786389D01*
X170582188Y-64318509D01*
X170601673Y-63847400D01*
X170582188Y-63376291D01*
X170523867Y-62908411D01*
X170523866Y-62908411D01*
X170427106Y-62446941D01*
X170292568Y-61995035D01*
X170121174Y-61555785D01*
X170121174Y-61555784D01*
X169914086Y-61132180D01*
X169914085Y-61132179D01*
X169672731Y-60727134D01*
X169672732Y-60727135D01*
X169398750Y-60343399D01*
X169103250Y-59994503D01*
X169103249Y-59994503D01*
X168130416Y-60967336D01*
X168069093Y-61000821D01*
X167999401Y-60995837D01*
X167950857Y-60962928D01*
X167870230Y-60873969D01*
X167781270Y-60793341D01*
X167744816Y-60733735D01*
X167746375Y-60663883D01*
X167776862Y-60613782D01*
X168749695Y-59640949D01*
X168400801Y-59345450D01*
X168017065Y-59071468D01*
X168017066Y-59071469D01*
X167612021Y-58830115D01*
X167612020Y-58830114D01*
X167188416Y-58623026D01*
X167188415Y-58623026D01*
X166749165Y-58451632D01*
X166297259Y-58317094D01*
X165835789Y-58220334D01*
X165835789Y-58220333D01*
X165367909Y-58162012D01*
X164896800Y-58142527D01*
X164425691Y-58162012D01*
X163957811Y-58220333D01*
X163957811Y-58220334D01*
X163496341Y-58317094D01*
X163044435Y-58451632D01*
X162605185Y-58623026D01*
X162605184Y-58623026D01*
X162181580Y-58830114D01*
X162181579Y-58830115D01*
X161776534Y-59071469D01*
X161776535Y-59071468D01*
X161392799Y-59345450D01*
X161043903Y-59640949D01*
X162016736Y-60613782D01*
X162050221Y-60675105D01*
X162045237Y-60744797D01*
X162012329Y-60793340D01*
X161923369Y-60873969D01*
X161842740Y-60962929D01*
X161783134Y-60999382D01*
X161713281Y-60997823D01*
X161663182Y-60967336D01*
X160690349Y-59994503D01*
X160394850Y-60343399D01*
X160120868Y-60727135D01*
X160120869Y-60727134D01*
X159879515Y-61132179D01*
X159879514Y-61132180D01*
X159672426Y-61555784D01*
X159672426Y-61555785D01*
X159501032Y-61995035D01*
X159366494Y-62446941D01*
X159269734Y-62908411D01*
X159269733Y-62908411D01*
X159211412Y-63376291D01*
X159191927Y-63847400D01*
X156195537Y-63847400D01*
X156216863Y-63767808D01*
X156237459Y-63532400D01*
X156216863Y-63296992D01*
X156155703Y-63068737D01*
X156055835Y-62854571D01*
X156050225Y-62846558D01*
X155920294Y-62660997D01*
X155753202Y-62493906D01*
X155753195Y-62493901D01*
X155559634Y-62358367D01*
X155559630Y-62358365D01*
X155559628Y-62358364D01*
X155345463Y-62258497D01*
X155345459Y-62258496D01*
X155345455Y-62258494D01*
X155117213Y-62197338D01*
X155117203Y-62197336D01*
X154881801Y-62176741D01*
X154881799Y-62176741D01*
X154646396Y-62197336D01*
X154646386Y-62197338D01*
X154418144Y-62258494D01*
X154418135Y-62258498D01*
X154203971Y-62358364D01*
X154203969Y-62358365D01*
X154010397Y-62493905D01*
X153843305Y-62660997D01*
X153713375Y-62846558D01*
X153658798Y-62890183D01*
X153589300Y-62897377D01*
X153526945Y-62865854D01*
X153510225Y-62846558D01*
X153380294Y-62660997D01*
X153213202Y-62493906D01*
X153213195Y-62493901D01*
X153019634Y-62358367D01*
X153019630Y-62358365D01*
X153019628Y-62358364D01*
X152805463Y-62258497D01*
X152805459Y-62258496D01*
X152805455Y-62258494D01*
X152577213Y-62197338D01*
X152577203Y-62197336D01*
X152341801Y-62176741D01*
X152341799Y-62176741D01*
X152106396Y-62197336D01*
X152106386Y-62197338D01*
X151878144Y-62258494D01*
X151878135Y-62258498D01*
X151663971Y-62358364D01*
X151663969Y-62358365D01*
X151470397Y-62493905D01*
X151303308Y-62660994D01*
X151173374Y-62846559D01*
X151118797Y-62890184D01*
X151049298Y-62897376D01*
X150986944Y-62865854D01*
X150970224Y-62846558D01*
X150840294Y-62660997D01*
X150673202Y-62493906D01*
X150673195Y-62493901D01*
X150479634Y-62358367D01*
X150479630Y-62358365D01*
X150479628Y-62358364D01*
X150265463Y-62258497D01*
X150265459Y-62258496D01*
X150265455Y-62258494D01*
X150037213Y-62197338D01*
X150037203Y-62197336D01*
X149801801Y-62176741D01*
X149801799Y-62176741D01*
X149566396Y-62197336D01*
X149566386Y-62197338D01*
X149338144Y-62258494D01*
X149338135Y-62258498D01*
X149123971Y-62358364D01*
X149123969Y-62358365D01*
X148930397Y-62493905D01*
X148763305Y-62660997D01*
X148633375Y-62846558D01*
X148578798Y-62890183D01*
X148509300Y-62897377D01*
X148446945Y-62865854D01*
X148430225Y-62846558D01*
X148300294Y-62660997D01*
X148133202Y-62493906D01*
X148133195Y-62493901D01*
X147939634Y-62358367D01*
X147939630Y-62358365D01*
X147939628Y-62358364D01*
X147725463Y-62258497D01*
X147725459Y-62258496D01*
X147725455Y-62258494D01*
X147497213Y-62197338D01*
X147497203Y-62197336D01*
X147261801Y-62176741D01*
X147261799Y-62176741D01*
X147026396Y-62197336D01*
X147026386Y-62197338D01*
X146798144Y-62258494D01*
X146798135Y-62258498D01*
X146583971Y-62358364D01*
X146583969Y-62358365D01*
X146390397Y-62493905D01*
X146223305Y-62660997D01*
X146093375Y-62846558D01*
X146038798Y-62890183D01*
X145969300Y-62897377D01*
X145906945Y-62865854D01*
X145890225Y-62846558D01*
X145760294Y-62660997D01*
X145593202Y-62493906D01*
X145593195Y-62493901D01*
X145399634Y-62358367D01*
X145399630Y-62358365D01*
X145399628Y-62358364D01*
X145185463Y-62258497D01*
X145185459Y-62258496D01*
X145185455Y-62258494D01*
X144957213Y-62197338D01*
X144957203Y-62197336D01*
X144721801Y-62176741D01*
X144721799Y-62176741D01*
X144486396Y-62197336D01*
X144486386Y-62197338D01*
X144258144Y-62258494D01*
X144258135Y-62258498D01*
X144043971Y-62358364D01*
X144043969Y-62358365D01*
X143850397Y-62493905D01*
X143683305Y-62660997D01*
X143553375Y-62846558D01*
X143498798Y-62890183D01*
X143429300Y-62897377D01*
X143366945Y-62865854D01*
X143350225Y-62846558D01*
X143220294Y-62660997D01*
X143053202Y-62493906D01*
X143053195Y-62493901D01*
X142859634Y-62358367D01*
X142859630Y-62358365D01*
X142859628Y-62358364D01*
X142645463Y-62258497D01*
X142645459Y-62258496D01*
X142645455Y-62258494D01*
X142417213Y-62197338D01*
X142417203Y-62197336D01*
X142181801Y-62176741D01*
X142181799Y-62176741D01*
X141946396Y-62197336D01*
X141946386Y-62197338D01*
X141718144Y-62258494D01*
X141718135Y-62258498D01*
X141503971Y-62358364D01*
X141503969Y-62358365D01*
X141310397Y-62493905D01*
X141143305Y-62660997D01*
X141013375Y-62846558D01*
X140958798Y-62890183D01*
X140889300Y-62897377D01*
X140826945Y-62865854D01*
X140810225Y-62846558D01*
X140680294Y-62660997D01*
X140513202Y-62493906D01*
X140513195Y-62493901D01*
X140319634Y-62358367D01*
X140319630Y-62358365D01*
X140319628Y-62358364D01*
X140105463Y-62258497D01*
X140105459Y-62258496D01*
X140105455Y-62258494D01*
X139877213Y-62197338D01*
X139877203Y-62197336D01*
X139641801Y-62176741D01*
X139641799Y-62176741D01*
X139406396Y-62197336D01*
X139406386Y-62197338D01*
X139178144Y-62258494D01*
X139178135Y-62258498D01*
X138963971Y-62358364D01*
X138963969Y-62358365D01*
X138770397Y-62493905D01*
X138603308Y-62660994D01*
X138473374Y-62846559D01*
X138418797Y-62890184D01*
X138349298Y-62897376D01*
X138286944Y-62865854D01*
X138270224Y-62846558D01*
X138140294Y-62660997D01*
X137973202Y-62493906D01*
X137973195Y-62493901D01*
X137779634Y-62358367D01*
X137779630Y-62358365D01*
X137779628Y-62358364D01*
X137565463Y-62258497D01*
X137565459Y-62258496D01*
X137565455Y-62258494D01*
X137337213Y-62197338D01*
X137337203Y-62197336D01*
X137101801Y-62176741D01*
X137101799Y-62176741D01*
X136866396Y-62197336D01*
X136866386Y-62197338D01*
X136638144Y-62258494D01*
X136638135Y-62258498D01*
X136423971Y-62358364D01*
X136423969Y-62358365D01*
X136230397Y-62493905D01*
X136063305Y-62660997D01*
X135933375Y-62846558D01*
X135878798Y-62890183D01*
X135809300Y-62897377D01*
X135746945Y-62865854D01*
X135730225Y-62846558D01*
X135600294Y-62660997D01*
X135433202Y-62493906D01*
X135433195Y-62493901D01*
X135239634Y-62358367D01*
X135239630Y-62358365D01*
X135239628Y-62358364D01*
X135025463Y-62258497D01*
X135025459Y-62258496D01*
X135025455Y-62258494D01*
X134797213Y-62197338D01*
X134797203Y-62197336D01*
X134561801Y-62176741D01*
X134561799Y-62176741D01*
X134326396Y-62197336D01*
X134326386Y-62197338D01*
X134098144Y-62258494D01*
X134098135Y-62258498D01*
X133883971Y-62358364D01*
X133883969Y-62358365D01*
X133690397Y-62493905D01*
X133523305Y-62660997D01*
X133393375Y-62846558D01*
X133338798Y-62890183D01*
X133269300Y-62897377D01*
X133206945Y-62865854D01*
X133190225Y-62846558D01*
X133060294Y-62660997D01*
X132893202Y-62493906D01*
X132893195Y-62493901D01*
X132699634Y-62358367D01*
X132699630Y-62358365D01*
X132699628Y-62358364D01*
X132485463Y-62258497D01*
X132485459Y-62258496D01*
X132485455Y-62258494D01*
X132257213Y-62197338D01*
X132257203Y-62197336D01*
X132021801Y-62176741D01*
X132021799Y-62176741D01*
X131786396Y-62197336D01*
X131786386Y-62197338D01*
X131558144Y-62258494D01*
X131558135Y-62258498D01*
X131343971Y-62358364D01*
X131343969Y-62358365D01*
X131150397Y-62493905D01*
X130983308Y-62660994D01*
X130853374Y-62846560D01*
X130798797Y-62890184D01*
X130729298Y-62897377D01*
X130666944Y-62865855D01*
X130650229Y-62846564D01*
X130520295Y-62660999D01*
X130520293Y-62660996D01*
X130353202Y-62493906D01*
X130353195Y-62493901D01*
X130159634Y-62358367D01*
X130159630Y-62358365D01*
X130159628Y-62358364D01*
X129945463Y-62258497D01*
X129945459Y-62258496D01*
X129945455Y-62258494D01*
X129717213Y-62197338D01*
X129717203Y-62197336D01*
X129481801Y-62176741D01*
X129481799Y-62176741D01*
X129246396Y-62197336D01*
X129246386Y-62197338D01*
X129018144Y-62258494D01*
X129018135Y-62258498D01*
X128803971Y-62358364D01*
X128803969Y-62358365D01*
X128610397Y-62493905D01*
X128443308Y-62660994D01*
X128313374Y-62846559D01*
X128258797Y-62890184D01*
X128189298Y-62897376D01*
X128126944Y-62865854D01*
X128110224Y-62846558D01*
X127980294Y-62660997D01*
X127813202Y-62493906D01*
X127813195Y-62493901D01*
X127619634Y-62358367D01*
X127619630Y-62358365D01*
X127619628Y-62358364D01*
X127405463Y-62258497D01*
X127405459Y-62258496D01*
X127405455Y-62258494D01*
X127177213Y-62197338D01*
X127177203Y-62197336D01*
X126941801Y-62176741D01*
X126941799Y-62176741D01*
X126706396Y-62197336D01*
X126706386Y-62197338D01*
X126478144Y-62258494D01*
X126478135Y-62258498D01*
X126263971Y-62358364D01*
X126263969Y-62358365D01*
X126070397Y-62493905D01*
X125903308Y-62660994D01*
X125773374Y-62846560D01*
X125718797Y-62890184D01*
X125649298Y-62897377D01*
X125586944Y-62865855D01*
X125570229Y-62846564D01*
X125440295Y-62660999D01*
X125440293Y-62660996D01*
X125273202Y-62493906D01*
X125273195Y-62493901D01*
X125079634Y-62358367D01*
X125079630Y-62358365D01*
X125079628Y-62358364D01*
X124865463Y-62258497D01*
X124865459Y-62258496D01*
X124865455Y-62258494D01*
X124637213Y-62197338D01*
X124637203Y-62197336D01*
X124401801Y-62176741D01*
X124401799Y-62176741D01*
X124166396Y-62197336D01*
X124166386Y-62197338D01*
X123938144Y-62258494D01*
X123938135Y-62258498D01*
X123723971Y-62358364D01*
X123723969Y-62358365D01*
X123530397Y-62493905D01*
X123363305Y-62660997D01*
X123233375Y-62846558D01*
X123178798Y-62890183D01*
X123109300Y-62897377D01*
X123046945Y-62865854D01*
X123030225Y-62846558D01*
X122900294Y-62660997D01*
X122733202Y-62493906D01*
X122733195Y-62493901D01*
X122539634Y-62358367D01*
X122539630Y-62358365D01*
X122539628Y-62358364D01*
X122325463Y-62258497D01*
X122325459Y-62258496D01*
X122325455Y-62258494D01*
X122097213Y-62197338D01*
X122097203Y-62197336D01*
X121861801Y-62176741D01*
X121861799Y-62176741D01*
X121626396Y-62197336D01*
X121626386Y-62197338D01*
X121398144Y-62258494D01*
X121398135Y-62258498D01*
X121183971Y-62358364D01*
X121183969Y-62358365D01*
X120990400Y-62493903D01*
X120868473Y-62615830D01*
X120807150Y-62649314D01*
X120737458Y-62644330D01*
X120681525Y-62602458D01*
X120664610Y-62571481D01*
X120615597Y-62440071D01*
X120615593Y-62440064D01*
X120529347Y-62324855D01*
X120529344Y-62324852D01*
X120414135Y-62238606D01*
X120414128Y-62238602D01*
X120279282Y-62188308D01*
X120279283Y-62188308D01*
X120219683Y-62181901D01*
X120219681Y-62181900D01*
X120219673Y-62181900D01*
X120219664Y-62181900D01*
X118423929Y-62181900D01*
X118423923Y-62181901D01*
X118364316Y-62188308D01*
X118229471Y-62238602D01*
X118229464Y-62238606D01*
X118114255Y-62324852D01*
X118114252Y-62324855D01*
X118028006Y-62440064D01*
X118028002Y-62440071D01*
X117977708Y-62574917D01*
X117971301Y-62634516D01*
X117971300Y-62634535D01*
X117971300Y-64430270D01*
X114966387Y-64430270D01*
X114982188Y-64303509D01*
X115001673Y-63832400D01*
X114982188Y-63361291D01*
X114923867Y-62893411D01*
X114923866Y-62893411D01*
X114827106Y-62431941D01*
X114692568Y-61980035D01*
X114521174Y-61540785D01*
X114521174Y-61540784D01*
X114314086Y-61117180D01*
X114314085Y-61117179D01*
X114072731Y-60712134D01*
X114072732Y-60712135D01*
X113798750Y-60328399D01*
X113503250Y-59979503D01*
X113503248Y-59979503D01*
X112530416Y-60952336D01*
X112469093Y-60985821D01*
X112399401Y-60980837D01*
X112350857Y-60947928D01*
X112270230Y-60858969D01*
X112181270Y-60778341D01*
X112144816Y-60718735D01*
X112146375Y-60648883D01*
X112176862Y-60598782D01*
X113149695Y-59625949D01*
X112800801Y-59330450D01*
X112417065Y-59056468D01*
X112417066Y-59056469D01*
X112012021Y-58815115D01*
X112012020Y-58815114D01*
X111588416Y-58608026D01*
X111588415Y-58608026D01*
X111149165Y-58436632D01*
X110697259Y-58302094D01*
X110235789Y-58205334D01*
X110235789Y-58205333D01*
X109767909Y-58147012D01*
X109296800Y-58127527D01*
X108825691Y-58147012D01*
X108357811Y-58205333D01*
X108357811Y-58205334D01*
X107896341Y-58302094D01*
X107444435Y-58436632D01*
X107005185Y-58608026D01*
X107005184Y-58608026D01*
X106581580Y-58815114D01*
X106581579Y-58815115D01*
X106176534Y-59056469D01*
X106176535Y-59056468D01*
X105792799Y-59330450D01*
X105443903Y-59625949D01*
X106416736Y-60598782D01*
X106450221Y-60660105D01*
X106445237Y-60729797D01*
X106412329Y-60778340D01*
X106323369Y-60858969D01*
X106242740Y-60947929D01*
X106183134Y-60984382D01*
X106113281Y-60982823D01*
X106063182Y-60952336D01*
X105090349Y-59979503D01*
X104794850Y-60328399D01*
X104520868Y-60712135D01*
X104520869Y-60712134D01*
X104279515Y-61117179D01*
X104279514Y-61117180D01*
X104072426Y-61540784D01*
X104072426Y-61540785D01*
X103901032Y-61980035D01*
X103766494Y-62431941D01*
X103669734Y-62893411D01*
X103669733Y-62893411D01*
X103611412Y-63361291D01*
X103591927Y-63832400D01*
X102097300Y-63832400D01*
X102097300Y-58234612D01*
X102097458Y-58230188D01*
X102102280Y-58162773D01*
X102105054Y-58127527D01*
X102113851Y-58015744D01*
X102115075Y-58007451D01*
X102135702Y-57912631D01*
X102163662Y-57796166D01*
X102165849Y-57789004D01*
X102201789Y-57692646D01*
X102245751Y-57586514D01*
X102248594Y-57580572D01*
X102298366Y-57489421D01*
X102299858Y-57486846D01*
X102358299Y-57391477D01*
X102361487Y-57386780D01*
X102424258Y-57302927D01*
X102426673Y-57299908D01*
X102498820Y-57215436D01*
X102502078Y-57211911D01*
X102576311Y-57137678D01*
X102579836Y-57134420D01*
X102664308Y-57062273D01*
X102667327Y-57059858D01*
X102751180Y-56997087D01*
X102755877Y-56993899D01*
X102851246Y-56935458D01*
X102853821Y-56933966D01*
X102944972Y-56884194D01*
X102950914Y-56881351D01*
X103057046Y-56837389D01*
X103153404Y-56801449D01*
X103160566Y-56799262D01*
X103277043Y-56771299D01*
X103371851Y-56750675D01*
X103380144Y-56749451D01*
X103527035Y-56737889D01*
X103594592Y-56733057D01*
X103599013Y-56732900D01*
X170594587Y-56732900D01*
X170599007Y-56733057D01*
G37*
%TD.AperFunction*%
%TD*%
%TA.AperFunction,Conductor*%
%TO.N,RX_MODULE*%
G36*
X138683161Y-114015198D02*
G01*
X139025401Y-114357438D01*
X139028828Y-114365711D01*
X139027839Y-114370418D01*
X138442100Y-115703207D01*
X138435634Y-115709403D01*
X138426923Y-115709314D01*
X137655985Y-115390962D01*
X137649647Y-115384638D01*
X137331285Y-114613674D01*
X137331294Y-114604721D01*
X137337391Y-114598499D01*
X138670182Y-114012759D01*
X138679133Y-114012568D01*
X138683161Y-114015198D01*
G37*
%TD.AperFunction*%
%TD*%
M02*
