M48
; DRILL file {KiCad 7.0.7} date Mon Apr  1 01:41:46 2024
; FORMAT={-:-/ absolute / metric / decimal}
; #@! TF.CreationDate,2024-04-01T01:41:46+05:30
; #@! TF.GenerationSoftware,Kicad,Pcbnew,7.0.7
; #@! TF.FileFunction,Plated,1,2,PTH
FMAT,2
METRIC
; #@! TA.AperFunction,Plated,PTH,ComponentDrill
T1C1.000
; #@! TA.AperFunction,Plated,PTH,ComponentDrill
T2C8.400
%
G90
G05
T1
X108.897Y-73.917
X108.897Y-76.457
X108.897Y-78.997
X108.897Y-81.537
X108.897Y-84.077
X108.897Y-86.617
X108.897Y-89.157
X108.897Y-91.697
X108.897Y-94.237
X108.897Y-96.777
X108.897Y-99.317
X108.897Y-101.857
X108.897Y-104.397
X108.897Y-106.937
X108.897Y-109.477
X119.322Y-63.532
X121.862Y-63.532
X124.402Y-63.532
X126.942Y-63.532
X129.482Y-63.532
X132.022Y-63.532
X132.572Y-115.388
X134.562Y-63.532
X135.112Y-115.388
X137.102Y-63.532
X137.652Y-115.388
X139.642Y-63.532
X140.192Y-115.388
X142.182Y-63.532
X142.732Y-115.388
X144.722Y-63.532
X147.262Y-63.532
X149.802Y-63.532
X151.486Y-103.647
X151.486Y-106.187
X151.486Y-108.727
X152.342Y-63.532
X154.882Y-63.532
X158.42Y-103.657
X158.42Y-106.197
X158.42Y-108.737
X165.297Y-73.947
X165.297Y-76.487
X165.297Y-79.027
X165.297Y-81.567
X165.297Y-84.107
X165.297Y-86.647
X165.297Y-89.187
X165.297Y-91.727
X165.297Y-94.267
X165.297Y-96.807
X165.297Y-99.347
X165.297Y-101.887
X165.297Y-104.427
X165.297Y-106.967
X165.297Y-109.507
T2
X109.297Y-63.832
X109.297Y-119.532
X164.897Y-63.847
X164.897Y-119.532
T0
M30
