%TF.GenerationSoftware,KiCad,Pcbnew,7.0.7*%
%TF.CreationDate,2024-04-01T01:41:43+05:30*%
%TF.ProjectId,Telemetry_Stack,54656c65-6d65-4747-9279-5f537461636b,rev?*%
%TF.SameCoordinates,Original*%
%TF.FileFunction,Copper,L1,Top*%
%TF.FilePolarity,Positive*%
%FSLAX46Y46*%
G04 Gerber Fmt 4.6, Leading zero omitted, Abs format (unit mm)*
G04 Created by KiCad (PCBNEW 7.0.7) date 2024-04-01 01:41:43*
%MOMM*%
%LPD*%
G01*
G04 APERTURE LIST*
%TA.AperFunction,ComponentPad*%
%ADD10R,1.700000X1.700000*%
%TD*%
%TA.AperFunction,ComponentPad*%
%ADD11O,1.700000X1.700000*%
%TD*%
%TA.AperFunction,ComponentPad*%
%ADD12C,10.400000*%
%TD*%
%TA.AperFunction,Conductor*%
%ADD13C,0.500000*%
%TD*%
G04 APERTURE END LIST*
D10*
%TO.P,J2,1,Pin_1*%
%TO.N,TX_TELEM*%
X158419800Y-103657400D03*
D11*
%TO.P,J2,2,Pin_2*%
%TO.N,RX_MODULE*%
X158419800Y-106197400D03*
%TO.P,J2,3,Pin_3*%
%TO.N,RX_TELEM*%
X158419800Y-108737400D03*
%TD*%
D10*
%TO.P,J1,1,Pin_1*%
%TO.N,TX_TELEM*%
X151485600Y-103647000D03*
D11*
%TO.P,J1,2,Pin_2*%
%TO.N,TX_MODULE*%
X151485600Y-106187000D03*
%TO.P,J1,3,Pin_3*%
%TO.N,RX_TELEM*%
X151485600Y-108727000D03*
%TD*%
D10*
%TO.P,U2,1*%
%TO.N,unconnected-(U2-Pad1)*%
X165296800Y-73947400D03*
D11*
%TO.P,U2,2*%
%TO.N,unconnected-(U2-Pad2)*%
X165296800Y-76487400D03*
%TO.P,U2,3*%
%TO.N,unconnected-(U2-Pad3)*%
X165296800Y-79027400D03*
%TO.P,U2,4*%
%TO.N,unconnected-(U2-Pad4)*%
X165296800Y-81567400D03*
%TO.P,U2,5*%
%TO.N,unconnected-(U2-Pad5)*%
X165296800Y-84107400D03*
%TO.P,U2,6*%
%TO.N,unconnected-(U2-Pad6)*%
X165296800Y-86647400D03*
%TO.P,U2,7*%
%TO.N,unconnected-(U2-Pad7)*%
X165296800Y-89187400D03*
%TO.P,U2,8*%
%TO.N,TX_TELEM*%
X165296800Y-91727400D03*
%TO.P,U2,9*%
%TO.N,RX_TELEM*%
X165296800Y-94267400D03*
%TO.P,U2,10*%
%TO.N,unconnected-(U2-Pad10)*%
X165296800Y-96807400D03*
%TO.P,U2,11*%
%TO.N,unconnected-(U2-Pad11)*%
X165296800Y-99347400D03*
%TO.P,U2,12*%
%TO.N,unconnected-(U2-Pad12)*%
X165296800Y-101887400D03*
%TO.P,U2,13*%
%TO.N,unconnected-(U2-Pad13)*%
X165296800Y-104427400D03*
%TO.P,U2,14*%
%TO.N,unconnected-(U2-Pad14)*%
X165296800Y-106967400D03*
%TO.P,U2,15*%
%TO.N,unconnected-(U2-Pad15)*%
X165296800Y-109507400D03*
%TO.P,U2,16*%
%TO.N,unconnected-(U2-Pad16)*%
X108896800Y-109477400D03*
%TO.P,U2,17*%
%TO.N,unconnected-(U2-Pad17)*%
X108896800Y-106937400D03*
%TO.P,U2,18*%
%TO.N,unconnected-(U2-Pad18)*%
X108896800Y-104397400D03*
%TO.P,U2,19*%
%TO.N,unconnected-(U2-Pad19)*%
X108896800Y-101857400D03*
%TO.P,U2,20*%
%TO.N,unconnected-(U2-Pad20)*%
X108896800Y-99317400D03*
%TO.P,U2,21*%
%TO.N,unconnected-(U2-Pad21)*%
X108896800Y-96777400D03*
%TO.P,U2,22*%
%TO.N,unconnected-(U2-Pad22)*%
X108896800Y-94237400D03*
%TO.P,U2,23*%
%TO.N,unconnected-(U2-Pad23)*%
X108896800Y-91697400D03*
%TO.P,U2,24*%
%TO.N,unconnected-(U2-Pad24)*%
X108896800Y-89157400D03*
%TO.P,U2,25*%
%TO.N,unconnected-(U2-Pad25)*%
X108896800Y-86617400D03*
%TO.P,U2,26*%
%TO.N,unconnected-(U2-Pad26)*%
X108896800Y-84077400D03*
%TO.P,U2,27*%
%TO.N,unconnected-(U2-Pad27)*%
X108896800Y-81537400D03*
%TO.P,U2,28*%
%TO.N,unconnected-(U2-Pad28)*%
X108896800Y-78997400D03*
%TO.P,U2,29*%
%TO.N,unconnected-(U2-Pad29)*%
X108896800Y-76457400D03*
D10*
%TO.P,U2,30*%
%TO.N,unconnected-(U2-Pad30)*%
X108896800Y-73917400D03*
%TO.P,U2,31*%
%TO.N,unconnected-(U2-Pad31)*%
X119321800Y-63532400D03*
D11*
%TO.P,U2,32*%
%TO.N,unconnected-(U2-Pad32)*%
X121861800Y-63532400D03*
%TO.P,U2,33*%
%TO.N,unconnected-(U2-Pad33)*%
X124401800Y-63532400D03*
%TO.P,U2,34*%
%TO.N,unconnected-(U2-Pad34)*%
X126941800Y-63532400D03*
%TO.P,U2,35*%
%TO.N,unconnected-(U2-Pad35)*%
X129481800Y-63532400D03*
%TO.P,U2,36*%
%TO.N,unconnected-(U2-Pad36)*%
X132021800Y-63532400D03*
%TO.P,U2,37*%
%TO.N,3.3V*%
X134561800Y-63532400D03*
%TO.P,U2,38*%
%TO.N,unconnected-(U2-Pad38)*%
X137101800Y-63532400D03*
%TO.P,U2,39*%
%TO.N,3.3V*%
X139641800Y-63532400D03*
%TO.P,U2,40*%
X142181800Y-63532400D03*
%TO.P,U2,41*%
%TO.N,unconnected-(U2-Pad41)*%
X144721800Y-63532400D03*
%TO.P,U2,42*%
%TO.N,unconnected-(U2-Pad42)*%
X147261800Y-63532400D03*
%TO.P,U2,43*%
%TO.N,unconnected-(U2-Pad43)*%
X149801800Y-63532400D03*
%TO.P,U2,44*%
%TO.N,unconnected-(U2-Pad44)*%
X152341800Y-63532400D03*
%TO.P,U2,45*%
%TO.N,unconnected-(U2-Pad45)*%
X154881800Y-63532400D03*
D12*
%TO.P,U2,49,1*%
%TO.N,GND*%
X164896800Y-119532400D03*
%TO.P,U2,50,1*%
X109296800Y-119532400D03*
%TO.P,U2,51,1*%
X109296800Y-63832400D03*
%TO.P,U2,52,1*%
X164896800Y-63847400D03*
%TD*%
D11*
%TO.P,U1,1,VDD*%
%TO.N,3.3V*%
X142732200Y-115388400D03*
%TO.P,U1,2,RST*%
%TO.N,unconnected-(U1-RST-Pad2)*%
X140192200Y-115388400D03*
%TO.P,U1,3,RXD*%
%TO.N,RX_MODULE*%
X137652200Y-115388400D03*
%TO.P,U1,4,TXD*%
%TO.N,TX_MODULE*%
X135112200Y-115388400D03*
D10*
%TO.P,U1,5,GND*%
%TO.N,GND*%
X132572200Y-115388400D03*
%TD*%
D13*
%TO.N,RX_TELEM*%
X160909000Y-97434400D02*
X164076000Y-94267400D01*
X160909000Y-106248200D02*
X160909000Y-97434400D01*
X164076000Y-94267400D02*
X165296800Y-94267400D01*
X151485600Y-108727000D02*
X158409400Y-108727000D01*
X158409400Y-108727000D02*
X158419800Y-108737400D01*
X158419800Y-108737400D02*
X160909000Y-106248200D01*
%TO.N,TX_TELEM*%
X158419800Y-103657400D02*
X158419800Y-97256600D01*
X158419800Y-97256600D02*
X163949000Y-91727400D01*
X158409400Y-103647000D02*
X158419800Y-103657400D01*
X163949000Y-91727400D02*
X165296800Y-91727400D01*
X151485600Y-103647000D02*
X158409400Y-103647000D01*
%TO.N,TX_MODULE*%
X144313600Y-106187000D02*
X151485600Y-106187000D01*
X135112200Y-115388400D02*
X144313600Y-106187000D01*
%TD*%
%TA.AperFunction,Conductor*%
%TO.N,RX_TELEM*%
G36*
X164702566Y-93673150D02*
G01*
X165291962Y-94261161D01*
X165295399Y-94269430D01*
X165294506Y-94273926D01*
X164975400Y-95043339D01*
X164969066Y-95049668D01*
X164961702Y-95050194D01*
X163917043Y-94783815D01*
X163911661Y-94780751D01*
X163570430Y-94439520D01*
X163567003Y-94431247D01*
X163570430Y-94422974D01*
X163572166Y-94421544D01*
X164687779Y-93671722D01*
X164696554Y-93669952D01*
X164702566Y-93673150D01*
G37*
%TD.AperFunction*%
%TD*%
%TA.AperFunction,Conductor*%
%TO.N,TX_TELEM*%
G36*
X158672010Y-101960827D02*
G01*
X158673296Y-101962353D01*
X159264120Y-102799353D01*
X159266091Y-102808088D01*
X159262839Y-102814368D01*
X158428078Y-103650112D01*
X158419807Y-103653544D01*
X158411532Y-103650122D01*
X158411522Y-103650112D01*
X157576760Y-102814368D01*
X157573338Y-102806093D01*
X157575477Y-102799356D01*
X158166303Y-101962353D01*
X158173875Y-101957570D01*
X158175863Y-101957400D01*
X158663737Y-101957400D01*
X158672010Y-101960827D01*
G37*
%TD.AperFunction*%
%TD*%
%TA.AperFunction,Conductor*%
%TO.N,RX_TELEM*%
G36*
X153178145Y-108474097D02*
G01*
X153184611Y-108480293D01*
X153185600Y-108485000D01*
X153185600Y-108968999D01*
X153182173Y-108977272D01*
X153178145Y-108979902D01*
X151821541Y-109508146D01*
X151812589Y-109507954D01*
X151806491Y-109501732D01*
X151486465Y-108731488D01*
X151486456Y-108722533D01*
X151486456Y-108722532D01*
X151806491Y-107952266D01*
X151812830Y-107945942D01*
X151821541Y-107945853D01*
X153178145Y-108474097D01*
G37*
%TD.AperFunction*%
%TD*%
%TA.AperFunction,Conductor*%
%TO.N,TX_TELEM*%
G36*
X164975952Y-90953074D02*
G01*
X164976689Y-90954546D01*
X165295644Y-91722209D01*
X165295653Y-91731164D01*
X165295646Y-91731180D01*
X164975673Y-92502681D01*
X164969339Y-92509010D01*
X164961216Y-92509315D01*
X163879384Y-92154089D01*
X163874761Y-92151246D01*
X163533841Y-91810326D01*
X163530414Y-91802053D01*
X163533841Y-91793780D01*
X163536153Y-91791985D01*
X164959925Y-90948966D01*
X164968788Y-90947701D01*
X164975952Y-90953074D01*
G37*
%TD.AperFunction*%
%TD*%
%TA.AperFunction,Conductor*%
%TO.N,3.3V*%
G36*
X142359312Y-64031907D02*
G01*
X142412115Y-64077662D01*
X142431800Y-64144701D01*
X142431800Y-64863033D01*
X142645283Y-64805833D01*
X142645292Y-64805829D01*
X142859378Y-64706000D01*
X143052878Y-64570508D01*
X143209945Y-64413441D01*
X143271269Y-64379956D01*
X143340960Y-64384940D01*
X143396894Y-64426811D01*
X143421311Y-64492276D01*
X143421626Y-64500537D01*
X143585616Y-99266459D01*
X143566247Y-99333591D01*
X143513660Y-99379594D01*
X143462461Y-99391041D01*
X136118600Y-99441000D01*
X128803400Y-99441000D01*
X128651000Y-118414800D01*
X141452600Y-118313200D01*
X141452600Y-116307871D01*
X141472285Y-116240832D01*
X141525089Y-116195077D01*
X141594247Y-116185133D01*
X141657803Y-116214158D01*
X141678175Y-116236748D01*
X141694092Y-116259480D01*
X141861117Y-116426505D01*
X142054621Y-116562000D01*
X142268707Y-116661829D01*
X142268716Y-116661833D01*
X142482200Y-116719034D01*
X142482200Y-116000701D01*
X142501885Y-115933662D01*
X142554689Y-115887907D01*
X142623847Y-115877963D01*
X142696437Y-115888400D01*
X142696438Y-115888400D01*
X142767962Y-115888400D01*
X142767963Y-115888400D01*
X142840553Y-115877963D01*
X142909712Y-115887907D01*
X142962515Y-115933662D01*
X142982200Y-116000701D01*
X142982200Y-116719033D01*
X143195683Y-116661833D01*
X143195692Y-116661829D01*
X143409778Y-116562000D01*
X143603282Y-116426505D01*
X143770305Y-116259482D01*
X143905800Y-116065978D01*
X144005629Y-115851892D01*
X144005632Y-115851886D01*
X144062836Y-115638400D01*
X143345547Y-115638400D01*
X143278508Y-115618715D01*
X143232753Y-115565911D01*
X143222809Y-115496753D01*
X143226569Y-115479467D01*
X143232200Y-115460288D01*
X143232200Y-115316511D01*
X143226569Y-115297333D01*
X143226570Y-115227464D01*
X143264345Y-115168686D01*
X143327901Y-115139662D01*
X143345547Y-115138400D01*
X144062836Y-115138400D01*
X144062835Y-115138399D01*
X144005632Y-114924913D01*
X144005629Y-114924907D01*
X143905800Y-114710822D01*
X143905799Y-114710820D01*
X143770313Y-114517326D01*
X143770308Y-114517320D01*
X143603282Y-114350294D01*
X143409778Y-114214799D01*
X143195692Y-114114970D01*
X143195686Y-114114967D01*
X142982200Y-114057764D01*
X142982200Y-114776098D01*
X142962515Y-114843137D01*
X142909711Y-114888892D01*
X142840555Y-114898836D01*
X142767966Y-114888400D01*
X142767963Y-114888400D01*
X142696437Y-114888400D01*
X142696433Y-114888400D01*
X142623845Y-114898836D01*
X142554687Y-114888892D01*
X142501884Y-114843136D01*
X142482200Y-114776098D01*
X142482200Y-114057764D01*
X142482199Y-114057764D01*
X142268713Y-114114967D01*
X142268707Y-114114970D01*
X142054622Y-114214799D01*
X142054620Y-114214800D01*
X141861126Y-114350286D01*
X141861120Y-114350291D01*
X141694091Y-114517320D01*
X141694083Y-114517329D01*
X141678174Y-114540051D01*
X141623597Y-114583676D01*
X141554099Y-114590868D01*
X141491744Y-114559345D01*
X141456331Y-114499115D01*
X141452600Y-114468927D01*
X141452600Y-113507677D01*
X141472285Y-113440638D01*
X141525089Y-113394883D01*
X141574659Y-113383692D01*
X144578317Y-113336760D01*
X144645654Y-113355395D01*
X144692228Y-113407478D01*
X144704251Y-113460299D01*
X144728755Y-120272530D01*
X144709312Y-120339640D01*
X144656673Y-120385584D01*
X144605732Y-120396972D01*
X125498979Y-120547419D01*
X125431787Y-120528263D01*
X125385618Y-120475821D01*
X125374004Y-120423817D01*
X125367626Y-118414800D01*
X125298593Y-96669309D01*
X125318064Y-96602209D01*
X125370723Y-96556287D01*
X125422110Y-96544918D01*
X128717281Y-96532121D01*
X133323533Y-96514233D01*
X133324600Y-98196400D01*
X135940800Y-98094800D01*
X135937629Y-96504081D01*
X138379200Y-96494600D01*
X138307233Y-64373642D01*
X138326767Y-64306564D01*
X138379468Y-64260691D01*
X138448604Y-64250593D01*
X138512225Y-64279475D01*
X138532806Y-64302246D01*
X138603690Y-64403478D01*
X138770717Y-64570505D01*
X138964221Y-64706000D01*
X139178307Y-64805829D01*
X139178316Y-64805833D01*
X139391800Y-64863034D01*
X139391800Y-64144701D01*
X139411485Y-64077662D01*
X139464289Y-64031907D01*
X139533447Y-64021963D01*
X139606037Y-64032400D01*
X139606038Y-64032400D01*
X139677562Y-64032400D01*
X139677563Y-64032400D01*
X139750153Y-64021963D01*
X139819312Y-64031907D01*
X139872115Y-64077662D01*
X139891800Y-64144701D01*
X139891800Y-64863033D01*
X140105283Y-64805833D01*
X140105292Y-64805829D01*
X140319378Y-64706000D01*
X140512882Y-64570505D01*
X140679905Y-64403482D01*
X140810225Y-64217368D01*
X140864802Y-64173744D01*
X140934301Y-64166551D01*
X140996655Y-64198073D01*
X141013375Y-64217368D01*
X141143694Y-64403482D01*
X141310717Y-64570505D01*
X141504221Y-64706000D01*
X141718307Y-64805829D01*
X141718316Y-64805833D01*
X141931800Y-64863034D01*
X141931800Y-64144701D01*
X141951485Y-64077662D01*
X142004289Y-64031907D01*
X142073447Y-64021963D01*
X142146037Y-64032400D01*
X142146038Y-64032400D01*
X142217562Y-64032400D01*
X142217563Y-64032400D01*
X142290153Y-64021963D01*
X142359312Y-64031907D01*
G37*
%TD.AperFunction*%
%TA.AperFunction,Conductor*%
G36*
X141635492Y-63302085D02*
G01*
X141681247Y-63354889D01*
X141691191Y-63424047D01*
X141687431Y-63441333D01*
X141681800Y-63460511D01*
X141681800Y-63604288D01*
X141687431Y-63623467D01*
X141687430Y-63693336D01*
X141649655Y-63752114D01*
X141586099Y-63781138D01*
X141568453Y-63782400D01*
X140255147Y-63782400D01*
X140188108Y-63762715D01*
X140142353Y-63709911D01*
X140132409Y-63640753D01*
X140136169Y-63623467D01*
X140141800Y-63604288D01*
X140141800Y-63460511D01*
X140136169Y-63441333D01*
X140136170Y-63371464D01*
X140173945Y-63312686D01*
X140237501Y-63283662D01*
X140255147Y-63282400D01*
X141568453Y-63282400D01*
X141635492Y-63302085D01*
G37*
%TD.AperFunction*%
%TA.AperFunction,Conductor*%
G36*
X139891800Y-62920098D02*
G01*
X139872115Y-62987137D01*
X139819311Y-63032892D01*
X139750155Y-63042836D01*
X139677566Y-63032400D01*
X139677563Y-63032400D01*
X139606037Y-63032400D01*
X139606033Y-63032400D01*
X139533445Y-63042836D01*
X139464287Y-63032892D01*
X139411484Y-62987136D01*
X139391800Y-62920098D01*
X139391800Y-62275093D01*
X139891800Y-62272203D01*
X139891800Y-62920098D01*
G37*
%TD.AperFunction*%
%TA.AperFunction,Conductor*%
G36*
X142431800Y-62920098D02*
G01*
X142412115Y-62987137D01*
X142359311Y-63032892D01*
X142290155Y-63042836D01*
X142217566Y-63032400D01*
X142217563Y-63032400D01*
X142146037Y-63032400D01*
X142146033Y-63032400D01*
X142073445Y-63042836D01*
X142004287Y-63032892D01*
X141951484Y-62987136D01*
X141931800Y-62920098D01*
X141931800Y-62260411D01*
X142431800Y-62257521D01*
X142431800Y-62920098D01*
G37*
%TD.AperFunction*%
%TA.AperFunction,Conductor*%
G36*
X141504222Y-62358799D02*
G01*
X141504220Y-62358800D01*
X141310726Y-62494286D01*
X141310720Y-62494291D01*
X141143691Y-62661320D01*
X141143690Y-62661322D01*
X141013375Y-62847431D01*
X140958798Y-62891055D01*
X140889299Y-62898248D01*
X140826945Y-62866726D01*
X140810225Y-62847431D01*
X140679909Y-62661322D01*
X140679908Y-62661320D01*
X140512882Y-62494294D01*
X140319378Y-62358799D01*
X140130709Y-62270822D01*
X141712497Y-62261679D01*
X141504222Y-62358799D01*
G37*
%TD.AperFunction*%
%TA.AperFunction,Conductor*%
G36*
X138379200Y-62280800D02*
G01*
X138404600Y-62280800D01*
X139140615Y-62276545D01*
X138964222Y-62358799D01*
X138964220Y-62358800D01*
X138770726Y-62494286D01*
X138770720Y-62494291D01*
X138603691Y-62661320D01*
X138603690Y-62661322D01*
X138529051Y-62767917D01*
X138474473Y-62811542D01*
X138404975Y-62818734D01*
X138342620Y-62787212D01*
X138307207Y-62726982D01*
X138303477Y-62697081D01*
X138303000Y-62484000D01*
X138325019Y-61779390D01*
X138346787Y-61712999D01*
X138361970Y-61694895D01*
X138385748Y-61671486D01*
X138385751Y-61671486D01*
X138379200Y-62280800D01*
G37*
%TD.AperFunction*%
%TA.AperFunction,Conductor*%
G36*
X143285599Y-61695986D02*
G01*
X143285600Y-61695986D01*
X143352540Y-61716005D01*
X143398030Y-61769037D01*
X143408979Y-61819399D01*
X143412443Y-62553909D01*
X143393074Y-62621041D01*
X143340487Y-62667044D01*
X143271376Y-62677314D01*
X143207684Y-62648589D01*
X143200763Y-62642175D01*
X143052882Y-62494294D01*
X142859378Y-62358799D01*
X142645292Y-62258970D01*
X142645286Y-62258967D01*
X142635496Y-62256343D01*
X142798800Y-62255400D01*
X143002000Y-62255400D01*
X142998641Y-61694551D01*
X143285599Y-61695986D01*
G37*
%TD.AperFunction*%
%TD*%
%TA.AperFunction,Conductor*%
%TO.N,TX_MODULE*%
G36*
X151158610Y-105406045D02*
G01*
X151164708Y-105412267D01*
X151484734Y-106182510D01*
X151484743Y-106191465D01*
X151484734Y-106191488D01*
X151164708Y-106961732D01*
X151158369Y-106968057D01*
X151149658Y-106968146D01*
X149793055Y-106439902D01*
X149786589Y-106433706D01*
X149785600Y-106428999D01*
X149785600Y-105945000D01*
X149789027Y-105936727D01*
X149793055Y-105934097D01*
X151149658Y-105405853D01*
X151158610Y-105406045D01*
G37*
%TD.AperFunction*%
%TD*%
%TA.AperFunction,Conductor*%
%TO.N,RX_TELEM*%
G36*
X158092848Y-107956409D02*
G01*
X158098881Y-107962602D01*
X158418934Y-108732911D01*
X158418943Y-108741866D01*
X158418934Y-108741889D01*
X158098939Y-109512058D01*
X158092600Y-109518383D01*
X158083812Y-109518441D01*
X156729247Y-108979933D01*
X156722825Y-108973693D01*
X156721869Y-108969061D01*
X156721869Y-108485051D01*
X156725296Y-108476778D01*
X156729386Y-108474125D01*
X158083899Y-107956163D01*
X158092848Y-107956409D01*
G37*
%TD.AperFunction*%
%TD*%
%TA.AperFunction,Conductor*%
%TO.N,TX_TELEM*%
G36*
X152343644Y-102802678D02*
G01*
X153180647Y-103393504D01*
X153185430Y-103401074D01*
X153185600Y-103403062D01*
X153185600Y-103890937D01*
X153182173Y-103899210D01*
X153180647Y-103900496D01*
X152343646Y-104491320D01*
X152334911Y-104493291D01*
X152328631Y-104490039D01*
X151738394Y-103900496D01*
X151492886Y-103655276D01*
X151489455Y-103647007D01*
X151492876Y-103638733D01*
X152328632Y-102803959D01*
X152336906Y-102800538D01*
X152343644Y-102802678D01*
G37*
%TD.AperFunction*%
%TD*%
%TA.AperFunction,Conductor*%
%TO.N,TX_TELEM*%
G36*
X157576710Y-102814302D02*
G01*
X158412486Y-103649096D01*
X158415918Y-103657367D01*
X158412496Y-103665642D01*
X158412461Y-103665677D01*
X157576797Y-104495265D01*
X157568511Y-104498662D01*
X157561768Y-104496493D01*
X156724714Y-103900498D01*
X156719962Y-103892908D01*
X156719800Y-103890967D01*
X156719800Y-103403123D01*
X156723227Y-103394850D01*
X156724827Y-103393512D01*
X157561776Y-102812965D01*
X157570525Y-102811067D01*
X157576710Y-102814302D01*
G37*
%TD.AperFunction*%
%TD*%
%TA.AperFunction,Conductor*%
%TO.N,RX_TELEM*%
G36*
X159450761Y-107364198D02*
G01*
X159793001Y-107706438D01*
X159796428Y-107714711D01*
X159795439Y-107719418D01*
X159209700Y-109052207D01*
X159203234Y-109058403D01*
X159194523Y-109058314D01*
X158423585Y-108739962D01*
X158417247Y-108733638D01*
X158098885Y-107962674D01*
X158098894Y-107953721D01*
X158104991Y-107947499D01*
X159437782Y-107361759D01*
X159446733Y-107361568D01*
X159450761Y-107364198D01*
G37*
%TD.AperFunction*%
%TD*%
%TA.AperFunction,Conductor*%
%TO.N,TX_MODULE*%
G36*
X136143161Y-114015198D02*
G01*
X136485401Y-114357438D01*
X136488828Y-114365711D01*
X136487839Y-114370418D01*
X135902100Y-115703207D01*
X135895634Y-115709403D01*
X135886923Y-115709314D01*
X135115985Y-115390962D01*
X135109647Y-115384638D01*
X134791285Y-114613674D01*
X134791294Y-114604721D01*
X134797391Y-114598499D01*
X136130182Y-114012759D01*
X136139133Y-114012568D01*
X136143161Y-114015198D01*
G37*
%TD.AperFunction*%
%TD*%
%TA.AperFunction,Conductor*%
%TO.N,3.3V*%
G36*
X134739312Y-64031907D02*
G01*
X134792115Y-64077662D01*
X134811800Y-64144701D01*
X134811800Y-64863033D01*
X135025283Y-64805833D01*
X135025292Y-64805829D01*
X135239378Y-64706000D01*
X135432882Y-64570505D01*
X135599908Y-64403479D01*
X135648069Y-64334699D01*
X135702646Y-64291074D01*
X135772144Y-64283881D01*
X135834499Y-64315403D01*
X135869913Y-64375633D01*
X135873644Y-64405575D01*
X135937628Y-96504080D01*
X135937629Y-96504079D01*
X135940800Y-98094800D01*
X133324600Y-98196400D01*
X133303234Y-64481509D01*
X133322875Y-64414462D01*
X133375650Y-64368673D01*
X133444802Y-64358686D01*
X133508376Y-64387671D01*
X133522217Y-64401723D01*
X133523688Y-64403476D01*
X133690717Y-64570505D01*
X133884221Y-64706000D01*
X134098307Y-64805829D01*
X134098316Y-64805833D01*
X134311800Y-64863034D01*
X134311800Y-64144701D01*
X134331485Y-64077662D01*
X134384289Y-64031907D01*
X134453447Y-64021963D01*
X134526037Y-64032400D01*
X134526038Y-64032400D01*
X134597562Y-64032400D01*
X134597563Y-64032400D01*
X134670153Y-64021963D01*
X134739312Y-64031907D01*
G37*
%TD.AperFunction*%
%TA.AperFunction,Conductor*%
G36*
X142919288Y-58033887D02*
G01*
X142965594Y-58086207D01*
X142977345Y-58138157D01*
X142998640Y-61694551D01*
X142998641Y-61694551D01*
X143002000Y-62255400D01*
X142798800Y-62255400D01*
X142635496Y-62256343D01*
X142431800Y-62201764D01*
X142431800Y-62257521D01*
X141931800Y-62260411D01*
X141931800Y-62201764D01*
X141931799Y-62201764D01*
X141718313Y-62258967D01*
X141718307Y-62258970D01*
X141712497Y-62261679D01*
X140130709Y-62270822D01*
X140105292Y-62258970D01*
X140105286Y-62258967D01*
X139891800Y-62201764D01*
X139891800Y-62272203D01*
X139391800Y-62275093D01*
X139391800Y-62201764D01*
X139391799Y-62201764D01*
X139178313Y-62258967D01*
X139178307Y-62258970D01*
X139140615Y-62276545D01*
X138404600Y-62280800D01*
X138379200Y-62280800D01*
X138404600Y-59918600D01*
X138404599Y-59918599D01*
X138404600Y-59918599D01*
X135914402Y-59868796D01*
X135864600Y-59867800D01*
X135864599Y-59867800D01*
X135870152Y-62653743D01*
X135850601Y-62720821D01*
X135797888Y-62766681D01*
X135728750Y-62776763D01*
X135665136Y-62747865D01*
X135644577Y-62725113D01*
X135599913Y-62661326D01*
X135599908Y-62661320D01*
X135432882Y-62494294D01*
X135239378Y-62358799D01*
X135025292Y-62258970D01*
X135025286Y-62258967D01*
X134811800Y-62201764D01*
X134811800Y-62920098D01*
X134792115Y-62987137D01*
X134739311Y-63032892D01*
X134670155Y-63042836D01*
X134597566Y-63032400D01*
X134597563Y-63032400D01*
X134526037Y-63032400D01*
X134526033Y-63032400D01*
X134453445Y-63042836D01*
X134384287Y-63032892D01*
X134331484Y-62987136D01*
X134311800Y-62920098D01*
X134311800Y-62201764D01*
X134311799Y-62201764D01*
X134098313Y-62258967D01*
X134098307Y-62258970D01*
X133884222Y-62358799D01*
X133884220Y-62358800D01*
X133690726Y-62494286D01*
X133690720Y-62494291D01*
X133523693Y-62661318D01*
X133521016Y-62664509D01*
X133462841Y-62703207D01*
X133392980Y-62704310D01*
X133333613Y-62667469D01*
X133303588Y-62604379D01*
X133302032Y-62584875D01*
X133301990Y-62518189D01*
X133299277Y-58237980D01*
X133318919Y-58170931D01*
X133371694Y-58125142D01*
X133421974Y-58113911D01*
X142852047Y-58014907D01*
X142919288Y-58033887D01*
G37*
%TD.AperFunction*%
%TD*%
M02*
