%TF.GenerationSoftware,KiCad,Pcbnew,7.0.7*%
%TF.CreationDate,2024-04-01T01:41:43+05:30*%
%TF.ProjectId,Telemetry_Stack,54656c65-6d65-4747-9279-5f537461636b,rev?*%
%TF.SameCoordinates,Original*%
%TF.FileFunction,Legend,Top*%
%TF.FilePolarity,Positive*%
%FSLAX46Y46*%
G04 Gerber Fmt 4.6, Leading zero omitted, Abs format (unit mm)*
G04 Created by KiCad (PCBNEW 7.0.7) date 2024-04-01 01:41:43*
%MOMM*%
%LPD*%
G01*
G04 APERTURE LIST*
%ADD10C,0.150000*%
%ADD11C,0.100000*%
%ADD12C,0.120000*%
G04 APERTURE END LIST*
D10*
X158086466Y-100782219D02*
X158086466Y-101496504D01*
X158086466Y-101496504D02*
X158038847Y-101639361D01*
X158038847Y-101639361D02*
X157943609Y-101734600D01*
X157943609Y-101734600D02*
X157800752Y-101782219D01*
X157800752Y-101782219D02*
X157705514Y-101782219D01*
X158515038Y-100877457D02*
X158562657Y-100829838D01*
X158562657Y-100829838D02*
X158657895Y-100782219D01*
X158657895Y-100782219D02*
X158895990Y-100782219D01*
X158895990Y-100782219D02*
X158991228Y-100829838D01*
X158991228Y-100829838D02*
X159038847Y-100877457D01*
X159038847Y-100877457D02*
X159086466Y-100972695D01*
X159086466Y-100972695D02*
X159086466Y-101067933D01*
X159086466Y-101067933D02*
X159038847Y-101210790D01*
X159038847Y-101210790D02*
X158467419Y-101782219D01*
X158467419Y-101782219D02*
X159086466Y-101782219D01*
X151152266Y-100771819D02*
X151152266Y-101486104D01*
X151152266Y-101486104D02*
X151104647Y-101628961D01*
X151104647Y-101628961D02*
X151009409Y-101724200D01*
X151009409Y-101724200D02*
X150866552Y-101771819D01*
X150866552Y-101771819D02*
X150771314Y-101771819D01*
X152152266Y-101771819D02*
X151580838Y-101771819D01*
X151866552Y-101771819D02*
X151866552Y-100771819D01*
X151866552Y-100771819D02*
X151771314Y-100914676D01*
X151771314Y-100914676D02*
X151676076Y-101009914D01*
X151676076Y-101009914D02*
X151580838Y-101057533D01*
D11*
X105039219Y-93278515D02*
X104039219Y-93278515D01*
X104039219Y-93278515D02*
X104039219Y-93040420D01*
X104039219Y-93040420D02*
X104086838Y-92897563D01*
X104086838Y-92897563D02*
X104182076Y-92802325D01*
X104182076Y-92802325D02*
X104277314Y-92754706D01*
X104277314Y-92754706D02*
X104467790Y-92707087D01*
X104467790Y-92707087D02*
X104610647Y-92707087D01*
X104610647Y-92707087D02*
X104801123Y-92754706D01*
X104801123Y-92754706D02*
X104896361Y-92802325D01*
X104896361Y-92802325D02*
X104991600Y-92897563D01*
X104991600Y-92897563D02*
X105039219Y-93040420D01*
X105039219Y-93040420D02*
X105039219Y-93278515D01*
X104753504Y-92326134D02*
X104753504Y-91849944D01*
X105039219Y-92421372D02*
X104039219Y-92088039D01*
X104039219Y-92088039D02*
X105039219Y-91754706D01*
X104039219Y-91564229D02*
X104039219Y-90992801D01*
X105039219Y-91278515D02*
X104039219Y-91278515D01*
X104753504Y-90707086D02*
X104753504Y-90230896D01*
X105039219Y-90802324D02*
X104039219Y-90468991D01*
X104039219Y-90468991D02*
X105039219Y-90135658D01*
G36*
X151742996Y-124234980D02*
G01*
X151730346Y-124234807D01*
X151717523Y-124234349D01*
X151704906Y-124233692D01*
X151701963Y-124233515D01*
X151689261Y-124232665D01*
X151677533Y-124232093D01*
X151665643Y-124231784D01*
X151661224Y-124231756D01*
X151649455Y-124232359D01*
X151636687Y-124233528D01*
X151623855Y-124234907D01*
X151608696Y-124236679D01*
X151595801Y-124238267D01*
X151581597Y-124240076D01*
X151566084Y-124242107D01*
X151549263Y-124244359D01*
X151564797Y-124722098D01*
X151565676Y-124757562D01*
X151566555Y-124798888D01*
X151566595Y-124820325D01*
X151565910Y-124840379D01*
X151564498Y-124859050D01*
X151562360Y-124876337D01*
X151559497Y-124892242D01*
X151555908Y-124906764D01*
X151551593Y-124919903D01*
X151546552Y-124931658D01*
X151540785Y-124942031D01*
X151530774Y-124954997D01*
X151519129Y-124964851D01*
X151505852Y-124971593D01*
X151490941Y-124975224D01*
X151480093Y-124975915D01*
X151467983Y-124975173D01*
X151454635Y-124972432D01*
X151442129Y-124967672D01*
X151430464Y-124960892D01*
X151422647Y-124954813D01*
X151413169Y-124945075D01*
X151406018Y-124934328D01*
X151401195Y-124922571D01*
X151398701Y-124909805D01*
X151398321Y-124902056D01*
X151398403Y-124889434D01*
X151398598Y-124877262D01*
X151398907Y-124863588D01*
X151399237Y-124851567D01*
X151399640Y-124838584D01*
X151400116Y-124824639D01*
X151400666Y-124809732D01*
X151401284Y-124794826D01*
X151401820Y-124780881D01*
X151402273Y-124767898D01*
X151402644Y-124755877D01*
X151402992Y-124742203D01*
X151403211Y-124730031D01*
X151403303Y-124717409D01*
X151386890Y-124244359D01*
X151375071Y-124243785D01*
X151362143Y-124243050D01*
X151348109Y-124242157D01*
X151332966Y-124241103D01*
X151316716Y-124239890D01*
X151299358Y-124238517D01*
X151287170Y-124237513D01*
X151274491Y-124236438D01*
X151261319Y-124235292D01*
X151247655Y-124234074D01*
X151233498Y-124232786D01*
X151218849Y-124231428D01*
X151203708Y-124229998D01*
X151190613Y-124227575D01*
X151178807Y-124224045D01*
X151165068Y-124217616D01*
X151153619Y-124209217D01*
X151144460Y-124198849D01*
X151137591Y-124186511D01*
X151133011Y-124172205D01*
X151131079Y-124160183D01*
X151130435Y-124147053D01*
X151131218Y-124133558D01*
X151133568Y-124120990D01*
X151137483Y-124109350D01*
X151142965Y-124098638D01*
X151150013Y-124088852D01*
X151152710Y-124085797D01*
X151161496Y-124077529D01*
X151172840Y-124070046D01*
X151185362Y-124064891D01*
X151197033Y-124062325D01*
X151209570Y-124061470D01*
X151382494Y-124075538D01*
X151382401Y-124062325D01*
X151382122Y-124047781D01*
X151381765Y-124035187D01*
X151381288Y-124021741D01*
X151380693Y-124007444D01*
X151379979Y-123992295D01*
X151379365Y-123980374D01*
X151378684Y-123967974D01*
X151378055Y-123955664D01*
X151377313Y-123940277D01*
X151376681Y-123926062D01*
X151376159Y-123913019D01*
X151375747Y-123901149D01*
X151375386Y-123887960D01*
X151375180Y-123874551D01*
X151375167Y-123870667D01*
X151376001Y-123858650D01*
X151379085Y-123845645D01*
X151384440Y-123833733D01*
X151392068Y-123822916D01*
X151398907Y-123815859D01*
X151408290Y-123808489D01*
X151420176Y-123801817D01*
X151433070Y-123797221D01*
X151444927Y-123794933D01*
X151457525Y-123794171D01*
X151470938Y-123795191D01*
X151483258Y-123798251D01*
X151494486Y-123803351D01*
X151504621Y-123810492D01*
X151513665Y-123819673D01*
X151521616Y-123830894D01*
X151528475Y-123844155D01*
X151534242Y-123859457D01*
X151537480Y-123870791D01*
X151540232Y-123883032D01*
X151542499Y-123896180D01*
X151544280Y-123910235D01*
X151545194Y-123923619D01*
X151545798Y-123935983D01*
X151546238Y-123949172D01*
X151546513Y-123963186D01*
X151546616Y-123975493D01*
X151546625Y-123980577D01*
X151545160Y-124026592D01*
X151544280Y-124075538D01*
X151556724Y-124073941D01*
X151568483Y-124072447D01*
X151584838Y-124070399D01*
X151599653Y-124068583D01*
X151612927Y-124066999D01*
X151624661Y-124065647D01*
X151637909Y-124064204D01*
X151650619Y-124062980D01*
X151661224Y-124062349D01*
X151676803Y-124062421D01*
X151691335Y-124062638D01*
X151704823Y-124062998D01*
X151717264Y-124063503D01*
X151732225Y-124064401D01*
X151745327Y-124065555D01*
X151759090Y-124067358D01*
X151771771Y-124070051D01*
X151773478Y-124070556D01*
X151785224Y-124075447D01*
X151795405Y-124081767D01*
X151805928Y-124091676D01*
X151814003Y-124103817D01*
X151818702Y-124115138D01*
X151821834Y-124127887D01*
X151823401Y-124142066D01*
X151823596Y-124149690D01*
X151822793Y-124163185D01*
X151820382Y-124175753D01*
X151816363Y-124187393D01*
X151810737Y-124198106D01*
X151803504Y-124207891D01*
X151800735Y-124210947D01*
X151791829Y-124219114D01*
X151782037Y-124225592D01*
X151769493Y-124231014D01*
X151757781Y-124233830D01*
X151745182Y-124234957D01*
X151742996Y-124234980D01*
G37*
G36*
X152672682Y-124975915D02*
G01*
X152658660Y-124974944D01*
X152645901Y-124972032D01*
X152634406Y-124967177D01*
X152624176Y-124960381D01*
X152615209Y-124951644D01*
X152607506Y-124940964D01*
X152601067Y-124928343D01*
X152595892Y-124913780D01*
X152592401Y-124900646D01*
X152588961Y-124886522D01*
X152585573Y-124871410D01*
X152582236Y-124855308D01*
X152578951Y-124838217D01*
X152576789Y-124826274D01*
X152574651Y-124813891D01*
X152572535Y-124801068D01*
X152570442Y-124787805D01*
X152568372Y-124774103D01*
X152566325Y-124759962D01*
X152564301Y-124745380D01*
X152562300Y-124730360D01*
X152561308Y-124722684D01*
X152559533Y-124708012D01*
X152557873Y-124693673D01*
X152556327Y-124679665D01*
X152554896Y-124665989D01*
X152553580Y-124652646D01*
X152552377Y-124639634D01*
X152551290Y-124626954D01*
X152550317Y-124614607D01*
X152549458Y-124602591D01*
X152548385Y-124585190D01*
X152547569Y-124568536D01*
X152547011Y-124552630D01*
X152546710Y-124537470D01*
X152546653Y-124527778D01*
X152546781Y-124515707D01*
X152547104Y-124502890D01*
X152547537Y-124490230D01*
X152548007Y-124478499D01*
X152548578Y-124465695D01*
X152548705Y-124463005D01*
X152549296Y-124449986D01*
X152549787Y-124438041D01*
X152550243Y-124425123D01*
X152550594Y-124412006D01*
X152550754Y-124399591D01*
X152550756Y-124398232D01*
X152550454Y-124379599D01*
X152549547Y-124362168D01*
X152548036Y-124345939D01*
X152545920Y-124330913D01*
X152543200Y-124317088D01*
X152539875Y-124304466D01*
X152535946Y-124293045D01*
X152528919Y-124278169D01*
X152520531Y-124265997D01*
X152510784Y-124256531D01*
X152499676Y-124249769D01*
X152487208Y-124245711D01*
X152473380Y-124244359D01*
X152460352Y-124244731D01*
X152447501Y-124245847D01*
X152434826Y-124247708D01*
X152422327Y-124250312D01*
X152410005Y-124253661D01*
X152397859Y-124257754D01*
X152385889Y-124262591D01*
X152374095Y-124268173D01*
X152362478Y-124274498D01*
X152351037Y-124281568D01*
X152339773Y-124289382D01*
X152328685Y-124297940D01*
X152317773Y-124307242D01*
X152307037Y-124317288D01*
X152296478Y-124328079D01*
X152286095Y-124339614D01*
X152277908Y-124349517D01*
X152269176Y-124360981D01*
X152259897Y-124374006D01*
X152250072Y-124388592D01*
X152243219Y-124399183D01*
X152236123Y-124410469D01*
X152228784Y-124422448D01*
X152221202Y-124435120D01*
X152213378Y-124448487D01*
X152205311Y-124462547D01*
X152197002Y-124477301D01*
X152188449Y-124492749D01*
X152179654Y-124508891D01*
X152170617Y-124525727D01*
X152170591Y-124545493D01*
X152170514Y-124564749D01*
X152170385Y-124583494D01*
X152170205Y-124601729D01*
X152169973Y-124619453D01*
X152169689Y-124636666D01*
X152169354Y-124653369D01*
X152168968Y-124669561D01*
X152168530Y-124685243D01*
X152168041Y-124700414D01*
X152167500Y-124715074D01*
X152166907Y-124729224D01*
X152166263Y-124742863D01*
X152165568Y-124755991D01*
X152164821Y-124768609D01*
X152164022Y-124780716D01*
X152162270Y-124803399D01*
X152160313Y-124824039D01*
X152158149Y-124842636D01*
X152155779Y-124859192D01*
X152153203Y-124873704D01*
X152150421Y-124886174D01*
X152145861Y-124901050D01*
X152144238Y-124904987D01*
X152138051Y-124917214D01*
X152131068Y-124927812D01*
X152123287Y-124936778D01*
X152112441Y-124945694D01*
X152100349Y-124952063D01*
X152087013Y-124955884D01*
X152072431Y-124957157D01*
X152060080Y-124956354D01*
X152048306Y-124953943D01*
X152037109Y-124949924D01*
X152026489Y-124944298D01*
X152016446Y-124937065D01*
X152013227Y-124934296D01*
X152004561Y-124925273D01*
X151997688Y-124915570D01*
X151991936Y-124903391D01*
X151988624Y-124890286D01*
X151987728Y-124878316D01*
X151989130Y-124865790D01*
X151991849Y-124853751D01*
X151995055Y-124842266D01*
X151997794Y-124829531D01*
X151999492Y-124815832D01*
X152000697Y-124802112D01*
X152001510Y-124790211D01*
X152002246Y-124776929D01*
X152002905Y-124762266D01*
X152003486Y-124746223D01*
X152003990Y-124728799D01*
X152004141Y-124722684D01*
X152006779Y-124601344D01*
X152009123Y-123998455D01*
X152009833Y-123986002D01*
X152010497Y-123974069D01*
X152011407Y-123957144D01*
X152012214Y-123941388D01*
X152012919Y-123926802D01*
X152013520Y-123913386D01*
X152014018Y-123901138D01*
X152014521Y-123886628D01*
X152014842Y-123874197D01*
X152014985Y-123861582D01*
X152014792Y-123848599D01*
X152014212Y-123835845D01*
X152013246Y-123823319D01*
X152011894Y-123811023D01*
X152010155Y-123798956D01*
X152008030Y-123787118D01*
X152007072Y-123782447D01*
X152004792Y-123770736D01*
X152002899Y-123758868D01*
X152001392Y-123746842D01*
X152000271Y-123734659D01*
X151999537Y-123722319D01*
X151999189Y-123709821D01*
X151999158Y-123704778D01*
X151999993Y-123692331D01*
X152002497Y-123680708D01*
X152007528Y-123668189D01*
X152014831Y-123656793D01*
X152022899Y-123647918D01*
X152032292Y-123640248D01*
X152042449Y-123634166D01*
X152053368Y-123629670D01*
X152065049Y-123626760D01*
X152077493Y-123625438D01*
X152081810Y-123625350D01*
X152094010Y-123625960D01*
X152108738Y-123628674D01*
X152121707Y-123633558D01*
X152132918Y-123640613D01*
X152142370Y-123649838D01*
X152150064Y-123661234D01*
X152155999Y-123674801D01*
X152159296Y-123686401D01*
X152160945Y-123694813D01*
X152163249Y-123709077D01*
X152165327Y-123723073D01*
X152167179Y-123736801D01*
X152168803Y-123750262D01*
X152170201Y-123763454D01*
X152171372Y-123776379D01*
X152172317Y-123789036D01*
X152173035Y-123801425D01*
X152173526Y-123813546D01*
X152173790Y-123825399D01*
X152173841Y-123833152D01*
X152173792Y-123848766D01*
X152173645Y-123864503D01*
X152173400Y-123880365D01*
X152173058Y-123896350D01*
X152172617Y-123912458D01*
X152172079Y-123928690D01*
X152171442Y-123945046D01*
X152170708Y-123961526D01*
X152169876Y-123978129D01*
X152168946Y-123994856D01*
X152168272Y-124006076D01*
X152167389Y-124022428D01*
X152166610Y-124038842D01*
X152165933Y-124055318D01*
X152165359Y-124071856D01*
X152164889Y-124088456D01*
X152164521Y-124105118D01*
X152164257Y-124121841D01*
X152164095Y-124138626D01*
X152164037Y-124155473D01*
X152164082Y-124172382D01*
X152164169Y-124183689D01*
X152165048Y-124256083D01*
X152173546Y-124244941D01*
X152182116Y-124234156D01*
X152190756Y-124223728D01*
X152199468Y-124213658D01*
X152208250Y-124203944D01*
X152217104Y-124194588D01*
X152226028Y-124185590D01*
X152235024Y-124176948D01*
X152244090Y-124168664D01*
X152253227Y-124160736D01*
X152262436Y-124153166D01*
X152271715Y-124145954D01*
X152285767Y-124135804D01*
X152299979Y-124126458D01*
X152309542Y-124120674D01*
X152324078Y-124112608D01*
X152338778Y-124105335D01*
X152353643Y-124098856D01*
X152368673Y-124093170D01*
X152383868Y-124088277D01*
X152399228Y-124084178D01*
X152414753Y-124080872D01*
X152430442Y-124078359D01*
X152446297Y-124076640D01*
X152462316Y-124075715D01*
X152473087Y-124075538D01*
X152489861Y-124075885D01*
X152505964Y-124076926D01*
X152521396Y-124078660D01*
X152536157Y-124081089D01*
X152550247Y-124084211D01*
X152563666Y-124088027D01*
X152576414Y-124092537D01*
X152588492Y-124097740D01*
X152599898Y-124103637D01*
X152610634Y-124110228D01*
X152620699Y-124117513D01*
X152630092Y-124125492D01*
X152638815Y-124134165D01*
X152646867Y-124143531D01*
X152654248Y-124153591D01*
X152660959Y-124164345D01*
X152667497Y-124176855D01*
X152673485Y-124190864D01*
X152678921Y-124206372D01*
X152683806Y-124223380D01*
X152686756Y-124235551D01*
X152689462Y-124248389D01*
X152691922Y-124261893D01*
X152694137Y-124276063D01*
X152696108Y-124290900D01*
X152697833Y-124306403D01*
X152699314Y-124322572D01*
X152700549Y-124339408D01*
X152701539Y-124356910D01*
X152702284Y-124375078D01*
X152709026Y-124532175D01*
X152725439Y-124703633D01*
X152726888Y-124715561D01*
X152728379Y-124727310D01*
X152730692Y-124744598D01*
X152733098Y-124761484D01*
X152735597Y-124777969D01*
X152738188Y-124794052D01*
X152740872Y-124809733D01*
X152743649Y-124825012D01*
X152746519Y-124839889D01*
X152749481Y-124854365D01*
X152752537Y-124868438D01*
X152753575Y-124873040D01*
X152755890Y-124885263D01*
X152756800Y-124896781D01*
X152755924Y-124909128D01*
X152753296Y-124920672D01*
X152748017Y-124933124D01*
X152740353Y-124944482D01*
X152731887Y-124953347D01*
X152722304Y-124961017D01*
X152712021Y-124967100D01*
X152701037Y-124971596D01*
X152689352Y-124974505D01*
X152676966Y-124975827D01*
X152672682Y-124975915D01*
G37*
G36*
X153593575Y-124312063D02*
G01*
X153592567Y-124324308D01*
X153590019Y-124341193D01*
X153586230Y-124356302D01*
X153581199Y-124369632D01*
X153574926Y-124381186D01*
X153567412Y-124390962D01*
X153558656Y-124398960D01*
X153548659Y-124405181D01*
X153537420Y-124409625D01*
X153524939Y-124412291D01*
X153511217Y-124413180D01*
X153498541Y-124412471D01*
X153483580Y-124409323D01*
X153470835Y-124403656D01*
X153460306Y-124395470D01*
X153451995Y-124384765D01*
X153445899Y-124371542D01*
X153442782Y-124359971D01*
X153440912Y-124346984D01*
X153440289Y-124332580D01*
X153440031Y-124320324D01*
X153439454Y-124306850D01*
X153438805Y-124294606D01*
X153437970Y-124280527D01*
X153437651Y-124275427D01*
X153435306Y-124206843D01*
X153419241Y-124208950D01*
X153403579Y-124211386D01*
X153388320Y-124214152D01*
X153373464Y-124217248D01*
X153359011Y-124220674D01*
X153344961Y-124224429D01*
X153331314Y-124228514D01*
X153318070Y-124232928D01*
X153305228Y-124237673D01*
X153292790Y-124242747D01*
X153280755Y-124248151D01*
X153269123Y-124253884D01*
X153257894Y-124259948D01*
X153247068Y-124266341D01*
X153236645Y-124273064D01*
X153226625Y-124280116D01*
X153213103Y-124290649D01*
X153200013Y-124302136D01*
X153191527Y-124310323D01*
X153183234Y-124318934D01*
X153175133Y-124327968D01*
X153167224Y-124337426D01*
X153159507Y-124347307D01*
X153151983Y-124357613D01*
X153144651Y-124368341D01*
X153137512Y-124379494D01*
X153130564Y-124391070D01*
X153123809Y-124403069D01*
X153117247Y-124415492D01*
X153110877Y-124428339D01*
X153104699Y-124441610D01*
X153106458Y-124892677D01*
X153105741Y-124907553D01*
X153103593Y-124920965D01*
X153100012Y-124932914D01*
X153093010Y-124946571D01*
X153083462Y-124957626D01*
X153071367Y-124966079D01*
X153056726Y-124971932D01*
X153044075Y-124974615D01*
X153029991Y-124975834D01*
X153024978Y-124975915D01*
X153011988Y-124975189D01*
X153000276Y-124973009D01*
X152986647Y-124967844D01*
X152975290Y-124960095D01*
X152966204Y-124949764D01*
X152959390Y-124936849D01*
X152955770Y-124925469D01*
X152953427Y-124912635D01*
X152952362Y-124898348D01*
X152952291Y-124893263D01*
X152952291Y-124319977D01*
X152952390Y-124306889D01*
X152952630Y-124293618D01*
X152952941Y-124281110D01*
X152953351Y-124267285D01*
X152953752Y-124255278D01*
X152954217Y-124242428D01*
X152954343Y-124239083D01*
X152954824Y-124226022D01*
X152955241Y-124213804D01*
X152955671Y-124199716D01*
X152956002Y-124186945D01*
X152956267Y-124173358D01*
X152956393Y-124159902D01*
X152956395Y-124158190D01*
X152957034Y-124143419D01*
X152958950Y-124130101D01*
X152962144Y-124118236D01*
X152968391Y-124104676D01*
X152976909Y-124093699D01*
X152987698Y-124085305D01*
X153000759Y-124079493D01*
X153016092Y-124076265D01*
X153029081Y-124075538D01*
X153043493Y-124076680D01*
X153056504Y-124080103D01*
X153068113Y-124085809D01*
X153078321Y-124093797D01*
X153087127Y-124104068D01*
X153094532Y-124116620D01*
X153100536Y-124131456D01*
X153105139Y-124148573D01*
X153107428Y-124161253D01*
X153109095Y-124174947D01*
X153110140Y-124189655D01*
X153110561Y-124205378D01*
X153120486Y-124196236D01*
X153130480Y-124187384D01*
X153140540Y-124178822D01*
X153150669Y-124170550D01*
X153160864Y-124162569D01*
X153171128Y-124154878D01*
X153181459Y-124147477D01*
X153191857Y-124140367D01*
X153202323Y-124133546D01*
X153212857Y-124127016D01*
X153223458Y-124120776D01*
X153234126Y-124114826D01*
X153244863Y-124109167D01*
X153255666Y-124103798D01*
X153266538Y-124098719D01*
X153277476Y-124093930D01*
X153288483Y-124089431D01*
X153299557Y-124085223D01*
X153310698Y-124081305D01*
X153321907Y-124077677D01*
X153333184Y-124074339D01*
X153344528Y-124071292D01*
X153355940Y-124068535D01*
X153367419Y-124066068D01*
X153378966Y-124063891D01*
X153390580Y-124062005D01*
X153402262Y-124060408D01*
X153414011Y-124059102D01*
X153425828Y-124058087D01*
X153437713Y-124057361D01*
X153449665Y-124056926D01*
X153461684Y-124056781D01*
X153473915Y-124057216D01*
X153489293Y-124059151D01*
X153503609Y-124062633D01*
X153516862Y-124067664D01*
X153529053Y-124074243D01*
X153540181Y-124082369D01*
X153550247Y-124092043D01*
X153559251Y-124103266D01*
X153561335Y-124106313D01*
X153569098Y-124119410D01*
X153574240Y-124130267D01*
X153578801Y-124142011D01*
X153582779Y-124154640D01*
X153586175Y-124168155D01*
X153588989Y-124182557D01*
X153591220Y-124197845D01*
X153592870Y-124214018D01*
X153593937Y-124231078D01*
X153594325Y-124242944D01*
X153594455Y-124255203D01*
X153594433Y-124267720D01*
X153594351Y-124280964D01*
X153594177Y-124293967D01*
X153593829Y-124306811D01*
X153593575Y-124312063D01*
G37*
G36*
X154431524Y-124451575D02*
G01*
X154431538Y-124466678D01*
X154431566Y-124479172D01*
X154431610Y-124492665D01*
X154431669Y-124507157D01*
X154431744Y-124522649D01*
X154431834Y-124539141D01*
X154431939Y-124556632D01*
X154432018Y-124568848D01*
X154432104Y-124581508D01*
X154432197Y-124594612D01*
X154432297Y-124608161D01*
X154432403Y-124622154D01*
X154432510Y-124636147D01*
X154432609Y-124649695D01*
X154432702Y-124662800D01*
X154432788Y-124675460D01*
X154432867Y-124687676D01*
X154432939Y-124699448D01*
X154433034Y-124716272D01*
X154433114Y-124732097D01*
X154433179Y-124746923D01*
X154433227Y-124760749D01*
X154433261Y-124773576D01*
X154433279Y-124785403D01*
X154433282Y-124792733D01*
X154433540Y-124805344D01*
X154434117Y-124818029D01*
X154434892Y-124831022D01*
X154435758Y-124843566D01*
X154435920Y-124845783D01*
X154436916Y-124858443D01*
X154437818Y-124871598D01*
X154438505Y-124884503D01*
X154438840Y-124896307D01*
X154438851Y-124898539D01*
X154438006Y-124910856D01*
X154435471Y-124922307D01*
X154430378Y-124934573D01*
X154422985Y-124945660D01*
X154414818Y-124954226D01*
X154405534Y-124961597D01*
X154393739Y-124968269D01*
X154380906Y-124972865D01*
X154369080Y-124975153D01*
X154356492Y-124975915D01*
X154341316Y-124975077D01*
X154327586Y-124972563D01*
X154315304Y-124968373D01*
X154304469Y-124962506D01*
X154295081Y-124954964D01*
X154287140Y-124945745D01*
X154280646Y-124934850D01*
X154275599Y-124922279D01*
X154262616Y-124928774D01*
X154249386Y-124934850D01*
X154235908Y-124940507D01*
X154222183Y-124945745D01*
X154208211Y-124950564D01*
X154193992Y-124954964D01*
X154179525Y-124958945D01*
X154164811Y-124962506D01*
X154149849Y-124965649D01*
X154134641Y-124968373D01*
X154119185Y-124970677D01*
X154103481Y-124972563D01*
X154087531Y-124974030D01*
X154071333Y-124975077D01*
X154054888Y-124975706D01*
X154038195Y-124975915D01*
X154024857Y-124975732D01*
X154011808Y-124975182D01*
X153999047Y-124974267D01*
X153986574Y-124972984D01*
X153974391Y-124971336D01*
X153962495Y-124969321D01*
X153950888Y-124966939D01*
X153934019Y-124962680D01*
X153917799Y-124957597D01*
X153902228Y-124951689D01*
X153887306Y-124944957D01*
X153873033Y-124937401D01*
X153859409Y-124929021D01*
X153845293Y-124918931D01*
X153832289Y-124908007D01*
X153820398Y-124896249D01*
X153809621Y-124883656D01*
X153799955Y-124870228D01*
X153791403Y-124855965D01*
X153783964Y-124840868D01*
X153777637Y-124824936D01*
X153772423Y-124808170D01*
X153769565Y-124796529D01*
X153767202Y-124784517D01*
X153766206Y-124778372D01*
X153764241Y-124765045D01*
X153762338Y-124751810D01*
X153760497Y-124738667D01*
X153758719Y-124725615D01*
X153757003Y-124712655D01*
X153755349Y-124699786D01*
X153753758Y-124687009D01*
X153752230Y-124674324D01*
X153750763Y-124661730D01*
X153749359Y-124649228D01*
X153748018Y-124636818D01*
X153746739Y-124624499D01*
X153745522Y-124612271D01*
X153744368Y-124600135D01*
X153743276Y-124588091D01*
X153742246Y-124576139D01*
X153741279Y-124564277D01*
X153740374Y-124552508D01*
X153738752Y-124529244D01*
X153737379Y-124506346D01*
X153736256Y-124483815D01*
X153735383Y-124461650D01*
X153734759Y-124439851D01*
X153734384Y-124418419D01*
X153734259Y-124397353D01*
X153734356Y-124383421D01*
X153734644Y-124369248D01*
X153735125Y-124354835D01*
X153735798Y-124340182D01*
X153736664Y-124325288D01*
X153737722Y-124310153D01*
X153738972Y-124294779D01*
X153740414Y-124279164D01*
X153742049Y-124263308D01*
X153743876Y-124247212D01*
X153745896Y-124230876D01*
X153748108Y-124214299D01*
X153750512Y-124197482D01*
X153753109Y-124180424D01*
X153755898Y-124163126D01*
X153758879Y-124145587D01*
X153761509Y-124133069D01*
X153765113Y-124121782D01*
X153771433Y-124108647D01*
X153779484Y-124097702D01*
X153789266Y-124088946D01*
X153800779Y-124082379D01*
X153814023Y-124078001D01*
X153828998Y-124075812D01*
X153837134Y-124075538D01*
X153850021Y-124076311D01*
X153862084Y-124078630D01*
X153873322Y-124082494D01*
X153883736Y-124087903D01*
X153893326Y-124094858D01*
X153896339Y-124097520D01*
X153904507Y-124106206D01*
X153911900Y-124117460D01*
X153916993Y-124129921D01*
X153919527Y-124141561D01*
X153920372Y-124154087D01*
X153920079Y-124166701D01*
X153919199Y-124181461D01*
X153918072Y-124194815D01*
X153916570Y-124209543D01*
X153915197Y-124221490D01*
X153913613Y-124234211D01*
X153911818Y-124247704D01*
X153909811Y-124261970D01*
X153908356Y-124271910D01*
X153906261Y-124286740D01*
X153904371Y-124300895D01*
X153902688Y-124314375D01*
X153901212Y-124327180D01*
X153899941Y-124339311D01*
X153898567Y-124354435D01*
X153897559Y-124368359D01*
X153896918Y-124381083D01*
X153896632Y-124395301D01*
X153896668Y-124411858D01*
X153896774Y-124428118D01*
X153896951Y-124444080D01*
X153897200Y-124459745D01*
X153897519Y-124475111D01*
X153897910Y-124490180D01*
X153898371Y-124504952D01*
X153898903Y-124519425D01*
X153899507Y-124533601D01*
X153900181Y-124547480D01*
X153900926Y-124561060D01*
X153901743Y-124574343D01*
X153902630Y-124587329D01*
X153903588Y-124600016D01*
X153904618Y-124612406D01*
X153905718Y-124624499D01*
X153906888Y-124636259D01*
X153908772Y-124653350D01*
X153910810Y-124669781D01*
X153913003Y-124685553D01*
X153915351Y-124700666D01*
X153917853Y-124715119D01*
X153920510Y-124728912D01*
X153923321Y-124742047D01*
X153926287Y-124754521D01*
X153929407Y-124766337D01*
X153932682Y-124777492D01*
X153944565Y-124783453D01*
X153956364Y-124788768D01*
X153968079Y-124793439D01*
X153979710Y-124797464D01*
X153986318Y-124799474D01*
X153997816Y-124802443D01*
X154010854Y-124804944D01*
X154023782Y-124806492D01*
X154036601Y-124807087D01*
X154038195Y-124807095D01*
X154052055Y-124806959D01*
X154066011Y-124806554D01*
X154080064Y-124805879D01*
X154094212Y-124804933D01*
X154108457Y-124803717D01*
X154122798Y-124802231D01*
X154137235Y-124800475D01*
X154151768Y-124798448D01*
X154166397Y-124796152D01*
X154181123Y-124793585D01*
X154195945Y-124790748D01*
X154210863Y-124787641D01*
X154225877Y-124784263D01*
X154240987Y-124780616D01*
X154256193Y-124776698D01*
X154271496Y-124772510D01*
X154270910Y-124608672D01*
X154269151Y-124452161D01*
X154269212Y-124430577D01*
X154269394Y-124409351D01*
X154269697Y-124388482D01*
X154270122Y-124367970D01*
X154270668Y-124347816D01*
X154271336Y-124328018D01*
X154272124Y-124308578D01*
X154273035Y-124289495D01*
X154274066Y-124270769D01*
X154275219Y-124252401D01*
X154276493Y-124234389D01*
X154277889Y-124216735D01*
X154279406Y-124199438D01*
X154281044Y-124182498D01*
X154282804Y-124165916D01*
X154284685Y-124149690D01*
X154286932Y-124136439D01*
X154290266Y-124124490D01*
X154296403Y-124110587D01*
X154304472Y-124099001D01*
X154314474Y-124089732D01*
X154326408Y-124082780D01*
X154340275Y-124078145D01*
X154351944Y-124076190D01*
X154364699Y-124075538D01*
X154377586Y-124076321D01*
X154389648Y-124078671D01*
X154400887Y-124082586D01*
X154411301Y-124088068D01*
X154420890Y-124095116D01*
X154423903Y-124097813D01*
X154432020Y-124106448D01*
X154439222Y-124117512D01*
X154443985Y-124129641D01*
X154446307Y-124142837D01*
X154446472Y-124152915D01*
X154431524Y-124451575D01*
G37*
G36*
X155188872Y-124300633D02*
G01*
X155175341Y-124299817D01*
X155163141Y-124297370D01*
X155150257Y-124292279D01*
X155139290Y-124284840D01*
X155130240Y-124275051D01*
X155125271Y-124267220D01*
X155120040Y-124254421D01*
X155116492Y-124242326D01*
X155113767Y-124230877D01*
X155111143Y-124217853D01*
X155108620Y-124203253D01*
X155106794Y-124191269D01*
X155105024Y-124178400D01*
X155103876Y-124169328D01*
X155091693Y-124172475D01*
X155078335Y-124176090D01*
X155063803Y-124180175D01*
X155048097Y-124184729D01*
X155031215Y-124189751D01*
X155019308Y-124193360D01*
X155006879Y-124197177D01*
X154993929Y-124201202D01*
X154980455Y-124205436D01*
X154966460Y-124209878D01*
X154951943Y-124214529D01*
X154936904Y-124219388D01*
X154921343Y-124224455D01*
X154913366Y-124227067D01*
X154897285Y-124233759D01*
X154882234Y-124240645D01*
X154868214Y-124247726D01*
X154855224Y-124255002D01*
X154843265Y-124262472D01*
X154832336Y-124270137D01*
X154822437Y-124277997D01*
X154813569Y-124286051D01*
X154802198Y-124298498D01*
X154793146Y-124311382D01*
X154786412Y-124324704D01*
X154781997Y-124338464D01*
X154779900Y-124352662D01*
X154779716Y-124357492D01*
X154791990Y-124361724D01*
X154804190Y-124365333D01*
X154816316Y-124368318D01*
X154828370Y-124370681D01*
X154840126Y-124372831D01*
X154851693Y-124375031D01*
X154874257Y-124379579D01*
X154896060Y-124384327D01*
X154917103Y-124389274D01*
X154937386Y-124394421D01*
X154956909Y-124399766D01*
X154975671Y-124405311D01*
X154993673Y-124411055D01*
X155010915Y-124416998D01*
X155027397Y-124423140D01*
X155043119Y-124429482D01*
X155058080Y-124436022D01*
X155072281Y-124442762D01*
X155085722Y-124449702D01*
X155098403Y-124456840D01*
X155110324Y-124464178D01*
X155126614Y-124475362D01*
X155141854Y-124487153D01*
X155156042Y-124499551D01*
X155169180Y-124512556D01*
X155181267Y-124526168D01*
X155192302Y-124540386D01*
X155202287Y-124555211D01*
X155211220Y-124570643D01*
X155219103Y-124586682D01*
X155225934Y-124603327D01*
X155231715Y-124620580D01*
X155236444Y-124638439D01*
X155240123Y-124656905D01*
X155242751Y-124675977D01*
X155244327Y-124695657D01*
X155244853Y-124715943D01*
X155244398Y-124732538D01*
X155243034Y-124748618D01*
X155240762Y-124764183D01*
X155237580Y-124779233D01*
X155233490Y-124793767D01*
X155228490Y-124807786D01*
X155222581Y-124821290D01*
X155215763Y-124834279D01*
X155208036Y-124846752D01*
X155199400Y-124858711D01*
X155189856Y-124870154D01*
X155179402Y-124881082D01*
X155168039Y-124891495D01*
X155155766Y-124901392D01*
X155142585Y-124910774D01*
X155128495Y-124919642D01*
X155116243Y-124926456D01*
X155103592Y-124932831D01*
X155090542Y-124938766D01*
X155077094Y-124944261D01*
X155063248Y-124949317D01*
X155049003Y-124953933D01*
X155034360Y-124958110D01*
X155019319Y-124961847D01*
X155003879Y-124965144D01*
X154988040Y-124968002D01*
X154971804Y-124970420D01*
X154955168Y-124972398D01*
X154938135Y-124973937D01*
X154920703Y-124975036D01*
X154902872Y-124975695D01*
X154884643Y-124975915D01*
X154871163Y-124975776D01*
X154857761Y-124975356D01*
X154844437Y-124974658D01*
X154831191Y-124973680D01*
X154818022Y-124972423D01*
X154804931Y-124970887D01*
X154791919Y-124969071D01*
X154778984Y-124966976D01*
X154766127Y-124964601D01*
X154753347Y-124961948D01*
X154740646Y-124959014D01*
X154728022Y-124955802D01*
X154715477Y-124952310D01*
X154703009Y-124948539D01*
X154690619Y-124944488D01*
X154678307Y-124940158D01*
X154662939Y-124934339D01*
X154648563Y-124928237D01*
X154635178Y-124921855D01*
X154622784Y-124915190D01*
X154611382Y-124908244D01*
X154600972Y-124901017D01*
X154591553Y-124893507D01*
X154579283Y-124881715D01*
X154569245Y-124869289D01*
X154561437Y-124856230D01*
X154555860Y-124842537D01*
X154552514Y-124828210D01*
X154551398Y-124813249D01*
X154552305Y-124801338D01*
X154555655Y-124788171D01*
X154561473Y-124775789D01*
X154568425Y-124765801D01*
X154577190Y-124756390D01*
X154587220Y-124748122D01*
X154597743Y-124741566D01*
X154608762Y-124736719D01*
X154620275Y-124733584D01*
X154632282Y-124732158D01*
X154636395Y-124732063D01*
X154648266Y-124733816D01*
X154659580Y-124738110D01*
X154671944Y-124744979D01*
X154683051Y-124752671D01*
X154692462Y-124760113D01*
X154702340Y-124768700D01*
X154713302Y-124776113D01*
X154724034Y-124781064D01*
X154737184Y-124785730D01*
X154749446Y-124789256D01*
X154763256Y-124792599D01*
X154778613Y-124795759D01*
X154791147Y-124798009D01*
X154804721Y-124800138D01*
X154817745Y-124801984D01*
X154830220Y-124803545D01*
X154842145Y-124804823D01*
X154856279Y-124806021D01*
X154869554Y-124806775D01*
X154881970Y-124807086D01*
X154884350Y-124807095D01*
X154897175Y-124806950D01*
X154909712Y-124806518D01*
X154921960Y-124805796D01*
X154933919Y-124804786D01*
X154945590Y-124803488D01*
X154960703Y-124801308D01*
X154975302Y-124798616D01*
X154989389Y-124795410D01*
X155002963Y-124791691D01*
X155006276Y-124790681D01*
X155019999Y-124785930D01*
X155032373Y-124780690D01*
X155043396Y-124774960D01*
X155055995Y-124766559D01*
X155066193Y-124757288D01*
X155073992Y-124747146D01*
X155079392Y-124736135D01*
X155082391Y-124724253D01*
X155083066Y-124714771D01*
X155082455Y-124701023D01*
X155080621Y-124687843D01*
X155077564Y-124675231D01*
X155073284Y-124663187D01*
X155067782Y-124651710D01*
X155061057Y-124640802D01*
X155053109Y-124630461D01*
X155043938Y-124620688D01*
X155033545Y-124611484D01*
X155021929Y-124602846D01*
X155009090Y-124594777D01*
X154995029Y-124587276D01*
X154979744Y-124580343D01*
X154963237Y-124573977D01*
X154945508Y-124568179D01*
X154926555Y-124562949D01*
X154840679Y-124544485D01*
X154827226Y-124541559D01*
X154814269Y-124538572D01*
X154801809Y-124535524D01*
X154789846Y-124532413D01*
X154778380Y-124529240D01*
X154762113Y-124524366D01*
X154746963Y-124519352D01*
X154732932Y-124514199D01*
X154720019Y-124508907D01*
X154708223Y-124503476D01*
X154697546Y-124497906D01*
X154685048Y-124490263D01*
X154673106Y-124481455D01*
X154662338Y-124471849D01*
X154652745Y-124461445D01*
X154644327Y-124450242D01*
X154637083Y-124438240D01*
X154631014Y-124425440D01*
X154626119Y-124411842D01*
X154622400Y-124397444D01*
X154619855Y-124382249D01*
X154618484Y-124366254D01*
X154618223Y-124355148D01*
X154618857Y-124334675D01*
X154620760Y-124314948D01*
X154623932Y-124295968D01*
X154628371Y-124277735D01*
X154634080Y-124260248D01*
X154641057Y-124243507D01*
X154649302Y-124227513D01*
X154658816Y-124212266D01*
X154669599Y-124197764D01*
X154681650Y-124184010D01*
X154694970Y-124171001D01*
X154709558Y-124158740D01*
X154725414Y-124147224D01*
X154742540Y-124136456D01*
X154760933Y-124126433D01*
X154780596Y-124117157D01*
X154793904Y-124111607D01*
X154805099Y-124107276D01*
X154817335Y-124102800D01*
X154830612Y-124098181D01*
X154844929Y-124093417D01*
X154860287Y-124088509D01*
X154876686Y-124083456D01*
X154888197Y-124080008D01*
X154900170Y-124076495D01*
X154912606Y-124072919D01*
X154925504Y-124069278D01*
X154938865Y-124065573D01*
X154952251Y-124061872D01*
X154965152Y-124058241D01*
X154977567Y-124054682D01*
X154989497Y-124051193D01*
X155000941Y-124047776D01*
X155017197Y-124042783D01*
X155032361Y-124037949D01*
X155046433Y-124033276D01*
X155059413Y-124028762D01*
X155071300Y-124024407D01*
X155085451Y-124018850D01*
X155094790Y-124014868D01*
X155107635Y-124009988D01*
X155120893Y-124006117D01*
X155134563Y-124003256D01*
X155146270Y-124001643D01*
X155158262Y-124000731D01*
X155168063Y-124000507D01*
X155180908Y-124001300D01*
X155192847Y-124003681D01*
X155203879Y-124007648D01*
X155215604Y-124014281D01*
X155226095Y-124023075D01*
X155233864Y-124032022D01*
X155240896Y-124043685D01*
X155245183Y-124054731D01*
X155247862Y-124066745D01*
X155248933Y-124079728D01*
X155248956Y-124081986D01*
X155249597Y-124095066D01*
X155251210Y-124108734D01*
X155253374Y-124122102D01*
X155255728Y-124134406D01*
X155258583Y-124147770D01*
X155259214Y-124150570D01*
X155262169Y-124164145D01*
X155264624Y-124176662D01*
X155266908Y-124190284D01*
X155268470Y-124202381D01*
X155269382Y-124214566D01*
X155269472Y-124219153D01*
X155268669Y-124232298D01*
X155266257Y-124244474D01*
X155262239Y-124255681D01*
X155255519Y-124267532D01*
X155248018Y-124276641D01*
X155246611Y-124278065D01*
X155237705Y-124285734D01*
X155226195Y-124292676D01*
X155213478Y-124297459D01*
X155201618Y-124299839D01*
X155188872Y-124300633D01*
G37*
G36*
X156001028Y-124234980D02*
G01*
X155988378Y-124234807D01*
X155975555Y-124234349D01*
X155962938Y-124233692D01*
X155959996Y-124233515D01*
X155947293Y-124232665D01*
X155935565Y-124232093D01*
X155923675Y-124231784D01*
X155919256Y-124231756D01*
X155907487Y-124232359D01*
X155894719Y-124233528D01*
X155881887Y-124234907D01*
X155866728Y-124236679D01*
X155853833Y-124238267D01*
X155839629Y-124240076D01*
X155824116Y-124242107D01*
X155807295Y-124244359D01*
X155822829Y-124722098D01*
X155823708Y-124757562D01*
X155824587Y-124798888D01*
X155824627Y-124820325D01*
X155823942Y-124840379D01*
X155822530Y-124859050D01*
X155820392Y-124876337D01*
X155817529Y-124892242D01*
X155813940Y-124906764D01*
X155809625Y-124919903D01*
X155804584Y-124931658D01*
X155798817Y-124942031D01*
X155788806Y-124954997D01*
X155777162Y-124964851D01*
X155763884Y-124971593D01*
X155748973Y-124975224D01*
X155738125Y-124975915D01*
X155726015Y-124975173D01*
X155712667Y-124972432D01*
X155700161Y-124967672D01*
X155688496Y-124960892D01*
X155680679Y-124954813D01*
X155671201Y-124945075D01*
X155664050Y-124934328D01*
X155659227Y-124922571D01*
X155656733Y-124909805D01*
X155656353Y-124902056D01*
X155656435Y-124889434D01*
X155656630Y-124877262D01*
X155656939Y-124863588D01*
X155657269Y-124851567D01*
X155657672Y-124838584D01*
X155658148Y-124824639D01*
X155658698Y-124809732D01*
X155659316Y-124794826D01*
X155659852Y-124780881D01*
X155660305Y-124767898D01*
X155660676Y-124755877D01*
X155661024Y-124742203D01*
X155661243Y-124730031D01*
X155661335Y-124717409D01*
X155644922Y-124244359D01*
X155633103Y-124243785D01*
X155620176Y-124243050D01*
X155606141Y-124242157D01*
X155590998Y-124241103D01*
X155574748Y-124239890D01*
X155557390Y-124238517D01*
X155545203Y-124237513D01*
X155532523Y-124236438D01*
X155519351Y-124235292D01*
X155505687Y-124234074D01*
X155491530Y-124232786D01*
X155476881Y-124231428D01*
X155461740Y-124229998D01*
X155448646Y-124227575D01*
X155436839Y-124224045D01*
X155423100Y-124217616D01*
X155411651Y-124209217D01*
X155402492Y-124198849D01*
X155395623Y-124186511D01*
X155391043Y-124172205D01*
X155389111Y-124160183D01*
X155388467Y-124147053D01*
X155389250Y-124133558D01*
X155391600Y-124120990D01*
X155395515Y-124109350D01*
X155400997Y-124098638D01*
X155408045Y-124088852D01*
X155410742Y-124085797D01*
X155419528Y-124077529D01*
X155430872Y-124070046D01*
X155443394Y-124064891D01*
X155455065Y-124062325D01*
X155467602Y-124061470D01*
X155640526Y-124075538D01*
X155640433Y-124062325D01*
X155640154Y-124047781D01*
X155639797Y-124035187D01*
X155639320Y-124021741D01*
X155638725Y-124007444D01*
X155638011Y-123992295D01*
X155637397Y-123980374D01*
X155636716Y-123967974D01*
X155636087Y-123955664D01*
X155635345Y-123940277D01*
X155634713Y-123926062D01*
X155634191Y-123913019D01*
X155633779Y-123901149D01*
X155633418Y-123887960D01*
X155633212Y-123874551D01*
X155633199Y-123870667D01*
X155634033Y-123858650D01*
X155637117Y-123845645D01*
X155642472Y-123833733D01*
X155650100Y-123822916D01*
X155656939Y-123815859D01*
X155666323Y-123808489D01*
X155678208Y-123801817D01*
X155691103Y-123797221D01*
X155702959Y-123794933D01*
X155715557Y-123794171D01*
X155728970Y-123795191D01*
X155741290Y-123798251D01*
X155752518Y-123803351D01*
X155762653Y-123810492D01*
X155771697Y-123819673D01*
X155779648Y-123830894D01*
X155786507Y-123844155D01*
X155792274Y-123859457D01*
X155795512Y-123870791D01*
X155798264Y-123883032D01*
X155800531Y-123896180D01*
X155802312Y-123910235D01*
X155803226Y-123923619D01*
X155803831Y-123935983D01*
X155804270Y-123949172D01*
X155804545Y-123963186D01*
X155804648Y-123975493D01*
X155804657Y-123980577D01*
X155803192Y-124026592D01*
X155802312Y-124075538D01*
X155814756Y-124073941D01*
X155826515Y-124072447D01*
X155842870Y-124070399D01*
X155857685Y-124068583D01*
X155870959Y-124066999D01*
X155882693Y-124065647D01*
X155895941Y-124064204D01*
X155908651Y-124062980D01*
X155919256Y-124062349D01*
X155934835Y-124062421D01*
X155949368Y-124062638D01*
X155962855Y-124062998D01*
X155975296Y-124063503D01*
X155990257Y-124064401D01*
X156003359Y-124065555D01*
X156017122Y-124067358D01*
X156029803Y-124070051D01*
X156031510Y-124070556D01*
X156043256Y-124075447D01*
X156053437Y-124081767D01*
X156063960Y-124091676D01*
X156072036Y-124103817D01*
X156076734Y-124115138D01*
X156079867Y-124127887D01*
X156081433Y-124142066D01*
X156081629Y-124149690D01*
X156080825Y-124163185D01*
X156078414Y-124175753D01*
X156074395Y-124187393D01*
X156068769Y-124198106D01*
X156061536Y-124207891D01*
X156058767Y-124210947D01*
X156049861Y-124219114D01*
X156040069Y-124225592D01*
X156027525Y-124231014D01*
X156015813Y-124233830D01*
X156003214Y-124234957D01*
X156001028Y-124234980D01*
G37*
G36*
X157465606Y-125013431D02*
G01*
X157452071Y-125012350D01*
X157439308Y-125009109D01*
X157427318Y-125003707D01*
X157416101Y-124996143D01*
X157405657Y-124986419D01*
X157397858Y-124977083D01*
X157392333Y-124969174D01*
X157386188Y-124958934D01*
X157380207Y-124947119D01*
X157374391Y-124933728D01*
X157370137Y-124922652D01*
X157365976Y-124910689D01*
X157361907Y-124897840D01*
X157357932Y-124884104D01*
X157354049Y-124869483D01*
X157350259Y-124853975D01*
X157347783Y-124843145D01*
X157318181Y-124696599D01*
X157313778Y-124678280D01*
X157309068Y-124657394D01*
X157304051Y-124633940D01*
X157301427Y-124621251D01*
X157298727Y-124607921D01*
X157295950Y-124593948D01*
X157293097Y-124579334D01*
X157290166Y-124564078D01*
X157287159Y-124548180D01*
X157284076Y-124531641D01*
X157280915Y-124514460D01*
X157277678Y-124496637D01*
X157274364Y-124478173D01*
X157270973Y-124459067D01*
X157267506Y-124439319D01*
X157263962Y-124418929D01*
X157260341Y-124397898D01*
X157256644Y-124376225D01*
X157252870Y-124353910D01*
X157249019Y-124330954D01*
X157245092Y-124307355D01*
X157241087Y-124283115D01*
X157237006Y-124258234D01*
X157232849Y-124232711D01*
X157228614Y-124206546D01*
X157224303Y-124179739D01*
X157219915Y-124152291D01*
X157215451Y-124124200D01*
X157210910Y-124095469D01*
X157046192Y-124608965D01*
X156997539Y-124770751D01*
X156993829Y-124782632D01*
X156990097Y-124794240D01*
X156986346Y-124805575D01*
X156980679Y-124822068D01*
X156974967Y-124837947D01*
X156969208Y-124853213D01*
X156963402Y-124867866D01*
X156957550Y-124881906D01*
X156951652Y-124895333D01*
X156945708Y-124908147D01*
X156939717Y-124920348D01*
X156935697Y-124928141D01*
X156926675Y-124939338D01*
X156916902Y-124949042D01*
X156906379Y-124957254D01*
X156895104Y-124963972D01*
X156883078Y-124969197D01*
X156870301Y-124972929D01*
X156856773Y-124975169D01*
X156842494Y-124975915D01*
X156830720Y-124975329D01*
X156816891Y-124972948D01*
X156804050Y-124968734D01*
X156792196Y-124962689D01*
X156781329Y-124954813D01*
X156771450Y-124945104D01*
X156765997Y-124938400D01*
X156760397Y-124926746D01*
X156754955Y-124914134D01*
X156749669Y-124900562D01*
X156745555Y-124889015D01*
X156741541Y-124876854D01*
X156737628Y-124864079D01*
X156733815Y-124850691D01*
X156732878Y-124847248D01*
X156709137Y-124752873D01*
X156703954Y-124734037D01*
X156698809Y-124715118D01*
X156693703Y-124696116D01*
X156688635Y-124677031D01*
X156683605Y-124657863D01*
X156678613Y-124638612D01*
X156673660Y-124619278D01*
X156668746Y-124599861D01*
X156663869Y-124580361D01*
X156659031Y-124560778D01*
X156654232Y-124541112D01*
X156649470Y-124521362D01*
X156644747Y-124501530D01*
X156640063Y-124481615D01*
X156635416Y-124461617D01*
X156630809Y-124441536D01*
X156626239Y-124421372D01*
X156621708Y-124401125D01*
X156617215Y-124380795D01*
X156612761Y-124360382D01*
X156608344Y-124339886D01*
X156603967Y-124319307D01*
X156599627Y-124298645D01*
X156595326Y-124277900D01*
X156591063Y-124257072D01*
X156586839Y-124236160D01*
X156582653Y-124215166D01*
X156578505Y-124194089D01*
X156574396Y-124172929D01*
X156570325Y-124151686D01*
X156566293Y-124130360D01*
X156562298Y-124108951D01*
X156532696Y-124260186D01*
X156426304Y-124705978D01*
X156424795Y-124721418D01*
X156422797Y-124738171D01*
X156421193Y-124750070D01*
X156419372Y-124762553D01*
X156417333Y-124775619D01*
X156415076Y-124789270D01*
X156412602Y-124803504D01*
X156409910Y-124818322D01*
X156407001Y-124833725D01*
X156403875Y-124849711D01*
X156400530Y-124866281D01*
X156396969Y-124883435D01*
X156393189Y-124901172D01*
X156389192Y-124919494D01*
X156384978Y-124938400D01*
X156378319Y-124951589D01*
X156370653Y-124963019D01*
X156361980Y-124972691D01*
X156352298Y-124980605D01*
X156341610Y-124986760D01*
X156329914Y-124991156D01*
X156317210Y-124993794D01*
X156303499Y-124994673D01*
X156291260Y-124993972D01*
X156277631Y-124991279D01*
X156265156Y-124986567D01*
X156253836Y-124979835D01*
X156243669Y-124971083D01*
X156239019Y-124965950D01*
X156232046Y-124956316D01*
X156226516Y-124945878D01*
X156222429Y-124934636D01*
X156219784Y-124922591D01*
X156218582Y-124909742D01*
X156218502Y-124905280D01*
X156218724Y-124887964D01*
X156219391Y-124870160D01*
X156220501Y-124851868D01*
X156222056Y-124833088D01*
X156224055Y-124813821D01*
X156226498Y-124794066D01*
X156229386Y-124773823D01*
X156232717Y-124753092D01*
X156236493Y-124731874D01*
X156240713Y-124710168D01*
X156245377Y-124687975D01*
X156250486Y-124665293D01*
X156253207Y-124653770D01*
X156256039Y-124642124D01*
X156258981Y-124630357D01*
X156262035Y-124618467D01*
X156265200Y-124606456D01*
X156268477Y-124594323D01*
X156271864Y-124582068D01*
X156275362Y-124569690D01*
X156366220Y-124226480D01*
X156413994Y-123958302D01*
X156416269Y-123946669D01*
X156420842Y-123924165D01*
X156425445Y-123902677D01*
X156430077Y-123882207D01*
X156434739Y-123862753D01*
X156439430Y-123844316D01*
X156444152Y-123826895D01*
X156448903Y-123810491D01*
X156453684Y-123795104D01*
X156458495Y-123780733D01*
X156463336Y-123767379D01*
X156468206Y-123755042D01*
X156473106Y-123743721D01*
X156480512Y-123728646D01*
X156487985Y-123715859D01*
X156490491Y-123712105D01*
X156499009Y-123700565D01*
X156508003Y-123690563D01*
X156517474Y-123682100D01*
X156527421Y-123675175D01*
X156537844Y-123669790D01*
X156551542Y-123665222D01*
X156565985Y-123663058D01*
X156571970Y-123662866D01*
X156584954Y-123663850D01*
X156597085Y-123666804D01*
X156608364Y-123671727D01*
X156618792Y-123678619D01*
X156628368Y-123687481D01*
X156637092Y-123698311D01*
X156644964Y-123711111D01*
X156650309Y-123722003D01*
X156651984Y-123725880D01*
X156658071Y-123741497D01*
X156662174Y-123753445D01*
X156666314Y-123766623D01*
X156670490Y-123781030D01*
X156674704Y-123796667D01*
X156678953Y-123813533D01*
X156683240Y-123831629D01*
X156687563Y-123850955D01*
X156691923Y-123871510D01*
X156696319Y-123893295D01*
X156700752Y-123916310D01*
X156702982Y-123928278D01*
X156705222Y-123940554D01*
X156707470Y-123953137D01*
X156709728Y-123966028D01*
X156711995Y-123979226D01*
X156714271Y-123992731D01*
X156716556Y-124006544D01*
X156718850Y-124020664D01*
X156721154Y-124035092D01*
X156723949Y-124052631D01*
X156726838Y-124070260D01*
X156729822Y-124087980D01*
X156732901Y-124105791D01*
X156736073Y-124123692D01*
X156739341Y-124141683D01*
X156742702Y-124159765D01*
X156746158Y-124177937D01*
X156749709Y-124196200D01*
X156753354Y-124214553D01*
X156757093Y-124232997D01*
X156760927Y-124251531D01*
X156764856Y-124270155D01*
X156768879Y-124288870D01*
X156772996Y-124307675D01*
X156777208Y-124326571D01*
X156781514Y-124345557D01*
X156785915Y-124364634D01*
X156790410Y-124383801D01*
X156794999Y-124403059D01*
X156799683Y-124422407D01*
X156804462Y-124441845D01*
X156809335Y-124461374D01*
X156814302Y-124480994D01*
X156819364Y-124500704D01*
X156824520Y-124520504D01*
X156829771Y-124540395D01*
X156835116Y-124560376D01*
X156840556Y-124580447D01*
X156846090Y-124600609D01*
X156851718Y-124620862D01*
X156857442Y-124641205D01*
X156865030Y-124620680D01*
X156872554Y-124600103D01*
X156880014Y-124579474D01*
X156887410Y-124558791D01*
X156894742Y-124538056D01*
X156902010Y-124517268D01*
X156909213Y-124496428D01*
X156916353Y-124475535D01*
X156923428Y-124454589D01*
X156930440Y-124433591D01*
X156937387Y-124412540D01*
X156944270Y-124391436D01*
X156951089Y-124370280D01*
X156957844Y-124349071D01*
X156964534Y-124327809D01*
X156971161Y-124306494D01*
X156977723Y-124285127D01*
X156984222Y-124263708D01*
X156990656Y-124242235D01*
X156997026Y-124220710D01*
X157003332Y-124199133D01*
X157009574Y-124177502D01*
X157015752Y-124155819D01*
X157021866Y-124134083D01*
X157027915Y-124112295D01*
X157033901Y-124090454D01*
X157039822Y-124068560D01*
X157045679Y-124046614D01*
X157051473Y-124024615D01*
X157057202Y-124002563D01*
X157062867Y-123980459D01*
X157068467Y-123958302D01*
X157093087Y-123834031D01*
X157095917Y-123820218D01*
X157098912Y-123806914D01*
X157102072Y-123794121D01*
X157105397Y-123781838D01*
X157108886Y-123770065D01*
X157112541Y-123758802D01*
X157117670Y-123744577D01*
X157123092Y-123731260D01*
X157128808Y-123718850D01*
X157131775Y-123712984D01*
X157140206Y-123701238D01*
X157149379Y-123691057D01*
X157159294Y-123682443D01*
X157169950Y-123675395D01*
X157181349Y-123669914D01*
X157193489Y-123665998D01*
X157206371Y-123663649D01*
X157219996Y-123662866D01*
X157232998Y-123663997D01*
X157245409Y-123667389D01*
X157257227Y-123673043D01*
X157268452Y-123680959D01*
X157279085Y-123691137D01*
X157289125Y-123703577D01*
X157298573Y-123718278D01*
X157304542Y-123729335D01*
X157310249Y-123741398D01*
X157315691Y-123754466D01*
X157320871Y-123768539D01*
X157325787Y-123783617D01*
X157328146Y-123791533D01*
X157331535Y-123805317D01*
X157334197Y-123817783D01*
X157336962Y-123832073D01*
X157339830Y-123848187D01*
X157341799Y-123859943D01*
X157343814Y-123872509D01*
X157345875Y-123885886D01*
X157347982Y-123900073D01*
X157350134Y-123915071D01*
X157352332Y-123930880D01*
X157354576Y-123947499D01*
X157356866Y-123964929D01*
X157359201Y-123983169D01*
X157360386Y-123992593D01*
X157363450Y-124016535D01*
X157366561Y-124040257D01*
X157369718Y-124063760D01*
X157372921Y-124087042D01*
X157376170Y-124110105D01*
X157379466Y-124132948D01*
X157382808Y-124155571D01*
X157386197Y-124177974D01*
X157389632Y-124200157D01*
X157393113Y-124222121D01*
X157396641Y-124243864D01*
X157400215Y-124265388D01*
X157403835Y-124286692D01*
X157407502Y-124307777D01*
X157411215Y-124328641D01*
X157414975Y-124349286D01*
X157418781Y-124369711D01*
X157422633Y-124389916D01*
X157426531Y-124409901D01*
X157430476Y-124429666D01*
X157434468Y-124449212D01*
X157438506Y-124468537D01*
X157442590Y-124487643D01*
X157446720Y-124506529D01*
X157450897Y-124525196D01*
X157455120Y-124543642D01*
X157459390Y-124561869D01*
X157463706Y-124579875D01*
X157468068Y-124597662D01*
X157472477Y-124615230D01*
X157476932Y-124632577D01*
X157481433Y-124649704D01*
X157521880Y-124796250D01*
X157525642Y-124809731D01*
X157529161Y-124822551D01*
X157532438Y-124834708D01*
X157535472Y-124846204D01*
X157539568Y-124862207D01*
X157543117Y-124876721D01*
X157546121Y-124889746D01*
X157548579Y-124901282D01*
X157551006Y-124914348D01*
X157552674Y-124926957D01*
X157552947Y-124932538D01*
X157551999Y-124945006D01*
X157549156Y-124956690D01*
X157544416Y-124967592D01*
X157537780Y-124977710D01*
X157529248Y-124987046D01*
X157525983Y-124989984D01*
X157515734Y-124997952D01*
X157504990Y-125004272D01*
X157493752Y-125008943D01*
X157482019Y-125011965D01*
X157469792Y-125013339D01*
X157465606Y-125013431D01*
G37*
G36*
X158397930Y-123897339D02*
G01*
X158384320Y-123897169D01*
X158369866Y-123896661D01*
X158354571Y-123895814D01*
X158342546Y-123894956D01*
X158330047Y-123893908D01*
X158317075Y-123892669D01*
X158303628Y-123891239D01*
X158289707Y-123889619D01*
X158275312Y-123887808D01*
X158265453Y-123886494D01*
X158132682Y-123869202D01*
X158131510Y-123884440D01*
X158130375Y-123899635D01*
X158129278Y-123914789D01*
X158128217Y-123929899D01*
X158127194Y-123944968D01*
X158126208Y-123959994D01*
X158125259Y-123974978D01*
X158124347Y-123989919D01*
X158123473Y-124004818D01*
X158122636Y-124019675D01*
X158121836Y-124034489D01*
X158121073Y-124049261D01*
X158120348Y-124063990D01*
X158119659Y-124078678D01*
X158119008Y-124093322D01*
X158118394Y-124107925D01*
X158117817Y-124122485D01*
X158117278Y-124137003D01*
X158116775Y-124151478D01*
X158116310Y-124165911D01*
X158115882Y-124180302D01*
X158115492Y-124194650D01*
X158115138Y-124208956D01*
X158114822Y-124223220D01*
X158114543Y-124237441D01*
X158114301Y-124251620D01*
X158114096Y-124265756D01*
X158113929Y-124279851D01*
X158113799Y-124293902D01*
X158113706Y-124307912D01*
X158113650Y-124321879D01*
X158113631Y-124335804D01*
X158113682Y-124350893D01*
X158113786Y-124362781D01*
X158113946Y-124375159D01*
X158114163Y-124388026D01*
X158114437Y-124401383D01*
X158114768Y-124415229D01*
X158115155Y-124429564D01*
X158115599Y-124444389D01*
X158116100Y-124459703D01*
X158116657Y-124475507D01*
X158116855Y-124480884D01*
X158117431Y-124496851D01*
X158117951Y-124512328D01*
X158118414Y-124527316D01*
X158118820Y-124541815D01*
X158119169Y-124555824D01*
X158119462Y-124569344D01*
X158119698Y-124582374D01*
X158119878Y-124594915D01*
X158120001Y-124606966D01*
X158120076Y-124622273D01*
X158120079Y-124625964D01*
X158120030Y-124640673D01*
X158119884Y-124655124D01*
X158119639Y-124669318D01*
X158119296Y-124683254D01*
X158118856Y-124696933D01*
X158118317Y-124710354D01*
X158117681Y-124723517D01*
X158116947Y-124736423D01*
X158116115Y-124749071D01*
X158115185Y-124761462D01*
X158114511Y-124769579D01*
X158374190Y-124766355D01*
X158386767Y-124767231D01*
X158398562Y-124769858D01*
X158409574Y-124774237D01*
X158419802Y-124780368D01*
X158429247Y-124788251D01*
X158432222Y-124791268D01*
X158440190Y-124800902D01*
X158446510Y-124811340D01*
X158451181Y-124822581D01*
X158454204Y-124834627D01*
X158455577Y-124847476D01*
X158455669Y-124851938D01*
X158454845Y-124865364D01*
X158452372Y-124877945D01*
X158448250Y-124889681D01*
X158442480Y-124900572D01*
X158435061Y-124910619D01*
X158432222Y-124913780D01*
X158423037Y-124922147D01*
X158413070Y-124928782D01*
X158402319Y-124933687D01*
X158390786Y-124936861D01*
X158378469Y-124938303D01*
X158374190Y-124938400D01*
X158361893Y-124938400D01*
X158348159Y-124938400D01*
X158332987Y-124938400D01*
X158320665Y-124938400D01*
X158307533Y-124938400D01*
X158293593Y-124938400D01*
X158278843Y-124938400D01*
X158263285Y-124938400D01*
X158246918Y-124938400D01*
X158235557Y-124938400D01*
X158218654Y-124938400D01*
X158202564Y-124938400D01*
X158187288Y-124938400D01*
X158172827Y-124938400D01*
X158159179Y-124938400D01*
X158146345Y-124938400D01*
X158134326Y-124938400D01*
X158119566Y-124938400D01*
X158106253Y-124938400D01*
X158097218Y-124938400D01*
X158082747Y-124938546D01*
X158070787Y-124938848D01*
X158057880Y-124939315D01*
X158044024Y-124939947D01*
X158029221Y-124940744D01*
X158013470Y-124941706D01*
X157996770Y-124942833D01*
X157979123Y-124944124D01*
X157966831Y-124945076D01*
X157954119Y-124946102D01*
X157940984Y-124947201D01*
X157934259Y-124947778D01*
X157920947Y-124948914D01*
X157908046Y-124949977D01*
X157895558Y-124950966D01*
X157883481Y-124951882D01*
X157866140Y-124953118D01*
X157849725Y-124954190D01*
X157834238Y-124955097D01*
X157819679Y-124955838D01*
X157806047Y-124956415D01*
X157793342Y-124956828D01*
X157781564Y-124957075D01*
X157770714Y-124957157D01*
X157758137Y-124956302D01*
X157746342Y-124953736D01*
X157735330Y-124949460D01*
X157725102Y-124943474D01*
X157715657Y-124935777D01*
X157712682Y-124932831D01*
X157704714Y-124923207D01*
X157698394Y-124912800D01*
X157693723Y-124901610D01*
X157690700Y-124889636D01*
X157689327Y-124876880D01*
X157689235Y-124872454D01*
X157690059Y-124859426D01*
X157692532Y-124847161D01*
X157696654Y-124835658D01*
X157702424Y-124824918D01*
X157709843Y-124814940D01*
X157712682Y-124811784D01*
X157721877Y-124803318D01*
X157731875Y-124796603D01*
X157742677Y-124791640D01*
X157754283Y-124788428D01*
X157766692Y-124786969D01*
X157771007Y-124786871D01*
X157785442Y-124786601D01*
X157797711Y-124786044D01*
X157811216Y-124785183D01*
X157825958Y-124784017D01*
X157841936Y-124782548D01*
X157859150Y-124780775D01*
X157871313Y-124779424D01*
X157884026Y-124777938D01*
X157897289Y-124776317D01*
X157911101Y-124774561D01*
X157925462Y-124772669D01*
X157940373Y-124770643D01*
X157948035Y-124769579D01*
X157949501Y-124756939D01*
X157950824Y-124743970D01*
X157952002Y-124730671D01*
X157953036Y-124717042D01*
X157953925Y-124703084D01*
X157954670Y-124688796D01*
X157955272Y-124674178D01*
X157955728Y-124659230D01*
X157956041Y-124643953D01*
X157956209Y-124628345D01*
X157956241Y-124617757D01*
X157956159Y-124603227D01*
X157955912Y-124587917D01*
X157955618Y-124575924D01*
X157955231Y-124563493D01*
X157954752Y-124550624D01*
X157954180Y-124537318D01*
X157953516Y-124523573D01*
X157952758Y-124509390D01*
X157951908Y-124494770D01*
X157950966Y-124479711D01*
X157950023Y-124464658D01*
X157949173Y-124450053D01*
X157948415Y-124435896D01*
X157947751Y-124422188D01*
X157947179Y-124408927D01*
X157946700Y-124396115D01*
X157946313Y-124383751D01*
X157946020Y-124371835D01*
X157945772Y-124356645D01*
X157945690Y-124342252D01*
X157945712Y-124330326D01*
X157945779Y-124318216D01*
X157945891Y-124305921D01*
X157946047Y-124293443D01*
X157946248Y-124280780D01*
X157946494Y-124267932D01*
X157946784Y-124254901D01*
X157947119Y-124241685D01*
X157947498Y-124228284D01*
X157947922Y-124214700D01*
X157948391Y-124200931D01*
X157948905Y-124186977D01*
X157949463Y-124172840D01*
X157950066Y-124158518D01*
X157950713Y-124144011D01*
X157951405Y-124129321D01*
X157952142Y-124114446D01*
X157952923Y-124099386D01*
X157953749Y-124084143D01*
X157954620Y-124068715D01*
X157955535Y-124053103D01*
X157956495Y-124037306D01*
X157957500Y-124021325D01*
X157958549Y-124005160D01*
X157959643Y-123988810D01*
X157960782Y-123972276D01*
X157961965Y-123955558D01*
X157963193Y-123938656D01*
X157964466Y-123921569D01*
X157965783Y-123904297D01*
X157967145Y-123886842D01*
X157968551Y-123869202D01*
X157861573Y-123872719D01*
X157754301Y-123875064D01*
X157741404Y-123874229D01*
X157729311Y-123871725D01*
X157718021Y-123867552D01*
X157707535Y-123861710D01*
X157697853Y-123854198D01*
X157694804Y-123851323D01*
X157686736Y-123841868D01*
X157680337Y-123831526D01*
X157675607Y-123820298D01*
X157672547Y-123808184D01*
X157671156Y-123795184D01*
X157671063Y-123790654D01*
X157671743Y-123776968D01*
X157673784Y-123764488D01*
X157677184Y-123753214D01*
X157683833Y-123740057D01*
X157692901Y-123729043D01*
X157704386Y-123720172D01*
X157718290Y-123713445D01*
X157730304Y-123709806D01*
X157743679Y-123707373D01*
X157748439Y-123706829D01*
X157761989Y-123705677D01*
X157777579Y-123704638D01*
X157795209Y-123703712D01*
X157808096Y-123703158D01*
X157821890Y-123702655D01*
X157836590Y-123702201D01*
X157852197Y-123701798D01*
X157868711Y-123701446D01*
X157886132Y-123701143D01*
X157904459Y-123700891D01*
X157923693Y-123700690D01*
X157943834Y-123700539D01*
X157964882Y-123700438D01*
X157986836Y-123700388D01*
X157998153Y-123700381D01*
X158018995Y-123700514D01*
X158040487Y-123700913D01*
X158062629Y-123701577D01*
X158085421Y-123702506D01*
X158108864Y-123703702D01*
X158120829Y-123704399D01*
X158132957Y-123705162D01*
X158145247Y-123705992D01*
X158157700Y-123706889D01*
X158170316Y-123707852D01*
X158183094Y-123708881D01*
X158196035Y-123709977D01*
X158209138Y-123711139D01*
X158222404Y-123712367D01*
X158235832Y-123713662D01*
X158249423Y-123715023D01*
X158263177Y-123716451D01*
X158277093Y-123717945D01*
X158291171Y-123719506D01*
X158305413Y-123721132D01*
X158319817Y-123722826D01*
X158334383Y-123724585D01*
X158349112Y-123726412D01*
X158364004Y-123728304D01*
X158379058Y-123730263D01*
X158394274Y-123732288D01*
X158409654Y-123734380D01*
X158422748Y-123736865D01*
X158434555Y-123740473D01*
X158448294Y-123747031D01*
X158459743Y-123755586D01*
X158468902Y-123766137D01*
X158475771Y-123778685D01*
X158480351Y-123793230D01*
X158482283Y-123805448D01*
X158482927Y-123818790D01*
X158481937Y-123832134D01*
X158478970Y-123844468D01*
X158474024Y-123855792D01*
X158467100Y-123866106D01*
X158458197Y-123875411D01*
X158454790Y-123878288D01*
X158443654Y-123885711D01*
X158431789Y-123891311D01*
X158419195Y-123895088D01*
X158405871Y-123897041D01*
X158397930Y-123897339D01*
G37*
G36*
X159650017Y-123906132D02*
G01*
X159638004Y-123906044D01*
X159624827Y-123905781D01*
X159610485Y-123905343D01*
X159594979Y-123904730D01*
X159578309Y-123903942D01*
X159566549Y-123903319D01*
X159554271Y-123902618D01*
X159541476Y-123901840D01*
X159528163Y-123900984D01*
X159514333Y-123900049D01*
X159499985Y-123899037D01*
X159485120Y-123897947D01*
X159469737Y-123896780D01*
X159461852Y-123896166D01*
X159446624Y-123895070D01*
X159431860Y-123894051D01*
X159417562Y-123893110D01*
X159403728Y-123892246D01*
X159390359Y-123891461D01*
X159377455Y-123890753D01*
X159365016Y-123890124D01*
X159353042Y-123889572D01*
X159335952Y-123888890D01*
X159319907Y-123888383D01*
X159304909Y-123888052D01*
X159290957Y-123887896D01*
X159278050Y-123887915D01*
X159273980Y-123887960D01*
X159215362Y-123887960D01*
X159215724Y-123902537D01*
X159216223Y-123918203D01*
X159216859Y-123934960D01*
X159217633Y-123952806D01*
X159218545Y-123971743D01*
X159219593Y-123991769D01*
X159220780Y-124012885D01*
X159222103Y-124035092D01*
X159223564Y-124058388D01*
X159224346Y-124070445D01*
X159225162Y-124082774D01*
X159226013Y-124095376D01*
X159226898Y-124108250D01*
X159227817Y-124121397D01*
X159228771Y-124134816D01*
X159229759Y-124148508D01*
X159230781Y-124162472D01*
X159231838Y-124176709D01*
X159232929Y-124191218D01*
X159234055Y-124206000D01*
X159235214Y-124221054D01*
X159236408Y-124236380D01*
X159237637Y-124251979D01*
X159238755Y-124266550D01*
X159239837Y-124280915D01*
X159240884Y-124295076D01*
X159241896Y-124309031D01*
X159242872Y-124322782D01*
X159243812Y-124336328D01*
X159244717Y-124349669D01*
X159245587Y-124362805D01*
X159246421Y-124375736D01*
X159247220Y-124388462D01*
X159247983Y-124400983D01*
X159248710Y-124413299D01*
X159249402Y-124425410D01*
X159250059Y-124437316D01*
X159251266Y-124460514D01*
X159252330Y-124482892D01*
X159253253Y-124504450D01*
X159254034Y-124525189D01*
X159254673Y-124545107D01*
X159255170Y-124564206D01*
X159255525Y-124582486D01*
X159255738Y-124599945D01*
X159255809Y-124616585D01*
X159256089Y-124630426D01*
X159256776Y-124644522D01*
X159257663Y-124657842D01*
X159258837Y-124672594D01*
X159259982Y-124685426D01*
X159261310Y-124699174D01*
X159261670Y-124702754D01*
X159263044Y-124716745D01*
X159264235Y-124729847D01*
X159265242Y-124742060D01*
X159266244Y-124756078D01*
X159266960Y-124768708D01*
X159267441Y-124782031D01*
X159267532Y-124789802D01*
X159267248Y-124803339D01*
X159266396Y-124816400D01*
X159264977Y-124828985D01*
X159262989Y-124841093D01*
X159260434Y-124852725D01*
X159256441Y-124866596D01*
X159251561Y-124879722D01*
X159249361Y-124884764D01*
X159243174Y-124897335D01*
X159236190Y-124908229D01*
X159228409Y-124917448D01*
X159217563Y-124926614D01*
X159205471Y-124933162D01*
X159192135Y-124937090D01*
X159177553Y-124938400D01*
X159165470Y-124937596D01*
X159153840Y-124935185D01*
X159142664Y-124931166D01*
X159131941Y-124925540D01*
X159121671Y-124918307D01*
X159118349Y-124915538D01*
X159109384Y-124906512D01*
X159102274Y-124896579D01*
X159097019Y-124885739D01*
X159093619Y-124873993D01*
X159092074Y-124861339D01*
X159091970Y-124856920D01*
X159092648Y-124844935D01*
X159094090Y-124833017D01*
X159096074Y-124820284D01*
X159098057Y-124807432D01*
X159099500Y-124795491D01*
X159100177Y-124783647D01*
X159100048Y-124770133D01*
X159099760Y-124757931D01*
X159099306Y-124744492D01*
X159098688Y-124729817D01*
X159098116Y-124717999D01*
X159097452Y-124705486D01*
X159096694Y-124692277D01*
X159095844Y-124678373D01*
X159094901Y-124663773D01*
X159093959Y-124649165D01*
X159093108Y-124635238D01*
X159092351Y-124621990D01*
X159091687Y-124609423D01*
X159091115Y-124597535D01*
X159090496Y-124582743D01*
X159090043Y-124569160D01*
X159089755Y-124556786D01*
X159089626Y-124543019D01*
X159089551Y-124528105D01*
X159089328Y-124512451D01*
X159088956Y-124496057D01*
X159088435Y-124478924D01*
X159087765Y-124461051D01*
X159086947Y-124442438D01*
X159085979Y-124423086D01*
X159084863Y-124402995D01*
X159083598Y-124382164D01*
X159082184Y-124360593D01*
X159080621Y-124338282D01*
X159078910Y-124315232D01*
X159077998Y-124303430D01*
X159077049Y-124291443D01*
X159076063Y-124279270D01*
X159075040Y-124266913D01*
X159073979Y-124254371D01*
X159072882Y-124241644D01*
X159071747Y-124228733D01*
X159070575Y-124215636D01*
X159069346Y-124201492D01*
X159068152Y-124187600D01*
X159066992Y-124173960D01*
X159065867Y-124160572D01*
X159064776Y-124147435D01*
X159063719Y-124134550D01*
X159062697Y-124121918D01*
X159061709Y-124109537D01*
X159060755Y-124097408D01*
X159059836Y-124085531D01*
X159058100Y-124062532D01*
X159056502Y-124040541D01*
X159055041Y-124019558D01*
X159053717Y-123999582D01*
X159052531Y-123980613D01*
X159051483Y-123962652D01*
X159050571Y-123945699D01*
X159049797Y-123929753D01*
X159049161Y-123914814D01*
X159048662Y-123900883D01*
X159048300Y-123887960D01*
X158973268Y-123888839D01*
X158951003Y-123888738D01*
X158929341Y-123888436D01*
X158908285Y-123887932D01*
X158887832Y-123887227D01*
X158867985Y-123886320D01*
X158848741Y-123885212D01*
X158830102Y-123883902D01*
X158812068Y-123882391D01*
X158794638Y-123880678D01*
X158777813Y-123878764D01*
X158761592Y-123876648D01*
X158745976Y-123874331D01*
X158730964Y-123871812D01*
X158716557Y-123869092D01*
X158702754Y-123866170D01*
X158689556Y-123863047D01*
X158677614Y-123859455D01*
X158663518Y-123853408D01*
X158651510Y-123845923D01*
X158641591Y-123836999D01*
X158633760Y-123826638D01*
X158628017Y-123814839D01*
X158624363Y-123801602D01*
X158622796Y-123786927D01*
X158622731Y-123783033D01*
X158623483Y-123770892D01*
X158625740Y-123759306D01*
X158630274Y-123746494D01*
X158635790Y-123736114D01*
X158642810Y-123726291D01*
X158644127Y-123724708D01*
X158653953Y-123715129D01*
X158664749Y-123707713D01*
X158676512Y-123702462D01*
X158689245Y-123699374D01*
X158702945Y-123698450D01*
X158707728Y-123698623D01*
X158721116Y-123699684D01*
X158732950Y-123700838D01*
X158747109Y-123702349D01*
X158759256Y-123703717D01*
X158772711Y-123705286D01*
X158787475Y-123707056D01*
X158803548Y-123709026D01*
X158820929Y-123711198D01*
X158833243Y-123712757D01*
X158839619Y-123713570D01*
X158854785Y-123715299D01*
X158869401Y-123716857D01*
X158883465Y-123718246D01*
X158896978Y-123719464D01*
X158909939Y-123720513D01*
X158922350Y-123721391D01*
X158934209Y-123722100D01*
X158949163Y-123722780D01*
X158963138Y-123723157D01*
X158972975Y-123723242D01*
X158986155Y-123723210D01*
X159000929Y-123723114D01*
X159013055Y-123723000D01*
X159026078Y-123722850D01*
X159039997Y-123722663D01*
X159054812Y-123722441D01*
X159070524Y-123722183D01*
X159087132Y-123721888D01*
X159104637Y-123721557D01*
X159116805Y-123721317D01*
X159123038Y-123721191D01*
X159135440Y-123720942D01*
X159147438Y-123720710D01*
X159164680Y-123720391D01*
X159181015Y-123720109D01*
X159196444Y-123719862D01*
X159210966Y-123719652D01*
X159224581Y-123719478D01*
X159237289Y-123719340D01*
X159249090Y-123719237D01*
X159263415Y-123719157D01*
X159273101Y-123719139D01*
X159285565Y-123719219D01*
X159299105Y-123719459D01*
X159313722Y-123719858D01*
X159329416Y-123720417D01*
X159346186Y-123721136D01*
X159357965Y-123721703D01*
X159370222Y-123722342D01*
X159382958Y-123723052D01*
X159396172Y-123723833D01*
X159409865Y-123724685D01*
X159424036Y-123725608D01*
X159438686Y-123726601D01*
X159453815Y-123727666D01*
X159461559Y-123728225D01*
X159476927Y-123729325D01*
X159491816Y-123730355D01*
X159506227Y-123731313D01*
X159520159Y-123732200D01*
X159533612Y-123733016D01*
X159546587Y-123733762D01*
X159559084Y-123734436D01*
X159571102Y-123735039D01*
X159588231Y-123735811D01*
X159604284Y-123736424D01*
X159619260Y-123736876D01*
X159633159Y-123737169D01*
X159645982Y-123737302D01*
X159650017Y-123737311D01*
X159662903Y-123738166D01*
X159674966Y-123740732D01*
X159686204Y-123745008D01*
X159696618Y-123750995D01*
X159706208Y-123758692D01*
X159709221Y-123761637D01*
X159717389Y-123771172D01*
X159723866Y-123781531D01*
X159728654Y-123792714D01*
X159731752Y-123804722D01*
X159733161Y-123817554D01*
X159733254Y-123822014D01*
X159732410Y-123834922D01*
X159729875Y-123847046D01*
X159725650Y-123858387D01*
X159719736Y-123868946D01*
X159712131Y-123878721D01*
X159709221Y-123881805D01*
X159699906Y-123890072D01*
X159689767Y-123896629D01*
X159678804Y-123901475D01*
X159667016Y-123904611D01*
X159654404Y-123906037D01*
X159650017Y-123906132D01*
G37*
X134850684Y-60174819D02*
X134850684Y-59174819D01*
X134850684Y-59174819D02*
X135231636Y-59174819D01*
X135231636Y-59174819D02*
X135326874Y-59222438D01*
X135326874Y-59222438D02*
X135374493Y-59270057D01*
X135374493Y-59270057D02*
X135422112Y-59365295D01*
X135422112Y-59365295D02*
X135422112Y-59508152D01*
X135422112Y-59508152D02*
X135374493Y-59603390D01*
X135374493Y-59603390D02*
X135326874Y-59651009D01*
X135326874Y-59651009D02*
X135231636Y-59698628D01*
X135231636Y-59698628D02*
X134850684Y-59698628D01*
X136041160Y-59174819D02*
X136231636Y-59174819D01*
X136231636Y-59174819D02*
X136326874Y-59222438D01*
X136326874Y-59222438D02*
X136422112Y-59317676D01*
X136422112Y-59317676D02*
X136469731Y-59508152D01*
X136469731Y-59508152D02*
X136469731Y-59841485D01*
X136469731Y-59841485D02*
X136422112Y-60031961D01*
X136422112Y-60031961D02*
X136326874Y-60127200D01*
X136326874Y-60127200D02*
X136231636Y-60174819D01*
X136231636Y-60174819D02*
X136041160Y-60174819D01*
X136041160Y-60174819D02*
X135945922Y-60127200D01*
X135945922Y-60127200D02*
X135850684Y-60031961D01*
X135850684Y-60031961D02*
X135803065Y-59841485D01*
X135803065Y-59841485D02*
X135803065Y-59508152D01*
X135803065Y-59508152D02*
X135850684Y-59317676D01*
X135850684Y-59317676D02*
X135945922Y-59222438D01*
X135945922Y-59222438D02*
X136041160Y-59174819D01*
X136803065Y-59174819D02*
X137041160Y-60174819D01*
X137041160Y-60174819D02*
X137231636Y-59460533D01*
X137231636Y-59460533D02*
X137422112Y-60174819D01*
X137422112Y-60174819D02*
X137660208Y-59174819D01*
X138041160Y-59651009D02*
X138374493Y-59651009D01*
X138517350Y-60174819D02*
X138041160Y-60174819D01*
X138041160Y-60174819D02*
X138041160Y-59174819D01*
X138041160Y-59174819D02*
X138517350Y-59174819D01*
X139517350Y-60174819D02*
X139184017Y-59698628D01*
X138945922Y-60174819D02*
X138945922Y-59174819D01*
X138945922Y-59174819D02*
X139326874Y-59174819D01*
X139326874Y-59174819D02*
X139422112Y-59222438D01*
X139422112Y-59222438D02*
X139469731Y-59270057D01*
X139469731Y-59270057D02*
X139517350Y-59365295D01*
X139517350Y-59365295D02*
X139517350Y-59508152D01*
X139517350Y-59508152D02*
X139469731Y-59603390D01*
X139469731Y-59603390D02*
X139422112Y-59651009D01*
X139422112Y-59651009D02*
X139326874Y-59698628D01*
X139326874Y-59698628D02*
X138945922Y-59698628D01*
X169394380Y-90236284D02*
X170394380Y-90236284D01*
X170394380Y-90236284D02*
X170394380Y-90474379D01*
X170394380Y-90474379D02*
X170346761Y-90617236D01*
X170346761Y-90617236D02*
X170251523Y-90712474D01*
X170251523Y-90712474D02*
X170156285Y-90760093D01*
X170156285Y-90760093D02*
X169965809Y-90807712D01*
X169965809Y-90807712D02*
X169822952Y-90807712D01*
X169822952Y-90807712D02*
X169632476Y-90760093D01*
X169632476Y-90760093D02*
X169537238Y-90712474D01*
X169537238Y-90712474D02*
X169442000Y-90617236D01*
X169442000Y-90617236D02*
X169394380Y-90474379D01*
X169394380Y-90474379D02*
X169394380Y-90236284D01*
X169680095Y-91188665D02*
X169680095Y-91664855D01*
X169394380Y-91093427D02*
X170394380Y-91426760D01*
X170394380Y-91426760D02*
X169394380Y-91760093D01*
X170394380Y-91950570D02*
X170394380Y-92521998D01*
X169394380Y-92236284D02*
X170394380Y-92236284D01*
X169680095Y-92807713D02*
X169680095Y-93283903D01*
X169394380Y-92712475D02*
X170394380Y-93045808D01*
X170394380Y-93045808D02*
X169394380Y-93379141D01*
X132924506Y-104318361D02*
X133019744Y-104365980D01*
X133019744Y-104365980D02*
X133162601Y-104365980D01*
X133162601Y-104365980D02*
X133305458Y-104318361D01*
X133305458Y-104318361D02*
X133400696Y-104223123D01*
X133400696Y-104223123D02*
X133448315Y-104127885D01*
X133448315Y-104127885D02*
X133495934Y-103937409D01*
X133495934Y-103937409D02*
X133495934Y-103794552D01*
X133495934Y-103794552D02*
X133448315Y-103604076D01*
X133448315Y-103604076D02*
X133400696Y-103508838D01*
X133400696Y-103508838D02*
X133305458Y-103413600D01*
X133305458Y-103413600D02*
X133162601Y-103365980D01*
X133162601Y-103365980D02*
X133067363Y-103365980D01*
X133067363Y-103365980D02*
X132924506Y-103413600D01*
X132924506Y-103413600D02*
X132876887Y-103461219D01*
X132876887Y-103461219D02*
X132876887Y-103794552D01*
X132876887Y-103794552D02*
X133067363Y-103794552D01*
X132448315Y-103365980D02*
X132448315Y-104365980D01*
X132448315Y-104365980D02*
X131876887Y-103365980D01*
X131876887Y-103365980D02*
X131876887Y-104365980D01*
X131400696Y-103365980D02*
X131400696Y-104365980D01*
X131400696Y-104365980D02*
X131162601Y-104365980D01*
X131162601Y-104365980D02*
X131019744Y-104318361D01*
X131019744Y-104318361D02*
X130924506Y-104223123D01*
X130924506Y-104223123D02*
X130876887Y-104127885D01*
X130876887Y-104127885D02*
X130829268Y-103937409D01*
X130829268Y-103937409D02*
X130829268Y-103794552D01*
X130829268Y-103794552D02*
X130876887Y-103604076D01*
X130876887Y-103604076D02*
X130924506Y-103508838D01*
X130924506Y-103508838D02*
X131019744Y-103413600D01*
X131019744Y-103413600D02*
X131162601Y-103365980D01*
X131162601Y-103365980D02*
X131400696Y-103365980D01*
X136141172Y-102815980D02*
X135569744Y-102815980D01*
X135855458Y-101815980D02*
X135855458Y-102815980D01*
X135331648Y-102815980D02*
X134664982Y-101815980D01*
X134664982Y-102815980D02*
X135331648Y-101815980D01*
X134284029Y-101815980D02*
X134284029Y-102815980D01*
X134284029Y-102815980D02*
X134045934Y-102815980D01*
X134045934Y-102815980D02*
X133903077Y-102768361D01*
X133903077Y-102768361D02*
X133807839Y-102673123D01*
X133807839Y-102673123D02*
X133760220Y-102577885D01*
X133760220Y-102577885D02*
X133712601Y-102387409D01*
X133712601Y-102387409D02*
X133712601Y-102244552D01*
X133712601Y-102244552D02*
X133760220Y-102054076D01*
X133760220Y-102054076D02*
X133807839Y-101958838D01*
X133807839Y-101958838D02*
X133903077Y-101863600D01*
X133903077Y-101863600D02*
X134045934Y-101815980D01*
X134045934Y-101815980D02*
X134284029Y-101815980D01*
X138166887Y-103445980D02*
X138500220Y-103922171D01*
X138738315Y-103445980D02*
X138738315Y-104445980D01*
X138738315Y-104445980D02*
X138357363Y-104445980D01*
X138357363Y-104445980D02*
X138262125Y-104398361D01*
X138262125Y-104398361D02*
X138214506Y-104350742D01*
X138214506Y-104350742D02*
X138166887Y-104255504D01*
X138166887Y-104255504D02*
X138166887Y-104112647D01*
X138166887Y-104112647D02*
X138214506Y-104017409D01*
X138214506Y-104017409D02*
X138262125Y-103969790D01*
X138262125Y-103969790D02*
X138357363Y-103922171D01*
X138357363Y-103922171D02*
X138738315Y-103922171D01*
X137833553Y-104445980D02*
X137166887Y-103445980D01*
X137166887Y-104445980D02*
X137833553Y-103445980D01*
X136785934Y-103445980D02*
X136785934Y-104445980D01*
X136785934Y-104445980D02*
X136547839Y-104445980D01*
X136547839Y-104445980D02*
X136404982Y-104398361D01*
X136404982Y-104398361D02*
X136309744Y-104303123D01*
X136309744Y-104303123D02*
X136262125Y-104207885D01*
X136262125Y-104207885D02*
X136214506Y-104017409D01*
X136214506Y-104017409D02*
X136214506Y-103874552D01*
X136214506Y-103874552D02*
X136262125Y-103684076D01*
X136262125Y-103684076D02*
X136309744Y-103588838D01*
X136309744Y-103588838D02*
X136404982Y-103493600D01*
X136404982Y-103493600D02*
X136547839Y-103445980D01*
X136547839Y-103445980D02*
X136785934Y-103445980D01*
X144291172Y-104405980D02*
X143957839Y-103405980D01*
X143957839Y-103405980D02*
X143624506Y-104405980D01*
X143291172Y-103405980D02*
X143291172Y-104405980D01*
X143291172Y-104405980D02*
X143053077Y-104405980D01*
X143053077Y-104405980D02*
X142910220Y-104358361D01*
X142910220Y-104358361D02*
X142814982Y-104263123D01*
X142814982Y-104263123D02*
X142767363Y-104167885D01*
X142767363Y-104167885D02*
X142719744Y-103977409D01*
X142719744Y-103977409D02*
X142719744Y-103834552D01*
X142719744Y-103834552D02*
X142767363Y-103644076D01*
X142767363Y-103644076D02*
X142814982Y-103548838D01*
X142814982Y-103548838D02*
X142910220Y-103453600D01*
X142910220Y-103453600D02*
X143053077Y-103405980D01*
X143053077Y-103405980D02*
X143291172Y-103405980D01*
X142291172Y-103405980D02*
X142291172Y-104405980D01*
X142291172Y-104405980D02*
X142053077Y-104405980D01*
X142053077Y-104405980D02*
X141910220Y-104358361D01*
X141910220Y-104358361D02*
X141814982Y-104263123D01*
X141814982Y-104263123D02*
X141767363Y-104167885D01*
X141767363Y-104167885D02*
X141719744Y-103977409D01*
X141719744Y-103977409D02*
X141719744Y-103834552D01*
X141719744Y-103834552D02*
X141767363Y-103644076D01*
X141767363Y-103644076D02*
X141814982Y-103548838D01*
X141814982Y-103548838D02*
X141910220Y-103453600D01*
X141910220Y-103453600D02*
X142053077Y-103405980D01*
X142053077Y-103405980D02*
X142291172Y-103405980D01*
X140716887Y-101895980D02*
X141050220Y-102372171D01*
X141288315Y-101895980D02*
X141288315Y-102895980D01*
X141288315Y-102895980D02*
X140907363Y-102895980D01*
X140907363Y-102895980D02*
X140812125Y-102848361D01*
X140812125Y-102848361D02*
X140764506Y-102800742D01*
X140764506Y-102800742D02*
X140716887Y-102705504D01*
X140716887Y-102705504D02*
X140716887Y-102562647D01*
X140716887Y-102562647D02*
X140764506Y-102467409D01*
X140764506Y-102467409D02*
X140812125Y-102419790D01*
X140812125Y-102419790D02*
X140907363Y-102372171D01*
X140907363Y-102372171D02*
X141288315Y-102372171D01*
X140335934Y-101943600D02*
X140193077Y-101895980D01*
X140193077Y-101895980D02*
X139954982Y-101895980D01*
X139954982Y-101895980D02*
X139859744Y-101943600D01*
X139859744Y-101943600D02*
X139812125Y-101991219D01*
X139812125Y-101991219D02*
X139764506Y-102086457D01*
X139764506Y-102086457D02*
X139764506Y-102181695D01*
X139764506Y-102181695D02*
X139812125Y-102276933D01*
X139812125Y-102276933D02*
X139859744Y-102324552D01*
X139859744Y-102324552D02*
X139954982Y-102372171D01*
X139954982Y-102372171D02*
X140145458Y-102419790D01*
X140145458Y-102419790D02*
X140240696Y-102467409D01*
X140240696Y-102467409D02*
X140288315Y-102515028D01*
X140288315Y-102515028D02*
X140335934Y-102610266D01*
X140335934Y-102610266D02*
X140335934Y-102705504D01*
X140335934Y-102705504D02*
X140288315Y-102800742D01*
X140288315Y-102800742D02*
X140240696Y-102848361D01*
X140240696Y-102848361D02*
X140145458Y-102895980D01*
X140145458Y-102895980D02*
X139907363Y-102895980D01*
X139907363Y-102895980D02*
X139764506Y-102848361D01*
X139478791Y-102895980D02*
X138907363Y-102895980D01*
X139193077Y-101895980D02*
X139193077Y-102895980D01*
X143196887Y-129645980D02*
X143530220Y-130122171D01*
X143768315Y-129645980D02*
X143768315Y-130645980D01*
X143768315Y-130645980D02*
X143387363Y-130645980D01*
X143387363Y-130645980D02*
X143292125Y-130598361D01*
X143292125Y-130598361D02*
X143244506Y-130550742D01*
X143244506Y-130550742D02*
X143196887Y-130455504D01*
X143196887Y-130455504D02*
X143196887Y-130312647D01*
X143196887Y-130312647D02*
X143244506Y-130217409D01*
X143244506Y-130217409D02*
X143292125Y-130169790D01*
X143292125Y-130169790D02*
X143387363Y-130122171D01*
X143387363Y-130122171D02*
X143768315Y-130122171D01*
X142577839Y-130122171D02*
X142577839Y-129645980D01*
X142911172Y-130645980D02*
X142577839Y-130122171D01*
X142577839Y-130122171D02*
X142244506Y-130645980D01*
X141434982Y-129645980D02*
X141911172Y-129645980D01*
X141911172Y-129645980D02*
X141911172Y-130645980D01*
X140530220Y-129645980D02*
X140863553Y-130122171D01*
X141101648Y-129645980D02*
X141101648Y-130645980D01*
X141101648Y-130645980D02*
X140720696Y-130645980D01*
X140720696Y-130645980D02*
X140625458Y-130598361D01*
X140625458Y-130598361D02*
X140577839Y-130550742D01*
X140577839Y-130550742D02*
X140530220Y-130455504D01*
X140530220Y-130455504D02*
X140530220Y-130312647D01*
X140530220Y-130312647D02*
X140577839Y-130217409D01*
X140577839Y-130217409D02*
X140625458Y-130169790D01*
X140625458Y-130169790D02*
X140720696Y-130122171D01*
X140720696Y-130122171D02*
X141101648Y-130122171D01*
X140054029Y-129645980D02*
X139863553Y-129645980D01*
X139863553Y-129645980D02*
X139768315Y-129693600D01*
X139768315Y-129693600D02*
X139720696Y-129741219D01*
X139720696Y-129741219D02*
X139625458Y-129884076D01*
X139625458Y-129884076D02*
X139577839Y-130074552D01*
X139577839Y-130074552D02*
X139577839Y-130455504D01*
X139577839Y-130455504D02*
X139625458Y-130550742D01*
X139625458Y-130550742D02*
X139673077Y-130598361D01*
X139673077Y-130598361D02*
X139768315Y-130645980D01*
X139768315Y-130645980D02*
X139958791Y-130645980D01*
X139958791Y-130645980D02*
X140054029Y-130598361D01*
X140054029Y-130598361D02*
X140101648Y-130550742D01*
X140101648Y-130550742D02*
X140149267Y-130455504D01*
X140149267Y-130455504D02*
X140149267Y-130217409D01*
X140149267Y-130217409D02*
X140101648Y-130122171D01*
X140101648Y-130122171D02*
X140054029Y-130074552D01*
X140054029Y-130074552D02*
X139958791Y-130026933D01*
X139958791Y-130026933D02*
X139768315Y-130026933D01*
X139768315Y-130026933D02*
X139673077Y-130074552D01*
X139673077Y-130074552D02*
X139625458Y-130122171D01*
X139625458Y-130122171D02*
X139577839Y-130217409D01*
X139101648Y-129645980D02*
X138911172Y-129645980D01*
X138911172Y-129645980D02*
X138815934Y-129693600D01*
X138815934Y-129693600D02*
X138768315Y-129741219D01*
X138768315Y-129741219D02*
X138673077Y-129884076D01*
X138673077Y-129884076D02*
X138625458Y-130074552D01*
X138625458Y-130074552D02*
X138625458Y-130455504D01*
X138625458Y-130455504D02*
X138673077Y-130550742D01*
X138673077Y-130550742D02*
X138720696Y-130598361D01*
X138720696Y-130598361D02*
X138815934Y-130645980D01*
X138815934Y-130645980D02*
X139006410Y-130645980D01*
X139006410Y-130645980D02*
X139101648Y-130598361D01*
X139101648Y-130598361D02*
X139149267Y-130550742D01*
X139149267Y-130550742D02*
X139196886Y-130455504D01*
X139196886Y-130455504D02*
X139196886Y-130217409D01*
X139196886Y-130217409D02*
X139149267Y-130122171D01*
X139149267Y-130122171D02*
X139101648Y-130074552D01*
X139101648Y-130074552D02*
X139006410Y-130026933D01*
X139006410Y-130026933D02*
X138815934Y-130026933D01*
X138815934Y-130026933D02*
X138720696Y-130074552D01*
X138720696Y-130074552D02*
X138673077Y-130122171D01*
X138673077Y-130122171D02*
X138625458Y-130217409D01*
X138054029Y-130217409D02*
X138149267Y-130265028D01*
X138149267Y-130265028D02*
X138196886Y-130312647D01*
X138196886Y-130312647D02*
X138244505Y-130407885D01*
X138244505Y-130407885D02*
X138244505Y-130455504D01*
X138244505Y-130455504D02*
X138196886Y-130550742D01*
X138196886Y-130550742D02*
X138149267Y-130598361D01*
X138149267Y-130598361D02*
X138054029Y-130645980D01*
X138054029Y-130645980D02*
X137863553Y-130645980D01*
X137863553Y-130645980D02*
X137768315Y-130598361D01*
X137768315Y-130598361D02*
X137720696Y-130550742D01*
X137720696Y-130550742D02*
X137673077Y-130455504D01*
X137673077Y-130455504D02*
X137673077Y-130407885D01*
X137673077Y-130407885D02*
X137720696Y-130312647D01*
X137720696Y-130312647D02*
X137768315Y-130265028D01*
X137768315Y-130265028D02*
X137863553Y-130217409D01*
X137863553Y-130217409D02*
X138054029Y-130217409D01*
X138054029Y-130217409D02*
X138149267Y-130169790D01*
X138149267Y-130169790D02*
X138196886Y-130122171D01*
X138196886Y-130122171D02*
X138244505Y-130026933D01*
X138244505Y-130026933D02*
X138244505Y-129836457D01*
X138244505Y-129836457D02*
X138196886Y-129741219D01*
X138196886Y-129741219D02*
X138149267Y-129693600D01*
X138149267Y-129693600D02*
X138054029Y-129645980D01*
X138054029Y-129645980D02*
X137863553Y-129645980D01*
X137863553Y-129645980D02*
X137768315Y-129693600D01*
X137768315Y-129693600D02*
X137720696Y-129741219D01*
X137720696Y-129741219D02*
X137673077Y-129836457D01*
X137673077Y-129836457D02*
X137673077Y-130026933D01*
X137673077Y-130026933D02*
X137720696Y-130122171D01*
X137720696Y-130122171D02*
X137768315Y-130169790D01*
X137768315Y-130169790D02*
X137863553Y-130217409D01*
D12*
%TO.C,J2*%
X157089800Y-102327400D02*
X158419800Y-102327400D01*
X157089800Y-103657400D02*
X157089800Y-102327400D01*
X157089800Y-104927400D02*
X157089800Y-110067400D01*
X157089800Y-104927400D02*
X159749800Y-104927400D01*
X157089800Y-110067400D02*
X159749800Y-110067400D01*
X159749800Y-104927400D02*
X159749800Y-110067400D01*
%TO.C,J1*%
X150155600Y-102317000D02*
X151485600Y-102317000D01*
X150155600Y-103647000D02*
X150155600Y-102317000D01*
X150155600Y-104917000D02*
X150155600Y-110057000D01*
X150155600Y-104917000D02*
X152815600Y-104917000D01*
X150155600Y-110057000D02*
X152815600Y-110057000D01*
X152815600Y-104917000D02*
X152815600Y-110057000D01*
%TO.C,U2*%
X107566800Y-72587400D02*
X108896800Y-72587400D01*
X107566800Y-73917400D02*
X107566800Y-72587400D01*
X107566800Y-75187400D02*
X107566800Y-110807400D01*
X107566800Y-75187400D02*
X110226800Y-75187400D01*
X107566800Y-110807400D02*
X110226800Y-110807400D01*
X110226800Y-75187400D02*
X110226800Y-110807400D01*
X117991800Y-64862400D02*
X117991800Y-63532400D01*
X119321800Y-64862400D02*
X117991800Y-64862400D01*
X120591800Y-62202400D02*
X156211800Y-62202400D01*
X120591800Y-64862400D02*
X120591800Y-62202400D01*
X120591800Y-64862400D02*
X156211800Y-64862400D01*
X156211800Y-64862400D02*
X156211800Y-62202400D01*
X163966800Y-72617400D02*
X165296800Y-72617400D01*
X163966800Y-73947400D02*
X163966800Y-72617400D01*
X163966800Y-75217400D02*
X163966800Y-110837400D01*
X163966800Y-75217400D02*
X166626800Y-75217400D01*
X163966800Y-110837400D02*
X166626800Y-110837400D01*
X166626800Y-75217400D02*
X166626800Y-110837400D01*
%TO.C,U1*%
X144062200Y-113948400D02*
X144062200Y-111288400D01*
X144062200Y-111288400D02*
X131242200Y-111288400D01*
X143112200Y-114345471D02*
X143112200Y-113948400D01*
X143112200Y-105288400D02*
X143112200Y-111288400D01*
D11*
X142732200Y-105288400D02*
X142732200Y-113948400D01*
D12*
X142352200Y-114345471D02*
X142352200Y-113948400D01*
X142352200Y-111288400D02*
X142352200Y-105288400D01*
X142352200Y-105288400D02*
X143112200Y-105288400D01*
X141462200Y-113948400D02*
X141462200Y-111288400D01*
X140572200Y-114345471D02*
X140572200Y-113948400D01*
X140572200Y-105288400D02*
X140572200Y-111288400D01*
X139812200Y-114345471D02*
X139812200Y-113948400D01*
X139812200Y-111288400D02*
X139812200Y-105288400D01*
X139812200Y-105288400D02*
X140572200Y-105288400D01*
X138922200Y-113948400D02*
X138922200Y-111288400D01*
X138032200Y-114345471D02*
X138032200Y-113948400D01*
X138032200Y-105288400D02*
X138032200Y-111288400D01*
X137272200Y-114345471D02*
X137272200Y-113948400D01*
X137272200Y-111288400D02*
X137272200Y-105288400D01*
X137272200Y-105288400D02*
X138032200Y-105288400D01*
X136382200Y-113948400D02*
X136382200Y-111288400D01*
X135492200Y-114345471D02*
X135492200Y-113948400D01*
X135492200Y-105288400D02*
X135492200Y-111288400D01*
X134732200Y-114345471D02*
X134732200Y-113948400D01*
X134732200Y-111288400D02*
X134732200Y-105288400D01*
X134732200Y-105288400D02*
X135492200Y-105288400D01*
X133842200Y-113948400D02*
X133842200Y-111288400D01*
X132952200Y-114278400D02*
X132952200Y-113948400D01*
X132952200Y-105288400D02*
X132952200Y-111288400D01*
X132852200Y-111288400D02*
X132852200Y-105288400D01*
X132732200Y-111288400D02*
X132732200Y-105288400D01*
X132612200Y-111288400D02*
X132612200Y-105288400D01*
X132572200Y-116658400D02*
X131302200Y-116658400D01*
X132492200Y-111288400D02*
X132492200Y-105288400D01*
X132372200Y-111288400D02*
X132372200Y-105288400D01*
X132252200Y-111288400D02*
X132252200Y-105288400D01*
X132192200Y-114278400D02*
X132192200Y-113948400D01*
X132192200Y-111288400D02*
X132192200Y-105288400D01*
X132192200Y-105288400D02*
X132952200Y-105288400D01*
X131302200Y-116658400D02*
X131302200Y-115388400D01*
X131242200Y-113948400D02*
X144062200Y-113948400D01*
X131242200Y-111288400D02*
X131242200Y-113948400D01*
D11*
X144692200Y-128768400D02*
X130542200Y-128768400D01*
X130542200Y-128768400D02*
X130542200Y-114038400D01*
X130542200Y-114038400D02*
X144692200Y-114038400D01*
X144692200Y-114038400D02*
X144692200Y-128768400D01*
X144692200Y-114038400D02*
X130542200Y-114038400D01*
X130542200Y-114038400D02*
X130542200Y-104998400D01*
X130542200Y-104998400D02*
X144692200Y-104998400D01*
X144692200Y-104998400D02*
X144692200Y-114038400D01*
X144442200Y-128468400D02*
X134112200Y-128468400D01*
X134112200Y-128468400D02*
X134112200Y-116828400D01*
X134112200Y-116828400D02*
X144442200Y-116828400D01*
X144442200Y-116828400D02*
X144442200Y-128468400D01*
X136132200Y-144988400D02*
X130572200Y-144988400D01*
X130572200Y-144988400D02*
X130572200Y-128718400D01*
X130572200Y-128718400D02*
X136132200Y-128718400D01*
X136132200Y-128718400D02*
X136132200Y-144988400D01*
%TD*%
M02*
