%TF.GenerationSoftware,KiCad,Pcbnew,7.0.7*%
%TF.CreationDate,2024-04-01T01:41:47+05:30*%
%TF.ProjectId,Telemetry_Stack,54656c65-6d65-4747-9279-5f537461636b,rev?*%
%TF.SameCoordinates,Original*%
%TF.FileFunction,Drillmap*%
%TF.FilePolarity,Positive*%
%FSLAX45Y45*%
G04 Gerber Fmt 4.5, Leading zero omitted, Abs format (unit mm)*
G04 Created by KiCad (PCBNEW 7.0.7) date 2024-04-01 01:41:47*
%MOMM*%
%LPD*%
G01*
G04 APERTURE LIST*
%ADD10C,0.200000*%
G04 APERTURE END LIST*
D10*
X10467957Y-12987224D02*
X10467957Y-12787224D01*
X10467957Y-12787224D02*
X10515576Y-12787224D01*
X10515576Y-12787224D02*
X10544147Y-12796748D01*
X10544147Y-12796748D02*
X10563195Y-12815795D01*
X10563195Y-12815795D02*
X10572719Y-12834843D01*
X10572719Y-12834843D02*
X10582243Y-12872938D01*
X10582243Y-12872938D02*
X10582243Y-12901509D01*
X10582243Y-12901509D02*
X10572719Y-12939605D01*
X10572719Y-12939605D02*
X10563195Y-12958652D01*
X10563195Y-12958652D02*
X10544147Y-12977700D01*
X10544147Y-12977700D02*
X10515576Y-12987224D01*
X10515576Y-12987224D02*
X10467957Y-12987224D01*
X10667957Y-12987224D02*
X10667957Y-12853890D01*
X10667957Y-12891986D02*
X10677481Y-12872938D01*
X10677481Y-12872938D02*
X10687004Y-12863414D01*
X10687004Y-12863414D02*
X10706052Y-12853890D01*
X10706052Y-12853890D02*
X10725100Y-12853890D01*
X10791766Y-12987224D02*
X10791766Y-12853890D01*
X10791766Y-12787224D02*
X10782243Y-12796748D01*
X10782243Y-12796748D02*
X10791766Y-12806271D01*
X10791766Y-12806271D02*
X10801290Y-12796748D01*
X10801290Y-12796748D02*
X10791766Y-12787224D01*
X10791766Y-12787224D02*
X10791766Y-12806271D01*
X10915576Y-12987224D02*
X10896528Y-12977700D01*
X10896528Y-12977700D02*
X10887004Y-12958652D01*
X10887004Y-12958652D02*
X10887004Y-12787224D01*
X11020338Y-12987224D02*
X11001290Y-12977700D01*
X11001290Y-12977700D02*
X10991766Y-12958652D01*
X10991766Y-12958652D02*
X10991766Y-12787224D01*
X11248909Y-12987224D02*
X11248909Y-12787224D01*
X11248909Y-12787224D02*
X11315576Y-12930081D01*
X11315576Y-12930081D02*
X11382242Y-12787224D01*
X11382242Y-12787224D02*
X11382242Y-12987224D01*
X11563195Y-12987224D02*
X11563195Y-12882462D01*
X11563195Y-12882462D02*
X11553671Y-12863414D01*
X11553671Y-12863414D02*
X11534623Y-12853890D01*
X11534623Y-12853890D02*
X11496528Y-12853890D01*
X11496528Y-12853890D02*
X11477481Y-12863414D01*
X11563195Y-12977700D02*
X11544147Y-12987224D01*
X11544147Y-12987224D02*
X11496528Y-12987224D01*
X11496528Y-12987224D02*
X11477481Y-12977700D01*
X11477481Y-12977700D02*
X11467957Y-12958652D01*
X11467957Y-12958652D02*
X11467957Y-12939605D01*
X11467957Y-12939605D02*
X11477481Y-12920557D01*
X11477481Y-12920557D02*
X11496528Y-12911033D01*
X11496528Y-12911033D02*
X11544147Y-12911033D01*
X11544147Y-12911033D02*
X11563195Y-12901509D01*
X11658433Y-12853890D02*
X11658433Y-13053890D01*
X11658433Y-12863414D02*
X11677481Y-12853890D01*
X11677481Y-12853890D02*
X11715576Y-12853890D01*
X11715576Y-12853890D02*
X11734623Y-12863414D01*
X11734623Y-12863414D02*
X11744147Y-12872938D01*
X11744147Y-12872938D02*
X11753671Y-12891986D01*
X11753671Y-12891986D02*
X11753671Y-12949128D01*
X11753671Y-12949128D02*
X11744147Y-12968176D01*
X11744147Y-12968176D02*
X11734623Y-12977700D01*
X11734623Y-12977700D02*
X11715576Y-12987224D01*
X11715576Y-12987224D02*
X11677481Y-12987224D01*
X11677481Y-12987224D02*
X11658433Y-12977700D01*
X11839385Y-12968176D02*
X11848909Y-12977700D01*
X11848909Y-12977700D02*
X11839385Y-12987224D01*
X11839385Y-12987224D02*
X11829862Y-12977700D01*
X11829862Y-12977700D02*
X11839385Y-12968176D01*
X11839385Y-12968176D02*
X11839385Y-12987224D01*
X11839385Y-12863414D02*
X11848909Y-12872938D01*
X11848909Y-12872938D02*
X11839385Y-12882462D01*
X11839385Y-12882462D02*
X11829862Y-12872938D01*
X11829862Y-12872938D02*
X11839385Y-12863414D01*
X11839385Y-12863414D02*
X11839385Y-12882462D01*
M02*
