%TF.GenerationSoftware,KiCad,Pcbnew,7.0.7*%
%TF.CreationDate,2024-04-01T01:38:20+05:30*%
%TF.ProjectId,FC_THT_STACK,46435f54-4854-45f5-9354-41434b2e6b69,rev?*%
%TF.SameCoordinates,Original*%
%TF.FileFunction,Drillmap*%
%TF.FilePolarity,Positive*%
%FSLAX45Y45*%
G04 Gerber Fmt 4.5, Leading zero omitted, Abs format (unit mm)*
G04 Created by KiCad (PCBNEW 7.0.7) date 2024-04-01 01:38:20*
%MOMM*%
%LPD*%
G01*
G04 APERTURE LIST*
%ADD10C,0.200000*%
G04 APERTURE END LIST*
D10*
X8578837Y-12155844D02*
X8578837Y-11955844D01*
X8578837Y-11955844D02*
X8626456Y-11955844D01*
X8626456Y-11955844D02*
X8655027Y-11965368D01*
X8655027Y-11965368D02*
X8674075Y-11984415D01*
X8674075Y-11984415D02*
X8683599Y-12003463D01*
X8683599Y-12003463D02*
X8693123Y-12041558D01*
X8693123Y-12041558D02*
X8693123Y-12070129D01*
X8693123Y-12070129D02*
X8683599Y-12108225D01*
X8683599Y-12108225D02*
X8674075Y-12127272D01*
X8674075Y-12127272D02*
X8655027Y-12146320D01*
X8655027Y-12146320D02*
X8626456Y-12155844D01*
X8626456Y-12155844D02*
X8578837Y-12155844D01*
X8778837Y-12155844D02*
X8778837Y-12022510D01*
X8778837Y-12060606D02*
X8788361Y-12041558D01*
X8788361Y-12041558D02*
X8797884Y-12032034D01*
X8797884Y-12032034D02*
X8816932Y-12022510D01*
X8816932Y-12022510D02*
X8835980Y-12022510D01*
X8902646Y-12155844D02*
X8902646Y-12022510D01*
X8902646Y-11955844D02*
X8893123Y-11965368D01*
X8893123Y-11965368D02*
X8902646Y-11974891D01*
X8902646Y-11974891D02*
X8912170Y-11965368D01*
X8912170Y-11965368D02*
X8902646Y-11955844D01*
X8902646Y-11955844D02*
X8902646Y-11974891D01*
X9026456Y-12155844D02*
X9007408Y-12146320D01*
X9007408Y-12146320D02*
X8997884Y-12127272D01*
X8997884Y-12127272D02*
X8997884Y-11955844D01*
X9131218Y-12155844D02*
X9112170Y-12146320D01*
X9112170Y-12146320D02*
X9102646Y-12127272D01*
X9102646Y-12127272D02*
X9102646Y-11955844D01*
X9359789Y-12155844D02*
X9359789Y-11955844D01*
X9359789Y-11955844D02*
X9426456Y-12098701D01*
X9426456Y-12098701D02*
X9493123Y-11955844D01*
X9493123Y-11955844D02*
X9493123Y-12155844D01*
X9674075Y-12155844D02*
X9674075Y-12051082D01*
X9674075Y-12051082D02*
X9664551Y-12032034D01*
X9664551Y-12032034D02*
X9645504Y-12022510D01*
X9645504Y-12022510D02*
X9607408Y-12022510D01*
X9607408Y-12022510D02*
X9588361Y-12032034D01*
X9674075Y-12146320D02*
X9655027Y-12155844D01*
X9655027Y-12155844D02*
X9607408Y-12155844D01*
X9607408Y-12155844D02*
X9588361Y-12146320D01*
X9588361Y-12146320D02*
X9578837Y-12127272D01*
X9578837Y-12127272D02*
X9578837Y-12108225D01*
X9578837Y-12108225D02*
X9588361Y-12089177D01*
X9588361Y-12089177D02*
X9607408Y-12079653D01*
X9607408Y-12079653D02*
X9655027Y-12079653D01*
X9655027Y-12079653D02*
X9674075Y-12070129D01*
X9769313Y-12022510D02*
X9769313Y-12222510D01*
X9769313Y-12032034D02*
X9788361Y-12022510D01*
X9788361Y-12022510D02*
X9826456Y-12022510D01*
X9826456Y-12022510D02*
X9845504Y-12032034D01*
X9845504Y-12032034D02*
X9855027Y-12041558D01*
X9855027Y-12041558D02*
X9864551Y-12060606D01*
X9864551Y-12060606D02*
X9864551Y-12117748D01*
X9864551Y-12117748D02*
X9855027Y-12136796D01*
X9855027Y-12136796D02*
X9845504Y-12146320D01*
X9845504Y-12146320D02*
X9826456Y-12155844D01*
X9826456Y-12155844D02*
X9788361Y-12155844D01*
X9788361Y-12155844D02*
X9769313Y-12146320D01*
X9950265Y-12136796D02*
X9959789Y-12146320D01*
X9959789Y-12146320D02*
X9950265Y-12155844D01*
X9950265Y-12155844D02*
X9940742Y-12146320D01*
X9940742Y-12146320D02*
X9950265Y-12136796D01*
X9950265Y-12136796D02*
X9950265Y-12155844D01*
X9950265Y-12032034D02*
X9959789Y-12041558D01*
X9959789Y-12041558D02*
X9950265Y-12051082D01*
X9950265Y-12051082D02*
X9940742Y-12041558D01*
X9940742Y-12041558D02*
X9950265Y-12032034D01*
X9950265Y-12032034D02*
X9950265Y-12051082D01*
M02*
