%TF.GenerationSoftware,KiCad,Pcbnew,7.0.7*%
%TF.CreationDate,2024-04-01T01:38:20+05:30*%
%TF.ProjectId,FC_THT_STACK,46435f54-4854-45f5-9354-41434b2e6b69,rev?*%
%TF.SameCoordinates,Original*%
%TF.FileFunction,Drillmap*%
%TF.FilePolarity,Positive*%
%FSLAX45Y45*%
G04 Gerber Fmt 4.5, Leading zero omitted, Abs format (unit mm)*
G04 Created by KiCad (PCBNEW 7.0.7) date 2024-04-01 01:38:20*
%MOMM*%
%LPD*%
G01*
G04 APERTURE LIST*
%ADD10C,0.200000*%
%ADD11C,0.040000*%
%ADD12C,0.080000*%
%ADD13C,0.100000*%
%ADD14C,0.248920*%
%ADD15C,0.840000*%
G04 APERTURE END LIST*
D10*
D11*
X9527860Y-10244140D02*
X9567860Y-10284140D01*
X9567860Y-10244140D02*
X9527860Y-10284140D01*
X9583740Y-11415080D02*
X9623740Y-11455080D01*
X9623740Y-11415080D02*
X9583740Y-11455080D01*
X10188260Y-9332280D02*
X10228260Y-9372280D01*
X10228260Y-9332280D02*
X10188260Y-9372280D01*
X10200960Y-7318060D02*
X10240960Y-7358060D01*
X10240960Y-7318060D02*
X10200960Y-7358060D01*
X10616250Y-9488490D02*
X10656250Y-9528490D01*
X10656250Y-9488490D02*
X10616250Y-9528490D01*
X10627680Y-7569520D02*
X10667680Y-7609520D01*
X10667680Y-7569520D02*
X10627680Y-7609520D01*
X10742100Y-8090100D02*
X10782100Y-8130100D01*
X10782100Y-8090100D02*
X10742100Y-8130100D01*
X10879140Y-10701340D02*
X10919140Y-10741340D01*
X10919140Y-10701340D02*
X10879140Y-10741340D01*
X10919780Y-9436420D02*
X10959780Y-9476420D01*
X10959780Y-9436420D02*
X10919780Y-9476420D01*
X10929940Y-8636320D02*
X10969940Y-8676320D01*
X10969940Y-8636320D02*
X10929940Y-8676320D01*
X10968040Y-7932740D02*
X11008040Y-7972740D01*
X11008040Y-7932740D02*
X10968040Y-7972740D01*
X11204260Y-9339900D02*
X11244260Y-9379900D01*
X11244260Y-9339900D02*
X11204260Y-9379900D01*
X11864660Y-7600000D02*
X11904660Y-7640000D01*
X11904660Y-7600000D02*
X11864660Y-7640000D01*
X11897680Y-10795320D02*
X11937680Y-10835320D01*
X11937680Y-10795320D02*
X11897680Y-10835320D01*
X11900220Y-8588060D02*
X11940220Y-8628060D01*
X11940220Y-8588060D02*
X11900220Y-8628060D01*
X11986580Y-9411020D02*
X12026580Y-9451020D01*
X12026580Y-9411020D02*
X11986580Y-9451020D01*
X12059080Y-10550100D02*
X12099080Y-10590100D01*
X12099080Y-10550100D02*
X12059080Y-10590100D01*
X12164380Y-10457500D02*
X12204380Y-10497500D01*
X12204380Y-10457500D02*
X12164380Y-10497500D01*
X12751120Y-9329740D02*
X12791120Y-9369740D01*
X12791120Y-9329740D02*
X12751120Y-9369740D01*
X12898440Y-9271320D02*
X12938440Y-9311320D01*
X12938440Y-9271320D02*
X12898440Y-9311320D01*
X13022900Y-9146860D02*
X13062900Y-9186860D01*
X13062900Y-9146860D02*
X13022900Y-9186860D01*
X13193080Y-8372160D02*
X13233080Y-8412160D01*
X13233080Y-8372160D02*
X13193080Y-8412160D01*
X13203240Y-7683820D02*
X13243240Y-7723820D01*
X13243240Y-7683820D02*
X13203240Y-7723820D01*
X13251500Y-8908100D02*
X13291500Y-8948100D01*
X13291500Y-8908100D02*
X13251500Y-8948100D01*
X13919520Y-9733600D02*
X13959520Y-9773600D01*
X13959520Y-9733600D02*
X13919520Y-9773600D01*
X13957620Y-11163620D02*
X13997620Y-11203620D01*
X13997620Y-11163620D02*
X13957620Y-11203620D01*
X14211620Y-8532180D02*
X14251620Y-8572180D01*
X14251620Y-8532180D02*
X14211620Y-8572180D01*
X14254800Y-8422960D02*
X14294800Y-8462960D01*
X14294800Y-8422960D02*
X14254800Y-8462960D01*
X14262420Y-8176580D02*
X14302420Y-8216580D01*
X14302420Y-8176580D02*
X14262420Y-8216580D01*
X14361480Y-7879400D02*
X14401480Y-7919400D01*
X14401480Y-7879400D02*
X14361480Y-7919400D01*
D12*
X12383500Y-5988500D02*
G75*
G03*
X12383500Y-5988500I-40000J0D01*
G01*
X12383500Y-6242500D02*
G75*
G03*
X12383500Y-6242500I-40000J0D01*
G01*
X12383500Y-6496500D02*
G75*
G03*
X12383500Y-6496500I-40000J0D01*
G01*
X12383500Y-6750500D02*
G75*
G03*
X12383500Y-6750500I-40000J0D01*
G01*
X12383500Y-7004500D02*
G75*
G03*
X12383500Y-7004500I-40000J0D01*
G01*
X12383500Y-7258500D02*
G75*
G03*
X12383500Y-7258500I-40000J0D01*
G01*
X12383500Y-7512500D02*
G75*
G03*
X12383500Y-7512500I-40000J0D01*
G01*
X12383500Y-7766500D02*
G75*
G03*
X12383500Y-7766500I-40000J0D01*
G01*
X12383500Y-8020500D02*
G75*
G03*
X12383500Y-8020500I-40000J0D01*
G01*
X12383500Y-8274500D02*
G75*
G03*
X12383500Y-8274500I-40000J0D01*
G01*
X12383500Y-8528500D02*
G75*
G03*
X12383500Y-8528500I-40000J0D01*
G01*
X12383500Y-8782500D02*
G75*
G03*
X12383500Y-8782500I-40000J0D01*
G01*
X13907500Y-5988500D02*
G75*
G03*
X13907500Y-5988500I-40000J0D01*
G01*
X13907500Y-6242500D02*
G75*
G03*
X13907500Y-6242500I-40000J0D01*
G01*
X13907500Y-6496500D02*
G75*
G03*
X13907500Y-6496500I-40000J0D01*
G01*
X13907500Y-6750500D02*
G75*
G03*
X13907500Y-6750500I-40000J0D01*
G01*
X13907500Y-7004500D02*
G75*
G03*
X13907500Y-7004500I-40000J0D01*
G01*
X13907500Y-7258500D02*
G75*
G03*
X13907500Y-7258500I-40000J0D01*
G01*
X13907500Y-7512500D02*
G75*
G03*
X13907500Y-7512500I-40000J0D01*
G01*
X13907500Y-7766500D02*
G75*
G03*
X13907500Y-7766500I-40000J0D01*
G01*
X13907500Y-8020500D02*
G75*
G03*
X13907500Y-8020500I-40000J0D01*
G01*
X13907500Y-8274500D02*
G75*
G03*
X13907500Y-8274500I-40000J0D01*
G01*
X13907500Y-8528500D02*
G75*
G03*
X13907500Y-8528500I-40000J0D01*
G01*
X13907500Y-8782500D02*
G75*
G03*
X13907500Y-8782500I-40000J0D01*
G01*
D13*
X9000560Y-6510360D02*
X9000560Y-6610360D01*
X8950560Y-6560360D02*
X9050560Y-6560360D01*
X9000560Y-6764360D02*
X9000560Y-6864360D01*
X8950560Y-6814360D02*
X9050560Y-6814360D01*
X9000560Y-7018360D02*
X9000560Y-7118360D01*
X8950560Y-7068360D02*
X9050560Y-7068360D01*
X9000560Y-7272360D02*
X9000560Y-7372360D01*
X8950560Y-7322360D02*
X9050560Y-7322360D01*
X9000560Y-7526360D02*
X9000560Y-7626360D01*
X8950560Y-7576360D02*
X9050560Y-7576360D01*
X9000560Y-7780360D02*
X9000560Y-7880360D01*
X8950560Y-7830360D02*
X9050560Y-7830360D01*
X9000560Y-8034360D02*
X9000560Y-8134360D01*
X8950560Y-8084360D02*
X9050560Y-8084360D01*
X9000560Y-8288360D02*
X9000560Y-8388360D01*
X8950560Y-8338360D02*
X9050560Y-8338360D01*
X9000560Y-8542360D02*
X9000560Y-8642360D01*
X8950560Y-8592360D02*
X9050560Y-8592360D01*
X9000560Y-8796360D02*
X9000560Y-8896360D01*
X8950560Y-8846360D02*
X9050560Y-8846360D01*
X9000560Y-9050360D02*
X9000560Y-9150360D01*
X8950560Y-9100360D02*
X9050560Y-9100360D01*
X9000560Y-9304360D02*
X9000560Y-9404360D01*
X8950560Y-9354360D02*
X9050560Y-9354360D01*
X9000560Y-9558360D02*
X9000560Y-9658360D01*
X8950560Y-9608360D02*
X9050560Y-9608360D01*
X9000560Y-9812360D02*
X9000560Y-9912360D01*
X8950560Y-9862360D02*
X9050560Y-9862360D01*
X9000560Y-10066360D02*
X9000560Y-10166360D01*
X8950560Y-10116360D02*
X9050560Y-10116360D01*
X9948000Y-6282100D02*
X9948000Y-6382100D01*
X9898000Y-6332100D02*
X9998000Y-6332100D01*
X9948000Y-6536100D02*
X9948000Y-6636100D01*
X9898000Y-6586100D02*
X9998000Y-6586100D01*
X9948000Y-6790100D02*
X9948000Y-6890100D01*
X9898000Y-6840100D02*
X9998000Y-6840100D01*
X9948000Y-7044100D02*
X9948000Y-7144100D01*
X9898000Y-7094100D02*
X9998000Y-7094100D01*
X9948000Y-7298100D02*
X9948000Y-7398100D01*
X9898000Y-7348100D02*
X9998000Y-7348100D01*
X9948000Y-7552100D02*
X9948000Y-7652100D01*
X9898000Y-7602100D02*
X9998000Y-7602100D01*
X9948000Y-7806100D02*
X9948000Y-7906100D01*
X9898000Y-7856100D02*
X9998000Y-7856100D01*
X9948000Y-8060100D02*
X9948000Y-8160100D01*
X9898000Y-8110100D02*
X9998000Y-8110100D01*
X9948000Y-8314100D02*
X9948000Y-8414100D01*
X9898000Y-8364100D02*
X9998000Y-8364100D01*
X9948000Y-8568100D02*
X9948000Y-8668100D01*
X9898000Y-8618100D02*
X9998000Y-8618100D01*
X9948000Y-8822100D02*
X9948000Y-8922100D01*
X9898000Y-8872100D02*
X9998000Y-8872100D01*
X9948000Y-9076100D02*
X9948000Y-9176100D01*
X9898000Y-9126100D02*
X9998000Y-9126100D01*
X9948000Y-9330100D02*
X9948000Y-9430100D01*
X9898000Y-9380100D02*
X9998000Y-9380100D01*
X9948000Y-9584100D02*
X9948000Y-9684100D01*
X9898000Y-9634100D02*
X9998000Y-9634100D01*
X9948000Y-9838100D02*
X9948000Y-9938100D01*
X9898000Y-9888100D02*
X9998000Y-9888100D01*
X9948000Y-10092100D02*
X9948000Y-10192100D01*
X9898000Y-10142100D02*
X9998000Y-10142100D01*
X9948000Y-10346100D02*
X9948000Y-10446100D01*
X9898000Y-10396100D02*
X9998000Y-10396100D01*
X9948000Y-10600100D02*
X9948000Y-10700100D01*
X9898000Y-10650100D02*
X9998000Y-10650100D01*
X9948000Y-10854100D02*
X9948000Y-10954100D01*
X9898000Y-10904100D02*
X9998000Y-10904100D01*
X9948000Y-11108100D02*
X9948000Y-11208100D01*
X9898000Y-11158100D02*
X9998000Y-11158100D01*
X10043060Y-5471860D02*
X10043060Y-5571860D01*
X9993060Y-5521860D02*
X10093060Y-5521860D01*
X10297060Y-5471860D02*
X10297060Y-5571860D01*
X10247060Y-5521860D02*
X10347060Y-5521860D01*
X10329000Y-6679500D02*
X10329000Y-6779500D01*
X10279000Y-6729500D02*
X10379000Y-6729500D01*
X10551060Y-5471860D02*
X10551060Y-5571860D01*
X10501060Y-5521860D02*
X10601060Y-5521860D01*
X10583000Y-6679500D02*
X10583000Y-6779500D01*
X10533000Y-6729500D02*
X10633000Y-6729500D01*
X10805060Y-5471860D02*
X10805060Y-5571860D01*
X10755060Y-5521860D02*
X10855060Y-5521860D01*
X10837000Y-6679500D02*
X10837000Y-6779500D01*
X10787000Y-6729500D02*
X10887000Y-6729500D01*
X11059060Y-5471860D02*
X11059060Y-5571860D01*
X11009060Y-5521860D02*
X11109060Y-5521860D01*
X11091000Y-6679500D02*
X11091000Y-6779500D01*
X11041000Y-6729500D02*
X11141000Y-6729500D01*
X11313060Y-5471860D02*
X11313060Y-5571860D01*
X11263060Y-5521860D02*
X11363060Y-5521860D01*
X11472000Y-6282100D02*
X11472000Y-6382100D01*
X11422000Y-6332100D02*
X11522000Y-6332100D01*
X11472000Y-6536100D02*
X11472000Y-6636100D01*
X11422000Y-6586100D02*
X11522000Y-6586100D01*
X11472000Y-6790100D02*
X11472000Y-6890100D01*
X11422000Y-6840100D02*
X11522000Y-6840100D01*
X11472000Y-7044100D02*
X11472000Y-7144100D01*
X11422000Y-7094100D02*
X11522000Y-7094100D01*
X11472000Y-7298100D02*
X11472000Y-7398100D01*
X11422000Y-7348100D02*
X11522000Y-7348100D01*
X11472000Y-7552100D02*
X11472000Y-7652100D01*
X11422000Y-7602100D02*
X11522000Y-7602100D01*
X11472000Y-7806100D02*
X11472000Y-7906100D01*
X11422000Y-7856100D02*
X11522000Y-7856100D01*
X11472000Y-8060100D02*
X11472000Y-8160100D01*
X11422000Y-8110100D02*
X11522000Y-8110100D01*
X11472000Y-8314100D02*
X11472000Y-8414100D01*
X11422000Y-8364100D02*
X11522000Y-8364100D01*
X11472000Y-8568100D02*
X11472000Y-8668100D01*
X11422000Y-8618100D02*
X11522000Y-8618100D01*
X11472000Y-8822100D02*
X11472000Y-8922100D01*
X11422000Y-8872100D02*
X11522000Y-8872100D01*
X11472000Y-9076100D02*
X11472000Y-9176100D01*
X11422000Y-9126100D02*
X11522000Y-9126100D01*
X11472000Y-9330100D02*
X11472000Y-9430100D01*
X11422000Y-9380100D02*
X11522000Y-9380100D01*
X11472000Y-9584100D02*
X11472000Y-9684100D01*
X11422000Y-9634100D02*
X11522000Y-9634100D01*
X11472000Y-9838100D02*
X11472000Y-9938100D01*
X11422000Y-9888100D02*
X11522000Y-9888100D01*
X11472000Y-10092100D02*
X11472000Y-10192100D01*
X11422000Y-10142100D02*
X11522000Y-10142100D01*
X11472000Y-10346100D02*
X11472000Y-10446100D01*
X11422000Y-10396100D02*
X11522000Y-10396100D01*
X11472000Y-10600100D02*
X11472000Y-10700100D01*
X11422000Y-10650100D02*
X11522000Y-10650100D01*
X11472000Y-10854100D02*
X11472000Y-10954100D01*
X11422000Y-10904100D02*
X11522000Y-10904100D01*
X11472000Y-11108100D02*
X11472000Y-11208100D01*
X11422000Y-11158100D02*
X11522000Y-11158100D01*
X11567060Y-5471860D02*
X11567060Y-5571860D01*
X11517060Y-5521860D02*
X11617060Y-5521860D01*
X11821060Y-5471860D02*
X11821060Y-5571860D01*
X11771060Y-5521860D02*
X11871060Y-5521860D01*
X12075060Y-5471860D02*
X12075060Y-5571860D01*
X12025060Y-5521860D02*
X12125060Y-5521860D01*
X12329060Y-5471860D02*
X12329060Y-5571860D01*
X12279060Y-5521860D02*
X12379060Y-5521860D01*
X12360000Y-9406000D02*
X12360000Y-9506000D01*
X12310000Y-9456000D02*
X12410000Y-9456000D01*
X12360000Y-9660000D02*
X12360000Y-9760000D01*
X12310000Y-9710000D02*
X12410000Y-9710000D01*
X12360000Y-9914000D02*
X12360000Y-10014000D01*
X12310000Y-9964000D02*
X12410000Y-9964000D01*
X12360000Y-10168000D02*
X12360000Y-10268000D01*
X12310000Y-10218000D02*
X12410000Y-10218000D01*
X12360000Y-10422000D02*
X12360000Y-10522000D01*
X12310000Y-10472000D02*
X12410000Y-10472000D01*
X12360000Y-10676000D02*
X12360000Y-10776000D01*
X12310000Y-10726000D02*
X12410000Y-10726000D01*
X12360000Y-10930000D02*
X12360000Y-11030000D01*
X12310000Y-10980000D02*
X12410000Y-10980000D01*
X12360000Y-11184000D02*
X12360000Y-11284000D01*
X12310000Y-11234000D02*
X12410000Y-11234000D01*
X12583060Y-5471860D02*
X12583060Y-5571860D01*
X12533060Y-5521860D02*
X12633060Y-5521860D01*
X12837060Y-5471860D02*
X12837060Y-5571860D01*
X12787060Y-5521860D02*
X12887060Y-5521860D01*
X13091060Y-5471860D02*
X13091060Y-5571860D01*
X13041060Y-5521860D02*
X13141060Y-5521860D01*
X13345060Y-5471860D02*
X13345060Y-5571860D01*
X13295060Y-5521860D02*
X13395060Y-5521860D01*
X13599060Y-5471860D02*
X13599060Y-5571860D01*
X13549060Y-5521860D02*
X13649060Y-5521860D01*
X14640560Y-6513360D02*
X14640560Y-6613360D01*
X14590560Y-6563360D02*
X14690560Y-6563360D01*
X14640560Y-6767360D02*
X14640560Y-6867360D01*
X14590560Y-6817360D02*
X14690560Y-6817360D01*
X14640560Y-7021360D02*
X14640560Y-7121360D01*
X14590560Y-7071360D02*
X14690560Y-7071360D01*
X14640560Y-7275360D02*
X14640560Y-7375360D01*
X14590560Y-7325360D02*
X14690560Y-7325360D01*
X14640560Y-7529360D02*
X14640560Y-7629360D01*
X14590560Y-7579360D02*
X14690560Y-7579360D01*
X14640560Y-7783360D02*
X14640560Y-7883360D01*
X14590560Y-7833360D02*
X14690560Y-7833360D01*
X14640560Y-8037360D02*
X14640560Y-8137360D01*
X14590560Y-8087360D02*
X14690560Y-8087360D01*
X14640560Y-8291360D02*
X14640560Y-8391360D01*
X14590560Y-8341360D02*
X14690560Y-8341360D01*
X14640560Y-8545360D02*
X14640560Y-8645360D01*
X14590560Y-8595360D02*
X14690560Y-8595360D01*
X14640560Y-8799360D02*
X14640560Y-8899360D01*
X14590560Y-8849360D02*
X14690560Y-8849360D01*
X14640560Y-9053360D02*
X14640560Y-9153360D01*
X14590560Y-9103360D02*
X14690560Y-9103360D01*
X14640560Y-9307360D02*
X14640560Y-9407360D01*
X14590560Y-9357360D02*
X14690560Y-9357360D01*
X14640560Y-9561360D02*
X14640560Y-9661360D01*
X14590560Y-9611360D02*
X14690560Y-9611360D01*
X14640560Y-9815360D02*
X14640560Y-9915360D01*
X14590560Y-9865360D02*
X14690560Y-9865360D01*
X14640560Y-10069360D02*
X14640560Y-10169360D01*
X14590560Y-10119360D02*
X14690560Y-10119360D01*
D14*
X13718007Y-9417007D02*
X13718007Y-9240993D01*
X13541993Y-9240993D01*
X13541993Y-9417007D01*
X13718007Y-9417007D01*
X13718007Y-11449505D02*
X13718007Y-11273491D01*
X13541993Y-11273491D01*
X13541993Y-11449505D01*
X13718007Y-11449505D01*
D15*
X9040560Y-5971860D02*
X9460560Y-5551860D01*
X9040560Y-5131860D01*
X8620560Y-5551860D01*
X9040560Y-5971860D01*
X9040560Y-11541860D02*
X9460560Y-11121860D01*
X9040560Y-10701860D01*
X8620560Y-11121860D01*
X9040560Y-11541860D01*
X14600560Y-5973360D02*
X15020560Y-5553360D01*
X14600560Y-5133360D01*
X14180560Y-5553360D01*
X14600560Y-5973360D01*
X14600560Y-11541860D02*
X15020560Y-11121860D01*
X14600560Y-10701860D01*
X14180560Y-11121860D01*
X14600560Y-11541860D01*
D10*
X8578837Y-12155844D02*
X8578837Y-11955844D01*
X8578837Y-11955844D02*
X8626456Y-11955844D01*
X8626456Y-11955844D02*
X8655027Y-11965368D01*
X8655027Y-11965368D02*
X8674075Y-11984415D01*
X8674075Y-11984415D02*
X8683599Y-12003463D01*
X8683599Y-12003463D02*
X8693123Y-12041558D01*
X8693123Y-12041558D02*
X8693123Y-12070129D01*
X8693123Y-12070129D02*
X8683599Y-12108225D01*
X8683599Y-12108225D02*
X8674075Y-12127272D01*
X8674075Y-12127272D02*
X8655027Y-12146320D01*
X8655027Y-12146320D02*
X8626456Y-12155844D01*
X8626456Y-12155844D02*
X8578837Y-12155844D01*
X8778837Y-12155844D02*
X8778837Y-12022510D01*
X8778837Y-12060606D02*
X8788361Y-12041558D01*
X8788361Y-12041558D02*
X8797884Y-12032034D01*
X8797884Y-12032034D02*
X8816932Y-12022510D01*
X8816932Y-12022510D02*
X8835980Y-12022510D01*
X8902646Y-12155844D02*
X8902646Y-12022510D01*
X8902646Y-11955844D02*
X8893123Y-11965368D01*
X8893123Y-11965368D02*
X8902646Y-11974891D01*
X8902646Y-11974891D02*
X8912170Y-11965368D01*
X8912170Y-11965368D02*
X8902646Y-11955844D01*
X8902646Y-11955844D02*
X8902646Y-11974891D01*
X9026456Y-12155844D02*
X9007408Y-12146320D01*
X9007408Y-12146320D02*
X8997884Y-12127272D01*
X8997884Y-12127272D02*
X8997884Y-11955844D01*
X9131218Y-12155844D02*
X9112170Y-12146320D01*
X9112170Y-12146320D02*
X9102646Y-12127272D01*
X9102646Y-12127272D02*
X9102646Y-11955844D01*
X9359789Y-12155844D02*
X9359789Y-11955844D01*
X9359789Y-11955844D02*
X9426456Y-12098701D01*
X9426456Y-12098701D02*
X9493123Y-11955844D01*
X9493123Y-11955844D02*
X9493123Y-12155844D01*
X9674075Y-12155844D02*
X9674075Y-12051082D01*
X9674075Y-12051082D02*
X9664551Y-12032034D01*
X9664551Y-12032034D02*
X9645504Y-12022510D01*
X9645504Y-12022510D02*
X9607408Y-12022510D01*
X9607408Y-12022510D02*
X9588361Y-12032034D01*
X9674075Y-12146320D02*
X9655027Y-12155844D01*
X9655027Y-12155844D02*
X9607408Y-12155844D01*
X9607408Y-12155844D02*
X9588361Y-12146320D01*
X9588361Y-12146320D02*
X9578837Y-12127272D01*
X9578837Y-12127272D02*
X9578837Y-12108225D01*
X9578837Y-12108225D02*
X9588361Y-12089177D01*
X9588361Y-12089177D02*
X9607408Y-12079653D01*
X9607408Y-12079653D02*
X9655027Y-12079653D01*
X9655027Y-12079653D02*
X9674075Y-12070129D01*
X9769313Y-12022510D02*
X9769313Y-12222510D01*
X9769313Y-12032034D02*
X9788361Y-12022510D01*
X9788361Y-12022510D02*
X9826456Y-12022510D01*
X9826456Y-12022510D02*
X9845504Y-12032034D01*
X9845504Y-12032034D02*
X9855027Y-12041558D01*
X9855027Y-12041558D02*
X9864551Y-12060606D01*
X9864551Y-12060606D02*
X9864551Y-12117748D01*
X9864551Y-12117748D02*
X9855027Y-12136796D01*
X9855027Y-12136796D02*
X9845504Y-12146320D01*
X9845504Y-12146320D02*
X9826456Y-12155844D01*
X9826456Y-12155844D02*
X9788361Y-12155844D01*
X9788361Y-12155844D02*
X9769313Y-12146320D01*
X9950265Y-12136796D02*
X9959789Y-12146320D01*
X9959789Y-12146320D02*
X9950265Y-12155844D01*
X9950265Y-12155844D02*
X9940742Y-12146320D01*
X9940742Y-12146320D02*
X9950265Y-12136796D01*
X9950265Y-12136796D02*
X9950265Y-12155844D01*
X9950265Y-12032034D02*
X9959789Y-12041558D01*
X9959789Y-12041558D02*
X9950265Y-12051082D01*
X9950265Y-12051082D02*
X9940742Y-12041558D01*
X9940742Y-12041558D02*
X9950265Y-12032034D01*
X9950265Y-12032034D02*
X9950265Y-12051082D01*
D11*
X8278060Y-12464360D02*
X8318060Y-12504360D01*
X8318060Y-12464360D02*
X8278060Y-12504360D01*
D10*
X8616932Y-12375844D02*
X8635980Y-12375844D01*
X8635980Y-12375844D02*
X8655027Y-12385368D01*
X8655027Y-12385368D02*
X8664551Y-12394891D01*
X8664551Y-12394891D02*
X8674075Y-12413939D01*
X8674075Y-12413939D02*
X8683599Y-12452034D01*
X8683599Y-12452034D02*
X8683599Y-12499653D01*
X8683599Y-12499653D02*
X8674075Y-12537748D01*
X8674075Y-12537748D02*
X8664551Y-12556796D01*
X8664551Y-12556796D02*
X8655027Y-12566320D01*
X8655027Y-12566320D02*
X8635980Y-12575844D01*
X8635980Y-12575844D02*
X8616932Y-12575844D01*
X8616932Y-12575844D02*
X8597884Y-12566320D01*
X8597884Y-12566320D02*
X8588361Y-12556796D01*
X8588361Y-12556796D02*
X8578837Y-12537748D01*
X8578837Y-12537748D02*
X8569313Y-12499653D01*
X8569313Y-12499653D02*
X8569313Y-12452034D01*
X8569313Y-12452034D02*
X8578837Y-12413939D01*
X8578837Y-12413939D02*
X8588361Y-12394891D01*
X8588361Y-12394891D02*
X8597884Y-12385368D01*
X8597884Y-12385368D02*
X8616932Y-12375844D01*
X8769313Y-12556796D02*
X8778837Y-12566320D01*
X8778837Y-12566320D02*
X8769313Y-12575844D01*
X8769313Y-12575844D02*
X8759789Y-12566320D01*
X8759789Y-12566320D02*
X8769313Y-12556796D01*
X8769313Y-12556796D02*
X8769313Y-12575844D01*
X8950265Y-12442510D02*
X8950265Y-12575844D01*
X8902646Y-12366320D02*
X8855027Y-12509177D01*
X8855027Y-12509177D02*
X8978837Y-12509177D01*
X9093123Y-12375844D02*
X9112170Y-12375844D01*
X9112170Y-12375844D02*
X9131218Y-12385368D01*
X9131218Y-12385368D02*
X9140742Y-12394891D01*
X9140742Y-12394891D02*
X9150265Y-12413939D01*
X9150265Y-12413939D02*
X9159789Y-12452034D01*
X9159789Y-12452034D02*
X9159789Y-12499653D01*
X9159789Y-12499653D02*
X9150265Y-12537748D01*
X9150265Y-12537748D02*
X9140742Y-12556796D01*
X9140742Y-12556796D02*
X9131218Y-12566320D01*
X9131218Y-12566320D02*
X9112170Y-12575844D01*
X9112170Y-12575844D02*
X9093123Y-12575844D01*
X9093123Y-12575844D02*
X9074075Y-12566320D01*
X9074075Y-12566320D02*
X9064551Y-12556796D01*
X9064551Y-12556796D02*
X9055027Y-12537748D01*
X9055027Y-12537748D02*
X9045504Y-12499653D01*
X9045504Y-12499653D02*
X9045504Y-12452034D01*
X9045504Y-12452034D02*
X9055027Y-12413939D01*
X9055027Y-12413939D02*
X9064551Y-12394891D01*
X9064551Y-12394891D02*
X9074075Y-12385368D01*
X9074075Y-12385368D02*
X9093123Y-12375844D01*
X9283599Y-12375844D02*
X9302646Y-12375844D01*
X9302646Y-12375844D02*
X9321694Y-12385368D01*
X9321694Y-12385368D02*
X9331218Y-12394891D01*
X9331218Y-12394891D02*
X9340742Y-12413939D01*
X9340742Y-12413939D02*
X9350265Y-12452034D01*
X9350265Y-12452034D02*
X9350265Y-12499653D01*
X9350265Y-12499653D02*
X9340742Y-12537748D01*
X9340742Y-12537748D02*
X9331218Y-12556796D01*
X9331218Y-12556796D02*
X9321694Y-12566320D01*
X9321694Y-12566320D02*
X9302646Y-12575844D01*
X9302646Y-12575844D02*
X9283599Y-12575844D01*
X9283599Y-12575844D02*
X9264551Y-12566320D01*
X9264551Y-12566320D02*
X9255027Y-12556796D01*
X9255027Y-12556796D02*
X9245504Y-12537748D01*
X9245504Y-12537748D02*
X9235980Y-12499653D01*
X9235980Y-12499653D02*
X9235980Y-12452034D01*
X9235980Y-12452034D02*
X9245504Y-12413939D01*
X9245504Y-12413939D02*
X9255027Y-12394891D01*
X9255027Y-12394891D02*
X9264551Y-12385368D01*
X9264551Y-12385368D02*
X9283599Y-12375844D01*
X9435980Y-12575844D02*
X9435980Y-12442510D01*
X9435980Y-12461558D02*
X9445504Y-12452034D01*
X9445504Y-12452034D02*
X9464551Y-12442510D01*
X9464551Y-12442510D02*
X9493123Y-12442510D01*
X9493123Y-12442510D02*
X9512170Y-12452034D01*
X9512170Y-12452034D02*
X9521694Y-12471082D01*
X9521694Y-12471082D02*
X9521694Y-12575844D01*
X9521694Y-12471082D02*
X9531218Y-12452034D01*
X9531218Y-12452034D02*
X9550265Y-12442510D01*
X9550265Y-12442510D02*
X9578837Y-12442510D01*
X9578837Y-12442510D02*
X9597885Y-12452034D01*
X9597885Y-12452034D02*
X9607408Y-12471082D01*
X9607408Y-12471082D02*
X9607408Y-12575844D01*
X9702646Y-12575844D02*
X9702646Y-12442510D01*
X9702646Y-12461558D02*
X9712170Y-12452034D01*
X9712170Y-12452034D02*
X9731218Y-12442510D01*
X9731218Y-12442510D02*
X9759789Y-12442510D01*
X9759789Y-12442510D02*
X9778837Y-12452034D01*
X9778837Y-12452034D02*
X9788361Y-12471082D01*
X9788361Y-12471082D02*
X9788361Y-12575844D01*
X9788361Y-12471082D02*
X9797885Y-12452034D01*
X9797885Y-12452034D02*
X9816932Y-12442510D01*
X9816932Y-12442510D02*
X9845504Y-12442510D01*
X9845504Y-12442510D02*
X9864551Y-12452034D01*
X9864551Y-12452034D02*
X9874075Y-12471082D01*
X9874075Y-12471082D02*
X9874075Y-12575844D01*
X10264551Y-12366320D02*
X10093123Y-12623463D01*
X10521694Y-12375844D02*
X10540742Y-12375844D01*
X10540742Y-12375844D02*
X10559789Y-12385368D01*
X10559789Y-12385368D02*
X10569313Y-12394891D01*
X10569313Y-12394891D02*
X10578837Y-12413939D01*
X10578837Y-12413939D02*
X10588361Y-12452034D01*
X10588361Y-12452034D02*
X10588361Y-12499653D01*
X10588361Y-12499653D02*
X10578837Y-12537748D01*
X10578837Y-12537748D02*
X10569313Y-12556796D01*
X10569313Y-12556796D02*
X10559789Y-12566320D01*
X10559789Y-12566320D02*
X10540742Y-12575844D01*
X10540742Y-12575844D02*
X10521694Y-12575844D01*
X10521694Y-12575844D02*
X10502647Y-12566320D01*
X10502647Y-12566320D02*
X10493123Y-12556796D01*
X10493123Y-12556796D02*
X10483599Y-12537748D01*
X10483599Y-12537748D02*
X10474075Y-12499653D01*
X10474075Y-12499653D02*
X10474075Y-12452034D01*
X10474075Y-12452034D02*
X10483599Y-12413939D01*
X10483599Y-12413939D02*
X10493123Y-12394891D01*
X10493123Y-12394891D02*
X10502647Y-12385368D01*
X10502647Y-12385368D02*
X10521694Y-12375844D01*
X10674075Y-12556796D02*
X10683599Y-12566320D01*
X10683599Y-12566320D02*
X10674075Y-12575844D01*
X10674075Y-12575844D02*
X10664551Y-12566320D01*
X10664551Y-12566320D02*
X10674075Y-12556796D01*
X10674075Y-12556796D02*
X10674075Y-12575844D01*
X10807408Y-12375844D02*
X10826456Y-12375844D01*
X10826456Y-12375844D02*
X10845504Y-12385368D01*
X10845504Y-12385368D02*
X10855028Y-12394891D01*
X10855028Y-12394891D02*
X10864551Y-12413939D01*
X10864551Y-12413939D02*
X10874075Y-12452034D01*
X10874075Y-12452034D02*
X10874075Y-12499653D01*
X10874075Y-12499653D02*
X10864551Y-12537748D01*
X10864551Y-12537748D02*
X10855028Y-12556796D01*
X10855028Y-12556796D02*
X10845504Y-12566320D01*
X10845504Y-12566320D02*
X10826456Y-12575844D01*
X10826456Y-12575844D02*
X10807408Y-12575844D01*
X10807408Y-12575844D02*
X10788361Y-12566320D01*
X10788361Y-12566320D02*
X10778837Y-12556796D01*
X10778837Y-12556796D02*
X10769313Y-12537748D01*
X10769313Y-12537748D02*
X10759789Y-12499653D01*
X10759789Y-12499653D02*
X10759789Y-12452034D01*
X10759789Y-12452034D02*
X10769313Y-12413939D01*
X10769313Y-12413939D02*
X10778837Y-12394891D01*
X10778837Y-12394891D02*
X10788361Y-12385368D01*
X10788361Y-12385368D02*
X10807408Y-12375844D01*
X11064551Y-12575844D02*
X10950266Y-12575844D01*
X11007408Y-12575844D02*
X11007408Y-12375844D01*
X11007408Y-12375844D02*
X10988361Y-12404415D01*
X10988361Y-12404415D02*
X10969313Y-12423463D01*
X10969313Y-12423463D02*
X10950266Y-12432987D01*
X11245504Y-12375844D02*
X11150266Y-12375844D01*
X11150266Y-12375844D02*
X11140742Y-12471082D01*
X11140742Y-12471082D02*
X11150266Y-12461558D01*
X11150266Y-12461558D02*
X11169313Y-12452034D01*
X11169313Y-12452034D02*
X11216932Y-12452034D01*
X11216932Y-12452034D02*
X11235980Y-12461558D01*
X11235980Y-12461558D02*
X11245504Y-12471082D01*
X11245504Y-12471082D02*
X11255027Y-12490129D01*
X11255027Y-12490129D02*
X11255027Y-12537748D01*
X11255027Y-12537748D02*
X11245504Y-12556796D01*
X11245504Y-12556796D02*
X11235980Y-12566320D01*
X11235980Y-12566320D02*
X11216932Y-12575844D01*
X11216932Y-12575844D02*
X11169313Y-12575844D01*
X11169313Y-12575844D02*
X11150266Y-12566320D01*
X11150266Y-12566320D02*
X11140742Y-12556796D01*
X11321694Y-12375844D02*
X11455027Y-12375844D01*
X11455027Y-12375844D02*
X11369313Y-12575844D01*
X11521694Y-12375844D02*
X11521694Y-12413939D01*
X11597885Y-12375844D02*
X11597885Y-12413939D01*
X11893123Y-12652034D02*
X11883599Y-12642510D01*
X11883599Y-12642510D02*
X11864551Y-12613939D01*
X11864551Y-12613939D02*
X11855028Y-12594891D01*
X11855028Y-12594891D02*
X11845504Y-12566320D01*
X11845504Y-12566320D02*
X11835980Y-12518701D01*
X11835980Y-12518701D02*
X11835980Y-12480606D01*
X11835980Y-12480606D02*
X11845504Y-12432987D01*
X11845504Y-12432987D02*
X11855028Y-12404415D01*
X11855028Y-12404415D02*
X11864551Y-12385368D01*
X11864551Y-12385368D02*
X11883599Y-12356796D01*
X11883599Y-12356796D02*
X11893123Y-12347272D01*
X11950266Y-12375844D02*
X12074075Y-12375844D01*
X12074075Y-12375844D02*
X12007408Y-12452034D01*
X12007408Y-12452034D02*
X12035980Y-12452034D01*
X12035980Y-12452034D02*
X12055028Y-12461558D01*
X12055028Y-12461558D02*
X12064551Y-12471082D01*
X12064551Y-12471082D02*
X12074075Y-12490129D01*
X12074075Y-12490129D02*
X12074075Y-12537748D01*
X12074075Y-12537748D02*
X12064551Y-12556796D01*
X12064551Y-12556796D02*
X12055028Y-12566320D01*
X12055028Y-12566320D02*
X12035980Y-12575844D01*
X12035980Y-12575844D02*
X11978837Y-12575844D01*
X11978837Y-12575844D02*
X11959789Y-12566320D01*
X11959789Y-12566320D02*
X11950266Y-12556796D01*
X12197885Y-12375844D02*
X12216932Y-12375844D01*
X12216932Y-12375844D02*
X12235980Y-12385368D01*
X12235980Y-12385368D02*
X12245504Y-12394891D01*
X12245504Y-12394891D02*
X12255028Y-12413939D01*
X12255028Y-12413939D02*
X12264551Y-12452034D01*
X12264551Y-12452034D02*
X12264551Y-12499653D01*
X12264551Y-12499653D02*
X12255028Y-12537748D01*
X12255028Y-12537748D02*
X12245504Y-12556796D01*
X12245504Y-12556796D02*
X12235980Y-12566320D01*
X12235980Y-12566320D02*
X12216932Y-12575844D01*
X12216932Y-12575844D02*
X12197885Y-12575844D01*
X12197885Y-12575844D02*
X12178837Y-12566320D01*
X12178837Y-12566320D02*
X12169313Y-12556796D01*
X12169313Y-12556796D02*
X12159789Y-12537748D01*
X12159789Y-12537748D02*
X12150266Y-12499653D01*
X12150266Y-12499653D02*
X12150266Y-12452034D01*
X12150266Y-12452034D02*
X12159789Y-12413939D01*
X12159789Y-12413939D02*
X12169313Y-12394891D01*
X12169313Y-12394891D02*
X12178837Y-12385368D01*
X12178837Y-12385368D02*
X12197885Y-12375844D01*
X12502647Y-12575844D02*
X12502647Y-12375844D01*
X12588361Y-12575844D02*
X12588361Y-12471082D01*
X12588361Y-12471082D02*
X12578837Y-12452034D01*
X12578837Y-12452034D02*
X12559790Y-12442510D01*
X12559790Y-12442510D02*
X12531218Y-12442510D01*
X12531218Y-12442510D02*
X12512170Y-12452034D01*
X12512170Y-12452034D02*
X12502647Y-12461558D01*
X12712170Y-12575844D02*
X12693123Y-12566320D01*
X12693123Y-12566320D02*
X12683599Y-12556796D01*
X12683599Y-12556796D02*
X12674075Y-12537748D01*
X12674075Y-12537748D02*
X12674075Y-12480606D01*
X12674075Y-12480606D02*
X12683599Y-12461558D01*
X12683599Y-12461558D02*
X12693123Y-12452034D01*
X12693123Y-12452034D02*
X12712170Y-12442510D01*
X12712170Y-12442510D02*
X12740742Y-12442510D01*
X12740742Y-12442510D02*
X12759790Y-12452034D01*
X12759790Y-12452034D02*
X12769313Y-12461558D01*
X12769313Y-12461558D02*
X12778837Y-12480606D01*
X12778837Y-12480606D02*
X12778837Y-12537748D01*
X12778837Y-12537748D02*
X12769313Y-12556796D01*
X12769313Y-12556796D02*
X12759790Y-12566320D01*
X12759790Y-12566320D02*
X12740742Y-12575844D01*
X12740742Y-12575844D02*
X12712170Y-12575844D01*
X12893123Y-12575844D02*
X12874075Y-12566320D01*
X12874075Y-12566320D02*
X12864551Y-12547272D01*
X12864551Y-12547272D02*
X12864551Y-12375844D01*
X13045504Y-12566320D02*
X13026456Y-12575844D01*
X13026456Y-12575844D02*
X12988361Y-12575844D01*
X12988361Y-12575844D02*
X12969313Y-12566320D01*
X12969313Y-12566320D02*
X12959790Y-12547272D01*
X12959790Y-12547272D02*
X12959790Y-12471082D01*
X12959790Y-12471082D02*
X12969313Y-12452034D01*
X12969313Y-12452034D02*
X12988361Y-12442510D01*
X12988361Y-12442510D02*
X13026456Y-12442510D01*
X13026456Y-12442510D02*
X13045504Y-12452034D01*
X13045504Y-12452034D02*
X13055028Y-12471082D01*
X13055028Y-12471082D02*
X13055028Y-12490129D01*
X13055028Y-12490129D02*
X12959790Y-12509177D01*
X13131218Y-12566320D02*
X13150266Y-12575844D01*
X13150266Y-12575844D02*
X13188361Y-12575844D01*
X13188361Y-12575844D02*
X13207409Y-12566320D01*
X13207409Y-12566320D02*
X13216932Y-12547272D01*
X13216932Y-12547272D02*
X13216932Y-12537748D01*
X13216932Y-12537748D02*
X13207409Y-12518701D01*
X13207409Y-12518701D02*
X13188361Y-12509177D01*
X13188361Y-12509177D02*
X13159790Y-12509177D01*
X13159790Y-12509177D02*
X13140742Y-12499653D01*
X13140742Y-12499653D02*
X13131218Y-12480606D01*
X13131218Y-12480606D02*
X13131218Y-12471082D01*
X13131218Y-12471082D02*
X13140742Y-12452034D01*
X13140742Y-12452034D02*
X13159790Y-12442510D01*
X13159790Y-12442510D02*
X13188361Y-12442510D01*
X13188361Y-12442510D02*
X13207409Y-12452034D01*
X13283599Y-12652034D02*
X13293123Y-12642510D01*
X13293123Y-12642510D02*
X13312171Y-12613939D01*
X13312171Y-12613939D02*
X13321694Y-12594891D01*
X13321694Y-12594891D02*
X13331218Y-12566320D01*
X13331218Y-12566320D02*
X13340742Y-12518701D01*
X13340742Y-12518701D02*
X13340742Y-12480606D01*
X13340742Y-12480606D02*
X13331218Y-12432987D01*
X13331218Y-12432987D02*
X13321694Y-12404415D01*
X13321694Y-12404415D02*
X13312171Y-12385368D01*
X13312171Y-12385368D02*
X13293123Y-12356796D01*
X13293123Y-12356796D02*
X13283599Y-12347272D01*
D12*
X8318060Y-12748360D02*
G75*
G03*
X8318060Y-12748360I-40000J0D01*
G01*
D10*
X8616932Y-12639844D02*
X8635980Y-12639844D01*
X8635980Y-12639844D02*
X8655027Y-12649368D01*
X8655027Y-12649368D02*
X8664551Y-12658891D01*
X8664551Y-12658891D02*
X8674075Y-12677939D01*
X8674075Y-12677939D02*
X8683599Y-12716034D01*
X8683599Y-12716034D02*
X8683599Y-12763653D01*
X8683599Y-12763653D02*
X8674075Y-12801748D01*
X8674075Y-12801748D02*
X8664551Y-12820796D01*
X8664551Y-12820796D02*
X8655027Y-12830320D01*
X8655027Y-12830320D02*
X8635980Y-12839844D01*
X8635980Y-12839844D02*
X8616932Y-12839844D01*
X8616932Y-12839844D02*
X8597884Y-12830320D01*
X8597884Y-12830320D02*
X8588361Y-12820796D01*
X8588361Y-12820796D02*
X8578837Y-12801748D01*
X8578837Y-12801748D02*
X8569313Y-12763653D01*
X8569313Y-12763653D02*
X8569313Y-12716034D01*
X8569313Y-12716034D02*
X8578837Y-12677939D01*
X8578837Y-12677939D02*
X8588361Y-12658891D01*
X8588361Y-12658891D02*
X8597884Y-12649368D01*
X8597884Y-12649368D02*
X8616932Y-12639844D01*
X8769313Y-12820796D02*
X8778837Y-12830320D01*
X8778837Y-12830320D02*
X8769313Y-12839844D01*
X8769313Y-12839844D02*
X8759789Y-12830320D01*
X8759789Y-12830320D02*
X8769313Y-12820796D01*
X8769313Y-12820796D02*
X8769313Y-12839844D01*
X8893123Y-12725558D02*
X8874075Y-12716034D01*
X8874075Y-12716034D02*
X8864551Y-12706510D01*
X8864551Y-12706510D02*
X8855027Y-12687463D01*
X8855027Y-12687463D02*
X8855027Y-12677939D01*
X8855027Y-12677939D02*
X8864551Y-12658891D01*
X8864551Y-12658891D02*
X8874075Y-12649368D01*
X8874075Y-12649368D02*
X8893123Y-12639844D01*
X8893123Y-12639844D02*
X8931218Y-12639844D01*
X8931218Y-12639844D02*
X8950265Y-12649368D01*
X8950265Y-12649368D02*
X8959789Y-12658891D01*
X8959789Y-12658891D02*
X8969313Y-12677939D01*
X8969313Y-12677939D02*
X8969313Y-12687463D01*
X8969313Y-12687463D02*
X8959789Y-12706510D01*
X8959789Y-12706510D02*
X8950265Y-12716034D01*
X8950265Y-12716034D02*
X8931218Y-12725558D01*
X8931218Y-12725558D02*
X8893123Y-12725558D01*
X8893123Y-12725558D02*
X8874075Y-12735082D01*
X8874075Y-12735082D02*
X8864551Y-12744606D01*
X8864551Y-12744606D02*
X8855027Y-12763653D01*
X8855027Y-12763653D02*
X8855027Y-12801748D01*
X8855027Y-12801748D02*
X8864551Y-12820796D01*
X8864551Y-12820796D02*
X8874075Y-12830320D01*
X8874075Y-12830320D02*
X8893123Y-12839844D01*
X8893123Y-12839844D02*
X8931218Y-12839844D01*
X8931218Y-12839844D02*
X8950265Y-12830320D01*
X8950265Y-12830320D02*
X8959789Y-12820796D01*
X8959789Y-12820796D02*
X8969313Y-12801748D01*
X8969313Y-12801748D02*
X8969313Y-12763653D01*
X8969313Y-12763653D02*
X8959789Y-12744606D01*
X8959789Y-12744606D02*
X8950265Y-12735082D01*
X8950265Y-12735082D02*
X8931218Y-12725558D01*
X9093123Y-12639844D02*
X9112170Y-12639844D01*
X9112170Y-12639844D02*
X9131218Y-12649368D01*
X9131218Y-12649368D02*
X9140742Y-12658891D01*
X9140742Y-12658891D02*
X9150265Y-12677939D01*
X9150265Y-12677939D02*
X9159789Y-12716034D01*
X9159789Y-12716034D02*
X9159789Y-12763653D01*
X9159789Y-12763653D02*
X9150265Y-12801748D01*
X9150265Y-12801748D02*
X9140742Y-12820796D01*
X9140742Y-12820796D02*
X9131218Y-12830320D01*
X9131218Y-12830320D02*
X9112170Y-12839844D01*
X9112170Y-12839844D02*
X9093123Y-12839844D01*
X9093123Y-12839844D02*
X9074075Y-12830320D01*
X9074075Y-12830320D02*
X9064551Y-12820796D01*
X9064551Y-12820796D02*
X9055027Y-12801748D01*
X9055027Y-12801748D02*
X9045504Y-12763653D01*
X9045504Y-12763653D02*
X9045504Y-12716034D01*
X9045504Y-12716034D02*
X9055027Y-12677939D01*
X9055027Y-12677939D02*
X9064551Y-12658891D01*
X9064551Y-12658891D02*
X9074075Y-12649368D01*
X9074075Y-12649368D02*
X9093123Y-12639844D01*
X9283599Y-12639844D02*
X9302646Y-12639844D01*
X9302646Y-12639844D02*
X9321694Y-12649368D01*
X9321694Y-12649368D02*
X9331218Y-12658891D01*
X9331218Y-12658891D02*
X9340742Y-12677939D01*
X9340742Y-12677939D02*
X9350265Y-12716034D01*
X9350265Y-12716034D02*
X9350265Y-12763653D01*
X9350265Y-12763653D02*
X9340742Y-12801748D01*
X9340742Y-12801748D02*
X9331218Y-12820796D01*
X9331218Y-12820796D02*
X9321694Y-12830320D01*
X9321694Y-12830320D02*
X9302646Y-12839844D01*
X9302646Y-12839844D02*
X9283599Y-12839844D01*
X9283599Y-12839844D02*
X9264551Y-12830320D01*
X9264551Y-12830320D02*
X9255027Y-12820796D01*
X9255027Y-12820796D02*
X9245504Y-12801748D01*
X9245504Y-12801748D02*
X9235980Y-12763653D01*
X9235980Y-12763653D02*
X9235980Y-12716034D01*
X9235980Y-12716034D02*
X9245504Y-12677939D01*
X9245504Y-12677939D02*
X9255027Y-12658891D01*
X9255027Y-12658891D02*
X9264551Y-12649368D01*
X9264551Y-12649368D02*
X9283599Y-12639844D01*
X9435980Y-12839844D02*
X9435980Y-12706510D01*
X9435980Y-12725558D02*
X9445504Y-12716034D01*
X9445504Y-12716034D02*
X9464551Y-12706510D01*
X9464551Y-12706510D02*
X9493123Y-12706510D01*
X9493123Y-12706510D02*
X9512170Y-12716034D01*
X9512170Y-12716034D02*
X9521694Y-12735082D01*
X9521694Y-12735082D02*
X9521694Y-12839844D01*
X9521694Y-12735082D02*
X9531218Y-12716034D01*
X9531218Y-12716034D02*
X9550265Y-12706510D01*
X9550265Y-12706510D02*
X9578837Y-12706510D01*
X9578837Y-12706510D02*
X9597885Y-12716034D01*
X9597885Y-12716034D02*
X9607408Y-12735082D01*
X9607408Y-12735082D02*
X9607408Y-12839844D01*
X9702646Y-12839844D02*
X9702646Y-12706510D01*
X9702646Y-12725558D02*
X9712170Y-12716034D01*
X9712170Y-12716034D02*
X9731218Y-12706510D01*
X9731218Y-12706510D02*
X9759789Y-12706510D01*
X9759789Y-12706510D02*
X9778837Y-12716034D01*
X9778837Y-12716034D02*
X9788361Y-12735082D01*
X9788361Y-12735082D02*
X9788361Y-12839844D01*
X9788361Y-12735082D02*
X9797885Y-12716034D01*
X9797885Y-12716034D02*
X9816932Y-12706510D01*
X9816932Y-12706510D02*
X9845504Y-12706510D01*
X9845504Y-12706510D02*
X9864551Y-12716034D01*
X9864551Y-12716034D02*
X9874075Y-12735082D01*
X9874075Y-12735082D02*
X9874075Y-12839844D01*
X10264551Y-12630320D02*
X10093123Y-12887463D01*
X10521694Y-12639844D02*
X10540742Y-12639844D01*
X10540742Y-12639844D02*
X10559789Y-12649368D01*
X10559789Y-12649368D02*
X10569313Y-12658891D01*
X10569313Y-12658891D02*
X10578837Y-12677939D01*
X10578837Y-12677939D02*
X10588361Y-12716034D01*
X10588361Y-12716034D02*
X10588361Y-12763653D01*
X10588361Y-12763653D02*
X10578837Y-12801748D01*
X10578837Y-12801748D02*
X10569313Y-12820796D01*
X10569313Y-12820796D02*
X10559789Y-12830320D01*
X10559789Y-12830320D02*
X10540742Y-12839844D01*
X10540742Y-12839844D02*
X10521694Y-12839844D01*
X10521694Y-12839844D02*
X10502647Y-12830320D01*
X10502647Y-12830320D02*
X10493123Y-12820796D01*
X10493123Y-12820796D02*
X10483599Y-12801748D01*
X10483599Y-12801748D02*
X10474075Y-12763653D01*
X10474075Y-12763653D02*
X10474075Y-12716034D01*
X10474075Y-12716034D02*
X10483599Y-12677939D01*
X10483599Y-12677939D02*
X10493123Y-12658891D01*
X10493123Y-12658891D02*
X10502647Y-12649368D01*
X10502647Y-12649368D02*
X10521694Y-12639844D01*
X10674075Y-12820796D02*
X10683599Y-12830320D01*
X10683599Y-12830320D02*
X10674075Y-12839844D01*
X10674075Y-12839844D02*
X10664551Y-12830320D01*
X10664551Y-12830320D02*
X10674075Y-12820796D01*
X10674075Y-12820796D02*
X10674075Y-12839844D01*
X10807408Y-12639844D02*
X10826456Y-12639844D01*
X10826456Y-12639844D02*
X10845504Y-12649368D01*
X10845504Y-12649368D02*
X10855028Y-12658891D01*
X10855028Y-12658891D02*
X10864551Y-12677939D01*
X10864551Y-12677939D02*
X10874075Y-12716034D01*
X10874075Y-12716034D02*
X10874075Y-12763653D01*
X10874075Y-12763653D02*
X10864551Y-12801748D01*
X10864551Y-12801748D02*
X10855028Y-12820796D01*
X10855028Y-12820796D02*
X10845504Y-12830320D01*
X10845504Y-12830320D02*
X10826456Y-12839844D01*
X10826456Y-12839844D02*
X10807408Y-12839844D01*
X10807408Y-12839844D02*
X10788361Y-12830320D01*
X10788361Y-12830320D02*
X10778837Y-12820796D01*
X10778837Y-12820796D02*
X10769313Y-12801748D01*
X10769313Y-12801748D02*
X10759789Y-12763653D01*
X10759789Y-12763653D02*
X10759789Y-12716034D01*
X10759789Y-12716034D02*
X10769313Y-12677939D01*
X10769313Y-12677939D02*
X10778837Y-12658891D01*
X10778837Y-12658891D02*
X10788361Y-12649368D01*
X10788361Y-12649368D02*
X10807408Y-12639844D01*
X10940742Y-12639844D02*
X11064551Y-12639844D01*
X11064551Y-12639844D02*
X10997885Y-12716034D01*
X10997885Y-12716034D02*
X11026456Y-12716034D01*
X11026456Y-12716034D02*
X11045504Y-12725558D01*
X11045504Y-12725558D02*
X11055028Y-12735082D01*
X11055028Y-12735082D02*
X11064551Y-12754129D01*
X11064551Y-12754129D02*
X11064551Y-12801748D01*
X11064551Y-12801748D02*
X11055028Y-12820796D01*
X11055028Y-12820796D02*
X11045504Y-12830320D01*
X11045504Y-12830320D02*
X11026456Y-12839844D01*
X11026456Y-12839844D02*
X10969313Y-12839844D01*
X10969313Y-12839844D02*
X10950266Y-12830320D01*
X10950266Y-12830320D02*
X10940742Y-12820796D01*
X11255027Y-12839844D02*
X11140742Y-12839844D01*
X11197885Y-12839844D02*
X11197885Y-12639844D01*
X11197885Y-12639844D02*
X11178837Y-12668415D01*
X11178837Y-12668415D02*
X11159789Y-12687463D01*
X11159789Y-12687463D02*
X11140742Y-12696987D01*
X11435980Y-12639844D02*
X11340742Y-12639844D01*
X11340742Y-12639844D02*
X11331218Y-12735082D01*
X11331218Y-12735082D02*
X11340742Y-12725558D01*
X11340742Y-12725558D02*
X11359789Y-12716034D01*
X11359789Y-12716034D02*
X11407408Y-12716034D01*
X11407408Y-12716034D02*
X11426456Y-12725558D01*
X11426456Y-12725558D02*
X11435980Y-12735082D01*
X11435980Y-12735082D02*
X11445504Y-12754129D01*
X11445504Y-12754129D02*
X11445504Y-12801748D01*
X11445504Y-12801748D02*
X11435980Y-12820796D01*
X11435980Y-12820796D02*
X11426456Y-12830320D01*
X11426456Y-12830320D02*
X11407408Y-12839844D01*
X11407408Y-12839844D02*
X11359789Y-12839844D01*
X11359789Y-12839844D02*
X11340742Y-12830320D01*
X11340742Y-12830320D02*
X11331218Y-12820796D01*
X11521694Y-12639844D02*
X11521694Y-12677939D01*
X11597885Y-12639844D02*
X11597885Y-12677939D01*
X11893123Y-12916034D02*
X11883599Y-12906510D01*
X11883599Y-12906510D02*
X11864551Y-12877939D01*
X11864551Y-12877939D02*
X11855028Y-12858891D01*
X11855028Y-12858891D02*
X11845504Y-12830320D01*
X11845504Y-12830320D02*
X11835980Y-12782701D01*
X11835980Y-12782701D02*
X11835980Y-12744606D01*
X11835980Y-12744606D02*
X11845504Y-12696987D01*
X11845504Y-12696987D02*
X11855028Y-12668415D01*
X11855028Y-12668415D02*
X11864551Y-12649368D01*
X11864551Y-12649368D02*
X11883599Y-12620796D01*
X11883599Y-12620796D02*
X11893123Y-12611272D01*
X11959789Y-12658891D02*
X11969313Y-12649368D01*
X11969313Y-12649368D02*
X11988361Y-12639844D01*
X11988361Y-12639844D02*
X12035980Y-12639844D01*
X12035980Y-12639844D02*
X12055028Y-12649368D01*
X12055028Y-12649368D02*
X12064551Y-12658891D01*
X12064551Y-12658891D02*
X12074075Y-12677939D01*
X12074075Y-12677939D02*
X12074075Y-12696987D01*
X12074075Y-12696987D02*
X12064551Y-12725558D01*
X12064551Y-12725558D02*
X11950266Y-12839844D01*
X11950266Y-12839844D02*
X12074075Y-12839844D01*
X12245504Y-12706510D02*
X12245504Y-12839844D01*
X12197885Y-12630320D02*
X12150266Y-12773177D01*
X12150266Y-12773177D02*
X12274075Y-12773177D01*
X12502647Y-12839844D02*
X12502647Y-12639844D01*
X12588361Y-12839844D02*
X12588361Y-12735082D01*
X12588361Y-12735082D02*
X12578837Y-12716034D01*
X12578837Y-12716034D02*
X12559790Y-12706510D01*
X12559790Y-12706510D02*
X12531218Y-12706510D01*
X12531218Y-12706510D02*
X12512170Y-12716034D01*
X12512170Y-12716034D02*
X12502647Y-12725558D01*
X12712170Y-12839844D02*
X12693123Y-12830320D01*
X12693123Y-12830320D02*
X12683599Y-12820796D01*
X12683599Y-12820796D02*
X12674075Y-12801748D01*
X12674075Y-12801748D02*
X12674075Y-12744606D01*
X12674075Y-12744606D02*
X12683599Y-12725558D01*
X12683599Y-12725558D02*
X12693123Y-12716034D01*
X12693123Y-12716034D02*
X12712170Y-12706510D01*
X12712170Y-12706510D02*
X12740742Y-12706510D01*
X12740742Y-12706510D02*
X12759790Y-12716034D01*
X12759790Y-12716034D02*
X12769313Y-12725558D01*
X12769313Y-12725558D02*
X12778837Y-12744606D01*
X12778837Y-12744606D02*
X12778837Y-12801748D01*
X12778837Y-12801748D02*
X12769313Y-12820796D01*
X12769313Y-12820796D02*
X12759790Y-12830320D01*
X12759790Y-12830320D02*
X12740742Y-12839844D01*
X12740742Y-12839844D02*
X12712170Y-12839844D01*
X12893123Y-12839844D02*
X12874075Y-12830320D01*
X12874075Y-12830320D02*
X12864551Y-12811272D01*
X12864551Y-12811272D02*
X12864551Y-12639844D01*
X13045504Y-12830320D02*
X13026456Y-12839844D01*
X13026456Y-12839844D02*
X12988361Y-12839844D01*
X12988361Y-12839844D02*
X12969313Y-12830320D01*
X12969313Y-12830320D02*
X12959790Y-12811272D01*
X12959790Y-12811272D02*
X12959790Y-12735082D01*
X12959790Y-12735082D02*
X12969313Y-12716034D01*
X12969313Y-12716034D02*
X12988361Y-12706510D01*
X12988361Y-12706510D02*
X13026456Y-12706510D01*
X13026456Y-12706510D02*
X13045504Y-12716034D01*
X13045504Y-12716034D02*
X13055028Y-12735082D01*
X13055028Y-12735082D02*
X13055028Y-12754129D01*
X13055028Y-12754129D02*
X12959790Y-12773177D01*
X13131218Y-12830320D02*
X13150266Y-12839844D01*
X13150266Y-12839844D02*
X13188361Y-12839844D01*
X13188361Y-12839844D02*
X13207409Y-12830320D01*
X13207409Y-12830320D02*
X13216932Y-12811272D01*
X13216932Y-12811272D02*
X13216932Y-12801748D01*
X13216932Y-12801748D02*
X13207409Y-12782701D01*
X13207409Y-12782701D02*
X13188361Y-12773177D01*
X13188361Y-12773177D02*
X13159790Y-12773177D01*
X13159790Y-12773177D02*
X13140742Y-12763653D01*
X13140742Y-12763653D02*
X13131218Y-12744606D01*
X13131218Y-12744606D02*
X13131218Y-12735082D01*
X13131218Y-12735082D02*
X13140742Y-12716034D01*
X13140742Y-12716034D02*
X13159790Y-12706510D01*
X13159790Y-12706510D02*
X13188361Y-12706510D01*
X13188361Y-12706510D02*
X13207409Y-12716034D01*
X13283599Y-12916034D02*
X13293123Y-12906510D01*
X13293123Y-12906510D02*
X13312171Y-12877939D01*
X13312171Y-12877939D02*
X13321694Y-12858891D01*
X13321694Y-12858891D02*
X13331218Y-12830320D01*
X13331218Y-12830320D02*
X13340742Y-12782701D01*
X13340742Y-12782701D02*
X13340742Y-12744606D01*
X13340742Y-12744606D02*
X13331218Y-12696987D01*
X13331218Y-12696987D02*
X13321694Y-12668415D01*
X13321694Y-12668415D02*
X13312171Y-12649368D01*
X13312171Y-12649368D02*
X13293123Y-12620796D01*
X13293123Y-12620796D02*
X13283599Y-12611272D01*
D13*
X8268060Y-12962360D02*
X8268060Y-13062360D01*
X8218060Y-13012360D02*
X8318060Y-13012360D01*
D10*
X8683599Y-13103844D02*
X8569313Y-13103844D01*
X8626456Y-13103844D02*
X8626456Y-12903844D01*
X8626456Y-12903844D02*
X8607408Y-12932415D01*
X8607408Y-12932415D02*
X8588361Y-12951463D01*
X8588361Y-12951463D02*
X8569313Y-12960987D01*
X8769313Y-13084796D02*
X8778837Y-13094320D01*
X8778837Y-13094320D02*
X8769313Y-13103844D01*
X8769313Y-13103844D02*
X8759789Y-13094320D01*
X8759789Y-13094320D02*
X8769313Y-13084796D01*
X8769313Y-13084796D02*
X8769313Y-13103844D01*
X8902646Y-12903844D02*
X8921694Y-12903844D01*
X8921694Y-12903844D02*
X8940742Y-12913368D01*
X8940742Y-12913368D02*
X8950265Y-12922891D01*
X8950265Y-12922891D02*
X8959789Y-12941939D01*
X8959789Y-12941939D02*
X8969313Y-12980034D01*
X8969313Y-12980034D02*
X8969313Y-13027653D01*
X8969313Y-13027653D02*
X8959789Y-13065748D01*
X8959789Y-13065748D02*
X8950265Y-13084796D01*
X8950265Y-13084796D02*
X8940742Y-13094320D01*
X8940742Y-13094320D02*
X8921694Y-13103844D01*
X8921694Y-13103844D02*
X8902646Y-13103844D01*
X8902646Y-13103844D02*
X8883599Y-13094320D01*
X8883599Y-13094320D02*
X8874075Y-13084796D01*
X8874075Y-13084796D02*
X8864551Y-13065748D01*
X8864551Y-13065748D02*
X8855027Y-13027653D01*
X8855027Y-13027653D02*
X8855027Y-12980034D01*
X8855027Y-12980034D02*
X8864551Y-12941939D01*
X8864551Y-12941939D02*
X8874075Y-12922891D01*
X8874075Y-12922891D02*
X8883599Y-12913368D01*
X8883599Y-12913368D02*
X8902646Y-12903844D01*
X9093123Y-12903844D02*
X9112170Y-12903844D01*
X9112170Y-12903844D02*
X9131218Y-12913368D01*
X9131218Y-12913368D02*
X9140742Y-12922891D01*
X9140742Y-12922891D02*
X9150265Y-12941939D01*
X9150265Y-12941939D02*
X9159789Y-12980034D01*
X9159789Y-12980034D02*
X9159789Y-13027653D01*
X9159789Y-13027653D02*
X9150265Y-13065748D01*
X9150265Y-13065748D02*
X9140742Y-13084796D01*
X9140742Y-13084796D02*
X9131218Y-13094320D01*
X9131218Y-13094320D02*
X9112170Y-13103844D01*
X9112170Y-13103844D02*
X9093123Y-13103844D01*
X9093123Y-13103844D02*
X9074075Y-13094320D01*
X9074075Y-13094320D02*
X9064551Y-13084796D01*
X9064551Y-13084796D02*
X9055027Y-13065748D01*
X9055027Y-13065748D02*
X9045504Y-13027653D01*
X9045504Y-13027653D02*
X9045504Y-12980034D01*
X9045504Y-12980034D02*
X9055027Y-12941939D01*
X9055027Y-12941939D02*
X9064551Y-12922891D01*
X9064551Y-12922891D02*
X9074075Y-12913368D01*
X9074075Y-12913368D02*
X9093123Y-12903844D01*
X9283599Y-12903844D02*
X9302646Y-12903844D01*
X9302646Y-12903844D02*
X9321694Y-12913368D01*
X9321694Y-12913368D02*
X9331218Y-12922891D01*
X9331218Y-12922891D02*
X9340742Y-12941939D01*
X9340742Y-12941939D02*
X9350265Y-12980034D01*
X9350265Y-12980034D02*
X9350265Y-13027653D01*
X9350265Y-13027653D02*
X9340742Y-13065748D01*
X9340742Y-13065748D02*
X9331218Y-13084796D01*
X9331218Y-13084796D02*
X9321694Y-13094320D01*
X9321694Y-13094320D02*
X9302646Y-13103844D01*
X9302646Y-13103844D02*
X9283599Y-13103844D01*
X9283599Y-13103844D02*
X9264551Y-13094320D01*
X9264551Y-13094320D02*
X9255027Y-13084796D01*
X9255027Y-13084796D02*
X9245504Y-13065748D01*
X9245504Y-13065748D02*
X9235980Y-13027653D01*
X9235980Y-13027653D02*
X9235980Y-12980034D01*
X9235980Y-12980034D02*
X9245504Y-12941939D01*
X9245504Y-12941939D02*
X9255027Y-12922891D01*
X9255027Y-12922891D02*
X9264551Y-12913368D01*
X9264551Y-12913368D02*
X9283599Y-12903844D01*
X9435980Y-13103844D02*
X9435980Y-12970510D01*
X9435980Y-12989558D02*
X9445504Y-12980034D01*
X9445504Y-12980034D02*
X9464551Y-12970510D01*
X9464551Y-12970510D02*
X9493123Y-12970510D01*
X9493123Y-12970510D02*
X9512170Y-12980034D01*
X9512170Y-12980034D02*
X9521694Y-12999082D01*
X9521694Y-12999082D02*
X9521694Y-13103844D01*
X9521694Y-12999082D02*
X9531218Y-12980034D01*
X9531218Y-12980034D02*
X9550265Y-12970510D01*
X9550265Y-12970510D02*
X9578837Y-12970510D01*
X9578837Y-12970510D02*
X9597885Y-12980034D01*
X9597885Y-12980034D02*
X9607408Y-12999082D01*
X9607408Y-12999082D02*
X9607408Y-13103844D01*
X9702646Y-13103844D02*
X9702646Y-12970510D01*
X9702646Y-12989558D02*
X9712170Y-12980034D01*
X9712170Y-12980034D02*
X9731218Y-12970510D01*
X9731218Y-12970510D02*
X9759789Y-12970510D01*
X9759789Y-12970510D02*
X9778837Y-12980034D01*
X9778837Y-12980034D02*
X9788361Y-12999082D01*
X9788361Y-12999082D02*
X9788361Y-13103844D01*
X9788361Y-12999082D02*
X9797885Y-12980034D01*
X9797885Y-12980034D02*
X9816932Y-12970510D01*
X9816932Y-12970510D02*
X9845504Y-12970510D01*
X9845504Y-12970510D02*
X9864551Y-12980034D01*
X9864551Y-12980034D02*
X9874075Y-12999082D01*
X9874075Y-12999082D02*
X9874075Y-13103844D01*
X10264551Y-12894320D02*
X10093123Y-13151463D01*
X10521694Y-12903844D02*
X10540742Y-12903844D01*
X10540742Y-12903844D02*
X10559789Y-12913368D01*
X10559789Y-12913368D02*
X10569313Y-12922891D01*
X10569313Y-12922891D02*
X10578837Y-12941939D01*
X10578837Y-12941939D02*
X10588361Y-12980034D01*
X10588361Y-12980034D02*
X10588361Y-13027653D01*
X10588361Y-13027653D02*
X10578837Y-13065748D01*
X10578837Y-13065748D02*
X10569313Y-13084796D01*
X10569313Y-13084796D02*
X10559789Y-13094320D01*
X10559789Y-13094320D02*
X10540742Y-13103844D01*
X10540742Y-13103844D02*
X10521694Y-13103844D01*
X10521694Y-13103844D02*
X10502647Y-13094320D01*
X10502647Y-13094320D02*
X10493123Y-13084796D01*
X10493123Y-13084796D02*
X10483599Y-13065748D01*
X10483599Y-13065748D02*
X10474075Y-13027653D01*
X10474075Y-13027653D02*
X10474075Y-12980034D01*
X10474075Y-12980034D02*
X10483599Y-12941939D01*
X10483599Y-12941939D02*
X10493123Y-12922891D01*
X10493123Y-12922891D02*
X10502647Y-12913368D01*
X10502647Y-12913368D02*
X10521694Y-12903844D01*
X10674075Y-13084796D02*
X10683599Y-13094320D01*
X10683599Y-13094320D02*
X10674075Y-13103844D01*
X10674075Y-13103844D02*
X10664551Y-13094320D01*
X10664551Y-13094320D02*
X10674075Y-13084796D01*
X10674075Y-13084796D02*
X10674075Y-13103844D01*
X10807408Y-12903844D02*
X10826456Y-12903844D01*
X10826456Y-12903844D02*
X10845504Y-12913368D01*
X10845504Y-12913368D02*
X10855028Y-12922891D01*
X10855028Y-12922891D02*
X10864551Y-12941939D01*
X10864551Y-12941939D02*
X10874075Y-12980034D01*
X10874075Y-12980034D02*
X10874075Y-13027653D01*
X10874075Y-13027653D02*
X10864551Y-13065748D01*
X10864551Y-13065748D02*
X10855028Y-13084796D01*
X10855028Y-13084796D02*
X10845504Y-13094320D01*
X10845504Y-13094320D02*
X10826456Y-13103844D01*
X10826456Y-13103844D02*
X10807408Y-13103844D01*
X10807408Y-13103844D02*
X10788361Y-13094320D01*
X10788361Y-13094320D02*
X10778837Y-13084796D01*
X10778837Y-13084796D02*
X10769313Y-13065748D01*
X10769313Y-13065748D02*
X10759789Y-13027653D01*
X10759789Y-13027653D02*
X10759789Y-12980034D01*
X10759789Y-12980034D02*
X10769313Y-12941939D01*
X10769313Y-12941939D02*
X10778837Y-12922891D01*
X10778837Y-12922891D02*
X10788361Y-12913368D01*
X10788361Y-12913368D02*
X10807408Y-12903844D01*
X10940742Y-12903844D02*
X11064551Y-12903844D01*
X11064551Y-12903844D02*
X10997885Y-12980034D01*
X10997885Y-12980034D02*
X11026456Y-12980034D01*
X11026456Y-12980034D02*
X11045504Y-12989558D01*
X11045504Y-12989558D02*
X11055028Y-12999082D01*
X11055028Y-12999082D02*
X11064551Y-13018129D01*
X11064551Y-13018129D02*
X11064551Y-13065748D01*
X11064551Y-13065748D02*
X11055028Y-13084796D01*
X11055028Y-13084796D02*
X11045504Y-13094320D01*
X11045504Y-13094320D02*
X11026456Y-13103844D01*
X11026456Y-13103844D02*
X10969313Y-13103844D01*
X10969313Y-13103844D02*
X10950266Y-13094320D01*
X10950266Y-13094320D02*
X10940742Y-13084796D01*
X11159789Y-13103844D02*
X11197885Y-13103844D01*
X11197885Y-13103844D02*
X11216932Y-13094320D01*
X11216932Y-13094320D02*
X11226456Y-13084796D01*
X11226456Y-13084796D02*
X11245504Y-13056225D01*
X11245504Y-13056225D02*
X11255027Y-13018129D01*
X11255027Y-13018129D02*
X11255027Y-12941939D01*
X11255027Y-12941939D02*
X11245504Y-12922891D01*
X11245504Y-12922891D02*
X11235980Y-12913368D01*
X11235980Y-12913368D02*
X11216932Y-12903844D01*
X11216932Y-12903844D02*
X11178837Y-12903844D01*
X11178837Y-12903844D02*
X11159789Y-12913368D01*
X11159789Y-12913368D02*
X11150266Y-12922891D01*
X11150266Y-12922891D02*
X11140742Y-12941939D01*
X11140742Y-12941939D02*
X11140742Y-12989558D01*
X11140742Y-12989558D02*
X11150266Y-13008606D01*
X11150266Y-13008606D02*
X11159789Y-13018129D01*
X11159789Y-13018129D02*
X11178837Y-13027653D01*
X11178837Y-13027653D02*
X11216932Y-13027653D01*
X11216932Y-13027653D02*
X11235980Y-13018129D01*
X11235980Y-13018129D02*
X11245504Y-13008606D01*
X11245504Y-13008606D02*
X11255027Y-12989558D01*
X11426456Y-12970510D02*
X11426456Y-13103844D01*
X11378837Y-12894320D02*
X11331218Y-13037177D01*
X11331218Y-13037177D02*
X11455027Y-13037177D01*
X11521694Y-12903844D02*
X11521694Y-12941939D01*
X11597885Y-12903844D02*
X11597885Y-12941939D01*
X11893123Y-13180034D02*
X11883599Y-13170510D01*
X11883599Y-13170510D02*
X11864551Y-13141939D01*
X11864551Y-13141939D02*
X11855028Y-13122891D01*
X11855028Y-13122891D02*
X11845504Y-13094320D01*
X11845504Y-13094320D02*
X11835980Y-13046701D01*
X11835980Y-13046701D02*
X11835980Y-13008606D01*
X11835980Y-13008606D02*
X11845504Y-12960987D01*
X11845504Y-12960987D02*
X11855028Y-12932415D01*
X11855028Y-12932415D02*
X11864551Y-12913368D01*
X11864551Y-12913368D02*
X11883599Y-12884796D01*
X11883599Y-12884796D02*
X11893123Y-12875272D01*
X11978837Y-13103844D02*
X12016932Y-13103844D01*
X12016932Y-13103844D02*
X12035980Y-13094320D01*
X12035980Y-13094320D02*
X12045504Y-13084796D01*
X12045504Y-13084796D02*
X12064551Y-13056225D01*
X12064551Y-13056225D02*
X12074075Y-13018129D01*
X12074075Y-13018129D02*
X12074075Y-12941939D01*
X12074075Y-12941939D02*
X12064551Y-12922891D01*
X12064551Y-12922891D02*
X12055028Y-12913368D01*
X12055028Y-12913368D02*
X12035980Y-12903844D01*
X12035980Y-12903844D02*
X11997885Y-12903844D01*
X11997885Y-12903844D02*
X11978837Y-12913368D01*
X11978837Y-12913368D02*
X11969313Y-12922891D01*
X11969313Y-12922891D02*
X11959789Y-12941939D01*
X11959789Y-12941939D02*
X11959789Y-12989558D01*
X11959789Y-12989558D02*
X11969313Y-13008606D01*
X11969313Y-13008606D02*
X11978837Y-13018129D01*
X11978837Y-13018129D02*
X11997885Y-13027653D01*
X11997885Y-13027653D02*
X12035980Y-13027653D01*
X12035980Y-13027653D02*
X12055028Y-13018129D01*
X12055028Y-13018129D02*
X12064551Y-13008606D01*
X12064551Y-13008606D02*
X12074075Y-12989558D01*
X12140742Y-12903844D02*
X12274075Y-12903844D01*
X12274075Y-12903844D02*
X12188361Y-13103844D01*
X12502647Y-13103844D02*
X12502647Y-12903844D01*
X12588361Y-13103844D02*
X12588361Y-12999082D01*
X12588361Y-12999082D02*
X12578837Y-12980034D01*
X12578837Y-12980034D02*
X12559790Y-12970510D01*
X12559790Y-12970510D02*
X12531218Y-12970510D01*
X12531218Y-12970510D02*
X12512170Y-12980034D01*
X12512170Y-12980034D02*
X12502647Y-12989558D01*
X12712170Y-13103844D02*
X12693123Y-13094320D01*
X12693123Y-13094320D02*
X12683599Y-13084796D01*
X12683599Y-13084796D02*
X12674075Y-13065748D01*
X12674075Y-13065748D02*
X12674075Y-13008606D01*
X12674075Y-13008606D02*
X12683599Y-12989558D01*
X12683599Y-12989558D02*
X12693123Y-12980034D01*
X12693123Y-12980034D02*
X12712170Y-12970510D01*
X12712170Y-12970510D02*
X12740742Y-12970510D01*
X12740742Y-12970510D02*
X12759790Y-12980034D01*
X12759790Y-12980034D02*
X12769313Y-12989558D01*
X12769313Y-12989558D02*
X12778837Y-13008606D01*
X12778837Y-13008606D02*
X12778837Y-13065748D01*
X12778837Y-13065748D02*
X12769313Y-13084796D01*
X12769313Y-13084796D02*
X12759790Y-13094320D01*
X12759790Y-13094320D02*
X12740742Y-13103844D01*
X12740742Y-13103844D02*
X12712170Y-13103844D01*
X12893123Y-13103844D02*
X12874075Y-13094320D01*
X12874075Y-13094320D02*
X12864551Y-13075272D01*
X12864551Y-13075272D02*
X12864551Y-12903844D01*
X13045504Y-13094320D02*
X13026456Y-13103844D01*
X13026456Y-13103844D02*
X12988361Y-13103844D01*
X12988361Y-13103844D02*
X12969313Y-13094320D01*
X12969313Y-13094320D02*
X12959790Y-13075272D01*
X12959790Y-13075272D02*
X12959790Y-12999082D01*
X12959790Y-12999082D02*
X12969313Y-12980034D01*
X12969313Y-12980034D02*
X12988361Y-12970510D01*
X12988361Y-12970510D02*
X13026456Y-12970510D01*
X13026456Y-12970510D02*
X13045504Y-12980034D01*
X13045504Y-12980034D02*
X13055028Y-12999082D01*
X13055028Y-12999082D02*
X13055028Y-13018129D01*
X13055028Y-13018129D02*
X12959790Y-13037177D01*
X13131218Y-13094320D02*
X13150266Y-13103844D01*
X13150266Y-13103844D02*
X13188361Y-13103844D01*
X13188361Y-13103844D02*
X13207409Y-13094320D01*
X13207409Y-13094320D02*
X13216932Y-13075272D01*
X13216932Y-13075272D02*
X13216932Y-13065748D01*
X13216932Y-13065748D02*
X13207409Y-13046701D01*
X13207409Y-13046701D02*
X13188361Y-13037177D01*
X13188361Y-13037177D02*
X13159790Y-13037177D01*
X13159790Y-13037177D02*
X13140742Y-13027653D01*
X13140742Y-13027653D02*
X13131218Y-13008606D01*
X13131218Y-13008606D02*
X13131218Y-12999082D01*
X13131218Y-12999082D02*
X13140742Y-12980034D01*
X13140742Y-12980034D02*
X13159790Y-12970510D01*
X13159790Y-12970510D02*
X13188361Y-12970510D01*
X13188361Y-12970510D02*
X13207409Y-12980034D01*
X13283599Y-13180034D02*
X13293123Y-13170510D01*
X13293123Y-13170510D02*
X13312171Y-13141939D01*
X13312171Y-13141939D02*
X13321694Y-13122891D01*
X13321694Y-13122891D02*
X13331218Y-13094320D01*
X13331218Y-13094320D02*
X13340742Y-13046701D01*
X13340742Y-13046701D02*
X13340742Y-13008606D01*
X13340742Y-13008606D02*
X13331218Y-12960987D01*
X13331218Y-12960987D02*
X13321694Y-12932415D01*
X13321694Y-12932415D02*
X13312171Y-12913368D01*
X13312171Y-12913368D02*
X13293123Y-12884796D01*
X13293123Y-12884796D02*
X13283599Y-12875272D01*
X8288771Y-13347071D02*
X8288771Y-13205649D01*
X8147349Y-13205649D01*
X8147349Y-13347071D01*
X8288771Y-13347071D01*
X8569313Y-13186891D02*
X8578837Y-13177368D01*
X8578837Y-13177368D02*
X8597884Y-13167844D01*
X8597884Y-13167844D02*
X8645504Y-13167844D01*
X8645504Y-13167844D02*
X8664551Y-13177368D01*
X8664551Y-13177368D02*
X8674075Y-13186891D01*
X8674075Y-13186891D02*
X8683599Y-13205939D01*
X8683599Y-13205939D02*
X8683599Y-13224987D01*
X8683599Y-13224987D02*
X8674075Y-13253558D01*
X8674075Y-13253558D02*
X8559789Y-13367844D01*
X8559789Y-13367844D02*
X8683599Y-13367844D01*
X8769313Y-13348796D02*
X8778837Y-13358320D01*
X8778837Y-13358320D02*
X8769313Y-13367844D01*
X8769313Y-13367844D02*
X8759789Y-13358320D01*
X8759789Y-13358320D02*
X8769313Y-13348796D01*
X8769313Y-13348796D02*
X8769313Y-13367844D01*
X8950265Y-13234510D02*
X8950265Y-13367844D01*
X8902646Y-13158320D02*
X8855027Y-13301177D01*
X8855027Y-13301177D02*
X8978837Y-13301177D01*
X9083599Y-13253558D02*
X9064551Y-13244034D01*
X9064551Y-13244034D02*
X9055027Y-13234510D01*
X9055027Y-13234510D02*
X9045504Y-13215463D01*
X9045504Y-13215463D02*
X9045504Y-13205939D01*
X9045504Y-13205939D02*
X9055027Y-13186891D01*
X9055027Y-13186891D02*
X9064551Y-13177368D01*
X9064551Y-13177368D02*
X9083599Y-13167844D01*
X9083599Y-13167844D02*
X9121694Y-13167844D01*
X9121694Y-13167844D02*
X9140742Y-13177368D01*
X9140742Y-13177368D02*
X9150265Y-13186891D01*
X9150265Y-13186891D02*
X9159789Y-13205939D01*
X9159789Y-13205939D02*
X9159789Y-13215463D01*
X9159789Y-13215463D02*
X9150265Y-13234510D01*
X9150265Y-13234510D02*
X9140742Y-13244034D01*
X9140742Y-13244034D02*
X9121694Y-13253558D01*
X9121694Y-13253558D02*
X9083599Y-13253558D01*
X9083599Y-13253558D02*
X9064551Y-13263082D01*
X9064551Y-13263082D02*
X9055027Y-13272606D01*
X9055027Y-13272606D02*
X9045504Y-13291653D01*
X9045504Y-13291653D02*
X9045504Y-13329748D01*
X9045504Y-13329748D02*
X9055027Y-13348796D01*
X9055027Y-13348796D02*
X9064551Y-13358320D01*
X9064551Y-13358320D02*
X9083599Y-13367844D01*
X9083599Y-13367844D02*
X9121694Y-13367844D01*
X9121694Y-13367844D02*
X9140742Y-13358320D01*
X9140742Y-13358320D02*
X9150265Y-13348796D01*
X9150265Y-13348796D02*
X9159789Y-13329748D01*
X9159789Y-13329748D02*
X9159789Y-13291653D01*
X9159789Y-13291653D02*
X9150265Y-13272606D01*
X9150265Y-13272606D02*
X9140742Y-13263082D01*
X9140742Y-13263082D02*
X9121694Y-13253558D01*
X9255027Y-13367844D02*
X9293123Y-13367844D01*
X9293123Y-13367844D02*
X9312170Y-13358320D01*
X9312170Y-13358320D02*
X9321694Y-13348796D01*
X9321694Y-13348796D02*
X9340742Y-13320225D01*
X9340742Y-13320225D02*
X9350265Y-13282129D01*
X9350265Y-13282129D02*
X9350265Y-13205939D01*
X9350265Y-13205939D02*
X9340742Y-13186891D01*
X9340742Y-13186891D02*
X9331218Y-13177368D01*
X9331218Y-13177368D02*
X9312170Y-13167844D01*
X9312170Y-13167844D02*
X9274075Y-13167844D01*
X9274075Y-13167844D02*
X9255027Y-13177368D01*
X9255027Y-13177368D02*
X9245504Y-13186891D01*
X9245504Y-13186891D02*
X9235980Y-13205939D01*
X9235980Y-13205939D02*
X9235980Y-13253558D01*
X9235980Y-13253558D02*
X9245504Y-13272606D01*
X9245504Y-13272606D02*
X9255027Y-13282129D01*
X9255027Y-13282129D02*
X9274075Y-13291653D01*
X9274075Y-13291653D02*
X9312170Y-13291653D01*
X9312170Y-13291653D02*
X9331218Y-13282129D01*
X9331218Y-13282129D02*
X9340742Y-13272606D01*
X9340742Y-13272606D02*
X9350265Y-13253558D01*
X9435980Y-13367844D02*
X9435980Y-13234510D01*
X9435980Y-13253558D02*
X9445504Y-13244034D01*
X9445504Y-13244034D02*
X9464551Y-13234510D01*
X9464551Y-13234510D02*
X9493123Y-13234510D01*
X9493123Y-13234510D02*
X9512170Y-13244034D01*
X9512170Y-13244034D02*
X9521694Y-13263082D01*
X9521694Y-13263082D02*
X9521694Y-13367844D01*
X9521694Y-13263082D02*
X9531218Y-13244034D01*
X9531218Y-13244034D02*
X9550265Y-13234510D01*
X9550265Y-13234510D02*
X9578837Y-13234510D01*
X9578837Y-13234510D02*
X9597885Y-13244034D01*
X9597885Y-13244034D02*
X9607408Y-13263082D01*
X9607408Y-13263082D02*
X9607408Y-13367844D01*
X9702646Y-13367844D02*
X9702646Y-13234510D01*
X9702646Y-13253558D02*
X9712170Y-13244034D01*
X9712170Y-13244034D02*
X9731218Y-13234510D01*
X9731218Y-13234510D02*
X9759789Y-13234510D01*
X9759789Y-13234510D02*
X9778837Y-13244034D01*
X9778837Y-13244034D02*
X9788361Y-13263082D01*
X9788361Y-13263082D02*
X9788361Y-13367844D01*
X9788361Y-13263082D02*
X9797885Y-13244034D01*
X9797885Y-13244034D02*
X9816932Y-13234510D01*
X9816932Y-13234510D02*
X9845504Y-13234510D01*
X9845504Y-13234510D02*
X9864551Y-13244034D01*
X9864551Y-13244034D02*
X9874075Y-13263082D01*
X9874075Y-13263082D02*
X9874075Y-13367844D01*
X10264551Y-13158320D02*
X10093123Y-13415463D01*
X10521694Y-13167844D02*
X10540742Y-13167844D01*
X10540742Y-13167844D02*
X10559789Y-13177368D01*
X10559789Y-13177368D02*
X10569313Y-13186891D01*
X10569313Y-13186891D02*
X10578837Y-13205939D01*
X10578837Y-13205939D02*
X10588361Y-13244034D01*
X10588361Y-13244034D02*
X10588361Y-13291653D01*
X10588361Y-13291653D02*
X10578837Y-13329748D01*
X10578837Y-13329748D02*
X10569313Y-13348796D01*
X10569313Y-13348796D02*
X10559789Y-13358320D01*
X10559789Y-13358320D02*
X10540742Y-13367844D01*
X10540742Y-13367844D02*
X10521694Y-13367844D01*
X10521694Y-13367844D02*
X10502647Y-13358320D01*
X10502647Y-13358320D02*
X10493123Y-13348796D01*
X10493123Y-13348796D02*
X10483599Y-13329748D01*
X10483599Y-13329748D02*
X10474075Y-13291653D01*
X10474075Y-13291653D02*
X10474075Y-13244034D01*
X10474075Y-13244034D02*
X10483599Y-13205939D01*
X10483599Y-13205939D02*
X10493123Y-13186891D01*
X10493123Y-13186891D02*
X10502647Y-13177368D01*
X10502647Y-13177368D02*
X10521694Y-13167844D01*
X10674075Y-13348796D02*
X10683599Y-13358320D01*
X10683599Y-13358320D02*
X10674075Y-13367844D01*
X10674075Y-13367844D02*
X10664551Y-13358320D01*
X10664551Y-13358320D02*
X10674075Y-13348796D01*
X10674075Y-13348796D02*
X10674075Y-13367844D01*
X10807408Y-13167844D02*
X10826456Y-13167844D01*
X10826456Y-13167844D02*
X10845504Y-13177368D01*
X10845504Y-13177368D02*
X10855028Y-13186891D01*
X10855028Y-13186891D02*
X10864551Y-13205939D01*
X10864551Y-13205939D02*
X10874075Y-13244034D01*
X10874075Y-13244034D02*
X10874075Y-13291653D01*
X10874075Y-13291653D02*
X10864551Y-13329748D01*
X10864551Y-13329748D02*
X10855028Y-13348796D01*
X10855028Y-13348796D02*
X10845504Y-13358320D01*
X10845504Y-13358320D02*
X10826456Y-13367844D01*
X10826456Y-13367844D02*
X10807408Y-13367844D01*
X10807408Y-13367844D02*
X10788361Y-13358320D01*
X10788361Y-13358320D02*
X10778837Y-13348796D01*
X10778837Y-13348796D02*
X10769313Y-13329748D01*
X10769313Y-13329748D02*
X10759789Y-13291653D01*
X10759789Y-13291653D02*
X10759789Y-13244034D01*
X10759789Y-13244034D02*
X10769313Y-13205939D01*
X10769313Y-13205939D02*
X10778837Y-13186891D01*
X10778837Y-13186891D02*
X10788361Y-13177368D01*
X10788361Y-13177368D02*
X10807408Y-13167844D01*
X10969313Y-13367844D02*
X11007408Y-13367844D01*
X11007408Y-13367844D02*
X11026456Y-13358320D01*
X11026456Y-13358320D02*
X11035980Y-13348796D01*
X11035980Y-13348796D02*
X11055028Y-13320225D01*
X11055028Y-13320225D02*
X11064551Y-13282129D01*
X11064551Y-13282129D02*
X11064551Y-13205939D01*
X11064551Y-13205939D02*
X11055028Y-13186891D01*
X11055028Y-13186891D02*
X11045504Y-13177368D01*
X11045504Y-13177368D02*
X11026456Y-13167844D01*
X11026456Y-13167844D02*
X10988361Y-13167844D01*
X10988361Y-13167844D02*
X10969313Y-13177368D01*
X10969313Y-13177368D02*
X10959789Y-13186891D01*
X10959789Y-13186891D02*
X10950266Y-13205939D01*
X10950266Y-13205939D02*
X10950266Y-13253558D01*
X10950266Y-13253558D02*
X10959789Y-13272606D01*
X10959789Y-13272606D02*
X10969313Y-13282129D01*
X10969313Y-13282129D02*
X10988361Y-13291653D01*
X10988361Y-13291653D02*
X11026456Y-13291653D01*
X11026456Y-13291653D02*
X11045504Y-13282129D01*
X11045504Y-13282129D02*
X11055028Y-13272606D01*
X11055028Y-13272606D02*
X11064551Y-13253558D01*
X11178837Y-13253558D02*
X11159789Y-13244034D01*
X11159789Y-13244034D02*
X11150266Y-13234510D01*
X11150266Y-13234510D02*
X11140742Y-13215463D01*
X11140742Y-13215463D02*
X11140742Y-13205939D01*
X11140742Y-13205939D02*
X11150266Y-13186891D01*
X11150266Y-13186891D02*
X11159789Y-13177368D01*
X11159789Y-13177368D02*
X11178837Y-13167844D01*
X11178837Y-13167844D02*
X11216932Y-13167844D01*
X11216932Y-13167844D02*
X11235980Y-13177368D01*
X11235980Y-13177368D02*
X11245504Y-13186891D01*
X11245504Y-13186891D02*
X11255027Y-13205939D01*
X11255027Y-13205939D02*
X11255027Y-13215463D01*
X11255027Y-13215463D02*
X11245504Y-13234510D01*
X11245504Y-13234510D02*
X11235980Y-13244034D01*
X11235980Y-13244034D02*
X11216932Y-13253558D01*
X11216932Y-13253558D02*
X11178837Y-13253558D01*
X11178837Y-13253558D02*
X11159789Y-13263082D01*
X11159789Y-13263082D02*
X11150266Y-13272606D01*
X11150266Y-13272606D02*
X11140742Y-13291653D01*
X11140742Y-13291653D02*
X11140742Y-13329748D01*
X11140742Y-13329748D02*
X11150266Y-13348796D01*
X11150266Y-13348796D02*
X11159789Y-13358320D01*
X11159789Y-13358320D02*
X11178837Y-13367844D01*
X11178837Y-13367844D02*
X11216932Y-13367844D01*
X11216932Y-13367844D02*
X11235980Y-13358320D01*
X11235980Y-13358320D02*
X11245504Y-13348796D01*
X11245504Y-13348796D02*
X11255027Y-13329748D01*
X11255027Y-13329748D02*
X11255027Y-13291653D01*
X11255027Y-13291653D02*
X11245504Y-13272606D01*
X11245504Y-13272606D02*
X11235980Y-13263082D01*
X11235980Y-13263082D02*
X11216932Y-13253558D01*
X11378837Y-13167844D02*
X11397885Y-13167844D01*
X11397885Y-13167844D02*
X11416932Y-13177368D01*
X11416932Y-13177368D02*
X11426456Y-13186891D01*
X11426456Y-13186891D02*
X11435980Y-13205939D01*
X11435980Y-13205939D02*
X11445504Y-13244034D01*
X11445504Y-13244034D02*
X11445504Y-13291653D01*
X11445504Y-13291653D02*
X11435980Y-13329748D01*
X11435980Y-13329748D02*
X11426456Y-13348796D01*
X11426456Y-13348796D02*
X11416932Y-13358320D01*
X11416932Y-13358320D02*
X11397885Y-13367844D01*
X11397885Y-13367844D02*
X11378837Y-13367844D01*
X11378837Y-13367844D02*
X11359789Y-13358320D01*
X11359789Y-13358320D02*
X11350266Y-13348796D01*
X11350266Y-13348796D02*
X11340742Y-13329748D01*
X11340742Y-13329748D02*
X11331218Y-13291653D01*
X11331218Y-13291653D02*
X11331218Y-13244034D01*
X11331218Y-13244034D02*
X11340742Y-13205939D01*
X11340742Y-13205939D02*
X11350266Y-13186891D01*
X11350266Y-13186891D02*
X11359789Y-13177368D01*
X11359789Y-13177368D02*
X11378837Y-13167844D01*
X11521694Y-13167844D02*
X11521694Y-13205939D01*
X11597885Y-13167844D02*
X11597885Y-13205939D01*
X11893123Y-13444034D02*
X11883599Y-13434510D01*
X11883599Y-13434510D02*
X11864551Y-13405939D01*
X11864551Y-13405939D02*
X11855028Y-13386891D01*
X11855028Y-13386891D02*
X11845504Y-13358320D01*
X11845504Y-13358320D02*
X11835980Y-13310701D01*
X11835980Y-13310701D02*
X11835980Y-13272606D01*
X11835980Y-13272606D02*
X11845504Y-13224987D01*
X11845504Y-13224987D02*
X11855028Y-13196415D01*
X11855028Y-13196415D02*
X11864551Y-13177368D01*
X11864551Y-13177368D02*
X11883599Y-13148796D01*
X11883599Y-13148796D02*
X11893123Y-13139272D01*
X11959789Y-13186891D02*
X11969313Y-13177368D01*
X11969313Y-13177368D02*
X11988361Y-13167844D01*
X11988361Y-13167844D02*
X12035980Y-13167844D01*
X12035980Y-13167844D02*
X12055028Y-13177368D01*
X12055028Y-13177368D02*
X12064551Y-13186891D01*
X12064551Y-13186891D02*
X12074075Y-13205939D01*
X12074075Y-13205939D02*
X12074075Y-13224987D01*
X12074075Y-13224987D02*
X12064551Y-13253558D01*
X12064551Y-13253558D02*
X11950266Y-13367844D01*
X11950266Y-13367844D02*
X12074075Y-13367844D01*
X12312170Y-13367844D02*
X12312170Y-13167844D01*
X12397885Y-13367844D02*
X12397885Y-13263082D01*
X12397885Y-13263082D02*
X12388361Y-13244034D01*
X12388361Y-13244034D02*
X12369313Y-13234510D01*
X12369313Y-13234510D02*
X12340742Y-13234510D01*
X12340742Y-13234510D02*
X12321694Y-13244034D01*
X12321694Y-13244034D02*
X12312170Y-13253558D01*
X12521694Y-13367844D02*
X12502647Y-13358320D01*
X12502647Y-13358320D02*
X12493123Y-13348796D01*
X12493123Y-13348796D02*
X12483599Y-13329748D01*
X12483599Y-13329748D02*
X12483599Y-13272606D01*
X12483599Y-13272606D02*
X12493123Y-13253558D01*
X12493123Y-13253558D02*
X12502647Y-13244034D01*
X12502647Y-13244034D02*
X12521694Y-13234510D01*
X12521694Y-13234510D02*
X12550266Y-13234510D01*
X12550266Y-13234510D02*
X12569313Y-13244034D01*
X12569313Y-13244034D02*
X12578837Y-13253558D01*
X12578837Y-13253558D02*
X12588361Y-13272606D01*
X12588361Y-13272606D02*
X12588361Y-13329748D01*
X12588361Y-13329748D02*
X12578837Y-13348796D01*
X12578837Y-13348796D02*
X12569313Y-13358320D01*
X12569313Y-13358320D02*
X12550266Y-13367844D01*
X12550266Y-13367844D02*
X12521694Y-13367844D01*
X12702647Y-13367844D02*
X12683599Y-13358320D01*
X12683599Y-13358320D02*
X12674075Y-13339272D01*
X12674075Y-13339272D02*
X12674075Y-13167844D01*
X12855028Y-13358320D02*
X12835980Y-13367844D01*
X12835980Y-13367844D02*
X12797885Y-13367844D01*
X12797885Y-13367844D02*
X12778837Y-13358320D01*
X12778837Y-13358320D02*
X12769313Y-13339272D01*
X12769313Y-13339272D02*
X12769313Y-13263082D01*
X12769313Y-13263082D02*
X12778837Y-13244034D01*
X12778837Y-13244034D02*
X12797885Y-13234510D01*
X12797885Y-13234510D02*
X12835980Y-13234510D01*
X12835980Y-13234510D02*
X12855028Y-13244034D01*
X12855028Y-13244034D02*
X12864551Y-13263082D01*
X12864551Y-13263082D02*
X12864551Y-13282129D01*
X12864551Y-13282129D02*
X12769313Y-13301177D01*
X12940742Y-13358320D02*
X12959790Y-13367844D01*
X12959790Y-13367844D02*
X12997885Y-13367844D01*
X12997885Y-13367844D02*
X13016932Y-13358320D01*
X13016932Y-13358320D02*
X13026456Y-13339272D01*
X13026456Y-13339272D02*
X13026456Y-13329748D01*
X13026456Y-13329748D02*
X13016932Y-13310701D01*
X13016932Y-13310701D02*
X12997885Y-13301177D01*
X12997885Y-13301177D02*
X12969313Y-13301177D01*
X12969313Y-13301177D02*
X12950266Y-13291653D01*
X12950266Y-13291653D02*
X12940742Y-13272606D01*
X12940742Y-13272606D02*
X12940742Y-13263082D01*
X12940742Y-13263082D02*
X12950266Y-13244034D01*
X12950266Y-13244034D02*
X12969313Y-13234510D01*
X12969313Y-13234510D02*
X12997885Y-13234510D01*
X12997885Y-13234510D02*
X13016932Y-13244034D01*
X13093123Y-13444034D02*
X13102647Y-13434510D01*
X13102647Y-13434510D02*
X13121694Y-13405939D01*
X13121694Y-13405939D02*
X13131218Y-13386891D01*
X13131218Y-13386891D02*
X13140742Y-13358320D01*
X13140742Y-13358320D02*
X13150266Y-13310701D01*
X13150266Y-13310701D02*
X13150266Y-13272606D01*
X13150266Y-13272606D02*
X13140742Y-13224987D01*
X13140742Y-13224987D02*
X13131218Y-13196415D01*
X13131218Y-13196415D02*
X13121694Y-13177368D01*
X13121694Y-13177368D02*
X13102647Y-13148796D01*
X13102647Y-13148796D02*
X13093123Y-13139272D01*
X8218060Y-13696360D02*
X8318060Y-13596360D01*
X8218060Y-13496360D01*
X8118060Y-13596360D01*
X8218060Y-13696360D01*
X8607408Y-13573558D02*
X8588361Y-13564034D01*
X8588361Y-13564034D02*
X8578837Y-13554510D01*
X8578837Y-13554510D02*
X8569313Y-13535463D01*
X8569313Y-13535463D02*
X8569313Y-13525939D01*
X8569313Y-13525939D02*
X8578837Y-13506891D01*
X8578837Y-13506891D02*
X8588361Y-13497368D01*
X8588361Y-13497368D02*
X8607408Y-13487844D01*
X8607408Y-13487844D02*
X8645504Y-13487844D01*
X8645504Y-13487844D02*
X8664551Y-13497368D01*
X8664551Y-13497368D02*
X8674075Y-13506891D01*
X8674075Y-13506891D02*
X8683599Y-13525939D01*
X8683599Y-13525939D02*
X8683599Y-13535463D01*
X8683599Y-13535463D02*
X8674075Y-13554510D01*
X8674075Y-13554510D02*
X8664551Y-13564034D01*
X8664551Y-13564034D02*
X8645504Y-13573558D01*
X8645504Y-13573558D02*
X8607408Y-13573558D01*
X8607408Y-13573558D02*
X8588361Y-13583082D01*
X8588361Y-13583082D02*
X8578837Y-13592606D01*
X8578837Y-13592606D02*
X8569313Y-13611653D01*
X8569313Y-13611653D02*
X8569313Y-13649748D01*
X8569313Y-13649748D02*
X8578837Y-13668796D01*
X8578837Y-13668796D02*
X8588361Y-13678320D01*
X8588361Y-13678320D02*
X8607408Y-13687844D01*
X8607408Y-13687844D02*
X8645504Y-13687844D01*
X8645504Y-13687844D02*
X8664551Y-13678320D01*
X8664551Y-13678320D02*
X8674075Y-13668796D01*
X8674075Y-13668796D02*
X8683599Y-13649748D01*
X8683599Y-13649748D02*
X8683599Y-13611653D01*
X8683599Y-13611653D02*
X8674075Y-13592606D01*
X8674075Y-13592606D02*
X8664551Y-13583082D01*
X8664551Y-13583082D02*
X8645504Y-13573558D01*
X8769313Y-13668796D02*
X8778837Y-13678320D01*
X8778837Y-13678320D02*
X8769313Y-13687844D01*
X8769313Y-13687844D02*
X8759789Y-13678320D01*
X8759789Y-13678320D02*
X8769313Y-13668796D01*
X8769313Y-13668796D02*
X8769313Y-13687844D01*
X8950265Y-13554510D02*
X8950265Y-13687844D01*
X8902646Y-13478320D02*
X8855027Y-13621177D01*
X8855027Y-13621177D02*
X8978837Y-13621177D01*
X9093123Y-13487844D02*
X9112170Y-13487844D01*
X9112170Y-13487844D02*
X9131218Y-13497368D01*
X9131218Y-13497368D02*
X9140742Y-13506891D01*
X9140742Y-13506891D02*
X9150265Y-13525939D01*
X9150265Y-13525939D02*
X9159789Y-13564034D01*
X9159789Y-13564034D02*
X9159789Y-13611653D01*
X9159789Y-13611653D02*
X9150265Y-13649748D01*
X9150265Y-13649748D02*
X9140742Y-13668796D01*
X9140742Y-13668796D02*
X9131218Y-13678320D01*
X9131218Y-13678320D02*
X9112170Y-13687844D01*
X9112170Y-13687844D02*
X9093123Y-13687844D01*
X9093123Y-13687844D02*
X9074075Y-13678320D01*
X9074075Y-13678320D02*
X9064551Y-13668796D01*
X9064551Y-13668796D02*
X9055027Y-13649748D01*
X9055027Y-13649748D02*
X9045504Y-13611653D01*
X9045504Y-13611653D02*
X9045504Y-13564034D01*
X9045504Y-13564034D02*
X9055027Y-13525939D01*
X9055027Y-13525939D02*
X9064551Y-13506891D01*
X9064551Y-13506891D02*
X9074075Y-13497368D01*
X9074075Y-13497368D02*
X9093123Y-13487844D01*
X9283599Y-13487844D02*
X9302646Y-13487844D01*
X9302646Y-13487844D02*
X9321694Y-13497368D01*
X9321694Y-13497368D02*
X9331218Y-13506891D01*
X9331218Y-13506891D02*
X9340742Y-13525939D01*
X9340742Y-13525939D02*
X9350265Y-13564034D01*
X9350265Y-13564034D02*
X9350265Y-13611653D01*
X9350265Y-13611653D02*
X9340742Y-13649748D01*
X9340742Y-13649748D02*
X9331218Y-13668796D01*
X9331218Y-13668796D02*
X9321694Y-13678320D01*
X9321694Y-13678320D02*
X9302646Y-13687844D01*
X9302646Y-13687844D02*
X9283599Y-13687844D01*
X9283599Y-13687844D02*
X9264551Y-13678320D01*
X9264551Y-13678320D02*
X9255027Y-13668796D01*
X9255027Y-13668796D02*
X9245504Y-13649748D01*
X9245504Y-13649748D02*
X9235980Y-13611653D01*
X9235980Y-13611653D02*
X9235980Y-13564034D01*
X9235980Y-13564034D02*
X9245504Y-13525939D01*
X9245504Y-13525939D02*
X9255027Y-13506891D01*
X9255027Y-13506891D02*
X9264551Y-13497368D01*
X9264551Y-13497368D02*
X9283599Y-13487844D01*
X9435980Y-13687844D02*
X9435980Y-13554510D01*
X9435980Y-13573558D02*
X9445504Y-13564034D01*
X9445504Y-13564034D02*
X9464551Y-13554510D01*
X9464551Y-13554510D02*
X9493123Y-13554510D01*
X9493123Y-13554510D02*
X9512170Y-13564034D01*
X9512170Y-13564034D02*
X9521694Y-13583082D01*
X9521694Y-13583082D02*
X9521694Y-13687844D01*
X9521694Y-13583082D02*
X9531218Y-13564034D01*
X9531218Y-13564034D02*
X9550265Y-13554510D01*
X9550265Y-13554510D02*
X9578837Y-13554510D01*
X9578837Y-13554510D02*
X9597885Y-13564034D01*
X9597885Y-13564034D02*
X9607408Y-13583082D01*
X9607408Y-13583082D02*
X9607408Y-13687844D01*
X9702646Y-13687844D02*
X9702646Y-13554510D01*
X9702646Y-13573558D02*
X9712170Y-13564034D01*
X9712170Y-13564034D02*
X9731218Y-13554510D01*
X9731218Y-13554510D02*
X9759789Y-13554510D01*
X9759789Y-13554510D02*
X9778837Y-13564034D01*
X9778837Y-13564034D02*
X9788361Y-13583082D01*
X9788361Y-13583082D02*
X9788361Y-13687844D01*
X9788361Y-13583082D02*
X9797885Y-13564034D01*
X9797885Y-13564034D02*
X9816932Y-13554510D01*
X9816932Y-13554510D02*
X9845504Y-13554510D01*
X9845504Y-13554510D02*
X9864551Y-13564034D01*
X9864551Y-13564034D02*
X9874075Y-13583082D01*
X9874075Y-13583082D02*
X9874075Y-13687844D01*
X10264551Y-13478320D02*
X10093123Y-13735463D01*
X10521694Y-13487844D02*
X10540742Y-13487844D01*
X10540742Y-13487844D02*
X10559789Y-13497368D01*
X10559789Y-13497368D02*
X10569313Y-13506891D01*
X10569313Y-13506891D02*
X10578837Y-13525939D01*
X10578837Y-13525939D02*
X10588361Y-13564034D01*
X10588361Y-13564034D02*
X10588361Y-13611653D01*
X10588361Y-13611653D02*
X10578837Y-13649748D01*
X10578837Y-13649748D02*
X10569313Y-13668796D01*
X10569313Y-13668796D02*
X10559789Y-13678320D01*
X10559789Y-13678320D02*
X10540742Y-13687844D01*
X10540742Y-13687844D02*
X10521694Y-13687844D01*
X10521694Y-13687844D02*
X10502647Y-13678320D01*
X10502647Y-13678320D02*
X10493123Y-13668796D01*
X10493123Y-13668796D02*
X10483599Y-13649748D01*
X10483599Y-13649748D02*
X10474075Y-13611653D01*
X10474075Y-13611653D02*
X10474075Y-13564034D01*
X10474075Y-13564034D02*
X10483599Y-13525939D01*
X10483599Y-13525939D02*
X10493123Y-13506891D01*
X10493123Y-13506891D02*
X10502647Y-13497368D01*
X10502647Y-13497368D02*
X10521694Y-13487844D01*
X10674075Y-13668796D02*
X10683599Y-13678320D01*
X10683599Y-13678320D02*
X10674075Y-13687844D01*
X10674075Y-13687844D02*
X10664551Y-13678320D01*
X10664551Y-13678320D02*
X10674075Y-13668796D01*
X10674075Y-13668796D02*
X10674075Y-13687844D01*
X10750266Y-13487844D02*
X10874075Y-13487844D01*
X10874075Y-13487844D02*
X10807408Y-13564034D01*
X10807408Y-13564034D02*
X10835980Y-13564034D01*
X10835980Y-13564034D02*
X10855028Y-13573558D01*
X10855028Y-13573558D02*
X10864551Y-13583082D01*
X10864551Y-13583082D02*
X10874075Y-13602129D01*
X10874075Y-13602129D02*
X10874075Y-13649748D01*
X10874075Y-13649748D02*
X10864551Y-13668796D01*
X10864551Y-13668796D02*
X10855028Y-13678320D01*
X10855028Y-13678320D02*
X10835980Y-13687844D01*
X10835980Y-13687844D02*
X10778837Y-13687844D01*
X10778837Y-13687844D02*
X10759789Y-13678320D01*
X10759789Y-13678320D02*
X10750266Y-13668796D01*
X10940742Y-13487844D02*
X11064551Y-13487844D01*
X11064551Y-13487844D02*
X10997885Y-13564034D01*
X10997885Y-13564034D02*
X11026456Y-13564034D01*
X11026456Y-13564034D02*
X11045504Y-13573558D01*
X11045504Y-13573558D02*
X11055028Y-13583082D01*
X11055028Y-13583082D02*
X11064551Y-13602129D01*
X11064551Y-13602129D02*
X11064551Y-13649748D01*
X11064551Y-13649748D02*
X11055028Y-13668796D01*
X11055028Y-13668796D02*
X11045504Y-13678320D01*
X11045504Y-13678320D02*
X11026456Y-13687844D01*
X11026456Y-13687844D02*
X10969313Y-13687844D01*
X10969313Y-13687844D02*
X10950266Y-13678320D01*
X10950266Y-13678320D02*
X10940742Y-13668796D01*
X11188361Y-13487844D02*
X11207408Y-13487844D01*
X11207408Y-13487844D02*
X11226456Y-13497368D01*
X11226456Y-13497368D02*
X11235980Y-13506891D01*
X11235980Y-13506891D02*
X11245504Y-13525939D01*
X11245504Y-13525939D02*
X11255027Y-13564034D01*
X11255027Y-13564034D02*
X11255027Y-13611653D01*
X11255027Y-13611653D02*
X11245504Y-13649748D01*
X11245504Y-13649748D02*
X11235980Y-13668796D01*
X11235980Y-13668796D02*
X11226456Y-13678320D01*
X11226456Y-13678320D02*
X11207408Y-13687844D01*
X11207408Y-13687844D02*
X11188361Y-13687844D01*
X11188361Y-13687844D02*
X11169313Y-13678320D01*
X11169313Y-13678320D02*
X11159789Y-13668796D01*
X11159789Y-13668796D02*
X11150266Y-13649748D01*
X11150266Y-13649748D02*
X11140742Y-13611653D01*
X11140742Y-13611653D02*
X11140742Y-13564034D01*
X11140742Y-13564034D02*
X11150266Y-13525939D01*
X11150266Y-13525939D02*
X11159789Y-13506891D01*
X11159789Y-13506891D02*
X11169313Y-13497368D01*
X11169313Y-13497368D02*
X11188361Y-13487844D01*
X11321694Y-13487844D02*
X11455027Y-13487844D01*
X11455027Y-13487844D02*
X11369313Y-13687844D01*
X11521694Y-13487844D02*
X11521694Y-13525939D01*
X11597885Y-13487844D02*
X11597885Y-13525939D01*
X11893123Y-13764034D02*
X11883599Y-13754510D01*
X11883599Y-13754510D02*
X11864551Y-13725939D01*
X11864551Y-13725939D02*
X11855028Y-13706891D01*
X11855028Y-13706891D02*
X11845504Y-13678320D01*
X11845504Y-13678320D02*
X11835980Y-13630701D01*
X11835980Y-13630701D02*
X11835980Y-13592606D01*
X11835980Y-13592606D02*
X11845504Y-13544987D01*
X11845504Y-13544987D02*
X11855028Y-13516415D01*
X11855028Y-13516415D02*
X11864551Y-13497368D01*
X11864551Y-13497368D02*
X11883599Y-13468796D01*
X11883599Y-13468796D02*
X11893123Y-13459272D01*
X12055028Y-13554510D02*
X12055028Y-13687844D01*
X12007408Y-13478320D02*
X11959789Y-13621177D01*
X11959789Y-13621177D02*
X12083599Y-13621177D01*
X12312170Y-13687844D02*
X12312170Y-13487844D01*
X12397885Y-13687844D02*
X12397885Y-13583082D01*
X12397885Y-13583082D02*
X12388361Y-13564034D01*
X12388361Y-13564034D02*
X12369313Y-13554510D01*
X12369313Y-13554510D02*
X12340742Y-13554510D01*
X12340742Y-13554510D02*
X12321694Y-13564034D01*
X12321694Y-13564034D02*
X12312170Y-13573558D01*
X12521694Y-13687844D02*
X12502647Y-13678320D01*
X12502647Y-13678320D02*
X12493123Y-13668796D01*
X12493123Y-13668796D02*
X12483599Y-13649748D01*
X12483599Y-13649748D02*
X12483599Y-13592606D01*
X12483599Y-13592606D02*
X12493123Y-13573558D01*
X12493123Y-13573558D02*
X12502647Y-13564034D01*
X12502647Y-13564034D02*
X12521694Y-13554510D01*
X12521694Y-13554510D02*
X12550266Y-13554510D01*
X12550266Y-13554510D02*
X12569313Y-13564034D01*
X12569313Y-13564034D02*
X12578837Y-13573558D01*
X12578837Y-13573558D02*
X12588361Y-13592606D01*
X12588361Y-13592606D02*
X12588361Y-13649748D01*
X12588361Y-13649748D02*
X12578837Y-13668796D01*
X12578837Y-13668796D02*
X12569313Y-13678320D01*
X12569313Y-13678320D02*
X12550266Y-13687844D01*
X12550266Y-13687844D02*
X12521694Y-13687844D01*
X12702647Y-13687844D02*
X12683599Y-13678320D01*
X12683599Y-13678320D02*
X12674075Y-13659272D01*
X12674075Y-13659272D02*
X12674075Y-13487844D01*
X12855028Y-13678320D02*
X12835980Y-13687844D01*
X12835980Y-13687844D02*
X12797885Y-13687844D01*
X12797885Y-13687844D02*
X12778837Y-13678320D01*
X12778837Y-13678320D02*
X12769313Y-13659272D01*
X12769313Y-13659272D02*
X12769313Y-13583082D01*
X12769313Y-13583082D02*
X12778837Y-13564034D01*
X12778837Y-13564034D02*
X12797885Y-13554510D01*
X12797885Y-13554510D02*
X12835980Y-13554510D01*
X12835980Y-13554510D02*
X12855028Y-13564034D01*
X12855028Y-13564034D02*
X12864551Y-13583082D01*
X12864551Y-13583082D02*
X12864551Y-13602129D01*
X12864551Y-13602129D02*
X12769313Y-13621177D01*
X12940742Y-13678320D02*
X12959790Y-13687844D01*
X12959790Y-13687844D02*
X12997885Y-13687844D01*
X12997885Y-13687844D02*
X13016932Y-13678320D01*
X13016932Y-13678320D02*
X13026456Y-13659272D01*
X13026456Y-13659272D02*
X13026456Y-13649748D01*
X13026456Y-13649748D02*
X13016932Y-13630701D01*
X13016932Y-13630701D02*
X12997885Y-13621177D01*
X12997885Y-13621177D02*
X12969313Y-13621177D01*
X12969313Y-13621177D02*
X12950266Y-13611653D01*
X12950266Y-13611653D02*
X12940742Y-13592606D01*
X12940742Y-13592606D02*
X12940742Y-13583082D01*
X12940742Y-13583082D02*
X12950266Y-13564034D01*
X12950266Y-13564034D02*
X12969313Y-13554510D01*
X12969313Y-13554510D02*
X12997885Y-13554510D01*
X12997885Y-13554510D02*
X13016932Y-13564034D01*
X13093123Y-13764034D02*
X13102647Y-13754510D01*
X13102647Y-13754510D02*
X13121694Y-13725939D01*
X13121694Y-13725939D02*
X13131218Y-13706891D01*
X13131218Y-13706891D02*
X13140742Y-13678320D01*
X13140742Y-13678320D02*
X13150266Y-13630701D01*
X13150266Y-13630701D02*
X13150266Y-13592606D01*
X13150266Y-13592606D02*
X13140742Y-13544987D01*
X13140742Y-13544987D02*
X13131218Y-13516415D01*
X13131218Y-13516415D02*
X13121694Y-13497368D01*
X13121694Y-13497368D02*
X13102647Y-13468796D01*
X13102647Y-13468796D02*
X13093123Y-13459272D01*
M02*
