%TF.GenerationSoftware,KiCad,Pcbnew,7.0.7*%
%TF.CreationDate,2024-04-01T01:38:16+05:30*%
%TF.ProjectId,FC_THT_STACK,46435f54-4854-45f5-9354-41434b2e6b69,rev?*%
%TF.SameCoordinates,Original*%
%TF.FileFunction,Legend,Bot*%
%TF.FilePolarity,Positive*%
%FSLAX46Y46*%
G04 Gerber Fmt 4.6, Leading zero omitted, Abs format (unit mm)*
G04 Created by KiCad (PCBNEW 7.0.7) date 2024-04-01 01:38:16*
%MOMM*%
%LPD*%
G01*
G04 APERTURE LIST*
%ADD10C,0.150000*%
G04 APERTURE END LIST*
D10*
G36*
X111681154Y-58552800D02*
G01*
X111336772Y-58552800D01*
X111316259Y-58552433D01*
X111296192Y-58551334D01*
X111276572Y-58549502D01*
X111257399Y-58546938D01*
X111238672Y-58543640D01*
X111220392Y-58539610D01*
X111202558Y-58534848D01*
X111185170Y-58529352D01*
X111168229Y-58523124D01*
X111151735Y-58516163D01*
X111135687Y-58508469D01*
X111120086Y-58500043D01*
X111104931Y-58490884D01*
X111090222Y-58480992D01*
X111075960Y-58470368D01*
X111062145Y-58459010D01*
X111048978Y-58447024D01*
X111036660Y-58434587D01*
X111025192Y-58421699D01*
X111014573Y-58408360D01*
X111004803Y-58394570D01*
X110995884Y-58380329D01*
X110987813Y-58365637D01*
X110980592Y-58350493D01*
X110974221Y-58334899D01*
X110968699Y-58318853D01*
X110964027Y-58302356D01*
X110960204Y-58285409D01*
X110957231Y-58268010D01*
X110955107Y-58250160D01*
X110953833Y-58231859D01*
X110953408Y-58213107D01*
X110953441Y-58211348D01*
X111098488Y-58211348D01*
X111098554Y-58217589D01*
X111099078Y-58229821D01*
X111100127Y-58241719D01*
X111102683Y-58258939D01*
X111106419Y-58275406D01*
X111111335Y-58291122D01*
X111117431Y-58306085D01*
X111124706Y-58320296D01*
X111133162Y-58333754D01*
X111142797Y-58346461D01*
X111153612Y-58358415D01*
X111165606Y-58369617D01*
X111169855Y-58373170D01*
X111183247Y-58383150D01*
X111197607Y-58392115D01*
X111212936Y-58400066D01*
X111223693Y-58404802D01*
X111234881Y-58409087D01*
X111246500Y-58412922D01*
X111258548Y-58416305D01*
X111271028Y-58419237D01*
X111283937Y-58421718D01*
X111297278Y-58423748D01*
X111311048Y-58425326D01*
X111325250Y-58426454D01*
X111339881Y-58427131D01*
X111354943Y-58427356D01*
X111542815Y-58427356D01*
X111542815Y-58002081D01*
X111383666Y-58002081D01*
X111366121Y-58002285D01*
X111349133Y-58002898D01*
X111332702Y-58003920D01*
X111316828Y-58005351D01*
X111301511Y-58007190D01*
X111286750Y-58009438D01*
X111272547Y-58012094D01*
X111258901Y-58015160D01*
X111245812Y-58018634D01*
X111233280Y-58022517D01*
X111221304Y-58026809D01*
X111209886Y-58031509D01*
X111188720Y-58042136D01*
X111169783Y-58054398D01*
X111153073Y-58068294D01*
X111138592Y-58083826D01*
X111126338Y-58100992D01*
X111116312Y-58119794D01*
X111108514Y-58140230D01*
X111102944Y-58162301D01*
X111100995Y-58173950D01*
X111099602Y-58186007D01*
X111098767Y-58198473D01*
X111098488Y-58211348D01*
X110953441Y-58211348D01*
X110953689Y-58198044D01*
X110954530Y-58183339D01*
X110955933Y-58168992D01*
X110957896Y-58155001D01*
X110960421Y-58141368D01*
X110963506Y-58128092D01*
X110967153Y-58115173D01*
X110971360Y-58102611D01*
X110976128Y-58090407D01*
X110981458Y-58078559D01*
X110987348Y-58067069D01*
X110993800Y-58055936D01*
X111000812Y-58045161D01*
X111008386Y-58034742D01*
X111016520Y-58024681D01*
X111025216Y-58014977D01*
X111034343Y-58005659D01*
X111043845Y-57996828D01*
X111053723Y-57988485D01*
X111063977Y-57980630D01*
X111074606Y-57973263D01*
X111085611Y-57966383D01*
X111096991Y-57959991D01*
X111108747Y-57954087D01*
X111120878Y-57948671D01*
X111133385Y-57943742D01*
X111146267Y-57939301D01*
X111159525Y-57935347D01*
X111173158Y-57931882D01*
X111187167Y-57928904D01*
X111201551Y-57926414D01*
X111216311Y-57924412D01*
X111216311Y-57921187D01*
X111210379Y-57919186D01*
X111198757Y-57914931D01*
X111187454Y-57910343D01*
X111176472Y-57905420D01*
X111165811Y-57900162D01*
X111155471Y-57894571D01*
X111140561Y-57885556D01*
X111126372Y-57875790D01*
X111112905Y-57865271D01*
X111100159Y-57854000D01*
X111088134Y-57841977D01*
X111076831Y-57829202D01*
X111066248Y-57815675D01*
X111062894Y-57811015D01*
X111053471Y-57796729D01*
X111045007Y-57781985D01*
X111037500Y-57766782D01*
X111030952Y-57751121D01*
X111025362Y-57735001D01*
X111020730Y-57718423D01*
X111017057Y-57701386D01*
X111015141Y-57689774D01*
X111013650Y-57677957D01*
X111012816Y-57668543D01*
X111156814Y-57668543D01*
X111156877Y-57674727D01*
X111157388Y-57686833D01*
X111158409Y-57698589D01*
X111160899Y-57715566D01*
X111164537Y-57731754D01*
X111169324Y-57747154D01*
X111175260Y-57761766D01*
X111182345Y-57775590D01*
X111190578Y-57788625D01*
X111199961Y-57800872D01*
X111210493Y-57812331D01*
X111222173Y-57823002D01*
X111226287Y-57826356D01*
X111239200Y-57835779D01*
X111252968Y-57844244D01*
X111267591Y-57851750D01*
X111283069Y-57858298D01*
X111299403Y-57863888D01*
X111310767Y-57867082D01*
X111322511Y-57869851D01*
X111334635Y-57872193D01*
X111347140Y-57874110D01*
X111360024Y-57875600D01*
X111373289Y-57876665D01*
X111386934Y-57877304D01*
X111400959Y-57877517D01*
X111542815Y-57877517D01*
X111542815Y-57496498D01*
X111383666Y-57496498D01*
X111369710Y-57496666D01*
X111356196Y-57497170D01*
X111343125Y-57498010D01*
X111330498Y-57499186D01*
X111318313Y-57500698D01*
X111306572Y-57502546D01*
X111284418Y-57507251D01*
X111264037Y-57513299D01*
X111245428Y-57520692D01*
X111228591Y-57529428D01*
X111213527Y-57539509D01*
X111200235Y-57550934D01*
X111188715Y-57563703D01*
X111178967Y-57577816D01*
X111170992Y-57593273D01*
X111164789Y-57610074D01*
X111160358Y-57628220D01*
X111157700Y-57647709D01*
X111156814Y-57668543D01*
X111012816Y-57668543D01*
X111012585Y-57665937D01*
X111011946Y-57653713D01*
X111011733Y-57641285D01*
X111012085Y-57626406D01*
X111013139Y-57611884D01*
X111014897Y-57597720D01*
X111017357Y-57583913D01*
X111020520Y-57570462D01*
X111024387Y-57557369D01*
X111028956Y-57544634D01*
X111034228Y-57532255D01*
X111040203Y-57520234D01*
X111046881Y-57508570D01*
X111054263Y-57497263D01*
X111062347Y-57486313D01*
X111071134Y-57475721D01*
X111080624Y-57465485D01*
X111090817Y-57455607D01*
X111101712Y-57446086D01*
X111113172Y-57437000D01*
X111125128Y-57428501D01*
X111137581Y-57420587D01*
X111150530Y-57413260D01*
X111163977Y-57406519D01*
X111177921Y-57400364D01*
X111192361Y-57394795D01*
X111207299Y-57389813D01*
X111222733Y-57385416D01*
X111238664Y-57381606D01*
X111255092Y-57378382D01*
X111272017Y-57375744D01*
X111289439Y-57373693D01*
X111307357Y-57372227D01*
X111325773Y-57371348D01*
X111344685Y-57371055D01*
X111681154Y-57371055D01*
X111681154Y-58552800D01*
G37*
G36*
X110376580Y-57690055D02*
G01*
X110388706Y-57690404D01*
X110400673Y-57690987D01*
X110412480Y-57691802D01*
X110435619Y-57694132D01*
X110458120Y-57697394D01*
X110479985Y-57701588D01*
X110501214Y-57706713D01*
X110521806Y-57712771D01*
X110541761Y-57719760D01*
X110561080Y-57727682D01*
X110579762Y-57736535D01*
X110597808Y-57746321D01*
X110615217Y-57757038D01*
X110631990Y-57768687D01*
X110648126Y-57781268D01*
X110663625Y-57794782D01*
X110678488Y-57809227D01*
X110692543Y-57824501D01*
X110705691Y-57840500D01*
X110717932Y-57857226D01*
X110729266Y-57874678D01*
X110739694Y-57892855D01*
X110749215Y-57911758D01*
X110757829Y-57931387D01*
X110765537Y-57951742D01*
X110772337Y-57972823D01*
X110778231Y-57994630D01*
X110783218Y-58017162D01*
X110785372Y-58028701D01*
X110787299Y-58040421D01*
X110788999Y-58052322D01*
X110790472Y-58064405D01*
X110791719Y-58076669D01*
X110792739Y-58089115D01*
X110793533Y-58101742D01*
X110794099Y-58114551D01*
X110794439Y-58127541D01*
X110794553Y-58140713D01*
X110794444Y-58152820D01*
X110794116Y-58164776D01*
X110792808Y-58188240D01*
X110790627Y-58211103D01*
X110787573Y-58233366D01*
X110783648Y-58255030D01*
X110778849Y-58276094D01*
X110773179Y-58296557D01*
X110766636Y-58316421D01*
X110759220Y-58335685D01*
X110750932Y-58354349D01*
X110741772Y-58372413D01*
X110731739Y-58389877D01*
X110720834Y-58406742D01*
X110709057Y-58423006D01*
X110696407Y-58438670D01*
X110682885Y-58453735D01*
X110668631Y-58468002D01*
X110653786Y-58481349D01*
X110638351Y-58493776D01*
X110622325Y-58505282D01*
X110605708Y-58515868D01*
X110588500Y-58525533D01*
X110570702Y-58534277D01*
X110552313Y-58542102D01*
X110533333Y-58549005D01*
X110513762Y-58554989D01*
X110493600Y-58560051D01*
X110472848Y-58564193D01*
X110451505Y-58567415D01*
X110429571Y-58569716D01*
X110407047Y-58571097D01*
X110383932Y-58571557D01*
X110372009Y-58571439D01*
X110360239Y-58571083D01*
X110337156Y-58569661D01*
X110314682Y-58567291D01*
X110292817Y-58563974D01*
X110271561Y-58559708D01*
X110250914Y-58554494D01*
X110230876Y-58548332D01*
X110211447Y-58541222D01*
X110192628Y-58533165D01*
X110174417Y-58524159D01*
X110156815Y-58514205D01*
X110139823Y-58503304D01*
X110123440Y-58491454D01*
X110107665Y-58478657D01*
X110092500Y-58464911D01*
X110077944Y-58450218D01*
X110064102Y-58434737D01*
X110051154Y-58418632D01*
X110039098Y-58401902D01*
X110027935Y-58384547D01*
X110017666Y-58366566D01*
X110008289Y-58347961D01*
X109999805Y-58328730D01*
X109992215Y-58308874D01*
X109985517Y-58288393D01*
X109979713Y-58267287D01*
X109974801Y-58245556D01*
X109970783Y-58223200D01*
X109967657Y-58200219D01*
X109966429Y-58188493D01*
X109965424Y-58176612D01*
X109964643Y-58164574D01*
X109964085Y-58152381D01*
X109963750Y-58140030D01*
X109963683Y-58132506D01*
X110101978Y-58132506D01*
X110102254Y-58151719D01*
X110103081Y-58170375D01*
X110104461Y-58188474D01*
X110106392Y-58206017D01*
X110108876Y-58223004D01*
X110111911Y-58239434D01*
X110115498Y-58255308D01*
X110119636Y-58270626D01*
X110124327Y-58285387D01*
X110129569Y-58299591D01*
X110135364Y-58313240D01*
X110141710Y-58326331D01*
X110148608Y-58338867D01*
X110156058Y-58350846D01*
X110164059Y-58362268D01*
X110172613Y-58373134D01*
X110181642Y-58383392D01*
X110191146Y-58392987D01*
X110201124Y-58401920D01*
X110211575Y-58410192D01*
X110222501Y-58417802D01*
X110233901Y-58424751D01*
X110245774Y-58431037D01*
X110258122Y-58436662D01*
X110270944Y-58441625D01*
X110284239Y-58445926D01*
X110298009Y-58449566D01*
X110312252Y-58452544D01*
X110326970Y-58454860D01*
X110342161Y-58456514D01*
X110357827Y-58457507D01*
X110373966Y-58457838D01*
X110389847Y-58457501D01*
X110405323Y-58456491D01*
X110420393Y-58454809D01*
X110435058Y-58452452D01*
X110449317Y-58449423D01*
X110463172Y-58445720D01*
X110476621Y-58441345D01*
X110489664Y-58436296D01*
X110502303Y-58430574D01*
X110514536Y-58424178D01*
X110526364Y-58417110D01*
X110537786Y-58409368D01*
X110548803Y-58400953D01*
X110559415Y-58391865D01*
X110569622Y-58382104D01*
X110579424Y-58371669D01*
X110588687Y-58360615D01*
X110597352Y-58349069D01*
X110605420Y-58337030D01*
X110612891Y-58324500D01*
X110619764Y-58311476D01*
X110626039Y-58297961D01*
X110631716Y-58283953D01*
X110636796Y-58269453D01*
X110641278Y-58254461D01*
X110645163Y-58238976D01*
X110648450Y-58223000D01*
X110651139Y-58206530D01*
X110653231Y-58189569D01*
X110654725Y-58172115D01*
X110655622Y-58154169D01*
X110655920Y-58135730D01*
X110655624Y-58116575D01*
X110654734Y-58097945D01*
X110653252Y-58079838D01*
X110651176Y-58062256D01*
X110648507Y-58045198D01*
X110645245Y-58028665D01*
X110641391Y-58012656D01*
X110636943Y-57997171D01*
X110631902Y-57982211D01*
X110626268Y-57967775D01*
X110620041Y-57953864D01*
X110613221Y-57940477D01*
X110605807Y-57927614D01*
X110597801Y-57915275D01*
X110589202Y-57903461D01*
X110580010Y-57892171D01*
X110570309Y-57881453D01*
X110560185Y-57871426D01*
X110549637Y-57862091D01*
X110538665Y-57853447D01*
X110527270Y-57845494D01*
X110515452Y-57838233D01*
X110503209Y-57831664D01*
X110490544Y-57825786D01*
X110477454Y-57820600D01*
X110463941Y-57816105D01*
X110450004Y-57812302D01*
X110435644Y-57809190D01*
X110420860Y-57806770D01*
X110405652Y-57805041D01*
X110390021Y-57804004D01*
X110373966Y-57803658D01*
X110357827Y-57803992D01*
X110342161Y-57804995D01*
X110326970Y-57806667D01*
X110312252Y-57809007D01*
X110298009Y-57812016D01*
X110284239Y-57815693D01*
X110270944Y-57820039D01*
X110258122Y-57825054D01*
X110245774Y-57830737D01*
X110233901Y-57837089D01*
X110222501Y-57844109D01*
X110211575Y-57851798D01*
X110201124Y-57860156D01*
X110191146Y-57869182D01*
X110181642Y-57878877D01*
X110172613Y-57889241D01*
X110164059Y-57900186D01*
X110156058Y-57911699D01*
X110148608Y-57923780D01*
X110141710Y-57936428D01*
X110135364Y-57949645D01*
X110129569Y-57963429D01*
X110124327Y-57977782D01*
X110119636Y-57992702D01*
X110115498Y-58008190D01*
X110111911Y-58024246D01*
X110108876Y-58040870D01*
X110106392Y-58058061D01*
X110104461Y-58075821D01*
X110103081Y-58094148D01*
X110102254Y-58113043D01*
X110101978Y-58132506D01*
X109963683Y-58132506D01*
X109963638Y-58127524D01*
X109963742Y-58114752D01*
X109964053Y-58102157D01*
X109964571Y-58089737D01*
X109965296Y-58077492D01*
X109966229Y-58065424D01*
X109967368Y-58053531D01*
X109970270Y-58030272D01*
X109974000Y-58007717D01*
X109978559Y-57985865D01*
X109983946Y-57964715D01*
X109990163Y-57944268D01*
X109997209Y-57924525D01*
X110005083Y-57905484D01*
X110013787Y-57887147D01*
X110023319Y-57869512D01*
X110033680Y-57852580D01*
X110044871Y-57836351D01*
X110056890Y-57820825D01*
X110069738Y-57806003D01*
X110083287Y-57791948D01*
X110097485Y-57778800D01*
X110112331Y-57766559D01*
X110127825Y-57755224D01*
X110143966Y-57744797D01*
X110160756Y-57735276D01*
X110178194Y-57726662D01*
X110196280Y-57718954D01*
X110215014Y-57712154D01*
X110234395Y-57706260D01*
X110254425Y-57701273D01*
X110275103Y-57697192D01*
X110296429Y-57694019D01*
X110318403Y-57691752D01*
X110341025Y-57690392D01*
X110364294Y-57689938D01*
X110376580Y-57690055D01*
G37*
G36*
X109466774Y-57690258D02*
G01*
X109486628Y-57691216D01*
X109506186Y-57692813D01*
X109525448Y-57695049D01*
X109544416Y-57697924D01*
X109563088Y-57701438D01*
X109581464Y-57705590D01*
X109599546Y-57710381D01*
X109617331Y-57715812D01*
X109634822Y-57721881D01*
X109652017Y-57728589D01*
X109668917Y-57735935D01*
X109685521Y-57743921D01*
X109701830Y-57752545D01*
X109717844Y-57761809D01*
X109733562Y-57771711D01*
X109733562Y-57915033D01*
X109718095Y-57901546D01*
X109702398Y-57888929D01*
X109686469Y-57877183D01*
X109670309Y-57866306D01*
X109653918Y-57856300D01*
X109637295Y-57847164D01*
X109620441Y-57838898D01*
X109603356Y-57831502D01*
X109586039Y-57824976D01*
X109568492Y-57819320D01*
X109550713Y-57814534D01*
X109532702Y-57810619D01*
X109514461Y-57807573D01*
X109495988Y-57805398D01*
X109477284Y-57804093D01*
X109458349Y-57803658D01*
X109447638Y-57803858D01*
X109427236Y-57805461D01*
X109408194Y-57808667D01*
X109390512Y-57813475D01*
X109374191Y-57819887D01*
X109359230Y-57827901D01*
X109345628Y-57837518D01*
X109333387Y-57848738D01*
X109322506Y-57861561D01*
X109312985Y-57875986D01*
X109304824Y-57892015D01*
X109298024Y-57909646D01*
X109292583Y-57928880D01*
X109288503Y-57949717D01*
X109285783Y-57972157D01*
X109284933Y-57983978D01*
X109284423Y-57996199D01*
X109284253Y-58008822D01*
X109537190Y-58044872D01*
X109554339Y-58047523D01*
X109570943Y-58050566D01*
X109587003Y-58054001D01*
X109602518Y-58057828D01*
X109617489Y-58062047D01*
X109631915Y-58066658D01*
X109645797Y-58071662D01*
X109659135Y-58077057D01*
X109671928Y-58082845D01*
X109684177Y-58089025D01*
X109695881Y-58095597D01*
X109707041Y-58102561D01*
X109717657Y-58109917D01*
X109727728Y-58117665D01*
X109737255Y-58125806D01*
X109746238Y-58134338D01*
X109754676Y-58143263D01*
X109762570Y-58152580D01*
X109769919Y-58162289D01*
X109776724Y-58172390D01*
X109782985Y-58182883D01*
X109788701Y-58193768D01*
X109793872Y-58205046D01*
X109798500Y-58216715D01*
X109802583Y-58228777D01*
X109806121Y-58241231D01*
X109809115Y-58254077D01*
X109811565Y-58267315D01*
X109813471Y-58280945D01*
X109814832Y-58294967D01*
X109815648Y-58309382D01*
X109815920Y-58324188D01*
X109815642Y-58338010D01*
X109814808Y-58351487D01*
X109813416Y-58364618D01*
X109811469Y-58377403D01*
X109808965Y-58389842D01*
X109805905Y-58401935D01*
X109802288Y-58413683D01*
X109798115Y-58425085D01*
X109793386Y-58436141D01*
X109788100Y-58446852D01*
X109782257Y-58457216D01*
X109775858Y-58467235D01*
X109768903Y-58476908D01*
X109761392Y-58486236D01*
X109753324Y-58495217D01*
X109744699Y-58503853D01*
X109735547Y-58512052D01*
X109725969Y-58519721D01*
X109715965Y-58526862D01*
X109705535Y-58533474D01*
X109694679Y-58539557D01*
X109683397Y-58545110D01*
X109671690Y-58550135D01*
X109659556Y-58554631D01*
X109646997Y-58558598D01*
X109634011Y-58562036D01*
X109620600Y-58564946D01*
X109606763Y-58567326D01*
X109592500Y-58569177D01*
X109577811Y-58570499D01*
X109562696Y-58571293D01*
X109547156Y-58571557D01*
X109526048Y-58570965D01*
X109505592Y-58569190D01*
X109485785Y-58566230D01*
X109466629Y-58562087D01*
X109448123Y-58556760D01*
X109430267Y-58550249D01*
X109413062Y-58542554D01*
X109396507Y-58533675D01*
X109380602Y-58523613D01*
X109365347Y-58512367D01*
X109350743Y-58499937D01*
X109336789Y-58486323D01*
X109323486Y-58471525D01*
X109310832Y-58455544D01*
X109298829Y-58438378D01*
X109287477Y-58420029D01*
X109284253Y-58420029D01*
X109284253Y-58552800D01*
X109149137Y-58552800D01*
X109149137Y-58116679D01*
X109284253Y-58116679D01*
X109284253Y-58202848D01*
X109284509Y-58216511D01*
X109285278Y-58229877D01*
X109286561Y-58242945D01*
X109288356Y-58255715D01*
X109290664Y-58268187D01*
X109293485Y-58280362D01*
X109296819Y-58292239D01*
X109300666Y-58303818D01*
X109305025Y-58315100D01*
X109309898Y-58326084D01*
X109315284Y-58336771D01*
X109321182Y-58347159D01*
X109327593Y-58357250D01*
X109334518Y-58367044D01*
X109341955Y-58376539D01*
X109349905Y-58385737D01*
X109354024Y-58390173D01*
X109362469Y-58398623D01*
X109375651Y-58410240D01*
X109389452Y-58420591D01*
X109403870Y-58429674D01*
X109418907Y-58437489D01*
X109434563Y-58444037D01*
X109450836Y-58449318D01*
X109467728Y-58453332D01*
X109479332Y-58455303D01*
X109491212Y-58456711D01*
X109503366Y-58457556D01*
X109515795Y-58457838D01*
X109520346Y-58457799D01*
X109533660Y-58457210D01*
X109546463Y-58455916D01*
X109558757Y-58453917D01*
X109570540Y-58451211D01*
X109581814Y-58447800D01*
X109596051Y-58442153D01*
X109609383Y-58435252D01*
X109621807Y-58427095D01*
X109633324Y-58417684D01*
X109643628Y-58407284D01*
X109652559Y-58396160D01*
X109660115Y-58384313D01*
X109666297Y-58371742D01*
X109671106Y-58358448D01*
X109674540Y-58344430D01*
X109676601Y-58329688D01*
X109677288Y-58314223D01*
X109677102Y-58303549D01*
X109676122Y-58288316D01*
X109674302Y-58274015D01*
X109671643Y-58260646D01*
X109668144Y-58248210D01*
X109663805Y-58236706D01*
X109658626Y-58226135D01*
X109650415Y-58213491D01*
X109640711Y-58202505D01*
X109629514Y-58193176D01*
X109626483Y-58191053D01*
X109613454Y-58182968D01*
X109602733Y-58177331D01*
X109591198Y-58172060D01*
X109578848Y-58167154D01*
X109565685Y-58162614D01*
X109551708Y-58158440D01*
X109536916Y-58154632D01*
X109521311Y-58151190D01*
X109504891Y-58148113D01*
X109487658Y-58145402D01*
X109284253Y-58116679D01*
X109149137Y-58116679D01*
X109149137Y-58004425D01*
X109149428Y-57985077D01*
X109150299Y-57966343D01*
X109151752Y-57948223D01*
X109153786Y-57930718D01*
X109156400Y-57913826D01*
X109159596Y-57897549D01*
X109163373Y-57881886D01*
X109167730Y-57866837D01*
X109172669Y-57852403D01*
X109178189Y-57838583D01*
X109184290Y-57825377D01*
X109190972Y-57812785D01*
X109198234Y-57800807D01*
X109206078Y-57789444D01*
X109214503Y-57778695D01*
X109223509Y-57768560D01*
X109233096Y-57759040D01*
X109243264Y-57750133D01*
X109254013Y-57741841D01*
X109265344Y-57734163D01*
X109277255Y-57727099D01*
X109289747Y-57720650D01*
X109302820Y-57714815D01*
X109316474Y-57709594D01*
X109330710Y-57704987D01*
X109345526Y-57700995D01*
X109360923Y-57697616D01*
X109376901Y-57694852D01*
X109393461Y-57692702D01*
X109410601Y-57691167D01*
X109428323Y-57690245D01*
X109446625Y-57689938D01*
X109466774Y-57690258D01*
G37*
G36*
X108458321Y-57840001D02*
G01*
X108470169Y-57834597D01*
X108483549Y-57830109D01*
X108495355Y-57827178D01*
X108508141Y-57824834D01*
X108521907Y-57823075D01*
X108536653Y-57821903D01*
X108552379Y-57821317D01*
X108560610Y-57821243D01*
X108576574Y-57821959D01*
X108592044Y-57824108D01*
X108607019Y-57827688D01*
X108621500Y-57832701D01*
X108635486Y-57839147D01*
X108648977Y-57847024D01*
X108661974Y-57856334D01*
X108674476Y-57867075D01*
X108686483Y-57879250D01*
X108694214Y-57888161D01*
X108701724Y-57897710D01*
X108705397Y-57902723D01*
X108712424Y-57913102D01*
X108718998Y-57923944D01*
X108725119Y-57935249D01*
X108730786Y-57947016D01*
X108736000Y-57959246D01*
X108740760Y-57971938D01*
X108745067Y-57985093D01*
X108748921Y-57998710D01*
X108752321Y-58012790D01*
X108755268Y-58027332D01*
X108757762Y-58042337D01*
X108759802Y-58057805D01*
X108761389Y-58073735D01*
X108762522Y-58090127D01*
X108763202Y-58106982D01*
X108763429Y-58124300D01*
X108763429Y-58552800D01*
X108898544Y-58552800D01*
X108898544Y-57708696D01*
X108763429Y-57708696D01*
X108763429Y-57885430D01*
X108760205Y-57885430D01*
X108756460Y-57874049D01*
X108752479Y-57862986D01*
X108746066Y-57846988D01*
X108739122Y-57831706D01*
X108731647Y-57817141D01*
X108723642Y-57803291D01*
X108715106Y-57790158D01*
X108706039Y-57777741D01*
X108696442Y-57766040D01*
X108686314Y-57755055D01*
X108675655Y-57744786D01*
X108671985Y-57741522D01*
X108660708Y-57732304D01*
X108649189Y-57723992D01*
X108637428Y-57716587D01*
X108625424Y-57710088D01*
X108613179Y-57704497D01*
X108600691Y-57699812D01*
X108587961Y-57696034D01*
X108574990Y-57693162D01*
X108561776Y-57691198D01*
X108548319Y-57690140D01*
X108539214Y-57689938D01*
X108526410Y-57690117D01*
X108514375Y-57690653D01*
X108500413Y-57691825D01*
X108487653Y-57693555D01*
X108476095Y-57695843D01*
X108463813Y-57699326D01*
X108458321Y-57701369D01*
X108458321Y-57840001D01*
G37*
G36*
X107729403Y-57826519D02*
G01*
X107732627Y-57826519D01*
X107742889Y-57809980D01*
X107753894Y-57794508D01*
X107765641Y-57780103D01*
X107778129Y-57766765D01*
X107791359Y-57754494D01*
X107805332Y-57743290D01*
X107820046Y-57733153D01*
X107835502Y-57724084D01*
X107851700Y-57716081D01*
X107868639Y-57709145D01*
X107886321Y-57703276D01*
X107904745Y-57698475D01*
X107923910Y-57694740D01*
X107943817Y-57692072D01*
X107964466Y-57690472D01*
X107985858Y-57689938D01*
X108007529Y-57690431D01*
X108028653Y-57691908D01*
X108049231Y-57694369D01*
X108069260Y-57697815D01*
X108088743Y-57702246D01*
X108107678Y-57707661D01*
X108126066Y-57714061D01*
X108143907Y-57721446D01*
X108161201Y-57729815D01*
X108177947Y-57739169D01*
X108194146Y-57749507D01*
X108209798Y-57760830D01*
X108224902Y-57773137D01*
X108239459Y-57786430D01*
X108253469Y-57800706D01*
X108266932Y-57815968D01*
X108273424Y-57823907D01*
X108285789Y-57840272D01*
X108297329Y-57857285D01*
X108308045Y-57874946D01*
X108317937Y-57893255D01*
X108327005Y-57912212D01*
X108335248Y-57931817D01*
X108342667Y-57952071D01*
X108349261Y-57972972D01*
X108355031Y-57994521D01*
X108359977Y-58016718D01*
X108364099Y-58039563D01*
X108365851Y-58051228D01*
X108367396Y-58063056D01*
X108368736Y-58075046D01*
X108369869Y-58087197D01*
X108370796Y-58099511D01*
X108371518Y-58111986D01*
X108372033Y-58124624D01*
X108372342Y-58137423D01*
X108372445Y-58150385D01*
X108372352Y-58162487D01*
X108372073Y-58174429D01*
X108370957Y-58197834D01*
X108369096Y-58220600D01*
X108366492Y-58242727D01*
X108363143Y-58264216D01*
X108359050Y-58285065D01*
X108354213Y-58305276D01*
X108348631Y-58324848D01*
X108342306Y-58343781D01*
X108335236Y-58362075D01*
X108327422Y-58379730D01*
X108318864Y-58396747D01*
X108309562Y-58413124D01*
X108299516Y-58428863D01*
X108288725Y-58443963D01*
X108277190Y-58458424D01*
X108265034Y-58472124D01*
X108252378Y-58484940D01*
X108239224Y-58496872D01*
X108225570Y-58507920D01*
X108211417Y-58518084D01*
X108196764Y-58527365D01*
X108181613Y-58535761D01*
X108165962Y-58543274D01*
X108149812Y-58549903D01*
X108133163Y-58555648D01*
X108116015Y-58560509D01*
X108098368Y-58564487D01*
X108080222Y-58567580D01*
X108061576Y-58569790D01*
X108042431Y-58571115D01*
X108022787Y-58571557D01*
X108010632Y-58571398D01*
X107998676Y-58570921D01*
X107975361Y-58569011D01*
X107952844Y-58565828D01*
X107931123Y-58561372D01*
X107910199Y-58555643D01*
X107890072Y-58548641D01*
X107870741Y-58540366D01*
X107852208Y-58530818D01*
X107834471Y-58519996D01*
X107817531Y-58507902D01*
X107801389Y-58494534D01*
X107786042Y-58479893D01*
X107771493Y-58463979D01*
X107757741Y-58446792D01*
X107744785Y-58428332D01*
X107732627Y-58408599D01*
X107729403Y-58408599D01*
X107729403Y-58552800D01*
X107594287Y-58552800D01*
X107594287Y-58170901D01*
X107729403Y-58170901D01*
X107729678Y-58186268D01*
X107730506Y-58201300D01*
X107731886Y-58215999D01*
X107733817Y-58230362D01*
X107736301Y-58244392D01*
X107739336Y-58258087D01*
X107742923Y-58271448D01*
X107747061Y-58284474D01*
X107751752Y-58297167D01*
X107756994Y-58309524D01*
X107762789Y-58321548D01*
X107769135Y-58333237D01*
X107776033Y-58344592D01*
X107783483Y-58355613D01*
X107791484Y-58366299D01*
X107800038Y-58376652D01*
X107808996Y-58386483D01*
X107818287Y-58395680D01*
X107827910Y-58404242D01*
X107837865Y-58412171D01*
X107848152Y-58419465D01*
X107858770Y-58426124D01*
X107869721Y-58432150D01*
X107881004Y-58437541D01*
X107892619Y-58442298D01*
X107904566Y-58446421D01*
X107916845Y-58449910D01*
X107929456Y-58452764D01*
X107942399Y-58454984D01*
X107955674Y-58456569D01*
X107969281Y-58457521D01*
X107983220Y-58457838D01*
X107997363Y-58457509D01*
X108011141Y-58456524D01*
X108024556Y-58454881D01*
X108037607Y-58452581D01*
X108050293Y-58449623D01*
X108062615Y-58446009D01*
X108074574Y-58441737D01*
X108086168Y-58436809D01*
X108097398Y-58431223D01*
X108108264Y-58424980D01*
X108118767Y-58418079D01*
X108128904Y-58410522D01*
X108138678Y-58402307D01*
X108148088Y-58393436D01*
X108157134Y-58383907D01*
X108165816Y-58373721D01*
X108174050Y-58362931D01*
X108181753Y-58351666D01*
X108188924Y-58339924D01*
X108195564Y-58327705D01*
X108201674Y-58315011D01*
X108207251Y-58301840D01*
X108212298Y-58288193D01*
X108216814Y-58274070D01*
X108220798Y-58259470D01*
X108224251Y-58244394D01*
X108227173Y-58228842D01*
X108229563Y-58212813D01*
X108231422Y-58196309D01*
X108232750Y-58179328D01*
X108233547Y-58161871D01*
X108233813Y-58143937D01*
X108233536Y-58124277D01*
X108232705Y-58105157D01*
X108231319Y-58086578D01*
X108229380Y-58068539D01*
X108226886Y-58051041D01*
X108223839Y-58034083D01*
X108220237Y-58017665D01*
X108216081Y-58001788D01*
X108211371Y-57986451D01*
X108206107Y-57971654D01*
X108200288Y-57957398D01*
X108193916Y-57943682D01*
X108186989Y-57930507D01*
X108179509Y-57917872D01*
X108171474Y-57905777D01*
X108162885Y-57894223D01*
X108153814Y-57883256D01*
X108144333Y-57872997D01*
X108134442Y-57863445D01*
X108124142Y-57854601D01*
X108113431Y-57846464D01*
X108102311Y-57839035D01*
X108090781Y-57832313D01*
X108078841Y-57826299D01*
X108066491Y-57820993D01*
X108053731Y-57816394D01*
X108040561Y-57812502D01*
X108026982Y-57809318D01*
X108012993Y-57806842D01*
X107998593Y-57805073D01*
X107983784Y-57804012D01*
X107968565Y-57803658D01*
X107962098Y-57803727D01*
X107949378Y-57804279D01*
X107936945Y-57805382D01*
X107924798Y-57807038D01*
X107912936Y-57809245D01*
X107901362Y-57812004D01*
X107884536Y-57817178D01*
X107868355Y-57823593D01*
X107852817Y-57831250D01*
X107837923Y-57840148D01*
X107823674Y-57850288D01*
X107814532Y-57857738D01*
X107805676Y-57865739D01*
X107797107Y-57874293D01*
X107788908Y-57883245D01*
X107781239Y-57892442D01*
X107774098Y-57901884D01*
X107767486Y-57911570D01*
X107758560Y-57926560D01*
X107750825Y-57942101D01*
X107744279Y-57958193D01*
X107738923Y-57974837D01*
X107736014Y-57986239D01*
X107733634Y-57997886D01*
X107731783Y-58009778D01*
X107730460Y-58021915D01*
X107729667Y-58034297D01*
X107729403Y-58046924D01*
X107729403Y-58170901D01*
X107594287Y-58170901D01*
X107594287Y-57296024D01*
X107729403Y-57296024D01*
X107729403Y-57826519D01*
G37*
G36*
X107279507Y-57877517D02*
G01*
X107293304Y-57876538D01*
X107306339Y-57873601D01*
X107318611Y-57868707D01*
X107330120Y-57861855D01*
X107340868Y-57853045D01*
X107344280Y-57849673D01*
X107351964Y-57840700D01*
X107359465Y-57829215D01*
X107365091Y-57816946D01*
X107368842Y-57803894D01*
X107370717Y-57790059D01*
X107370952Y-57782848D01*
X107370301Y-57771045D01*
X107367800Y-57757636D01*
X107363424Y-57745051D01*
X107357173Y-57733291D01*
X107349047Y-57722355D01*
X107344280Y-57717196D01*
X107333788Y-57707933D01*
X107322532Y-57700586D01*
X107310514Y-57695156D01*
X107297734Y-57691642D01*
X107284191Y-57690045D01*
X107279507Y-57689938D01*
X107267696Y-57690604D01*
X107254260Y-57693159D01*
X107241627Y-57697631D01*
X107229798Y-57704020D01*
X107218773Y-57712325D01*
X107213562Y-57717196D01*
X107205709Y-57725908D01*
X107198043Y-57737119D01*
X107192293Y-57749154D01*
X107188460Y-57762014D01*
X107186544Y-57775697D01*
X107186304Y-57782848D01*
X107186970Y-57794758D01*
X107189525Y-57808332D01*
X107193997Y-57821123D01*
X107200385Y-57833130D01*
X107208690Y-57844355D01*
X107213562Y-57849673D01*
X107222359Y-57857695D01*
X107233652Y-57865526D01*
X107245749Y-57871399D01*
X107258649Y-57875314D01*
X107272354Y-57877272D01*
X107279507Y-57877517D01*
G37*
G36*
X107279507Y-58571557D02*
G01*
X107293304Y-58570589D01*
X107306339Y-58567683D01*
X107318611Y-58562840D01*
X107330120Y-58556060D01*
X107340868Y-58547343D01*
X107344280Y-58544007D01*
X107351964Y-58535132D01*
X107359465Y-58523784D01*
X107365091Y-58511674D01*
X107368842Y-58498801D01*
X107370717Y-58485165D01*
X107370952Y-58478061D01*
X107370014Y-58464134D01*
X107367201Y-58450927D01*
X107362513Y-58438442D01*
X107355949Y-58426679D01*
X107347510Y-58415636D01*
X107344280Y-58412116D01*
X107335589Y-58404010D01*
X107324461Y-58396096D01*
X107312570Y-58390161D01*
X107299917Y-58386205D01*
X107286501Y-58384226D01*
X107279507Y-58383979D01*
X107267696Y-58384666D01*
X107254260Y-58387304D01*
X107241627Y-58391920D01*
X107229798Y-58398514D01*
X107218773Y-58407087D01*
X107213562Y-58412116D01*
X107205709Y-58421067D01*
X107198043Y-58432470D01*
X107192293Y-58444595D01*
X107188460Y-58457440D01*
X107186544Y-58471007D01*
X107186304Y-58478061D01*
X107186970Y-58489795D01*
X107189525Y-58503176D01*
X107193997Y-58515795D01*
X107200385Y-58527652D01*
X107208690Y-58538746D01*
X107213562Y-58544007D01*
X107222359Y-58551944D01*
X107233652Y-58559692D01*
X107245749Y-58565504D01*
X107258649Y-58569378D01*
X107272354Y-58571315D01*
X107279507Y-58571557D01*
G37*
G36*
X105786206Y-57496498D02*
G01*
X106127658Y-57496498D01*
X106127658Y-58552800D01*
X106265997Y-58552800D01*
X106265997Y-57496498D01*
X106606569Y-57496498D01*
X106606569Y-57371055D01*
X105786206Y-57371055D01*
X105786206Y-57496498D01*
G37*
G36*
X104717302Y-58552800D02*
G01*
X104855934Y-58552800D01*
X104855934Y-58020839D01*
X105467616Y-58020839D01*
X105467616Y-58552800D01*
X105605955Y-58552800D01*
X105605955Y-57371055D01*
X105467616Y-57371055D01*
X105467616Y-57896275D01*
X104855934Y-57896275D01*
X104855934Y-57371055D01*
X104717302Y-57371055D01*
X104717302Y-58552800D01*
G37*
G36*
X103714636Y-57496498D02*
G01*
X104056088Y-57496498D01*
X104056088Y-58552800D01*
X104194427Y-58552800D01*
X104194427Y-57496498D01*
X104534999Y-57496498D01*
X104534999Y-57371055D01*
X103714636Y-57371055D01*
X103714636Y-57496498D01*
G37*
G36*
X102474860Y-57496498D02*
G01*
X102936479Y-57496498D01*
X102936479Y-57896275D01*
X102509444Y-57896275D01*
X102509444Y-58020839D01*
X102936479Y-58020839D01*
X102936479Y-58552800D01*
X103074818Y-58552800D01*
X103074818Y-57371055D01*
X102474860Y-57371055D01*
X102474860Y-57496498D01*
G37*
G36*
X101450798Y-58499457D02*
G01*
X101467427Y-58508188D01*
X101484559Y-58516355D01*
X101502195Y-58523960D01*
X101520334Y-58531001D01*
X101538978Y-58537479D01*
X101558125Y-58543393D01*
X101577776Y-58548744D01*
X101597930Y-58553532D01*
X101618589Y-58557757D01*
X101639751Y-58561418D01*
X101661416Y-58564516D01*
X101683586Y-58567051D01*
X101706259Y-58569023D01*
X101729437Y-58570431D01*
X101741214Y-58570924D01*
X101753117Y-58571276D01*
X101765147Y-58571487D01*
X101777302Y-58571557D01*
X101792976Y-58571399D01*
X101808453Y-58570924D01*
X101823734Y-58570133D01*
X101838819Y-58569025D01*
X101853708Y-58567600D01*
X101868400Y-58565859D01*
X101882895Y-58563802D01*
X101897195Y-58561427D01*
X101911298Y-58558737D01*
X101925204Y-58555729D01*
X101938915Y-58552405D01*
X101952429Y-58548765D01*
X101965746Y-58544808D01*
X101978868Y-58540534D01*
X101991793Y-58535944D01*
X102004521Y-58531037D01*
X102017053Y-58525814D01*
X102029389Y-58520274D01*
X102041529Y-58514418D01*
X102053472Y-58508245D01*
X102065219Y-58501756D01*
X102076769Y-58494949D01*
X102088124Y-58487827D01*
X102099281Y-58480388D01*
X102110243Y-58472632D01*
X102121008Y-58464560D01*
X102131577Y-58456171D01*
X102141949Y-58447465D01*
X102152125Y-58438443D01*
X102162105Y-58429105D01*
X102171888Y-58419449D01*
X102181475Y-58409478D01*
X102190798Y-58399249D01*
X102199824Y-58388823D01*
X102208555Y-58378199D01*
X102216990Y-58367378D01*
X102225128Y-58356359D01*
X102232971Y-58345143D01*
X102240518Y-58333729D01*
X102247769Y-58322118D01*
X102254724Y-58310310D01*
X102261383Y-58298303D01*
X102267746Y-58286100D01*
X102273813Y-58273699D01*
X102279584Y-58261100D01*
X102285059Y-58248304D01*
X102290238Y-58235310D01*
X102295121Y-58222119D01*
X102299709Y-58208730D01*
X102304000Y-58195144D01*
X102307995Y-58181361D01*
X102311695Y-58167380D01*
X102315098Y-58153201D01*
X102318206Y-58138825D01*
X102321017Y-58124251D01*
X102323533Y-58109480D01*
X102325753Y-58094512D01*
X102327676Y-58079346D01*
X102329304Y-58063982D01*
X102330636Y-58048421D01*
X102331672Y-58032663D01*
X102332412Y-58016707D01*
X102332855Y-58000553D01*
X102333003Y-57984202D01*
X102332837Y-57966613D01*
X102332337Y-57949236D01*
X102331504Y-57932072D01*
X102330338Y-57915120D01*
X102328839Y-57898380D01*
X102327006Y-57881853D01*
X102324841Y-57865538D01*
X102322342Y-57849435D01*
X102319510Y-57833545D01*
X102316345Y-57817867D01*
X102312847Y-57802402D01*
X102309016Y-57787149D01*
X102304851Y-57772108D01*
X102300353Y-57757280D01*
X102295523Y-57742664D01*
X102290359Y-57728260D01*
X102284861Y-57714069D01*
X102279031Y-57700090D01*
X102272868Y-57686324D01*
X102266371Y-57672770D01*
X102259541Y-57659428D01*
X102252378Y-57646299D01*
X102244882Y-57633382D01*
X102237053Y-57620677D01*
X102228890Y-57608185D01*
X102220394Y-57595905D01*
X102211566Y-57583838D01*
X102202404Y-57571983D01*
X102192909Y-57560340D01*
X102183080Y-57548910D01*
X102172919Y-57537692D01*
X102162424Y-57526686D01*
X102151656Y-57515957D01*
X102140709Y-57505569D01*
X102129585Y-57495521D01*
X102118282Y-57485814D01*
X102106801Y-57476447D01*
X102095143Y-57467421D01*
X102083306Y-57458736D01*
X102071291Y-57450391D01*
X102059098Y-57442387D01*
X102046728Y-57434723D01*
X102034179Y-57427400D01*
X102021452Y-57420418D01*
X102008547Y-57413776D01*
X101995464Y-57407475D01*
X101982203Y-57401514D01*
X101968764Y-57395894D01*
X101955147Y-57390615D01*
X101941352Y-57385676D01*
X101927379Y-57381078D01*
X101913228Y-57376821D01*
X101898899Y-57372904D01*
X101884392Y-57369327D01*
X101869706Y-57366092D01*
X101854843Y-57363196D01*
X101839802Y-57360642D01*
X101824583Y-57358428D01*
X101809185Y-57356555D01*
X101793610Y-57355022D01*
X101777856Y-57353830D01*
X101761925Y-57352978D01*
X101745816Y-57352467D01*
X101729528Y-57352297D01*
X101708724Y-57352453D01*
X101688372Y-57352920D01*
X101668470Y-57353698D01*
X101649020Y-57354788D01*
X101630020Y-57356190D01*
X101611472Y-57357902D01*
X101593375Y-57359927D01*
X101575728Y-57362262D01*
X101558533Y-57364909D01*
X101541789Y-57367868D01*
X101525496Y-57371137D01*
X101509655Y-57374719D01*
X101494264Y-57378611D01*
X101479324Y-57382815D01*
X101464836Y-57387331D01*
X101450798Y-57392157D01*
X101450798Y-57539876D01*
X101466765Y-57532351D01*
X101482938Y-57525313D01*
X101499316Y-57518759D01*
X101515901Y-57512691D01*
X101532692Y-57507109D01*
X101549689Y-57502012D01*
X101566892Y-57497400D01*
X101584301Y-57493274D01*
X101601917Y-57489633D01*
X101619738Y-57486478D01*
X101637765Y-57483808D01*
X101655999Y-57481624D01*
X101674438Y-57479925D01*
X101693084Y-57478711D01*
X101711936Y-57477983D01*
X101730994Y-57477740D01*
X101743650Y-57477873D01*
X101756155Y-57478270D01*
X101768510Y-57478933D01*
X101780714Y-57479861D01*
X101792768Y-57481053D01*
X101804671Y-57482511D01*
X101816423Y-57484234D01*
X101828025Y-57486222D01*
X101850778Y-57490992D01*
X101872928Y-57496823D01*
X101894476Y-57503714D01*
X101915421Y-57511666D01*
X101935765Y-57520677D01*
X101955506Y-57530749D01*
X101974645Y-57541880D01*
X101993182Y-57554072D01*
X102011117Y-57567324D01*
X102028449Y-57581637D01*
X102045180Y-57597009D01*
X102061308Y-57613442D01*
X102076640Y-57630760D01*
X102090983Y-57648791D01*
X102104337Y-57667534D01*
X102116702Y-57686989D01*
X102128078Y-57707156D01*
X102138464Y-57728036D01*
X102143286Y-57738742D01*
X102147861Y-57749627D01*
X102152189Y-57760690D01*
X102156269Y-57771931D01*
X102160102Y-57783350D01*
X102163688Y-57794946D01*
X102167027Y-57806721D01*
X102170118Y-57818674D01*
X102172962Y-57830805D01*
X102175558Y-57843114D01*
X102177908Y-57855601D01*
X102180010Y-57868266D01*
X102181864Y-57881109D01*
X102183472Y-57894130D01*
X102184832Y-57907329D01*
X102185945Y-57920707D01*
X102186810Y-57934262D01*
X102187429Y-57947995D01*
X102187800Y-57961906D01*
X102187923Y-57975996D01*
X102187808Y-57989374D01*
X102187462Y-58002581D01*
X102186885Y-58015617D01*
X102186078Y-58028482D01*
X102185039Y-58041176D01*
X102183771Y-58053698D01*
X102182271Y-58066049D01*
X102180541Y-58078230D01*
X102178580Y-58090239D01*
X102176388Y-58102076D01*
X102173966Y-58113743D01*
X102171313Y-58125239D01*
X102165315Y-58147716D01*
X102158394Y-58169509D01*
X102150551Y-58190618D01*
X102141784Y-58211041D01*
X102132095Y-58230780D01*
X102121483Y-58249835D01*
X102109948Y-58268204D01*
X102097491Y-58285889D01*
X102084110Y-58302890D01*
X102069807Y-58319206D01*
X102054718Y-58334680D01*
X102039051Y-58349156D01*
X102022807Y-58362634D01*
X102005987Y-58375113D01*
X101988589Y-58386594D01*
X101970614Y-58397076D01*
X101952062Y-58406561D01*
X101932934Y-58415047D01*
X101913228Y-58422534D01*
X101892945Y-58429023D01*
X101872085Y-58434514D01*
X101850648Y-58439007D01*
X101828634Y-58442501D01*
X101806043Y-58444997D01*
X101782875Y-58446494D01*
X101771075Y-58446869D01*
X101759130Y-58446993D01*
X101737043Y-58446674D01*
X101715332Y-58445716D01*
X101693995Y-58444119D01*
X101673035Y-58441883D01*
X101652450Y-58439008D01*
X101632240Y-58435494D01*
X101612406Y-58431342D01*
X101592948Y-58426550D01*
X101573865Y-58421120D01*
X101555157Y-58415051D01*
X101536825Y-58408343D01*
X101518869Y-58400996D01*
X101501288Y-58393011D01*
X101484082Y-58384386D01*
X101467253Y-58375123D01*
X101450798Y-58365221D01*
X101450798Y-58499457D01*
G37*
G36*
X100773757Y-58552800D02*
G01*
X100908872Y-58552800D01*
X100908872Y-57531083D01*
X100917555Y-57539271D01*
X100926655Y-57546887D01*
X100937158Y-57554923D01*
X100947276Y-57562146D01*
X100954594Y-57567133D01*
X100966173Y-57574707D01*
X100976215Y-57581002D01*
X100986615Y-57587283D01*
X100997372Y-57593550D01*
X101008488Y-57599802D01*
X101019961Y-57606041D01*
X101022299Y-57607287D01*
X101034122Y-57613366D01*
X101046147Y-57619331D01*
X101058371Y-57625181D01*
X101070796Y-57630917D01*
X101083421Y-57636538D01*
X101096247Y-57642045D01*
X101101433Y-57644216D01*
X101114389Y-57649434D01*
X101127245Y-57654280D01*
X101140000Y-57658753D01*
X101152656Y-57662855D01*
X101165211Y-57666584D01*
X101177666Y-57669942D01*
X101182620Y-57671181D01*
X101182620Y-57534600D01*
X101168569Y-57530729D01*
X101157143Y-57527333D01*
X101145552Y-57523672D01*
X101133796Y-57519745D01*
X101121876Y-57515552D01*
X101109790Y-57511094D01*
X101097540Y-57506370D01*
X101088244Y-57502653D01*
X101075811Y-57497528D01*
X101063423Y-57492267D01*
X101051081Y-57486867D01*
X101038785Y-57481331D01*
X101026535Y-57475656D01*
X101014330Y-57469845D01*
X101002171Y-57463896D01*
X100990059Y-57457810D01*
X100978056Y-57451545D01*
X100966227Y-57445207D01*
X100954572Y-57438796D01*
X100943091Y-57432311D01*
X100931784Y-57425753D01*
X100920651Y-57419122D01*
X100909692Y-57412417D01*
X100898907Y-57405640D01*
X100888388Y-57398844D01*
X100878226Y-57392084D01*
X100868421Y-57385361D01*
X100856667Y-57377009D01*
X100845472Y-57368715D01*
X100834834Y-57360477D01*
X100824755Y-57352297D01*
X100773757Y-57352297D01*
X100773757Y-58552800D01*
G37*
G36*
X111681154Y-60568800D02*
G01*
X111336772Y-60568800D01*
X111316259Y-60568433D01*
X111296192Y-60567334D01*
X111276572Y-60565502D01*
X111257399Y-60562938D01*
X111238672Y-60559640D01*
X111220392Y-60555610D01*
X111202558Y-60550848D01*
X111185170Y-60545352D01*
X111168229Y-60539124D01*
X111151735Y-60532163D01*
X111135687Y-60524469D01*
X111120086Y-60516043D01*
X111104931Y-60506884D01*
X111090222Y-60496992D01*
X111075960Y-60486368D01*
X111062145Y-60475010D01*
X111048978Y-60463024D01*
X111036660Y-60450587D01*
X111025192Y-60437699D01*
X111014573Y-60424360D01*
X111004803Y-60410570D01*
X110995884Y-60396329D01*
X110987813Y-60381637D01*
X110980592Y-60366493D01*
X110974221Y-60350899D01*
X110968699Y-60334853D01*
X110964027Y-60318356D01*
X110960204Y-60301409D01*
X110957231Y-60284010D01*
X110955107Y-60266160D01*
X110953833Y-60247859D01*
X110953408Y-60229107D01*
X110953441Y-60227348D01*
X111098488Y-60227348D01*
X111098554Y-60233589D01*
X111099078Y-60245821D01*
X111100127Y-60257719D01*
X111102683Y-60274939D01*
X111106419Y-60291406D01*
X111111335Y-60307122D01*
X111117431Y-60322085D01*
X111124706Y-60336296D01*
X111133162Y-60349754D01*
X111142797Y-60362461D01*
X111153612Y-60374415D01*
X111165606Y-60385617D01*
X111169855Y-60389170D01*
X111183247Y-60399150D01*
X111197607Y-60408115D01*
X111212936Y-60416066D01*
X111223693Y-60420802D01*
X111234881Y-60425087D01*
X111246500Y-60428922D01*
X111258548Y-60432305D01*
X111271028Y-60435237D01*
X111283937Y-60437718D01*
X111297278Y-60439748D01*
X111311048Y-60441326D01*
X111325250Y-60442454D01*
X111339881Y-60443131D01*
X111354943Y-60443356D01*
X111542815Y-60443356D01*
X111542815Y-60018081D01*
X111383666Y-60018081D01*
X111366121Y-60018285D01*
X111349133Y-60018898D01*
X111332702Y-60019920D01*
X111316828Y-60021351D01*
X111301511Y-60023190D01*
X111286750Y-60025438D01*
X111272547Y-60028094D01*
X111258901Y-60031160D01*
X111245812Y-60034634D01*
X111233280Y-60038517D01*
X111221304Y-60042809D01*
X111209886Y-60047509D01*
X111188720Y-60058136D01*
X111169783Y-60070398D01*
X111153073Y-60084294D01*
X111138592Y-60099826D01*
X111126338Y-60116992D01*
X111116312Y-60135794D01*
X111108514Y-60156230D01*
X111102944Y-60178301D01*
X111100995Y-60189950D01*
X111099602Y-60202007D01*
X111098767Y-60214473D01*
X111098488Y-60227348D01*
X110953441Y-60227348D01*
X110953689Y-60214044D01*
X110954530Y-60199339D01*
X110955933Y-60184992D01*
X110957896Y-60171001D01*
X110960421Y-60157368D01*
X110963506Y-60144092D01*
X110967153Y-60131173D01*
X110971360Y-60118611D01*
X110976128Y-60106407D01*
X110981458Y-60094559D01*
X110987348Y-60083069D01*
X110993800Y-60071936D01*
X111000812Y-60061161D01*
X111008386Y-60050742D01*
X111016520Y-60040681D01*
X111025216Y-60030977D01*
X111034343Y-60021659D01*
X111043845Y-60012828D01*
X111053723Y-60004485D01*
X111063977Y-59996630D01*
X111074606Y-59989263D01*
X111085611Y-59982383D01*
X111096991Y-59975991D01*
X111108747Y-59970087D01*
X111120878Y-59964671D01*
X111133385Y-59959742D01*
X111146267Y-59955301D01*
X111159525Y-59951347D01*
X111173158Y-59947882D01*
X111187167Y-59944904D01*
X111201551Y-59942414D01*
X111216311Y-59940412D01*
X111216311Y-59937187D01*
X111210379Y-59935186D01*
X111198757Y-59930931D01*
X111187454Y-59926343D01*
X111176472Y-59921420D01*
X111165811Y-59916162D01*
X111155471Y-59910571D01*
X111140561Y-59901556D01*
X111126372Y-59891790D01*
X111112905Y-59881271D01*
X111100159Y-59870000D01*
X111088134Y-59857977D01*
X111076831Y-59845202D01*
X111066248Y-59831675D01*
X111062894Y-59827015D01*
X111053471Y-59812729D01*
X111045007Y-59797985D01*
X111037500Y-59782782D01*
X111030952Y-59767121D01*
X111025362Y-59751001D01*
X111020730Y-59734423D01*
X111017057Y-59717386D01*
X111015141Y-59705774D01*
X111013650Y-59693957D01*
X111012816Y-59684543D01*
X111156814Y-59684543D01*
X111156877Y-59690727D01*
X111157388Y-59702833D01*
X111158409Y-59714589D01*
X111160899Y-59731566D01*
X111164537Y-59747754D01*
X111169324Y-59763154D01*
X111175260Y-59777766D01*
X111182345Y-59791590D01*
X111190578Y-59804625D01*
X111199961Y-59816872D01*
X111210493Y-59828331D01*
X111222173Y-59839002D01*
X111226287Y-59842356D01*
X111239200Y-59851779D01*
X111252968Y-59860244D01*
X111267591Y-59867750D01*
X111283069Y-59874298D01*
X111299403Y-59879888D01*
X111310767Y-59883082D01*
X111322511Y-59885851D01*
X111334635Y-59888193D01*
X111347140Y-59890110D01*
X111360024Y-59891600D01*
X111373289Y-59892665D01*
X111386934Y-59893304D01*
X111400959Y-59893517D01*
X111542815Y-59893517D01*
X111542815Y-59512498D01*
X111383666Y-59512498D01*
X111369710Y-59512666D01*
X111356196Y-59513170D01*
X111343125Y-59514010D01*
X111330498Y-59515186D01*
X111318313Y-59516698D01*
X111306572Y-59518546D01*
X111284418Y-59523251D01*
X111264037Y-59529299D01*
X111245428Y-59536692D01*
X111228591Y-59545428D01*
X111213527Y-59555509D01*
X111200235Y-59566934D01*
X111188715Y-59579703D01*
X111178967Y-59593816D01*
X111170992Y-59609273D01*
X111164789Y-59626074D01*
X111160358Y-59644220D01*
X111157700Y-59663709D01*
X111156814Y-59684543D01*
X111012816Y-59684543D01*
X111012585Y-59681937D01*
X111011946Y-59669713D01*
X111011733Y-59657285D01*
X111012085Y-59642406D01*
X111013139Y-59627884D01*
X111014897Y-59613720D01*
X111017357Y-59599913D01*
X111020520Y-59586462D01*
X111024387Y-59573369D01*
X111028956Y-59560634D01*
X111034228Y-59548255D01*
X111040203Y-59536234D01*
X111046881Y-59524570D01*
X111054263Y-59513263D01*
X111062347Y-59502313D01*
X111071134Y-59491721D01*
X111080624Y-59481485D01*
X111090817Y-59471607D01*
X111101712Y-59462086D01*
X111113172Y-59453000D01*
X111125128Y-59444501D01*
X111137581Y-59436587D01*
X111150530Y-59429260D01*
X111163977Y-59422519D01*
X111177921Y-59416364D01*
X111192361Y-59410795D01*
X111207299Y-59405813D01*
X111222733Y-59401416D01*
X111238664Y-59397606D01*
X111255092Y-59394382D01*
X111272017Y-59391744D01*
X111289439Y-59389693D01*
X111307357Y-59388227D01*
X111325773Y-59387348D01*
X111344685Y-59387055D01*
X111681154Y-59387055D01*
X111681154Y-60568800D01*
G37*
G36*
X110065048Y-59724696D02*
G01*
X110453394Y-60705673D01*
X110459961Y-60722641D01*
X110466692Y-60739071D01*
X110473587Y-60754961D01*
X110480647Y-60770314D01*
X110487871Y-60785127D01*
X110495259Y-60799402D01*
X110502812Y-60813138D01*
X110510529Y-60826335D01*
X110518410Y-60838994D01*
X110526455Y-60851114D01*
X110534665Y-60862695D01*
X110543039Y-60873738D01*
X110551577Y-60884242D01*
X110560280Y-60894208D01*
X110569147Y-60903634D01*
X110578178Y-60912522D01*
X110587373Y-60920872D01*
X110596733Y-60928683D01*
X110606257Y-60935955D01*
X110615945Y-60942688D01*
X110635815Y-60954539D01*
X110656342Y-60964235D01*
X110677526Y-60971776D01*
X110699367Y-60977163D01*
X110721865Y-60980395D01*
X110745020Y-60981472D01*
X110757939Y-60981307D01*
X110770318Y-60980813D01*
X110782156Y-60979988D01*
X110796194Y-60978494D01*
X110809387Y-60976485D01*
X110821736Y-60973961D01*
X110833241Y-60970921D01*
X110833241Y-60850167D01*
X110819772Y-60854305D01*
X110806662Y-60857741D01*
X110793909Y-60860476D01*
X110781515Y-60862509D01*
X110769478Y-60863842D01*
X110755505Y-60864515D01*
X110753227Y-60864529D01*
X110740675Y-60864028D01*
X110728520Y-60862527D01*
X110716761Y-60860026D01*
X110705398Y-60856524D01*
X110694431Y-60852021D01*
X110683860Y-60846517D01*
X110673686Y-60840013D01*
X110663907Y-60832509D01*
X110654525Y-60824003D01*
X110645539Y-60814497D01*
X110636948Y-60803990D01*
X110628754Y-60792483D01*
X110620957Y-60779975D01*
X110613555Y-60766467D01*
X110606549Y-60751958D01*
X110599940Y-60736448D01*
X110532529Y-60568800D01*
X110862257Y-59724696D01*
X110712194Y-59724696D01*
X110483876Y-60375945D01*
X110480424Y-60387532D01*
X110476952Y-60400274D01*
X110473939Y-60411712D01*
X110470483Y-60425095D01*
X110467399Y-60437204D01*
X110466583Y-60440425D01*
X110461601Y-60440425D01*
X110458644Y-60427406D01*
X110455446Y-60414780D01*
X110452080Y-60402216D01*
X110448834Y-60390518D01*
X110445188Y-60377704D01*
X110205146Y-59724696D01*
X110065048Y-59724696D01*
G37*
G36*
X109502019Y-60525715D02*
G01*
X109502019Y-60362463D01*
X109491087Y-60371091D01*
X109481394Y-60378029D01*
X109471172Y-60384738D01*
X109460420Y-60391218D01*
X109449138Y-60397469D01*
X109437327Y-60403491D01*
X109434902Y-60404668D01*
X109422535Y-60410303D01*
X109409983Y-60415665D01*
X109397245Y-60420755D01*
X109384320Y-60425574D01*
X109371210Y-60430121D01*
X109357914Y-60434395D01*
X109352543Y-60436029D01*
X109338980Y-60439916D01*
X109325403Y-60443517D01*
X109311812Y-60446831D01*
X109298206Y-60449859D01*
X109284587Y-60452601D01*
X109270952Y-60455057D01*
X109265495Y-60455959D01*
X109252005Y-60457986D01*
X109238830Y-60459669D01*
X109225970Y-60461008D01*
X109213425Y-60462004D01*
X109201195Y-60462657D01*
X109189279Y-60462966D01*
X109184601Y-60462993D01*
X109168881Y-60462809D01*
X109153667Y-60462256D01*
X109138958Y-60461335D01*
X109124756Y-60460044D01*
X109111060Y-60458385D01*
X109097869Y-60456358D01*
X109085185Y-60453961D01*
X109073007Y-60451197D01*
X109061335Y-60448063D01*
X109044775Y-60442671D01*
X109029355Y-60436450D01*
X109015072Y-60429400D01*
X109001929Y-60421520D01*
X108993799Y-60415806D01*
X108982538Y-60406592D01*
X108972384Y-60396647D01*
X108963338Y-60385971D01*
X108955399Y-60374562D01*
X108948569Y-60362422D01*
X108942846Y-60349551D01*
X108938230Y-60335948D01*
X108934723Y-60321614D01*
X108932323Y-60306547D01*
X108931030Y-60290750D01*
X108930784Y-60279811D01*
X108931114Y-60268065D01*
X108932454Y-60253935D01*
X108934823Y-60240421D01*
X108938224Y-60227523D01*
X108942654Y-60215240D01*
X108948116Y-60203572D01*
X108951887Y-60196866D01*
X108958791Y-60185941D01*
X108966496Y-60175331D01*
X108975002Y-60165036D01*
X108984310Y-60155055D01*
X108994419Y-60145389D01*
X109005330Y-60136039D01*
X109009919Y-60132386D01*
X109019367Y-60125100D01*
X109029245Y-60117897D01*
X109039553Y-60110775D01*
X109050292Y-60103737D01*
X109061462Y-60096780D01*
X109073062Y-60089906D01*
X109085092Y-60083115D01*
X109097553Y-60076406D01*
X109110353Y-60069624D01*
X109123400Y-60062759D01*
X109136695Y-60055812D01*
X109150236Y-60048782D01*
X109164026Y-60041670D01*
X109174530Y-60036282D01*
X109185173Y-60030847D01*
X109195955Y-60025367D01*
X109206876Y-60019839D01*
X109218400Y-60013954D01*
X109229779Y-60008058D01*
X109241014Y-60002152D01*
X109252104Y-59996236D01*
X109263050Y-59990310D01*
X109273852Y-59984373D01*
X109284510Y-59978426D01*
X109295024Y-59972468D01*
X109305393Y-59966501D01*
X109315618Y-59960523D01*
X109322354Y-59956532D01*
X109335475Y-59948375D01*
X109348165Y-59940027D01*
X109360424Y-59931486D01*
X109372253Y-59922753D01*
X109383652Y-59913827D01*
X109394620Y-59904709D01*
X109405157Y-59895399D01*
X109415264Y-59885896D01*
X109424895Y-59876064D01*
X109434004Y-59865911D01*
X109442591Y-59855438D01*
X109450655Y-59844644D01*
X109458198Y-59833529D01*
X109465218Y-59822094D01*
X109471717Y-59810338D01*
X109477693Y-59798262D01*
X109482982Y-59785760D01*
X109487566Y-59772727D01*
X109491445Y-59759162D01*
X109494619Y-59745066D01*
X109497087Y-59730439D01*
X109498850Y-59715281D01*
X109499710Y-59703563D01*
X109500173Y-59691547D01*
X109500261Y-59683370D01*
X109499949Y-59668443D01*
X109499014Y-59653887D01*
X109497456Y-59639702D01*
X109495274Y-59625888D01*
X109492469Y-59612444D01*
X109489040Y-59599372D01*
X109484988Y-59586671D01*
X109480312Y-59574340D01*
X109475014Y-59562381D01*
X109469091Y-59550792D01*
X109464797Y-59543273D01*
X109457952Y-59532247D01*
X109450715Y-59521593D01*
X109443086Y-59511310D01*
X109435066Y-59501397D01*
X109426655Y-59491856D01*
X109417852Y-59482685D01*
X109408657Y-59473886D01*
X109399071Y-59465457D01*
X109389093Y-59457399D01*
X109378724Y-59449712D01*
X109371594Y-59444794D01*
X109360629Y-59437715D01*
X109349385Y-59430987D01*
X109337864Y-59424608D01*
X109326064Y-59418581D01*
X109313986Y-59412903D01*
X109301630Y-59407576D01*
X109288995Y-59402599D01*
X109276083Y-59397973D01*
X109262892Y-59393696D01*
X109249423Y-59389771D01*
X109240289Y-59387348D01*
X109226414Y-59383943D01*
X109212489Y-59380874D01*
X109198511Y-59378139D01*
X109184482Y-59375739D01*
X109170402Y-59373674D01*
X109156270Y-59371944D01*
X109142087Y-59370548D01*
X109127852Y-59369488D01*
X109113565Y-59368762D01*
X109099227Y-59368371D01*
X109089640Y-59368297D01*
X109068174Y-59368495D01*
X109047448Y-59369089D01*
X109027462Y-59370080D01*
X109008215Y-59371466D01*
X108989708Y-59373249D01*
X108971941Y-59375427D01*
X108954913Y-59378002D01*
X108938624Y-59380973D01*
X108923076Y-59384340D01*
X108908267Y-59388104D01*
X108894197Y-59392263D01*
X108880867Y-59396819D01*
X108868277Y-59401770D01*
X108856426Y-59407118D01*
X108845315Y-59412862D01*
X108834943Y-59419002D01*
X108834943Y-59574633D01*
X108848255Y-59564838D01*
X108862031Y-59555674D01*
X108876273Y-59547142D01*
X108890979Y-59539243D01*
X108906150Y-59531975D01*
X108921785Y-59525339D01*
X108937886Y-59519335D01*
X108954451Y-59513963D01*
X108971482Y-59509224D01*
X108988977Y-59505116D01*
X109006937Y-59501640D01*
X109025361Y-59498796D01*
X109044251Y-59496584D01*
X109063605Y-59495004D01*
X109083424Y-59494056D01*
X109103708Y-59493740D01*
X109117905Y-59493969D01*
X109132101Y-59494656D01*
X109146298Y-59495801D01*
X109160495Y-59497404D01*
X109174691Y-59499465D01*
X109188888Y-59501983D01*
X109194567Y-59503119D01*
X109208435Y-59506343D01*
X109221832Y-59510154D01*
X109234756Y-59514552D01*
X109247209Y-59519537D01*
X109259188Y-59525108D01*
X109270696Y-59531266D01*
X109275167Y-59533894D01*
X109285927Y-59540880D01*
X109296044Y-59548468D01*
X109305516Y-59556657D01*
X109314345Y-59565447D01*
X109322529Y-59574838D01*
X109330070Y-59584830D01*
X109332906Y-59588995D01*
X109339323Y-59599886D01*
X109344652Y-59611492D01*
X109348894Y-59623814D01*
X109352048Y-59636851D01*
X109354115Y-59650604D01*
X109355094Y-59665073D01*
X109355181Y-59671060D01*
X109354773Y-59684872D01*
X109353549Y-59698097D01*
X109351510Y-59710735D01*
X109348655Y-59722787D01*
X109344984Y-59734251D01*
X109340497Y-59745129D01*
X109338474Y-59749316D01*
X109331543Y-59761430D01*
X109324917Y-59771226D01*
X109317518Y-59780750D01*
X109309347Y-59790002D01*
X109300402Y-59798982D01*
X109290685Y-59807691D01*
X109288649Y-59809400D01*
X109277948Y-59817790D01*
X109266547Y-59826109D01*
X109254444Y-59834357D01*
X109244257Y-59840903D01*
X109233621Y-59847404D01*
X109222536Y-59853859D01*
X109211002Y-59860268D01*
X109208049Y-59861863D01*
X109195959Y-59868316D01*
X109183429Y-59874924D01*
X109170460Y-59881688D01*
X109157051Y-59888608D01*
X109143202Y-59895683D01*
X109132527Y-59901092D01*
X109121605Y-59906588D01*
X109110436Y-59912172D01*
X109099019Y-59917843D01*
X109087153Y-59923752D01*
X109075405Y-59929717D01*
X109063777Y-59935739D01*
X109052266Y-59941817D01*
X109040874Y-59947953D01*
X109029601Y-59954144D01*
X109018446Y-59960393D01*
X109007409Y-59966698D01*
X108996491Y-59973060D01*
X108985692Y-59979479D01*
X108978558Y-59983789D01*
X108968021Y-59990288D01*
X108957730Y-59996927D01*
X108947687Y-60003704D01*
X108937892Y-60010621D01*
X108928343Y-60017676D01*
X108919042Y-60024871D01*
X108907026Y-60034680D01*
X108895448Y-60044737D01*
X108884311Y-60055041D01*
X108878907Y-60060286D01*
X108868484Y-60070906D01*
X108858611Y-60081810D01*
X108849287Y-60092998D01*
X108840512Y-60104469D01*
X108832287Y-60116225D01*
X108824612Y-60128265D01*
X108817486Y-60140588D01*
X108810910Y-60153196D01*
X108805002Y-60166110D01*
X108799882Y-60179501D01*
X108795550Y-60193368D01*
X108792006Y-60207711D01*
X108789249Y-60222530D01*
X108787279Y-60237826D01*
X108786319Y-60249610D01*
X108785802Y-60261663D01*
X108785704Y-60269846D01*
X108786005Y-60285986D01*
X108786910Y-60301651D01*
X108788417Y-60316843D01*
X108790526Y-60331560D01*
X108793239Y-60345804D01*
X108796554Y-60359573D01*
X108800472Y-60372869D01*
X108804993Y-60385691D01*
X108810117Y-60398038D01*
X108815843Y-60409912D01*
X108819996Y-60417564D01*
X108826584Y-60428689D01*
X108833600Y-60439423D01*
X108841044Y-60449764D01*
X108848916Y-60459715D01*
X108857215Y-60469273D01*
X108865941Y-60478440D01*
X108875095Y-60487216D01*
X108884677Y-60495600D01*
X108894687Y-60503592D01*
X108905124Y-60511193D01*
X108912320Y-60516043D01*
X108923358Y-60522947D01*
X108934710Y-60529479D01*
X108946377Y-60535641D01*
X108958358Y-60541432D01*
X108970653Y-60546852D01*
X108983263Y-60551901D01*
X108996186Y-60556579D01*
X109009424Y-60560886D01*
X109022977Y-60564822D01*
X109036843Y-60568387D01*
X109046262Y-60570558D01*
X109060515Y-60573596D01*
X109074918Y-60576335D01*
X109089470Y-60578775D01*
X109104171Y-60580917D01*
X109119021Y-60582760D01*
X109134021Y-60584304D01*
X109149171Y-60585549D01*
X109164470Y-60586495D01*
X109179918Y-60587142D01*
X109195516Y-60587491D01*
X109205997Y-60587557D01*
X109218938Y-60587361D01*
X109231035Y-60586880D01*
X109244059Y-60586111D01*
X109258011Y-60585053D01*
X109270346Y-60583951D01*
X109275460Y-60583454D01*
X109288333Y-60582079D01*
X109301306Y-60580517D01*
X109314379Y-60578770D01*
X109327552Y-60576837D01*
X109340826Y-60574717D01*
X109354199Y-60572412D01*
X109359577Y-60571437D01*
X109372842Y-60568871D01*
X109385892Y-60566119D01*
X109398728Y-60563181D01*
X109411349Y-60560057D01*
X109423755Y-60556747D01*
X109435947Y-60553251D01*
X109440763Y-60551800D01*
X109452305Y-60548072D01*
X109465192Y-60543428D01*
X109477028Y-60538599D01*
X109487813Y-60533585D01*
X109499067Y-60527500D01*
X109502019Y-60525715D01*
G37*
G36*
X108525732Y-60587557D02*
G01*
X108539529Y-60586589D01*
X108552564Y-60583683D01*
X108564836Y-60578840D01*
X108576345Y-60572060D01*
X108587092Y-60563343D01*
X108590505Y-60560007D01*
X108598189Y-60551132D01*
X108605690Y-60539784D01*
X108611316Y-60527674D01*
X108615067Y-60514801D01*
X108616942Y-60501165D01*
X108617176Y-60494061D01*
X108616239Y-60480134D01*
X108613426Y-60466927D01*
X108608737Y-60454442D01*
X108602174Y-60442679D01*
X108593735Y-60431636D01*
X108590505Y-60428116D01*
X108581814Y-60420010D01*
X108570686Y-60412096D01*
X108558795Y-60406161D01*
X108546142Y-60402205D01*
X108532726Y-60400226D01*
X108525732Y-60399979D01*
X108513921Y-60400666D01*
X108500485Y-60403304D01*
X108487852Y-60407920D01*
X108476023Y-60414514D01*
X108464998Y-60423087D01*
X108459786Y-60428116D01*
X108451934Y-60437067D01*
X108444268Y-60448470D01*
X108438518Y-60460595D01*
X108434685Y-60473440D01*
X108432768Y-60487007D01*
X108432529Y-60494061D01*
X108433194Y-60505795D01*
X108435750Y-60519176D01*
X108440222Y-60531795D01*
X108446610Y-60543652D01*
X108454915Y-60554746D01*
X108459786Y-60560007D01*
X108468583Y-60567944D01*
X108479877Y-60575692D01*
X108491973Y-60581504D01*
X108504874Y-60585378D01*
X108518578Y-60587315D01*
X108525732Y-60587557D01*
G37*
G36*
X107368314Y-60568800D02*
G01*
X107561168Y-60568800D01*
X108018098Y-60028339D01*
X108025587Y-60019293D01*
X108033308Y-60009703D01*
X108040571Y-60000261D01*
X108047686Y-59990031D01*
X108049458Y-59987013D01*
X108052682Y-59987013D01*
X108052682Y-60568800D01*
X108191022Y-60568800D01*
X108191022Y-59387055D01*
X108052682Y-59387055D01*
X108052682Y-59942463D01*
X108049458Y-59942463D01*
X108042238Y-59931917D01*
X108034769Y-59921998D01*
X108026310Y-59911565D01*
X108018098Y-59902017D01*
X107576116Y-59387055D01*
X107403778Y-59387055D01*
X107910826Y-59953894D01*
X107368314Y-60568800D01*
G37*
G36*
X107188063Y-60587557D02*
G01*
X107201860Y-60586589D01*
X107214894Y-60583683D01*
X107227166Y-60578840D01*
X107238676Y-60572060D01*
X107249423Y-60563343D01*
X107252836Y-60560007D01*
X107260520Y-60551132D01*
X107268021Y-60539784D01*
X107273647Y-60527674D01*
X107277398Y-60514801D01*
X107279273Y-60501165D01*
X107279507Y-60494061D01*
X107278570Y-60480134D01*
X107275757Y-60466927D01*
X107271068Y-60454442D01*
X107264505Y-60442679D01*
X107256066Y-60431636D01*
X107252836Y-60428116D01*
X107244145Y-60420010D01*
X107233016Y-60412096D01*
X107221126Y-60406161D01*
X107208472Y-60402205D01*
X107195057Y-60400226D01*
X107188063Y-60399979D01*
X107176252Y-60400666D01*
X107162815Y-60403304D01*
X107150183Y-60407920D01*
X107138354Y-60414514D01*
X107127328Y-60423087D01*
X107122117Y-60428116D01*
X107114265Y-60437067D01*
X107106598Y-60448470D01*
X107100849Y-60460595D01*
X107097016Y-60473440D01*
X107095099Y-60487007D01*
X107094860Y-60494061D01*
X107095525Y-60505795D01*
X107098081Y-60519176D01*
X107102552Y-60531795D01*
X107108941Y-60543652D01*
X107117246Y-60554746D01*
X107122117Y-60560007D01*
X107130914Y-60567944D01*
X107142207Y-60575692D01*
X107154304Y-60581504D01*
X107167205Y-60585378D01*
X107180909Y-60587315D01*
X107188063Y-60587557D01*
G37*
G36*
X106990226Y-60568800D02*
G01*
X106836060Y-60568800D01*
X106718237Y-60243175D01*
X106217051Y-60243175D01*
X106091608Y-60568800D01*
X105938321Y-60568800D01*
X106111720Y-60118611D01*
X106262480Y-60118611D01*
X106671929Y-60118611D01*
X106488160Y-59615666D01*
X106487503Y-59613850D01*
X106483656Y-59602090D01*
X106479974Y-59588846D01*
X106477032Y-59576676D01*
X106474204Y-59563475D01*
X106471491Y-59549244D01*
X106469403Y-59537118D01*
X106465885Y-59537118D01*
X106465318Y-59540460D01*
X106463046Y-59553255D01*
X106460775Y-59565134D01*
X106457935Y-59578695D01*
X106455096Y-59590826D01*
X106451689Y-59603493D01*
X106447714Y-59615666D01*
X106262480Y-60118611D01*
X106111720Y-60118611D01*
X106393492Y-59387055D01*
X106536814Y-59387055D01*
X106990226Y-60568800D01*
G37*
G36*
X105741363Y-60587557D02*
G01*
X105755161Y-60586589D01*
X105768195Y-60583683D01*
X105780467Y-60578840D01*
X105791977Y-60572060D01*
X105802724Y-60563343D01*
X105806137Y-60560007D01*
X105813820Y-60551132D01*
X105821322Y-60539784D01*
X105826948Y-60527674D01*
X105830698Y-60514801D01*
X105832574Y-60501165D01*
X105832808Y-60494061D01*
X105831870Y-60480134D01*
X105829057Y-60466927D01*
X105824369Y-60454442D01*
X105817805Y-60442679D01*
X105809366Y-60431636D01*
X105806137Y-60428116D01*
X105797446Y-60420010D01*
X105786317Y-60412096D01*
X105774426Y-60406161D01*
X105761773Y-60402205D01*
X105748357Y-60400226D01*
X105741363Y-60399979D01*
X105729553Y-60400666D01*
X105716116Y-60403304D01*
X105703483Y-60407920D01*
X105691654Y-60414514D01*
X105680629Y-60423087D01*
X105675418Y-60428116D01*
X105667565Y-60437067D01*
X105659899Y-60448470D01*
X105654150Y-60460595D01*
X105650317Y-60473440D01*
X105648400Y-60487007D01*
X105648160Y-60494061D01*
X105648826Y-60505795D01*
X105651381Y-60519176D01*
X105655853Y-60531795D01*
X105662242Y-60543652D01*
X105670547Y-60554746D01*
X105675418Y-60560007D01*
X105684215Y-60567944D01*
X105695508Y-60575692D01*
X105707605Y-60581504D01*
X105720506Y-60585378D01*
X105734210Y-60587315D01*
X105741363Y-60587557D01*
G37*
G36*
X104201461Y-60568800D02*
G01*
X104339214Y-60568800D01*
X104339214Y-59775987D01*
X104339170Y-59764099D01*
X104339036Y-59751880D01*
X104338812Y-59739332D01*
X104338500Y-59726455D01*
X104338098Y-59713247D01*
X104337607Y-59699710D01*
X104337026Y-59685843D01*
X104336357Y-59671647D01*
X104335597Y-59657120D01*
X104334749Y-59642264D01*
X104333811Y-59627078D01*
X104332784Y-59611563D01*
X104331668Y-59595718D01*
X104330463Y-59579543D01*
X104329168Y-59563038D01*
X104327784Y-59546204D01*
X104331008Y-59546204D01*
X104334706Y-59560807D01*
X104338327Y-59574612D01*
X104341871Y-59587618D01*
X104345337Y-59599826D01*
X104348726Y-59611235D01*
X104353125Y-59625205D01*
X104357386Y-59637755D01*
X104361510Y-59648885D01*
X104366472Y-59660802D01*
X104770352Y-60568800D01*
X104838056Y-60568800D01*
X105241056Y-59667250D01*
X105246482Y-59653862D01*
X105250853Y-59641678D01*
X105255252Y-59628185D01*
X105259678Y-59613381D01*
X105263015Y-59601419D01*
X105266368Y-59588720D01*
X105269737Y-59575285D01*
X105273121Y-59561113D01*
X105276521Y-59546204D01*
X105279745Y-59546204D01*
X105278592Y-59560291D01*
X105277553Y-59575955D01*
X105276628Y-59593195D01*
X105276073Y-59605564D01*
X105275570Y-59618634D01*
X105275116Y-59632405D01*
X105274713Y-59646876D01*
X105274361Y-59662049D01*
X105274058Y-59677921D01*
X105273807Y-59694495D01*
X105273605Y-59711769D01*
X105273454Y-59729743D01*
X105273353Y-59748419D01*
X105273303Y-59767795D01*
X105273296Y-59777746D01*
X105273296Y-60568800D01*
X105406653Y-60568800D01*
X105406653Y-59387055D01*
X105223764Y-59387055D01*
X104860917Y-60210935D01*
X104855794Y-60222617D01*
X104850901Y-60233924D01*
X104846241Y-60244856D01*
X104839683Y-60260549D01*
X104833646Y-60275397D01*
X104828129Y-60289400D01*
X104823132Y-60302558D01*
X104818656Y-60314871D01*
X104814700Y-60326340D01*
X104810235Y-60340316D01*
X104806695Y-60352791D01*
X104801712Y-60352791D01*
X104797334Y-60340821D01*
X104793066Y-60329238D01*
X104788908Y-60318043D01*
X104782877Y-60301974D01*
X104777093Y-60286777D01*
X104771556Y-60272450D01*
X104766267Y-60258994D01*
X104761225Y-60246408D01*
X104756430Y-60234694D01*
X104751882Y-60223850D01*
X104746204Y-60210745D01*
X104744853Y-60207711D01*
X104374678Y-59387055D01*
X104201461Y-59387055D01*
X104201461Y-60568800D01*
G37*
G36*
X103870268Y-60587557D02*
G01*
X103884065Y-60586589D01*
X103897099Y-60583683D01*
X103909372Y-60578840D01*
X103920881Y-60572060D01*
X103931628Y-60563343D01*
X103935041Y-60560007D01*
X103942725Y-60551132D01*
X103950226Y-60539784D01*
X103955852Y-60527674D01*
X103959603Y-60514801D01*
X103961478Y-60501165D01*
X103961712Y-60494061D01*
X103960775Y-60480134D01*
X103957962Y-60466927D01*
X103953273Y-60454442D01*
X103946710Y-60442679D01*
X103938271Y-60431636D01*
X103935041Y-60428116D01*
X103926350Y-60420010D01*
X103915222Y-60412096D01*
X103903331Y-60406161D01*
X103890678Y-60402205D01*
X103877262Y-60400226D01*
X103870268Y-60399979D01*
X103858457Y-60400666D01*
X103845021Y-60403304D01*
X103832388Y-60407920D01*
X103820559Y-60414514D01*
X103809534Y-60423087D01*
X103804322Y-60428116D01*
X103796470Y-60437067D01*
X103788804Y-60448470D01*
X103783054Y-60460595D01*
X103779221Y-60473440D01*
X103777304Y-60487007D01*
X103777065Y-60494061D01*
X103777730Y-60505795D01*
X103780286Y-60519176D01*
X103784758Y-60531795D01*
X103791146Y-60543652D01*
X103799451Y-60554746D01*
X103804322Y-60560007D01*
X103813119Y-60567944D01*
X103824413Y-60575692D01*
X103836509Y-60581504D01*
X103849410Y-60585378D01*
X103863114Y-60587315D01*
X103870268Y-60587557D01*
G37*
G36*
X111681154Y-62584800D02*
G01*
X111367839Y-62584800D01*
X111349782Y-62584637D01*
X111331954Y-62584151D01*
X111314355Y-62583341D01*
X111296985Y-62582207D01*
X111279843Y-62580749D01*
X111262931Y-62578967D01*
X111246248Y-62576861D01*
X111229793Y-62574431D01*
X111213568Y-62571677D01*
X111197572Y-62568599D01*
X111181804Y-62565197D01*
X111166266Y-62561471D01*
X111150956Y-62557421D01*
X111135876Y-62553047D01*
X111121024Y-62548349D01*
X111106402Y-62543327D01*
X111092008Y-62537981D01*
X111077844Y-62532311D01*
X111063908Y-62526317D01*
X111050202Y-62519999D01*
X111036724Y-62513357D01*
X111023475Y-62506391D01*
X111010456Y-62499101D01*
X110997665Y-62491487D01*
X110985103Y-62483548D01*
X110972771Y-62475286D01*
X110960667Y-62466700D01*
X110948792Y-62457790D01*
X110937146Y-62448556D01*
X110925729Y-62438998D01*
X110914541Y-62429116D01*
X110903583Y-62418910D01*
X110892908Y-62408418D01*
X110882572Y-62397717D01*
X110872574Y-62386805D01*
X110862916Y-62375683D01*
X110853597Y-62364352D01*
X110844616Y-62352810D01*
X110835975Y-62341058D01*
X110827672Y-62329096D01*
X110819708Y-62316923D01*
X110812083Y-62304541D01*
X110804797Y-62291949D01*
X110797850Y-62279146D01*
X110791242Y-62266134D01*
X110784972Y-62252911D01*
X110779042Y-62239479D01*
X110773450Y-62225836D01*
X110768197Y-62211983D01*
X110763283Y-62197920D01*
X110758708Y-62183647D01*
X110754472Y-62169164D01*
X110750575Y-62154471D01*
X110747017Y-62139567D01*
X110743797Y-62124454D01*
X110740917Y-62109130D01*
X110738375Y-62093597D01*
X110736172Y-62077853D01*
X110734309Y-62061900D01*
X110732784Y-62045736D01*
X110731597Y-62029362D01*
X110730750Y-62012778D01*
X110730242Y-61995984D01*
X110730107Y-61982497D01*
X110875153Y-61982497D01*
X110875279Y-61996647D01*
X110875659Y-62010596D01*
X110876291Y-62024342D01*
X110877177Y-62037886D01*
X110878315Y-62051229D01*
X110879707Y-62064369D01*
X110881352Y-62077307D01*
X110883249Y-62090043D01*
X110885400Y-62102577D01*
X110887804Y-62114909D01*
X110890460Y-62127039D01*
X110893370Y-62138966D01*
X110896533Y-62150692D01*
X110899949Y-62162215D01*
X110903618Y-62173537D01*
X110907539Y-62184656D01*
X110916142Y-62206289D01*
X110925757Y-62227113D01*
X110936384Y-62247130D01*
X110948023Y-62266337D01*
X110960674Y-62284737D01*
X110974337Y-62302328D01*
X110989012Y-62319111D01*
X111004699Y-62335086D01*
X111021259Y-62350134D01*
X111038624Y-62364212D01*
X111056796Y-62377318D01*
X111075774Y-62389454D01*
X111095557Y-62400619D01*
X111116147Y-62410813D01*
X111137543Y-62420036D01*
X111148543Y-62424284D01*
X111159745Y-62428289D01*
X111171148Y-62432051D01*
X111182752Y-62435570D01*
X111194558Y-62438847D01*
X111206566Y-62441881D01*
X111218775Y-62444672D01*
X111231186Y-62447221D01*
X111243798Y-62449526D01*
X111256611Y-62451589D01*
X111269626Y-62453410D01*
X111282843Y-62454987D01*
X111296261Y-62456322D01*
X111309881Y-62457415D01*
X111323702Y-62458264D01*
X111337724Y-62458871D01*
X111351948Y-62459235D01*
X111366374Y-62459356D01*
X111542815Y-62459356D01*
X111542815Y-61528498D01*
X111358167Y-61528498D01*
X111328451Y-61528941D01*
X111299677Y-61530271D01*
X111271847Y-61532488D01*
X111244961Y-61535592D01*
X111219018Y-61539582D01*
X111194018Y-61544459D01*
X111169961Y-61550223D01*
X111146848Y-61556873D01*
X111124679Y-61564410D01*
X111103453Y-61572834D01*
X111083170Y-61582144D01*
X111063830Y-61592342D01*
X111045434Y-61603426D01*
X111027982Y-61615396D01*
X111011472Y-61628254D01*
X110995906Y-61641998D01*
X110981284Y-61656629D01*
X110967605Y-61672146D01*
X110954869Y-61688550D01*
X110943077Y-61705841D01*
X110932228Y-61724019D01*
X110922322Y-61743083D01*
X110913360Y-61763034D01*
X110905341Y-61783872D01*
X110898266Y-61805597D01*
X110892134Y-61828208D01*
X110886945Y-61851706D01*
X110882700Y-61876091D01*
X110879398Y-61901362D01*
X110877040Y-61927520D01*
X110875624Y-61954565D01*
X110875153Y-61982497D01*
X110730107Y-61982497D01*
X110730072Y-61978980D01*
X110730682Y-61943547D01*
X110732512Y-61909239D01*
X110735562Y-61876056D01*
X110739832Y-61843997D01*
X110745321Y-61813064D01*
X110752030Y-61783255D01*
X110759960Y-61754571D01*
X110769109Y-61727013D01*
X110779478Y-61700578D01*
X110791066Y-61675269D01*
X110803875Y-61651085D01*
X110817904Y-61628025D01*
X110833152Y-61606091D01*
X110849621Y-61585281D01*
X110867309Y-61565596D01*
X110886217Y-61547036D01*
X110906345Y-61529601D01*
X110927693Y-61513290D01*
X110950261Y-61498105D01*
X110974048Y-61484044D01*
X110999056Y-61471109D01*
X111025283Y-61459298D01*
X111052730Y-61448611D01*
X111081398Y-61439050D01*
X111111285Y-61430614D01*
X111142391Y-61423302D01*
X111174718Y-61417116D01*
X111208265Y-61412054D01*
X111243031Y-61408117D01*
X111279018Y-61405305D01*
X111316224Y-61403617D01*
X111354650Y-61403055D01*
X111681154Y-61403055D01*
X111681154Y-62584800D01*
G37*
G36*
X110235846Y-61722258D02*
G01*
X110255699Y-61723216D01*
X110275258Y-61724813D01*
X110294520Y-61727049D01*
X110313488Y-61729924D01*
X110332160Y-61733438D01*
X110350536Y-61737590D01*
X110368618Y-61742381D01*
X110386403Y-61747812D01*
X110403894Y-61753881D01*
X110421089Y-61760589D01*
X110437989Y-61767935D01*
X110454593Y-61775921D01*
X110470902Y-61784545D01*
X110486915Y-61793809D01*
X110502634Y-61803711D01*
X110502634Y-61947033D01*
X110487167Y-61933546D01*
X110471470Y-61920929D01*
X110455541Y-61909183D01*
X110439381Y-61898306D01*
X110422989Y-61888300D01*
X110406367Y-61879164D01*
X110389513Y-61870898D01*
X110372428Y-61863502D01*
X110355111Y-61856976D01*
X110337564Y-61851320D01*
X110319785Y-61846534D01*
X110301774Y-61842619D01*
X110283533Y-61839573D01*
X110265060Y-61837398D01*
X110246356Y-61836093D01*
X110227421Y-61835658D01*
X110216710Y-61835858D01*
X110196308Y-61837461D01*
X110177266Y-61840667D01*
X110159584Y-61845475D01*
X110143263Y-61851887D01*
X110128301Y-61859901D01*
X110114700Y-61869518D01*
X110102459Y-61880738D01*
X110091578Y-61893561D01*
X110082057Y-61907986D01*
X110073896Y-61924015D01*
X110067096Y-61941646D01*
X110061655Y-61960880D01*
X110057575Y-61981717D01*
X110054855Y-62004157D01*
X110054004Y-62015978D01*
X110053494Y-62028199D01*
X110053324Y-62040822D01*
X110306262Y-62076872D01*
X110323411Y-62079523D01*
X110340015Y-62082566D01*
X110356074Y-62086001D01*
X110371590Y-62089828D01*
X110386560Y-62094047D01*
X110400987Y-62098658D01*
X110414869Y-62103662D01*
X110428207Y-62109057D01*
X110441000Y-62114845D01*
X110453249Y-62121025D01*
X110464953Y-62127597D01*
X110476113Y-62134561D01*
X110486729Y-62141917D01*
X110496800Y-62149665D01*
X110506327Y-62157806D01*
X110515310Y-62166338D01*
X110523748Y-62175263D01*
X110531642Y-62184580D01*
X110538991Y-62194289D01*
X110545796Y-62204390D01*
X110552056Y-62214883D01*
X110557773Y-62225768D01*
X110562944Y-62237046D01*
X110567572Y-62248715D01*
X110571655Y-62260777D01*
X110575193Y-62273231D01*
X110578187Y-62286077D01*
X110580637Y-62299315D01*
X110582542Y-62312945D01*
X110583903Y-62326967D01*
X110584720Y-62341382D01*
X110584992Y-62356188D01*
X110584714Y-62370010D01*
X110583879Y-62383487D01*
X110582488Y-62396618D01*
X110580541Y-62409403D01*
X110578037Y-62421842D01*
X110574977Y-62433935D01*
X110571360Y-62445683D01*
X110567187Y-62457085D01*
X110562457Y-62468141D01*
X110557171Y-62478852D01*
X110551329Y-62489216D01*
X110544930Y-62499235D01*
X110537975Y-62508908D01*
X110530464Y-62518236D01*
X110522395Y-62527217D01*
X110513771Y-62535853D01*
X110504619Y-62544052D01*
X110495041Y-62551721D01*
X110485037Y-62558862D01*
X110474607Y-62565474D01*
X110463751Y-62571557D01*
X110452469Y-62577110D01*
X110440761Y-62582135D01*
X110428628Y-62586631D01*
X110416069Y-62590598D01*
X110403083Y-62594036D01*
X110389672Y-62596946D01*
X110375835Y-62599326D01*
X110361572Y-62601177D01*
X110346883Y-62602499D01*
X110331768Y-62603293D01*
X110316227Y-62603557D01*
X110295120Y-62602965D01*
X110274663Y-62601190D01*
X110254857Y-62598230D01*
X110235701Y-62594087D01*
X110217195Y-62588760D01*
X110199339Y-62582249D01*
X110182134Y-62574554D01*
X110165578Y-62565675D01*
X110149674Y-62555613D01*
X110134419Y-62544367D01*
X110119815Y-62531937D01*
X110105861Y-62518323D01*
X110092557Y-62503525D01*
X110079904Y-62487544D01*
X110067901Y-62470378D01*
X110056548Y-62452029D01*
X110053324Y-62452029D01*
X110053324Y-62584800D01*
X109918209Y-62584800D01*
X109918209Y-62148679D01*
X110053324Y-62148679D01*
X110053324Y-62234848D01*
X110053581Y-62248511D01*
X110054350Y-62261877D01*
X110055633Y-62274945D01*
X110057428Y-62287715D01*
X110059736Y-62300187D01*
X110062557Y-62312362D01*
X110065891Y-62324239D01*
X110069738Y-62335818D01*
X110074097Y-62347100D01*
X110078970Y-62358084D01*
X110084355Y-62368771D01*
X110090254Y-62379159D01*
X110096665Y-62389250D01*
X110103590Y-62399044D01*
X110111027Y-62408539D01*
X110118977Y-62417737D01*
X110123096Y-62422173D01*
X110131541Y-62430623D01*
X110144723Y-62442240D01*
X110158524Y-62452591D01*
X110172942Y-62461674D01*
X110187979Y-62469489D01*
X110203635Y-62476037D01*
X110219908Y-62481318D01*
X110236800Y-62485332D01*
X110248404Y-62487303D01*
X110260284Y-62488711D01*
X110272438Y-62489556D01*
X110284867Y-62489838D01*
X110289418Y-62489799D01*
X110302731Y-62489210D01*
X110315535Y-62487916D01*
X110327829Y-62485917D01*
X110339612Y-62483211D01*
X110350885Y-62479800D01*
X110365123Y-62474153D01*
X110378454Y-62467252D01*
X110390879Y-62459095D01*
X110402396Y-62449684D01*
X110412700Y-62439284D01*
X110421630Y-62428160D01*
X110429187Y-62416313D01*
X110435369Y-62403742D01*
X110440178Y-62390448D01*
X110443612Y-62376430D01*
X110445673Y-62361688D01*
X110446360Y-62346223D01*
X110446173Y-62335549D01*
X110445194Y-62320316D01*
X110443374Y-62306015D01*
X110440715Y-62292646D01*
X110437216Y-62280210D01*
X110432877Y-62268706D01*
X110427698Y-62258135D01*
X110419487Y-62245491D01*
X110409783Y-62234505D01*
X110398586Y-62225176D01*
X110395555Y-62223053D01*
X110382526Y-62214968D01*
X110371805Y-62209331D01*
X110360270Y-62204060D01*
X110347920Y-62199154D01*
X110334757Y-62194614D01*
X110320779Y-62190440D01*
X110305988Y-62186632D01*
X110290383Y-62183190D01*
X110273963Y-62180113D01*
X110256730Y-62177402D01*
X110053324Y-62148679D01*
X109918209Y-62148679D01*
X109918209Y-62036425D01*
X109918500Y-62017077D01*
X109919371Y-61998343D01*
X109920824Y-61980223D01*
X109922858Y-61962718D01*
X109925472Y-61945826D01*
X109928668Y-61929549D01*
X109932445Y-61913886D01*
X109936802Y-61898837D01*
X109941741Y-61884403D01*
X109947261Y-61870583D01*
X109953362Y-61857377D01*
X109960043Y-61844785D01*
X109967306Y-61832807D01*
X109975150Y-61821444D01*
X109983575Y-61810695D01*
X109992581Y-61800560D01*
X110002168Y-61791040D01*
X110012336Y-61782133D01*
X110023085Y-61773841D01*
X110034415Y-61766163D01*
X110046327Y-61759099D01*
X110058819Y-61752650D01*
X110071892Y-61746815D01*
X110085546Y-61741594D01*
X110099781Y-61736987D01*
X110114598Y-61732995D01*
X110129995Y-61729616D01*
X110145973Y-61726852D01*
X110162533Y-61724702D01*
X110179673Y-61723167D01*
X110197395Y-61722245D01*
X110215697Y-61721938D01*
X110235846Y-61722258D01*
G37*
G36*
X109276046Y-62575714D02*
G01*
X109288466Y-62582240D01*
X109301838Y-62587895D01*
X109316163Y-62592681D01*
X109327532Y-62595699D01*
X109339436Y-62598228D01*
X109351877Y-62600267D01*
X109364853Y-62601817D01*
X109378365Y-62602878D01*
X109392412Y-62603449D01*
X109402075Y-62603557D01*
X109415726Y-62603316D01*
X109428942Y-62602591D01*
X109441726Y-62601383D01*
X109454076Y-62599692D01*
X109465993Y-62597518D01*
X109477476Y-62594861D01*
X109499143Y-62588097D01*
X109519077Y-62579400D01*
X109537277Y-62568771D01*
X109553744Y-62556209D01*
X109568478Y-62541715D01*
X109581478Y-62525288D01*
X109592745Y-62506929D01*
X109602278Y-62486637D01*
X109610079Y-62464412D01*
X109613329Y-62452575D01*
X109616145Y-62440255D01*
X109618529Y-62427452D01*
X109620479Y-62414165D01*
X109621995Y-62400396D01*
X109623079Y-62386143D01*
X109623729Y-62371407D01*
X109623945Y-62356188D01*
X109623945Y-61856174D01*
X109769026Y-61856174D01*
X109769026Y-61740696D01*
X109623945Y-61740696D01*
X109623945Y-61539636D01*
X109488830Y-61496844D01*
X109488830Y-61740696D01*
X109276046Y-61740696D01*
X109276046Y-61856174D01*
X109488830Y-61856174D01*
X109488830Y-62332155D01*
X109488578Y-62347664D01*
X109487821Y-62362318D01*
X109486558Y-62376117D01*
X109484791Y-62389060D01*
X109482519Y-62401149D01*
X109478704Y-62415936D01*
X109473992Y-62429203D01*
X109468382Y-62440949D01*
X109461875Y-62451176D01*
X109460107Y-62453495D01*
X109450117Y-62463965D01*
X109438280Y-62472660D01*
X109427482Y-62478339D01*
X109415501Y-62482882D01*
X109402340Y-62486289D01*
X109387997Y-62488560D01*
X109372472Y-62489696D01*
X109364266Y-62489838D01*
X109351732Y-62489270D01*
X109339628Y-62487566D01*
X109327955Y-62484727D01*
X109316712Y-62480752D01*
X109305900Y-62475641D01*
X109295518Y-62469395D01*
X109285567Y-62462013D01*
X109276046Y-62453495D01*
X109276046Y-62575714D01*
G37*
G36*
X108788057Y-61722423D02*
G01*
X108808158Y-61723876D01*
X108827835Y-61726297D01*
X108847088Y-61729687D01*
X108865918Y-61734046D01*
X108884325Y-61739373D01*
X108902307Y-61745668D01*
X108919867Y-61752933D01*
X108937002Y-61761166D01*
X108953714Y-61770367D01*
X108970002Y-61780537D01*
X108985867Y-61791676D01*
X109001308Y-61803783D01*
X109016326Y-61816859D01*
X109030920Y-61830903D01*
X109045090Y-61845916D01*
X109058612Y-61861661D01*
X109071262Y-61877973D01*
X109083040Y-61894853D01*
X109093945Y-61912301D01*
X109103977Y-61930317D01*
X109113138Y-61948901D01*
X109121425Y-61968053D01*
X109128841Y-61987772D01*
X109135384Y-62008060D01*
X109141054Y-62028915D01*
X109145853Y-62050338D01*
X109149779Y-62072329D01*
X109152832Y-62094888D01*
X109155013Y-62118015D01*
X109155776Y-62129791D01*
X109156322Y-62141709D01*
X109156649Y-62153770D01*
X109156758Y-62165972D01*
X109156658Y-62178887D01*
X109156358Y-62191620D01*
X109155859Y-62204170D01*
X109155160Y-62216539D01*
X109154260Y-62228726D01*
X109153162Y-62240731D01*
X109151863Y-62252553D01*
X109150365Y-62264194D01*
X109146769Y-62286929D01*
X109142373Y-62308936D01*
X109137179Y-62330215D01*
X109131186Y-62350766D01*
X109124393Y-62370589D01*
X109116801Y-62389683D01*
X109108410Y-62408049D01*
X109099220Y-62425687D01*
X109089231Y-62442597D01*
X109078443Y-62458779D01*
X109066855Y-62474233D01*
X109054469Y-62488959D01*
X109041384Y-62502836D01*
X109027701Y-62515818D01*
X109013421Y-62527904D01*
X108998543Y-62539096D01*
X108983068Y-62549392D01*
X108966995Y-62558792D01*
X108950324Y-62567298D01*
X108933056Y-62574908D01*
X108915190Y-62581622D01*
X108896726Y-62587442D01*
X108877665Y-62592366D01*
X108858006Y-62596395D01*
X108837750Y-62599528D01*
X108816895Y-62601767D01*
X108795444Y-62603110D01*
X108773394Y-62603557D01*
X108750812Y-62603244D01*
X108728789Y-62602303D01*
X108707325Y-62600734D01*
X108686419Y-62598538D01*
X108666072Y-62595715D01*
X108646284Y-62592264D01*
X108627055Y-62588186D01*
X108608384Y-62583481D01*
X108590272Y-62578148D01*
X108572718Y-62572187D01*
X108555723Y-62565600D01*
X108539287Y-62558385D01*
X108523410Y-62550542D01*
X108508092Y-62542072D01*
X108493332Y-62532975D01*
X108479130Y-62523250D01*
X108479130Y-62397221D01*
X108494167Y-62408436D01*
X108509383Y-62418928D01*
X108524777Y-62428696D01*
X108540350Y-62437741D01*
X108556101Y-62446062D01*
X108572031Y-62453659D01*
X108588140Y-62460533D01*
X108604427Y-62466684D01*
X108620893Y-62472110D01*
X108637537Y-62476814D01*
X108654360Y-62480793D01*
X108671362Y-62484049D01*
X108688542Y-62486582D01*
X108705901Y-62488391D01*
X108723438Y-62489476D01*
X108741154Y-62489838D01*
X108756841Y-62489536D01*
X108772103Y-62488629D01*
X108786938Y-62487118D01*
X108801348Y-62485002D01*
X108815331Y-62482282D01*
X108828889Y-62478957D01*
X108842021Y-62475028D01*
X108854727Y-62470494D01*
X108867007Y-62465356D01*
X108878861Y-62459613D01*
X108890290Y-62453266D01*
X108901292Y-62446314D01*
X108911868Y-62438758D01*
X108922019Y-62430597D01*
X108931744Y-62421832D01*
X108941042Y-62412462D01*
X108949821Y-62402537D01*
X108958060Y-62392106D01*
X108965758Y-62381169D01*
X108972916Y-62369725D01*
X108979534Y-62357776D01*
X108985611Y-62345321D01*
X108991147Y-62332360D01*
X108996144Y-62318892D01*
X109000600Y-62304919D01*
X109004515Y-62290440D01*
X109007890Y-62275454D01*
X109010725Y-62259963D01*
X109013019Y-62243965D01*
X109014773Y-62227462D01*
X109015987Y-62210452D01*
X109016660Y-62192936D01*
X108420512Y-62192936D01*
X108420512Y-62122594D01*
X108420867Y-62099359D01*
X108421858Y-62078338D01*
X108559144Y-62078338D01*
X109014902Y-62078338D01*
X109012759Y-62064943D01*
X109010217Y-62051872D01*
X109007273Y-62039124D01*
X109003929Y-62026698D01*
X109000184Y-62014596D01*
X108996038Y-62002816D01*
X108991492Y-61991359D01*
X108986545Y-61980225D01*
X108981197Y-61969414D01*
X108975449Y-61958926D01*
X108969299Y-61948760D01*
X108962750Y-61938918D01*
X108955799Y-61929398D01*
X108948448Y-61920201D01*
X108940696Y-61911327D01*
X108932543Y-61902776D01*
X108919761Y-61890781D01*
X108906474Y-61879966D01*
X108892682Y-61870331D01*
X108878385Y-61861876D01*
X108863583Y-61854600D01*
X108848277Y-61848505D01*
X108832465Y-61843589D01*
X108816149Y-61839853D01*
X108799328Y-61837296D01*
X108782001Y-61835920D01*
X108770170Y-61835658D01*
X108764021Y-61835720D01*
X108751979Y-61836219D01*
X108740279Y-61837218D01*
X108723367Y-61839651D01*
X108707223Y-61843208D01*
X108691847Y-61847888D01*
X108677239Y-61853690D01*
X108663398Y-61860616D01*
X108650325Y-61868666D01*
X108638019Y-61877838D01*
X108626481Y-61888133D01*
X108615711Y-61899552D01*
X108612284Y-61903595D01*
X108602646Y-61916322D01*
X108593970Y-61929946D01*
X108586259Y-61944466D01*
X108579511Y-61959882D01*
X108573726Y-61976195D01*
X108570404Y-61987568D01*
X108567511Y-61999340D01*
X108565046Y-62011510D01*
X108563010Y-62024079D01*
X108561401Y-62037046D01*
X108560221Y-62050411D01*
X108559468Y-62064175D01*
X108559144Y-62078338D01*
X108421858Y-62078338D01*
X108421932Y-62076767D01*
X108423706Y-62054818D01*
X108426191Y-62033513D01*
X108429385Y-62012851D01*
X108433289Y-61992833D01*
X108437903Y-61973458D01*
X108443227Y-61954726D01*
X108449260Y-61936638D01*
X108456004Y-61919193D01*
X108463457Y-61902392D01*
X108471620Y-61886234D01*
X108480493Y-61870720D01*
X108490076Y-61855849D01*
X108500368Y-61841622D01*
X108511370Y-61828037D01*
X108522984Y-61815190D01*
X108535184Y-61803170D01*
X108547970Y-61791980D01*
X108561343Y-61781619D01*
X108575301Y-61772087D01*
X108589846Y-61763383D01*
X108604977Y-61755509D01*
X108620694Y-61748463D01*
X108636997Y-61742246D01*
X108653886Y-61736859D01*
X108671362Y-61732300D01*
X108689424Y-61728570D01*
X108708071Y-61725668D01*
X108727306Y-61723596D01*
X108747126Y-61722353D01*
X108767532Y-61721938D01*
X108788057Y-61722423D01*
G37*
G36*
X108174022Y-61909517D02*
G01*
X108187819Y-61908538D01*
X108200854Y-61905601D01*
X108213126Y-61900707D01*
X108224635Y-61893855D01*
X108235383Y-61885045D01*
X108238795Y-61881673D01*
X108246479Y-61872700D01*
X108253980Y-61861215D01*
X108259606Y-61848946D01*
X108263357Y-61835894D01*
X108265232Y-61822059D01*
X108265467Y-61814848D01*
X108264816Y-61803045D01*
X108262315Y-61789636D01*
X108257939Y-61777051D01*
X108251688Y-61765291D01*
X108243562Y-61754355D01*
X108238795Y-61749196D01*
X108228303Y-61739933D01*
X108217047Y-61732586D01*
X108205029Y-61727156D01*
X108192249Y-61723642D01*
X108178706Y-61722045D01*
X108174022Y-61721938D01*
X108162211Y-61722604D01*
X108148775Y-61725159D01*
X108136142Y-61729631D01*
X108124313Y-61736020D01*
X108113288Y-61744325D01*
X108108077Y-61749196D01*
X108100224Y-61757908D01*
X108092558Y-61769119D01*
X108086808Y-61781154D01*
X108082975Y-61794014D01*
X108081059Y-61807697D01*
X108080819Y-61814848D01*
X108081485Y-61826758D01*
X108084040Y-61840332D01*
X108088512Y-61853123D01*
X108094900Y-61865130D01*
X108103205Y-61876355D01*
X108108077Y-61881673D01*
X108116874Y-61889695D01*
X108128167Y-61897526D01*
X108140264Y-61903399D01*
X108153164Y-61907314D01*
X108166869Y-61909272D01*
X108174022Y-61909517D01*
G37*
G36*
X108174022Y-62603557D02*
G01*
X108187819Y-62602589D01*
X108200854Y-62599683D01*
X108213126Y-62594840D01*
X108224635Y-62588060D01*
X108235383Y-62579343D01*
X108238795Y-62576007D01*
X108246479Y-62567132D01*
X108253980Y-62555784D01*
X108259606Y-62543674D01*
X108263357Y-62530801D01*
X108265232Y-62517165D01*
X108265467Y-62510061D01*
X108264529Y-62496134D01*
X108261716Y-62482927D01*
X108257028Y-62470442D01*
X108250464Y-62458679D01*
X108242025Y-62447636D01*
X108238795Y-62444116D01*
X108230104Y-62436010D01*
X108218976Y-62428096D01*
X108207085Y-62422161D01*
X108194432Y-62418205D01*
X108181016Y-62416226D01*
X108174022Y-62415979D01*
X108162211Y-62416666D01*
X108148775Y-62419304D01*
X108136142Y-62423920D01*
X108124313Y-62430514D01*
X108113288Y-62439087D01*
X108108077Y-62444116D01*
X108100224Y-62453067D01*
X108092558Y-62464470D01*
X108086808Y-62476595D01*
X108082975Y-62489440D01*
X108081059Y-62503007D01*
X108080819Y-62510061D01*
X108081485Y-62521795D01*
X108084040Y-62535176D01*
X108088512Y-62547795D01*
X108094900Y-62559652D01*
X108103205Y-62570746D01*
X108108077Y-62576007D01*
X108116874Y-62583944D01*
X108128167Y-62591692D01*
X108140264Y-62597504D01*
X108153164Y-62601378D01*
X108166869Y-62603315D01*
X108174022Y-62603557D01*
G37*
G36*
X106898488Y-61713732D02*
G01*
X106898754Y-61700392D01*
X106899551Y-61687482D01*
X106900879Y-61675003D01*
X106902738Y-61662954D01*
X106905129Y-61651335D01*
X106908864Y-61637418D01*
X106913429Y-61624173D01*
X106915488Y-61619063D01*
X106921016Y-61606760D01*
X106927160Y-61595129D01*
X106933919Y-61584171D01*
X106941293Y-61573886D01*
X106949283Y-61564273D01*
X106957889Y-61555333D01*
X106961503Y-61551945D01*
X106970913Y-61543940D01*
X106980823Y-61536592D01*
X106991234Y-61529903D01*
X107002147Y-61523873D01*
X107013560Y-61518500D01*
X107025474Y-61513786D01*
X107030380Y-61512085D01*
X107042902Y-61508285D01*
X107055739Y-61505130D01*
X107068891Y-61502618D01*
X107082357Y-61500751D01*
X107096139Y-61499527D01*
X107110236Y-61498947D01*
X107115962Y-61498896D01*
X107128291Y-61499168D01*
X107140549Y-61499983D01*
X107152735Y-61501343D01*
X107164849Y-61503246D01*
X107176892Y-61505694D01*
X107188863Y-61508685D01*
X107193631Y-61510033D01*
X107205404Y-61513637D01*
X107217090Y-61517670D01*
X107228691Y-61522132D01*
X107240206Y-61527023D01*
X107251634Y-61532344D01*
X107262977Y-61538094D01*
X107267490Y-61540515D01*
X107278607Y-61546746D01*
X107289610Y-61553349D01*
X107300498Y-61560324D01*
X107311271Y-61567672D01*
X107321930Y-61575391D01*
X107332474Y-61583482D01*
X107336660Y-61586823D01*
X107346987Y-61595400D01*
X107357085Y-61604277D01*
X107366954Y-61613455D01*
X107376594Y-61622933D01*
X107386005Y-61632712D01*
X107395187Y-61642791D01*
X107398795Y-61646907D01*
X107398795Y-61499775D01*
X107388016Y-61489511D01*
X107376999Y-61479710D01*
X107365745Y-61470373D01*
X107354255Y-61461499D01*
X107342527Y-61453089D01*
X107330562Y-61445143D01*
X107318361Y-61437661D01*
X107305922Y-61430642D01*
X107293246Y-61424087D01*
X107280334Y-61417996D01*
X107271594Y-61414192D01*
X107258079Y-61408850D01*
X107244024Y-61404033D01*
X107229427Y-61399741D01*
X107214290Y-61395975D01*
X107198611Y-61392734D01*
X107182392Y-61390019D01*
X107165632Y-61387830D01*
X107148331Y-61386166D01*
X107136496Y-61385348D01*
X107124421Y-61384764D01*
X107112105Y-61384414D01*
X107099549Y-61384297D01*
X107086018Y-61384483D01*
X107072683Y-61385039D01*
X107059544Y-61385966D01*
X107046600Y-61387265D01*
X107033853Y-61388934D01*
X107021301Y-61390974D01*
X107008944Y-61393385D01*
X106996784Y-61396167D01*
X106984819Y-61399320D01*
X106973050Y-61402844D01*
X106965313Y-61405400D01*
X106953862Y-61409474D01*
X106942699Y-61413894D01*
X106931825Y-61418658D01*
X106921240Y-61423768D01*
X106907574Y-61431118D01*
X106894422Y-61439082D01*
X106881782Y-61447660D01*
X106869656Y-61456851D01*
X106858042Y-61466656D01*
X106846991Y-61477060D01*
X106836555Y-61488051D01*
X106826731Y-61499629D01*
X106817522Y-61511792D01*
X106808926Y-61524541D01*
X106800944Y-61537877D01*
X106795360Y-61548263D01*
X106790121Y-61558980D01*
X106786821Y-61566307D01*
X106782159Y-61577560D01*
X106777956Y-61589116D01*
X106774211Y-61600977D01*
X106770925Y-61613142D01*
X106768097Y-61625611D01*
X106765728Y-61638383D01*
X106763818Y-61651460D01*
X106762366Y-61664840D01*
X106761372Y-61678525D01*
X106760837Y-61692514D01*
X106760735Y-61702008D01*
X106760877Y-61715026D01*
X106761302Y-61727813D01*
X106762011Y-61740367D01*
X106763002Y-61752690D01*
X106764277Y-61764781D01*
X106765836Y-61776640D01*
X106767678Y-61788267D01*
X106770574Y-61803409D01*
X106773975Y-61818140D01*
X106776855Y-61828917D01*
X106781142Y-61843031D01*
X106785941Y-61856944D01*
X106791254Y-61870655D01*
X106797079Y-61884164D01*
X106803417Y-61897473D01*
X106810268Y-61910579D01*
X106817632Y-61923485D01*
X106825509Y-61936188D01*
X106833908Y-61948654D01*
X106842838Y-61960991D01*
X106852299Y-61973200D01*
X106859744Y-61982273D01*
X106867487Y-61991273D01*
X106875529Y-62000202D01*
X106883870Y-62009058D01*
X106892510Y-62017842D01*
X106901449Y-62026554D01*
X106907574Y-62032322D01*
X106916961Y-62040966D01*
X106926657Y-62049640D01*
X106936662Y-62058345D01*
X106946977Y-62067081D01*
X106957600Y-62075848D01*
X106968533Y-62084646D01*
X106979774Y-62093475D01*
X106991325Y-62102334D01*
X107003185Y-62111225D01*
X107015354Y-62120147D01*
X107023638Y-62126111D01*
X107033929Y-62133446D01*
X107043990Y-62140647D01*
X107053822Y-62147715D01*
X107063426Y-62154651D01*
X107077401Y-62164806D01*
X107090862Y-62174662D01*
X107103807Y-62184219D01*
X107116237Y-62193477D01*
X107128152Y-62202436D01*
X107139552Y-62211096D01*
X107150436Y-62219458D01*
X107160805Y-62227521D01*
X107170724Y-62235333D01*
X107180256Y-62243053D01*
X107189401Y-62250679D01*
X107200995Y-62260704D01*
X107211901Y-62270564D01*
X107222120Y-62280259D01*
X107231652Y-62289789D01*
X107240498Y-62299154D01*
X107246681Y-62306070D01*
X107254301Y-62315229D01*
X107263003Y-62326678D01*
X107270788Y-62338126D01*
X107277657Y-62349575D01*
X107283611Y-62361024D01*
X107288648Y-62372473D01*
X107291231Y-62379342D01*
X107294862Y-62391063D01*
X107297877Y-62403328D01*
X107300277Y-62416136D01*
X107302062Y-62429489D01*
X107303231Y-62443385D01*
X107303785Y-62457825D01*
X107303834Y-62463753D01*
X106715306Y-62463753D01*
X106715306Y-62584800D01*
X107444811Y-62584800D01*
X107444811Y-62526474D01*
X107444667Y-62512403D01*
X107444234Y-62498657D01*
X107443513Y-62485235D01*
X107442503Y-62472138D01*
X107441204Y-62459365D01*
X107439618Y-62446917D01*
X107437742Y-62434794D01*
X107435578Y-62422995D01*
X107433126Y-62411520D01*
X107429407Y-62396726D01*
X107428398Y-62393118D01*
X107423960Y-62378775D01*
X107418854Y-62364615D01*
X107413079Y-62350638D01*
X107406636Y-62336844D01*
X107399524Y-62323234D01*
X107391743Y-62309806D01*
X107385469Y-62299856D01*
X107378818Y-62290009D01*
X107374176Y-62283502D01*
X107366828Y-62273775D01*
X107359074Y-62264048D01*
X107350912Y-62254321D01*
X107342343Y-62244594D01*
X107333368Y-62234867D01*
X107323985Y-62225140D01*
X107314195Y-62215413D01*
X107303999Y-62205686D01*
X107293395Y-62195959D01*
X107282384Y-62186232D01*
X107274818Y-62179747D01*
X107263035Y-62169904D01*
X107250768Y-62159830D01*
X107238017Y-62149523D01*
X107224782Y-62138985D01*
X107211062Y-62128214D01*
X107201646Y-62120905D01*
X107192015Y-62113493D01*
X107182169Y-62105978D01*
X107172108Y-62098360D01*
X107161832Y-62090639D01*
X107151340Y-62082815D01*
X107140633Y-62074888D01*
X107129711Y-62066857D01*
X107124169Y-62062804D01*
X107112319Y-62054212D01*
X107100841Y-62045692D01*
X107089733Y-62037245D01*
X107078996Y-62028869D01*
X107068630Y-62020566D01*
X107058635Y-62012335D01*
X107049011Y-62004176D01*
X107039758Y-61996089D01*
X107030876Y-61988074D01*
X107019611Y-61977500D01*
X107016897Y-61974876D01*
X107006319Y-61964330D01*
X106996271Y-61953792D01*
X106986755Y-61943264D01*
X106977770Y-61932744D01*
X106969316Y-61922234D01*
X106961393Y-61911733D01*
X106954002Y-61901242D01*
X106947142Y-61890759D01*
X106940785Y-61880263D01*
X106934905Y-61869730D01*
X106929501Y-61859160D01*
X106923416Y-61845897D01*
X106918075Y-61832576D01*
X106913478Y-61819198D01*
X106909626Y-61805763D01*
X106906417Y-61792078D01*
X106903753Y-61778136D01*
X106901632Y-61763937D01*
X106900055Y-61749480D01*
X106899184Y-61737729D01*
X106898662Y-61725813D01*
X106898488Y-61713732D01*
G37*
G36*
X105797051Y-61481310D02*
G01*
X105804039Y-61493396D01*
X105811376Y-61506205D01*
X105819060Y-61519737D01*
X105825052Y-61530362D01*
X105831240Y-61541393D01*
X105837623Y-61552831D01*
X105844202Y-61564677D01*
X105850977Y-61576929D01*
X105857947Y-61589588D01*
X105862703Y-61598254D01*
X105869891Y-61611540D01*
X105877167Y-61625130D01*
X105884530Y-61639024D01*
X105891980Y-61653222D01*
X105899519Y-61667724D01*
X105907144Y-61682530D01*
X105914858Y-61697640D01*
X105922659Y-61713054D01*
X105930547Y-61728772D01*
X105935855Y-61739419D01*
X105941202Y-61750202D01*
X105943890Y-61755644D01*
X105949245Y-61766613D01*
X105954615Y-61777685D01*
X105959998Y-61788861D01*
X105965395Y-61800139D01*
X105970806Y-61811520D01*
X105976230Y-61823005D01*
X105981669Y-61834592D01*
X105987121Y-61846282D01*
X105992586Y-61858076D01*
X105998066Y-61869972D01*
X106003559Y-61881972D01*
X106009066Y-61894075D01*
X106014587Y-61906280D01*
X106020121Y-61918589D01*
X106025669Y-61931001D01*
X106031231Y-61943515D01*
X106036777Y-61956108D01*
X106042277Y-61968753D01*
X106047731Y-61981451D01*
X106053139Y-61994202D01*
X106058502Y-62007005D01*
X106063819Y-62019861D01*
X106069090Y-62032770D01*
X106074315Y-62045731D01*
X106079495Y-62058745D01*
X106084628Y-62071812D01*
X106089716Y-62084931D01*
X106094758Y-62098103D01*
X106099755Y-62111327D01*
X106104705Y-62124605D01*
X106109610Y-62137935D01*
X106114469Y-62151317D01*
X106119268Y-62164737D01*
X106123994Y-62178176D01*
X106128647Y-62191637D01*
X106133227Y-62205118D01*
X106137733Y-62218620D01*
X106142166Y-62232142D01*
X106146526Y-62245685D01*
X106150812Y-62259248D01*
X106155025Y-62272832D01*
X106159165Y-62286437D01*
X106163232Y-62300062D01*
X106167225Y-62313708D01*
X106171145Y-62327375D01*
X106174992Y-62341062D01*
X106178766Y-62354770D01*
X106182466Y-62368498D01*
X106186067Y-62382223D01*
X106189541Y-62395920D01*
X106192890Y-62409590D01*
X106196113Y-62423233D01*
X106199210Y-62436848D01*
X106202181Y-62450435D01*
X106205026Y-62463995D01*
X106207745Y-62477528D01*
X106210338Y-62491033D01*
X106212806Y-62504511D01*
X106215147Y-62517961D01*
X106217362Y-62531384D01*
X106219452Y-62544779D01*
X106221415Y-62558146D01*
X106223253Y-62571487D01*
X106224964Y-62584800D01*
X106370045Y-62584800D01*
X106368114Y-62571593D01*
X106366060Y-62558353D01*
X106363883Y-62545078D01*
X106361582Y-62531768D01*
X106359157Y-62518425D01*
X106356608Y-62505047D01*
X106353936Y-62491634D01*
X106351140Y-62478187D01*
X106348221Y-62464706D01*
X106345178Y-62451191D01*
X106342011Y-62437641D01*
X106338720Y-62424057D01*
X106335306Y-62410439D01*
X106331769Y-62396786D01*
X106328107Y-62383099D01*
X106324322Y-62369377D01*
X106320408Y-62355619D01*
X106316432Y-62341895D01*
X106312394Y-62328206D01*
X106308294Y-62314551D01*
X106304132Y-62300930D01*
X106299909Y-62287344D01*
X106295623Y-62273792D01*
X106291276Y-62260274D01*
X106286867Y-62246791D01*
X106282397Y-62233342D01*
X106277864Y-62219927D01*
X106273269Y-62206547D01*
X106268613Y-62193201D01*
X106263895Y-62179889D01*
X106259115Y-62166612D01*
X106254273Y-62153369D01*
X106249347Y-62140173D01*
X106244386Y-62127037D01*
X106239391Y-62113960D01*
X106234362Y-62100942D01*
X106229298Y-62087984D01*
X106224200Y-62075086D01*
X106219067Y-62062247D01*
X106213900Y-62049468D01*
X106208699Y-62036748D01*
X106203463Y-62024088D01*
X106198193Y-62011488D01*
X106192889Y-61998946D01*
X106187551Y-61986465D01*
X106182178Y-61974043D01*
X106176770Y-61961680D01*
X106171329Y-61949377D01*
X106165880Y-61937166D01*
X106160452Y-61925078D01*
X106155045Y-61913114D01*
X106149658Y-61901274D01*
X106144292Y-61889557D01*
X106138947Y-61877964D01*
X106133622Y-61866494D01*
X106128317Y-61855148D01*
X106123034Y-61843926D01*
X106117771Y-61832828D01*
X106112528Y-61821853D01*
X106107306Y-61811002D01*
X106102105Y-61800274D01*
X106096925Y-61789670D01*
X106089192Y-61773996D01*
X106086625Y-61768833D01*
X106078938Y-61753561D01*
X106071375Y-61738629D01*
X106063936Y-61724036D01*
X106056620Y-61709784D01*
X106049428Y-61695872D01*
X106042359Y-61682300D01*
X106035414Y-61669068D01*
X106028593Y-61656176D01*
X106021895Y-61643624D01*
X106015322Y-61631412D01*
X106011008Y-61623460D01*
X106004699Y-61611887D01*
X105998632Y-61600798D01*
X105992808Y-61590193D01*
X105985419Y-61576807D01*
X105978460Y-61564282D01*
X105971932Y-61552618D01*
X105965835Y-61541815D01*
X105958818Y-61529522D01*
X105956200Y-61524981D01*
X106548830Y-61524981D01*
X106548830Y-61403055D01*
X105797051Y-61403055D01*
X105797051Y-61481310D01*
G37*
G36*
X105054357Y-61403055D02*
G01*
X105621782Y-62772378D01*
X105747812Y-62772378D01*
X105182145Y-61403055D01*
X105054357Y-61403055D01*
G37*
G36*
X104607261Y-61384337D02*
G01*
X104619180Y-61384655D01*
X104630926Y-61385292D01*
X104648224Y-61386843D01*
X104665136Y-61389111D01*
X104681661Y-61392095D01*
X104697799Y-61395795D01*
X104713551Y-61400211D01*
X104728917Y-61405343D01*
X104743897Y-61411192D01*
X104758490Y-61417756D01*
X104772696Y-61425037D01*
X104786444Y-61433023D01*
X104799768Y-61441705D01*
X104812671Y-61451083D01*
X104825151Y-61461156D01*
X104837208Y-61471924D01*
X104848843Y-61483388D01*
X104860055Y-61495548D01*
X104870845Y-61508403D01*
X104881213Y-61521954D01*
X104891158Y-61536200D01*
X104897553Y-61546084D01*
X104903724Y-61556235D01*
X104909707Y-61566687D01*
X104915503Y-61577439D01*
X104921111Y-61588490D01*
X104926530Y-61599842D01*
X104931763Y-61611493D01*
X104936807Y-61623445D01*
X104941664Y-61635696D01*
X104946332Y-61648248D01*
X104950814Y-61661099D01*
X104955107Y-61674250D01*
X104959212Y-61687702D01*
X104963130Y-61701453D01*
X104966860Y-61715504D01*
X104970403Y-61729855D01*
X104973757Y-61744506D01*
X104976880Y-61759448D01*
X104979802Y-61774672D01*
X104982522Y-61790177D01*
X104985041Y-61805964D01*
X104987358Y-61822033D01*
X104989474Y-61838383D01*
X104991388Y-61855014D01*
X104993101Y-61871928D01*
X104994612Y-61889123D01*
X104995922Y-61906600D01*
X104997030Y-61924358D01*
X104997937Y-61942398D01*
X104998642Y-61960720D01*
X104999146Y-61979323D01*
X104999448Y-61998208D01*
X104999549Y-62017375D01*
X104999453Y-62034836D01*
X104999164Y-62052051D01*
X104998684Y-62069018D01*
X104998010Y-62085738D01*
X104997145Y-62102211D01*
X104996087Y-62118436D01*
X104994837Y-62134414D01*
X104993394Y-62150145D01*
X104991759Y-62165628D01*
X104989932Y-62180865D01*
X104987912Y-62195853D01*
X104985701Y-62210595D01*
X104983296Y-62225089D01*
X104980700Y-62239336D01*
X104977911Y-62253336D01*
X104974929Y-62267088D01*
X104973350Y-62273852D01*
X104970057Y-62287180D01*
X104966586Y-62300246D01*
X104962936Y-62313048D01*
X104959108Y-62325587D01*
X104955101Y-62337862D01*
X104950915Y-62349874D01*
X104946551Y-62361623D01*
X104942008Y-62373109D01*
X104937286Y-62384331D01*
X104932386Y-62395290D01*
X104927307Y-62405985D01*
X104919354Y-62421535D01*
X104910999Y-62436492D01*
X104902243Y-62450857D01*
X104896186Y-62460059D01*
X104886784Y-62473339D01*
X104877000Y-62485991D01*
X104866835Y-62498014D01*
X104856289Y-62509409D01*
X104845362Y-62520175D01*
X104834053Y-62530312D01*
X104822363Y-62539821D01*
X104810292Y-62548701D01*
X104797840Y-62556953D01*
X104785006Y-62564576D01*
X104776211Y-62569297D01*
X104762735Y-62575806D01*
X104748919Y-62581630D01*
X104734763Y-62586770D01*
X104720267Y-62591223D01*
X104705431Y-62594992D01*
X104690255Y-62598076D01*
X104674739Y-62600474D01*
X104658883Y-62602187D01*
X104642687Y-62603215D01*
X104626151Y-62603557D01*
X104614471Y-62603398D01*
X104597251Y-62602563D01*
X104580392Y-62601011D01*
X104563893Y-62598743D01*
X104547756Y-62595760D01*
X104531978Y-62592060D01*
X104516562Y-62587643D01*
X104501506Y-62582511D01*
X104486811Y-62576663D01*
X104472476Y-62570098D01*
X104458502Y-62562818D01*
X104449360Y-62557579D01*
X104435987Y-62549171D01*
X104423020Y-62540103D01*
X104410460Y-62530376D01*
X104398308Y-62519990D01*
X104386562Y-62508944D01*
X104375223Y-62497238D01*
X104364292Y-62484874D01*
X104353767Y-62471849D01*
X104343649Y-62458166D01*
X104333939Y-62443823D01*
X104327694Y-62433864D01*
X104321638Y-62423627D01*
X104315769Y-62413110D01*
X104310088Y-62402313D01*
X104304595Y-62391238D01*
X104299290Y-62379883D01*
X104294172Y-62368248D01*
X104289242Y-62356335D01*
X104284500Y-62344142D01*
X104279946Y-62331669D01*
X104275579Y-62318917D01*
X104271400Y-62305886D01*
X104267409Y-62292576D01*
X104263606Y-62278986D01*
X104259990Y-62265117D01*
X104256562Y-62250968D01*
X104253297Y-62236549D01*
X104250243Y-62221865D01*
X104247399Y-62206919D01*
X104244765Y-62191709D01*
X104242343Y-62176236D01*
X104240131Y-62160499D01*
X104238130Y-62144499D01*
X104236339Y-62128236D01*
X104234759Y-62111710D01*
X104233390Y-62094920D01*
X104232231Y-62077867D01*
X104231283Y-62060551D01*
X104230546Y-62042971D01*
X104230019Y-62025128D01*
X104229703Y-62007021D01*
X104229673Y-62001841D01*
X104368230Y-62001841D01*
X104368469Y-62031756D01*
X104369186Y-62060721D01*
X104370381Y-62088737D01*
X104372054Y-62115803D01*
X104374205Y-62141919D01*
X104376834Y-62167086D01*
X104379941Y-62191303D01*
X104383526Y-62214570D01*
X104387589Y-62236888D01*
X104392130Y-62258256D01*
X104397149Y-62278674D01*
X104402646Y-62298142D01*
X104408620Y-62316661D01*
X104415073Y-62334230D01*
X104422004Y-62350850D01*
X104429413Y-62366520D01*
X104437300Y-62381240D01*
X104445665Y-62395010D01*
X104454508Y-62407831D01*
X104463828Y-62419702D01*
X104473627Y-62430623D01*
X104483904Y-62440595D01*
X104494659Y-62449617D01*
X104505892Y-62457689D01*
X104517602Y-62464812D01*
X104529791Y-62470985D01*
X104542458Y-62476208D01*
X104555603Y-62480482D01*
X104569225Y-62483806D01*
X104583326Y-62486180D01*
X104597905Y-62487604D01*
X104612962Y-62488079D01*
X104628235Y-62487613D01*
X104643023Y-62486214D01*
X104657326Y-62483883D01*
X104671145Y-62480619D01*
X104684478Y-62476423D01*
X104697327Y-62471294D01*
X104709691Y-62465233D01*
X104721570Y-62458239D01*
X104732964Y-62450313D01*
X104743874Y-62441454D01*
X104754298Y-62431662D01*
X104764238Y-62420939D01*
X104773693Y-62409282D01*
X104782663Y-62396693D01*
X104791148Y-62383172D01*
X104799148Y-62368718D01*
X104806663Y-62353331D01*
X104813694Y-62337012D01*
X104820239Y-62319761D01*
X104826300Y-62301577D01*
X104831876Y-62282461D01*
X104836967Y-62262412D01*
X104841573Y-62241430D01*
X104845694Y-62219516D01*
X104849331Y-62196669D01*
X104852482Y-62172890D01*
X104855149Y-62148179D01*
X104857331Y-62122535D01*
X104859028Y-62095958D01*
X104860240Y-62068449D01*
X104860968Y-62040008D01*
X104861210Y-62010633D01*
X104860963Y-61979150D01*
X104860221Y-61948665D01*
X104858984Y-61919180D01*
X104857253Y-61890695D01*
X104855028Y-61863209D01*
X104852307Y-61836723D01*
X104849092Y-61811236D01*
X104845383Y-61786748D01*
X104841179Y-61763260D01*
X104836480Y-61740772D01*
X104831287Y-61719283D01*
X104825599Y-61698793D01*
X104819417Y-61679303D01*
X104812740Y-61660813D01*
X104805568Y-61643322D01*
X104797902Y-61626830D01*
X104789741Y-61611338D01*
X104781086Y-61596846D01*
X104771936Y-61583352D01*
X104762292Y-61570859D01*
X104752152Y-61559365D01*
X104741519Y-61548870D01*
X104730390Y-61539375D01*
X104718768Y-61530879D01*
X104706650Y-61523383D01*
X104694038Y-61516887D01*
X104680931Y-61511389D01*
X104667330Y-61506892D01*
X104653234Y-61503393D01*
X104638644Y-61500895D01*
X104623559Y-61499396D01*
X104607979Y-61498896D01*
X104593229Y-61499387D01*
X104578947Y-61500860D01*
X104565133Y-61503316D01*
X104551788Y-61506754D01*
X104538911Y-61511175D01*
X104526502Y-61516577D01*
X104514561Y-61522962D01*
X104503089Y-61530330D01*
X104492085Y-61538680D01*
X104481549Y-61548012D01*
X104471481Y-61558326D01*
X104461882Y-61569622D01*
X104452751Y-61581901D01*
X104444088Y-61595163D01*
X104435894Y-61609406D01*
X104428167Y-61624632D01*
X104420909Y-61640840D01*
X104414120Y-61658031D01*
X104407798Y-61676204D01*
X104401945Y-61695359D01*
X104396560Y-61715496D01*
X104391643Y-61736616D01*
X104387195Y-61758718D01*
X104383215Y-61781802D01*
X104379703Y-61805869D01*
X104376659Y-61830918D01*
X104374083Y-61856949D01*
X104371976Y-61883963D01*
X104370337Y-61911959D01*
X104369167Y-61940937D01*
X104368464Y-61970898D01*
X104368230Y-62001841D01*
X104229673Y-62001841D01*
X104229598Y-61988652D01*
X104229961Y-61951470D01*
X104231050Y-61915468D01*
X104232864Y-61880647D01*
X104235405Y-61847006D01*
X104238671Y-61814546D01*
X104242663Y-61783265D01*
X104247382Y-61753166D01*
X104252825Y-61724246D01*
X104258995Y-61696508D01*
X104265891Y-61669949D01*
X104273512Y-61644571D01*
X104281860Y-61620373D01*
X104290933Y-61597356D01*
X104300732Y-61575519D01*
X104311257Y-61554862D01*
X104322508Y-61535386D01*
X104334485Y-61517090D01*
X104347187Y-61499974D01*
X104360616Y-61484039D01*
X104374770Y-61469284D01*
X104389650Y-61455710D01*
X104405256Y-61443316D01*
X104421588Y-61432102D01*
X104438645Y-61422069D01*
X104456429Y-61413216D01*
X104474938Y-61405544D01*
X104494174Y-61399052D01*
X104514135Y-61393740D01*
X104534822Y-61389609D01*
X104556235Y-61386658D01*
X104578373Y-61384887D01*
X104601238Y-61384297D01*
X104607261Y-61384337D01*
G37*
G36*
X103568677Y-62584800D02*
G01*
X103703792Y-62584800D01*
X103703792Y-61563083D01*
X103712475Y-61571271D01*
X103721575Y-61578887D01*
X103732078Y-61586923D01*
X103742196Y-61594146D01*
X103749514Y-61599133D01*
X103761092Y-61606707D01*
X103771135Y-61613002D01*
X103781534Y-61619283D01*
X103792292Y-61625550D01*
X103803408Y-61631802D01*
X103814881Y-61638041D01*
X103817218Y-61639287D01*
X103829042Y-61645366D01*
X103841066Y-61651331D01*
X103853291Y-61657181D01*
X103865716Y-61662917D01*
X103878341Y-61668538D01*
X103891167Y-61674045D01*
X103896353Y-61676216D01*
X103909309Y-61681434D01*
X103922165Y-61686280D01*
X103934920Y-61690753D01*
X103947575Y-61694855D01*
X103960130Y-61698584D01*
X103972585Y-61701942D01*
X103977539Y-61703181D01*
X103977539Y-61566600D01*
X103963489Y-61562729D01*
X103952063Y-61559333D01*
X103940472Y-61555672D01*
X103928716Y-61551745D01*
X103916796Y-61547552D01*
X103904710Y-61543094D01*
X103892460Y-61538370D01*
X103883164Y-61534653D01*
X103870730Y-61529528D01*
X103858343Y-61524267D01*
X103846001Y-61518867D01*
X103833705Y-61513331D01*
X103821454Y-61507656D01*
X103809250Y-61501845D01*
X103797091Y-61495896D01*
X103784978Y-61489810D01*
X103772975Y-61483545D01*
X103761146Y-61477207D01*
X103749491Y-61470796D01*
X103738010Y-61464311D01*
X103726703Y-61457753D01*
X103715571Y-61451122D01*
X103704612Y-61444417D01*
X103693827Y-61437640D01*
X103683308Y-61430844D01*
X103673146Y-61424084D01*
X103663341Y-61417361D01*
X103651587Y-61409009D01*
X103640391Y-61400715D01*
X103629754Y-61392477D01*
X103619675Y-61384297D01*
X103568677Y-61384297D01*
X103568677Y-62584800D01*
G37*
G36*
X102590045Y-61403055D02*
G01*
X103157470Y-62772378D01*
X103283499Y-62772378D01*
X102717832Y-61403055D01*
X102590045Y-61403055D01*
G37*
G36*
X101969863Y-61713732D02*
G01*
X101970129Y-61700392D01*
X101970926Y-61687482D01*
X101972254Y-61675003D01*
X101974113Y-61662954D01*
X101976503Y-61651335D01*
X101980239Y-61637418D01*
X101984804Y-61624173D01*
X101986862Y-61619063D01*
X101992391Y-61606760D01*
X101998535Y-61595129D01*
X102005294Y-61584171D01*
X102012668Y-61573886D01*
X102020658Y-61564273D01*
X102029263Y-61555333D01*
X102032878Y-61551945D01*
X102042287Y-61543940D01*
X102052198Y-61536592D01*
X102062609Y-61529903D01*
X102073521Y-61523873D01*
X102084934Y-61518500D01*
X102096848Y-61513786D01*
X102101754Y-61512085D01*
X102114276Y-61508285D01*
X102127114Y-61505130D01*
X102140265Y-61502618D01*
X102153732Y-61500751D01*
X102167514Y-61499527D01*
X102181610Y-61498947D01*
X102187337Y-61498896D01*
X102199666Y-61499168D01*
X102211923Y-61499983D01*
X102224109Y-61501343D01*
X102236224Y-61503246D01*
X102248267Y-61505694D01*
X102260238Y-61508685D01*
X102265006Y-61510033D01*
X102276779Y-61513637D01*
X102288465Y-61517670D01*
X102300066Y-61522132D01*
X102311580Y-61527023D01*
X102323009Y-61532344D01*
X102334352Y-61538094D01*
X102338865Y-61540515D01*
X102349982Y-61546746D01*
X102360984Y-61553349D01*
X102371872Y-61560324D01*
X102382646Y-61567672D01*
X102393305Y-61575391D01*
X102403849Y-61583482D01*
X102408035Y-61586823D01*
X102418362Y-61595400D01*
X102428460Y-61604277D01*
X102438329Y-61613455D01*
X102447969Y-61622933D01*
X102457379Y-61632712D01*
X102466562Y-61642791D01*
X102470170Y-61646907D01*
X102470170Y-61499775D01*
X102459390Y-61489511D01*
X102448374Y-61479710D01*
X102437120Y-61470373D01*
X102425629Y-61461499D01*
X102413902Y-61453089D01*
X102401937Y-61445143D01*
X102389735Y-61437661D01*
X102377297Y-61430642D01*
X102364621Y-61424087D01*
X102351709Y-61417996D01*
X102342969Y-61414192D01*
X102329454Y-61408850D01*
X102315398Y-61404033D01*
X102300802Y-61399741D01*
X102285665Y-61395975D01*
X102269986Y-61392734D01*
X102253767Y-61390019D01*
X102237007Y-61387830D01*
X102219705Y-61386166D01*
X102207871Y-61385348D01*
X102195795Y-61384764D01*
X102183480Y-61384414D01*
X102170924Y-61384297D01*
X102157393Y-61384483D01*
X102144058Y-61385039D01*
X102130919Y-61385966D01*
X102117975Y-61387265D01*
X102105227Y-61388934D01*
X102092675Y-61390974D01*
X102080319Y-61393385D01*
X102068159Y-61396167D01*
X102056194Y-61399320D01*
X102044425Y-61402844D01*
X102036688Y-61405400D01*
X102025237Y-61409474D01*
X102014074Y-61413894D01*
X102003200Y-61418658D01*
X101992614Y-61423768D01*
X101978949Y-61431118D01*
X101965796Y-61439082D01*
X101953157Y-61447660D01*
X101941030Y-61456851D01*
X101929417Y-61466656D01*
X101918366Y-61477060D01*
X101907929Y-61488051D01*
X101898106Y-61499629D01*
X101888897Y-61511792D01*
X101880301Y-61524541D01*
X101872319Y-61537877D01*
X101866735Y-61548263D01*
X101861496Y-61558980D01*
X101858195Y-61566307D01*
X101853534Y-61577560D01*
X101849330Y-61589116D01*
X101845586Y-61600977D01*
X101842300Y-61613142D01*
X101839472Y-61625611D01*
X101837103Y-61638383D01*
X101835193Y-61651460D01*
X101833740Y-61664840D01*
X101832747Y-61678525D01*
X101832212Y-61692514D01*
X101832110Y-61702008D01*
X101832252Y-61715026D01*
X101832677Y-61727813D01*
X101833385Y-61740367D01*
X101834377Y-61752690D01*
X101835652Y-61764781D01*
X101837211Y-61776640D01*
X101839052Y-61788267D01*
X101841949Y-61803409D01*
X101845349Y-61818140D01*
X101848230Y-61828917D01*
X101852517Y-61843031D01*
X101857316Y-61856944D01*
X101862628Y-61870655D01*
X101868454Y-61884164D01*
X101874792Y-61897473D01*
X101881643Y-61910579D01*
X101889007Y-61923485D01*
X101896883Y-61936188D01*
X101905282Y-61948654D01*
X101914212Y-61960991D01*
X101923674Y-61973200D01*
X101931118Y-61982273D01*
X101938862Y-61991273D01*
X101946904Y-62000202D01*
X101955245Y-62009058D01*
X101963885Y-62017842D01*
X101972824Y-62026554D01*
X101978949Y-62032322D01*
X101988336Y-62040966D01*
X101998032Y-62049640D01*
X102008037Y-62058345D01*
X102018351Y-62067081D01*
X102028975Y-62075848D01*
X102039907Y-62084646D01*
X102051149Y-62093475D01*
X102062700Y-62102334D01*
X102074560Y-62111225D01*
X102086729Y-62120147D01*
X102095013Y-62126111D01*
X102105303Y-62133446D01*
X102115365Y-62140647D01*
X102125197Y-62147715D01*
X102134800Y-62154651D01*
X102148776Y-62164806D01*
X102162236Y-62174662D01*
X102175182Y-62184219D01*
X102187612Y-62193477D01*
X102199527Y-62202436D01*
X102210926Y-62211096D01*
X102221811Y-62219458D01*
X102232180Y-62227521D01*
X102242098Y-62235333D01*
X102251630Y-62243053D01*
X102260776Y-62250679D01*
X102272369Y-62260704D01*
X102283275Y-62270564D01*
X102293495Y-62280259D01*
X102303027Y-62289789D01*
X102311872Y-62299154D01*
X102318056Y-62306070D01*
X102325676Y-62315229D01*
X102334377Y-62326678D01*
X102342163Y-62338126D01*
X102349032Y-62349575D01*
X102354985Y-62361024D01*
X102360023Y-62372473D01*
X102362606Y-62379342D01*
X102366236Y-62391063D01*
X102369252Y-62403328D01*
X102371652Y-62416136D01*
X102373436Y-62429489D01*
X102374606Y-62443385D01*
X102375159Y-62457825D01*
X102375209Y-62463753D01*
X101786681Y-62463753D01*
X101786681Y-62584800D01*
X102516186Y-62584800D01*
X102516186Y-62526474D01*
X102516041Y-62512403D01*
X102515609Y-62498657D01*
X102514887Y-62485235D01*
X102513877Y-62472138D01*
X102512579Y-62459365D01*
X102510992Y-62446917D01*
X102509117Y-62434794D01*
X102506953Y-62422995D01*
X102504501Y-62411520D01*
X102500782Y-62396726D01*
X102499772Y-62393118D01*
X102495335Y-62378775D01*
X102490229Y-62364615D01*
X102484454Y-62350638D01*
X102478010Y-62336844D01*
X102470898Y-62323234D01*
X102463118Y-62309806D01*
X102456843Y-62299856D01*
X102450193Y-62290009D01*
X102445551Y-62283502D01*
X102438203Y-62273775D01*
X102430448Y-62264048D01*
X102422287Y-62254321D01*
X102413718Y-62244594D01*
X102404742Y-62234867D01*
X102395360Y-62225140D01*
X102385570Y-62215413D01*
X102375373Y-62205686D01*
X102364770Y-62195959D01*
X102353759Y-62186232D01*
X102346193Y-62179747D01*
X102334410Y-62169904D01*
X102322143Y-62159830D01*
X102309392Y-62149523D01*
X102296156Y-62138985D01*
X102282437Y-62128214D01*
X102273021Y-62120905D01*
X102263390Y-62113493D01*
X102253544Y-62105978D01*
X102243483Y-62098360D01*
X102233206Y-62090639D01*
X102222715Y-62082815D01*
X102212008Y-62074888D01*
X102201085Y-62066857D01*
X102195544Y-62062804D01*
X102183694Y-62054212D01*
X102172215Y-62045692D01*
X102161108Y-62037245D01*
X102150371Y-62028869D01*
X102140005Y-62020566D01*
X102130010Y-62012335D01*
X102120386Y-62004176D01*
X102111133Y-61996089D01*
X102102251Y-61988074D01*
X102090985Y-61977500D01*
X102088272Y-61974876D01*
X102077693Y-61964330D01*
X102067646Y-61953792D01*
X102058129Y-61943264D01*
X102049144Y-61932744D01*
X102040691Y-61922234D01*
X102032768Y-61911733D01*
X102025376Y-61901242D01*
X102018516Y-61890759D01*
X102012160Y-61880263D01*
X102006280Y-61869730D01*
X102000876Y-61859160D01*
X101994791Y-61845897D01*
X101989450Y-61832576D01*
X101984853Y-61819198D01*
X101981001Y-61805763D01*
X101977792Y-61792078D01*
X101975127Y-61778136D01*
X101973006Y-61763937D01*
X101971429Y-61749480D01*
X101970559Y-61737729D01*
X101970037Y-61725813D01*
X101969863Y-61713732D01*
G37*
G36*
X101237882Y-61384337D02*
G01*
X101249801Y-61384655D01*
X101261547Y-61385292D01*
X101278845Y-61386843D01*
X101295757Y-61389111D01*
X101312282Y-61392095D01*
X101328420Y-61395795D01*
X101344173Y-61400211D01*
X101359538Y-61405343D01*
X101374518Y-61411192D01*
X101389111Y-61417756D01*
X101403317Y-61425037D01*
X101417065Y-61433023D01*
X101430389Y-61441705D01*
X101443292Y-61451083D01*
X101455772Y-61461156D01*
X101467829Y-61471924D01*
X101479464Y-61483388D01*
X101490676Y-61495548D01*
X101501466Y-61508403D01*
X101511834Y-61521954D01*
X101521779Y-61536200D01*
X101528174Y-61546084D01*
X101534345Y-61556235D01*
X101540329Y-61566687D01*
X101546124Y-61577439D01*
X101551732Y-61588490D01*
X101557152Y-61599842D01*
X101562384Y-61611493D01*
X101567428Y-61623445D01*
X101572285Y-61635696D01*
X101576953Y-61648248D01*
X101581435Y-61661099D01*
X101585728Y-61674250D01*
X101589833Y-61687702D01*
X101593751Y-61701453D01*
X101597481Y-61715504D01*
X101601024Y-61729855D01*
X101604378Y-61744506D01*
X101607501Y-61759448D01*
X101610423Y-61774672D01*
X101613143Y-61790177D01*
X101615662Y-61805964D01*
X101617979Y-61822033D01*
X101620095Y-61838383D01*
X101622009Y-61855014D01*
X101623722Y-61871928D01*
X101625233Y-61889123D01*
X101626543Y-61906600D01*
X101627651Y-61924358D01*
X101628558Y-61942398D01*
X101629263Y-61960720D01*
X101629767Y-61979323D01*
X101630069Y-61998208D01*
X101630170Y-62017375D01*
X101630074Y-62034836D01*
X101629786Y-62052051D01*
X101629305Y-62069018D01*
X101628631Y-62085738D01*
X101627766Y-62102211D01*
X101626708Y-62118436D01*
X101625458Y-62134414D01*
X101624015Y-62150145D01*
X101622380Y-62165628D01*
X101620553Y-62180865D01*
X101618534Y-62195853D01*
X101616322Y-62210595D01*
X101613917Y-62225089D01*
X101611321Y-62239336D01*
X101608532Y-62253336D01*
X101605551Y-62267088D01*
X101603971Y-62273852D01*
X101600678Y-62287180D01*
X101597207Y-62300246D01*
X101593557Y-62313048D01*
X101589729Y-62325587D01*
X101585722Y-62337862D01*
X101581536Y-62349874D01*
X101577172Y-62361623D01*
X101572629Y-62373109D01*
X101567907Y-62384331D01*
X101563007Y-62395290D01*
X101557928Y-62405985D01*
X101549975Y-62421535D01*
X101541621Y-62436492D01*
X101532864Y-62450857D01*
X101526807Y-62460059D01*
X101517405Y-62473339D01*
X101507621Y-62485991D01*
X101497456Y-62498014D01*
X101486910Y-62509409D01*
X101475983Y-62520175D01*
X101464674Y-62530312D01*
X101452984Y-62539821D01*
X101440913Y-62548701D01*
X101428461Y-62556953D01*
X101415627Y-62564576D01*
X101406832Y-62569297D01*
X101393356Y-62575806D01*
X101379540Y-62581630D01*
X101365384Y-62586770D01*
X101350888Y-62591223D01*
X101336052Y-62594992D01*
X101320876Y-62598076D01*
X101305360Y-62600474D01*
X101289504Y-62602187D01*
X101273308Y-62603215D01*
X101256772Y-62603557D01*
X101245092Y-62603398D01*
X101227872Y-62602563D01*
X101211013Y-62601011D01*
X101194514Y-62598743D01*
X101178377Y-62595760D01*
X101162600Y-62592060D01*
X101147183Y-62587643D01*
X101132127Y-62582511D01*
X101117432Y-62576663D01*
X101103097Y-62570098D01*
X101089123Y-62562818D01*
X101079982Y-62557579D01*
X101066608Y-62549171D01*
X101053641Y-62540103D01*
X101041081Y-62530376D01*
X101028929Y-62519990D01*
X101017183Y-62508944D01*
X101005844Y-62497238D01*
X100994913Y-62484874D01*
X100984388Y-62471849D01*
X100974270Y-62458166D01*
X100964560Y-62443823D01*
X100958315Y-62433864D01*
X100952259Y-62423627D01*
X100946390Y-62413110D01*
X100940709Y-62402313D01*
X100935216Y-62391238D01*
X100929911Y-62379883D01*
X100924793Y-62368248D01*
X100919863Y-62356335D01*
X100915121Y-62344142D01*
X100910567Y-62331669D01*
X100906200Y-62318917D01*
X100902021Y-62305886D01*
X100898030Y-62292576D01*
X100894227Y-62278986D01*
X100890611Y-62265117D01*
X100887183Y-62250968D01*
X100883918Y-62236549D01*
X100880864Y-62221865D01*
X100878020Y-62206919D01*
X100875387Y-62191709D01*
X100872964Y-62176236D01*
X100870752Y-62160499D01*
X100868751Y-62144499D01*
X100866960Y-62128236D01*
X100865380Y-62111710D01*
X100864011Y-62094920D01*
X100862852Y-62077867D01*
X100861904Y-62060551D01*
X100861167Y-62042971D01*
X100860640Y-62025128D01*
X100860324Y-62007021D01*
X100860294Y-62001841D01*
X100998851Y-62001841D01*
X100999090Y-62031756D01*
X100999807Y-62060721D01*
X101001002Y-62088737D01*
X101002675Y-62115803D01*
X101004826Y-62141919D01*
X101007455Y-62167086D01*
X101010562Y-62191303D01*
X101014147Y-62214570D01*
X101018210Y-62236888D01*
X101022751Y-62258256D01*
X101027770Y-62278674D01*
X101033267Y-62298142D01*
X101039242Y-62316661D01*
X101045694Y-62334230D01*
X101052625Y-62350850D01*
X101060034Y-62366520D01*
X101067921Y-62381240D01*
X101076286Y-62395010D01*
X101085129Y-62407831D01*
X101094449Y-62419702D01*
X101104248Y-62430623D01*
X101114525Y-62440595D01*
X101125280Y-62449617D01*
X101136513Y-62457689D01*
X101148223Y-62464812D01*
X101160412Y-62470985D01*
X101173079Y-62476208D01*
X101186224Y-62480482D01*
X101199846Y-62483806D01*
X101213947Y-62486180D01*
X101228526Y-62487604D01*
X101243583Y-62488079D01*
X101258856Y-62487613D01*
X101273644Y-62486214D01*
X101287947Y-62483883D01*
X101301766Y-62480619D01*
X101315099Y-62476423D01*
X101327948Y-62471294D01*
X101340312Y-62465233D01*
X101352191Y-62458239D01*
X101363586Y-62450313D01*
X101374495Y-62441454D01*
X101384919Y-62431662D01*
X101394859Y-62420939D01*
X101404314Y-62409282D01*
X101413284Y-62396693D01*
X101421769Y-62383172D01*
X101429769Y-62368718D01*
X101437284Y-62353331D01*
X101444315Y-62337012D01*
X101450860Y-62319761D01*
X101456921Y-62301577D01*
X101462497Y-62282461D01*
X101467588Y-62262412D01*
X101472194Y-62241430D01*
X101476316Y-62219516D01*
X101479952Y-62196669D01*
X101483104Y-62172890D01*
X101485770Y-62148179D01*
X101487952Y-62122535D01*
X101489649Y-62095958D01*
X101490861Y-62068449D01*
X101491589Y-62040008D01*
X101491831Y-62010633D01*
X101491584Y-61979150D01*
X101490842Y-61948665D01*
X101489605Y-61919180D01*
X101487874Y-61890695D01*
X101485649Y-61863209D01*
X101482928Y-61836723D01*
X101479714Y-61811236D01*
X101476004Y-61786748D01*
X101471800Y-61763260D01*
X101467101Y-61740772D01*
X101461908Y-61719283D01*
X101456220Y-61698793D01*
X101450038Y-61679303D01*
X101443361Y-61660813D01*
X101436189Y-61643322D01*
X101428523Y-61626830D01*
X101420363Y-61611338D01*
X101411707Y-61596846D01*
X101402557Y-61583352D01*
X101392913Y-61570859D01*
X101382774Y-61559365D01*
X101372140Y-61548870D01*
X101361012Y-61539375D01*
X101349389Y-61530879D01*
X101337271Y-61523383D01*
X101324659Y-61516887D01*
X101311552Y-61511389D01*
X101297951Y-61506892D01*
X101283855Y-61503393D01*
X101269265Y-61500895D01*
X101254180Y-61499396D01*
X101238600Y-61498896D01*
X101223850Y-61499387D01*
X101209568Y-61500860D01*
X101195754Y-61503316D01*
X101182409Y-61506754D01*
X101169532Y-61511175D01*
X101157123Y-61516577D01*
X101145182Y-61522962D01*
X101133710Y-61530330D01*
X101122706Y-61538680D01*
X101112170Y-61548012D01*
X101102102Y-61558326D01*
X101092503Y-61569622D01*
X101083372Y-61581901D01*
X101074709Y-61595163D01*
X101066515Y-61609406D01*
X101058788Y-61624632D01*
X101051530Y-61640840D01*
X101044741Y-61658031D01*
X101038419Y-61676204D01*
X101032566Y-61695359D01*
X101027181Y-61715496D01*
X101022264Y-61736616D01*
X101017816Y-61758718D01*
X101013836Y-61781802D01*
X101010324Y-61805869D01*
X101007280Y-61830918D01*
X101004705Y-61856949D01*
X101002597Y-61883963D01*
X101000958Y-61911959D01*
X100999788Y-61940937D01*
X100999085Y-61970898D01*
X100998851Y-62001841D01*
X100860294Y-62001841D01*
X100860219Y-61988652D01*
X100860582Y-61951470D01*
X100861671Y-61915468D01*
X100863485Y-61880647D01*
X100866026Y-61847006D01*
X100869292Y-61814546D01*
X100873285Y-61783265D01*
X100878003Y-61753166D01*
X100883447Y-61724246D01*
X100889616Y-61696508D01*
X100896512Y-61669949D01*
X100904134Y-61644571D01*
X100912481Y-61620373D01*
X100921554Y-61597356D01*
X100931353Y-61575519D01*
X100941878Y-61554862D01*
X100953129Y-61535386D01*
X100965106Y-61517090D01*
X100977808Y-61499974D01*
X100991237Y-61484039D01*
X101005391Y-61469284D01*
X101020271Y-61455710D01*
X101035877Y-61443316D01*
X101052209Y-61432102D01*
X101069266Y-61422069D01*
X101087050Y-61413216D01*
X101105559Y-61405544D01*
X101124795Y-61399052D01*
X101144756Y-61393740D01*
X101165443Y-61389609D01*
X101186856Y-61386658D01*
X101208994Y-61384887D01*
X101231859Y-61384297D01*
X101237882Y-61384337D01*
G37*
G36*
X100159731Y-61713732D02*
G01*
X100159996Y-61700392D01*
X100160793Y-61687482D01*
X100162121Y-61675003D01*
X100163980Y-61662954D01*
X100166371Y-61651335D01*
X100170106Y-61637418D01*
X100174671Y-61624173D01*
X100176730Y-61619063D01*
X100182258Y-61606760D01*
X100188402Y-61595129D01*
X100195161Y-61584171D01*
X100202536Y-61573886D01*
X100210526Y-61564273D01*
X100219131Y-61555333D01*
X100222745Y-61551945D01*
X100232155Y-61543940D01*
X100242065Y-61536592D01*
X100252477Y-61529903D01*
X100263389Y-61523873D01*
X100274802Y-61518500D01*
X100286716Y-61513786D01*
X100291622Y-61512085D01*
X100304144Y-61508285D01*
X100316981Y-61505130D01*
X100330133Y-61502618D01*
X100343600Y-61500751D01*
X100357381Y-61499527D01*
X100371478Y-61498947D01*
X100377204Y-61498896D01*
X100389533Y-61499168D01*
X100401791Y-61499983D01*
X100413977Y-61501343D01*
X100426091Y-61503246D01*
X100438134Y-61505694D01*
X100450105Y-61508685D01*
X100454874Y-61510033D01*
X100466646Y-61513637D01*
X100478332Y-61517670D01*
X100489933Y-61522132D01*
X100501448Y-61527023D01*
X100512877Y-61532344D01*
X100524219Y-61538094D01*
X100528733Y-61540515D01*
X100539850Y-61546746D01*
X100550852Y-61553349D01*
X100561740Y-61560324D01*
X100572513Y-61567672D01*
X100583172Y-61575391D01*
X100593717Y-61583482D01*
X100597902Y-61586823D01*
X100608229Y-61595400D01*
X100618327Y-61604277D01*
X100628196Y-61613455D01*
X100637836Y-61622933D01*
X100647247Y-61632712D01*
X100656429Y-61642791D01*
X100660038Y-61646907D01*
X100660038Y-61499775D01*
X100649258Y-61489511D01*
X100638241Y-61479710D01*
X100626988Y-61470373D01*
X100615497Y-61461499D01*
X100603769Y-61453089D01*
X100591805Y-61445143D01*
X100579603Y-61437661D01*
X100567164Y-61430642D01*
X100554489Y-61424087D01*
X100541576Y-61417996D01*
X100532836Y-61414192D01*
X100519321Y-61408850D01*
X100505266Y-61404033D01*
X100490669Y-61399741D01*
X100475532Y-61395975D01*
X100459854Y-61392734D01*
X100443634Y-61390019D01*
X100426874Y-61387830D01*
X100409573Y-61386166D01*
X100397738Y-61385348D01*
X100385663Y-61384764D01*
X100373347Y-61384414D01*
X100360791Y-61384297D01*
X100347260Y-61384483D01*
X100333925Y-61385039D01*
X100320786Y-61385966D01*
X100307842Y-61387265D01*
X100295095Y-61388934D01*
X100282543Y-61390974D01*
X100270187Y-61393385D01*
X100258026Y-61396167D01*
X100246061Y-61399320D01*
X100234293Y-61402844D01*
X100226555Y-61405400D01*
X100215104Y-61409474D01*
X100203942Y-61413894D01*
X100193067Y-61418658D01*
X100182482Y-61423768D01*
X100168816Y-61431118D01*
X100155664Y-61439082D01*
X100143024Y-61447660D01*
X100130898Y-61456851D01*
X100119284Y-61466656D01*
X100108233Y-61477060D01*
X100097797Y-61488051D01*
X100087974Y-61499629D01*
X100078764Y-61511792D01*
X100070168Y-61524541D01*
X100062186Y-61537877D01*
X100056602Y-61548263D01*
X100051363Y-61558980D01*
X100048063Y-61566307D01*
X100043401Y-61577560D01*
X100039198Y-61589116D01*
X100035453Y-61600977D01*
X100032167Y-61613142D01*
X100029340Y-61625611D01*
X100026970Y-61638383D01*
X100025060Y-61651460D01*
X100023608Y-61664840D01*
X100022614Y-61678525D01*
X100022079Y-61692514D01*
X100021978Y-61702008D01*
X100022119Y-61715026D01*
X100022544Y-61727813D01*
X100023253Y-61740367D01*
X100024244Y-61752690D01*
X100025520Y-61764781D01*
X100027078Y-61776640D01*
X100028920Y-61788267D01*
X100031816Y-61803409D01*
X100035217Y-61818140D01*
X100038098Y-61828917D01*
X100042384Y-61843031D01*
X100047183Y-61856944D01*
X100052496Y-61870655D01*
X100058321Y-61884164D01*
X100064659Y-61897473D01*
X100071510Y-61910579D01*
X100078874Y-61923485D01*
X100086751Y-61936188D01*
X100095150Y-61948654D01*
X100104080Y-61960991D01*
X100113541Y-61973200D01*
X100120986Y-61982273D01*
X100128729Y-61991273D01*
X100136772Y-62000202D01*
X100145113Y-62009058D01*
X100153753Y-62017842D01*
X100162691Y-62026554D01*
X100168816Y-62032322D01*
X100178203Y-62040966D01*
X100187899Y-62049640D01*
X100197905Y-62058345D01*
X100208219Y-62067081D01*
X100218842Y-62075848D01*
X100229775Y-62084646D01*
X100241016Y-62093475D01*
X100252567Y-62102334D01*
X100264427Y-62111225D01*
X100276596Y-62120147D01*
X100284881Y-62126111D01*
X100295171Y-62133446D01*
X100305232Y-62140647D01*
X100315064Y-62147715D01*
X100324668Y-62154651D01*
X100338643Y-62164806D01*
X100352104Y-62174662D01*
X100365049Y-62184219D01*
X100377479Y-62193477D01*
X100389394Y-62202436D01*
X100400794Y-62211096D01*
X100411678Y-62219458D01*
X100422047Y-62227521D01*
X100431966Y-62235333D01*
X100441498Y-62243053D01*
X100450644Y-62250679D01*
X100462237Y-62260704D01*
X100473143Y-62270564D01*
X100483362Y-62280259D01*
X100492894Y-62289789D01*
X100501740Y-62299154D01*
X100507923Y-62306070D01*
X100515544Y-62315229D01*
X100524245Y-62326678D01*
X100532030Y-62338126D01*
X100538899Y-62349575D01*
X100544853Y-62361024D01*
X100549890Y-62372473D01*
X100552473Y-62379342D01*
X100556104Y-62391063D01*
X100559119Y-62403328D01*
X100561519Y-62416136D01*
X100563304Y-62429489D01*
X100564473Y-62443385D01*
X100565027Y-62457825D01*
X100565076Y-62463753D01*
X99976548Y-62463753D01*
X99976548Y-62584800D01*
X100706053Y-62584800D01*
X100706053Y-62526474D01*
X100705909Y-62512403D01*
X100705476Y-62498657D01*
X100704755Y-62485235D01*
X100703745Y-62472138D01*
X100702447Y-62459365D01*
X100700860Y-62446917D01*
X100698984Y-62434794D01*
X100696821Y-62422995D01*
X100694368Y-62411520D01*
X100690650Y-62396726D01*
X100689640Y-62393118D01*
X100685202Y-62378775D01*
X100680096Y-62364615D01*
X100674321Y-62350638D01*
X100667878Y-62336844D01*
X100660766Y-62323234D01*
X100652985Y-62309806D01*
X100646711Y-62299856D01*
X100640060Y-62290009D01*
X100635418Y-62283502D01*
X100628070Y-62273775D01*
X100620316Y-62264048D01*
X100612154Y-62254321D01*
X100603585Y-62244594D01*
X100594610Y-62234867D01*
X100585227Y-62225140D01*
X100575438Y-62215413D01*
X100565241Y-62205686D01*
X100554637Y-62195959D01*
X100543626Y-62186232D01*
X100536060Y-62179747D01*
X100524277Y-62169904D01*
X100512010Y-62159830D01*
X100499259Y-62149523D01*
X100486024Y-62138985D01*
X100472304Y-62128214D01*
X100462888Y-62120905D01*
X100453258Y-62113493D01*
X100443412Y-62105978D01*
X100433350Y-62098360D01*
X100423074Y-62090639D01*
X100412582Y-62082815D01*
X100401875Y-62074888D01*
X100390953Y-62066857D01*
X100385411Y-62062804D01*
X100373561Y-62054212D01*
X100362083Y-62045692D01*
X100350975Y-62037245D01*
X100340238Y-62028869D01*
X100329872Y-62020566D01*
X100319878Y-62012335D01*
X100310254Y-62004176D01*
X100301001Y-61996089D01*
X100292119Y-61988074D01*
X100280853Y-61977500D01*
X100278139Y-61974876D01*
X100267561Y-61964330D01*
X100257513Y-61953792D01*
X100247997Y-61943264D01*
X100239012Y-61932744D01*
X100230558Y-61922234D01*
X100222635Y-61911733D01*
X100215244Y-61901242D01*
X100208384Y-61890759D01*
X100202027Y-61880263D01*
X100196147Y-61869730D01*
X100190743Y-61859160D01*
X100184658Y-61845897D01*
X100179317Y-61832576D01*
X100174721Y-61819198D01*
X100170868Y-61805763D01*
X100167659Y-61792078D01*
X100164995Y-61778136D01*
X100162874Y-61763937D01*
X100161297Y-61749480D01*
X100160427Y-61737729D01*
X100159905Y-61725813D01*
X100159731Y-61713732D01*
G37*
G36*
X99339994Y-61414850D02*
G01*
X99345463Y-61426713D01*
X99351086Y-61438645D01*
X99356862Y-61450646D01*
X99362791Y-61462715D01*
X99368874Y-61474853D01*
X99375110Y-61487060D01*
X99381500Y-61499335D01*
X99388043Y-61511680D01*
X99394739Y-61524093D01*
X99401589Y-61536574D01*
X99408592Y-61549124D01*
X99415749Y-61561743D01*
X99423059Y-61574431D01*
X99430523Y-61587187D01*
X99438139Y-61600012D01*
X99445840Y-61612837D01*
X99453628Y-61625667D01*
X99461502Y-61638501D01*
X99469464Y-61651340D01*
X99477512Y-61664183D01*
X99485648Y-61677031D01*
X99493870Y-61689884D01*
X99502180Y-61702741D01*
X99510577Y-61715603D01*
X99519060Y-61728469D01*
X99527631Y-61741340D01*
X99536288Y-61754215D01*
X99545033Y-61767095D01*
X99553865Y-61779980D01*
X99562783Y-61792869D01*
X99571789Y-61805763D01*
X99580829Y-61818647D01*
X99589924Y-61831509D01*
X99599074Y-61844348D01*
X99608279Y-61857163D01*
X99617539Y-61869956D01*
X99626854Y-61882726D01*
X99636223Y-61895474D01*
X99645648Y-61908198D01*
X99655128Y-61920899D01*
X99664663Y-61933578D01*
X99674252Y-61946233D01*
X99683897Y-61958866D01*
X99693596Y-61971476D01*
X99703351Y-61984063D01*
X99713160Y-61996627D01*
X99723024Y-62009168D01*
X99732909Y-62021651D01*
X99742781Y-62034040D01*
X99752638Y-62046334D01*
X99762482Y-62058536D01*
X99772312Y-62070643D01*
X99782128Y-62082656D01*
X99791931Y-62094575D01*
X99801719Y-62106401D01*
X99811494Y-62118133D01*
X99821256Y-62129770D01*
X99831003Y-62141314D01*
X99840737Y-62152764D01*
X99850457Y-62164121D01*
X99860164Y-62175383D01*
X99869856Y-62186551D01*
X99879535Y-62197626D01*
X99879535Y-62314569D01*
X99323834Y-62314569D01*
X99323834Y-62584800D01*
X99190184Y-62584800D01*
X99190184Y-62314569D01*
X99038656Y-62314569D01*
X99038656Y-62190885D01*
X99190184Y-62190885D01*
X99190184Y-61606753D01*
X99323834Y-61606753D01*
X99323834Y-62190885D01*
X99726835Y-62190885D01*
X99721760Y-62184524D01*
X99714080Y-62174896D01*
X99706318Y-62165166D01*
X99698473Y-62155332D01*
X99690546Y-62145396D01*
X99682537Y-62135356D01*
X99674444Y-62125214D01*
X99666270Y-62114968D01*
X99658013Y-62104620D01*
X99649674Y-62094168D01*
X99641252Y-62083613D01*
X99635556Y-62076491D01*
X99626948Y-62065614D01*
X99618262Y-62054506D01*
X99609500Y-62043165D01*
X99600660Y-62031593D01*
X99591743Y-62019789D01*
X99582748Y-62007753D01*
X99573676Y-61995485D01*
X99564527Y-61982986D01*
X99555301Y-61970254D01*
X99545997Y-61957291D01*
X99542878Y-61952898D01*
X99533458Y-61939536D01*
X99523946Y-61925901D01*
X99514341Y-61911993D01*
X99504643Y-61897812D01*
X99494853Y-61883358D01*
X99488274Y-61873571D01*
X99481654Y-61863662D01*
X99474993Y-61853631D01*
X99468291Y-61843480D01*
X99461548Y-61833207D01*
X99454763Y-61822812D01*
X99447937Y-61812296D01*
X99441070Y-61801659D01*
X99434121Y-61790834D01*
X99427121Y-61779829D01*
X99420071Y-61768642D01*
X99412970Y-61757274D01*
X99405819Y-61745726D01*
X99398618Y-61733996D01*
X99391366Y-61722086D01*
X99384064Y-61709995D01*
X99376712Y-61697723D01*
X99369309Y-61685270D01*
X99361856Y-61672636D01*
X99354352Y-61659821D01*
X99346798Y-61646826D01*
X99339194Y-61633649D01*
X99331539Y-61620292D01*
X99323834Y-61606753D01*
X99190184Y-61606753D01*
X99190184Y-61403055D01*
X99334678Y-61403055D01*
X99339994Y-61414850D01*
G37*
%TO.C,G\u002A\u002A\u002A*%
G36*
X125648237Y-80947109D02*
G01*
X125648229Y-80984988D01*
X125648016Y-81141140D01*
X125647532Y-81288233D01*
X125646805Y-81423834D01*
X125645859Y-81545510D01*
X125644719Y-81650827D01*
X125643410Y-81737353D01*
X125641959Y-81802656D01*
X125640391Y-81844300D01*
X125638730Y-81859855D01*
X125635740Y-81861356D01*
X125610308Y-81865442D01*
X125566074Y-81868292D01*
X125510375Y-81869363D01*
X125391528Y-81869363D01*
X125391528Y-80956617D01*
X125391528Y-80043872D01*
X125519883Y-80043872D01*
X125648237Y-80043872D01*
X125648237Y-80947109D01*
G37*
G36*
X123786888Y-80043473D02*
G01*
X123956005Y-80043729D01*
X124151725Y-80043872D01*
X125149080Y-80043872D01*
X125149080Y-80179357D01*
X125149080Y-80314843D01*
X124724082Y-80314843D01*
X124670331Y-80314893D01*
X124548111Y-80315520D01*
X124451598Y-80316928D01*
X124378761Y-80319198D01*
X124327566Y-80322407D01*
X124295980Y-80326633D01*
X124281971Y-80331957D01*
X124278172Y-80342287D01*
X124274749Y-80367879D01*
X124271902Y-80410201D01*
X124269595Y-80470937D01*
X124267791Y-80551772D01*
X124266452Y-80654391D01*
X124265541Y-80780478D01*
X124265022Y-80931717D01*
X124264857Y-81109794D01*
X124264857Y-81870516D01*
X124147199Y-81866374D01*
X124029540Y-81862232D01*
X124022099Y-81092103D01*
X124021323Y-81013553D01*
X124019844Y-80872582D01*
X124018361Y-80741832D01*
X124016910Y-80623920D01*
X124015527Y-80521458D01*
X124014249Y-80437062D01*
X124013111Y-80373346D01*
X124012151Y-80332923D01*
X124011403Y-80318408D01*
X124009370Y-80318086D01*
X123985663Y-80317217D01*
X123938198Y-80316440D01*
X123870500Y-80315785D01*
X123786093Y-80315281D01*
X123688505Y-80314957D01*
X123581259Y-80314843D01*
X123507931Y-80314935D01*
X123398841Y-80315182D01*
X123313653Y-80314777D01*
X123249420Y-80312830D01*
X123203198Y-80308450D01*
X123172038Y-80300746D01*
X123152995Y-80288829D01*
X123143123Y-80271807D01*
X123139474Y-80248791D01*
X123139103Y-80218890D01*
X123139063Y-80181214D01*
X123138814Y-80173683D01*
X123136820Y-80148211D01*
X123134584Y-80126268D01*
X123134024Y-80107592D01*
X123137058Y-80091925D01*
X123145603Y-80079005D01*
X123161576Y-80068573D01*
X123186895Y-80060369D01*
X123223478Y-80054133D01*
X123273242Y-80049604D01*
X123338104Y-80046523D01*
X123419983Y-80044629D01*
X123520794Y-80043663D01*
X123642457Y-80043364D01*
X123786888Y-80043473D01*
G37*
G36*
X132707755Y-80674712D02*
G01*
X132765995Y-80676074D01*
X132859902Y-80679236D01*
X132931965Y-80683858D01*
X132986596Y-80690868D01*
X133028207Y-80701197D01*
X133061208Y-80715775D01*
X133090011Y-80735531D01*
X133119027Y-80761394D01*
X133124992Y-80767101D01*
X133150924Y-80792794D01*
X133171717Y-80817091D01*
X133187940Y-80843316D01*
X133200160Y-80874794D01*
X133208944Y-80914848D01*
X133214859Y-80966804D01*
X133218473Y-81033986D01*
X133220352Y-81119718D01*
X133221063Y-81227324D01*
X133221174Y-81360129D01*
X133221102Y-81415377D01*
X133220536Y-81521494D01*
X133219470Y-81616619D01*
X133217978Y-81697245D01*
X133216131Y-81759866D01*
X133214003Y-81800977D01*
X133211666Y-81817070D01*
X133208779Y-81819763D01*
X133191088Y-81825424D01*
X133164127Y-81812636D01*
X133163514Y-81812220D01*
X133157527Y-81804002D01*
X133152595Y-81786990D01*
X133148548Y-81758367D01*
X133145216Y-81715314D01*
X133142426Y-81655012D01*
X133140008Y-81574643D01*
X133137791Y-81471388D01*
X133135604Y-81342429D01*
X133128473Y-80885728D01*
X133074779Y-80832037D01*
X133021085Y-80778347D01*
X132657661Y-80774095D01*
X132642366Y-80773920D01*
X132530334Y-80772920D01*
X132442804Y-80772858D01*
X132376196Y-80773889D01*
X132326929Y-80776170D01*
X132291422Y-80779858D01*
X132266095Y-80785111D01*
X132247367Y-80792085D01*
X132234471Y-80799447D01*
X132195909Y-80833008D01*
X132159950Y-80877860D01*
X132133390Y-80924613D01*
X132123027Y-80963877D01*
X132119051Y-80986979D01*
X132102506Y-81021634D01*
X132092589Y-81034157D01*
X132077796Y-81041168D01*
X132058207Y-81025902D01*
X132044607Y-81002376D01*
X132041714Y-80956978D01*
X132054875Y-80901894D01*
X132081763Y-80843230D01*
X132120048Y-80787093D01*
X132167402Y-80739588D01*
X132195911Y-80720582D01*
X132239201Y-80702267D01*
X132295090Y-80688726D01*
X132366735Y-80679578D01*
X132457290Y-80674446D01*
X132569911Y-80672950D01*
X132707755Y-80674712D01*
G37*
G36*
X128814755Y-80032999D02*
G01*
X128834191Y-80052169D01*
X128834740Y-80055090D01*
X128836363Y-80081994D01*
X128837848Y-80133760D01*
X128839166Y-80207624D01*
X128840287Y-80300820D01*
X128841182Y-80410581D01*
X128841823Y-80534142D01*
X128842179Y-80668738D01*
X128842221Y-80811602D01*
X128841952Y-80969165D01*
X128841322Y-81121305D01*
X128840298Y-81248601D01*
X128838835Y-81352998D01*
X128836886Y-81436446D01*
X128834404Y-81500891D01*
X128831343Y-81548279D01*
X128827654Y-81580559D01*
X128823293Y-81599678D01*
X128786377Y-81673006D01*
X128725532Y-81743203D01*
X128650489Y-81793012D01*
X128647387Y-81794446D01*
X128606716Y-81810554D01*
X128564835Y-81820288D01*
X128512664Y-81825100D01*
X128441122Y-81826439D01*
X128422626Y-81826423D01*
X128351879Y-81825181D01*
X128304377Y-81821251D01*
X128275797Y-81813611D01*
X128261819Y-81801238D01*
X128258119Y-81783109D01*
X128258968Y-81770551D01*
X128265432Y-81756756D01*
X128282179Y-81747331D01*
X128313765Y-81741006D01*
X128364750Y-81736514D01*
X128439691Y-81732585D01*
X128489887Y-81729949D01*
X128546964Y-81725066D01*
X128587323Y-81717835D01*
X128618081Y-81706809D01*
X128646352Y-81690539D01*
X128661208Y-81680606D01*
X128687083Y-81661273D01*
X128707383Y-81640506D01*
X128722784Y-81614918D01*
X128733961Y-81581124D01*
X128741590Y-81535737D01*
X128746347Y-81475371D01*
X128748908Y-81396641D01*
X128749950Y-81296160D01*
X128750146Y-81170542D01*
X128750146Y-80778347D01*
X128516352Y-80771216D01*
X128435178Y-80768451D01*
X128368883Y-80765191D01*
X128323121Y-80761202D01*
X128293698Y-80755949D01*
X128276420Y-80748899D01*
X128267093Y-80739520D01*
X128260236Y-80724597D01*
X128265571Y-80701644D01*
X128273289Y-80698726D01*
X128306048Y-80693508D01*
X128359056Y-80688364D01*
X128427108Y-80683761D01*
X128505001Y-80680164D01*
X128551853Y-80678298D01*
X128624476Y-80674686D01*
X128684147Y-80670814D01*
X128725678Y-80667038D01*
X128743884Y-80663717D01*
X128744323Y-80663307D01*
X128748520Y-80644328D01*
X128752089Y-80601114D01*
X128754855Y-80537567D01*
X128756642Y-80457590D01*
X128757277Y-80365084D01*
X128757294Y-80346992D01*
X128757860Y-80259068D01*
X128759137Y-80180942D01*
X128760995Y-80117297D01*
X128763303Y-80072812D01*
X128765934Y-80052169D01*
X128766965Y-80049764D01*
X128787635Y-80032197D01*
X128814755Y-80032999D01*
G37*
G36*
X135460684Y-80032999D02*
G01*
X135480120Y-80052169D01*
X135480614Y-80054641D01*
X135482266Y-80080644D01*
X135483802Y-80131590D01*
X135485189Y-80204701D01*
X135486395Y-80297199D01*
X135487389Y-80406306D01*
X135488139Y-80529243D01*
X135488612Y-80663233D01*
X135488776Y-80805496D01*
X135488736Y-80968354D01*
X135488460Y-81115617D01*
X135487713Y-81239167D01*
X135486264Y-81341482D01*
X135483879Y-81425036D01*
X135480324Y-81492305D01*
X135475368Y-81545766D01*
X135468776Y-81587894D01*
X135460316Y-81621166D01*
X135449754Y-81648056D01*
X135436858Y-81671041D01*
X135421394Y-81692597D01*
X135403130Y-81715200D01*
X135393626Y-81725867D01*
X135348596Y-81765450D01*
X135300131Y-81796394D01*
X135281291Y-81805027D01*
X135248087Y-81815915D01*
X135207987Y-81822481D01*
X135153792Y-81825705D01*
X135078306Y-81826567D01*
X135019262Y-81826213D01*
X134966961Y-81824390D01*
X134934336Y-81820405D01*
X134916475Y-81813582D01*
X134908462Y-81803247D01*
X134904612Y-81791333D01*
X134904572Y-81767870D01*
X134920253Y-81750999D01*
X134954848Y-81739401D01*
X135011550Y-81731757D01*
X135093552Y-81726746D01*
X135160029Y-81722999D01*
X135228563Y-81714903D01*
X135278367Y-81700920D01*
X135315034Y-81678449D01*
X135344161Y-81644890D01*
X135371344Y-81597641D01*
X135378106Y-81584065D01*
X135386307Y-81564720D01*
X135392457Y-81543136D01*
X135396799Y-81515559D01*
X135399574Y-81478235D01*
X135401025Y-81427407D01*
X135401397Y-81359323D01*
X135400930Y-81270227D01*
X135399867Y-81156365D01*
X135396076Y-80778347D01*
X135162281Y-80771216D01*
X135081108Y-80768451D01*
X135014813Y-80765191D01*
X134969050Y-80761202D01*
X134939627Y-80755949D01*
X134922350Y-80748899D01*
X134913022Y-80739520D01*
X134909510Y-80733556D01*
X134903524Y-80713804D01*
X134911992Y-80699171D01*
X134937723Y-80688902D01*
X134983522Y-80682242D01*
X135052198Y-80678437D01*
X135146558Y-80676731D01*
X135180430Y-80676343D01*
X135253606Y-80674762D01*
X135315220Y-80672427D01*
X135359618Y-80669585D01*
X135381148Y-80666483D01*
X135385933Y-80663483D01*
X135392307Y-80652468D01*
X135396932Y-80630822D01*
X135400072Y-80594967D01*
X135401989Y-80541326D01*
X135402946Y-80466321D01*
X135403207Y-80366373D01*
X135403225Y-80347169D01*
X135403798Y-80259135D01*
X135405077Y-80180950D01*
X135406933Y-80117281D01*
X135409238Y-80072798D01*
X135411863Y-80052169D01*
X135412895Y-80049764D01*
X135433564Y-80032197D01*
X135460684Y-80032999D01*
G37*
G36*
X131831123Y-80688274D02*
G01*
X131853694Y-80702070D01*
X131854146Y-80703059D01*
X131857280Y-80725504D01*
X131860108Y-80772114D01*
X131862516Y-80839061D01*
X131864392Y-80922519D01*
X131865624Y-81018660D01*
X131866099Y-81123657D01*
X131866109Y-81175630D01*
X131865892Y-81284202D01*
X131865149Y-81369555D01*
X131863650Y-81435453D01*
X131861168Y-81485661D01*
X131857472Y-81523943D01*
X131852333Y-81554063D01*
X131845523Y-81579784D01*
X131836812Y-81604872D01*
X131802252Y-81675112D01*
X131740170Y-81748215D01*
X131659840Y-81799893D01*
X131643977Y-81806329D01*
X131623317Y-81812224D01*
X131596632Y-81816827D01*
X131560709Y-81820298D01*
X131512333Y-81822796D01*
X131448291Y-81824482D01*
X131365368Y-81825515D01*
X131260350Y-81826056D01*
X131130023Y-81826265D01*
X131021142Y-81826210D01*
X130908841Y-81825714D01*
X130820298Y-81824646D01*
X130752868Y-81822901D01*
X130703907Y-81820376D01*
X130670770Y-81816967D01*
X130650812Y-81812571D01*
X130641390Y-81807083D01*
X130636983Y-81792307D01*
X130633432Y-81757865D01*
X130630809Y-81702385D01*
X130629083Y-81624371D01*
X130628219Y-81522330D01*
X130628184Y-81394765D01*
X130628948Y-81240183D01*
X130629470Y-81164667D01*
X130630436Y-81039147D01*
X130631474Y-80938117D01*
X130632743Y-80858922D01*
X130634397Y-80798904D01*
X130636595Y-80755408D01*
X130639493Y-80725777D01*
X130643246Y-80707355D01*
X130648012Y-80697485D01*
X130653947Y-80693511D01*
X130661208Y-80692777D01*
X130661298Y-80692777D01*
X130668860Y-80693585D01*
X130674975Y-80697852D01*
X130679825Y-80708364D01*
X130683588Y-80727904D01*
X130686447Y-80759257D01*
X130688582Y-80805209D01*
X130690172Y-80868545D01*
X130691399Y-80952048D01*
X130692442Y-81058505D01*
X130693484Y-81190699D01*
X130693525Y-81196085D01*
X130695124Y-81349354D01*
X130697357Y-81474680D01*
X130700246Y-81572620D01*
X130703812Y-81643730D01*
X130708075Y-81688566D01*
X130713057Y-81707684D01*
X130714325Y-81708677D01*
X130737192Y-81713888D01*
X130783570Y-81718309D01*
X130849204Y-81721926D01*
X130929838Y-81724725D01*
X131021216Y-81726691D01*
X131119084Y-81727810D01*
X131219184Y-81728068D01*
X131317263Y-81727452D01*
X131409063Y-81725945D01*
X131490330Y-81723536D01*
X131556807Y-81720208D01*
X131604240Y-81715948D01*
X131628372Y-81710742D01*
X131639901Y-81704267D01*
X131686723Y-81669071D01*
X131729296Y-81625526D01*
X131756962Y-81584130D01*
X131759935Y-81573250D01*
X131765093Y-81532073D01*
X131769804Y-81464722D01*
X131773991Y-81372714D01*
X131777577Y-81257569D01*
X131780484Y-81120804D01*
X131782559Y-81005194D01*
X131784609Y-80907535D01*
X131786743Y-80832508D01*
X131789198Y-80777085D01*
X131792216Y-80738235D01*
X131796035Y-80712930D01*
X131800894Y-80698140D01*
X131807033Y-80690835D01*
X131814692Y-80687986D01*
X131831123Y-80688274D01*
G37*
G36*
X129599323Y-74747332D02*
G01*
X129823806Y-74785558D01*
X130043145Y-74850559D01*
X130254751Y-74942233D01*
X130382800Y-75013601D01*
X130568606Y-75142116D01*
X130738304Y-75290734D01*
X130889581Y-75456810D01*
X131020120Y-75637697D01*
X131127608Y-75830753D01*
X131209729Y-76033331D01*
X131225768Y-76083642D01*
X131276070Y-76288146D01*
X131302355Y-76495632D01*
X131305705Y-76713776D01*
X131302325Y-76789925D01*
X131292190Y-76912661D01*
X131275363Y-77023963D01*
X131250013Y-77134694D01*
X131214307Y-77255719D01*
X131199908Y-77297282D01*
X131163109Y-77388407D01*
X131117657Y-77487830D01*
X131067905Y-77586689D01*
X131018203Y-77676124D01*
X130972904Y-77747273D01*
X130954270Y-77771753D01*
X130916927Y-77816273D01*
X130869497Y-77869682D01*
X130815614Y-77928209D01*
X130758910Y-77988082D01*
X130703022Y-78045527D01*
X130651581Y-78096774D01*
X130608222Y-78138049D01*
X130576580Y-78165580D01*
X130560288Y-78175595D01*
X130547879Y-78179340D01*
X130524989Y-78197871D01*
X130498099Y-78223579D01*
X130443038Y-78263103D01*
X130369662Y-78307281D01*
X130282866Y-78353536D01*
X130187544Y-78399291D01*
X130088594Y-78441968D01*
X129990910Y-78478992D01*
X129987466Y-78480193D01*
X129918289Y-78502875D01*
X129851918Y-78521149D01*
X129780548Y-78536730D01*
X129696372Y-78551330D01*
X129591584Y-78566665D01*
X129588958Y-78567006D01*
X129543972Y-78569779D01*
X129478126Y-78570430D01*
X129398391Y-78569231D01*
X129311739Y-78566454D01*
X129225141Y-78562370D01*
X129145567Y-78557250D01*
X129079989Y-78551367D01*
X129035379Y-78544992D01*
X128951112Y-78525639D01*
X128739873Y-78459301D01*
X128535844Y-78370209D01*
X128344809Y-78261114D01*
X128172550Y-78134764D01*
X128170250Y-78132840D01*
X128131034Y-78098143D01*
X128083644Y-78053615D01*
X128032211Y-78003458D01*
X127980862Y-77951877D01*
X127933725Y-77903075D01*
X127894931Y-77861256D01*
X127868606Y-77830625D01*
X127858881Y-77815384D01*
X127856668Y-77809576D01*
X127841919Y-77783734D01*
X127816382Y-77743332D01*
X127783649Y-77694160D01*
X127754245Y-77649403D01*
X127649968Y-77459017D01*
X127569207Y-77255300D01*
X127512665Y-77041471D01*
X127481043Y-76820748D01*
X127475041Y-76596350D01*
X127495363Y-76371497D01*
X127497402Y-76358324D01*
X127512569Y-76274743D01*
X127531172Y-76190286D01*
X127551355Y-76112232D01*
X127571259Y-76047861D01*
X127589027Y-76004453D01*
X127595873Y-75989088D01*
X127602084Y-75963766D01*
X127603555Y-75957038D01*
X127615413Y-75927146D01*
X127636715Y-75880864D01*
X127664514Y-75824030D01*
X127695861Y-75762485D01*
X127727810Y-75702067D01*
X127757411Y-75648616D01*
X127781717Y-75607970D01*
X127812255Y-75561989D01*
X127945993Y-75391460D01*
X128101772Y-75234865D01*
X128275915Y-75095243D01*
X128464742Y-74975629D01*
X128664577Y-74879060D01*
X128701701Y-74864232D01*
X128920884Y-74794331D01*
X129145274Y-74751615D01*
X129372283Y-74735983D01*
X129599323Y-74747332D01*
G37*
G36*
X129779724Y-80686136D02*
G01*
X129898574Y-80686817D01*
X129994852Y-80688503D01*
X130071576Y-80691699D01*
X130131766Y-80696907D01*
X130178439Y-80704631D01*
X130214612Y-80715376D01*
X130243304Y-80729646D01*
X130267534Y-80747943D01*
X130290318Y-80770772D01*
X130314676Y-80798637D01*
X130320220Y-80805273D01*
X130367418Y-80883237D01*
X130387572Y-80965501D01*
X130380919Y-81048444D01*
X130347697Y-81128443D01*
X130288145Y-81201874D01*
X130275957Y-81213193D01*
X130247638Y-81236408D01*
X130217817Y-81254304D01*
X130182635Y-81267544D01*
X130138233Y-81276788D01*
X130080752Y-81282699D01*
X130006334Y-81285937D01*
X129911118Y-81287163D01*
X129791247Y-81287040D01*
X129734799Y-81286989D01*
X129636582Y-81287803D01*
X129546603Y-81289648D01*
X129469932Y-81292369D01*
X129411640Y-81295808D01*
X129376797Y-81299809D01*
X129344620Y-81307959D01*
X129273810Y-81341439D01*
X129220558Y-81389659D01*
X129186859Y-81448186D01*
X129174710Y-81512585D01*
X129186107Y-81578424D01*
X129223047Y-81641269D01*
X129238178Y-81659019D01*
X129256908Y-81678647D01*
X129277023Y-81694390D01*
X129301537Y-81706696D01*
X129333466Y-81716011D01*
X129375825Y-81722782D01*
X129431631Y-81727456D01*
X129503898Y-81730480D01*
X129595641Y-81732300D01*
X129709877Y-81733364D01*
X129849620Y-81734118D01*
X129950552Y-81734817D01*
X130060345Y-81736077D01*
X130158445Y-81737739D01*
X130241488Y-81739720D01*
X130306106Y-81741938D01*
X130348934Y-81744310D01*
X130366605Y-81746755D01*
X130374597Y-81753436D01*
X130382029Y-81779967D01*
X130365991Y-81809464D01*
X130365766Y-81809677D01*
X130352048Y-81814548D01*
X130321558Y-81818485D01*
X130272338Y-81821555D01*
X130202431Y-81823821D01*
X130109878Y-81825347D01*
X129992723Y-81826199D01*
X129849007Y-81826439D01*
X129829571Y-81826433D01*
X129700527Y-81826338D01*
X129596389Y-81826018D01*
X129513968Y-81825284D01*
X129450075Y-81823949D01*
X129401522Y-81821825D01*
X129365119Y-81818726D01*
X129337679Y-81814464D01*
X129316012Y-81808851D01*
X129296930Y-81801700D01*
X129277245Y-81792822D01*
X129224401Y-81762921D01*
X129157758Y-81703342D01*
X129112971Y-81633056D01*
X129089902Y-81556367D01*
X129088410Y-81477580D01*
X129108359Y-81401001D01*
X129149608Y-81330933D01*
X129212020Y-81271683D01*
X129295455Y-81227554D01*
X129317456Y-81219919D01*
X129344073Y-81212871D01*
X129375448Y-81207601D01*
X129415543Y-81203855D01*
X129468317Y-81201381D01*
X129537732Y-81199926D01*
X129627747Y-81199238D01*
X129742324Y-81199065D01*
X129773142Y-81199046D01*
X129889477Y-81198477D01*
X129980995Y-81197017D01*
X130050698Y-81194523D01*
X130101589Y-81190855D01*
X130136670Y-81185871D01*
X130158943Y-81179429D01*
X130189495Y-81163880D01*
X130246085Y-81116365D01*
X130281634Y-81057422D01*
X130295526Y-80992382D01*
X130287147Y-80926578D01*
X130255881Y-80865340D01*
X130201113Y-80814001D01*
X130147788Y-80778347D01*
X129639257Y-80774271D01*
X129573535Y-80773714D01*
X129448420Y-80772388D01*
X129347951Y-80770822D01*
X129269461Y-80768891D01*
X129210285Y-80766466D01*
X129167757Y-80763423D01*
X129139210Y-80759634D01*
X129121978Y-80754973D01*
X129113395Y-80749314D01*
X129103341Y-80730138D01*
X129113819Y-80707038D01*
X129118673Y-80703001D01*
X129131677Y-80698034D01*
X129154121Y-80694095D01*
X129188731Y-80691077D01*
X129238233Y-80688869D01*
X129305353Y-80687363D01*
X129392817Y-80686448D01*
X129503351Y-80686017D01*
X129639680Y-80685959D01*
X129779724Y-80686136D01*
G37*
G36*
X134683642Y-80034970D02*
G01*
X134703884Y-80057196D01*
X134705503Y-80063862D01*
X134708448Y-80096986D01*
X134711036Y-80153995D01*
X134713267Y-80231806D01*
X134715141Y-80327336D01*
X134716657Y-80437504D01*
X134717817Y-80559225D01*
X134718620Y-80689417D01*
X134719065Y-80824999D01*
X134719154Y-80962886D01*
X134718885Y-81099996D01*
X134718260Y-81233247D01*
X134717277Y-81359556D01*
X134715938Y-81475840D01*
X134714241Y-81579016D01*
X134712187Y-81666002D01*
X134709776Y-81733716D01*
X134707009Y-81779073D01*
X134703884Y-81798992D01*
X134691203Y-81815284D01*
X134668732Y-81826578D01*
X134658434Y-81825211D01*
X134646778Y-81817555D01*
X134637618Y-81800702D01*
X134630664Y-81771891D01*
X134625624Y-81728362D01*
X134622210Y-81667354D01*
X134620131Y-81586108D01*
X134619096Y-81481863D01*
X134618816Y-81351859D01*
X134618814Y-81321438D01*
X134618714Y-81207155D01*
X134618288Y-81117213D01*
X134617299Y-81048220D01*
X134615513Y-80996783D01*
X134612694Y-80959510D01*
X134608607Y-80933007D01*
X134603017Y-80913881D01*
X134595689Y-80898741D01*
X134586388Y-80884192D01*
X134583873Y-80880566D01*
X134547375Y-80838719D01*
X134505839Y-80803644D01*
X134495762Y-80797048D01*
X134480334Y-80788705D01*
X134461899Y-80782384D01*
X134436811Y-80777804D01*
X134401425Y-80774685D01*
X134352097Y-80772747D01*
X134285181Y-80771709D01*
X134197031Y-80771293D01*
X134084004Y-80771216D01*
X134010789Y-80771240D01*
X133913589Y-80771500D01*
X133839020Y-80772276D01*
X133783444Y-80773846D01*
X133743223Y-80776487D01*
X133714720Y-80780476D01*
X133694297Y-80786090D01*
X133678316Y-80793607D01*
X133663140Y-80803305D01*
X133659316Y-80805969D01*
X133619060Y-80839691D01*
X133586157Y-80875622D01*
X133585114Y-80877038D01*
X133576897Y-80889731D01*
X133570319Y-80904994D01*
X133565129Y-80926070D01*
X133561079Y-80956203D01*
X133557919Y-80998638D01*
X133555400Y-81056618D01*
X133553272Y-81133387D01*
X133551286Y-81232189D01*
X133549192Y-81356269D01*
X133547645Y-81441437D01*
X133544500Y-81568886D01*
X133540795Y-81670298D01*
X133536559Y-81745051D01*
X133531823Y-81792525D01*
X133526619Y-81812100D01*
X133515508Y-81818639D01*
X133487399Y-81818389D01*
X133483053Y-81815947D01*
X133477207Y-81807918D01*
X133472653Y-81792233D01*
X133469235Y-81765912D01*
X133466792Y-81725973D01*
X133465168Y-81669435D01*
X133464204Y-81593318D01*
X133463741Y-81494640D01*
X133463622Y-81370421D01*
X133463706Y-81265625D01*
X133464300Y-81153998D01*
X133465863Y-81064886D01*
X133468849Y-80994915D01*
X133473713Y-80940708D01*
X133480910Y-80898890D01*
X133490896Y-80866085D01*
X133504126Y-80838917D01*
X133521054Y-80814010D01*
X133542135Y-80787990D01*
X133547633Y-80781735D01*
X133587758Y-80743981D01*
X133631799Y-80711395D01*
X133639253Y-80706844D01*
X133656340Y-80697758D01*
X133675684Y-80690767D01*
X133701038Y-80685531D01*
X133736154Y-80681715D01*
X133784783Y-80678982D01*
X133850678Y-80676994D01*
X133937592Y-80675416D01*
X134049275Y-80673909D01*
X134056551Y-80673817D01*
X134167908Y-80672576D01*
X134255120Y-80672136D01*
X134322320Y-80672728D01*
X134373641Y-80674584D01*
X134413217Y-80677934D01*
X134445181Y-80683009D01*
X134473665Y-80690042D01*
X134502805Y-80699262D01*
X134547842Y-80712786D01*
X134585721Y-80720885D01*
X134605277Y-80720853D01*
X134606285Y-80719503D01*
X134610411Y-80697061D01*
X134613871Y-80650314D01*
X134616522Y-80582702D01*
X134618218Y-80497662D01*
X134618816Y-80398634D01*
X134618869Y-80356412D01*
X134619747Y-80251541D01*
X134622025Y-80171111D01*
X134626111Y-80112096D01*
X134632415Y-80071466D01*
X134641347Y-80046194D01*
X134653316Y-80033251D01*
X134668732Y-80029610D01*
X134683642Y-80034970D01*
G37*
G36*
X127771353Y-80043924D02*
G01*
X127825560Y-80052361D01*
X127868694Y-80078284D01*
X127908709Y-80112696D01*
X127912695Y-80991030D01*
X127916680Y-81869363D01*
X127795193Y-81869363D01*
X127673705Y-81869363D01*
X127669983Y-81273939D01*
X127669246Y-81159893D01*
X127668297Y-81034107D01*
X127667242Y-80932356D01*
X127665952Y-80852098D01*
X127664294Y-80790790D01*
X127662137Y-80745890D01*
X127659351Y-80714855D01*
X127655805Y-80695142D01*
X127651367Y-80684210D01*
X127645906Y-80679515D01*
X127639292Y-80678515D01*
X127623449Y-80681669D01*
X127600160Y-80699908D01*
X127593306Y-80712919D01*
X127574279Y-80751001D01*
X127546446Y-80807801D01*
X127511828Y-80879101D01*
X127472447Y-80960684D01*
X127430324Y-81048333D01*
X127387481Y-81137832D01*
X127345938Y-81224963D01*
X127307718Y-81305509D01*
X127274841Y-81375253D01*
X127249328Y-81429978D01*
X127233202Y-81465468D01*
X127214728Y-81506130D01*
X127177876Y-81581547D01*
X127138829Y-81655672D01*
X127101027Y-81722309D01*
X127067909Y-81775263D01*
X127042912Y-81808337D01*
X126992613Y-81845563D01*
X126927458Y-81863188D01*
X126859190Y-81854676D01*
X126851829Y-81852070D01*
X126808822Y-81830999D01*
X126776737Y-81806632D01*
X126767122Y-81792998D01*
X126746241Y-81757903D01*
X126718574Y-81708330D01*
X126687070Y-81649908D01*
X126654679Y-81588268D01*
X126624351Y-81529038D01*
X126599036Y-81477848D01*
X126581684Y-81440328D01*
X126575245Y-81422106D01*
X126573203Y-81416746D01*
X126560790Y-81389340D01*
X126538621Y-81342105D01*
X126508439Y-81278715D01*
X126471989Y-81202847D01*
X126431014Y-81118175D01*
X126412020Y-81079012D01*
X126369185Y-80990388D01*
X126329528Y-80907933D01*
X126295378Y-80836515D01*
X126269066Y-80781001D01*
X126252923Y-80746258D01*
X126235200Y-80710740D01*
X126212594Y-80680551D01*
X126190360Y-80671384D01*
X126189833Y-80671385D01*
X126182914Y-80672133D01*
X126177232Y-80676001D01*
X126172664Y-80685529D01*
X126169090Y-80703258D01*
X126166388Y-80731729D01*
X126164435Y-80773481D01*
X126163110Y-80831054D01*
X126162292Y-80906990D01*
X126161858Y-81003829D01*
X126161687Y-81124110D01*
X126161657Y-81270374D01*
X126161657Y-81869363D01*
X126041079Y-81869363D01*
X125920501Y-81869363D01*
X125911934Y-81823013D01*
X125910830Y-81809572D01*
X125909489Y-81768230D01*
X125908394Y-81703043D01*
X125907557Y-81616735D01*
X125906992Y-81512031D01*
X125906713Y-81391655D01*
X125906733Y-81258333D01*
X125907065Y-81114789D01*
X125907722Y-80963748D01*
X125908447Y-80834129D01*
X125909452Y-80679208D01*
X125910537Y-80548873D01*
X125911777Y-80440844D01*
X125913251Y-80352843D01*
X125915034Y-80282591D01*
X125917202Y-80227809D01*
X125919833Y-80186220D01*
X125923002Y-80155544D01*
X125926787Y-80133503D01*
X125931264Y-80117819D01*
X125936508Y-80106212D01*
X125950347Y-80083640D01*
X125975985Y-80058738D01*
X126012071Y-80046886D01*
X126067454Y-80043872D01*
X126098510Y-80046240D01*
X126127988Y-80056031D01*
X126155845Y-80076375D01*
X126184688Y-80110388D01*
X126217128Y-80161187D01*
X126255771Y-80231889D01*
X126303227Y-80325612D01*
X126325059Y-80369736D01*
X126356428Y-80433627D01*
X126381487Y-80485284D01*
X126398093Y-80520279D01*
X126404105Y-80534182D01*
X126409280Y-80546606D01*
X126424946Y-80580896D01*
X126449184Y-80632832D01*
X126480049Y-80698251D01*
X126515599Y-80772992D01*
X126542233Y-80828899D01*
X126583709Y-80916378D01*
X126623271Y-81000263D01*
X126657444Y-81073181D01*
X126682753Y-81127757D01*
X126715636Y-81198461D01*
X126765189Y-81301185D01*
X126808924Y-81386974D01*
X126845574Y-81453471D01*
X126873877Y-81498317D01*
X126892566Y-81519153D01*
X126893785Y-81519873D01*
X126913306Y-81528131D01*
X126931518Y-81526682D01*
X126950510Y-81512774D01*
X126972372Y-81483654D01*
X126999194Y-81436570D01*
X127033067Y-81368771D01*
X127076079Y-81277504D01*
X127125870Y-81170481D01*
X127217639Y-80974022D01*
X127305003Y-80788030D01*
X127386490Y-80615609D01*
X127460633Y-80459864D01*
X127525960Y-80323899D01*
X127581004Y-80210818D01*
X127590849Y-80191238D01*
X127631841Y-80121778D01*
X127672153Y-80076280D01*
X127715455Y-80051420D01*
X127765421Y-80043872D01*
X127771353Y-80043924D01*
G37*
G36*
X128913152Y-72481468D02*
G01*
X128940050Y-72531673D01*
X128986148Y-72617367D01*
X129030904Y-72700189D01*
X129070298Y-72772703D01*
X129100307Y-72827476D01*
X129110656Y-72846271D01*
X129151876Y-72921815D01*
X129196081Y-73003637D01*
X129235328Y-73077055D01*
X129276302Y-73154367D01*
X129334745Y-73264626D01*
X129382225Y-73353482D01*
X129420387Y-73423232D01*
X129450874Y-73476175D01*
X129475330Y-73514606D01*
X129495400Y-73540822D01*
X129512728Y-73557121D01*
X129528958Y-73565800D01*
X129545733Y-73569155D01*
X129564698Y-73569483D01*
X129587497Y-73569082D01*
X129625900Y-73570095D01*
X129731214Y-73579796D01*
X129853441Y-73598563D01*
X129986060Y-73624899D01*
X130122553Y-73657309D01*
X130256398Y-73694299D01*
X130381076Y-73734374D01*
X130490068Y-73776038D01*
X130548170Y-73800740D01*
X130610360Y-73827482D01*
X130653843Y-73846703D01*
X130683086Y-73860389D01*
X130702554Y-73870526D01*
X130707953Y-73873521D01*
X130739001Y-73890386D01*
X130784974Y-73915088D01*
X130838040Y-73943413D01*
X130861776Y-73956084D01*
X130907664Y-73981140D01*
X130947301Y-74004166D01*
X130986538Y-74028939D01*
X131031227Y-74059240D01*
X131087219Y-74098845D01*
X131160365Y-74151532D01*
X131185864Y-74170735D01*
X131254892Y-74227673D01*
X131334803Y-74298749D01*
X131420232Y-74378762D01*
X131505814Y-74462512D01*
X131586186Y-74544798D01*
X131655982Y-74620421D01*
X131709838Y-74684179D01*
X131725639Y-74704455D01*
X131780428Y-74777795D01*
X131838178Y-74860220D01*
X131904445Y-74959593D01*
X131918848Y-74982651D01*
X131954777Y-75045729D01*
X131996416Y-75124193D01*
X132040121Y-75210745D01*
X132082249Y-75298083D01*
X132119156Y-75378909D01*
X132147198Y-75445924D01*
X132165399Y-75492854D01*
X132186394Y-75547471D01*
X132200507Y-75585357D01*
X132209866Y-75612491D01*
X132216598Y-75634851D01*
X132222830Y-75658414D01*
X132223380Y-75660562D01*
X132232930Y-75697364D01*
X132246744Y-75750119D01*
X132262031Y-75808161D01*
X132277135Y-75870226D01*
X132293543Y-75947298D01*
X132305732Y-76014955D01*
X132313616Y-76065653D01*
X132325529Y-76141667D01*
X132336196Y-76209132D01*
X132340376Y-76242347D01*
X132345825Y-76316695D01*
X132349263Y-76407566D01*
X132350689Y-76507470D01*
X132350102Y-76608917D01*
X132347501Y-76704417D01*
X132342886Y-76786481D01*
X132336256Y-76847618D01*
X132321061Y-76940491D01*
X132289256Y-77114561D01*
X132255987Y-77267315D01*
X132219900Y-77403614D01*
X132179639Y-77528319D01*
X132133847Y-77646290D01*
X132081171Y-77762390D01*
X132077247Y-77770539D01*
X132049605Y-77834246D01*
X132038406Y-77880827D01*
X132044537Y-77916458D01*
X132068883Y-77947318D01*
X132112331Y-77979584D01*
X132133187Y-77993312D01*
X132178823Y-78023389D01*
X132242326Y-78065265D01*
X132320341Y-78116728D01*
X132409515Y-78175565D01*
X132506494Y-78239563D01*
X132607923Y-78306511D01*
X132689873Y-78360549D01*
X132785707Y-78423593D01*
X132873431Y-78481141D01*
X132949909Y-78531146D01*
X133012007Y-78571557D01*
X133056589Y-78600325D01*
X133080520Y-78615401D01*
X133103538Y-78629453D01*
X133135429Y-78652546D01*
X133151253Y-78675531D01*
X133152120Y-78704947D01*
X133139141Y-78747332D01*
X133113424Y-78809225D01*
X133100351Y-78838541D01*
X133076640Y-78886274D01*
X133056944Y-78919193D01*
X133044549Y-78931463D01*
X133041831Y-78931106D01*
X133016597Y-78924222D01*
X132971435Y-78909908D01*
X132911767Y-78889925D01*
X132843013Y-78866033D01*
X132764762Y-78838513D01*
X132673655Y-78806709D01*
X132586686Y-78776566D01*
X132515222Y-78752035D01*
X132471862Y-78737094D01*
X132414157Y-78716643D01*
X132369176Y-78700025D01*
X132344082Y-78689844D01*
X132333487Y-78685287D01*
X132295399Y-78670742D01*
X132239879Y-78650682D01*
X132173251Y-78627273D01*
X132101838Y-78602684D01*
X132031967Y-78579081D01*
X131969960Y-78558633D01*
X131922143Y-78543507D01*
X131894840Y-78535871D01*
X131869160Y-78528587D01*
X131844812Y-78517081D01*
X131838360Y-78513114D01*
X131808772Y-78499675D01*
X131768124Y-78484383D01*
X131746902Y-78477716D01*
X131709301Y-78471545D01*
X131674104Y-78477025D01*
X131635867Y-78496478D01*
X131589147Y-78532227D01*
X131528501Y-78586592D01*
X131499801Y-78613173D01*
X131387572Y-78715389D01*
X131287566Y-78802612D01*
X131194972Y-78878108D01*
X131104981Y-78945143D01*
X131012782Y-79006987D01*
X130913567Y-79066905D01*
X130802525Y-79128166D01*
X130674847Y-79194036D01*
X130525722Y-79267783D01*
X130492129Y-79281857D01*
X130435962Y-79302322D01*
X130365895Y-79326098D01*
X130288961Y-79350919D01*
X130212192Y-79374521D01*
X130142620Y-79394638D01*
X130087277Y-79409005D01*
X130036712Y-79421036D01*
X129980685Y-79434772D01*
X129939340Y-79445350D01*
X129937650Y-79445795D01*
X129885507Y-79455671D01*
X129832377Y-79460566D01*
X129827105Y-79460747D01*
X129779993Y-79465442D01*
X129741331Y-79473763D01*
X129738925Y-79474390D01*
X129710155Y-79477327D01*
X129658650Y-79479434D01*
X129589297Y-79480751D01*
X129506982Y-79481316D01*
X129416593Y-79481170D01*
X129323015Y-79480352D01*
X129231136Y-79478903D01*
X129145841Y-79476860D01*
X129072018Y-79474265D01*
X129014553Y-79471157D01*
X128978333Y-79467575D01*
X128816949Y-79437991D01*
X128527942Y-79363750D01*
X128251696Y-79264123D01*
X127987628Y-79138885D01*
X127735151Y-78987809D01*
X127670933Y-78944683D01*
X127608869Y-78901303D01*
X127554279Y-78860315D01*
X127501659Y-78817183D01*
X127445507Y-78767370D01*
X127380317Y-78706337D01*
X127300587Y-78629549D01*
X127272031Y-78602038D01*
X127218756Y-78551770D01*
X127173577Y-78510512D01*
X127140562Y-78481938D01*
X127123779Y-78469726D01*
X127118515Y-78469029D01*
X127086106Y-78474145D01*
X127028211Y-78489471D01*
X126945581Y-78514765D01*
X126838966Y-78549781D01*
X126709117Y-78594277D01*
X126556782Y-78648008D01*
X126382712Y-78710730D01*
X126348346Y-78723144D01*
X126272259Y-78750202D01*
X126198892Y-78775810D01*
X126140264Y-78795753D01*
X126136538Y-78796992D01*
X126084449Y-78814549D01*
X126041514Y-78829407D01*
X126016705Y-78838466D01*
X126007233Y-78840261D01*
X125984503Y-78828855D01*
X125956093Y-78793720D01*
X125945740Y-78777764D01*
X125926741Y-78743456D01*
X125919209Y-78721599D01*
X125924518Y-78711870D01*
X125949106Y-78690922D01*
X125986952Y-78667730D01*
X126010275Y-78655216D01*
X126059035Y-78628494D01*
X126097479Y-78606746D01*
X126108663Y-78600218D01*
X126176064Y-78560707D01*
X126250290Y-78516976D01*
X126325052Y-78472751D01*
X126394062Y-78431758D01*
X126451033Y-78397722D01*
X126489675Y-78374370D01*
X126509843Y-78362129D01*
X126560594Y-78332009D01*
X126603768Y-78307194D01*
X126642865Y-78285210D01*
X126721906Y-78239734D01*
X126788232Y-78200135D01*
X126837690Y-78168924D01*
X126866127Y-78148611D01*
X126874781Y-78141557D01*
X126891467Y-78133742D01*
X126900244Y-78146026D01*
X126906946Y-78158186D01*
X126929255Y-78188325D01*
X126960122Y-78224465D01*
X126979677Y-78246231D01*
X127014528Y-78286098D01*
X127040099Y-78316676D01*
X127067335Y-78347183D01*
X127102650Y-78380854D01*
X127112570Y-78389480D01*
X127145965Y-78419475D01*
X127190103Y-78459879D01*
X127238136Y-78504445D01*
X127260967Y-78525541D01*
X127307897Y-78567533D01*
X127347803Y-78601518D01*
X127373897Y-78621636D01*
X127386059Y-78629811D01*
X127425253Y-78656759D01*
X127467890Y-78686653D01*
X127492137Y-78703441D01*
X127601834Y-78772304D01*
X127726925Y-78841818D01*
X127858079Y-78907262D01*
X127985961Y-78963917D01*
X128101241Y-79007059D01*
X128131255Y-79016818D01*
X128267014Y-79057480D01*
X128392882Y-79088171D01*
X128516476Y-79110034D01*
X128645416Y-79124207D01*
X128787321Y-79131831D01*
X128949810Y-79134046D01*
X128981920Y-79133954D01*
X129134471Y-79130903D01*
X129267581Y-79122757D01*
X129388653Y-79108445D01*
X129505092Y-79086894D01*
X129624303Y-79057036D01*
X129753690Y-79017799D01*
X129957534Y-78943148D01*
X130149041Y-78854034D01*
X130333324Y-78747405D01*
X130515849Y-78620100D01*
X130702085Y-78468952D01*
X130736185Y-78437456D01*
X130785300Y-78387629D01*
X130839219Y-78329322D01*
X130894443Y-78266697D01*
X130947472Y-78203911D01*
X130994808Y-78145125D01*
X131032951Y-78094498D01*
X131058403Y-78056189D01*
X131067665Y-78034358D01*
X131067819Y-78032245D01*
X131080459Y-78016340D01*
X131088480Y-78010343D01*
X131111466Y-77981503D01*
X131143123Y-77933115D01*
X131181259Y-77869279D01*
X131223680Y-77794092D01*
X131268194Y-77711654D01*
X131312608Y-77626063D01*
X131354730Y-77541420D01*
X131392366Y-77461822D01*
X131423323Y-77391368D01*
X131445409Y-77334158D01*
X131458251Y-77295135D01*
X131486623Y-77199507D01*
X131515361Y-77092028D01*
X131542048Y-76982400D01*
X131564266Y-76880328D01*
X131579597Y-76795516D01*
X131584578Y-76754601D01*
X131590692Y-76668213D01*
X131594165Y-76565111D01*
X131595053Y-76452585D01*
X131593412Y-76337925D01*
X131589299Y-76228418D01*
X131582769Y-76131354D01*
X131573879Y-76054021D01*
X131567820Y-76016542D01*
X131508357Y-75748507D01*
X131422343Y-75490687D01*
X131310152Y-75243926D01*
X131172160Y-75009064D01*
X131008743Y-74786944D01*
X130999754Y-74776113D01*
X130953410Y-74723794D01*
X130897440Y-74664857D01*
X130835502Y-74602711D01*
X130771258Y-74540767D01*
X130708368Y-74482437D01*
X130650493Y-74431132D01*
X130601293Y-74390262D01*
X130564429Y-74363239D01*
X130543561Y-74353473D01*
X130534201Y-74350833D01*
X130512951Y-74333877D01*
X130497978Y-74319277D01*
X130454048Y-74287022D01*
X130391216Y-74247863D01*
X130314225Y-74204268D01*
X130227815Y-74158702D01*
X130136728Y-74113632D01*
X130045705Y-74071525D01*
X129959487Y-74034847D01*
X129882815Y-74006065D01*
X129866462Y-74000510D01*
X129746229Y-73961958D01*
X129636673Y-73931976D01*
X129531282Y-73909585D01*
X129423543Y-73893802D01*
X129306944Y-73883648D01*
X129174973Y-73878142D01*
X129021118Y-73876303D01*
X128904338Y-73876885D01*
X128781314Y-73880343D01*
X128671025Y-73887799D01*
X128567912Y-73900300D01*
X128466418Y-73918894D01*
X128360981Y-73944626D01*
X128246045Y-73978545D01*
X128116048Y-74021697D01*
X127965433Y-74075129D01*
X127884011Y-74106950D01*
X127788163Y-74148967D01*
X127690230Y-74195829D01*
X127595968Y-74244553D01*
X127511131Y-74292157D01*
X127441471Y-74335656D01*
X127392744Y-74372067D01*
X127366897Y-74389309D01*
X127345410Y-74393893D01*
X127346206Y-74388610D01*
X127363548Y-74368221D01*
X127396659Y-74335892D01*
X127441620Y-74295071D01*
X127494511Y-74249204D01*
X127551413Y-74201738D01*
X127608408Y-74156122D01*
X127661576Y-74115801D01*
X127700199Y-74089173D01*
X127760668Y-74050762D01*
X127832097Y-74007795D01*
X127910071Y-73962695D01*
X127990172Y-73917886D01*
X128067987Y-73875791D01*
X128139099Y-73838833D01*
X128199092Y-73809434D01*
X128243551Y-73790017D01*
X128268059Y-73783007D01*
X128268946Y-73782917D01*
X128287988Y-73776536D01*
X128320142Y-73763175D01*
X128335939Y-73756288D01*
X128424081Y-73721342D01*
X128517979Y-73690649D01*
X128628922Y-73660452D01*
X128664040Y-73650937D01*
X128719357Y-73633198D01*
X128760859Y-73616334D01*
X128781527Y-73602989D01*
X128782502Y-73601678D01*
X128787340Y-73594713D01*
X128790776Y-73586620D01*
X128792303Y-73574986D01*
X128791414Y-73557400D01*
X128787601Y-73531450D01*
X128780358Y-73494725D01*
X128769177Y-73444813D01*
X128753552Y-73379303D01*
X128732976Y-73295782D01*
X128706941Y-73191841D01*
X128674940Y-73065066D01*
X128636467Y-72913046D01*
X128606452Y-72794270D01*
X128574180Y-72665815D01*
X128548105Y-72560815D01*
X128527698Y-72476937D01*
X128512431Y-72411851D01*
X128501779Y-72363225D01*
X128495212Y-72328727D01*
X128492204Y-72306026D01*
X128492227Y-72292791D01*
X128494753Y-72286690D01*
X128504024Y-72283015D01*
X128537665Y-72276762D01*
X128588689Y-72270698D01*
X128650315Y-72265737D01*
X128792931Y-72256685D01*
X128913152Y-72481468D01*
G37*
G36*
X129757822Y-83284604D02*
G01*
X130026500Y-83370779D01*
X130261515Y-83452332D01*
X130484687Y-83529246D01*
X130619370Y-83575020D01*
X130704043Y-83583460D01*
X130748585Y-83498494D01*
X130757719Y-83451918D01*
X130843378Y-83395301D01*
X131043934Y-83379126D01*
X131339283Y-83379126D01*
X131339283Y-84669514D01*
X131339283Y-85959901D01*
X131062393Y-86102265D01*
X130785504Y-86244629D01*
X130745751Y-85347198D01*
X130729164Y-85027092D01*
X130697636Y-84676497D01*
X130647246Y-84415791D01*
X130567527Y-84211103D01*
X130448015Y-84028565D01*
X130278243Y-83834309D01*
X130268004Y-83823474D01*
X129953654Y-83557318D01*
X129637917Y-83407763D01*
X129341367Y-83380870D01*
X129084581Y-83482701D01*
X128991757Y-83621356D01*
X129014719Y-83801563D01*
X129146142Y-83991528D01*
X129373949Y-84162865D01*
X129658278Y-84322355D01*
X129398856Y-84605433D01*
X129139434Y-84888511D01*
X128836451Y-84585529D01*
X128687138Y-84423116D01*
X128567924Y-84232083D01*
X128533469Y-84046668D01*
X128555167Y-83905252D01*
X128693858Y-83658286D01*
X128937121Y-83447353D01*
X129257327Y-83300914D01*
X129402102Y-83263357D01*
X129568586Y-83250513D01*
X129757822Y-83284604D01*
G37*
G36*
X134981985Y-85904339D02*
G01*
X134709415Y-86118273D01*
X134329690Y-86267547D01*
X134180915Y-86293761D01*
X133799211Y-86290117D01*
X133396668Y-86210535D01*
X133038977Y-86065309D01*
X132926758Y-86007078D01*
X132756722Y-85944489D01*
X132681579Y-85960667D01*
X132616303Y-86032239D01*
X132469698Y-86133305D01*
X132305037Y-86221212D01*
X132184341Y-86258778D01*
X132174712Y-86232049D01*
X132163287Y-86084299D01*
X132157556Y-85829090D01*
X132157936Y-85491308D01*
X132164522Y-85114301D01*
X132705271Y-85114301D01*
X132705363Y-85118178D01*
X132772224Y-85247944D01*
X132939288Y-85407410D01*
X133171284Y-85571511D01*
X133432940Y-85715181D01*
X133688982Y-85813354D01*
X133859599Y-85849099D01*
X134157431Y-85879167D01*
X134464856Y-85882547D01*
X134730235Y-85859388D01*
X134901928Y-85809840D01*
X134912315Y-85803582D01*
X135016802Y-85677376D01*
X134995913Y-85499285D01*
X134848558Y-85258044D01*
X134795551Y-85193810D01*
X134475673Y-84935478D01*
X134072161Y-84767907D01*
X133623383Y-84708311D01*
X133554846Y-84709603D01*
X133229595Y-84751339D01*
X132958943Y-84841827D01*
X132773849Y-84967378D01*
X132705271Y-85114301D01*
X132164522Y-85114301D01*
X132164844Y-85095841D01*
X132173907Y-84792405D01*
X132198306Y-84337104D01*
X132237898Y-83997324D01*
X132298793Y-83752307D01*
X132387101Y-83581298D01*
X132508931Y-83463542D01*
X132670392Y-83378282D01*
X132731134Y-83355907D01*
X133070527Y-83290214D01*
X133489848Y-83280386D01*
X133942044Y-83328273D01*
X134292771Y-83388175D01*
X134292771Y-83088302D01*
X134292771Y-82788429D01*
X133111376Y-82788429D01*
X131929981Y-82788429D01*
X131929981Y-82566917D01*
X131929981Y-82345405D01*
X133665155Y-82345405D01*
X135400329Y-82345405D01*
X135400329Y-82566917D01*
X135396184Y-82676305D01*
X135358675Y-82753833D01*
X135249692Y-82783589D01*
X135031143Y-82788429D01*
X134661957Y-82788429D01*
X134661957Y-83215023D01*
X134662545Y-83269477D01*
X134697068Y-83594661D01*
X134780244Y-83810495D01*
X134858495Y-83947462D01*
X134840810Y-84012085D01*
X134711830Y-83993576D01*
X134465041Y-83893653D01*
X134343932Y-83845510D01*
X133977369Y-83748257D01*
X133569709Y-83692978D01*
X133515002Y-83689167D01*
X133247834Y-83676867D01*
X133076931Y-83690098D01*
X132958762Y-83736848D01*
X132849796Y-83825108D01*
X132732857Y-83976786D01*
X132668353Y-84205613D01*
X132674591Y-84322990D01*
X132726782Y-84385092D01*
X132871405Y-84360842D01*
X133019821Y-84336424D01*
X133277231Y-84317408D01*
X133566106Y-84312661D01*
X133585159Y-84312986D01*
X134122650Y-84386548D01*
X134579810Y-84582708D01*
X134954061Y-84900374D01*
X135071122Y-85062112D01*
X135171403Y-85357506D01*
X135138836Y-85644499D01*
X135118990Y-85677376D01*
X134981985Y-85904339D01*
G37*
G36*
X119894515Y-86033474D02*
G01*
X119676671Y-86146126D01*
X119662398Y-86153462D01*
X119505366Y-86228085D01*
X119418240Y-86258778D01*
X119406132Y-86243585D01*
X119385722Y-86124737D01*
X119377655Y-85926510D01*
X119374906Y-85827295D01*
X119353434Y-85660263D01*
X119317632Y-85594243D01*
X119295706Y-85601602D01*
X119187166Y-85682888D01*
X119040742Y-85825110D01*
X119008868Y-85858118D01*
X118802338Y-86045544D01*
X118602364Y-86194020D01*
X118562150Y-86218627D01*
X118389863Y-86302489D01*
X118230621Y-86319351D01*
X118037869Y-86266215D01*
X117765053Y-86140081D01*
X117590892Y-86038824D01*
X117239407Y-85740391D01*
X116958957Y-85372779D01*
X116871208Y-85172452D01*
X117094326Y-85172452D01*
X117176055Y-85513561D01*
X117381102Y-85812806D01*
X117395090Y-85826274D01*
X117627119Y-85949000D01*
X117909627Y-85955528D01*
X118216507Y-85854178D01*
X118521652Y-85653265D01*
X118798954Y-85361108D01*
X119020578Y-85044020D01*
X119175937Y-84734398D01*
X119217491Y-84478322D01*
X119147688Y-84256918D01*
X118968981Y-84051310D01*
X118893056Y-83990448D01*
X118571948Y-83841836D01*
X118214315Y-83835561D01*
X117823142Y-83971830D01*
X117521621Y-84178737D01*
X117273851Y-84476960D01*
X117129172Y-84817558D01*
X117094326Y-85172452D01*
X116871208Y-85172452D01*
X116787177Y-84980611D01*
X116751844Y-84727991D01*
X116805093Y-84363154D01*
X116963037Y-84024503D01*
X117203699Y-83736319D01*
X117505101Y-83522879D01*
X117845268Y-83408465D01*
X118202220Y-83417354D01*
X118207198Y-83418506D01*
X118377149Y-83488811D01*
X118611316Y-83622232D01*
X118860576Y-83790897D01*
X119303818Y-84117193D01*
X119303818Y-83452811D01*
X119303818Y-82788429D01*
X117937829Y-82788429D01*
X116571841Y-82788429D01*
X116571841Y-82566917D01*
X116571841Y-82345405D01*
X117928600Y-82345405D01*
X119285358Y-82345405D01*
X119331507Y-82114664D01*
X119362854Y-81913053D01*
X119377655Y-81716337D01*
X119391571Y-81560704D01*
X119475200Y-81222228D01*
X119618068Y-80840503D01*
X119801271Y-80463037D01*
X120005908Y-80137340D01*
X120140560Y-79956528D01*
X120272446Y-79801229D01*
X120385791Y-79721251D01*
X120519936Y-79691596D01*
X120714221Y-79687266D01*
X121091209Y-79687266D01*
X120868044Y-79941437D01*
X120732695Y-80109987D01*
X120478330Y-80501804D01*
X120249563Y-80945135D01*
X120064159Y-81399191D01*
X119939888Y-81823184D01*
X119894515Y-82176325D01*
X119894516Y-82177631D01*
X119913890Y-82286396D01*
X119998752Y-82334542D01*
X120189864Y-82345405D01*
X120253284Y-82345755D01*
X120410347Y-82361741D01*
X120473550Y-82424882D01*
X120485213Y-82566917D01*
X120484747Y-82614482D01*
X120463432Y-82732279D01*
X120379244Y-82779681D01*
X120189864Y-82788429D01*
X119894515Y-82788429D01*
X119894515Y-84410951D01*
X119894515Y-84478322D01*
X119894515Y-86033474D01*
G37*
G36*
X105587387Y-85696260D02*
G01*
X105387935Y-85959574D01*
X105053236Y-86189165D01*
X104990641Y-86217385D01*
X104678586Y-86284566D01*
X104303895Y-86283009D01*
X103918955Y-86216301D01*
X103576157Y-86088029D01*
X103440566Y-86017865D01*
X103262503Y-85930242D01*
X103171392Y-85900905D01*
X103138093Y-85923515D01*
X103133469Y-85991736D01*
X103113889Y-86051257D01*
X103004254Y-86131033D01*
X102921773Y-86157000D01*
X102735748Y-86225248D01*
X102700428Y-86237517D01*
X102658831Y-86232960D01*
X102631772Y-86181837D01*
X102617358Y-86063945D01*
X102613697Y-85859079D01*
X102618896Y-85547035D01*
X102630951Y-85111604D01*
X103151267Y-85111604D01*
X103232819Y-85262798D01*
X103418029Y-85431688D01*
X103682603Y-85598367D01*
X104002248Y-85742928D01*
X104198292Y-85802672D01*
X104532633Y-85863160D01*
X104871060Y-85886096D01*
X105165292Y-85869112D01*
X105367044Y-85809840D01*
X105406697Y-85781921D01*
X105483068Y-85636309D01*
X105447546Y-85448278D01*
X105313837Y-85241023D01*
X105095649Y-85037739D01*
X104806689Y-84861623D01*
X104515187Y-84762722D01*
X104174955Y-84717881D01*
X103832895Y-84728299D01*
X103525085Y-84789859D01*
X103287606Y-84898444D01*
X103156536Y-85049936D01*
X103151267Y-85111604D01*
X102630951Y-85111604D01*
X102631062Y-85107607D01*
X102642156Y-84787746D01*
X102668720Y-84333196D01*
X102709551Y-83993916D01*
X102770648Y-83749346D01*
X102858008Y-83578923D01*
X102977629Y-83462089D01*
X103135508Y-83378282D01*
X103196250Y-83355907D01*
X103535643Y-83290214D01*
X103954964Y-83280386D01*
X104407161Y-83328273D01*
X104757887Y-83388175D01*
X104757887Y-83088302D01*
X104757887Y-82788429D01*
X103576492Y-82788429D01*
X102395097Y-82788429D01*
X102395097Y-82566917D01*
X102395097Y-82345405D01*
X105053236Y-82345405D01*
X107711376Y-82345405D01*
X107711376Y-81978881D01*
X107713245Y-81848906D01*
X107739449Y-81672084D01*
X107820975Y-81550754D01*
X107988265Y-81423901D01*
X108265155Y-81235446D01*
X108286720Y-81790425D01*
X108308285Y-82345405D01*
X108674366Y-82345405D01*
X108852040Y-82347779D01*
X108982210Y-82370053D01*
X109032262Y-82435384D01*
X109040446Y-82566917D01*
X109036300Y-82676305D01*
X108998791Y-82753833D01*
X108889809Y-82783589D01*
X108671260Y-82788429D01*
X108302074Y-82788429D01*
X108301959Y-84172876D01*
X108301378Y-84416372D01*
X108293364Y-84930602D01*
X108271910Y-85325239D01*
X108231936Y-85620247D01*
X108168360Y-85835592D01*
X108076102Y-85991236D01*
X107950080Y-86107146D01*
X107785213Y-86203285D01*
X107749116Y-86220634D01*
X107541183Y-86299581D01*
X107379108Y-86330878D01*
X107207219Y-86304609D01*
X106908363Y-86179150D01*
X106616612Y-85977729D01*
X106382898Y-85731016D01*
X106289898Y-85598428D01*
X106220173Y-85456303D01*
X106243692Y-85349504D01*
X106373409Y-85244254D01*
X106622277Y-85106777D01*
X106763031Y-85041201D01*
X106816894Y-85067018D01*
X106825741Y-85204701D01*
X106860386Y-85553815D01*
X106974751Y-85854252D01*
X107160428Y-86044598D01*
X107408575Y-86111103D01*
X107450757Y-86108804D01*
X107536600Y-86078664D01*
X107601601Y-86000407D01*
X107648542Y-85857449D01*
X107680206Y-85633207D01*
X107699378Y-85311097D01*
X107708840Y-84874538D01*
X107711376Y-84306946D01*
X107711376Y-82788429D01*
X106456143Y-82788429D01*
X105200911Y-82788429D01*
X105200911Y-83232454D01*
X105209212Y-83431964D01*
X105241719Y-83669872D01*
X105290412Y-83819793D01*
X105344927Y-83930625D01*
X105321704Y-83999775D01*
X105186835Y-83985447D01*
X104934472Y-83888774D01*
X104756165Y-83824474D01*
X104411829Y-83741553D01*
X104056434Y-83694504D01*
X103807275Y-83681628D01*
X103606587Y-83690660D01*
X103465414Y-83733941D01*
X103336521Y-83819687D01*
X103196389Y-83970669D01*
X103133469Y-84200041D01*
X103133878Y-84257101D01*
X103152664Y-84365685D01*
X103230713Y-84392062D01*
X103410358Y-84360815D01*
X103557098Y-84333952D01*
X104102739Y-84308543D01*
X104611908Y-84399027D01*
X105059191Y-84598579D01*
X105419177Y-84900374D01*
X105567490Y-85114443D01*
X105648326Y-85410718D01*
X105600181Y-85636309D01*
X105587387Y-85696260D01*
G37*
G36*
X112387807Y-85605750D02*
G01*
X112240686Y-85869729D01*
X111978187Y-86091155D01*
X111615916Y-86251068D01*
X111480496Y-86281693D01*
X111090920Y-86294292D01*
X110670630Y-86223168D01*
X110278529Y-86076032D01*
X110062520Y-85976551D01*
X109936935Y-85950919D01*
X109872424Y-85993783D01*
X109858249Y-86013668D01*
X109737299Y-86118971D01*
X109577162Y-86216108D01*
X109451404Y-86258778D01*
X109443858Y-86240503D01*
X109430323Y-86106046D01*
X109419468Y-85862287D01*
X109412251Y-85534723D01*
X109409632Y-85148848D01*
X109409685Y-85091628D01*
X109410030Y-85068835D01*
X109868336Y-85068835D01*
X109915941Y-85192745D01*
X110068133Y-85351821D01*
X110298408Y-85522716D01*
X110580261Y-85682083D01*
X110672001Y-85721283D01*
X110960925Y-85803802D01*
X111292779Y-85858345D01*
X111621594Y-85880888D01*
X111901401Y-85867409D01*
X112086231Y-85813885D01*
X112164079Y-85731085D01*
X112215446Y-85562247D01*
X112191747Y-85464786D01*
X112065978Y-85275119D01*
X111863077Y-85076441D01*
X111618499Y-84901361D01*
X111367694Y-84782488D01*
X111130627Y-84732655D01*
X110814370Y-84722146D01*
X110492087Y-84756363D01*
X110201966Y-84828295D01*
X109982197Y-84930931D01*
X109870968Y-85057260D01*
X109868336Y-85068835D01*
X109410030Y-85068835D01*
X109417475Y-84576554D01*
X109441956Y-84184816D01*
X109488119Y-83894615D01*
X109560958Y-83684149D01*
X109665463Y-83531619D01*
X109806628Y-83415223D01*
X110003546Y-83335901D01*
X110329007Y-83287160D01*
X110727700Y-83284663D01*
X111163265Y-83330677D01*
X111550911Y-83392984D01*
X111550911Y-83090706D01*
X111550911Y-82788429D01*
X110332597Y-82788429D01*
X109114283Y-82788429D01*
X109114283Y-82566917D01*
X109114283Y-82345405D01*
X112326201Y-82345405D01*
X115538120Y-82345405D01*
X115538120Y-82063458D01*
X115544893Y-81913744D01*
X115634364Y-81438993D01*
X115810627Y-80944843D01*
X116051855Y-80484666D01*
X116336224Y-80111830D01*
X116368971Y-80078064D01*
X116545232Y-79922767D01*
X116709345Y-79851840D01*
X116925936Y-79834940D01*
X117250061Y-79834940D01*
X116920125Y-80201908D01*
X116722055Y-80445826D01*
X116405914Y-80976971D01*
X116203936Y-81541828D01*
X116130623Y-82105434D01*
X116136283Y-82231551D01*
X116185458Y-82324323D01*
X116313411Y-82345405D01*
X116393683Y-82350695D01*
X116478136Y-82408609D01*
X116498004Y-82566917D01*
X116493595Y-82663244D01*
X116445334Y-82764588D01*
X116313411Y-82788429D01*
X116128818Y-82788429D01*
X116128818Y-84374428D01*
X116128818Y-85960427D01*
X115839781Y-86107883D01*
X115550743Y-86255339D01*
X115525972Y-85420655D01*
X115523022Y-85324685D01*
X115508395Y-84981193D01*
X115485766Y-84741002D01*
X115447900Y-84567941D01*
X115387563Y-84425840D01*
X115297519Y-84278528D01*
X115277156Y-84248463D01*
X114956348Y-83897607D01*
X114566764Y-83656424D01*
X114138155Y-83543769D01*
X114064490Y-83537260D01*
X113860600Y-83536344D01*
X113724167Y-83586168D01*
X113593958Y-83704858D01*
X113434043Y-83946550D01*
X113349601Y-84299161D01*
X113385901Y-84695931D01*
X113540681Y-85117743D01*
X113811680Y-85545482D01*
X113893492Y-85651848D01*
X114026326Y-85835447D01*
X114082602Y-85947489D01*
X114073715Y-86018457D01*
X114011060Y-86078830D01*
X113968870Y-86110011D01*
X113758705Y-86220072D01*
X113579944Y-86206120D01*
X113389724Y-86067366D01*
X113112039Y-85714411D01*
X112942955Y-85306861D01*
X112881718Y-84874532D01*
X112922867Y-84442747D01*
X113060942Y-84036831D01*
X113290481Y-83682107D01*
X113606025Y-83403898D01*
X114002111Y-83227528D01*
X114084142Y-83208114D01*
X114440272Y-83195152D01*
X114786593Y-83310829D01*
X115147092Y-83562153D01*
X115270055Y-83664379D01*
X115418609Y-83777974D01*
X115494480Y-83822150D01*
X115496213Y-83821744D01*
X115517392Y-83744659D01*
X115532412Y-83560056D01*
X115538120Y-83305289D01*
X115538120Y-82788429D01*
X113729108Y-82788429D01*
X111920097Y-82788429D01*
X111920097Y-83232454D01*
X111928398Y-83431964D01*
X111960905Y-83669872D01*
X112009598Y-83819793D01*
X112026703Y-83848112D01*
X112069353Y-83958872D01*
X112017797Y-83996797D01*
X111860013Y-83962980D01*
X111583981Y-83858516D01*
X111381568Y-83784798D01*
X110967096Y-83689003D01*
X110582890Y-83668852D01*
X110261105Y-83724402D01*
X110033892Y-83855712D01*
X110027441Y-83862282D01*
X109903776Y-84043536D01*
X109852655Y-84225771D01*
X109853990Y-84290111D01*
X109880142Y-84370500D01*
X109970960Y-84387608D01*
X110166463Y-84358342D01*
X110503765Y-84317392D01*
X111001099Y-84324275D01*
X111433942Y-84410781D01*
X111589080Y-84477879D01*
X111855811Y-84649731D01*
X112105992Y-84867796D01*
X112300436Y-85096061D01*
X112399955Y-85298515D01*
X112403945Y-85318179D01*
X112390248Y-85562247D01*
X112387807Y-85605750D01*
G37*
G36*
X123700451Y-85893074D02*
G01*
X123446382Y-86098192D01*
X123085863Y-86236100D01*
X122623937Y-86287523D01*
X122589633Y-86287536D01*
X122279590Y-86270301D01*
X122033409Y-86208771D01*
X121776248Y-86085071D01*
X121628581Y-86009044D01*
X121458904Y-85947147D01*
X121384486Y-85960667D01*
X121319210Y-86032239D01*
X121172605Y-86133305D01*
X121007944Y-86221212D01*
X120887248Y-86258778D01*
X120877619Y-86232049D01*
X120866194Y-86084299D01*
X120860463Y-85829090D01*
X120860843Y-85491308D01*
X120867429Y-85114301D01*
X121408178Y-85114301D01*
X121408270Y-85118178D01*
X121475131Y-85247944D01*
X121642195Y-85407410D01*
X121874191Y-85571511D01*
X122135847Y-85715181D01*
X122391888Y-85813354D01*
X122562506Y-85849099D01*
X122860338Y-85879167D01*
X123167763Y-85882547D01*
X123433142Y-85859388D01*
X123604835Y-85809840D01*
X123615222Y-85803582D01*
X123719709Y-85677376D01*
X123698820Y-85499285D01*
X123551465Y-85258044D01*
X123498458Y-85193810D01*
X123178580Y-84935478D01*
X122775068Y-84767907D01*
X122326290Y-84708311D01*
X122257753Y-84709603D01*
X121932501Y-84751339D01*
X121661850Y-84841827D01*
X121476756Y-84967378D01*
X121408178Y-85114301D01*
X120867429Y-85114301D01*
X120867751Y-85095841D01*
X120876814Y-84792405D01*
X120901213Y-84337104D01*
X120940805Y-83997324D01*
X121001700Y-83752307D01*
X121090008Y-83581298D01*
X121211838Y-83463542D01*
X121373299Y-83378282D01*
X121434041Y-83355907D01*
X121773434Y-83290214D01*
X122192755Y-83280386D01*
X122644951Y-83328273D01*
X122995678Y-83388175D01*
X122995678Y-83088302D01*
X122995678Y-82788429D01*
X121814283Y-82788429D01*
X120632887Y-82788429D01*
X120632887Y-82566917D01*
X120632887Y-82345405D01*
X126207597Y-82345405D01*
X131782306Y-82345405D01*
X131782306Y-82566917D01*
X131782306Y-82788429D01*
X129751783Y-82788429D01*
X127721260Y-82788429D01*
X127721260Y-83936572D01*
X127719683Y-84287332D01*
X127708608Y-84697131D01*
X127681390Y-85002349D01*
X127631627Y-85228596D01*
X127552916Y-85401484D01*
X127438856Y-85546622D01*
X127283044Y-85689623D01*
X127176722Y-85766210D01*
X126828550Y-85916220D01*
X126414441Y-85992960D01*
X125980376Y-85994706D01*
X125572337Y-85919736D01*
X125236305Y-85766327D01*
X124977779Y-85590886D01*
X125001990Y-86576952D01*
X125003189Y-86625501D01*
X125014418Y-87012692D01*
X125029311Y-87285706D01*
X125053545Y-87474833D01*
X125092799Y-87610366D01*
X125152748Y-87722594D01*
X125239072Y-87841808D01*
X125474075Y-88077257D01*
X125819018Y-88283934D01*
X126213297Y-88417169D01*
X126628003Y-88475866D01*
X127034228Y-88458926D01*
X127403066Y-88365253D01*
X127705607Y-88193749D01*
X127912946Y-87943317D01*
X127925274Y-87917830D01*
X127952825Y-87709510D01*
X127835959Y-87527274D01*
X127574302Y-87370771D01*
X127167481Y-87239647D01*
X127139399Y-87232693D01*
X126888384Y-87169450D01*
X126704785Y-87121304D01*
X126626630Y-87098201D01*
X126631734Y-87072507D01*
X126694451Y-86954778D01*
X126806329Y-86776741D01*
X126889896Y-86654361D01*
X126998220Y-86534674D01*
X127109607Y-86498035D01*
X127273343Y-86517035D01*
X127422176Y-86551550D01*
X127771025Y-86695908D01*
X128053728Y-86902413D01*
X128250496Y-87148931D01*
X128341542Y-87413326D01*
X128307079Y-87673462D01*
X128161708Y-87931390D01*
X127849173Y-88242596D01*
X127426667Y-88477272D01*
X126909050Y-88625301D01*
X126677109Y-88655807D01*
X126150914Y-88650454D01*
X125638408Y-88552810D01*
X125179488Y-88372516D01*
X124814055Y-88119208D01*
X124812105Y-88117377D01*
X124694492Y-87999992D01*
X124601539Y-87881573D01*
X124530355Y-87743790D01*
X124478051Y-87568314D01*
X124441737Y-87336816D01*
X124418524Y-87030968D01*
X124405520Y-86632440D01*
X124399837Y-86122904D01*
X124398585Y-85484031D01*
X124398585Y-83523146D01*
X124564719Y-83460996D01*
X124596287Y-83449115D01*
X124806609Y-83370022D01*
X124942267Y-83337710D01*
X125019504Y-83372330D01*
X125054564Y-83494030D01*
X125063688Y-83722961D01*
X125063120Y-84079271D01*
X125070557Y-84465060D01*
X125103771Y-84808993D01*
X125172964Y-85073498D01*
X125288165Y-85294759D01*
X125459402Y-85508962D01*
X125616961Y-85652488D01*
X125935384Y-85825098D01*
X126278364Y-85896063D01*
X126608021Y-85860006D01*
X126886474Y-85711548D01*
X127093643Y-85533504D01*
X127116669Y-84160966D01*
X127139694Y-82788429D01*
X125252279Y-82788429D01*
X123364864Y-82788429D01*
X123364864Y-83215023D01*
X123365452Y-83269477D01*
X123399975Y-83594661D01*
X123483151Y-83810495D01*
X123561402Y-83947462D01*
X123543717Y-84012085D01*
X123414737Y-83993576D01*
X123167948Y-83893653D01*
X123046839Y-83845510D01*
X122680276Y-83748257D01*
X122272616Y-83692978D01*
X122217909Y-83689167D01*
X121950741Y-83676867D01*
X121779838Y-83690098D01*
X121661669Y-83736848D01*
X121552703Y-83825108D01*
X121435764Y-83976786D01*
X121371260Y-84205613D01*
X121377498Y-84322990D01*
X121429689Y-84385092D01*
X121574312Y-84360842D01*
X121623201Y-84348830D01*
X121981673Y-84307367D01*
X122389353Y-84319105D01*
X122782266Y-84378960D01*
X123096437Y-84481845D01*
X123197513Y-84533927D01*
X123551350Y-84785984D01*
X123773519Y-85067201D01*
X123869063Y-85358305D01*
X123843026Y-85640021D01*
X123821979Y-85677376D01*
X123700451Y-85893074D01*
G37*
%TD*%
M02*
