%TF.GenerationSoftware,KiCad,Pcbnew,7.0.7*%
%TF.CreationDate,2024-04-01T01:38:16+05:30*%
%TF.ProjectId,FC_THT_STACK,46435f54-4854-45f5-9354-41434b2e6b69,rev?*%
%TF.SameCoordinates,Original*%
%TF.FileFunction,Soldermask,Top*%
%TF.FilePolarity,Negative*%
%FSLAX46Y46*%
G04 Gerber Fmt 4.6, Leading zero omitted, Abs format (unit mm)*
G04 Created by KiCad (PCBNEW 7.0.7) date 2024-04-01 01:38:16*
%MOMM*%
%LPD*%
G01*
G04 APERTURE LIST*
%ADD10R,1.700000X1.700000*%
%ADD11O,1.700000X1.700000*%
%ADD12C,10.400000*%
%ADD13C,1.778000*%
%ADD14C,3.200400*%
%ADD15R,1.600000X1.600000*%
%ADD16O,1.600000X1.600000*%
G04 APERTURE END LIST*
D10*
%TO.C,U3*%
X114720000Y-111581000D03*
D11*
X114720000Y-109041000D03*
X114720000Y-106501000D03*
X114720000Y-103961000D03*
X114720000Y-101421000D03*
X114720000Y-98881000D03*
X114720000Y-96341000D03*
X114720000Y-93801000D03*
X114720000Y-91261000D03*
X114720000Y-88721000D03*
X114720000Y-86181000D03*
X114720000Y-83641000D03*
X114720000Y-81101000D03*
X114720000Y-78561000D03*
X114720000Y-76021000D03*
X114720000Y-73481000D03*
X114720000Y-70941000D03*
X114720000Y-68401000D03*
X114720000Y-65861000D03*
X114720000Y-63321000D03*
D10*
X99480000Y-111581000D03*
D11*
X99480000Y-109041000D03*
X99480000Y-106501000D03*
X99480000Y-103961000D03*
X99480000Y-101421000D03*
X99480000Y-98881000D03*
X99480000Y-96341000D03*
X99480000Y-93801000D03*
X99480000Y-91261000D03*
X99480000Y-88721000D03*
X99480000Y-86181000D03*
X99480000Y-83641000D03*
X99480000Y-81101000D03*
X99480000Y-78561000D03*
X99480000Y-76021000D03*
X99480000Y-73481000D03*
X99480000Y-70941000D03*
X99480000Y-68401000D03*
X99480000Y-65861000D03*
X99480000Y-63321000D03*
D10*
X110910000Y-67295000D03*
D11*
X108370000Y-67295000D03*
X105830000Y-67295000D03*
X103290000Y-67295000D03*
%TD*%
D10*
%TO.C,U4*%
X146405600Y-65633600D03*
D11*
X146405600Y-68173600D03*
X146405600Y-70713600D03*
X146405600Y-73253600D03*
X146405600Y-75793600D03*
X146405600Y-78333600D03*
X146405600Y-80873600D03*
X146405600Y-83413600D03*
X146405600Y-85953600D03*
X146405600Y-88493600D03*
X146405600Y-91033600D03*
X146405600Y-93573600D03*
X146405600Y-96113600D03*
X146405600Y-98653600D03*
X146405600Y-101193600D03*
X90005600Y-101163600D03*
X90005600Y-98623600D03*
X90005600Y-96083600D03*
X90005600Y-93543600D03*
X90005600Y-91003600D03*
X90005600Y-88463600D03*
X90005600Y-85923600D03*
X90005600Y-83383600D03*
X90005600Y-80843600D03*
X90005600Y-78303600D03*
X90005600Y-75763600D03*
X90005600Y-73223600D03*
X90005600Y-70683600D03*
X90005600Y-68143600D03*
D10*
X90005600Y-65603600D03*
X100430600Y-55218600D03*
D11*
X102970600Y-55218600D03*
X105510600Y-55218600D03*
X108050600Y-55218600D03*
X110590600Y-55218600D03*
X113130600Y-55218600D03*
X115670600Y-55218600D03*
X118210600Y-55218600D03*
X120750600Y-55218600D03*
X123290600Y-55218600D03*
X125830600Y-55218600D03*
X128370600Y-55218600D03*
X130910600Y-55218600D03*
X133450600Y-55218600D03*
X135990600Y-55218600D03*
D12*
X146005600Y-111218600D03*
X90405600Y-111218600D03*
X90405600Y-55518600D03*
X146005600Y-55533600D03*
%TD*%
D13*
%TO.C,U1*%
X123600000Y-94560000D03*
X123600000Y-97100000D03*
X123600000Y-99640000D03*
X123600000Y-102180000D03*
X123600000Y-104720000D03*
X123600000Y-107260000D03*
X123600000Y-109800000D03*
X123600000Y-112340000D03*
D14*
X136300000Y-113614981D03*
X136300000Y-93290000D03*
%TD*%
D15*
%TO.C,U2*%
X138675000Y-87825000D03*
D16*
X138675000Y-85285000D03*
X138675000Y-82745000D03*
X138675000Y-80205000D03*
X138675000Y-77665000D03*
X138675000Y-75125000D03*
X138675000Y-72585000D03*
X138675000Y-70045000D03*
X138675000Y-67505000D03*
X138675000Y-64965000D03*
X138675000Y-62425000D03*
X138675000Y-59885000D03*
X123435000Y-87825000D03*
X123435000Y-85285000D03*
X123435000Y-82745000D03*
X123435000Y-80205000D03*
X123435000Y-77665000D03*
X123435000Y-75125000D03*
X123435000Y-72585000D03*
X123435000Y-70045000D03*
X123435000Y-67505000D03*
X123435000Y-64965000D03*
X123435000Y-62425000D03*
X123435000Y-59885000D03*
%TD*%
M02*
