%TF.GenerationSoftware,KiCad,Pcbnew,7.0.7*%
%TF.CreationDate,2024-04-01T01:38:16+05:30*%
%TF.ProjectId,FC_THT_STACK,46435f54-4854-45f5-9354-41434b2e6b69,rev?*%
%TF.SameCoordinates,Original*%
%TF.FileFunction,Copper,L1,Top*%
%TF.FilePolarity,Positive*%
%FSLAX46Y46*%
G04 Gerber Fmt 4.6, Leading zero omitted, Abs format (unit mm)*
G04 Created by KiCad (PCBNEW 7.0.7) date 2024-04-01 01:38:16*
%MOMM*%
%LPD*%
G01*
G04 APERTURE LIST*
%TA.AperFunction,ComponentPad*%
%ADD10R,1.700000X1.700000*%
%TD*%
%TA.AperFunction,ComponentPad*%
%ADD11O,1.700000X1.700000*%
%TD*%
%TA.AperFunction,ComponentPad*%
%ADD12C,10.400000*%
%TD*%
%TA.AperFunction,ComponentPad*%
%ADD13C,1.676400*%
%TD*%
%TA.AperFunction,ComponentPad*%
%ADD14C,3.200400*%
%TD*%
%TA.AperFunction,ComponentPad*%
%ADD15R,1.600000X1.600000*%
%TD*%
%TA.AperFunction,ComponentPad*%
%ADD16O,1.600000X1.600000*%
%TD*%
%TA.AperFunction,ViaPad*%
%ADD17C,0.800000*%
%TD*%
%TA.AperFunction,Conductor*%
%ADD18C,0.500000*%
%TD*%
%TA.AperFunction,Conductor*%
%ADD19C,0.250000*%
%TD*%
G04 APERTURE END LIST*
D10*
%TO.P,U3,1,B12*%
%TO.N,unconnected-(U3-B12-Pad1)*%
X114720000Y-111581000D03*
D11*
%TO.P,U3,2,B13*%
%TO.N,SCLK_SPI2*%
X114720000Y-109041000D03*
%TO.P,U3,3,B14*%
%TO.N,MISO_SPI2*%
X114720000Y-106501000D03*
%TO.P,U3,4,B15*%
%TO.N,MOSI_SPI2*%
X114720000Y-103961000D03*
%TO.P,U3,5,A8*%
%TO.N,CS_MS5607*%
X114720000Y-101421000D03*
%TO.P,U3,6,A9*%
%TO.N,TX_TELEM*%
X114720000Y-98881000D03*
%TO.P,U3,7,A10*%
%TO.N,RX_TELEM*%
X114720000Y-96341000D03*
%TO.P,U3,8,A11*%
%TO.N,CS_LPS*%
X114720000Y-93801000D03*
%TO.P,U3,9,A12*%
%TO.N,CS_ADXL*%
X114720000Y-91261000D03*
%TO.P,U3,10,A15*%
%TO.N,CS_LSM*%
X114720000Y-88721000D03*
%TO.P,U3,11,B3*%
%TO.N,unconnected-(U3-B3-Pad11)*%
X114720000Y-86181000D03*
%TO.P,U3,12,B4*%
%TO.N,unconnected-(U3-B4-Pad12)*%
X114720000Y-83641000D03*
%TO.P,U3,13,B5*%
%TO.N,unconnected-(U3-B5-Pad13)*%
X114720000Y-81101000D03*
%TO.P,U3,14,B6*%
%TO.N,I2C1_SCL*%
X114720000Y-78561000D03*
%TO.P,U3,15,B7*%
%TO.N,I2C1_SDA*%
X114720000Y-76021000D03*
%TO.P,U3,16,B8*%
%TO.N,unconnected-(U3-B8-Pad16)*%
X114720000Y-73481000D03*
%TO.P,U3,17,B9*%
%TO.N,unconnected-(U3-B9-Pad17)*%
X114720000Y-70941000D03*
%TO.P,U3,18,5V*%
%TO.N,5V*%
X114720000Y-68401000D03*
%TO.P,U3,19,G*%
%TO.N,GND*%
X114720000Y-65861000D03*
%TO.P,U3,20,3.3*%
%TO.N,unconnected-(U3-3.3-Pad20)*%
X114720000Y-63321000D03*
D10*
%TO.P,U3,21,5V*%
%TO.N,unconnected-(U3-5V-Pad21)*%
X99480000Y-111581000D03*
D11*
%TO.P,U3,22,G*%
%TO.N,GND*%
X99480000Y-109041000D03*
%TO.P,U3,23,3.3*%
%TO.N,unconnected-(U3-3.3-Pad23)*%
X99480000Y-106501000D03*
%TO.P,U3,24,B10*%
%TO.N,unconnected-(U3-B10-Pad24)*%
X99480000Y-103961000D03*
%TO.P,U3,25,B2*%
%TO.N,unconnected-(U3-B2-Pad25)*%
X99480000Y-101421000D03*
%TO.P,U3,26,B1*%
%TO.N,PYRO1*%
X99480000Y-98881000D03*
%TO.P,U3,27,B0*%
%TO.N,unconnected-(U3-B0-Pad27)*%
X99480000Y-96341000D03*
%TO.P,U3,28,A7*%
%TO.N,MOSI_SPI1*%
X99480000Y-93801000D03*
%TO.P,U3,29,A6*%
%TO.N,MISO_SPI1*%
X99480000Y-91261000D03*
%TO.P,U3,30,A5*%
%TO.N,SCLK_SPI1*%
X99480000Y-88721000D03*
%TO.P,U3,31,A4*%
%TO.N,unconnected-(U3-A4-Pad31)*%
X99480000Y-86181000D03*
%TO.P,U3,32,A3*%
%TO.N,INT_LPS*%
X99480000Y-83641000D03*
%TO.P,U3,33,A2*%
%TO.N,INT_LSM*%
X99480000Y-81101000D03*
%TO.P,U3,34,A1*%
%TO.N,INT_ADXL*%
X99480000Y-78561000D03*
%TO.P,U3,35,A0*%
%TO.N,PYRO2*%
X99480000Y-76021000D03*
%TO.P,U3,36,R*%
%TO.N,unconnected-(U3-R-Pad36)*%
X99480000Y-73481000D03*
%TO.P,U3,37,C15*%
%TO.N,unconnected-(U3-C15-Pad37)*%
X99480000Y-70941000D03*
%TO.P,U3,38,C14*%
%TO.N,unconnected-(U3-C14-Pad38)*%
X99480000Y-68401000D03*
%TO.P,U3,39,C13*%
%TO.N,unconnected-(U3-C13-Pad39)*%
X99480000Y-65861000D03*
%TO.P,U3,40,VB*%
%TO.N,unconnected-(U3-VB-Pad40)*%
X99480000Y-63321000D03*
D10*
%TO.P,U3,41,3.3V*%
%TO.N,unconnected-(U3-3.3V-Pad41)*%
X110910000Y-67295000D03*
D11*
%TO.P,U3,42,SWDIO*%
%TO.N,unconnected-(U3-SWDIO-Pad42)*%
X108370000Y-67295000D03*
%TO.P,U3,43,SWCLK*%
%TO.N,unconnected-(U3-SWCLK-Pad43)*%
X105830000Y-67295000D03*
%TO.P,U3,44,GND*%
%TO.N,GND*%
X103290000Y-67295000D03*
%TD*%
D10*
%TO.P,U4,1*%
%TO.N,CS_ADXL*%
X146405600Y-65633600D03*
D11*
%TO.P,U4,2*%
%TO.N,SCLK_SPI2*%
X146405600Y-68173600D03*
%TO.P,U4,3*%
%TO.N,MOSI_SPI2*%
X146405600Y-70713600D03*
%TO.P,U4,4*%
%TO.N,MISO_SPI2*%
X146405600Y-73253600D03*
%TO.P,U4,5*%
%TO.N,INT_ADXL*%
X146405600Y-75793600D03*
%TO.P,U4,6*%
%TO.N,CS_LSM*%
X146405600Y-78333600D03*
%TO.P,U4,7*%
%TO.N,INT_LSM*%
X146405600Y-80873600D03*
%TO.P,U4,8*%
%TO.N,TX_TELEM*%
X146405600Y-83413600D03*
%TO.P,U4,9*%
%TO.N,RX_TELEM*%
X146405600Y-85953600D03*
%TO.P,U4,10*%
%TO.N,INT_LPS*%
X146405600Y-88493600D03*
%TO.P,U4,11*%
%TO.N,unconnected-(U4-Pad11)*%
X146405600Y-91033600D03*
%TO.P,U4,12*%
%TO.N,unconnected-(U4-Pad12)*%
X146405600Y-93573600D03*
%TO.P,U4,13*%
%TO.N,unconnected-(U4-Pad13)*%
X146405600Y-96113600D03*
%TO.P,U4,14*%
%TO.N,PYRO2*%
X146405600Y-98653600D03*
%TO.P,U4,15*%
%TO.N,unconnected-(U4-Pad15)*%
X146405600Y-101193600D03*
%TO.P,U4,16*%
%TO.N,unconnected-(U4-Pad16)*%
X90005600Y-101163600D03*
%TO.P,U4,17*%
%TO.N,PYRO1*%
X90005600Y-98623600D03*
%TO.P,U4,18*%
%TO.N,unconnected-(U4-Pad18)*%
X90005600Y-96083600D03*
%TO.P,U4,19*%
%TO.N,unconnected-(U4-Pad19)*%
X90005600Y-93543600D03*
%TO.P,U4,20*%
%TO.N,unconnected-(U4-Pad20)*%
X90005600Y-91003600D03*
%TO.P,U4,21*%
%TO.N,unconnected-(U4-Pad21)*%
X90005600Y-88463600D03*
%TO.P,U4,22*%
%TO.N,unconnected-(U4-Pad22)*%
X90005600Y-85923600D03*
%TO.P,U4,23*%
%TO.N,I2C1_SDA*%
X90005600Y-83383600D03*
%TO.P,U4,24*%
%TO.N,I2C1_SCL*%
X90005600Y-80843600D03*
%TO.P,U4,25*%
%TO.N,unconnected-(U4-Pad25)*%
X90005600Y-78303600D03*
%TO.P,U4,26*%
%TO.N,CS_LPS*%
X90005600Y-75763600D03*
%TO.P,U4,27*%
%TO.N,MISO_SPI1*%
X90005600Y-73223600D03*
%TO.P,U4,28*%
%TO.N,MOSI_SPI1*%
X90005600Y-70683600D03*
%TO.P,U4,29*%
%TO.N,SCLK_SPI1*%
X90005600Y-68143600D03*
D10*
%TO.P,U4,30*%
%TO.N,CS_MS5607*%
X90005600Y-65603600D03*
%TO.P,U4,31*%
%TO.N,5V*%
X100430600Y-55218600D03*
D11*
%TO.P,U4,32*%
X102970600Y-55218600D03*
%TO.P,U4,33*%
%TO.N,unconnected-(U4-Pad33)*%
X105510600Y-55218600D03*
%TO.P,U4,34*%
%TO.N,unconnected-(U4-Pad34)*%
X108050600Y-55218600D03*
%TO.P,U4,35*%
%TO.N,unconnected-(U4-Pad35)*%
X110590600Y-55218600D03*
%TO.P,U4,36*%
%TO.N,unconnected-(U4-Pad36)*%
X113130600Y-55218600D03*
%TO.P,U4,37*%
%TO.N,3.3V*%
X115670600Y-55218600D03*
%TO.P,U4,38*%
%TO.N,unconnected-(U4-Pad38)*%
X118210600Y-55218600D03*
%TO.P,U4,39*%
%TO.N,3.3V*%
X120750600Y-55218600D03*
%TO.P,U4,40*%
X123290600Y-55218600D03*
%TO.P,U4,41*%
%TO.N,unconnected-(U4-Pad41)*%
X125830600Y-55218600D03*
%TO.P,U4,42*%
%TO.N,unconnected-(U4-Pad42)*%
X128370600Y-55218600D03*
%TO.P,U4,43*%
%TO.N,unconnected-(U4-Pad43)*%
X130910600Y-55218600D03*
%TO.P,U4,44*%
%TO.N,unconnected-(U4-Pad44)*%
X133450600Y-55218600D03*
%TO.P,U4,45*%
%TO.N,5V*%
X135990600Y-55218600D03*
D12*
%TO.P,U4,49,1*%
%TO.N,GND*%
X146005600Y-111218600D03*
%TO.P,U4,50,1*%
X90405600Y-111218600D03*
%TO.P,U4,51,1*%
X90405600Y-55518600D03*
%TO.P,U4,52,1*%
X146005600Y-55533600D03*
%TD*%
D13*
%TO.P,U1,1,VIN*%
%TO.N,5V*%
X123600000Y-94560000D03*
%TO.P,U1,2,3Vo*%
%TO.N,unconnected-(U1-3Vo-Pad2)*%
X123600000Y-97100000D03*
%TO.P,U1,3,GND*%
%TO.N,GND*%
X123600000Y-99640000D03*
%TO.P,U1,4,SCK*%
%TO.N,SCLK_SPI1*%
X123600000Y-102180000D03*
%TO.P,U1,5,SDO*%
%TO.N,MISO_SPI1*%
X123600000Y-104720000D03*
%TO.P,U1,6,SDI*%
%TO.N,MOSI_SPI1*%
X123600000Y-107260000D03*
%TO.P,U1,7,CS*%
%TO.N,CS_LPS*%
X123600000Y-109800000D03*
%TO.P,U1,8,INT*%
%TO.N,INT_LPS*%
X123600000Y-112340000D03*
D14*
%TO.P,U1,M$1*%
%TO.N,N/C*%
X136300000Y-113614981D03*
%TO.P,U1,M$2*%
X136300000Y-93290000D03*
%TD*%
D15*
%TO.P,U2,1,VDD*%
%TO.N,3.3V*%
X138675000Y-87825000D03*
D16*
%TO.P,U2,2,VDDIO*%
X138675000Y-85285000D03*
%TO.P,U2,3,OCS*%
%TO.N,unconnected-(U2-OCS-Pad3)*%
X138675000Y-82745000D03*
%TO.P,U2,4,SCX*%
%TO.N,unconnected-(U2-SCX-Pad4)*%
X138675000Y-80205000D03*
%TO.P,U2,5,SDX*%
%TO.N,unconnected-(U2-SDX-Pad5)*%
X138675000Y-77665000D03*
%TO.P,U2,6,OSDO*%
%TO.N,unconnected-(U2-OSDO-Pad6)*%
X138675000Y-75125000D03*
%TO.P,U2,7*%
%TO.N,unconnected-(U2-Pad7)*%
X138675000Y-72585000D03*
%TO.P,U2,8*%
%TO.N,unconnected-(U2-Pad8)*%
X138675000Y-70045000D03*
%TO.P,U2,9*%
%TO.N,unconnected-(U2-Pad9)*%
X138675000Y-67505000D03*
%TO.P,U2,10*%
%TO.N,unconnected-(U2-Pad10)*%
X138675000Y-64965000D03*
%TO.P,U2,11*%
%TO.N,unconnected-(U2-Pad11)*%
X138675000Y-62425000D03*
%TO.P,U2,12*%
%TO.N,unconnected-(U2-Pad12)*%
X138675000Y-59885000D03*
%TO.P,U2,13,SCX*%
%TO.N,unconnected-(U2-SCX-Pad13)*%
X123435000Y-87825000D03*
%TO.P,U2,14*%
%TO.N,unconnected-(U2-Pad14)*%
X123435000Y-85285000D03*
%TO.P,U2,15,SDO*%
%TO.N,MISO_SPI1*%
X123435000Y-82745000D03*
%TO.P,U2,16,SDA*%
%TO.N,MOSI_SPI1*%
X123435000Y-80205000D03*
%TO.P,U2,17,SCL*%
%TO.N,SCLK_SPI1*%
X123435000Y-77665000D03*
%TO.P,U2,18,CS*%
%TO.N,CS_LSM*%
X123435000Y-75125000D03*
%TO.P,U2,19,OCS*%
%TO.N,unconnected-(U2-OCS-Pad19)*%
X123435000Y-72585000D03*
%TO.P,U2,20,SDX*%
%TO.N,unconnected-(U2-SDX-Pad20)*%
X123435000Y-70045000D03*
%TO.P,U2,21,OSDO*%
%TO.N,unconnected-(U2-OSDO-Pad21)*%
X123435000Y-67505000D03*
%TO.P,U2,22,INT2*%
%TO.N,unconnected-(U2-INT2-Pad22)*%
X123435000Y-64965000D03*
%TO.P,U2,23,INT1*%
%TO.N,INT_LSM*%
X123435000Y-62425000D03*
%TO.P,U2,24,GND*%
%TO.N,GND*%
X123435000Y-59885000D03*
%TD*%
D17*
%TO.N,GND*%
X139776200Y-111836200D03*
X96037400Y-114350800D03*
%TO.N,SCLK_SPI1*%
X106362500Y-95084900D03*
X112242600Y-93599000D03*
X102082600Y-93522800D03*
X109397800Y-94564200D03*
%TO.N,MISO_SPI1*%
X109499400Y-86563200D03*
X127711200Y-93497400D03*
%TO.N,MOSI_SPI1*%
X95478600Y-102641400D03*
X130429000Y-91668600D03*
X139395200Y-97536000D03*
X119176800Y-108153200D03*
X108991400Y-107213400D03*
%TO.N,CS_LPS*%
X106476800Y-75895200D03*
X120065800Y-94310200D03*
%TO.N,CS_LSM*%
X132715000Y-89281000D03*
X119202200Y-86080600D03*
X132232400Y-77038200D03*
X142748000Y-84429600D03*
%TO.N,INT_LSM*%
X132130800Y-83921600D03*
X107621000Y-81101000D03*
%TO.N,SCLK_SPI2*%
X142824200Y-81965800D03*
X121843800Y-104775000D03*
%TO.N,MISO_SPI2*%
X120790800Y-105701000D03*
X143814800Y-78994000D03*
%TO.N,RX_TELEM*%
X142316200Y-85521800D03*
%TO.N,I2C1_SCL*%
X109880400Y-79527400D03*
%TO.N,INT_ADXL*%
X102209600Y-73380600D03*
%TO.N,PYRO2*%
X129184400Y-92913200D03*
X118846600Y-76200000D03*
%TD*%
D18*
%TO.N,5V*%
X141732000Y-89433400D02*
X141325600Y-89027000D01*
X138099800Y-55905400D02*
X137413000Y-55218600D01*
X138099800Y-56286400D02*
X138099800Y-55905400D01*
X140284200Y-90881200D02*
X141732000Y-89433400D01*
X141325600Y-89027000D02*
X141325600Y-59512200D01*
X137413000Y-55218600D02*
X135990600Y-55218600D01*
X133019800Y-90881200D02*
X140284200Y-90881200D01*
X141325600Y-59512200D02*
X138099800Y-56286400D01*
X123600000Y-94560000D02*
X129341000Y-94560000D01*
X129341000Y-94560000D02*
X133019800Y-90881200D01*
D19*
%TO.N,GND*%
X139776200Y-111836200D02*
X145388000Y-111836200D01*
X96037400Y-114350800D02*
X93537800Y-114350800D01*
X145388000Y-111836200D02*
X146005600Y-111218600D01*
X93537800Y-114350800D02*
X90405600Y-111218600D01*
%TO.N,SCLK_SPI1*%
X109474000Y-94513400D02*
X109448600Y-94513400D01*
X90005600Y-68143600D02*
X95986600Y-74124600D01*
X123600000Y-102180000D02*
X123184000Y-102596000D01*
X95986600Y-86131400D02*
X98576200Y-88721000D01*
X98576200Y-88721000D02*
X99480000Y-88721000D01*
X102082600Y-91323600D02*
X99480000Y-88721000D01*
X123184000Y-102596000D02*
X113873600Y-102596000D01*
X102082600Y-93522800D02*
X102082600Y-91323600D01*
X110388400Y-93599000D02*
X109474000Y-94513400D01*
X95986600Y-74124600D02*
X95986600Y-86131400D01*
X112242600Y-93599000D02*
X110388400Y-93599000D01*
X113873600Y-102596000D02*
X106248200Y-94970600D01*
X109448600Y-94513400D02*
X109397800Y-94564200D01*
%TO.N,MISO_SPI1*%
X111056600Y-85006000D02*
X121174000Y-85006000D01*
X109499400Y-86563200D02*
X111056600Y-85006000D01*
X92075000Y-75293000D02*
X90005600Y-73223600D01*
X123435000Y-82745000D02*
X127711200Y-87021200D01*
X127711200Y-87021200D02*
X127711200Y-93497400D01*
X92075000Y-83856000D02*
X92075000Y-75293000D01*
X121174000Y-85006000D02*
X123435000Y-82745000D01*
X99480000Y-91261000D02*
X92075000Y-83856000D01*
%TO.N,MOSI_SPI1*%
X86004400Y-74684800D02*
X86004400Y-102971600D01*
X95478600Y-103835200D02*
X95478600Y-102641400D01*
X90005600Y-70683600D02*
X86004400Y-74684800D01*
X123435000Y-80205000D02*
X125088196Y-80205000D01*
X119202200Y-108153200D02*
X119176800Y-108153200D01*
X132135000Y-107260000D02*
X123600000Y-107260000D01*
X130454400Y-91694000D02*
X130429000Y-91668600D01*
X118725000Y-107676000D02*
X119202200Y-108153200D01*
X139395200Y-99999800D02*
X132135000Y-107260000D01*
X125088196Y-80205000D02*
X130454400Y-85571204D01*
X94462600Y-104851200D02*
X95478600Y-103835200D01*
X108991400Y-107213400D02*
X109454000Y-107676000D01*
X86004400Y-102971600D02*
X87884000Y-104851200D01*
X139395200Y-97536000D02*
X139395200Y-99999800D01*
X130454400Y-85571204D02*
X130454400Y-91694000D01*
X109454000Y-107676000D02*
X118725000Y-107676000D01*
X87884000Y-104851200D02*
X94462600Y-104851200D01*
%TO.N,CS_LPS*%
X114720000Y-93801000D02*
X119404200Y-93801000D01*
X120015000Y-94411800D02*
X120015000Y-94361000D01*
X114720000Y-93801000D02*
X106476800Y-85557800D01*
X120015000Y-94361000D02*
X120065800Y-94310200D01*
X119404200Y-93801000D02*
X120015000Y-94411800D01*
X106476800Y-85557800D02*
X106476800Y-75895200D01*
%TO.N,INT_LPS*%
X144932400Y-88874600D02*
X146024600Y-88874600D01*
X112623600Y-115620800D02*
X120319200Y-115620800D01*
X102928000Y-105925200D02*
X112623600Y-115620800D01*
X146024600Y-88874600D02*
X146405600Y-88493600D01*
X144932400Y-88976200D02*
X144932400Y-88874600D01*
X129366400Y-112340000D02*
X143865600Y-97840800D01*
X123600000Y-112340000D02*
X129366400Y-112340000D01*
X143865600Y-97840800D02*
X143865600Y-90043000D01*
X102928000Y-87089000D02*
X102928000Y-105925200D01*
X99480000Y-83641000D02*
X102928000Y-87089000D01*
X120319200Y-115620800D02*
X123600000Y-112340000D01*
X143865600Y-90043000D02*
X144932400Y-88976200D01*
%TO.N,CS_LSM*%
X146405600Y-78333600D02*
X143549200Y-81190000D01*
X116561800Y-88721000D02*
X119202200Y-86080600D01*
X132855800Y-77661600D02*
X132855800Y-89114800D01*
X143549200Y-84291000D02*
X143611600Y-84353400D01*
X143549200Y-81190000D02*
X143549200Y-84291000D01*
X143433800Y-84531200D02*
X142748000Y-84429600D01*
X132855800Y-89114800D02*
X132689600Y-89281000D01*
X143611600Y-84353400D02*
X143433800Y-84531200D01*
X114720000Y-88721000D02*
X116561800Y-88721000D01*
X132232400Y-77038200D02*
X132855800Y-77661600D01*
%TO.N,INT_LSM*%
X122224800Y-62788800D02*
X123071200Y-62788800D01*
X124459200Y-76250000D02*
X122969009Y-76250000D01*
X111310600Y-72306000D02*
X118346400Y-72306000D01*
X121031000Y-69621400D02*
X121031000Y-63982600D01*
X119608600Y-71043800D02*
X121031000Y-69621400D01*
X107621000Y-81101000D02*
X107621000Y-75995600D01*
X123071200Y-62788800D02*
X123435000Y-62425000D01*
X132130800Y-83921600D02*
X124459200Y-76250000D01*
X118346400Y-72306000D02*
X119608600Y-71043800D01*
X107621000Y-75995600D02*
X111310600Y-72306000D01*
X122969009Y-76250000D02*
X119608600Y-72889591D01*
X121031000Y-63982600D02*
X122224800Y-62788800D01*
X119608600Y-72889591D02*
X119608600Y-71043800D01*
%TO.N,SCLK_SPI2*%
X142824200Y-71755000D02*
X142824200Y-82016600D01*
X121843800Y-104775000D02*
X121843800Y-106654600D01*
X119354600Y-109143800D02*
X116636800Y-109143800D01*
X116534000Y-109041000D02*
X114720000Y-109041000D01*
X116636800Y-109143800D02*
X116534000Y-109041000D01*
X146405600Y-68173600D02*
X142824200Y-71755000D01*
X121843800Y-106654600D02*
X119354600Y-109143800D01*
%TO.N,MISO_SPI2*%
X143814800Y-75844400D02*
X143814800Y-78994000D01*
X119990800Y-106501000D02*
X114720000Y-106501000D01*
X120790800Y-105701000D02*
X119990800Y-106501000D01*
X146405600Y-73253600D02*
X143814800Y-75844400D01*
%TO.N,CS_MS5607*%
X95077600Y-69576000D02*
X91105200Y-65603600D01*
X103378000Y-72720200D02*
X100233800Y-69576000D01*
X114720000Y-101421000D02*
X103378000Y-90079000D01*
X100233800Y-69576000D02*
X95077600Y-69576000D01*
X103378000Y-90079000D02*
X103378000Y-72720200D01*
X91105200Y-65603600D02*
X90005600Y-65603600D01*
%TO.N,TX_TELEM*%
X115124200Y-98476800D02*
X114720000Y-98881000D01*
X142875000Y-86944200D02*
X142875000Y-92633800D01*
X137032000Y-98476800D02*
X115124200Y-98476800D01*
X146405600Y-83413600D02*
X142875000Y-86944200D01*
X142875000Y-92633800D02*
X137032000Y-98476800D01*
%TO.N,RX_TELEM*%
X114720000Y-96341000D02*
X115124200Y-95936800D01*
X115124200Y-95936800D02*
X137133600Y-95936800D01*
X142316200Y-90754200D02*
X142316200Y-85521800D01*
X137133600Y-95936800D02*
X142316200Y-90754200D01*
%TO.N,I2C1_SCL*%
X113753600Y-79527400D02*
X114720000Y-78561000D01*
X109880400Y-79527400D02*
X113753600Y-79527400D01*
%TO.N,INT_ADXL*%
X99480000Y-78561000D02*
X102209600Y-75831400D01*
X102209600Y-75831400D02*
X102209600Y-73380600D01*
D18*
%TO.N,PYRO1*%
X99480000Y-98881000D02*
X90263000Y-98881000D01*
X90263000Y-98881000D02*
X90005600Y-98623600D01*
D19*
%TO.N,PYRO2*%
X122969009Y-81620000D02*
X125866800Y-81620000D01*
X129184400Y-84937600D02*
X129184400Y-92913200D01*
X125866800Y-81620000D02*
X129184400Y-84937600D01*
X118846600Y-77497591D02*
X122969009Y-81620000D01*
X118846600Y-76200000D02*
X118846600Y-77497591D01*
%TD*%
%TA.AperFunction,Conductor*%
%TO.N,3.3V*%
G36*
X123468110Y-55718107D02*
G01*
X123520914Y-55763861D01*
X123540599Y-55830901D01*
X123540599Y-56549234D01*
X123754083Y-56492033D01*
X123754092Y-56492029D01*
X123968178Y-56392200D01*
X124161678Y-56256708D01*
X124325501Y-56092885D01*
X124386825Y-56059400D01*
X124456516Y-56064384D01*
X124512450Y-56106255D01*
X124536867Y-56171720D01*
X124537178Y-56181724D01*
X124536477Y-56256708D01*
X124536200Y-56286400D01*
X124978559Y-56296143D01*
X125045144Y-56317298D01*
X125046905Y-56318507D01*
X125152770Y-56392635D01*
X125366937Y-56492503D01*
X125595192Y-56553663D01*
X125783518Y-56570139D01*
X125830599Y-56574259D01*
X125830600Y-56574259D01*
X125830601Y-56574259D01*
X125869834Y-56570826D01*
X126066008Y-56553663D01*
X126294263Y-56492503D01*
X126508430Y-56392635D01*
X126562114Y-56355044D01*
X126628317Y-56332718D01*
X126635954Y-56332650D01*
X127601054Y-56353907D01*
X127667641Y-56375063D01*
X127669445Y-56376303D01*
X127692766Y-56392633D01*
X127692770Y-56392635D01*
X127906937Y-56492503D01*
X128135192Y-56553663D01*
X128323518Y-56570139D01*
X128370599Y-56574259D01*
X128370600Y-56574259D01*
X128370601Y-56574259D01*
X128409834Y-56570826D01*
X128606008Y-56553663D01*
X128834263Y-56492503D01*
X129036239Y-56398319D01*
X129091364Y-56386734D01*
X130250026Y-56412255D01*
X130299691Y-56423841D01*
X130446937Y-56492503D01*
X130675192Y-56553663D01*
X130863518Y-56570139D01*
X130910599Y-56574259D01*
X130910600Y-56574259D01*
X130910601Y-56574259D01*
X130949834Y-56570826D01*
X131146008Y-56553663D01*
X131355558Y-56497515D01*
X131374260Y-56492504D01*
X131374260Y-56492503D01*
X131374263Y-56492503D01*
X131461670Y-56451744D01*
X131516799Y-56440157D01*
X132915950Y-56470975D01*
X132965620Y-56482563D01*
X132985929Y-56492033D01*
X132986937Y-56492503D01*
X133215192Y-56553663D01*
X133403518Y-56570139D01*
X133450599Y-56574259D01*
X133450600Y-56574259D01*
X133450601Y-56574259D01*
X133489834Y-56570826D01*
X133686008Y-56553663D01*
X133895559Y-56497514D01*
X133930376Y-56493320D01*
X133983793Y-56494496D01*
X134050381Y-56515651D01*
X134087198Y-56554348D01*
X134136546Y-56636037D01*
X134180817Y-56690091D01*
X134180819Y-56690093D01*
X134286899Y-56787297D01*
X134416067Y-56850677D01*
X134482534Y-56872215D01*
X134624325Y-56896637D01*
X134952556Y-56905753D01*
X134952557Y-56905754D01*
X134965087Y-56905791D01*
X134965087Y-56905790D01*
X134965088Y-56905791D01*
X134983640Y-56905387D01*
X135008682Y-56904219D01*
X135149274Y-56873635D01*
X135214738Y-56849218D01*
X135341013Y-56780267D01*
X135442753Y-56678530D01*
X135466717Y-56646518D01*
X135484622Y-56622602D01*
X135484625Y-56622597D01*
X135484631Y-56622589D01*
X135499755Y-56594889D01*
X135549157Y-56545484D01*
X135611314Y-56530345D01*
X135658332Y-56531380D01*
X135687683Y-56535574D01*
X135755192Y-56553663D01*
X135956453Y-56571271D01*
X136021521Y-56596723D01*
X136062500Y-56653314D01*
X136069636Y-56693309D01*
X136397999Y-84023199D01*
X136397999Y-84023198D01*
X136398000Y-84023200D01*
X137848719Y-83999801D01*
X137916066Y-84018402D01*
X137962667Y-84070461D01*
X137973724Y-84139450D01*
X137945728Y-84203466D01*
X137921842Y-84225359D01*
X137836183Y-84285338D01*
X137675342Y-84446179D01*
X137544865Y-84632517D01*
X137448734Y-84838673D01*
X137448730Y-84838682D01*
X137396127Y-85034999D01*
X137396128Y-85035000D01*
X138164424Y-85035000D01*
X138231463Y-85054685D01*
X138277218Y-85107489D01*
X138287162Y-85176647D01*
X138286897Y-85178397D01*
X138270014Y-85284996D01*
X138270014Y-85285003D01*
X138286897Y-85391603D01*
X138277942Y-85460896D01*
X138232946Y-85514348D01*
X138166194Y-85534987D01*
X138164424Y-85535000D01*
X137396128Y-85535000D01*
X137448730Y-85731317D01*
X137448734Y-85731326D01*
X137544865Y-85937482D01*
X137675342Y-86123820D01*
X137836183Y-86284661D01*
X137861845Y-86302630D01*
X137905470Y-86357207D01*
X137912662Y-86426705D01*
X137881140Y-86489060D01*
X137820909Y-86524473D01*
X137803978Y-86527493D01*
X137767626Y-86531401D01*
X137767615Y-86531404D01*
X137743829Y-86540274D01*
X137743829Y-86540277D01*
X138491133Y-87287580D01*
X138524618Y-87348903D01*
X138519634Y-87418594D01*
X138477762Y-87474528D01*
X138459748Y-87485745D01*
X138436956Y-87497358D01*
X138436949Y-87497363D01*
X138347363Y-87586949D01*
X138347358Y-87586956D01*
X138335745Y-87609748D01*
X138287770Y-87660544D01*
X138219949Y-87677338D01*
X138153814Y-87654800D01*
X138137580Y-87641133D01*
X137390277Y-86893829D01*
X137390274Y-86893829D01*
X137381404Y-86917615D01*
X137381401Y-86917625D01*
X137375000Y-86977157D01*
X137375000Y-88672844D01*
X137381401Y-88732373D01*
X137390276Y-88756170D01*
X138137580Y-88008866D01*
X138198903Y-87975381D01*
X138268594Y-87980365D01*
X138324528Y-88022237D01*
X138335742Y-88040246D01*
X138347359Y-88063045D01*
X138347361Y-88063047D01*
X138347363Y-88063050D01*
X138436949Y-88152636D01*
X138436951Y-88152637D01*
X138436955Y-88152641D01*
X138459747Y-88164254D01*
X138510542Y-88212228D01*
X138527337Y-88280049D01*
X138504799Y-88346184D01*
X138491132Y-88362419D01*
X137755529Y-89098022D01*
X137719173Y-89117873D01*
X137604836Y-89118508D01*
X137604832Y-89118507D01*
X135788400Y-89128600D01*
X134003995Y-89081015D01*
X133937505Y-89059550D01*
X133893174Y-89005545D01*
X133883301Y-88957164D01*
X133858000Y-57861200D01*
X133857999Y-57861207D01*
X133857999Y-57861199D01*
X133820753Y-58159172D01*
X133792906Y-58223252D01*
X133734834Y-58262105D01*
X133697929Y-58267792D01*
X119701126Y-58292433D01*
X119634052Y-58272866D01*
X119588204Y-58220143D01*
X119577641Y-58181892D01*
X119569303Y-58105530D01*
X119569301Y-58105523D01*
X119569301Y-58105518D01*
X119558095Y-58054282D01*
X119524087Y-57952296D01*
X119513662Y-57936074D01*
X119446307Y-57831268D01*
X119446300Y-57831258D01*
X119413394Y-57793283D01*
X119384369Y-57729727D01*
X119383109Y-57711431D01*
X119392129Y-56024760D01*
X119412171Y-55957833D01*
X119465218Y-55912361D01*
X119534429Y-55902787D01*
X119597829Y-55932152D01*
X119617700Y-55954305D01*
X119712490Y-56089678D01*
X119879517Y-56256705D01*
X120073021Y-56392200D01*
X120287107Y-56492029D01*
X120287116Y-56492033D01*
X120500598Y-56549235D01*
X120500599Y-56549234D01*
X120500599Y-55830901D01*
X120520284Y-55763862D01*
X120573088Y-55718107D01*
X120642246Y-55708163D01*
X120648980Y-55709131D01*
X120714837Y-55718600D01*
X120714838Y-55718600D01*
X120786362Y-55718600D01*
X120786363Y-55718600D01*
X120858953Y-55708163D01*
X120928112Y-55718107D01*
X120980915Y-55763862D01*
X121000600Y-55830901D01*
X121000600Y-56549233D01*
X121214083Y-56492033D01*
X121214092Y-56492029D01*
X121428178Y-56392200D01*
X121621682Y-56256705D01*
X121788705Y-56089682D01*
X121919025Y-55903568D01*
X121973602Y-55859944D01*
X122043101Y-55852751D01*
X122105455Y-55884273D01*
X122122175Y-55903568D01*
X122252494Y-56089682D01*
X122419517Y-56256705D01*
X122613021Y-56392200D01*
X122827107Y-56492029D01*
X122827116Y-56492033D01*
X123040600Y-56549234D01*
X123040600Y-55830901D01*
X123060285Y-55763862D01*
X123113089Y-55718107D01*
X123182247Y-55708163D01*
X123254837Y-55718600D01*
X123254838Y-55718600D01*
X123326362Y-55718600D01*
X123326363Y-55718600D01*
X123398952Y-55708163D01*
X123468110Y-55718107D01*
G37*
%TD.AperFunction*%
%TA.AperFunction,Conductor*%
G36*
X140252736Y-83992703D02*
G01*
X140299062Y-84045007D01*
X140310828Y-84096513D01*
X140359166Y-88978665D01*
X140340146Y-89045896D01*
X140287798Y-89092172D01*
X140235861Y-89103891D01*
X139988463Y-89105265D01*
X139921315Y-89085953D01*
X139875267Y-89033404D01*
X139864940Y-88964302D01*
X139888509Y-88906954D01*
X139918352Y-88867090D01*
X139918354Y-88867086D01*
X139968596Y-88732379D01*
X139968598Y-88732372D01*
X139974999Y-88672844D01*
X139975000Y-88672827D01*
X139975000Y-86977172D01*
X139974999Y-86977155D01*
X139968598Y-86917627D01*
X139968597Y-86917623D01*
X139959722Y-86893829D01*
X139212419Y-87641132D01*
X139151096Y-87674617D01*
X139081404Y-87669633D01*
X139025471Y-87627761D01*
X139014256Y-87609751D01*
X139002641Y-87586955D01*
X139002637Y-87586951D01*
X139002636Y-87586949D01*
X138913050Y-87497363D01*
X138913047Y-87497361D01*
X138913045Y-87497359D01*
X138890250Y-87485744D01*
X138839456Y-87437771D01*
X138822661Y-87369950D01*
X138845198Y-87303815D01*
X138858866Y-87287580D01*
X139606170Y-86540276D01*
X139582373Y-86531401D01*
X139546022Y-86527493D01*
X139481471Y-86500755D01*
X139441623Y-86443362D01*
X139439130Y-86373537D01*
X139474783Y-86313448D01*
X139488156Y-86302628D01*
X139513819Y-86284658D01*
X139674657Y-86123820D01*
X139805134Y-85937482D01*
X139901265Y-85731326D01*
X139901269Y-85731317D01*
X139953872Y-85535000D01*
X139185576Y-85535000D01*
X139118537Y-85515315D01*
X139072782Y-85462511D01*
X139062838Y-85393353D01*
X139063103Y-85391603D01*
X139079986Y-85285003D01*
X139079986Y-85284996D01*
X139063103Y-85178397D01*
X139072058Y-85109104D01*
X139117054Y-85055652D01*
X139183806Y-85035013D01*
X139185576Y-85035000D01*
X139953872Y-85035000D01*
X139953872Y-85034999D01*
X139901269Y-84838682D01*
X139901265Y-84838673D01*
X139805134Y-84632517D01*
X139674657Y-84446179D01*
X139513820Y-84285342D01*
X139402041Y-84207073D01*
X139358416Y-84152496D01*
X139351224Y-84082997D01*
X139382746Y-84020643D01*
X139442976Y-83985229D01*
X139471805Y-83981506D01*
X140185489Y-83973749D01*
X140252736Y-83992703D01*
G37*
%TD.AperFunction*%
%TA.AperFunction,Conductor*%
G36*
X122744292Y-54988285D02*
G01*
X122790047Y-55041089D01*
X122799991Y-55110247D01*
X122796231Y-55127533D01*
X122790600Y-55146711D01*
X122790600Y-55290488D01*
X122796231Y-55309667D01*
X122796230Y-55379536D01*
X122758455Y-55438314D01*
X122694899Y-55467338D01*
X122677253Y-55468600D01*
X121363947Y-55468600D01*
X121296908Y-55448915D01*
X121251153Y-55396111D01*
X121241209Y-55326953D01*
X121244969Y-55309667D01*
X121250600Y-55290488D01*
X121250600Y-55146711D01*
X121244969Y-55127533D01*
X121244970Y-55057664D01*
X121282745Y-54998886D01*
X121346301Y-54969862D01*
X121363947Y-54968600D01*
X122677253Y-54968600D01*
X122744292Y-54988285D01*
G37*
%TD.AperFunction*%
%TA.AperFunction,Conductor*%
G36*
X121000600Y-53947366D02*
G01*
X121000600Y-54606298D01*
X120980915Y-54673337D01*
X120928111Y-54719092D01*
X120858955Y-54729036D01*
X120786366Y-54718600D01*
X120786363Y-54718600D01*
X120714837Y-54718600D01*
X120714833Y-54718600D01*
X120642244Y-54729036D01*
X120573086Y-54719092D01*
X120520283Y-54673336D01*
X120500599Y-54606298D01*
X120500598Y-53939865D01*
X121000600Y-53947366D01*
G37*
%TD.AperFunction*%
%TA.AperFunction,Conductor*%
G36*
X123540598Y-53985465D02*
G01*
X123540599Y-54606298D01*
X123520914Y-54673337D01*
X123468110Y-54719092D01*
X123398953Y-54729036D01*
X123326364Y-54718600D01*
X123326363Y-54718600D01*
X123254837Y-54718600D01*
X123254833Y-54718600D01*
X123182245Y-54729036D01*
X123113087Y-54719092D01*
X123060284Y-54673336D01*
X123040600Y-54606298D01*
X123040600Y-53977966D01*
X123540598Y-53985465D01*
G37*
%TD.AperFunction*%
%TA.AperFunction,Conductor*%
G36*
X122765620Y-53973841D02*
G01*
X122613022Y-54044999D01*
X122613020Y-54045000D01*
X122419526Y-54180486D01*
X122419520Y-54180491D01*
X122252491Y-54347520D01*
X122252490Y-54347522D01*
X122122175Y-54533631D01*
X122067598Y-54577255D01*
X121998099Y-54584448D01*
X121935745Y-54552926D01*
X121919025Y-54533631D01*
X121788709Y-54347522D01*
X121788708Y-54347520D01*
X121621682Y-54180494D01*
X121428178Y-54044999D01*
X121226053Y-53950747D01*
X122765620Y-53973841D01*
G37*
%TD.AperFunction*%
%TA.AperFunction,Conductor*%
G36*
X119456200Y-53924200D02*
G01*
X120317168Y-53937114D01*
X120287105Y-53945170D01*
X120073022Y-54044999D01*
X120073020Y-54045000D01*
X119879526Y-54180486D01*
X119879520Y-54180491D01*
X119712491Y-54347520D01*
X119712490Y-54347522D01*
X119626397Y-54470475D01*
X119571820Y-54514100D01*
X119502321Y-54521292D01*
X119439967Y-54489770D01*
X119404553Y-54429540D01*
X119400825Y-54398697D01*
X119404853Y-53645423D01*
X119424896Y-53578492D01*
X119441386Y-53558191D01*
X119456197Y-53543450D01*
X119456200Y-53543450D01*
X119456200Y-53924200D01*
G37*
%TD.AperFunction*%
%TA.AperFunction,Conductor*%
G36*
X124558116Y-53618405D02*
G01*
X124560880Y-53645623D01*
X124554964Y-54278535D01*
X124534653Y-54345388D01*
X124481424Y-54390647D01*
X124412176Y-54399944D01*
X124348894Y-54370326D01*
X124332215Y-54351655D01*
X124332194Y-54351674D01*
X124331610Y-54350978D01*
X124329390Y-54348493D01*
X124328712Y-54347525D01*
X124328708Y-54347520D01*
X124161682Y-54180494D01*
X123968178Y-54044999D01*
X123850475Y-53990114D01*
X124536200Y-54000400D01*
X124536200Y-53578033D01*
X124558116Y-53618405D01*
G37*
%TD.AperFunction*%
%TD*%
%TA.AperFunction,Conductor*%
%TO.N,3.3V*%
G36*
X115848112Y-55718107D02*
G01*
X115900915Y-55763862D01*
X115920600Y-55830901D01*
X115920600Y-56549233D01*
X116134083Y-56492033D01*
X116134092Y-56492029D01*
X116348178Y-56392200D01*
X116541682Y-56256705D01*
X116708705Y-56089682D01*
X116838719Y-55904005D01*
X116893296Y-55860381D01*
X116962795Y-55853188D01*
X117025149Y-55884710D01*
X117041869Y-55904005D01*
X117164473Y-56079101D01*
X117186800Y-56145307D01*
X117186896Y-56149555D01*
X117194926Y-57634930D01*
X117175604Y-57702075D01*
X117123048Y-57748114D01*
X117070928Y-57759600D01*
X114196270Y-57759600D01*
X114129231Y-57739915D01*
X114083476Y-57687111D01*
X114072273Y-57634733D01*
X114082114Y-56227476D01*
X114102266Y-56160580D01*
X114118425Y-56140670D01*
X114169095Y-56090001D01*
X114299330Y-55904005D01*
X114353907Y-55860381D01*
X114423405Y-55853187D01*
X114485760Y-55884710D01*
X114502479Y-55904005D01*
X114632490Y-56089678D01*
X114799517Y-56256705D01*
X114993021Y-56392200D01*
X115207107Y-56492029D01*
X115207116Y-56492033D01*
X115420598Y-56549235D01*
X115420599Y-56549234D01*
X115420599Y-55830901D01*
X115440284Y-55763862D01*
X115493088Y-55718107D01*
X115562246Y-55708163D01*
X115568980Y-55709131D01*
X115634837Y-55718600D01*
X115634838Y-55718600D01*
X115706362Y-55718600D01*
X115706363Y-55718600D01*
X115778953Y-55708163D01*
X115848112Y-55718107D01*
G37*
%TD.AperFunction*%
%TA.AperFunction,Conductor*%
G36*
X124414898Y-51711763D02*
G01*
X124481491Y-51732899D01*
X124526087Y-51786685D01*
X124536200Y-51835732D01*
X124536200Y-54000400D01*
X123850475Y-53990114D01*
X123754092Y-53945170D01*
X123754086Y-53945167D01*
X123540599Y-53887964D01*
X123540598Y-53887964D01*
X123540598Y-53985465D01*
X123040600Y-53977966D01*
X123040600Y-53887964D01*
X123040599Y-53887964D01*
X122827113Y-53945167D01*
X122827107Y-53945170D01*
X122765620Y-53973841D01*
X121226053Y-53950747D01*
X121214092Y-53945170D01*
X121214086Y-53945167D01*
X121000600Y-53887964D01*
X121000600Y-53947366D01*
X120500598Y-53939865D01*
X120500598Y-53887964D01*
X120317168Y-53937114D01*
X119456200Y-53924200D01*
X119456200Y-53035200D01*
X119456199Y-53035200D01*
X117170199Y-53060599D01*
X117176902Y-54300578D01*
X117157580Y-54367723D01*
X117154479Y-54372372D01*
X117041869Y-54533195D01*
X116987292Y-54576819D01*
X116917793Y-54584012D01*
X116855439Y-54552490D01*
X116838719Y-54533194D01*
X116708713Y-54347526D01*
X116708708Y-54347520D01*
X116541682Y-54180494D01*
X116348178Y-54044999D01*
X116134092Y-53945170D01*
X116134086Y-53945167D01*
X115920600Y-53887964D01*
X115920600Y-54606298D01*
X115900915Y-54673337D01*
X115848111Y-54719092D01*
X115778955Y-54729036D01*
X115706366Y-54718600D01*
X115706363Y-54718600D01*
X115634837Y-54718600D01*
X115634833Y-54718600D01*
X115562244Y-54729036D01*
X115493086Y-54719092D01*
X115440283Y-54673336D01*
X115420599Y-54606298D01*
X115420599Y-53887964D01*
X115420598Y-53887964D01*
X115207105Y-53945170D01*
X114993022Y-54044999D01*
X114993020Y-54045000D01*
X114799526Y-54180486D01*
X114799520Y-54180491D01*
X114632491Y-54347520D01*
X114632490Y-54347522D01*
X114502480Y-54533195D01*
X114447903Y-54576819D01*
X114378404Y-54584012D01*
X114316050Y-54552490D01*
X114299330Y-54533194D01*
X114169094Y-54347197D01*
X114132454Y-54310558D01*
X114098968Y-54249236D01*
X114096138Y-54222019D01*
X114096800Y-54127400D01*
X114096800Y-53873400D01*
X114024773Y-51616567D01*
X114042309Y-51548936D01*
X114093627Y-51501520D01*
X114151402Y-51488643D01*
X124414898Y-51711763D01*
G37*
%TD.AperFunction*%
%TD*%
%TA.AperFunction,Conductor*%
%TO.N,5V*%
G36*
X113336803Y-68481371D02*
G01*
X113374577Y-68540149D01*
X113379128Y-68564277D01*
X113385430Y-68636315D01*
X113385432Y-68636326D01*
X113446566Y-68864483D01*
X113446570Y-68864492D01*
X113546400Y-69078579D01*
X113546402Y-69078583D01*
X113605072Y-69162373D01*
X113605073Y-69162373D01*
X114111050Y-68656395D01*
X114172373Y-68622910D01*
X114242064Y-68627894D01*
X114297998Y-68669765D01*
X114303039Y-68677025D01*
X114303048Y-68677039D01*
X114338239Y-68731798D01*
X114453602Y-68831759D01*
X114451293Y-68834422D01*
X114486006Y-68874499D01*
X114495935Y-68943660D01*
X114466898Y-69007210D01*
X114460882Y-69013669D01*
X113965670Y-69508881D01*
X113904347Y-69542366D01*
X113877989Y-69545200D01*
X113255600Y-69545200D01*
X113188561Y-69525515D01*
X113142806Y-69472711D01*
X113131600Y-69421200D01*
X113131600Y-68575084D01*
X113151285Y-68508045D01*
X113204089Y-68462290D01*
X113273247Y-68452346D01*
X113336803Y-68481371D01*
G37*
%TD.AperFunction*%
%TA.AperFunction,Conductor*%
G36*
X103148110Y-55718107D02*
G01*
X103200914Y-55763861D01*
X103220599Y-55830901D01*
X103220599Y-56549233D01*
X103434083Y-56492033D01*
X103434092Y-56492029D01*
X103648178Y-56392200D01*
X103841682Y-56256705D01*
X104008705Y-56089682D01*
X104069566Y-56002765D01*
X104124143Y-55959141D01*
X104193642Y-55951948D01*
X104255996Y-55983470D01*
X104291410Y-56043700D01*
X104295133Y-56072496D01*
X104317799Y-58089799D01*
X104317800Y-58089800D01*
X113722707Y-58089800D01*
X113789746Y-58109485D01*
X113803910Y-58120088D01*
X113855930Y-58165164D01*
X113855931Y-58165165D01*
X113855934Y-58165167D01*
X113855936Y-58165168D01*
X113855938Y-58165169D01*
X113961820Y-58213525D01*
X113986811Y-58224938D01*
X114031627Y-58238097D01*
X114053845Y-58244622D01*
X114053850Y-58244623D01*
X114053854Y-58244624D01*
X114196270Y-58265100D01*
X114196273Y-58265100D01*
X117070928Y-58265100D01*
X117179718Y-58253255D01*
X117231838Y-58241769D01*
X117335519Y-58206793D01*
X117456137Y-58128353D01*
X117465072Y-58120525D01*
X117528470Y-58091159D01*
X117546778Y-58089800D01*
X118951474Y-58089800D01*
X119018513Y-58109485D01*
X119064268Y-58162289D01*
X119075474Y-58213525D01*
X119100324Y-69420925D01*
X119080788Y-69488008D01*
X119028085Y-69533880D01*
X118976324Y-69545200D01*
X115562009Y-69545200D01*
X115494970Y-69525515D01*
X115474328Y-69508881D01*
X114979116Y-69013669D01*
X114945631Y-68952346D01*
X114950615Y-68882654D01*
X114987641Y-68833193D01*
X114986398Y-68831759D01*
X114993100Y-68825952D01*
X115101761Y-68731798D01*
X115136954Y-68677037D01*
X115189755Y-68631283D01*
X115258914Y-68621339D01*
X115322470Y-68650363D01*
X115328949Y-68656396D01*
X115834925Y-69162373D01*
X115834926Y-69162373D01*
X115893598Y-69078582D01*
X115893600Y-69078578D01*
X115993429Y-68864492D01*
X115993433Y-68864483D01*
X116054567Y-68636326D01*
X116054569Y-68636315D01*
X116075157Y-68401001D01*
X116075157Y-68400998D01*
X116054569Y-68165684D01*
X116054567Y-68165673D01*
X115993433Y-67937516D01*
X115993429Y-67937507D01*
X115893600Y-67723423D01*
X115893599Y-67723421D01*
X115834925Y-67639626D01*
X115834925Y-67639625D01*
X115328949Y-68145602D01*
X115267626Y-68179087D01*
X115197934Y-68174103D01*
X115142001Y-68132231D01*
X115136953Y-68124961D01*
X115101761Y-68070202D01*
X114986398Y-67970241D01*
X114988708Y-67967574D01*
X114954005Y-67927528D01*
X114944058Y-67858370D01*
X114973080Y-67794813D01*
X114979116Y-67788330D01*
X115481373Y-67286073D01*
X115477483Y-67241608D01*
X115491250Y-67173108D01*
X115539865Y-67122924D01*
X115601011Y-67106800D01*
X116865400Y-67106800D01*
X116865488Y-67081487D01*
X116890801Y-59817000D01*
X116890800Y-59817000D01*
X98980800Y-59817000D01*
X98913761Y-59797315D01*
X98868006Y-59744511D01*
X98856800Y-59693000D01*
X98856800Y-56246067D01*
X98876485Y-56179028D01*
X98929289Y-56133273D01*
X98998447Y-56123329D01*
X99062003Y-56152354D01*
X99096982Y-56202734D01*
X99137245Y-56310686D01*
X99137249Y-56310693D01*
X99223409Y-56425787D01*
X99223412Y-56425790D01*
X99338506Y-56511950D01*
X99338513Y-56511954D01*
X99473220Y-56562196D01*
X99473227Y-56562198D01*
X99532755Y-56568599D01*
X99532772Y-56568600D01*
X100180600Y-56568600D01*
X100180600Y-55830901D01*
X100200285Y-55763862D01*
X100253089Y-55718107D01*
X100322247Y-55708163D01*
X100394837Y-55718600D01*
X100394838Y-55718600D01*
X100466362Y-55718600D01*
X100466363Y-55718600D01*
X100538953Y-55708163D01*
X100608112Y-55718107D01*
X100660915Y-55763862D01*
X100680600Y-55830901D01*
X100680600Y-56568600D01*
X101328428Y-56568600D01*
X101328444Y-56568599D01*
X101387972Y-56562198D01*
X101387979Y-56562196D01*
X101522686Y-56511954D01*
X101522693Y-56511950D01*
X101637787Y-56425790D01*
X101637790Y-56425787D01*
X101723950Y-56310693D01*
X101723954Y-56310686D01*
X101773214Y-56178613D01*
X101815085Y-56122679D01*
X101880549Y-56098262D01*
X101948822Y-56113113D01*
X101977077Y-56134265D01*
X102099517Y-56256705D01*
X102293021Y-56392200D01*
X102507107Y-56492029D01*
X102507116Y-56492033D01*
X102720600Y-56549234D01*
X102720600Y-55830901D01*
X102740285Y-55763862D01*
X102793089Y-55718107D01*
X102862247Y-55708163D01*
X102934837Y-55718600D01*
X102934838Y-55718600D01*
X103006362Y-55718600D01*
X103006363Y-55718600D01*
X103078952Y-55708163D01*
X103148110Y-55718107D01*
G37*
%TD.AperFunction*%
%TA.AperFunction,Conductor*%
G36*
X113906027Y-67126485D02*
G01*
X113951782Y-67179289D01*
X113962516Y-67241608D01*
X113958625Y-67286072D01*
X114460883Y-67788330D01*
X114494368Y-67849653D01*
X114489384Y-67919345D01*
X114452357Y-67968805D01*
X114453602Y-67970241D01*
X114338238Y-68070202D01*
X114303046Y-68124962D01*
X114250242Y-68170717D01*
X114181083Y-68180660D01*
X114117528Y-68151634D01*
X114111050Y-68145603D01*
X113605072Y-67639625D01*
X113546401Y-67723419D01*
X113446570Y-67937507D01*
X113446566Y-67937516D01*
X113385432Y-68165673D01*
X113385430Y-68165683D01*
X113379128Y-68237723D01*
X113353675Y-68302791D01*
X113297085Y-68343770D01*
X113227323Y-68347648D01*
X113166538Y-68313194D01*
X113134031Y-68251347D01*
X113131600Y-68226915D01*
X113131600Y-67230800D01*
X113151285Y-67163761D01*
X113204089Y-67118006D01*
X113255600Y-67106800D01*
X113838988Y-67106800D01*
X113906027Y-67126485D01*
G37*
%TD.AperFunction*%
%TA.AperFunction,Conductor*%
G36*
X102424292Y-54988285D02*
G01*
X102470047Y-55041089D01*
X102479991Y-55110247D01*
X102476231Y-55127533D01*
X102470600Y-55146711D01*
X102470600Y-55290488D01*
X102476231Y-55309667D01*
X102476230Y-55379536D01*
X102438455Y-55438314D01*
X102374899Y-55467338D01*
X102357253Y-55468600D01*
X101043947Y-55468600D01*
X100976908Y-55448915D01*
X100931153Y-55396111D01*
X100921209Y-55326953D01*
X100924969Y-55309667D01*
X100930600Y-55290488D01*
X100930600Y-55146711D01*
X100924969Y-55127533D01*
X100924970Y-55057664D01*
X100962745Y-54998886D01*
X101026301Y-54969862D01*
X101043947Y-54968600D01*
X102357253Y-54968600D01*
X102424292Y-54988285D01*
G37*
%TD.AperFunction*%
%TA.AperFunction,Conductor*%
G36*
X104275599Y-54334020D02*
G01*
X104256669Y-54401276D01*
X104204382Y-54447622D01*
X104135340Y-54458341D01*
X104071462Y-54430032D01*
X104050032Y-54406536D01*
X104008713Y-54347526D01*
X104008708Y-54347520D01*
X103841682Y-54180494D01*
X103648178Y-54044999D01*
X103434092Y-53945170D01*
X103434086Y-53945167D01*
X103220599Y-53887964D01*
X103220599Y-54606298D01*
X103200914Y-54673337D01*
X103148110Y-54719092D01*
X103078953Y-54729036D01*
X103006364Y-54718600D01*
X103006363Y-54718600D01*
X102934837Y-54718600D01*
X102934833Y-54718600D01*
X102862245Y-54729036D01*
X102793087Y-54719092D01*
X102740284Y-54673336D01*
X102720600Y-54606298D01*
X102720600Y-53887964D01*
X102720599Y-53887964D01*
X102507113Y-53945167D01*
X102507107Y-53945170D01*
X102293022Y-54044999D01*
X102293020Y-54045000D01*
X102099526Y-54180486D01*
X101977077Y-54302935D01*
X101915754Y-54336419D01*
X101846062Y-54331435D01*
X101790129Y-54289563D01*
X101773214Y-54258586D01*
X101723954Y-54126513D01*
X101723950Y-54126506D01*
X101637790Y-54011412D01*
X101637787Y-54011409D01*
X101522693Y-53925249D01*
X101522686Y-53925245D01*
X101387979Y-53875003D01*
X101387972Y-53875001D01*
X101328444Y-53868600D01*
X100680600Y-53868600D01*
X100680600Y-54606298D01*
X100660915Y-54673337D01*
X100608111Y-54719092D01*
X100538955Y-54729036D01*
X100466366Y-54718600D01*
X100466363Y-54718600D01*
X100394837Y-54718600D01*
X100394833Y-54718600D01*
X100322245Y-54729036D01*
X100253087Y-54719092D01*
X100200284Y-54673336D01*
X100180600Y-54606298D01*
X100180600Y-53868600D01*
X99532755Y-53868600D01*
X99473227Y-53875001D01*
X99473220Y-53875003D01*
X99338513Y-53925245D01*
X99338506Y-53925249D01*
X99223412Y-54011409D01*
X99223409Y-54011412D01*
X99137249Y-54126506D01*
X99137245Y-54126513D01*
X99096982Y-54234465D01*
X99055111Y-54290399D01*
X98989646Y-54314816D01*
X98921373Y-54299964D01*
X98871968Y-54250559D01*
X98856800Y-54191132D01*
X98856800Y-53797200D01*
X104269568Y-53797200D01*
X104275599Y-54334020D01*
G37*
%TD.AperFunction*%
%TD*%
%TA.AperFunction,Conductor*%
%TO.N,5V*%
G36*
X138000258Y-49579911D02*
G01*
X138067154Y-49600072D01*
X138112533Y-49653200D01*
X138123362Y-49705731D01*
X138025457Y-56363283D01*
X138004788Y-56430026D01*
X137951317Y-56475000D01*
X137897339Y-56485391D01*
X137261600Y-56464200D01*
X136958479Y-56455779D01*
X136892012Y-56434241D01*
X136847741Y-56380186D01*
X136839722Y-56310779D01*
X136870500Y-56248053D01*
X136874241Y-56244145D01*
X137028708Y-56089678D01*
X137164200Y-55896178D01*
X137264029Y-55682092D01*
X137264032Y-55682086D01*
X137321236Y-55468600D01*
X136603947Y-55468600D01*
X136536908Y-55448915D01*
X136491153Y-55396111D01*
X136481209Y-55326953D01*
X136484969Y-55309667D01*
X136490600Y-55290488D01*
X136490600Y-55146711D01*
X136484969Y-55127533D01*
X136484970Y-55057664D01*
X136522745Y-54998886D01*
X136586301Y-54969862D01*
X136603947Y-54968600D01*
X137321236Y-54968600D01*
X137321235Y-54968599D01*
X137264032Y-54755113D01*
X137264029Y-54755107D01*
X137164200Y-54541022D01*
X137164199Y-54541020D01*
X137028713Y-54347526D01*
X137028708Y-54347520D01*
X136861682Y-54180494D01*
X136668178Y-54044999D01*
X136454092Y-53945170D01*
X136454086Y-53945167D01*
X136240600Y-53887964D01*
X136240600Y-54606298D01*
X136220915Y-54673337D01*
X136168111Y-54719092D01*
X136098955Y-54729036D01*
X136026366Y-54718600D01*
X136026363Y-54718600D01*
X135954837Y-54718600D01*
X135954833Y-54718600D01*
X135882245Y-54729036D01*
X135813087Y-54719092D01*
X135760284Y-54673336D01*
X135740600Y-54606298D01*
X135740600Y-53887964D01*
X135740599Y-53887964D01*
X135527113Y-53945167D01*
X135527107Y-53945170D01*
X135313022Y-54044999D01*
X135313020Y-54045000D01*
X135119526Y-54180486D01*
X135119520Y-54180491D01*
X134952491Y-54347520D01*
X134952490Y-54347522D01*
X134822480Y-54533195D01*
X134767903Y-54576819D01*
X134698404Y-54584012D01*
X134636050Y-54552490D01*
X134619330Y-54533195D01*
X134599239Y-54504502D01*
X134530663Y-54406564D01*
X134508337Y-54340360D01*
X134508242Y-54336106D01*
X134493000Y-51257200D01*
X134492999Y-51257199D01*
X124777802Y-51306348D01*
X124723226Y-51293999D01*
X124634417Y-51251086D01*
X124634414Y-51251085D01*
X124567821Y-51229949D01*
X124567819Y-51229948D01*
X124567817Y-51229948D01*
X124425899Y-51206383D01*
X124425888Y-51206382D01*
X114162391Y-50983262D01*
X114162390Y-50983262D01*
X114162389Y-50983262D01*
X114114006Y-50988056D01*
X114041431Y-50995249D01*
X113983663Y-51008125D01*
X113983659Y-51008126D01*
X113869076Y-51048633D01*
X113796991Y-51098277D01*
X113750574Y-51130244D01*
X113699262Y-51177655D01*
X113608554Y-51289344D01*
X113604003Y-51296950D01*
X113602373Y-51295974D01*
X113565351Y-51341556D01*
X113498972Y-51363364D01*
X113495652Y-51363425D01*
X104368600Y-51409600D01*
X104317800Y-51409600D01*
X104389916Y-53669245D01*
X104372380Y-53736878D01*
X104321062Y-53784294D01*
X104270651Y-53796105D01*
X104269568Y-53797200D01*
X98856800Y-53797200D01*
X98856800Y-53568600D01*
X98832147Y-49427025D01*
X98851432Y-49359873D01*
X98903963Y-49313804D01*
X98957025Y-49302293D01*
X138000258Y-49579911D01*
G37*
%TD.AperFunction*%
%TD*%
M02*
