M48
; DRILL file {KiCad 7.0.7} date Mon Apr  1 01:38:18 2024
; FORMAT={-:-/ absolute / metric / decimal}
; #@! TF.CreationDate,2024-04-01T01:38:18+05:30
; #@! TF.GenerationSoftware,Kicad,Pcbnew,7.0.7
; #@! TF.FileFunction,Plated,1,2,PTH
FMAT,2
METRIC
; #@! TA.AperFunction,Plated,PTH,ViaDrill
T1C0.400
; #@! TA.AperFunction,Plated,PTH,ComponentDrill
T2C0.800
; #@! TA.AperFunction,Plated,PTH,ComponentDrill
T3C1.000
; #@! TA.AperFunction,Plated,PTH,ComponentDrill
T4C2.489
; #@! TA.AperFunction,Plated,PTH,ComponentDrill
T5C8.400
%
G90
G05
T1
X95.479Y-102.641
X96.037Y-114.351
X102.083Y-93.523
X102.21Y-73.381
X106.362Y-95.085
X106.477Y-75.895
X107.621Y-81.101
X108.991Y-107.213
X109.398Y-94.564
X109.499Y-86.563
X109.88Y-79.527
X112.243Y-93.599
X118.847Y-76.2
X119.177Y-108.153
X119.202Y-86.081
X120.066Y-94.31
X120.791Y-105.701
X121.844Y-104.775
X127.711Y-93.497
X129.184Y-92.913
X130.429Y-91.669
X132.131Y-83.922
X132.232Y-77.038
X132.715Y-89.281
X139.395Y-97.536
X139.776Y-111.836
X142.316Y-85.522
X142.748Y-84.43
X142.824Y-81.966
X143.815Y-78.994
T2
X123.435Y-59.885
X123.435Y-62.425
X123.435Y-64.965
X123.435Y-67.505
X123.435Y-70.045
X123.435Y-72.585
X123.435Y-75.125
X123.435Y-77.665
X123.435Y-80.205
X123.435Y-82.745
X123.435Y-85.285
X123.435Y-87.825
X138.675Y-59.885
X138.675Y-62.425
X138.675Y-64.965
X138.675Y-67.505
X138.675Y-70.045
X138.675Y-72.585
X138.675Y-75.125
X138.675Y-77.665
X138.675Y-80.205
X138.675Y-82.745
X138.675Y-85.285
X138.675Y-87.825
T3
X90.006Y-65.604
X90.006Y-68.144
X90.006Y-70.684
X90.006Y-73.224
X90.006Y-75.764
X90.006Y-78.304
X90.006Y-80.844
X90.006Y-83.384
X90.006Y-85.924
X90.006Y-88.464
X90.006Y-91.004
X90.006Y-93.544
X90.006Y-96.084
X90.006Y-98.624
X90.006Y-101.164
X99.48Y-63.321
X99.48Y-65.861
X99.48Y-68.401
X99.48Y-70.941
X99.48Y-73.481
X99.48Y-76.021
X99.48Y-78.561
X99.48Y-81.101
X99.48Y-83.641
X99.48Y-86.181
X99.48Y-88.721
X99.48Y-91.261
X99.48Y-93.801
X99.48Y-96.341
X99.48Y-98.881
X99.48Y-101.421
X99.48Y-103.961
X99.48Y-106.501
X99.48Y-109.041
X99.48Y-111.581
X100.431Y-55.219
X102.971Y-55.219
X103.29Y-67.295
X105.511Y-55.219
X105.83Y-67.295
X108.051Y-55.219
X108.37Y-67.295
X110.591Y-55.219
X110.91Y-67.295
X113.131Y-55.219
X114.72Y-63.321
X114.72Y-65.861
X114.72Y-68.401
X114.72Y-70.941
X114.72Y-73.481
X114.72Y-76.021
X114.72Y-78.561
X114.72Y-81.101
X114.72Y-83.641
X114.72Y-86.181
X114.72Y-88.721
X114.72Y-91.261
X114.72Y-93.801
X114.72Y-96.341
X114.72Y-98.881
X114.72Y-101.421
X114.72Y-103.961
X114.72Y-106.501
X114.72Y-109.041
X114.72Y-111.581
X115.671Y-55.219
X118.211Y-55.219
X120.751Y-55.219
X123.291Y-55.219
X123.6Y-94.56
X123.6Y-97.1
X123.6Y-99.64
X123.6Y-102.18
X123.6Y-104.72
X123.6Y-107.26
X123.6Y-109.8
X123.6Y-112.34
X125.831Y-55.219
X128.371Y-55.219
X130.911Y-55.219
X133.451Y-55.219
X135.991Y-55.219
X146.406Y-65.634
X146.406Y-68.174
X146.406Y-70.714
X146.406Y-73.254
X146.406Y-75.794
X146.406Y-78.334
X146.406Y-80.874
X146.406Y-83.414
X146.406Y-85.954
X146.406Y-88.494
X146.406Y-91.034
X146.406Y-93.574
X146.406Y-96.114
X146.406Y-98.654
X146.406Y-101.194
T4
X136.3Y-93.29
X136.3Y-113.615
T5
X90.406Y-55.519
X90.406Y-111.219
X146.006Y-55.534
X146.006Y-111.219
T0
M30
