%TF.GenerationSoftware,KiCad,Pcbnew,7.0.7*%
%TF.CreationDate,2024-04-01T01:40:14+05:30*%
%TF.ProjectId,FC_THT_STACK_2,46435f54-4854-45f5-9354-41434b5f322e,rev?*%
%TF.SameCoordinates,Original*%
%TF.FileFunction,Legend,Bot*%
%TF.FilePolarity,Positive*%
%FSLAX46Y46*%
G04 Gerber Fmt 4.6, Leading zero omitted, Abs format (unit mm)*
G04 Created by KiCad (PCBNEW 7.0.7) date 2024-04-01 01:40:14*
%MOMM*%
%LPD*%
G01*
G04 APERTURE LIST*
%ADD10C,0.150000*%
G04 APERTURE END LIST*
D10*
G36*
X116253154Y-65614000D02*
G01*
X115908772Y-65614000D01*
X115888259Y-65613633D01*
X115868192Y-65612534D01*
X115848572Y-65610702D01*
X115829399Y-65608138D01*
X115810672Y-65604840D01*
X115792392Y-65600810D01*
X115774558Y-65596048D01*
X115757170Y-65590552D01*
X115740229Y-65584324D01*
X115723735Y-65577363D01*
X115707687Y-65569669D01*
X115692086Y-65561243D01*
X115676931Y-65552084D01*
X115662222Y-65542192D01*
X115647960Y-65531568D01*
X115634145Y-65520210D01*
X115620978Y-65508224D01*
X115608660Y-65495787D01*
X115597192Y-65482899D01*
X115586573Y-65469560D01*
X115576803Y-65455770D01*
X115567884Y-65441529D01*
X115559813Y-65426837D01*
X115552592Y-65411693D01*
X115546221Y-65396099D01*
X115540699Y-65380053D01*
X115536027Y-65363556D01*
X115532204Y-65346609D01*
X115529231Y-65329210D01*
X115527107Y-65311360D01*
X115525833Y-65293059D01*
X115525408Y-65274307D01*
X115525441Y-65272548D01*
X115670488Y-65272548D01*
X115670554Y-65278789D01*
X115671078Y-65291021D01*
X115672127Y-65302919D01*
X115674683Y-65320139D01*
X115678419Y-65336606D01*
X115683335Y-65352322D01*
X115689431Y-65367285D01*
X115696706Y-65381496D01*
X115705162Y-65394954D01*
X115714797Y-65407661D01*
X115725612Y-65419615D01*
X115737606Y-65430817D01*
X115741855Y-65434370D01*
X115755247Y-65444350D01*
X115769607Y-65453315D01*
X115784936Y-65461266D01*
X115795693Y-65466002D01*
X115806881Y-65470287D01*
X115818500Y-65474122D01*
X115830548Y-65477505D01*
X115843028Y-65480437D01*
X115855937Y-65482918D01*
X115869278Y-65484948D01*
X115883048Y-65486526D01*
X115897250Y-65487654D01*
X115911881Y-65488331D01*
X115926943Y-65488556D01*
X116114815Y-65488556D01*
X116114815Y-65063281D01*
X115955666Y-65063281D01*
X115938121Y-65063485D01*
X115921133Y-65064098D01*
X115904702Y-65065120D01*
X115888828Y-65066551D01*
X115873511Y-65068390D01*
X115858750Y-65070638D01*
X115844547Y-65073294D01*
X115830901Y-65076360D01*
X115817812Y-65079834D01*
X115805280Y-65083717D01*
X115793304Y-65088009D01*
X115781886Y-65092709D01*
X115760720Y-65103336D01*
X115741783Y-65115598D01*
X115725073Y-65129494D01*
X115710592Y-65145026D01*
X115698338Y-65162192D01*
X115688312Y-65180994D01*
X115680514Y-65201430D01*
X115674944Y-65223501D01*
X115672995Y-65235150D01*
X115671602Y-65247207D01*
X115670767Y-65259673D01*
X115670488Y-65272548D01*
X115525441Y-65272548D01*
X115525689Y-65259244D01*
X115526530Y-65244539D01*
X115527933Y-65230192D01*
X115529896Y-65216201D01*
X115532421Y-65202568D01*
X115535506Y-65189292D01*
X115539153Y-65176373D01*
X115543360Y-65163811D01*
X115548128Y-65151607D01*
X115553458Y-65139759D01*
X115559348Y-65128269D01*
X115565800Y-65117136D01*
X115572812Y-65106361D01*
X115580386Y-65095942D01*
X115588520Y-65085881D01*
X115597216Y-65076177D01*
X115606343Y-65066859D01*
X115615845Y-65058028D01*
X115625723Y-65049685D01*
X115635977Y-65041830D01*
X115646606Y-65034463D01*
X115657611Y-65027583D01*
X115668991Y-65021191D01*
X115680747Y-65015287D01*
X115692878Y-65009871D01*
X115705385Y-65004942D01*
X115718267Y-65000501D01*
X115731525Y-64996547D01*
X115745158Y-64993082D01*
X115759167Y-64990104D01*
X115773551Y-64987614D01*
X115788311Y-64985612D01*
X115788311Y-64982387D01*
X115782379Y-64980386D01*
X115770757Y-64976131D01*
X115759454Y-64971543D01*
X115748472Y-64966620D01*
X115737811Y-64961362D01*
X115727471Y-64955771D01*
X115712561Y-64946756D01*
X115698372Y-64936990D01*
X115684905Y-64926471D01*
X115672159Y-64915200D01*
X115660134Y-64903177D01*
X115648831Y-64890402D01*
X115638248Y-64876875D01*
X115634894Y-64872215D01*
X115625471Y-64857929D01*
X115617007Y-64843185D01*
X115609500Y-64827982D01*
X115602952Y-64812321D01*
X115597362Y-64796201D01*
X115592730Y-64779623D01*
X115589057Y-64762586D01*
X115587141Y-64750974D01*
X115585650Y-64739157D01*
X115584816Y-64729743D01*
X115728814Y-64729743D01*
X115728877Y-64735927D01*
X115729388Y-64748033D01*
X115730409Y-64759789D01*
X115732899Y-64776766D01*
X115736537Y-64792954D01*
X115741324Y-64808354D01*
X115747260Y-64822966D01*
X115754345Y-64836790D01*
X115762578Y-64849825D01*
X115771961Y-64862072D01*
X115782493Y-64873531D01*
X115794173Y-64884202D01*
X115798287Y-64887556D01*
X115811200Y-64896979D01*
X115824968Y-64905444D01*
X115839591Y-64912950D01*
X115855069Y-64919498D01*
X115871403Y-64925088D01*
X115882767Y-64928282D01*
X115894511Y-64931051D01*
X115906635Y-64933393D01*
X115919140Y-64935310D01*
X115932024Y-64936800D01*
X115945289Y-64937865D01*
X115958934Y-64938504D01*
X115972959Y-64938717D01*
X116114815Y-64938717D01*
X116114815Y-64557698D01*
X115955666Y-64557698D01*
X115941710Y-64557866D01*
X115928196Y-64558370D01*
X115915125Y-64559210D01*
X115902498Y-64560386D01*
X115890313Y-64561898D01*
X115878572Y-64563746D01*
X115856418Y-64568451D01*
X115836037Y-64574499D01*
X115817428Y-64581892D01*
X115800591Y-64590628D01*
X115785527Y-64600709D01*
X115772235Y-64612134D01*
X115760715Y-64624903D01*
X115750967Y-64639016D01*
X115742992Y-64654473D01*
X115736789Y-64671274D01*
X115732358Y-64689420D01*
X115729700Y-64708909D01*
X115728814Y-64729743D01*
X115584816Y-64729743D01*
X115584585Y-64727137D01*
X115583946Y-64714913D01*
X115583733Y-64702485D01*
X115584085Y-64687606D01*
X115585139Y-64673084D01*
X115586897Y-64658920D01*
X115589357Y-64645113D01*
X115592520Y-64631662D01*
X115596387Y-64618569D01*
X115600956Y-64605834D01*
X115606228Y-64593455D01*
X115612203Y-64581434D01*
X115618881Y-64569770D01*
X115626263Y-64558463D01*
X115634347Y-64547513D01*
X115643134Y-64536921D01*
X115652624Y-64526685D01*
X115662817Y-64516807D01*
X115673712Y-64507286D01*
X115685172Y-64498200D01*
X115697128Y-64489701D01*
X115709581Y-64481787D01*
X115722530Y-64474460D01*
X115735977Y-64467719D01*
X115749921Y-64461564D01*
X115764361Y-64455995D01*
X115779299Y-64451013D01*
X115794733Y-64446616D01*
X115810664Y-64442806D01*
X115827092Y-64439582D01*
X115844017Y-64436944D01*
X115861439Y-64434893D01*
X115879357Y-64433427D01*
X115897773Y-64432548D01*
X115916685Y-64432255D01*
X116253154Y-64432255D01*
X116253154Y-65614000D01*
G37*
G36*
X114948580Y-64751255D02*
G01*
X114960706Y-64751604D01*
X114972673Y-64752187D01*
X114984480Y-64753002D01*
X115007619Y-64755332D01*
X115030120Y-64758594D01*
X115051985Y-64762788D01*
X115073214Y-64767913D01*
X115093806Y-64773971D01*
X115113761Y-64780960D01*
X115133080Y-64788882D01*
X115151762Y-64797735D01*
X115169808Y-64807521D01*
X115187217Y-64818238D01*
X115203990Y-64829887D01*
X115220126Y-64842468D01*
X115235625Y-64855982D01*
X115250488Y-64870427D01*
X115264543Y-64885701D01*
X115277691Y-64901700D01*
X115289932Y-64918426D01*
X115301266Y-64935878D01*
X115311694Y-64954055D01*
X115321215Y-64972958D01*
X115329829Y-64992587D01*
X115337537Y-65012942D01*
X115344337Y-65034023D01*
X115350231Y-65055830D01*
X115355218Y-65078362D01*
X115357372Y-65089901D01*
X115359299Y-65101621D01*
X115360999Y-65113522D01*
X115362472Y-65125605D01*
X115363719Y-65137869D01*
X115364739Y-65150315D01*
X115365533Y-65162942D01*
X115366099Y-65175751D01*
X115366439Y-65188741D01*
X115366553Y-65201913D01*
X115366444Y-65214020D01*
X115366116Y-65225976D01*
X115364808Y-65249440D01*
X115362627Y-65272303D01*
X115359573Y-65294566D01*
X115355648Y-65316230D01*
X115350849Y-65337294D01*
X115345179Y-65357757D01*
X115338636Y-65377621D01*
X115331220Y-65396885D01*
X115322932Y-65415549D01*
X115313772Y-65433613D01*
X115303739Y-65451077D01*
X115292834Y-65467942D01*
X115281057Y-65484206D01*
X115268407Y-65499870D01*
X115254885Y-65514935D01*
X115240631Y-65529202D01*
X115225786Y-65542549D01*
X115210351Y-65554976D01*
X115194325Y-65566482D01*
X115177708Y-65577068D01*
X115160500Y-65586733D01*
X115142702Y-65595477D01*
X115124313Y-65603302D01*
X115105333Y-65610205D01*
X115085762Y-65616189D01*
X115065600Y-65621251D01*
X115044848Y-65625393D01*
X115023505Y-65628615D01*
X115001571Y-65630916D01*
X114979047Y-65632297D01*
X114955932Y-65632757D01*
X114944009Y-65632639D01*
X114932239Y-65632283D01*
X114909156Y-65630861D01*
X114886682Y-65628491D01*
X114864817Y-65625174D01*
X114843561Y-65620908D01*
X114822914Y-65615694D01*
X114802876Y-65609532D01*
X114783447Y-65602422D01*
X114764628Y-65594365D01*
X114746417Y-65585359D01*
X114728815Y-65575405D01*
X114711823Y-65564504D01*
X114695440Y-65552654D01*
X114679665Y-65539857D01*
X114664500Y-65526111D01*
X114649944Y-65511418D01*
X114636102Y-65495937D01*
X114623154Y-65479832D01*
X114611098Y-65463102D01*
X114599935Y-65445747D01*
X114589666Y-65427766D01*
X114580289Y-65409161D01*
X114571805Y-65389930D01*
X114564215Y-65370074D01*
X114557517Y-65349593D01*
X114551713Y-65328487D01*
X114546801Y-65306756D01*
X114542783Y-65284400D01*
X114539657Y-65261419D01*
X114538429Y-65249693D01*
X114537424Y-65237812D01*
X114536643Y-65225774D01*
X114536085Y-65213581D01*
X114535750Y-65201230D01*
X114535683Y-65193706D01*
X114673978Y-65193706D01*
X114674254Y-65212919D01*
X114675081Y-65231575D01*
X114676461Y-65249674D01*
X114678392Y-65267217D01*
X114680876Y-65284204D01*
X114683911Y-65300634D01*
X114687498Y-65316508D01*
X114691636Y-65331826D01*
X114696327Y-65346587D01*
X114701569Y-65360791D01*
X114707364Y-65374440D01*
X114713710Y-65387531D01*
X114720608Y-65400067D01*
X114728058Y-65412046D01*
X114736059Y-65423468D01*
X114744613Y-65434334D01*
X114753642Y-65444592D01*
X114763146Y-65454187D01*
X114773124Y-65463120D01*
X114783575Y-65471392D01*
X114794501Y-65479002D01*
X114805901Y-65485951D01*
X114817774Y-65492237D01*
X114830122Y-65497862D01*
X114842944Y-65502825D01*
X114856239Y-65507126D01*
X114870009Y-65510766D01*
X114884252Y-65513744D01*
X114898970Y-65516060D01*
X114914161Y-65517714D01*
X114929827Y-65518707D01*
X114945966Y-65519038D01*
X114961847Y-65518701D01*
X114977323Y-65517691D01*
X114992393Y-65516009D01*
X115007058Y-65513652D01*
X115021317Y-65510623D01*
X115035172Y-65506920D01*
X115048621Y-65502545D01*
X115061664Y-65497496D01*
X115074303Y-65491774D01*
X115086536Y-65485378D01*
X115098364Y-65478310D01*
X115109786Y-65470568D01*
X115120803Y-65462153D01*
X115131415Y-65453065D01*
X115141622Y-65443304D01*
X115151424Y-65432869D01*
X115160687Y-65421815D01*
X115169352Y-65410269D01*
X115177420Y-65398230D01*
X115184891Y-65385700D01*
X115191764Y-65372676D01*
X115198039Y-65359161D01*
X115203716Y-65345153D01*
X115208796Y-65330653D01*
X115213278Y-65315661D01*
X115217163Y-65300176D01*
X115220450Y-65284200D01*
X115223139Y-65267730D01*
X115225231Y-65250769D01*
X115226725Y-65233315D01*
X115227622Y-65215369D01*
X115227920Y-65196930D01*
X115227624Y-65177775D01*
X115226734Y-65159145D01*
X115225252Y-65141038D01*
X115223176Y-65123456D01*
X115220507Y-65106398D01*
X115217245Y-65089865D01*
X115213391Y-65073856D01*
X115208943Y-65058371D01*
X115203902Y-65043411D01*
X115198268Y-65028975D01*
X115192041Y-65015064D01*
X115185221Y-65001677D01*
X115177807Y-64988814D01*
X115169801Y-64976475D01*
X115161202Y-64964661D01*
X115152010Y-64953371D01*
X115142309Y-64942653D01*
X115132185Y-64932626D01*
X115121637Y-64923291D01*
X115110665Y-64914647D01*
X115099270Y-64906694D01*
X115087452Y-64899433D01*
X115075209Y-64892864D01*
X115062544Y-64886986D01*
X115049454Y-64881800D01*
X115035941Y-64877305D01*
X115022004Y-64873502D01*
X115007644Y-64870390D01*
X114992860Y-64867970D01*
X114977652Y-64866241D01*
X114962021Y-64865204D01*
X114945966Y-64864858D01*
X114929827Y-64865192D01*
X114914161Y-64866195D01*
X114898970Y-64867867D01*
X114884252Y-64870207D01*
X114870009Y-64873216D01*
X114856239Y-64876893D01*
X114842944Y-64881239D01*
X114830122Y-64886254D01*
X114817774Y-64891937D01*
X114805901Y-64898289D01*
X114794501Y-64905309D01*
X114783575Y-64912998D01*
X114773124Y-64921356D01*
X114763146Y-64930382D01*
X114753642Y-64940077D01*
X114744613Y-64950441D01*
X114736059Y-64961386D01*
X114728058Y-64972899D01*
X114720608Y-64984980D01*
X114713710Y-64997628D01*
X114707364Y-65010845D01*
X114701569Y-65024629D01*
X114696327Y-65038982D01*
X114691636Y-65053902D01*
X114687498Y-65069390D01*
X114683911Y-65085446D01*
X114680876Y-65102070D01*
X114678392Y-65119261D01*
X114676461Y-65137021D01*
X114675081Y-65155348D01*
X114674254Y-65174243D01*
X114673978Y-65193706D01*
X114535683Y-65193706D01*
X114535638Y-65188724D01*
X114535742Y-65175952D01*
X114536053Y-65163357D01*
X114536571Y-65150937D01*
X114537296Y-65138692D01*
X114538229Y-65126624D01*
X114539368Y-65114731D01*
X114542270Y-65091472D01*
X114546000Y-65068917D01*
X114550559Y-65047065D01*
X114555946Y-65025915D01*
X114562163Y-65005468D01*
X114569209Y-64985725D01*
X114577083Y-64966684D01*
X114585787Y-64948347D01*
X114595319Y-64930712D01*
X114605680Y-64913780D01*
X114616871Y-64897551D01*
X114628890Y-64882025D01*
X114641738Y-64867203D01*
X114655287Y-64853148D01*
X114669485Y-64840000D01*
X114684331Y-64827759D01*
X114699825Y-64816424D01*
X114715966Y-64805997D01*
X114732756Y-64796476D01*
X114750194Y-64787862D01*
X114768280Y-64780154D01*
X114787014Y-64773354D01*
X114806395Y-64767460D01*
X114826425Y-64762473D01*
X114847103Y-64758392D01*
X114868429Y-64755219D01*
X114890403Y-64752952D01*
X114913025Y-64751592D01*
X114936294Y-64751138D01*
X114948580Y-64751255D01*
G37*
G36*
X114038774Y-64751458D02*
G01*
X114058628Y-64752416D01*
X114078186Y-64754013D01*
X114097448Y-64756249D01*
X114116416Y-64759124D01*
X114135088Y-64762638D01*
X114153464Y-64766790D01*
X114171546Y-64771581D01*
X114189331Y-64777012D01*
X114206822Y-64783081D01*
X114224017Y-64789789D01*
X114240917Y-64797135D01*
X114257521Y-64805121D01*
X114273830Y-64813745D01*
X114289844Y-64823009D01*
X114305562Y-64832911D01*
X114305562Y-64976233D01*
X114290095Y-64962746D01*
X114274398Y-64950129D01*
X114258469Y-64938383D01*
X114242309Y-64927506D01*
X114225918Y-64917500D01*
X114209295Y-64908364D01*
X114192441Y-64900098D01*
X114175356Y-64892702D01*
X114158039Y-64886176D01*
X114140492Y-64880520D01*
X114122713Y-64875734D01*
X114104702Y-64871819D01*
X114086461Y-64868773D01*
X114067988Y-64866598D01*
X114049284Y-64865293D01*
X114030349Y-64864858D01*
X114019638Y-64865058D01*
X113999236Y-64866661D01*
X113980194Y-64869867D01*
X113962512Y-64874675D01*
X113946191Y-64881087D01*
X113931230Y-64889101D01*
X113917628Y-64898718D01*
X113905387Y-64909938D01*
X113894506Y-64922761D01*
X113884985Y-64937186D01*
X113876824Y-64953215D01*
X113870024Y-64970846D01*
X113864583Y-64990080D01*
X113860503Y-65010917D01*
X113857783Y-65033357D01*
X113856933Y-65045178D01*
X113856423Y-65057399D01*
X113856253Y-65070022D01*
X114109190Y-65106072D01*
X114126339Y-65108723D01*
X114142943Y-65111766D01*
X114159003Y-65115201D01*
X114174518Y-65119028D01*
X114189489Y-65123247D01*
X114203915Y-65127858D01*
X114217797Y-65132862D01*
X114231135Y-65138257D01*
X114243928Y-65144045D01*
X114256177Y-65150225D01*
X114267881Y-65156797D01*
X114279041Y-65163761D01*
X114289657Y-65171117D01*
X114299728Y-65178865D01*
X114309255Y-65187006D01*
X114318238Y-65195538D01*
X114326676Y-65204463D01*
X114334570Y-65213780D01*
X114341919Y-65223489D01*
X114348724Y-65233590D01*
X114354985Y-65244083D01*
X114360701Y-65254968D01*
X114365872Y-65266246D01*
X114370500Y-65277915D01*
X114374583Y-65289977D01*
X114378121Y-65302431D01*
X114381115Y-65315277D01*
X114383565Y-65328515D01*
X114385471Y-65342145D01*
X114386832Y-65356167D01*
X114387648Y-65370582D01*
X114387920Y-65385388D01*
X114387642Y-65399210D01*
X114386808Y-65412687D01*
X114385416Y-65425818D01*
X114383469Y-65438603D01*
X114380965Y-65451042D01*
X114377905Y-65463135D01*
X114374288Y-65474883D01*
X114370115Y-65486285D01*
X114365386Y-65497341D01*
X114360100Y-65508052D01*
X114354257Y-65518416D01*
X114347858Y-65528435D01*
X114340903Y-65538108D01*
X114333392Y-65547436D01*
X114325324Y-65556417D01*
X114316699Y-65565053D01*
X114307547Y-65573252D01*
X114297969Y-65580921D01*
X114287965Y-65588062D01*
X114277535Y-65594674D01*
X114266679Y-65600757D01*
X114255397Y-65606310D01*
X114243690Y-65611335D01*
X114231556Y-65615831D01*
X114218997Y-65619798D01*
X114206011Y-65623236D01*
X114192600Y-65626146D01*
X114178763Y-65628526D01*
X114164500Y-65630377D01*
X114149811Y-65631699D01*
X114134696Y-65632493D01*
X114119156Y-65632757D01*
X114098048Y-65632165D01*
X114077592Y-65630390D01*
X114057785Y-65627430D01*
X114038629Y-65623287D01*
X114020123Y-65617960D01*
X114002267Y-65611449D01*
X113985062Y-65603754D01*
X113968507Y-65594875D01*
X113952602Y-65584813D01*
X113937347Y-65573567D01*
X113922743Y-65561137D01*
X113908789Y-65547523D01*
X113895486Y-65532725D01*
X113882832Y-65516744D01*
X113870829Y-65499578D01*
X113859477Y-65481229D01*
X113856253Y-65481229D01*
X113856253Y-65614000D01*
X113721137Y-65614000D01*
X113721137Y-65177879D01*
X113856253Y-65177879D01*
X113856253Y-65264048D01*
X113856509Y-65277711D01*
X113857278Y-65291077D01*
X113858561Y-65304145D01*
X113860356Y-65316915D01*
X113862664Y-65329387D01*
X113865485Y-65341562D01*
X113868819Y-65353439D01*
X113872666Y-65365018D01*
X113877025Y-65376300D01*
X113881898Y-65387284D01*
X113887284Y-65397971D01*
X113893182Y-65408359D01*
X113899593Y-65418450D01*
X113906518Y-65428244D01*
X113913955Y-65437739D01*
X113921905Y-65446937D01*
X113926024Y-65451373D01*
X113934469Y-65459823D01*
X113947651Y-65471440D01*
X113961452Y-65481791D01*
X113975870Y-65490874D01*
X113990907Y-65498689D01*
X114006563Y-65505237D01*
X114022836Y-65510518D01*
X114039728Y-65514532D01*
X114051332Y-65516503D01*
X114063212Y-65517911D01*
X114075366Y-65518756D01*
X114087795Y-65519038D01*
X114092346Y-65518999D01*
X114105660Y-65518410D01*
X114118463Y-65517116D01*
X114130757Y-65515117D01*
X114142540Y-65512411D01*
X114153814Y-65509000D01*
X114168051Y-65503353D01*
X114181383Y-65496452D01*
X114193807Y-65488295D01*
X114205324Y-65478884D01*
X114215628Y-65468484D01*
X114224559Y-65457360D01*
X114232115Y-65445513D01*
X114238297Y-65432942D01*
X114243106Y-65419648D01*
X114246540Y-65405630D01*
X114248601Y-65390888D01*
X114249288Y-65375423D01*
X114249102Y-65364749D01*
X114248122Y-65349516D01*
X114246302Y-65335215D01*
X114243643Y-65321846D01*
X114240144Y-65309410D01*
X114235805Y-65297906D01*
X114230626Y-65287335D01*
X114222415Y-65274691D01*
X114212711Y-65263705D01*
X114201514Y-65254376D01*
X114198483Y-65252253D01*
X114185454Y-65244168D01*
X114174733Y-65238531D01*
X114163198Y-65233260D01*
X114150848Y-65228354D01*
X114137685Y-65223814D01*
X114123708Y-65219640D01*
X114108916Y-65215832D01*
X114093311Y-65212390D01*
X114076891Y-65209313D01*
X114059658Y-65206602D01*
X113856253Y-65177879D01*
X113721137Y-65177879D01*
X113721137Y-65065625D01*
X113721428Y-65046277D01*
X113722299Y-65027543D01*
X113723752Y-65009423D01*
X113725786Y-64991918D01*
X113728400Y-64975026D01*
X113731596Y-64958749D01*
X113735373Y-64943086D01*
X113739730Y-64928037D01*
X113744669Y-64913603D01*
X113750189Y-64899783D01*
X113756290Y-64886577D01*
X113762972Y-64873985D01*
X113770234Y-64862007D01*
X113778078Y-64850644D01*
X113786503Y-64839895D01*
X113795509Y-64829760D01*
X113805096Y-64820240D01*
X113815264Y-64811333D01*
X113826013Y-64803041D01*
X113837344Y-64795363D01*
X113849255Y-64788299D01*
X113861747Y-64781850D01*
X113874820Y-64776015D01*
X113888474Y-64770794D01*
X113902710Y-64766187D01*
X113917526Y-64762195D01*
X113932923Y-64758816D01*
X113948901Y-64756052D01*
X113965461Y-64753902D01*
X113982601Y-64752367D01*
X114000323Y-64751445D01*
X114018625Y-64751138D01*
X114038774Y-64751458D01*
G37*
G36*
X113030321Y-64901201D02*
G01*
X113042169Y-64895797D01*
X113055549Y-64891309D01*
X113067355Y-64888378D01*
X113080141Y-64886034D01*
X113093907Y-64884275D01*
X113108653Y-64883103D01*
X113124379Y-64882517D01*
X113132610Y-64882443D01*
X113148574Y-64883159D01*
X113164044Y-64885308D01*
X113179019Y-64888888D01*
X113193500Y-64893901D01*
X113207486Y-64900347D01*
X113220977Y-64908224D01*
X113233974Y-64917534D01*
X113246476Y-64928275D01*
X113258483Y-64940450D01*
X113266214Y-64949361D01*
X113273724Y-64958910D01*
X113277397Y-64963923D01*
X113284424Y-64974302D01*
X113290998Y-64985144D01*
X113297119Y-64996449D01*
X113302786Y-65008216D01*
X113308000Y-65020446D01*
X113312760Y-65033138D01*
X113317067Y-65046293D01*
X113320921Y-65059910D01*
X113324321Y-65073990D01*
X113327268Y-65088532D01*
X113329762Y-65103537D01*
X113331802Y-65119005D01*
X113333389Y-65134935D01*
X113334522Y-65151327D01*
X113335202Y-65168182D01*
X113335429Y-65185500D01*
X113335429Y-65614000D01*
X113470544Y-65614000D01*
X113470544Y-64769896D01*
X113335429Y-64769896D01*
X113335429Y-64946630D01*
X113332205Y-64946630D01*
X113328460Y-64935249D01*
X113324479Y-64924186D01*
X113318066Y-64908188D01*
X113311122Y-64892906D01*
X113303647Y-64878341D01*
X113295642Y-64864491D01*
X113287106Y-64851358D01*
X113278039Y-64838941D01*
X113268442Y-64827240D01*
X113258314Y-64816255D01*
X113247655Y-64805986D01*
X113243985Y-64802722D01*
X113232708Y-64793504D01*
X113221189Y-64785192D01*
X113209428Y-64777787D01*
X113197424Y-64771288D01*
X113185179Y-64765697D01*
X113172691Y-64761012D01*
X113159961Y-64757234D01*
X113146990Y-64754362D01*
X113133776Y-64752398D01*
X113120319Y-64751340D01*
X113111214Y-64751138D01*
X113098410Y-64751317D01*
X113086375Y-64751853D01*
X113072413Y-64753025D01*
X113059653Y-64754755D01*
X113048095Y-64757043D01*
X113035813Y-64760526D01*
X113030321Y-64762569D01*
X113030321Y-64901201D01*
G37*
G36*
X112301403Y-64887719D02*
G01*
X112304627Y-64887719D01*
X112314889Y-64871180D01*
X112325894Y-64855708D01*
X112337641Y-64841303D01*
X112350129Y-64827965D01*
X112363359Y-64815694D01*
X112377332Y-64804490D01*
X112392046Y-64794353D01*
X112407502Y-64785284D01*
X112423700Y-64777281D01*
X112440639Y-64770345D01*
X112458321Y-64764476D01*
X112476745Y-64759675D01*
X112495910Y-64755940D01*
X112515817Y-64753272D01*
X112536466Y-64751672D01*
X112557858Y-64751138D01*
X112579529Y-64751631D01*
X112600653Y-64753108D01*
X112621231Y-64755569D01*
X112641260Y-64759015D01*
X112660743Y-64763446D01*
X112679678Y-64768861D01*
X112698066Y-64775261D01*
X112715907Y-64782646D01*
X112733201Y-64791015D01*
X112749947Y-64800369D01*
X112766146Y-64810707D01*
X112781798Y-64822030D01*
X112796902Y-64834337D01*
X112811459Y-64847630D01*
X112825469Y-64861906D01*
X112838932Y-64877168D01*
X112845424Y-64885107D01*
X112857789Y-64901472D01*
X112869329Y-64918485D01*
X112880045Y-64936146D01*
X112889937Y-64954455D01*
X112899005Y-64973412D01*
X112907248Y-64993017D01*
X112914667Y-65013271D01*
X112921261Y-65034172D01*
X112927031Y-65055721D01*
X112931977Y-65077918D01*
X112936099Y-65100763D01*
X112937851Y-65112428D01*
X112939396Y-65124256D01*
X112940736Y-65136246D01*
X112941869Y-65148397D01*
X112942796Y-65160711D01*
X112943518Y-65173186D01*
X112944033Y-65185824D01*
X112944342Y-65198623D01*
X112944445Y-65211585D01*
X112944352Y-65223687D01*
X112944073Y-65235629D01*
X112942957Y-65259034D01*
X112941096Y-65281800D01*
X112938492Y-65303927D01*
X112935143Y-65325416D01*
X112931050Y-65346265D01*
X112926213Y-65366476D01*
X112920631Y-65386048D01*
X112914306Y-65404981D01*
X112907236Y-65423275D01*
X112899422Y-65440930D01*
X112890864Y-65457947D01*
X112881562Y-65474324D01*
X112871516Y-65490063D01*
X112860725Y-65505163D01*
X112849190Y-65519624D01*
X112837034Y-65533324D01*
X112824378Y-65546140D01*
X112811224Y-65558072D01*
X112797570Y-65569120D01*
X112783417Y-65579284D01*
X112768764Y-65588565D01*
X112753613Y-65596961D01*
X112737962Y-65604474D01*
X112721812Y-65611103D01*
X112705163Y-65616848D01*
X112688015Y-65621709D01*
X112670368Y-65625687D01*
X112652222Y-65628780D01*
X112633576Y-65630990D01*
X112614431Y-65632315D01*
X112594787Y-65632757D01*
X112582632Y-65632598D01*
X112570676Y-65632121D01*
X112547361Y-65630211D01*
X112524844Y-65627028D01*
X112503123Y-65622572D01*
X112482199Y-65616843D01*
X112462072Y-65609841D01*
X112442741Y-65601566D01*
X112424208Y-65592018D01*
X112406471Y-65581196D01*
X112389531Y-65569102D01*
X112373389Y-65555734D01*
X112358042Y-65541093D01*
X112343493Y-65525179D01*
X112329741Y-65507992D01*
X112316785Y-65489532D01*
X112304627Y-65469799D01*
X112301403Y-65469799D01*
X112301403Y-65614000D01*
X112166287Y-65614000D01*
X112166287Y-65232101D01*
X112301403Y-65232101D01*
X112301678Y-65247468D01*
X112302506Y-65262500D01*
X112303886Y-65277199D01*
X112305817Y-65291562D01*
X112308301Y-65305592D01*
X112311336Y-65319287D01*
X112314923Y-65332648D01*
X112319061Y-65345674D01*
X112323752Y-65358367D01*
X112328994Y-65370724D01*
X112334789Y-65382748D01*
X112341135Y-65394437D01*
X112348033Y-65405792D01*
X112355483Y-65416813D01*
X112363484Y-65427499D01*
X112372038Y-65437852D01*
X112380996Y-65447683D01*
X112390287Y-65456880D01*
X112399910Y-65465442D01*
X112409865Y-65473371D01*
X112420152Y-65480665D01*
X112430770Y-65487324D01*
X112441721Y-65493350D01*
X112453004Y-65498741D01*
X112464619Y-65503498D01*
X112476566Y-65507621D01*
X112488845Y-65511110D01*
X112501456Y-65513964D01*
X112514399Y-65516184D01*
X112527674Y-65517769D01*
X112541281Y-65518721D01*
X112555220Y-65519038D01*
X112569363Y-65518709D01*
X112583141Y-65517724D01*
X112596556Y-65516081D01*
X112609607Y-65513781D01*
X112622293Y-65510823D01*
X112634615Y-65507209D01*
X112646574Y-65502937D01*
X112658168Y-65498009D01*
X112669398Y-65492423D01*
X112680264Y-65486180D01*
X112690767Y-65479279D01*
X112700904Y-65471722D01*
X112710678Y-65463507D01*
X112720088Y-65454636D01*
X112729134Y-65445107D01*
X112737816Y-65434921D01*
X112746050Y-65424131D01*
X112753753Y-65412866D01*
X112760924Y-65401124D01*
X112767564Y-65388905D01*
X112773674Y-65376211D01*
X112779251Y-65363040D01*
X112784298Y-65349393D01*
X112788814Y-65335270D01*
X112792798Y-65320670D01*
X112796251Y-65305594D01*
X112799173Y-65290042D01*
X112801563Y-65274013D01*
X112803422Y-65257509D01*
X112804750Y-65240528D01*
X112805547Y-65223071D01*
X112805813Y-65205137D01*
X112805536Y-65185477D01*
X112804705Y-65166357D01*
X112803319Y-65147778D01*
X112801380Y-65129739D01*
X112798886Y-65112241D01*
X112795839Y-65095283D01*
X112792237Y-65078865D01*
X112788081Y-65062988D01*
X112783371Y-65047651D01*
X112778107Y-65032854D01*
X112772288Y-65018598D01*
X112765916Y-65004882D01*
X112758989Y-64991707D01*
X112751509Y-64979072D01*
X112743474Y-64966977D01*
X112734885Y-64955423D01*
X112725814Y-64944456D01*
X112716333Y-64934197D01*
X112706442Y-64924645D01*
X112696142Y-64915801D01*
X112685431Y-64907664D01*
X112674311Y-64900235D01*
X112662781Y-64893513D01*
X112650841Y-64887499D01*
X112638491Y-64882193D01*
X112625731Y-64877594D01*
X112612561Y-64873702D01*
X112598982Y-64870518D01*
X112584993Y-64868042D01*
X112570593Y-64866273D01*
X112555784Y-64865212D01*
X112540565Y-64864858D01*
X112534098Y-64864927D01*
X112521378Y-64865479D01*
X112508945Y-64866582D01*
X112496798Y-64868238D01*
X112484936Y-64870445D01*
X112473362Y-64873204D01*
X112456536Y-64878378D01*
X112440355Y-64884793D01*
X112424817Y-64892450D01*
X112409923Y-64901348D01*
X112395674Y-64911488D01*
X112386532Y-64918938D01*
X112377676Y-64926939D01*
X112369107Y-64935493D01*
X112360908Y-64944445D01*
X112353239Y-64953642D01*
X112346098Y-64963084D01*
X112339486Y-64972770D01*
X112330560Y-64987760D01*
X112322825Y-65003301D01*
X112316279Y-65019393D01*
X112310923Y-65036037D01*
X112308014Y-65047439D01*
X112305634Y-65059086D01*
X112303783Y-65070978D01*
X112302460Y-65083115D01*
X112301667Y-65095497D01*
X112301403Y-65108124D01*
X112301403Y-65232101D01*
X112166287Y-65232101D01*
X112166287Y-64357224D01*
X112301403Y-64357224D01*
X112301403Y-64887719D01*
G37*
G36*
X111851507Y-64938717D02*
G01*
X111865304Y-64937738D01*
X111878339Y-64934801D01*
X111890611Y-64929907D01*
X111902120Y-64923055D01*
X111912868Y-64914245D01*
X111916280Y-64910873D01*
X111923964Y-64901900D01*
X111931465Y-64890415D01*
X111937091Y-64878146D01*
X111940842Y-64865094D01*
X111942717Y-64851259D01*
X111942952Y-64844048D01*
X111942301Y-64832245D01*
X111939800Y-64818836D01*
X111935424Y-64806251D01*
X111929173Y-64794491D01*
X111921047Y-64783555D01*
X111916280Y-64778396D01*
X111905788Y-64769133D01*
X111894532Y-64761786D01*
X111882514Y-64756356D01*
X111869734Y-64752842D01*
X111856191Y-64751245D01*
X111851507Y-64751138D01*
X111839696Y-64751804D01*
X111826260Y-64754359D01*
X111813627Y-64758831D01*
X111801798Y-64765220D01*
X111790773Y-64773525D01*
X111785562Y-64778396D01*
X111777709Y-64787108D01*
X111770043Y-64798319D01*
X111764293Y-64810354D01*
X111760460Y-64823214D01*
X111758544Y-64836897D01*
X111758304Y-64844048D01*
X111758970Y-64855958D01*
X111761525Y-64869532D01*
X111765997Y-64882323D01*
X111772385Y-64894330D01*
X111780690Y-64905555D01*
X111785562Y-64910873D01*
X111794359Y-64918895D01*
X111805652Y-64926726D01*
X111817749Y-64932599D01*
X111830649Y-64936514D01*
X111844354Y-64938472D01*
X111851507Y-64938717D01*
G37*
G36*
X111851507Y-65632757D02*
G01*
X111865304Y-65631789D01*
X111878339Y-65628883D01*
X111890611Y-65624040D01*
X111902120Y-65617260D01*
X111912868Y-65608543D01*
X111916280Y-65605207D01*
X111923964Y-65596332D01*
X111931465Y-65584984D01*
X111937091Y-65572874D01*
X111940842Y-65560001D01*
X111942717Y-65546365D01*
X111942952Y-65539261D01*
X111942014Y-65525334D01*
X111939201Y-65512127D01*
X111934513Y-65499642D01*
X111927949Y-65487879D01*
X111919510Y-65476836D01*
X111916280Y-65473316D01*
X111907589Y-65465210D01*
X111896461Y-65457296D01*
X111884570Y-65451361D01*
X111871917Y-65447405D01*
X111858501Y-65445426D01*
X111851507Y-65445179D01*
X111839696Y-65445866D01*
X111826260Y-65448504D01*
X111813627Y-65453120D01*
X111801798Y-65459714D01*
X111790773Y-65468287D01*
X111785562Y-65473316D01*
X111777709Y-65482267D01*
X111770043Y-65493670D01*
X111764293Y-65505795D01*
X111760460Y-65518640D01*
X111758544Y-65532207D01*
X111758304Y-65539261D01*
X111758970Y-65550995D01*
X111761525Y-65564376D01*
X111765997Y-65576995D01*
X111772385Y-65588852D01*
X111780690Y-65599946D01*
X111785562Y-65605207D01*
X111794359Y-65613144D01*
X111805652Y-65620892D01*
X111817749Y-65626704D01*
X111830649Y-65630578D01*
X111844354Y-65632515D01*
X111851507Y-65632757D01*
G37*
G36*
X110358206Y-64557698D02*
G01*
X110699658Y-64557698D01*
X110699658Y-65614000D01*
X110837997Y-65614000D01*
X110837997Y-64557698D01*
X111178569Y-64557698D01*
X111178569Y-64432255D01*
X110358206Y-64432255D01*
X110358206Y-64557698D01*
G37*
G36*
X109289302Y-65614000D02*
G01*
X109427934Y-65614000D01*
X109427934Y-65082039D01*
X110039616Y-65082039D01*
X110039616Y-65614000D01*
X110177955Y-65614000D01*
X110177955Y-64432255D01*
X110039616Y-64432255D01*
X110039616Y-64957475D01*
X109427934Y-64957475D01*
X109427934Y-64432255D01*
X109289302Y-64432255D01*
X109289302Y-65614000D01*
G37*
G36*
X108286636Y-64557698D02*
G01*
X108628088Y-64557698D01*
X108628088Y-65614000D01*
X108766427Y-65614000D01*
X108766427Y-64557698D01*
X109106999Y-64557698D01*
X109106999Y-64432255D01*
X108286636Y-64432255D01*
X108286636Y-64557698D01*
G37*
G36*
X107046860Y-64557698D02*
G01*
X107508479Y-64557698D01*
X107508479Y-64957475D01*
X107081444Y-64957475D01*
X107081444Y-65082039D01*
X107508479Y-65082039D01*
X107508479Y-65614000D01*
X107646818Y-65614000D01*
X107646818Y-64432255D01*
X107046860Y-64432255D01*
X107046860Y-64557698D01*
G37*
G36*
X106022798Y-65560657D02*
G01*
X106039427Y-65569388D01*
X106056559Y-65577555D01*
X106074195Y-65585160D01*
X106092334Y-65592201D01*
X106110978Y-65598679D01*
X106130125Y-65604593D01*
X106149776Y-65609944D01*
X106169930Y-65614732D01*
X106190589Y-65618957D01*
X106211751Y-65622618D01*
X106233416Y-65625716D01*
X106255586Y-65628251D01*
X106278259Y-65630223D01*
X106301437Y-65631631D01*
X106313214Y-65632124D01*
X106325117Y-65632476D01*
X106337147Y-65632687D01*
X106349302Y-65632757D01*
X106364976Y-65632599D01*
X106380453Y-65632124D01*
X106395734Y-65631333D01*
X106410819Y-65630225D01*
X106425708Y-65628800D01*
X106440400Y-65627059D01*
X106454895Y-65625002D01*
X106469195Y-65622627D01*
X106483298Y-65619937D01*
X106497204Y-65616929D01*
X106510915Y-65613605D01*
X106524429Y-65609965D01*
X106537746Y-65606008D01*
X106550868Y-65601734D01*
X106563793Y-65597144D01*
X106576521Y-65592237D01*
X106589053Y-65587014D01*
X106601389Y-65581474D01*
X106613529Y-65575618D01*
X106625472Y-65569445D01*
X106637219Y-65562956D01*
X106648769Y-65556149D01*
X106660124Y-65549027D01*
X106671281Y-65541588D01*
X106682243Y-65533832D01*
X106693008Y-65525760D01*
X106703577Y-65517371D01*
X106713949Y-65508665D01*
X106724125Y-65499643D01*
X106734105Y-65490305D01*
X106743888Y-65480649D01*
X106753475Y-65470678D01*
X106762798Y-65460449D01*
X106771824Y-65450023D01*
X106780555Y-65439399D01*
X106788990Y-65428578D01*
X106797128Y-65417559D01*
X106804971Y-65406343D01*
X106812518Y-65394929D01*
X106819769Y-65383318D01*
X106826724Y-65371510D01*
X106833383Y-65359503D01*
X106839746Y-65347300D01*
X106845813Y-65334899D01*
X106851584Y-65322300D01*
X106857059Y-65309504D01*
X106862238Y-65296510D01*
X106867121Y-65283319D01*
X106871709Y-65269930D01*
X106876000Y-65256344D01*
X106879995Y-65242561D01*
X106883695Y-65228580D01*
X106887098Y-65214401D01*
X106890206Y-65200025D01*
X106893017Y-65185451D01*
X106895533Y-65170680D01*
X106897753Y-65155712D01*
X106899676Y-65140546D01*
X106901304Y-65125182D01*
X106902636Y-65109621D01*
X106903672Y-65093863D01*
X106904412Y-65077907D01*
X106904855Y-65061753D01*
X106905003Y-65045402D01*
X106904837Y-65027813D01*
X106904337Y-65010436D01*
X106903504Y-64993272D01*
X106902338Y-64976320D01*
X106900839Y-64959580D01*
X106899006Y-64943053D01*
X106896841Y-64926738D01*
X106894342Y-64910635D01*
X106891510Y-64894745D01*
X106888345Y-64879067D01*
X106884847Y-64863602D01*
X106881016Y-64848349D01*
X106876851Y-64833308D01*
X106872353Y-64818480D01*
X106867523Y-64803864D01*
X106862359Y-64789460D01*
X106856861Y-64775269D01*
X106851031Y-64761290D01*
X106844868Y-64747524D01*
X106838371Y-64733970D01*
X106831541Y-64720628D01*
X106824378Y-64707499D01*
X106816882Y-64694582D01*
X106809053Y-64681877D01*
X106800890Y-64669385D01*
X106792394Y-64657105D01*
X106783566Y-64645038D01*
X106774404Y-64633183D01*
X106764909Y-64621540D01*
X106755080Y-64610110D01*
X106744919Y-64598892D01*
X106734424Y-64587886D01*
X106723656Y-64577157D01*
X106712709Y-64566769D01*
X106701585Y-64556721D01*
X106690282Y-64547014D01*
X106678801Y-64537647D01*
X106667143Y-64528621D01*
X106655306Y-64519936D01*
X106643291Y-64511591D01*
X106631098Y-64503587D01*
X106618728Y-64495923D01*
X106606179Y-64488600D01*
X106593452Y-64481618D01*
X106580547Y-64474976D01*
X106567464Y-64468675D01*
X106554203Y-64462714D01*
X106540764Y-64457094D01*
X106527147Y-64451815D01*
X106513352Y-64446876D01*
X106499379Y-64442278D01*
X106485228Y-64438021D01*
X106470899Y-64434104D01*
X106456392Y-64430527D01*
X106441706Y-64427292D01*
X106426843Y-64424396D01*
X106411802Y-64421842D01*
X106396583Y-64419628D01*
X106381185Y-64417755D01*
X106365610Y-64416222D01*
X106349856Y-64415030D01*
X106333925Y-64414178D01*
X106317816Y-64413667D01*
X106301528Y-64413497D01*
X106280724Y-64413653D01*
X106260372Y-64414120D01*
X106240470Y-64414898D01*
X106221020Y-64415988D01*
X106202020Y-64417390D01*
X106183472Y-64419102D01*
X106165375Y-64421127D01*
X106147728Y-64423462D01*
X106130533Y-64426109D01*
X106113789Y-64429068D01*
X106097496Y-64432337D01*
X106081655Y-64435919D01*
X106066264Y-64439811D01*
X106051324Y-64444015D01*
X106036836Y-64448531D01*
X106022798Y-64453357D01*
X106022798Y-64601076D01*
X106038765Y-64593551D01*
X106054938Y-64586513D01*
X106071316Y-64579959D01*
X106087901Y-64573891D01*
X106104692Y-64568309D01*
X106121689Y-64563212D01*
X106138892Y-64558600D01*
X106156301Y-64554474D01*
X106173917Y-64550833D01*
X106191738Y-64547678D01*
X106209765Y-64545008D01*
X106227999Y-64542824D01*
X106246438Y-64541125D01*
X106265084Y-64539911D01*
X106283936Y-64539183D01*
X106302994Y-64538940D01*
X106315650Y-64539073D01*
X106328155Y-64539470D01*
X106340510Y-64540133D01*
X106352714Y-64541061D01*
X106364768Y-64542253D01*
X106376671Y-64543711D01*
X106388423Y-64545434D01*
X106400025Y-64547422D01*
X106422778Y-64552192D01*
X106444928Y-64558023D01*
X106466476Y-64564914D01*
X106487421Y-64572866D01*
X106507765Y-64581877D01*
X106527506Y-64591949D01*
X106546645Y-64603080D01*
X106565182Y-64615272D01*
X106583117Y-64628524D01*
X106600449Y-64642837D01*
X106617180Y-64658209D01*
X106633308Y-64674642D01*
X106648640Y-64691960D01*
X106662983Y-64709991D01*
X106676337Y-64728734D01*
X106688702Y-64748189D01*
X106700078Y-64768356D01*
X106710464Y-64789236D01*
X106715286Y-64799942D01*
X106719861Y-64810827D01*
X106724189Y-64821890D01*
X106728269Y-64833131D01*
X106732102Y-64844550D01*
X106735688Y-64856146D01*
X106739027Y-64867921D01*
X106742118Y-64879874D01*
X106744962Y-64892005D01*
X106747558Y-64904314D01*
X106749908Y-64916801D01*
X106752010Y-64929466D01*
X106753864Y-64942309D01*
X106755472Y-64955330D01*
X106756832Y-64968529D01*
X106757945Y-64981907D01*
X106758810Y-64995462D01*
X106759429Y-65009195D01*
X106759800Y-65023106D01*
X106759923Y-65037196D01*
X106759808Y-65050574D01*
X106759462Y-65063781D01*
X106758885Y-65076817D01*
X106758078Y-65089682D01*
X106757039Y-65102376D01*
X106755771Y-65114898D01*
X106754271Y-65127249D01*
X106752541Y-65139430D01*
X106750580Y-65151439D01*
X106748388Y-65163276D01*
X106745966Y-65174943D01*
X106743313Y-65186439D01*
X106737315Y-65208916D01*
X106730394Y-65230709D01*
X106722551Y-65251818D01*
X106713784Y-65272241D01*
X106704095Y-65291980D01*
X106693483Y-65311035D01*
X106681948Y-65329404D01*
X106669491Y-65347089D01*
X106656110Y-65364090D01*
X106641807Y-65380406D01*
X106626718Y-65395880D01*
X106611051Y-65410356D01*
X106594807Y-65423834D01*
X106577987Y-65436313D01*
X106560589Y-65447794D01*
X106542614Y-65458276D01*
X106524062Y-65467761D01*
X106504934Y-65476247D01*
X106485228Y-65483734D01*
X106464945Y-65490223D01*
X106444085Y-65495714D01*
X106422648Y-65500207D01*
X106400634Y-65503701D01*
X106378043Y-65506197D01*
X106354875Y-65507694D01*
X106343075Y-65508069D01*
X106331130Y-65508193D01*
X106309043Y-65507874D01*
X106287332Y-65506916D01*
X106265995Y-65505319D01*
X106245035Y-65503083D01*
X106224450Y-65500208D01*
X106204240Y-65496694D01*
X106184406Y-65492542D01*
X106164948Y-65487750D01*
X106145865Y-65482320D01*
X106127157Y-65476251D01*
X106108825Y-65469543D01*
X106090869Y-65462196D01*
X106073288Y-65454211D01*
X106056082Y-65445586D01*
X106039253Y-65436323D01*
X106022798Y-65426421D01*
X106022798Y-65560657D01*
G37*
G36*
X105306190Y-64742932D02*
G01*
X105306455Y-64729592D01*
X105307252Y-64716682D01*
X105308580Y-64704203D01*
X105310440Y-64692154D01*
X105312830Y-64680535D01*
X105316565Y-64666618D01*
X105321131Y-64653373D01*
X105323189Y-64648263D01*
X105328717Y-64635960D01*
X105334861Y-64624329D01*
X105341620Y-64613371D01*
X105348995Y-64603086D01*
X105356985Y-64593473D01*
X105365590Y-64584533D01*
X105369204Y-64581145D01*
X105378614Y-64573140D01*
X105388524Y-64565792D01*
X105398936Y-64559103D01*
X105409848Y-64553073D01*
X105421261Y-64547700D01*
X105433175Y-64542986D01*
X105438081Y-64541285D01*
X105450603Y-64537485D01*
X105463440Y-64534330D01*
X105476592Y-64531818D01*
X105490059Y-64529951D01*
X105503840Y-64528727D01*
X105517937Y-64528147D01*
X105523664Y-64528096D01*
X105535993Y-64528368D01*
X105548250Y-64529183D01*
X105560436Y-64530543D01*
X105572550Y-64532446D01*
X105584593Y-64534894D01*
X105596564Y-64537885D01*
X105601333Y-64539233D01*
X105613105Y-64542837D01*
X105624792Y-64546870D01*
X105636392Y-64551332D01*
X105647907Y-64556223D01*
X105659336Y-64561544D01*
X105670679Y-64567294D01*
X105675192Y-64569715D01*
X105686309Y-64575946D01*
X105697311Y-64582549D01*
X105708199Y-64589524D01*
X105718972Y-64596872D01*
X105729631Y-64604591D01*
X105740176Y-64612682D01*
X105744361Y-64616023D01*
X105754688Y-64624600D01*
X105764786Y-64633477D01*
X105774655Y-64642655D01*
X105784295Y-64652133D01*
X105793706Y-64661912D01*
X105802888Y-64671991D01*
X105806497Y-64676107D01*
X105806497Y-64528975D01*
X105795717Y-64518711D01*
X105784700Y-64508910D01*
X105773447Y-64499573D01*
X105761956Y-64490699D01*
X105750228Y-64482289D01*
X105738264Y-64474343D01*
X105726062Y-64466861D01*
X105713623Y-64459842D01*
X105700948Y-64453287D01*
X105688035Y-64447196D01*
X105679295Y-64443392D01*
X105665781Y-64438050D01*
X105651725Y-64433233D01*
X105637129Y-64428941D01*
X105621991Y-64425175D01*
X105606313Y-64421934D01*
X105590093Y-64419219D01*
X105573333Y-64417030D01*
X105556032Y-64415366D01*
X105544197Y-64414548D01*
X105532122Y-64413964D01*
X105519806Y-64413614D01*
X105507250Y-64413497D01*
X105493720Y-64413683D01*
X105480384Y-64414239D01*
X105467245Y-64415166D01*
X105454302Y-64416465D01*
X105441554Y-64418134D01*
X105429002Y-64420174D01*
X105416646Y-64422585D01*
X105404485Y-64425367D01*
X105392521Y-64428520D01*
X105380752Y-64432044D01*
X105373015Y-64434600D01*
X105361563Y-64438674D01*
X105350401Y-64443094D01*
X105339527Y-64447858D01*
X105328941Y-64452968D01*
X105315276Y-64460318D01*
X105302123Y-64468282D01*
X105289484Y-64476860D01*
X105277357Y-64486051D01*
X105265743Y-64495856D01*
X105254693Y-64506260D01*
X105244256Y-64517251D01*
X105234433Y-64528829D01*
X105225223Y-64540992D01*
X105216627Y-64553741D01*
X105208645Y-64567077D01*
X105203061Y-64577463D01*
X105197823Y-64588180D01*
X105194522Y-64595507D01*
X105189860Y-64606760D01*
X105185657Y-64618316D01*
X105181912Y-64630177D01*
X105178626Y-64642342D01*
X105175799Y-64654811D01*
X105173430Y-64667583D01*
X105171519Y-64680660D01*
X105170067Y-64694040D01*
X105169074Y-64707725D01*
X105168539Y-64721714D01*
X105168437Y-64731208D01*
X105168578Y-64744226D01*
X105169003Y-64757013D01*
X105169712Y-64769567D01*
X105170704Y-64781890D01*
X105171979Y-64793981D01*
X105173537Y-64805840D01*
X105175379Y-64817467D01*
X105178276Y-64832609D01*
X105181676Y-64847340D01*
X105184557Y-64858117D01*
X105188843Y-64872231D01*
X105193643Y-64886144D01*
X105198955Y-64899855D01*
X105204780Y-64913364D01*
X105211118Y-64926673D01*
X105217969Y-64939779D01*
X105225333Y-64952685D01*
X105233210Y-64965388D01*
X105241609Y-64977854D01*
X105250539Y-64990191D01*
X105260000Y-65002400D01*
X105267445Y-65011473D01*
X105275188Y-65020473D01*
X105283231Y-65029402D01*
X105291572Y-65038258D01*
X105300212Y-65047042D01*
X105309150Y-65055754D01*
X105315276Y-65061522D01*
X105324663Y-65070166D01*
X105334359Y-65078840D01*
X105344364Y-65087545D01*
X105354678Y-65096281D01*
X105365301Y-65105048D01*
X105376234Y-65113846D01*
X105387476Y-65122675D01*
X105399026Y-65131534D01*
X105410886Y-65140425D01*
X105423055Y-65149347D01*
X105431340Y-65155311D01*
X105441630Y-65162646D01*
X105451691Y-65169847D01*
X105461524Y-65176915D01*
X105471127Y-65183851D01*
X105485103Y-65194006D01*
X105498563Y-65203862D01*
X105511508Y-65213419D01*
X105523938Y-65222677D01*
X105535853Y-65231636D01*
X105547253Y-65240296D01*
X105558137Y-65248658D01*
X105568507Y-65256721D01*
X105578425Y-65264533D01*
X105587957Y-65272253D01*
X105597103Y-65279879D01*
X105608696Y-65289904D01*
X105619602Y-65299764D01*
X105629821Y-65309459D01*
X105639354Y-65318989D01*
X105648199Y-65328354D01*
X105654382Y-65335270D01*
X105662003Y-65344429D01*
X105670704Y-65355878D01*
X105678489Y-65367326D01*
X105685358Y-65378775D01*
X105691312Y-65390224D01*
X105696349Y-65401673D01*
X105698932Y-65408542D01*
X105702563Y-65420263D01*
X105705578Y-65432528D01*
X105707978Y-65445336D01*
X105709763Y-65458689D01*
X105710932Y-65472585D01*
X105711486Y-65487025D01*
X105711535Y-65492953D01*
X105123008Y-65492953D01*
X105123008Y-65614000D01*
X105852512Y-65614000D01*
X105852512Y-65555674D01*
X105852368Y-65541603D01*
X105851935Y-65527857D01*
X105851214Y-65514435D01*
X105850204Y-65501338D01*
X105848906Y-65488565D01*
X105847319Y-65476117D01*
X105845444Y-65463994D01*
X105843280Y-65452195D01*
X105840827Y-65440720D01*
X105837109Y-65425926D01*
X105836099Y-65422318D01*
X105831661Y-65407975D01*
X105826555Y-65393815D01*
X105820780Y-65379838D01*
X105814337Y-65366044D01*
X105807225Y-65352434D01*
X105799444Y-65339006D01*
X105793170Y-65329056D01*
X105786520Y-65319209D01*
X105781877Y-65312702D01*
X105774529Y-65302975D01*
X105766775Y-65293248D01*
X105758613Y-65283521D01*
X105750045Y-65273794D01*
X105741069Y-65264067D01*
X105731686Y-65254340D01*
X105721897Y-65244613D01*
X105711700Y-65234886D01*
X105701096Y-65225159D01*
X105690086Y-65215432D01*
X105682519Y-65208947D01*
X105670736Y-65199104D01*
X105658470Y-65189030D01*
X105645718Y-65178723D01*
X105632483Y-65168185D01*
X105618763Y-65157414D01*
X105609348Y-65150105D01*
X105599717Y-65142693D01*
X105589871Y-65135178D01*
X105579809Y-65127560D01*
X105569533Y-65119839D01*
X105559041Y-65112015D01*
X105548334Y-65104088D01*
X105537412Y-65096057D01*
X105531870Y-65092004D01*
X105520021Y-65083412D01*
X105508542Y-65074892D01*
X105497434Y-65066445D01*
X105486697Y-65058069D01*
X105476332Y-65049766D01*
X105466337Y-65041535D01*
X105456713Y-65033376D01*
X105447460Y-65025289D01*
X105438578Y-65017274D01*
X105427312Y-65006700D01*
X105424599Y-65004076D01*
X105414020Y-64993530D01*
X105403972Y-64982992D01*
X105394456Y-64972464D01*
X105385471Y-64961944D01*
X105377017Y-64951434D01*
X105369094Y-64940933D01*
X105361703Y-64930442D01*
X105354843Y-64919959D01*
X105348486Y-64909463D01*
X105342606Y-64898930D01*
X105337202Y-64888360D01*
X105331117Y-64875097D01*
X105325776Y-64861776D01*
X105321180Y-64848398D01*
X105317327Y-64834963D01*
X105314119Y-64821278D01*
X105311454Y-64807336D01*
X105309333Y-64793137D01*
X105307756Y-64778680D01*
X105306886Y-64766929D01*
X105306364Y-64755013D01*
X105306190Y-64742932D01*
G37*
G36*
X116253154Y-67630000D02*
G01*
X115908772Y-67630000D01*
X115888259Y-67629633D01*
X115868192Y-67628534D01*
X115848572Y-67626702D01*
X115829399Y-67624138D01*
X115810672Y-67620840D01*
X115792392Y-67616810D01*
X115774558Y-67612048D01*
X115757170Y-67606552D01*
X115740229Y-67600324D01*
X115723735Y-67593363D01*
X115707687Y-67585669D01*
X115692086Y-67577243D01*
X115676931Y-67568084D01*
X115662222Y-67558192D01*
X115647960Y-67547568D01*
X115634145Y-67536210D01*
X115620978Y-67524224D01*
X115608660Y-67511787D01*
X115597192Y-67498899D01*
X115586573Y-67485560D01*
X115576803Y-67471770D01*
X115567884Y-67457529D01*
X115559813Y-67442837D01*
X115552592Y-67427693D01*
X115546221Y-67412099D01*
X115540699Y-67396053D01*
X115536027Y-67379556D01*
X115532204Y-67362609D01*
X115529231Y-67345210D01*
X115527107Y-67327360D01*
X115525833Y-67309059D01*
X115525408Y-67290307D01*
X115525441Y-67288548D01*
X115670488Y-67288548D01*
X115670554Y-67294789D01*
X115671078Y-67307021D01*
X115672127Y-67318919D01*
X115674683Y-67336139D01*
X115678419Y-67352606D01*
X115683335Y-67368322D01*
X115689431Y-67383285D01*
X115696706Y-67397496D01*
X115705162Y-67410954D01*
X115714797Y-67423661D01*
X115725612Y-67435615D01*
X115737606Y-67446817D01*
X115741855Y-67450370D01*
X115755247Y-67460350D01*
X115769607Y-67469315D01*
X115784936Y-67477266D01*
X115795693Y-67482002D01*
X115806881Y-67486287D01*
X115818500Y-67490122D01*
X115830548Y-67493505D01*
X115843028Y-67496437D01*
X115855937Y-67498918D01*
X115869278Y-67500948D01*
X115883048Y-67502526D01*
X115897250Y-67503654D01*
X115911881Y-67504331D01*
X115926943Y-67504556D01*
X116114815Y-67504556D01*
X116114815Y-67079281D01*
X115955666Y-67079281D01*
X115938121Y-67079485D01*
X115921133Y-67080098D01*
X115904702Y-67081120D01*
X115888828Y-67082551D01*
X115873511Y-67084390D01*
X115858750Y-67086638D01*
X115844547Y-67089294D01*
X115830901Y-67092360D01*
X115817812Y-67095834D01*
X115805280Y-67099717D01*
X115793304Y-67104009D01*
X115781886Y-67108709D01*
X115760720Y-67119336D01*
X115741783Y-67131598D01*
X115725073Y-67145494D01*
X115710592Y-67161026D01*
X115698338Y-67178192D01*
X115688312Y-67196994D01*
X115680514Y-67217430D01*
X115674944Y-67239501D01*
X115672995Y-67251150D01*
X115671602Y-67263207D01*
X115670767Y-67275673D01*
X115670488Y-67288548D01*
X115525441Y-67288548D01*
X115525689Y-67275244D01*
X115526530Y-67260539D01*
X115527933Y-67246192D01*
X115529896Y-67232201D01*
X115532421Y-67218568D01*
X115535506Y-67205292D01*
X115539153Y-67192373D01*
X115543360Y-67179811D01*
X115548128Y-67167607D01*
X115553458Y-67155759D01*
X115559348Y-67144269D01*
X115565800Y-67133136D01*
X115572812Y-67122361D01*
X115580386Y-67111942D01*
X115588520Y-67101881D01*
X115597216Y-67092177D01*
X115606343Y-67082859D01*
X115615845Y-67074028D01*
X115625723Y-67065685D01*
X115635977Y-67057830D01*
X115646606Y-67050463D01*
X115657611Y-67043583D01*
X115668991Y-67037191D01*
X115680747Y-67031287D01*
X115692878Y-67025871D01*
X115705385Y-67020942D01*
X115718267Y-67016501D01*
X115731525Y-67012547D01*
X115745158Y-67009082D01*
X115759167Y-67006104D01*
X115773551Y-67003614D01*
X115788311Y-67001612D01*
X115788311Y-66998387D01*
X115782379Y-66996386D01*
X115770757Y-66992131D01*
X115759454Y-66987543D01*
X115748472Y-66982620D01*
X115737811Y-66977362D01*
X115727471Y-66971771D01*
X115712561Y-66962756D01*
X115698372Y-66952990D01*
X115684905Y-66942471D01*
X115672159Y-66931200D01*
X115660134Y-66919177D01*
X115648831Y-66906402D01*
X115638248Y-66892875D01*
X115634894Y-66888215D01*
X115625471Y-66873929D01*
X115617007Y-66859185D01*
X115609500Y-66843982D01*
X115602952Y-66828321D01*
X115597362Y-66812201D01*
X115592730Y-66795623D01*
X115589057Y-66778586D01*
X115587141Y-66766974D01*
X115585650Y-66755157D01*
X115584816Y-66745743D01*
X115728814Y-66745743D01*
X115728877Y-66751927D01*
X115729388Y-66764033D01*
X115730409Y-66775789D01*
X115732899Y-66792766D01*
X115736537Y-66808954D01*
X115741324Y-66824354D01*
X115747260Y-66838966D01*
X115754345Y-66852790D01*
X115762578Y-66865825D01*
X115771961Y-66878072D01*
X115782493Y-66889531D01*
X115794173Y-66900202D01*
X115798287Y-66903556D01*
X115811200Y-66912979D01*
X115824968Y-66921444D01*
X115839591Y-66928950D01*
X115855069Y-66935498D01*
X115871403Y-66941088D01*
X115882767Y-66944282D01*
X115894511Y-66947051D01*
X115906635Y-66949393D01*
X115919140Y-66951310D01*
X115932024Y-66952800D01*
X115945289Y-66953865D01*
X115958934Y-66954504D01*
X115972959Y-66954717D01*
X116114815Y-66954717D01*
X116114815Y-66573698D01*
X115955666Y-66573698D01*
X115941710Y-66573866D01*
X115928196Y-66574370D01*
X115915125Y-66575210D01*
X115902498Y-66576386D01*
X115890313Y-66577898D01*
X115878572Y-66579746D01*
X115856418Y-66584451D01*
X115836037Y-66590499D01*
X115817428Y-66597892D01*
X115800591Y-66606628D01*
X115785527Y-66616709D01*
X115772235Y-66628134D01*
X115760715Y-66640903D01*
X115750967Y-66655016D01*
X115742992Y-66670473D01*
X115736789Y-66687274D01*
X115732358Y-66705420D01*
X115729700Y-66724909D01*
X115728814Y-66745743D01*
X115584816Y-66745743D01*
X115584585Y-66743137D01*
X115583946Y-66730913D01*
X115583733Y-66718485D01*
X115584085Y-66703606D01*
X115585139Y-66689084D01*
X115586897Y-66674920D01*
X115589357Y-66661113D01*
X115592520Y-66647662D01*
X115596387Y-66634569D01*
X115600956Y-66621834D01*
X115606228Y-66609455D01*
X115612203Y-66597434D01*
X115618881Y-66585770D01*
X115626263Y-66574463D01*
X115634347Y-66563513D01*
X115643134Y-66552921D01*
X115652624Y-66542685D01*
X115662817Y-66532807D01*
X115673712Y-66523286D01*
X115685172Y-66514200D01*
X115697128Y-66505701D01*
X115709581Y-66497787D01*
X115722530Y-66490460D01*
X115735977Y-66483719D01*
X115749921Y-66477564D01*
X115764361Y-66471995D01*
X115779299Y-66467013D01*
X115794733Y-66462616D01*
X115810664Y-66458806D01*
X115827092Y-66455582D01*
X115844017Y-66452944D01*
X115861439Y-66450893D01*
X115879357Y-66449427D01*
X115897773Y-66448548D01*
X115916685Y-66448255D01*
X116253154Y-66448255D01*
X116253154Y-67630000D01*
G37*
G36*
X114637048Y-66785896D02*
G01*
X115025394Y-67766873D01*
X115031961Y-67783841D01*
X115038692Y-67800271D01*
X115045587Y-67816161D01*
X115052647Y-67831514D01*
X115059871Y-67846327D01*
X115067259Y-67860602D01*
X115074812Y-67874338D01*
X115082529Y-67887535D01*
X115090410Y-67900194D01*
X115098455Y-67912314D01*
X115106665Y-67923895D01*
X115115039Y-67934938D01*
X115123577Y-67945442D01*
X115132280Y-67955408D01*
X115141147Y-67964834D01*
X115150178Y-67973722D01*
X115159373Y-67982072D01*
X115168733Y-67989883D01*
X115178257Y-67997155D01*
X115187945Y-68003888D01*
X115207815Y-68015739D01*
X115228342Y-68025435D01*
X115249526Y-68032976D01*
X115271367Y-68038363D01*
X115293865Y-68041595D01*
X115317020Y-68042672D01*
X115329939Y-68042507D01*
X115342318Y-68042013D01*
X115354156Y-68041188D01*
X115368194Y-68039694D01*
X115381387Y-68037685D01*
X115393736Y-68035161D01*
X115405241Y-68032121D01*
X115405241Y-67911367D01*
X115391772Y-67915505D01*
X115378662Y-67918941D01*
X115365909Y-67921676D01*
X115353515Y-67923709D01*
X115341478Y-67925042D01*
X115327505Y-67925715D01*
X115325227Y-67925729D01*
X115312675Y-67925228D01*
X115300520Y-67923727D01*
X115288761Y-67921226D01*
X115277398Y-67917724D01*
X115266431Y-67913221D01*
X115255860Y-67907717D01*
X115245686Y-67901213D01*
X115235907Y-67893709D01*
X115226525Y-67885203D01*
X115217539Y-67875697D01*
X115208948Y-67865190D01*
X115200754Y-67853683D01*
X115192957Y-67841175D01*
X115185555Y-67827667D01*
X115178549Y-67813158D01*
X115171940Y-67797648D01*
X115104529Y-67630000D01*
X115434257Y-66785896D01*
X115284194Y-66785896D01*
X115055876Y-67437145D01*
X115052424Y-67448732D01*
X115048952Y-67461474D01*
X115045939Y-67472912D01*
X115042483Y-67486295D01*
X115039399Y-67498404D01*
X115038583Y-67501625D01*
X115033601Y-67501625D01*
X115030644Y-67488606D01*
X115027446Y-67475980D01*
X115024080Y-67463416D01*
X115020834Y-67451718D01*
X115017188Y-67438904D01*
X114777146Y-66785896D01*
X114637048Y-66785896D01*
G37*
G36*
X114074019Y-67586915D02*
G01*
X114074019Y-67423663D01*
X114063087Y-67432291D01*
X114053394Y-67439229D01*
X114043172Y-67445938D01*
X114032420Y-67452418D01*
X114021138Y-67458669D01*
X114009327Y-67464691D01*
X114006902Y-67465868D01*
X113994535Y-67471503D01*
X113981983Y-67476865D01*
X113969245Y-67481955D01*
X113956320Y-67486774D01*
X113943210Y-67491321D01*
X113929914Y-67495595D01*
X113924543Y-67497229D01*
X113910980Y-67501116D01*
X113897403Y-67504717D01*
X113883812Y-67508031D01*
X113870206Y-67511059D01*
X113856587Y-67513801D01*
X113842952Y-67516257D01*
X113837495Y-67517159D01*
X113824005Y-67519186D01*
X113810830Y-67520869D01*
X113797970Y-67522208D01*
X113785425Y-67523204D01*
X113773195Y-67523857D01*
X113761279Y-67524166D01*
X113756601Y-67524193D01*
X113740881Y-67524009D01*
X113725667Y-67523456D01*
X113710958Y-67522535D01*
X113696756Y-67521244D01*
X113683060Y-67519585D01*
X113669869Y-67517558D01*
X113657185Y-67515161D01*
X113645007Y-67512397D01*
X113633335Y-67509263D01*
X113616775Y-67503871D01*
X113601355Y-67497650D01*
X113587072Y-67490600D01*
X113573929Y-67482720D01*
X113565799Y-67477006D01*
X113554538Y-67467792D01*
X113544384Y-67457847D01*
X113535338Y-67447171D01*
X113527399Y-67435762D01*
X113520569Y-67423622D01*
X113514846Y-67410751D01*
X113510230Y-67397148D01*
X113506723Y-67382814D01*
X113504323Y-67367747D01*
X113503030Y-67351950D01*
X113502784Y-67341011D01*
X113503114Y-67329265D01*
X113504454Y-67315135D01*
X113506823Y-67301621D01*
X113510224Y-67288723D01*
X113514654Y-67276440D01*
X113520116Y-67264772D01*
X113523887Y-67258066D01*
X113530791Y-67247141D01*
X113538496Y-67236531D01*
X113547002Y-67226236D01*
X113556310Y-67216255D01*
X113566419Y-67206589D01*
X113577330Y-67197239D01*
X113581919Y-67193586D01*
X113591367Y-67186300D01*
X113601245Y-67179097D01*
X113611553Y-67171975D01*
X113622292Y-67164937D01*
X113633462Y-67157980D01*
X113645062Y-67151106D01*
X113657092Y-67144315D01*
X113669553Y-67137606D01*
X113682353Y-67130824D01*
X113695400Y-67123959D01*
X113708695Y-67117012D01*
X113722236Y-67109982D01*
X113736026Y-67102870D01*
X113746530Y-67097482D01*
X113757173Y-67092047D01*
X113767955Y-67086567D01*
X113778876Y-67081039D01*
X113790400Y-67075154D01*
X113801779Y-67069258D01*
X113813014Y-67063352D01*
X113824104Y-67057436D01*
X113835050Y-67051510D01*
X113845852Y-67045573D01*
X113856510Y-67039626D01*
X113867024Y-67033668D01*
X113877393Y-67027701D01*
X113887618Y-67021723D01*
X113894354Y-67017732D01*
X113907475Y-67009575D01*
X113920165Y-67001227D01*
X113932424Y-66992686D01*
X113944253Y-66983953D01*
X113955652Y-66975027D01*
X113966620Y-66965909D01*
X113977157Y-66956599D01*
X113987264Y-66947096D01*
X113996895Y-66937264D01*
X114006004Y-66927111D01*
X114014591Y-66916638D01*
X114022655Y-66905844D01*
X114030198Y-66894729D01*
X114037218Y-66883294D01*
X114043717Y-66871538D01*
X114049693Y-66859462D01*
X114054982Y-66846960D01*
X114059566Y-66833927D01*
X114063445Y-66820362D01*
X114066619Y-66806266D01*
X114069087Y-66791639D01*
X114070850Y-66776481D01*
X114071710Y-66764763D01*
X114072173Y-66752747D01*
X114072261Y-66744570D01*
X114071949Y-66729643D01*
X114071014Y-66715087D01*
X114069456Y-66700902D01*
X114067274Y-66687088D01*
X114064469Y-66673644D01*
X114061040Y-66660572D01*
X114056988Y-66647871D01*
X114052312Y-66635540D01*
X114047014Y-66623581D01*
X114041091Y-66611992D01*
X114036797Y-66604473D01*
X114029952Y-66593447D01*
X114022715Y-66582793D01*
X114015086Y-66572510D01*
X114007066Y-66562597D01*
X113998655Y-66553056D01*
X113989852Y-66543885D01*
X113980657Y-66535086D01*
X113971071Y-66526657D01*
X113961093Y-66518599D01*
X113950724Y-66510912D01*
X113943594Y-66505994D01*
X113932629Y-66498915D01*
X113921385Y-66492187D01*
X113909864Y-66485808D01*
X113898064Y-66479781D01*
X113885986Y-66474103D01*
X113873630Y-66468776D01*
X113860995Y-66463799D01*
X113848083Y-66459173D01*
X113834892Y-66454896D01*
X113821423Y-66450971D01*
X113812289Y-66448548D01*
X113798414Y-66445143D01*
X113784489Y-66442074D01*
X113770511Y-66439339D01*
X113756482Y-66436939D01*
X113742402Y-66434874D01*
X113728270Y-66433144D01*
X113714087Y-66431748D01*
X113699852Y-66430688D01*
X113685565Y-66429962D01*
X113671227Y-66429571D01*
X113661640Y-66429497D01*
X113640174Y-66429695D01*
X113619448Y-66430289D01*
X113599462Y-66431280D01*
X113580215Y-66432666D01*
X113561708Y-66434449D01*
X113543941Y-66436627D01*
X113526913Y-66439202D01*
X113510624Y-66442173D01*
X113495076Y-66445540D01*
X113480267Y-66449304D01*
X113466197Y-66453463D01*
X113452867Y-66458019D01*
X113440277Y-66462970D01*
X113428426Y-66468318D01*
X113417315Y-66474062D01*
X113406943Y-66480202D01*
X113406943Y-66635833D01*
X113420255Y-66626038D01*
X113434031Y-66616874D01*
X113448273Y-66608342D01*
X113462979Y-66600443D01*
X113478150Y-66593175D01*
X113493785Y-66586539D01*
X113509886Y-66580535D01*
X113526451Y-66575163D01*
X113543482Y-66570424D01*
X113560977Y-66566316D01*
X113578937Y-66562840D01*
X113597361Y-66559996D01*
X113616251Y-66557784D01*
X113635605Y-66556204D01*
X113655424Y-66555256D01*
X113675708Y-66554940D01*
X113689905Y-66555169D01*
X113704101Y-66555856D01*
X113718298Y-66557001D01*
X113732495Y-66558604D01*
X113746691Y-66560665D01*
X113760888Y-66563183D01*
X113766567Y-66564319D01*
X113780435Y-66567543D01*
X113793832Y-66571354D01*
X113806756Y-66575752D01*
X113819209Y-66580737D01*
X113831188Y-66586308D01*
X113842696Y-66592466D01*
X113847167Y-66595094D01*
X113857927Y-66602080D01*
X113868044Y-66609668D01*
X113877516Y-66617857D01*
X113886345Y-66626647D01*
X113894529Y-66636038D01*
X113902070Y-66646030D01*
X113904906Y-66650195D01*
X113911323Y-66661086D01*
X113916652Y-66672692D01*
X113920894Y-66685014D01*
X113924048Y-66698051D01*
X113926115Y-66711804D01*
X113927094Y-66726273D01*
X113927181Y-66732260D01*
X113926773Y-66746072D01*
X113925549Y-66759297D01*
X113923510Y-66771935D01*
X113920655Y-66783987D01*
X113916984Y-66795451D01*
X113912497Y-66806329D01*
X113910474Y-66810516D01*
X113903543Y-66822630D01*
X113896917Y-66832426D01*
X113889518Y-66841950D01*
X113881347Y-66851202D01*
X113872402Y-66860182D01*
X113862685Y-66868891D01*
X113860649Y-66870600D01*
X113849948Y-66878990D01*
X113838547Y-66887309D01*
X113826444Y-66895557D01*
X113816257Y-66902103D01*
X113805621Y-66908604D01*
X113794536Y-66915059D01*
X113783002Y-66921468D01*
X113780049Y-66923063D01*
X113767959Y-66929516D01*
X113755429Y-66936124D01*
X113742460Y-66942888D01*
X113729051Y-66949808D01*
X113715202Y-66956883D01*
X113704527Y-66962292D01*
X113693605Y-66967788D01*
X113682436Y-66973372D01*
X113671019Y-66979043D01*
X113659153Y-66984952D01*
X113647405Y-66990917D01*
X113635777Y-66996939D01*
X113624266Y-67003017D01*
X113612874Y-67009153D01*
X113601601Y-67015344D01*
X113590446Y-67021593D01*
X113579409Y-67027898D01*
X113568491Y-67034260D01*
X113557692Y-67040679D01*
X113550558Y-67044989D01*
X113540021Y-67051488D01*
X113529730Y-67058127D01*
X113519687Y-67064904D01*
X113509892Y-67071821D01*
X113500343Y-67078876D01*
X113491042Y-67086071D01*
X113479026Y-67095880D01*
X113467448Y-67105937D01*
X113456311Y-67116241D01*
X113450907Y-67121486D01*
X113440484Y-67132106D01*
X113430611Y-67143010D01*
X113421287Y-67154198D01*
X113412512Y-67165669D01*
X113404287Y-67177425D01*
X113396612Y-67189465D01*
X113389486Y-67201788D01*
X113382910Y-67214396D01*
X113377002Y-67227310D01*
X113371882Y-67240701D01*
X113367550Y-67254568D01*
X113364006Y-67268911D01*
X113361249Y-67283730D01*
X113359279Y-67299026D01*
X113358319Y-67310810D01*
X113357802Y-67322863D01*
X113357704Y-67331046D01*
X113358005Y-67347186D01*
X113358910Y-67362851D01*
X113360417Y-67378043D01*
X113362526Y-67392760D01*
X113365239Y-67407004D01*
X113368554Y-67420773D01*
X113372472Y-67434069D01*
X113376993Y-67446891D01*
X113382117Y-67459238D01*
X113387843Y-67471112D01*
X113391996Y-67478764D01*
X113398584Y-67489889D01*
X113405600Y-67500623D01*
X113413044Y-67510964D01*
X113420916Y-67520915D01*
X113429215Y-67530473D01*
X113437941Y-67539640D01*
X113447095Y-67548416D01*
X113456677Y-67556800D01*
X113466687Y-67564792D01*
X113477124Y-67572393D01*
X113484320Y-67577243D01*
X113495358Y-67584147D01*
X113506710Y-67590679D01*
X113518377Y-67596841D01*
X113530358Y-67602632D01*
X113542653Y-67608052D01*
X113555263Y-67613101D01*
X113568186Y-67617779D01*
X113581424Y-67622086D01*
X113594977Y-67626022D01*
X113608843Y-67629587D01*
X113618262Y-67631758D01*
X113632515Y-67634796D01*
X113646918Y-67637535D01*
X113661470Y-67639975D01*
X113676171Y-67642117D01*
X113691021Y-67643960D01*
X113706021Y-67645504D01*
X113721171Y-67646749D01*
X113736470Y-67647695D01*
X113751918Y-67648342D01*
X113767516Y-67648691D01*
X113777997Y-67648757D01*
X113790938Y-67648561D01*
X113803035Y-67648080D01*
X113816059Y-67647311D01*
X113830011Y-67646253D01*
X113842346Y-67645151D01*
X113847460Y-67644654D01*
X113860333Y-67643279D01*
X113873306Y-67641717D01*
X113886379Y-67639970D01*
X113899552Y-67638037D01*
X113912826Y-67635917D01*
X113926199Y-67633612D01*
X113931577Y-67632637D01*
X113944842Y-67630071D01*
X113957892Y-67627319D01*
X113970728Y-67624381D01*
X113983349Y-67621257D01*
X113995755Y-67617947D01*
X114007947Y-67614451D01*
X114012763Y-67613000D01*
X114024305Y-67609272D01*
X114037192Y-67604628D01*
X114049028Y-67599799D01*
X114059813Y-67594785D01*
X114071067Y-67588700D01*
X114074019Y-67586915D01*
G37*
G36*
X113097732Y-67648757D02*
G01*
X113111529Y-67647789D01*
X113124564Y-67644883D01*
X113136836Y-67640040D01*
X113148345Y-67633260D01*
X113159092Y-67624543D01*
X113162505Y-67621207D01*
X113170189Y-67612332D01*
X113177690Y-67600984D01*
X113183316Y-67588874D01*
X113187067Y-67576001D01*
X113188942Y-67562365D01*
X113189176Y-67555261D01*
X113188239Y-67541334D01*
X113185426Y-67528127D01*
X113180737Y-67515642D01*
X113174174Y-67503879D01*
X113165735Y-67492836D01*
X113162505Y-67489316D01*
X113153814Y-67481210D01*
X113142686Y-67473296D01*
X113130795Y-67467361D01*
X113118142Y-67463405D01*
X113104726Y-67461426D01*
X113097732Y-67461179D01*
X113085921Y-67461866D01*
X113072485Y-67464504D01*
X113059852Y-67469120D01*
X113048023Y-67475714D01*
X113036998Y-67484287D01*
X113031786Y-67489316D01*
X113023934Y-67498267D01*
X113016268Y-67509670D01*
X113010518Y-67521795D01*
X113006685Y-67534640D01*
X113004768Y-67548207D01*
X113004529Y-67555261D01*
X113005194Y-67566995D01*
X113007750Y-67580376D01*
X113012222Y-67592995D01*
X113018610Y-67604852D01*
X113026915Y-67615946D01*
X113031786Y-67621207D01*
X113040583Y-67629144D01*
X113051877Y-67636892D01*
X113063973Y-67642704D01*
X113076874Y-67646578D01*
X113090578Y-67648515D01*
X113097732Y-67648757D01*
G37*
G36*
X111940314Y-67630000D02*
G01*
X112133168Y-67630000D01*
X112590098Y-67089539D01*
X112597587Y-67080493D01*
X112605308Y-67070903D01*
X112612571Y-67061461D01*
X112619686Y-67051231D01*
X112621458Y-67048213D01*
X112624682Y-67048213D01*
X112624682Y-67630000D01*
X112763022Y-67630000D01*
X112763022Y-66448255D01*
X112624682Y-66448255D01*
X112624682Y-67003663D01*
X112621458Y-67003663D01*
X112614238Y-66993117D01*
X112606769Y-66983198D01*
X112598310Y-66972765D01*
X112590098Y-66963217D01*
X112148116Y-66448255D01*
X111975778Y-66448255D01*
X112482826Y-67015094D01*
X111940314Y-67630000D01*
G37*
G36*
X111760063Y-67648757D02*
G01*
X111773860Y-67647789D01*
X111786894Y-67644883D01*
X111799166Y-67640040D01*
X111810676Y-67633260D01*
X111821423Y-67624543D01*
X111824836Y-67621207D01*
X111832520Y-67612332D01*
X111840021Y-67600984D01*
X111845647Y-67588874D01*
X111849398Y-67576001D01*
X111851273Y-67562365D01*
X111851507Y-67555261D01*
X111850570Y-67541334D01*
X111847757Y-67528127D01*
X111843068Y-67515642D01*
X111836505Y-67503879D01*
X111828066Y-67492836D01*
X111824836Y-67489316D01*
X111816145Y-67481210D01*
X111805016Y-67473296D01*
X111793126Y-67467361D01*
X111780472Y-67463405D01*
X111767057Y-67461426D01*
X111760063Y-67461179D01*
X111748252Y-67461866D01*
X111734815Y-67464504D01*
X111722183Y-67469120D01*
X111710354Y-67475714D01*
X111699328Y-67484287D01*
X111694117Y-67489316D01*
X111686265Y-67498267D01*
X111678598Y-67509670D01*
X111672849Y-67521795D01*
X111669016Y-67534640D01*
X111667099Y-67548207D01*
X111666860Y-67555261D01*
X111667525Y-67566995D01*
X111670081Y-67580376D01*
X111674552Y-67592995D01*
X111680941Y-67604852D01*
X111689246Y-67615946D01*
X111694117Y-67621207D01*
X111702914Y-67629144D01*
X111714207Y-67636892D01*
X111726304Y-67642704D01*
X111739205Y-67646578D01*
X111752909Y-67648515D01*
X111760063Y-67648757D01*
G37*
G36*
X111562226Y-67630000D02*
G01*
X111408060Y-67630000D01*
X111290237Y-67304375D01*
X110789051Y-67304375D01*
X110663608Y-67630000D01*
X110510321Y-67630000D01*
X110683720Y-67179811D01*
X110834480Y-67179811D01*
X111243929Y-67179811D01*
X111060160Y-66676866D01*
X111059503Y-66675050D01*
X111055656Y-66663290D01*
X111051974Y-66650046D01*
X111049032Y-66637876D01*
X111046204Y-66624675D01*
X111043491Y-66610444D01*
X111041403Y-66598318D01*
X111037885Y-66598318D01*
X111037318Y-66601660D01*
X111035046Y-66614455D01*
X111032775Y-66626334D01*
X111029935Y-66639895D01*
X111027096Y-66652026D01*
X111023689Y-66664693D01*
X111019714Y-66676866D01*
X110834480Y-67179811D01*
X110683720Y-67179811D01*
X110965492Y-66448255D01*
X111108814Y-66448255D01*
X111562226Y-67630000D01*
G37*
G36*
X110313363Y-67648757D02*
G01*
X110327161Y-67647789D01*
X110340195Y-67644883D01*
X110352467Y-67640040D01*
X110363977Y-67633260D01*
X110374724Y-67624543D01*
X110378137Y-67621207D01*
X110385820Y-67612332D01*
X110393322Y-67600984D01*
X110398948Y-67588874D01*
X110402698Y-67576001D01*
X110404574Y-67562365D01*
X110404808Y-67555261D01*
X110403870Y-67541334D01*
X110401057Y-67528127D01*
X110396369Y-67515642D01*
X110389805Y-67503879D01*
X110381366Y-67492836D01*
X110378137Y-67489316D01*
X110369446Y-67481210D01*
X110358317Y-67473296D01*
X110346426Y-67467361D01*
X110333773Y-67463405D01*
X110320357Y-67461426D01*
X110313363Y-67461179D01*
X110301553Y-67461866D01*
X110288116Y-67464504D01*
X110275483Y-67469120D01*
X110263654Y-67475714D01*
X110252629Y-67484287D01*
X110247418Y-67489316D01*
X110239565Y-67498267D01*
X110231899Y-67509670D01*
X110226150Y-67521795D01*
X110222317Y-67534640D01*
X110220400Y-67548207D01*
X110220160Y-67555261D01*
X110220826Y-67566995D01*
X110223381Y-67580376D01*
X110227853Y-67592995D01*
X110234242Y-67604852D01*
X110242547Y-67615946D01*
X110247418Y-67621207D01*
X110256215Y-67629144D01*
X110267508Y-67636892D01*
X110279605Y-67642704D01*
X110292506Y-67646578D01*
X110306210Y-67648515D01*
X110313363Y-67648757D01*
G37*
G36*
X108773461Y-67630000D02*
G01*
X108911214Y-67630000D01*
X108911214Y-66837187D01*
X108911170Y-66825299D01*
X108911036Y-66813080D01*
X108910812Y-66800532D01*
X108910500Y-66787655D01*
X108910098Y-66774447D01*
X108909607Y-66760910D01*
X108909026Y-66747043D01*
X108908357Y-66732847D01*
X108907597Y-66718320D01*
X108906749Y-66703464D01*
X108905811Y-66688278D01*
X108904784Y-66672763D01*
X108903668Y-66656918D01*
X108902463Y-66640743D01*
X108901168Y-66624238D01*
X108899784Y-66607404D01*
X108903008Y-66607404D01*
X108906706Y-66622007D01*
X108910327Y-66635812D01*
X108913871Y-66648818D01*
X108917337Y-66661026D01*
X108920726Y-66672435D01*
X108925125Y-66686405D01*
X108929386Y-66698955D01*
X108933510Y-66710085D01*
X108938472Y-66722002D01*
X109342352Y-67630000D01*
X109410056Y-67630000D01*
X109813056Y-66728450D01*
X109818482Y-66715062D01*
X109822853Y-66702878D01*
X109827252Y-66689385D01*
X109831678Y-66674581D01*
X109835015Y-66662619D01*
X109838368Y-66649920D01*
X109841737Y-66636485D01*
X109845121Y-66622313D01*
X109848521Y-66607404D01*
X109851745Y-66607404D01*
X109850592Y-66621491D01*
X109849553Y-66637155D01*
X109848628Y-66654395D01*
X109848073Y-66666764D01*
X109847570Y-66679834D01*
X109847116Y-66693605D01*
X109846713Y-66708076D01*
X109846361Y-66723249D01*
X109846058Y-66739121D01*
X109845807Y-66755695D01*
X109845605Y-66772969D01*
X109845454Y-66790943D01*
X109845353Y-66809619D01*
X109845303Y-66828995D01*
X109845296Y-66838946D01*
X109845296Y-67630000D01*
X109978653Y-67630000D01*
X109978653Y-66448255D01*
X109795764Y-66448255D01*
X109432917Y-67272135D01*
X109427794Y-67283817D01*
X109422901Y-67295124D01*
X109418241Y-67306056D01*
X109411683Y-67321749D01*
X109405646Y-67336597D01*
X109400129Y-67350600D01*
X109395132Y-67363758D01*
X109390656Y-67376071D01*
X109386700Y-67387540D01*
X109382235Y-67401516D01*
X109378695Y-67413991D01*
X109373712Y-67413991D01*
X109369334Y-67402021D01*
X109365066Y-67390438D01*
X109360908Y-67379243D01*
X109354877Y-67363174D01*
X109349093Y-67347977D01*
X109343556Y-67333650D01*
X109338267Y-67320194D01*
X109333225Y-67307608D01*
X109328430Y-67295894D01*
X109323882Y-67285050D01*
X109318204Y-67271945D01*
X109316853Y-67268911D01*
X108946678Y-66448255D01*
X108773461Y-66448255D01*
X108773461Y-67630000D01*
G37*
G36*
X108442268Y-67648757D02*
G01*
X108456065Y-67647789D01*
X108469099Y-67644883D01*
X108481372Y-67640040D01*
X108492881Y-67633260D01*
X108503628Y-67624543D01*
X108507041Y-67621207D01*
X108514725Y-67612332D01*
X108522226Y-67600984D01*
X108527852Y-67588874D01*
X108531603Y-67576001D01*
X108533478Y-67562365D01*
X108533712Y-67555261D01*
X108532775Y-67541334D01*
X108529962Y-67528127D01*
X108525273Y-67515642D01*
X108518710Y-67503879D01*
X108510271Y-67492836D01*
X108507041Y-67489316D01*
X108498350Y-67481210D01*
X108487222Y-67473296D01*
X108475331Y-67467361D01*
X108462678Y-67463405D01*
X108449262Y-67461426D01*
X108442268Y-67461179D01*
X108430457Y-67461866D01*
X108417021Y-67464504D01*
X108404388Y-67469120D01*
X108392559Y-67475714D01*
X108381534Y-67484287D01*
X108376322Y-67489316D01*
X108368470Y-67498267D01*
X108360804Y-67509670D01*
X108355054Y-67521795D01*
X108351221Y-67534640D01*
X108349304Y-67548207D01*
X108349065Y-67555261D01*
X108349730Y-67566995D01*
X108352286Y-67580376D01*
X108356758Y-67592995D01*
X108363146Y-67604852D01*
X108371451Y-67615946D01*
X108376322Y-67621207D01*
X108385119Y-67629144D01*
X108396413Y-67636892D01*
X108408509Y-67642704D01*
X108421410Y-67646578D01*
X108435114Y-67648515D01*
X108442268Y-67648757D01*
G37*
G36*
X116253154Y-69646000D02*
G01*
X115939839Y-69646000D01*
X115921782Y-69645837D01*
X115903954Y-69645351D01*
X115886355Y-69644541D01*
X115868985Y-69643407D01*
X115851843Y-69641949D01*
X115834931Y-69640167D01*
X115818248Y-69638061D01*
X115801793Y-69635631D01*
X115785568Y-69632877D01*
X115769572Y-69629799D01*
X115753804Y-69626397D01*
X115738266Y-69622671D01*
X115722956Y-69618621D01*
X115707876Y-69614247D01*
X115693024Y-69609549D01*
X115678402Y-69604527D01*
X115664008Y-69599181D01*
X115649844Y-69593511D01*
X115635908Y-69587517D01*
X115622202Y-69581199D01*
X115608724Y-69574557D01*
X115595475Y-69567591D01*
X115582456Y-69560301D01*
X115569665Y-69552687D01*
X115557103Y-69544748D01*
X115544771Y-69536486D01*
X115532667Y-69527900D01*
X115520792Y-69518990D01*
X115509146Y-69509756D01*
X115497729Y-69500198D01*
X115486541Y-69490316D01*
X115475583Y-69480110D01*
X115464908Y-69469618D01*
X115454572Y-69458917D01*
X115444574Y-69448005D01*
X115434916Y-69436883D01*
X115425597Y-69425552D01*
X115416616Y-69414010D01*
X115407975Y-69402258D01*
X115399672Y-69390296D01*
X115391708Y-69378123D01*
X115384083Y-69365741D01*
X115376797Y-69353149D01*
X115369850Y-69340346D01*
X115363242Y-69327334D01*
X115356972Y-69314111D01*
X115351042Y-69300679D01*
X115345450Y-69287036D01*
X115340197Y-69273183D01*
X115335283Y-69259120D01*
X115330708Y-69244847D01*
X115326472Y-69230364D01*
X115322575Y-69215671D01*
X115319017Y-69200767D01*
X115315797Y-69185654D01*
X115312917Y-69170330D01*
X115310375Y-69154797D01*
X115308172Y-69139053D01*
X115306309Y-69123100D01*
X115304784Y-69106936D01*
X115303597Y-69090562D01*
X115302750Y-69073978D01*
X115302242Y-69057184D01*
X115302107Y-69043697D01*
X115447153Y-69043697D01*
X115447279Y-69057847D01*
X115447659Y-69071796D01*
X115448291Y-69085542D01*
X115449177Y-69099086D01*
X115450315Y-69112429D01*
X115451707Y-69125569D01*
X115453352Y-69138507D01*
X115455249Y-69151243D01*
X115457400Y-69163777D01*
X115459804Y-69176109D01*
X115462460Y-69188239D01*
X115465370Y-69200166D01*
X115468533Y-69211892D01*
X115471949Y-69223415D01*
X115475618Y-69234737D01*
X115479539Y-69245856D01*
X115488142Y-69267489D01*
X115497757Y-69288313D01*
X115508384Y-69308330D01*
X115520023Y-69327537D01*
X115532674Y-69345937D01*
X115546337Y-69363528D01*
X115561012Y-69380311D01*
X115576699Y-69396286D01*
X115593259Y-69411334D01*
X115610624Y-69425412D01*
X115628796Y-69438518D01*
X115647774Y-69450654D01*
X115667557Y-69461819D01*
X115688147Y-69472013D01*
X115709543Y-69481236D01*
X115720543Y-69485484D01*
X115731745Y-69489489D01*
X115743148Y-69493251D01*
X115754752Y-69496770D01*
X115766558Y-69500047D01*
X115778566Y-69503081D01*
X115790775Y-69505872D01*
X115803186Y-69508421D01*
X115815798Y-69510726D01*
X115828611Y-69512789D01*
X115841626Y-69514610D01*
X115854843Y-69516187D01*
X115868261Y-69517522D01*
X115881881Y-69518615D01*
X115895702Y-69519464D01*
X115909724Y-69520071D01*
X115923948Y-69520435D01*
X115938374Y-69520556D01*
X116114815Y-69520556D01*
X116114815Y-68589698D01*
X115930167Y-68589698D01*
X115900451Y-68590141D01*
X115871677Y-68591471D01*
X115843847Y-68593688D01*
X115816961Y-68596792D01*
X115791018Y-68600782D01*
X115766018Y-68605659D01*
X115741961Y-68611423D01*
X115718848Y-68618073D01*
X115696679Y-68625610D01*
X115675453Y-68634034D01*
X115655170Y-68643344D01*
X115635830Y-68653542D01*
X115617434Y-68664626D01*
X115599982Y-68676596D01*
X115583472Y-68689454D01*
X115567906Y-68703198D01*
X115553284Y-68717829D01*
X115539605Y-68733346D01*
X115526869Y-68749750D01*
X115515077Y-68767041D01*
X115504228Y-68785219D01*
X115494322Y-68804283D01*
X115485360Y-68824234D01*
X115477341Y-68845072D01*
X115470266Y-68866797D01*
X115464134Y-68889408D01*
X115458945Y-68912906D01*
X115454700Y-68937291D01*
X115451398Y-68962562D01*
X115449040Y-68988720D01*
X115447624Y-69015765D01*
X115447153Y-69043697D01*
X115302107Y-69043697D01*
X115302072Y-69040180D01*
X115302682Y-69004747D01*
X115304512Y-68970439D01*
X115307562Y-68937256D01*
X115311832Y-68905197D01*
X115317321Y-68874264D01*
X115324030Y-68844455D01*
X115331960Y-68815771D01*
X115341109Y-68788213D01*
X115351478Y-68761778D01*
X115363066Y-68736469D01*
X115375875Y-68712285D01*
X115389904Y-68689225D01*
X115405152Y-68667291D01*
X115421621Y-68646481D01*
X115439309Y-68626796D01*
X115458217Y-68608236D01*
X115478345Y-68590801D01*
X115499693Y-68574490D01*
X115522261Y-68559305D01*
X115546048Y-68545244D01*
X115571056Y-68532309D01*
X115597283Y-68520498D01*
X115624730Y-68509811D01*
X115653398Y-68500250D01*
X115683285Y-68491814D01*
X115714391Y-68484502D01*
X115746718Y-68478316D01*
X115780265Y-68473254D01*
X115815031Y-68469317D01*
X115851018Y-68466505D01*
X115888224Y-68464817D01*
X115926650Y-68464255D01*
X116253154Y-68464255D01*
X116253154Y-69646000D01*
G37*
G36*
X114807846Y-68783458D02*
G01*
X114827699Y-68784416D01*
X114847258Y-68786013D01*
X114866520Y-68788249D01*
X114885488Y-68791124D01*
X114904160Y-68794638D01*
X114922536Y-68798790D01*
X114940618Y-68803581D01*
X114958403Y-68809012D01*
X114975894Y-68815081D01*
X114993089Y-68821789D01*
X115009989Y-68829135D01*
X115026593Y-68837121D01*
X115042902Y-68845745D01*
X115058915Y-68855009D01*
X115074634Y-68864911D01*
X115074634Y-69008233D01*
X115059167Y-68994746D01*
X115043470Y-68982129D01*
X115027541Y-68970383D01*
X115011381Y-68959506D01*
X114994989Y-68949500D01*
X114978367Y-68940364D01*
X114961513Y-68932098D01*
X114944428Y-68924702D01*
X114927111Y-68918176D01*
X114909564Y-68912520D01*
X114891785Y-68907734D01*
X114873774Y-68903819D01*
X114855533Y-68900773D01*
X114837060Y-68898598D01*
X114818356Y-68897293D01*
X114799421Y-68896858D01*
X114788710Y-68897058D01*
X114768308Y-68898661D01*
X114749266Y-68901867D01*
X114731584Y-68906675D01*
X114715263Y-68913087D01*
X114700301Y-68921101D01*
X114686700Y-68930718D01*
X114674459Y-68941938D01*
X114663578Y-68954761D01*
X114654057Y-68969186D01*
X114645896Y-68985215D01*
X114639096Y-69002846D01*
X114633655Y-69022080D01*
X114629575Y-69042917D01*
X114626855Y-69065357D01*
X114626004Y-69077178D01*
X114625494Y-69089399D01*
X114625324Y-69102022D01*
X114878262Y-69138072D01*
X114895411Y-69140723D01*
X114912015Y-69143766D01*
X114928074Y-69147201D01*
X114943590Y-69151028D01*
X114958560Y-69155247D01*
X114972987Y-69159858D01*
X114986869Y-69164862D01*
X115000207Y-69170257D01*
X115013000Y-69176045D01*
X115025249Y-69182225D01*
X115036953Y-69188797D01*
X115048113Y-69195761D01*
X115058729Y-69203117D01*
X115068800Y-69210865D01*
X115078327Y-69219006D01*
X115087310Y-69227538D01*
X115095748Y-69236463D01*
X115103642Y-69245780D01*
X115110991Y-69255489D01*
X115117796Y-69265590D01*
X115124056Y-69276083D01*
X115129773Y-69286968D01*
X115134944Y-69298246D01*
X115139572Y-69309915D01*
X115143655Y-69321977D01*
X115147193Y-69334431D01*
X115150187Y-69347277D01*
X115152637Y-69360515D01*
X115154542Y-69374145D01*
X115155903Y-69388167D01*
X115156720Y-69402582D01*
X115156992Y-69417388D01*
X115156714Y-69431210D01*
X115155879Y-69444687D01*
X115154488Y-69457818D01*
X115152541Y-69470603D01*
X115150037Y-69483042D01*
X115146977Y-69495135D01*
X115143360Y-69506883D01*
X115139187Y-69518285D01*
X115134457Y-69529341D01*
X115129171Y-69540052D01*
X115123329Y-69550416D01*
X115116930Y-69560435D01*
X115109975Y-69570108D01*
X115102464Y-69579436D01*
X115094395Y-69588417D01*
X115085771Y-69597053D01*
X115076619Y-69605252D01*
X115067041Y-69612921D01*
X115057037Y-69620062D01*
X115046607Y-69626674D01*
X115035751Y-69632757D01*
X115024469Y-69638310D01*
X115012761Y-69643335D01*
X115000628Y-69647831D01*
X114988069Y-69651798D01*
X114975083Y-69655236D01*
X114961672Y-69658146D01*
X114947835Y-69660526D01*
X114933572Y-69662377D01*
X114918883Y-69663699D01*
X114903768Y-69664493D01*
X114888227Y-69664757D01*
X114867120Y-69664165D01*
X114846663Y-69662390D01*
X114826857Y-69659430D01*
X114807701Y-69655287D01*
X114789195Y-69649960D01*
X114771339Y-69643449D01*
X114754134Y-69635754D01*
X114737578Y-69626875D01*
X114721674Y-69616813D01*
X114706419Y-69605567D01*
X114691815Y-69593137D01*
X114677861Y-69579523D01*
X114664557Y-69564725D01*
X114651904Y-69548744D01*
X114639901Y-69531578D01*
X114628548Y-69513229D01*
X114625324Y-69513229D01*
X114625324Y-69646000D01*
X114490209Y-69646000D01*
X114490209Y-69209879D01*
X114625324Y-69209879D01*
X114625324Y-69296048D01*
X114625581Y-69309711D01*
X114626350Y-69323077D01*
X114627633Y-69336145D01*
X114629428Y-69348915D01*
X114631736Y-69361387D01*
X114634557Y-69373562D01*
X114637891Y-69385439D01*
X114641738Y-69397018D01*
X114646097Y-69408300D01*
X114650970Y-69419284D01*
X114656355Y-69429971D01*
X114662254Y-69440359D01*
X114668665Y-69450450D01*
X114675590Y-69460244D01*
X114683027Y-69469739D01*
X114690977Y-69478937D01*
X114695096Y-69483373D01*
X114703541Y-69491823D01*
X114716723Y-69503440D01*
X114730524Y-69513791D01*
X114744942Y-69522874D01*
X114759979Y-69530689D01*
X114775635Y-69537237D01*
X114791908Y-69542518D01*
X114808800Y-69546532D01*
X114820404Y-69548503D01*
X114832284Y-69549911D01*
X114844438Y-69550756D01*
X114856867Y-69551038D01*
X114861418Y-69550999D01*
X114874731Y-69550410D01*
X114887535Y-69549116D01*
X114899829Y-69547117D01*
X114911612Y-69544411D01*
X114922885Y-69541000D01*
X114937123Y-69535353D01*
X114950454Y-69528452D01*
X114962879Y-69520295D01*
X114974396Y-69510884D01*
X114984700Y-69500484D01*
X114993630Y-69489360D01*
X115001187Y-69477513D01*
X115007369Y-69464942D01*
X115012178Y-69451648D01*
X115015612Y-69437630D01*
X115017673Y-69422888D01*
X115018360Y-69407423D01*
X115018173Y-69396749D01*
X115017194Y-69381516D01*
X115015374Y-69367215D01*
X115012715Y-69353846D01*
X115009216Y-69341410D01*
X115004877Y-69329906D01*
X114999698Y-69319335D01*
X114991487Y-69306691D01*
X114981783Y-69295705D01*
X114970586Y-69286376D01*
X114967555Y-69284253D01*
X114954526Y-69276168D01*
X114943805Y-69270531D01*
X114932270Y-69265260D01*
X114919920Y-69260354D01*
X114906757Y-69255814D01*
X114892779Y-69251640D01*
X114877988Y-69247832D01*
X114862383Y-69244390D01*
X114845963Y-69241313D01*
X114828730Y-69238602D01*
X114625324Y-69209879D01*
X114490209Y-69209879D01*
X114490209Y-69097625D01*
X114490500Y-69078277D01*
X114491371Y-69059543D01*
X114492824Y-69041423D01*
X114494858Y-69023918D01*
X114497472Y-69007026D01*
X114500668Y-68990749D01*
X114504445Y-68975086D01*
X114508802Y-68960037D01*
X114513741Y-68945603D01*
X114519261Y-68931783D01*
X114525362Y-68918577D01*
X114532043Y-68905985D01*
X114539306Y-68894007D01*
X114547150Y-68882644D01*
X114555575Y-68871895D01*
X114564581Y-68861760D01*
X114574168Y-68852240D01*
X114584336Y-68843333D01*
X114595085Y-68835041D01*
X114606415Y-68827363D01*
X114618327Y-68820299D01*
X114630819Y-68813850D01*
X114643892Y-68808015D01*
X114657546Y-68802794D01*
X114671781Y-68798187D01*
X114686598Y-68794195D01*
X114701995Y-68790816D01*
X114717973Y-68788052D01*
X114734533Y-68785902D01*
X114751673Y-68784367D01*
X114769395Y-68783445D01*
X114787697Y-68783138D01*
X114807846Y-68783458D01*
G37*
G36*
X113848046Y-69636914D02*
G01*
X113860466Y-69643440D01*
X113873838Y-69649095D01*
X113888163Y-69653881D01*
X113899532Y-69656899D01*
X113911436Y-69659428D01*
X113923877Y-69661467D01*
X113936853Y-69663017D01*
X113950365Y-69664078D01*
X113964412Y-69664649D01*
X113974075Y-69664757D01*
X113987726Y-69664516D01*
X114000942Y-69663791D01*
X114013726Y-69662583D01*
X114026076Y-69660892D01*
X114037993Y-69658718D01*
X114049476Y-69656061D01*
X114071143Y-69649297D01*
X114091077Y-69640600D01*
X114109277Y-69629971D01*
X114125744Y-69617409D01*
X114140478Y-69602915D01*
X114153478Y-69586488D01*
X114164745Y-69568129D01*
X114174278Y-69547837D01*
X114182079Y-69525612D01*
X114185329Y-69513775D01*
X114188145Y-69501455D01*
X114190529Y-69488652D01*
X114192479Y-69475365D01*
X114193995Y-69461596D01*
X114195079Y-69447343D01*
X114195729Y-69432607D01*
X114195945Y-69417388D01*
X114195945Y-68917374D01*
X114341026Y-68917374D01*
X114341026Y-68801896D01*
X114195945Y-68801896D01*
X114195945Y-68600836D01*
X114060830Y-68558044D01*
X114060830Y-68801896D01*
X113848046Y-68801896D01*
X113848046Y-68917374D01*
X114060830Y-68917374D01*
X114060830Y-69393355D01*
X114060578Y-69408864D01*
X114059821Y-69423518D01*
X114058558Y-69437317D01*
X114056791Y-69450260D01*
X114054519Y-69462349D01*
X114050704Y-69477136D01*
X114045992Y-69490403D01*
X114040382Y-69502149D01*
X114033875Y-69512376D01*
X114032107Y-69514695D01*
X114022117Y-69525165D01*
X114010280Y-69533860D01*
X113999482Y-69539539D01*
X113987501Y-69544082D01*
X113974340Y-69547489D01*
X113959997Y-69549760D01*
X113944472Y-69550896D01*
X113936266Y-69551038D01*
X113923732Y-69550470D01*
X113911628Y-69548766D01*
X113899955Y-69545927D01*
X113888712Y-69541952D01*
X113877900Y-69536841D01*
X113867518Y-69530595D01*
X113857567Y-69523213D01*
X113848046Y-69514695D01*
X113848046Y-69636914D01*
G37*
G36*
X113360057Y-68783623D02*
G01*
X113380158Y-68785076D01*
X113399835Y-68787497D01*
X113419088Y-68790887D01*
X113437918Y-68795246D01*
X113456325Y-68800573D01*
X113474307Y-68806868D01*
X113491867Y-68814133D01*
X113509002Y-68822366D01*
X113525714Y-68831567D01*
X113542002Y-68841737D01*
X113557867Y-68852876D01*
X113573308Y-68864983D01*
X113588326Y-68878059D01*
X113602920Y-68892103D01*
X113617090Y-68907116D01*
X113630612Y-68922861D01*
X113643262Y-68939173D01*
X113655040Y-68956053D01*
X113665945Y-68973501D01*
X113675977Y-68991517D01*
X113685138Y-69010101D01*
X113693425Y-69029253D01*
X113700841Y-69048972D01*
X113707384Y-69069260D01*
X113713054Y-69090115D01*
X113717853Y-69111538D01*
X113721779Y-69133529D01*
X113724832Y-69156088D01*
X113727013Y-69179215D01*
X113727776Y-69190991D01*
X113728322Y-69202909D01*
X113728649Y-69214970D01*
X113728758Y-69227172D01*
X113728658Y-69240087D01*
X113728358Y-69252820D01*
X113727859Y-69265370D01*
X113727160Y-69277739D01*
X113726260Y-69289926D01*
X113725162Y-69301931D01*
X113723863Y-69313753D01*
X113722365Y-69325394D01*
X113718769Y-69348129D01*
X113714373Y-69370136D01*
X113709179Y-69391415D01*
X113703186Y-69411966D01*
X113696393Y-69431789D01*
X113688801Y-69450883D01*
X113680410Y-69469249D01*
X113671220Y-69486887D01*
X113661231Y-69503797D01*
X113650443Y-69519979D01*
X113638855Y-69535433D01*
X113626469Y-69550159D01*
X113613384Y-69564036D01*
X113599701Y-69577018D01*
X113585421Y-69589104D01*
X113570543Y-69600296D01*
X113555068Y-69610592D01*
X113538995Y-69619992D01*
X113522324Y-69628498D01*
X113505056Y-69636108D01*
X113487190Y-69642822D01*
X113468726Y-69648642D01*
X113449665Y-69653566D01*
X113430006Y-69657595D01*
X113409750Y-69660728D01*
X113388895Y-69662967D01*
X113367444Y-69664310D01*
X113345394Y-69664757D01*
X113322812Y-69664444D01*
X113300789Y-69663503D01*
X113279325Y-69661934D01*
X113258419Y-69659738D01*
X113238072Y-69656915D01*
X113218284Y-69653464D01*
X113199055Y-69649386D01*
X113180384Y-69644681D01*
X113162272Y-69639348D01*
X113144718Y-69633387D01*
X113127723Y-69626800D01*
X113111287Y-69619585D01*
X113095410Y-69611742D01*
X113080092Y-69603272D01*
X113065332Y-69594175D01*
X113051130Y-69584450D01*
X113051130Y-69458421D01*
X113066167Y-69469636D01*
X113081383Y-69480128D01*
X113096777Y-69489896D01*
X113112350Y-69498941D01*
X113128101Y-69507262D01*
X113144031Y-69514859D01*
X113160140Y-69521733D01*
X113176427Y-69527884D01*
X113192893Y-69533310D01*
X113209537Y-69538014D01*
X113226360Y-69541993D01*
X113243362Y-69545249D01*
X113260542Y-69547782D01*
X113277901Y-69549591D01*
X113295438Y-69550676D01*
X113313154Y-69551038D01*
X113328841Y-69550736D01*
X113344103Y-69549829D01*
X113358938Y-69548318D01*
X113373348Y-69546202D01*
X113387331Y-69543482D01*
X113400889Y-69540157D01*
X113414021Y-69536228D01*
X113426727Y-69531694D01*
X113439007Y-69526556D01*
X113450861Y-69520813D01*
X113462290Y-69514466D01*
X113473292Y-69507514D01*
X113483868Y-69499958D01*
X113494019Y-69491797D01*
X113503744Y-69483032D01*
X113513042Y-69473662D01*
X113521821Y-69463737D01*
X113530060Y-69453306D01*
X113537758Y-69442369D01*
X113544916Y-69430925D01*
X113551534Y-69418976D01*
X113557611Y-69406521D01*
X113563147Y-69393560D01*
X113568144Y-69380092D01*
X113572600Y-69366119D01*
X113576515Y-69351640D01*
X113579890Y-69336654D01*
X113582725Y-69321163D01*
X113585019Y-69305165D01*
X113586773Y-69288662D01*
X113587987Y-69271652D01*
X113588660Y-69254136D01*
X112992512Y-69254136D01*
X112992512Y-69183794D01*
X112992867Y-69160559D01*
X112993858Y-69139538D01*
X113131144Y-69139538D01*
X113586902Y-69139538D01*
X113584759Y-69126143D01*
X113582217Y-69113072D01*
X113579273Y-69100324D01*
X113575929Y-69087898D01*
X113572184Y-69075796D01*
X113568038Y-69064016D01*
X113563492Y-69052559D01*
X113558545Y-69041425D01*
X113553197Y-69030614D01*
X113547449Y-69020126D01*
X113541299Y-69009960D01*
X113534750Y-69000118D01*
X113527799Y-68990598D01*
X113520448Y-68981401D01*
X113512696Y-68972527D01*
X113504543Y-68963976D01*
X113491761Y-68951981D01*
X113478474Y-68941166D01*
X113464682Y-68931531D01*
X113450385Y-68923076D01*
X113435583Y-68915800D01*
X113420277Y-68909705D01*
X113404465Y-68904789D01*
X113388149Y-68901053D01*
X113371328Y-68898496D01*
X113354001Y-68897120D01*
X113342170Y-68896858D01*
X113336021Y-68896920D01*
X113323979Y-68897419D01*
X113312279Y-68898418D01*
X113295367Y-68900851D01*
X113279223Y-68904408D01*
X113263847Y-68909088D01*
X113249239Y-68914890D01*
X113235398Y-68921816D01*
X113222325Y-68929866D01*
X113210019Y-68939038D01*
X113198481Y-68949333D01*
X113187711Y-68960752D01*
X113184284Y-68964795D01*
X113174646Y-68977522D01*
X113165970Y-68991146D01*
X113158259Y-69005666D01*
X113151511Y-69021082D01*
X113145726Y-69037395D01*
X113142404Y-69048768D01*
X113139511Y-69060540D01*
X113137046Y-69072710D01*
X113135010Y-69085279D01*
X113133401Y-69098246D01*
X113132221Y-69111611D01*
X113131468Y-69125375D01*
X113131144Y-69139538D01*
X112993858Y-69139538D01*
X112993932Y-69137967D01*
X112995706Y-69116018D01*
X112998191Y-69094713D01*
X113001385Y-69074051D01*
X113005289Y-69054033D01*
X113009903Y-69034658D01*
X113015227Y-69015926D01*
X113021260Y-68997838D01*
X113028004Y-68980393D01*
X113035457Y-68963592D01*
X113043620Y-68947434D01*
X113052493Y-68931920D01*
X113062076Y-68917049D01*
X113072368Y-68902822D01*
X113083370Y-68889237D01*
X113094984Y-68876390D01*
X113107184Y-68864370D01*
X113119970Y-68853180D01*
X113133343Y-68842819D01*
X113147301Y-68833287D01*
X113161846Y-68824583D01*
X113176977Y-68816709D01*
X113192694Y-68809663D01*
X113208997Y-68803446D01*
X113225886Y-68798059D01*
X113243362Y-68793500D01*
X113261424Y-68789770D01*
X113280071Y-68786868D01*
X113299306Y-68784796D01*
X113319126Y-68783553D01*
X113339532Y-68783138D01*
X113360057Y-68783623D01*
G37*
G36*
X112746022Y-68970717D02*
G01*
X112759819Y-68969738D01*
X112772854Y-68966801D01*
X112785126Y-68961907D01*
X112796635Y-68955055D01*
X112807383Y-68946245D01*
X112810795Y-68942873D01*
X112818479Y-68933900D01*
X112825980Y-68922415D01*
X112831606Y-68910146D01*
X112835357Y-68897094D01*
X112837232Y-68883259D01*
X112837467Y-68876048D01*
X112836816Y-68864245D01*
X112834315Y-68850836D01*
X112829939Y-68838251D01*
X112823688Y-68826491D01*
X112815562Y-68815555D01*
X112810795Y-68810396D01*
X112800303Y-68801133D01*
X112789047Y-68793786D01*
X112777029Y-68788356D01*
X112764249Y-68784842D01*
X112750706Y-68783245D01*
X112746022Y-68783138D01*
X112734211Y-68783804D01*
X112720775Y-68786359D01*
X112708142Y-68790831D01*
X112696313Y-68797220D01*
X112685288Y-68805525D01*
X112680077Y-68810396D01*
X112672224Y-68819108D01*
X112664558Y-68830319D01*
X112658808Y-68842354D01*
X112654975Y-68855214D01*
X112653059Y-68868897D01*
X112652819Y-68876048D01*
X112653485Y-68887958D01*
X112656040Y-68901532D01*
X112660512Y-68914323D01*
X112666900Y-68926330D01*
X112675205Y-68937555D01*
X112680077Y-68942873D01*
X112688874Y-68950895D01*
X112700167Y-68958726D01*
X112712264Y-68964599D01*
X112725164Y-68968514D01*
X112738869Y-68970472D01*
X112746022Y-68970717D01*
G37*
G36*
X112746022Y-69664757D02*
G01*
X112759819Y-69663789D01*
X112772854Y-69660883D01*
X112785126Y-69656040D01*
X112796635Y-69649260D01*
X112807383Y-69640543D01*
X112810795Y-69637207D01*
X112818479Y-69628332D01*
X112825980Y-69616984D01*
X112831606Y-69604874D01*
X112835357Y-69592001D01*
X112837232Y-69578365D01*
X112837467Y-69571261D01*
X112836529Y-69557334D01*
X112833716Y-69544127D01*
X112829028Y-69531642D01*
X112822464Y-69519879D01*
X112814025Y-69508836D01*
X112810795Y-69505316D01*
X112802104Y-69497210D01*
X112790976Y-69489296D01*
X112779085Y-69483361D01*
X112766432Y-69479405D01*
X112753016Y-69477426D01*
X112746022Y-69477179D01*
X112734211Y-69477866D01*
X112720775Y-69480504D01*
X112708142Y-69485120D01*
X112696313Y-69491714D01*
X112685288Y-69500287D01*
X112680077Y-69505316D01*
X112672224Y-69514267D01*
X112664558Y-69525670D01*
X112658808Y-69537795D01*
X112654975Y-69550640D01*
X112653059Y-69564207D01*
X112652819Y-69571261D01*
X112653485Y-69582995D01*
X112656040Y-69596376D01*
X112660512Y-69608995D01*
X112666900Y-69620852D01*
X112675205Y-69631946D01*
X112680077Y-69637207D01*
X112688874Y-69645144D01*
X112700167Y-69652892D01*
X112712264Y-69658704D01*
X112725164Y-69662578D01*
X112738869Y-69664515D01*
X112746022Y-69664757D01*
G37*
G36*
X111470488Y-68774932D02*
G01*
X111470754Y-68761592D01*
X111471551Y-68748682D01*
X111472879Y-68736203D01*
X111474738Y-68724154D01*
X111477129Y-68712535D01*
X111480864Y-68698618D01*
X111485429Y-68685373D01*
X111487488Y-68680263D01*
X111493016Y-68667960D01*
X111499160Y-68656329D01*
X111505919Y-68645371D01*
X111513293Y-68635086D01*
X111521283Y-68625473D01*
X111529889Y-68616533D01*
X111533503Y-68613145D01*
X111542913Y-68605140D01*
X111552823Y-68597792D01*
X111563234Y-68591103D01*
X111574147Y-68585073D01*
X111585560Y-68579700D01*
X111597474Y-68574986D01*
X111602380Y-68573285D01*
X111614902Y-68569485D01*
X111627739Y-68566330D01*
X111640891Y-68563818D01*
X111654357Y-68561951D01*
X111668139Y-68560727D01*
X111682236Y-68560147D01*
X111687962Y-68560096D01*
X111700291Y-68560368D01*
X111712549Y-68561183D01*
X111724735Y-68562543D01*
X111736849Y-68564446D01*
X111748892Y-68566894D01*
X111760863Y-68569885D01*
X111765631Y-68571233D01*
X111777404Y-68574837D01*
X111789090Y-68578870D01*
X111800691Y-68583332D01*
X111812206Y-68588223D01*
X111823634Y-68593544D01*
X111834977Y-68599294D01*
X111839490Y-68601715D01*
X111850607Y-68607946D01*
X111861610Y-68614549D01*
X111872498Y-68621524D01*
X111883271Y-68628872D01*
X111893930Y-68636591D01*
X111904474Y-68644682D01*
X111908660Y-68648023D01*
X111918987Y-68656600D01*
X111929085Y-68665477D01*
X111938954Y-68674655D01*
X111948594Y-68684133D01*
X111958005Y-68693912D01*
X111967187Y-68703991D01*
X111970795Y-68708107D01*
X111970795Y-68560975D01*
X111960016Y-68550711D01*
X111948999Y-68540910D01*
X111937745Y-68531573D01*
X111926255Y-68522699D01*
X111914527Y-68514289D01*
X111902562Y-68506343D01*
X111890361Y-68498861D01*
X111877922Y-68491842D01*
X111865246Y-68485287D01*
X111852334Y-68479196D01*
X111843594Y-68475392D01*
X111830079Y-68470050D01*
X111816024Y-68465233D01*
X111801427Y-68460941D01*
X111786290Y-68457175D01*
X111770611Y-68453934D01*
X111754392Y-68451219D01*
X111737632Y-68449030D01*
X111720331Y-68447366D01*
X111708496Y-68446548D01*
X111696421Y-68445964D01*
X111684105Y-68445614D01*
X111671549Y-68445497D01*
X111658018Y-68445683D01*
X111644683Y-68446239D01*
X111631544Y-68447166D01*
X111618600Y-68448465D01*
X111605853Y-68450134D01*
X111593301Y-68452174D01*
X111580944Y-68454585D01*
X111568784Y-68457367D01*
X111556819Y-68460520D01*
X111545050Y-68464044D01*
X111537313Y-68466600D01*
X111525862Y-68470674D01*
X111514699Y-68475094D01*
X111503825Y-68479858D01*
X111493240Y-68484968D01*
X111479574Y-68492318D01*
X111466422Y-68500282D01*
X111453782Y-68508860D01*
X111441656Y-68518051D01*
X111430042Y-68527856D01*
X111418991Y-68538260D01*
X111408555Y-68549251D01*
X111398731Y-68560829D01*
X111389522Y-68572992D01*
X111380926Y-68585741D01*
X111372944Y-68599077D01*
X111367360Y-68609463D01*
X111362121Y-68620180D01*
X111358821Y-68627507D01*
X111354159Y-68638760D01*
X111349956Y-68650316D01*
X111346211Y-68662177D01*
X111342925Y-68674342D01*
X111340097Y-68686811D01*
X111337728Y-68699583D01*
X111335818Y-68712660D01*
X111334366Y-68726040D01*
X111333372Y-68739725D01*
X111332837Y-68753714D01*
X111332735Y-68763208D01*
X111332877Y-68776226D01*
X111333302Y-68789013D01*
X111334011Y-68801567D01*
X111335002Y-68813890D01*
X111336277Y-68825981D01*
X111337836Y-68837840D01*
X111339678Y-68849467D01*
X111342574Y-68864609D01*
X111345975Y-68879340D01*
X111348855Y-68890117D01*
X111353142Y-68904231D01*
X111357941Y-68918144D01*
X111363254Y-68931855D01*
X111369079Y-68945364D01*
X111375417Y-68958673D01*
X111382268Y-68971779D01*
X111389632Y-68984685D01*
X111397509Y-68997388D01*
X111405908Y-69009854D01*
X111414838Y-69022191D01*
X111424299Y-69034400D01*
X111431744Y-69043473D01*
X111439487Y-69052473D01*
X111447529Y-69061402D01*
X111455870Y-69070258D01*
X111464510Y-69079042D01*
X111473449Y-69087754D01*
X111479574Y-69093522D01*
X111488961Y-69102166D01*
X111498657Y-69110840D01*
X111508662Y-69119545D01*
X111518977Y-69128281D01*
X111529600Y-69137048D01*
X111540533Y-69145846D01*
X111551774Y-69154675D01*
X111563325Y-69163534D01*
X111575185Y-69172425D01*
X111587354Y-69181347D01*
X111595638Y-69187311D01*
X111605929Y-69194646D01*
X111615990Y-69201847D01*
X111625822Y-69208915D01*
X111635426Y-69215851D01*
X111649401Y-69226006D01*
X111662862Y-69235862D01*
X111675807Y-69245419D01*
X111688237Y-69254677D01*
X111700152Y-69263636D01*
X111711552Y-69272296D01*
X111722436Y-69280658D01*
X111732805Y-69288721D01*
X111742724Y-69296533D01*
X111752256Y-69304253D01*
X111761401Y-69311879D01*
X111772995Y-69321904D01*
X111783901Y-69331764D01*
X111794120Y-69341459D01*
X111803652Y-69350989D01*
X111812498Y-69360354D01*
X111818681Y-69367270D01*
X111826301Y-69376429D01*
X111835003Y-69387878D01*
X111842788Y-69399326D01*
X111849657Y-69410775D01*
X111855611Y-69422224D01*
X111860648Y-69433673D01*
X111863231Y-69440542D01*
X111866862Y-69452263D01*
X111869877Y-69464528D01*
X111872277Y-69477336D01*
X111874062Y-69490689D01*
X111875231Y-69504585D01*
X111875785Y-69519025D01*
X111875834Y-69524953D01*
X111287306Y-69524953D01*
X111287306Y-69646000D01*
X112016811Y-69646000D01*
X112016811Y-69587674D01*
X112016667Y-69573603D01*
X112016234Y-69559857D01*
X112015513Y-69546435D01*
X112014503Y-69533338D01*
X112013204Y-69520565D01*
X112011618Y-69508117D01*
X112009742Y-69495994D01*
X112007578Y-69484195D01*
X112005126Y-69472720D01*
X112001407Y-69457926D01*
X112000398Y-69454318D01*
X111995960Y-69439975D01*
X111990854Y-69425815D01*
X111985079Y-69411838D01*
X111978636Y-69398044D01*
X111971524Y-69384434D01*
X111963743Y-69371006D01*
X111957469Y-69361056D01*
X111950818Y-69351209D01*
X111946176Y-69344702D01*
X111938828Y-69334975D01*
X111931074Y-69325248D01*
X111922912Y-69315521D01*
X111914343Y-69305794D01*
X111905368Y-69296067D01*
X111895985Y-69286340D01*
X111886195Y-69276613D01*
X111875999Y-69266886D01*
X111865395Y-69257159D01*
X111854384Y-69247432D01*
X111846818Y-69240947D01*
X111835035Y-69231104D01*
X111822768Y-69221030D01*
X111810017Y-69210723D01*
X111796782Y-69200185D01*
X111783062Y-69189414D01*
X111773646Y-69182105D01*
X111764015Y-69174693D01*
X111754169Y-69167178D01*
X111744108Y-69159560D01*
X111733832Y-69151839D01*
X111723340Y-69144015D01*
X111712633Y-69136088D01*
X111701711Y-69128057D01*
X111696169Y-69124004D01*
X111684319Y-69115412D01*
X111672841Y-69106892D01*
X111661733Y-69098445D01*
X111650996Y-69090069D01*
X111640630Y-69081766D01*
X111630635Y-69073535D01*
X111621011Y-69065376D01*
X111611758Y-69057289D01*
X111602876Y-69049274D01*
X111591611Y-69038700D01*
X111588897Y-69036076D01*
X111578319Y-69025530D01*
X111568271Y-69014992D01*
X111558755Y-69004464D01*
X111549770Y-68993944D01*
X111541316Y-68983434D01*
X111533393Y-68972933D01*
X111526002Y-68962442D01*
X111519142Y-68951959D01*
X111512785Y-68941463D01*
X111506905Y-68930930D01*
X111501501Y-68920360D01*
X111495416Y-68907097D01*
X111490075Y-68893776D01*
X111485478Y-68880398D01*
X111481626Y-68866963D01*
X111478417Y-68853278D01*
X111475753Y-68839336D01*
X111473632Y-68825137D01*
X111472055Y-68810680D01*
X111471184Y-68798929D01*
X111470662Y-68787013D01*
X111470488Y-68774932D01*
G37*
G36*
X110369051Y-68542510D02*
G01*
X110376039Y-68554596D01*
X110383376Y-68567405D01*
X110391060Y-68580937D01*
X110397052Y-68591562D01*
X110403240Y-68602593D01*
X110409623Y-68614031D01*
X110416202Y-68625877D01*
X110422977Y-68638129D01*
X110429947Y-68650788D01*
X110434703Y-68659454D01*
X110441891Y-68672740D01*
X110449167Y-68686330D01*
X110456530Y-68700224D01*
X110463980Y-68714422D01*
X110471519Y-68728924D01*
X110479144Y-68743730D01*
X110486858Y-68758840D01*
X110494659Y-68774254D01*
X110502547Y-68789972D01*
X110507855Y-68800619D01*
X110513202Y-68811402D01*
X110515890Y-68816844D01*
X110521245Y-68827813D01*
X110526615Y-68838885D01*
X110531998Y-68850061D01*
X110537395Y-68861339D01*
X110542806Y-68872720D01*
X110548230Y-68884205D01*
X110553669Y-68895792D01*
X110559121Y-68907482D01*
X110564586Y-68919276D01*
X110570066Y-68931172D01*
X110575559Y-68943172D01*
X110581066Y-68955275D01*
X110586587Y-68967480D01*
X110592121Y-68979789D01*
X110597669Y-68992201D01*
X110603231Y-69004715D01*
X110608777Y-69017308D01*
X110614277Y-69029953D01*
X110619731Y-69042651D01*
X110625139Y-69055402D01*
X110630502Y-69068205D01*
X110635819Y-69081061D01*
X110641090Y-69093970D01*
X110646315Y-69106931D01*
X110651495Y-69119945D01*
X110656628Y-69133012D01*
X110661716Y-69146131D01*
X110666758Y-69159303D01*
X110671755Y-69172527D01*
X110676705Y-69185805D01*
X110681610Y-69199135D01*
X110686469Y-69212517D01*
X110691268Y-69225937D01*
X110695994Y-69239376D01*
X110700647Y-69252837D01*
X110705227Y-69266318D01*
X110709733Y-69279820D01*
X110714166Y-69293342D01*
X110718526Y-69306885D01*
X110722812Y-69320448D01*
X110727025Y-69334032D01*
X110731165Y-69347637D01*
X110735232Y-69361262D01*
X110739225Y-69374908D01*
X110743145Y-69388575D01*
X110746992Y-69402262D01*
X110750766Y-69415970D01*
X110754466Y-69429698D01*
X110758067Y-69443423D01*
X110761541Y-69457120D01*
X110764890Y-69470790D01*
X110768113Y-69484433D01*
X110771210Y-69498048D01*
X110774181Y-69511635D01*
X110777026Y-69525195D01*
X110779745Y-69538728D01*
X110782338Y-69552233D01*
X110784806Y-69565711D01*
X110787147Y-69579161D01*
X110789362Y-69592584D01*
X110791452Y-69605979D01*
X110793415Y-69619346D01*
X110795253Y-69632687D01*
X110796964Y-69646000D01*
X110942045Y-69646000D01*
X110940114Y-69632793D01*
X110938060Y-69619553D01*
X110935883Y-69606278D01*
X110933582Y-69592968D01*
X110931157Y-69579625D01*
X110928608Y-69566247D01*
X110925936Y-69552834D01*
X110923140Y-69539387D01*
X110920221Y-69525906D01*
X110917178Y-69512391D01*
X110914011Y-69498841D01*
X110910720Y-69485257D01*
X110907306Y-69471639D01*
X110903769Y-69457986D01*
X110900107Y-69444299D01*
X110896322Y-69430577D01*
X110892408Y-69416819D01*
X110888432Y-69403095D01*
X110884394Y-69389406D01*
X110880294Y-69375751D01*
X110876132Y-69362130D01*
X110871909Y-69348544D01*
X110867623Y-69334992D01*
X110863276Y-69321474D01*
X110858867Y-69307991D01*
X110854397Y-69294542D01*
X110849864Y-69281127D01*
X110845269Y-69267747D01*
X110840613Y-69254401D01*
X110835895Y-69241089D01*
X110831115Y-69227812D01*
X110826273Y-69214569D01*
X110821347Y-69201373D01*
X110816386Y-69188237D01*
X110811391Y-69175160D01*
X110806362Y-69162142D01*
X110801298Y-69149184D01*
X110796200Y-69136286D01*
X110791067Y-69123447D01*
X110785900Y-69110668D01*
X110780699Y-69097948D01*
X110775463Y-69085288D01*
X110770193Y-69072688D01*
X110764889Y-69060146D01*
X110759551Y-69047665D01*
X110754178Y-69035243D01*
X110748770Y-69022880D01*
X110743329Y-69010577D01*
X110737880Y-68998366D01*
X110732452Y-68986278D01*
X110727045Y-68974314D01*
X110721658Y-68962474D01*
X110716292Y-68950757D01*
X110710947Y-68939164D01*
X110705622Y-68927694D01*
X110700317Y-68916348D01*
X110695034Y-68905126D01*
X110689771Y-68894028D01*
X110684528Y-68883053D01*
X110679306Y-68872202D01*
X110674105Y-68861474D01*
X110668925Y-68850870D01*
X110661192Y-68835196D01*
X110658625Y-68830033D01*
X110650938Y-68814761D01*
X110643375Y-68799829D01*
X110635936Y-68785236D01*
X110628620Y-68770984D01*
X110621428Y-68757072D01*
X110614359Y-68743500D01*
X110607414Y-68730268D01*
X110600593Y-68717376D01*
X110593895Y-68704824D01*
X110587322Y-68692612D01*
X110583008Y-68684660D01*
X110576699Y-68673087D01*
X110570632Y-68661998D01*
X110564808Y-68651393D01*
X110557419Y-68638007D01*
X110550460Y-68625482D01*
X110543932Y-68613818D01*
X110537835Y-68603015D01*
X110530818Y-68590722D01*
X110528200Y-68586181D01*
X111120830Y-68586181D01*
X111120830Y-68464255D01*
X110369051Y-68464255D01*
X110369051Y-68542510D01*
G37*
G36*
X109626357Y-68464255D02*
G01*
X110193782Y-69833578D01*
X110319812Y-69833578D01*
X109754145Y-68464255D01*
X109626357Y-68464255D01*
G37*
G36*
X109179261Y-68445537D02*
G01*
X109191180Y-68445855D01*
X109202926Y-68446492D01*
X109220224Y-68448043D01*
X109237136Y-68450311D01*
X109253661Y-68453295D01*
X109269799Y-68456995D01*
X109285551Y-68461411D01*
X109300917Y-68466543D01*
X109315897Y-68472392D01*
X109330490Y-68478956D01*
X109344696Y-68486237D01*
X109358444Y-68494223D01*
X109371768Y-68502905D01*
X109384671Y-68512283D01*
X109397151Y-68522356D01*
X109409208Y-68533124D01*
X109420843Y-68544588D01*
X109432055Y-68556748D01*
X109442845Y-68569603D01*
X109453213Y-68583154D01*
X109463158Y-68597400D01*
X109469553Y-68607284D01*
X109475724Y-68617435D01*
X109481707Y-68627887D01*
X109487503Y-68638639D01*
X109493111Y-68649690D01*
X109498530Y-68661042D01*
X109503763Y-68672693D01*
X109508807Y-68684645D01*
X109513664Y-68696896D01*
X109518332Y-68709448D01*
X109522814Y-68722299D01*
X109527107Y-68735450D01*
X109531212Y-68748902D01*
X109535130Y-68762653D01*
X109538860Y-68776704D01*
X109542403Y-68791055D01*
X109545757Y-68805706D01*
X109548880Y-68820648D01*
X109551802Y-68835872D01*
X109554522Y-68851377D01*
X109557041Y-68867164D01*
X109559358Y-68883233D01*
X109561474Y-68899583D01*
X109563388Y-68916214D01*
X109565101Y-68933128D01*
X109566612Y-68950323D01*
X109567922Y-68967800D01*
X109569030Y-68985558D01*
X109569937Y-69003598D01*
X109570642Y-69021920D01*
X109571146Y-69040523D01*
X109571448Y-69059408D01*
X109571549Y-69078575D01*
X109571453Y-69096036D01*
X109571164Y-69113251D01*
X109570684Y-69130218D01*
X109570010Y-69146938D01*
X109569145Y-69163411D01*
X109568087Y-69179636D01*
X109566837Y-69195614D01*
X109565394Y-69211345D01*
X109563759Y-69226828D01*
X109561932Y-69242065D01*
X109559912Y-69257053D01*
X109557701Y-69271795D01*
X109555296Y-69286289D01*
X109552700Y-69300536D01*
X109549911Y-69314536D01*
X109546929Y-69328288D01*
X109545350Y-69335052D01*
X109542057Y-69348380D01*
X109538586Y-69361446D01*
X109534936Y-69374248D01*
X109531108Y-69386787D01*
X109527101Y-69399062D01*
X109522915Y-69411074D01*
X109518551Y-69422823D01*
X109514008Y-69434309D01*
X109509286Y-69445531D01*
X109504386Y-69456490D01*
X109499307Y-69467185D01*
X109491354Y-69482735D01*
X109482999Y-69497692D01*
X109474243Y-69512057D01*
X109468186Y-69521259D01*
X109458784Y-69534539D01*
X109449000Y-69547191D01*
X109438835Y-69559214D01*
X109428289Y-69570609D01*
X109417362Y-69581375D01*
X109406053Y-69591512D01*
X109394363Y-69601021D01*
X109382292Y-69609901D01*
X109369840Y-69618153D01*
X109357006Y-69625776D01*
X109348211Y-69630497D01*
X109334735Y-69637006D01*
X109320919Y-69642830D01*
X109306763Y-69647970D01*
X109292267Y-69652423D01*
X109277431Y-69656192D01*
X109262255Y-69659276D01*
X109246739Y-69661674D01*
X109230883Y-69663387D01*
X109214687Y-69664415D01*
X109198151Y-69664757D01*
X109186471Y-69664598D01*
X109169251Y-69663763D01*
X109152392Y-69662211D01*
X109135893Y-69659943D01*
X109119756Y-69656960D01*
X109103978Y-69653260D01*
X109088562Y-69648843D01*
X109073506Y-69643711D01*
X109058811Y-69637863D01*
X109044476Y-69631298D01*
X109030502Y-69624018D01*
X109021360Y-69618779D01*
X109007987Y-69610371D01*
X108995020Y-69601303D01*
X108982460Y-69591576D01*
X108970308Y-69581190D01*
X108958562Y-69570144D01*
X108947223Y-69558438D01*
X108936292Y-69546074D01*
X108925767Y-69533049D01*
X108915649Y-69519366D01*
X108905939Y-69505023D01*
X108899694Y-69495064D01*
X108893638Y-69484827D01*
X108887769Y-69474310D01*
X108882088Y-69463513D01*
X108876595Y-69452438D01*
X108871290Y-69441083D01*
X108866172Y-69429448D01*
X108861242Y-69417535D01*
X108856500Y-69405342D01*
X108851946Y-69392869D01*
X108847579Y-69380117D01*
X108843400Y-69367086D01*
X108839409Y-69353776D01*
X108835606Y-69340186D01*
X108831990Y-69326317D01*
X108828562Y-69312168D01*
X108825297Y-69297749D01*
X108822243Y-69283065D01*
X108819399Y-69268119D01*
X108816765Y-69252909D01*
X108814343Y-69237436D01*
X108812131Y-69221699D01*
X108810130Y-69205699D01*
X108808339Y-69189436D01*
X108806759Y-69172910D01*
X108805390Y-69156120D01*
X108804231Y-69139067D01*
X108803283Y-69121751D01*
X108802546Y-69104171D01*
X108802019Y-69086328D01*
X108801703Y-69068221D01*
X108801673Y-69063041D01*
X108940230Y-69063041D01*
X108940469Y-69092956D01*
X108941186Y-69121921D01*
X108942381Y-69149937D01*
X108944054Y-69177003D01*
X108946205Y-69203119D01*
X108948834Y-69228286D01*
X108951941Y-69252503D01*
X108955526Y-69275770D01*
X108959589Y-69298088D01*
X108964130Y-69319456D01*
X108969149Y-69339874D01*
X108974646Y-69359342D01*
X108980620Y-69377861D01*
X108987073Y-69395430D01*
X108994004Y-69412050D01*
X109001413Y-69427720D01*
X109009300Y-69442440D01*
X109017665Y-69456210D01*
X109026508Y-69469031D01*
X109035828Y-69480902D01*
X109045627Y-69491823D01*
X109055904Y-69501795D01*
X109066659Y-69510817D01*
X109077892Y-69518889D01*
X109089602Y-69526012D01*
X109101791Y-69532185D01*
X109114458Y-69537408D01*
X109127603Y-69541682D01*
X109141225Y-69545006D01*
X109155326Y-69547380D01*
X109169905Y-69548804D01*
X109184962Y-69549279D01*
X109200235Y-69548813D01*
X109215023Y-69547414D01*
X109229326Y-69545083D01*
X109243145Y-69541819D01*
X109256478Y-69537623D01*
X109269327Y-69532494D01*
X109281691Y-69526433D01*
X109293570Y-69519439D01*
X109304964Y-69511513D01*
X109315874Y-69502654D01*
X109326298Y-69492862D01*
X109336238Y-69482139D01*
X109345693Y-69470482D01*
X109354663Y-69457893D01*
X109363148Y-69444372D01*
X109371148Y-69429918D01*
X109378663Y-69414531D01*
X109385694Y-69398212D01*
X109392239Y-69380961D01*
X109398300Y-69362777D01*
X109403876Y-69343661D01*
X109408967Y-69323612D01*
X109413573Y-69302630D01*
X109417694Y-69280716D01*
X109421331Y-69257869D01*
X109424482Y-69234090D01*
X109427149Y-69209379D01*
X109429331Y-69183735D01*
X109431028Y-69157158D01*
X109432240Y-69129649D01*
X109432968Y-69101208D01*
X109433210Y-69071833D01*
X109432963Y-69040350D01*
X109432221Y-69009865D01*
X109430984Y-68980380D01*
X109429253Y-68951895D01*
X109427028Y-68924409D01*
X109424307Y-68897923D01*
X109421092Y-68872436D01*
X109417383Y-68847948D01*
X109413179Y-68824460D01*
X109408480Y-68801972D01*
X109403287Y-68780483D01*
X109397599Y-68759993D01*
X109391417Y-68740503D01*
X109384740Y-68722013D01*
X109377568Y-68704522D01*
X109369902Y-68688030D01*
X109361741Y-68672538D01*
X109353086Y-68658046D01*
X109343936Y-68644552D01*
X109334292Y-68632059D01*
X109324152Y-68620565D01*
X109313519Y-68610070D01*
X109302390Y-68600575D01*
X109290768Y-68592079D01*
X109278650Y-68584583D01*
X109266038Y-68578087D01*
X109252931Y-68572589D01*
X109239330Y-68568092D01*
X109225234Y-68564593D01*
X109210644Y-68562095D01*
X109195559Y-68560596D01*
X109179979Y-68560096D01*
X109165229Y-68560587D01*
X109150947Y-68562060D01*
X109137133Y-68564516D01*
X109123788Y-68567954D01*
X109110911Y-68572375D01*
X109098502Y-68577777D01*
X109086561Y-68584162D01*
X109075089Y-68591530D01*
X109064085Y-68599880D01*
X109053549Y-68609212D01*
X109043481Y-68619526D01*
X109033882Y-68630822D01*
X109024751Y-68643101D01*
X109016088Y-68656363D01*
X109007894Y-68670606D01*
X109000167Y-68685832D01*
X108992909Y-68702040D01*
X108986120Y-68719231D01*
X108979798Y-68737404D01*
X108973945Y-68756559D01*
X108968560Y-68776696D01*
X108963643Y-68797816D01*
X108959195Y-68819918D01*
X108955215Y-68843002D01*
X108951703Y-68867069D01*
X108948659Y-68892118D01*
X108946083Y-68918149D01*
X108943976Y-68945163D01*
X108942337Y-68973159D01*
X108941167Y-69002137D01*
X108940464Y-69032098D01*
X108940230Y-69063041D01*
X108801673Y-69063041D01*
X108801598Y-69049852D01*
X108801961Y-69012670D01*
X108803050Y-68976668D01*
X108804864Y-68941847D01*
X108807405Y-68908206D01*
X108810671Y-68875746D01*
X108814663Y-68844465D01*
X108819382Y-68814366D01*
X108824825Y-68785446D01*
X108830995Y-68757708D01*
X108837891Y-68731149D01*
X108845512Y-68705771D01*
X108853860Y-68681573D01*
X108862933Y-68658556D01*
X108872732Y-68636719D01*
X108883257Y-68616062D01*
X108894508Y-68596586D01*
X108906485Y-68578290D01*
X108919187Y-68561174D01*
X108932616Y-68545239D01*
X108946770Y-68530484D01*
X108961650Y-68516910D01*
X108977256Y-68504516D01*
X108993588Y-68493302D01*
X109010645Y-68483269D01*
X109028429Y-68474416D01*
X109046938Y-68466744D01*
X109066174Y-68460252D01*
X109086135Y-68454940D01*
X109106822Y-68450809D01*
X109128235Y-68447858D01*
X109150373Y-68446087D01*
X109173238Y-68445497D01*
X109179261Y-68445537D01*
G37*
G36*
X108140677Y-69646000D02*
G01*
X108275792Y-69646000D01*
X108275792Y-68624283D01*
X108284475Y-68632471D01*
X108293575Y-68640087D01*
X108304078Y-68648123D01*
X108314196Y-68655346D01*
X108321514Y-68660333D01*
X108333092Y-68667907D01*
X108343135Y-68674202D01*
X108353534Y-68680483D01*
X108364292Y-68686750D01*
X108375408Y-68693002D01*
X108386881Y-68699241D01*
X108389218Y-68700487D01*
X108401042Y-68706566D01*
X108413066Y-68712531D01*
X108425291Y-68718381D01*
X108437716Y-68724117D01*
X108450341Y-68729738D01*
X108463167Y-68735245D01*
X108468353Y-68737416D01*
X108481309Y-68742634D01*
X108494165Y-68747480D01*
X108506920Y-68751953D01*
X108519575Y-68756055D01*
X108532130Y-68759784D01*
X108544585Y-68763142D01*
X108549539Y-68764381D01*
X108549539Y-68627800D01*
X108535489Y-68623929D01*
X108524063Y-68620533D01*
X108512472Y-68616872D01*
X108500716Y-68612945D01*
X108488796Y-68608752D01*
X108476710Y-68604294D01*
X108464460Y-68599570D01*
X108455164Y-68595853D01*
X108442730Y-68590728D01*
X108430343Y-68585467D01*
X108418001Y-68580067D01*
X108405705Y-68574531D01*
X108393454Y-68568856D01*
X108381250Y-68563045D01*
X108369091Y-68557096D01*
X108356978Y-68551010D01*
X108344975Y-68544745D01*
X108333146Y-68538407D01*
X108321491Y-68531996D01*
X108310010Y-68525511D01*
X108298703Y-68518953D01*
X108287571Y-68512322D01*
X108276612Y-68505617D01*
X108265827Y-68498840D01*
X108255308Y-68492044D01*
X108245146Y-68485284D01*
X108235341Y-68478561D01*
X108223587Y-68470209D01*
X108212391Y-68461915D01*
X108201754Y-68453677D01*
X108191675Y-68445497D01*
X108140677Y-68445497D01*
X108140677Y-69646000D01*
G37*
G36*
X107162045Y-68464255D02*
G01*
X107729470Y-69833578D01*
X107855499Y-69833578D01*
X107289832Y-68464255D01*
X107162045Y-68464255D01*
G37*
G36*
X106541863Y-68774932D02*
G01*
X106542129Y-68761592D01*
X106542926Y-68748682D01*
X106544254Y-68736203D01*
X106546113Y-68724154D01*
X106548503Y-68712535D01*
X106552239Y-68698618D01*
X106556804Y-68685373D01*
X106558862Y-68680263D01*
X106564391Y-68667960D01*
X106570535Y-68656329D01*
X106577294Y-68645371D01*
X106584668Y-68635086D01*
X106592658Y-68625473D01*
X106601263Y-68616533D01*
X106604878Y-68613145D01*
X106614287Y-68605140D01*
X106624198Y-68597792D01*
X106634609Y-68591103D01*
X106645521Y-68585073D01*
X106656934Y-68579700D01*
X106668848Y-68574986D01*
X106673754Y-68573285D01*
X106686276Y-68569485D01*
X106699114Y-68566330D01*
X106712265Y-68563818D01*
X106725732Y-68561951D01*
X106739514Y-68560727D01*
X106753610Y-68560147D01*
X106759337Y-68560096D01*
X106771666Y-68560368D01*
X106783923Y-68561183D01*
X106796109Y-68562543D01*
X106808224Y-68564446D01*
X106820267Y-68566894D01*
X106832238Y-68569885D01*
X106837006Y-68571233D01*
X106848779Y-68574837D01*
X106860465Y-68578870D01*
X106872066Y-68583332D01*
X106883580Y-68588223D01*
X106895009Y-68593544D01*
X106906352Y-68599294D01*
X106910865Y-68601715D01*
X106921982Y-68607946D01*
X106932984Y-68614549D01*
X106943872Y-68621524D01*
X106954646Y-68628872D01*
X106965305Y-68636591D01*
X106975849Y-68644682D01*
X106980035Y-68648023D01*
X106990362Y-68656600D01*
X107000460Y-68665477D01*
X107010329Y-68674655D01*
X107019969Y-68684133D01*
X107029379Y-68693912D01*
X107038562Y-68703991D01*
X107042170Y-68708107D01*
X107042170Y-68560975D01*
X107031390Y-68550711D01*
X107020374Y-68540910D01*
X107009120Y-68531573D01*
X106997629Y-68522699D01*
X106985902Y-68514289D01*
X106973937Y-68506343D01*
X106961735Y-68498861D01*
X106949297Y-68491842D01*
X106936621Y-68485287D01*
X106923709Y-68479196D01*
X106914969Y-68475392D01*
X106901454Y-68470050D01*
X106887398Y-68465233D01*
X106872802Y-68460941D01*
X106857665Y-68457175D01*
X106841986Y-68453934D01*
X106825767Y-68451219D01*
X106809007Y-68449030D01*
X106791705Y-68447366D01*
X106779871Y-68446548D01*
X106767795Y-68445964D01*
X106755480Y-68445614D01*
X106742924Y-68445497D01*
X106729393Y-68445683D01*
X106716058Y-68446239D01*
X106702919Y-68447166D01*
X106689975Y-68448465D01*
X106677227Y-68450134D01*
X106664675Y-68452174D01*
X106652319Y-68454585D01*
X106640159Y-68457367D01*
X106628194Y-68460520D01*
X106616425Y-68464044D01*
X106608688Y-68466600D01*
X106597237Y-68470674D01*
X106586074Y-68475094D01*
X106575200Y-68479858D01*
X106564614Y-68484968D01*
X106550949Y-68492318D01*
X106537796Y-68500282D01*
X106525157Y-68508860D01*
X106513030Y-68518051D01*
X106501417Y-68527856D01*
X106490366Y-68538260D01*
X106479929Y-68549251D01*
X106470106Y-68560829D01*
X106460897Y-68572992D01*
X106452301Y-68585741D01*
X106444319Y-68599077D01*
X106438735Y-68609463D01*
X106433496Y-68620180D01*
X106430195Y-68627507D01*
X106425534Y-68638760D01*
X106421330Y-68650316D01*
X106417586Y-68662177D01*
X106414300Y-68674342D01*
X106411472Y-68686811D01*
X106409103Y-68699583D01*
X106407193Y-68712660D01*
X106405740Y-68726040D01*
X106404747Y-68739725D01*
X106404212Y-68753714D01*
X106404110Y-68763208D01*
X106404252Y-68776226D01*
X106404677Y-68789013D01*
X106405385Y-68801567D01*
X106406377Y-68813890D01*
X106407652Y-68825981D01*
X106409211Y-68837840D01*
X106411052Y-68849467D01*
X106413949Y-68864609D01*
X106417349Y-68879340D01*
X106420230Y-68890117D01*
X106424517Y-68904231D01*
X106429316Y-68918144D01*
X106434628Y-68931855D01*
X106440454Y-68945364D01*
X106446792Y-68958673D01*
X106453643Y-68971779D01*
X106461007Y-68984685D01*
X106468883Y-68997388D01*
X106477282Y-69009854D01*
X106486212Y-69022191D01*
X106495674Y-69034400D01*
X106503118Y-69043473D01*
X106510862Y-69052473D01*
X106518904Y-69061402D01*
X106527245Y-69070258D01*
X106535885Y-69079042D01*
X106544824Y-69087754D01*
X106550949Y-69093522D01*
X106560336Y-69102166D01*
X106570032Y-69110840D01*
X106580037Y-69119545D01*
X106590351Y-69128281D01*
X106600975Y-69137048D01*
X106611907Y-69145846D01*
X106623149Y-69154675D01*
X106634700Y-69163534D01*
X106646560Y-69172425D01*
X106658729Y-69181347D01*
X106667013Y-69187311D01*
X106677303Y-69194646D01*
X106687365Y-69201847D01*
X106697197Y-69208915D01*
X106706800Y-69215851D01*
X106720776Y-69226006D01*
X106734236Y-69235862D01*
X106747182Y-69245419D01*
X106759612Y-69254677D01*
X106771527Y-69263636D01*
X106782926Y-69272296D01*
X106793811Y-69280658D01*
X106804180Y-69288721D01*
X106814098Y-69296533D01*
X106823630Y-69304253D01*
X106832776Y-69311879D01*
X106844369Y-69321904D01*
X106855275Y-69331764D01*
X106865495Y-69341459D01*
X106875027Y-69350989D01*
X106883872Y-69360354D01*
X106890056Y-69367270D01*
X106897676Y-69376429D01*
X106906377Y-69387878D01*
X106914163Y-69399326D01*
X106921032Y-69410775D01*
X106926985Y-69422224D01*
X106932023Y-69433673D01*
X106934606Y-69440542D01*
X106938236Y-69452263D01*
X106941252Y-69464528D01*
X106943652Y-69477336D01*
X106945436Y-69490689D01*
X106946606Y-69504585D01*
X106947159Y-69519025D01*
X106947209Y-69524953D01*
X106358681Y-69524953D01*
X106358681Y-69646000D01*
X107088186Y-69646000D01*
X107088186Y-69587674D01*
X107088041Y-69573603D01*
X107087609Y-69559857D01*
X107086887Y-69546435D01*
X107085877Y-69533338D01*
X107084579Y-69520565D01*
X107082992Y-69508117D01*
X107081117Y-69495994D01*
X107078953Y-69484195D01*
X107076501Y-69472720D01*
X107072782Y-69457926D01*
X107071772Y-69454318D01*
X107067335Y-69439975D01*
X107062229Y-69425815D01*
X107056454Y-69411838D01*
X107050010Y-69398044D01*
X107042898Y-69384434D01*
X107035118Y-69371006D01*
X107028843Y-69361056D01*
X107022193Y-69351209D01*
X107017551Y-69344702D01*
X107010203Y-69334975D01*
X107002448Y-69325248D01*
X106994287Y-69315521D01*
X106985718Y-69305794D01*
X106976742Y-69296067D01*
X106967360Y-69286340D01*
X106957570Y-69276613D01*
X106947373Y-69266886D01*
X106936770Y-69257159D01*
X106925759Y-69247432D01*
X106918193Y-69240947D01*
X106906410Y-69231104D01*
X106894143Y-69221030D01*
X106881392Y-69210723D01*
X106868156Y-69200185D01*
X106854437Y-69189414D01*
X106845021Y-69182105D01*
X106835390Y-69174693D01*
X106825544Y-69167178D01*
X106815483Y-69159560D01*
X106805206Y-69151839D01*
X106794715Y-69144015D01*
X106784008Y-69136088D01*
X106773085Y-69128057D01*
X106767544Y-69124004D01*
X106755694Y-69115412D01*
X106744215Y-69106892D01*
X106733108Y-69098445D01*
X106722371Y-69090069D01*
X106712005Y-69081766D01*
X106702010Y-69073535D01*
X106692386Y-69065376D01*
X106683133Y-69057289D01*
X106674251Y-69049274D01*
X106662985Y-69038700D01*
X106660272Y-69036076D01*
X106649693Y-69025530D01*
X106639646Y-69014992D01*
X106630129Y-69004464D01*
X106621144Y-68993944D01*
X106612691Y-68983434D01*
X106604768Y-68972933D01*
X106597376Y-68962442D01*
X106590516Y-68951959D01*
X106584160Y-68941463D01*
X106578280Y-68930930D01*
X106572876Y-68920360D01*
X106566791Y-68907097D01*
X106561450Y-68893776D01*
X106556853Y-68880398D01*
X106553001Y-68866963D01*
X106549792Y-68853278D01*
X106547127Y-68839336D01*
X106545006Y-68825137D01*
X106543429Y-68810680D01*
X106542559Y-68798929D01*
X106542037Y-68787013D01*
X106541863Y-68774932D01*
G37*
G36*
X105809882Y-68445537D02*
G01*
X105821801Y-68445855D01*
X105833547Y-68446492D01*
X105850845Y-68448043D01*
X105867757Y-68450311D01*
X105884282Y-68453295D01*
X105900420Y-68456995D01*
X105916173Y-68461411D01*
X105931538Y-68466543D01*
X105946518Y-68472392D01*
X105961111Y-68478956D01*
X105975317Y-68486237D01*
X105989065Y-68494223D01*
X106002389Y-68502905D01*
X106015292Y-68512283D01*
X106027772Y-68522356D01*
X106039829Y-68533124D01*
X106051464Y-68544588D01*
X106062676Y-68556748D01*
X106073466Y-68569603D01*
X106083834Y-68583154D01*
X106093779Y-68597400D01*
X106100174Y-68607284D01*
X106106345Y-68617435D01*
X106112329Y-68627887D01*
X106118124Y-68638639D01*
X106123732Y-68649690D01*
X106129152Y-68661042D01*
X106134384Y-68672693D01*
X106139428Y-68684645D01*
X106144285Y-68696896D01*
X106148953Y-68709448D01*
X106153435Y-68722299D01*
X106157728Y-68735450D01*
X106161833Y-68748902D01*
X106165751Y-68762653D01*
X106169481Y-68776704D01*
X106173024Y-68791055D01*
X106176378Y-68805706D01*
X106179501Y-68820648D01*
X106182423Y-68835872D01*
X106185143Y-68851377D01*
X106187662Y-68867164D01*
X106189979Y-68883233D01*
X106192095Y-68899583D01*
X106194009Y-68916214D01*
X106195722Y-68933128D01*
X106197233Y-68950323D01*
X106198543Y-68967800D01*
X106199651Y-68985558D01*
X106200558Y-69003598D01*
X106201263Y-69021920D01*
X106201767Y-69040523D01*
X106202069Y-69059408D01*
X106202170Y-69078575D01*
X106202074Y-69096036D01*
X106201786Y-69113251D01*
X106201305Y-69130218D01*
X106200631Y-69146938D01*
X106199766Y-69163411D01*
X106198708Y-69179636D01*
X106197458Y-69195614D01*
X106196015Y-69211345D01*
X106194380Y-69226828D01*
X106192553Y-69242065D01*
X106190534Y-69257053D01*
X106188322Y-69271795D01*
X106185917Y-69286289D01*
X106183321Y-69300536D01*
X106180532Y-69314536D01*
X106177551Y-69328288D01*
X106175971Y-69335052D01*
X106172678Y-69348380D01*
X106169207Y-69361446D01*
X106165557Y-69374248D01*
X106161729Y-69386787D01*
X106157722Y-69399062D01*
X106153536Y-69411074D01*
X106149172Y-69422823D01*
X106144629Y-69434309D01*
X106139907Y-69445531D01*
X106135007Y-69456490D01*
X106129928Y-69467185D01*
X106121975Y-69482735D01*
X106113621Y-69497692D01*
X106104864Y-69512057D01*
X106098807Y-69521259D01*
X106089405Y-69534539D01*
X106079621Y-69547191D01*
X106069456Y-69559214D01*
X106058910Y-69570609D01*
X106047983Y-69581375D01*
X106036674Y-69591512D01*
X106024984Y-69601021D01*
X106012913Y-69609901D01*
X106000461Y-69618153D01*
X105987627Y-69625776D01*
X105978832Y-69630497D01*
X105965356Y-69637006D01*
X105951540Y-69642830D01*
X105937384Y-69647970D01*
X105922888Y-69652423D01*
X105908052Y-69656192D01*
X105892876Y-69659276D01*
X105877360Y-69661674D01*
X105861504Y-69663387D01*
X105845308Y-69664415D01*
X105828772Y-69664757D01*
X105817092Y-69664598D01*
X105799872Y-69663763D01*
X105783013Y-69662211D01*
X105766514Y-69659943D01*
X105750377Y-69656960D01*
X105734600Y-69653260D01*
X105719183Y-69648843D01*
X105704127Y-69643711D01*
X105689432Y-69637863D01*
X105675097Y-69631298D01*
X105661123Y-69624018D01*
X105651982Y-69618779D01*
X105638608Y-69610371D01*
X105625641Y-69601303D01*
X105613081Y-69591576D01*
X105600929Y-69581190D01*
X105589183Y-69570144D01*
X105577844Y-69558438D01*
X105566913Y-69546074D01*
X105556388Y-69533049D01*
X105546270Y-69519366D01*
X105536560Y-69505023D01*
X105530315Y-69495064D01*
X105524259Y-69484827D01*
X105518390Y-69474310D01*
X105512709Y-69463513D01*
X105507216Y-69452438D01*
X105501911Y-69441083D01*
X105496793Y-69429448D01*
X105491863Y-69417535D01*
X105487121Y-69405342D01*
X105482567Y-69392869D01*
X105478200Y-69380117D01*
X105474021Y-69367086D01*
X105470030Y-69353776D01*
X105466227Y-69340186D01*
X105462611Y-69326317D01*
X105459183Y-69312168D01*
X105455918Y-69297749D01*
X105452864Y-69283065D01*
X105450020Y-69268119D01*
X105447387Y-69252909D01*
X105444964Y-69237436D01*
X105442752Y-69221699D01*
X105440751Y-69205699D01*
X105438960Y-69189436D01*
X105437380Y-69172910D01*
X105436011Y-69156120D01*
X105434852Y-69139067D01*
X105433904Y-69121751D01*
X105433167Y-69104171D01*
X105432640Y-69086328D01*
X105432324Y-69068221D01*
X105432294Y-69063041D01*
X105570851Y-69063041D01*
X105571090Y-69092956D01*
X105571807Y-69121921D01*
X105573002Y-69149937D01*
X105574675Y-69177003D01*
X105576826Y-69203119D01*
X105579455Y-69228286D01*
X105582562Y-69252503D01*
X105586147Y-69275770D01*
X105590210Y-69298088D01*
X105594751Y-69319456D01*
X105599770Y-69339874D01*
X105605267Y-69359342D01*
X105611242Y-69377861D01*
X105617694Y-69395430D01*
X105624625Y-69412050D01*
X105632034Y-69427720D01*
X105639921Y-69442440D01*
X105648286Y-69456210D01*
X105657129Y-69469031D01*
X105666449Y-69480902D01*
X105676248Y-69491823D01*
X105686525Y-69501795D01*
X105697280Y-69510817D01*
X105708513Y-69518889D01*
X105720223Y-69526012D01*
X105732412Y-69532185D01*
X105745079Y-69537408D01*
X105758224Y-69541682D01*
X105771846Y-69545006D01*
X105785947Y-69547380D01*
X105800526Y-69548804D01*
X105815583Y-69549279D01*
X105830856Y-69548813D01*
X105845644Y-69547414D01*
X105859947Y-69545083D01*
X105873766Y-69541819D01*
X105887099Y-69537623D01*
X105899948Y-69532494D01*
X105912312Y-69526433D01*
X105924191Y-69519439D01*
X105935586Y-69511513D01*
X105946495Y-69502654D01*
X105956919Y-69492862D01*
X105966859Y-69482139D01*
X105976314Y-69470482D01*
X105985284Y-69457893D01*
X105993769Y-69444372D01*
X106001769Y-69429918D01*
X106009284Y-69414531D01*
X106016315Y-69398212D01*
X106022860Y-69380961D01*
X106028921Y-69362777D01*
X106034497Y-69343661D01*
X106039588Y-69323612D01*
X106044194Y-69302630D01*
X106048316Y-69280716D01*
X106051952Y-69257869D01*
X106055104Y-69234090D01*
X106057770Y-69209379D01*
X106059952Y-69183735D01*
X106061649Y-69157158D01*
X106062861Y-69129649D01*
X106063589Y-69101208D01*
X106063831Y-69071833D01*
X106063584Y-69040350D01*
X106062842Y-69009865D01*
X106061605Y-68980380D01*
X106059874Y-68951895D01*
X106057649Y-68924409D01*
X106054928Y-68897923D01*
X106051714Y-68872436D01*
X106048004Y-68847948D01*
X106043800Y-68824460D01*
X106039101Y-68801972D01*
X106033908Y-68780483D01*
X106028220Y-68759993D01*
X106022038Y-68740503D01*
X106015361Y-68722013D01*
X106008189Y-68704522D01*
X106000523Y-68688030D01*
X105992363Y-68672538D01*
X105983707Y-68658046D01*
X105974557Y-68644552D01*
X105964913Y-68632059D01*
X105954774Y-68620565D01*
X105944140Y-68610070D01*
X105933012Y-68600575D01*
X105921389Y-68592079D01*
X105909271Y-68584583D01*
X105896659Y-68578087D01*
X105883552Y-68572589D01*
X105869951Y-68568092D01*
X105855855Y-68564593D01*
X105841265Y-68562095D01*
X105826180Y-68560596D01*
X105810600Y-68560096D01*
X105795850Y-68560587D01*
X105781568Y-68562060D01*
X105767754Y-68564516D01*
X105754409Y-68567954D01*
X105741532Y-68572375D01*
X105729123Y-68577777D01*
X105717182Y-68584162D01*
X105705710Y-68591530D01*
X105694706Y-68599880D01*
X105684170Y-68609212D01*
X105674102Y-68619526D01*
X105664503Y-68630822D01*
X105655372Y-68643101D01*
X105646709Y-68656363D01*
X105638515Y-68670606D01*
X105630788Y-68685832D01*
X105623530Y-68702040D01*
X105616741Y-68719231D01*
X105610419Y-68737404D01*
X105604566Y-68756559D01*
X105599181Y-68776696D01*
X105594264Y-68797816D01*
X105589816Y-68819918D01*
X105585836Y-68843002D01*
X105582324Y-68867069D01*
X105579280Y-68892118D01*
X105576705Y-68918149D01*
X105574597Y-68945163D01*
X105572958Y-68973159D01*
X105571788Y-69002137D01*
X105571085Y-69032098D01*
X105570851Y-69063041D01*
X105432294Y-69063041D01*
X105432219Y-69049852D01*
X105432582Y-69012670D01*
X105433671Y-68976668D01*
X105435485Y-68941847D01*
X105438026Y-68908206D01*
X105441292Y-68875746D01*
X105445285Y-68844465D01*
X105450003Y-68814366D01*
X105455447Y-68785446D01*
X105461616Y-68757708D01*
X105468512Y-68731149D01*
X105476134Y-68705771D01*
X105484481Y-68681573D01*
X105493554Y-68658556D01*
X105503353Y-68636719D01*
X105513878Y-68616062D01*
X105525129Y-68596586D01*
X105537106Y-68578290D01*
X105549808Y-68561174D01*
X105563237Y-68545239D01*
X105577391Y-68530484D01*
X105592271Y-68516910D01*
X105607877Y-68504516D01*
X105624209Y-68493302D01*
X105641266Y-68483269D01*
X105659050Y-68474416D01*
X105677559Y-68466744D01*
X105696795Y-68460252D01*
X105716756Y-68454940D01*
X105737443Y-68450809D01*
X105758856Y-68447858D01*
X105780994Y-68446087D01*
X105803859Y-68445497D01*
X105809882Y-68445537D01*
G37*
G36*
X104731731Y-68774932D02*
G01*
X104731996Y-68761592D01*
X104732793Y-68748682D01*
X104734121Y-68736203D01*
X104735980Y-68724154D01*
X104738371Y-68712535D01*
X104742106Y-68698618D01*
X104746671Y-68685373D01*
X104748730Y-68680263D01*
X104754258Y-68667960D01*
X104760402Y-68656329D01*
X104767161Y-68645371D01*
X104774536Y-68635086D01*
X104782526Y-68625473D01*
X104791131Y-68616533D01*
X104794745Y-68613145D01*
X104804155Y-68605140D01*
X104814065Y-68597792D01*
X104824477Y-68591103D01*
X104835389Y-68585073D01*
X104846802Y-68579700D01*
X104858716Y-68574986D01*
X104863622Y-68573285D01*
X104876144Y-68569485D01*
X104888981Y-68566330D01*
X104902133Y-68563818D01*
X104915600Y-68561951D01*
X104929381Y-68560727D01*
X104943478Y-68560147D01*
X104949204Y-68560096D01*
X104961533Y-68560368D01*
X104973791Y-68561183D01*
X104985977Y-68562543D01*
X104998091Y-68564446D01*
X105010134Y-68566894D01*
X105022105Y-68569885D01*
X105026874Y-68571233D01*
X105038646Y-68574837D01*
X105050332Y-68578870D01*
X105061933Y-68583332D01*
X105073448Y-68588223D01*
X105084877Y-68593544D01*
X105096219Y-68599294D01*
X105100733Y-68601715D01*
X105111850Y-68607946D01*
X105122852Y-68614549D01*
X105133740Y-68621524D01*
X105144513Y-68628872D01*
X105155172Y-68636591D01*
X105165717Y-68644682D01*
X105169902Y-68648023D01*
X105180229Y-68656600D01*
X105190327Y-68665477D01*
X105200196Y-68674655D01*
X105209836Y-68684133D01*
X105219247Y-68693912D01*
X105228429Y-68703991D01*
X105232038Y-68708107D01*
X105232038Y-68560975D01*
X105221258Y-68550711D01*
X105210241Y-68540910D01*
X105198988Y-68531573D01*
X105187497Y-68522699D01*
X105175769Y-68514289D01*
X105163805Y-68506343D01*
X105151603Y-68498861D01*
X105139164Y-68491842D01*
X105126489Y-68485287D01*
X105113576Y-68479196D01*
X105104836Y-68475392D01*
X105091321Y-68470050D01*
X105077266Y-68465233D01*
X105062669Y-68460941D01*
X105047532Y-68457175D01*
X105031854Y-68453934D01*
X105015634Y-68451219D01*
X104998874Y-68449030D01*
X104981573Y-68447366D01*
X104969738Y-68446548D01*
X104957663Y-68445964D01*
X104945347Y-68445614D01*
X104932791Y-68445497D01*
X104919260Y-68445683D01*
X104905925Y-68446239D01*
X104892786Y-68447166D01*
X104879842Y-68448465D01*
X104867095Y-68450134D01*
X104854543Y-68452174D01*
X104842187Y-68454585D01*
X104830026Y-68457367D01*
X104818061Y-68460520D01*
X104806293Y-68464044D01*
X104798555Y-68466600D01*
X104787104Y-68470674D01*
X104775942Y-68475094D01*
X104765067Y-68479858D01*
X104754482Y-68484968D01*
X104740816Y-68492318D01*
X104727664Y-68500282D01*
X104715024Y-68508860D01*
X104702898Y-68518051D01*
X104691284Y-68527856D01*
X104680233Y-68538260D01*
X104669797Y-68549251D01*
X104659974Y-68560829D01*
X104650764Y-68572992D01*
X104642168Y-68585741D01*
X104634186Y-68599077D01*
X104628602Y-68609463D01*
X104623363Y-68620180D01*
X104620063Y-68627507D01*
X104615401Y-68638760D01*
X104611198Y-68650316D01*
X104607453Y-68662177D01*
X104604167Y-68674342D01*
X104601340Y-68686811D01*
X104598970Y-68699583D01*
X104597060Y-68712660D01*
X104595608Y-68726040D01*
X104594614Y-68739725D01*
X104594079Y-68753714D01*
X104593978Y-68763208D01*
X104594119Y-68776226D01*
X104594544Y-68789013D01*
X104595253Y-68801567D01*
X104596244Y-68813890D01*
X104597520Y-68825981D01*
X104599078Y-68837840D01*
X104600920Y-68849467D01*
X104603816Y-68864609D01*
X104607217Y-68879340D01*
X104610098Y-68890117D01*
X104614384Y-68904231D01*
X104619183Y-68918144D01*
X104624496Y-68931855D01*
X104630321Y-68945364D01*
X104636659Y-68958673D01*
X104643510Y-68971779D01*
X104650874Y-68984685D01*
X104658751Y-68997388D01*
X104667150Y-69009854D01*
X104676080Y-69022191D01*
X104685541Y-69034400D01*
X104692986Y-69043473D01*
X104700729Y-69052473D01*
X104708772Y-69061402D01*
X104717113Y-69070258D01*
X104725753Y-69079042D01*
X104734691Y-69087754D01*
X104740816Y-69093522D01*
X104750203Y-69102166D01*
X104759899Y-69110840D01*
X104769905Y-69119545D01*
X104780219Y-69128281D01*
X104790842Y-69137048D01*
X104801775Y-69145846D01*
X104813016Y-69154675D01*
X104824567Y-69163534D01*
X104836427Y-69172425D01*
X104848596Y-69181347D01*
X104856881Y-69187311D01*
X104867171Y-69194646D01*
X104877232Y-69201847D01*
X104887064Y-69208915D01*
X104896668Y-69215851D01*
X104910643Y-69226006D01*
X104924104Y-69235862D01*
X104937049Y-69245419D01*
X104949479Y-69254677D01*
X104961394Y-69263636D01*
X104972794Y-69272296D01*
X104983678Y-69280658D01*
X104994047Y-69288721D01*
X105003966Y-69296533D01*
X105013498Y-69304253D01*
X105022644Y-69311879D01*
X105034237Y-69321904D01*
X105045143Y-69331764D01*
X105055362Y-69341459D01*
X105064894Y-69350989D01*
X105073740Y-69360354D01*
X105079923Y-69367270D01*
X105087544Y-69376429D01*
X105096245Y-69387878D01*
X105104030Y-69399326D01*
X105110899Y-69410775D01*
X105116853Y-69422224D01*
X105121890Y-69433673D01*
X105124473Y-69440542D01*
X105128104Y-69452263D01*
X105131119Y-69464528D01*
X105133519Y-69477336D01*
X105135304Y-69490689D01*
X105136473Y-69504585D01*
X105137027Y-69519025D01*
X105137076Y-69524953D01*
X104548548Y-69524953D01*
X104548548Y-69646000D01*
X105278053Y-69646000D01*
X105278053Y-69587674D01*
X105277909Y-69573603D01*
X105277476Y-69559857D01*
X105276755Y-69546435D01*
X105275745Y-69533338D01*
X105274447Y-69520565D01*
X105272860Y-69508117D01*
X105270984Y-69495994D01*
X105268821Y-69484195D01*
X105266368Y-69472720D01*
X105262650Y-69457926D01*
X105261640Y-69454318D01*
X105257202Y-69439975D01*
X105252096Y-69425815D01*
X105246321Y-69411838D01*
X105239878Y-69398044D01*
X105232766Y-69384434D01*
X105224985Y-69371006D01*
X105218711Y-69361056D01*
X105212060Y-69351209D01*
X105207418Y-69344702D01*
X105200070Y-69334975D01*
X105192316Y-69325248D01*
X105184154Y-69315521D01*
X105175585Y-69305794D01*
X105166610Y-69296067D01*
X105157227Y-69286340D01*
X105147438Y-69276613D01*
X105137241Y-69266886D01*
X105126637Y-69257159D01*
X105115626Y-69247432D01*
X105108060Y-69240947D01*
X105096277Y-69231104D01*
X105084010Y-69221030D01*
X105071259Y-69210723D01*
X105058024Y-69200185D01*
X105044304Y-69189414D01*
X105034888Y-69182105D01*
X105025258Y-69174693D01*
X105015412Y-69167178D01*
X105005350Y-69159560D01*
X104995074Y-69151839D01*
X104984582Y-69144015D01*
X104973875Y-69136088D01*
X104962953Y-69128057D01*
X104957411Y-69124004D01*
X104945561Y-69115412D01*
X104934083Y-69106892D01*
X104922975Y-69098445D01*
X104912238Y-69090069D01*
X104901872Y-69081766D01*
X104891878Y-69073535D01*
X104882254Y-69065376D01*
X104873001Y-69057289D01*
X104864119Y-69049274D01*
X104852853Y-69038700D01*
X104850139Y-69036076D01*
X104839561Y-69025530D01*
X104829513Y-69014992D01*
X104819997Y-69004464D01*
X104811012Y-68993944D01*
X104802558Y-68983434D01*
X104794635Y-68972933D01*
X104787244Y-68962442D01*
X104780384Y-68951959D01*
X104774027Y-68941463D01*
X104768147Y-68930930D01*
X104762743Y-68920360D01*
X104756658Y-68907097D01*
X104751317Y-68893776D01*
X104746721Y-68880398D01*
X104742868Y-68866963D01*
X104739659Y-68853278D01*
X104736995Y-68839336D01*
X104734874Y-68825137D01*
X104733297Y-68810680D01*
X104732427Y-68798929D01*
X104731905Y-68787013D01*
X104731731Y-68774932D01*
G37*
G36*
X103911994Y-68476050D02*
G01*
X103917463Y-68487913D01*
X103923086Y-68499845D01*
X103928862Y-68511846D01*
X103934791Y-68523915D01*
X103940874Y-68536053D01*
X103947110Y-68548260D01*
X103953500Y-68560535D01*
X103960043Y-68572880D01*
X103966739Y-68585293D01*
X103973589Y-68597774D01*
X103980592Y-68610324D01*
X103987749Y-68622943D01*
X103995059Y-68635631D01*
X104002523Y-68648387D01*
X104010139Y-68661212D01*
X104017840Y-68674037D01*
X104025628Y-68686867D01*
X104033502Y-68699701D01*
X104041464Y-68712540D01*
X104049512Y-68725383D01*
X104057648Y-68738231D01*
X104065870Y-68751084D01*
X104074180Y-68763941D01*
X104082577Y-68776803D01*
X104091060Y-68789669D01*
X104099631Y-68802540D01*
X104108288Y-68815415D01*
X104117033Y-68828295D01*
X104125865Y-68841180D01*
X104134783Y-68854069D01*
X104143789Y-68866963D01*
X104152829Y-68879847D01*
X104161924Y-68892709D01*
X104171074Y-68905548D01*
X104180279Y-68918363D01*
X104189539Y-68931156D01*
X104198854Y-68943926D01*
X104208223Y-68956674D01*
X104217648Y-68969398D01*
X104227128Y-68982099D01*
X104236663Y-68994778D01*
X104246252Y-69007433D01*
X104255897Y-69020066D01*
X104265596Y-69032676D01*
X104275351Y-69045263D01*
X104285160Y-69057827D01*
X104295024Y-69070368D01*
X104304909Y-69082851D01*
X104314781Y-69095240D01*
X104324638Y-69107534D01*
X104334482Y-69119736D01*
X104344312Y-69131843D01*
X104354128Y-69143856D01*
X104363931Y-69155775D01*
X104373719Y-69167601D01*
X104383494Y-69179333D01*
X104393256Y-69190970D01*
X104403003Y-69202514D01*
X104412737Y-69213964D01*
X104422457Y-69225321D01*
X104432164Y-69236583D01*
X104441856Y-69247751D01*
X104451535Y-69258826D01*
X104451535Y-69375769D01*
X103895834Y-69375769D01*
X103895834Y-69646000D01*
X103762184Y-69646000D01*
X103762184Y-69375769D01*
X103610656Y-69375769D01*
X103610656Y-69252085D01*
X103762184Y-69252085D01*
X103762184Y-68667953D01*
X103895834Y-68667953D01*
X103895834Y-69252085D01*
X104298835Y-69252085D01*
X104293760Y-69245724D01*
X104286080Y-69236096D01*
X104278318Y-69226366D01*
X104270473Y-69216532D01*
X104262546Y-69206596D01*
X104254537Y-69196556D01*
X104246444Y-69186414D01*
X104238270Y-69176168D01*
X104230013Y-69165820D01*
X104221674Y-69155368D01*
X104213252Y-69144813D01*
X104207556Y-69137691D01*
X104198948Y-69126814D01*
X104190262Y-69115706D01*
X104181500Y-69104365D01*
X104172660Y-69092793D01*
X104163743Y-69080989D01*
X104154748Y-69068953D01*
X104145676Y-69056685D01*
X104136527Y-69044186D01*
X104127301Y-69031454D01*
X104117997Y-69018491D01*
X104114878Y-69014098D01*
X104105458Y-69000736D01*
X104095946Y-68987101D01*
X104086341Y-68973193D01*
X104076643Y-68959012D01*
X104066853Y-68944558D01*
X104060274Y-68934771D01*
X104053654Y-68924862D01*
X104046993Y-68914831D01*
X104040291Y-68904680D01*
X104033548Y-68894407D01*
X104026763Y-68884012D01*
X104019937Y-68873496D01*
X104013070Y-68862859D01*
X104006121Y-68852034D01*
X103999121Y-68841029D01*
X103992071Y-68829842D01*
X103984970Y-68818474D01*
X103977819Y-68806926D01*
X103970618Y-68795196D01*
X103963366Y-68783286D01*
X103956064Y-68771195D01*
X103948712Y-68758923D01*
X103941309Y-68746470D01*
X103933856Y-68733836D01*
X103926352Y-68721021D01*
X103918798Y-68708026D01*
X103911194Y-68694849D01*
X103903539Y-68681492D01*
X103895834Y-68667953D01*
X103762184Y-68667953D01*
X103762184Y-68464255D01*
X103906678Y-68464255D01*
X103911994Y-68476050D01*
G37*
%TO.C,G\u002A\u002A\u002A*%
G36*
X135676022Y-89501204D02*
G01*
X135944700Y-89587379D01*
X136179715Y-89668932D01*
X136402887Y-89745846D01*
X136537570Y-89791620D01*
X136622243Y-89800060D01*
X136666785Y-89715094D01*
X136675919Y-89668518D01*
X136761578Y-89611901D01*
X136962134Y-89595726D01*
X137257483Y-89595726D01*
X137257483Y-90886114D01*
X137257483Y-92176501D01*
X136980593Y-92318865D01*
X136703704Y-92461229D01*
X136663951Y-91563798D01*
X136647364Y-91243692D01*
X136615836Y-90893097D01*
X136565446Y-90632391D01*
X136485727Y-90427703D01*
X136366215Y-90245165D01*
X136196443Y-90050909D01*
X136186204Y-90040074D01*
X135871854Y-89773918D01*
X135556117Y-89624363D01*
X135259567Y-89597470D01*
X135002781Y-89699301D01*
X134909957Y-89837956D01*
X134932919Y-90018163D01*
X135064342Y-90208128D01*
X135292149Y-90379465D01*
X135576478Y-90538955D01*
X135317056Y-90822033D01*
X135057634Y-91105111D01*
X134754651Y-90802129D01*
X134605338Y-90639716D01*
X134486124Y-90448683D01*
X134451669Y-90263268D01*
X134473367Y-90121852D01*
X134612058Y-89874886D01*
X134855321Y-89663953D01*
X135175527Y-89517514D01*
X135320302Y-89479957D01*
X135486786Y-89467113D01*
X135676022Y-89501204D01*
G37*
G36*
X140900185Y-92120939D02*
G01*
X140627615Y-92334873D01*
X140247890Y-92484147D01*
X140099115Y-92510361D01*
X139717411Y-92506717D01*
X139314868Y-92427135D01*
X138957177Y-92281909D01*
X138844958Y-92223678D01*
X138674922Y-92161089D01*
X138599779Y-92177267D01*
X138534503Y-92248839D01*
X138387898Y-92349905D01*
X138223237Y-92437812D01*
X138102541Y-92475378D01*
X138092912Y-92448649D01*
X138081487Y-92300899D01*
X138075756Y-92045690D01*
X138076136Y-91707908D01*
X138082722Y-91330901D01*
X138623471Y-91330901D01*
X138623563Y-91334778D01*
X138690424Y-91464544D01*
X138857488Y-91624010D01*
X139089484Y-91788111D01*
X139351140Y-91931781D01*
X139607182Y-92029954D01*
X139777799Y-92065699D01*
X140075631Y-92095767D01*
X140383056Y-92099147D01*
X140648435Y-92075988D01*
X140820128Y-92026440D01*
X140830515Y-92020182D01*
X140935002Y-91893976D01*
X140914113Y-91715885D01*
X140766758Y-91474644D01*
X140713751Y-91410410D01*
X140393873Y-91152078D01*
X139990361Y-90984507D01*
X139541583Y-90924911D01*
X139473046Y-90926203D01*
X139147795Y-90967939D01*
X138877143Y-91058427D01*
X138692049Y-91183978D01*
X138623471Y-91330901D01*
X138082722Y-91330901D01*
X138083044Y-91312441D01*
X138092107Y-91009005D01*
X138116506Y-90553704D01*
X138156098Y-90213924D01*
X138216993Y-89968907D01*
X138305301Y-89797898D01*
X138427131Y-89680142D01*
X138588592Y-89594882D01*
X138649334Y-89572507D01*
X138988727Y-89506814D01*
X139408048Y-89496986D01*
X139860244Y-89544873D01*
X140210971Y-89604775D01*
X140210971Y-89304902D01*
X140210971Y-89005029D01*
X139029576Y-89005029D01*
X137848181Y-89005029D01*
X137848181Y-88783517D01*
X137848181Y-88562005D01*
X139583355Y-88562005D01*
X141318529Y-88562005D01*
X141318529Y-88783517D01*
X141314384Y-88892905D01*
X141276875Y-88970433D01*
X141167892Y-89000189D01*
X140949343Y-89005029D01*
X140580157Y-89005029D01*
X140580157Y-89431623D01*
X140580745Y-89486077D01*
X140615268Y-89811261D01*
X140698444Y-90027095D01*
X140776695Y-90164062D01*
X140759010Y-90228685D01*
X140630030Y-90210176D01*
X140383241Y-90110253D01*
X140262132Y-90062110D01*
X139895569Y-89964857D01*
X139487909Y-89909578D01*
X139433202Y-89905767D01*
X139166034Y-89893467D01*
X138995131Y-89906698D01*
X138876962Y-89953448D01*
X138767996Y-90041708D01*
X138651057Y-90193386D01*
X138586553Y-90422213D01*
X138592791Y-90539590D01*
X138644982Y-90601692D01*
X138789605Y-90577442D01*
X138938021Y-90553024D01*
X139195431Y-90534008D01*
X139484306Y-90529261D01*
X139503359Y-90529586D01*
X140040850Y-90603148D01*
X140498010Y-90799308D01*
X140872261Y-91116974D01*
X140989322Y-91278712D01*
X141089603Y-91574106D01*
X141057036Y-91861099D01*
X141037190Y-91893976D01*
X140900185Y-92120939D01*
G37*
G36*
X125812715Y-92250074D02*
G01*
X125594871Y-92362726D01*
X125580598Y-92370062D01*
X125423566Y-92444685D01*
X125336440Y-92475378D01*
X125324332Y-92460185D01*
X125303922Y-92341337D01*
X125295855Y-92143110D01*
X125293106Y-92043895D01*
X125271634Y-91876863D01*
X125235832Y-91810843D01*
X125213906Y-91818202D01*
X125105366Y-91899488D01*
X124958942Y-92041710D01*
X124927068Y-92074718D01*
X124720538Y-92262144D01*
X124520564Y-92410620D01*
X124480350Y-92435227D01*
X124308063Y-92519089D01*
X124148821Y-92535951D01*
X123956069Y-92482815D01*
X123683253Y-92356681D01*
X123509092Y-92255424D01*
X123157607Y-91956991D01*
X122877157Y-91589379D01*
X122789408Y-91389052D01*
X123012526Y-91389052D01*
X123094255Y-91730161D01*
X123299302Y-92029406D01*
X123313290Y-92042874D01*
X123545319Y-92165600D01*
X123827827Y-92172128D01*
X124134707Y-92070778D01*
X124439852Y-91869865D01*
X124717154Y-91577708D01*
X124938778Y-91260620D01*
X125094137Y-90950998D01*
X125135691Y-90694922D01*
X125065888Y-90473518D01*
X124887181Y-90267910D01*
X124811256Y-90207048D01*
X124490148Y-90058436D01*
X124132515Y-90052161D01*
X123741342Y-90188430D01*
X123439821Y-90395337D01*
X123192051Y-90693560D01*
X123047372Y-91034158D01*
X123012526Y-91389052D01*
X122789408Y-91389052D01*
X122705377Y-91197211D01*
X122670044Y-90944591D01*
X122723293Y-90579754D01*
X122881237Y-90241103D01*
X123121899Y-89952919D01*
X123423301Y-89739479D01*
X123763468Y-89625065D01*
X124120420Y-89633954D01*
X124125398Y-89635106D01*
X124295349Y-89705411D01*
X124529516Y-89838832D01*
X124778776Y-90007497D01*
X125222018Y-90333793D01*
X125222018Y-89669411D01*
X125222018Y-89005029D01*
X123856029Y-89005029D01*
X122490041Y-89005029D01*
X122490041Y-88783517D01*
X122490041Y-88562005D01*
X123846800Y-88562005D01*
X125203558Y-88562005D01*
X125249707Y-88331264D01*
X125281054Y-88129653D01*
X125295855Y-87932937D01*
X125309771Y-87777304D01*
X125393400Y-87438828D01*
X125536268Y-87057103D01*
X125719471Y-86679637D01*
X125924108Y-86353940D01*
X126058760Y-86173128D01*
X126190646Y-86017829D01*
X126303991Y-85937851D01*
X126438136Y-85908196D01*
X126632421Y-85903866D01*
X127009409Y-85903866D01*
X126786244Y-86158037D01*
X126650895Y-86326587D01*
X126396530Y-86718404D01*
X126167763Y-87161735D01*
X125982359Y-87615791D01*
X125858088Y-88039784D01*
X125812715Y-88392925D01*
X125812716Y-88394231D01*
X125832090Y-88502996D01*
X125916952Y-88551142D01*
X126108064Y-88562005D01*
X126171484Y-88562355D01*
X126328547Y-88578341D01*
X126391750Y-88641482D01*
X126403413Y-88783517D01*
X126402947Y-88831082D01*
X126381632Y-88948879D01*
X126297444Y-88996281D01*
X126108064Y-89005029D01*
X125812715Y-89005029D01*
X125812715Y-90627551D01*
X125812715Y-90694922D01*
X125812715Y-92250074D01*
G37*
G36*
X111505587Y-91912860D02*
G01*
X111306135Y-92176174D01*
X110971436Y-92405765D01*
X110908841Y-92433985D01*
X110596786Y-92501166D01*
X110222095Y-92499609D01*
X109837155Y-92432901D01*
X109494357Y-92304629D01*
X109358766Y-92234465D01*
X109180703Y-92146842D01*
X109089592Y-92117505D01*
X109056293Y-92140115D01*
X109051669Y-92208336D01*
X109032089Y-92267857D01*
X108922454Y-92347633D01*
X108839973Y-92373600D01*
X108653948Y-92441848D01*
X108618628Y-92454117D01*
X108577031Y-92449560D01*
X108549972Y-92398437D01*
X108535558Y-92280545D01*
X108531897Y-92075679D01*
X108537096Y-91763635D01*
X108549151Y-91328204D01*
X109069467Y-91328204D01*
X109151019Y-91479398D01*
X109336229Y-91648288D01*
X109600803Y-91814967D01*
X109920448Y-91959528D01*
X110116492Y-92019272D01*
X110450833Y-92079760D01*
X110789260Y-92102696D01*
X111083492Y-92085712D01*
X111285244Y-92026440D01*
X111324897Y-91998521D01*
X111401268Y-91852909D01*
X111365746Y-91664878D01*
X111232037Y-91457623D01*
X111013849Y-91254339D01*
X110724889Y-91078223D01*
X110433387Y-90979322D01*
X110093155Y-90934481D01*
X109751095Y-90944899D01*
X109443285Y-91006459D01*
X109205806Y-91115044D01*
X109074736Y-91266536D01*
X109069467Y-91328204D01*
X108549151Y-91328204D01*
X108549262Y-91324207D01*
X108560356Y-91004346D01*
X108586920Y-90549796D01*
X108627751Y-90210516D01*
X108688848Y-89965946D01*
X108776208Y-89795523D01*
X108895829Y-89678689D01*
X109053708Y-89594882D01*
X109114450Y-89572507D01*
X109453843Y-89506814D01*
X109873164Y-89496986D01*
X110325361Y-89544873D01*
X110676087Y-89604775D01*
X110676087Y-89304902D01*
X110676087Y-89005029D01*
X109494692Y-89005029D01*
X108313297Y-89005029D01*
X108313297Y-88783517D01*
X108313297Y-88562005D01*
X110971436Y-88562005D01*
X113629576Y-88562005D01*
X113629576Y-88195481D01*
X113631445Y-88065506D01*
X113657649Y-87888684D01*
X113739175Y-87767354D01*
X113906465Y-87640501D01*
X114183355Y-87452046D01*
X114204920Y-88007025D01*
X114226485Y-88562005D01*
X114592566Y-88562005D01*
X114770240Y-88564379D01*
X114900410Y-88586653D01*
X114950462Y-88651984D01*
X114958646Y-88783517D01*
X114954500Y-88892905D01*
X114916991Y-88970433D01*
X114808009Y-89000189D01*
X114589460Y-89005029D01*
X114220274Y-89005029D01*
X114220159Y-90389476D01*
X114219578Y-90632972D01*
X114211564Y-91147202D01*
X114190110Y-91541839D01*
X114150136Y-91836847D01*
X114086560Y-92052192D01*
X113994302Y-92207836D01*
X113868280Y-92323746D01*
X113703413Y-92419885D01*
X113667316Y-92437234D01*
X113459383Y-92516181D01*
X113297308Y-92547478D01*
X113125419Y-92521209D01*
X112826563Y-92395750D01*
X112534812Y-92194329D01*
X112301098Y-91947616D01*
X112208098Y-91815028D01*
X112138373Y-91672903D01*
X112161892Y-91566104D01*
X112291609Y-91460854D01*
X112540477Y-91323377D01*
X112681231Y-91257801D01*
X112735094Y-91283618D01*
X112743941Y-91421301D01*
X112778586Y-91770415D01*
X112892951Y-92070852D01*
X113078628Y-92261198D01*
X113326775Y-92327703D01*
X113368957Y-92325404D01*
X113454800Y-92295264D01*
X113519801Y-92217007D01*
X113566742Y-92074049D01*
X113598406Y-91849807D01*
X113617578Y-91527697D01*
X113627040Y-91091138D01*
X113629576Y-90523546D01*
X113629576Y-89005029D01*
X112374343Y-89005029D01*
X111119111Y-89005029D01*
X111119111Y-89449054D01*
X111127412Y-89648564D01*
X111159919Y-89886472D01*
X111208612Y-90036393D01*
X111263127Y-90147225D01*
X111239904Y-90216375D01*
X111105035Y-90202047D01*
X110852672Y-90105374D01*
X110674365Y-90041074D01*
X110330029Y-89958153D01*
X109974634Y-89911104D01*
X109725475Y-89898228D01*
X109524787Y-89907260D01*
X109383614Y-89950541D01*
X109254721Y-90036287D01*
X109114589Y-90187269D01*
X109051669Y-90416641D01*
X109052078Y-90473701D01*
X109070864Y-90582285D01*
X109148913Y-90608662D01*
X109328558Y-90577415D01*
X109475298Y-90550552D01*
X110020939Y-90525143D01*
X110530108Y-90615627D01*
X110977391Y-90815179D01*
X111337377Y-91116974D01*
X111485690Y-91331043D01*
X111566526Y-91627318D01*
X111518381Y-91852909D01*
X111505587Y-91912860D01*
G37*
G36*
X118306007Y-91822350D02*
G01*
X118158886Y-92086329D01*
X117896387Y-92307755D01*
X117534116Y-92467668D01*
X117398696Y-92498293D01*
X117009120Y-92510892D01*
X116588830Y-92439768D01*
X116196729Y-92292632D01*
X115980720Y-92193151D01*
X115855135Y-92167519D01*
X115790624Y-92210383D01*
X115776449Y-92230268D01*
X115655499Y-92335571D01*
X115495362Y-92432708D01*
X115369604Y-92475378D01*
X115362058Y-92457103D01*
X115348523Y-92322646D01*
X115337668Y-92078887D01*
X115330451Y-91751323D01*
X115327832Y-91365448D01*
X115327885Y-91308228D01*
X115328230Y-91285435D01*
X115786536Y-91285435D01*
X115834141Y-91409345D01*
X115986333Y-91568421D01*
X116216608Y-91739316D01*
X116498461Y-91898683D01*
X116590201Y-91937883D01*
X116879125Y-92020402D01*
X117210979Y-92074945D01*
X117539794Y-92097488D01*
X117819601Y-92084009D01*
X118004431Y-92030485D01*
X118082279Y-91947685D01*
X118133646Y-91778847D01*
X118109947Y-91681386D01*
X117984178Y-91491719D01*
X117781277Y-91293041D01*
X117536699Y-91117961D01*
X117285894Y-90999088D01*
X117048827Y-90949255D01*
X116732570Y-90938746D01*
X116410287Y-90972963D01*
X116120166Y-91044895D01*
X115900397Y-91147531D01*
X115789168Y-91273860D01*
X115786536Y-91285435D01*
X115328230Y-91285435D01*
X115335675Y-90793154D01*
X115360156Y-90401416D01*
X115406319Y-90111215D01*
X115479158Y-89900749D01*
X115583663Y-89748219D01*
X115724828Y-89631823D01*
X115921746Y-89552501D01*
X116247207Y-89503760D01*
X116645900Y-89501263D01*
X117081465Y-89547277D01*
X117469111Y-89609584D01*
X117469111Y-89307306D01*
X117469111Y-89005029D01*
X116250797Y-89005029D01*
X115032483Y-89005029D01*
X115032483Y-88783517D01*
X115032483Y-88562005D01*
X118244401Y-88562005D01*
X121456320Y-88562005D01*
X121456320Y-88280058D01*
X121463093Y-88130344D01*
X121552564Y-87655593D01*
X121728827Y-87161443D01*
X121970055Y-86701266D01*
X122254424Y-86328430D01*
X122287171Y-86294664D01*
X122463432Y-86139367D01*
X122627545Y-86068440D01*
X122844136Y-86051540D01*
X123168261Y-86051540D01*
X122838325Y-86418508D01*
X122640255Y-86662426D01*
X122324114Y-87193571D01*
X122122136Y-87758428D01*
X122048823Y-88322034D01*
X122054483Y-88448151D01*
X122103658Y-88540923D01*
X122231611Y-88562005D01*
X122311883Y-88567295D01*
X122396336Y-88625209D01*
X122416204Y-88783517D01*
X122411795Y-88879844D01*
X122363534Y-88981188D01*
X122231611Y-89005029D01*
X122047018Y-89005029D01*
X122047018Y-90591028D01*
X122047018Y-92177027D01*
X121757981Y-92324483D01*
X121468943Y-92471939D01*
X121444172Y-91637255D01*
X121441222Y-91541285D01*
X121426595Y-91197793D01*
X121403966Y-90957602D01*
X121366100Y-90784541D01*
X121305763Y-90642440D01*
X121215719Y-90495128D01*
X121195356Y-90465063D01*
X120874548Y-90114207D01*
X120484964Y-89873024D01*
X120056355Y-89760369D01*
X119982690Y-89753860D01*
X119778800Y-89752944D01*
X119642367Y-89802768D01*
X119512158Y-89921458D01*
X119352243Y-90163150D01*
X119267801Y-90515761D01*
X119304101Y-90912531D01*
X119458881Y-91334343D01*
X119729880Y-91762082D01*
X119811692Y-91868448D01*
X119944526Y-92052047D01*
X120000802Y-92164089D01*
X119991915Y-92235057D01*
X119929260Y-92295430D01*
X119887070Y-92326611D01*
X119676905Y-92436672D01*
X119498144Y-92422720D01*
X119307924Y-92283966D01*
X119030239Y-91931011D01*
X118861155Y-91523461D01*
X118799918Y-91091132D01*
X118841067Y-90659347D01*
X118979142Y-90253431D01*
X119208681Y-89898707D01*
X119524225Y-89620498D01*
X119920311Y-89444128D01*
X120002342Y-89424714D01*
X120358472Y-89411752D01*
X120704793Y-89527429D01*
X121065292Y-89778753D01*
X121188255Y-89880979D01*
X121336809Y-89994574D01*
X121412680Y-90038750D01*
X121414413Y-90038344D01*
X121435592Y-89961259D01*
X121450612Y-89776656D01*
X121456320Y-89521889D01*
X121456320Y-89005029D01*
X119647308Y-89005029D01*
X117838297Y-89005029D01*
X117838297Y-89449054D01*
X117846598Y-89648564D01*
X117879105Y-89886472D01*
X117927798Y-90036393D01*
X117944903Y-90064712D01*
X117987553Y-90175472D01*
X117935997Y-90213397D01*
X117778213Y-90179580D01*
X117502181Y-90075116D01*
X117299768Y-90001398D01*
X116885296Y-89905603D01*
X116501090Y-89885452D01*
X116179305Y-89941002D01*
X115952092Y-90072312D01*
X115945641Y-90078882D01*
X115821976Y-90260136D01*
X115770855Y-90442371D01*
X115772190Y-90506711D01*
X115798342Y-90587100D01*
X115889160Y-90604208D01*
X116084663Y-90574942D01*
X116421965Y-90533992D01*
X116919299Y-90540875D01*
X117352142Y-90627381D01*
X117507280Y-90694479D01*
X117774011Y-90866331D01*
X118024192Y-91084396D01*
X118218636Y-91312661D01*
X118318155Y-91515115D01*
X118322145Y-91534779D01*
X118308448Y-91778847D01*
X118306007Y-91822350D01*
G37*
G36*
X129618651Y-92109674D02*
G01*
X129364582Y-92314792D01*
X129004063Y-92452700D01*
X128542137Y-92504123D01*
X128507833Y-92504136D01*
X128197790Y-92486901D01*
X127951609Y-92425371D01*
X127694448Y-92301671D01*
X127546781Y-92225644D01*
X127377104Y-92163747D01*
X127302686Y-92177267D01*
X127237410Y-92248839D01*
X127090805Y-92349905D01*
X126926144Y-92437812D01*
X126805448Y-92475378D01*
X126795819Y-92448649D01*
X126784394Y-92300899D01*
X126778663Y-92045690D01*
X126779043Y-91707908D01*
X126785629Y-91330901D01*
X127326378Y-91330901D01*
X127326470Y-91334778D01*
X127393331Y-91464544D01*
X127560395Y-91624010D01*
X127792391Y-91788111D01*
X128054047Y-91931781D01*
X128310088Y-92029954D01*
X128480706Y-92065699D01*
X128778538Y-92095767D01*
X129085963Y-92099147D01*
X129351342Y-92075988D01*
X129523035Y-92026440D01*
X129533422Y-92020182D01*
X129637909Y-91893976D01*
X129617020Y-91715885D01*
X129469665Y-91474644D01*
X129416658Y-91410410D01*
X129096780Y-91152078D01*
X128693268Y-90984507D01*
X128244490Y-90924911D01*
X128175953Y-90926203D01*
X127850701Y-90967939D01*
X127580050Y-91058427D01*
X127394956Y-91183978D01*
X127326378Y-91330901D01*
X126785629Y-91330901D01*
X126785951Y-91312441D01*
X126795014Y-91009005D01*
X126819413Y-90553704D01*
X126859005Y-90213924D01*
X126919900Y-89968907D01*
X127008208Y-89797898D01*
X127130038Y-89680142D01*
X127291499Y-89594882D01*
X127352241Y-89572507D01*
X127691634Y-89506814D01*
X128110955Y-89496986D01*
X128563151Y-89544873D01*
X128913878Y-89604775D01*
X128913878Y-89304902D01*
X128913878Y-89005029D01*
X127732483Y-89005029D01*
X126551087Y-89005029D01*
X126551087Y-88783517D01*
X126551087Y-88562005D01*
X132125797Y-88562005D01*
X137700506Y-88562005D01*
X137700506Y-88783517D01*
X137700506Y-89005029D01*
X135669983Y-89005029D01*
X133639460Y-89005029D01*
X133639460Y-90153172D01*
X133637883Y-90503932D01*
X133626808Y-90913731D01*
X133599590Y-91218949D01*
X133549827Y-91445196D01*
X133471116Y-91618084D01*
X133357056Y-91763222D01*
X133201244Y-91906223D01*
X133094922Y-91982810D01*
X132746750Y-92132820D01*
X132332641Y-92209560D01*
X131898576Y-92211306D01*
X131490537Y-92136336D01*
X131154505Y-91982927D01*
X130895979Y-91807486D01*
X130920190Y-92793552D01*
X130921389Y-92842101D01*
X130932618Y-93229292D01*
X130947511Y-93502306D01*
X130971745Y-93691433D01*
X131010999Y-93826966D01*
X131070948Y-93939194D01*
X131157272Y-94058408D01*
X131392275Y-94293857D01*
X131737218Y-94500534D01*
X132131497Y-94633769D01*
X132546203Y-94692466D01*
X132952428Y-94675526D01*
X133321266Y-94581853D01*
X133623807Y-94410349D01*
X133831146Y-94159917D01*
X133843474Y-94134430D01*
X133871025Y-93926110D01*
X133754159Y-93743874D01*
X133492502Y-93587371D01*
X133085681Y-93456247D01*
X133057599Y-93449293D01*
X132806584Y-93386050D01*
X132622985Y-93337904D01*
X132544830Y-93314801D01*
X132549934Y-93289107D01*
X132612651Y-93171378D01*
X132724529Y-92993341D01*
X132808096Y-92870961D01*
X132916420Y-92751274D01*
X133027807Y-92714635D01*
X133191543Y-92733635D01*
X133340376Y-92768150D01*
X133689225Y-92912508D01*
X133971928Y-93119013D01*
X134168696Y-93365531D01*
X134259742Y-93629926D01*
X134225279Y-93890062D01*
X134079908Y-94147990D01*
X133767373Y-94459196D01*
X133344867Y-94693872D01*
X132827250Y-94841901D01*
X132595309Y-94872407D01*
X132069114Y-94867054D01*
X131556608Y-94769410D01*
X131097688Y-94589116D01*
X130732255Y-94335808D01*
X130730305Y-94333977D01*
X130612692Y-94216592D01*
X130519739Y-94098173D01*
X130448555Y-93960390D01*
X130396251Y-93784914D01*
X130359937Y-93553416D01*
X130336724Y-93247568D01*
X130323720Y-92849040D01*
X130318037Y-92339504D01*
X130316785Y-91700631D01*
X130316785Y-89739746D01*
X130482919Y-89677596D01*
X130514487Y-89665715D01*
X130724809Y-89586622D01*
X130860467Y-89554310D01*
X130937704Y-89588930D01*
X130972764Y-89710630D01*
X130981888Y-89939561D01*
X130981320Y-90295871D01*
X130988757Y-90681660D01*
X131021971Y-91025593D01*
X131091164Y-91290098D01*
X131206365Y-91511359D01*
X131377602Y-91725562D01*
X131535161Y-91869088D01*
X131853584Y-92041698D01*
X132196564Y-92112663D01*
X132526221Y-92076606D01*
X132804674Y-91928148D01*
X133011843Y-91750104D01*
X133034869Y-90377566D01*
X133057894Y-89005029D01*
X131170479Y-89005029D01*
X129283064Y-89005029D01*
X129283064Y-89431623D01*
X129283652Y-89486077D01*
X129318175Y-89811261D01*
X129401351Y-90027095D01*
X129479602Y-90164062D01*
X129461917Y-90228685D01*
X129332937Y-90210176D01*
X129086148Y-90110253D01*
X128965039Y-90062110D01*
X128598476Y-89964857D01*
X128190816Y-89909578D01*
X128136109Y-89905767D01*
X127868941Y-89893467D01*
X127698038Y-89906698D01*
X127579869Y-89953448D01*
X127470903Y-90041708D01*
X127353964Y-90193386D01*
X127289460Y-90422213D01*
X127295698Y-90539590D01*
X127347889Y-90601692D01*
X127492512Y-90577442D01*
X127541401Y-90565430D01*
X127899873Y-90523967D01*
X128307553Y-90535705D01*
X128700466Y-90595560D01*
X129014637Y-90698445D01*
X129115713Y-90750527D01*
X129469550Y-91002584D01*
X129691719Y-91283801D01*
X129787263Y-91574905D01*
X129761226Y-91856621D01*
X129740179Y-91893976D01*
X129618651Y-92109674D01*
G37*
G36*
X131566437Y-87163709D02*
G01*
X131566429Y-87201588D01*
X131566216Y-87357740D01*
X131565732Y-87504833D01*
X131565005Y-87640434D01*
X131564059Y-87762110D01*
X131562919Y-87867427D01*
X131561610Y-87953953D01*
X131560159Y-88019256D01*
X131558591Y-88060900D01*
X131556930Y-88076455D01*
X131553940Y-88077956D01*
X131528508Y-88082042D01*
X131484274Y-88084892D01*
X131428575Y-88085963D01*
X131309728Y-88085963D01*
X131309728Y-87173217D01*
X131309728Y-86260472D01*
X131438083Y-86260472D01*
X131566437Y-86260472D01*
X131566437Y-87163709D01*
G37*
G36*
X129705088Y-86260073D02*
G01*
X129874205Y-86260329D01*
X130069925Y-86260472D01*
X131067280Y-86260472D01*
X131067280Y-86395957D01*
X131067280Y-86531443D01*
X130642282Y-86531443D01*
X130588531Y-86531493D01*
X130466311Y-86532120D01*
X130369798Y-86533528D01*
X130296961Y-86535798D01*
X130245766Y-86539007D01*
X130214180Y-86543233D01*
X130200171Y-86548557D01*
X130196372Y-86558887D01*
X130192949Y-86584479D01*
X130190102Y-86626801D01*
X130187795Y-86687537D01*
X130185991Y-86768372D01*
X130184652Y-86870991D01*
X130183741Y-86997078D01*
X130183222Y-87148317D01*
X130183057Y-87326394D01*
X130183057Y-88087116D01*
X130065399Y-88082974D01*
X129947740Y-88078832D01*
X129940299Y-87308703D01*
X129939523Y-87230153D01*
X129938044Y-87089182D01*
X129936561Y-86958432D01*
X129935110Y-86840520D01*
X129933727Y-86738058D01*
X129932449Y-86653662D01*
X129931311Y-86589946D01*
X129930351Y-86549523D01*
X129929603Y-86535008D01*
X129927570Y-86534686D01*
X129903863Y-86533817D01*
X129856398Y-86533040D01*
X129788700Y-86532385D01*
X129704293Y-86531881D01*
X129606705Y-86531557D01*
X129499459Y-86531443D01*
X129426131Y-86531535D01*
X129317041Y-86531782D01*
X129231853Y-86531377D01*
X129167620Y-86529430D01*
X129121398Y-86525050D01*
X129090238Y-86517346D01*
X129071195Y-86505429D01*
X129061323Y-86488407D01*
X129057674Y-86465391D01*
X129057303Y-86435490D01*
X129057263Y-86397814D01*
X129057014Y-86390283D01*
X129055020Y-86364811D01*
X129052784Y-86342868D01*
X129052224Y-86324192D01*
X129055258Y-86308525D01*
X129063803Y-86295605D01*
X129079776Y-86285173D01*
X129105095Y-86276969D01*
X129141678Y-86270733D01*
X129191442Y-86266204D01*
X129256304Y-86263123D01*
X129338183Y-86261229D01*
X129438994Y-86260263D01*
X129560657Y-86259964D01*
X129705088Y-86260073D01*
G37*
G36*
X138625955Y-86891312D02*
G01*
X138684195Y-86892674D01*
X138778102Y-86895836D01*
X138850165Y-86900458D01*
X138904796Y-86907468D01*
X138946407Y-86917797D01*
X138979408Y-86932375D01*
X139008211Y-86952131D01*
X139037227Y-86977994D01*
X139043192Y-86983701D01*
X139069124Y-87009394D01*
X139089917Y-87033691D01*
X139106140Y-87059916D01*
X139118360Y-87091394D01*
X139127144Y-87131448D01*
X139133059Y-87183404D01*
X139136673Y-87250586D01*
X139138552Y-87336318D01*
X139139263Y-87443924D01*
X139139374Y-87576729D01*
X139139302Y-87631977D01*
X139138736Y-87738094D01*
X139137670Y-87833219D01*
X139136178Y-87913845D01*
X139134331Y-87976466D01*
X139132203Y-88017577D01*
X139129866Y-88033670D01*
X139126979Y-88036363D01*
X139109288Y-88042024D01*
X139082327Y-88029236D01*
X139081714Y-88028820D01*
X139075727Y-88020602D01*
X139070795Y-88003590D01*
X139066748Y-87974967D01*
X139063416Y-87931914D01*
X139060626Y-87871612D01*
X139058208Y-87791243D01*
X139055991Y-87687988D01*
X139053804Y-87559029D01*
X139046673Y-87102328D01*
X138992979Y-87048637D01*
X138939285Y-86994947D01*
X138575861Y-86990695D01*
X138560566Y-86990520D01*
X138448534Y-86989520D01*
X138361004Y-86989458D01*
X138294396Y-86990489D01*
X138245129Y-86992770D01*
X138209622Y-86996458D01*
X138184295Y-87001711D01*
X138165567Y-87008685D01*
X138152671Y-87016047D01*
X138114109Y-87049608D01*
X138078150Y-87094460D01*
X138051590Y-87141213D01*
X138041227Y-87180477D01*
X138037251Y-87203579D01*
X138020706Y-87238234D01*
X138010789Y-87250757D01*
X137995996Y-87257768D01*
X137976407Y-87242502D01*
X137962807Y-87218976D01*
X137959914Y-87173578D01*
X137973075Y-87118494D01*
X137999963Y-87059830D01*
X138038248Y-87003693D01*
X138085602Y-86956188D01*
X138114111Y-86937182D01*
X138157401Y-86918867D01*
X138213290Y-86905326D01*
X138284935Y-86896178D01*
X138375490Y-86891046D01*
X138488111Y-86889550D01*
X138625955Y-86891312D01*
G37*
G36*
X134732955Y-86249599D02*
G01*
X134752391Y-86268769D01*
X134752940Y-86271690D01*
X134754563Y-86298594D01*
X134756048Y-86350360D01*
X134757366Y-86424224D01*
X134758487Y-86517420D01*
X134759382Y-86627181D01*
X134760023Y-86750742D01*
X134760379Y-86885338D01*
X134760421Y-87028202D01*
X134760152Y-87185765D01*
X134759522Y-87337905D01*
X134758498Y-87465201D01*
X134757035Y-87569598D01*
X134755086Y-87653046D01*
X134752604Y-87717491D01*
X134749543Y-87764879D01*
X134745854Y-87797159D01*
X134741493Y-87816278D01*
X134704577Y-87889606D01*
X134643732Y-87959803D01*
X134568689Y-88009612D01*
X134565587Y-88011046D01*
X134524916Y-88027154D01*
X134483035Y-88036888D01*
X134430864Y-88041700D01*
X134359322Y-88043039D01*
X134340826Y-88043023D01*
X134270079Y-88041781D01*
X134222577Y-88037851D01*
X134193997Y-88030211D01*
X134180019Y-88017838D01*
X134176319Y-87999709D01*
X134177168Y-87987151D01*
X134183632Y-87973356D01*
X134200379Y-87963931D01*
X134231965Y-87957606D01*
X134282950Y-87953114D01*
X134357891Y-87949185D01*
X134408087Y-87946549D01*
X134465164Y-87941666D01*
X134505523Y-87934435D01*
X134536281Y-87923409D01*
X134564552Y-87907139D01*
X134579408Y-87897206D01*
X134605283Y-87877873D01*
X134625583Y-87857106D01*
X134640984Y-87831518D01*
X134652161Y-87797724D01*
X134659790Y-87752337D01*
X134664547Y-87691971D01*
X134667108Y-87613241D01*
X134668150Y-87512760D01*
X134668346Y-87387142D01*
X134668346Y-86994947D01*
X134434552Y-86987816D01*
X134353378Y-86985051D01*
X134287083Y-86981791D01*
X134241321Y-86977802D01*
X134211898Y-86972549D01*
X134194620Y-86965499D01*
X134185293Y-86956120D01*
X134178436Y-86941197D01*
X134183771Y-86918244D01*
X134191489Y-86915326D01*
X134224248Y-86910108D01*
X134277256Y-86904964D01*
X134345308Y-86900361D01*
X134423201Y-86896764D01*
X134470053Y-86894898D01*
X134542676Y-86891286D01*
X134602347Y-86887414D01*
X134643878Y-86883638D01*
X134662084Y-86880317D01*
X134662523Y-86879907D01*
X134666720Y-86860928D01*
X134670289Y-86817714D01*
X134673055Y-86754167D01*
X134674842Y-86674190D01*
X134675477Y-86581684D01*
X134675494Y-86563592D01*
X134676060Y-86475668D01*
X134677337Y-86397542D01*
X134679195Y-86333897D01*
X134681503Y-86289412D01*
X134684134Y-86268769D01*
X134685165Y-86266364D01*
X134705835Y-86248797D01*
X134732955Y-86249599D01*
G37*
G36*
X141378884Y-86249599D02*
G01*
X141398320Y-86268769D01*
X141398814Y-86271241D01*
X141400466Y-86297244D01*
X141402002Y-86348190D01*
X141403389Y-86421301D01*
X141404595Y-86513799D01*
X141405589Y-86622906D01*
X141406339Y-86745843D01*
X141406812Y-86879833D01*
X141406976Y-87022096D01*
X141406936Y-87184954D01*
X141406660Y-87332217D01*
X141405913Y-87455767D01*
X141404464Y-87558082D01*
X141402079Y-87641636D01*
X141398524Y-87708905D01*
X141393568Y-87762366D01*
X141386976Y-87804494D01*
X141378516Y-87837766D01*
X141367954Y-87864656D01*
X141355058Y-87887641D01*
X141339594Y-87909197D01*
X141321330Y-87931800D01*
X141311826Y-87942467D01*
X141266796Y-87982050D01*
X141218331Y-88012994D01*
X141199491Y-88021627D01*
X141166287Y-88032515D01*
X141126187Y-88039081D01*
X141071992Y-88042305D01*
X140996506Y-88043167D01*
X140937462Y-88042813D01*
X140885161Y-88040990D01*
X140852536Y-88037005D01*
X140834675Y-88030182D01*
X140826662Y-88019847D01*
X140822812Y-88007933D01*
X140822772Y-87984470D01*
X140838453Y-87967599D01*
X140873048Y-87956001D01*
X140929750Y-87948357D01*
X141011752Y-87943346D01*
X141078229Y-87939599D01*
X141146763Y-87931503D01*
X141196567Y-87917520D01*
X141233234Y-87895049D01*
X141262361Y-87861490D01*
X141289544Y-87814241D01*
X141296306Y-87800665D01*
X141304507Y-87781320D01*
X141310657Y-87759736D01*
X141314999Y-87732159D01*
X141317774Y-87694835D01*
X141319225Y-87644007D01*
X141319597Y-87575923D01*
X141319130Y-87486827D01*
X141318067Y-87372965D01*
X141314276Y-86994947D01*
X141080481Y-86987816D01*
X140999308Y-86985051D01*
X140933013Y-86981791D01*
X140887250Y-86977802D01*
X140857827Y-86972549D01*
X140840550Y-86965499D01*
X140831222Y-86956120D01*
X140827710Y-86950156D01*
X140821724Y-86930404D01*
X140830192Y-86915771D01*
X140855923Y-86905502D01*
X140901722Y-86898842D01*
X140970398Y-86895037D01*
X141064758Y-86893331D01*
X141098630Y-86892943D01*
X141171806Y-86891362D01*
X141233420Y-86889027D01*
X141277818Y-86886185D01*
X141299348Y-86883083D01*
X141304133Y-86880083D01*
X141310507Y-86869068D01*
X141315132Y-86847422D01*
X141318272Y-86811567D01*
X141320189Y-86757926D01*
X141321146Y-86682921D01*
X141321407Y-86582973D01*
X141321425Y-86563769D01*
X141321998Y-86475735D01*
X141323277Y-86397550D01*
X141325133Y-86333881D01*
X141327438Y-86289398D01*
X141330063Y-86268769D01*
X141331095Y-86266364D01*
X141351764Y-86248797D01*
X141378884Y-86249599D01*
G37*
G36*
X137749323Y-86904874D02*
G01*
X137771894Y-86918670D01*
X137772346Y-86919659D01*
X137775480Y-86942104D01*
X137778308Y-86988714D01*
X137780716Y-87055661D01*
X137782592Y-87139119D01*
X137783824Y-87235260D01*
X137784299Y-87340257D01*
X137784309Y-87392230D01*
X137784092Y-87500802D01*
X137783349Y-87586155D01*
X137781850Y-87652053D01*
X137779368Y-87702261D01*
X137775672Y-87740543D01*
X137770533Y-87770663D01*
X137763723Y-87796384D01*
X137755012Y-87821472D01*
X137720452Y-87891712D01*
X137658370Y-87964815D01*
X137578040Y-88016493D01*
X137562177Y-88022929D01*
X137541517Y-88028824D01*
X137514832Y-88033427D01*
X137478909Y-88036898D01*
X137430533Y-88039396D01*
X137366491Y-88041082D01*
X137283568Y-88042115D01*
X137178550Y-88042656D01*
X137048223Y-88042865D01*
X136939342Y-88042810D01*
X136827041Y-88042314D01*
X136738498Y-88041246D01*
X136671068Y-88039501D01*
X136622107Y-88036976D01*
X136588970Y-88033567D01*
X136569012Y-88029171D01*
X136559590Y-88023683D01*
X136555183Y-88008907D01*
X136551632Y-87974465D01*
X136549009Y-87918985D01*
X136547283Y-87840971D01*
X136546419Y-87738930D01*
X136546384Y-87611365D01*
X136547148Y-87456783D01*
X136547670Y-87381267D01*
X136548636Y-87255747D01*
X136549674Y-87154717D01*
X136550943Y-87075522D01*
X136552597Y-87015504D01*
X136554795Y-86972008D01*
X136557693Y-86942377D01*
X136561446Y-86923955D01*
X136566212Y-86914085D01*
X136572147Y-86910111D01*
X136579408Y-86909377D01*
X136579498Y-86909377D01*
X136587060Y-86910185D01*
X136593175Y-86914452D01*
X136598025Y-86924964D01*
X136601788Y-86944504D01*
X136604647Y-86975857D01*
X136606782Y-87021809D01*
X136608372Y-87085145D01*
X136609599Y-87168648D01*
X136610642Y-87275105D01*
X136611684Y-87407299D01*
X136611725Y-87412685D01*
X136613324Y-87565954D01*
X136615557Y-87691280D01*
X136618446Y-87789220D01*
X136622012Y-87860330D01*
X136626275Y-87905166D01*
X136631257Y-87924284D01*
X136632525Y-87925277D01*
X136655392Y-87930488D01*
X136701770Y-87934909D01*
X136767404Y-87938526D01*
X136848038Y-87941325D01*
X136939416Y-87943291D01*
X137037284Y-87944410D01*
X137137384Y-87944668D01*
X137235463Y-87944052D01*
X137327263Y-87942545D01*
X137408530Y-87940136D01*
X137475007Y-87936808D01*
X137522440Y-87932548D01*
X137546572Y-87927342D01*
X137558101Y-87920867D01*
X137604923Y-87885671D01*
X137647496Y-87842126D01*
X137675162Y-87800730D01*
X137678135Y-87789850D01*
X137683293Y-87748673D01*
X137688004Y-87681322D01*
X137692191Y-87589314D01*
X137695777Y-87474169D01*
X137698684Y-87337404D01*
X137700759Y-87221794D01*
X137702809Y-87124135D01*
X137704943Y-87049108D01*
X137707398Y-86993685D01*
X137710416Y-86954835D01*
X137714235Y-86929530D01*
X137719094Y-86914740D01*
X137725233Y-86907435D01*
X137732892Y-86904586D01*
X137749323Y-86904874D01*
G37*
G36*
X135517523Y-80963932D02*
G01*
X135742006Y-81002158D01*
X135961345Y-81067159D01*
X136172951Y-81158833D01*
X136301000Y-81230201D01*
X136486806Y-81358716D01*
X136656504Y-81507334D01*
X136807781Y-81673410D01*
X136938320Y-81854297D01*
X137045808Y-82047353D01*
X137127929Y-82249931D01*
X137143968Y-82300242D01*
X137194270Y-82504746D01*
X137220555Y-82712232D01*
X137223905Y-82930376D01*
X137220525Y-83006525D01*
X137210390Y-83129261D01*
X137193563Y-83240563D01*
X137168213Y-83351294D01*
X137132507Y-83472319D01*
X137118108Y-83513882D01*
X137081309Y-83605007D01*
X137035857Y-83704430D01*
X136986105Y-83803289D01*
X136936403Y-83892724D01*
X136891104Y-83963873D01*
X136872470Y-83988353D01*
X136835127Y-84032873D01*
X136787697Y-84086282D01*
X136733814Y-84144809D01*
X136677110Y-84204682D01*
X136621222Y-84262127D01*
X136569781Y-84313374D01*
X136526422Y-84354649D01*
X136494780Y-84382180D01*
X136478488Y-84392195D01*
X136466079Y-84395940D01*
X136443189Y-84414471D01*
X136416299Y-84440179D01*
X136361238Y-84479703D01*
X136287862Y-84523881D01*
X136201066Y-84570136D01*
X136105744Y-84615891D01*
X136006794Y-84658568D01*
X135909110Y-84695592D01*
X135905666Y-84696793D01*
X135836489Y-84719475D01*
X135770118Y-84737749D01*
X135698748Y-84753330D01*
X135614572Y-84767930D01*
X135509784Y-84783265D01*
X135507158Y-84783606D01*
X135462172Y-84786379D01*
X135396326Y-84787030D01*
X135316591Y-84785831D01*
X135229939Y-84783054D01*
X135143341Y-84778970D01*
X135063767Y-84773850D01*
X134998189Y-84767967D01*
X134953579Y-84761592D01*
X134869312Y-84742239D01*
X134658073Y-84675901D01*
X134454044Y-84586809D01*
X134263009Y-84477714D01*
X134090750Y-84351364D01*
X134088450Y-84349440D01*
X134049234Y-84314743D01*
X134001844Y-84270215D01*
X133950411Y-84220058D01*
X133899062Y-84168477D01*
X133851925Y-84119675D01*
X133813131Y-84077856D01*
X133786806Y-84047225D01*
X133777081Y-84031984D01*
X133774868Y-84026176D01*
X133760119Y-84000334D01*
X133734582Y-83959932D01*
X133701849Y-83910760D01*
X133672445Y-83866003D01*
X133568168Y-83675617D01*
X133487407Y-83471900D01*
X133430865Y-83258071D01*
X133399243Y-83037348D01*
X133393241Y-82812950D01*
X133413563Y-82588097D01*
X133415602Y-82574924D01*
X133430769Y-82491343D01*
X133449372Y-82406886D01*
X133469555Y-82328832D01*
X133489459Y-82264461D01*
X133507227Y-82221053D01*
X133514073Y-82205688D01*
X133520284Y-82180366D01*
X133521755Y-82173638D01*
X133533613Y-82143746D01*
X133554915Y-82097464D01*
X133582714Y-82040630D01*
X133614061Y-81979085D01*
X133646010Y-81918667D01*
X133675611Y-81865216D01*
X133699917Y-81824570D01*
X133730455Y-81778589D01*
X133864193Y-81608060D01*
X134019972Y-81451465D01*
X134194115Y-81311843D01*
X134382942Y-81192229D01*
X134582777Y-81095660D01*
X134619901Y-81080832D01*
X134839084Y-81010931D01*
X135063474Y-80968215D01*
X135290483Y-80952583D01*
X135517523Y-80963932D01*
G37*
G36*
X135697924Y-86902736D02*
G01*
X135816774Y-86903417D01*
X135913052Y-86905103D01*
X135989776Y-86908299D01*
X136049966Y-86913507D01*
X136096639Y-86921231D01*
X136132812Y-86931976D01*
X136161504Y-86946246D01*
X136185734Y-86964543D01*
X136208518Y-86987372D01*
X136232876Y-87015237D01*
X136238420Y-87021873D01*
X136285618Y-87099837D01*
X136305772Y-87182101D01*
X136299119Y-87265044D01*
X136265897Y-87345043D01*
X136206345Y-87418474D01*
X136194157Y-87429793D01*
X136165838Y-87453008D01*
X136136017Y-87470904D01*
X136100835Y-87484144D01*
X136056433Y-87493388D01*
X135998952Y-87499299D01*
X135924534Y-87502537D01*
X135829318Y-87503763D01*
X135709447Y-87503640D01*
X135652999Y-87503589D01*
X135554782Y-87504403D01*
X135464803Y-87506248D01*
X135388132Y-87508969D01*
X135329840Y-87512408D01*
X135294997Y-87516409D01*
X135262820Y-87524559D01*
X135192010Y-87558039D01*
X135138758Y-87606259D01*
X135105059Y-87664786D01*
X135092910Y-87729185D01*
X135104307Y-87795024D01*
X135141247Y-87857869D01*
X135156378Y-87875619D01*
X135175108Y-87895247D01*
X135195223Y-87910990D01*
X135219737Y-87923296D01*
X135251666Y-87932611D01*
X135294025Y-87939382D01*
X135349831Y-87944056D01*
X135422098Y-87947080D01*
X135513841Y-87948900D01*
X135628077Y-87949964D01*
X135767820Y-87950718D01*
X135868752Y-87951417D01*
X135978545Y-87952677D01*
X136076645Y-87954339D01*
X136159688Y-87956320D01*
X136224306Y-87958538D01*
X136267134Y-87960910D01*
X136284805Y-87963355D01*
X136292797Y-87970036D01*
X136300229Y-87996567D01*
X136284191Y-88026064D01*
X136283966Y-88026277D01*
X136270248Y-88031148D01*
X136239758Y-88035085D01*
X136190538Y-88038155D01*
X136120631Y-88040421D01*
X136028078Y-88041947D01*
X135910923Y-88042799D01*
X135767207Y-88043039D01*
X135747771Y-88043033D01*
X135618727Y-88042938D01*
X135514589Y-88042618D01*
X135432168Y-88041884D01*
X135368275Y-88040549D01*
X135319722Y-88038425D01*
X135283319Y-88035326D01*
X135255879Y-88031064D01*
X135234212Y-88025451D01*
X135215130Y-88018300D01*
X135195445Y-88009422D01*
X135142601Y-87979521D01*
X135075958Y-87919942D01*
X135031171Y-87849656D01*
X135008102Y-87772967D01*
X135006610Y-87694180D01*
X135026559Y-87617601D01*
X135067808Y-87547533D01*
X135130220Y-87488283D01*
X135213655Y-87444154D01*
X135235656Y-87436519D01*
X135262273Y-87429471D01*
X135293648Y-87424201D01*
X135333743Y-87420455D01*
X135386517Y-87417981D01*
X135455932Y-87416526D01*
X135545947Y-87415838D01*
X135660524Y-87415665D01*
X135691342Y-87415646D01*
X135807677Y-87415077D01*
X135899195Y-87413617D01*
X135968898Y-87411123D01*
X136019789Y-87407455D01*
X136054870Y-87402471D01*
X136077143Y-87396029D01*
X136107695Y-87380480D01*
X136164285Y-87332965D01*
X136199834Y-87274022D01*
X136213726Y-87208982D01*
X136205347Y-87143178D01*
X136174081Y-87081940D01*
X136119313Y-87030601D01*
X136065988Y-86994947D01*
X135557457Y-86990871D01*
X135491735Y-86990314D01*
X135366620Y-86988988D01*
X135266151Y-86987422D01*
X135187661Y-86985491D01*
X135128485Y-86983066D01*
X135085957Y-86980023D01*
X135057410Y-86976234D01*
X135040178Y-86971573D01*
X135031595Y-86965914D01*
X135021541Y-86946738D01*
X135032019Y-86923638D01*
X135036873Y-86919601D01*
X135049877Y-86914634D01*
X135072321Y-86910695D01*
X135106931Y-86907677D01*
X135156433Y-86905469D01*
X135223553Y-86903963D01*
X135311017Y-86903048D01*
X135421551Y-86902617D01*
X135557880Y-86902559D01*
X135697924Y-86902736D01*
G37*
G36*
X140601842Y-86251570D02*
G01*
X140622084Y-86273796D01*
X140623703Y-86280462D01*
X140626648Y-86313586D01*
X140629236Y-86370595D01*
X140631467Y-86448406D01*
X140633341Y-86543936D01*
X140634857Y-86654104D01*
X140636017Y-86775825D01*
X140636820Y-86906017D01*
X140637265Y-87041599D01*
X140637354Y-87179486D01*
X140637085Y-87316596D01*
X140636460Y-87449847D01*
X140635477Y-87576156D01*
X140634138Y-87692440D01*
X140632441Y-87795616D01*
X140630387Y-87882602D01*
X140627976Y-87950316D01*
X140625209Y-87995673D01*
X140622084Y-88015592D01*
X140609403Y-88031884D01*
X140586932Y-88043178D01*
X140576634Y-88041811D01*
X140564978Y-88034155D01*
X140555818Y-88017302D01*
X140548864Y-87988491D01*
X140543824Y-87944962D01*
X140540410Y-87883954D01*
X140538331Y-87802708D01*
X140537296Y-87698463D01*
X140537016Y-87568459D01*
X140537014Y-87538038D01*
X140536914Y-87423755D01*
X140536488Y-87333813D01*
X140535499Y-87264820D01*
X140533713Y-87213383D01*
X140530894Y-87176110D01*
X140526807Y-87149607D01*
X140521217Y-87130481D01*
X140513889Y-87115341D01*
X140504588Y-87100792D01*
X140502073Y-87097166D01*
X140465575Y-87055319D01*
X140424039Y-87020244D01*
X140413962Y-87013648D01*
X140398534Y-87005305D01*
X140380099Y-86998984D01*
X140355011Y-86994404D01*
X140319625Y-86991285D01*
X140270297Y-86989347D01*
X140203381Y-86988309D01*
X140115231Y-86987893D01*
X140002204Y-86987816D01*
X139928989Y-86987840D01*
X139831789Y-86988100D01*
X139757220Y-86988876D01*
X139701644Y-86990446D01*
X139661423Y-86993087D01*
X139632920Y-86997076D01*
X139612497Y-87002690D01*
X139596516Y-87010207D01*
X139581340Y-87019905D01*
X139577516Y-87022569D01*
X139537260Y-87056291D01*
X139504357Y-87092222D01*
X139503314Y-87093638D01*
X139495097Y-87106331D01*
X139488519Y-87121594D01*
X139483329Y-87142670D01*
X139479279Y-87172803D01*
X139476119Y-87215238D01*
X139473600Y-87273218D01*
X139471472Y-87349987D01*
X139469486Y-87448789D01*
X139467392Y-87572869D01*
X139465845Y-87658037D01*
X139462700Y-87785486D01*
X139458995Y-87886898D01*
X139454759Y-87961651D01*
X139450023Y-88009125D01*
X139444819Y-88028700D01*
X139433708Y-88035239D01*
X139405599Y-88034989D01*
X139401253Y-88032547D01*
X139395407Y-88024518D01*
X139390853Y-88008833D01*
X139387435Y-87982512D01*
X139384992Y-87942573D01*
X139383368Y-87886035D01*
X139382404Y-87809918D01*
X139381941Y-87711240D01*
X139381822Y-87587021D01*
X139381906Y-87482225D01*
X139382500Y-87370598D01*
X139384063Y-87281486D01*
X139387049Y-87211515D01*
X139391913Y-87157308D01*
X139399110Y-87115490D01*
X139409096Y-87082685D01*
X139422326Y-87055517D01*
X139439254Y-87030610D01*
X139460335Y-87004590D01*
X139465833Y-86998335D01*
X139505958Y-86960581D01*
X139549999Y-86927995D01*
X139557453Y-86923444D01*
X139574540Y-86914358D01*
X139593884Y-86907367D01*
X139619238Y-86902131D01*
X139654354Y-86898315D01*
X139702983Y-86895582D01*
X139768878Y-86893594D01*
X139855792Y-86892016D01*
X139967475Y-86890509D01*
X139974751Y-86890417D01*
X140086108Y-86889176D01*
X140173320Y-86888736D01*
X140240520Y-86889328D01*
X140291841Y-86891184D01*
X140331417Y-86894534D01*
X140363381Y-86899609D01*
X140391865Y-86906642D01*
X140421005Y-86915862D01*
X140466042Y-86929386D01*
X140503921Y-86937485D01*
X140523477Y-86937453D01*
X140524485Y-86936103D01*
X140528611Y-86913661D01*
X140532071Y-86866914D01*
X140534722Y-86799302D01*
X140536418Y-86714262D01*
X140537016Y-86615234D01*
X140537069Y-86573012D01*
X140537947Y-86468141D01*
X140540225Y-86387711D01*
X140544311Y-86328696D01*
X140550615Y-86288066D01*
X140559547Y-86262794D01*
X140571516Y-86249851D01*
X140586932Y-86246210D01*
X140601842Y-86251570D01*
G37*
G36*
X133689553Y-86260524D02*
G01*
X133743760Y-86268961D01*
X133786894Y-86294884D01*
X133826909Y-86329296D01*
X133830895Y-87207630D01*
X133834880Y-88085963D01*
X133713393Y-88085963D01*
X133591905Y-88085963D01*
X133588183Y-87490539D01*
X133587446Y-87376493D01*
X133586497Y-87250707D01*
X133585442Y-87148956D01*
X133584152Y-87068698D01*
X133582494Y-87007390D01*
X133580337Y-86962490D01*
X133577551Y-86931455D01*
X133574005Y-86911742D01*
X133569567Y-86900810D01*
X133564106Y-86896115D01*
X133557492Y-86895115D01*
X133541649Y-86898269D01*
X133518360Y-86916508D01*
X133511506Y-86929519D01*
X133492479Y-86967601D01*
X133464646Y-87024401D01*
X133430028Y-87095701D01*
X133390647Y-87177284D01*
X133348524Y-87264933D01*
X133305681Y-87354432D01*
X133264138Y-87441563D01*
X133225918Y-87522109D01*
X133193041Y-87591853D01*
X133167528Y-87646578D01*
X133151402Y-87682068D01*
X133132928Y-87722730D01*
X133096076Y-87798147D01*
X133057029Y-87872272D01*
X133019227Y-87938909D01*
X132986109Y-87991863D01*
X132961112Y-88024937D01*
X132910813Y-88062163D01*
X132845658Y-88079788D01*
X132777390Y-88071276D01*
X132770029Y-88068670D01*
X132727022Y-88047599D01*
X132694937Y-88023232D01*
X132685322Y-88009598D01*
X132664441Y-87974503D01*
X132636774Y-87924930D01*
X132605270Y-87866508D01*
X132572879Y-87804868D01*
X132542551Y-87745638D01*
X132517236Y-87694448D01*
X132499884Y-87656928D01*
X132493445Y-87638706D01*
X132491403Y-87633346D01*
X132478990Y-87605940D01*
X132456821Y-87558705D01*
X132426639Y-87495315D01*
X132390189Y-87419447D01*
X132349214Y-87334775D01*
X132330220Y-87295612D01*
X132287385Y-87206988D01*
X132247728Y-87124533D01*
X132213578Y-87053115D01*
X132187266Y-86997601D01*
X132171123Y-86962858D01*
X132153400Y-86927340D01*
X132130794Y-86897151D01*
X132108560Y-86887984D01*
X132108033Y-86887985D01*
X132101114Y-86888733D01*
X132095432Y-86892601D01*
X132090864Y-86902129D01*
X132087290Y-86919858D01*
X132084588Y-86948329D01*
X132082635Y-86990081D01*
X132081310Y-87047654D01*
X132080492Y-87123590D01*
X132080058Y-87220429D01*
X132079887Y-87340710D01*
X132079857Y-87486974D01*
X132079857Y-88085963D01*
X131959279Y-88085963D01*
X131838701Y-88085963D01*
X131830134Y-88039613D01*
X131829030Y-88026172D01*
X131827689Y-87984830D01*
X131826594Y-87919643D01*
X131825757Y-87833335D01*
X131825192Y-87728631D01*
X131824913Y-87608255D01*
X131824933Y-87474933D01*
X131825265Y-87331389D01*
X131825922Y-87180348D01*
X131826647Y-87050729D01*
X131827652Y-86895808D01*
X131828737Y-86765473D01*
X131829977Y-86657444D01*
X131831451Y-86569443D01*
X131833234Y-86499191D01*
X131835402Y-86444409D01*
X131838033Y-86402820D01*
X131841202Y-86372144D01*
X131844987Y-86350103D01*
X131849464Y-86334419D01*
X131854708Y-86322812D01*
X131868547Y-86300240D01*
X131894185Y-86275338D01*
X131930271Y-86263486D01*
X131985654Y-86260472D01*
X132016710Y-86262840D01*
X132046188Y-86272631D01*
X132074045Y-86292975D01*
X132102888Y-86326988D01*
X132135328Y-86377787D01*
X132173971Y-86448489D01*
X132221427Y-86542212D01*
X132243259Y-86586336D01*
X132274628Y-86650227D01*
X132299687Y-86701884D01*
X132316293Y-86736879D01*
X132322305Y-86750782D01*
X132327480Y-86763206D01*
X132343146Y-86797496D01*
X132367384Y-86849432D01*
X132398249Y-86914851D01*
X132433799Y-86989592D01*
X132460433Y-87045499D01*
X132501909Y-87132978D01*
X132541471Y-87216863D01*
X132575644Y-87289781D01*
X132600953Y-87344357D01*
X132633836Y-87415061D01*
X132683389Y-87517785D01*
X132727124Y-87603574D01*
X132763774Y-87670071D01*
X132792077Y-87714917D01*
X132810766Y-87735753D01*
X132811985Y-87736473D01*
X132831506Y-87744731D01*
X132849718Y-87743282D01*
X132868710Y-87729374D01*
X132890572Y-87700254D01*
X132917394Y-87653170D01*
X132951267Y-87585371D01*
X132994279Y-87494104D01*
X133044070Y-87387081D01*
X133135839Y-87190622D01*
X133223203Y-87004630D01*
X133304690Y-86832209D01*
X133378833Y-86676464D01*
X133444160Y-86540499D01*
X133499204Y-86427418D01*
X133509049Y-86407838D01*
X133550041Y-86338378D01*
X133590353Y-86292880D01*
X133633655Y-86268020D01*
X133683621Y-86260472D01*
X133689553Y-86260524D01*
G37*
G36*
X134831352Y-78698068D02*
G01*
X134858250Y-78748273D01*
X134904348Y-78833967D01*
X134949104Y-78916789D01*
X134988498Y-78989303D01*
X135018507Y-79044076D01*
X135028856Y-79062871D01*
X135070076Y-79138415D01*
X135114281Y-79220237D01*
X135153528Y-79293655D01*
X135194502Y-79370967D01*
X135252945Y-79481226D01*
X135300425Y-79570082D01*
X135338587Y-79639832D01*
X135369074Y-79692775D01*
X135393530Y-79731206D01*
X135413600Y-79757422D01*
X135430928Y-79773721D01*
X135447158Y-79782400D01*
X135463933Y-79785755D01*
X135482898Y-79786083D01*
X135505697Y-79785682D01*
X135544100Y-79786695D01*
X135649414Y-79796396D01*
X135771641Y-79815163D01*
X135904260Y-79841499D01*
X136040753Y-79873909D01*
X136174598Y-79910899D01*
X136299276Y-79950974D01*
X136408268Y-79992638D01*
X136466370Y-80017340D01*
X136528560Y-80044082D01*
X136572043Y-80063303D01*
X136601286Y-80076989D01*
X136620754Y-80087126D01*
X136626153Y-80090121D01*
X136657201Y-80106986D01*
X136703174Y-80131688D01*
X136756240Y-80160013D01*
X136779976Y-80172684D01*
X136825864Y-80197740D01*
X136865501Y-80220766D01*
X136904738Y-80245539D01*
X136949427Y-80275840D01*
X137005419Y-80315445D01*
X137078565Y-80368132D01*
X137104064Y-80387335D01*
X137173092Y-80444273D01*
X137253003Y-80515349D01*
X137338432Y-80595362D01*
X137424014Y-80679112D01*
X137504386Y-80761398D01*
X137574182Y-80837021D01*
X137628038Y-80900779D01*
X137643839Y-80921055D01*
X137698628Y-80994395D01*
X137756378Y-81076820D01*
X137822645Y-81176193D01*
X137837048Y-81199251D01*
X137872977Y-81262329D01*
X137914616Y-81340793D01*
X137958321Y-81427345D01*
X138000449Y-81514683D01*
X138037356Y-81595509D01*
X138065398Y-81662524D01*
X138083599Y-81709454D01*
X138104594Y-81764071D01*
X138118707Y-81801957D01*
X138128066Y-81829091D01*
X138134798Y-81851451D01*
X138141030Y-81875014D01*
X138141580Y-81877162D01*
X138151130Y-81913964D01*
X138164944Y-81966719D01*
X138180231Y-82024761D01*
X138195335Y-82086826D01*
X138211743Y-82163898D01*
X138223932Y-82231555D01*
X138231816Y-82282253D01*
X138243729Y-82358267D01*
X138254396Y-82425732D01*
X138258576Y-82458947D01*
X138264025Y-82533295D01*
X138267463Y-82624166D01*
X138268889Y-82724070D01*
X138268302Y-82825517D01*
X138265701Y-82921017D01*
X138261086Y-83003081D01*
X138254456Y-83064218D01*
X138239261Y-83157091D01*
X138207456Y-83331161D01*
X138174187Y-83483915D01*
X138138100Y-83620214D01*
X138097839Y-83744919D01*
X138052047Y-83862890D01*
X137999371Y-83978990D01*
X137995447Y-83987139D01*
X137967805Y-84050846D01*
X137956606Y-84097427D01*
X137962737Y-84133058D01*
X137987083Y-84163918D01*
X138030531Y-84196184D01*
X138051387Y-84209912D01*
X138097023Y-84239989D01*
X138160526Y-84281865D01*
X138238541Y-84333328D01*
X138327715Y-84392165D01*
X138424694Y-84456163D01*
X138526123Y-84523111D01*
X138608073Y-84577149D01*
X138703907Y-84640193D01*
X138791631Y-84697741D01*
X138868109Y-84747746D01*
X138930207Y-84788157D01*
X138974789Y-84816925D01*
X138998720Y-84832001D01*
X139021738Y-84846053D01*
X139053629Y-84869146D01*
X139069453Y-84892131D01*
X139070320Y-84921547D01*
X139057341Y-84963932D01*
X139031624Y-85025825D01*
X139018551Y-85055141D01*
X138994840Y-85102874D01*
X138975144Y-85135793D01*
X138962749Y-85148063D01*
X138960031Y-85147706D01*
X138934797Y-85140822D01*
X138889635Y-85126508D01*
X138829967Y-85106525D01*
X138761213Y-85082633D01*
X138682962Y-85055113D01*
X138591855Y-85023309D01*
X138504886Y-84993166D01*
X138433422Y-84968635D01*
X138390062Y-84953694D01*
X138332357Y-84933243D01*
X138287376Y-84916625D01*
X138262282Y-84906444D01*
X138251687Y-84901887D01*
X138213599Y-84887342D01*
X138158079Y-84867282D01*
X138091451Y-84843873D01*
X138020038Y-84819284D01*
X137950167Y-84795681D01*
X137888160Y-84775233D01*
X137840343Y-84760107D01*
X137813040Y-84752471D01*
X137787360Y-84745187D01*
X137763012Y-84733681D01*
X137756560Y-84729714D01*
X137726972Y-84716275D01*
X137686324Y-84700983D01*
X137665102Y-84694316D01*
X137627501Y-84688145D01*
X137592304Y-84693625D01*
X137554067Y-84713078D01*
X137507347Y-84748827D01*
X137446701Y-84803192D01*
X137418001Y-84829773D01*
X137305772Y-84931989D01*
X137205766Y-85019212D01*
X137113172Y-85094708D01*
X137023181Y-85161743D01*
X136930982Y-85223587D01*
X136831767Y-85283505D01*
X136720725Y-85344766D01*
X136593047Y-85410636D01*
X136443922Y-85484383D01*
X136410329Y-85498457D01*
X136354162Y-85518922D01*
X136284095Y-85542698D01*
X136207161Y-85567519D01*
X136130392Y-85591121D01*
X136060820Y-85611238D01*
X136005477Y-85625605D01*
X135954912Y-85637636D01*
X135898885Y-85651372D01*
X135857540Y-85661950D01*
X135855850Y-85662395D01*
X135803707Y-85672271D01*
X135750577Y-85677166D01*
X135745305Y-85677347D01*
X135698193Y-85682042D01*
X135659531Y-85690363D01*
X135657125Y-85690990D01*
X135628355Y-85693927D01*
X135576850Y-85696034D01*
X135507497Y-85697351D01*
X135425182Y-85697916D01*
X135334793Y-85697770D01*
X135241215Y-85696952D01*
X135149336Y-85695503D01*
X135064041Y-85693460D01*
X134990218Y-85690865D01*
X134932753Y-85687757D01*
X134896533Y-85684175D01*
X134735149Y-85654591D01*
X134446142Y-85580350D01*
X134169896Y-85480723D01*
X133905828Y-85355485D01*
X133653351Y-85204409D01*
X133589133Y-85161283D01*
X133527069Y-85117903D01*
X133472479Y-85076915D01*
X133419859Y-85033783D01*
X133363707Y-84983970D01*
X133298517Y-84922937D01*
X133218787Y-84846149D01*
X133190231Y-84818638D01*
X133136956Y-84768370D01*
X133091777Y-84727112D01*
X133058762Y-84698538D01*
X133041979Y-84686326D01*
X133036715Y-84685629D01*
X133004306Y-84690745D01*
X132946411Y-84706071D01*
X132863781Y-84731365D01*
X132757166Y-84766381D01*
X132627317Y-84810877D01*
X132474982Y-84864608D01*
X132300912Y-84927330D01*
X132266546Y-84939744D01*
X132190459Y-84966802D01*
X132117092Y-84992410D01*
X132058464Y-85012353D01*
X132054738Y-85013592D01*
X132002649Y-85031149D01*
X131959714Y-85046007D01*
X131934905Y-85055066D01*
X131925433Y-85056861D01*
X131902703Y-85045455D01*
X131874293Y-85010320D01*
X131863940Y-84994364D01*
X131844941Y-84960056D01*
X131837409Y-84938199D01*
X131842718Y-84928470D01*
X131867306Y-84907522D01*
X131905152Y-84884330D01*
X131928475Y-84871816D01*
X131977235Y-84845094D01*
X132015679Y-84823346D01*
X132026863Y-84816818D01*
X132094264Y-84777307D01*
X132168490Y-84733576D01*
X132243252Y-84689351D01*
X132312262Y-84648358D01*
X132369233Y-84614322D01*
X132407875Y-84590970D01*
X132428043Y-84578729D01*
X132478794Y-84548609D01*
X132521968Y-84523794D01*
X132561065Y-84501810D01*
X132640106Y-84456334D01*
X132706432Y-84416735D01*
X132755890Y-84385524D01*
X132784327Y-84365211D01*
X132792981Y-84358157D01*
X132809667Y-84350342D01*
X132818444Y-84362626D01*
X132825146Y-84374786D01*
X132847455Y-84404925D01*
X132878322Y-84441065D01*
X132897877Y-84462831D01*
X132932728Y-84502698D01*
X132958299Y-84533276D01*
X132985535Y-84563783D01*
X133020850Y-84597454D01*
X133030770Y-84606080D01*
X133064165Y-84636075D01*
X133108303Y-84676479D01*
X133156336Y-84721045D01*
X133179167Y-84742141D01*
X133226097Y-84784133D01*
X133266003Y-84818118D01*
X133292097Y-84838236D01*
X133304259Y-84846411D01*
X133343453Y-84873359D01*
X133386090Y-84903253D01*
X133410337Y-84920041D01*
X133520034Y-84988904D01*
X133645125Y-85058418D01*
X133776279Y-85123862D01*
X133904161Y-85180517D01*
X134019441Y-85223659D01*
X134049455Y-85233418D01*
X134185214Y-85274080D01*
X134311082Y-85304771D01*
X134434676Y-85326634D01*
X134563616Y-85340807D01*
X134705521Y-85348431D01*
X134868010Y-85350646D01*
X134900120Y-85350554D01*
X135052671Y-85347503D01*
X135185781Y-85339357D01*
X135306853Y-85325045D01*
X135423292Y-85303494D01*
X135542503Y-85273636D01*
X135671890Y-85234399D01*
X135875734Y-85159748D01*
X136067241Y-85070634D01*
X136251524Y-84964005D01*
X136434049Y-84836700D01*
X136620285Y-84685552D01*
X136654385Y-84654056D01*
X136703500Y-84604229D01*
X136757419Y-84545922D01*
X136812643Y-84483297D01*
X136865672Y-84420511D01*
X136913008Y-84361725D01*
X136951151Y-84311098D01*
X136976603Y-84272789D01*
X136985865Y-84250958D01*
X136986019Y-84248845D01*
X136998659Y-84232940D01*
X137006680Y-84226943D01*
X137029666Y-84198103D01*
X137061323Y-84149715D01*
X137099459Y-84085879D01*
X137141880Y-84010692D01*
X137186394Y-83928254D01*
X137230808Y-83842663D01*
X137272930Y-83758020D01*
X137310566Y-83678422D01*
X137341523Y-83607968D01*
X137363609Y-83550758D01*
X137376451Y-83511735D01*
X137404823Y-83416107D01*
X137433561Y-83308628D01*
X137460248Y-83199000D01*
X137482466Y-83096928D01*
X137497797Y-83012116D01*
X137502778Y-82971201D01*
X137508892Y-82884813D01*
X137512365Y-82781711D01*
X137513253Y-82669185D01*
X137511612Y-82554525D01*
X137507499Y-82445018D01*
X137500969Y-82347954D01*
X137492079Y-82270621D01*
X137486020Y-82233142D01*
X137426557Y-81965107D01*
X137340543Y-81707287D01*
X137228352Y-81460526D01*
X137090360Y-81225664D01*
X136926943Y-81003544D01*
X136917954Y-80992713D01*
X136871610Y-80940394D01*
X136815640Y-80881457D01*
X136753702Y-80819311D01*
X136689458Y-80757367D01*
X136626568Y-80699037D01*
X136568693Y-80647732D01*
X136519493Y-80606862D01*
X136482629Y-80579839D01*
X136461761Y-80570073D01*
X136452401Y-80567433D01*
X136431151Y-80550477D01*
X136416178Y-80535877D01*
X136372248Y-80503622D01*
X136309416Y-80464463D01*
X136232425Y-80420868D01*
X136146015Y-80375302D01*
X136054928Y-80330232D01*
X135963905Y-80288125D01*
X135877687Y-80251447D01*
X135801015Y-80222665D01*
X135784662Y-80217110D01*
X135664429Y-80178558D01*
X135554873Y-80148576D01*
X135449482Y-80126185D01*
X135341743Y-80110402D01*
X135225144Y-80100248D01*
X135093173Y-80094742D01*
X134939318Y-80092903D01*
X134822538Y-80093485D01*
X134699514Y-80096943D01*
X134589225Y-80104399D01*
X134486112Y-80116900D01*
X134384618Y-80135494D01*
X134279181Y-80161226D01*
X134164245Y-80195145D01*
X134034248Y-80238297D01*
X133883633Y-80291729D01*
X133802211Y-80323550D01*
X133706363Y-80365567D01*
X133608430Y-80412429D01*
X133514168Y-80461153D01*
X133429331Y-80508757D01*
X133359671Y-80552256D01*
X133310944Y-80588667D01*
X133285097Y-80605909D01*
X133263610Y-80610493D01*
X133264406Y-80605210D01*
X133281748Y-80584821D01*
X133314859Y-80552492D01*
X133359820Y-80511671D01*
X133412711Y-80465804D01*
X133469613Y-80418338D01*
X133526608Y-80372722D01*
X133579776Y-80332401D01*
X133618399Y-80305773D01*
X133678868Y-80267362D01*
X133750297Y-80224395D01*
X133828271Y-80179295D01*
X133908372Y-80134486D01*
X133986187Y-80092391D01*
X134057299Y-80055433D01*
X134117292Y-80026034D01*
X134161751Y-80006617D01*
X134186259Y-79999607D01*
X134187146Y-79999517D01*
X134206188Y-79993136D01*
X134238342Y-79979775D01*
X134254139Y-79972888D01*
X134342281Y-79937942D01*
X134436179Y-79907249D01*
X134547122Y-79877052D01*
X134582240Y-79867537D01*
X134637557Y-79849798D01*
X134679059Y-79832934D01*
X134699727Y-79819589D01*
X134700702Y-79818278D01*
X134705540Y-79811313D01*
X134708976Y-79803220D01*
X134710503Y-79791586D01*
X134709614Y-79774000D01*
X134705801Y-79748050D01*
X134698558Y-79711325D01*
X134687377Y-79661413D01*
X134671752Y-79595903D01*
X134651176Y-79512382D01*
X134625141Y-79408441D01*
X134593140Y-79281666D01*
X134554667Y-79129646D01*
X134524652Y-79010870D01*
X134492380Y-78882415D01*
X134466305Y-78777415D01*
X134445898Y-78693537D01*
X134430631Y-78628451D01*
X134419979Y-78579825D01*
X134413412Y-78545327D01*
X134410404Y-78522626D01*
X134410427Y-78509391D01*
X134412953Y-78503290D01*
X134422224Y-78499615D01*
X134455865Y-78493362D01*
X134506889Y-78487298D01*
X134568515Y-78482337D01*
X134711131Y-78473285D01*
X134831352Y-78698068D01*
G37*
%TD*%
M02*
