%TF.GenerationSoftware,KiCad,Pcbnew,7.0.7*%
%TF.CreationDate,2024-04-01T01:40:19+05:30*%
%TF.ProjectId,FC_THT_STACK_2,46435f54-4854-45f5-9354-41434b5f322e,rev?*%
%TF.SameCoordinates,Original*%
%TF.FileFunction,Drillmap*%
%TF.FilePolarity,Positive*%
%FSLAX45Y45*%
G04 Gerber Fmt 4.5, Leading zero omitted, Abs format (unit mm)*
G04 Created by KiCad (PCBNEW 7.0.7) date 2024-04-01 01:40:19*
%MOMM*%
%LPD*%
G01*
G04 APERTURE LIST*
%ADD10C,0.200000*%
%ADD11C,0.040000*%
%ADD12C,0.076200*%
%ADD13C,0.100000*%
%ADD14C,0.300000*%
%ADD15C,0.840000*%
G04 APERTURE END LIST*
D10*
D11*
X10554020Y-9682800D02*
X10594020Y-9722800D01*
X10594020Y-9682800D02*
X10554020Y-9722800D01*
X11288080Y-9510080D02*
X11328080Y-9550080D01*
X11328080Y-9510080D02*
X11288080Y-9550080D01*
X11435400Y-9746300D02*
X11475400Y-9786300D01*
X11475400Y-9746300D02*
X11435400Y-9786300D01*
X12532680Y-8986840D02*
X12572680Y-9026840D01*
X12572680Y-8986840D02*
X12532680Y-9026840D01*
X13502960Y-8268020D02*
X13542960Y-8308020D01*
X13542960Y-8268020D02*
X13502960Y-8308020D01*
D12*
X10107580Y-9126220D02*
G75*
G03*
X10107580Y-9126220I-38100J0D01*
G01*
X10107580Y-9380220D02*
G75*
G03*
X10107580Y-9380220I-38100J0D01*
G01*
X10107580Y-9634220D02*
G75*
G03*
X10107580Y-9634220I-38100J0D01*
G01*
X10107580Y-9888220D02*
G75*
G03*
X10107580Y-9888220I-38100J0D01*
G01*
X10107580Y-10142220D02*
G75*
G03*
X10107580Y-10142220I-38100J0D01*
G01*
X10107580Y-10396220D02*
G75*
G03*
X10107580Y-10396220I-38100J0D01*
G01*
X10107580Y-10650220D02*
G75*
G03*
X10107580Y-10650220I-38100J0D01*
G01*
X10107580Y-10904220D02*
G75*
G03*
X10107580Y-10904220I-38100J0D01*
G01*
X12387580Y-9126220D02*
G75*
G03*
X12387580Y-9126220I-38100J0D01*
G01*
X12387580Y-9380220D02*
G75*
G03*
X12387580Y-9380220I-38100J0D01*
G01*
X12387580Y-9634220D02*
G75*
G03*
X12387580Y-9634220I-38100J0D01*
G01*
X12387580Y-9888220D02*
G75*
G03*
X12387580Y-9888220I-38100J0D01*
G01*
X12387580Y-10142220D02*
G75*
G03*
X12387580Y-10142220I-38100J0D01*
G01*
X12387580Y-10396220D02*
G75*
G03*
X12387580Y-10396220I-38100J0D01*
G01*
X12387580Y-10650220D02*
G75*
G03*
X12387580Y-10650220I-38100J0D01*
G01*
X12387580Y-10904220D02*
G75*
G03*
X12387580Y-10904220I-38100J0D01*
G01*
D13*
X9492680Y-7179180D02*
X9492680Y-7279180D01*
X9442680Y-7229180D02*
X9542680Y-7229180D01*
X9492680Y-7433180D02*
X9492680Y-7533180D01*
X9442680Y-7483180D02*
X9542680Y-7483180D01*
X9492680Y-7687180D02*
X9492680Y-7787180D01*
X9442680Y-7737180D02*
X9542680Y-7737180D01*
X9492680Y-7941180D02*
X9492680Y-8041180D01*
X9442680Y-7991180D02*
X9542680Y-7991180D01*
X9492680Y-8195180D02*
X9492680Y-8295180D01*
X9442680Y-8245180D02*
X9542680Y-8245180D01*
X9492680Y-8449180D02*
X9492680Y-8549180D01*
X9442680Y-8499180D02*
X9542680Y-8499180D01*
X9492680Y-8703180D02*
X9492680Y-8803180D01*
X9442680Y-8753180D02*
X9542680Y-8753180D01*
X9492680Y-8957180D02*
X9492680Y-9057180D01*
X9442680Y-9007180D02*
X9542680Y-9007180D01*
X9492680Y-9211180D02*
X9492680Y-9311180D01*
X9442680Y-9261180D02*
X9542680Y-9261180D01*
X9492680Y-9465180D02*
X9492680Y-9565180D01*
X9442680Y-9515180D02*
X9542680Y-9515180D01*
X9492680Y-9719180D02*
X9492680Y-9819180D01*
X9442680Y-9769180D02*
X9542680Y-9769180D01*
X9492680Y-9973180D02*
X9492680Y-10073180D01*
X9442680Y-10023180D02*
X9542680Y-10023180D01*
X9492680Y-10227180D02*
X9492680Y-10327180D01*
X9442680Y-10277180D02*
X9542680Y-10277180D01*
X9492680Y-10481180D02*
X9492680Y-10581180D01*
X9442680Y-10531180D02*
X9542680Y-10531180D01*
X9492680Y-10735180D02*
X9492680Y-10835180D01*
X9442680Y-10785180D02*
X9542680Y-10785180D01*
X10535180Y-6140680D02*
X10535180Y-6240680D01*
X10485180Y-6190680D02*
X10585180Y-6190680D01*
X10789180Y-6140680D02*
X10789180Y-6240680D01*
X10739180Y-6190680D02*
X10839180Y-6190680D01*
X11043180Y-6140680D02*
X11043180Y-6240680D01*
X10993180Y-6190680D02*
X11093180Y-6190680D01*
X11297180Y-6140680D02*
X11297180Y-6240680D01*
X11247180Y-6190680D02*
X11347180Y-6190680D01*
X11551180Y-6140680D02*
X11551180Y-6240680D01*
X11501180Y-6190680D02*
X11601180Y-6190680D01*
X11805180Y-6140680D02*
X11805180Y-6240680D01*
X11755180Y-6190680D02*
X11855180Y-6190680D01*
X12059180Y-6140680D02*
X12059180Y-6240680D01*
X12009180Y-6190680D02*
X12109180Y-6190680D01*
X12313180Y-6140680D02*
X12313180Y-6240680D01*
X12263180Y-6190680D02*
X12363180Y-6190680D01*
X12567180Y-6140680D02*
X12567180Y-6240680D01*
X12517180Y-6190680D02*
X12617180Y-6190680D01*
X12821180Y-6140680D02*
X12821180Y-6240680D01*
X12771180Y-6190680D02*
X12871180Y-6190680D01*
X13075180Y-6140680D02*
X13075180Y-6240680D01*
X13025180Y-6190680D02*
X13125180Y-6190680D01*
X13307060Y-8451380D02*
X13307060Y-8551380D01*
X13257060Y-8501380D02*
X13357060Y-8501380D01*
X13307060Y-8705380D02*
X13307060Y-8805380D01*
X13257060Y-8755380D02*
X13357060Y-8755380D01*
X13307060Y-8959380D02*
X13307060Y-9059380D01*
X13257060Y-9009380D02*
X13357060Y-9009380D01*
X13307060Y-9213380D02*
X13307060Y-9313380D01*
X13257060Y-9263380D02*
X13357060Y-9263380D01*
X13329180Y-6140680D02*
X13329180Y-6240680D01*
X13279180Y-6190680D02*
X13379180Y-6190680D01*
X13583180Y-6140680D02*
X13583180Y-6240680D01*
X13533180Y-6190680D02*
X13633180Y-6190680D01*
X13837180Y-6140680D02*
X13837180Y-6240680D01*
X13787180Y-6190680D02*
X13887180Y-6190680D01*
X14091180Y-6140680D02*
X14091180Y-6240680D01*
X14041180Y-6190680D02*
X14141180Y-6190680D01*
X14154060Y-8315380D02*
X14154060Y-8415380D01*
X14104060Y-8365380D02*
X14204060Y-8365380D01*
X14154060Y-8569380D02*
X14154060Y-8669380D01*
X14104060Y-8619380D02*
X14204060Y-8619380D01*
X14154060Y-8823380D02*
X14154060Y-8923380D01*
X14104060Y-8873380D02*
X14204060Y-8873380D01*
X14154060Y-9077380D02*
X14154060Y-9177380D01*
X14104060Y-9127380D02*
X14204060Y-9127380D01*
X14154060Y-9331380D02*
X14154060Y-9431380D01*
X14104060Y-9381380D02*
X14204060Y-9381380D01*
X15132680Y-7182180D02*
X15132680Y-7282180D01*
X15082680Y-7232180D02*
X15182680Y-7232180D01*
X15132680Y-7436180D02*
X15132680Y-7536180D01*
X15082680Y-7486180D02*
X15182680Y-7486180D01*
X15132680Y-7690180D02*
X15132680Y-7790180D01*
X15082680Y-7740180D02*
X15182680Y-7740180D01*
X15132680Y-7944180D02*
X15132680Y-8044180D01*
X15082680Y-7994180D02*
X15182680Y-7994180D01*
X15132680Y-8198180D02*
X15132680Y-8298180D01*
X15082680Y-8248180D02*
X15182680Y-8248180D01*
X15132680Y-8452180D02*
X15132680Y-8552180D01*
X15082680Y-8502180D02*
X15182680Y-8502180D01*
X15132680Y-8706180D02*
X15132680Y-8806180D01*
X15082680Y-8756180D02*
X15182680Y-8756180D01*
X15132680Y-8960180D02*
X15132680Y-9060180D01*
X15082680Y-9010180D02*
X15182680Y-9010180D01*
X15132680Y-9214180D02*
X15132680Y-9314180D01*
X15082680Y-9264180D02*
X15182680Y-9264180D01*
X15132680Y-9468180D02*
X15132680Y-9568180D01*
X15082680Y-9518180D02*
X15182680Y-9518180D01*
X15132680Y-9722180D02*
X15132680Y-9822180D01*
X15082680Y-9772180D02*
X15182680Y-9772180D01*
X15132680Y-9976180D02*
X15132680Y-10076180D01*
X15082680Y-10026180D02*
X15182680Y-10026180D01*
X15132680Y-10230180D02*
X15132680Y-10330180D01*
X15082680Y-10280180D02*
X15182680Y-10280180D01*
X15132680Y-10484180D02*
X15132680Y-10584180D01*
X15082680Y-10534180D02*
X15182680Y-10534180D01*
X15132680Y-10738180D02*
X15132680Y-10838180D01*
X15082680Y-10788180D02*
X15182680Y-10788180D01*
D14*
X13113127Y-8260447D02*
X13113127Y-8048313D01*
X12900993Y-8048313D01*
X12900993Y-8260447D01*
X13113127Y-8260447D01*
X13113127Y-9700447D02*
X13113127Y-9488313D01*
X12900993Y-9488313D01*
X12900993Y-9700447D01*
X13113127Y-9700447D01*
X14553127Y-8260447D02*
X14553127Y-8048313D01*
X14340993Y-8048313D01*
X14340993Y-8260447D01*
X14553127Y-8260447D01*
X14553127Y-9700447D02*
X14553127Y-9488313D01*
X14340993Y-9488313D01*
X14340993Y-9700447D01*
X14553127Y-9700447D01*
D15*
X9532680Y-6640680D02*
X9952680Y-6220680D01*
X9532680Y-5800680D01*
X9112680Y-6220680D01*
X9532680Y-6640680D01*
X9532680Y-12210680D02*
X9952680Y-11790680D01*
X9532680Y-11370680D01*
X9112680Y-11790680D01*
X9532680Y-12210680D01*
X15092680Y-6642180D02*
X15512680Y-6222180D01*
X15092680Y-5802180D01*
X14672680Y-6222180D01*
X15092680Y-6642180D01*
X15092680Y-12210680D02*
X15512680Y-11790680D01*
X15092680Y-11370680D01*
X14672680Y-11790680D01*
X15092680Y-12210680D01*
D10*
X9070957Y-12824664D02*
X9070957Y-12624664D01*
X9070957Y-12624664D02*
X9118576Y-12624664D01*
X9118576Y-12624664D02*
X9147147Y-12634188D01*
X9147147Y-12634188D02*
X9166195Y-12653235D01*
X9166195Y-12653235D02*
X9175719Y-12672283D01*
X9175719Y-12672283D02*
X9185243Y-12710378D01*
X9185243Y-12710378D02*
X9185243Y-12738949D01*
X9185243Y-12738949D02*
X9175719Y-12777045D01*
X9175719Y-12777045D02*
X9166195Y-12796092D01*
X9166195Y-12796092D02*
X9147147Y-12815140D01*
X9147147Y-12815140D02*
X9118576Y-12824664D01*
X9118576Y-12824664D02*
X9070957Y-12824664D01*
X9270957Y-12824664D02*
X9270957Y-12691330D01*
X9270957Y-12729426D02*
X9280481Y-12710378D01*
X9280481Y-12710378D02*
X9290004Y-12700854D01*
X9290004Y-12700854D02*
X9309052Y-12691330D01*
X9309052Y-12691330D02*
X9328100Y-12691330D01*
X9394766Y-12824664D02*
X9394766Y-12691330D01*
X9394766Y-12624664D02*
X9385243Y-12634188D01*
X9385243Y-12634188D02*
X9394766Y-12643711D01*
X9394766Y-12643711D02*
X9404290Y-12634188D01*
X9404290Y-12634188D02*
X9394766Y-12624664D01*
X9394766Y-12624664D02*
X9394766Y-12643711D01*
X9518576Y-12824664D02*
X9499528Y-12815140D01*
X9499528Y-12815140D02*
X9490004Y-12796092D01*
X9490004Y-12796092D02*
X9490004Y-12624664D01*
X9623338Y-12824664D02*
X9604290Y-12815140D01*
X9604290Y-12815140D02*
X9594766Y-12796092D01*
X9594766Y-12796092D02*
X9594766Y-12624664D01*
X9851909Y-12824664D02*
X9851909Y-12624664D01*
X9851909Y-12624664D02*
X9918576Y-12767521D01*
X9918576Y-12767521D02*
X9985243Y-12624664D01*
X9985243Y-12624664D02*
X9985243Y-12824664D01*
X10166195Y-12824664D02*
X10166195Y-12719902D01*
X10166195Y-12719902D02*
X10156671Y-12700854D01*
X10156671Y-12700854D02*
X10137624Y-12691330D01*
X10137624Y-12691330D02*
X10099528Y-12691330D01*
X10099528Y-12691330D02*
X10080481Y-12700854D01*
X10166195Y-12815140D02*
X10147147Y-12824664D01*
X10147147Y-12824664D02*
X10099528Y-12824664D01*
X10099528Y-12824664D02*
X10080481Y-12815140D01*
X10080481Y-12815140D02*
X10070957Y-12796092D01*
X10070957Y-12796092D02*
X10070957Y-12777045D01*
X10070957Y-12777045D02*
X10080481Y-12757997D01*
X10080481Y-12757997D02*
X10099528Y-12748473D01*
X10099528Y-12748473D02*
X10147147Y-12748473D01*
X10147147Y-12748473D02*
X10166195Y-12738949D01*
X10261433Y-12691330D02*
X10261433Y-12891330D01*
X10261433Y-12700854D02*
X10280481Y-12691330D01*
X10280481Y-12691330D02*
X10318576Y-12691330D01*
X10318576Y-12691330D02*
X10337624Y-12700854D01*
X10337624Y-12700854D02*
X10347147Y-12710378D01*
X10347147Y-12710378D02*
X10356671Y-12729426D01*
X10356671Y-12729426D02*
X10356671Y-12786568D01*
X10356671Y-12786568D02*
X10347147Y-12805616D01*
X10347147Y-12805616D02*
X10337624Y-12815140D01*
X10337624Y-12815140D02*
X10318576Y-12824664D01*
X10318576Y-12824664D02*
X10280481Y-12824664D01*
X10280481Y-12824664D02*
X10261433Y-12815140D01*
X10442385Y-12805616D02*
X10451909Y-12815140D01*
X10451909Y-12815140D02*
X10442385Y-12824664D01*
X10442385Y-12824664D02*
X10432862Y-12815140D01*
X10432862Y-12815140D02*
X10442385Y-12805616D01*
X10442385Y-12805616D02*
X10442385Y-12824664D01*
X10442385Y-12700854D02*
X10451909Y-12710378D01*
X10451909Y-12710378D02*
X10442385Y-12719902D01*
X10442385Y-12719902D02*
X10432862Y-12710378D01*
X10432862Y-12710378D02*
X10442385Y-12700854D01*
X10442385Y-12700854D02*
X10442385Y-12719902D01*
D11*
X8770180Y-13133180D02*
X8810180Y-13173180D01*
X8810180Y-13133180D02*
X8770180Y-13173180D01*
D10*
X9109052Y-13044664D02*
X9128100Y-13044664D01*
X9128100Y-13044664D02*
X9147147Y-13054188D01*
X9147147Y-13054188D02*
X9156671Y-13063711D01*
X9156671Y-13063711D02*
X9166195Y-13082759D01*
X9166195Y-13082759D02*
X9175719Y-13120854D01*
X9175719Y-13120854D02*
X9175719Y-13168473D01*
X9175719Y-13168473D02*
X9166195Y-13206568D01*
X9166195Y-13206568D02*
X9156671Y-13225616D01*
X9156671Y-13225616D02*
X9147147Y-13235140D01*
X9147147Y-13235140D02*
X9128100Y-13244664D01*
X9128100Y-13244664D02*
X9109052Y-13244664D01*
X9109052Y-13244664D02*
X9090004Y-13235140D01*
X9090004Y-13235140D02*
X9080481Y-13225616D01*
X9080481Y-13225616D02*
X9070957Y-13206568D01*
X9070957Y-13206568D02*
X9061433Y-13168473D01*
X9061433Y-13168473D02*
X9061433Y-13120854D01*
X9061433Y-13120854D02*
X9070957Y-13082759D01*
X9070957Y-13082759D02*
X9080481Y-13063711D01*
X9080481Y-13063711D02*
X9090004Y-13054188D01*
X9090004Y-13054188D02*
X9109052Y-13044664D01*
X9261433Y-13225616D02*
X9270957Y-13235140D01*
X9270957Y-13235140D02*
X9261433Y-13244664D01*
X9261433Y-13244664D02*
X9251909Y-13235140D01*
X9251909Y-13235140D02*
X9261433Y-13225616D01*
X9261433Y-13225616D02*
X9261433Y-13244664D01*
X9442385Y-13111330D02*
X9442385Y-13244664D01*
X9394766Y-13035140D02*
X9347147Y-13177997D01*
X9347147Y-13177997D02*
X9470957Y-13177997D01*
X9585243Y-13044664D02*
X9604290Y-13044664D01*
X9604290Y-13044664D02*
X9623338Y-13054188D01*
X9623338Y-13054188D02*
X9632862Y-13063711D01*
X9632862Y-13063711D02*
X9642385Y-13082759D01*
X9642385Y-13082759D02*
X9651909Y-13120854D01*
X9651909Y-13120854D02*
X9651909Y-13168473D01*
X9651909Y-13168473D02*
X9642385Y-13206568D01*
X9642385Y-13206568D02*
X9632862Y-13225616D01*
X9632862Y-13225616D02*
X9623338Y-13235140D01*
X9623338Y-13235140D02*
X9604290Y-13244664D01*
X9604290Y-13244664D02*
X9585243Y-13244664D01*
X9585243Y-13244664D02*
X9566195Y-13235140D01*
X9566195Y-13235140D02*
X9556671Y-13225616D01*
X9556671Y-13225616D02*
X9547147Y-13206568D01*
X9547147Y-13206568D02*
X9537624Y-13168473D01*
X9537624Y-13168473D02*
X9537624Y-13120854D01*
X9537624Y-13120854D02*
X9547147Y-13082759D01*
X9547147Y-13082759D02*
X9556671Y-13063711D01*
X9556671Y-13063711D02*
X9566195Y-13054188D01*
X9566195Y-13054188D02*
X9585243Y-13044664D01*
X9775719Y-13044664D02*
X9794766Y-13044664D01*
X9794766Y-13044664D02*
X9813814Y-13054188D01*
X9813814Y-13054188D02*
X9823338Y-13063711D01*
X9823338Y-13063711D02*
X9832862Y-13082759D01*
X9832862Y-13082759D02*
X9842385Y-13120854D01*
X9842385Y-13120854D02*
X9842385Y-13168473D01*
X9842385Y-13168473D02*
X9832862Y-13206568D01*
X9832862Y-13206568D02*
X9823338Y-13225616D01*
X9823338Y-13225616D02*
X9813814Y-13235140D01*
X9813814Y-13235140D02*
X9794766Y-13244664D01*
X9794766Y-13244664D02*
X9775719Y-13244664D01*
X9775719Y-13244664D02*
X9756671Y-13235140D01*
X9756671Y-13235140D02*
X9747147Y-13225616D01*
X9747147Y-13225616D02*
X9737624Y-13206568D01*
X9737624Y-13206568D02*
X9728100Y-13168473D01*
X9728100Y-13168473D02*
X9728100Y-13120854D01*
X9728100Y-13120854D02*
X9737624Y-13082759D01*
X9737624Y-13082759D02*
X9747147Y-13063711D01*
X9747147Y-13063711D02*
X9756671Y-13054188D01*
X9756671Y-13054188D02*
X9775719Y-13044664D01*
X9928100Y-13244664D02*
X9928100Y-13111330D01*
X9928100Y-13130378D02*
X9937624Y-13120854D01*
X9937624Y-13120854D02*
X9956671Y-13111330D01*
X9956671Y-13111330D02*
X9985243Y-13111330D01*
X9985243Y-13111330D02*
X10004290Y-13120854D01*
X10004290Y-13120854D02*
X10013814Y-13139902D01*
X10013814Y-13139902D02*
X10013814Y-13244664D01*
X10013814Y-13139902D02*
X10023338Y-13120854D01*
X10023338Y-13120854D02*
X10042385Y-13111330D01*
X10042385Y-13111330D02*
X10070957Y-13111330D01*
X10070957Y-13111330D02*
X10090005Y-13120854D01*
X10090005Y-13120854D02*
X10099528Y-13139902D01*
X10099528Y-13139902D02*
X10099528Y-13244664D01*
X10194766Y-13244664D02*
X10194766Y-13111330D01*
X10194766Y-13130378D02*
X10204290Y-13120854D01*
X10204290Y-13120854D02*
X10223338Y-13111330D01*
X10223338Y-13111330D02*
X10251909Y-13111330D01*
X10251909Y-13111330D02*
X10270957Y-13120854D01*
X10270957Y-13120854D02*
X10280481Y-13139902D01*
X10280481Y-13139902D02*
X10280481Y-13244664D01*
X10280481Y-13139902D02*
X10290005Y-13120854D01*
X10290005Y-13120854D02*
X10309052Y-13111330D01*
X10309052Y-13111330D02*
X10337624Y-13111330D01*
X10337624Y-13111330D02*
X10356671Y-13120854D01*
X10356671Y-13120854D02*
X10366195Y-13139902D01*
X10366195Y-13139902D02*
X10366195Y-13244664D01*
X10756671Y-13035140D02*
X10585243Y-13292283D01*
X11013814Y-13044664D02*
X11032862Y-13044664D01*
X11032862Y-13044664D02*
X11051909Y-13054188D01*
X11051909Y-13054188D02*
X11061433Y-13063711D01*
X11061433Y-13063711D02*
X11070957Y-13082759D01*
X11070957Y-13082759D02*
X11080481Y-13120854D01*
X11080481Y-13120854D02*
X11080481Y-13168473D01*
X11080481Y-13168473D02*
X11070957Y-13206568D01*
X11070957Y-13206568D02*
X11061433Y-13225616D01*
X11061433Y-13225616D02*
X11051909Y-13235140D01*
X11051909Y-13235140D02*
X11032862Y-13244664D01*
X11032862Y-13244664D02*
X11013814Y-13244664D01*
X11013814Y-13244664D02*
X10994767Y-13235140D01*
X10994767Y-13235140D02*
X10985243Y-13225616D01*
X10985243Y-13225616D02*
X10975719Y-13206568D01*
X10975719Y-13206568D02*
X10966195Y-13168473D01*
X10966195Y-13168473D02*
X10966195Y-13120854D01*
X10966195Y-13120854D02*
X10975719Y-13082759D01*
X10975719Y-13082759D02*
X10985243Y-13063711D01*
X10985243Y-13063711D02*
X10994767Y-13054188D01*
X10994767Y-13054188D02*
X11013814Y-13044664D01*
X11166195Y-13225616D02*
X11175719Y-13235140D01*
X11175719Y-13235140D02*
X11166195Y-13244664D01*
X11166195Y-13244664D02*
X11156671Y-13235140D01*
X11156671Y-13235140D02*
X11166195Y-13225616D01*
X11166195Y-13225616D02*
X11166195Y-13244664D01*
X11299528Y-13044664D02*
X11318576Y-13044664D01*
X11318576Y-13044664D02*
X11337624Y-13054188D01*
X11337624Y-13054188D02*
X11347147Y-13063711D01*
X11347147Y-13063711D02*
X11356671Y-13082759D01*
X11356671Y-13082759D02*
X11366195Y-13120854D01*
X11366195Y-13120854D02*
X11366195Y-13168473D01*
X11366195Y-13168473D02*
X11356671Y-13206568D01*
X11356671Y-13206568D02*
X11347147Y-13225616D01*
X11347147Y-13225616D02*
X11337624Y-13235140D01*
X11337624Y-13235140D02*
X11318576Y-13244664D01*
X11318576Y-13244664D02*
X11299528Y-13244664D01*
X11299528Y-13244664D02*
X11280481Y-13235140D01*
X11280481Y-13235140D02*
X11270957Y-13225616D01*
X11270957Y-13225616D02*
X11261433Y-13206568D01*
X11261433Y-13206568D02*
X11251909Y-13168473D01*
X11251909Y-13168473D02*
X11251909Y-13120854D01*
X11251909Y-13120854D02*
X11261433Y-13082759D01*
X11261433Y-13082759D02*
X11270957Y-13063711D01*
X11270957Y-13063711D02*
X11280481Y-13054188D01*
X11280481Y-13054188D02*
X11299528Y-13044664D01*
X11556671Y-13244664D02*
X11442386Y-13244664D01*
X11499528Y-13244664D02*
X11499528Y-13044664D01*
X11499528Y-13044664D02*
X11480481Y-13073235D01*
X11480481Y-13073235D02*
X11461433Y-13092283D01*
X11461433Y-13092283D02*
X11442386Y-13101807D01*
X11737624Y-13044664D02*
X11642386Y-13044664D01*
X11642386Y-13044664D02*
X11632862Y-13139902D01*
X11632862Y-13139902D02*
X11642386Y-13130378D01*
X11642386Y-13130378D02*
X11661433Y-13120854D01*
X11661433Y-13120854D02*
X11709052Y-13120854D01*
X11709052Y-13120854D02*
X11728100Y-13130378D01*
X11728100Y-13130378D02*
X11737624Y-13139902D01*
X11737624Y-13139902D02*
X11747147Y-13158949D01*
X11747147Y-13158949D02*
X11747147Y-13206568D01*
X11747147Y-13206568D02*
X11737624Y-13225616D01*
X11737624Y-13225616D02*
X11728100Y-13235140D01*
X11728100Y-13235140D02*
X11709052Y-13244664D01*
X11709052Y-13244664D02*
X11661433Y-13244664D01*
X11661433Y-13244664D02*
X11642386Y-13235140D01*
X11642386Y-13235140D02*
X11632862Y-13225616D01*
X11813814Y-13044664D02*
X11947147Y-13044664D01*
X11947147Y-13044664D02*
X11861433Y-13244664D01*
X12013814Y-13044664D02*
X12013814Y-13082759D01*
X12090005Y-13044664D02*
X12090005Y-13082759D01*
X12385243Y-13320854D02*
X12375719Y-13311330D01*
X12375719Y-13311330D02*
X12356671Y-13282759D01*
X12356671Y-13282759D02*
X12347148Y-13263711D01*
X12347148Y-13263711D02*
X12337624Y-13235140D01*
X12337624Y-13235140D02*
X12328100Y-13187521D01*
X12328100Y-13187521D02*
X12328100Y-13149426D01*
X12328100Y-13149426D02*
X12337624Y-13101807D01*
X12337624Y-13101807D02*
X12347148Y-13073235D01*
X12347148Y-13073235D02*
X12356671Y-13054188D01*
X12356671Y-13054188D02*
X12375719Y-13025616D01*
X12375719Y-13025616D02*
X12385243Y-13016092D01*
X12556671Y-13044664D02*
X12461433Y-13044664D01*
X12461433Y-13044664D02*
X12451909Y-13139902D01*
X12451909Y-13139902D02*
X12461433Y-13130378D01*
X12461433Y-13130378D02*
X12480481Y-13120854D01*
X12480481Y-13120854D02*
X12528100Y-13120854D01*
X12528100Y-13120854D02*
X12547148Y-13130378D01*
X12547148Y-13130378D02*
X12556671Y-13139902D01*
X12556671Y-13139902D02*
X12566195Y-13158949D01*
X12566195Y-13158949D02*
X12566195Y-13206568D01*
X12566195Y-13206568D02*
X12556671Y-13225616D01*
X12556671Y-13225616D02*
X12547148Y-13235140D01*
X12547148Y-13235140D02*
X12528100Y-13244664D01*
X12528100Y-13244664D02*
X12480481Y-13244664D01*
X12480481Y-13244664D02*
X12461433Y-13235140D01*
X12461433Y-13235140D02*
X12451909Y-13225616D01*
X12804290Y-13244664D02*
X12804290Y-13044664D01*
X12890005Y-13244664D02*
X12890005Y-13139902D01*
X12890005Y-13139902D02*
X12880481Y-13120854D01*
X12880481Y-13120854D02*
X12861433Y-13111330D01*
X12861433Y-13111330D02*
X12832862Y-13111330D01*
X12832862Y-13111330D02*
X12813814Y-13120854D01*
X12813814Y-13120854D02*
X12804290Y-13130378D01*
X13013814Y-13244664D02*
X12994767Y-13235140D01*
X12994767Y-13235140D02*
X12985243Y-13225616D01*
X12985243Y-13225616D02*
X12975719Y-13206568D01*
X12975719Y-13206568D02*
X12975719Y-13149426D01*
X12975719Y-13149426D02*
X12985243Y-13130378D01*
X12985243Y-13130378D02*
X12994767Y-13120854D01*
X12994767Y-13120854D02*
X13013814Y-13111330D01*
X13013814Y-13111330D02*
X13042386Y-13111330D01*
X13042386Y-13111330D02*
X13061433Y-13120854D01*
X13061433Y-13120854D02*
X13070957Y-13130378D01*
X13070957Y-13130378D02*
X13080481Y-13149426D01*
X13080481Y-13149426D02*
X13080481Y-13206568D01*
X13080481Y-13206568D02*
X13070957Y-13225616D01*
X13070957Y-13225616D02*
X13061433Y-13235140D01*
X13061433Y-13235140D02*
X13042386Y-13244664D01*
X13042386Y-13244664D02*
X13013814Y-13244664D01*
X13194767Y-13244664D02*
X13175719Y-13235140D01*
X13175719Y-13235140D02*
X13166195Y-13216092D01*
X13166195Y-13216092D02*
X13166195Y-13044664D01*
X13347148Y-13235140D02*
X13328100Y-13244664D01*
X13328100Y-13244664D02*
X13290005Y-13244664D01*
X13290005Y-13244664D02*
X13270957Y-13235140D01*
X13270957Y-13235140D02*
X13261433Y-13216092D01*
X13261433Y-13216092D02*
X13261433Y-13139902D01*
X13261433Y-13139902D02*
X13270957Y-13120854D01*
X13270957Y-13120854D02*
X13290005Y-13111330D01*
X13290005Y-13111330D02*
X13328100Y-13111330D01*
X13328100Y-13111330D02*
X13347148Y-13120854D01*
X13347148Y-13120854D02*
X13356671Y-13139902D01*
X13356671Y-13139902D02*
X13356671Y-13158949D01*
X13356671Y-13158949D02*
X13261433Y-13177997D01*
X13432862Y-13235140D02*
X13451910Y-13244664D01*
X13451910Y-13244664D02*
X13490005Y-13244664D01*
X13490005Y-13244664D02*
X13509052Y-13235140D01*
X13509052Y-13235140D02*
X13518576Y-13216092D01*
X13518576Y-13216092D02*
X13518576Y-13206568D01*
X13518576Y-13206568D02*
X13509052Y-13187521D01*
X13509052Y-13187521D02*
X13490005Y-13177997D01*
X13490005Y-13177997D02*
X13461433Y-13177997D01*
X13461433Y-13177997D02*
X13442386Y-13168473D01*
X13442386Y-13168473D02*
X13432862Y-13149426D01*
X13432862Y-13149426D02*
X13432862Y-13139902D01*
X13432862Y-13139902D02*
X13442386Y-13120854D01*
X13442386Y-13120854D02*
X13461433Y-13111330D01*
X13461433Y-13111330D02*
X13490005Y-13111330D01*
X13490005Y-13111330D02*
X13509052Y-13120854D01*
X13585243Y-13320854D02*
X13594767Y-13311330D01*
X13594767Y-13311330D02*
X13613814Y-13282759D01*
X13613814Y-13282759D02*
X13623338Y-13263711D01*
X13623338Y-13263711D02*
X13632862Y-13235140D01*
X13632862Y-13235140D02*
X13642386Y-13187521D01*
X13642386Y-13187521D02*
X13642386Y-13149426D01*
X13642386Y-13149426D02*
X13632862Y-13101807D01*
X13632862Y-13101807D02*
X13623338Y-13073235D01*
X13623338Y-13073235D02*
X13613814Y-13054188D01*
X13613814Y-13054188D02*
X13594767Y-13025616D01*
X13594767Y-13025616D02*
X13585243Y-13016092D01*
D12*
X8810180Y-13417180D02*
G75*
G03*
X8810180Y-13417180I-38100J0D01*
G01*
D10*
X9109052Y-13308664D02*
X9128100Y-13308664D01*
X9128100Y-13308664D02*
X9147147Y-13318188D01*
X9147147Y-13318188D02*
X9156671Y-13327711D01*
X9156671Y-13327711D02*
X9166195Y-13346759D01*
X9166195Y-13346759D02*
X9175719Y-13384854D01*
X9175719Y-13384854D02*
X9175719Y-13432473D01*
X9175719Y-13432473D02*
X9166195Y-13470568D01*
X9166195Y-13470568D02*
X9156671Y-13489616D01*
X9156671Y-13489616D02*
X9147147Y-13499140D01*
X9147147Y-13499140D02*
X9128100Y-13508664D01*
X9128100Y-13508664D02*
X9109052Y-13508664D01*
X9109052Y-13508664D02*
X9090004Y-13499140D01*
X9090004Y-13499140D02*
X9080481Y-13489616D01*
X9080481Y-13489616D02*
X9070957Y-13470568D01*
X9070957Y-13470568D02*
X9061433Y-13432473D01*
X9061433Y-13432473D02*
X9061433Y-13384854D01*
X9061433Y-13384854D02*
X9070957Y-13346759D01*
X9070957Y-13346759D02*
X9080481Y-13327711D01*
X9080481Y-13327711D02*
X9090004Y-13318188D01*
X9090004Y-13318188D02*
X9109052Y-13308664D01*
X9261433Y-13489616D02*
X9270957Y-13499140D01*
X9270957Y-13499140D02*
X9261433Y-13508664D01*
X9261433Y-13508664D02*
X9251909Y-13499140D01*
X9251909Y-13499140D02*
X9261433Y-13489616D01*
X9261433Y-13489616D02*
X9261433Y-13508664D01*
X9337624Y-13308664D02*
X9470957Y-13308664D01*
X9470957Y-13308664D02*
X9385243Y-13508664D01*
X9632862Y-13308664D02*
X9594766Y-13308664D01*
X9594766Y-13308664D02*
X9575719Y-13318188D01*
X9575719Y-13318188D02*
X9566195Y-13327711D01*
X9566195Y-13327711D02*
X9547147Y-13356283D01*
X9547147Y-13356283D02*
X9537624Y-13394378D01*
X9537624Y-13394378D02*
X9537624Y-13470568D01*
X9537624Y-13470568D02*
X9547147Y-13489616D01*
X9547147Y-13489616D02*
X9556671Y-13499140D01*
X9556671Y-13499140D02*
X9575719Y-13508664D01*
X9575719Y-13508664D02*
X9613814Y-13508664D01*
X9613814Y-13508664D02*
X9632862Y-13499140D01*
X9632862Y-13499140D02*
X9642385Y-13489616D01*
X9642385Y-13489616D02*
X9651909Y-13470568D01*
X9651909Y-13470568D02*
X9651909Y-13422949D01*
X9651909Y-13422949D02*
X9642385Y-13403902D01*
X9642385Y-13403902D02*
X9632862Y-13394378D01*
X9632862Y-13394378D02*
X9613814Y-13384854D01*
X9613814Y-13384854D02*
X9575719Y-13384854D01*
X9575719Y-13384854D02*
X9556671Y-13394378D01*
X9556671Y-13394378D02*
X9547147Y-13403902D01*
X9547147Y-13403902D02*
X9537624Y-13422949D01*
X9728100Y-13327711D02*
X9737624Y-13318188D01*
X9737624Y-13318188D02*
X9756671Y-13308664D01*
X9756671Y-13308664D02*
X9804290Y-13308664D01*
X9804290Y-13308664D02*
X9823338Y-13318188D01*
X9823338Y-13318188D02*
X9832862Y-13327711D01*
X9832862Y-13327711D02*
X9842385Y-13346759D01*
X9842385Y-13346759D02*
X9842385Y-13365807D01*
X9842385Y-13365807D02*
X9832862Y-13394378D01*
X9832862Y-13394378D02*
X9718576Y-13508664D01*
X9718576Y-13508664D02*
X9842385Y-13508664D01*
X9928100Y-13508664D02*
X9928100Y-13375330D01*
X9928100Y-13394378D02*
X9937624Y-13384854D01*
X9937624Y-13384854D02*
X9956671Y-13375330D01*
X9956671Y-13375330D02*
X9985243Y-13375330D01*
X9985243Y-13375330D02*
X10004290Y-13384854D01*
X10004290Y-13384854D02*
X10013814Y-13403902D01*
X10013814Y-13403902D02*
X10013814Y-13508664D01*
X10013814Y-13403902D02*
X10023338Y-13384854D01*
X10023338Y-13384854D02*
X10042385Y-13375330D01*
X10042385Y-13375330D02*
X10070957Y-13375330D01*
X10070957Y-13375330D02*
X10090005Y-13384854D01*
X10090005Y-13384854D02*
X10099528Y-13403902D01*
X10099528Y-13403902D02*
X10099528Y-13508664D01*
X10194766Y-13508664D02*
X10194766Y-13375330D01*
X10194766Y-13394378D02*
X10204290Y-13384854D01*
X10204290Y-13384854D02*
X10223338Y-13375330D01*
X10223338Y-13375330D02*
X10251909Y-13375330D01*
X10251909Y-13375330D02*
X10270957Y-13384854D01*
X10270957Y-13384854D02*
X10280481Y-13403902D01*
X10280481Y-13403902D02*
X10280481Y-13508664D01*
X10280481Y-13403902D02*
X10290005Y-13384854D01*
X10290005Y-13384854D02*
X10309052Y-13375330D01*
X10309052Y-13375330D02*
X10337624Y-13375330D01*
X10337624Y-13375330D02*
X10356671Y-13384854D01*
X10356671Y-13384854D02*
X10366195Y-13403902D01*
X10366195Y-13403902D02*
X10366195Y-13508664D01*
X10756671Y-13299140D02*
X10585243Y-13556283D01*
X11013814Y-13308664D02*
X11032862Y-13308664D01*
X11032862Y-13308664D02*
X11051909Y-13318188D01*
X11051909Y-13318188D02*
X11061433Y-13327711D01*
X11061433Y-13327711D02*
X11070957Y-13346759D01*
X11070957Y-13346759D02*
X11080481Y-13384854D01*
X11080481Y-13384854D02*
X11080481Y-13432473D01*
X11080481Y-13432473D02*
X11070957Y-13470568D01*
X11070957Y-13470568D02*
X11061433Y-13489616D01*
X11061433Y-13489616D02*
X11051909Y-13499140D01*
X11051909Y-13499140D02*
X11032862Y-13508664D01*
X11032862Y-13508664D02*
X11013814Y-13508664D01*
X11013814Y-13508664D02*
X10994767Y-13499140D01*
X10994767Y-13499140D02*
X10985243Y-13489616D01*
X10985243Y-13489616D02*
X10975719Y-13470568D01*
X10975719Y-13470568D02*
X10966195Y-13432473D01*
X10966195Y-13432473D02*
X10966195Y-13384854D01*
X10966195Y-13384854D02*
X10975719Y-13346759D01*
X10975719Y-13346759D02*
X10985243Y-13327711D01*
X10985243Y-13327711D02*
X10994767Y-13318188D01*
X10994767Y-13318188D02*
X11013814Y-13308664D01*
X11166195Y-13489616D02*
X11175719Y-13499140D01*
X11175719Y-13499140D02*
X11166195Y-13508664D01*
X11166195Y-13508664D02*
X11156671Y-13499140D01*
X11156671Y-13499140D02*
X11166195Y-13489616D01*
X11166195Y-13489616D02*
X11166195Y-13508664D01*
X11299528Y-13308664D02*
X11318576Y-13308664D01*
X11318576Y-13308664D02*
X11337624Y-13318188D01*
X11337624Y-13318188D02*
X11347147Y-13327711D01*
X11347147Y-13327711D02*
X11356671Y-13346759D01*
X11356671Y-13346759D02*
X11366195Y-13384854D01*
X11366195Y-13384854D02*
X11366195Y-13432473D01*
X11366195Y-13432473D02*
X11356671Y-13470568D01*
X11356671Y-13470568D02*
X11347147Y-13489616D01*
X11347147Y-13489616D02*
X11337624Y-13499140D01*
X11337624Y-13499140D02*
X11318576Y-13508664D01*
X11318576Y-13508664D02*
X11299528Y-13508664D01*
X11299528Y-13508664D02*
X11280481Y-13499140D01*
X11280481Y-13499140D02*
X11270957Y-13489616D01*
X11270957Y-13489616D02*
X11261433Y-13470568D01*
X11261433Y-13470568D02*
X11251909Y-13432473D01*
X11251909Y-13432473D02*
X11251909Y-13384854D01*
X11251909Y-13384854D02*
X11261433Y-13346759D01*
X11261433Y-13346759D02*
X11270957Y-13327711D01*
X11270957Y-13327711D02*
X11280481Y-13318188D01*
X11280481Y-13318188D02*
X11299528Y-13308664D01*
X11432862Y-13308664D02*
X11556671Y-13308664D01*
X11556671Y-13308664D02*
X11490005Y-13384854D01*
X11490005Y-13384854D02*
X11518576Y-13384854D01*
X11518576Y-13384854D02*
X11537624Y-13394378D01*
X11537624Y-13394378D02*
X11547147Y-13403902D01*
X11547147Y-13403902D02*
X11556671Y-13422949D01*
X11556671Y-13422949D02*
X11556671Y-13470568D01*
X11556671Y-13470568D02*
X11547147Y-13489616D01*
X11547147Y-13489616D02*
X11537624Y-13499140D01*
X11537624Y-13499140D02*
X11518576Y-13508664D01*
X11518576Y-13508664D02*
X11461433Y-13508664D01*
X11461433Y-13508664D02*
X11442386Y-13499140D01*
X11442386Y-13499140D02*
X11432862Y-13489616D01*
X11680481Y-13308664D02*
X11699528Y-13308664D01*
X11699528Y-13308664D02*
X11718576Y-13318188D01*
X11718576Y-13318188D02*
X11728100Y-13327711D01*
X11728100Y-13327711D02*
X11737624Y-13346759D01*
X11737624Y-13346759D02*
X11747147Y-13384854D01*
X11747147Y-13384854D02*
X11747147Y-13432473D01*
X11747147Y-13432473D02*
X11737624Y-13470568D01*
X11737624Y-13470568D02*
X11728100Y-13489616D01*
X11728100Y-13489616D02*
X11718576Y-13499140D01*
X11718576Y-13499140D02*
X11699528Y-13508664D01*
X11699528Y-13508664D02*
X11680481Y-13508664D01*
X11680481Y-13508664D02*
X11661433Y-13499140D01*
X11661433Y-13499140D02*
X11651909Y-13489616D01*
X11651909Y-13489616D02*
X11642386Y-13470568D01*
X11642386Y-13470568D02*
X11632862Y-13432473D01*
X11632862Y-13432473D02*
X11632862Y-13384854D01*
X11632862Y-13384854D02*
X11642386Y-13346759D01*
X11642386Y-13346759D02*
X11651909Y-13327711D01*
X11651909Y-13327711D02*
X11661433Y-13318188D01*
X11661433Y-13318188D02*
X11680481Y-13308664D01*
X11870957Y-13308664D02*
X11890005Y-13308664D01*
X11890005Y-13308664D02*
X11909052Y-13318188D01*
X11909052Y-13318188D02*
X11918576Y-13327711D01*
X11918576Y-13327711D02*
X11928100Y-13346759D01*
X11928100Y-13346759D02*
X11937624Y-13384854D01*
X11937624Y-13384854D02*
X11937624Y-13432473D01*
X11937624Y-13432473D02*
X11928100Y-13470568D01*
X11928100Y-13470568D02*
X11918576Y-13489616D01*
X11918576Y-13489616D02*
X11909052Y-13499140D01*
X11909052Y-13499140D02*
X11890005Y-13508664D01*
X11890005Y-13508664D02*
X11870957Y-13508664D01*
X11870957Y-13508664D02*
X11851909Y-13499140D01*
X11851909Y-13499140D02*
X11842386Y-13489616D01*
X11842386Y-13489616D02*
X11832862Y-13470568D01*
X11832862Y-13470568D02*
X11823338Y-13432473D01*
X11823338Y-13432473D02*
X11823338Y-13384854D01*
X11823338Y-13384854D02*
X11832862Y-13346759D01*
X11832862Y-13346759D02*
X11842386Y-13327711D01*
X11842386Y-13327711D02*
X11851909Y-13318188D01*
X11851909Y-13318188D02*
X11870957Y-13308664D01*
X12013814Y-13308664D02*
X12013814Y-13346759D01*
X12090005Y-13308664D02*
X12090005Y-13346759D01*
X12385243Y-13584854D02*
X12375719Y-13575330D01*
X12375719Y-13575330D02*
X12356671Y-13546759D01*
X12356671Y-13546759D02*
X12347148Y-13527711D01*
X12347148Y-13527711D02*
X12337624Y-13499140D01*
X12337624Y-13499140D02*
X12328100Y-13451521D01*
X12328100Y-13451521D02*
X12328100Y-13413426D01*
X12328100Y-13413426D02*
X12337624Y-13365807D01*
X12337624Y-13365807D02*
X12347148Y-13337235D01*
X12347148Y-13337235D02*
X12356671Y-13318188D01*
X12356671Y-13318188D02*
X12375719Y-13289616D01*
X12375719Y-13289616D02*
X12385243Y-13280092D01*
X12566195Y-13508664D02*
X12451909Y-13508664D01*
X12509052Y-13508664D02*
X12509052Y-13308664D01*
X12509052Y-13308664D02*
X12490005Y-13337235D01*
X12490005Y-13337235D02*
X12470957Y-13356283D01*
X12470957Y-13356283D02*
X12451909Y-13365807D01*
X12737624Y-13308664D02*
X12699528Y-13308664D01*
X12699528Y-13308664D02*
X12680481Y-13318188D01*
X12680481Y-13318188D02*
X12670957Y-13327711D01*
X12670957Y-13327711D02*
X12651909Y-13356283D01*
X12651909Y-13356283D02*
X12642386Y-13394378D01*
X12642386Y-13394378D02*
X12642386Y-13470568D01*
X12642386Y-13470568D02*
X12651909Y-13489616D01*
X12651909Y-13489616D02*
X12661433Y-13499140D01*
X12661433Y-13499140D02*
X12680481Y-13508664D01*
X12680481Y-13508664D02*
X12718576Y-13508664D01*
X12718576Y-13508664D02*
X12737624Y-13499140D01*
X12737624Y-13499140D02*
X12747148Y-13489616D01*
X12747148Y-13489616D02*
X12756671Y-13470568D01*
X12756671Y-13470568D02*
X12756671Y-13422949D01*
X12756671Y-13422949D02*
X12747148Y-13403902D01*
X12747148Y-13403902D02*
X12737624Y-13394378D01*
X12737624Y-13394378D02*
X12718576Y-13384854D01*
X12718576Y-13384854D02*
X12680481Y-13384854D01*
X12680481Y-13384854D02*
X12661433Y-13394378D01*
X12661433Y-13394378D02*
X12651909Y-13403902D01*
X12651909Y-13403902D02*
X12642386Y-13422949D01*
X12994767Y-13508664D02*
X12994767Y-13308664D01*
X13080481Y-13508664D02*
X13080481Y-13403902D01*
X13080481Y-13403902D02*
X13070957Y-13384854D01*
X13070957Y-13384854D02*
X13051910Y-13375330D01*
X13051910Y-13375330D02*
X13023338Y-13375330D01*
X13023338Y-13375330D02*
X13004290Y-13384854D01*
X13004290Y-13384854D02*
X12994767Y-13394378D01*
X13204290Y-13508664D02*
X13185243Y-13499140D01*
X13185243Y-13499140D02*
X13175719Y-13489616D01*
X13175719Y-13489616D02*
X13166195Y-13470568D01*
X13166195Y-13470568D02*
X13166195Y-13413426D01*
X13166195Y-13413426D02*
X13175719Y-13394378D01*
X13175719Y-13394378D02*
X13185243Y-13384854D01*
X13185243Y-13384854D02*
X13204290Y-13375330D01*
X13204290Y-13375330D02*
X13232862Y-13375330D01*
X13232862Y-13375330D02*
X13251910Y-13384854D01*
X13251910Y-13384854D02*
X13261433Y-13394378D01*
X13261433Y-13394378D02*
X13270957Y-13413426D01*
X13270957Y-13413426D02*
X13270957Y-13470568D01*
X13270957Y-13470568D02*
X13261433Y-13489616D01*
X13261433Y-13489616D02*
X13251910Y-13499140D01*
X13251910Y-13499140D02*
X13232862Y-13508664D01*
X13232862Y-13508664D02*
X13204290Y-13508664D01*
X13385243Y-13508664D02*
X13366195Y-13499140D01*
X13366195Y-13499140D02*
X13356671Y-13480092D01*
X13356671Y-13480092D02*
X13356671Y-13308664D01*
X13537624Y-13499140D02*
X13518576Y-13508664D01*
X13518576Y-13508664D02*
X13480481Y-13508664D01*
X13480481Y-13508664D02*
X13461433Y-13499140D01*
X13461433Y-13499140D02*
X13451910Y-13480092D01*
X13451910Y-13480092D02*
X13451910Y-13403902D01*
X13451910Y-13403902D02*
X13461433Y-13384854D01*
X13461433Y-13384854D02*
X13480481Y-13375330D01*
X13480481Y-13375330D02*
X13518576Y-13375330D01*
X13518576Y-13375330D02*
X13537624Y-13384854D01*
X13537624Y-13384854D02*
X13547148Y-13403902D01*
X13547148Y-13403902D02*
X13547148Y-13422949D01*
X13547148Y-13422949D02*
X13451910Y-13441997D01*
X13623338Y-13499140D02*
X13642386Y-13508664D01*
X13642386Y-13508664D02*
X13680481Y-13508664D01*
X13680481Y-13508664D02*
X13699529Y-13499140D01*
X13699529Y-13499140D02*
X13709052Y-13480092D01*
X13709052Y-13480092D02*
X13709052Y-13470568D01*
X13709052Y-13470568D02*
X13699529Y-13451521D01*
X13699529Y-13451521D02*
X13680481Y-13441997D01*
X13680481Y-13441997D02*
X13651910Y-13441997D01*
X13651910Y-13441997D02*
X13632862Y-13432473D01*
X13632862Y-13432473D02*
X13623338Y-13413426D01*
X13623338Y-13413426D02*
X13623338Y-13403902D01*
X13623338Y-13403902D02*
X13632862Y-13384854D01*
X13632862Y-13384854D02*
X13651910Y-13375330D01*
X13651910Y-13375330D02*
X13680481Y-13375330D01*
X13680481Y-13375330D02*
X13699529Y-13384854D01*
X13775719Y-13584854D02*
X13785243Y-13575330D01*
X13785243Y-13575330D02*
X13804291Y-13546759D01*
X13804291Y-13546759D02*
X13813814Y-13527711D01*
X13813814Y-13527711D02*
X13823338Y-13499140D01*
X13823338Y-13499140D02*
X13832862Y-13451521D01*
X13832862Y-13451521D02*
X13832862Y-13413426D01*
X13832862Y-13413426D02*
X13823338Y-13365807D01*
X13823338Y-13365807D02*
X13813814Y-13337235D01*
X13813814Y-13337235D02*
X13804291Y-13318188D01*
X13804291Y-13318188D02*
X13785243Y-13289616D01*
X13785243Y-13289616D02*
X13775719Y-13280092D01*
D13*
X8760180Y-13631180D02*
X8760180Y-13731180D01*
X8710180Y-13681180D02*
X8810180Y-13681180D01*
D10*
X9175719Y-13772664D02*
X9061433Y-13772664D01*
X9118576Y-13772664D02*
X9118576Y-13572664D01*
X9118576Y-13572664D02*
X9099528Y-13601235D01*
X9099528Y-13601235D02*
X9080481Y-13620283D01*
X9080481Y-13620283D02*
X9061433Y-13629807D01*
X9261433Y-13753616D02*
X9270957Y-13763140D01*
X9270957Y-13763140D02*
X9261433Y-13772664D01*
X9261433Y-13772664D02*
X9251909Y-13763140D01*
X9251909Y-13763140D02*
X9261433Y-13753616D01*
X9261433Y-13753616D02*
X9261433Y-13772664D01*
X9394766Y-13572664D02*
X9413814Y-13572664D01*
X9413814Y-13572664D02*
X9432862Y-13582188D01*
X9432862Y-13582188D02*
X9442385Y-13591711D01*
X9442385Y-13591711D02*
X9451909Y-13610759D01*
X9451909Y-13610759D02*
X9461433Y-13648854D01*
X9461433Y-13648854D02*
X9461433Y-13696473D01*
X9461433Y-13696473D02*
X9451909Y-13734568D01*
X9451909Y-13734568D02*
X9442385Y-13753616D01*
X9442385Y-13753616D02*
X9432862Y-13763140D01*
X9432862Y-13763140D02*
X9413814Y-13772664D01*
X9413814Y-13772664D02*
X9394766Y-13772664D01*
X9394766Y-13772664D02*
X9375719Y-13763140D01*
X9375719Y-13763140D02*
X9366195Y-13753616D01*
X9366195Y-13753616D02*
X9356671Y-13734568D01*
X9356671Y-13734568D02*
X9347147Y-13696473D01*
X9347147Y-13696473D02*
X9347147Y-13648854D01*
X9347147Y-13648854D02*
X9356671Y-13610759D01*
X9356671Y-13610759D02*
X9366195Y-13591711D01*
X9366195Y-13591711D02*
X9375719Y-13582188D01*
X9375719Y-13582188D02*
X9394766Y-13572664D01*
X9585243Y-13572664D02*
X9604290Y-13572664D01*
X9604290Y-13572664D02*
X9623338Y-13582188D01*
X9623338Y-13582188D02*
X9632862Y-13591711D01*
X9632862Y-13591711D02*
X9642385Y-13610759D01*
X9642385Y-13610759D02*
X9651909Y-13648854D01*
X9651909Y-13648854D02*
X9651909Y-13696473D01*
X9651909Y-13696473D02*
X9642385Y-13734568D01*
X9642385Y-13734568D02*
X9632862Y-13753616D01*
X9632862Y-13753616D02*
X9623338Y-13763140D01*
X9623338Y-13763140D02*
X9604290Y-13772664D01*
X9604290Y-13772664D02*
X9585243Y-13772664D01*
X9585243Y-13772664D02*
X9566195Y-13763140D01*
X9566195Y-13763140D02*
X9556671Y-13753616D01*
X9556671Y-13753616D02*
X9547147Y-13734568D01*
X9547147Y-13734568D02*
X9537624Y-13696473D01*
X9537624Y-13696473D02*
X9537624Y-13648854D01*
X9537624Y-13648854D02*
X9547147Y-13610759D01*
X9547147Y-13610759D02*
X9556671Y-13591711D01*
X9556671Y-13591711D02*
X9566195Y-13582188D01*
X9566195Y-13582188D02*
X9585243Y-13572664D01*
X9775719Y-13572664D02*
X9794766Y-13572664D01*
X9794766Y-13572664D02*
X9813814Y-13582188D01*
X9813814Y-13582188D02*
X9823338Y-13591711D01*
X9823338Y-13591711D02*
X9832862Y-13610759D01*
X9832862Y-13610759D02*
X9842385Y-13648854D01*
X9842385Y-13648854D02*
X9842385Y-13696473D01*
X9842385Y-13696473D02*
X9832862Y-13734568D01*
X9832862Y-13734568D02*
X9823338Y-13753616D01*
X9823338Y-13753616D02*
X9813814Y-13763140D01*
X9813814Y-13763140D02*
X9794766Y-13772664D01*
X9794766Y-13772664D02*
X9775719Y-13772664D01*
X9775719Y-13772664D02*
X9756671Y-13763140D01*
X9756671Y-13763140D02*
X9747147Y-13753616D01*
X9747147Y-13753616D02*
X9737624Y-13734568D01*
X9737624Y-13734568D02*
X9728100Y-13696473D01*
X9728100Y-13696473D02*
X9728100Y-13648854D01*
X9728100Y-13648854D02*
X9737624Y-13610759D01*
X9737624Y-13610759D02*
X9747147Y-13591711D01*
X9747147Y-13591711D02*
X9756671Y-13582188D01*
X9756671Y-13582188D02*
X9775719Y-13572664D01*
X9928100Y-13772664D02*
X9928100Y-13639330D01*
X9928100Y-13658378D02*
X9937624Y-13648854D01*
X9937624Y-13648854D02*
X9956671Y-13639330D01*
X9956671Y-13639330D02*
X9985243Y-13639330D01*
X9985243Y-13639330D02*
X10004290Y-13648854D01*
X10004290Y-13648854D02*
X10013814Y-13667902D01*
X10013814Y-13667902D02*
X10013814Y-13772664D01*
X10013814Y-13667902D02*
X10023338Y-13648854D01*
X10023338Y-13648854D02*
X10042385Y-13639330D01*
X10042385Y-13639330D02*
X10070957Y-13639330D01*
X10070957Y-13639330D02*
X10090005Y-13648854D01*
X10090005Y-13648854D02*
X10099528Y-13667902D01*
X10099528Y-13667902D02*
X10099528Y-13772664D01*
X10194766Y-13772664D02*
X10194766Y-13639330D01*
X10194766Y-13658378D02*
X10204290Y-13648854D01*
X10204290Y-13648854D02*
X10223338Y-13639330D01*
X10223338Y-13639330D02*
X10251909Y-13639330D01*
X10251909Y-13639330D02*
X10270957Y-13648854D01*
X10270957Y-13648854D02*
X10280481Y-13667902D01*
X10280481Y-13667902D02*
X10280481Y-13772664D01*
X10280481Y-13667902D02*
X10290005Y-13648854D01*
X10290005Y-13648854D02*
X10309052Y-13639330D01*
X10309052Y-13639330D02*
X10337624Y-13639330D01*
X10337624Y-13639330D02*
X10356671Y-13648854D01*
X10356671Y-13648854D02*
X10366195Y-13667902D01*
X10366195Y-13667902D02*
X10366195Y-13772664D01*
X10756671Y-13563140D02*
X10585243Y-13820283D01*
X11013814Y-13572664D02*
X11032862Y-13572664D01*
X11032862Y-13572664D02*
X11051909Y-13582188D01*
X11051909Y-13582188D02*
X11061433Y-13591711D01*
X11061433Y-13591711D02*
X11070957Y-13610759D01*
X11070957Y-13610759D02*
X11080481Y-13648854D01*
X11080481Y-13648854D02*
X11080481Y-13696473D01*
X11080481Y-13696473D02*
X11070957Y-13734568D01*
X11070957Y-13734568D02*
X11061433Y-13753616D01*
X11061433Y-13753616D02*
X11051909Y-13763140D01*
X11051909Y-13763140D02*
X11032862Y-13772664D01*
X11032862Y-13772664D02*
X11013814Y-13772664D01*
X11013814Y-13772664D02*
X10994767Y-13763140D01*
X10994767Y-13763140D02*
X10985243Y-13753616D01*
X10985243Y-13753616D02*
X10975719Y-13734568D01*
X10975719Y-13734568D02*
X10966195Y-13696473D01*
X10966195Y-13696473D02*
X10966195Y-13648854D01*
X10966195Y-13648854D02*
X10975719Y-13610759D01*
X10975719Y-13610759D02*
X10985243Y-13591711D01*
X10985243Y-13591711D02*
X10994767Y-13582188D01*
X10994767Y-13582188D02*
X11013814Y-13572664D01*
X11166195Y-13753616D02*
X11175719Y-13763140D01*
X11175719Y-13763140D02*
X11166195Y-13772664D01*
X11166195Y-13772664D02*
X11156671Y-13763140D01*
X11156671Y-13763140D02*
X11166195Y-13753616D01*
X11166195Y-13753616D02*
X11166195Y-13772664D01*
X11299528Y-13572664D02*
X11318576Y-13572664D01*
X11318576Y-13572664D02*
X11337624Y-13582188D01*
X11337624Y-13582188D02*
X11347147Y-13591711D01*
X11347147Y-13591711D02*
X11356671Y-13610759D01*
X11356671Y-13610759D02*
X11366195Y-13648854D01*
X11366195Y-13648854D02*
X11366195Y-13696473D01*
X11366195Y-13696473D02*
X11356671Y-13734568D01*
X11356671Y-13734568D02*
X11347147Y-13753616D01*
X11347147Y-13753616D02*
X11337624Y-13763140D01*
X11337624Y-13763140D02*
X11318576Y-13772664D01*
X11318576Y-13772664D02*
X11299528Y-13772664D01*
X11299528Y-13772664D02*
X11280481Y-13763140D01*
X11280481Y-13763140D02*
X11270957Y-13753616D01*
X11270957Y-13753616D02*
X11261433Y-13734568D01*
X11261433Y-13734568D02*
X11251909Y-13696473D01*
X11251909Y-13696473D02*
X11251909Y-13648854D01*
X11251909Y-13648854D02*
X11261433Y-13610759D01*
X11261433Y-13610759D02*
X11270957Y-13591711D01*
X11270957Y-13591711D02*
X11280481Y-13582188D01*
X11280481Y-13582188D02*
X11299528Y-13572664D01*
X11432862Y-13572664D02*
X11556671Y-13572664D01*
X11556671Y-13572664D02*
X11490005Y-13648854D01*
X11490005Y-13648854D02*
X11518576Y-13648854D01*
X11518576Y-13648854D02*
X11537624Y-13658378D01*
X11537624Y-13658378D02*
X11547147Y-13667902D01*
X11547147Y-13667902D02*
X11556671Y-13686949D01*
X11556671Y-13686949D02*
X11556671Y-13734568D01*
X11556671Y-13734568D02*
X11547147Y-13753616D01*
X11547147Y-13753616D02*
X11537624Y-13763140D01*
X11537624Y-13763140D02*
X11518576Y-13772664D01*
X11518576Y-13772664D02*
X11461433Y-13772664D01*
X11461433Y-13772664D02*
X11442386Y-13763140D01*
X11442386Y-13763140D02*
X11432862Y-13753616D01*
X11651909Y-13772664D02*
X11690005Y-13772664D01*
X11690005Y-13772664D02*
X11709052Y-13763140D01*
X11709052Y-13763140D02*
X11718576Y-13753616D01*
X11718576Y-13753616D02*
X11737624Y-13725045D01*
X11737624Y-13725045D02*
X11747147Y-13686949D01*
X11747147Y-13686949D02*
X11747147Y-13610759D01*
X11747147Y-13610759D02*
X11737624Y-13591711D01*
X11737624Y-13591711D02*
X11728100Y-13582188D01*
X11728100Y-13582188D02*
X11709052Y-13572664D01*
X11709052Y-13572664D02*
X11670957Y-13572664D01*
X11670957Y-13572664D02*
X11651909Y-13582188D01*
X11651909Y-13582188D02*
X11642386Y-13591711D01*
X11642386Y-13591711D02*
X11632862Y-13610759D01*
X11632862Y-13610759D02*
X11632862Y-13658378D01*
X11632862Y-13658378D02*
X11642386Y-13677426D01*
X11642386Y-13677426D02*
X11651909Y-13686949D01*
X11651909Y-13686949D02*
X11670957Y-13696473D01*
X11670957Y-13696473D02*
X11709052Y-13696473D01*
X11709052Y-13696473D02*
X11728100Y-13686949D01*
X11728100Y-13686949D02*
X11737624Y-13677426D01*
X11737624Y-13677426D02*
X11747147Y-13658378D01*
X11918576Y-13639330D02*
X11918576Y-13772664D01*
X11870957Y-13563140D02*
X11823338Y-13705997D01*
X11823338Y-13705997D02*
X11947147Y-13705997D01*
X12013814Y-13572664D02*
X12013814Y-13610759D01*
X12090005Y-13572664D02*
X12090005Y-13610759D01*
X12385243Y-13848854D02*
X12375719Y-13839330D01*
X12375719Y-13839330D02*
X12356671Y-13810759D01*
X12356671Y-13810759D02*
X12347148Y-13791711D01*
X12347148Y-13791711D02*
X12337624Y-13763140D01*
X12337624Y-13763140D02*
X12328100Y-13715521D01*
X12328100Y-13715521D02*
X12328100Y-13677426D01*
X12328100Y-13677426D02*
X12337624Y-13629807D01*
X12337624Y-13629807D02*
X12347148Y-13601235D01*
X12347148Y-13601235D02*
X12356671Y-13582188D01*
X12356671Y-13582188D02*
X12375719Y-13553616D01*
X12375719Y-13553616D02*
X12385243Y-13544092D01*
X12556671Y-13572664D02*
X12461433Y-13572664D01*
X12461433Y-13572664D02*
X12451909Y-13667902D01*
X12451909Y-13667902D02*
X12461433Y-13658378D01*
X12461433Y-13658378D02*
X12480481Y-13648854D01*
X12480481Y-13648854D02*
X12528100Y-13648854D01*
X12528100Y-13648854D02*
X12547148Y-13658378D01*
X12547148Y-13658378D02*
X12556671Y-13667902D01*
X12556671Y-13667902D02*
X12566195Y-13686949D01*
X12566195Y-13686949D02*
X12566195Y-13734568D01*
X12566195Y-13734568D02*
X12556671Y-13753616D01*
X12556671Y-13753616D02*
X12547148Y-13763140D01*
X12547148Y-13763140D02*
X12528100Y-13772664D01*
X12528100Y-13772664D02*
X12480481Y-13772664D01*
X12480481Y-13772664D02*
X12461433Y-13763140D01*
X12461433Y-13763140D02*
X12451909Y-13753616D01*
X12737624Y-13639330D02*
X12737624Y-13772664D01*
X12690005Y-13563140D02*
X12642386Y-13705997D01*
X12642386Y-13705997D02*
X12766195Y-13705997D01*
X12994767Y-13772664D02*
X12994767Y-13572664D01*
X13080481Y-13772664D02*
X13080481Y-13667902D01*
X13080481Y-13667902D02*
X13070957Y-13648854D01*
X13070957Y-13648854D02*
X13051910Y-13639330D01*
X13051910Y-13639330D02*
X13023338Y-13639330D01*
X13023338Y-13639330D02*
X13004290Y-13648854D01*
X13004290Y-13648854D02*
X12994767Y-13658378D01*
X13204290Y-13772664D02*
X13185243Y-13763140D01*
X13185243Y-13763140D02*
X13175719Y-13753616D01*
X13175719Y-13753616D02*
X13166195Y-13734568D01*
X13166195Y-13734568D02*
X13166195Y-13677426D01*
X13166195Y-13677426D02*
X13175719Y-13658378D01*
X13175719Y-13658378D02*
X13185243Y-13648854D01*
X13185243Y-13648854D02*
X13204290Y-13639330D01*
X13204290Y-13639330D02*
X13232862Y-13639330D01*
X13232862Y-13639330D02*
X13251910Y-13648854D01*
X13251910Y-13648854D02*
X13261433Y-13658378D01*
X13261433Y-13658378D02*
X13270957Y-13677426D01*
X13270957Y-13677426D02*
X13270957Y-13734568D01*
X13270957Y-13734568D02*
X13261433Y-13753616D01*
X13261433Y-13753616D02*
X13251910Y-13763140D01*
X13251910Y-13763140D02*
X13232862Y-13772664D01*
X13232862Y-13772664D02*
X13204290Y-13772664D01*
X13385243Y-13772664D02*
X13366195Y-13763140D01*
X13366195Y-13763140D02*
X13356671Y-13744092D01*
X13356671Y-13744092D02*
X13356671Y-13572664D01*
X13537624Y-13763140D02*
X13518576Y-13772664D01*
X13518576Y-13772664D02*
X13480481Y-13772664D01*
X13480481Y-13772664D02*
X13461433Y-13763140D01*
X13461433Y-13763140D02*
X13451910Y-13744092D01*
X13451910Y-13744092D02*
X13451910Y-13667902D01*
X13451910Y-13667902D02*
X13461433Y-13648854D01*
X13461433Y-13648854D02*
X13480481Y-13639330D01*
X13480481Y-13639330D02*
X13518576Y-13639330D01*
X13518576Y-13639330D02*
X13537624Y-13648854D01*
X13537624Y-13648854D02*
X13547148Y-13667902D01*
X13547148Y-13667902D02*
X13547148Y-13686949D01*
X13547148Y-13686949D02*
X13451910Y-13705997D01*
X13623338Y-13763140D02*
X13642386Y-13772664D01*
X13642386Y-13772664D02*
X13680481Y-13772664D01*
X13680481Y-13772664D02*
X13699529Y-13763140D01*
X13699529Y-13763140D02*
X13709052Y-13744092D01*
X13709052Y-13744092D02*
X13709052Y-13734568D01*
X13709052Y-13734568D02*
X13699529Y-13715521D01*
X13699529Y-13715521D02*
X13680481Y-13705997D01*
X13680481Y-13705997D02*
X13651910Y-13705997D01*
X13651910Y-13705997D02*
X13632862Y-13696473D01*
X13632862Y-13696473D02*
X13623338Y-13677426D01*
X13623338Y-13677426D02*
X13623338Y-13667902D01*
X13623338Y-13667902D02*
X13632862Y-13648854D01*
X13632862Y-13648854D02*
X13651910Y-13639330D01*
X13651910Y-13639330D02*
X13680481Y-13639330D01*
X13680481Y-13639330D02*
X13699529Y-13648854D01*
X13775719Y-13848854D02*
X13785243Y-13839330D01*
X13785243Y-13839330D02*
X13804291Y-13810759D01*
X13804291Y-13810759D02*
X13813814Y-13791711D01*
X13813814Y-13791711D02*
X13823338Y-13763140D01*
X13823338Y-13763140D02*
X13832862Y-13715521D01*
X13832862Y-13715521D02*
X13832862Y-13677426D01*
X13832862Y-13677426D02*
X13823338Y-13629807D01*
X13823338Y-13629807D02*
X13813814Y-13601235D01*
X13813814Y-13601235D02*
X13804291Y-13582188D01*
X13804291Y-13582188D02*
X13785243Y-13553616D01*
X13785243Y-13553616D02*
X13775719Y-13544092D01*
X8780891Y-14015891D02*
X8780891Y-13874469D01*
X8639469Y-13874469D01*
X8639469Y-14015891D01*
X8780891Y-14015891D01*
X9051909Y-13836664D02*
X9175719Y-13836664D01*
X9175719Y-13836664D02*
X9109052Y-13912854D01*
X9109052Y-13912854D02*
X9137624Y-13912854D01*
X9137624Y-13912854D02*
X9156671Y-13922378D01*
X9156671Y-13922378D02*
X9166195Y-13931902D01*
X9166195Y-13931902D02*
X9175719Y-13950949D01*
X9175719Y-13950949D02*
X9175719Y-13998568D01*
X9175719Y-13998568D02*
X9166195Y-14017616D01*
X9166195Y-14017616D02*
X9156671Y-14027140D01*
X9156671Y-14027140D02*
X9137624Y-14036664D01*
X9137624Y-14036664D02*
X9080481Y-14036664D01*
X9080481Y-14036664D02*
X9061433Y-14027140D01*
X9061433Y-14027140D02*
X9051909Y-14017616D01*
X9261433Y-14017616D02*
X9270957Y-14027140D01*
X9270957Y-14027140D02*
X9261433Y-14036664D01*
X9261433Y-14036664D02*
X9251909Y-14027140D01*
X9251909Y-14027140D02*
X9261433Y-14017616D01*
X9261433Y-14017616D02*
X9261433Y-14036664D01*
X9394766Y-13836664D02*
X9413814Y-13836664D01*
X9413814Y-13836664D02*
X9432862Y-13846188D01*
X9432862Y-13846188D02*
X9442385Y-13855711D01*
X9442385Y-13855711D02*
X9451909Y-13874759D01*
X9451909Y-13874759D02*
X9461433Y-13912854D01*
X9461433Y-13912854D02*
X9461433Y-13960473D01*
X9461433Y-13960473D02*
X9451909Y-13998568D01*
X9451909Y-13998568D02*
X9442385Y-14017616D01*
X9442385Y-14017616D02*
X9432862Y-14027140D01*
X9432862Y-14027140D02*
X9413814Y-14036664D01*
X9413814Y-14036664D02*
X9394766Y-14036664D01*
X9394766Y-14036664D02*
X9375719Y-14027140D01*
X9375719Y-14027140D02*
X9366195Y-14017616D01*
X9366195Y-14017616D02*
X9356671Y-13998568D01*
X9356671Y-13998568D02*
X9347147Y-13960473D01*
X9347147Y-13960473D02*
X9347147Y-13912854D01*
X9347147Y-13912854D02*
X9356671Y-13874759D01*
X9356671Y-13874759D02*
X9366195Y-13855711D01*
X9366195Y-13855711D02*
X9375719Y-13846188D01*
X9375719Y-13846188D02*
X9394766Y-13836664D01*
X9585243Y-13836664D02*
X9604290Y-13836664D01*
X9604290Y-13836664D02*
X9623338Y-13846188D01*
X9623338Y-13846188D02*
X9632862Y-13855711D01*
X9632862Y-13855711D02*
X9642385Y-13874759D01*
X9642385Y-13874759D02*
X9651909Y-13912854D01*
X9651909Y-13912854D02*
X9651909Y-13960473D01*
X9651909Y-13960473D02*
X9642385Y-13998568D01*
X9642385Y-13998568D02*
X9632862Y-14017616D01*
X9632862Y-14017616D02*
X9623338Y-14027140D01*
X9623338Y-14027140D02*
X9604290Y-14036664D01*
X9604290Y-14036664D02*
X9585243Y-14036664D01*
X9585243Y-14036664D02*
X9566195Y-14027140D01*
X9566195Y-14027140D02*
X9556671Y-14017616D01*
X9556671Y-14017616D02*
X9547147Y-13998568D01*
X9547147Y-13998568D02*
X9537624Y-13960473D01*
X9537624Y-13960473D02*
X9537624Y-13912854D01*
X9537624Y-13912854D02*
X9547147Y-13874759D01*
X9547147Y-13874759D02*
X9556671Y-13855711D01*
X9556671Y-13855711D02*
X9566195Y-13846188D01*
X9566195Y-13846188D02*
X9585243Y-13836664D01*
X9775719Y-13836664D02*
X9794766Y-13836664D01*
X9794766Y-13836664D02*
X9813814Y-13846188D01*
X9813814Y-13846188D02*
X9823338Y-13855711D01*
X9823338Y-13855711D02*
X9832862Y-13874759D01*
X9832862Y-13874759D02*
X9842385Y-13912854D01*
X9842385Y-13912854D02*
X9842385Y-13960473D01*
X9842385Y-13960473D02*
X9832862Y-13998568D01*
X9832862Y-13998568D02*
X9823338Y-14017616D01*
X9823338Y-14017616D02*
X9813814Y-14027140D01*
X9813814Y-14027140D02*
X9794766Y-14036664D01*
X9794766Y-14036664D02*
X9775719Y-14036664D01*
X9775719Y-14036664D02*
X9756671Y-14027140D01*
X9756671Y-14027140D02*
X9747147Y-14017616D01*
X9747147Y-14017616D02*
X9737624Y-13998568D01*
X9737624Y-13998568D02*
X9728100Y-13960473D01*
X9728100Y-13960473D02*
X9728100Y-13912854D01*
X9728100Y-13912854D02*
X9737624Y-13874759D01*
X9737624Y-13874759D02*
X9747147Y-13855711D01*
X9747147Y-13855711D02*
X9756671Y-13846188D01*
X9756671Y-13846188D02*
X9775719Y-13836664D01*
X9928100Y-14036664D02*
X9928100Y-13903330D01*
X9928100Y-13922378D02*
X9937624Y-13912854D01*
X9937624Y-13912854D02*
X9956671Y-13903330D01*
X9956671Y-13903330D02*
X9985243Y-13903330D01*
X9985243Y-13903330D02*
X10004290Y-13912854D01*
X10004290Y-13912854D02*
X10013814Y-13931902D01*
X10013814Y-13931902D02*
X10013814Y-14036664D01*
X10013814Y-13931902D02*
X10023338Y-13912854D01*
X10023338Y-13912854D02*
X10042385Y-13903330D01*
X10042385Y-13903330D02*
X10070957Y-13903330D01*
X10070957Y-13903330D02*
X10090005Y-13912854D01*
X10090005Y-13912854D02*
X10099528Y-13931902D01*
X10099528Y-13931902D02*
X10099528Y-14036664D01*
X10194766Y-14036664D02*
X10194766Y-13903330D01*
X10194766Y-13922378D02*
X10204290Y-13912854D01*
X10204290Y-13912854D02*
X10223338Y-13903330D01*
X10223338Y-13903330D02*
X10251909Y-13903330D01*
X10251909Y-13903330D02*
X10270957Y-13912854D01*
X10270957Y-13912854D02*
X10280481Y-13931902D01*
X10280481Y-13931902D02*
X10280481Y-14036664D01*
X10280481Y-13931902D02*
X10290005Y-13912854D01*
X10290005Y-13912854D02*
X10309052Y-13903330D01*
X10309052Y-13903330D02*
X10337624Y-13903330D01*
X10337624Y-13903330D02*
X10356671Y-13912854D01*
X10356671Y-13912854D02*
X10366195Y-13931902D01*
X10366195Y-13931902D02*
X10366195Y-14036664D01*
X10756671Y-13827140D02*
X10585243Y-14084283D01*
X11013814Y-13836664D02*
X11032862Y-13836664D01*
X11032862Y-13836664D02*
X11051909Y-13846188D01*
X11051909Y-13846188D02*
X11061433Y-13855711D01*
X11061433Y-13855711D02*
X11070957Y-13874759D01*
X11070957Y-13874759D02*
X11080481Y-13912854D01*
X11080481Y-13912854D02*
X11080481Y-13960473D01*
X11080481Y-13960473D02*
X11070957Y-13998568D01*
X11070957Y-13998568D02*
X11061433Y-14017616D01*
X11061433Y-14017616D02*
X11051909Y-14027140D01*
X11051909Y-14027140D02*
X11032862Y-14036664D01*
X11032862Y-14036664D02*
X11013814Y-14036664D01*
X11013814Y-14036664D02*
X10994767Y-14027140D01*
X10994767Y-14027140D02*
X10985243Y-14017616D01*
X10985243Y-14017616D02*
X10975719Y-13998568D01*
X10975719Y-13998568D02*
X10966195Y-13960473D01*
X10966195Y-13960473D02*
X10966195Y-13912854D01*
X10966195Y-13912854D02*
X10975719Y-13874759D01*
X10975719Y-13874759D02*
X10985243Y-13855711D01*
X10985243Y-13855711D02*
X10994767Y-13846188D01*
X10994767Y-13846188D02*
X11013814Y-13836664D01*
X11166195Y-14017616D02*
X11175719Y-14027140D01*
X11175719Y-14027140D02*
X11166195Y-14036664D01*
X11166195Y-14036664D02*
X11156671Y-14027140D01*
X11156671Y-14027140D02*
X11166195Y-14017616D01*
X11166195Y-14017616D02*
X11166195Y-14036664D01*
X11366195Y-14036664D02*
X11251909Y-14036664D01*
X11309052Y-14036664D02*
X11309052Y-13836664D01*
X11309052Y-13836664D02*
X11290005Y-13865235D01*
X11290005Y-13865235D02*
X11270957Y-13884283D01*
X11270957Y-13884283D02*
X11251909Y-13893807D01*
X11556671Y-14036664D02*
X11442386Y-14036664D01*
X11499528Y-14036664D02*
X11499528Y-13836664D01*
X11499528Y-13836664D02*
X11480481Y-13865235D01*
X11480481Y-13865235D02*
X11461433Y-13884283D01*
X11461433Y-13884283D02*
X11442386Y-13893807D01*
X11670957Y-13922378D02*
X11651909Y-13912854D01*
X11651909Y-13912854D02*
X11642386Y-13903330D01*
X11642386Y-13903330D02*
X11632862Y-13884283D01*
X11632862Y-13884283D02*
X11632862Y-13874759D01*
X11632862Y-13874759D02*
X11642386Y-13855711D01*
X11642386Y-13855711D02*
X11651909Y-13846188D01*
X11651909Y-13846188D02*
X11670957Y-13836664D01*
X11670957Y-13836664D02*
X11709052Y-13836664D01*
X11709052Y-13836664D02*
X11728100Y-13846188D01*
X11728100Y-13846188D02*
X11737624Y-13855711D01*
X11737624Y-13855711D02*
X11747147Y-13874759D01*
X11747147Y-13874759D02*
X11747147Y-13884283D01*
X11747147Y-13884283D02*
X11737624Y-13903330D01*
X11737624Y-13903330D02*
X11728100Y-13912854D01*
X11728100Y-13912854D02*
X11709052Y-13922378D01*
X11709052Y-13922378D02*
X11670957Y-13922378D01*
X11670957Y-13922378D02*
X11651909Y-13931902D01*
X11651909Y-13931902D02*
X11642386Y-13941426D01*
X11642386Y-13941426D02*
X11632862Y-13960473D01*
X11632862Y-13960473D02*
X11632862Y-13998568D01*
X11632862Y-13998568D02*
X11642386Y-14017616D01*
X11642386Y-14017616D02*
X11651909Y-14027140D01*
X11651909Y-14027140D02*
X11670957Y-14036664D01*
X11670957Y-14036664D02*
X11709052Y-14036664D01*
X11709052Y-14036664D02*
X11728100Y-14027140D01*
X11728100Y-14027140D02*
X11737624Y-14017616D01*
X11737624Y-14017616D02*
X11747147Y-13998568D01*
X11747147Y-13998568D02*
X11747147Y-13960473D01*
X11747147Y-13960473D02*
X11737624Y-13941426D01*
X11737624Y-13941426D02*
X11728100Y-13931902D01*
X11728100Y-13931902D02*
X11709052Y-13922378D01*
X11937624Y-14036664D02*
X11823338Y-14036664D01*
X11880481Y-14036664D02*
X11880481Y-13836664D01*
X11880481Y-13836664D02*
X11861433Y-13865235D01*
X11861433Y-13865235D02*
X11842386Y-13884283D01*
X11842386Y-13884283D02*
X11823338Y-13893807D01*
X12013814Y-13836664D02*
X12013814Y-13874759D01*
X12090005Y-13836664D02*
X12090005Y-13874759D01*
X12385243Y-14112854D02*
X12375719Y-14103330D01*
X12375719Y-14103330D02*
X12356671Y-14074759D01*
X12356671Y-14074759D02*
X12347148Y-14055711D01*
X12347148Y-14055711D02*
X12337624Y-14027140D01*
X12337624Y-14027140D02*
X12328100Y-13979521D01*
X12328100Y-13979521D02*
X12328100Y-13941426D01*
X12328100Y-13941426D02*
X12337624Y-13893807D01*
X12337624Y-13893807D02*
X12347148Y-13865235D01*
X12347148Y-13865235D02*
X12356671Y-13846188D01*
X12356671Y-13846188D02*
X12375719Y-13817616D01*
X12375719Y-13817616D02*
X12385243Y-13808092D01*
X12547148Y-13903330D02*
X12547148Y-14036664D01*
X12499528Y-13827140D02*
X12451909Y-13969997D01*
X12451909Y-13969997D02*
X12575719Y-13969997D01*
X12804290Y-14036664D02*
X12804290Y-13836664D01*
X12890005Y-14036664D02*
X12890005Y-13931902D01*
X12890005Y-13931902D02*
X12880481Y-13912854D01*
X12880481Y-13912854D02*
X12861433Y-13903330D01*
X12861433Y-13903330D02*
X12832862Y-13903330D01*
X12832862Y-13903330D02*
X12813814Y-13912854D01*
X12813814Y-13912854D02*
X12804290Y-13922378D01*
X13013814Y-14036664D02*
X12994767Y-14027140D01*
X12994767Y-14027140D02*
X12985243Y-14017616D01*
X12985243Y-14017616D02*
X12975719Y-13998568D01*
X12975719Y-13998568D02*
X12975719Y-13941426D01*
X12975719Y-13941426D02*
X12985243Y-13922378D01*
X12985243Y-13922378D02*
X12994767Y-13912854D01*
X12994767Y-13912854D02*
X13013814Y-13903330D01*
X13013814Y-13903330D02*
X13042386Y-13903330D01*
X13042386Y-13903330D02*
X13061433Y-13912854D01*
X13061433Y-13912854D02*
X13070957Y-13922378D01*
X13070957Y-13922378D02*
X13080481Y-13941426D01*
X13080481Y-13941426D02*
X13080481Y-13998568D01*
X13080481Y-13998568D02*
X13070957Y-14017616D01*
X13070957Y-14017616D02*
X13061433Y-14027140D01*
X13061433Y-14027140D02*
X13042386Y-14036664D01*
X13042386Y-14036664D02*
X13013814Y-14036664D01*
X13194767Y-14036664D02*
X13175719Y-14027140D01*
X13175719Y-14027140D02*
X13166195Y-14008092D01*
X13166195Y-14008092D02*
X13166195Y-13836664D01*
X13347148Y-14027140D02*
X13328100Y-14036664D01*
X13328100Y-14036664D02*
X13290005Y-14036664D01*
X13290005Y-14036664D02*
X13270957Y-14027140D01*
X13270957Y-14027140D02*
X13261433Y-14008092D01*
X13261433Y-14008092D02*
X13261433Y-13931902D01*
X13261433Y-13931902D02*
X13270957Y-13912854D01*
X13270957Y-13912854D02*
X13290005Y-13903330D01*
X13290005Y-13903330D02*
X13328100Y-13903330D01*
X13328100Y-13903330D02*
X13347148Y-13912854D01*
X13347148Y-13912854D02*
X13356671Y-13931902D01*
X13356671Y-13931902D02*
X13356671Y-13950949D01*
X13356671Y-13950949D02*
X13261433Y-13969997D01*
X13432862Y-14027140D02*
X13451910Y-14036664D01*
X13451910Y-14036664D02*
X13490005Y-14036664D01*
X13490005Y-14036664D02*
X13509052Y-14027140D01*
X13509052Y-14027140D02*
X13518576Y-14008092D01*
X13518576Y-14008092D02*
X13518576Y-13998568D01*
X13518576Y-13998568D02*
X13509052Y-13979521D01*
X13509052Y-13979521D02*
X13490005Y-13969997D01*
X13490005Y-13969997D02*
X13461433Y-13969997D01*
X13461433Y-13969997D02*
X13442386Y-13960473D01*
X13442386Y-13960473D02*
X13432862Y-13941426D01*
X13432862Y-13941426D02*
X13432862Y-13931902D01*
X13432862Y-13931902D02*
X13442386Y-13912854D01*
X13442386Y-13912854D02*
X13461433Y-13903330D01*
X13461433Y-13903330D02*
X13490005Y-13903330D01*
X13490005Y-13903330D02*
X13509052Y-13912854D01*
X13585243Y-14112854D02*
X13594767Y-14103330D01*
X13594767Y-14103330D02*
X13613814Y-14074759D01*
X13613814Y-14074759D02*
X13623338Y-14055711D01*
X13623338Y-14055711D02*
X13632862Y-14027140D01*
X13632862Y-14027140D02*
X13642386Y-13979521D01*
X13642386Y-13979521D02*
X13642386Y-13941426D01*
X13642386Y-13941426D02*
X13632862Y-13893807D01*
X13632862Y-13893807D02*
X13623338Y-13865235D01*
X13623338Y-13865235D02*
X13613814Y-13846188D01*
X13613814Y-13846188D02*
X13594767Y-13817616D01*
X13594767Y-13817616D02*
X13585243Y-13808092D01*
X8710180Y-14365180D02*
X8810180Y-14265180D01*
X8710180Y-14165180D01*
X8610180Y-14265180D01*
X8710180Y-14365180D01*
X9099528Y-14242378D02*
X9080481Y-14232854D01*
X9080481Y-14232854D02*
X9070957Y-14223330D01*
X9070957Y-14223330D02*
X9061433Y-14204283D01*
X9061433Y-14204283D02*
X9061433Y-14194759D01*
X9061433Y-14194759D02*
X9070957Y-14175711D01*
X9070957Y-14175711D02*
X9080481Y-14166188D01*
X9080481Y-14166188D02*
X9099528Y-14156664D01*
X9099528Y-14156664D02*
X9137624Y-14156664D01*
X9137624Y-14156664D02*
X9156671Y-14166188D01*
X9156671Y-14166188D02*
X9166195Y-14175711D01*
X9166195Y-14175711D02*
X9175719Y-14194759D01*
X9175719Y-14194759D02*
X9175719Y-14204283D01*
X9175719Y-14204283D02*
X9166195Y-14223330D01*
X9166195Y-14223330D02*
X9156671Y-14232854D01*
X9156671Y-14232854D02*
X9137624Y-14242378D01*
X9137624Y-14242378D02*
X9099528Y-14242378D01*
X9099528Y-14242378D02*
X9080481Y-14251902D01*
X9080481Y-14251902D02*
X9070957Y-14261426D01*
X9070957Y-14261426D02*
X9061433Y-14280473D01*
X9061433Y-14280473D02*
X9061433Y-14318568D01*
X9061433Y-14318568D02*
X9070957Y-14337616D01*
X9070957Y-14337616D02*
X9080481Y-14347140D01*
X9080481Y-14347140D02*
X9099528Y-14356664D01*
X9099528Y-14356664D02*
X9137624Y-14356664D01*
X9137624Y-14356664D02*
X9156671Y-14347140D01*
X9156671Y-14347140D02*
X9166195Y-14337616D01*
X9166195Y-14337616D02*
X9175719Y-14318568D01*
X9175719Y-14318568D02*
X9175719Y-14280473D01*
X9175719Y-14280473D02*
X9166195Y-14261426D01*
X9166195Y-14261426D02*
X9156671Y-14251902D01*
X9156671Y-14251902D02*
X9137624Y-14242378D01*
X9261433Y-14337616D02*
X9270957Y-14347140D01*
X9270957Y-14347140D02*
X9261433Y-14356664D01*
X9261433Y-14356664D02*
X9251909Y-14347140D01*
X9251909Y-14347140D02*
X9261433Y-14337616D01*
X9261433Y-14337616D02*
X9261433Y-14356664D01*
X9442385Y-14223330D02*
X9442385Y-14356664D01*
X9394766Y-14147140D02*
X9347147Y-14289997D01*
X9347147Y-14289997D02*
X9470957Y-14289997D01*
X9585243Y-14156664D02*
X9604290Y-14156664D01*
X9604290Y-14156664D02*
X9623338Y-14166188D01*
X9623338Y-14166188D02*
X9632862Y-14175711D01*
X9632862Y-14175711D02*
X9642385Y-14194759D01*
X9642385Y-14194759D02*
X9651909Y-14232854D01*
X9651909Y-14232854D02*
X9651909Y-14280473D01*
X9651909Y-14280473D02*
X9642385Y-14318568D01*
X9642385Y-14318568D02*
X9632862Y-14337616D01*
X9632862Y-14337616D02*
X9623338Y-14347140D01*
X9623338Y-14347140D02*
X9604290Y-14356664D01*
X9604290Y-14356664D02*
X9585243Y-14356664D01*
X9585243Y-14356664D02*
X9566195Y-14347140D01*
X9566195Y-14347140D02*
X9556671Y-14337616D01*
X9556671Y-14337616D02*
X9547147Y-14318568D01*
X9547147Y-14318568D02*
X9537624Y-14280473D01*
X9537624Y-14280473D02*
X9537624Y-14232854D01*
X9537624Y-14232854D02*
X9547147Y-14194759D01*
X9547147Y-14194759D02*
X9556671Y-14175711D01*
X9556671Y-14175711D02*
X9566195Y-14166188D01*
X9566195Y-14166188D02*
X9585243Y-14156664D01*
X9775719Y-14156664D02*
X9794766Y-14156664D01*
X9794766Y-14156664D02*
X9813814Y-14166188D01*
X9813814Y-14166188D02*
X9823338Y-14175711D01*
X9823338Y-14175711D02*
X9832862Y-14194759D01*
X9832862Y-14194759D02*
X9842385Y-14232854D01*
X9842385Y-14232854D02*
X9842385Y-14280473D01*
X9842385Y-14280473D02*
X9832862Y-14318568D01*
X9832862Y-14318568D02*
X9823338Y-14337616D01*
X9823338Y-14337616D02*
X9813814Y-14347140D01*
X9813814Y-14347140D02*
X9794766Y-14356664D01*
X9794766Y-14356664D02*
X9775719Y-14356664D01*
X9775719Y-14356664D02*
X9756671Y-14347140D01*
X9756671Y-14347140D02*
X9747147Y-14337616D01*
X9747147Y-14337616D02*
X9737624Y-14318568D01*
X9737624Y-14318568D02*
X9728100Y-14280473D01*
X9728100Y-14280473D02*
X9728100Y-14232854D01*
X9728100Y-14232854D02*
X9737624Y-14194759D01*
X9737624Y-14194759D02*
X9747147Y-14175711D01*
X9747147Y-14175711D02*
X9756671Y-14166188D01*
X9756671Y-14166188D02*
X9775719Y-14156664D01*
X9928100Y-14356664D02*
X9928100Y-14223330D01*
X9928100Y-14242378D02*
X9937624Y-14232854D01*
X9937624Y-14232854D02*
X9956671Y-14223330D01*
X9956671Y-14223330D02*
X9985243Y-14223330D01*
X9985243Y-14223330D02*
X10004290Y-14232854D01*
X10004290Y-14232854D02*
X10013814Y-14251902D01*
X10013814Y-14251902D02*
X10013814Y-14356664D01*
X10013814Y-14251902D02*
X10023338Y-14232854D01*
X10023338Y-14232854D02*
X10042385Y-14223330D01*
X10042385Y-14223330D02*
X10070957Y-14223330D01*
X10070957Y-14223330D02*
X10090005Y-14232854D01*
X10090005Y-14232854D02*
X10099528Y-14251902D01*
X10099528Y-14251902D02*
X10099528Y-14356664D01*
X10194766Y-14356664D02*
X10194766Y-14223330D01*
X10194766Y-14242378D02*
X10204290Y-14232854D01*
X10204290Y-14232854D02*
X10223338Y-14223330D01*
X10223338Y-14223330D02*
X10251909Y-14223330D01*
X10251909Y-14223330D02*
X10270957Y-14232854D01*
X10270957Y-14232854D02*
X10280481Y-14251902D01*
X10280481Y-14251902D02*
X10280481Y-14356664D01*
X10280481Y-14251902D02*
X10290005Y-14232854D01*
X10290005Y-14232854D02*
X10309052Y-14223330D01*
X10309052Y-14223330D02*
X10337624Y-14223330D01*
X10337624Y-14223330D02*
X10356671Y-14232854D01*
X10356671Y-14232854D02*
X10366195Y-14251902D01*
X10366195Y-14251902D02*
X10366195Y-14356664D01*
X10756671Y-14147140D02*
X10585243Y-14404283D01*
X11013814Y-14156664D02*
X11032862Y-14156664D01*
X11032862Y-14156664D02*
X11051909Y-14166188D01*
X11051909Y-14166188D02*
X11061433Y-14175711D01*
X11061433Y-14175711D02*
X11070957Y-14194759D01*
X11070957Y-14194759D02*
X11080481Y-14232854D01*
X11080481Y-14232854D02*
X11080481Y-14280473D01*
X11080481Y-14280473D02*
X11070957Y-14318568D01*
X11070957Y-14318568D02*
X11061433Y-14337616D01*
X11061433Y-14337616D02*
X11051909Y-14347140D01*
X11051909Y-14347140D02*
X11032862Y-14356664D01*
X11032862Y-14356664D02*
X11013814Y-14356664D01*
X11013814Y-14356664D02*
X10994767Y-14347140D01*
X10994767Y-14347140D02*
X10985243Y-14337616D01*
X10985243Y-14337616D02*
X10975719Y-14318568D01*
X10975719Y-14318568D02*
X10966195Y-14280473D01*
X10966195Y-14280473D02*
X10966195Y-14232854D01*
X10966195Y-14232854D02*
X10975719Y-14194759D01*
X10975719Y-14194759D02*
X10985243Y-14175711D01*
X10985243Y-14175711D02*
X10994767Y-14166188D01*
X10994767Y-14166188D02*
X11013814Y-14156664D01*
X11166195Y-14337616D02*
X11175719Y-14347140D01*
X11175719Y-14347140D02*
X11166195Y-14356664D01*
X11166195Y-14356664D02*
X11156671Y-14347140D01*
X11156671Y-14347140D02*
X11166195Y-14337616D01*
X11166195Y-14337616D02*
X11166195Y-14356664D01*
X11242386Y-14156664D02*
X11366195Y-14156664D01*
X11366195Y-14156664D02*
X11299528Y-14232854D01*
X11299528Y-14232854D02*
X11328100Y-14232854D01*
X11328100Y-14232854D02*
X11347147Y-14242378D01*
X11347147Y-14242378D02*
X11356671Y-14251902D01*
X11356671Y-14251902D02*
X11366195Y-14270949D01*
X11366195Y-14270949D02*
X11366195Y-14318568D01*
X11366195Y-14318568D02*
X11356671Y-14337616D01*
X11356671Y-14337616D02*
X11347147Y-14347140D01*
X11347147Y-14347140D02*
X11328100Y-14356664D01*
X11328100Y-14356664D02*
X11270957Y-14356664D01*
X11270957Y-14356664D02*
X11251909Y-14347140D01*
X11251909Y-14347140D02*
X11242386Y-14337616D01*
X11432862Y-14156664D02*
X11556671Y-14156664D01*
X11556671Y-14156664D02*
X11490005Y-14232854D01*
X11490005Y-14232854D02*
X11518576Y-14232854D01*
X11518576Y-14232854D02*
X11537624Y-14242378D01*
X11537624Y-14242378D02*
X11547147Y-14251902D01*
X11547147Y-14251902D02*
X11556671Y-14270949D01*
X11556671Y-14270949D02*
X11556671Y-14318568D01*
X11556671Y-14318568D02*
X11547147Y-14337616D01*
X11547147Y-14337616D02*
X11537624Y-14347140D01*
X11537624Y-14347140D02*
X11518576Y-14356664D01*
X11518576Y-14356664D02*
X11461433Y-14356664D01*
X11461433Y-14356664D02*
X11442386Y-14347140D01*
X11442386Y-14347140D02*
X11432862Y-14337616D01*
X11680481Y-14156664D02*
X11699528Y-14156664D01*
X11699528Y-14156664D02*
X11718576Y-14166188D01*
X11718576Y-14166188D02*
X11728100Y-14175711D01*
X11728100Y-14175711D02*
X11737624Y-14194759D01*
X11737624Y-14194759D02*
X11747147Y-14232854D01*
X11747147Y-14232854D02*
X11747147Y-14280473D01*
X11747147Y-14280473D02*
X11737624Y-14318568D01*
X11737624Y-14318568D02*
X11728100Y-14337616D01*
X11728100Y-14337616D02*
X11718576Y-14347140D01*
X11718576Y-14347140D02*
X11699528Y-14356664D01*
X11699528Y-14356664D02*
X11680481Y-14356664D01*
X11680481Y-14356664D02*
X11661433Y-14347140D01*
X11661433Y-14347140D02*
X11651909Y-14337616D01*
X11651909Y-14337616D02*
X11642386Y-14318568D01*
X11642386Y-14318568D02*
X11632862Y-14280473D01*
X11632862Y-14280473D02*
X11632862Y-14232854D01*
X11632862Y-14232854D02*
X11642386Y-14194759D01*
X11642386Y-14194759D02*
X11651909Y-14175711D01*
X11651909Y-14175711D02*
X11661433Y-14166188D01*
X11661433Y-14166188D02*
X11680481Y-14156664D01*
X11813814Y-14156664D02*
X11947147Y-14156664D01*
X11947147Y-14156664D02*
X11861433Y-14356664D01*
X12013814Y-14156664D02*
X12013814Y-14194759D01*
X12090005Y-14156664D02*
X12090005Y-14194759D01*
X12385243Y-14432854D02*
X12375719Y-14423330D01*
X12375719Y-14423330D02*
X12356671Y-14394759D01*
X12356671Y-14394759D02*
X12347148Y-14375711D01*
X12347148Y-14375711D02*
X12337624Y-14347140D01*
X12337624Y-14347140D02*
X12328100Y-14299521D01*
X12328100Y-14299521D02*
X12328100Y-14261426D01*
X12328100Y-14261426D02*
X12337624Y-14213807D01*
X12337624Y-14213807D02*
X12347148Y-14185235D01*
X12347148Y-14185235D02*
X12356671Y-14166188D01*
X12356671Y-14166188D02*
X12375719Y-14137616D01*
X12375719Y-14137616D02*
X12385243Y-14128092D01*
X12547148Y-14223330D02*
X12547148Y-14356664D01*
X12499528Y-14147140D02*
X12451909Y-14289997D01*
X12451909Y-14289997D02*
X12575719Y-14289997D01*
X12804290Y-14356664D02*
X12804290Y-14156664D01*
X12890005Y-14356664D02*
X12890005Y-14251902D01*
X12890005Y-14251902D02*
X12880481Y-14232854D01*
X12880481Y-14232854D02*
X12861433Y-14223330D01*
X12861433Y-14223330D02*
X12832862Y-14223330D01*
X12832862Y-14223330D02*
X12813814Y-14232854D01*
X12813814Y-14232854D02*
X12804290Y-14242378D01*
X13013814Y-14356664D02*
X12994767Y-14347140D01*
X12994767Y-14347140D02*
X12985243Y-14337616D01*
X12985243Y-14337616D02*
X12975719Y-14318568D01*
X12975719Y-14318568D02*
X12975719Y-14261426D01*
X12975719Y-14261426D02*
X12985243Y-14242378D01*
X12985243Y-14242378D02*
X12994767Y-14232854D01*
X12994767Y-14232854D02*
X13013814Y-14223330D01*
X13013814Y-14223330D02*
X13042386Y-14223330D01*
X13042386Y-14223330D02*
X13061433Y-14232854D01*
X13061433Y-14232854D02*
X13070957Y-14242378D01*
X13070957Y-14242378D02*
X13080481Y-14261426D01*
X13080481Y-14261426D02*
X13080481Y-14318568D01*
X13080481Y-14318568D02*
X13070957Y-14337616D01*
X13070957Y-14337616D02*
X13061433Y-14347140D01*
X13061433Y-14347140D02*
X13042386Y-14356664D01*
X13042386Y-14356664D02*
X13013814Y-14356664D01*
X13194767Y-14356664D02*
X13175719Y-14347140D01*
X13175719Y-14347140D02*
X13166195Y-14328092D01*
X13166195Y-14328092D02*
X13166195Y-14156664D01*
X13347148Y-14347140D02*
X13328100Y-14356664D01*
X13328100Y-14356664D02*
X13290005Y-14356664D01*
X13290005Y-14356664D02*
X13270957Y-14347140D01*
X13270957Y-14347140D02*
X13261433Y-14328092D01*
X13261433Y-14328092D02*
X13261433Y-14251902D01*
X13261433Y-14251902D02*
X13270957Y-14232854D01*
X13270957Y-14232854D02*
X13290005Y-14223330D01*
X13290005Y-14223330D02*
X13328100Y-14223330D01*
X13328100Y-14223330D02*
X13347148Y-14232854D01*
X13347148Y-14232854D02*
X13356671Y-14251902D01*
X13356671Y-14251902D02*
X13356671Y-14270949D01*
X13356671Y-14270949D02*
X13261433Y-14289997D01*
X13432862Y-14347140D02*
X13451910Y-14356664D01*
X13451910Y-14356664D02*
X13490005Y-14356664D01*
X13490005Y-14356664D02*
X13509052Y-14347140D01*
X13509052Y-14347140D02*
X13518576Y-14328092D01*
X13518576Y-14328092D02*
X13518576Y-14318568D01*
X13518576Y-14318568D02*
X13509052Y-14299521D01*
X13509052Y-14299521D02*
X13490005Y-14289997D01*
X13490005Y-14289997D02*
X13461433Y-14289997D01*
X13461433Y-14289997D02*
X13442386Y-14280473D01*
X13442386Y-14280473D02*
X13432862Y-14261426D01*
X13432862Y-14261426D02*
X13432862Y-14251902D01*
X13432862Y-14251902D02*
X13442386Y-14232854D01*
X13442386Y-14232854D02*
X13461433Y-14223330D01*
X13461433Y-14223330D02*
X13490005Y-14223330D01*
X13490005Y-14223330D02*
X13509052Y-14232854D01*
X13585243Y-14432854D02*
X13594767Y-14423330D01*
X13594767Y-14423330D02*
X13613814Y-14394759D01*
X13613814Y-14394759D02*
X13623338Y-14375711D01*
X13623338Y-14375711D02*
X13632862Y-14347140D01*
X13632862Y-14347140D02*
X13642386Y-14299521D01*
X13642386Y-14299521D02*
X13642386Y-14261426D01*
X13642386Y-14261426D02*
X13632862Y-14213807D01*
X13632862Y-14213807D02*
X13623338Y-14185235D01*
X13623338Y-14185235D02*
X13613814Y-14166188D01*
X13613814Y-14166188D02*
X13594767Y-14137616D01*
X13594767Y-14137616D02*
X13585243Y-14128092D01*
M02*
