%TF.GenerationSoftware,KiCad,Pcbnew,7.0.7*%
%TF.CreationDate,2024-04-01T01:40:13+05:30*%
%TF.ProjectId,FC_THT_STACK_2,46435f54-4854-45f5-9354-41434b5f322e,rev?*%
%TF.SameCoordinates,Original*%
%TF.FileFunction,Copper,L2,Bot*%
%TF.FilePolarity,Positive*%
%FSLAX46Y46*%
G04 Gerber Fmt 4.6, Leading zero omitted, Abs format (unit mm)*
G04 Created by KiCad (PCBNEW 7.0.7) date 2024-04-01 01:40:13*
%MOMM*%
%LPD*%
G01*
G04 APERTURE LIST*
%TA.AperFunction,ComponentPad*%
%ADD10C,3.600000*%
%TD*%
%TA.AperFunction,ComponentPad*%
%ADD11R,1.700000X1.700000*%
%TD*%
%TA.AperFunction,ComponentPad*%
%ADD12O,1.700000X1.700000*%
%TD*%
%TA.AperFunction,ComponentPad*%
%ADD13C,10.400000*%
%TD*%
%TA.AperFunction,ComponentPad*%
%ADD14C,1.524000*%
%TD*%
%TA.AperFunction,ViaPad*%
%ADD15C,0.800000*%
%TD*%
%TA.AperFunction,Conductor*%
%ADD16C,0.500000*%
%TD*%
G04 APERTURE END LIST*
D10*
%TO.P,U2,*%
%TO.N,*%
X130070600Y-81543800D03*
X130070600Y-95943800D03*
X144470600Y-81543800D03*
X144470600Y-95943800D03*
D11*
%TO.P,U2,1,VIO*%
%TO.N,3.3V*%
X133070600Y-85013800D03*
D12*
%TO.P,U2,2,GND*%
%TO.N,GND*%
X133070600Y-87553800D03*
%TO.P,U2,3,CS*%
%TO.N,CS_ADXL*%
X133070600Y-90093800D03*
%TO.P,U2,4,VS*%
%TO.N,3.3V*%
X133070600Y-92633800D03*
%TO.P,U2,5,INT2*%
%TO.N,unconnected-(U2-INT2-Pad5)*%
X141540600Y-93813800D03*
%TO.P,U2,6,INT1*%
%TO.N,INT_ADXL*%
X141540600Y-91273800D03*
%TO.P,U2,7,SDO*%
%TO.N,MISO_SPI2*%
X141540600Y-88733800D03*
%TO.P,U2,8,SDA*%
%TO.N,MOSI_SPI2*%
X141540600Y-86193800D03*
D11*
%TO.P,U2,9,SCL*%
%TO.N,SCLK_SPI2*%
X141540600Y-83653800D03*
%TD*%
%TO.P,U1,1*%
%TO.N,CS_ADXL*%
X151326800Y-72321800D03*
D12*
%TO.P,U1,2*%
%TO.N,SCLK_SPI2*%
X151326800Y-74861800D03*
%TO.P,U1,3*%
%TO.N,MOSI_SPI2*%
X151326800Y-77401800D03*
%TO.P,U1,4*%
%TO.N,MISO_SPI2*%
X151326800Y-79941800D03*
%TO.P,U1,5*%
%TO.N,INT_ADXL*%
X151326800Y-82481800D03*
%TO.P,U1,6*%
%TO.N,unconnected-(U1-Pad6)*%
X151326800Y-85021800D03*
%TO.P,U1,7*%
%TO.N,unconnected-(U1-Pad7)*%
X151326800Y-87561800D03*
%TO.P,U1,8*%
%TO.N,unconnected-(U1-Pad8)*%
X151326800Y-90101800D03*
%TO.P,U1,9*%
%TO.N,unconnected-(U1-Pad9)*%
X151326800Y-92641800D03*
%TO.P,U1,10*%
%TO.N,unconnected-(U1-Pad10)*%
X151326800Y-95181800D03*
%TO.P,U1,11*%
%TO.N,unconnected-(U1-Pad11)*%
X151326800Y-97721800D03*
%TO.P,U1,12*%
%TO.N,unconnected-(U1-Pad12)*%
X151326800Y-100261800D03*
%TO.P,U1,13*%
%TO.N,unconnected-(U1-Pad13)*%
X151326800Y-102801800D03*
%TO.P,U1,14*%
%TO.N,unconnected-(U1-Pad14)*%
X151326800Y-105341800D03*
%TO.P,U1,15*%
%TO.N,unconnected-(U1-Pad15)*%
X151326800Y-107881800D03*
%TO.P,U1,16*%
%TO.N,unconnected-(U1-Pad16)*%
X94926800Y-107851800D03*
%TO.P,U1,17*%
%TO.N,unconnected-(U1-Pad17)*%
X94926800Y-105311800D03*
%TO.P,U1,18*%
%TO.N,unconnected-(U1-Pad18)*%
X94926800Y-102771800D03*
%TO.P,U1,19*%
%TO.N,unconnected-(U1-Pad19)*%
X94926800Y-100231800D03*
%TO.P,U1,20*%
%TO.N,unconnected-(U1-Pad20)*%
X94926800Y-97691800D03*
%TO.P,U1,21*%
%TO.N,unconnected-(U1-Pad21)*%
X94926800Y-95151800D03*
%TO.P,U1,22*%
%TO.N,unconnected-(U1-Pad22)*%
X94926800Y-92611800D03*
%TO.P,U1,23*%
%TO.N,unconnected-(U1-Pad23)*%
X94926800Y-90071800D03*
%TO.P,U1,24*%
%TO.N,unconnected-(U1-Pad24)*%
X94926800Y-87531800D03*
%TO.P,U1,25*%
%TO.N,unconnected-(U1-Pad25)*%
X94926800Y-84991800D03*
%TO.P,U1,26*%
%TO.N,unconnected-(U1-Pad26)*%
X94926800Y-82451800D03*
%TO.P,U1,27*%
%TO.N,unconnected-(U1-Pad27)*%
X94926800Y-79911800D03*
%TO.P,U1,28*%
%TO.N,unconnected-(U1-Pad28)*%
X94926800Y-77371800D03*
%TO.P,U1,29*%
%TO.N,unconnected-(U1-Pad29)*%
X94926800Y-74831800D03*
D11*
%TO.P,U1,30*%
%TO.N,CS_MS5607*%
X94926800Y-72291800D03*
%TO.P,U1,31*%
%TO.N,unconnected-(U1-Pad31)*%
X105351800Y-61906800D03*
D12*
%TO.P,U1,32*%
%TO.N,unconnected-(U1-Pad32)*%
X107891800Y-61906800D03*
%TO.P,U1,33*%
%TO.N,unconnected-(U1-Pad33)*%
X110431800Y-61906800D03*
%TO.P,U1,34*%
%TO.N,unconnected-(U1-Pad34)*%
X112971800Y-61906800D03*
%TO.P,U1,35*%
%TO.N,unconnected-(U1-Pad35)*%
X115511800Y-61906800D03*
%TO.P,U1,36*%
%TO.N,unconnected-(U1-Pad36)*%
X118051800Y-61906800D03*
%TO.P,U1,37*%
%TO.N,3.3V*%
X120591800Y-61906800D03*
%TO.P,U1,38*%
%TO.N,unconnected-(U1-Pad38)*%
X123131800Y-61906800D03*
%TO.P,U1,39*%
%TO.N,3.3V*%
X125671800Y-61906800D03*
%TO.P,U1,40*%
X128211800Y-61906800D03*
%TO.P,U1,41*%
%TO.N,unconnected-(U1-Pad41)*%
X130751800Y-61906800D03*
%TO.P,U1,42*%
%TO.N,unconnected-(U1-Pad42)*%
X133291800Y-61906800D03*
%TO.P,U1,43*%
%TO.N,unconnected-(U1-Pad43)*%
X135831800Y-61906800D03*
%TO.P,U1,44*%
%TO.N,unconnected-(U1-Pad44)*%
X138371800Y-61906800D03*
%TO.P,U1,45*%
%TO.N,unconnected-(U1-Pad45)*%
X140911800Y-61906800D03*
D13*
%TO.P,U1,49,1*%
%TO.N,GND*%
X150926800Y-117906800D03*
%TO.P,U1,50,1*%
X95326800Y-117906800D03*
%TO.P,U1,51,1*%
X95326800Y-62206800D03*
%TO.P,U1,52,1*%
X150926800Y-62221800D03*
%TD*%
D14*
%TO.P,U3,1,NC*%
%TO.N,unconnected-(U3-NC-Pad1)*%
X100694800Y-91262200D03*
%TO.P,U3,2,NC*%
%TO.N,unconnected-(U3-NC-Pad2)*%
X100694800Y-93802200D03*
%TO.P,U3,3,CS*%
%TO.N,CS_MS5607*%
X100694800Y-96342200D03*
%TO.P,U3,4,SCK*%
%TO.N,SCLK_SPI2*%
X100694800Y-98882200D03*
%TO.P,U3,5,SDO*%
%TO.N,MISO_SPI2*%
X100694800Y-101422200D03*
%TO.P,U3,6,SDI*%
%TO.N,MOSI_SPI2*%
X100694800Y-103962200D03*
%TO.P,U3,7,3.3V*%
%TO.N,3.3V*%
X100694800Y-106502200D03*
%TO.P,U3,8,GND*%
%TO.N,GND*%
X100694800Y-109042200D03*
%TO.P,U3,9,GND*%
X123494800Y-109042200D03*
%TO.P,U3,10,NC*%
%TO.N,unconnected-(U3-NC-Pad10)*%
X123494800Y-106502200D03*
%TO.P,U3,11,SDA*%
%TO.N,unconnected-(U3-SDA-Pad11)*%
X123494800Y-103962200D03*
%TO.P,U3,12,SCL*%
%TO.N,unconnected-(U3-SCL-Pad12)*%
X123494800Y-101422200D03*
%TO.P,U3,13,NC*%
%TO.N,unconnected-(U3-NC-Pad13)*%
X123494800Y-98882200D03*
%TO.P,U3,14,NC*%
%TO.N,unconnected-(U3-NC-Pad14)*%
X123494800Y-96342200D03*
%TO.P,U3,15,NC*%
%TO.N,unconnected-(U3-NC-Pad15)*%
X123494800Y-93802200D03*
%TO.P,U3,16,NC*%
%TO.N,unconnected-(U3-NC-Pad16)*%
X123494800Y-91262200D03*
%TD*%
D15*
%TO.N,SCLK_SPI2*%
X113080800Y-95300800D03*
X135229600Y-82880200D03*
X125526800Y-90068400D03*
%TO.N,MOSI_SPI2*%
X114554000Y-97663000D03*
X105740200Y-97028000D03*
%TD*%
D16*
%TO.N,SCLK_SPI2*%
X104276200Y-95300800D02*
X100694800Y-98882200D01*
X125526800Y-90068400D02*
X132715000Y-82880200D01*
X132715000Y-82880200D02*
X135229600Y-82880200D01*
X113080800Y-95300800D02*
X104276200Y-95300800D01*
%TO.N,MOSI_SPI2*%
X106400600Y-97663000D02*
X105740200Y-97002600D01*
X105740200Y-97002600D02*
X105740200Y-97028000D01*
X114554000Y-97663000D02*
X106400600Y-97663000D01*
%TO.N,CS_ADXL*%
X144942781Y-98653600D02*
X148742400Y-94853981D01*
X148742400Y-94853981D02*
X148742400Y-73583800D01*
X141630400Y-98653600D02*
X144942781Y-98653600D01*
X132740400Y-90424000D02*
X133070600Y-90093800D01*
X150064800Y-73583800D02*
X151326800Y-72321800D01*
X133070600Y-90093800D02*
X141630400Y-98653600D01*
X148742400Y-73583800D02*
X150064800Y-73583800D01*
%TD*%
%TA.AperFunction,Conductor*%
%TO.N,SCLK_SPI2*%
G36*
X125922575Y-89332804D02*
G01*
X126262395Y-89672624D01*
X126265822Y-89680897D01*
X126263778Y-89687504D01*
X125817583Y-90339637D01*
X125810083Y-90344530D01*
X125801320Y-90342686D01*
X125799675Y-90341324D01*
X125526093Y-90069107D01*
X125253875Y-89795524D01*
X125250469Y-89787243D01*
X125253917Y-89778978D01*
X125255556Y-89777620D01*
X125907695Y-89331420D01*
X125916458Y-89329577D01*
X125922575Y-89332804D01*
G37*
%TD.AperFunction*%
%TD*%
%TA.AperFunction,Conductor*%
%TO.N,CS_ADXL*%
G36*
X150487291Y-71926765D02*
G01*
X151323407Y-72319735D01*
X151329436Y-72326356D01*
X151329441Y-72326369D01*
X151629121Y-73160802D01*
X151628693Y-73169747D01*
X151622079Y-73175763D01*
X149813124Y-73828149D01*
X149804179Y-73827732D01*
X149798149Y-73821112D01*
X149797455Y-73817143D01*
X149797455Y-73336468D01*
X149798612Y-73331395D01*
X149875399Y-73171800D01*
X150471774Y-71932281D01*
X150478448Y-71926313D01*
X150487291Y-71926765D01*
G37*
%TD.AperFunction*%
%TD*%
%TA.AperFunction,Conductor*%
%TO.N,SCLK_SPI2*%
G36*
X101601421Y-97633561D02*
G01*
X101943438Y-97975578D01*
X101946865Y-97983851D01*
X101945788Y-97988754D01*
X101403502Y-99163608D01*
X101396923Y-99169684D01*
X101388415Y-99169520D01*
X101177352Y-99082394D01*
X100698588Y-98884762D01*
X100692248Y-98878437D01*
X100692237Y-98878411D01*
X100407479Y-98188582D01*
X100407490Y-98179630D01*
X100413389Y-98173498D01*
X101588248Y-97631210D01*
X101597192Y-97630855D01*
X101601421Y-97633561D01*
G37*
%TD.AperFunction*%
%TD*%
%TA.AperFunction,Conductor*%
%TO.N,SCLK_SPI2*%
G36*
X135224542Y-82484635D02*
G01*
X135229435Y-82492135D01*
X135229635Y-82494262D01*
X135230600Y-82880200D01*
X135229635Y-83266137D01*
X135226187Y-83274402D01*
X135217906Y-83277808D01*
X135215779Y-83277608D01*
X134439144Y-83131989D01*
X134431644Y-83127096D01*
X134429600Y-83120489D01*
X134429600Y-82639910D01*
X134433027Y-82631637D01*
X134439142Y-82628410D01*
X135215780Y-82482791D01*
X135224542Y-82484635D01*
G37*
%TD.AperFunction*%
%TD*%
%TA.AperFunction,Conductor*%
%TO.N,MOSI_SPI2*%
G36*
X114548942Y-97267435D02*
G01*
X114553835Y-97274935D01*
X114554035Y-97277062D01*
X114555000Y-97663000D01*
X114554035Y-98048937D01*
X114550587Y-98057202D01*
X114542306Y-98060608D01*
X114540179Y-98060408D01*
X113763544Y-97914789D01*
X113756044Y-97909896D01*
X113754000Y-97903289D01*
X113754000Y-97422710D01*
X113757427Y-97414437D01*
X113763542Y-97411210D01*
X114540180Y-97265591D01*
X114548942Y-97267435D01*
G37*
%TD.AperFunction*%
%TD*%
%TA.AperFunction,Conductor*%
%TO.N,GND*%
G36*
X156629007Y-55107457D02*
G01*
X156696555Y-55112289D01*
X156843444Y-55123849D01*
X156851747Y-55125074D01*
X156946560Y-55145699D01*
X157063025Y-55173660D01*
X157070201Y-55175851D01*
X157166537Y-55211783D01*
X157244722Y-55244168D01*
X157272656Y-55255739D01*
X157278647Y-55258605D01*
X157369737Y-55308343D01*
X157372380Y-55309873D01*
X157467703Y-55368288D01*
X157472443Y-55371505D01*
X157556240Y-55434235D01*
X157559320Y-55436698D01*
X157643737Y-55508797D01*
X157647313Y-55512103D01*
X157721495Y-55586285D01*
X157724801Y-55589861D01*
X157796894Y-55674271D01*
X157799376Y-55677374D01*
X157862089Y-55761149D01*
X157865321Y-55765911D01*
X157923710Y-55861193D01*
X157925263Y-55863876D01*
X157974993Y-55954951D01*
X157977859Y-55960941D01*
X158021816Y-56067060D01*
X158057742Y-56163382D01*
X158059940Y-56170581D01*
X158087898Y-56287031D01*
X158108523Y-56381844D01*
X158109750Y-56390167D01*
X158121317Y-56537131D01*
X158126142Y-56604589D01*
X158126300Y-56609013D01*
X158126300Y-123604586D01*
X158126142Y-123609008D01*
X158124758Y-123628355D01*
X158121317Y-123676468D01*
X158109750Y-123823432D01*
X158108523Y-123831755D01*
X158087901Y-123926555D01*
X158059940Y-124043017D01*
X158057742Y-124050216D01*
X158021816Y-124146539D01*
X157977859Y-124252657D01*
X157974993Y-124258647D01*
X157925263Y-124349722D01*
X157923710Y-124352405D01*
X157865321Y-124447687D01*
X157862089Y-124452449D01*
X157799376Y-124536224D01*
X157796887Y-124539336D01*
X157724801Y-124623737D01*
X157721495Y-124627313D01*
X157647313Y-124701495D01*
X157643737Y-124704801D01*
X157559336Y-124776887D01*
X157556224Y-124779376D01*
X157472449Y-124842089D01*
X157467687Y-124845321D01*
X157372405Y-124903710D01*
X157369722Y-124905263D01*
X157278647Y-124954993D01*
X157272657Y-124957859D01*
X157166539Y-125001816D01*
X157070216Y-125037742D01*
X157063017Y-125039940D01*
X156946555Y-125067901D01*
X156851755Y-125088523D01*
X156843432Y-125089750D01*
X156696468Y-125101317D01*
X156648355Y-125104758D01*
X156629008Y-125106142D01*
X156624586Y-125106300D01*
X89629014Y-125106300D01*
X89624591Y-125106142D01*
X89597044Y-125104171D01*
X89557173Y-125101320D01*
X89410161Y-125089749D01*
X89401838Y-125088522D01*
X89307072Y-125067907D01*
X89190586Y-125039941D01*
X89183386Y-125037743D01*
X89087069Y-125001819D01*
X88980935Y-124957856D01*
X88974944Y-124954990D01*
X88883886Y-124905269D01*
X88881205Y-124903716D01*
X88785910Y-124845320D01*
X88781152Y-124842091D01*
X88697367Y-124779370D01*
X88694271Y-124776894D01*
X88609861Y-124704801D01*
X88606285Y-124701495D01*
X88532103Y-124627313D01*
X88528797Y-124623737D01*
X88456698Y-124539320D01*
X88454235Y-124536240D01*
X88391501Y-124452438D01*
X88388287Y-124447701D01*
X88329879Y-124352388D01*
X88328335Y-124349722D01*
X88278602Y-124258641D01*
X88275742Y-124252663D01*
X88231780Y-124146530D01*
X88226551Y-124132510D01*
X88195852Y-124050204D01*
X88193659Y-124043017D01*
X88165700Y-123926564D01*
X88145075Y-123831753D01*
X88143851Y-123823451D01*
X88132280Y-123676426D01*
X88129636Y-123639473D01*
X88127457Y-123609007D01*
X88127300Y-123604587D01*
X88127300Y-117906800D01*
X89621927Y-117906800D01*
X89641412Y-118377909D01*
X89699733Y-118845789D01*
X89699734Y-118845789D01*
X89796494Y-119307259D01*
X89931032Y-119759165D01*
X90102426Y-120198415D01*
X90102426Y-120198416D01*
X90309514Y-120622020D01*
X90309515Y-120622021D01*
X90550869Y-121027066D01*
X90550868Y-121027065D01*
X90824850Y-121410801D01*
X91120349Y-121759695D01*
X92093182Y-120786862D01*
X92154505Y-120753377D01*
X92224196Y-120758361D01*
X92272741Y-120791270D01*
X92353369Y-120880230D01*
X92442328Y-120960857D01*
X92478782Y-121020463D01*
X92477223Y-121090315D01*
X92446736Y-121140416D01*
X91473903Y-122113249D01*
X91473903Y-122113250D01*
X91822799Y-122408750D01*
X92206535Y-122682732D01*
X92206534Y-122682731D01*
X92611579Y-122924085D01*
X92611580Y-122924086D01*
X93035184Y-123131174D01*
X93035185Y-123131174D01*
X93474435Y-123302568D01*
X93926341Y-123437106D01*
X94387811Y-123533866D01*
X94387811Y-123533867D01*
X94855691Y-123592188D01*
X95326800Y-123611673D01*
X95797909Y-123592188D01*
X96265789Y-123533867D01*
X96265789Y-123533866D01*
X96727259Y-123437106D01*
X97179165Y-123302568D01*
X97618415Y-123131174D01*
X97618416Y-123131174D01*
X98042020Y-122924086D01*
X98042021Y-122924085D01*
X98447066Y-122682731D01*
X98447065Y-122682732D01*
X98830801Y-122408750D01*
X99179695Y-122113250D01*
X99179695Y-122113249D01*
X98206862Y-121140416D01*
X98173377Y-121079093D01*
X98178361Y-121009401D01*
X98211268Y-120960860D01*
X98300230Y-120880230D01*
X98380859Y-120791268D01*
X98440462Y-120754817D01*
X98510314Y-120756374D01*
X98560416Y-120786862D01*
X99533249Y-121759695D01*
X99533250Y-121759695D01*
X99828750Y-121410801D01*
X100102732Y-121027065D01*
X100102731Y-121027066D01*
X100344085Y-120622021D01*
X100344086Y-120622020D01*
X100551174Y-120198416D01*
X100551174Y-120198415D01*
X100722568Y-119759165D01*
X100857106Y-119307259D01*
X100953866Y-118845789D01*
X100953867Y-118845789D01*
X101012188Y-118377909D01*
X101031673Y-117906800D01*
X145221927Y-117906800D01*
X145241412Y-118377909D01*
X145299733Y-118845789D01*
X145299734Y-118845789D01*
X145396494Y-119307259D01*
X145531032Y-119759165D01*
X145702426Y-120198415D01*
X145702426Y-120198416D01*
X145909514Y-120622020D01*
X145909515Y-120622021D01*
X146150869Y-121027066D01*
X146150868Y-121027065D01*
X146424850Y-121410801D01*
X146720349Y-121759695D01*
X147693182Y-120786862D01*
X147754505Y-120753377D01*
X147824196Y-120758361D01*
X147872741Y-120791270D01*
X147953369Y-120880230D01*
X148042328Y-120960857D01*
X148078782Y-121020463D01*
X148077223Y-121090315D01*
X148046736Y-121140416D01*
X147073903Y-122113249D01*
X147073903Y-122113250D01*
X147422799Y-122408750D01*
X147806535Y-122682732D01*
X147806534Y-122682731D01*
X148211579Y-122924085D01*
X148211580Y-122924086D01*
X148635184Y-123131174D01*
X148635185Y-123131174D01*
X149074435Y-123302568D01*
X149526341Y-123437106D01*
X149987811Y-123533866D01*
X149987811Y-123533867D01*
X150455691Y-123592188D01*
X150926800Y-123611673D01*
X151397909Y-123592188D01*
X151865789Y-123533867D01*
X151865789Y-123533866D01*
X152327259Y-123437106D01*
X152779165Y-123302568D01*
X153218415Y-123131174D01*
X153218416Y-123131174D01*
X153642020Y-122924086D01*
X153642021Y-122924085D01*
X154047066Y-122682731D01*
X154047065Y-122682732D01*
X154430801Y-122408750D01*
X154779695Y-122113250D01*
X154779695Y-122113249D01*
X153806862Y-121140416D01*
X153773377Y-121079093D01*
X153778361Y-121009401D01*
X153811268Y-120960860D01*
X153900230Y-120880230D01*
X153980859Y-120791268D01*
X154040462Y-120754817D01*
X154110314Y-120756374D01*
X154160416Y-120786862D01*
X155133249Y-121759695D01*
X155133250Y-121759695D01*
X155428750Y-121410801D01*
X155702732Y-121027065D01*
X155702731Y-121027066D01*
X155944085Y-120622021D01*
X155944086Y-120622020D01*
X156151174Y-120198416D01*
X156151174Y-120198415D01*
X156322568Y-119759165D01*
X156457106Y-119307259D01*
X156553866Y-118845789D01*
X156553867Y-118845789D01*
X156612188Y-118377909D01*
X156631673Y-117906800D01*
X156612188Y-117435691D01*
X156553867Y-116967811D01*
X156553866Y-116967811D01*
X156457106Y-116506341D01*
X156322568Y-116054435D01*
X156151174Y-115615185D01*
X156151174Y-115615184D01*
X155944086Y-115191580D01*
X155944085Y-115191579D01*
X155702731Y-114786534D01*
X155702732Y-114786535D01*
X155428750Y-114402799D01*
X155133250Y-114053903D01*
X155133249Y-114053903D01*
X154160416Y-115026736D01*
X154099093Y-115060221D01*
X154029401Y-115055237D01*
X153980857Y-115022328D01*
X153900230Y-114933369D01*
X153811270Y-114852741D01*
X153774816Y-114793135D01*
X153776375Y-114723283D01*
X153806862Y-114673182D01*
X154779695Y-113700349D01*
X154430801Y-113404850D01*
X154047065Y-113130868D01*
X154047066Y-113130869D01*
X153642021Y-112889515D01*
X153642020Y-112889514D01*
X153218416Y-112682426D01*
X153218415Y-112682426D01*
X152779165Y-112511032D01*
X152327259Y-112376494D01*
X151865789Y-112279734D01*
X151865789Y-112279733D01*
X151397909Y-112221412D01*
X150926800Y-112201927D01*
X150455691Y-112221412D01*
X149987811Y-112279733D01*
X149987811Y-112279734D01*
X149526341Y-112376494D01*
X149074435Y-112511032D01*
X148635185Y-112682426D01*
X148635184Y-112682426D01*
X148211580Y-112889514D01*
X148211579Y-112889515D01*
X147806534Y-113130869D01*
X147806535Y-113130868D01*
X147422799Y-113404850D01*
X147073903Y-113700349D01*
X148046736Y-114673182D01*
X148080221Y-114734505D01*
X148075237Y-114804197D01*
X148042329Y-114852740D01*
X147953369Y-114933369D01*
X147872740Y-115022329D01*
X147813134Y-115058782D01*
X147743281Y-115057223D01*
X147693182Y-115026736D01*
X146720349Y-114053903D01*
X146424850Y-114402799D01*
X146150868Y-114786535D01*
X146150869Y-114786534D01*
X145909515Y-115191579D01*
X145909514Y-115191580D01*
X145702426Y-115615184D01*
X145702426Y-115615185D01*
X145531032Y-116054435D01*
X145396494Y-116506341D01*
X145299734Y-116967811D01*
X145299733Y-116967811D01*
X145241412Y-117435691D01*
X145221927Y-117906800D01*
X101031673Y-117906800D01*
X101012188Y-117435691D01*
X100953867Y-116967811D01*
X100953866Y-116967811D01*
X100857106Y-116506341D01*
X100722568Y-116054435D01*
X100551174Y-115615185D01*
X100551174Y-115615184D01*
X100344086Y-115191580D01*
X100344085Y-115191579D01*
X100102731Y-114786534D01*
X100102732Y-114786535D01*
X99828750Y-114402799D01*
X99533250Y-114053903D01*
X99533249Y-114053903D01*
X98560416Y-115026736D01*
X98499093Y-115060221D01*
X98429401Y-115055237D01*
X98380857Y-115022328D01*
X98300230Y-114933369D01*
X98211270Y-114852741D01*
X98174816Y-114793135D01*
X98176375Y-114723283D01*
X98206862Y-114673182D01*
X99179695Y-113700349D01*
X98830801Y-113404850D01*
X98447065Y-113130868D01*
X98447066Y-113130869D01*
X98042021Y-112889515D01*
X98042020Y-112889514D01*
X97618416Y-112682426D01*
X97618415Y-112682426D01*
X97179165Y-112511032D01*
X96727259Y-112376494D01*
X96265789Y-112279734D01*
X96265789Y-112279733D01*
X95797909Y-112221412D01*
X95326800Y-112201927D01*
X94855691Y-112221412D01*
X94387811Y-112279733D01*
X94387811Y-112279734D01*
X93926341Y-112376494D01*
X93474435Y-112511032D01*
X93035185Y-112682426D01*
X93035184Y-112682426D01*
X92611580Y-112889514D01*
X92611579Y-112889515D01*
X92206534Y-113130869D01*
X92206535Y-113130868D01*
X91822799Y-113404850D01*
X91473903Y-113700349D01*
X92446736Y-114673182D01*
X92480221Y-114734505D01*
X92475237Y-114804197D01*
X92442329Y-114852740D01*
X92353369Y-114933369D01*
X92272740Y-115022329D01*
X92213134Y-115058782D01*
X92143281Y-115057223D01*
X92093182Y-115026736D01*
X91120349Y-114053903D01*
X90824850Y-114402799D01*
X90550868Y-114786535D01*
X90550869Y-114786534D01*
X90309515Y-115191579D01*
X90309514Y-115191580D01*
X90102426Y-115615184D01*
X90102426Y-115615185D01*
X89931032Y-116054435D01*
X89796494Y-116506341D01*
X89699734Y-116967811D01*
X89699733Y-116967811D01*
X89641412Y-117435691D01*
X89621927Y-117906800D01*
X88127300Y-117906800D01*
X88127300Y-107851800D01*
X93571141Y-107851800D01*
X93591736Y-108087203D01*
X93591738Y-108087213D01*
X93652894Y-108315455D01*
X93652896Y-108315459D01*
X93652897Y-108315463D01*
X93746725Y-108516677D01*
X93752765Y-108529630D01*
X93752767Y-108529634D01*
X93844891Y-108661200D01*
X93888305Y-108723201D01*
X94055399Y-108890295D01*
X94152184Y-108958064D01*
X94248965Y-109025832D01*
X94248967Y-109025833D01*
X94248970Y-109025835D01*
X94463137Y-109125703D01*
X94691392Y-109186863D01*
X94879718Y-109203339D01*
X94926799Y-109207459D01*
X94926800Y-109207459D01*
X94926801Y-109207459D01*
X94966034Y-109204026D01*
X95162208Y-109186863D01*
X95390463Y-109125703D01*
X95604630Y-109025835D01*
X95798201Y-108890295D01*
X95965295Y-108723201D01*
X96100835Y-108529630D01*
X96200703Y-108315463D01*
X96261863Y-108087208D01*
X96282459Y-107851800D01*
X96281456Y-107840341D01*
X96275433Y-107771493D01*
X96261863Y-107616392D01*
X96200703Y-107388137D01*
X96100835Y-107173971D01*
X95986302Y-107010399D01*
X95965294Y-106980397D01*
X95798202Y-106813306D01*
X95798196Y-106813301D01*
X95612642Y-106683375D01*
X95569017Y-106628798D01*
X95561823Y-106559300D01*
X95590688Y-106502202D01*
X99427477Y-106502202D01*
X99446729Y-106722262D01*
X99446730Y-106722270D01*
X99503904Y-106935645D01*
X99503905Y-106935647D01*
X99503906Y-106935650D01*
X99524772Y-106980397D01*
X99597266Y-107135862D01*
X99597268Y-107135866D01*
X99723970Y-107316815D01*
X99723975Y-107316821D01*
X99880178Y-107473024D01*
X99880184Y-107473029D01*
X100061133Y-107599731D01*
X100061135Y-107599732D01*
X100061138Y-107599734D01*
X100190581Y-107660094D01*
X100243020Y-107706266D01*
X100262172Y-107773460D01*
X100241956Y-107840341D01*
X100190581Y-107884858D01*
X100061386Y-107945103D01*
X99996612Y-107990457D01*
X99996611Y-107990458D01*
X100525523Y-108519370D01*
X100559008Y-108580693D01*
X100554024Y-108650385D01*
X100512152Y-108706318D01*
X100496859Y-108716106D01*
X100457549Y-108737379D01*
X100457548Y-108737379D01*
X100371426Y-108830933D01*
X100371426Y-108830934D01*
X100370711Y-108832565D01*
X100369140Y-108834433D01*
X100365808Y-108839534D01*
X100365191Y-108839131D01*
X100325752Y-108886049D01*
X100259015Y-108906735D01*
X100191688Y-108888057D01*
X100169477Y-108870430D01*
X99643058Y-108344011D01*
X99643057Y-108344012D01*
X99597703Y-108408786D01*
X99504379Y-108608920D01*
X99504375Y-108608929D01*
X99447226Y-108822213D01*
X99447224Y-108822223D01*
X99427979Y-109042199D01*
X99427979Y-109042200D01*
X99447224Y-109262176D01*
X99447226Y-109262186D01*
X99504375Y-109475470D01*
X99504380Y-109475484D01*
X99597699Y-109675607D01*
X99597700Y-109675609D01*
X99643058Y-109740387D01*
X100171850Y-109211595D01*
X100233173Y-109178110D01*
X100302864Y-109183094D01*
X100358798Y-109224965D01*
X100363339Y-109231454D01*
X100410613Y-109303812D01*
X100510957Y-109381913D01*
X100510960Y-109381914D01*
X100511311Y-109382187D01*
X100552124Y-109438897D01*
X100555799Y-109508670D01*
X100522830Y-109567722D01*
X99996611Y-110093941D01*
X100061382Y-110139294D01*
X100061392Y-110139300D01*
X100261515Y-110232619D01*
X100261529Y-110232624D01*
X100474813Y-110289773D01*
X100474823Y-110289775D01*
X100694799Y-110309021D01*
X100694801Y-110309021D01*
X100914776Y-110289775D01*
X100914786Y-110289773D01*
X101128070Y-110232624D01*
X101128084Y-110232619D01*
X101328208Y-110139300D01*
X101328220Y-110139293D01*
X101392986Y-110093942D01*
X101392987Y-110093940D01*
X100864076Y-109565029D01*
X100830591Y-109503706D01*
X100835575Y-109434014D01*
X100877447Y-109378081D01*
X100892733Y-109368297D01*
X100932051Y-109347020D01*
X101018171Y-109253469D01*
X101018883Y-109251843D01*
X101020452Y-109249977D01*
X101023792Y-109244866D01*
X101024409Y-109245269D01*
X101063836Y-109198358D01*
X101130570Y-109177664D01*
X101197899Y-109196335D01*
X101220122Y-109213969D01*
X101746540Y-109740387D01*
X101746542Y-109740386D01*
X101791893Y-109675620D01*
X101791900Y-109675608D01*
X101885219Y-109475484D01*
X101885224Y-109475470D01*
X101942373Y-109262186D01*
X101942375Y-109262176D01*
X101961621Y-109042200D01*
X101961621Y-109042199D01*
X101942375Y-108822223D01*
X101942373Y-108822213D01*
X101885224Y-108608929D01*
X101885220Y-108608920D01*
X101791898Y-108408790D01*
X101746540Y-108344011D01*
X101217749Y-108872802D01*
X101156426Y-108906287D01*
X101086734Y-108901303D01*
X101030801Y-108859431D01*
X101026260Y-108852943D01*
X100978989Y-108780591D01*
X100978987Y-108780588D01*
X100978986Y-108780588D01*
X100878643Y-108702487D01*
X100878640Y-108702485D01*
X100878288Y-108702212D01*
X100837475Y-108645501D01*
X100833800Y-108575729D01*
X100866769Y-108516677D01*
X101392987Y-107990458D01*
X101328209Y-107945100D01*
X101328207Y-107945099D01*
X101199019Y-107884858D01*
X101146579Y-107838686D01*
X101127427Y-107771493D01*
X101147643Y-107704611D01*
X101199019Y-107660094D01*
X101328462Y-107599734D01*
X101509420Y-107473026D01*
X101665626Y-107316820D01*
X101792334Y-107135862D01*
X101885694Y-106935650D01*
X101942870Y-106722268D01*
X101962123Y-106502202D01*
X122227477Y-106502202D01*
X122246729Y-106722262D01*
X122246730Y-106722270D01*
X122303904Y-106935645D01*
X122303905Y-106935647D01*
X122303906Y-106935650D01*
X122324772Y-106980397D01*
X122397266Y-107135862D01*
X122397268Y-107135866D01*
X122523970Y-107316815D01*
X122523975Y-107316821D01*
X122680178Y-107473024D01*
X122680184Y-107473029D01*
X122861133Y-107599731D01*
X122861135Y-107599732D01*
X122861138Y-107599734D01*
X122990581Y-107660094D01*
X123043020Y-107706266D01*
X123062172Y-107773460D01*
X123041956Y-107840341D01*
X122990581Y-107884858D01*
X122861386Y-107945103D01*
X122796612Y-107990457D01*
X122796611Y-107990458D01*
X123325523Y-108519370D01*
X123359008Y-108580693D01*
X123354024Y-108650385D01*
X123312152Y-108706318D01*
X123296859Y-108716106D01*
X123257549Y-108737379D01*
X123257548Y-108737379D01*
X123171426Y-108830933D01*
X123171426Y-108830934D01*
X123170711Y-108832565D01*
X123169140Y-108834433D01*
X123165808Y-108839534D01*
X123165191Y-108839131D01*
X123125752Y-108886049D01*
X123059015Y-108906735D01*
X122991688Y-108888057D01*
X122969477Y-108870430D01*
X122443058Y-108344011D01*
X122443057Y-108344012D01*
X122397703Y-108408786D01*
X122304379Y-108608920D01*
X122304375Y-108608929D01*
X122247226Y-108822213D01*
X122247224Y-108822223D01*
X122227979Y-109042199D01*
X122227979Y-109042200D01*
X122247224Y-109262176D01*
X122247226Y-109262186D01*
X122304375Y-109475470D01*
X122304380Y-109475484D01*
X122397699Y-109675607D01*
X122397700Y-109675609D01*
X122443058Y-109740387D01*
X122971850Y-109211595D01*
X123033173Y-109178110D01*
X123102864Y-109183094D01*
X123158798Y-109224965D01*
X123163339Y-109231454D01*
X123210613Y-109303812D01*
X123310957Y-109381913D01*
X123310960Y-109381914D01*
X123311311Y-109382187D01*
X123352124Y-109438897D01*
X123355799Y-109508670D01*
X123322830Y-109567722D01*
X122796611Y-110093941D01*
X122861382Y-110139294D01*
X122861392Y-110139300D01*
X123061515Y-110232619D01*
X123061529Y-110232624D01*
X123274813Y-110289773D01*
X123274823Y-110289775D01*
X123494799Y-110309021D01*
X123494801Y-110309021D01*
X123714776Y-110289775D01*
X123714786Y-110289773D01*
X123928070Y-110232624D01*
X123928084Y-110232619D01*
X124128208Y-110139300D01*
X124128220Y-110139293D01*
X124192986Y-110093942D01*
X124192987Y-110093940D01*
X123664076Y-109565029D01*
X123630591Y-109503706D01*
X123635575Y-109434014D01*
X123677447Y-109378081D01*
X123692733Y-109368297D01*
X123732051Y-109347020D01*
X123818171Y-109253469D01*
X123818883Y-109251843D01*
X123820452Y-109249977D01*
X123823792Y-109244866D01*
X123824409Y-109245269D01*
X123863836Y-109198358D01*
X123930570Y-109177664D01*
X123997899Y-109196335D01*
X124020122Y-109213969D01*
X124546540Y-109740387D01*
X124546542Y-109740386D01*
X124591893Y-109675620D01*
X124591900Y-109675608D01*
X124685219Y-109475484D01*
X124685224Y-109475470D01*
X124742373Y-109262186D01*
X124742375Y-109262176D01*
X124761621Y-109042200D01*
X124761621Y-109042199D01*
X124742375Y-108822223D01*
X124742373Y-108822213D01*
X124685224Y-108608929D01*
X124685220Y-108608920D01*
X124591898Y-108408790D01*
X124546540Y-108344011D01*
X124017749Y-108872802D01*
X123956426Y-108906287D01*
X123886734Y-108901303D01*
X123830801Y-108859431D01*
X123826260Y-108852943D01*
X123778989Y-108780591D01*
X123778987Y-108780588D01*
X123678643Y-108702487D01*
X123678640Y-108702485D01*
X123678288Y-108702212D01*
X123637475Y-108645501D01*
X123633800Y-108575729D01*
X123666769Y-108516677D01*
X124192987Y-107990458D01*
X124128209Y-107945100D01*
X124128207Y-107945099D01*
X123999019Y-107884858D01*
X123946579Y-107838686D01*
X123927427Y-107771493D01*
X123947643Y-107704611D01*
X123999019Y-107660094D01*
X124128462Y-107599734D01*
X124309420Y-107473026D01*
X124465626Y-107316820D01*
X124592334Y-107135862D01*
X124685694Y-106935650D01*
X124742870Y-106722268D01*
X124762123Y-106502200D01*
X124761663Y-106496945D01*
X124751458Y-106380293D01*
X124742870Y-106282132D01*
X124685694Y-106068750D01*
X124592334Y-105868539D01*
X124465626Y-105687580D01*
X124309420Y-105531374D01*
X124309416Y-105531371D01*
X124309415Y-105531370D01*
X124128466Y-105404668D01*
X124128458Y-105404664D01*
X123999611Y-105344582D01*
X123947171Y-105298410D01*
X123928019Y-105231217D01*
X123948235Y-105164335D01*
X123999611Y-105119818D01*
X124005602Y-105117024D01*
X124128462Y-105059734D01*
X124309420Y-104933026D01*
X124465626Y-104776820D01*
X124592334Y-104595862D01*
X124685694Y-104395650D01*
X124742870Y-104182268D01*
X124762123Y-103962200D01*
X124760200Y-103940225D01*
X124751458Y-103840293D01*
X124742870Y-103742132D01*
X124685694Y-103528750D01*
X124592334Y-103328539D01*
X124465626Y-103147580D01*
X124309420Y-102991374D01*
X124309416Y-102991371D01*
X124309415Y-102991370D01*
X124128466Y-102864668D01*
X124128458Y-102864664D01*
X123999611Y-102804582D01*
X123947171Y-102758410D01*
X123928019Y-102691217D01*
X123948235Y-102624335D01*
X123999611Y-102579818D01*
X124005602Y-102577024D01*
X124128462Y-102519734D01*
X124309420Y-102393026D01*
X124465626Y-102236820D01*
X124592334Y-102055862D01*
X124685694Y-101855650D01*
X124742870Y-101642268D01*
X124762123Y-101422200D01*
X124761663Y-101416945D01*
X124751458Y-101300293D01*
X124742870Y-101202132D01*
X124685694Y-100988750D01*
X124592334Y-100788539D01*
X124465626Y-100607580D01*
X124309420Y-100451374D01*
X124309416Y-100451371D01*
X124309415Y-100451370D01*
X124128466Y-100324668D01*
X124128458Y-100324664D01*
X123999611Y-100264582D01*
X123947171Y-100218410D01*
X123928019Y-100151217D01*
X123948235Y-100084335D01*
X123999611Y-100039818D01*
X124005602Y-100037024D01*
X124128462Y-99979734D01*
X124309420Y-99853026D01*
X124465626Y-99696820D01*
X124592334Y-99515862D01*
X124685694Y-99315650D01*
X124742870Y-99102268D01*
X124762123Y-98882200D01*
X124760200Y-98860225D01*
X124751458Y-98760293D01*
X124742870Y-98662132D01*
X124685694Y-98448750D01*
X124592334Y-98248539D01*
X124522377Y-98148630D01*
X124465627Y-98067581D01*
X124429323Y-98031277D01*
X124309420Y-97911374D01*
X124309416Y-97911371D01*
X124309415Y-97911370D01*
X124128466Y-97784668D01*
X124128458Y-97784664D01*
X123999611Y-97724582D01*
X123947171Y-97678410D01*
X123928019Y-97611217D01*
X123948235Y-97544335D01*
X123999611Y-97499818D01*
X124005602Y-97497024D01*
X124128462Y-97439734D01*
X124309420Y-97313026D01*
X124465626Y-97156820D01*
X124592334Y-96975862D01*
X124685694Y-96775650D01*
X124742870Y-96562268D01*
X124760930Y-96355835D01*
X124762123Y-96342202D01*
X124762123Y-96342197D01*
X124749065Y-96192947D01*
X124742870Y-96122132D01*
X124695086Y-95943800D01*
X127765164Y-95943800D01*
X127779851Y-96167891D01*
X127784887Y-96244718D01*
X127784888Y-96244730D01*
X127843718Y-96540483D01*
X127843722Y-96540498D01*
X127940653Y-96826047D01*
X127940662Y-96826068D01*
X128074031Y-97096513D01*
X128074035Y-97096520D01*
X128241573Y-97347259D01*
X128440410Y-97573989D01*
X128667140Y-97772826D01*
X128917879Y-97940364D01*
X128917886Y-97940368D01*
X129188331Y-98073737D01*
X129188336Y-98073739D01*
X129188348Y-98073745D01*
X129473909Y-98170680D01*
X129673851Y-98210451D01*
X129769669Y-98229511D01*
X129769670Y-98229511D01*
X129769680Y-98229513D01*
X130070600Y-98249236D01*
X130371520Y-98229513D01*
X130667291Y-98170680D01*
X130952852Y-98073745D01*
X131223318Y-97940366D01*
X131474061Y-97772825D01*
X131700789Y-97573989D01*
X131899625Y-97347261D01*
X132067166Y-97096518D01*
X132200545Y-96826052D01*
X132297480Y-96540491D01*
X132356313Y-96244720D01*
X132376036Y-95943800D01*
X132356313Y-95642880D01*
X132350859Y-95615463D01*
X132313911Y-95429712D01*
X132297480Y-95347109D01*
X132200545Y-95061548D01*
X132194983Y-95050270D01*
X132067168Y-94791086D01*
X132067164Y-94791079D01*
X131899626Y-94540340D01*
X131700789Y-94313610D01*
X131474059Y-94114773D01*
X131223320Y-93947235D01*
X131223313Y-93947231D01*
X130952868Y-93813862D01*
X130952847Y-93813853D01*
X130667298Y-93716922D01*
X130667292Y-93716920D01*
X130667291Y-93716920D01*
X130667289Y-93716919D01*
X130667283Y-93716918D01*
X130371530Y-93658088D01*
X130371521Y-93658087D01*
X130371520Y-93658087D01*
X130070600Y-93638364D01*
X130070599Y-93638364D01*
X129920139Y-93648225D01*
X129769680Y-93658087D01*
X129769679Y-93658087D01*
X129769669Y-93658088D01*
X129473916Y-93716918D01*
X129473901Y-93716922D01*
X129188352Y-93813853D01*
X129188331Y-93813862D01*
X128917886Y-93947231D01*
X128917879Y-93947235D01*
X128667140Y-94114773D01*
X128440410Y-94313610D01*
X128241573Y-94540340D01*
X128074035Y-94791079D01*
X128074031Y-94791086D01*
X127940662Y-95061531D01*
X127940653Y-95061552D01*
X127843722Y-95347101D01*
X127843718Y-95347116D01*
X127784888Y-95642869D01*
X127784887Y-95642879D01*
X127784887Y-95642880D01*
X127765164Y-95943800D01*
X124695086Y-95943800D01*
X124685694Y-95908750D01*
X124592334Y-95708539D01*
X124501459Y-95578755D01*
X124465627Y-95527581D01*
X124427102Y-95489056D01*
X124309420Y-95371374D01*
X124309416Y-95371371D01*
X124309415Y-95371370D01*
X124128466Y-95244668D01*
X124128458Y-95244664D01*
X123999611Y-95184582D01*
X123947171Y-95138410D01*
X123928019Y-95071217D01*
X123948235Y-95004335D01*
X123999611Y-94959818D01*
X124005602Y-94957024D01*
X124128462Y-94899734D01*
X124309420Y-94773026D01*
X124465626Y-94616820D01*
X124592334Y-94435862D01*
X124685694Y-94235650D01*
X124742870Y-94022268D01*
X124762123Y-93802200D01*
X124760200Y-93780225D01*
X124749515Y-93658087D01*
X124742870Y-93582132D01*
X124685694Y-93368750D01*
X124592334Y-93168539D01*
X124465626Y-92987580D01*
X124309420Y-92831374D01*
X124309416Y-92831371D01*
X124309415Y-92831370D01*
X124128466Y-92704668D01*
X124128458Y-92704664D01*
X123999611Y-92644582D01*
X123947171Y-92598410D01*
X123928019Y-92531217D01*
X123948235Y-92464335D01*
X123999611Y-92419818D01*
X124005602Y-92417024D01*
X124128462Y-92359734D01*
X124309420Y-92233026D01*
X124465626Y-92076820D01*
X124592334Y-91895862D01*
X124685694Y-91695650D01*
X124742870Y-91482268D01*
X124762123Y-91262200D01*
X124761663Y-91256945D01*
X124750758Y-91132293D01*
X124742870Y-91042132D01*
X124686348Y-90831190D01*
X124688011Y-90761342D01*
X124727173Y-90703479D01*
X124791402Y-90675975D01*
X124860304Y-90687561D01*
X124898273Y-90716126D01*
X124920929Y-90741288D01*
X125074065Y-90852548D01*
X125074070Y-90852551D01*
X125246992Y-90929542D01*
X125246997Y-90929544D01*
X125432154Y-90968900D01*
X125432155Y-90968900D01*
X125621444Y-90968900D01*
X125621446Y-90968900D01*
X125806603Y-90929544D01*
X125979530Y-90852551D01*
X126132671Y-90741288D01*
X126259333Y-90600616D01*
X126300389Y-90529502D01*
X126302887Y-90525534D01*
X126668735Y-89990832D01*
X126683383Y-89973183D01*
X131508421Y-85148145D01*
X131569742Y-85114662D01*
X131639434Y-85119646D01*
X131695367Y-85161518D01*
X131719784Y-85226982D01*
X131720100Y-85235828D01*
X131720100Y-85911670D01*
X131720101Y-85911676D01*
X131726508Y-85971283D01*
X131776802Y-86106128D01*
X131776806Y-86106135D01*
X131863052Y-86221344D01*
X131863055Y-86221347D01*
X131978264Y-86307593D01*
X131978271Y-86307597D01*
X131996243Y-86314300D01*
X132110198Y-86356802D01*
X132166131Y-86398673D01*
X132190549Y-86464137D01*
X132175698Y-86532410D01*
X132154547Y-86560665D01*
X132032486Y-86682726D01*
X131897000Y-86876220D01*
X131896999Y-86876222D01*
X131797170Y-87090307D01*
X131797167Y-87090313D01*
X131739964Y-87303799D01*
X131739964Y-87303800D01*
X132457253Y-87303800D01*
X132524292Y-87323485D01*
X132570047Y-87376289D01*
X132579991Y-87445447D01*
X132576231Y-87462733D01*
X132570600Y-87481911D01*
X132570600Y-87625688D01*
X132576231Y-87644867D01*
X132576230Y-87714736D01*
X132538455Y-87773514D01*
X132474899Y-87802538D01*
X132457253Y-87803800D01*
X131739964Y-87803800D01*
X131797167Y-88017286D01*
X131797170Y-88017292D01*
X131896999Y-88231378D01*
X132032494Y-88424882D01*
X132199517Y-88591905D01*
X132385195Y-88721919D01*
X132428819Y-88776496D01*
X132436012Y-88845995D01*
X132404490Y-88908349D01*
X132385195Y-88925069D01*
X132199194Y-89055308D01*
X132032105Y-89222397D01*
X131896565Y-89415969D01*
X131896564Y-89415971D01*
X131796698Y-89630135D01*
X131796694Y-89630144D01*
X131735538Y-89858386D01*
X131735536Y-89858396D01*
X131714941Y-90093799D01*
X131714941Y-90093800D01*
X131735536Y-90329203D01*
X131735538Y-90329213D01*
X131796694Y-90557455D01*
X131796696Y-90557459D01*
X131796697Y-90557463D01*
X131829841Y-90628540D01*
X131896565Y-90771630D01*
X131896567Y-90771634D01*
X132004881Y-90926321D01*
X132016700Y-90943201D01*
X132032101Y-90965195D01*
X132032106Y-90965202D01*
X132199197Y-91132293D01*
X132199203Y-91132298D01*
X132384758Y-91262225D01*
X132428383Y-91316802D01*
X132435577Y-91386300D01*
X132404054Y-91448655D01*
X132384758Y-91465375D01*
X132199197Y-91595305D01*
X132032105Y-91762397D01*
X131896565Y-91955969D01*
X131896564Y-91955971D01*
X131796698Y-92170135D01*
X131796694Y-92170144D01*
X131735538Y-92398386D01*
X131735536Y-92398396D01*
X131714941Y-92633799D01*
X131714941Y-92633800D01*
X131735536Y-92869203D01*
X131735538Y-92869213D01*
X131796694Y-93097455D01*
X131796696Y-93097459D01*
X131796697Y-93097463D01*
X131829841Y-93168540D01*
X131896565Y-93311630D01*
X131896567Y-93311634D01*
X132004881Y-93466321D01*
X132032105Y-93505201D01*
X132199199Y-93672295D01*
X132262927Y-93716918D01*
X132392765Y-93807832D01*
X132392767Y-93807833D01*
X132392770Y-93807835D01*
X132606937Y-93907703D01*
X132835192Y-93968863D01*
X133023518Y-93985339D01*
X133070599Y-93989459D01*
X133070600Y-93989459D01*
X133070601Y-93989459D01*
X133109834Y-93986026D01*
X133306008Y-93968863D01*
X133534263Y-93907703D01*
X133748430Y-93807835D01*
X133942001Y-93672295D01*
X134109095Y-93505201D01*
X134244635Y-93311630D01*
X134344503Y-93097463D01*
X134405663Y-92869208D01*
X134412975Y-92785623D01*
X134438427Y-92720557D01*
X134495018Y-92679579D01*
X134564780Y-92675700D01*
X134624184Y-92708752D01*
X141054667Y-99139234D01*
X141066448Y-99152866D01*
X141080790Y-99172130D01*
X141120820Y-99205719D01*
X141124792Y-99209359D01*
X141130623Y-99215190D01*
X141130622Y-99215190D01*
X141152427Y-99232430D01*
X141156344Y-99235527D01*
X141215186Y-99284902D01*
X141215194Y-99284906D01*
X141221224Y-99288873D01*
X141221190Y-99288923D01*
X141227537Y-99292966D01*
X141227569Y-99292916D01*
X141233718Y-99296708D01*
X141233720Y-99296709D01*
X141233723Y-99296711D01*
X141303330Y-99329169D01*
X141371967Y-99363640D01*
X141371976Y-99363642D01*
X141378755Y-99366110D01*
X141378734Y-99366167D01*
X141385851Y-99368640D01*
X141385870Y-99368584D01*
X141392730Y-99370857D01*
X141467931Y-99386384D01*
X141467932Y-99386384D01*
X141542679Y-99404100D01*
X141542688Y-99404100D01*
X141549852Y-99404938D01*
X141549845Y-99404997D01*
X141557346Y-99405763D01*
X141557352Y-99405704D01*
X141564540Y-99406333D01*
X141564543Y-99406332D01*
X141564544Y-99406333D01*
X141641298Y-99404100D01*
X144879076Y-99404100D01*
X144897046Y-99405409D01*
X144920804Y-99408889D01*
X144972849Y-99404335D01*
X144978251Y-99404100D01*
X144986485Y-99404100D01*
X144986490Y-99404100D01*
X144998108Y-99402741D01*
X145019057Y-99400293D01*
X145031809Y-99399177D01*
X145095578Y-99393599D01*
X145095586Y-99393596D01*
X145102647Y-99392139D01*
X145102659Y-99392198D01*
X145110024Y-99390565D01*
X145110010Y-99390506D01*
X145117027Y-99388841D01*
X145117036Y-99388841D01*
X145189204Y-99362574D01*
X145262115Y-99338414D01*
X145262124Y-99338407D01*
X145268663Y-99335360D01*
X145268689Y-99335416D01*
X145275471Y-99332132D01*
X145275444Y-99332078D01*
X145281887Y-99328840D01*
X145281898Y-99328837D01*
X145346064Y-99286634D01*
X145411437Y-99246312D01*
X145411443Y-99246305D01*
X145417106Y-99241829D01*
X145417144Y-99241877D01*
X145422981Y-99237122D01*
X145422942Y-99237075D01*
X145428477Y-99232430D01*
X145481166Y-99176583D01*
X148290803Y-96366945D01*
X149228042Y-95429705D01*
X149241671Y-95417928D01*
X149260930Y-95403591D01*
X149294501Y-95363582D01*
X149298161Y-95359587D01*
X149303990Y-95353759D01*
X149309243Y-95347116D01*
X149324340Y-95328021D01*
X149373702Y-95269195D01*
X149373706Y-95269186D01*
X149377674Y-95263156D01*
X149377725Y-95263189D01*
X149381772Y-95256837D01*
X149381720Y-95256805D01*
X149385512Y-95250656D01*
X149417975Y-95181039D01*
X149439384Y-95138410D01*
X149452440Y-95112414D01*
X149452442Y-95112402D01*
X149454909Y-95105627D01*
X149454967Y-95105648D01*
X149457443Y-95098527D01*
X149457386Y-95098508D01*
X149459655Y-95091661D01*
X149459656Y-95091656D01*
X149459657Y-95091654D01*
X149475191Y-95016418D01*
X149492900Y-94941702D01*
X149492900Y-94941700D01*
X149493739Y-94934529D01*
X149493798Y-94934535D01*
X149494564Y-94927035D01*
X149494505Y-94927030D01*
X149495134Y-94919840D01*
X149495033Y-94916386D01*
X149492900Y-94843063D01*
X149492900Y-74458300D01*
X149512585Y-74391261D01*
X149565389Y-74345506D01*
X149616900Y-74334300D01*
X149908402Y-74334300D01*
X149975441Y-74353985D01*
X150021196Y-74406789D01*
X150031140Y-74475947D01*
X150028177Y-74490393D01*
X149991738Y-74626386D01*
X149991736Y-74626396D01*
X149971141Y-74861799D01*
X149971141Y-74861800D01*
X149991736Y-75097203D01*
X149991738Y-75097213D01*
X150052894Y-75325455D01*
X150052896Y-75325459D01*
X150052897Y-75325463D01*
X150138776Y-75509630D01*
X150152765Y-75539630D01*
X150152767Y-75539634D01*
X150261081Y-75694321D01*
X150267299Y-75703202D01*
X150288301Y-75733195D01*
X150288306Y-75733202D01*
X150455397Y-75900293D01*
X150455403Y-75900298D01*
X150640958Y-76030225D01*
X150684583Y-76084802D01*
X150691777Y-76154300D01*
X150660254Y-76216655D01*
X150640958Y-76233375D01*
X150455397Y-76363305D01*
X150288305Y-76530397D01*
X150152765Y-76723969D01*
X150152764Y-76723971D01*
X150052898Y-76938135D01*
X150052894Y-76938144D01*
X149991738Y-77166386D01*
X149991736Y-77166396D01*
X149971141Y-77401799D01*
X149971141Y-77401800D01*
X149991736Y-77637203D01*
X149991738Y-77637213D01*
X150052894Y-77865455D01*
X150052896Y-77865459D01*
X150052897Y-77865463D01*
X150138776Y-78049630D01*
X150152765Y-78079630D01*
X150152767Y-78079634D01*
X150261081Y-78234321D01*
X150267299Y-78243202D01*
X150288301Y-78273195D01*
X150288306Y-78273202D01*
X150455397Y-78440293D01*
X150455403Y-78440298D01*
X150640958Y-78570225D01*
X150684583Y-78624802D01*
X150691777Y-78694300D01*
X150660254Y-78756655D01*
X150640958Y-78773375D01*
X150455397Y-78903305D01*
X150288305Y-79070397D01*
X150152765Y-79263969D01*
X150152764Y-79263971D01*
X150052898Y-79478135D01*
X150052894Y-79478144D01*
X149991738Y-79706386D01*
X149991736Y-79706396D01*
X149971141Y-79941799D01*
X149971141Y-79941800D01*
X149991736Y-80177203D01*
X149991738Y-80177213D01*
X150052894Y-80405455D01*
X150052896Y-80405459D01*
X150052897Y-80405463D01*
X150138776Y-80589630D01*
X150152765Y-80619630D01*
X150152767Y-80619634D01*
X150182104Y-80661531D01*
X150267299Y-80783202D01*
X150288301Y-80813195D01*
X150288306Y-80813202D01*
X150455397Y-80980293D01*
X150455403Y-80980298D01*
X150640958Y-81110225D01*
X150684583Y-81164802D01*
X150691777Y-81234300D01*
X150660254Y-81296655D01*
X150640958Y-81313375D01*
X150455397Y-81443305D01*
X150288305Y-81610397D01*
X150152765Y-81803969D01*
X150152764Y-81803971D01*
X150052898Y-82018135D01*
X150052894Y-82018144D01*
X149991738Y-82246386D01*
X149991736Y-82246396D01*
X149971141Y-82481799D01*
X149971141Y-82481800D01*
X149991736Y-82717203D01*
X149991738Y-82717213D01*
X150052894Y-82945455D01*
X150052896Y-82945459D01*
X150052897Y-82945463D01*
X150110250Y-83068456D01*
X150152765Y-83159630D01*
X150152767Y-83159634D01*
X150214976Y-83248477D01*
X150267299Y-83323202D01*
X150288301Y-83353195D01*
X150288306Y-83353202D01*
X150455397Y-83520293D01*
X150455403Y-83520298D01*
X150640958Y-83650225D01*
X150684583Y-83704802D01*
X150691777Y-83774300D01*
X150660254Y-83836655D01*
X150640958Y-83853375D01*
X150455397Y-83983305D01*
X150288305Y-84150397D01*
X150152765Y-84343969D01*
X150152764Y-84343971D01*
X150052898Y-84558135D01*
X150052894Y-84558144D01*
X149991738Y-84786386D01*
X149991736Y-84786396D01*
X149971141Y-85021799D01*
X149971141Y-85021800D01*
X149991736Y-85257203D01*
X149991738Y-85257213D01*
X150052894Y-85485455D01*
X150052896Y-85485459D01*
X150052897Y-85485463D01*
X150138776Y-85669630D01*
X150152765Y-85699630D01*
X150152767Y-85699634D01*
X150174126Y-85730137D01*
X150267299Y-85863202D01*
X150288301Y-85893195D01*
X150288306Y-85893202D01*
X150455397Y-86060293D01*
X150455403Y-86060298D01*
X150640958Y-86190225D01*
X150684583Y-86244802D01*
X150691777Y-86314300D01*
X150660254Y-86376655D01*
X150640958Y-86393375D01*
X150455397Y-86523305D01*
X150288305Y-86690397D01*
X150152765Y-86883969D01*
X150152764Y-86883971D01*
X150052898Y-87098135D01*
X150052894Y-87098144D01*
X149991738Y-87326386D01*
X149991736Y-87326396D01*
X149971141Y-87561799D01*
X149971141Y-87561800D01*
X149991736Y-87797203D01*
X149991738Y-87797213D01*
X150052894Y-88025455D01*
X150052896Y-88025459D01*
X150052897Y-88025463D01*
X150138776Y-88209630D01*
X150152765Y-88239630D01*
X150152767Y-88239634D01*
X150174126Y-88270137D01*
X150267299Y-88403202D01*
X150288301Y-88433195D01*
X150288306Y-88433202D01*
X150455397Y-88600293D01*
X150455403Y-88600298D01*
X150640958Y-88730225D01*
X150684583Y-88784802D01*
X150691777Y-88854300D01*
X150660254Y-88916655D01*
X150640958Y-88933375D01*
X150455397Y-89063305D01*
X150288305Y-89230397D01*
X150152765Y-89423969D01*
X150152764Y-89423971D01*
X150068258Y-89605195D01*
X150056628Y-89630137D01*
X150052898Y-89638135D01*
X150052894Y-89638144D01*
X149991738Y-89866386D01*
X149991736Y-89866396D01*
X149971141Y-90101799D01*
X149971141Y-90101800D01*
X149991736Y-90337203D01*
X149991738Y-90337213D01*
X150052894Y-90565455D01*
X150052896Y-90565459D01*
X150052897Y-90565463D01*
X150117255Y-90703479D01*
X150152765Y-90779630D01*
X150152767Y-90779634D01*
X150207557Y-90857881D01*
X150285293Y-90968900D01*
X150288301Y-90973195D01*
X150288306Y-90973202D01*
X150455397Y-91140293D01*
X150455403Y-91140298D01*
X150640958Y-91270225D01*
X150684583Y-91324802D01*
X150691777Y-91394300D01*
X150660254Y-91456655D01*
X150640958Y-91473375D01*
X150455397Y-91603305D01*
X150288305Y-91770397D01*
X150152765Y-91963969D01*
X150152764Y-91963971D01*
X150068258Y-92145195D01*
X150056628Y-92170137D01*
X150052898Y-92178135D01*
X150052894Y-92178144D01*
X149991738Y-92406386D01*
X149991736Y-92406396D01*
X149971141Y-92641799D01*
X149971141Y-92641800D01*
X149991736Y-92877203D01*
X149991738Y-92877213D01*
X150052894Y-93105455D01*
X150052896Y-93105459D01*
X150052897Y-93105463D01*
X150138776Y-93289630D01*
X150152765Y-93319630D01*
X150152767Y-93319634D01*
X150261081Y-93474321D01*
X150267299Y-93483202D01*
X150288301Y-93513195D01*
X150288306Y-93513202D01*
X150455397Y-93680293D01*
X150455403Y-93680298D01*
X150640958Y-93810225D01*
X150684583Y-93864802D01*
X150691777Y-93934300D01*
X150660254Y-93996655D01*
X150640958Y-94013375D01*
X150455397Y-94143305D01*
X150288305Y-94310397D01*
X150152765Y-94503969D01*
X150152764Y-94503971D01*
X150094970Y-94627911D01*
X150057583Y-94708089D01*
X150052898Y-94718135D01*
X150052894Y-94718144D01*
X149991738Y-94946386D01*
X149991736Y-94946396D01*
X149971141Y-95181799D01*
X149971141Y-95181800D01*
X149991736Y-95417203D01*
X149991738Y-95417213D01*
X150052894Y-95645455D01*
X150052896Y-95645459D01*
X150052897Y-95645463D01*
X150111131Y-95770346D01*
X150152765Y-95859630D01*
X150152767Y-95859634D01*
X150232629Y-95973688D01*
X150267299Y-96023202D01*
X150288301Y-96053195D01*
X150288306Y-96053202D01*
X150455397Y-96220293D01*
X150455403Y-96220298D01*
X150640958Y-96350225D01*
X150684583Y-96404802D01*
X150691777Y-96474300D01*
X150660254Y-96536655D01*
X150640958Y-96553375D01*
X150455397Y-96683305D01*
X150288305Y-96850397D01*
X150152765Y-97043969D01*
X150152764Y-97043971D01*
X150052898Y-97258135D01*
X150052894Y-97258144D01*
X149991738Y-97486386D01*
X149991736Y-97486396D01*
X149971141Y-97721799D01*
X149971141Y-97721800D01*
X149991736Y-97957203D01*
X149991738Y-97957213D01*
X150052894Y-98185455D01*
X150052896Y-98185459D01*
X150052897Y-98185463D01*
X150109156Y-98306111D01*
X150152765Y-98399630D01*
X150152767Y-98399634D01*
X150239949Y-98524142D01*
X150267299Y-98563202D01*
X150288301Y-98593195D01*
X150288306Y-98593202D01*
X150455397Y-98760293D01*
X150455403Y-98760298D01*
X150640958Y-98890225D01*
X150684583Y-98944802D01*
X150691777Y-99014300D01*
X150660254Y-99076655D01*
X150640958Y-99093375D01*
X150455397Y-99223305D01*
X150288305Y-99390397D01*
X150152765Y-99583969D01*
X150152764Y-99583971D01*
X150052898Y-99798135D01*
X150052894Y-99798144D01*
X149991738Y-100026386D01*
X149991736Y-100026396D01*
X149971141Y-100261799D01*
X149971141Y-100261800D01*
X149991736Y-100497203D01*
X149991738Y-100497213D01*
X150052894Y-100725455D01*
X150052896Y-100725459D01*
X150052897Y-100725463D01*
X150138776Y-100909630D01*
X150152765Y-100939630D01*
X150152767Y-100939634D01*
X150261081Y-101094321D01*
X150267299Y-101103202D01*
X150288301Y-101133195D01*
X150288306Y-101133202D01*
X150455397Y-101300293D01*
X150455403Y-101300298D01*
X150640958Y-101430225D01*
X150684583Y-101484802D01*
X150691777Y-101554300D01*
X150660254Y-101616655D01*
X150640958Y-101633375D01*
X150455397Y-101763305D01*
X150288305Y-101930397D01*
X150152765Y-102123969D01*
X150152764Y-102123971D01*
X150052898Y-102338135D01*
X150052894Y-102338144D01*
X149991738Y-102566386D01*
X149991736Y-102566396D01*
X149971141Y-102801799D01*
X149971141Y-102801800D01*
X149991736Y-103037203D01*
X149991738Y-103037213D01*
X150052894Y-103265455D01*
X150052896Y-103265459D01*
X150052897Y-103265463D01*
X150138776Y-103449630D01*
X150152765Y-103479630D01*
X150152767Y-103479634D01*
X150261081Y-103634321D01*
X150267299Y-103643202D01*
X150288301Y-103673195D01*
X150288306Y-103673202D01*
X150455397Y-103840293D01*
X150455403Y-103840298D01*
X150640958Y-103970225D01*
X150684583Y-104024802D01*
X150691777Y-104094300D01*
X150660254Y-104156655D01*
X150640958Y-104173375D01*
X150455397Y-104303305D01*
X150288305Y-104470397D01*
X150152765Y-104663969D01*
X150152764Y-104663971D01*
X150052898Y-104878135D01*
X150052894Y-104878144D01*
X149991738Y-105106386D01*
X149991736Y-105106396D01*
X149971141Y-105341799D01*
X149971141Y-105341800D01*
X149991736Y-105577203D01*
X149991738Y-105577213D01*
X150052894Y-105805455D01*
X150052896Y-105805459D01*
X150052897Y-105805463D01*
X150138776Y-105989630D01*
X150152765Y-106019630D01*
X150152767Y-106019634D01*
X150261081Y-106174321D01*
X150267299Y-106183202D01*
X150288301Y-106213195D01*
X150288306Y-106213202D01*
X150455397Y-106380293D01*
X150455403Y-106380298D01*
X150640958Y-106510225D01*
X150684583Y-106564802D01*
X150691777Y-106634300D01*
X150660254Y-106696655D01*
X150640958Y-106713375D01*
X150455397Y-106843305D01*
X150288305Y-107010397D01*
X150152765Y-107203969D01*
X150152764Y-107203971D01*
X150052898Y-107418135D01*
X150052894Y-107418144D01*
X149991738Y-107646386D01*
X149991736Y-107646396D01*
X149971141Y-107881799D01*
X149971141Y-107881800D01*
X149991736Y-108117203D01*
X149991738Y-108117213D01*
X150052894Y-108345455D01*
X150052896Y-108345459D01*
X150052897Y-108345463D01*
X150082425Y-108408786D01*
X150152765Y-108559630D01*
X150152767Y-108559634D01*
X150216312Y-108650385D01*
X150288305Y-108753201D01*
X150455399Y-108920295D01*
X150494076Y-108947377D01*
X150648965Y-109055832D01*
X150648967Y-109055833D01*
X150648970Y-109055835D01*
X150863137Y-109155703D01*
X151091392Y-109216863D01*
X151258176Y-109231455D01*
X151326799Y-109237459D01*
X151326800Y-109237459D01*
X151326801Y-109237459D01*
X151395424Y-109231455D01*
X151562208Y-109216863D01*
X151790463Y-109155703D01*
X152004630Y-109055835D01*
X152198201Y-108920295D01*
X152365295Y-108753201D01*
X152500835Y-108559630D01*
X152600703Y-108345463D01*
X152661863Y-108117208D01*
X152682459Y-107881800D01*
X152661863Y-107646392D01*
X152600703Y-107418137D01*
X152500835Y-107203971D01*
X152479828Y-107173969D01*
X152365294Y-107010397D01*
X152198202Y-106843306D01*
X152198196Y-106843301D01*
X152012642Y-106713375D01*
X151969017Y-106658798D01*
X151961823Y-106589300D01*
X151993346Y-106526945D01*
X152012642Y-106510225D01*
X152055486Y-106480225D01*
X152198201Y-106380295D01*
X152365295Y-106213201D01*
X152500835Y-106019630D01*
X152600703Y-105805463D01*
X152661863Y-105577208D01*
X152682459Y-105341800D01*
X152661863Y-105106392D01*
X152600703Y-104878137D01*
X152500835Y-104663971D01*
X152479828Y-104633969D01*
X152365294Y-104470397D01*
X152198202Y-104303306D01*
X152198196Y-104303301D01*
X152012642Y-104173375D01*
X151969017Y-104118798D01*
X151961823Y-104049300D01*
X151993346Y-103986945D01*
X152012642Y-103970225D01*
X152055488Y-103940224D01*
X152198201Y-103840295D01*
X152365295Y-103673201D01*
X152500835Y-103479630D01*
X152600703Y-103265463D01*
X152661863Y-103037208D01*
X152682459Y-102801800D01*
X152661863Y-102566392D01*
X152600703Y-102338137D01*
X152500835Y-102123971D01*
X152479828Y-102093969D01*
X152365294Y-101930397D01*
X152198202Y-101763306D01*
X152198196Y-101763301D01*
X152012642Y-101633375D01*
X151969017Y-101578798D01*
X151961823Y-101509300D01*
X151993346Y-101446945D01*
X152012642Y-101430225D01*
X152055486Y-101400225D01*
X152198201Y-101300295D01*
X152365295Y-101133201D01*
X152500835Y-100939630D01*
X152600703Y-100725463D01*
X152661863Y-100497208D01*
X152682459Y-100261800D01*
X152661863Y-100026392D01*
X152600703Y-99798137D01*
X152500835Y-99583971D01*
X152479828Y-99553969D01*
X152365294Y-99390397D01*
X152198202Y-99223306D01*
X152198196Y-99223301D01*
X152012642Y-99093375D01*
X151969017Y-99038798D01*
X151961823Y-98969300D01*
X151993346Y-98906945D01*
X152012642Y-98890225D01*
X152055488Y-98860224D01*
X152198201Y-98760295D01*
X152365295Y-98593201D01*
X152500835Y-98399630D01*
X152600703Y-98185463D01*
X152661863Y-97957208D01*
X152682459Y-97721800D01*
X152661863Y-97486392D01*
X152600703Y-97258137D01*
X152500835Y-97043971D01*
X152489652Y-97027999D01*
X152365294Y-96850397D01*
X152198202Y-96683306D01*
X152198196Y-96683301D01*
X152012642Y-96553375D01*
X151969017Y-96498798D01*
X151961823Y-96429300D01*
X151993346Y-96366945D01*
X152012642Y-96350225D01*
X152055486Y-96320225D01*
X152198201Y-96220295D01*
X152365295Y-96053201D01*
X152500835Y-95859630D01*
X152600703Y-95645463D01*
X152661863Y-95417208D01*
X152682459Y-95181800D01*
X152682392Y-95181039D01*
X152674572Y-95091654D01*
X152661863Y-94946392D01*
X152601730Y-94721970D01*
X152600705Y-94718144D01*
X152600704Y-94718143D01*
X152600703Y-94718137D01*
X152500835Y-94503971D01*
X152479828Y-94473969D01*
X152365294Y-94310397D01*
X152198202Y-94143306D01*
X152198196Y-94143301D01*
X152012642Y-94013375D01*
X151969017Y-93958798D01*
X151961823Y-93889300D01*
X151993346Y-93826945D01*
X152012642Y-93810225D01*
X152145895Y-93716920D01*
X152198201Y-93680295D01*
X152365295Y-93513201D01*
X152500835Y-93319630D01*
X152600703Y-93105463D01*
X152661863Y-92877208D01*
X152682459Y-92641800D01*
X152661863Y-92406392D01*
X152600703Y-92178137D01*
X152500835Y-91963971D01*
X152495234Y-91955971D01*
X152365294Y-91770397D01*
X152198202Y-91603306D01*
X152198196Y-91603301D01*
X152012642Y-91473375D01*
X151969017Y-91418798D01*
X151961823Y-91349300D01*
X151993346Y-91286945D01*
X152012642Y-91270225D01*
X152055486Y-91240225D01*
X152198201Y-91140295D01*
X152365295Y-90973201D01*
X152500835Y-90779630D01*
X152600703Y-90565463D01*
X152661863Y-90337208D01*
X152682459Y-90101800D01*
X152661863Y-89866392D01*
X152600703Y-89638137D01*
X152500835Y-89423971D01*
X152495234Y-89415971D01*
X152365294Y-89230397D01*
X152198202Y-89063306D01*
X152198196Y-89063301D01*
X152012642Y-88933375D01*
X151969017Y-88878798D01*
X151961823Y-88809300D01*
X151993346Y-88746945D01*
X152012642Y-88730225D01*
X152055486Y-88700225D01*
X152198201Y-88600295D01*
X152365295Y-88433201D01*
X152500835Y-88239630D01*
X152600703Y-88025463D01*
X152661863Y-87797208D01*
X152682459Y-87561800D01*
X152661863Y-87326392D01*
X152600703Y-87098137D01*
X152500835Y-86883971D01*
X152495410Y-86876222D01*
X152365294Y-86690397D01*
X152198202Y-86523306D01*
X152198196Y-86523301D01*
X152012642Y-86393375D01*
X151969017Y-86338798D01*
X151961823Y-86269300D01*
X151993346Y-86206945D01*
X152012642Y-86190225D01*
X152055486Y-86160225D01*
X152198201Y-86060295D01*
X152365295Y-85893201D01*
X152500835Y-85699630D01*
X152600703Y-85485463D01*
X152661863Y-85257208D01*
X152682459Y-85021800D01*
X152661863Y-84786392D01*
X152600703Y-84558137D01*
X152500835Y-84343971D01*
X152479828Y-84313969D01*
X152365294Y-84150397D01*
X152198202Y-83983306D01*
X152198196Y-83983301D01*
X152012642Y-83853375D01*
X151969017Y-83798798D01*
X151961823Y-83729300D01*
X151993346Y-83666945D01*
X152012642Y-83650225D01*
X152055486Y-83620225D01*
X152198201Y-83520295D01*
X152365295Y-83353201D01*
X152500835Y-83159630D01*
X152600703Y-82945463D01*
X152661863Y-82717208D01*
X152682459Y-82481800D01*
X152661863Y-82246392D01*
X152600703Y-82018137D01*
X152500835Y-81803971D01*
X152479828Y-81773969D01*
X152365294Y-81610397D01*
X152198202Y-81443306D01*
X152198196Y-81443301D01*
X152012642Y-81313375D01*
X151969017Y-81258798D01*
X151961823Y-81189300D01*
X151993346Y-81126945D01*
X152012642Y-81110225D01*
X152055486Y-81080225D01*
X152198201Y-80980295D01*
X152365295Y-80813201D01*
X152500835Y-80619630D01*
X152600703Y-80405463D01*
X152661863Y-80177208D01*
X152682459Y-79941800D01*
X152661863Y-79706392D01*
X152600703Y-79478137D01*
X152500835Y-79263971D01*
X152479828Y-79233969D01*
X152365294Y-79070397D01*
X152198202Y-78903306D01*
X152198196Y-78903301D01*
X152012642Y-78773375D01*
X151969017Y-78718798D01*
X151961823Y-78649300D01*
X151993346Y-78586945D01*
X152012642Y-78570225D01*
X152055486Y-78540225D01*
X152198201Y-78440295D01*
X152365295Y-78273201D01*
X152500835Y-78079630D01*
X152600703Y-77865463D01*
X152661863Y-77637208D01*
X152682459Y-77401800D01*
X152661863Y-77166392D01*
X152600703Y-76938137D01*
X152500835Y-76723971D01*
X152479828Y-76693969D01*
X152365294Y-76530397D01*
X152198202Y-76363306D01*
X152198196Y-76363301D01*
X152012642Y-76233375D01*
X151969017Y-76178798D01*
X151961823Y-76109300D01*
X151993346Y-76046945D01*
X152012642Y-76030225D01*
X152055486Y-76000225D01*
X152198201Y-75900295D01*
X152365295Y-75733201D01*
X152500835Y-75539630D01*
X152600703Y-75325463D01*
X152661863Y-75097208D01*
X152682459Y-74861800D01*
X152661863Y-74626392D01*
X152600703Y-74398137D01*
X152500835Y-74183971D01*
X152479827Y-74153969D01*
X152365296Y-73990400D01*
X152335295Y-73960399D01*
X152243367Y-73868471D01*
X152209884Y-73807151D01*
X152214868Y-73737459D01*
X152256739Y-73681525D01*
X152287715Y-73664610D01*
X152419131Y-73615596D01*
X152534346Y-73529346D01*
X152620596Y-73414131D01*
X152670891Y-73279283D01*
X152677300Y-73219673D01*
X152677299Y-71423928D01*
X152670891Y-71364317D01*
X152659701Y-71334316D01*
X152620597Y-71229471D01*
X152620593Y-71229464D01*
X152534347Y-71114255D01*
X152534344Y-71114252D01*
X152419135Y-71028006D01*
X152419128Y-71028002D01*
X152284282Y-70977708D01*
X152284283Y-70977708D01*
X152224683Y-70971301D01*
X152224681Y-70971300D01*
X152224673Y-70971300D01*
X152224664Y-70971300D01*
X150428929Y-70971300D01*
X150428923Y-70971301D01*
X150369316Y-70977708D01*
X150234471Y-71028002D01*
X150234464Y-71028006D01*
X150119255Y-71114252D01*
X150119252Y-71114255D01*
X150033006Y-71229464D01*
X150033002Y-71229471D01*
X149982708Y-71364317D01*
X149976301Y-71423916D01*
X149976301Y-71423923D01*
X149976300Y-71423935D01*
X149976300Y-71767881D01*
X149964039Y-71821643D01*
X149511091Y-72763062D01*
X149464287Y-72814938D01*
X149399352Y-72833300D01*
X148766041Y-72833300D01*
X148762440Y-72833195D01*
X148698465Y-72829469D01*
X148698462Y-72829469D01*
X148635343Y-72840598D01*
X148631775Y-72841121D01*
X148568150Y-72848558D01*
X148568143Y-72848559D01*
X148557601Y-72852396D01*
X148536735Y-72857986D01*
X148525697Y-72859932D01*
X148525685Y-72859936D01*
X148466850Y-72885314D01*
X148463500Y-72886645D01*
X148403285Y-72908561D01*
X148403281Y-72908563D01*
X148393902Y-72914731D01*
X148374898Y-72924977D01*
X148364604Y-72929418D01*
X148364589Y-72929426D01*
X148313194Y-72967689D01*
X148310241Y-72969757D01*
X148256706Y-73004968D01*
X148249006Y-73013129D01*
X148232869Y-73027489D01*
X148223870Y-73034188D01*
X148182674Y-73083283D01*
X148180278Y-73085976D01*
X148136305Y-73132584D01*
X148130700Y-73142293D01*
X148118309Y-73159991D01*
X148111099Y-73168583D01*
X148082340Y-73225847D01*
X148080629Y-73229020D01*
X148048588Y-73284517D01*
X148048587Y-73284519D01*
X148045368Y-73295270D01*
X148037396Y-73315337D01*
X148032360Y-73325365D01*
X148032359Y-73325369D01*
X148017582Y-73387712D01*
X148016649Y-73391193D01*
X147998269Y-73452592D01*
X147997617Y-73463790D01*
X147994487Y-73485161D01*
X147991900Y-73496079D01*
X147991900Y-73560158D01*
X147991795Y-73563760D01*
X147990523Y-73585596D01*
X147988069Y-73627734D01*
X147988069Y-73627735D01*
X147990016Y-73638777D01*
X147991900Y-73660309D01*
X147991900Y-94491751D01*
X147972215Y-94558790D01*
X147955581Y-94579432D01*
X146942886Y-95592126D01*
X146881563Y-95625611D01*
X146811871Y-95620627D01*
X146755938Y-95578755D01*
X146733588Y-95528636D01*
X146733378Y-95527580D01*
X146697480Y-95347109D01*
X146600545Y-95061548D01*
X146594983Y-95050270D01*
X146467168Y-94791086D01*
X146467164Y-94791079D01*
X146299626Y-94540340D01*
X146100789Y-94313610D01*
X145874059Y-94114773D01*
X145623320Y-93947235D01*
X145623313Y-93947231D01*
X145352868Y-93813862D01*
X145352847Y-93813853D01*
X145067298Y-93716922D01*
X145067292Y-93716920D01*
X145067291Y-93716920D01*
X145067289Y-93716919D01*
X145067283Y-93716918D01*
X144771530Y-93658088D01*
X144771521Y-93658087D01*
X144771520Y-93658087D01*
X144470600Y-93638364D01*
X144470599Y-93638364D01*
X144320139Y-93648225D01*
X144169680Y-93658087D01*
X144169679Y-93658087D01*
X144169669Y-93658088D01*
X143873916Y-93716918D01*
X143873901Y-93716922D01*
X143588352Y-93813853D01*
X143588331Y-93813862D01*
X143317888Y-93947230D01*
X143072631Y-94111105D01*
X143005954Y-94131982D01*
X142938574Y-94113497D01*
X142891884Y-94061518D01*
X142880213Y-93997196D01*
X142896259Y-93813800D01*
X142875663Y-93578392D01*
X142814503Y-93350137D01*
X142714635Y-93135971D01*
X142693274Y-93105463D01*
X142579094Y-92942397D01*
X142412002Y-92775306D01*
X142411996Y-92775301D01*
X142226442Y-92645375D01*
X142182817Y-92590798D01*
X142175623Y-92521300D01*
X142207146Y-92458945D01*
X142226442Y-92442225D01*
X142320461Y-92376392D01*
X142412001Y-92312295D01*
X142579095Y-92145201D01*
X142714635Y-91951630D01*
X142814503Y-91737463D01*
X142875663Y-91509208D01*
X142896259Y-91273800D01*
X142875663Y-91038392D01*
X142814503Y-90810137D01*
X142714635Y-90595971D01*
X142693274Y-90565463D01*
X142579094Y-90402397D01*
X142412002Y-90235306D01*
X142411996Y-90235301D01*
X142226442Y-90105375D01*
X142182817Y-90050798D01*
X142175623Y-89981300D01*
X142207146Y-89918945D01*
X142226442Y-89902225D01*
X142257977Y-89880144D01*
X142412001Y-89772295D01*
X142579095Y-89605201D01*
X142714635Y-89411630D01*
X142814503Y-89197463D01*
X142875663Y-88969208D01*
X142896259Y-88733800D01*
X142875663Y-88498392D01*
X142814503Y-88270137D01*
X142714635Y-88055971D01*
X142693274Y-88025463D01*
X142579094Y-87862397D01*
X142412002Y-87695306D01*
X142411996Y-87695301D01*
X142226442Y-87565375D01*
X142182817Y-87510798D01*
X142175623Y-87441300D01*
X142207146Y-87378945D01*
X142226442Y-87362225D01*
X142252533Y-87343956D01*
X142412001Y-87232295D01*
X142579095Y-87065201D01*
X142714635Y-86871630D01*
X142814503Y-86657463D01*
X142875663Y-86429208D01*
X142896259Y-86193800D01*
X142875663Y-85958392D01*
X142814503Y-85730137D01*
X142714635Y-85515971D01*
X142693273Y-85485463D01*
X142579096Y-85322400D01*
X142579095Y-85322399D01*
X142457167Y-85200471D01*
X142423684Y-85139151D01*
X142428668Y-85069459D01*
X142470539Y-85013525D01*
X142501515Y-84996610D01*
X142632931Y-84947596D01*
X142748146Y-84861346D01*
X142834396Y-84746131D01*
X142884691Y-84611283D01*
X142891100Y-84551673D01*
X142891099Y-83487185D01*
X142910783Y-83420147D01*
X142963587Y-83374392D01*
X143032746Y-83364448D01*
X143083988Y-83384083D01*
X143317882Y-83540366D01*
X143317885Y-83540367D01*
X143317886Y-83540368D01*
X143588331Y-83673737D01*
X143588336Y-83673739D01*
X143588348Y-83673745D01*
X143873909Y-83770680D01*
X144015267Y-83798798D01*
X144169669Y-83829511D01*
X144169670Y-83829511D01*
X144169680Y-83829513D01*
X144470600Y-83849236D01*
X144771520Y-83829513D01*
X145067291Y-83770680D01*
X145352852Y-83673745D01*
X145623318Y-83540366D01*
X145874061Y-83372825D01*
X146100789Y-83173989D01*
X146299625Y-82947261D01*
X146467166Y-82696518D01*
X146600545Y-82426052D01*
X146697480Y-82140491D01*
X146756313Y-81844720D01*
X146776036Y-81543800D01*
X146756313Y-81242880D01*
X146697480Y-80947109D01*
X146600545Y-80661548D01*
X146579875Y-80619634D01*
X146467168Y-80391086D01*
X146467164Y-80391079D01*
X146299626Y-80140340D01*
X146100789Y-79913610D01*
X145874059Y-79714773D01*
X145623320Y-79547235D01*
X145623313Y-79547231D01*
X145352868Y-79413862D01*
X145352847Y-79413853D01*
X145067298Y-79316922D01*
X145067292Y-79316920D01*
X145067291Y-79316920D01*
X145067289Y-79316919D01*
X145067283Y-79316918D01*
X144771530Y-79258088D01*
X144771521Y-79258087D01*
X144771520Y-79258087D01*
X144470600Y-79238364D01*
X144470599Y-79238364D01*
X144320139Y-79248225D01*
X144169680Y-79258087D01*
X144169679Y-79258087D01*
X144169669Y-79258088D01*
X143873916Y-79316918D01*
X143873901Y-79316922D01*
X143588352Y-79413853D01*
X143588331Y-79413862D01*
X143317886Y-79547231D01*
X143317879Y-79547235D01*
X143067140Y-79714773D01*
X142840410Y-79913610D01*
X142641573Y-80140340D01*
X142474035Y-80391079D01*
X142474031Y-80391086D01*
X142340662Y-80661531D01*
X142340653Y-80661552D01*
X142243722Y-80947101D01*
X142243718Y-80947116D01*
X142184888Y-81242869D01*
X142184887Y-81242879D01*
X142184887Y-81242880D01*
X142180634Y-81307765D01*
X142165164Y-81543799D01*
X142184887Y-81844718D01*
X142184888Y-81844730D01*
X142243718Y-82140483D01*
X142244772Y-82144416D01*
X142243588Y-82144733D01*
X142246268Y-82209267D01*
X142210966Y-82269562D01*
X142148669Y-82301200D01*
X142125944Y-82303300D01*
X140642729Y-82303300D01*
X140642723Y-82303301D01*
X140583116Y-82309708D01*
X140448271Y-82360002D01*
X140448264Y-82360006D01*
X140333055Y-82446252D01*
X140333052Y-82446255D01*
X140246806Y-82561464D01*
X140246802Y-82561471D01*
X140196508Y-82696317D01*
X140190101Y-82755916D01*
X140190100Y-82755935D01*
X140190100Y-84551670D01*
X140190101Y-84551676D01*
X140196508Y-84611283D01*
X140246802Y-84746128D01*
X140246806Y-84746135D01*
X140333052Y-84861344D01*
X140333055Y-84861347D01*
X140448264Y-84947593D01*
X140448271Y-84947597D01*
X140579681Y-84996610D01*
X140635615Y-85038481D01*
X140660032Y-85103945D01*
X140645180Y-85172218D01*
X140624030Y-85200473D01*
X140502103Y-85322400D01*
X140366565Y-85515969D01*
X140366564Y-85515971D01*
X140266698Y-85730135D01*
X140266694Y-85730144D01*
X140205538Y-85958386D01*
X140205536Y-85958396D01*
X140184941Y-86193799D01*
X140184941Y-86193800D01*
X140205536Y-86429203D01*
X140205538Y-86429213D01*
X140266694Y-86657455D01*
X140266696Y-86657459D01*
X140266697Y-86657463D01*
X140358330Y-86853969D01*
X140366565Y-86871630D01*
X140366567Y-86871634D01*
X140502101Y-87065195D01*
X140502106Y-87065202D01*
X140669197Y-87232293D01*
X140669203Y-87232298D01*
X140854758Y-87362225D01*
X140898383Y-87416802D01*
X140905577Y-87486300D01*
X140874054Y-87548655D01*
X140854758Y-87565375D01*
X140669197Y-87695305D01*
X140502105Y-87862397D01*
X140366565Y-88055969D01*
X140366564Y-88055971D01*
X140266698Y-88270135D01*
X140266694Y-88270144D01*
X140205538Y-88498386D01*
X140205536Y-88498396D01*
X140184941Y-88733799D01*
X140184941Y-88733800D01*
X140205536Y-88969203D01*
X140205538Y-88969213D01*
X140266694Y-89197455D01*
X140266696Y-89197459D01*
X140266697Y-89197463D01*
X140304917Y-89279425D01*
X140366565Y-89411630D01*
X140366567Y-89411634D01*
X140502101Y-89605195D01*
X140502106Y-89605202D01*
X140669197Y-89772293D01*
X140669203Y-89772298D01*
X140854758Y-89902225D01*
X140898383Y-89956802D01*
X140905577Y-90026300D01*
X140874054Y-90088655D01*
X140854758Y-90105375D01*
X140669197Y-90235305D01*
X140502105Y-90402397D01*
X140366565Y-90595969D01*
X140366564Y-90595971D01*
X140266698Y-90810135D01*
X140266694Y-90810144D01*
X140205538Y-91038386D01*
X140205536Y-91038396D01*
X140184941Y-91273799D01*
X140184941Y-91273800D01*
X140205536Y-91509203D01*
X140205538Y-91509213D01*
X140266694Y-91737455D01*
X140266696Y-91737459D01*
X140266697Y-91737463D01*
X140340560Y-91895862D01*
X140366565Y-91951630D01*
X140366567Y-91951634D01*
X140502101Y-92145195D01*
X140502106Y-92145202D01*
X140669197Y-92312293D01*
X140669203Y-92312298D01*
X140854758Y-92442225D01*
X140898383Y-92496802D01*
X140905577Y-92566300D01*
X140874054Y-92628655D01*
X140854758Y-92645375D01*
X140669197Y-92775305D01*
X140502105Y-92942397D01*
X140366565Y-93135969D01*
X140366564Y-93135971D01*
X140266698Y-93350135D01*
X140266694Y-93350144D01*
X140205538Y-93578386D01*
X140205536Y-93578396D01*
X140184941Y-93813799D01*
X140184941Y-93813800D01*
X140205536Y-94049203D01*
X140205538Y-94049213D01*
X140266694Y-94277455D01*
X140266696Y-94277459D01*
X140266697Y-94277463D01*
X140323977Y-94400300D01*
X140366565Y-94491630D01*
X140366567Y-94491634D01*
X140454224Y-94616820D01*
X140502105Y-94685201D01*
X140669199Y-94852295D01*
X140736949Y-94899734D01*
X140862765Y-94987832D01*
X140862767Y-94987833D01*
X140862770Y-94987835D01*
X141076937Y-95087703D01*
X141076943Y-95087704D01*
X141076944Y-95087705D01*
X141100923Y-95094130D01*
X141305192Y-95148863D01*
X141493518Y-95165339D01*
X141540599Y-95169459D01*
X141540600Y-95169459D01*
X141540601Y-95169459D01*
X141579834Y-95166026D01*
X141776008Y-95148863D01*
X142004263Y-95087703D01*
X142130212Y-95028971D01*
X142199287Y-95018480D01*
X142263071Y-95046999D01*
X142301311Y-95105476D01*
X142301866Y-95175343D01*
X142300034Y-95181213D01*
X142243722Y-95347101D01*
X142243718Y-95347116D01*
X142184888Y-95642869D01*
X142184887Y-95642879D01*
X142184887Y-95642880D01*
X142165164Y-95943800D01*
X142179851Y-96167891D01*
X142184887Y-96244718D01*
X142184888Y-96244730D01*
X142243718Y-96540483D01*
X142243722Y-96540498D01*
X142340653Y-96826047D01*
X142340662Y-96826068D01*
X142474031Y-97096513D01*
X142474035Y-97096520D01*
X142641573Y-97347259D01*
X142840410Y-97573989D01*
X142967988Y-97685872D01*
X143005412Y-97744874D01*
X143004996Y-97814742D01*
X142966873Y-97873295D01*
X142903145Y-97901941D01*
X142886229Y-97903100D01*
X141992630Y-97903100D01*
X141925591Y-97883415D01*
X141904949Y-97866781D01*
X134896049Y-90857881D01*
X134870209Y-90820090D01*
X134865834Y-90810135D01*
X134323280Y-89575608D01*
X134301706Y-89532279D01*
X134301700Y-89532271D01*
X134298578Y-89527261D01*
X134298778Y-89527136D01*
X134288745Y-89510564D01*
X134268498Y-89467145D01*
X134244635Y-89415971D01*
X134244632Y-89415967D01*
X134244632Y-89415966D01*
X134109094Y-89222397D01*
X133942002Y-89055306D01*
X133942001Y-89055305D01*
X133756005Y-88925069D01*
X133712381Y-88870492D01*
X133705188Y-88800993D01*
X133736710Y-88738639D01*
X133756005Y-88721919D01*
X133941682Y-88591905D01*
X134108705Y-88424882D01*
X134244200Y-88231378D01*
X134344029Y-88017292D01*
X134344032Y-88017286D01*
X134401236Y-87803800D01*
X133683947Y-87803800D01*
X133616908Y-87784115D01*
X133571153Y-87731311D01*
X133561209Y-87662153D01*
X133564969Y-87644867D01*
X133570600Y-87625688D01*
X133570600Y-87481911D01*
X133564969Y-87462733D01*
X133564970Y-87392864D01*
X133602745Y-87334086D01*
X133666301Y-87305062D01*
X133683947Y-87303800D01*
X134401236Y-87303800D01*
X134401235Y-87303799D01*
X134344032Y-87090313D01*
X134344029Y-87090307D01*
X134244200Y-86876222D01*
X134244199Y-86876220D01*
X134108713Y-86682726D01*
X134108708Y-86682720D01*
X133986653Y-86560665D01*
X133953168Y-86499342D01*
X133958152Y-86429650D01*
X134000024Y-86373717D01*
X134031000Y-86356802D01*
X134144957Y-86314300D01*
X134162926Y-86307598D01*
X134162926Y-86307597D01*
X134162931Y-86307596D01*
X134278146Y-86221346D01*
X134364396Y-86106131D01*
X134414691Y-85971283D01*
X134421100Y-85911673D01*
X134421099Y-84115928D01*
X134414691Y-84056317D01*
X134387459Y-83983305D01*
X134364397Y-83921471D01*
X134364393Y-83921464D01*
X134303349Y-83839920D01*
X134278931Y-83774456D01*
X134293782Y-83706183D01*
X134343187Y-83656777D01*
X134411460Y-83641925D01*
X134425457Y-83643731D01*
X134977778Y-83747291D01*
X135134954Y-83780700D01*
X135163550Y-83780700D01*
X135169358Y-83780973D01*
X135170572Y-83781087D01*
X135170583Y-83781088D01*
X135170594Y-83781087D01*
X135170596Y-83781088D01*
X135241984Y-83780700D01*
X135324244Y-83780700D01*
X135324246Y-83780700D01*
X135509403Y-83741344D01*
X135682330Y-83664351D01*
X135835471Y-83553088D01*
X135962133Y-83412416D01*
X136056779Y-83248484D01*
X136115274Y-83068456D01*
X136135060Y-82880200D01*
X136115274Y-82691944D01*
X136056779Y-82511916D01*
X135962133Y-82347984D01*
X135835471Y-82207312D01*
X135832238Y-82204963D01*
X135682334Y-82096051D01*
X135682329Y-82096048D01*
X135509407Y-82019057D01*
X135509402Y-82019055D01*
X135363601Y-81988065D01*
X135324246Y-81979700D01*
X135134954Y-81979700D01*
X135009250Y-82006418D01*
X134977824Y-82013098D01*
X134367276Y-82127576D01*
X134344424Y-82129700D01*
X132778705Y-82129700D01*
X132760735Y-82128391D01*
X132736972Y-82124910D01*
X132691533Y-82128886D01*
X132684931Y-82129464D01*
X132679530Y-82129700D01*
X132671289Y-82129700D01*
X132649579Y-82132237D01*
X132638724Y-82133506D01*
X132623419Y-82134845D01*
X132562199Y-82140201D01*
X132555132Y-82141660D01*
X132555120Y-82141604D01*
X132547763Y-82143235D01*
X132547777Y-82143292D01*
X132540747Y-82144958D01*
X132484535Y-82165416D01*
X132414806Y-82169844D01*
X132353751Y-82135871D01*
X132320756Y-82074283D01*
X132320512Y-82024700D01*
X132356313Y-81844720D01*
X132376036Y-81543800D01*
X132356313Y-81242880D01*
X132297480Y-80947109D01*
X132200545Y-80661548D01*
X132179875Y-80619634D01*
X132067168Y-80391086D01*
X132067164Y-80391079D01*
X131899626Y-80140340D01*
X131700789Y-79913610D01*
X131474059Y-79714773D01*
X131223320Y-79547235D01*
X131223313Y-79547231D01*
X130952868Y-79413862D01*
X130952847Y-79413853D01*
X130667298Y-79316922D01*
X130667292Y-79316920D01*
X130667291Y-79316920D01*
X130667289Y-79316919D01*
X130667283Y-79316918D01*
X130371530Y-79258088D01*
X130371521Y-79258087D01*
X130371520Y-79258087D01*
X130070600Y-79238364D01*
X130070599Y-79238364D01*
X129920139Y-79248225D01*
X129769680Y-79258087D01*
X129769679Y-79258087D01*
X129769669Y-79258088D01*
X129473916Y-79316918D01*
X129473901Y-79316922D01*
X129188352Y-79413853D01*
X129188331Y-79413862D01*
X128917886Y-79547231D01*
X128917879Y-79547235D01*
X128667140Y-79714773D01*
X128440410Y-79913610D01*
X128241573Y-80140340D01*
X128074035Y-80391079D01*
X128074031Y-80391086D01*
X127940662Y-80661531D01*
X127940653Y-80661552D01*
X127843722Y-80947101D01*
X127843718Y-80947116D01*
X127784888Y-81242869D01*
X127784887Y-81242879D01*
X127784887Y-81242880D01*
X127780634Y-81307765D01*
X127765164Y-81543799D01*
X127784887Y-81844718D01*
X127784888Y-81844730D01*
X127843718Y-82140483D01*
X127843722Y-82140498D01*
X127940653Y-82426047D01*
X127940662Y-82426068D01*
X128074031Y-82696513D01*
X128074035Y-82696520D01*
X128241573Y-82947259D01*
X128440410Y-83173989D01*
X128667140Y-83372826D01*
X128917879Y-83540364D01*
X128917886Y-83540368D01*
X129188331Y-83673737D01*
X129188336Y-83673739D01*
X129188348Y-83673745D01*
X129473909Y-83770680D01*
X129615267Y-83798798D01*
X129769669Y-83829511D01*
X129769670Y-83829511D01*
X129769680Y-83829513D01*
X130070600Y-83849236D01*
X130371520Y-83829513D01*
X130386032Y-83826626D01*
X130455623Y-83832851D01*
X130510802Y-83875711D01*
X130534049Y-83941600D01*
X130517983Y-84009598D01*
X130497908Y-84035923D01*
X125622030Y-88911800D01*
X125604370Y-88926457D01*
X125104480Y-89268487D01*
X125084904Y-89279425D01*
X125074070Y-89284249D01*
X125074067Y-89284251D01*
X124920930Y-89395510D01*
X124920927Y-89395512D01*
X124873570Y-89448108D01*
X124871581Y-89450215D01*
X124861117Y-89460797D01*
X124856200Y-89467145D01*
X124853259Y-89470665D01*
X124794268Y-89536182D01*
X124794264Y-89536187D01*
X124699621Y-89700115D01*
X124699618Y-89700122D01*
X124648192Y-89858396D01*
X124641126Y-89880144D01*
X124621340Y-90068400D01*
X124641126Y-90256656D01*
X124641127Y-90256659D01*
X124657881Y-90308223D01*
X124659876Y-90378064D01*
X124623795Y-90437897D01*
X124561094Y-90468725D01*
X124491680Y-90460760D01*
X124452269Y-90434223D01*
X124396110Y-90378064D01*
X124309420Y-90291374D01*
X124309416Y-90291371D01*
X124309415Y-90291370D01*
X124128466Y-90164668D01*
X124128462Y-90164666D01*
X124128462Y-90164665D01*
X123928250Y-90071306D01*
X123928247Y-90071305D01*
X123928245Y-90071304D01*
X123714870Y-90014130D01*
X123714862Y-90014129D01*
X123494802Y-89994877D01*
X123494798Y-89994877D01*
X123274737Y-90014129D01*
X123274729Y-90014130D01*
X123061354Y-90071304D01*
X123061348Y-90071307D01*
X122861140Y-90164665D01*
X122861138Y-90164666D01*
X122680177Y-90291375D01*
X122523975Y-90447577D01*
X122397266Y-90628538D01*
X122397265Y-90628540D01*
X122303907Y-90828748D01*
X122303904Y-90828754D01*
X122246730Y-91042129D01*
X122246729Y-91042137D01*
X122227477Y-91262197D01*
X122227477Y-91262202D01*
X122246729Y-91482262D01*
X122246730Y-91482270D01*
X122303904Y-91695645D01*
X122303905Y-91695647D01*
X122303906Y-91695650D01*
X122338761Y-91770397D01*
X122397266Y-91895862D01*
X122397268Y-91895866D01*
X122523970Y-92076815D01*
X122523975Y-92076821D01*
X122680178Y-92233024D01*
X122680184Y-92233029D01*
X122861133Y-92359731D01*
X122861135Y-92359732D01*
X122861138Y-92359734D01*
X122980548Y-92415415D01*
X122989989Y-92419818D01*
X123042428Y-92465990D01*
X123061580Y-92533184D01*
X123041364Y-92600065D01*
X122989989Y-92644582D01*
X122861140Y-92704665D01*
X122861138Y-92704666D01*
X122680177Y-92831375D01*
X122523975Y-92987577D01*
X122397266Y-93168538D01*
X122397265Y-93168540D01*
X122303907Y-93368748D01*
X122303904Y-93368754D01*
X122246730Y-93582129D01*
X122246729Y-93582137D01*
X122227477Y-93802197D01*
X122227477Y-93802202D01*
X122246729Y-94022262D01*
X122246730Y-94022270D01*
X122303904Y-94235645D01*
X122303905Y-94235647D01*
X122303906Y-94235650D01*
X122340260Y-94313611D01*
X122397266Y-94435862D01*
X122397268Y-94435866D01*
X122523970Y-94616815D01*
X122523975Y-94616821D01*
X122680178Y-94773024D01*
X122680184Y-94773029D01*
X122861133Y-94899731D01*
X122861135Y-94899732D01*
X122861138Y-94899734D01*
X122980548Y-94955415D01*
X122989989Y-94959818D01*
X123042428Y-95005990D01*
X123061580Y-95073184D01*
X123041364Y-95140065D01*
X122989989Y-95184582D01*
X122861140Y-95244665D01*
X122861138Y-95244666D01*
X122680177Y-95371375D01*
X122523975Y-95527577D01*
X122397266Y-95708538D01*
X122397265Y-95708540D01*
X122303907Y-95908748D01*
X122303904Y-95908754D01*
X122246730Y-96122129D01*
X122246729Y-96122137D01*
X122227477Y-96342197D01*
X122227477Y-96342202D01*
X122246729Y-96562262D01*
X122246730Y-96562270D01*
X122303904Y-96775645D01*
X122303905Y-96775647D01*
X122303906Y-96775650D01*
X122352029Y-96878851D01*
X122397266Y-96975862D01*
X122397268Y-96975866D01*
X122523970Y-97156815D01*
X122523975Y-97156821D01*
X122680178Y-97313024D01*
X122680184Y-97313029D01*
X122861133Y-97439731D01*
X122861135Y-97439732D01*
X122861138Y-97439734D01*
X122980548Y-97495415D01*
X122989989Y-97499818D01*
X123042428Y-97545990D01*
X123061580Y-97613184D01*
X123041364Y-97680065D01*
X122989989Y-97724582D01*
X122861140Y-97784665D01*
X122861138Y-97784666D01*
X122680177Y-97911375D01*
X122523975Y-98067577D01*
X122397266Y-98248538D01*
X122397265Y-98248540D01*
X122303907Y-98448748D01*
X122303904Y-98448754D01*
X122246730Y-98662129D01*
X122246729Y-98662137D01*
X122227477Y-98882197D01*
X122227477Y-98882202D01*
X122246729Y-99102262D01*
X122246730Y-99102270D01*
X122303904Y-99315645D01*
X122303905Y-99315647D01*
X122303906Y-99315650D01*
X122347384Y-99408889D01*
X122397266Y-99515862D01*
X122397268Y-99515866D01*
X122523970Y-99696815D01*
X122523975Y-99696821D01*
X122680178Y-99853024D01*
X122680184Y-99853029D01*
X122861133Y-99979731D01*
X122861135Y-99979732D01*
X122861138Y-99979734D01*
X122980548Y-100035415D01*
X122989989Y-100039818D01*
X123042428Y-100085990D01*
X123061580Y-100153184D01*
X123041364Y-100220065D01*
X122989989Y-100264582D01*
X122861140Y-100324665D01*
X122861138Y-100324666D01*
X122680177Y-100451375D01*
X122523975Y-100607577D01*
X122397266Y-100788538D01*
X122397265Y-100788540D01*
X122303907Y-100988748D01*
X122303904Y-100988754D01*
X122246730Y-101202129D01*
X122246729Y-101202137D01*
X122227477Y-101422197D01*
X122227477Y-101422202D01*
X122246729Y-101642262D01*
X122246730Y-101642270D01*
X122303904Y-101855645D01*
X122303905Y-101855647D01*
X122303906Y-101855650D01*
X122324772Y-101900397D01*
X122397266Y-102055862D01*
X122397268Y-102055866D01*
X122523970Y-102236815D01*
X122523975Y-102236821D01*
X122680178Y-102393024D01*
X122680184Y-102393029D01*
X122861133Y-102519731D01*
X122861135Y-102519732D01*
X122861138Y-102519734D01*
X122980548Y-102575415D01*
X122989989Y-102579818D01*
X123042428Y-102625990D01*
X123061580Y-102693184D01*
X123041364Y-102760065D01*
X122989989Y-102804582D01*
X122861140Y-102864665D01*
X122861138Y-102864666D01*
X122680177Y-102991375D01*
X122523975Y-103147577D01*
X122397266Y-103328538D01*
X122397265Y-103328540D01*
X122303907Y-103528748D01*
X122303904Y-103528754D01*
X122246730Y-103742129D01*
X122246729Y-103742137D01*
X122227477Y-103962197D01*
X122227477Y-103962202D01*
X122246729Y-104182262D01*
X122246730Y-104182270D01*
X122303904Y-104395645D01*
X122303905Y-104395647D01*
X122303906Y-104395650D01*
X122324772Y-104440397D01*
X122397266Y-104595862D01*
X122397268Y-104595866D01*
X122523970Y-104776815D01*
X122523975Y-104776821D01*
X122680178Y-104933024D01*
X122680184Y-104933029D01*
X122861133Y-105059731D01*
X122861135Y-105059732D01*
X122861138Y-105059734D01*
X122980548Y-105115415D01*
X122989989Y-105119818D01*
X123042428Y-105165990D01*
X123061580Y-105233184D01*
X123041364Y-105300065D01*
X122989989Y-105344582D01*
X122861140Y-105404665D01*
X122861138Y-105404666D01*
X122680177Y-105531375D01*
X122523975Y-105687577D01*
X122397266Y-105868538D01*
X122397265Y-105868540D01*
X122303907Y-106068748D01*
X122303904Y-106068754D01*
X122246730Y-106282129D01*
X122246729Y-106282137D01*
X122227477Y-106502197D01*
X122227477Y-106502202D01*
X101962123Y-106502202D01*
X101962123Y-106502200D01*
X101961663Y-106496945D01*
X101951458Y-106380293D01*
X101942870Y-106282132D01*
X101885694Y-106068750D01*
X101792334Y-105868539D01*
X101665626Y-105687580D01*
X101509420Y-105531374D01*
X101509416Y-105531371D01*
X101509415Y-105531370D01*
X101328466Y-105404668D01*
X101328458Y-105404664D01*
X101199611Y-105344582D01*
X101147171Y-105298410D01*
X101128019Y-105231217D01*
X101148235Y-105164335D01*
X101199611Y-105119818D01*
X101205602Y-105117024D01*
X101328462Y-105059734D01*
X101509420Y-104933026D01*
X101665626Y-104776820D01*
X101792334Y-104595862D01*
X101885694Y-104395650D01*
X101942870Y-104182268D01*
X101962123Y-103962200D01*
X101960200Y-103940225D01*
X101951458Y-103840293D01*
X101942870Y-103742132D01*
X101885694Y-103528750D01*
X101792334Y-103328539D01*
X101665626Y-103147580D01*
X101509420Y-102991374D01*
X101509416Y-102991371D01*
X101509415Y-102991370D01*
X101328466Y-102864668D01*
X101328458Y-102864664D01*
X101199611Y-102804582D01*
X101147171Y-102758410D01*
X101128019Y-102691217D01*
X101148235Y-102624335D01*
X101199611Y-102579818D01*
X101205602Y-102577024D01*
X101328462Y-102519734D01*
X101509420Y-102393026D01*
X101665626Y-102236820D01*
X101792334Y-102055862D01*
X101885694Y-101855650D01*
X101942870Y-101642268D01*
X101962123Y-101422200D01*
X101961663Y-101416945D01*
X101951458Y-101300293D01*
X101942870Y-101202132D01*
X101885694Y-100988750D01*
X101792334Y-100788539D01*
X101665626Y-100607580D01*
X101509420Y-100451374D01*
X101509416Y-100451371D01*
X101509415Y-100451370D01*
X101328466Y-100324668D01*
X101328458Y-100324664D01*
X101199611Y-100264582D01*
X101147171Y-100218410D01*
X101128019Y-100151217D01*
X101148235Y-100084335D01*
X101199611Y-100039818D01*
X101205602Y-100037024D01*
X101328462Y-99979734D01*
X101509420Y-99853026D01*
X101665626Y-99696820D01*
X101792334Y-99515862D01*
X101844039Y-99404978D01*
X101848203Y-99397458D01*
X101862469Y-99375457D01*
X102367190Y-98281984D01*
X102392089Y-98246277D01*
X104550748Y-96087619D01*
X104612071Y-96054134D01*
X104638429Y-96051300D01*
X105170858Y-96051300D01*
X105237897Y-96070985D01*
X105283652Y-96123789D01*
X105293596Y-96192947D01*
X105264571Y-96256503D01*
X105243743Y-96275618D01*
X105134329Y-96355111D01*
X105007666Y-96495785D01*
X104913021Y-96659715D01*
X104913018Y-96659722D01*
X104854527Y-96839740D01*
X104854526Y-96839744D01*
X104834740Y-97028000D01*
X104854526Y-97216256D01*
X104854527Y-97216259D01*
X104913018Y-97396277D01*
X104913021Y-97396284D01*
X105007667Y-97560216D01*
X105134329Y-97700888D01*
X105287470Y-97812151D01*
X105310308Y-97822319D01*
X105327281Y-97831521D01*
X105816805Y-98148632D01*
X105848848Y-98178653D01*
X105850990Y-98181530D01*
X105891020Y-98215119D01*
X105894992Y-98218759D01*
X105900824Y-98224591D01*
X105900827Y-98224594D01*
X105926547Y-98244931D01*
X105985388Y-98294304D01*
X105991418Y-98298270D01*
X105991385Y-98298319D01*
X105997743Y-98302369D01*
X105997775Y-98302319D01*
X106003920Y-98306109D01*
X106003923Y-98306111D01*
X106073536Y-98338572D01*
X106142167Y-98373040D01*
X106142172Y-98373041D01*
X106148961Y-98375513D01*
X106148940Y-98375570D01*
X106156055Y-98378043D01*
X106156075Y-98377986D01*
X106162930Y-98380258D01*
X106238158Y-98395790D01*
X106312879Y-98413500D01*
X106312889Y-98413500D01*
X106320052Y-98414338D01*
X106320044Y-98414397D01*
X106327545Y-98415164D01*
X106327551Y-98415105D01*
X106334740Y-98415734D01*
X106334744Y-98415733D01*
X106334745Y-98415734D01*
X106411518Y-98413500D01*
X113668830Y-98413500D01*
X113691682Y-98415624D01*
X113868345Y-98448748D01*
X114302178Y-98530091D01*
X114459354Y-98563500D01*
X114487950Y-98563500D01*
X114493758Y-98563773D01*
X114494972Y-98563887D01*
X114494983Y-98563888D01*
X114494994Y-98563887D01*
X114494996Y-98563888D01*
X114566384Y-98563500D01*
X114648644Y-98563500D01*
X114648646Y-98563500D01*
X114833803Y-98524144D01*
X115006730Y-98447151D01*
X115159871Y-98335888D01*
X115286533Y-98195216D01*
X115381179Y-98031284D01*
X115439674Y-97851256D01*
X115459460Y-97663000D01*
X115439674Y-97474744D01*
X115381179Y-97294716D01*
X115286533Y-97130784D01*
X115159871Y-96990112D01*
X115140263Y-96975866D01*
X115006734Y-96878851D01*
X115006729Y-96878848D01*
X114833807Y-96801857D01*
X114833802Y-96801855D01*
X114688001Y-96770865D01*
X114648646Y-96762500D01*
X114459354Y-96762500D01*
X114333650Y-96789218D01*
X114302224Y-96795898D01*
X113691676Y-96910376D01*
X113668824Y-96912500D01*
X106828124Y-96912500D01*
X106761085Y-96892815D01*
X106727283Y-96860660D01*
X106719940Y-96850399D01*
X106501836Y-96545604D01*
X106498564Y-96540524D01*
X106472734Y-96495786D01*
X106472733Y-96495784D01*
X106443167Y-96462948D01*
X106438821Y-96457541D01*
X106436174Y-96453842D01*
X106436173Y-96453840D01*
X106423570Y-96437657D01*
X106415719Y-96428378D01*
X106415713Y-96428372D01*
X106386132Y-96399420D01*
X106383424Y-96396597D01*
X106346071Y-96355112D01*
X106346069Y-96355110D01*
X106236657Y-96275618D01*
X106193991Y-96220288D01*
X106188012Y-96150675D01*
X106220618Y-96088880D01*
X106281456Y-96054523D01*
X106309542Y-96051300D01*
X112195630Y-96051300D01*
X112218482Y-96053424D01*
X112400857Y-96087619D01*
X112828978Y-96167891D01*
X112986154Y-96201300D01*
X113014750Y-96201300D01*
X113020558Y-96201573D01*
X113021772Y-96201687D01*
X113021783Y-96201688D01*
X113021794Y-96201687D01*
X113021796Y-96201688D01*
X113093184Y-96201300D01*
X113175444Y-96201300D01*
X113175446Y-96201300D01*
X113360603Y-96161944D01*
X113533530Y-96084951D01*
X113686671Y-95973688D01*
X113813333Y-95833016D01*
X113907979Y-95669084D01*
X113966474Y-95489056D01*
X113986260Y-95300800D01*
X113966474Y-95112544D01*
X113907979Y-94932516D01*
X113813333Y-94768584D01*
X113686671Y-94627912D01*
X113686670Y-94627911D01*
X113533534Y-94516651D01*
X113533529Y-94516648D01*
X113360607Y-94439657D01*
X113360602Y-94439655D01*
X113214801Y-94408665D01*
X113175446Y-94400300D01*
X112986154Y-94400300D01*
X112860450Y-94427018D01*
X112829024Y-94433698D01*
X112218476Y-94548176D01*
X112195624Y-94550300D01*
X104339905Y-94550300D01*
X104321935Y-94548991D01*
X104298172Y-94545510D01*
X104253090Y-94549455D01*
X104246133Y-94550064D01*
X104240732Y-94550300D01*
X104232488Y-94550300D01*
X104199907Y-94554108D01*
X104123399Y-94560801D01*
X104116333Y-94562261D01*
X104116321Y-94562204D01*
X104108954Y-94563838D01*
X104108968Y-94563894D01*
X104101951Y-94565556D01*
X104029773Y-94591826D01*
X103956862Y-94615987D01*
X103950319Y-94619038D01*
X103950294Y-94618986D01*
X103943514Y-94622268D01*
X103943540Y-94622320D01*
X103937081Y-94625564D01*
X103872909Y-94667770D01*
X103807545Y-94708088D01*
X103801877Y-94712570D01*
X103801841Y-94712524D01*
X103795998Y-94717284D01*
X103796035Y-94717328D01*
X103790510Y-94721964D01*
X103737797Y-94777835D01*
X102167155Y-96348475D01*
X102105832Y-96381960D01*
X102036140Y-96376976D01*
X101980207Y-96335104D01*
X101955946Y-96271602D01*
X101942870Y-96122132D01*
X101885694Y-95908750D01*
X101792334Y-95708539D01*
X101701459Y-95578755D01*
X101665627Y-95527581D01*
X101627102Y-95489056D01*
X101509420Y-95371374D01*
X101509416Y-95371371D01*
X101509415Y-95371370D01*
X101328466Y-95244668D01*
X101328458Y-95244664D01*
X101199611Y-95184582D01*
X101147171Y-95138410D01*
X101128019Y-95071217D01*
X101148235Y-95004335D01*
X101199611Y-94959818D01*
X101205602Y-94957024D01*
X101328462Y-94899734D01*
X101509420Y-94773026D01*
X101665626Y-94616820D01*
X101792334Y-94435862D01*
X101885694Y-94235650D01*
X101942870Y-94022268D01*
X101962123Y-93802200D01*
X101960200Y-93780225D01*
X101949515Y-93658087D01*
X101942870Y-93582132D01*
X101885694Y-93368750D01*
X101792334Y-93168539D01*
X101665626Y-92987580D01*
X101509420Y-92831374D01*
X101509416Y-92831371D01*
X101509415Y-92831370D01*
X101328466Y-92704668D01*
X101328458Y-92704664D01*
X101199611Y-92644582D01*
X101147171Y-92598410D01*
X101128019Y-92531217D01*
X101148235Y-92464335D01*
X101199611Y-92419818D01*
X101205602Y-92417024D01*
X101328462Y-92359734D01*
X101509420Y-92233026D01*
X101665626Y-92076820D01*
X101792334Y-91895862D01*
X101885694Y-91695650D01*
X101942870Y-91482268D01*
X101962123Y-91262200D01*
X101961663Y-91256945D01*
X101950758Y-91132293D01*
X101942870Y-91042132D01*
X101885694Y-90828750D01*
X101792334Y-90628539D01*
X101665626Y-90447580D01*
X101509420Y-90291374D01*
X101509416Y-90291371D01*
X101509415Y-90291370D01*
X101328466Y-90164668D01*
X101328462Y-90164666D01*
X101328462Y-90164665D01*
X101128250Y-90071306D01*
X101128247Y-90071305D01*
X101128245Y-90071304D01*
X100914870Y-90014130D01*
X100914862Y-90014129D01*
X100694802Y-89994877D01*
X100694798Y-89994877D01*
X100474737Y-90014129D01*
X100474729Y-90014130D01*
X100261354Y-90071304D01*
X100261348Y-90071307D01*
X100061140Y-90164665D01*
X100061138Y-90164666D01*
X99880177Y-90291375D01*
X99723975Y-90447577D01*
X99597266Y-90628538D01*
X99597265Y-90628540D01*
X99503907Y-90828748D01*
X99503904Y-90828754D01*
X99446730Y-91042129D01*
X99446729Y-91042137D01*
X99427477Y-91262197D01*
X99427477Y-91262202D01*
X99446729Y-91482262D01*
X99446730Y-91482270D01*
X99503904Y-91695645D01*
X99503905Y-91695647D01*
X99503906Y-91695650D01*
X99538761Y-91770397D01*
X99597266Y-91895862D01*
X99597268Y-91895866D01*
X99723970Y-92076815D01*
X99723975Y-92076821D01*
X99880178Y-92233024D01*
X99880184Y-92233029D01*
X100061133Y-92359731D01*
X100061135Y-92359732D01*
X100061138Y-92359734D01*
X100180548Y-92415415D01*
X100189989Y-92419818D01*
X100242428Y-92465990D01*
X100261580Y-92533184D01*
X100241364Y-92600065D01*
X100189989Y-92644582D01*
X100061140Y-92704665D01*
X100061138Y-92704666D01*
X99880177Y-92831375D01*
X99723975Y-92987577D01*
X99597266Y-93168538D01*
X99597265Y-93168540D01*
X99503907Y-93368748D01*
X99503904Y-93368754D01*
X99446730Y-93582129D01*
X99446729Y-93582137D01*
X99427477Y-93802197D01*
X99427477Y-93802202D01*
X99446729Y-94022262D01*
X99446730Y-94022270D01*
X99503904Y-94235645D01*
X99503905Y-94235647D01*
X99503906Y-94235650D01*
X99540260Y-94313611D01*
X99597266Y-94435862D01*
X99597268Y-94435866D01*
X99723970Y-94616815D01*
X99723975Y-94616821D01*
X99880178Y-94773024D01*
X99880184Y-94773029D01*
X100061133Y-94899731D01*
X100061135Y-94899732D01*
X100061138Y-94899734D01*
X100180548Y-94955415D01*
X100189989Y-94959818D01*
X100242428Y-95005990D01*
X100261580Y-95073184D01*
X100241364Y-95140065D01*
X100189989Y-95184582D01*
X100061140Y-95244665D01*
X100061138Y-95244666D01*
X99880177Y-95371375D01*
X99723975Y-95527577D01*
X99597266Y-95708538D01*
X99597265Y-95708540D01*
X99503907Y-95908748D01*
X99503904Y-95908754D01*
X99446730Y-96122129D01*
X99446729Y-96122137D01*
X99427477Y-96342197D01*
X99427477Y-96342202D01*
X99446729Y-96562262D01*
X99446730Y-96562270D01*
X99503904Y-96775645D01*
X99503905Y-96775647D01*
X99503906Y-96775650D01*
X99552029Y-96878851D01*
X99597266Y-96975862D01*
X99597268Y-96975866D01*
X99723970Y-97156815D01*
X99723975Y-97156821D01*
X99880178Y-97313024D01*
X99880184Y-97313029D01*
X100061133Y-97439731D01*
X100061135Y-97439732D01*
X100061138Y-97439734D01*
X100096870Y-97456396D01*
X100185702Y-97497819D01*
X100238142Y-97543991D01*
X100257294Y-97611184D01*
X100237078Y-97678066D01*
X100190096Y-97720427D01*
X100182034Y-97724582D01*
X100162577Y-97734607D01*
X100157721Y-97737713D01*
X100157486Y-97737346D01*
X100141047Y-97747402D01*
X100061141Y-97784664D01*
X100061137Y-97784666D01*
X99880177Y-97911375D01*
X99723975Y-98067577D01*
X99597266Y-98248538D01*
X99597265Y-98248540D01*
X99503907Y-98448748D01*
X99503904Y-98448754D01*
X99446730Y-98662129D01*
X99446729Y-98662137D01*
X99427477Y-98882197D01*
X99427477Y-98882202D01*
X99446729Y-99102262D01*
X99446730Y-99102270D01*
X99503904Y-99315645D01*
X99503905Y-99315647D01*
X99503906Y-99315650D01*
X99547384Y-99408889D01*
X99597266Y-99515862D01*
X99597268Y-99515866D01*
X99723970Y-99696815D01*
X99723975Y-99696821D01*
X99880178Y-99853024D01*
X99880184Y-99853029D01*
X100061133Y-99979731D01*
X100061135Y-99979732D01*
X100061138Y-99979734D01*
X100180548Y-100035415D01*
X100189989Y-100039818D01*
X100242428Y-100085990D01*
X100261580Y-100153184D01*
X100241364Y-100220065D01*
X100189989Y-100264582D01*
X100061140Y-100324665D01*
X100061138Y-100324666D01*
X99880177Y-100451375D01*
X99723975Y-100607577D01*
X99597266Y-100788538D01*
X99597265Y-100788540D01*
X99503907Y-100988748D01*
X99503904Y-100988754D01*
X99446730Y-101202129D01*
X99446729Y-101202137D01*
X99427477Y-101422197D01*
X99427477Y-101422202D01*
X99446729Y-101642262D01*
X99446730Y-101642270D01*
X99503904Y-101855645D01*
X99503905Y-101855647D01*
X99503906Y-101855650D01*
X99524772Y-101900397D01*
X99597266Y-102055862D01*
X99597268Y-102055866D01*
X99723970Y-102236815D01*
X99723975Y-102236821D01*
X99880178Y-102393024D01*
X99880184Y-102393029D01*
X100061133Y-102519731D01*
X100061135Y-102519732D01*
X100061138Y-102519734D01*
X100180548Y-102575415D01*
X100189989Y-102579818D01*
X100242428Y-102625990D01*
X100261580Y-102693184D01*
X100241364Y-102760065D01*
X100189989Y-102804582D01*
X100061140Y-102864665D01*
X100061138Y-102864666D01*
X99880177Y-102991375D01*
X99723975Y-103147577D01*
X99597266Y-103328538D01*
X99597265Y-103328540D01*
X99503907Y-103528748D01*
X99503904Y-103528754D01*
X99446730Y-103742129D01*
X99446729Y-103742137D01*
X99427477Y-103962197D01*
X99427477Y-103962202D01*
X99446729Y-104182262D01*
X99446730Y-104182270D01*
X99503904Y-104395645D01*
X99503905Y-104395647D01*
X99503906Y-104395650D01*
X99524772Y-104440397D01*
X99597266Y-104595862D01*
X99597268Y-104595866D01*
X99723970Y-104776815D01*
X99723975Y-104776821D01*
X99880178Y-104933024D01*
X99880184Y-104933029D01*
X100061133Y-105059731D01*
X100061135Y-105059732D01*
X100061138Y-105059734D01*
X100180548Y-105115415D01*
X100189989Y-105119818D01*
X100242428Y-105165990D01*
X100261580Y-105233184D01*
X100241364Y-105300065D01*
X100189989Y-105344582D01*
X100061140Y-105404665D01*
X100061138Y-105404666D01*
X99880177Y-105531375D01*
X99723975Y-105687577D01*
X99597266Y-105868538D01*
X99597265Y-105868540D01*
X99503907Y-106068748D01*
X99503904Y-106068754D01*
X99446730Y-106282129D01*
X99446729Y-106282137D01*
X99427477Y-106502197D01*
X99427477Y-106502202D01*
X95590688Y-106502202D01*
X95593346Y-106496945D01*
X95612642Y-106480225D01*
X95755352Y-106380298D01*
X95798201Y-106350295D01*
X95965295Y-106183201D01*
X96100835Y-105989630D01*
X96200703Y-105775463D01*
X96261863Y-105547208D01*
X96282459Y-105311800D01*
X96261863Y-105076392D01*
X96200703Y-104848137D01*
X96100835Y-104633971D01*
X95986302Y-104470399D01*
X95965294Y-104440397D01*
X95798202Y-104273306D01*
X95798201Y-104273305D01*
X95655486Y-104173375D01*
X95612641Y-104143374D01*
X95569016Y-104088797D01*
X95561824Y-104019298D01*
X95593346Y-103956944D01*
X95612636Y-103940228D01*
X95798201Y-103810295D01*
X95965295Y-103643201D01*
X96100835Y-103449630D01*
X96200703Y-103235463D01*
X96261863Y-103007208D01*
X96282459Y-102771800D01*
X96261863Y-102536392D01*
X96200703Y-102308137D01*
X96100835Y-102093971D01*
X95986302Y-101930399D01*
X95965294Y-101900397D01*
X95798202Y-101733306D01*
X95798196Y-101733301D01*
X95612642Y-101603375D01*
X95569017Y-101548798D01*
X95561823Y-101479300D01*
X95593346Y-101416945D01*
X95612642Y-101400225D01*
X95755352Y-101300298D01*
X95798201Y-101270295D01*
X95965295Y-101103201D01*
X96100835Y-100909630D01*
X96200703Y-100695463D01*
X96261863Y-100467208D01*
X96282459Y-100231800D01*
X96261863Y-99996392D01*
X96200703Y-99768137D01*
X96100835Y-99553971D01*
X95999248Y-99408888D01*
X95965294Y-99360397D01*
X95798202Y-99193306D01*
X95798201Y-99193305D01*
X95655486Y-99093375D01*
X95612641Y-99063374D01*
X95569016Y-99008797D01*
X95561824Y-98939298D01*
X95593346Y-98876944D01*
X95612636Y-98860228D01*
X95798201Y-98730295D01*
X95965295Y-98563201D01*
X96100835Y-98369630D01*
X96200703Y-98155463D01*
X96261863Y-97927208D01*
X96282459Y-97691800D01*
X96261863Y-97456392D01*
X96200703Y-97228137D01*
X96100835Y-97013971D01*
X96084129Y-96990111D01*
X95965294Y-96820397D01*
X95798202Y-96653306D01*
X95798196Y-96653301D01*
X95612642Y-96523375D01*
X95569017Y-96468798D01*
X95561823Y-96399300D01*
X95593346Y-96336945D01*
X95612642Y-96320225D01*
X95703646Y-96256503D01*
X95798201Y-96190295D01*
X95965295Y-96023201D01*
X96100835Y-95829630D01*
X96200703Y-95615463D01*
X96261863Y-95387208D01*
X96282459Y-95151800D01*
X96261863Y-94916392D01*
X96200703Y-94688137D01*
X96100835Y-94473971D01*
X96076809Y-94439657D01*
X95965294Y-94280397D01*
X95798202Y-94113306D01*
X95798201Y-94113305D01*
X95655486Y-94013375D01*
X95612641Y-93983374D01*
X95569016Y-93928797D01*
X95561824Y-93859298D01*
X95593346Y-93796944D01*
X95612636Y-93780228D01*
X95798201Y-93650295D01*
X95965295Y-93483201D01*
X96100835Y-93289630D01*
X96200703Y-93075463D01*
X96261863Y-92847208D01*
X96282459Y-92611800D01*
X96261863Y-92376392D01*
X96200703Y-92148137D01*
X96100835Y-91933971D01*
X95986302Y-91770399D01*
X95965294Y-91740397D01*
X95798202Y-91573306D01*
X95798196Y-91573301D01*
X95612642Y-91443375D01*
X95569017Y-91388798D01*
X95561823Y-91319300D01*
X95593346Y-91256945D01*
X95612642Y-91240225D01*
X95755352Y-91140298D01*
X95798201Y-91110295D01*
X95965295Y-90943201D01*
X96100835Y-90749630D01*
X96200703Y-90535463D01*
X96261863Y-90307208D01*
X96282459Y-90071800D01*
X96282161Y-90068399D01*
X96272398Y-89956802D01*
X96261863Y-89836392D01*
X96200703Y-89608137D01*
X96100835Y-89393971D01*
X96024008Y-89284249D01*
X95965294Y-89200397D01*
X95798202Y-89033306D01*
X95798196Y-89033301D01*
X95612642Y-88903375D01*
X95569017Y-88848798D01*
X95561823Y-88779300D01*
X95593346Y-88716945D01*
X95612642Y-88700225D01*
X95755352Y-88600298D01*
X95798201Y-88570295D01*
X95965295Y-88403201D01*
X96100835Y-88209630D01*
X96200703Y-87995463D01*
X96261863Y-87767208D01*
X96282459Y-87531800D01*
X96261863Y-87296392D01*
X96206643Y-87090307D01*
X96200705Y-87068144D01*
X96200704Y-87068143D01*
X96200703Y-87068137D01*
X96100835Y-86853971D01*
X95986302Y-86690399D01*
X95965294Y-86660397D01*
X95798202Y-86493306D01*
X95798196Y-86493301D01*
X95612642Y-86363375D01*
X95569017Y-86308798D01*
X95561823Y-86239300D01*
X95593346Y-86176945D01*
X95612642Y-86160225D01*
X95755352Y-86060298D01*
X95798201Y-86030295D01*
X95965295Y-85863201D01*
X96100835Y-85669630D01*
X96200703Y-85455463D01*
X96261863Y-85227208D01*
X96282459Y-84991800D01*
X96261863Y-84756392D01*
X96200703Y-84528137D01*
X96100835Y-84313971D01*
X95986302Y-84150399D01*
X95965294Y-84120397D01*
X95798202Y-83953306D01*
X95798196Y-83953301D01*
X95612642Y-83823375D01*
X95569017Y-83768798D01*
X95561823Y-83699300D01*
X95593346Y-83636945D01*
X95612642Y-83620225D01*
X95755352Y-83520298D01*
X95798201Y-83490295D01*
X95965295Y-83323201D01*
X96100835Y-83129630D01*
X96200703Y-82915463D01*
X96261863Y-82687208D01*
X96282459Y-82451800D01*
X96261863Y-82216392D01*
X96200703Y-81988137D01*
X96100835Y-81773971D01*
X95986302Y-81610399D01*
X95965294Y-81580397D01*
X95798202Y-81413306D01*
X95798196Y-81413301D01*
X95612642Y-81283375D01*
X95569017Y-81228798D01*
X95561823Y-81159300D01*
X95593346Y-81096945D01*
X95612642Y-81080225D01*
X95755352Y-80980298D01*
X95798201Y-80950295D01*
X95965295Y-80783201D01*
X96100835Y-80589630D01*
X96200703Y-80375463D01*
X96261863Y-80147208D01*
X96282459Y-79911800D01*
X96261863Y-79676392D01*
X96200703Y-79448137D01*
X96100835Y-79233971D01*
X95986302Y-79070399D01*
X95965294Y-79040397D01*
X95798202Y-78873306D01*
X95798196Y-78873301D01*
X95612642Y-78743375D01*
X95569017Y-78688798D01*
X95561823Y-78619300D01*
X95593346Y-78556945D01*
X95612642Y-78540225D01*
X95755352Y-78440298D01*
X95798201Y-78410295D01*
X95965295Y-78243201D01*
X96100835Y-78049630D01*
X96200703Y-77835463D01*
X96261863Y-77607208D01*
X96282459Y-77371800D01*
X96261863Y-77136392D01*
X96200703Y-76908137D01*
X96100835Y-76693971D01*
X95986302Y-76530399D01*
X95965294Y-76500397D01*
X95798202Y-76333306D01*
X95798196Y-76333301D01*
X95612642Y-76203375D01*
X95569017Y-76148798D01*
X95561823Y-76079300D01*
X95593346Y-76016945D01*
X95612642Y-76000225D01*
X95755352Y-75900298D01*
X95798201Y-75870295D01*
X95965295Y-75703201D01*
X96100835Y-75509630D01*
X96200703Y-75295463D01*
X96261863Y-75067208D01*
X96282459Y-74831800D01*
X96261863Y-74596392D01*
X96200703Y-74368137D01*
X96100835Y-74153971D01*
X95965295Y-73960399D01*
X95843367Y-73838471D01*
X95809884Y-73777151D01*
X95814868Y-73707459D01*
X95856739Y-73651525D01*
X95887715Y-73634610D01*
X96019131Y-73585596D01*
X96134346Y-73499346D01*
X96220596Y-73384131D01*
X96270891Y-73249283D01*
X96277300Y-73189673D01*
X96277299Y-71393928D01*
X96270891Y-71334317D01*
X96231785Y-71229469D01*
X96220597Y-71199471D01*
X96220593Y-71199464D01*
X96134347Y-71084255D01*
X96134344Y-71084252D01*
X96019135Y-70998006D01*
X96019128Y-70998002D01*
X95884282Y-70947708D01*
X95884283Y-70947708D01*
X95824683Y-70941301D01*
X95824681Y-70941300D01*
X95824673Y-70941300D01*
X95824664Y-70941300D01*
X94028929Y-70941300D01*
X94028923Y-70941301D01*
X93969316Y-70947708D01*
X93834471Y-70998002D01*
X93834464Y-70998006D01*
X93719255Y-71084252D01*
X93719252Y-71084255D01*
X93633006Y-71199464D01*
X93633002Y-71199471D01*
X93582708Y-71334317D01*
X93576301Y-71393916D01*
X93576301Y-71393923D01*
X93576300Y-71393935D01*
X93576300Y-73189670D01*
X93576301Y-73189676D01*
X93582708Y-73249283D01*
X93633002Y-73384128D01*
X93633006Y-73384135D01*
X93719252Y-73499344D01*
X93719255Y-73499347D01*
X93834464Y-73585593D01*
X93834471Y-73585597D01*
X93965881Y-73634610D01*
X94021815Y-73676481D01*
X94046232Y-73741945D01*
X94031380Y-73810218D01*
X94010230Y-73838473D01*
X93888303Y-73960400D01*
X93752765Y-74153969D01*
X93752764Y-74153971D01*
X93652898Y-74368135D01*
X93652894Y-74368144D01*
X93591738Y-74596386D01*
X93591736Y-74596396D01*
X93571141Y-74831799D01*
X93571141Y-74831800D01*
X93591736Y-75067203D01*
X93591738Y-75067213D01*
X93652894Y-75295455D01*
X93652896Y-75295459D01*
X93652897Y-75295463D01*
X93666887Y-75325464D01*
X93752765Y-75509630D01*
X93752767Y-75509634D01*
X93888301Y-75703195D01*
X93888306Y-75703202D01*
X94055397Y-75870293D01*
X94055403Y-75870298D01*
X94240958Y-76000225D01*
X94284583Y-76054802D01*
X94291777Y-76124300D01*
X94260254Y-76186655D01*
X94240958Y-76203375D01*
X94055397Y-76333305D01*
X93888305Y-76500397D01*
X93752765Y-76693969D01*
X93752764Y-76693971D01*
X93652898Y-76908135D01*
X93652894Y-76908144D01*
X93591738Y-77136386D01*
X93591736Y-77136396D01*
X93571141Y-77371799D01*
X93571141Y-77371800D01*
X93591736Y-77607203D01*
X93591738Y-77607213D01*
X93652894Y-77835455D01*
X93652896Y-77835459D01*
X93652897Y-77835463D01*
X93666887Y-77865464D01*
X93752765Y-78049630D01*
X93752767Y-78049634D01*
X93888301Y-78243195D01*
X93888306Y-78243202D01*
X94055397Y-78410293D01*
X94055403Y-78410298D01*
X94240958Y-78540225D01*
X94284583Y-78594802D01*
X94291777Y-78664300D01*
X94260254Y-78726655D01*
X94240958Y-78743375D01*
X94055397Y-78873305D01*
X93888305Y-79040397D01*
X93752765Y-79233969D01*
X93752764Y-79233971D01*
X93652898Y-79448135D01*
X93652894Y-79448144D01*
X93591738Y-79676386D01*
X93591736Y-79676396D01*
X93571141Y-79911799D01*
X93571141Y-79911800D01*
X93591736Y-80147203D01*
X93591738Y-80147213D01*
X93652894Y-80375455D01*
X93652896Y-80375459D01*
X93652897Y-80375463D01*
X93666887Y-80405464D01*
X93752765Y-80589630D01*
X93752767Y-80589634D01*
X93888301Y-80783195D01*
X93888306Y-80783202D01*
X94055397Y-80950293D01*
X94055403Y-80950298D01*
X94240958Y-81080225D01*
X94284583Y-81134802D01*
X94291777Y-81204300D01*
X94260254Y-81266655D01*
X94240958Y-81283375D01*
X94055397Y-81413305D01*
X93888305Y-81580397D01*
X93752765Y-81773969D01*
X93752764Y-81773971D01*
X93652898Y-81988135D01*
X93652894Y-81988144D01*
X93591738Y-82216386D01*
X93591736Y-82216396D01*
X93571141Y-82451799D01*
X93571141Y-82451800D01*
X93591736Y-82687203D01*
X93591738Y-82687213D01*
X93652894Y-82915455D01*
X93652896Y-82915459D01*
X93652897Y-82915463D01*
X93752765Y-83129630D01*
X93752767Y-83129634D01*
X93888301Y-83323195D01*
X93888306Y-83323202D01*
X94055397Y-83490293D01*
X94055403Y-83490298D01*
X94240958Y-83620225D01*
X94284583Y-83674802D01*
X94291777Y-83744300D01*
X94260254Y-83806655D01*
X94240958Y-83823375D01*
X94055397Y-83953305D01*
X93888305Y-84120397D01*
X93752765Y-84313969D01*
X93752764Y-84313971D01*
X93652898Y-84528135D01*
X93652894Y-84528144D01*
X93591738Y-84756386D01*
X93591736Y-84756396D01*
X93571141Y-84991799D01*
X93571141Y-84991800D01*
X93591736Y-85227203D01*
X93591738Y-85227213D01*
X93652894Y-85455455D01*
X93652896Y-85455459D01*
X93652897Y-85455463D01*
X93752764Y-85669629D01*
X93752765Y-85669630D01*
X93752767Y-85669634D01*
X93888301Y-85863195D01*
X93888306Y-85863202D01*
X94055397Y-86030293D01*
X94055403Y-86030298D01*
X94240958Y-86160225D01*
X94284583Y-86214802D01*
X94291777Y-86284300D01*
X94260254Y-86346655D01*
X94240958Y-86363375D01*
X94055397Y-86493305D01*
X93888305Y-86660397D01*
X93752765Y-86853969D01*
X93752764Y-86853971D01*
X93652898Y-87068135D01*
X93652894Y-87068144D01*
X93591738Y-87296386D01*
X93591736Y-87296396D01*
X93571141Y-87531799D01*
X93571141Y-87531800D01*
X93591736Y-87767203D01*
X93591738Y-87767213D01*
X93652894Y-87995455D01*
X93652896Y-87995459D01*
X93652897Y-87995463D01*
X93752764Y-88209629D01*
X93752765Y-88209630D01*
X93752767Y-88209634D01*
X93888301Y-88403195D01*
X93888306Y-88403202D01*
X94055397Y-88570293D01*
X94055403Y-88570298D01*
X94240958Y-88700225D01*
X94284583Y-88754802D01*
X94291777Y-88824300D01*
X94260254Y-88886655D01*
X94240958Y-88903375D01*
X94055397Y-89033305D01*
X93888305Y-89200397D01*
X93752765Y-89393969D01*
X93752764Y-89393971D01*
X93652898Y-89608135D01*
X93652894Y-89608144D01*
X93591738Y-89836386D01*
X93591736Y-89836396D01*
X93571141Y-90071799D01*
X93571141Y-90071800D01*
X93591736Y-90307203D01*
X93591738Y-90307213D01*
X93652894Y-90535455D01*
X93652896Y-90535459D01*
X93652897Y-90535463D01*
X93696299Y-90628538D01*
X93752765Y-90749630D01*
X93752767Y-90749634D01*
X93888301Y-90943195D01*
X93888306Y-90943202D01*
X94055397Y-91110293D01*
X94055403Y-91110298D01*
X94240958Y-91240225D01*
X94284583Y-91294802D01*
X94291777Y-91364300D01*
X94260254Y-91426655D01*
X94240958Y-91443375D01*
X94055397Y-91573305D01*
X93888305Y-91740397D01*
X93752765Y-91933969D01*
X93752764Y-91933971D01*
X93652898Y-92148135D01*
X93652894Y-92148144D01*
X93591738Y-92376386D01*
X93591736Y-92376396D01*
X93571141Y-92611799D01*
X93571141Y-92611800D01*
X93591736Y-92847203D01*
X93591738Y-92847213D01*
X93652894Y-93075455D01*
X93652896Y-93075459D01*
X93652897Y-93075463D01*
X93696299Y-93168538D01*
X93752765Y-93289630D01*
X93752767Y-93289634D01*
X93888301Y-93483195D01*
X93888306Y-93483202D01*
X94055397Y-93650293D01*
X94055403Y-93650298D01*
X94240958Y-93780225D01*
X94284583Y-93834802D01*
X94291777Y-93904300D01*
X94260254Y-93966655D01*
X94240958Y-93983375D01*
X94055397Y-94113305D01*
X93888305Y-94280397D01*
X93752765Y-94473969D01*
X93752764Y-94473971D01*
X93652898Y-94688135D01*
X93652894Y-94688144D01*
X93591738Y-94916386D01*
X93591736Y-94916396D01*
X93571141Y-95151799D01*
X93571141Y-95151800D01*
X93591736Y-95387203D01*
X93591738Y-95387213D01*
X93652894Y-95615455D01*
X93652896Y-95615459D01*
X93652897Y-95615463D01*
X93666887Y-95645464D01*
X93752765Y-95829630D01*
X93752767Y-95829634D01*
X93888301Y-96023195D01*
X93888306Y-96023202D01*
X94055397Y-96190293D01*
X94055403Y-96190298D01*
X94240958Y-96320225D01*
X94284583Y-96374802D01*
X94291777Y-96444300D01*
X94260254Y-96506655D01*
X94240958Y-96523375D01*
X94055397Y-96653305D01*
X93888305Y-96820397D01*
X93752765Y-97013969D01*
X93752764Y-97013971D01*
X93652898Y-97228135D01*
X93652894Y-97228144D01*
X93591738Y-97456386D01*
X93591736Y-97456396D01*
X93571141Y-97691799D01*
X93571141Y-97691800D01*
X93591736Y-97927203D01*
X93591738Y-97927213D01*
X93652894Y-98155455D01*
X93652896Y-98155459D01*
X93652897Y-98155463D01*
X93694617Y-98244931D01*
X93752765Y-98369630D01*
X93752767Y-98369634D01*
X93888301Y-98563195D01*
X93888306Y-98563202D01*
X94055397Y-98730293D01*
X94055403Y-98730298D01*
X94240958Y-98860225D01*
X94284583Y-98914802D01*
X94291777Y-98984300D01*
X94260254Y-99046655D01*
X94240958Y-99063375D01*
X94055397Y-99193305D01*
X93888305Y-99360397D01*
X93752765Y-99553969D01*
X93752764Y-99553971D01*
X93652898Y-99768135D01*
X93652894Y-99768144D01*
X93591738Y-99996386D01*
X93591736Y-99996396D01*
X93571141Y-100231799D01*
X93571141Y-100231800D01*
X93591736Y-100467203D01*
X93591738Y-100467213D01*
X93652894Y-100695455D01*
X93652896Y-100695459D01*
X93652897Y-100695463D01*
X93666887Y-100725464D01*
X93752765Y-100909630D01*
X93752767Y-100909634D01*
X93888301Y-101103195D01*
X93888306Y-101103202D01*
X94055397Y-101270293D01*
X94055403Y-101270298D01*
X94240958Y-101400225D01*
X94284583Y-101454802D01*
X94291777Y-101524300D01*
X94260254Y-101586655D01*
X94240958Y-101603375D01*
X94055397Y-101733305D01*
X93888305Y-101900397D01*
X93752765Y-102093969D01*
X93752764Y-102093971D01*
X93652898Y-102308135D01*
X93652894Y-102308144D01*
X93591738Y-102536386D01*
X93591736Y-102536396D01*
X93571141Y-102771799D01*
X93571141Y-102771800D01*
X93591736Y-103007203D01*
X93591738Y-103007213D01*
X93652894Y-103235455D01*
X93652896Y-103235459D01*
X93652897Y-103235463D01*
X93666887Y-103265464D01*
X93752765Y-103449630D01*
X93752767Y-103449634D01*
X93888301Y-103643195D01*
X93888306Y-103643202D01*
X94055397Y-103810293D01*
X94055403Y-103810298D01*
X94240958Y-103940225D01*
X94284583Y-103994802D01*
X94291777Y-104064300D01*
X94260254Y-104126655D01*
X94240958Y-104143375D01*
X94055397Y-104273305D01*
X93888305Y-104440397D01*
X93752765Y-104633969D01*
X93752764Y-104633971D01*
X93652898Y-104848135D01*
X93652894Y-104848144D01*
X93591738Y-105076386D01*
X93591736Y-105076396D01*
X93571141Y-105311799D01*
X93571141Y-105311800D01*
X93591736Y-105547203D01*
X93591738Y-105547213D01*
X93652894Y-105775455D01*
X93652896Y-105775459D01*
X93652897Y-105775463D01*
X93666887Y-105805464D01*
X93752765Y-105989630D01*
X93752767Y-105989634D01*
X93888301Y-106183195D01*
X93888306Y-106183202D01*
X94055397Y-106350293D01*
X94055403Y-106350298D01*
X94240958Y-106480225D01*
X94284583Y-106534802D01*
X94291777Y-106604300D01*
X94260254Y-106666655D01*
X94240958Y-106683375D01*
X94055397Y-106813305D01*
X93888305Y-106980397D01*
X93752765Y-107173969D01*
X93752764Y-107173971D01*
X93652898Y-107388135D01*
X93652894Y-107388144D01*
X93591738Y-107616386D01*
X93591736Y-107616396D01*
X93571141Y-107851799D01*
X93571141Y-107851800D01*
X88127300Y-107851800D01*
X88127300Y-62206800D01*
X89621927Y-62206800D01*
X89641412Y-62677909D01*
X89699733Y-63145789D01*
X89699734Y-63145789D01*
X89796494Y-63607259D01*
X89931032Y-64059165D01*
X90102426Y-64498415D01*
X90102426Y-64498416D01*
X90309514Y-64922020D01*
X90309515Y-64922021D01*
X90550869Y-65327066D01*
X90550868Y-65327065D01*
X90824850Y-65710801D01*
X91120349Y-66059695D01*
X92093182Y-65086862D01*
X92154505Y-65053377D01*
X92224196Y-65058361D01*
X92272741Y-65091270D01*
X92353369Y-65180230D01*
X92442328Y-65260857D01*
X92478782Y-65320463D01*
X92477223Y-65390315D01*
X92446736Y-65440416D01*
X91473902Y-66413249D01*
X91473903Y-66413250D01*
X91822799Y-66708750D01*
X92206535Y-66982732D01*
X92206534Y-66982731D01*
X92611579Y-67224085D01*
X92611580Y-67224086D01*
X93035184Y-67431174D01*
X93035185Y-67431174D01*
X93474435Y-67602568D01*
X93926341Y-67737106D01*
X94387811Y-67833866D01*
X94387811Y-67833867D01*
X94855691Y-67892188D01*
X95326800Y-67911673D01*
X95797909Y-67892188D01*
X96265789Y-67833867D01*
X96265789Y-67833866D01*
X96727259Y-67737106D01*
X97179165Y-67602568D01*
X97618415Y-67431174D01*
X97618416Y-67431174D01*
X98042020Y-67224086D01*
X98042021Y-67224085D01*
X98447066Y-66982731D01*
X98447065Y-66982732D01*
X98830801Y-66708750D01*
X99179695Y-66413250D01*
X99179695Y-66413249D01*
X98206862Y-65440416D01*
X98173377Y-65379093D01*
X98178361Y-65309401D01*
X98211268Y-65260860D01*
X98300230Y-65180230D01*
X98380859Y-65091268D01*
X98440462Y-65054817D01*
X98510314Y-65056374D01*
X98560416Y-65086862D01*
X99533249Y-66059695D01*
X99533250Y-66059695D01*
X99828750Y-65710801D01*
X100102732Y-65327065D01*
X100102731Y-65327066D01*
X100344085Y-64922021D01*
X100344086Y-64922020D01*
X100551174Y-64498416D01*
X100551174Y-64498415D01*
X100722568Y-64059165D01*
X100857106Y-63607259D01*
X100953866Y-63145789D01*
X100953867Y-63145789D01*
X100996387Y-62804670D01*
X104001300Y-62804670D01*
X104001301Y-62804676D01*
X104007708Y-62864283D01*
X104058002Y-62999128D01*
X104058006Y-62999135D01*
X104144252Y-63114344D01*
X104144255Y-63114347D01*
X104259464Y-63200593D01*
X104259471Y-63200597D01*
X104394317Y-63250891D01*
X104394316Y-63250891D01*
X104401244Y-63251635D01*
X104453927Y-63257300D01*
X106249672Y-63257299D01*
X106309283Y-63250891D01*
X106444131Y-63200596D01*
X106559346Y-63114346D01*
X106645596Y-62999131D01*
X106694610Y-62867716D01*
X106736481Y-62811784D01*
X106801945Y-62787366D01*
X106870218Y-62802217D01*
X106898473Y-62823369D01*
X107020399Y-62945295D01*
X107117184Y-63013065D01*
X107213965Y-63080832D01*
X107213967Y-63080833D01*
X107213970Y-63080835D01*
X107428137Y-63180703D01*
X107656392Y-63241863D01*
X107832834Y-63257300D01*
X107891799Y-63262459D01*
X107891800Y-63262459D01*
X107891801Y-63262459D01*
X107950766Y-63257300D01*
X108127208Y-63241863D01*
X108355463Y-63180703D01*
X108569630Y-63080835D01*
X108763201Y-62945295D01*
X108930295Y-62778201D01*
X109060226Y-62592641D01*
X109114802Y-62549017D01*
X109184300Y-62541823D01*
X109246655Y-62573346D01*
X109263375Y-62592642D01*
X109393300Y-62778195D01*
X109393305Y-62778201D01*
X109560399Y-62945295D01*
X109657184Y-63013065D01*
X109753965Y-63080832D01*
X109753967Y-63080833D01*
X109753970Y-63080835D01*
X109968137Y-63180703D01*
X110196392Y-63241863D01*
X110372834Y-63257300D01*
X110431799Y-63262459D01*
X110431800Y-63262459D01*
X110431801Y-63262459D01*
X110490766Y-63257300D01*
X110667208Y-63241863D01*
X110895463Y-63180703D01*
X111109630Y-63080835D01*
X111303201Y-62945295D01*
X111470295Y-62778201D01*
X111600226Y-62592641D01*
X111654802Y-62549017D01*
X111724300Y-62541823D01*
X111786655Y-62573346D01*
X111803375Y-62592642D01*
X111933300Y-62778195D01*
X111933305Y-62778201D01*
X112100399Y-62945295D01*
X112197184Y-63013065D01*
X112293965Y-63080832D01*
X112293967Y-63080833D01*
X112293970Y-63080835D01*
X112508137Y-63180703D01*
X112736392Y-63241863D01*
X112912834Y-63257300D01*
X112971799Y-63262459D01*
X112971800Y-63262459D01*
X112971801Y-63262459D01*
X113030766Y-63257300D01*
X113207208Y-63241863D01*
X113435463Y-63180703D01*
X113649630Y-63080835D01*
X113843201Y-62945295D01*
X114010295Y-62778201D01*
X114140226Y-62592641D01*
X114194802Y-62549017D01*
X114264300Y-62541823D01*
X114326655Y-62573346D01*
X114343375Y-62592642D01*
X114473300Y-62778195D01*
X114473305Y-62778201D01*
X114640399Y-62945295D01*
X114737184Y-63013065D01*
X114833965Y-63080832D01*
X114833967Y-63080833D01*
X114833970Y-63080835D01*
X115048137Y-63180703D01*
X115276392Y-63241863D01*
X115452834Y-63257300D01*
X115511799Y-63262459D01*
X115511800Y-63262459D01*
X115511801Y-63262459D01*
X115570766Y-63257300D01*
X115747208Y-63241863D01*
X115975463Y-63180703D01*
X116189630Y-63080835D01*
X116383201Y-62945295D01*
X116550295Y-62778201D01*
X116680226Y-62592641D01*
X116734802Y-62549017D01*
X116804300Y-62541823D01*
X116866655Y-62573346D01*
X116883375Y-62592642D01*
X117013300Y-62778195D01*
X117013305Y-62778201D01*
X117180399Y-62945295D01*
X117277184Y-63013065D01*
X117373965Y-63080832D01*
X117373967Y-63080833D01*
X117373970Y-63080835D01*
X117588137Y-63180703D01*
X117816392Y-63241863D01*
X117992834Y-63257300D01*
X118051799Y-63262459D01*
X118051800Y-63262459D01*
X118051801Y-63262459D01*
X118110766Y-63257300D01*
X118287208Y-63241863D01*
X118515463Y-63180703D01*
X118729630Y-63080835D01*
X118923201Y-62945295D01*
X119090295Y-62778201D01*
X119220226Y-62592641D01*
X119274802Y-62549017D01*
X119344300Y-62541823D01*
X119406655Y-62573346D01*
X119423375Y-62592642D01*
X119553300Y-62778195D01*
X119553305Y-62778201D01*
X119720399Y-62945295D01*
X119817184Y-63013065D01*
X119913965Y-63080832D01*
X119913967Y-63080833D01*
X119913970Y-63080835D01*
X120128137Y-63180703D01*
X120356392Y-63241863D01*
X120532834Y-63257300D01*
X120591799Y-63262459D01*
X120591800Y-63262459D01*
X120591801Y-63262459D01*
X120650766Y-63257300D01*
X120827208Y-63241863D01*
X121055463Y-63180703D01*
X121269630Y-63080835D01*
X121463201Y-62945295D01*
X121630295Y-62778201D01*
X121760226Y-62592641D01*
X121814802Y-62549017D01*
X121884300Y-62541823D01*
X121946655Y-62573346D01*
X121963375Y-62592642D01*
X122093300Y-62778195D01*
X122093305Y-62778201D01*
X122260399Y-62945295D01*
X122357184Y-63013065D01*
X122453965Y-63080832D01*
X122453967Y-63080833D01*
X122453970Y-63080835D01*
X122668137Y-63180703D01*
X122896392Y-63241863D01*
X123072834Y-63257300D01*
X123131799Y-63262459D01*
X123131800Y-63262459D01*
X123131801Y-63262459D01*
X123190766Y-63257300D01*
X123367208Y-63241863D01*
X123595463Y-63180703D01*
X123809630Y-63080835D01*
X124003201Y-62945295D01*
X124170295Y-62778201D01*
X124300226Y-62592640D01*
X124354801Y-62549017D01*
X124424299Y-62541823D01*
X124486654Y-62573346D01*
X124503374Y-62592641D01*
X124633305Y-62778201D01*
X124800399Y-62945295D01*
X124897184Y-63013065D01*
X124993965Y-63080832D01*
X124993967Y-63080833D01*
X124993970Y-63080835D01*
X125208137Y-63180703D01*
X125436392Y-63241863D01*
X125612834Y-63257300D01*
X125671799Y-63262459D01*
X125671800Y-63262459D01*
X125671801Y-63262459D01*
X125730766Y-63257300D01*
X125907208Y-63241863D01*
X126135463Y-63180703D01*
X126349630Y-63080835D01*
X126543201Y-62945295D01*
X126710295Y-62778201D01*
X126840226Y-62592641D01*
X126894802Y-62549017D01*
X126964300Y-62541823D01*
X127026655Y-62573346D01*
X127043375Y-62592642D01*
X127173300Y-62778195D01*
X127173305Y-62778201D01*
X127340399Y-62945295D01*
X127437184Y-63013065D01*
X127533965Y-63080832D01*
X127533967Y-63080833D01*
X127533970Y-63080835D01*
X127748137Y-63180703D01*
X127976392Y-63241863D01*
X128152834Y-63257300D01*
X128211799Y-63262459D01*
X128211800Y-63262459D01*
X128211801Y-63262459D01*
X128270766Y-63257300D01*
X128447208Y-63241863D01*
X128675463Y-63180703D01*
X128889630Y-63080835D01*
X129083201Y-62945295D01*
X129250295Y-62778201D01*
X129380226Y-62592640D01*
X129434801Y-62549017D01*
X129504299Y-62541823D01*
X129566654Y-62573346D01*
X129583374Y-62592641D01*
X129713305Y-62778201D01*
X129880399Y-62945295D01*
X129977184Y-63013065D01*
X130073965Y-63080832D01*
X130073967Y-63080833D01*
X130073970Y-63080835D01*
X130288137Y-63180703D01*
X130516392Y-63241863D01*
X130692834Y-63257300D01*
X130751799Y-63262459D01*
X130751800Y-63262459D01*
X130751801Y-63262459D01*
X130810766Y-63257300D01*
X130987208Y-63241863D01*
X131215463Y-63180703D01*
X131429630Y-63080835D01*
X131623201Y-62945295D01*
X131790295Y-62778201D01*
X131920226Y-62592641D01*
X131974802Y-62549017D01*
X132044300Y-62541823D01*
X132106655Y-62573346D01*
X132123375Y-62592642D01*
X132253300Y-62778195D01*
X132253305Y-62778201D01*
X132420399Y-62945295D01*
X132517184Y-63013065D01*
X132613965Y-63080832D01*
X132613967Y-63080833D01*
X132613970Y-63080835D01*
X132828137Y-63180703D01*
X133056392Y-63241863D01*
X133232834Y-63257300D01*
X133291799Y-63262459D01*
X133291800Y-63262459D01*
X133291801Y-63262459D01*
X133350766Y-63257300D01*
X133527208Y-63241863D01*
X133755463Y-63180703D01*
X133969630Y-63080835D01*
X134163201Y-62945295D01*
X134330295Y-62778201D01*
X134460226Y-62592641D01*
X134514802Y-62549017D01*
X134584300Y-62541823D01*
X134646655Y-62573346D01*
X134663375Y-62592642D01*
X134793300Y-62778195D01*
X134793305Y-62778201D01*
X134960399Y-62945295D01*
X135057184Y-63013065D01*
X135153965Y-63080832D01*
X135153967Y-63080833D01*
X135153970Y-63080835D01*
X135368137Y-63180703D01*
X135596392Y-63241863D01*
X135772834Y-63257300D01*
X135831799Y-63262459D01*
X135831800Y-63262459D01*
X135831801Y-63262459D01*
X135890766Y-63257300D01*
X136067208Y-63241863D01*
X136295463Y-63180703D01*
X136509630Y-63080835D01*
X136703201Y-62945295D01*
X136870295Y-62778201D01*
X137000226Y-62592641D01*
X137054802Y-62549017D01*
X137124300Y-62541823D01*
X137186655Y-62573346D01*
X137203375Y-62592642D01*
X137333300Y-62778195D01*
X137333305Y-62778201D01*
X137500399Y-62945295D01*
X137597184Y-63013065D01*
X137693965Y-63080832D01*
X137693967Y-63080833D01*
X137693970Y-63080835D01*
X137908137Y-63180703D01*
X138136392Y-63241863D01*
X138312834Y-63257300D01*
X138371799Y-63262459D01*
X138371800Y-63262459D01*
X138371801Y-63262459D01*
X138430766Y-63257300D01*
X138607208Y-63241863D01*
X138835463Y-63180703D01*
X139049630Y-63080835D01*
X139243201Y-62945295D01*
X139410295Y-62778201D01*
X139540226Y-62592641D01*
X139594802Y-62549017D01*
X139664300Y-62541823D01*
X139726655Y-62573346D01*
X139743375Y-62592642D01*
X139873300Y-62778195D01*
X139873305Y-62778201D01*
X140040399Y-62945295D01*
X140137184Y-63013065D01*
X140233965Y-63080832D01*
X140233967Y-63080833D01*
X140233970Y-63080835D01*
X140448137Y-63180703D01*
X140676392Y-63241863D01*
X140852834Y-63257300D01*
X140911799Y-63262459D01*
X140911800Y-63262459D01*
X140911801Y-63262459D01*
X140970766Y-63257300D01*
X141147208Y-63241863D01*
X141375463Y-63180703D01*
X141589630Y-63080835D01*
X141783201Y-62945295D01*
X141950295Y-62778201D01*
X142085835Y-62584630D01*
X142185703Y-62370463D01*
X142225537Y-62221800D01*
X145221927Y-62221800D01*
X145241412Y-62692909D01*
X145299733Y-63160789D01*
X145299734Y-63160789D01*
X145396494Y-63622259D01*
X145531032Y-64074165D01*
X145702426Y-64513415D01*
X145702426Y-64513416D01*
X145909514Y-64937020D01*
X145909515Y-64937021D01*
X146150869Y-65342066D01*
X146150868Y-65342065D01*
X146424850Y-65725801D01*
X146720349Y-66074695D01*
X147693182Y-65101862D01*
X147754505Y-65068377D01*
X147824196Y-65073361D01*
X147872741Y-65106270D01*
X147953369Y-65195230D01*
X148042328Y-65275857D01*
X148078782Y-65335463D01*
X148077223Y-65405315D01*
X148046736Y-65455416D01*
X147073903Y-66428248D01*
X147073903Y-66428250D01*
X147422799Y-66723750D01*
X147806535Y-66997732D01*
X147806534Y-66997731D01*
X148211579Y-67239085D01*
X148211580Y-67239086D01*
X148635184Y-67446174D01*
X148635185Y-67446174D01*
X149074435Y-67617568D01*
X149526341Y-67752106D01*
X149987811Y-67848866D01*
X149987811Y-67848867D01*
X150455691Y-67907188D01*
X150926800Y-67926673D01*
X151397909Y-67907188D01*
X151865789Y-67848867D01*
X151865789Y-67848866D01*
X152327259Y-67752106D01*
X152779165Y-67617568D01*
X153218415Y-67446174D01*
X153218416Y-67446174D01*
X153642020Y-67239086D01*
X153642021Y-67239085D01*
X154047066Y-66997731D01*
X154047065Y-66997732D01*
X154430801Y-66723750D01*
X154779695Y-66428250D01*
X154779695Y-66428249D01*
X153806862Y-65455416D01*
X153773377Y-65394093D01*
X153778361Y-65324401D01*
X153811268Y-65275860D01*
X153900230Y-65195230D01*
X153980859Y-65106268D01*
X154040462Y-65069817D01*
X154110314Y-65071374D01*
X154160416Y-65101862D01*
X155133249Y-66074695D01*
X155133250Y-66074695D01*
X155428750Y-65725801D01*
X155702732Y-65342065D01*
X155702731Y-65342066D01*
X155944085Y-64937021D01*
X155944086Y-64937020D01*
X156151174Y-64513416D01*
X156151174Y-64513415D01*
X156322568Y-64074165D01*
X156457106Y-63622259D01*
X156553866Y-63160789D01*
X156553867Y-63160789D01*
X156612188Y-62692909D01*
X156631673Y-62221800D01*
X156612188Y-61750691D01*
X156553867Y-61282811D01*
X156553866Y-61282811D01*
X156457106Y-60821341D01*
X156322568Y-60369435D01*
X156151174Y-59930185D01*
X156151174Y-59930184D01*
X155944086Y-59506580D01*
X155944085Y-59506579D01*
X155702731Y-59101534D01*
X155702732Y-59101535D01*
X155428750Y-58717799D01*
X155133250Y-58368903D01*
X155133249Y-58368903D01*
X154160416Y-59341736D01*
X154099093Y-59375221D01*
X154029401Y-59370237D01*
X153980857Y-59337328D01*
X153900230Y-59248369D01*
X153811270Y-59167741D01*
X153774816Y-59108135D01*
X153776375Y-59038283D01*
X153806862Y-58988182D01*
X154779695Y-58015349D01*
X154430801Y-57719850D01*
X154047065Y-57445868D01*
X154047066Y-57445869D01*
X153642021Y-57204515D01*
X153642020Y-57204514D01*
X153218416Y-56997426D01*
X153218415Y-56997426D01*
X152779165Y-56826032D01*
X152327259Y-56691494D01*
X151865789Y-56594734D01*
X151865789Y-56594733D01*
X151397909Y-56536412D01*
X150926800Y-56516927D01*
X150455691Y-56536412D01*
X149987811Y-56594733D01*
X149987811Y-56594734D01*
X149526341Y-56691494D01*
X149074435Y-56826032D01*
X148635185Y-56997426D01*
X148635184Y-56997426D01*
X148211580Y-57204514D01*
X148211579Y-57204515D01*
X147806534Y-57445869D01*
X147806535Y-57445868D01*
X147422799Y-57719850D01*
X147073903Y-58015349D01*
X148046736Y-58988182D01*
X148080221Y-59049505D01*
X148075237Y-59119197D01*
X148042329Y-59167740D01*
X147953369Y-59248369D01*
X147872740Y-59337329D01*
X147813134Y-59373782D01*
X147743281Y-59372223D01*
X147693182Y-59341736D01*
X146720349Y-58368903D01*
X146424850Y-58717799D01*
X146150868Y-59101535D01*
X146150869Y-59101534D01*
X145909515Y-59506579D01*
X145909514Y-59506580D01*
X145702426Y-59930184D01*
X145702426Y-59930185D01*
X145531032Y-60369435D01*
X145396494Y-60821341D01*
X145299734Y-61282811D01*
X145299733Y-61282811D01*
X145241412Y-61750691D01*
X145221927Y-62221800D01*
X142225537Y-62221800D01*
X142246863Y-62142208D01*
X142267459Y-61906800D01*
X142246863Y-61671392D01*
X142185703Y-61443137D01*
X142085835Y-61228971D01*
X142080225Y-61220958D01*
X141950294Y-61035397D01*
X141783202Y-60868306D01*
X141783195Y-60868301D01*
X141589634Y-60732767D01*
X141589630Y-60732765D01*
X141589628Y-60732764D01*
X141375463Y-60632897D01*
X141375459Y-60632896D01*
X141375455Y-60632894D01*
X141147213Y-60571738D01*
X141147203Y-60571736D01*
X140911801Y-60551141D01*
X140911799Y-60551141D01*
X140676396Y-60571736D01*
X140676386Y-60571738D01*
X140448144Y-60632894D01*
X140448135Y-60632898D01*
X140233971Y-60732764D01*
X140233969Y-60732765D01*
X140040397Y-60868305D01*
X139873308Y-61035394D01*
X139743374Y-61220960D01*
X139688797Y-61264584D01*
X139619298Y-61271777D01*
X139556944Y-61240255D01*
X139540229Y-61220964D01*
X139410295Y-61035399D01*
X139410293Y-61035396D01*
X139243202Y-60868306D01*
X139243195Y-60868301D01*
X139049634Y-60732767D01*
X139049630Y-60732765D01*
X139049628Y-60732764D01*
X138835463Y-60632897D01*
X138835459Y-60632896D01*
X138835455Y-60632894D01*
X138607213Y-60571738D01*
X138607203Y-60571736D01*
X138371801Y-60551141D01*
X138371799Y-60551141D01*
X138136396Y-60571736D01*
X138136386Y-60571738D01*
X137908144Y-60632894D01*
X137908135Y-60632898D01*
X137693971Y-60732764D01*
X137693969Y-60732765D01*
X137500397Y-60868305D01*
X137333308Y-61035394D01*
X137203374Y-61220959D01*
X137148797Y-61264584D01*
X137079298Y-61271776D01*
X137016944Y-61240254D01*
X137000224Y-61220958D01*
X136870294Y-61035397D01*
X136703202Y-60868306D01*
X136703195Y-60868301D01*
X136509634Y-60732767D01*
X136509630Y-60732765D01*
X136509628Y-60732764D01*
X136295463Y-60632897D01*
X136295459Y-60632896D01*
X136295455Y-60632894D01*
X136067213Y-60571738D01*
X136067203Y-60571736D01*
X135831801Y-60551141D01*
X135831799Y-60551141D01*
X135596396Y-60571736D01*
X135596386Y-60571738D01*
X135368144Y-60632894D01*
X135368135Y-60632898D01*
X135153971Y-60732764D01*
X135153969Y-60732765D01*
X134960397Y-60868305D01*
X134793305Y-61035397D01*
X134663375Y-61220958D01*
X134608798Y-61264583D01*
X134539300Y-61271777D01*
X134476945Y-61240254D01*
X134460225Y-61220958D01*
X134330294Y-61035397D01*
X134163202Y-60868306D01*
X134163195Y-60868301D01*
X133969634Y-60732767D01*
X133969630Y-60732765D01*
X133969628Y-60732764D01*
X133755463Y-60632897D01*
X133755459Y-60632896D01*
X133755455Y-60632894D01*
X133527213Y-60571738D01*
X133527203Y-60571736D01*
X133291801Y-60551141D01*
X133291799Y-60551141D01*
X133056396Y-60571736D01*
X133056386Y-60571738D01*
X132828144Y-60632894D01*
X132828135Y-60632898D01*
X132613971Y-60732764D01*
X132613969Y-60732765D01*
X132420397Y-60868305D01*
X132253305Y-61035397D01*
X132123375Y-61220958D01*
X132068798Y-61264583D01*
X131999300Y-61271777D01*
X131936945Y-61240254D01*
X131920225Y-61220958D01*
X131790294Y-61035397D01*
X131623202Y-60868306D01*
X131623195Y-60868301D01*
X131429634Y-60732767D01*
X131429630Y-60732765D01*
X131429628Y-60732764D01*
X131215463Y-60632897D01*
X131215459Y-60632896D01*
X131215455Y-60632894D01*
X130987213Y-60571738D01*
X130987203Y-60571736D01*
X130751801Y-60551141D01*
X130751799Y-60551141D01*
X130516396Y-60571736D01*
X130516386Y-60571738D01*
X130288144Y-60632894D01*
X130288135Y-60632898D01*
X130073971Y-60732764D01*
X130073969Y-60732765D01*
X129880397Y-60868305D01*
X129713308Y-61035394D01*
X129583374Y-61220960D01*
X129528797Y-61264584D01*
X129459298Y-61271777D01*
X129396944Y-61240255D01*
X129380229Y-61220964D01*
X129250295Y-61035399D01*
X129250293Y-61035396D01*
X129083202Y-60868306D01*
X129083195Y-60868301D01*
X128889634Y-60732767D01*
X128889630Y-60732765D01*
X128889628Y-60732764D01*
X128675463Y-60632897D01*
X128675459Y-60632896D01*
X128675455Y-60632894D01*
X128447213Y-60571738D01*
X128447203Y-60571736D01*
X128211801Y-60551141D01*
X128211799Y-60551141D01*
X127976396Y-60571736D01*
X127976386Y-60571738D01*
X127748144Y-60632894D01*
X127748135Y-60632898D01*
X127533971Y-60732764D01*
X127533969Y-60732765D01*
X127340397Y-60868305D01*
X127173308Y-61035394D01*
X127043374Y-61220959D01*
X126988797Y-61264584D01*
X126919298Y-61271776D01*
X126856944Y-61240254D01*
X126840224Y-61220958D01*
X126710294Y-61035397D01*
X126543202Y-60868306D01*
X126543195Y-60868301D01*
X126349634Y-60732767D01*
X126349630Y-60732765D01*
X126349628Y-60732764D01*
X126135463Y-60632897D01*
X126135459Y-60632896D01*
X126135455Y-60632894D01*
X125907213Y-60571738D01*
X125907203Y-60571736D01*
X125671801Y-60551141D01*
X125671799Y-60551141D01*
X125436396Y-60571736D01*
X125436386Y-60571738D01*
X125208144Y-60632894D01*
X125208135Y-60632898D01*
X124993971Y-60732764D01*
X124993969Y-60732765D01*
X124800397Y-60868305D01*
X124633308Y-61035394D01*
X124503374Y-61220959D01*
X124448797Y-61264584D01*
X124379298Y-61271776D01*
X124316944Y-61240254D01*
X124300224Y-61220958D01*
X124170294Y-61035397D01*
X124003202Y-60868306D01*
X124003195Y-60868301D01*
X123809634Y-60732767D01*
X123809630Y-60732765D01*
X123809628Y-60732764D01*
X123595463Y-60632897D01*
X123595459Y-60632896D01*
X123595455Y-60632894D01*
X123367213Y-60571738D01*
X123367203Y-60571736D01*
X123131801Y-60551141D01*
X123131799Y-60551141D01*
X122896396Y-60571736D01*
X122896386Y-60571738D01*
X122668144Y-60632894D01*
X122668135Y-60632898D01*
X122453971Y-60732764D01*
X122453969Y-60732765D01*
X122260397Y-60868305D01*
X122093305Y-61035397D01*
X121963375Y-61220958D01*
X121908798Y-61264583D01*
X121839300Y-61271777D01*
X121776945Y-61240254D01*
X121760225Y-61220958D01*
X121630294Y-61035397D01*
X121463202Y-60868306D01*
X121463195Y-60868301D01*
X121269634Y-60732767D01*
X121269630Y-60732765D01*
X121269628Y-60732764D01*
X121055463Y-60632897D01*
X121055459Y-60632896D01*
X121055455Y-60632894D01*
X120827213Y-60571738D01*
X120827203Y-60571736D01*
X120591801Y-60551141D01*
X120591799Y-60551141D01*
X120356396Y-60571736D01*
X120356386Y-60571738D01*
X120128144Y-60632894D01*
X120128135Y-60632898D01*
X119913971Y-60732764D01*
X119913969Y-60732765D01*
X119720397Y-60868305D01*
X119553308Y-61035394D01*
X119423374Y-61220960D01*
X119368797Y-61264584D01*
X119299298Y-61271777D01*
X119236944Y-61240255D01*
X119220229Y-61220964D01*
X119090295Y-61035399D01*
X119090293Y-61035396D01*
X118923202Y-60868306D01*
X118923195Y-60868301D01*
X118729634Y-60732767D01*
X118729630Y-60732765D01*
X118729628Y-60732764D01*
X118515463Y-60632897D01*
X118515459Y-60632896D01*
X118515455Y-60632894D01*
X118287213Y-60571738D01*
X118287203Y-60571736D01*
X118051801Y-60551141D01*
X118051799Y-60551141D01*
X117816396Y-60571736D01*
X117816386Y-60571738D01*
X117588144Y-60632894D01*
X117588135Y-60632898D01*
X117373971Y-60732764D01*
X117373969Y-60732765D01*
X117180397Y-60868305D01*
X117013305Y-61035397D01*
X116883375Y-61220958D01*
X116828798Y-61264583D01*
X116759300Y-61271777D01*
X116696945Y-61240254D01*
X116680225Y-61220958D01*
X116550294Y-61035397D01*
X116383202Y-60868306D01*
X116383195Y-60868301D01*
X116189634Y-60732767D01*
X116189630Y-60732765D01*
X116189628Y-60732764D01*
X115975463Y-60632897D01*
X115975459Y-60632896D01*
X115975455Y-60632894D01*
X115747213Y-60571738D01*
X115747203Y-60571736D01*
X115511801Y-60551141D01*
X115511799Y-60551141D01*
X115276396Y-60571736D01*
X115276386Y-60571738D01*
X115048144Y-60632894D01*
X115048135Y-60632898D01*
X114833971Y-60732764D01*
X114833969Y-60732765D01*
X114640397Y-60868305D01*
X114473308Y-61035394D01*
X114343374Y-61220959D01*
X114288797Y-61264584D01*
X114219298Y-61271776D01*
X114156944Y-61240254D01*
X114140224Y-61220958D01*
X114010294Y-61035397D01*
X113843202Y-60868306D01*
X113843195Y-60868301D01*
X113649634Y-60732767D01*
X113649630Y-60732765D01*
X113649628Y-60732764D01*
X113435463Y-60632897D01*
X113435459Y-60632896D01*
X113435455Y-60632894D01*
X113207213Y-60571738D01*
X113207203Y-60571736D01*
X112971801Y-60551141D01*
X112971799Y-60551141D01*
X112736396Y-60571736D01*
X112736386Y-60571738D01*
X112508144Y-60632894D01*
X112508135Y-60632898D01*
X112293971Y-60732764D01*
X112293969Y-60732765D01*
X112100397Y-60868305D01*
X111933305Y-61035397D01*
X111803375Y-61220958D01*
X111748798Y-61264583D01*
X111679300Y-61271777D01*
X111616945Y-61240254D01*
X111600225Y-61220958D01*
X111470294Y-61035397D01*
X111303202Y-60868306D01*
X111303195Y-60868301D01*
X111109634Y-60732767D01*
X111109630Y-60732765D01*
X111109628Y-60732764D01*
X110895463Y-60632897D01*
X110895459Y-60632896D01*
X110895455Y-60632894D01*
X110667213Y-60571738D01*
X110667203Y-60571736D01*
X110431801Y-60551141D01*
X110431799Y-60551141D01*
X110196396Y-60571736D01*
X110196386Y-60571738D01*
X109968144Y-60632894D01*
X109968135Y-60632898D01*
X109753971Y-60732764D01*
X109753969Y-60732765D01*
X109560397Y-60868305D01*
X109393308Y-61035394D01*
X109263374Y-61220960D01*
X109208797Y-61264584D01*
X109139298Y-61271777D01*
X109076944Y-61240255D01*
X109060229Y-61220964D01*
X108930295Y-61035399D01*
X108930293Y-61035396D01*
X108763202Y-60868306D01*
X108763195Y-60868301D01*
X108569634Y-60732767D01*
X108569630Y-60732765D01*
X108569628Y-60732764D01*
X108355463Y-60632897D01*
X108355459Y-60632896D01*
X108355455Y-60632894D01*
X108127213Y-60571738D01*
X108127203Y-60571736D01*
X107891801Y-60551141D01*
X107891799Y-60551141D01*
X107656396Y-60571736D01*
X107656386Y-60571738D01*
X107428144Y-60632894D01*
X107428135Y-60632898D01*
X107213971Y-60732764D01*
X107213969Y-60732765D01*
X107020400Y-60868303D01*
X106898473Y-60990230D01*
X106837150Y-61023714D01*
X106767458Y-61018730D01*
X106711525Y-60976858D01*
X106694610Y-60945881D01*
X106645597Y-60814471D01*
X106645593Y-60814464D01*
X106559347Y-60699255D01*
X106559344Y-60699252D01*
X106444135Y-60613006D01*
X106444128Y-60613002D01*
X106309282Y-60562708D01*
X106309283Y-60562708D01*
X106249683Y-60556301D01*
X106249681Y-60556300D01*
X106249673Y-60556300D01*
X106249664Y-60556300D01*
X104453929Y-60556300D01*
X104453923Y-60556301D01*
X104394316Y-60562708D01*
X104259471Y-60613002D01*
X104259464Y-60613006D01*
X104144255Y-60699252D01*
X104144252Y-60699255D01*
X104058006Y-60814464D01*
X104058002Y-60814471D01*
X104007708Y-60949317D01*
X104001301Y-61008916D01*
X104001300Y-61008935D01*
X104001300Y-62804670D01*
X100996387Y-62804670D01*
X101012188Y-62677909D01*
X101031673Y-62206800D01*
X101012188Y-61735691D01*
X100953867Y-61267811D01*
X100953866Y-61267811D01*
X100857106Y-60806341D01*
X100722568Y-60354435D01*
X100551174Y-59915185D01*
X100551174Y-59915184D01*
X100344086Y-59491580D01*
X100344085Y-59491579D01*
X100102731Y-59086534D01*
X100102732Y-59086535D01*
X99828750Y-58702799D01*
X99533250Y-58353903D01*
X99533249Y-58353903D01*
X98560416Y-59326736D01*
X98499093Y-59360221D01*
X98429401Y-59355237D01*
X98380857Y-59322328D01*
X98300230Y-59233369D01*
X98211270Y-59152741D01*
X98174816Y-59093135D01*
X98176375Y-59023283D01*
X98206862Y-58973182D01*
X99179695Y-58000349D01*
X98830801Y-57704850D01*
X98447065Y-57430868D01*
X98447066Y-57430869D01*
X98042021Y-57189515D01*
X98042020Y-57189514D01*
X97618416Y-56982426D01*
X97618415Y-56982426D01*
X97179165Y-56811032D01*
X96727259Y-56676494D01*
X96265789Y-56579734D01*
X96265789Y-56579733D01*
X95797909Y-56521412D01*
X95326800Y-56501927D01*
X94855691Y-56521412D01*
X94387811Y-56579733D01*
X94387811Y-56579734D01*
X93926341Y-56676494D01*
X93474435Y-56811032D01*
X93035185Y-56982426D01*
X93035184Y-56982426D01*
X92611580Y-57189514D01*
X92611579Y-57189515D01*
X92206534Y-57430869D01*
X92206535Y-57430868D01*
X91822799Y-57704850D01*
X91473903Y-58000349D01*
X92446736Y-58973182D01*
X92480221Y-59034505D01*
X92475237Y-59104197D01*
X92442329Y-59152740D01*
X92353369Y-59233369D01*
X92272740Y-59322329D01*
X92213134Y-59358782D01*
X92143281Y-59357223D01*
X92093182Y-59326736D01*
X91120349Y-58353903D01*
X90824850Y-58702799D01*
X90550868Y-59086535D01*
X90550869Y-59086534D01*
X90309515Y-59491579D01*
X90309514Y-59491580D01*
X90102426Y-59915184D01*
X90102426Y-59915185D01*
X89931032Y-60354435D01*
X89796494Y-60806341D01*
X89699734Y-61267811D01*
X89699733Y-61267811D01*
X89641412Y-61735691D01*
X89621927Y-62206800D01*
X88127300Y-62206800D01*
X88127300Y-56609012D01*
X88127458Y-56604588D01*
X88132280Y-56537173D01*
X88135054Y-56501927D01*
X88143851Y-56390144D01*
X88145075Y-56381851D01*
X88165702Y-56287031D01*
X88193662Y-56170566D01*
X88195849Y-56163404D01*
X88231789Y-56067046D01*
X88275751Y-55960914D01*
X88278594Y-55954972D01*
X88328366Y-55863821D01*
X88329858Y-55861246D01*
X88388299Y-55765877D01*
X88391487Y-55761180D01*
X88454258Y-55677327D01*
X88456673Y-55674308D01*
X88528820Y-55589836D01*
X88532078Y-55586311D01*
X88606311Y-55512078D01*
X88609836Y-55508820D01*
X88694308Y-55436673D01*
X88697327Y-55434258D01*
X88781180Y-55371487D01*
X88785877Y-55368299D01*
X88881246Y-55309858D01*
X88883821Y-55308366D01*
X88974972Y-55258594D01*
X88980914Y-55255751D01*
X89087046Y-55211789D01*
X89183404Y-55175849D01*
X89190566Y-55173662D01*
X89307043Y-55145699D01*
X89401851Y-55125075D01*
X89410144Y-55123851D01*
X89557035Y-55112289D01*
X89624592Y-55107457D01*
X89629013Y-55107300D01*
X156624587Y-55107300D01*
X156629007Y-55107457D01*
G37*
%TD.AperFunction*%
%TD*%
%TA.AperFunction,Conductor*%
%TO.N,SCLK_SPI2*%
G36*
X113075742Y-94905235D02*
G01*
X113080635Y-94912735D01*
X113080835Y-94914862D01*
X113081800Y-95300800D01*
X113080835Y-95686737D01*
X113077387Y-95695002D01*
X113069106Y-95698408D01*
X113066979Y-95698208D01*
X112290344Y-95552589D01*
X112282844Y-95547696D01*
X112280800Y-95541089D01*
X112280800Y-95060510D01*
X112284227Y-95052237D01*
X112290342Y-95049010D01*
X113066980Y-94903391D01*
X113075742Y-94905235D01*
G37*
%TD.AperFunction*%
%TD*%
%TA.AperFunction,Conductor*%
%TO.N,MOSI_SPI2*%
G36*
X106029831Y-96754907D02*
G01*
X106031052Y-96756350D01*
X106483448Y-97388564D01*
X106487063Y-97393615D01*
X106489090Y-97402338D01*
X106485821Y-97408697D01*
X106145974Y-97748544D01*
X106137701Y-97751971D01*
X106131341Y-97750091D01*
X105595284Y-97402836D01*
X105590203Y-97395462D01*
X105590824Y-97388566D01*
X105738596Y-97029470D01*
X105741164Y-97025630D01*
X106013287Y-96754864D01*
X106021566Y-96751459D01*
X106029831Y-96754907D01*
G37*
%TD.AperFunction*%
%TD*%
%TA.AperFunction,Conductor*%
%TO.N,CS_ADXL*%
G36*
X133854278Y-89772894D02*
G01*
X133860500Y-89778992D01*
X134446239Y-91111781D01*
X134446431Y-91120733D01*
X134443801Y-91124761D01*
X134101561Y-91467001D01*
X134093288Y-91470428D01*
X134088581Y-91469439D01*
X132755792Y-90883700D01*
X132749596Y-90877234D01*
X132749684Y-90868525D01*
X133068038Y-90097583D01*
X133074359Y-90091248D01*
X133845325Y-89772885D01*
X133854278Y-89772894D01*
G37*
%TD.AperFunction*%
%TD*%
M02*
