M48
; DRILL file {KiCad 7.0.7} date Mon Apr  1 01:40:16 2024
; FORMAT={-:-/ absolute / metric / decimal}
; #@! TF.CreationDate,2024-04-01T01:40:16+05:30
; #@! TF.GenerationSoftware,Kicad,Pcbnew,7.0.7
; #@! TF.FileFunction,Plated,1,2,PTH
FMAT,2
METRIC
; #@! TA.AperFunction,Plated,PTH,ViaDrill
T1C0.400
; #@! TA.AperFunction,Plated,PTH,ComponentDrill
T2C0.762
; #@! TA.AperFunction,Plated,PTH,ComponentDrill
T3C1.000
; #@! TA.AperFunction,Plated,PTH,ComponentDrill
T4C3.000
; #@! TA.AperFunction,Plated,PTH,ComponentDrill
T5C8.400
%
G90
G05
T1
X105.74Y-97.028
X113.081Y-95.301
X114.554Y-97.663
X125.527Y-90.068
X135.23Y-82.88
T2
X100.695Y-91.262
X100.695Y-93.802
X100.695Y-96.342
X100.695Y-98.882
X100.695Y-101.422
X100.695Y-103.962
X100.695Y-106.502
X100.695Y-109.042
X123.495Y-91.262
X123.495Y-93.802
X123.495Y-96.342
X123.495Y-98.882
X123.495Y-101.422
X123.495Y-103.962
X123.495Y-106.502
X123.495Y-109.042
T3
X94.927Y-72.292
X94.927Y-74.832
X94.927Y-77.372
X94.927Y-79.912
X94.927Y-82.452
X94.927Y-84.992
X94.927Y-87.532
X94.927Y-90.072
X94.927Y-92.612
X94.927Y-95.152
X94.927Y-97.692
X94.927Y-100.232
X94.927Y-102.772
X94.927Y-105.312
X94.927Y-107.852
X105.352Y-61.907
X107.892Y-61.907
X110.432Y-61.907
X112.972Y-61.907
X115.512Y-61.907
X118.052Y-61.907
X120.592Y-61.907
X123.132Y-61.907
X125.672Y-61.907
X128.212Y-61.907
X130.752Y-61.907
X133.071Y-85.014
X133.071Y-87.554
X133.071Y-90.094
X133.071Y-92.634
X133.292Y-61.907
X135.832Y-61.907
X138.372Y-61.907
X140.912Y-61.907
X141.541Y-83.654
X141.541Y-86.194
X141.541Y-88.734
X141.541Y-91.274
X141.541Y-93.814
X151.327Y-72.322
X151.327Y-74.862
X151.327Y-77.402
X151.327Y-79.942
X151.327Y-82.482
X151.327Y-85.022
X151.327Y-87.562
X151.327Y-90.102
X151.327Y-92.642
X151.327Y-95.182
X151.327Y-97.722
X151.327Y-100.262
X151.327Y-102.802
X151.327Y-105.342
X151.327Y-107.882
T4
X130.071Y-81.544
X130.071Y-95.944
X144.471Y-81.544
X144.471Y-95.944
T5
X95.327Y-62.207
X95.327Y-117.907
X150.927Y-62.222
X150.927Y-117.907
T0
M30
