%TF.GenerationSoftware,KiCad,Pcbnew,7.0.7*%
%TF.CreationDate,2024-04-01T01:40:14+05:30*%
%TF.ProjectId,FC_THT_STACK_2,46435f54-4854-45f5-9354-41434b5f322e,rev?*%
%TF.SameCoordinates,Original*%
%TF.FileFunction,Soldermask,Bot*%
%TF.FilePolarity,Negative*%
%FSLAX46Y46*%
G04 Gerber Fmt 4.6, Leading zero omitted, Abs format (unit mm)*
G04 Created by KiCad (PCBNEW 7.0.7) date 2024-04-01 01:40:14*
%MOMM*%
%LPD*%
G01*
G04 APERTURE LIST*
%ADD10C,3.600000*%
%ADD11R,1.700000X1.700000*%
%ADD12O,1.700000X1.700000*%
%ADD13C,10.400000*%
%ADD14C,1.524000*%
G04 APERTURE END LIST*
D10*
%TO.C,U2*%
X130070600Y-81543800D03*
X130070600Y-95943800D03*
X144470600Y-81543800D03*
X144470600Y-95943800D03*
D11*
X133070600Y-85013800D03*
D12*
X133070600Y-87553800D03*
X133070600Y-90093800D03*
X133070600Y-92633800D03*
X141540600Y-93813800D03*
X141540600Y-91273800D03*
X141540600Y-88733800D03*
X141540600Y-86193800D03*
D11*
X141540600Y-83653800D03*
%TD*%
%TO.C,U1*%
X151326800Y-72321800D03*
D12*
X151326800Y-74861800D03*
X151326800Y-77401800D03*
X151326800Y-79941800D03*
X151326800Y-82481800D03*
X151326800Y-85021800D03*
X151326800Y-87561800D03*
X151326800Y-90101800D03*
X151326800Y-92641800D03*
X151326800Y-95181800D03*
X151326800Y-97721800D03*
X151326800Y-100261800D03*
X151326800Y-102801800D03*
X151326800Y-105341800D03*
X151326800Y-107881800D03*
X94926800Y-107851800D03*
X94926800Y-105311800D03*
X94926800Y-102771800D03*
X94926800Y-100231800D03*
X94926800Y-97691800D03*
X94926800Y-95151800D03*
X94926800Y-92611800D03*
X94926800Y-90071800D03*
X94926800Y-87531800D03*
X94926800Y-84991800D03*
X94926800Y-82451800D03*
X94926800Y-79911800D03*
X94926800Y-77371800D03*
X94926800Y-74831800D03*
D11*
X94926800Y-72291800D03*
X105351800Y-61906800D03*
D12*
X107891800Y-61906800D03*
X110431800Y-61906800D03*
X112971800Y-61906800D03*
X115511800Y-61906800D03*
X118051800Y-61906800D03*
X120591800Y-61906800D03*
X123131800Y-61906800D03*
X125671800Y-61906800D03*
X128211800Y-61906800D03*
X130751800Y-61906800D03*
X133291800Y-61906800D03*
X135831800Y-61906800D03*
X138371800Y-61906800D03*
X140911800Y-61906800D03*
D13*
X150926800Y-117906800D03*
X95326800Y-117906800D03*
X95326800Y-62206800D03*
X150926800Y-62221800D03*
%TD*%
D14*
%TO.C,U3*%
X100694800Y-91262200D03*
X100694800Y-93802200D03*
X100694800Y-96342200D03*
X100694800Y-98882200D03*
X100694800Y-101422200D03*
X100694800Y-103962200D03*
X100694800Y-106502200D03*
X100694800Y-109042200D03*
X123494800Y-109042200D03*
X123494800Y-106502200D03*
X123494800Y-103962200D03*
X123494800Y-101422200D03*
X123494800Y-98882200D03*
X123494800Y-96342200D03*
X123494800Y-93802200D03*
X123494800Y-91262200D03*
%TD*%
M02*
