%TF.GenerationSoftware,KiCad,Pcbnew,7.0.7*%
%TF.CreationDate,2024-04-01T01:40:19+05:30*%
%TF.ProjectId,FC_THT_STACK_2,46435f54-4854-45f5-9354-41434b5f322e,rev?*%
%TF.SameCoordinates,Original*%
%TF.FileFunction,Drillmap*%
%TF.FilePolarity,Positive*%
%FSLAX45Y45*%
G04 Gerber Fmt 4.5, Leading zero omitted, Abs format (unit mm)*
G04 Created by KiCad (PCBNEW 7.0.7) date 2024-04-01 01:40:19*
%MOMM*%
%LPD*%
G01*
G04 APERTURE LIST*
%ADD10C,0.200000*%
G04 APERTURE END LIST*
D10*
X9070957Y-12824664D02*
X9070957Y-12624664D01*
X9070957Y-12624664D02*
X9118576Y-12624664D01*
X9118576Y-12624664D02*
X9147147Y-12634188D01*
X9147147Y-12634188D02*
X9166195Y-12653235D01*
X9166195Y-12653235D02*
X9175719Y-12672283D01*
X9175719Y-12672283D02*
X9185243Y-12710378D01*
X9185243Y-12710378D02*
X9185243Y-12738949D01*
X9185243Y-12738949D02*
X9175719Y-12777045D01*
X9175719Y-12777045D02*
X9166195Y-12796092D01*
X9166195Y-12796092D02*
X9147147Y-12815140D01*
X9147147Y-12815140D02*
X9118576Y-12824664D01*
X9118576Y-12824664D02*
X9070957Y-12824664D01*
X9270957Y-12824664D02*
X9270957Y-12691330D01*
X9270957Y-12729426D02*
X9280481Y-12710378D01*
X9280481Y-12710378D02*
X9290004Y-12700854D01*
X9290004Y-12700854D02*
X9309052Y-12691330D01*
X9309052Y-12691330D02*
X9328100Y-12691330D01*
X9394766Y-12824664D02*
X9394766Y-12691330D01*
X9394766Y-12624664D02*
X9385243Y-12634188D01*
X9385243Y-12634188D02*
X9394766Y-12643711D01*
X9394766Y-12643711D02*
X9404290Y-12634188D01*
X9404290Y-12634188D02*
X9394766Y-12624664D01*
X9394766Y-12624664D02*
X9394766Y-12643711D01*
X9518576Y-12824664D02*
X9499528Y-12815140D01*
X9499528Y-12815140D02*
X9490004Y-12796092D01*
X9490004Y-12796092D02*
X9490004Y-12624664D01*
X9623338Y-12824664D02*
X9604290Y-12815140D01*
X9604290Y-12815140D02*
X9594766Y-12796092D01*
X9594766Y-12796092D02*
X9594766Y-12624664D01*
X9851909Y-12824664D02*
X9851909Y-12624664D01*
X9851909Y-12624664D02*
X9918576Y-12767521D01*
X9918576Y-12767521D02*
X9985243Y-12624664D01*
X9985243Y-12624664D02*
X9985243Y-12824664D01*
X10166195Y-12824664D02*
X10166195Y-12719902D01*
X10166195Y-12719902D02*
X10156671Y-12700854D01*
X10156671Y-12700854D02*
X10137624Y-12691330D01*
X10137624Y-12691330D02*
X10099528Y-12691330D01*
X10099528Y-12691330D02*
X10080481Y-12700854D01*
X10166195Y-12815140D02*
X10147147Y-12824664D01*
X10147147Y-12824664D02*
X10099528Y-12824664D01*
X10099528Y-12824664D02*
X10080481Y-12815140D01*
X10080481Y-12815140D02*
X10070957Y-12796092D01*
X10070957Y-12796092D02*
X10070957Y-12777045D01*
X10070957Y-12777045D02*
X10080481Y-12757997D01*
X10080481Y-12757997D02*
X10099528Y-12748473D01*
X10099528Y-12748473D02*
X10147147Y-12748473D01*
X10147147Y-12748473D02*
X10166195Y-12738949D01*
X10261433Y-12691330D02*
X10261433Y-12891330D01*
X10261433Y-12700854D02*
X10280481Y-12691330D01*
X10280481Y-12691330D02*
X10318576Y-12691330D01*
X10318576Y-12691330D02*
X10337624Y-12700854D01*
X10337624Y-12700854D02*
X10347147Y-12710378D01*
X10347147Y-12710378D02*
X10356671Y-12729426D01*
X10356671Y-12729426D02*
X10356671Y-12786568D01*
X10356671Y-12786568D02*
X10347147Y-12805616D01*
X10347147Y-12805616D02*
X10337624Y-12815140D01*
X10337624Y-12815140D02*
X10318576Y-12824664D01*
X10318576Y-12824664D02*
X10280481Y-12824664D01*
X10280481Y-12824664D02*
X10261433Y-12815140D01*
X10442385Y-12805616D02*
X10451909Y-12815140D01*
X10451909Y-12815140D02*
X10442385Y-12824664D01*
X10442385Y-12824664D02*
X10432862Y-12815140D01*
X10432862Y-12815140D02*
X10442385Y-12805616D01*
X10442385Y-12805616D02*
X10442385Y-12824664D01*
X10442385Y-12700854D02*
X10451909Y-12710378D01*
X10451909Y-12710378D02*
X10442385Y-12719902D01*
X10442385Y-12719902D02*
X10432862Y-12710378D01*
X10432862Y-12710378D02*
X10442385Y-12700854D01*
X10442385Y-12700854D02*
X10442385Y-12719902D01*
M02*
