%TF.GenerationSoftware,KiCad,Pcbnew,7.0.7*%
%TF.CreationDate,2024-02-10T01:20:36+05:30*%
%TF.ProjectId,Sensor_Stack,53656e73-6f72-45f5-9374-61636b2e6b69,rev?*%
%TF.SameCoordinates,Original*%
%TF.FileFunction,Drillmap*%
%TF.FilePolarity,Positive*%
%FSLAX45Y45*%
G04 Gerber Fmt 4.5, Leading zero omitted, Abs format (unit mm)*
G04 Created by KiCad (PCBNEW 7.0.7) date 2024-02-10 01:20:36*
%MOMM*%
%LPD*%
G01*
G04 APERTURE LIST*
%ADD10C,0.200000*%
G04 APERTURE END LIST*
D10*
X9295717Y-11632104D02*
X9295717Y-11432104D01*
X9295717Y-11432104D02*
X9343336Y-11432104D01*
X9343336Y-11432104D02*
X9371907Y-11441628D01*
X9371907Y-11441628D02*
X9390955Y-11460675D01*
X9390955Y-11460675D02*
X9400479Y-11479723D01*
X9400479Y-11479723D02*
X9410003Y-11517818D01*
X9410003Y-11517818D02*
X9410003Y-11546389D01*
X9410003Y-11546389D02*
X9400479Y-11584485D01*
X9400479Y-11584485D02*
X9390955Y-11603532D01*
X9390955Y-11603532D02*
X9371907Y-11622580D01*
X9371907Y-11622580D02*
X9343336Y-11632104D01*
X9343336Y-11632104D02*
X9295717Y-11632104D01*
X9495717Y-11632104D02*
X9495717Y-11498770D01*
X9495717Y-11536866D02*
X9505241Y-11517818D01*
X9505241Y-11517818D02*
X9514764Y-11508294D01*
X9514764Y-11508294D02*
X9533812Y-11498770D01*
X9533812Y-11498770D02*
X9552860Y-11498770D01*
X9619526Y-11632104D02*
X9619526Y-11498770D01*
X9619526Y-11432104D02*
X9610003Y-11441628D01*
X9610003Y-11441628D02*
X9619526Y-11451151D01*
X9619526Y-11451151D02*
X9629050Y-11441628D01*
X9629050Y-11441628D02*
X9619526Y-11432104D01*
X9619526Y-11432104D02*
X9619526Y-11451151D01*
X9743336Y-11632104D02*
X9724288Y-11622580D01*
X9724288Y-11622580D02*
X9714764Y-11603532D01*
X9714764Y-11603532D02*
X9714764Y-11432104D01*
X9848098Y-11632104D02*
X9829050Y-11622580D01*
X9829050Y-11622580D02*
X9819526Y-11603532D01*
X9819526Y-11603532D02*
X9819526Y-11432104D01*
X10076669Y-11632104D02*
X10076669Y-11432104D01*
X10076669Y-11432104D02*
X10143336Y-11574961D01*
X10143336Y-11574961D02*
X10210003Y-11432104D01*
X10210003Y-11432104D02*
X10210003Y-11632104D01*
X10390955Y-11632104D02*
X10390955Y-11527342D01*
X10390955Y-11527342D02*
X10381431Y-11508294D01*
X10381431Y-11508294D02*
X10362384Y-11498770D01*
X10362384Y-11498770D02*
X10324288Y-11498770D01*
X10324288Y-11498770D02*
X10305241Y-11508294D01*
X10390955Y-11622580D02*
X10371907Y-11632104D01*
X10371907Y-11632104D02*
X10324288Y-11632104D01*
X10324288Y-11632104D02*
X10305241Y-11622580D01*
X10305241Y-11622580D02*
X10295717Y-11603532D01*
X10295717Y-11603532D02*
X10295717Y-11584485D01*
X10295717Y-11584485D02*
X10305241Y-11565437D01*
X10305241Y-11565437D02*
X10324288Y-11555913D01*
X10324288Y-11555913D02*
X10371907Y-11555913D01*
X10371907Y-11555913D02*
X10390955Y-11546389D01*
X10486193Y-11498770D02*
X10486193Y-11698770D01*
X10486193Y-11508294D02*
X10505241Y-11498770D01*
X10505241Y-11498770D02*
X10543336Y-11498770D01*
X10543336Y-11498770D02*
X10562384Y-11508294D01*
X10562384Y-11508294D02*
X10571907Y-11517818D01*
X10571907Y-11517818D02*
X10581431Y-11536866D01*
X10581431Y-11536866D02*
X10581431Y-11594008D01*
X10581431Y-11594008D02*
X10571907Y-11613056D01*
X10571907Y-11613056D02*
X10562384Y-11622580D01*
X10562384Y-11622580D02*
X10543336Y-11632104D01*
X10543336Y-11632104D02*
X10505241Y-11632104D01*
X10505241Y-11632104D02*
X10486193Y-11622580D01*
X10667145Y-11613056D02*
X10676669Y-11622580D01*
X10676669Y-11622580D02*
X10667145Y-11632104D01*
X10667145Y-11632104D02*
X10657622Y-11622580D01*
X10657622Y-11622580D02*
X10667145Y-11613056D01*
X10667145Y-11613056D02*
X10667145Y-11632104D01*
X10667145Y-11508294D02*
X10676669Y-11517818D01*
X10676669Y-11517818D02*
X10667145Y-11527342D01*
X10667145Y-11527342D02*
X10657622Y-11517818D01*
X10657622Y-11517818D02*
X10667145Y-11508294D01*
X10667145Y-11508294D02*
X10667145Y-11527342D01*
M02*
