%TF.GenerationSoftware,KiCad,Pcbnew,7.0.7*%
%TF.CreationDate,2024-02-10T01:20:36+05:30*%
%TF.ProjectId,Sensor_Stack,53656e73-6f72-45f5-9374-61636b2e6b69,rev?*%
%TF.SameCoordinates,Original*%
%TF.FileFunction,Drillmap*%
%TF.FilePolarity,Positive*%
%FSLAX45Y45*%
G04 Gerber Fmt 4.5, Leading zero omitted, Abs format (unit mm)*
G04 Created by KiCad (PCBNEW 7.0.7) date 2024-02-10 01:20:36*
%MOMM*%
%LPD*%
G01*
G04 APERTURE LIST*
%ADD10C,0.200000*%
%ADD11C,0.040000*%
%ADD12C,0.100000*%
%ADD13C,0.840000*%
G04 APERTURE END LIST*
D10*
D11*
X10028240Y-7043740D02*
X10068240Y-7083740D01*
X10068240Y-7043740D02*
X10028240Y-7083740D01*
X10124760Y-7076760D02*
X10164760Y-7116760D01*
X10164760Y-7076760D02*
X10124760Y-7116760D01*
X10175560Y-7488240D02*
X10215560Y-7528240D01*
X10215560Y-7488240D02*
X10175560Y-7528240D01*
X10206040Y-6167440D02*
X10246040Y-6207440D01*
X10246040Y-6167440D02*
X10206040Y-6207440D01*
X10261920Y-7046280D02*
X10301920Y-7086280D01*
X10301920Y-7046280D02*
X10261920Y-7086280D01*
X10442260Y-9347520D02*
X10482260Y-9387520D01*
X10482260Y-9347520D02*
X10442260Y-9387520D01*
X10465120Y-6269040D02*
X10505120Y-6309040D01*
X10505120Y-6269040D02*
X10465120Y-6309040D01*
X10587040Y-5834700D02*
X10627040Y-5874700D01*
X10627040Y-5834700D02*
X10587040Y-5874700D01*
X10591180Y-6339180D02*
X10631180Y-6379180D01*
X10631180Y-6339180D02*
X10591180Y-6379180D01*
X10805480Y-6807520D02*
X10845480Y-6847520D01*
X10845480Y-6807520D02*
X10805480Y-6847520D01*
X10841040Y-6063300D02*
X10881040Y-6103300D01*
X10881040Y-6063300D02*
X10841040Y-6103300D01*
X10932480Y-6970080D02*
X10972480Y-7010080D01*
X10972480Y-6970080D02*
X10932480Y-7010080D01*
X10968040Y-6787200D02*
X11008040Y-6827200D01*
X11008040Y-6787200D02*
X10968040Y-6827200D01*
X11034080Y-7660960D02*
X11074080Y-7700960D01*
X11074080Y-7660960D02*
X11034080Y-7700960D01*
X11089960Y-6665280D02*
X11129960Y-6705280D01*
X11129960Y-6665280D02*
X11089960Y-6705280D01*
X11318560Y-7660960D02*
X11358560Y-7700960D01*
X11358560Y-7660960D02*
X11318560Y-7700960D01*
X11453180Y-10907080D02*
X11493180Y-10947080D01*
X11493180Y-10907080D02*
X11453180Y-10947080D01*
X11501440Y-6792280D02*
X11541440Y-6832280D01*
X11541440Y-6792280D02*
X11501440Y-6832280D01*
X11519220Y-7460300D02*
X11559220Y-7500300D01*
X11559220Y-7460300D02*
X11519220Y-7500300D01*
X13002580Y-10894380D02*
X13042580Y-10934380D01*
X13042580Y-10894380D02*
X13002580Y-10934380D01*
X13624880Y-6512880D02*
X13664880Y-6552880D01*
X13664880Y-6512880D02*
X13624880Y-6552880D01*
X13800140Y-6157280D02*
X13840140Y-6197280D01*
X13840140Y-6157280D02*
X13800140Y-6197280D01*
X13995720Y-8138480D02*
X14035720Y-8178480D01*
X14035720Y-8138480D02*
X13995720Y-8178480D01*
X14117032Y-6159710D02*
X14157032Y-6199710D01*
X14157032Y-6159710D02*
X14117032Y-6199710D01*
X14153200Y-7396800D02*
X14193200Y-7436800D01*
X14193200Y-7396800D02*
X14153200Y-7436800D01*
X14153200Y-9337360D02*
X14193200Y-9377360D01*
X14193200Y-9337360D02*
X14153200Y-9377360D01*
X14163360Y-7691440D02*
X14203360Y-7731440D01*
X14203360Y-7691440D02*
X14163360Y-7731440D01*
X14259880Y-6335080D02*
X14299880Y-6375080D01*
X14299880Y-6335080D02*
X14259880Y-6375080D01*
X14270040Y-7864160D02*
X14310040Y-7904160D01*
X14310040Y-7864160D02*
X14270040Y-7904160D01*
X14432600Y-6797360D02*
X14472600Y-6837360D01*
X14472600Y-6797360D02*
X14432600Y-6837360D01*
X14722160Y-6589080D02*
X14762160Y-6629080D01*
X14762160Y-6589080D02*
X14722160Y-6629080D01*
X14747560Y-7066600D02*
X14787560Y-7106600D01*
X14787560Y-7066600D02*
X14747560Y-7106600D01*
X14833920Y-7676200D02*
X14873920Y-7716200D01*
X14873920Y-7676200D02*
X14833920Y-7716200D01*
X14854240Y-6985320D02*
X14894240Y-7025320D01*
X14894240Y-6985320D02*
X14854240Y-7025320D01*
X14910120Y-6787200D02*
X14950120Y-6827200D01*
X14950120Y-6787200D02*
X14910120Y-6827200D01*
X15159040Y-6441760D02*
X15199040Y-6481760D01*
X15199040Y-6441760D02*
X15159040Y-6481760D01*
D12*
X9767440Y-6036620D02*
G75*
G03*
X9767440Y-6036620I-50000J0D01*
G01*
X9767440Y-6290620D02*
G75*
G03*
X9767440Y-6290620I-50000J0D01*
G01*
X9767440Y-6544620D02*
G75*
G03*
X9767440Y-6544620I-50000J0D01*
G01*
X9767440Y-6798620D02*
G75*
G03*
X9767440Y-6798620I-50000J0D01*
G01*
X9767440Y-7052620D02*
G75*
G03*
X9767440Y-7052620I-50000J0D01*
G01*
X9767440Y-7306620D02*
G75*
G03*
X9767440Y-7306620I-50000J0D01*
G01*
X9767440Y-7560620D02*
G75*
G03*
X9767440Y-7560620I-50000J0D01*
G01*
X9767440Y-7814620D02*
G75*
G03*
X9767440Y-7814620I-50000J0D01*
G01*
X9767440Y-8068620D02*
G75*
G03*
X9767440Y-8068620I-50000J0D01*
G01*
X9767440Y-8322620D02*
G75*
G03*
X9767440Y-8322620I-50000J0D01*
G01*
X9767440Y-8576620D02*
G75*
G03*
X9767440Y-8576620I-50000J0D01*
G01*
X9767440Y-8830620D02*
G75*
G03*
X9767440Y-8830620I-50000J0D01*
G01*
X9767440Y-9084620D02*
G75*
G03*
X9767440Y-9084620I-50000J0D01*
G01*
X9767440Y-9338620D02*
G75*
G03*
X9767440Y-9338620I-50000J0D01*
G01*
X9767440Y-9592620D02*
G75*
G03*
X9767440Y-9592620I-50000J0D01*
G01*
X10809940Y-4998120D02*
G75*
G03*
X10809940Y-4998120I-50000J0D01*
G01*
X11063940Y-4998120D02*
G75*
G03*
X11063940Y-4998120I-50000J0D01*
G01*
X11317940Y-4998120D02*
G75*
G03*
X11317940Y-4998120I-50000J0D01*
G01*
X11571940Y-4998120D02*
G75*
G03*
X11571940Y-4998120I-50000J0D01*
G01*
X11825940Y-4998120D02*
G75*
G03*
X11825940Y-4998120I-50000J0D01*
G01*
X12079940Y-4998120D02*
G75*
G03*
X12079940Y-4998120I-50000J0D01*
G01*
X12333940Y-4998120D02*
G75*
G03*
X12333940Y-4998120I-50000J0D01*
G01*
X12587940Y-4998120D02*
G75*
G03*
X12587940Y-4998120I-50000J0D01*
G01*
X12841940Y-4998120D02*
G75*
G03*
X12841940Y-4998120I-50000J0D01*
G01*
X13095940Y-4998120D02*
G75*
G03*
X13095940Y-4998120I-50000J0D01*
G01*
X13349940Y-4998120D02*
G75*
G03*
X13349940Y-4998120I-50000J0D01*
G01*
X13603940Y-4998120D02*
G75*
G03*
X13603940Y-4998120I-50000J0D01*
G01*
X13857940Y-4998120D02*
G75*
G03*
X13857940Y-4998120I-50000J0D01*
G01*
X14111940Y-4998120D02*
G75*
G03*
X14111940Y-4998120I-50000J0D01*
G01*
X14365940Y-4998120D02*
G75*
G03*
X14365940Y-4998120I-50000J0D01*
G01*
X15407440Y-6039620D02*
G75*
G03*
X15407440Y-6039620I-50000J0D01*
G01*
X15407440Y-6293620D02*
G75*
G03*
X15407440Y-6293620I-50000J0D01*
G01*
X15407440Y-6547620D02*
G75*
G03*
X15407440Y-6547620I-50000J0D01*
G01*
X15407440Y-6801620D02*
G75*
G03*
X15407440Y-6801620I-50000J0D01*
G01*
X15407440Y-7055620D02*
G75*
G03*
X15407440Y-7055620I-50000J0D01*
G01*
X15407440Y-7309620D02*
G75*
G03*
X15407440Y-7309620I-50000J0D01*
G01*
X15407440Y-7563620D02*
G75*
G03*
X15407440Y-7563620I-50000J0D01*
G01*
X15407440Y-7817620D02*
G75*
G03*
X15407440Y-7817620I-50000J0D01*
G01*
X15407440Y-8071620D02*
G75*
G03*
X15407440Y-8071620I-50000J0D01*
G01*
X15407440Y-8325620D02*
G75*
G03*
X15407440Y-8325620I-50000J0D01*
G01*
X15407440Y-8579620D02*
G75*
G03*
X15407440Y-8579620I-50000J0D01*
G01*
X15407440Y-8833620D02*
G75*
G03*
X15407440Y-8833620I-50000J0D01*
G01*
X15407440Y-9087620D02*
G75*
G03*
X15407440Y-9087620I-50000J0D01*
G01*
X15407440Y-9341620D02*
G75*
G03*
X15407440Y-9341620I-50000J0D01*
G01*
X15407440Y-9595620D02*
G75*
G03*
X15407440Y-9595620I-50000J0D01*
G01*
D13*
X9757440Y-4608120D02*
X9757440Y-5448120D01*
X9337440Y-5028120D02*
X10177440Y-5028120D01*
X9757440Y-10178120D02*
X9757440Y-11018120D01*
X9337440Y-10598120D02*
X10177440Y-10598120D01*
X15317440Y-4609620D02*
X15317440Y-5449620D01*
X14897440Y-5029620D02*
X15737440Y-5029620D01*
X15317440Y-10178120D02*
X15317440Y-11018120D01*
X14897440Y-10598120D02*
X15737440Y-10598120D01*
D10*
X9295717Y-11632104D02*
X9295717Y-11432104D01*
X9295717Y-11432104D02*
X9343336Y-11432104D01*
X9343336Y-11432104D02*
X9371907Y-11441628D01*
X9371907Y-11441628D02*
X9390955Y-11460675D01*
X9390955Y-11460675D02*
X9400479Y-11479723D01*
X9400479Y-11479723D02*
X9410003Y-11517818D01*
X9410003Y-11517818D02*
X9410003Y-11546389D01*
X9410003Y-11546389D02*
X9400479Y-11584485D01*
X9400479Y-11584485D02*
X9390955Y-11603532D01*
X9390955Y-11603532D02*
X9371907Y-11622580D01*
X9371907Y-11622580D02*
X9343336Y-11632104D01*
X9343336Y-11632104D02*
X9295717Y-11632104D01*
X9495717Y-11632104D02*
X9495717Y-11498770D01*
X9495717Y-11536866D02*
X9505241Y-11517818D01*
X9505241Y-11517818D02*
X9514764Y-11508294D01*
X9514764Y-11508294D02*
X9533812Y-11498770D01*
X9533812Y-11498770D02*
X9552860Y-11498770D01*
X9619526Y-11632104D02*
X9619526Y-11498770D01*
X9619526Y-11432104D02*
X9610003Y-11441628D01*
X9610003Y-11441628D02*
X9619526Y-11451151D01*
X9619526Y-11451151D02*
X9629050Y-11441628D01*
X9629050Y-11441628D02*
X9619526Y-11432104D01*
X9619526Y-11432104D02*
X9619526Y-11451151D01*
X9743336Y-11632104D02*
X9724288Y-11622580D01*
X9724288Y-11622580D02*
X9714764Y-11603532D01*
X9714764Y-11603532D02*
X9714764Y-11432104D01*
X9848098Y-11632104D02*
X9829050Y-11622580D01*
X9829050Y-11622580D02*
X9819526Y-11603532D01*
X9819526Y-11603532D02*
X9819526Y-11432104D01*
X10076669Y-11632104D02*
X10076669Y-11432104D01*
X10076669Y-11432104D02*
X10143336Y-11574961D01*
X10143336Y-11574961D02*
X10210003Y-11432104D01*
X10210003Y-11432104D02*
X10210003Y-11632104D01*
X10390955Y-11632104D02*
X10390955Y-11527342D01*
X10390955Y-11527342D02*
X10381431Y-11508294D01*
X10381431Y-11508294D02*
X10362384Y-11498770D01*
X10362384Y-11498770D02*
X10324288Y-11498770D01*
X10324288Y-11498770D02*
X10305241Y-11508294D01*
X10390955Y-11622580D02*
X10371907Y-11632104D01*
X10371907Y-11632104D02*
X10324288Y-11632104D01*
X10324288Y-11632104D02*
X10305241Y-11622580D01*
X10305241Y-11622580D02*
X10295717Y-11603532D01*
X10295717Y-11603532D02*
X10295717Y-11584485D01*
X10295717Y-11584485D02*
X10305241Y-11565437D01*
X10305241Y-11565437D02*
X10324288Y-11555913D01*
X10324288Y-11555913D02*
X10371907Y-11555913D01*
X10371907Y-11555913D02*
X10390955Y-11546389D01*
X10486193Y-11498770D02*
X10486193Y-11698770D01*
X10486193Y-11508294D02*
X10505241Y-11498770D01*
X10505241Y-11498770D02*
X10543336Y-11498770D01*
X10543336Y-11498770D02*
X10562384Y-11508294D01*
X10562384Y-11508294D02*
X10571907Y-11517818D01*
X10571907Y-11517818D02*
X10581431Y-11536866D01*
X10581431Y-11536866D02*
X10581431Y-11594008D01*
X10581431Y-11594008D02*
X10571907Y-11613056D01*
X10571907Y-11613056D02*
X10562384Y-11622580D01*
X10562384Y-11622580D02*
X10543336Y-11632104D01*
X10543336Y-11632104D02*
X10505241Y-11632104D01*
X10505241Y-11632104D02*
X10486193Y-11622580D01*
X10667145Y-11613056D02*
X10676669Y-11622580D01*
X10676669Y-11622580D02*
X10667145Y-11632104D01*
X10667145Y-11632104D02*
X10657622Y-11622580D01*
X10657622Y-11622580D02*
X10667145Y-11613056D01*
X10667145Y-11613056D02*
X10667145Y-11632104D01*
X10667145Y-11508294D02*
X10676669Y-11517818D01*
X10676669Y-11517818D02*
X10667145Y-11527342D01*
X10667145Y-11527342D02*
X10657622Y-11517818D01*
X10657622Y-11517818D02*
X10667145Y-11508294D01*
X10667145Y-11508294D02*
X10667145Y-11527342D01*
D11*
X8994940Y-11940620D02*
X9034940Y-11980620D01*
X9034940Y-11940620D02*
X8994940Y-11980620D01*
D10*
X9333812Y-11852104D02*
X9352860Y-11852104D01*
X9352860Y-11852104D02*
X9371907Y-11861628D01*
X9371907Y-11861628D02*
X9381431Y-11871151D01*
X9381431Y-11871151D02*
X9390955Y-11890199D01*
X9390955Y-11890199D02*
X9400479Y-11928294D01*
X9400479Y-11928294D02*
X9400479Y-11975913D01*
X9400479Y-11975913D02*
X9390955Y-12014008D01*
X9390955Y-12014008D02*
X9381431Y-12033056D01*
X9381431Y-12033056D02*
X9371907Y-12042580D01*
X9371907Y-12042580D02*
X9352860Y-12052104D01*
X9352860Y-12052104D02*
X9333812Y-12052104D01*
X9333812Y-12052104D02*
X9314764Y-12042580D01*
X9314764Y-12042580D02*
X9305241Y-12033056D01*
X9305241Y-12033056D02*
X9295717Y-12014008D01*
X9295717Y-12014008D02*
X9286193Y-11975913D01*
X9286193Y-11975913D02*
X9286193Y-11928294D01*
X9286193Y-11928294D02*
X9295717Y-11890199D01*
X9295717Y-11890199D02*
X9305241Y-11871151D01*
X9305241Y-11871151D02*
X9314764Y-11861628D01*
X9314764Y-11861628D02*
X9333812Y-11852104D01*
X9486193Y-12033056D02*
X9495717Y-12042580D01*
X9495717Y-12042580D02*
X9486193Y-12052104D01*
X9486193Y-12052104D02*
X9476669Y-12042580D01*
X9476669Y-12042580D02*
X9486193Y-12033056D01*
X9486193Y-12033056D02*
X9486193Y-12052104D01*
X9667145Y-11918770D02*
X9667145Y-12052104D01*
X9619526Y-11842580D02*
X9571907Y-11985437D01*
X9571907Y-11985437D02*
X9695717Y-11985437D01*
X9810003Y-11852104D02*
X9829050Y-11852104D01*
X9829050Y-11852104D02*
X9848098Y-11861628D01*
X9848098Y-11861628D02*
X9857622Y-11871151D01*
X9857622Y-11871151D02*
X9867145Y-11890199D01*
X9867145Y-11890199D02*
X9876669Y-11928294D01*
X9876669Y-11928294D02*
X9876669Y-11975913D01*
X9876669Y-11975913D02*
X9867145Y-12014008D01*
X9867145Y-12014008D02*
X9857622Y-12033056D01*
X9857622Y-12033056D02*
X9848098Y-12042580D01*
X9848098Y-12042580D02*
X9829050Y-12052104D01*
X9829050Y-12052104D02*
X9810003Y-12052104D01*
X9810003Y-12052104D02*
X9790955Y-12042580D01*
X9790955Y-12042580D02*
X9781431Y-12033056D01*
X9781431Y-12033056D02*
X9771907Y-12014008D01*
X9771907Y-12014008D02*
X9762384Y-11975913D01*
X9762384Y-11975913D02*
X9762384Y-11928294D01*
X9762384Y-11928294D02*
X9771907Y-11890199D01*
X9771907Y-11890199D02*
X9781431Y-11871151D01*
X9781431Y-11871151D02*
X9790955Y-11861628D01*
X9790955Y-11861628D02*
X9810003Y-11852104D01*
X10000479Y-11852104D02*
X10019526Y-11852104D01*
X10019526Y-11852104D02*
X10038574Y-11861628D01*
X10038574Y-11861628D02*
X10048098Y-11871151D01*
X10048098Y-11871151D02*
X10057622Y-11890199D01*
X10057622Y-11890199D02*
X10067145Y-11928294D01*
X10067145Y-11928294D02*
X10067145Y-11975913D01*
X10067145Y-11975913D02*
X10057622Y-12014008D01*
X10057622Y-12014008D02*
X10048098Y-12033056D01*
X10048098Y-12033056D02*
X10038574Y-12042580D01*
X10038574Y-12042580D02*
X10019526Y-12052104D01*
X10019526Y-12052104D02*
X10000479Y-12052104D01*
X10000479Y-12052104D02*
X9981431Y-12042580D01*
X9981431Y-12042580D02*
X9971907Y-12033056D01*
X9971907Y-12033056D02*
X9962384Y-12014008D01*
X9962384Y-12014008D02*
X9952860Y-11975913D01*
X9952860Y-11975913D02*
X9952860Y-11928294D01*
X9952860Y-11928294D02*
X9962384Y-11890199D01*
X9962384Y-11890199D02*
X9971907Y-11871151D01*
X9971907Y-11871151D02*
X9981431Y-11861628D01*
X9981431Y-11861628D02*
X10000479Y-11852104D01*
X10152860Y-12052104D02*
X10152860Y-11918770D01*
X10152860Y-11937818D02*
X10162384Y-11928294D01*
X10162384Y-11928294D02*
X10181431Y-11918770D01*
X10181431Y-11918770D02*
X10210003Y-11918770D01*
X10210003Y-11918770D02*
X10229050Y-11928294D01*
X10229050Y-11928294D02*
X10238574Y-11947342D01*
X10238574Y-11947342D02*
X10238574Y-12052104D01*
X10238574Y-11947342D02*
X10248098Y-11928294D01*
X10248098Y-11928294D02*
X10267145Y-11918770D01*
X10267145Y-11918770D02*
X10295717Y-11918770D01*
X10295717Y-11918770D02*
X10314765Y-11928294D01*
X10314765Y-11928294D02*
X10324288Y-11947342D01*
X10324288Y-11947342D02*
X10324288Y-12052104D01*
X10419526Y-12052104D02*
X10419526Y-11918770D01*
X10419526Y-11937818D02*
X10429050Y-11928294D01*
X10429050Y-11928294D02*
X10448098Y-11918770D01*
X10448098Y-11918770D02*
X10476669Y-11918770D01*
X10476669Y-11918770D02*
X10495717Y-11928294D01*
X10495717Y-11928294D02*
X10505241Y-11947342D01*
X10505241Y-11947342D02*
X10505241Y-12052104D01*
X10505241Y-11947342D02*
X10514765Y-11928294D01*
X10514765Y-11928294D02*
X10533812Y-11918770D01*
X10533812Y-11918770D02*
X10562384Y-11918770D01*
X10562384Y-11918770D02*
X10581431Y-11928294D01*
X10581431Y-11928294D02*
X10590955Y-11947342D01*
X10590955Y-11947342D02*
X10590955Y-12052104D01*
X10981431Y-11842580D02*
X10810003Y-12099723D01*
X11238574Y-11852104D02*
X11257622Y-11852104D01*
X11257622Y-11852104D02*
X11276669Y-11861628D01*
X11276669Y-11861628D02*
X11286193Y-11871151D01*
X11286193Y-11871151D02*
X11295717Y-11890199D01*
X11295717Y-11890199D02*
X11305241Y-11928294D01*
X11305241Y-11928294D02*
X11305241Y-11975913D01*
X11305241Y-11975913D02*
X11295717Y-12014008D01*
X11295717Y-12014008D02*
X11286193Y-12033056D01*
X11286193Y-12033056D02*
X11276669Y-12042580D01*
X11276669Y-12042580D02*
X11257622Y-12052104D01*
X11257622Y-12052104D02*
X11238574Y-12052104D01*
X11238574Y-12052104D02*
X11219526Y-12042580D01*
X11219526Y-12042580D02*
X11210003Y-12033056D01*
X11210003Y-12033056D02*
X11200479Y-12014008D01*
X11200479Y-12014008D02*
X11190955Y-11975913D01*
X11190955Y-11975913D02*
X11190955Y-11928294D01*
X11190955Y-11928294D02*
X11200479Y-11890199D01*
X11200479Y-11890199D02*
X11210003Y-11871151D01*
X11210003Y-11871151D02*
X11219526Y-11861628D01*
X11219526Y-11861628D02*
X11238574Y-11852104D01*
X11390955Y-12033056D02*
X11400479Y-12042580D01*
X11400479Y-12042580D02*
X11390955Y-12052104D01*
X11390955Y-12052104D02*
X11381431Y-12042580D01*
X11381431Y-12042580D02*
X11390955Y-12033056D01*
X11390955Y-12033056D02*
X11390955Y-12052104D01*
X11524288Y-11852104D02*
X11543336Y-11852104D01*
X11543336Y-11852104D02*
X11562384Y-11861628D01*
X11562384Y-11861628D02*
X11571907Y-11871151D01*
X11571907Y-11871151D02*
X11581431Y-11890199D01*
X11581431Y-11890199D02*
X11590955Y-11928294D01*
X11590955Y-11928294D02*
X11590955Y-11975913D01*
X11590955Y-11975913D02*
X11581431Y-12014008D01*
X11581431Y-12014008D02*
X11571907Y-12033056D01*
X11571907Y-12033056D02*
X11562384Y-12042580D01*
X11562384Y-12042580D02*
X11543336Y-12052104D01*
X11543336Y-12052104D02*
X11524288Y-12052104D01*
X11524288Y-12052104D02*
X11505241Y-12042580D01*
X11505241Y-12042580D02*
X11495717Y-12033056D01*
X11495717Y-12033056D02*
X11486193Y-12014008D01*
X11486193Y-12014008D02*
X11476669Y-11975913D01*
X11476669Y-11975913D02*
X11476669Y-11928294D01*
X11476669Y-11928294D02*
X11486193Y-11890199D01*
X11486193Y-11890199D02*
X11495717Y-11871151D01*
X11495717Y-11871151D02*
X11505241Y-11861628D01*
X11505241Y-11861628D02*
X11524288Y-11852104D01*
X11781431Y-12052104D02*
X11667146Y-12052104D01*
X11724288Y-12052104D02*
X11724288Y-11852104D01*
X11724288Y-11852104D02*
X11705241Y-11880675D01*
X11705241Y-11880675D02*
X11686193Y-11899723D01*
X11686193Y-11899723D02*
X11667146Y-11909247D01*
X11962384Y-11852104D02*
X11867146Y-11852104D01*
X11867146Y-11852104D02*
X11857622Y-11947342D01*
X11857622Y-11947342D02*
X11867146Y-11937818D01*
X11867146Y-11937818D02*
X11886193Y-11928294D01*
X11886193Y-11928294D02*
X11933812Y-11928294D01*
X11933812Y-11928294D02*
X11952860Y-11937818D01*
X11952860Y-11937818D02*
X11962384Y-11947342D01*
X11962384Y-11947342D02*
X11971907Y-11966389D01*
X11971907Y-11966389D02*
X11971907Y-12014008D01*
X11971907Y-12014008D02*
X11962384Y-12033056D01*
X11962384Y-12033056D02*
X11952860Y-12042580D01*
X11952860Y-12042580D02*
X11933812Y-12052104D01*
X11933812Y-12052104D02*
X11886193Y-12052104D01*
X11886193Y-12052104D02*
X11867146Y-12042580D01*
X11867146Y-12042580D02*
X11857622Y-12033056D01*
X12038574Y-11852104D02*
X12171907Y-11852104D01*
X12171907Y-11852104D02*
X12086193Y-12052104D01*
X12238574Y-11852104D02*
X12238574Y-11890199D01*
X12314765Y-11852104D02*
X12314765Y-11890199D01*
X12610003Y-12128294D02*
X12600479Y-12118770D01*
X12600479Y-12118770D02*
X12581431Y-12090199D01*
X12581431Y-12090199D02*
X12571908Y-12071151D01*
X12571908Y-12071151D02*
X12562384Y-12042580D01*
X12562384Y-12042580D02*
X12552860Y-11994961D01*
X12552860Y-11994961D02*
X12552860Y-11956866D01*
X12552860Y-11956866D02*
X12562384Y-11909247D01*
X12562384Y-11909247D02*
X12571908Y-11880675D01*
X12571908Y-11880675D02*
X12581431Y-11861628D01*
X12581431Y-11861628D02*
X12600479Y-11833056D01*
X12600479Y-11833056D02*
X12610003Y-11823532D01*
X12667146Y-11852104D02*
X12790955Y-11852104D01*
X12790955Y-11852104D02*
X12724288Y-11928294D01*
X12724288Y-11928294D02*
X12752860Y-11928294D01*
X12752860Y-11928294D02*
X12771908Y-11937818D01*
X12771908Y-11937818D02*
X12781431Y-11947342D01*
X12781431Y-11947342D02*
X12790955Y-11966389D01*
X12790955Y-11966389D02*
X12790955Y-12014008D01*
X12790955Y-12014008D02*
X12781431Y-12033056D01*
X12781431Y-12033056D02*
X12771908Y-12042580D01*
X12771908Y-12042580D02*
X12752860Y-12052104D01*
X12752860Y-12052104D02*
X12695717Y-12052104D01*
X12695717Y-12052104D02*
X12676669Y-12042580D01*
X12676669Y-12042580D02*
X12667146Y-12033056D01*
X12962384Y-11852104D02*
X12924288Y-11852104D01*
X12924288Y-11852104D02*
X12905241Y-11861628D01*
X12905241Y-11861628D02*
X12895717Y-11871151D01*
X12895717Y-11871151D02*
X12876669Y-11899723D01*
X12876669Y-11899723D02*
X12867146Y-11937818D01*
X12867146Y-11937818D02*
X12867146Y-12014008D01*
X12867146Y-12014008D02*
X12876669Y-12033056D01*
X12876669Y-12033056D02*
X12886193Y-12042580D01*
X12886193Y-12042580D02*
X12905241Y-12052104D01*
X12905241Y-12052104D02*
X12943336Y-12052104D01*
X12943336Y-12052104D02*
X12962384Y-12042580D01*
X12962384Y-12042580D02*
X12971908Y-12033056D01*
X12971908Y-12033056D02*
X12981431Y-12014008D01*
X12981431Y-12014008D02*
X12981431Y-11966389D01*
X12981431Y-11966389D02*
X12971908Y-11947342D01*
X12971908Y-11947342D02*
X12962384Y-11937818D01*
X12962384Y-11937818D02*
X12943336Y-11928294D01*
X12943336Y-11928294D02*
X12905241Y-11928294D01*
X12905241Y-11928294D02*
X12886193Y-11937818D01*
X12886193Y-11937818D02*
X12876669Y-11947342D01*
X12876669Y-11947342D02*
X12867146Y-11966389D01*
X13219527Y-12052104D02*
X13219527Y-11852104D01*
X13305241Y-12052104D02*
X13305241Y-11947342D01*
X13305241Y-11947342D02*
X13295717Y-11928294D01*
X13295717Y-11928294D02*
X13276670Y-11918770D01*
X13276670Y-11918770D02*
X13248098Y-11918770D01*
X13248098Y-11918770D02*
X13229050Y-11928294D01*
X13229050Y-11928294D02*
X13219527Y-11937818D01*
X13429050Y-12052104D02*
X13410003Y-12042580D01*
X13410003Y-12042580D02*
X13400479Y-12033056D01*
X13400479Y-12033056D02*
X13390955Y-12014008D01*
X13390955Y-12014008D02*
X13390955Y-11956866D01*
X13390955Y-11956866D02*
X13400479Y-11937818D01*
X13400479Y-11937818D02*
X13410003Y-11928294D01*
X13410003Y-11928294D02*
X13429050Y-11918770D01*
X13429050Y-11918770D02*
X13457622Y-11918770D01*
X13457622Y-11918770D02*
X13476670Y-11928294D01*
X13476670Y-11928294D02*
X13486193Y-11937818D01*
X13486193Y-11937818D02*
X13495717Y-11956866D01*
X13495717Y-11956866D02*
X13495717Y-12014008D01*
X13495717Y-12014008D02*
X13486193Y-12033056D01*
X13486193Y-12033056D02*
X13476670Y-12042580D01*
X13476670Y-12042580D02*
X13457622Y-12052104D01*
X13457622Y-12052104D02*
X13429050Y-12052104D01*
X13610003Y-12052104D02*
X13590955Y-12042580D01*
X13590955Y-12042580D02*
X13581431Y-12023532D01*
X13581431Y-12023532D02*
X13581431Y-11852104D01*
X13762384Y-12042580D02*
X13743336Y-12052104D01*
X13743336Y-12052104D02*
X13705241Y-12052104D01*
X13705241Y-12052104D02*
X13686193Y-12042580D01*
X13686193Y-12042580D02*
X13676670Y-12023532D01*
X13676670Y-12023532D02*
X13676670Y-11947342D01*
X13676670Y-11947342D02*
X13686193Y-11928294D01*
X13686193Y-11928294D02*
X13705241Y-11918770D01*
X13705241Y-11918770D02*
X13743336Y-11918770D01*
X13743336Y-11918770D02*
X13762384Y-11928294D01*
X13762384Y-11928294D02*
X13771908Y-11947342D01*
X13771908Y-11947342D02*
X13771908Y-11966389D01*
X13771908Y-11966389D02*
X13676670Y-11985437D01*
X13848098Y-12042580D02*
X13867146Y-12052104D01*
X13867146Y-12052104D02*
X13905241Y-12052104D01*
X13905241Y-12052104D02*
X13924289Y-12042580D01*
X13924289Y-12042580D02*
X13933812Y-12023532D01*
X13933812Y-12023532D02*
X13933812Y-12014008D01*
X13933812Y-12014008D02*
X13924289Y-11994961D01*
X13924289Y-11994961D02*
X13905241Y-11985437D01*
X13905241Y-11985437D02*
X13876670Y-11985437D01*
X13876670Y-11985437D02*
X13857622Y-11975913D01*
X13857622Y-11975913D02*
X13848098Y-11956866D01*
X13848098Y-11956866D02*
X13848098Y-11947342D01*
X13848098Y-11947342D02*
X13857622Y-11928294D01*
X13857622Y-11928294D02*
X13876670Y-11918770D01*
X13876670Y-11918770D02*
X13905241Y-11918770D01*
X13905241Y-11918770D02*
X13924289Y-11928294D01*
X14000479Y-12128294D02*
X14010003Y-12118770D01*
X14010003Y-12118770D02*
X14029051Y-12090199D01*
X14029051Y-12090199D02*
X14038574Y-12071151D01*
X14038574Y-12071151D02*
X14048098Y-12042580D01*
X14048098Y-12042580D02*
X14057622Y-11994961D01*
X14057622Y-11994961D02*
X14057622Y-11956866D01*
X14057622Y-11956866D02*
X14048098Y-11909247D01*
X14048098Y-11909247D02*
X14038574Y-11880675D01*
X14038574Y-11880675D02*
X14029051Y-11861628D01*
X14029051Y-11861628D02*
X14010003Y-11833056D01*
X14010003Y-11833056D02*
X14000479Y-11823532D01*
D12*
X9034940Y-12224620D02*
G75*
G03*
X9034940Y-12224620I-50000J0D01*
G01*
D10*
X9400479Y-12316104D02*
X9286193Y-12316104D01*
X9343336Y-12316104D02*
X9343336Y-12116104D01*
X9343336Y-12116104D02*
X9324288Y-12144675D01*
X9324288Y-12144675D02*
X9305241Y-12163723D01*
X9305241Y-12163723D02*
X9286193Y-12173247D01*
X9486193Y-12297056D02*
X9495717Y-12306580D01*
X9495717Y-12306580D02*
X9486193Y-12316104D01*
X9486193Y-12316104D02*
X9476669Y-12306580D01*
X9476669Y-12306580D02*
X9486193Y-12297056D01*
X9486193Y-12297056D02*
X9486193Y-12316104D01*
X9619526Y-12116104D02*
X9638574Y-12116104D01*
X9638574Y-12116104D02*
X9657622Y-12125628D01*
X9657622Y-12125628D02*
X9667145Y-12135151D01*
X9667145Y-12135151D02*
X9676669Y-12154199D01*
X9676669Y-12154199D02*
X9686193Y-12192294D01*
X9686193Y-12192294D02*
X9686193Y-12239913D01*
X9686193Y-12239913D02*
X9676669Y-12278008D01*
X9676669Y-12278008D02*
X9667145Y-12297056D01*
X9667145Y-12297056D02*
X9657622Y-12306580D01*
X9657622Y-12306580D02*
X9638574Y-12316104D01*
X9638574Y-12316104D02*
X9619526Y-12316104D01*
X9619526Y-12316104D02*
X9600479Y-12306580D01*
X9600479Y-12306580D02*
X9590955Y-12297056D01*
X9590955Y-12297056D02*
X9581431Y-12278008D01*
X9581431Y-12278008D02*
X9571907Y-12239913D01*
X9571907Y-12239913D02*
X9571907Y-12192294D01*
X9571907Y-12192294D02*
X9581431Y-12154199D01*
X9581431Y-12154199D02*
X9590955Y-12135151D01*
X9590955Y-12135151D02*
X9600479Y-12125628D01*
X9600479Y-12125628D02*
X9619526Y-12116104D01*
X9810003Y-12116104D02*
X9829050Y-12116104D01*
X9829050Y-12116104D02*
X9848098Y-12125628D01*
X9848098Y-12125628D02*
X9857622Y-12135151D01*
X9857622Y-12135151D02*
X9867145Y-12154199D01*
X9867145Y-12154199D02*
X9876669Y-12192294D01*
X9876669Y-12192294D02*
X9876669Y-12239913D01*
X9876669Y-12239913D02*
X9867145Y-12278008D01*
X9867145Y-12278008D02*
X9857622Y-12297056D01*
X9857622Y-12297056D02*
X9848098Y-12306580D01*
X9848098Y-12306580D02*
X9829050Y-12316104D01*
X9829050Y-12316104D02*
X9810003Y-12316104D01*
X9810003Y-12316104D02*
X9790955Y-12306580D01*
X9790955Y-12306580D02*
X9781431Y-12297056D01*
X9781431Y-12297056D02*
X9771907Y-12278008D01*
X9771907Y-12278008D02*
X9762384Y-12239913D01*
X9762384Y-12239913D02*
X9762384Y-12192294D01*
X9762384Y-12192294D02*
X9771907Y-12154199D01*
X9771907Y-12154199D02*
X9781431Y-12135151D01*
X9781431Y-12135151D02*
X9790955Y-12125628D01*
X9790955Y-12125628D02*
X9810003Y-12116104D01*
X10000479Y-12116104D02*
X10019526Y-12116104D01*
X10019526Y-12116104D02*
X10038574Y-12125628D01*
X10038574Y-12125628D02*
X10048098Y-12135151D01*
X10048098Y-12135151D02*
X10057622Y-12154199D01*
X10057622Y-12154199D02*
X10067145Y-12192294D01*
X10067145Y-12192294D02*
X10067145Y-12239913D01*
X10067145Y-12239913D02*
X10057622Y-12278008D01*
X10057622Y-12278008D02*
X10048098Y-12297056D01*
X10048098Y-12297056D02*
X10038574Y-12306580D01*
X10038574Y-12306580D02*
X10019526Y-12316104D01*
X10019526Y-12316104D02*
X10000479Y-12316104D01*
X10000479Y-12316104D02*
X9981431Y-12306580D01*
X9981431Y-12306580D02*
X9971907Y-12297056D01*
X9971907Y-12297056D02*
X9962384Y-12278008D01*
X9962384Y-12278008D02*
X9952860Y-12239913D01*
X9952860Y-12239913D02*
X9952860Y-12192294D01*
X9952860Y-12192294D02*
X9962384Y-12154199D01*
X9962384Y-12154199D02*
X9971907Y-12135151D01*
X9971907Y-12135151D02*
X9981431Y-12125628D01*
X9981431Y-12125628D02*
X10000479Y-12116104D01*
X10152860Y-12316104D02*
X10152860Y-12182770D01*
X10152860Y-12201818D02*
X10162384Y-12192294D01*
X10162384Y-12192294D02*
X10181431Y-12182770D01*
X10181431Y-12182770D02*
X10210003Y-12182770D01*
X10210003Y-12182770D02*
X10229050Y-12192294D01*
X10229050Y-12192294D02*
X10238574Y-12211342D01*
X10238574Y-12211342D02*
X10238574Y-12316104D01*
X10238574Y-12211342D02*
X10248098Y-12192294D01*
X10248098Y-12192294D02*
X10267145Y-12182770D01*
X10267145Y-12182770D02*
X10295717Y-12182770D01*
X10295717Y-12182770D02*
X10314765Y-12192294D01*
X10314765Y-12192294D02*
X10324288Y-12211342D01*
X10324288Y-12211342D02*
X10324288Y-12316104D01*
X10419526Y-12316104D02*
X10419526Y-12182770D01*
X10419526Y-12201818D02*
X10429050Y-12192294D01*
X10429050Y-12192294D02*
X10448098Y-12182770D01*
X10448098Y-12182770D02*
X10476669Y-12182770D01*
X10476669Y-12182770D02*
X10495717Y-12192294D01*
X10495717Y-12192294D02*
X10505241Y-12211342D01*
X10505241Y-12211342D02*
X10505241Y-12316104D01*
X10505241Y-12211342D02*
X10514765Y-12192294D01*
X10514765Y-12192294D02*
X10533812Y-12182770D01*
X10533812Y-12182770D02*
X10562384Y-12182770D01*
X10562384Y-12182770D02*
X10581431Y-12192294D01*
X10581431Y-12192294D02*
X10590955Y-12211342D01*
X10590955Y-12211342D02*
X10590955Y-12316104D01*
X10981431Y-12106580D02*
X10810003Y-12363723D01*
X11238574Y-12116104D02*
X11257622Y-12116104D01*
X11257622Y-12116104D02*
X11276669Y-12125628D01*
X11276669Y-12125628D02*
X11286193Y-12135151D01*
X11286193Y-12135151D02*
X11295717Y-12154199D01*
X11295717Y-12154199D02*
X11305241Y-12192294D01*
X11305241Y-12192294D02*
X11305241Y-12239913D01*
X11305241Y-12239913D02*
X11295717Y-12278008D01*
X11295717Y-12278008D02*
X11286193Y-12297056D01*
X11286193Y-12297056D02*
X11276669Y-12306580D01*
X11276669Y-12306580D02*
X11257622Y-12316104D01*
X11257622Y-12316104D02*
X11238574Y-12316104D01*
X11238574Y-12316104D02*
X11219526Y-12306580D01*
X11219526Y-12306580D02*
X11210003Y-12297056D01*
X11210003Y-12297056D02*
X11200479Y-12278008D01*
X11200479Y-12278008D02*
X11190955Y-12239913D01*
X11190955Y-12239913D02*
X11190955Y-12192294D01*
X11190955Y-12192294D02*
X11200479Y-12154199D01*
X11200479Y-12154199D02*
X11210003Y-12135151D01*
X11210003Y-12135151D02*
X11219526Y-12125628D01*
X11219526Y-12125628D02*
X11238574Y-12116104D01*
X11390955Y-12297056D02*
X11400479Y-12306580D01*
X11400479Y-12306580D02*
X11390955Y-12316104D01*
X11390955Y-12316104D02*
X11381431Y-12306580D01*
X11381431Y-12306580D02*
X11390955Y-12297056D01*
X11390955Y-12297056D02*
X11390955Y-12316104D01*
X11524288Y-12116104D02*
X11543336Y-12116104D01*
X11543336Y-12116104D02*
X11562384Y-12125628D01*
X11562384Y-12125628D02*
X11571907Y-12135151D01*
X11571907Y-12135151D02*
X11581431Y-12154199D01*
X11581431Y-12154199D02*
X11590955Y-12192294D01*
X11590955Y-12192294D02*
X11590955Y-12239913D01*
X11590955Y-12239913D02*
X11581431Y-12278008D01*
X11581431Y-12278008D02*
X11571907Y-12297056D01*
X11571907Y-12297056D02*
X11562384Y-12306580D01*
X11562384Y-12306580D02*
X11543336Y-12316104D01*
X11543336Y-12316104D02*
X11524288Y-12316104D01*
X11524288Y-12316104D02*
X11505241Y-12306580D01*
X11505241Y-12306580D02*
X11495717Y-12297056D01*
X11495717Y-12297056D02*
X11486193Y-12278008D01*
X11486193Y-12278008D02*
X11476669Y-12239913D01*
X11476669Y-12239913D02*
X11476669Y-12192294D01*
X11476669Y-12192294D02*
X11486193Y-12154199D01*
X11486193Y-12154199D02*
X11495717Y-12135151D01*
X11495717Y-12135151D02*
X11505241Y-12125628D01*
X11505241Y-12125628D02*
X11524288Y-12116104D01*
X11657622Y-12116104D02*
X11781431Y-12116104D01*
X11781431Y-12116104D02*
X11714765Y-12192294D01*
X11714765Y-12192294D02*
X11743336Y-12192294D01*
X11743336Y-12192294D02*
X11762384Y-12201818D01*
X11762384Y-12201818D02*
X11771907Y-12211342D01*
X11771907Y-12211342D02*
X11781431Y-12230389D01*
X11781431Y-12230389D02*
X11781431Y-12278008D01*
X11781431Y-12278008D02*
X11771907Y-12297056D01*
X11771907Y-12297056D02*
X11762384Y-12306580D01*
X11762384Y-12306580D02*
X11743336Y-12316104D01*
X11743336Y-12316104D02*
X11686193Y-12316104D01*
X11686193Y-12316104D02*
X11667146Y-12306580D01*
X11667146Y-12306580D02*
X11657622Y-12297056D01*
X11876669Y-12316104D02*
X11914765Y-12316104D01*
X11914765Y-12316104D02*
X11933812Y-12306580D01*
X11933812Y-12306580D02*
X11943336Y-12297056D01*
X11943336Y-12297056D02*
X11962384Y-12268485D01*
X11962384Y-12268485D02*
X11971907Y-12230389D01*
X11971907Y-12230389D02*
X11971907Y-12154199D01*
X11971907Y-12154199D02*
X11962384Y-12135151D01*
X11962384Y-12135151D02*
X11952860Y-12125628D01*
X11952860Y-12125628D02*
X11933812Y-12116104D01*
X11933812Y-12116104D02*
X11895717Y-12116104D01*
X11895717Y-12116104D02*
X11876669Y-12125628D01*
X11876669Y-12125628D02*
X11867146Y-12135151D01*
X11867146Y-12135151D02*
X11857622Y-12154199D01*
X11857622Y-12154199D02*
X11857622Y-12201818D01*
X11857622Y-12201818D02*
X11867146Y-12220866D01*
X11867146Y-12220866D02*
X11876669Y-12230389D01*
X11876669Y-12230389D02*
X11895717Y-12239913D01*
X11895717Y-12239913D02*
X11933812Y-12239913D01*
X11933812Y-12239913D02*
X11952860Y-12230389D01*
X11952860Y-12230389D02*
X11962384Y-12220866D01*
X11962384Y-12220866D02*
X11971907Y-12201818D01*
X12143336Y-12182770D02*
X12143336Y-12316104D01*
X12095717Y-12106580D02*
X12048098Y-12249437D01*
X12048098Y-12249437D02*
X12171907Y-12249437D01*
X12238574Y-12116104D02*
X12238574Y-12154199D01*
X12314765Y-12116104D02*
X12314765Y-12154199D01*
X12610003Y-12392294D02*
X12600479Y-12382770D01*
X12600479Y-12382770D02*
X12581431Y-12354199D01*
X12581431Y-12354199D02*
X12571908Y-12335151D01*
X12571908Y-12335151D02*
X12562384Y-12306580D01*
X12562384Y-12306580D02*
X12552860Y-12258961D01*
X12552860Y-12258961D02*
X12552860Y-12220866D01*
X12552860Y-12220866D02*
X12562384Y-12173247D01*
X12562384Y-12173247D02*
X12571908Y-12144675D01*
X12571908Y-12144675D02*
X12581431Y-12125628D01*
X12581431Y-12125628D02*
X12600479Y-12097056D01*
X12600479Y-12097056D02*
X12610003Y-12087532D01*
X12771908Y-12182770D02*
X12771908Y-12316104D01*
X12724288Y-12106580D02*
X12676669Y-12249437D01*
X12676669Y-12249437D02*
X12800479Y-12249437D01*
X12971908Y-12116104D02*
X12876669Y-12116104D01*
X12876669Y-12116104D02*
X12867146Y-12211342D01*
X12867146Y-12211342D02*
X12876669Y-12201818D01*
X12876669Y-12201818D02*
X12895717Y-12192294D01*
X12895717Y-12192294D02*
X12943336Y-12192294D01*
X12943336Y-12192294D02*
X12962384Y-12201818D01*
X12962384Y-12201818D02*
X12971908Y-12211342D01*
X12971908Y-12211342D02*
X12981431Y-12230389D01*
X12981431Y-12230389D02*
X12981431Y-12278008D01*
X12981431Y-12278008D02*
X12971908Y-12297056D01*
X12971908Y-12297056D02*
X12962384Y-12306580D01*
X12962384Y-12306580D02*
X12943336Y-12316104D01*
X12943336Y-12316104D02*
X12895717Y-12316104D01*
X12895717Y-12316104D02*
X12876669Y-12306580D01*
X12876669Y-12306580D02*
X12867146Y-12297056D01*
X13219527Y-12316104D02*
X13219527Y-12116104D01*
X13305241Y-12316104D02*
X13305241Y-12211342D01*
X13305241Y-12211342D02*
X13295717Y-12192294D01*
X13295717Y-12192294D02*
X13276670Y-12182770D01*
X13276670Y-12182770D02*
X13248098Y-12182770D01*
X13248098Y-12182770D02*
X13229050Y-12192294D01*
X13229050Y-12192294D02*
X13219527Y-12201818D01*
X13429050Y-12316104D02*
X13410003Y-12306580D01*
X13410003Y-12306580D02*
X13400479Y-12297056D01*
X13400479Y-12297056D02*
X13390955Y-12278008D01*
X13390955Y-12278008D02*
X13390955Y-12220866D01*
X13390955Y-12220866D02*
X13400479Y-12201818D01*
X13400479Y-12201818D02*
X13410003Y-12192294D01*
X13410003Y-12192294D02*
X13429050Y-12182770D01*
X13429050Y-12182770D02*
X13457622Y-12182770D01*
X13457622Y-12182770D02*
X13476670Y-12192294D01*
X13476670Y-12192294D02*
X13486193Y-12201818D01*
X13486193Y-12201818D02*
X13495717Y-12220866D01*
X13495717Y-12220866D02*
X13495717Y-12278008D01*
X13495717Y-12278008D02*
X13486193Y-12297056D01*
X13486193Y-12297056D02*
X13476670Y-12306580D01*
X13476670Y-12306580D02*
X13457622Y-12316104D01*
X13457622Y-12316104D02*
X13429050Y-12316104D01*
X13610003Y-12316104D02*
X13590955Y-12306580D01*
X13590955Y-12306580D02*
X13581431Y-12287532D01*
X13581431Y-12287532D02*
X13581431Y-12116104D01*
X13762384Y-12306580D02*
X13743336Y-12316104D01*
X13743336Y-12316104D02*
X13705241Y-12316104D01*
X13705241Y-12316104D02*
X13686193Y-12306580D01*
X13686193Y-12306580D02*
X13676670Y-12287532D01*
X13676670Y-12287532D02*
X13676670Y-12211342D01*
X13676670Y-12211342D02*
X13686193Y-12192294D01*
X13686193Y-12192294D02*
X13705241Y-12182770D01*
X13705241Y-12182770D02*
X13743336Y-12182770D01*
X13743336Y-12182770D02*
X13762384Y-12192294D01*
X13762384Y-12192294D02*
X13771908Y-12211342D01*
X13771908Y-12211342D02*
X13771908Y-12230389D01*
X13771908Y-12230389D02*
X13676670Y-12249437D01*
X13848098Y-12306580D02*
X13867146Y-12316104D01*
X13867146Y-12316104D02*
X13905241Y-12316104D01*
X13905241Y-12316104D02*
X13924289Y-12306580D01*
X13924289Y-12306580D02*
X13933812Y-12287532D01*
X13933812Y-12287532D02*
X13933812Y-12278008D01*
X13933812Y-12278008D02*
X13924289Y-12258961D01*
X13924289Y-12258961D02*
X13905241Y-12249437D01*
X13905241Y-12249437D02*
X13876670Y-12249437D01*
X13876670Y-12249437D02*
X13857622Y-12239913D01*
X13857622Y-12239913D02*
X13848098Y-12220866D01*
X13848098Y-12220866D02*
X13848098Y-12211342D01*
X13848098Y-12211342D02*
X13857622Y-12192294D01*
X13857622Y-12192294D02*
X13876670Y-12182770D01*
X13876670Y-12182770D02*
X13905241Y-12182770D01*
X13905241Y-12182770D02*
X13924289Y-12192294D01*
X14000479Y-12392294D02*
X14010003Y-12382770D01*
X14010003Y-12382770D02*
X14029051Y-12354199D01*
X14029051Y-12354199D02*
X14038574Y-12335151D01*
X14038574Y-12335151D02*
X14048098Y-12306580D01*
X14048098Y-12306580D02*
X14057622Y-12258961D01*
X14057622Y-12258961D02*
X14057622Y-12220866D01*
X14057622Y-12220866D02*
X14048098Y-12173247D01*
X14048098Y-12173247D02*
X14038574Y-12144675D01*
X14038574Y-12144675D02*
X14029051Y-12125628D01*
X14029051Y-12125628D02*
X14010003Y-12097056D01*
X14010003Y-12097056D02*
X14000479Y-12087532D01*
X8934940Y-12388620D02*
X8934940Y-12588620D01*
X8834940Y-12488620D02*
X9034940Y-12488620D01*
X9324288Y-12465818D02*
X9305241Y-12456294D01*
X9305241Y-12456294D02*
X9295717Y-12446770D01*
X9295717Y-12446770D02*
X9286193Y-12427723D01*
X9286193Y-12427723D02*
X9286193Y-12418199D01*
X9286193Y-12418199D02*
X9295717Y-12399151D01*
X9295717Y-12399151D02*
X9305241Y-12389628D01*
X9305241Y-12389628D02*
X9324288Y-12380104D01*
X9324288Y-12380104D02*
X9362384Y-12380104D01*
X9362384Y-12380104D02*
X9381431Y-12389628D01*
X9381431Y-12389628D02*
X9390955Y-12399151D01*
X9390955Y-12399151D02*
X9400479Y-12418199D01*
X9400479Y-12418199D02*
X9400479Y-12427723D01*
X9400479Y-12427723D02*
X9390955Y-12446770D01*
X9390955Y-12446770D02*
X9381431Y-12456294D01*
X9381431Y-12456294D02*
X9362384Y-12465818D01*
X9362384Y-12465818D02*
X9324288Y-12465818D01*
X9324288Y-12465818D02*
X9305241Y-12475342D01*
X9305241Y-12475342D02*
X9295717Y-12484866D01*
X9295717Y-12484866D02*
X9286193Y-12503913D01*
X9286193Y-12503913D02*
X9286193Y-12542008D01*
X9286193Y-12542008D02*
X9295717Y-12561056D01*
X9295717Y-12561056D02*
X9305241Y-12570580D01*
X9305241Y-12570580D02*
X9324288Y-12580104D01*
X9324288Y-12580104D02*
X9362384Y-12580104D01*
X9362384Y-12580104D02*
X9381431Y-12570580D01*
X9381431Y-12570580D02*
X9390955Y-12561056D01*
X9390955Y-12561056D02*
X9400479Y-12542008D01*
X9400479Y-12542008D02*
X9400479Y-12503913D01*
X9400479Y-12503913D02*
X9390955Y-12484866D01*
X9390955Y-12484866D02*
X9381431Y-12475342D01*
X9381431Y-12475342D02*
X9362384Y-12465818D01*
X9486193Y-12561056D02*
X9495717Y-12570580D01*
X9495717Y-12570580D02*
X9486193Y-12580104D01*
X9486193Y-12580104D02*
X9476669Y-12570580D01*
X9476669Y-12570580D02*
X9486193Y-12561056D01*
X9486193Y-12561056D02*
X9486193Y-12580104D01*
X9667145Y-12446770D02*
X9667145Y-12580104D01*
X9619526Y-12370580D02*
X9571907Y-12513437D01*
X9571907Y-12513437D02*
X9695717Y-12513437D01*
X9810003Y-12380104D02*
X9829050Y-12380104D01*
X9829050Y-12380104D02*
X9848098Y-12389628D01*
X9848098Y-12389628D02*
X9857622Y-12399151D01*
X9857622Y-12399151D02*
X9867145Y-12418199D01*
X9867145Y-12418199D02*
X9876669Y-12456294D01*
X9876669Y-12456294D02*
X9876669Y-12503913D01*
X9876669Y-12503913D02*
X9867145Y-12542008D01*
X9867145Y-12542008D02*
X9857622Y-12561056D01*
X9857622Y-12561056D02*
X9848098Y-12570580D01*
X9848098Y-12570580D02*
X9829050Y-12580104D01*
X9829050Y-12580104D02*
X9810003Y-12580104D01*
X9810003Y-12580104D02*
X9790955Y-12570580D01*
X9790955Y-12570580D02*
X9781431Y-12561056D01*
X9781431Y-12561056D02*
X9771907Y-12542008D01*
X9771907Y-12542008D02*
X9762384Y-12503913D01*
X9762384Y-12503913D02*
X9762384Y-12456294D01*
X9762384Y-12456294D02*
X9771907Y-12418199D01*
X9771907Y-12418199D02*
X9781431Y-12399151D01*
X9781431Y-12399151D02*
X9790955Y-12389628D01*
X9790955Y-12389628D02*
X9810003Y-12380104D01*
X10000479Y-12380104D02*
X10019526Y-12380104D01*
X10019526Y-12380104D02*
X10038574Y-12389628D01*
X10038574Y-12389628D02*
X10048098Y-12399151D01*
X10048098Y-12399151D02*
X10057622Y-12418199D01*
X10057622Y-12418199D02*
X10067145Y-12456294D01*
X10067145Y-12456294D02*
X10067145Y-12503913D01*
X10067145Y-12503913D02*
X10057622Y-12542008D01*
X10057622Y-12542008D02*
X10048098Y-12561056D01*
X10048098Y-12561056D02*
X10038574Y-12570580D01*
X10038574Y-12570580D02*
X10019526Y-12580104D01*
X10019526Y-12580104D02*
X10000479Y-12580104D01*
X10000479Y-12580104D02*
X9981431Y-12570580D01*
X9981431Y-12570580D02*
X9971907Y-12561056D01*
X9971907Y-12561056D02*
X9962384Y-12542008D01*
X9962384Y-12542008D02*
X9952860Y-12503913D01*
X9952860Y-12503913D02*
X9952860Y-12456294D01*
X9952860Y-12456294D02*
X9962384Y-12418199D01*
X9962384Y-12418199D02*
X9971907Y-12399151D01*
X9971907Y-12399151D02*
X9981431Y-12389628D01*
X9981431Y-12389628D02*
X10000479Y-12380104D01*
X10152860Y-12580104D02*
X10152860Y-12446770D01*
X10152860Y-12465818D02*
X10162384Y-12456294D01*
X10162384Y-12456294D02*
X10181431Y-12446770D01*
X10181431Y-12446770D02*
X10210003Y-12446770D01*
X10210003Y-12446770D02*
X10229050Y-12456294D01*
X10229050Y-12456294D02*
X10238574Y-12475342D01*
X10238574Y-12475342D02*
X10238574Y-12580104D01*
X10238574Y-12475342D02*
X10248098Y-12456294D01*
X10248098Y-12456294D02*
X10267145Y-12446770D01*
X10267145Y-12446770D02*
X10295717Y-12446770D01*
X10295717Y-12446770D02*
X10314765Y-12456294D01*
X10314765Y-12456294D02*
X10324288Y-12475342D01*
X10324288Y-12475342D02*
X10324288Y-12580104D01*
X10419526Y-12580104D02*
X10419526Y-12446770D01*
X10419526Y-12465818D02*
X10429050Y-12456294D01*
X10429050Y-12456294D02*
X10448098Y-12446770D01*
X10448098Y-12446770D02*
X10476669Y-12446770D01*
X10476669Y-12446770D02*
X10495717Y-12456294D01*
X10495717Y-12456294D02*
X10505241Y-12475342D01*
X10505241Y-12475342D02*
X10505241Y-12580104D01*
X10505241Y-12475342D02*
X10514765Y-12456294D01*
X10514765Y-12456294D02*
X10533812Y-12446770D01*
X10533812Y-12446770D02*
X10562384Y-12446770D01*
X10562384Y-12446770D02*
X10581431Y-12456294D01*
X10581431Y-12456294D02*
X10590955Y-12475342D01*
X10590955Y-12475342D02*
X10590955Y-12580104D01*
X10981431Y-12370580D02*
X10810003Y-12627723D01*
X11238574Y-12380104D02*
X11257622Y-12380104D01*
X11257622Y-12380104D02*
X11276669Y-12389628D01*
X11276669Y-12389628D02*
X11286193Y-12399151D01*
X11286193Y-12399151D02*
X11295717Y-12418199D01*
X11295717Y-12418199D02*
X11305241Y-12456294D01*
X11305241Y-12456294D02*
X11305241Y-12503913D01*
X11305241Y-12503913D02*
X11295717Y-12542008D01*
X11295717Y-12542008D02*
X11286193Y-12561056D01*
X11286193Y-12561056D02*
X11276669Y-12570580D01*
X11276669Y-12570580D02*
X11257622Y-12580104D01*
X11257622Y-12580104D02*
X11238574Y-12580104D01*
X11238574Y-12580104D02*
X11219526Y-12570580D01*
X11219526Y-12570580D02*
X11210003Y-12561056D01*
X11210003Y-12561056D02*
X11200479Y-12542008D01*
X11200479Y-12542008D02*
X11190955Y-12503913D01*
X11190955Y-12503913D02*
X11190955Y-12456294D01*
X11190955Y-12456294D02*
X11200479Y-12418199D01*
X11200479Y-12418199D02*
X11210003Y-12399151D01*
X11210003Y-12399151D02*
X11219526Y-12389628D01*
X11219526Y-12389628D02*
X11238574Y-12380104D01*
X11390955Y-12561056D02*
X11400479Y-12570580D01*
X11400479Y-12570580D02*
X11390955Y-12580104D01*
X11390955Y-12580104D02*
X11381431Y-12570580D01*
X11381431Y-12570580D02*
X11390955Y-12561056D01*
X11390955Y-12561056D02*
X11390955Y-12580104D01*
X11467146Y-12380104D02*
X11590955Y-12380104D01*
X11590955Y-12380104D02*
X11524288Y-12456294D01*
X11524288Y-12456294D02*
X11552860Y-12456294D01*
X11552860Y-12456294D02*
X11571907Y-12465818D01*
X11571907Y-12465818D02*
X11581431Y-12475342D01*
X11581431Y-12475342D02*
X11590955Y-12494389D01*
X11590955Y-12494389D02*
X11590955Y-12542008D01*
X11590955Y-12542008D02*
X11581431Y-12561056D01*
X11581431Y-12561056D02*
X11571907Y-12570580D01*
X11571907Y-12570580D02*
X11552860Y-12580104D01*
X11552860Y-12580104D02*
X11495717Y-12580104D01*
X11495717Y-12580104D02*
X11476669Y-12570580D01*
X11476669Y-12570580D02*
X11467146Y-12561056D01*
X11657622Y-12380104D02*
X11781431Y-12380104D01*
X11781431Y-12380104D02*
X11714765Y-12456294D01*
X11714765Y-12456294D02*
X11743336Y-12456294D01*
X11743336Y-12456294D02*
X11762384Y-12465818D01*
X11762384Y-12465818D02*
X11771907Y-12475342D01*
X11771907Y-12475342D02*
X11781431Y-12494389D01*
X11781431Y-12494389D02*
X11781431Y-12542008D01*
X11781431Y-12542008D02*
X11771907Y-12561056D01*
X11771907Y-12561056D02*
X11762384Y-12570580D01*
X11762384Y-12570580D02*
X11743336Y-12580104D01*
X11743336Y-12580104D02*
X11686193Y-12580104D01*
X11686193Y-12580104D02*
X11667146Y-12570580D01*
X11667146Y-12570580D02*
X11657622Y-12561056D01*
X11905241Y-12380104D02*
X11924288Y-12380104D01*
X11924288Y-12380104D02*
X11943336Y-12389628D01*
X11943336Y-12389628D02*
X11952860Y-12399151D01*
X11952860Y-12399151D02*
X11962384Y-12418199D01*
X11962384Y-12418199D02*
X11971907Y-12456294D01*
X11971907Y-12456294D02*
X11971907Y-12503913D01*
X11971907Y-12503913D02*
X11962384Y-12542008D01*
X11962384Y-12542008D02*
X11952860Y-12561056D01*
X11952860Y-12561056D02*
X11943336Y-12570580D01*
X11943336Y-12570580D02*
X11924288Y-12580104D01*
X11924288Y-12580104D02*
X11905241Y-12580104D01*
X11905241Y-12580104D02*
X11886193Y-12570580D01*
X11886193Y-12570580D02*
X11876669Y-12561056D01*
X11876669Y-12561056D02*
X11867146Y-12542008D01*
X11867146Y-12542008D02*
X11857622Y-12503913D01*
X11857622Y-12503913D02*
X11857622Y-12456294D01*
X11857622Y-12456294D02*
X11867146Y-12418199D01*
X11867146Y-12418199D02*
X11876669Y-12399151D01*
X11876669Y-12399151D02*
X11886193Y-12389628D01*
X11886193Y-12389628D02*
X11905241Y-12380104D01*
X12038574Y-12380104D02*
X12171907Y-12380104D01*
X12171907Y-12380104D02*
X12086193Y-12580104D01*
X12238574Y-12380104D02*
X12238574Y-12418199D01*
X12314765Y-12380104D02*
X12314765Y-12418199D01*
X12610003Y-12656294D02*
X12600479Y-12646770D01*
X12600479Y-12646770D02*
X12581431Y-12618199D01*
X12581431Y-12618199D02*
X12571908Y-12599151D01*
X12571908Y-12599151D02*
X12562384Y-12570580D01*
X12562384Y-12570580D02*
X12552860Y-12522961D01*
X12552860Y-12522961D02*
X12552860Y-12484866D01*
X12552860Y-12484866D02*
X12562384Y-12437247D01*
X12562384Y-12437247D02*
X12571908Y-12408675D01*
X12571908Y-12408675D02*
X12581431Y-12389628D01*
X12581431Y-12389628D02*
X12600479Y-12361056D01*
X12600479Y-12361056D02*
X12610003Y-12351532D01*
X12771908Y-12446770D02*
X12771908Y-12580104D01*
X12724288Y-12370580D02*
X12676669Y-12513437D01*
X12676669Y-12513437D02*
X12800479Y-12513437D01*
X13029050Y-12580104D02*
X13029050Y-12380104D01*
X13114765Y-12580104D02*
X13114765Y-12475342D01*
X13114765Y-12475342D02*
X13105241Y-12456294D01*
X13105241Y-12456294D02*
X13086193Y-12446770D01*
X13086193Y-12446770D02*
X13057622Y-12446770D01*
X13057622Y-12446770D02*
X13038574Y-12456294D01*
X13038574Y-12456294D02*
X13029050Y-12465818D01*
X13238574Y-12580104D02*
X13219527Y-12570580D01*
X13219527Y-12570580D02*
X13210003Y-12561056D01*
X13210003Y-12561056D02*
X13200479Y-12542008D01*
X13200479Y-12542008D02*
X13200479Y-12484866D01*
X13200479Y-12484866D02*
X13210003Y-12465818D01*
X13210003Y-12465818D02*
X13219527Y-12456294D01*
X13219527Y-12456294D02*
X13238574Y-12446770D01*
X13238574Y-12446770D02*
X13267146Y-12446770D01*
X13267146Y-12446770D02*
X13286193Y-12456294D01*
X13286193Y-12456294D02*
X13295717Y-12465818D01*
X13295717Y-12465818D02*
X13305241Y-12484866D01*
X13305241Y-12484866D02*
X13305241Y-12542008D01*
X13305241Y-12542008D02*
X13295717Y-12561056D01*
X13295717Y-12561056D02*
X13286193Y-12570580D01*
X13286193Y-12570580D02*
X13267146Y-12580104D01*
X13267146Y-12580104D02*
X13238574Y-12580104D01*
X13419527Y-12580104D02*
X13400479Y-12570580D01*
X13400479Y-12570580D02*
X13390955Y-12551532D01*
X13390955Y-12551532D02*
X13390955Y-12380104D01*
X13571908Y-12570580D02*
X13552860Y-12580104D01*
X13552860Y-12580104D02*
X13514765Y-12580104D01*
X13514765Y-12580104D02*
X13495717Y-12570580D01*
X13495717Y-12570580D02*
X13486193Y-12551532D01*
X13486193Y-12551532D02*
X13486193Y-12475342D01*
X13486193Y-12475342D02*
X13495717Y-12456294D01*
X13495717Y-12456294D02*
X13514765Y-12446770D01*
X13514765Y-12446770D02*
X13552860Y-12446770D01*
X13552860Y-12446770D02*
X13571908Y-12456294D01*
X13571908Y-12456294D02*
X13581431Y-12475342D01*
X13581431Y-12475342D02*
X13581431Y-12494389D01*
X13581431Y-12494389D02*
X13486193Y-12513437D01*
X13657622Y-12570580D02*
X13676670Y-12580104D01*
X13676670Y-12580104D02*
X13714765Y-12580104D01*
X13714765Y-12580104D02*
X13733812Y-12570580D01*
X13733812Y-12570580D02*
X13743336Y-12551532D01*
X13743336Y-12551532D02*
X13743336Y-12542008D01*
X13743336Y-12542008D02*
X13733812Y-12522961D01*
X13733812Y-12522961D02*
X13714765Y-12513437D01*
X13714765Y-12513437D02*
X13686193Y-12513437D01*
X13686193Y-12513437D02*
X13667146Y-12503913D01*
X13667146Y-12503913D02*
X13657622Y-12484866D01*
X13657622Y-12484866D02*
X13657622Y-12475342D01*
X13657622Y-12475342D02*
X13667146Y-12456294D01*
X13667146Y-12456294D02*
X13686193Y-12446770D01*
X13686193Y-12446770D02*
X13714765Y-12446770D01*
X13714765Y-12446770D02*
X13733812Y-12456294D01*
X13810003Y-12656294D02*
X13819527Y-12646770D01*
X13819527Y-12646770D02*
X13838574Y-12618199D01*
X13838574Y-12618199D02*
X13848098Y-12599151D01*
X13848098Y-12599151D02*
X13857622Y-12570580D01*
X13857622Y-12570580D02*
X13867146Y-12522961D01*
X13867146Y-12522961D02*
X13867146Y-12484866D01*
X13867146Y-12484866D02*
X13857622Y-12437247D01*
X13857622Y-12437247D02*
X13848098Y-12408675D01*
X13848098Y-12408675D02*
X13838574Y-12389628D01*
X13838574Y-12389628D02*
X13819527Y-12361056D01*
X13819527Y-12361056D02*
X13810003Y-12351532D01*
M02*
