%TF.GenerationSoftware,KiCad,Pcbnew,7.0.7*%
%TF.CreationDate,2024-02-10T01:20:28+05:30*%
%TF.ProjectId,Sensor_Stack,53656e73-6f72-45f5-9374-61636b2e6b69,rev?*%
%TF.SameCoordinates,Original*%
%TF.FileFunction,Legend,Top*%
%TF.FilePolarity,Positive*%
%FSLAX46Y46*%
G04 Gerber Fmt 4.6, Leading zero omitted, Abs format (unit mm)*
G04 Created by KiCad (PCBNEW 7.0.7) date 2024-02-10 01:20:28*
%MOMM*%
%LPD*%
G01*
G04 APERTURE LIST*
%ADD10C,0.150000*%
%ADD11C,0.120000*%
%ADD12C,0.100000*%
%ADD13C,0.127000*%
%ADD14C,0.200000*%
G04 APERTURE END LIST*
D10*
X136165009Y-55715819D02*
X136736437Y-55715819D01*
X136450723Y-56715819D02*
X136450723Y-55715819D01*
X137069771Y-56715819D02*
X137069771Y-55715819D01*
X137069771Y-55715819D02*
X137450723Y-55715819D01*
X137450723Y-55715819D02*
X137545961Y-55763438D01*
X137545961Y-55763438D02*
X137593580Y-55811057D01*
X137593580Y-55811057D02*
X137641199Y-55906295D01*
X137641199Y-55906295D02*
X137641199Y-56049152D01*
X137641199Y-56049152D02*
X137593580Y-56144390D01*
X137593580Y-56144390D02*
X137545961Y-56192009D01*
X137545961Y-56192009D02*
X137450723Y-56239628D01*
X137450723Y-56239628D02*
X137069771Y-56239628D01*
X137831676Y-56811057D02*
X138593580Y-56811057D01*
X138784057Y-56430104D02*
X139260247Y-56430104D01*
X138688819Y-56715819D02*
X139022152Y-55715819D01*
X139022152Y-55715819D02*
X139355485Y-56715819D01*
X139688819Y-56715819D02*
X139688819Y-55715819D01*
X139688819Y-55715819D02*
X139926914Y-55715819D01*
X139926914Y-55715819D02*
X140069771Y-55763438D01*
X140069771Y-55763438D02*
X140165009Y-55858676D01*
X140165009Y-55858676D02*
X140212628Y-55953914D01*
X140212628Y-55953914D02*
X140260247Y-56144390D01*
X140260247Y-56144390D02*
X140260247Y-56287247D01*
X140260247Y-56287247D02*
X140212628Y-56477723D01*
X140212628Y-56477723D02*
X140165009Y-56572961D01*
X140165009Y-56572961D02*
X140069771Y-56668200D01*
X140069771Y-56668200D02*
X139926914Y-56715819D01*
X139926914Y-56715819D02*
X139688819Y-56715819D01*
X140593581Y-55715819D02*
X141260247Y-56715819D01*
X141260247Y-55715819D02*
X140593581Y-56715819D01*
X142117390Y-56715819D02*
X141641200Y-56715819D01*
X141641200Y-56715819D02*
X141641200Y-55715819D01*
X140447733Y-72851180D02*
X140400114Y-72898800D01*
X140400114Y-72898800D02*
X140257257Y-72946419D01*
X140257257Y-72946419D02*
X140162019Y-72946419D01*
X140162019Y-72946419D02*
X140019162Y-72898800D01*
X140019162Y-72898800D02*
X139923924Y-72803561D01*
X139923924Y-72803561D02*
X139876305Y-72708323D01*
X139876305Y-72708323D02*
X139828686Y-72517847D01*
X139828686Y-72517847D02*
X139828686Y-72374990D01*
X139828686Y-72374990D02*
X139876305Y-72184514D01*
X139876305Y-72184514D02*
X139923924Y-72089276D01*
X139923924Y-72089276D02*
X140019162Y-71994038D01*
X140019162Y-71994038D02*
X140162019Y-71946419D01*
X140162019Y-71946419D02*
X140257257Y-71946419D01*
X140257257Y-71946419D02*
X140400114Y-71994038D01*
X140400114Y-71994038D02*
X140447733Y-72041657D01*
X141304876Y-71946419D02*
X141114400Y-71946419D01*
X141114400Y-71946419D02*
X141019162Y-71994038D01*
X141019162Y-71994038D02*
X140971543Y-72041657D01*
X140971543Y-72041657D02*
X140876305Y-72184514D01*
X140876305Y-72184514D02*
X140828686Y-72374990D01*
X140828686Y-72374990D02*
X140828686Y-72755942D01*
X140828686Y-72755942D02*
X140876305Y-72851180D01*
X140876305Y-72851180D02*
X140923924Y-72898800D01*
X140923924Y-72898800D02*
X141019162Y-72946419D01*
X141019162Y-72946419D02*
X141209638Y-72946419D01*
X141209638Y-72946419D02*
X141304876Y-72898800D01*
X141304876Y-72898800D02*
X141352495Y-72851180D01*
X141352495Y-72851180D02*
X141400114Y-72755942D01*
X141400114Y-72755942D02*
X141400114Y-72517847D01*
X141400114Y-72517847D02*
X141352495Y-72422609D01*
X141352495Y-72422609D02*
X141304876Y-72374990D01*
X141304876Y-72374990D02*
X141209638Y-72327371D01*
X141209638Y-72327371D02*
X141019162Y-72327371D01*
X141019162Y-72327371D02*
X140923924Y-72374990D01*
X140923924Y-72374990D02*
X140876305Y-72422609D01*
X140876305Y-72422609D02*
X140828686Y-72517847D01*
X138974533Y-66475780D02*
X138926914Y-66523400D01*
X138926914Y-66523400D02*
X138784057Y-66571019D01*
X138784057Y-66571019D02*
X138688819Y-66571019D01*
X138688819Y-66571019D02*
X138545962Y-66523400D01*
X138545962Y-66523400D02*
X138450724Y-66428161D01*
X138450724Y-66428161D02*
X138403105Y-66332923D01*
X138403105Y-66332923D02*
X138355486Y-66142447D01*
X138355486Y-66142447D02*
X138355486Y-65999590D01*
X138355486Y-65999590D02*
X138403105Y-65809114D01*
X138403105Y-65809114D02*
X138450724Y-65713876D01*
X138450724Y-65713876D02*
X138545962Y-65618638D01*
X138545962Y-65618638D02*
X138688819Y-65571019D01*
X138688819Y-65571019D02*
X138784057Y-65571019D01*
X138784057Y-65571019D02*
X138926914Y-65618638D01*
X138926914Y-65618638D02*
X138974533Y-65666257D01*
X139831676Y-65904352D02*
X139831676Y-66571019D01*
X139593581Y-65523400D02*
X139355486Y-66237685D01*
X139355486Y-66237685D02*
X139974533Y-66237685D01*
X144526076Y-79470695D02*
X144526076Y-80118314D01*
X144526076Y-80118314D02*
X144564171Y-80194504D01*
X144564171Y-80194504D02*
X144602266Y-80232600D01*
X144602266Y-80232600D02*
X144678457Y-80270695D01*
X144678457Y-80270695D02*
X144830838Y-80270695D01*
X144830838Y-80270695D02*
X144907028Y-80232600D01*
X144907028Y-80232600D02*
X144945123Y-80194504D01*
X144945123Y-80194504D02*
X144983219Y-80118314D01*
X144983219Y-80118314D02*
X144983219Y-79470695D01*
X145745123Y-79470695D02*
X145364171Y-79470695D01*
X145364171Y-79470695D02*
X145326075Y-79851647D01*
X145326075Y-79851647D02*
X145364171Y-79813552D01*
X145364171Y-79813552D02*
X145440361Y-79775457D01*
X145440361Y-79775457D02*
X145630837Y-79775457D01*
X145630837Y-79775457D02*
X145707028Y-79813552D01*
X145707028Y-79813552D02*
X145745123Y-79851647D01*
X145745123Y-79851647D02*
X145783218Y-79927838D01*
X145783218Y-79927838D02*
X145783218Y-80118314D01*
X145783218Y-80118314D02*
X145745123Y-80194504D01*
X145745123Y-80194504D02*
X145707028Y-80232600D01*
X145707028Y-80232600D02*
X145630837Y-80270695D01*
X145630837Y-80270695D02*
X145440361Y-80270695D01*
X145440361Y-80270695D02*
X145364171Y-80232600D01*
X145364171Y-80232600D02*
X145326075Y-80194504D01*
X142707685Y-81314276D02*
X142402923Y-81314276D01*
X142402923Y-81314276D02*
X142402923Y-80674276D01*
X142890542Y-81283800D02*
X142981971Y-81314276D01*
X142981971Y-81314276D02*
X143134352Y-81314276D01*
X143134352Y-81314276D02*
X143195304Y-81283800D01*
X143195304Y-81283800D02*
X143225780Y-81253323D01*
X143225780Y-81253323D02*
X143256257Y-81192371D01*
X143256257Y-81192371D02*
X143256257Y-81131419D01*
X143256257Y-81131419D02*
X143225780Y-81070466D01*
X143225780Y-81070466D02*
X143195304Y-81039990D01*
X143195304Y-81039990D02*
X143134352Y-81009514D01*
X143134352Y-81009514D02*
X143012447Y-80979038D01*
X143012447Y-80979038D02*
X142951495Y-80948561D01*
X142951495Y-80948561D02*
X142921018Y-80918085D01*
X142921018Y-80918085D02*
X142890542Y-80857133D01*
X142890542Y-80857133D02*
X142890542Y-80796180D01*
X142890542Y-80796180D02*
X142921018Y-80735228D01*
X142921018Y-80735228D02*
X142951495Y-80704752D01*
X142951495Y-80704752D02*
X143012447Y-80674276D01*
X143012447Y-80674276D02*
X143164828Y-80674276D01*
X143164828Y-80674276D02*
X143256257Y-80704752D01*
X143530542Y-81314276D02*
X143530542Y-80674276D01*
X143530542Y-80674276D02*
X143743876Y-81131419D01*
X143743876Y-81131419D02*
X143957209Y-80674276D01*
X143957209Y-80674276D02*
X143957209Y-81314276D01*
X144536257Y-80674276D02*
X144414352Y-80674276D01*
X144414352Y-80674276D02*
X144353400Y-80704752D01*
X144353400Y-80704752D02*
X144322924Y-80735228D01*
X144322924Y-80735228D02*
X144261971Y-80826657D01*
X144261971Y-80826657D02*
X144231495Y-80948561D01*
X144231495Y-80948561D02*
X144231495Y-81192371D01*
X144231495Y-81192371D02*
X144261971Y-81253323D01*
X144261971Y-81253323D02*
X144292448Y-81283800D01*
X144292448Y-81283800D02*
X144353400Y-81314276D01*
X144353400Y-81314276D02*
X144475305Y-81314276D01*
X144475305Y-81314276D02*
X144536257Y-81283800D01*
X144536257Y-81283800D02*
X144566733Y-81253323D01*
X144566733Y-81253323D02*
X144597210Y-81192371D01*
X144597210Y-81192371D02*
X144597210Y-81039990D01*
X144597210Y-81039990D02*
X144566733Y-80979038D01*
X144566733Y-80979038D02*
X144536257Y-80948561D01*
X144536257Y-80948561D02*
X144475305Y-80918085D01*
X144475305Y-80918085D02*
X144353400Y-80918085D01*
X144353400Y-80918085D02*
X144292448Y-80948561D01*
X144292448Y-80948561D02*
X144261971Y-80979038D01*
X144261971Y-80979038D02*
X144231495Y-81039990D01*
X144871495Y-81314276D02*
X144871495Y-80674276D01*
X144871495Y-80674276D02*
X145023876Y-80674276D01*
X145023876Y-80674276D02*
X145115305Y-80704752D01*
X145115305Y-80704752D02*
X145176257Y-80765704D01*
X145176257Y-80765704D02*
X145206734Y-80826657D01*
X145206734Y-80826657D02*
X145237210Y-80948561D01*
X145237210Y-80948561D02*
X145237210Y-81039990D01*
X145237210Y-81039990D02*
X145206734Y-81161895D01*
X145206734Y-81161895D02*
X145176257Y-81222847D01*
X145176257Y-81222847D02*
X145115305Y-81283800D01*
X145115305Y-81283800D02*
X145023876Y-81314276D01*
X145023876Y-81314276D02*
X144871495Y-81314276D01*
X145481019Y-81283800D02*
X145572448Y-81314276D01*
X145572448Y-81314276D02*
X145724829Y-81314276D01*
X145724829Y-81314276D02*
X145785781Y-81283800D01*
X145785781Y-81283800D02*
X145816257Y-81253323D01*
X145816257Y-81253323D02*
X145846734Y-81192371D01*
X145846734Y-81192371D02*
X145846734Y-81131419D01*
X145846734Y-81131419D02*
X145816257Y-81070466D01*
X145816257Y-81070466D02*
X145785781Y-81039990D01*
X145785781Y-81039990D02*
X145724829Y-81009514D01*
X145724829Y-81009514D02*
X145602924Y-80979038D01*
X145602924Y-80979038D02*
X145541972Y-80948561D01*
X145541972Y-80948561D02*
X145511495Y-80918085D01*
X145511495Y-80918085D02*
X145481019Y-80857133D01*
X145481019Y-80857133D02*
X145481019Y-80796180D01*
X145481019Y-80796180D02*
X145511495Y-80735228D01*
X145511495Y-80735228D02*
X145541972Y-80704752D01*
X145541972Y-80704752D02*
X145602924Y-80674276D01*
X145602924Y-80674276D02*
X145755305Y-80674276D01*
X145755305Y-80674276D02*
X145846734Y-80704752D01*
X146242924Y-80674276D02*
X146364829Y-80674276D01*
X146364829Y-80674276D02*
X146425781Y-80704752D01*
X146425781Y-80704752D02*
X146486734Y-80765704D01*
X146486734Y-80765704D02*
X146517210Y-80887609D01*
X146517210Y-80887609D02*
X146517210Y-81100942D01*
X146517210Y-81100942D02*
X146486734Y-81222847D01*
X146486734Y-81222847D02*
X146425781Y-81283800D01*
X146425781Y-81283800D02*
X146364829Y-81314276D01*
X146364829Y-81314276D02*
X146242924Y-81314276D01*
X146242924Y-81314276D02*
X146181972Y-81283800D01*
X146181972Y-81283800D02*
X146121019Y-81222847D01*
X146121019Y-81222847D02*
X146090543Y-81100942D01*
X146090543Y-81100942D02*
X146090543Y-80887609D01*
X146090543Y-80887609D02*
X146121019Y-80765704D01*
X146121019Y-80765704D02*
X146181972Y-80704752D01*
X146181972Y-80704752D02*
X146242924Y-80674276D01*
X146730543Y-80674276D02*
X147157210Y-81314276D01*
X147157210Y-80674276D02*
X146730543Y-81314276D01*
X147309591Y-80674276D02*
X147675305Y-80674276D01*
X147492448Y-81314276D02*
X147492448Y-80674276D01*
X148254353Y-81314276D02*
X148041019Y-81009514D01*
X147888638Y-81314276D02*
X147888638Y-80674276D01*
X147888638Y-80674276D02*
X148132448Y-80674276D01*
X148132448Y-80674276D02*
X148193400Y-80704752D01*
X148193400Y-80704752D02*
X148223877Y-80735228D01*
X148223877Y-80735228D02*
X148254353Y-80796180D01*
X148254353Y-80796180D02*
X148254353Y-80887609D01*
X148254353Y-80887609D02*
X148223877Y-80948561D01*
X148223877Y-80948561D02*
X148193400Y-80979038D01*
X148193400Y-80979038D02*
X148132448Y-81009514D01*
X148132448Y-81009514D02*
X147888638Y-81009514D01*
X128384609Y-99591019D02*
X127908419Y-99591019D01*
X127908419Y-99591019D02*
X127908419Y-98591019D01*
X128717943Y-99067209D02*
X129051276Y-99067209D01*
X129194133Y-99591019D02*
X128717943Y-99591019D01*
X128717943Y-99591019D02*
X128717943Y-98591019D01*
X128717943Y-98591019D02*
X129194133Y-98591019D01*
X129622705Y-99591019D02*
X129622705Y-98591019D01*
X129622705Y-98591019D02*
X129860800Y-98591019D01*
X129860800Y-98591019D02*
X130003657Y-98638638D01*
X130003657Y-98638638D02*
X130098895Y-98733876D01*
X130098895Y-98733876D02*
X130146514Y-98829114D01*
X130146514Y-98829114D02*
X130194133Y-99019590D01*
X130194133Y-99019590D02*
X130194133Y-99162447D01*
X130194133Y-99162447D02*
X130146514Y-99352923D01*
X130146514Y-99352923D02*
X130098895Y-99448161D01*
X130098895Y-99448161D02*
X130003657Y-99543400D01*
X130003657Y-99543400D02*
X129860800Y-99591019D01*
X129860800Y-99591019D02*
X129622705Y-99591019D01*
X130384610Y-99686257D02*
X131146514Y-99686257D01*
X131860800Y-99591019D02*
X131384610Y-99591019D01*
X131384610Y-99591019D02*
X131384610Y-98591019D01*
X132146515Y-99543400D02*
X132289372Y-99591019D01*
X132289372Y-99591019D02*
X132527467Y-99591019D01*
X132527467Y-99591019D02*
X132622705Y-99543400D01*
X132622705Y-99543400D02*
X132670324Y-99495780D01*
X132670324Y-99495780D02*
X132717943Y-99400542D01*
X132717943Y-99400542D02*
X132717943Y-99305304D01*
X132717943Y-99305304D02*
X132670324Y-99210066D01*
X132670324Y-99210066D02*
X132622705Y-99162447D01*
X132622705Y-99162447D02*
X132527467Y-99114828D01*
X132527467Y-99114828D02*
X132336991Y-99067209D01*
X132336991Y-99067209D02*
X132241753Y-99019590D01*
X132241753Y-99019590D02*
X132194134Y-98971971D01*
X132194134Y-98971971D02*
X132146515Y-98876733D01*
X132146515Y-98876733D02*
X132146515Y-98781495D01*
X132146515Y-98781495D02*
X132194134Y-98686257D01*
X132194134Y-98686257D02*
X132241753Y-98638638D01*
X132241753Y-98638638D02*
X132336991Y-98591019D01*
X132336991Y-98591019D02*
X132575086Y-98591019D01*
X132575086Y-98591019D02*
X132717943Y-98638638D01*
X133146515Y-99591019D02*
X133146515Y-98591019D01*
X133146515Y-98591019D02*
X133479848Y-99305304D01*
X133479848Y-99305304D02*
X133813181Y-98591019D01*
X133813181Y-98591019D02*
X133813181Y-99591019D01*
X108757070Y-62461975D02*
X108757070Y-62980826D01*
X108757070Y-62980826D02*
X108787590Y-63041867D01*
X108787590Y-63041867D02*
X108818111Y-63072388D01*
X108818111Y-63072388D02*
X108879152Y-63102908D01*
X108879152Y-63102908D02*
X109001235Y-63102908D01*
X109001235Y-63102908D02*
X109062276Y-63072388D01*
X109062276Y-63072388D02*
X109092796Y-63041867D01*
X109092796Y-63041867D02*
X109123317Y-62980826D01*
X109123317Y-62980826D02*
X109123317Y-62461975D01*
X109398003Y-62523016D02*
X109428524Y-62492496D01*
X109428524Y-62492496D02*
X109489565Y-62461975D01*
X109489565Y-62461975D02*
X109642168Y-62461975D01*
X109642168Y-62461975D02*
X109703209Y-62492496D01*
X109703209Y-62492496D02*
X109733730Y-62523016D01*
X109733730Y-62523016D02*
X109764250Y-62584058D01*
X109764250Y-62584058D02*
X109764250Y-62645099D01*
X109764250Y-62645099D02*
X109733730Y-62736661D01*
X109733730Y-62736661D02*
X109367482Y-63102908D01*
X109367482Y-63102908D02*
X109764250Y-63102908D01*
X108922244Y-62061659D02*
X108616882Y-62061659D01*
X108616882Y-62061659D02*
X108616882Y-61420400D01*
X109135996Y-62061659D02*
X109135996Y-61420400D01*
X109135996Y-61420400D02*
X109380285Y-61420400D01*
X109380285Y-61420400D02*
X109441358Y-61450936D01*
X109441358Y-61450936D02*
X109471894Y-61481472D01*
X109471894Y-61481472D02*
X109502430Y-61542544D01*
X109502430Y-61542544D02*
X109502430Y-61634153D01*
X109502430Y-61634153D02*
X109471894Y-61695225D01*
X109471894Y-61695225D02*
X109441358Y-61725761D01*
X109441358Y-61725761D02*
X109380285Y-61756297D01*
X109380285Y-61756297D02*
X109135996Y-61756297D01*
X109746719Y-62031123D02*
X109838328Y-62061659D01*
X109838328Y-62061659D02*
X109991008Y-62061659D01*
X109991008Y-62061659D02*
X110052081Y-62031123D01*
X110052081Y-62031123D02*
X110082617Y-62000586D01*
X110082617Y-62000586D02*
X110113153Y-61939514D01*
X110113153Y-61939514D02*
X110113153Y-61878442D01*
X110113153Y-61878442D02*
X110082617Y-61817370D01*
X110082617Y-61817370D02*
X110052081Y-61786833D01*
X110052081Y-61786833D02*
X109991008Y-61756297D01*
X109991008Y-61756297D02*
X109868864Y-61725761D01*
X109868864Y-61725761D02*
X109807791Y-61695225D01*
X109807791Y-61695225D02*
X109777255Y-61664689D01*
X109777255Y-61664689D02*
X109746719Y-61603617D01*
X109746719Y-61603617D02*
X109746719Y-61542544D01*
X109746719Y-61542544D02*
X109777255Y-61481472D01*
X109777255Y-61481472D02*
X109807791Y-61450936D01*
X109807791Y-61450936D02*
X109868864Y-61420400D01*
X109868864Y-61420400D02*
X110021544Y-61420400D01*
X110021544Y-61420400D02*
X110113153Y-61450936D01*
X110357442Y-61481472D02*
X110387978Y-61450936D01*
X110387978Y-61450936D02*
X110449051Y-61420400D01*
X110449051Y-61420400D02*
X110601731Y-61420400D01*
X110601731Y-61420400D02*
X110662804Y-61450936D01*
X110662804Y-61450936D02*
X110693340Y-61481472D01*
X110693340Y-61481472D02*
X110723876Y-61542544D01*
X110723876Y-61542544D02*
X110723876Y-61603617D01*
X110723876Y-61603617D02*
X110693340Y-61695225D01*
X110693340Y-61695225D02*
X110326906Y-62061659D01*
X110326906Y-62061659D02*
X110723876Y-62061659D01*
X110968165Y-61481472D02*
X110998701Y-61450936D01*
X110998701Y-61450936D02*
X111059774Y-61420400D01*
X111059774Y-61420400D02*
X111212454Y-61420400D01*
X111212454Y-61420400D02*
X111273527Y-61450936D01*
X111273527Y-61450936D02*
X111304063Y-61481472D01*
X111304063Y-61481472D02*
X111334599Y-61542544D01*
X111334599Y-61542544D02*
X111334599Y-61603617D01*
X111334599Y-61603617D02*
X111304063Y-61695225D01*
X111304063Y-61695225D02*
X110937629Y-62061659D01*
X110937629Y-62061659D02*
X111334599Y-62061659D01*
X111609424Y-62061659D02*
X111609424Y-61420400D01*
X111609424Y-61725761D02*
X111975858Y-61725761D01*
X111975858Y-62061659D02*
X111975858Y-61420400D01*
X112494972Y-61725761D02*
X112586581Y-61756297D01*
X112586581Y-61756297D02*
X112617117Y-61786833D01*
X112617117Y-61786833D02*
X112647653Y-61847906D01*
X112647653Y-61847906D02*
X112647653Y-61939514D01*
X112647653Y-61939514D02*
X112617117Y-62000586D01*
X112617117Y-62000586D02*
X112586581Y-62031123D01*
X112586581Y-62031123D02*
X112525508Y-62061659D01*
X112525508Y-62061659D02*
X112281219Y-62061659D01*
X112281219Y-62061659D02*
X112281219Y-61420400D01*
X112281219Y-61420400D02*
X112494972Y-61420400D01*
X112494972Y-61420400D02*
X112556045Y-61450936D01*
X112556045Y-61450936D02*
X112586581Y-61481472D01*
X112586581Y-61481472D02*
X112617117Y-61542544D01*
X112617117Y-61542544D02*
X112617117Y-61603617D01*
X112617117Y-61603617D02*
X112586581Y-61664689D01*
X112586581Y-61664689D02*
X112556045Y-61695225D01*
X112556045Y-61695225D02*
X112494972Y-61725761D01*
X112494972Y-61725761D02*
X112281219Y-61725761D01*
X150531533Y-62608619D02*
X150198200Y-62132428D01*
X149960105Y-62608619D02*
X149960105Y-61608619D01*
X149960105Y-61608619D02*
X150341057Y-61608619D01*
X150341057Y-61608619D02*
X150436295Y-61656238D01*
X150436295Y-61656238D02*
X150483914Y-61703857D01*
X150483914Y-61703857D02*
X150531533Y-61799095D01*
X150531533Y-61799095D02*
X150531533Y-61941952D01*
X150531533Y-61941952D02*
X150483914Y-62037190D01*
X150483914Y-62037190D02*
X150436295Y-62084809D01*
X150436295Y-62084809D02*
X150341057Y-62132428D01*
X150341057Y-62132428D02*
X149960105Y-62132428D01*
X151388676Y-61941952D02*
X151388676Y-62608619D01*
X151150581Y-61561000D02*
X150912486Y-62275285D01*
X150912486Y-62275285D02*
X151531533Y-62275285D01*
X112304866Y-100124419D02*
X111828676Y-100124419D01*
X111828676Y-100124419D02*
X111828676Y-99124419D01*
X112638200Y-99600609D02*
X112971533Y-99600609D01*
X113114390Y-100124419D02*
X112638200Y-100124419D01*
X112638200Y-100124419D02*
X112638200Y-99124419D01*
X112638200Y-99124419D02*
X113114390Y-99124419D01*
X113542962Y-100124419D02*
X113542962Y-99124419D01*
X113542962Y-99124419D02*
X113781057Y-99124419D01*
X113781057Y-99124419D02*
X113923914Y-99172038D01*
X113923914Y-99172038D02*
X114019152Y-99267276D01*
X114019152Y-99267276D02*
X114066771Y-99362514D01*
X114066771Y-99362514D02*
X114114390Y-99552990D01*
X114114390Y-99552990D02*
X114114390Y-99695847D01*
X114114390Y-99695847D02*
X114066771Y-99886323D01*
X114066771Y-99886323D02*
X114019152Y-99981561D01*
X114019152Y-99981561D02*
X113923914Y-100076800D01*
X113923914Y-100076800D02*
X113781057Y-100124419D01*
X113781057Y-100124419D02*
X113542962Y-100124419D01*
X114304867Y-100219657D02*
X115066771Y-100219657D01*
X115257248Y-99838704D02*
X115733438Y-99838704D01*
X115162010Y-100124419D02*
X115495343Y-99124419D01*
X115495343Y-99124419D02*
X115828676Y-100124419D01*
X116162010Y-100124419D02*
X116162010Y-99124419D01*
X116162010Y-99124419D02*
X116400105Y-99124419D01*
X116400105Y-99124419D02*
X116542962Y-99172038D01*
X116542962Y-99172038D02*
X116638200Y-99267276D01*
X116638200Y-99267276D02*
X116685819Y-99362514D01*
X116685819Y-99362514D02*
X116733438Y-99552990D01*
X116733438Y-99552990D02*
X116733438Y-99695847D01*
X116733438Y-99695847D02*
X116685819Y-99886323D01*
X116685819Y-99886323D02*
X116638200Y-99981561D01*
X116638200Y-99981561D02*
X116542962Y-100076800D01*
X116542962Y-100076800D02*
X116400105Y-100124419D01*
X116400105Y-100124419D02*
X116162010Y-100124419D01*
X117066772Y-99124419D02*
X117733438Y-100124419D01*
X117733438Y-99124419D02*
X117066772Y-100124419D01*
X118590581Y-100124419D02*
X118114391Y-100124419D01*
X118114391Y-100124419D02*
X118114391Y-99124419D01*
X106183133Y-67485419D02*
X105849800Y-67009228D01*
X105611705Y-67485419D02*
X105611705Y-66485419D01*
X105611705Y-66485419D02*
X105992657Y-66485419D01*
X105992657Y-66485419D02*
X106087895Y-66533038D01*
X106087895Y-66533038D02*
X106135514Y-66580657D01*
X106135514Y-66580657D02*
X106183133Y-66675895D01*
X106183133Y-66675895D02*
X106183133Y-66818752D01*
X106183133Y-66818752D02*
X106135514Y-66913990D01*
X106135514Y-66913990D02*
X106087895Y-66961609D01*
X106087895Y-66961609D02*
X105992657Y-67009228D01*
X105992657Y-67009228D02*
X105611705Y-67009228D01*
X106564086Y-66580657D02*
X106611705Y-66533038D01*
X106611705Y-66533038D02*
X106706943Y-66485419D01*
X106706943Y-66485419D02*
X106945038Y-66485419D01*
X106945038Y-66485419D02*
X107040276Y-66533038D01*
X107040276Y-66533038D02*
X107087895Y-66580657D01*
X107087895Y-66580657D02*
X107135514Y-66675895D01*
X107135514Y-66675895D02*
X107135514Y-66771133D01*
X107135514Y-66771133D02*
X107087895Y-66913990D01*
X107087895Y-66913990D02*
X106516467Y-67485419D01*
X106516467Y-67485419D02*
X107135514Y-67485419D01*
X106589533Y-57153980D02*
X106541914Y-57201600D01*
X106541914Y-57201600D02*
X106399057Y-57249219D01*
X106399057Y-57249219D02*
X106303819Y-57249219D01*
X106303819Y-57249219D02*
X106160962Y-57201600D01*
X106160962Y-57201600D02*
X106065724Y-57106361D01*
X106065724Y-57106361D02*
X106018105Y-57011123D01*
X106018105Y-57011123D02*
X105970486Y-56820647D01*
X105970486Y-56820647D02*
X105970486Y-56677790D01*
X105970486Y-56677790D02*
X106018105Y-56487314D01*
X106018105Y-56487314D02*
X106065724Y-56392076D01*
X106065724Y-56392076D02*
X106160962Y-56296838D01*
X106160962Y-56296838D02*
X106303819Y-56249219D01*
X106303819Y-56249219D02*
X106399057Y-56249219D01*
X106399057Y-56249219D02*
X106541914Y-56296838D01*
X106541914Y-56296838D02*
X106589533Y-56344457D01*
X106970486Y-56344457D02*
X107018105Y-56296838D01*
X107018105Y-56296838D02*
X107113343Y-56249219D01*
X107113343Y-56249219D02*
X107351438Y-56249219D01*
X107351438Y-56249219D02*
X107446676Y-56296838D01*
X107446676Y-56296838D02*
X107494295Y-56344457D01*
X107494295Y-56344457D02*
X107541914Y-56439695D01*
X107541914Y-56439695D02*
X107541914Y-56534933D01*
X107541914Y-56534933D02*
X107494295Y-56677790D01*
X107494295Y-56677790D02*
X106922867Y-57249219D01*
X106922867Y-57249219D02*
X107541914Y-57249219D01*
X138095456Y-87221219D02*
X137619266Y-87221219D01*
X137619266Y-87221219D02*
X137619266Y-86221219D01*
X138428790Y-86697409D02*
X138762123Y-86697409D01*
X138904980Y-87221219D02*
X138428790Y-87221219D01*
X138428790Y-87221219D02*
X138428790Y-86221219D01*
X138428790Y-86221219D02*
X138904980Y-86221219D01*
X139333552Y-87221219D02*
X139333552Y-86221219D01*
X139333552Y-86221219D02*
X139571647Y-86221219D01*
X139571647Y-86221219D02*
X139714504Y-86268838D01*
X139714504Y-86268838D02*
X139809742Y-86364076D01*
X139809742Y-86364076D02*
X139857361Y-86459314D01*
X139857361Y-86459314D02*
X139904980Y-86649790D01*
X139904980Y-86649790D02*
X139904980Y-86792647D01*
X139904980Y-86792647D02*
X139857361Y-86983123D01*
X139857361Y-86983123D02*
X139809742Y-87078361D01*
X139809742Y-87078361D02*
X139714504Y-87173600D01*
X139714504Y-87173600D02*
X139571647Y-87221219D01*
X139571647Y-87221219D02*
X139333552Y-87221219D01*
X140095457Y-87316457D02*
X140857361Y-87316457D01*
X141571647Y-87221219D02*
X141095457Y-87221219D01*
X141095457Y-87221219D02*
X141095457Y-86221219D01*
X141904981Y-87221219D02*
X141904981Y-86221219D01*
X141904981Y-86221219D02*
X142285933Y-86221219D01*
X142285933Y-86221219D02*
X142381171Y-86268838D01*
X142381171Y-86268838D02*
X142428790Y-86316457D01*
X142428790Y-86316457D02*
X142476409Y-86411695D01*
X142476409Y-86411695D02*
X142476409Y-86554552D01*
X142476409Y-86554552D02*
X142428790Y-86649790D01*
X142428790Y-86649790D02*
X142381171Y-86697409D01*
X142381171Y-86697409D02*
X142285933Y-86745028D01*
X142285933Y-86745028D02*
X141904981Y-86745028D01*
X142857362Y-87173600D02*
X143000219Y-87221219D01*
X143000219Y-87221219D02*
X143238314Y-87221219D01*
X143238314Y-87221219D02*
X143333552Y-87173600D01*
X143333552Y-87173600D02*
X143381171Y-87125980D01*
X143381171Y-87125980D02*
X143428790Y-87030742D01*
X143428790Y-87030742D02*
X143428790Y-86935504D01*
X143428790Y-86935504D02*
X143381171Y-86840266D01*
X143381171Y-86840266D02*
X143333552Y-86792647D01*
X143333552Y-86792647D02*
X143238314Y-86745028D01*
X143238314Y-86745028D02*
X143047838Y-86697409D01*
X143047838Y-86697409D02*
X142952600Y-86649790D01*
X142952600Y-86649790D02*
X142904981Y-86602171D01*
X142904981Y-86602171D02*
X142857362Y-86506933D01*
X142857362Y-86506933D02*
X142857362Y-86411695D01*
X142857362Y-86411695D02*
X142904981Y-86316457D01*
X142904981Y-86316457D02*
X142952600Y-86268838D01*
X142952600Y-86268838D02*
X143047838Y-86221219D01*
X143047838Y-86221219D02*
X143285933Y-86221219D01*
X143285933Y-86221219D02*
X143428790Y-86268838D01*
X143809743Y-86316457D02*
X143857362Y-86268838D01*
X143857362Y-86268838D02*
X143952600Y-86221219D01*
X143952600Y-86221219D02*
X144190695Y-86221219D01*
X144190695Y-86221219D02*
X144285933Y-86268838D01*
X144285933Y-86268838D02*
X144333552Y-86316457D01*
X144333552Y-86316457D02*
X144381171Y-86411695D01*
X144381171Y-86411695D02*
X144381171Y-86506933D01*
X144381171Y-86506933D02*
X144333552Y-86649790D01*
X144333552Y-86649790D02*
X143762124Y-87221219D01*
X143762124Y-87221219D02*
X144381171Y-87221219D01*
X144762124Y-86316457D02*
X144809743Y-86268838D01*
X144809743Y-86268838D02*
X144904981Y-86221219D01*
X144904981Y-86221219D02*
X145143076Y-86221219D01*
X145143076Y-86221219D02*
X145238314Y-86268838D01*
X145238314Y-86268838D02*
X145285933Y-86316457D01*
X145285933Y-86316457D02*
X145333552Y-86411695D01*
X145333552Y-86411695D02*
X145333552Y-86506933D01*
X145333552Y-86506933D02*
X145285933Y-86649790D01*
X145285933Y-86649790D02*
X144714505Y-87221219D01*
X144714505Y-87221219D02*
X145333552Y-87221219D01*
X113041133Y-74064019D02*
X112707800Y-73587828D01*
X112469705Y-74064019D02*
X112469705Y-73064019D01*
X112469705Y-73064019D02*
X112850657Y-73064019D01*
X112850657Y-73064019D02*
X112945895Y-73111638D01*
X112945895Y-73111638D02*
X112993514Y-73159257D01*
X112993514Y-73159257D02*
X113041133Y-73254495D01*
X113041133Y-73254495D02*
X113041133Y-73397352D01*
X113041133Y-73397352D02*
X112993514Y-73492590D01*
X112993514Y-73492590D02*
X112945895Y-73540209D01*
X112945895Y-73540209D02*
X112850657Y-73587828D01*
X112850657Y-73587828D02*
X112469705Y-73587828D01*
X113993514Y-74064019D02*
X113422086Y-74064019D01*
X113707800Y-74064019D02*
X113707800Y-73064019D01*
X113707800Y-73064019D02*
X113612562Y-73206876D01*
X113612562Y-73206876D02*
X113517324Y-73302114D01*
X113517324Y-73302114D02*
X113422086Y-73349733D01*
X138999933Y-70762019D02*
X138666600Y-70285828D01*
X138428505Y-70762019D02*
X138428505Y-69762019D01*
X138428505Y-69762019D02*
X138809457Y-69762019D01*
X138809457Y-69762019D02*
X138904695Y-69809638D01*
X138904695Y-69809638D02*
X138952314Y-69857257D01*
X138952314Y-69857257D02*
X138999933Y-69952495D01*
X138999933Y-69952495D02*
X138999933Y-70095352D01*
X138999933Y-70095352D02*
X138952314Y-70190590D01*
X138952314Y-70190590D02*
X138904695Y-70238209D01*
X138904695Y-70238209D02*
X138809457Y-70285828D01*
X138809457Y-70285828D02*
X138428505Y-70285828D01*
X139333267Y-69762019D02*
X139952314Y-69762019D01*
X139952314Y-69762019D02*
X139618981Y-70142971D01*
X139618981Y-70142971D02*
X139761838Y-70142971D01*
X139761838Y-70142971D02*
X139857076Y-70190590D01*
X139857076Y-70190590D02*
X139904695Y-70238209D01*
X139904695Y-70238209D02*
X139952314Y-70333447D01*
X139952314Y-70333447D02*
X139952314Y-70571542D01*
X139952314Y-70571542D02*
X139904695Y-70666780D01*
X139904695Y-70666780D02*
X139857076Y-70714400D01*
X139857076Y-70714400D02*
X139761838Y-70762019D01*
X139761838Y-70762019D02*
X139476124Y-70762019D01*
X139476124Y-70762019D02*
X139380886Y-70714400D01*
X139380886Y-70714400D02*
X139333267Y-70666780D01*
X135926533Y-99871419D02*
X135593200Y-99395228D01*
X135355105Y-99871419D02*
X135355105Y-98871419D01*
X135355105Y-98871419D02*
X135736057Y-98871419D01*
X135736057Y-98871419D02*
X135831295Y-98919038D01*
X135831295Y-98919038D02*
X135878914Y-98966657D01*
X135878914Y-98966657D02*
X135926533Y-99061895D01*
X135926533Y-99061895D02*
X135926533Y-99204752D01*
X135926533Y-99204752D02*
X135878914Y-99299990D01*
X135878914Y-99299990D02*
X135831295Y-99347609D01*
X135831295Y-99347609D02*
X135736057Y-99395228D01*
X135736057Y-99395228D02*
X135355105Y-99395228D01*
X136402724Y-99871419D02*
X136593200Y-99871419D01*
X136593200Y-99871419D02*
X136688438Y-99823800D01*
X136688438Y-99823800D02*
X136736057Y-99776180D01*
X136736057Y-99776180D02*
X136831295Y-99633323D01*
X136831295Y-99633323D02*
X136878914Y-99442847D01*
X136878914Y-99442847D02*
X136878914Y-99061895D01*
X136878914Y-99061895D02*
X136831295Y-98966657D01*
X136831295Y-98966657D02*
X136783676Y-98919038D01*
X136783676Y-98919038D02*
X136688438Y-98871419D01*
X136688438Y-98871419D02*
X136497962Y-98871419D01*
X136497962Y-98871419D02*
X136402724Y-98919038D01*
X136402724Y-98919038D02*
X136355105Y-98966657D01*
X136355105Y-98966657D02*
X136307486Y-99061895D01*
X136307486Y-99061895D02*
X136307486Y-99299990D01*
X136307486Y-99299990D02*
X136355105Y-99395228D01*
X136355105Y-99395228D02*
X136402724Y-99442847D01*
X136402724Y-99442847D02*
X136497962Y-99490466D01*
X136497962Y-99490466D02*
X136688438Y-99490466D01*
X136688438Y-99490466D02*
X136783676Y-99442847D01*
X136783676Y-99442847D02*
X136831295Y-99395228D01*
X136831295Y-99395228D02*
X136878914Y-99299990D01*
X144913361Y-96206457D02*
X144818123Y-96158838D01*
X144818123Y-96158838D02*
X144722885Y-96063600D01*
X144722885Y-96063600D02*
X144580028Y-95920742D01*
X144580028Y-95920742D02*
X144484790Y-95873123D01*
X144484790Y-95873123D02*
X144389552Y-95873123D01*
X144437171Y-96111219D02*
X144341933Y-96063600D01*
X144341933Y-96063600D02*
X144246695Y-95968361D01*
X144246695Y-95968361D02*
X144199076Y-95777885D01*
X144199076Y-95777885D02*
X144199076Y-95444552D01*
X144199076Y-95444552D02*
X144246695Y-95254076D01*
X144246695Y-95254076D02*
X144341933Y-95158838D01*
X144341933Y-95158838D02*
X144437171Y-95111219D01*
X144437171Y-95111219D02*
X144627647Y-95111219D01*
X144627647Y-95111219D02*
X144722885Y-95158838D01*
X144722885Y-95158838D02*
X144818123Y-95254076D01*
X144818123Y-95254076D02*
X144865742Y-95444552D01*
X144865742Y-95444552D02*
X144865742Y-95777885D01*
X144865742Y-95777885D02*
X144818123Y-95968361D01*
X144818123Y-95968361D02*
X144722885Y-96063600D01*
X144722885Y-96063600D02*
X144627647Y-96111219D01*
X144627647Y-96111219D02*
X144437171Y-96111219D01*
X145246695Y-95206457D02*
X145294314Y-95158838D01*
X145294314Y-95158838D02*
X145389552Y-95111219D01*
X145389552Y-95111219D02*
X145627647Y-95111219D01*
X145627647Y-95111219D02*
X145722885Y-95158838D01*
X145722885Y-95158838D02*
X145770504Y-95206457D01*
X145770504Y-95206457D02*
X145818123Y-95301695D01*
X145818123Y-95301695D02*
X145818123Y-95396933D01*
X145818123Y-95396933D02*
X145770504Y-95539790D01*
X145770504Y-95539790D02*
X145199076Y-96111219D01*
X145199076Y-96111219D02*
X145818123Y-96111219D01*
X133356361Y-111979857D02*
X133261123Y-111932238D01*
X133261123Y-111932238D02*
X133165885Y-111837000D01*
X133165885Y-111837000D02*
X133023028Y-111694142D01*
X133023028Y-111694142D02*
X132927790Y-111646523D01*
X132927790Y-111646523D02*
X132832552Y-111646523D01*
X132880171Y-111884619D02*
X132784933Y-111837000D01*
X132784933Y-111837000D02*
X132689695Y-111741761D01*
X132689695Y-111741761D02*
X132642076Y-111551285D01*
X132642076Y-111551285D02*
X132642076Y-111217952D01*
X132642076Y-111217952D02*
X132689695Y-111027476D01*
X132689695Y-111027476D02*
X132784933Y-110932238D01*
X132784933Y-110932238D02*
X132880171Y-110884619D01*
X132880171Y-110884619D02*
X133070647Y-110884619D01*
X133070647Y-110884619D02*
X133165885Y-110932238D01*
X133165885Y-110932238D02*
X133261123Y-111027476D01*
X133261123Y-111027476D02*
X133308742Y-111217952D01*
X133308742Y-111217952D02*
X133308742Y-111551285D01*
X133308742Y-111551285D02*
X133261123Y-111741761D01*
X133261123Y-111741761D02*
X133165885Y-111837000D01*
X133165885Y-111837000D02*
X133070647Y-111884619D01*
X133070647Y-111884619D02*
X132880171Y-111884619D01*
X134165885Y-111217952D02*
X134165885Y-111884619D01*
X133927790Y-110837000D02*
X133689695Y-111551285D01*
X133689695Y-111551285D02*
X134308742Y-111551285D01*
X107869552Y-55588819D02*
X108440980Y-55588819D01*
X108155266Y-56588819D02*
X108155266Y-55588819D01*
X108774314Y-56588819D02*
X108774314Y-55588819D01*
X108774314Y-55588819D02*
X109155266Y-55588819D01*
X109155266Y-55588819D02*
X109250504Y-55636438D01*
X109250504Y-55636438D02*
X109298123Y-55684057D01*
X109298123Y-55684057D02*
X109345742Y-55779295D01*
X109345742Y-55779295D02*
X109345742Y-55922152D01*
X109345742Y-55922152D02*
X109298123Y-56017390D01*
X109298123Y-56017390D02*
X109250504Y-56065009D01*
X109250504Y-56065009D02*
X109155266Y-56112628D01*
X109155266Y-56112628D02*
X108774314Y-56112628D01*
X109536219Y-56684057D02*
X110298123Y-56684057D01*
X110536219Y-56588819D02*
X110536219Y-55588819D01*
X110536219Y-55588819D02*
X110869552Y-56303104D01*
X110869552Y-56303104D02*
X111202885Y-55588819D01*
X111202885Y-55588819D02*
X111202885Y-56588819D01*
X111631457Y-56541200D02*
X111774314Y-56588819D01*
X111774314Y-56588819D02*
X112012409Y-56588819D01*
X112012409Y-56588819D02*
X112107647Y-56541200D01*
X112107647Y-56541200D02*
X112155266Y-56493580D01*
X112155266Y-56493580D02*
X112202885Y-56398342D01*
X112202885Y-56398342D02*
X112202885Y-56303104D01*
X112202885Y-56303104D02*
X112155266Y-56207866D01*
X112155266Y-56207866D02*
X112107647Y-56160247D01*
X112107647Y-56160247D02*
X112012409Y-56112628D01*
X112012409Y-56112628D02*
X111821933Y-56065009D01*
X111821933Y-56065009D02*
X111726695Y-56017390D01*
X111726695Y-56017390D02*
X111679076Y-55969771D01*
X111679076Y-55969771D02*
X111631457Y-55874533D01*
X111631457Y-55874533D02*
X111631457Y-55779295D01*
X111631457Y-55779295D02*
X111679076Y-55684057D01*
X111679076Y-55684057D02*
X111726695Y-55636438D01*
X111726695Y-55636438D02*
X111821933Y-55588819D01*
X111821933Y-55588819D02*
X112060028Y-55588819D01*
X112060028Y-55588819D02*
X112202885Y-55636438D01*
X113107647Y-55588819D02*
X112631457Y-55588819D01*
X112631457Y-55588819D02*
X112583838Y-56065009D01*
X112583838Y-56065009D02*
X112631457Y-56017390D01*
X112631457Y-56017390D02*
X112726695Y-55969771D01*
X112726695Y-55969771D02*
X112964790Y-55969771D01*
X112964790Y-55969771D02*
X113060028Y-56017390D01*
X113060028Y-56017390D02*
X113107647Y-56065009D01*
X113107647Y-56065009D02*
X113155266Y-56160247D01*
X113155266Y-56160247D02*
X113155266Y-56398342D01*
X113155266Y-56398342D02*
X113107647Y-56493580D01*
X113107647Y-56493580D02*
X113060028Y-56541200D01*
X113060028Y-56541200D02*
X112964790Y-56588819D01*
X112964790Y-56588819D02*
X112726695Y-56588819D01*
X112726695Y-56588819D02*
X112631457Y-56541200D01*
X112631457Y-56541200D02*
X112583838Y-56493580D01*
X114012409Y-55588819D02*
X113821933Y-55588819D01*
X113821933Y-55588819D02*
X113726695Y-55636438D01*
X113726695Y-55636438D02*
X113679076Y-55684057D01*
X113679076Y-55684057D02*
X113583838Y-55826914D01*
X113583838Y-55826914D02*
X113536219Y-56017390D01*
X113536219Y-56017390D02*
X113536219Y-56398342D01*
X113536219Y-56398342D02*
X113583838Y-56493580D01*
X113583838Y-56493580D02*
X113631457Y-56541200D01*
X113631457Y-56541200D02*
X113726695Y-56588819D01*
X113726695Y-56588819D02*
X113917171Y-56588819D01*
X113917171Y-56588819D02*
X114012409Y-56541200D01*
X114012409Y-56541200D02*
X114060028Y-56493580D01*
X114060028Y-56493580D02*
X114107647Y-56398342D01*
X114107647Y-56398342D02*
X114107647Y-56160247D01*
X114107647Y-56160247D02*
X114060028Y-56065009D01*
X114060028Y-56065009D02*
X114012409Y-56017390D01*
X114012409Y-56017390D02*
X113917171Y-55969771D01*
X113917171Y-55969771D02*
X113726695Y-55969771D01*
X113726695Y-55969771D02*
X113631457Y-56017390D01*
X113631457Y-56017390D02*
X113583838Y-56065009D01*
X113583838Y-56065009D02*
X113536219Y-56160247D01*
X114726695Y-55588819D02*
X114821933Y-55588819D01*
X114821933Y-55588819D02*
X114917171Y-55636438D01*
X114917171Y-55636438D02*
X114964790Y-55684057D01*
X114964790Y-55684057D02*
X115012409Y-55779295D01*
X115012409Y-55779295D02*
X115060028Y-55969771D01*
X115060028Y-55969771D02*
X115060028Y-56207866D01*
X115060028Y-56207866D02*
X115012409Y-56398342D01*
X115012409Y-56398342D02*
X114964790Y-56493580D01*
X114964790Y-56493580D02*
X114917171Y-56541200D01*
X114917171Y-56541200D02*
X114821933Y-56588819D01*
X114821933Y-56588819D02*
X114726695Y-56588819D01*
X114726695Y-56588819D02*
X114631457Y-56541200D01*
X114631457Y-56541200D02*
X114583838Y-56493580D01*
X114583838Y-56493580D02*
X114536219Y-56398342D01*
X114536219Y-56398342D02*
X114488600Y-56207866D01*
X114488600Y-56207866D02*
X114488600Y-55969771D01*
X114488600Y-55969771D02*
X114536219Y-55779295D01*
X114536219Y-55779295D02*
X114583838Y-55684057D01*
X114583838Y-55684057D02*
X114631457Y-55636438D01*
X114631457Y-55636438D02*
X114726695Y-55588819D01*
X115393362Y-55588819D02*
X116060028Y-55588819D01*
X116060028Y-55588819D02*
X115631457Y-56588819D01*
X99655809Y-87043419D02*
X99179619Y-87043419D01*
X99179619Y-87043419D02*
X99179619Y-86043419D01*
X99989143Y-86519609D02*
X100322476Y-86519609D01*
X100465333Y-87043419D02*
X99989143Y-87043419D01*
X99989143Y-87043419D02*
X99989143Y-86043419D01*
X99989143Y-86043419D02*
X100465333Y-86043419D01*
X100893905Y-87043419D02*
X100893905Y-86043419D01*
X100893905Y-86043419D02*
X101132000Y-86043419D01*
X101132000Y-86043419D02*
X101274857Y-86091038D01*
X101274857Y-86091038D02*
X101370095Y-86186276D01*
X101370095Y-86186276D02*
X101417714Y-86281514D01*
X101417714Y-86281514D02*
X101465333Y-86471990D01*
X101465333Y-86471990D02*
X101465333Y-86614847D01*
X101465333Y-86614847D02*
X101417714Y-86805323D01*
X101417714Y-86805323D02*
X101370095Y-86900561D01*
X101370095Y-86900561D02*
X101274857Y-86995800D01*
X101274857Y-86995800D02*
X101132000Y-87043419D01*
X101132000Y-87043419D02*
X100893905Y-87043419D01*
X101655810Y-87138657D02*
X102417714Y-87138657D01*
X102655810Y-87043419D02*
X102655810Y-86043419D01*
X102655810Y-86043419D02*
X102989143Y-86757704D01*
X102989143Y-86757704D02*
X103322476Y-86043419D01*
X103322476Y-86043419D02*
X103322476Y-87043419D01*
X103751048Y-86995800D02*
X103893905Y-87043419D01*
X103893905Y-87043419D02*
X104132000Y-87043419D01*
X104132000Y-87043419D02*
X104227238Y-86995800D01*
X104227238Y-86995800D02*
X104274857Y-86948180D01*
X104274857Y-86948180D02*
X104322476Y-86852942D01*
X104322476Y-86852942D02*
X104322476Y-86757704D01*
X104322476Y-86757704D02*
X104274857Y-86662466D01*
X104274857Y-86662466D02*
X104227238Y-86614847D01*
X104227238Y-86614847D02*
X104132000Y-86567228D01*
X104132000Y-86567228D02*
X103941524Y-86519609D01*
X103941524Y-86519609D02*
X103846286Y-86471990D01*
X103846286Y-86471990D02*
X103798667Y-86424371D01*
X103798667Y-86424371D02*
X103751048Y-86329133D01*
X103751048Y-86329133D02*
X103751048Y-86233895D01*
X103751048Y-86233895D02*
X103798667Y-86138657D01*
X103798667Y-86138657D02*
X103846286Y-86091038D01*
X103846286Y-86091038D02*
X103941524Y-86043419D01*
X103941524Y-86043419D02*
X104179619Y-86043419D01*
X104179619Y-86043419D02*
X104322476Y-86091038D01*
X105227238Y-86043419D02*
X104751048Y-86043419D01*
X104751048Y-86043419D02*
X104703429Y-86519609D01*
X104703429Y-86519609D02*
X104751048Y-86471990D01*
X104751048Y-86471990D02*
X104846286Y-86424371D01*
X104846286Y-86424371D02*
X105084381Y-86424371D01*
X105084381Y-86424371D02*
X105179619Y-86471990D01*
X105179619Y-86471990D02*
X105227238Y-86519609D01*
X105227238Y-86519609D02*
X105274857Y-86614847D01*
X105274857Y-86614847D02*
X105274857Y-86852942D01*
X105274857Y-86852942D02*
X105227238Y-86948180D01*
X105227238Y-86948180D02*
X105179619Y-86995800D01*
X105179619Y-86995800D02*
X105084381Y-87043419D01*
X105084381Y-87043419D02*
X104846286Y-87043419D01*
X104846286Y-87043419D02*
X104751048Y-86995800D01*
X104751048Y-86995800D02*
X104703429Y-86948180D01*
X106132000Y-86043419D02*
X105941524Y-86043419D01*
X105941524Y-86043419D02*
X105846286Y-86091038D01*
X105846286Y-86091038D02*
X105798667Y-86138657D01*
X105798667Y-86138657D02*
X105703429Y-86281514D01*
X105703429Y-86281514D02*
X105655810Y-86471990D01*
X105655810Y-86471990D02*
X105655810Y-86852942D01*
X105655810Y-86852942D02*
X105703429Y-86948180D01*
X105703429Y-86948180D02*
X105751048Y-86995800D01*
X105751048Y-86995800D02*
X105846286Y-87043419D01*
X105846286Y-87043419D02*
X106036762Y-87043419D01*
X106036762Y-87043419D02*
X106132000Y-86995800D01*
X106132000Y-86995800D02*
X106179619Y-86948180D01*
X106179619Y-86948180D02*
X106227238Y-86852942D01*
X106227238Y-86852942D02*
X106227238Y-86614847D01*
X106227238Y-86614847D02*
X106179619Y-86519609D01*
X106179619Y-86519609D02*
X106132000Y-86471990D01*
X106132000Y-86471990D02*
X106036762Y-86424371D01*
X106036762Y-86424371D02*
X105846286Y-86424371D01*
X105846286Y-86424371D02*
X105751048Y-86471990D01*
X105751048Y-86471990D02*
X105703429Y-86519609D01*
X105703429Y-86519609D02*
X105655810Y-86614847D01*
X106846286Y-86043419D02*
X106941524Y-86043419D01*
X106941524Y-86043419D02*
X107036762Y-86091038D01*
X107036762Y-86091038D02*
X107084381Y-86138657D01*
X107084381Y-86138657D02*
X107132000Y-86233895D01*
X107132000Y-86233895D02*
X107179619Y-86424371D01*
X107179619Y-86424371D02*
X107179619Y-86662466D01*
X107179619Y-86662466D02*
X107132000Y-86852942D01*
X107132000Y-86852942D02*
X107084381Y-86948180D01*
X107084381Y-86948180D02*
X107036762Y-86995800D01*
X107036762Y-86995800D02*
X106941524Y-87043419D01*
X106941524Y-87043419D02*
X106846286Y-87043419D01*
X106846286Y-87043419D02*
X106751048Y-86995800D01*
X106751048Y-86995800D02*
X106703429Y-86948180D01*
X106703429Y-86948180D02*
X106655810Y-86852942D01*
X106655810Y-86852942D02*
X106608191Y-86662466D01*
X106608191Y-86662466D02*
X106608191Y-86424371D01*
X106608191Y-86424371D02*
X106655810Y-86233895D01*
X106655810Y-86233895D02*
X106703429Y-86138657D01*
X106703429Y-86138657D02*
X106751048Y-86091038D01*
X106751048Y-86091038D02*
X106846286Y-86043419D01*
X107512953Y-86043419D02*
X108179619Y-86043419D01*
X108179619Y-86043419D02*
X107751048Y-87043419D01*
X110856733Y-87068819D02*
X110523400Y-86592628D01*
X110285305Y-87068819D02*
X110285305Y-86068819D01*
X110285305Y-86068819D02*
X110666257Y-86068819D01*
X110666257Y-86068819D02*
X110761495Y-86116438D01*
X110761495Y-86116438D02*
X110809114Y-86164057D01*
X110809114Y-86164057D02*
X110856733Y-86259295D01*
X110856733Y-86259295D02*
X110856733Y-86402152D01*
X110856733Y-86402152D02*
X110809114Y-86497390D01*
X110809114Y-86497390D02*
X110761495Y-86545009D01*
X110761495Y-86545009D02*
X110666257Y-86592628D01*
X110666257Y-86592628D02*
X110285305Y-86592628D01*
X111713876Y-86068819D02*
X111523400Y-86068819D01*
X111523400Y-86068819D02*
X111428162Y-86116438D01*
X111428162Y-86116438D02*
X111380543Y-86164057D01*
X111380543Y-86164057D02*
X111285305Y-86306914D01*
X111285305Y-86306914D02*
X111237686Y-86497390D01*
X111237686Y-86497390D02*
X111237686Y-86878342D01*
X111237686Y-86878342D02*
X111285305Y-86973580D01*
X111285305Y-86973580D02*
X111332924Y-87021200D01*
X111332924Y-87021200D02*
X111428162Y-87068819D01*
X111428162Y-87068819D02*
X111618638Y-87068819D01*
X111618638Y-87068819D02*
X111713876Y-87021200D01*
X111713876Y-87021200D02*
X111761495Y-86973580D01*
X111761495Y-86973580D02*
X111809114Y-86878342D01*
X111809114Y-86878342D02*
X111809114Y-86640247D01*
X111809114Y-86640247D02*
X111761495Y-86545009D01*
X111761495Y-86545009D02*
X111713876Y-86497390D01*
X111713876Y-86497390D02*
X111618638Y-86449771D01*
X111618638Y-86449771D02*
X111428162Y-86449771D01*
X111428162Y-86449771D02*
X111332924Y-86497390D01*
X111332924Y-86497390D02*
X111285305Y-86545009D01*
X111285305Y-86545009D02*
X111237686Y-86640247D01*
X143383333Y-66704380D02*
X143335714Y-66752000D01*
X143335714Y-66752000D02*
X143192857Y-66799619D01*
X143192857Y-66799619D02*
X143097619Y-66799619D01*
X143097619Y-66799619D02*
X142954762Y-66752000D01*
X142954762Y-66752000D02*
X142859524Y-66656761D01*
X142859524Y-66656761D02*
X142811905Y-66561523D01*
X142811905Y-66561523D02*
X142764286Y-66371047D01*
X142764286Y-66371047D02*
X142764286Y-66228190D01*
X142764286Y-66228190D02*
X142811905Y-66037714D01*
X142811905Y-66037714D02*
X142859524Y-65942476D01*
X142859524Y-65942476D02*
X142954762Y-65847238D01*
X142954762Y-65847238D02*
X143097619Y-65799619D01*
X143097619Y-65799619D02*
X143192857Y-65799619D01*
X143192857Y-65799619D02*
X143335714Y-65847238D01*
X143335714Y-65847238D02*
X143383333Y-65894857D01*
X144288095Y-65799619D02*
X143811905Y-65799619D01*
X143811905Y-65799619D02*
X143764286Y-66275809D01*
X143764286Y-66275809D02*
X143811905Y-66228190D01*
X143811905Y-66228190D02*
X143907143Y-66180571D01*
X143907143Y-66180571D02*
X144145238Y-66180571D01*
X144145238Y-66180571D02*
X144240476Y-66228190D01*
X144240476Y-66228190D02*
X144288095Y-66275809D01*
X144288095Y-66275809D02*
X144335714Y-66371047D01*
X144335714Y-66371047D02*
X144335714Y-66609142D01*
X144335714Y-66609142D02*
X144288095Y-66704380D01*
X144288095Y-66704380D02*
X144240476Y-66752000D01*
X144240476Y-66752000D02*
X144145238Y-66799619D01*
X144145238Y-66799619D02*
X143907143Y-66799619D01*
X143907143Y-66799619D02*
X143811905Y-66752000D01*
X143811905Y-66752000D02*
X143764286Y-66704380D01*
X147762933Y-87399019D02*
X147429600Y-86922828D01*
X147191505Y-87399019D02*
X147191505Y-86399019D01*
X147191505Y-86399019D02*
X147572457Y-86399019D01*
X147572457Y-86399019D02*
X147667695Y-86446638D01*
X147667695Y-86446638D02*
X147715314Y-86494257D01*
X147715314Y-86494257D02*
X147762933Y-86589495D01*
X147762933Y-86589495D02*
X147762933Y-86732352D01*
X147762933Y-86732352D02*
X147715314Y-86827590D01*
X147715314Y-86827590D02*
X147667695Y-86875209D01*
X147667695Y-86875209D02*
X147572457Y-86922828D01*
X147572457Y-86922828D02*
X147191505Y-86922828D01*
X148096267Y-86399019D02*
X148762933Y-86399019D01*
X148762933Y-86399019D02*
X148334362Y-87399019D01*
D11*
X117830609Y-111844445D02*
X117754419Y-111806350D01*
X117754419Y-111806350D02*
X117678228Y-111730160D01*
X117678228Y-111730160D02*
X117563942Y-111615874D01*
X117563942Y-111615874D02*
X117487752Y-111577779D01*
X117487752Y-111577779D02*
X117411561Y-111577779D01*
X117449657Y-111768255D02*
X117373466Y-111730160D01*
X117373466Y-111730160D02*
X117297276Y-111653969D01*
X117297276Y-111653969D02*
X117259180Y-111501588D01*
X117259180Y-111501588D02*
X117259180Y-111234921D01*
X117259180Y-111234921D02*
X117297276Y-111082540D01*
X117297276Y-111082540D02*
X117373466Y-111006350D01*
X117373466Y-111006350D02*
X117449657Y-110968255D01*
X117449657Y-110968255D02*
X117602038Y-110968255D01*
X117602038Y-110968255D02*
X117678228Y-111006350D01*
X117678228Y-111006350D02*
X117754419Y-111082540D01*
X117754419Y-111082540D02*
X117792514Y-111234921D01*
X117792514Y-111234921D02*
X117792514Y-111501588D01*
X117792514Y-111501588D02*
X117754419Y-111653969D01*
X117754419Y-111653969D02*
X117678228Y-111730160D01*
X117678228Y-111730160D02*
X117602038Y-111768255D01*
X117602038Y-111768255D02*
X117449657Y-111768255D01*
X118059180Y-110968255D02*
X118554418Y-110968255D01*
X118554418Y-110968255D02*
X118287752Y-111273017D01*
X118287752Y-111273017D02*
X118402037Y-111273017D01*
X118402037Y-111273017D02*
X118478228Y-111311112D01*
X118478228Y-111311112D02*
X118516323Y-111349207D01*
X118516323Y-111349207D02*
X118554418Y-111425398D01*
X118554418Y-111425398D02*
X118554418Y-111615874D01*
X118554418Y-111615874D02*
X118516323Y-111692064D01*
X118516323Y-111692064D02*
X118478228Y-111730160D01*
X118478228Y-111730160D02*
X118402037Y-111768255D01*
X118402037Y-111768255D02*
X118173466Y-111768255D01*
X118173466Y-111768255D02*
X118097275Y-111730160D01*
X118097275Y-111730160D02*
X118059180Y-111692064D01*
D10*
X120528200Y-69965219D02*
X121099628Y-69965219D01*
X120813914Y-70965219D02*
X120813914Y-69965219D01*
X121432962Y-70965219D02*
X121432962Y-69965219D01*
X121432962Y-69965219D02*
X121813914Y-69965219D01*
X121813914Y-69965219D02*
X121909152Y-70012838D01*
X121909152Y-70012838D02*
X121956771Y-70060457D01*
X121956771Y-70060457D02*
X122004390Y-70155695D01*
X122004390Y-70155695D02*
X122004390Y-70298552D01*
X122004390Y-70298552D02*
X121956771Y-70393790D01*
X121956771Y-70393790D02*
X121909152Y-70441409D01*
X121909152Y-70441409D02*
X121813914Y-70489028D01*
X121813914Y-70489028D02*
X121432962Y-70489028D01*
X122194867Y-71060457D02*
X122956771Y-71060457D01*
X123671057Y-70965219D02*
X123194867Y-70965219D01*
X123194867Y-70965219D02*
X123194867Y-69965219D01*
X124004391Y-70965219D02*
X124004391Y-69965219D01*
X124004391Y-69965219D02*
X124385343Y-69965219D01*
X124385343Y-69965219D02*
X124480581Y-70012838D01*
X124480581Y-70012838D02*
X124528200Y-70060457D01*
X124528200Y-70060457D02*
X124575819Y-70155695D01*
X124575819Y-70155695D02*
X124575819Y-70298552D01*
X124575819Y-70298552D02*
X124528200Y-70393790D01*
X124528200Y-70393790D02*
X124480581Y-70441409D01*
X124480581Y-70441409D02*
X124385343Y-70489028D01*
X124385343Y-70489028D02*
X124004391Y-70489028D01*
X124956772Y-70917600D02*
X125099629Y-70965219D01*
X125099629Y-70965219D02*
X125337724Y-70965219D01*
X125337724Y-70965219D02*
X125432962Y-70917600D01*
X125432962Y-70917600D02*
X125480581Y-70869980D01*
X125480581Y-70869980D02*
X125528200Y-70774742D01*
X125528200Y-70774742D02*
X125528200Y-70679504D01*
X125528200Y-70679504D02*
X125480581Y-70584266D01*
X125480581Y-70584266D02*
X125432962Y-70536647D01*
X125432962Y-70536647D02*
X125337724Y-70489028D01*
X125337724Y-70489028D02*
X125147248Y-70441409D01*
X125147248Y-70441409D02*
X125052010Y-70393790D01*
X125052010Y-70393790D02*
X125004391Y-70346171D01*
X125004391Y-70346171D02*
X124956772Y-70250933D01*
X124956772Y-70250933D02*
X124956772Y-70155695D01*
X124956772Y-70155695D02*
X125004391Y-70060457D01*
X125004391Y-70060457D02*
X125052010Y-70012838D01*
X125052010Y-70012838D02*
X125147248Y-69965219D01*
X125147248Y-69965219D02*
X125385343Y-69965219D01*
X125385343Y-69965219D02*
X125528200Y-70012838D01*
X125909153Y-70060457D02*
X125956772Y-70012838D01*
X125956772Y-70012838D02*
X126052010Y-69965219D01*
X126052010Y-69965219D02*
X126290105Y-69965219D01*
X126290105Y-69965219D02*
X126385343Y-70012838D01*
X126385343Y-70012838D02*
X126432962Y-70060457D01*
X126432962Y-70060457D02*
X126480581Y-70155695D01*
X126480581Y-70155695D02*
X126480581Y-70250933D01*
X126480581Y-70250933D02*
X126432962Y-70393790D01*
X126432962Y-70393790D02*
X125861534Y-70965219D01*
X125861534Y-70965219D02*
X126480581Y-70965219D01*
X126861534Y-70060457D02*
X126909153Y-70012838D01*
X126909153Y-70012838D02*
X127004391Y-69965219D01*
X127004391Y-69965219D02*
X127242486Y-69965219D01*
X127242486Y-69965219D02*
X127337724Y-70012838D01*
X127337724Y-70012838D02*
X127385343Y-70060457D01*
X127385343Y-70060457D02*
X127432962Y-70155695D01*
X127432962Y-70155695D02*
X127432962Y-70250933D01*
X127432962Y-70250933D02*
X127385343Y-70393790D01*
X127385343Y-70393790D02*
X126813915Y-70965219D01*
X126813915Y-70965219D02*
X127432962Y-70965219D01*
D12*
X157671980Y-76685084D02*
X158671980Y-76685084D01*
X158671980Y-76685084D02*
X158671980Y-76923179D01*
X158671980Y-76923179D02*
X158624361Y-77066036D01*
X158624361Y-77066036D02*
X158529123Y-77161274D01*
X158529123Y-77161274D02*
X158433885Y-77208893D01*
X158433885Y-77208893D02*
X158243409Y-77256512D01*
X158243409Y-77256512D02*
X158100552Y-77256512D01*
X158100552Y-77256512D02*
X157910076Y-77208893D01*
X157910076Y-77208893D02*
X157814838Y-77161274D01*
X157814838Y-77161274D02*
X157719600Y-77066036D01*
X157719600Y-77066036D02*
X157671980Y-76923179D01*
X157671980Y-76923179D02*
X157671980Y-76685084D01*
X157957695Y-77637465D02*
X157957695Y-78113655D01*
X157671980Y-77542227D02*
X158671980Y-77875560D01*
X158671980Y-77875560D02*
X157671980Y-78208893D01*
X158671980Y-78399370D02*
X158671980Y-78970798D01*
X157671980Y-78685084D02*
X158671980Y-78685084D01*
X157957695Y-79256513D02*
X157957695Y-79732703D01*
X157671980Y-79161275D02*
X158671980Y-79494608D01*
X158671980Y-79494608D02*
X157671980Y-79827941D01*
G36*
X140020596Y-110683780D02*
G01*
X140007946Y-110683607D01*
X139995123Y-110683149D01*
X139982506Y-110682492D01*
X139979563Y-110682315D01*
X139966861Y-110681465D01*
X139955133Y-110680893D01*
X139943243Y-110680584D01*
X139938824Y-110680556D01*
X139927055Y-110681159D01*
X139914287Y-110682328D01*
X139901455Y-110683707D01*
X139886296Y-110685479D01*
X139873401Y-110687067D01*
X139859197Y-110688876D01*
X139843684Y-110690907D01*
X139826863Y-110693159D01*
X139842397Y-111170898D01*
X139843276Y-111206362D01*
X139844155Y-111247688D01*
X139844195Y-111269125D01*
X139843510Y-111289179D01*
X139842098Y-111307850D01*
X139839960Y-111325137D01*
X139837097Y-111341042D01*
X139833508Y-111355564D01*
X139829193Y-111368703D01*
X139824152Y-111380458D01*
X139818385Y-111390831D01*
X139808374Y-111403797D01*
X139796729Y-111413651D01*
X139783452Y-111420393D01*
X139768541Y-111424024D01*
X139757693Y-111424715D01*
X139745583Y-111423973D01*
X139732235Y-111421232D01*
X139719729Y-111416472D01*
X139708064Y-111409692D01*
X139700247Y-111403613D01*
X139690769Y-111393875D01*
X139683618Y-111383128D01*
X139678795Y-111371371D01*
X139676301Y-111358605D01*
X139675921Y-111350856D01*
X139676003Y-111338234D01*
X139676198Y-111326062D01*
X139676507Y-111312388D01*
X139676837Y-111300367D01*
X139677240Y-111287384D01*
X139677716Y-111273439D01*
X139678266Y-111258532D01*
X139678884Y-111243626D01*
X139679420Y-111229681D01*
X139679873Y-111216698D01*
X139680244Y-111204677D01*
X139680592Y-111191003D01*
X139680811Y-111178831D01*
X139680903Y-111166209D01*
X139664490Y-110693159D01*
X139652671Y-110692585D01*
X139639743Y-110691850D01*
X139625709Y-110690957D01*
X139610566Y-110689903D01*
X139594316Y-110688690D01*
X139576958Y-110687317D01*
X139564770Y-110686313D01*
X139552091Y-110685238D01*
X139538919Y-110684092D01*
X139525255Y-110682874D01*
X139511098Y-110681586D01*
X139496449Y-110680228D01*
X139481308Y-110678798D01*
X139468213Y-110676375D01*
X139456407Y-110672845D01*
X139442668Y-110666416D01*
X139431219Y-110658017D01*
X139422060Y-110647649D01*
X139415191Y-110635311D01*
X139410611Y-110621005D01*
X139408679Y-110608983D01*
X139408035Y-110595853D01*
X139408818Y-110582358D01*
X139411168Y-110569790D01*
X139415083Y-110558150D01*
X139420565Y-110547438D01*
X139427613Y-110537652D01*
X139430310Y-110534597D01*
X139439096Y-110526329D01*
X139450440Y-110518846D01*
X139462962Y-110513691D01*
X139474633Y-110511125D01*
X139487170Y-110510270D01*
X139660094Y-110524338D01*
X139660001Y-110511125D01*
X139659722Y-110496581D01*
X139659365Y-110483987D01*
X139658888Y-110470541D01*
X139658293Y-110456244D01*
X139657579Y-110441095D01*
X139656965Y-110429174D01*
X139656284Y-110416774D01*
X139655655Y-110404464D01*
X139654913Y-110389077D01*
X139654281Y-110374862D01*
X139653759Y-110361819D01*
X139653347Y-110349949D01*
X139652986Y-110336760D01*
X139652780Y-110323351D01*
X139652767Y-110319467D01*
X139653601Y-110307450D01*
X139656685Y-110294445D01*
X139662040Y-110282533D01*
X139669668Y-110271716D01*
X139676507Y-110264659D01*
X139685890Y-110257289D01*
X139697776Y-110250617D01*
X139710670Y-110246021D01*
X139722527Y-110243733D01*
X139735125Y-110242971D01*
X139748538Y-110243991D01*
X139760858Y-110247051D01*
X139772086Y-110252151D01*
X139782221Y-110259292D01*
X139791265Y-110268473D01*
X139799216Y-110279694D01*
X139806075Y-110292955D01*
X139811842Y-110308257D01*
X139815080Y-110319591D01*
X139817832Y-110331832D01*
X139820099Y-110344980D01*
X139821880Y-110359035D01*
X139822794Y-110372419D01*
X139823398Y-110384783D01*
X139823838Y-110397972D01*
X139824113Y-110411986D01*
X139824216Y-110424293D01*
X139824225Y-110429377D01*
X139822760Y-110475392D01*
X139821880Y-110524338D01*
X139834324Y-110522741D01*
X139846083Y-110521247D01*
X139862438Y-110519199D01*
X139877253Y-110517383D01*
X139890527Y-110515799D01*
X139902261Y-110514447D01*
X139915509Y-110513004D01*
X139928219Y-110511780D01*
X139938824Y-110511149D01*
X139954403Y-110511221D01*
X139968935Y-110511438D01*
X139982423Y-110511798D01*
X139994864Y-110512303D01*
X140009825Y-110513201D01*
X140022927Y-110514355D01*
X140036690Y-110516158D01*
X140049371Y-110518851D01*
X140051078Y-110519356D01*
X140062824Y-110524247D01*
X140073005Y-110530567D01*
X140083528Y-110540476D01*
X140091603Y-110552617D01*
X140096302Y-110563938D01*
X140099434Y-110576687D01*
X140101001Y-110590866D01*
X140101196Y-110598490D01*
X140100393Y-110611985D01*
X140097982Y-110624553D01*
X140093963Y-110636193D01*
X140088337Y-110646906D01*
X140081104Y-110656691D01*
X140078335Y-110659747D01*
X140069429Y-110667914D01*
X140059637Y-110674392D01*
X140047093Y-110679814D01*
X140035381Y-110682630D01*
X140022782Y-110683757D01*
X140020596Y-110683780D01*
G37*
G36*
X140950282Y-111424715D02*
G01*
X140936260Y-111423744D01*
X140923501Y-111420832D01*
X140912006Y-111415977D01*
X140901776Y-111409181D01*
X140892809Y-111400444D01*
X140885106Y-111389764D01*
X140878667Y-111377143D01*
X140873492Y-111362580D01*
X140870001Y-111349446D01*
X140866561Y-111335322D01*
X140863173Y-111320210D01*
X140859836Y-111304108D01*
X140856551Y-111287017D01*
X140854389Y-111275074D01*
X140852251Y-111262691D01*
X140850135Y-111249868D01*
X140848042Y-111236605D01*
X140845972Y-111222903D01*
X140843925Y-111208762D01*
X140841901Y-111194180D01*
X140839900Y-111179160D01*
X140838908Y-111171484D01*
X140837133Y-111156812D01*
X140835473Y-111142473D01*
X140833927Y-111128465D01*
X140832496Y-111114789D01*
X140831180Y-111101446D01*
X140829977Y-111088434D01*
X140828890Y-111075754D01*
X140827917Y-111063407D01*
X140827058Y-111051391D01*
X140825985Y-111033990D01*
X140825169Y-111017336D01*
X140824611Y-111001430D01*
X140824310Y-110986270D01*
X140824253Y-110976578D01*
X140824381Y-110964507D01*
X140824704Y-110951690D01*
X140825137Y-110939030D01*
X140825607Y-110927299D01*
X140826178Y-110914495D01*
X140826305Y-110911805D01*
X140826896Y-110898786D01*
X140827387Y-110886841D01*
X140827843Y-110873923D01*
X140828194Y-110860806D01*
X140828354Y-110848391D01*
X140828356Y-110847032D01*
X140828054Y-110828399D01*
X140827147Y-110810968D01*
X140825636Y-110794739D01*
X140823520Y-110779713D01*
X140820800Y-110765888D01*
X140817475Y-110753266D01*
X140813546Y-110741845D01*
X140806519Y-110726969D01*
X140798131Y-110714797D01*
X140788384Y-110705331D01*
X140777276Y-110698569D01*
X140764808Y-110694511D01*
X140750980Y-110693159D01*
X140737952Y-110693531D01*
X140725101Y-110694647D01*
X140712426Y-110696508D01*
X140699927Y-110699112D01*
X140687605Y-110702461D01*
X140675459Y-110706554D01*
X140663489Y-110711391D01*
X140651695Y-110716973D01*
X140640078Y-110723298D01*
X140628637Y-110730368D01*
X140617373Y-110738182D01*
X140606285Y-110746740D01*
X140595373Y-110756042D01*
X140584637Y-110766088D01*
X140574078Y-110776879D01*
X140563695Y-110788414D01*
X140555508Y-110798317D01*
X140546776Y-110809781D01*
X140537497Y-110822806D01*
X140527672Y-110837392D01*
X140520819Y-110847983D01*
X140513723Y-110859269D01*
X140506384Y-110871248D01*
X140498802Y-110883920D01*
X140490978Y-110897287D01*
X140482911Y-110911347D01*
X140474602Y-110926101D01*
X140466049Y-110941549D01*
X140457254Y-110957691D01*
X140448217Y-110974527D01*
X140448191Y-110994293D01*
X140448114Y-111013549D01*
X140447985Y-111032294D01*
X140447805Y-111050529D01*
X140447573Y-111068253D01*
X140447289Y-111085466D01*
X140446954Y-111102169D01*
X140446568Y-111118361D01*
X140446130Y-111134043D01*
X140445641Y-111149214D01*
X140445100Y-111163874D01*
X140444507Y-111178024D01*
X140443863Y-111191663D01*
X140443168Y-111204791D01*
X140442421Y-111217409D01*
X140441622Y-111229516D01*
X140439870Y-111252199D01*
X140437913Y-111272839D01*
X140435749Y-111291436D01*
X140433379Y-111307992D01*
X140430803Y-111322504D01*
X140428021Y-111334974D01*
X140423461Y-111349850D01*
X140421838Y-111353787D01*
X140415651Y-111366014D01*
X140408668Y-111376612D01*
X140400887Y-111385578D01*
X140390041Y-111394494D01*
X140377949Y-111400863D01*
X140364613Y-111404684D01*
X140350031Y-111405957D01*
X140337680Y-111405154D01*
X140325906Y-111402743D01*
X140314709Y-111398724D01*
X140304089Y-111393098D01*
X140294046Y-111385865D01*
X140290827Y-111383096D01*
X140282161Y-111374073D01*
X140275288Y-111364370D01*
X140269536Y-111352191D01*
X140266224Y-111339086D01*
X140265328Y-111327116D01*
X140266730Y-111314590D01*
X140269449Y-111302551D01*
X140272655Y-111291066D01*
X140275394Y-111278331D01*
X140277092Y-111264632D01*
X140278297Y-111250912D01*
X140279110Y-111239011D01*
X140279846Y-111225729D01*
X140280505Y-111211066D01*
X140281086Y-111195023D01*
X140281590Y-111177599D01*
X140281741Y-111171484D01*
X140284379Y-111050144D01*
X140286723Y-110447255D01*
X140287433Y-110434802D01*
X140288097Y-110422869D01*
X140289007Y-110405944D01*
X140289814Y-110390188D01*
X140290519Y-110375602D01*
X140291120Y-110362186D01*
X140291618Y-110349938D01*
X140292121Y-110335428D01*
X140292442Y-110322997D01*
X140292585Y-110310382D01*
X140292392Y-110297399D01*
X140291812Y-110284645D01*
X140290846Y-110272119D01*
X140289494Y-110259823D01*
X140287755Y-110247756D01*
X140285630Y-110235918D01*
X140284672Y-110231247D01*
X140282392Y-110219536D01*
X140280499Y-110207668D01*
X140278992Y-110195642D01*
X140277871Y-110183459D01*
X140277137Y-110171119D01*
X140276789Y-110158621D01*
X140276758Y-110153578D01*
X140277593Y-110141131D01*
X140280097Y-110129508D01*
X140285128Y-110116989D01*
X140292431Y-110105593D01*
X140300499Y-110096718D01*
X140309892Y-110089048D01*
X140320049Y-110082966D01*
X140330968Y-110078470D01*
X140342649Y-110075560D01*
X140355093Y-110074238D01*
X140359410Y-110074150D01*
X140371610Y-110074760D01*
X140386338Y-110077474D01*
X140399307Y-110082358D01*
X140410518Y-110089413D01*
X140419970Y-110098638D01*
X140427664Y-110110034D01*
X140433599Y-110123601D01*
X140436896Y-110135201D01*
X140438545Y-110143613D01*
X140440849Y-110157877D01*
X140442927Y-110171873D01*
X140444779Y-110185601D01*
X140446403Y-110199062D01*
X140447801Y-110212254D01*
X140448972Y-110225179D01*
X140449917Y-110237836D01*
X140450635Y-110250225D01*
X140451126Y-110262346D01*
X140451390Y-110274199D01*
X140451441Y-110281952D01*
X140451392Y-110297566D01*
X140451245Y-110313303D01*
X140451000Y-110329165D01*
X140450658Y-110345150D01*
X140450217Y-110361258D01*
X140449679Y-110377490D01*
X140449042Y-110393846D01*
X140448308Y-110410326D01*
X140447476Y-110426929D01*
X140446546Y-110443656D01*
X140445872Y-110454876D01*
X140444989Y-110471228D01*
X140444210Y-110487642D01*
X140443533Y-110504118D01*
X140442959Y-110520656D01*
X140442489Y-110537256D01*
X140442121Y-110553918D01*
X140441857Y-110570641D01*
X140441695Y-110587426D01*
X140441637Y-110604273D01*
X140441682Y-110621182D01*
X140441769Y-110632489D01*
X140442648Y-110704883D01*
X140451146Y-110693741D01*
X140459716Y-110682956D01*
X140468356Y-110672528D01*
X140477068Y-110662458D01*
X140485850Y-110652744D01*
X140494704Y-110643388D01*
X140503628Y-110634390D01*
X140512624Y-110625748D01*
X140521690Y-110617464D01*
X140530827Y-110609536D01*
X140540036Y-110601966D01*
X140549315Y-110594754D01*
X140563367Y-110584604D01*
X140577579Y-110575258D01*
X140587142Y-110569474D01*
X140601678Y-110561408D01*
X140616378Y-110554135D01*
X140631243Y-110547656D01*
X140646273Y-110541970D01*
X140661468Y-110537077D01*
X140676828Y-110532978D01*
X140692353Y-110529672D01*
X140708042Y-110527159D01*
X140723897Y-110525440D01*
X140739916Y-110524515D01*
X140750687Y-110524338D01*
X140767461Y-110524685D01*
X140783564Y-110525726D01*
X140798996Y-110527460D01*
X140813757Y-110529889D01*
X140827847Y-110533011D01*
X140841266Y-110536827D01*
X140854014Y-110541337D01*
X140866092Y-110546540D01*
X140877498Y-110552437D01*
X140888234Y-110559028D01*
X140898299Y-110566313D01*
X140907692Y-110574292D01*
X140916415Y-110582965D01*
X140924467Y-110592331D01*
X140931848Y-110602391D01*
X140938559Y-110613145D01*
X140945097Y-110625655D01*
X140951085Y-110639664D01*
X140956521Y-110655172D01*
X140961406Y-110672180D01*
X140964356Y-110684351D01*
X140967062Y-110697189D01*
X140969522Y-110710693D01*
X140971737Y-110724863D01*
X140973708Y-110739700D01*
X140975433Y-110755203D01*
X140976914Y-110771372D01*
X140978149Y-110788208D01*
X140979139Y-110805710D01*
X140979884Y-110823878D01*
X140986626Y-110980975D01*
X141003039Y-111152433D01*
X141004488Y-111164361D01*
X141005979Y-111176110D01*
X141008292Y-111193398D01*
X141010698Y-111210284D01*
X141013197Y-111226769D01*
X141015788Y-111242852D01*
X141018472Y-111258533D01*
X141021249Y-111273812D01*
X141024119Y-111288689D01*
X141027081Y-111303165D01*
X141030137Y-111317238D01*
X141031175Y-111321840D01*
X141033490Y-111334063D01*
X141034400Y-111345581D01*
X141033524Y-111357928D01*
X141030896Y-111369472D01*
X141025617Y-111381924D01*
X141017953Y-111393282D01*
X141009487Y-111402147D01*
X140999904Y-111409817D01*
X140989621Y-111415900D01*
X140978637Y-111420396D01*
X140966952Y-111423305D01*
X140954566Y-111424627D01*
X140950282Y-111424715D01*
G37*
G36*
X141871175Y-110760863D02*
G01*
X141870167Y-110773108D01*
X141867619Y-110789993D01*
X141863830Y-110805102D01*
X141858799Y-110818432D01*
X141852526Y-110829986D01*
X141845012Y-110839762D01*
X141836256Y-110847760D01*
X141826259Y-110853981D01*
X141815020Y-110858425D01*
X141802539Y-110861091D01*
X141788817Y-110861980D01*
X141776141Y-110861271D01*
X141761180Y-110858123D01*
X141748435Y-110852456D01*
X141737906Y-110844270D01*
X141729595Y-110833565D01*
X141723499Y-110820342D01*
X141720382Y-110808771D01*
X141718512Y-110795784D01*
X141717889Y-110781380D01*
X141717631Y-110769124D01*
X141717054Y-110755650D01*
X141716405Y-110743406D01*
X141715570Y-110729327D01*
X141715251Y-110724227D01*
X141712906Y-110655643D01*
X141696841Y-110657750D01*
X141681179Y-110660186D01*
X141665920Y-110662952D01*
X141651064Y-110666048D01*
X141636611Y-110669474D01*
X141622561Y-110673229D01*
X141608914Y-110677314D01*
X141595670Y-110681728D01*
X141582828Y-110686473D01*
X141570390Y-110691547D01*
X141558355Y-110696951D01*
X141546723Y-110702684D01*
X141535494Y-110708748D01*
X141524668Y-110715141D01*
X141514245Y-110721864D01*
X141504225Y-110728916D01*
X141490703Y-110739449D01*
X141477613Y-110750936D01*
X141469127Y-110759123D01*
X141460834Y-110767734D01*
X141452733Y-110776768D01*
X141444824Y-110786226D01*
X141437107Y-110796107D01*
X141429583Y-110806413D01*
X141422251Y-110817141D01*
X141415112Y-110828294D01*
X141408164Y-110839870D01*
X141401409Y-110851869D01*
X141394847Y-110864292D01*
X141388477Y-110877139D01*
X141382299Y-110890410D01*
X141384058Y-111341477D01*
X141383341Y-111356353D01*
X141381193Y-111369765D01*
X141377612Y-111381714D01*
X141370610Y-111395371D01*
X141361062Y-111406426D01*
X141348967Y-111414879D01*
X141334326Y-111420732D01*
X141321675Y-111423415D01*
X141307591Y-111424634D01*
X141302578Y-111424715D01*
X141289588Y-111423989D01*
X141277876Y-111421809D01*
X141264247Y-111416644D01*
X141252890Y-111408895D01*
X141243804Y-111398564D01*
X141236990Y-111385649D01*
X141233370Y-111374269D01*
X141231027Y-111361435D01*
X141229962Y-111347148D01*
X141229891Y-111342063D01*
X141229891Y-110768777D01*
X141229990Y-110755689D01*
X141230230Y-110742418D01*
X141230541Y-110729910D01*
X141230951Y-110716085D01*
X141231352Y-110704078D01*
X141231817Y-110691228D01*
X141231943Y-110687883D01*
X141232424Y-110674822D01*
X141232841Y-110662604D01*
X141233271Y-110648516D01*
X141233602Y-110635745D01*
X141233867Y-110622158D01*
X141233993Y-110608702D01*
X141233995Y-110606990D01*
X141234634Y-110592219D01*
X141236550Y-110578901D01*
X141239744Y-110567036D01*
X141245991Y-110553476D01*
X141254509Y-110542499D01*
X141265298Y-110534105D01*
X141278359Y-110528293D01*
X141293692Y-110525065D01*
X141306681Y-110524338D01*
X141321093Y-110525480D01*
X141334104Y-110528903D01*
X141345713Y-110534609D01*
X141355921Y-110542597D01*
X141364727Y-110552868D01*
X141372132Y-110565420D01*
X141378136Y-110580256D01*
X141382739Y-110597373D01*
X141385028Y-110610053D01*
X141386695Y-110623747D01*
X141387740Y-110638455D01*
X141388161Y-110654178D01*
X141398086Y-110645036D01*
X141408080Y-110636184D01*
X141418140Y-110627622D01*
X141428269Y-110619350D01*
X141438464Y-110611369D01*
X141448728Y-110603678D01*
X141459059Y-110596277D01*
X141469457Y-110589167D01*
X141479923Y-110582346D01*
X141490457Y-110575816D01*
X141501058Y-110569576D01*
X141511726Y-110563626D01*
X141522463Y-110557967D01*
X141533266Y-110552598D01*
X141544138Y-110547519D01*
X141555076Y-110542730D01*
X141566083Y-110538231D01*
X141577157Y-110534023D01*
X141588298Y-110530105D01*
X141599507Y-110526477D01*
X141610784Y-110523139D01*
X141622128Y-110520092D01*
X141633540Y-110517335D01*
X141645019Y-110514868D01*
X141656566Y-110512691D01*
X141668180Y-110510805D01*
X141679862Y-110509208D01*
X141691611Y-110507902D01*
X141703428Y-110506887D01*
X141715313Y-110506161D01*
X141727265Y-110505726D01*
X141739284Y-110505581D01*
X141751515Y-110506016D01*
X141766893Y-110507951D01*
X141781209Y-110511433D01*
X141794462Y-110516464D01*
X141806653Y-110523043D01*
X141817781Y-110531169D01*
X141827847Y-110540843D01*
X141836851Y-110552066D01*
X141838935Y-110555113D01*
X141846698Y-110568210D01*
X141851840Y-110579067D01*
X141856401Y-110590811D01*
X141860379Y-110603440D01*
X141863775Y-110616955D01*
X141866589Y-110631357D01*
X141868820Y-110646645D01*
X141870470Y-110662818D01*
X141871537Y-110679878D01*
X141871925Y-110691744D01*
X141872055Y-110704003D01*
X141872033Y-110716520D01*
X141871951Y-110729764D01*
X141871777Y-110742767D01*
X141871429Y-110755611D01*
X141871175Y-110760863D01*
G37*
G36*
X142709124Y-110900375D02*
G01*
X142709138Y-110915478D01*
X142709166Y-110927972D01*
X142709210Y-110941465D01*
X142709269Y-110955957D01*
X142709344Y-110971449D01*
X142709434Y-110987941D01*
X142709539Y-111005432D01*
X142709618Y-111017648D01*
X142709704Y-111030308D01*
X142709797Y-111043412D01*
X142709897Y-111056961D01*
X142710003Y-111070954D01*
X142710110Y-111084947D01*
X142710209Y-111098495D01*
X142710302Y-111111600D01*
X142710388Y-111124260D01*
X142710467Y-111136476D01*
X142710539Y-111148248D01*
X142710634Y-111165072D01*
X142710714Y-111180897D01*
X142710779Y-111195723D01*
X142710827Y-111209549D01*
X142710861Y-111222376D01*
X142710879Y-111234203D01*
X142710882Y-111241533D01*
X142711140Y-111254144D01*
X142711717Y-111266829D01*
X142712492Y-111279822D01*
X142713358Y-111292366D01*
X142713520Y-111294583D01*
X142714516Y-111307243D01*
X142715418Y-111320398D01*
X142716105Y-111333303D01*
X142716440Y-111345107D01*
X142716451Y-111347339D01*
X142715606Y-111359656D01*
X142713071Y-111371107D01*
X142707978Y-111383373D01*
X142700585Y-111394460D01*
X142692418Y-111403026D01*
X142683134Y-111410397D01*
X142671339Y-111417069D01*
X142658506Y-111421665D01*
X142646680Y-111423953D01*
X142634092Y-111424715D01*
X142618916Y-111423877D01*
X142605186Y-111421363D01*
X142592904Y-111417173D01*
X142582069Y-111411306D01*
X142572681Y-111403764D01*
X142564740Y-111394545D01*
X142558246Y-111383650D01*
X142553199Y-111371079D01*
X142540216Y-111377574D01*
X142526986Y-111383650D01*
X142513508Y-111389307D01*
X142499783Y-111394545D01*
X142485811Y-111399364D01*
X142471592Y-111403764D01*
X142457125Y-111407745D01*
X142442411Y-111411306D01*
X142427449Y-111414449D01*
X142412241Y-111417173D01*
X142396785Y-111419477D01*
X142381081Y-111421363D01*
X142365131Y-111422830D01*
X142348933Y-111423877D01*
X142332488Y-111424506D01*
X142315795Y-111424715D01*
X142302457Y-111424532D01*
X142289408Y-111423982D01*
X142276647Y-111423067D01*
X142264174Y-111421784D01*
X142251991Y-111420136D01*
X142240095Y-111418121D01*
X142228488Y-111415739D01*
X142211619Y-111411480D01*
X142195399Y-111406397D01*
X142179828Y-111400489D01*
X142164906Y-111393757D01*
X142150633Y-111386201D01*
X142137009Y-111377821D01*
X142122893Y-111367731D01*
X142109889Y-111356807D01*
X142097998Y-111345049D01*
X142087221Y-111332456D01*
X142077555Y-111319028D01*
X142069003Y-111304765D01*
X142061564Y-111289668D01*
X142055237Y-111273736D01*
X142050023Y-111256970D01*
X142047165Y-111245329D01*
X142044802Y-111233317D01*
X142043806Y-111227172D01*
X142041841Y-111213845D01*
X142039938Y-111200610D01*
X142038097Y-111187467D01*
X142036319Y-111174415D01*
X142034603Y-111161455D01*
X142032949Y-111148586D01*
X142031358Y-111135809D01*
X142029830Y-111123124D01*
X142028363Y-111110530D01*
X142026959Y-111098028D01*
X142025618Y-111085618D01*
X142024339Y-111073299D01*
X142023122Y-111061071D01*
X142021968Y-111048935D01*
X142020876Y-111036891D01*
X142019846Y-111024939D01*
X142018879Y-111013077D01*
X142017974Y-111001308D01*
X142016352Y-110978044D01*
X142014979Y-110955146D01*
X142013856Y-110932615D01*
X142012983Y-110910450D01*
X142012359Y-110888651D01*
X142011984Y-110867219D01*
X142011859Y-110846153D01*
X142011956Y-110832221D01*
X142012244Y-110818048D01*
X142012725Y-110803635D01*
X142013398Y-110788982D01*
X142014264Y-110774088D01*
X142015322Y-110758953D01*
X142016572Y-110743579D01*
X142018014Y-110727964D01*
X142019649Y-110712108D01*
X142021476Y-110696012D01*
X142023496Y-110679676D01*
X142025708Y-110663099D01*
X142028112Y-110646282D01*
X142030709Y-110629224D01*
X142033498Y-110611926D01*
X142036479Y-110594387D01*
X142039109Y-110581869D01*
X142042713Y-110570582D01*
X142049033Y-110557447D01*
X142057084Y-110546502D01*
X142066866Y-110537746D01*
X142078379Y-110531179D01*
X142091623Y-110526801D01*
X142106598Y-110524612D01*
X142114734Y-110524338D01*
X142127621Y-110525111D01*
X142139684Y-110527430D01*
X142150922Y-110531294D01*
X142161336Y-110536703D01*
X142170926Y-110543658D01*
X142173939Y-110546320D01*
X142182107Y-110555006D01*
X142189500Y-110566260D01*
X142194593Y-110578721D01*
X142197127Y-110590361D01*
X142197972Y-110602887D01*
X142197679Y-110615501D01*
X142196799Y-110630261D01*
X142195672Y-110643615D01*
X142194170Y-110658343D01*
X142192797Y-110670290D01*
X142191213Y-110683011D01*
X142189418Y-110696504D01*
X142187411Y-110710770D01*
X142185956Y-110720710D01*
X142183861Y-110735540D01*
X142181971Y-110749695D01*
X142180288Y-110763175D01*
X142178812Y-110775980D01*
X142177541Y-110788111D01*
X142176167Y-110803235D01*
X142175159Y-110817159D01*
X142174518Y-110829883D01*
X142174232Y-110844101D01*
X142174268Y-110860658D01*
X142174374Y-110876918D01*
X142174551Y-110892880D01*
X142174800Y-110908545D01*
X142175119Y-110923911D01*
X142175510Y-110938980D01*
X142175971Y-110953752D01*
X142176503Y-110968225D01*
X142177107Y-110982401D01*
X142177781Y-110996280D01*
X142178526Y-111009860D01*
X142179343Y-111023143D01*
X142180230Y-111036129D01*
X142181188Y-111048816D01*
X142182218Y-111061206D01*
X142183318Y-111073299D01*
X142184488Y-111085059D01*
X142186372Y-111102150D01*
X142188410Y-111118581D01*
X142190603Y-111134353D01*
X142192951Y-111149466D01*
X142195453Y-111163919D01*
X142198110Y-111177712D01*
X142200921Y-111190847D01*
X142203887Y-111203321D01*
X142207007Y-111215137D01*
X142210282Y-111226292D01*
X142222165Y-111232253D01*
X142233964Y-111237568D01*
X142245679Y-111242239D01*
X142257310Y-111246264D01*
X142263918Y-111248274D01*
X142275416Y-111251243D01*
X142288454Y-111253744D01*
X142301382Y-111255292D01*
X142314201Y-111255887D01*
X142315795Y-111255895D01*
X142329655Y-111255759D01*
X142343611Y-111255354D01*
X142357664Y-111254679D01*
X142371812Y-111253733D01*
X142386057Y-111252517D01*
X142400398Y-111251031D01*
X142414835Y-111249275D01*
X142429368Y-111247248D01*
X142443997Y-111244952D01*
X142458723Y-111242385D01*
X142473545Y-111239548D01*
X142488463Y-111236441D01*
X142503477Y-111233063D01*
X142518587Y-111229416D01*
X142533793Y-111225498D01*
X142549096Y-111221310D01*
X142548510Y-111057472D01*
X142546751Y-110900961D01*
X142546812Y-110879377D01*
X142546994Y-110858151D01*
X142547297Y-110837282D01*
X142547722Y-110816770D01*
X142548268Y-110796616D01*
X142548936Y-110776818D01*
X142549724Y-110757378D01*
X142550635Y-110738295D01*
X142551666Y-110719569D01*
X142552819Y-110701201D01*
X142554093Y-110683189D01*
X142555489Y-110665535D01*
X142557006Y-110648238D01*
X142558644Y-110631298D01*
X142560404Y-110614716D01*
X142562285Y-110598490D01*
X142564532Y-110585239D01*
X142567866Y-110573290D01*
X142574003Y-110559387D01*
X142582072Y-110547801D01*
X142592074Y-110538532D01*
X142604008Y-110531580D01*
X142617875Y-110526945D01*
X142629544Y-110524990D01*
X142642299Y-110524338D01*
X142655186Y-110525121D01*
X142667248Y-110527471D01*
X142678487Y-110531386D01*
X142688901Y-110536868D01*
X142698490Y-110543916D01*
X142701503Y-110546613D01*
X142709620Y-110555248D01*
X142716822Y-110566312D01*
X142721585Y-110578441D01*
X142723907Y-110591637D01*
X142724072Y-110601715D01*
X142709124Y-110900375D01*
G37*
G36*
X143466472Y-110749433D02*
G01*
X143452941Y-110748617D01*
X143440741Y-110746170D01*
X143427857Y-110741079D01*
X143416890Y-110733640D01*
X143407840Y-110723851D01*
X143402871Y-110716020D01*
X143397640Y-110703221D01*
X143394092Y-110691126D01*
X143391367Y-110679677D01*
X143388743Y-110666653D01*
X143386220Y-110652053D01*
X143384394Y-110640069D01*
X143382624Y-110627200D01*
X143381476Y-110618128D01*
X143369293Y-110621275D01*
X143355935Y-110624890D01*
X143341403Y-110628975D01*
X143325697Y-110633529D01*
X143308815Y-110638551D01*
X143296908Y-110642160D01*
X143284479Y-110645977D01*
X143271529Y-110650002D01*
X143258055Y-110654236D01*
X143244060Y-110658678D01*
X143229543Y-110663329D01*
X143214504Y-110668188D01*
X143198943Y-110673255D01*
X143190966Y-110675867D01*
X143174885Y-110682559D01*
X143159834Y-110689445D01*
X143145814Y-110696526D01*
X143132824Y-110703802D01*
X143120865Y-110711272D01*
X143109936Y-110718937D01*
X143100037Y-110726797D01*
X143091169Y-110734851D01*
X143079798Y-110747298D01*
X143070746Y-110760182D01*
X143064012Y-110773504D01*
X143059597Y-110787264D01*
X143057500Y-110801462D01*
X143057316Y-110806292D01*
X143069590Y-110810524D01*
X143081790Y-110814133D01*
X143093916Y-110817118D01*
X143105970Y-110819481D01*
X143117726Y-110821631D01*
X143129293Y-110823831D01*
X143151857Y-110828379D01*
X143173660Y-110833127D01*
X143194703Y-110838074D01*
X143214986Y-110843221D01*
X143234509Y-110848566D01*
X143253271Y-110854111D01*
X143271273Y-110859855D01*
X143288515Y-110865798D01*
X143304997Y-110871940D01*
X143320719Y-110878282D01*
X143335680Y-110884822D01*
X143349881Y-110891562D01*
X143363322Y-110898502D01*
X143376003Y-110905640D01*
X143387924Y-110912978D01*
X143404214Y-110924162D01*
X143419454Y-110935953D01*
X143433642Y-110948351D01*
X143446780Y-110961356D01*
X143458867Y-110974968D01*
X143469902Y-110989186D01*
X143479887Y-111004011D01*
X143488820Y-111019443D01*
X143496703Y-111035482D01*
X143503534Y-111052127D01*
X143509315Y-111069380D01*
X143514044Y-111087239D01*
X143517723Y-111105705D01*
X143520351Y-111124777D01*
X143521927Y-111144457D01*
X143522453Y-111164743D01*
X143521998Y-111181338D01*
X143520634Y-111197418D01*
X143518362Y-111212983D01*
X143515180Y-111228033D01*
X143511090Y-111242567D01*
X143506090Y-111256586D01*
X143500181Y-111270090D01*
X143493363Y-111283079D01*
X143485636Y-111295552D01*
X143477000Y-111307511D01*
X143467456Y-111318954D01*
X143457002Y-111329882D01*
X143445639Y-111340295D01*
X143433366Y-111350192D01*
X143420185Y-111359574D01*
X143406095Y-111368442D01*
X143393843Y-111375256D01*
X143381192Y-111381631D01*
X143368142Y-111387566D01*
X143354694Y-111393061D01*
X143340848Y-111398117D01*
X143326603Y-111402733D01*
X143311960Y-111406910D01*
X143296919Y-111410647D01*
X143281479Y-111413944D01*
X143265640Y-111416802D01*
X143249404Y-111419220D01*
X143232768Y-111421198D01*
X143215735Y-111422737D01*
X143198303Y-111423836D01*
X143180472Y-111424495D01*
X143162243Y-111424715D01*
X143148763Y-111424576D01*
X143135361Y-111424156D01*
X143122037Y-111423458D01*
X143108791Y-111422480D01*
X143095622Y-111421223D01*
X143082531Y-111419687D01*
X143069519Y-111417871D01*
X143056584Y-111415776D01*
X143043727Y-111413401D01*
X143030947Y-111410748D01*
X143018246Y-111407814D01*
X143005622Y-111404602D01*
X142993077Y-111401110D01*
X142980609Y-111397339D01*
X142968219Y-111393288D01*
X142955907Y-111388958D01*
X142940539Y-111383139D01*
X142926163Y-111377037D01*
X142912778Y-111370655D01*
X142900384Y-111363990D01*
X142888982Y-111357044D01*
X142878572Y-111349817D01*
X142869153Y-111342307D01*
X142856883Y-111330515D01*
X142846845Y-111318089D01*
X142839037Y-111305030D01*
X142833460Y-111291337D01*
X142830114Y-111277010D01*
X142828998Y-111262049D01*
X142829905Y-111250138D01*
X142833255Y-111236971D01*
X142839073Y-111224589D01*
X142846025Y-111214601D01*
X142854790Y-111205190D01*
X142864820Y-111196922D01*
X142875343Y-111190366D01*
X142886362Y-111185519D01*
X142897875Y-111182384D01*
X142909882Y-111180958D01*
X142913995Y-111180863D01*
X142925866Y-111182616D01*
X142937180Y-111186910D01*
X142949544Y-111193779D01*
X142960651Y-111201471D01*
X142970062Y-111208913D01*
X142979940Y-111217500D01*
X142990902Y-111224913D01*
X143001634Y-111229864D01*
X143014784Y-111234530D01*
X143027046Y-111238056D01*
X143040856Y-111241399D01*
X143056213Y-111244559D01*
X143068747Y-111246809D01*
X143082321Y-111248938D01*
X143095345Y-111250784D01*
X143107820Y-111252345D01*
X143119745Y-111253623D01*
X143133879Y-111254821D01*
X143147154Y-111255575D01*
X143159570Y-111255886D01*
X143161950Y-111255895D01*
X143174775Y-111255750D01*
X143187312Y-111255318D01*
X143199560Y-111254596D01*
X143211519Y-111253586D01*
X143223190Y-111252288D01*
X143238303Y-111250108D01*
X143252902Y-111247416D01*
X143266989Y-111244210D01*
X143280563Y-111240491D01*
X143283876Y-111239481D01*
X143297599Y-111234730D01*
X143309973Y-111229490D01*
X143320996Y-111223760D01*
X143333595Y-111215359D01*
X143343793Y-111206088D01*
X143351592Y-111195946D01*
X143356992Y-111184935D01*
X143359991Y-111173053D01*
X143360666Y-111163571D01*
X143360055Y-111149823D01*
X143358221Y-111136643D01*
X143355164Y-111124031D01*
X143350884Y-111111987D01*
X143345382Y-111100510D01*
X143338657Y-111089602D01*
X143330709Y-111079261D01*
X143321538Y-111069488D01*
X143311145Y-111060284D01*
X143299529Y-111051646D01*
X143286690Y-111043577D01*
X143272629Y-111036076D01*
X143257344Y-111029143D01*
X143240837Y-111022777D01*
X143223108Y-111016979D01*
X143204155Y-111011749D01*
X143118279Y-110993285D01*
X143104826Y-110990359D01*
X143091869Y-110987372D01*
X143079409Y-110984324D01*
X143067446Y-110981213D01*
X143055980Y-110978040D01*
X143039713Y-110973166D01*
X143024563Y-110968152D01*
X143010532Y-110962999D01*
X142997619Y-110957707D01*
X142985823Y-110952276D01*
X142975146Y-110946706D01*
X142962648Y-110939063D01*
X142950706Y-110930255D01*
X142939938Y-110920649D01*
X142930345Y-110910245D01*
X142921927Y-110899042D01*
X142914683Y-110887040D01*
X142908614Y-110874240D01*
X142903719Y-110860642D01*
X142900000Y-110846244D01*
X142897455Y-110831049D01*
X142896084Y-110815054D01*
X142895823Y-110803948D01*
X142896457Y-110783475D01*
X142898360Y-110763748D01*
X142901532Y-110744768D01*
X142905971Y-110726535D01*
X142911680Y-110709048D01*
X142918657Y-110692307D01*
X142926902Y-110676313D01*
X142936416Y-110661066D01*
X142947199Y-110646564D01*
X142959250Y-110632810D01*
X142972570Y-110619801D01*
X142987158Y-110607540D01*
X143003014Y-110596024D01*
X143020140Y-110585256D01*
X143038533Y-110575233D01*
X143058196Y-110565957D01*
X143071504Y-110560407D01*
X143082699Y-110556076D01*
X143094935Y-110551600D01*
X143108212Y-110546981D01*
X143122529Y-110542217D01*
X143137887Y-110537309D01*
X143154286Y-110532256D01*
X143165797Y-110528808D01*
X143177770Y-110525295D01*
X143190206Y-110521719D01*
X143203104Y-110518078D01*
X143216465Y-110514373D01*
X143229851Y-110510672D01*
X143242752Y-110507041D01*
X143255167Y-110503482D01*
X143267097Y-110499993D01*
X143278541Y-110496576D01*
X143294797Y-110491583D01*
X143309961Y-110486749D01*
X143324033Y-110482076D01*
X143337013Y-110477562D01*
X143348900Y-110473207D01*
X143363051Y-110467650D01*
X143372390Y-110463668D01*
X143385235Y-110458788D01*
X143398493Y-110454917D01*
X143412163Y-110452056D01*
X143423870Y-110450443D01*
X143435862Y-110449531D01*
X143445663Y-110449307D01*
X143458508Y-110450100D01*
X143470447Y-110452481D01*
X143481479Y-110456448D01*
X143493204Y-110463081D01*
X143503695Y-110471875D01*
X143511464Y-110480822D01*
X143518496Y-110492485D01*
X143522783Y-110503531D01*
X143525462Y-110515545D01*
X143526533Y-110528528D01*
X143526556Y-110530786D01*
X143527197Y-110543866D01*
X143528810Y-110557534D01*
X143530974Y-110570902D01*
X143533328Y-110583206D01*
X143536183Y-110596570D01*
X143536814Y-110599370D01*
X143539769Y-110612945D01*
X143542224Y-110625462D01*
X143544508Y-110639084D01*
X143546070Y-110651181D01*
X143546982Y-110663366D01*
X143547072Y-110667953D01*
X143546269Y-110681098D01*
X143543857Y-110693274D01*
X143539839Y-110704481D01*
X143533119Y-110716332D01*
X143525618Y-110725441D01*
X143524211Y-110726865D01*
X143515305Y-110734534D01*
X143503795Y-110741476D01*
X143491078Y-110746259D01*
X143479218Y-110748639D01*
X143466472Y-110749433D01*
G37*
G36*
X144278628Y-110683780D02*
G01*
X144265978Y-110683607D01*
X144253155Y-110683149D01*
X144240538Y-110682492D01*
X144237596Y-110682315D01*
X144224893Y-110681465D01*
X144213165Y-110680893D01*
X144201275Y-110680584D01*
X144196856Y-110680556D01*
X144185087Y-110681159D01*
X144172319Y-110682328D01*
X144159487Y-110683707D01*
X144144328Y-110685479D01*
X144131433Y-110687067D01*
X144117229Y-110688876D01*
X144101716Y-110690907D01*
X144084895Y-110693159D01*
X144100429Y-111170898D01*
X144101308Y-111206362D01*
X144102187Y-111247688D01*
X144102227Y-111269125D01*
X144101542Y-111289179D01*
X144100130Y-111307850D01*
X144097992Y-111325137D01*
X144095129Y-111341042D01*
X144091540Y-111355564D01*
X144087225Y-111368703D01*
X144082184Y-111380458D01*
X144076417Y-111390831D01*
X144066406Y-111403797D01*
X144054762Y-111413651D01*
X144041484Y-111420393D01*
X144026573Y-111424024D01*
X144015725Y-111424715D01*
X144003615Y-111423973D01*
X143990267Y-111421232D01*
X143977761Y-111416472D01*
X143966096Y-111409692D01*
X143958279Y-111403613D01*
X143948801Y-111393875D01*
X143941650Y-111383128D01*
X143936827Y-111371371D01*
X143934333Y-111358605D01*
X143933953Y-111350856D01*
X143934035Y-111338234D01*
X143934230Y-111326062D01*
X143934539Y-111312388D01*
X143934869Y-111300367D01*
X143935272Y-111287384D01*
X143935748Y-111273439D01*
X143936298Y-111258532D01*
X143936916Y-111243626D01*
X143937452Y-111229681D01*
X143937905Y-111216698D01*
X143938276Y-111204677D01*
X143938624Y-111191003D01*
X143938843Y-111178831D01*
X143938935Y-111166209D01*
X143922522Y-110693159D01*
X143910703Y-110692585D01*
X143897776Y-110691850D01*
X143883741Y-110690957D01*
X143868598Y-110689903D01*
X143852348Y-110688690D01*
X143834990Y-110687317D01*
X143822803Y-110686313D01*
X143810123Y-110685238D01*
X143796951Y-110684092D01*
X143783287Y-110682874D01*
X143769130Y-110681586D01*
X143754481Y-110680228D01*
X143739340Y-110678798D01*
X143726246Y-110676375D01*
X143714439Y-110672845D01*
X143700700Y-110666416D01*
X143689251Y-110658017D01*
X143680092Y-110647649D01*
X143673223Y-110635311D01*
X143668643Y-110621005D01*
X143666711Y-110608983D01*
X143666067Y-110595853D01*
X143666850Y-110582358D01*
X143669200Y-110569790D01*
X143673115Y-110558150D01*
X143678597Y-110547438D01*
X143685645Y-110537652D01*
X143688342Y-110534597D01*
X143697128Y-110526329D01*
X143708472Y-110518846D01*
X143720994Y-110513691D01*
X143732665Y-110511125D01*
X143745202Y-110510270D01*
X143918126Y-110524338D01*
X143918033Y-110511125D01*
X143917754Y-110496581D01*
X143917397Y-110483987D01*
X143916920Y-110470541D01*
X143916325Y-110456244D01*
X143915611Y-110441095D01*
X143914997Y-110429174D01*
X143914316Y-110416774D01*
X143913687Y-110404464D01*
X143912945Y-110389077D01*
X143912313Y-110374862D01*
X143911791Y-110361819D01*
X143911379Y-110349949D01*
X143911018Y-110336760D01*
X143910812Y-110323351D01*
X143910799Y-110319467D01*
X143911633Y-110307450D01*
X143914717Y-110294445D01*
X143920072Y-110282533D01*
X143927700Y-110271716D01*
X143934539Y-110264659D01*
X143943923Y-110257289D01*
X143955808Y-110250617D01*
X143968703Y-110246021D01*
X143980559Y-110243733D01*
X143993157Y-110242971D01*
X144006570Y-110243991D01*
X144018890Y-110247051D01*
X144030118Y-110252151D01*
X144040253Y-110259292D01*
X144049297Y-110268473D01*
X144057248Y-110279694D01*
X144064107Y-110292955D01*
X144069874Y-110308257D01*
X144073112Y-110319591D01*
X144075864Y-110331832D01*
X144078131Y-110344980D01*
X144079912Y-110359035D01*
X144080826Y-110372419D01*
X144081431Y-110384783D01*
X144081870Y-110397972D01*
X144082145Y-110411986D01*
X144082248Y-110424293D01*
X144082257Y-110429377D01*
X144080792Y-110475392D01*
X144079912Y-110524338D01*
X144092356Y-110522741D01*
X144104115Y-110521247D01*
X144120470Y-110519199D01*
X144135285Y-110517383D01*
X144148559Y-110515799D01*
X144160293Y-110514447D01*
X144173541Y-110513004D01*
X144186251Y-110511780D01*
X144196856Y-110511149D01*
X144212435Y-110511221D01*
X144226968Y-110511438D01*
X144240455Y-110511798D01*
X144252896Y-110512303D01*
X144267857Y-110513201D01*
X144280959Y-110514355D01*
X144294722Y-110516158D01*
X144307403Y-110518851D01*
X144309110Y-110519356D01*
X144320856Y-110524247D01*
X144331037Y-110530567D01*
X144341560Y-110540476D01*
X144349636Y-110552617D01*
X144354334Y-110563938D01*
X144357467Y-110576687D01*
X144359033Y-110590866D01*
X144359229Y-110598490D01*
X144358425Y-110611985D01*
X144356014Y-110624553D01*
X144351995Y-110636193D01*
X144346369Y-110646906D01*
X144339136Y-110656691D01*
X144336367Y-110659747D01*
X144327461Y-110667914D01*
X144317669Y-110674392D01*
X144305125Y-110679814D01*
X144293413Y-110682630D01*
X144280814Y-110683757D01*
X144278628Y-110683780D01*
G37*
G36*
X145743206Y-111462231D02*
G01*
X145729671Y-111461150D01*
X145716908Y-111457909D01*
X145704918Y-111452507D01*
X145693701Y-111444943D01*
X145683257Y-111435219D01*
X145675458Y-111425883D01*
X145669933Y-111417974D01*
X145663788Y-111407734D01*
X145657807Y-111395919D01*
X145651991Y-111382528D01*
X145647737Y-111371452D01*
X145643576Y-111359489D01*
X145639507Y-111346640D01*
X145635532Y-111332904D01*
X145631649Y-111318283D01*
X145627859Y-111302775D01*
X145625383Y-111291945D01*
X145595781Y-111145399D01*
X145591378Y-111127080D01*
X145586668Y-111106194D01*
X145581651Y-111082740D01*
X145579027Y-111070051D01*
X145576327Y-111056721D01*
X145573550Y-111042748D01*
X145570697Y-111028134D01*
X145567766Y-111012878D01*
X145564759Y-110996980D01*
X145561676Y-110980441D01*
X145558515Y-110963260D01*
X145555278Y-110945437D01*
X145551964Y-110926973D01*
X145548573Y-110907867D01*
X145545106Y-110888119D01*
X145541562Y-110867729D01*
X145537941Y-110846698D01*
X145534244Y-110825025D01*
X145530470Y-110802710D01*
X145526619Y-110779754D01*
X145522692Y-110756155D01*
X145518687Y-110731915D01*
X145514606Y-110707034D01*
X145510449Y-110681511D01*
X145506214Y-110655346D01*
X145501903Y-110628539D01*
X145497515Y-110601091D01*
X145493051Y-110573000D01*
X145488510Y-110544269D01*
X145323792Y-111057765D01*
X145275139Y-111219551D01*
X145271429Y-111231432D01*
X145267697Y-111243040D01*
X145263946Y-111254375D01*
X145258279Y-111270868D01*
X145252567Y-111286747D01*
X145246808Y-111302013D01*
X145241002Y-111316666D01*
X145235150Y-111330706D01*
X145229252Y-111344133D01*
X145223308Y-111356947D01*
X145217317Y-111369148D01*
X145213297Y-111376941D01*
X145204275Y-111388138D01*
X145194502Y-111397842D01*
X145183979Y-111406054D01*
X145172704Y-111412772D01*
X145160678Y-111417997D01*
X145147901Y-111421729D01*
X145134373Y-111423969D01*
X145120094Y-111424715D01*
X145108320Y-111424129D01*
X145094491Y-111421748D01*
X145081650Y-111417534D01*
X145069796Y-111411489D01*
X145058929Y-111403613D01*
X145049050Y-111393904D01*
X145043597Y-111387200D01*
X145037997Y-111375546D01*
X145032555Y-111362934D01*
X145027269Y-111349362D01*
X145023155Y-111337815D01*
X145019141Y-111325654D01*
X145015228Y-111312879D01*
X145011415Y-111299491D01*
X145010478Y-111296048D01*
X144986737Y-111201673D01*
X144981554Y-111182837D01*
X144976409Y-111163918D01*
X144971303Y-111144916D01*
X144966235Y-111125831D01*
X144961205Y-111106663D01*
X144956213Y-111087412D01*
X144951260Y-111068078D01*
X144946346Y-111048661D01*
X144941469Y-111029161D01*
X144936631Y-111009578D01*
X144931832Y-110989912D01*
X144927070Y-110970162D01*
X144922347Y-110950330D01*
X144917663Y-110930415D01*
X144913016Y-110910417D01*
X144908409Y-110890336D01*
X144903839Y-110870172D01*
X144899308Y-110849925D01*
X144894815Y-110829595D01*
X144890361Y-110809182D01*
X144885944Y-110788686D01*
X144881567Y-110768107D01*
X144877227Y-110747445D01*
X144872926Y-110726700D01*
X144868663Y-110705872D01*
X144864439Y-110684960D01*
X144860253Y-110663966D01*
X144856105Y-110642889D01*
X144851996Y-110621729D01*
X144847925Y-110600486D01*
X144843893Y-110579160D01*
X144839898Y-110557751D01*
X144810296Y-110708986D01*
X144703904Y-111154778D01*
X144702395Y-111170218D01*
X144700397Y-111186971D01*
X144698793Y-111198870D01*
X144696972Y-111211353D01*
X144694933Y-111224419D01*
X144692676Y-111238070D01*
X144690202Y-111252304D01*
X144687510Y-111267122D01*
X144684601Y-111282525D01*
X144681475Y-111298511D01*
X144678130Y-111315081D01*
X144674569Y-111332235D01*
X144670789Y-111349972D01*
X144666792Y-111368294D01*
X144662578Y-111387200D01*
X144655919Y-111400389D01*
X144648253Y-111411819D01*
X144639580Y-111421491D01*
X144629898Y-111429405D01*
X144619210Y-111435560D01*
X144607514Y-111439956D01*
X144594810Y-111442594D01*
X144581099Y-111443473D01*
X144568860Y-111442772D01*
X144555231Y-111440079D01*
X144542756Y-111435367D01*
X144531436Y-111428635D01*
X144521269Y-111419883D01*
X144516619Y-111414750D01*
X144509646Y-111405116D01*
X144504116Y-111394678D01*
X144500029Y-111383436D01*
X144497384Y-111371391D01*
X144496182Y-111358542D01*
X144496102Y-111354080D01*
X144496324Y-111336764D01*
X144496991Y-111318960D01*
X144498101Y-111300668D01*
X144499656Y-111281888D01*
X144501655Y-111262621D01*
X144504098Y-111242866D01*
X144506986Y-111222623D01*
X144510317Y-111201892D01*
X144514093Y-111180674D01*
X144518313Y-111158968D01*
X144522977Y-111136775D01*
X144528086Y-111114093D01*
X144530807Y-111102570D01*
X144533639Y-111090924D01*
X144536581Y-111079157D01*
X144539635Y-111067267D01*
X144542800Y-111055256D01*
X144546077Y-111043123D01*
X144549464Y-111030868D01*
X144552962Y-111018490D01*
X144643820Y-110675280D01*
X144691594Y-110407102D01*
X144693869Y-110395469D01*
X144698442Y-110372965D01*
X144703045Y-110351477D01*
X144707677Y-110331007D01*
X144712339Y-110311553D01*
X144717030Y-110293116D01*
X144721752Y-110275695D01*
X144726503Y-110259291D01*
X144731284Y-110243904D01*
X144736095Y-110229533D01*
X144740936Y-110216179D01*
X144745806Y-110203842D01*
X144750706Y-110192521D01*
X144758112Y-110177446D01*
X144765585Y-110164659D01*
X144768091Y-110160905D01*
X144776609Y-110149365D01*
X144785603Y-110139363D01*
X144795074Y-110130900D01*
X144805021Y-110123975D01*
X144815444Y-110118590D01*
X144829142Y-110114022D01*
X144843585Y-110111858D01*
X144849570Y-110111666D01*
X144862554Y-110112650D01*
X144874685Y-110115604D01*
X144885964Y-110120527D01*
X144896392Y-110127419D01*
X144905968Y-110136281D01*
X144914692Y-110147111D01*
X144922564Y-110159911D01*
X144927909Y-110170803D01*
X144929584Y-110174680D01*
X144935671Y-110190297D01*
X144939774Y-110202245D01*
X144943914Y-110215423D01*
X144948090Y-110229830D01*
X144952304Y-110245467D01*
X144956553Y-110262333D01*
X144960840Y-110280429D01*
X144965163Y-110299755D01*
X144969523Y-110320310D01*
X144973919Y-110342095D01*
X144978352Y-110365110D01*
X144980582Y-110377078D01*
X144982822Y-110389354D01*
X144985070Y-110401937D01*
X144987328Y-110414828D01*
X144989595Y-110428026D01*
X144991871Y-110441531D01*
X144994156Y-110455344D01*
X144996450Y-110469464D01*
X144998754Y-110483892D01*
X145001549Y-110501431D01*
X145004438Y-110519060D01*
X145007422Y-110536780D01*
X145010501Y-110554591D01*
X145013673Y-110572492D01*
X145016941Y-110590483D01*
X145020302Y-110608565D01*
X145023758Y-110626737D01*
X145027309Y-110645000D01*
X145030954Y-110663353D01*
X145034693Y-110681797D01*
X145038527Y-110700331D01*
X145042456Y-110718955D01*
X145046479Y-110737670D01*
X145050596Y-110756475D01*
X145054808Y-110775371D01*
X145059114Y-110794357D01*
X145063515Y-110813434D01*
X145068010Y-110832601D01*
X145072599Y-110851859D01*
X145077283Y-110871207D01*
X145082062Y-110890645D01*
X145086935Y-110910174D01*
X145091902Y-110929794D01*
X145096964Y-110949504D01*
X145102120Y-110969304D01*
X145107371Y-110989195D01*
X145112716Y-111009176D01*
X145118156Y-111029247D01*
X145123690Y-111049409D01*
X145129318Y-111069662D01*
X145135042Y-111090005D01*
X145142630Y-111069480D01*
X145150154Y-111048903D01*
X145157614Y-111028274D01*
X145165010Y-111007591D01*
X145172342Y-110986856D01*
X145179610Y-110966068D01*
X145186813Y-110945228D01*
X145193953Y-110924335D01*
X145201028Y-110903389D01*
X145208040Y-110882391D01*
X145214987Y-110861340D01*
X145221870Y-110840236D01*
X145228689Y-110819080D01*
X145235444Y-110797871D01*
X145242134Y-110776609D01*
X145248761Y-110755294D01*
X145255323Y-110733927D01*
X145261822Y-110712508D01*
X145268256Y-110691035D01*
X145274626Y-110669510D01*
X145280932Y-110647933D01*
X145287174Y-110626302D01*
X145293352Y-110604619D01*
X145299466Y-110582883D01*
X145305515Y-110561095D01*
X145311501Y-110539254D01*
X145317422Y-110517360D01*
X145323279Y-110495414D01*
X145329073Y-110473415D01*
X145334802Y-110451363D01*
X145340467Y-110429259D01*
X145346067Y-110407102D01*
X145370687Y-110282831D01*
X145373517Y-110269018D01*
X145376512Y-110255714D01*
X145379672Y-110242921D01*
X145382997Y-110230638D01*
X145386486Y-110218865D01*
X145390141Y-110207602D01*
X145395270Y-110193377D01*
X145400692Y-110180060D01*
X145406408Y-110167650D01*
X145409375Y-110161784D01*
X145417806Y-110150038D01*
X145426979Y-110139857D01*
X145436894Y-110131243D01*
X145447550Y-110124195D01*
X145458949Y-110118714D01*
X145471089Y-110114798D01*
X145483971Y-110112449D01*
X145497596Y-110111666D01*
X145510598Y-110112797D01*
X145523009Y-110116189D01*
X145534827Y-110121843D01*
X145546052Y-110129759D01*
X145556685Y-110139937D01*
X145566725Y-110152377D01*
X145576173Y-110167078D01*
X145582142Y-110178135D01*
X145587849Y-110190198D01*
X145593291Y-110203266D01*
X145598471Y-110217339D01*
X145603387Y-110232417D01*
X145605746Y-110240333D01*
X145609135Y-110254117D01*
X145611797Y-110266583D01*
X145614562Y-110280873D01*
X145617430Y-110296987D01*
X145619399Y-110308743D01*
X145621414Y-110321309D01*
X145623475Y-110334686D01*
X145625582Y-110348873D01*
X145627734Y-110363871D01*
X145629932Y-110379680D01*
X145632176Y-110396299D01*
X145634466Y-110413729D01*
X145636801Y-110431969D01*
X145637986Y-110441393D01*
X145641050Y-110465335D01*
X145644161Y-110489057D01*
X145647318Y-110512560D01*
X145650521Y-110535842D01*
X145653770Y-110558905D01*
X145657066Y-110581748D01*
X145660408Y-110604371D01*
X145663797Y-110626774D01*
X145667232Y-110648957D01*
X145670713Y-110670921D01*
X145674241Y-110692664D01*
X145677815Y-110714188D01*
X145681435Y-110735492D01*
X145685102Y-110756577D01*
X145688815Y-110777441D01*
X145692575Y-110798086D01*
X145696381Y-110818511D01*
X145700233Y-110838716D01*
X145704131Y-110858701D01*
X145708076Y-110878466D01*
X145712068Y-110898012D01*
X145716106Y-110917337D01*
X145720190Y-110936443D01*
X145724320Y-110955329D01*
X145728497Y-110973996D01*
X145732720Y-110992442D01*
X145736990Y-111010669D01*
X145741306Y-111028675D01*
X145745668Y-111046462D01*
X145750077Y-111064030D01*
X145754532Y-111081377D01*
X145759033Y-111098504D01*
X145799480Y-111245050D01*
X145803242Y-111258531D01*
X145806761Y-111271351D01*
X145810038Y-111283508D01*
X145813072Y-111295004D01*
X145817168Y-111311007D01*
X145820717Y-111325521D01*
X145823721Y-111338546D01*
X145826179Y-111350082D01*
X145828606Y-111363148D01*
X145830274Y-111375757D01*
X145830547Y-111381338D01*
X145829599Y-111393806D01*
X145826756Y-111405490D01*
X145822016Y-111416392D01*
X145815380Y-111426510D01*
X145806848Y-111435846D01*
X145803583Y-111438784D01*
X145793334Y-111446752D01*
X145782590Y-111453072D01*
X145771352Y-111457743D01*
X145759619Y-111460765D01*
X145747392Y-111462139D01*
X145743206Y-111462231D01*
G37*
G36*
X146675530Y-110346139D02*
G01*
X146661920Y-110345969D01*
X146647466Y-110345461D01*
X146632171Y-110344614D01*
X146620146Y-110343756D01*
X146607647Y-110342708D01*
X146594675Y-110341469D01*
X146581228Y-110340039D01*
X146567307Y-110338419D01*
X146552912Y-110336608D01*
X146543053Y-110335294D01*
X146410282Y-110318002D01*
X146409110Y-110333240D01*
X146407975Y-110348435D01*
X146406878Y-110363589D01*
X146405817Y-110378699D01*
X146404794Y-110393768D01*
X146403808Y-110408794D01*
X146402859Y-110423778D01*
X146401947Y-110438719D01*
X146401073Y-110453618D01*
X146400236Y-110468475D01*
X146399436Y-110483289D01*
X146398673Y-110498061D01*
X146397948Y-110512790D01*
X146397259Y-110527478D01*
X146396608Y-110542122D01*
X146395994Y-110556725D01*
X146395417Y-110571285D01*
X146394878Y-110585803D01*
X146394375Y-110600278D01*
X146393910Y-110614711D01*
X146393482Y-110629102D01*
X146393092Y-110643450D01*
X146392738Y-110657756D01*
X146392422Y-110672020D01*
X146392143Y-110686241D01*
X146391901Y-110700420D01*
X146391696Y-110714556D01*
X146391529Y-110728651D01*
X146391399Y-110742702D01*
X146391306Y-110756712D01*
X146391250Y-110770679D01*
X146391231Y-110784604D01*
X146391282Y-110799693D01*
X146391386Y-110811581D01*
X146391546Y-110823959D01*
X146391763Y-110836826D01*
X146392037Y-110850183D01*
X146392368Y-110864029D01*
X146392755Y-110878364D01*
X146393199Y-110893189D01*
X146393700Y-110908503D01*
X146394257Y-110924307D01*
X146394455Y-110929684D01*
X146395031Y-110945651D01*
X146395551Y-110961128D01*
X146396014Y-110976116D01*
X146396420Y-110990615D01*
X146396769Y-111004624D01*
X146397062Y-111018144D01*
X146397298Y-111031174D01*
X146397478Y-111043715D01*
X146397601Y-111055766D01*
X146397676Y-111071073D01*
X146397679Y-111074764D01*
X146397630Y-111089473D01*
X146397484Y-111103924D01*
X146397239Y-111118118D01*
X146396896Y-111132054D01*
X146396456Y-111145733D01*
X146395917Y-111159154D01*
X146395281Y-111172317D01*
X146394547Y-111185223D01*
X146393715Y-111197871D01*
X146392785Y-111210262D01*
X146392111Y-111218379D01*
X146651790Y-111215155D01*
X146664367Y-111216031D01*
X146676162Y-111218658D01*
X146687174Y-111223037D01*
X146697402Y-111229168D01*
X146706847Y-111237051D01*
X146709822Y-111240068D01*
X146717790Y-111249702D01*
X146724110Y-111260140D01*
X146728781Y-111271381D01*
X146731804Y-111283427D01*
X146733177Y-111296276D01*
X146733269Y-111300738D01*
X146732445Y-111314164D01*
X146729972Y-111326745D01*
X146725850Y-111338481D01*
X146720080Y-111349372D01*
X146712661Y-111359419D01*
X146709822Y-111362580D01*
X146700637Y-111370947D01*
X146690670Y-111377582D01*
X146679919Y-111382487D01*
X146668386Y-111385661D01*
X146656069Y-111387103D01*
X146651790Y-111387200D01*
X146639493Y-111387200D01*
X146625759Y-111387200D01*
X146610587Y-111387200D01*
X146598265Y-111387200D01*
X146585133Y-111387200D01*
X146571193Y-111387200D01*
X146556443Y-111387200D01*
X146540885Y-111387200D01*
X146524518Y-111387200D01*
X146513157Y-111387200D01*
X146496254Y-111387200D01*
X146480164Y-111387200D01*
X146464888Y-111387200D01*
X146450427Y-111387200D01*
X146436779Y-111387200D01*
X146423945Y-111387200D01*
X146411926Y-111387200D01*
X146397166Y-111387200D01*
X146383853Y-111387200D01*
X146374818Y-111387200D01*
X146360347Y-111387346D01*
X146348387Y-111387648D01*
X146335480Y-111388115D01*
X146321624Y-111388747D01*
X146306821Y-111389544D01*
X146291070Y-111390506D01*
X146274370Y-111391633D01*
X146256723Y-111392924D01*
X146244431Y-111393876D01*
X146231719Y-111394902D01*
X146218584Y-111396001D01*
X146211859Y-111396578D01*
X146198547Y-111397714D01*
X146185646Y-111398777D01*
X146173158Y-111399766D01*
X146161081Y-111400682D01*
X146143740Y-111401918D01*
X146127325Y-111402990D01*
X146111838Y-111403897D01*
X146097279Y-111404638D01*
X146083647Y-111405215D01*
X146070942Y-111405628D01*
X146059164Y-111405875D01*
X146048314Y-111405957D01*
X146035737Y-111405102D01*
X146023942Y-111402536D01*
X146012930Y-111398260D01*
X146002702Y-111392274D01*
X145993257Y-111384577D01*
X145990282Y-111381631D01*
X145982314Y-111372007D01*
X145975994Y-111361600D01*
X145971323Y-111350410D01*
X145968300Y-111338436D01*
X145966927Y-111325680D01*
X145966835Y-111321254D01*
X145967659Y-111308226D01*
X145970132Y-111295961D01*
X145974254Y-111284458D01*
X145980024Y-111273718D01*
X145987443Y-111263740D01*
X145990282Y-111260584D01*
X145999477Y-111252118D01*
X146009475Y-111245403D01*
X146020277Y-111240440D01*
X146031883Y-111237228D01*
X146044292Y-111235769D01*
X146048607Y-111235671D01*
X146063042Y-111235401D01*
X146075311Y-111234844D01*
X146088816Y-111233983D01*
X146103558Y-111232817D01*
X146119536Y-111231348D01*
X146136750Y-111229575D01*
X146148913Y-111228224D01*
X146161626Y-111226738D01*
X146174889Y-111225117D01*
X146188701Y-111223361D01*
X146203062Y-111221469D01*
X146217973Y-111219443D01*
X146225635Y-111218379D01*
X146227101Y-111205739D01*
X146228424Y-111192770D01*
X146229602Y-111179471D01*
X146230636Y-111165842D01*
X146231525Y-111151884D01*
X146232270Y-111137596D01*
X146232872Y-111122978D01*
X146233328Y-111108030D01*
X146233641Y-111092753D01*
X146233809Y-111077145D01*
X146233841Y-111066557D01*
X146233759Y-111052027D01*
X146233512Y-111036717D01*
X146233218Y-111024724D01*
X146232831Y-111012293D01*
X146232352Y-110999424D01*
X146231780Y-110986118D01*
X146231116Y-110972373D01*
X146230358Y-110958190D01*
X146229508Y-110943570D01*
X146228566Y-110928511D01*
X146227623Y-110913458D01*
X146226773Y-110898853D01*
X146226015Y-110884696D01*
X146225351Y-110870988D01*
X146224779Y-110857727D01*
X146224300Y-110844915D01*
X146223913Y-110832551D01*
X146223620Y-110820635D01*
X146223372Y-110805445D01*
X146223290Y-110791052D01*
X146223312Y-110779126D01*
X146223379Y-110767016D01*
X146223491Y-110754721D01*
X146223647Y-110742243D01*
X146223848Y-110729580D01*
X146224094Y-110716732D01*
X146224384Y-110703701D01*
X146224719Y-110690485D01*
X146225098Y-110677084D01*
X146225522Y-110663500D01*
X146225991Y-110649731D01*
X146226505Y-110635777D01*
X146227063Y-110621640D01*
X146227666Y-110607318D01*
X146228313Y-110592811D01*
X146229005Y-110578121D01*
X146229742Y-110563246D01*
X146230523Y-110548186D01*
X146231349Y-110532943D01*
X146232220Y-110517515D01*
X146233135Y-110501903D01*
X146234095Y-110486106D01*
X146235100Y-110470125D01*
X146236149Y-110453960D01*
X146237243Y-110437610D01*
X146238382Y-110421076D01*
X146239565Y-110404358D01*
X146240793Y-110387456D01*
X146242066Y-110370369D01*
X146243383Y-110353097D01*
X146244745Y-110335642D01*
X146246151Y-110318002D01*
X146139173Y-110321519D01*
X146031901Y-110323864D01*
X146019004Y-110323029D01*
X146006911Y-110320525D01*
X145995621Y-110316352D01*
X145985135Y-110310510D01*
X145975453Y-110302998D01*
X145972404Y-110300123D01*
X145964336Y-110290668D01*
X145957937Y-110280326D01*
X145953207Y-110269098D01*
X145950147Y-110256984D01*
X145948756Y-110243984D01*
X145948663Y-110239454D01*
X145949343Y-110225768D01*
X145951384Y-110213288D01*
X145954784Y-110202014D01*
X145961433Y-110188857D01*
X145970501Y-110177843D01*
X145981986Y-110168972D01*
X145995890Y-110162245D01*
X146007904Y-110158606D01*
X146021279Y-110156173D01*
X146026039Y-110155629D01*
X146039589Y-110154477D01*
X146055179Y-110153438D01*
X146072809Y-110152512D01*
X146085696Y-110151958D01*
X146099490Y-110151455D01*
X146114190Y-110151001D01*
X146129797Y-110150598D01*
X146146311Y-110150246D01*
X146163732Y-110149943D01*
X146182059Y-110149691D01*
X146201293Y-110149490D01*
X146221434Y-110149339D01*
X146242482Y-110149238D01*
X146264436Y-110149188D01*
X146275753Y-110149181D01*
X146296595Y-110149314D01*
X146318087Y-110149713D01*
X146340229Y-110150377D01*
X146363021Y-110151306D01*
X146386464Y-110152502D01*
X146398429Y-110153199D01*
X146410557Y-110153962D01*
X146422847Y-110154792D01*
X146435300Y-110155689D01*
X146447916Y-110156652D01*
X146460694Y-110157681D01*
X146473635Y-110158777D01*
X146486738Y-110159939D01*
X146500004Y-110161167D01*
X146513432Y-110162462D01*
X146527023Y-110163823D01*
X146540777Y-110165251D01*
X146554693Y-110166745D01*
X146568771Y-110168306D01*
X146583013Y-110169932D01*
X146597417Y-110171626D01*
X146611983Y-110173385D01*
X146626712Y-110175212D01*
X146641604Y-110177104D01*
X146656658Y-110179063D01*
X146671874Y-110181088D01*
X146687254Y-110183180D01*
X146700348Y-110185665D01*
X146712155Y-110189273D01*
X146725894Y-110195831D01*
X146737343Y-110204386D01*
X146746502Y-110214937D01*
X146753371Y-110227485D01*
X146757951Y-110242030D01*
X146759883Y-110254248D01*
X146760527Y-110267590D01*
X146759537Y-110280934D01*
X146756570Y-110293268D01*
X146751624Y-110304592D01*
X146744700Y-110314906D01*
X146735797Y-110324211D01*
X146732390Y-110327088D01*
X146721254Y-110334511D01*
X146709389Y-110340111D01*
X146696795Y-110343888D01*
X146683471Y-110345841D01*
X146675530Y-110346139D01*
G37*
G36*
X147927617Y-110354932D02*
G01*
X147915604Y-110354844D01*
X147902427Y-110354581D01*
X147888085Y-110354143D01*
X147872579Y-110353530D01*
X147855909Y-110352742D01*
X147844149Y-110352119D01*
X147831871Y-110351418D01*
X147819076Y-110350640D01*
X147805763Y-110349784D01*
X147791933Y-110348849D01*
X147777585Y-110347837D01*
X147762720Y-110346747D01*
X147747337Y-110345580D01*
X147739452Y-110344966D01*
X147724224Y-110343870D01*
X147709460Y-110342851D01*
X147695162Y-110341910D01*
X147681328Y-110341046D01*
X147667959Y-110340261D01*
X147655055Y-110339553D01*
X147642616Y-110338924D01*
X147630642Y-110338372D01*
X147613552Y-110337690D01*
X147597507Y-110337183D01*
X147582509Y-110336852D01*
X147568557Y-110336696D01*
X147555650Y-110336715D01*
X147551580Y-110336760D01*
X147492962Y-110336760D01*
X147493324Y-110351337D01*
X147493823Y-110367003D01*
X147494459Y-110383760D01*
X147495233Y-110401606D01*
X147496145Y-110420543D01*
X147497193Y-110440569D01*
X147498380Y-110461685D01*
X147499703Y-110483892D01*
X147501164Y-110507188D01*
X147501946Y-110519245D01*
X147502762Y-110531574D01*
X147503613Y-110544176D01*
X147504498Y-110557050D01*
X147505417Y-110570197D01*
X147506371Y-110583616D01*
X147507359Y-110597308D01*
X147508381Y-110611272D01*
X147509438Y-110625509D01*
X147510529Y-110640018D01*
X147511655Y-110654800D01*
X147512814Y-110669854D01*
X147514008Y-110685180D01*
X147515237Y-110700779D01*
X147516355Y-110715350D01*
X147517437Y-110729715D01*
X147518484Y-110743876D01*
X147519496Y-110757831D01*
X147520472Y-110771582D01*
X147521412Y-110785128D01*
X147522317Y-110798469D01*
X147523187Y-110811605D01*
X147524021Y-110824536D01*
X147524820Y-110837262D01*
X147525583Y-110849783D01*
X147526310Y-110862099D01*
X147527002Y-110874210D01*
X147527659Y-110886116D01*
X147528866Y-110909314D01*
X147529930Y-110931692D01*
X147530853Y-110953250D01*
X147531634Y-110973989D01*
X147532273Y-110993907D01*
X147532770Y-111013006D01*
X147533125Y-111031286D01*
X147533338Y-111048745D01*
X147533409Y-111065385D01*
X147533689Y-111079226D01*
X147534376Y-111093322D01*
X147535263Y-111106642D01*
X147536437Y-111121394D01*
X147537582Y-111134226D01*
X147538910Y-111147974D01*
X147539270Y-111151554D01*
X147540644Y-111165545D01*
X147541835Y-111178647D01*
X147542842Y-111190860D01*
X147543844Y-111204878D01*
X147544560Y-111217508D01*
X147545041Y-111230831D01*
X147545132Y-111238602D01*
X147544848Y-111252139D01*
X147543996Y-111265200D01*
X147542577Y-111277785D01*
X147540589Y-111289893D01*
X147538034Y-111301525D01*
X147534041Y-111315396D01*
X147529161Y-111328522D01*
X147526961Y-111333564D01*
X147520774Y-111346135D01*
X147513790Y-111357029D01*
X147506009Y-111366248D01*
X147495163Y-111375414D01*
X147483071Y-111381962D01*
X147469735Y-111385890D01*
X147455153Y-111387200D01*
X147443070Y-111386396D01*
X147431440Y-111383985D01*
X147420264Y-111379966D01*
X147409541Y-111374340D01*
X147399271Y-111367107D01*
X147395949Y-111364338D01*
X147386984Y-111355312D01*
X147379874Y-111345379D01*
X147374619Y-111334539D01*
X147371219Y-111322793D01*
X147369674Y-111310139D01*
X147369570Y-111305720D01*
X147370248Y-111293735D01*
X147371690Y-111281817D01*
X147373674Y-111269084D01*
X147375657Y-111256232D01*
X147377100Y-111244291D01*
X147377777Y-111232447D01*
X147377648Y-111218933D01*
X147377360Y-111206731D01*
X147376906Y-111193292D01*
X147376288Y-111178617D01*
X147375716Y-111166799D01*
X147375052Y-111154286D01*
X147374294Y-111141077D01*
X147373444Y-111127173D01*
X147372501Y-111112573D01*
X147371559Y-111097965D01*
X147370708Y-111084038D01*
X147369951Y-111070790D01*
X147369287Y-111058223D01*
X147368715Y-111046335D01*
X147368096Y-111031543D01*
X147367643Y-111017960D01*
X147367355Y-111005586D01*
X147367226Y-110991819D01*
X147367151Y-110976905D01*
X147366928Y-110961251D01*
X147366556Y-110944857D01*
X147366035Y-110927724D01*
X147365365Y-110909851D01*
X147364547Y-110891238D01*
X147363579Y-110871886D01*
X147362463Y-110851795D01*
X147361198Y-110830964D01*
X147359784Y-110809393D01*
X147358221Y-110787082D01*
X147356510Y-110764032D01*
X147355598Y-110752230D01*
X147354649Y-110740243D01*
X147353663Y-110728070D01*
X147352640Y-110715713D01*
X147351579Y-110703171D01*
X147350482Y-110690444D01*
X147349347Y-110677533D01*
X147348175Y-110664436D01*
X147346946Y-110650292D01*
X147345752Y-110636400D01*
X147344592Y-110622760D01*
X147343467Y-110609372D01*
X147342376Y-110596235D01*
X147341319Y-110583350D01*
X147340297Y-110570718D01*
X147339309Y-110558337D01*
X147338355Y-110546208D01*
X147337436Y-110534331D01*
X147335700Y-110511332D01*
X147334102Y-110489341D01*
X147332641Y-110468358D01*
X147331317Y-110448382D01*
X147330131Y-110429413D01*
X147329083Y-110411452D01*
X147328171Y-110394499D01*
X147327397Y-110378553D01*
X147326761Y-110363614D01*
X147326262Y-110349683D01*
X147325900Y-110336760D01*
X147250868Y-110337639D01*
X147228603Y-110337538D01*
X147206941Y-110337236D01*
X147185885Y-110336732D01*
X147165432Y-110336027D01*
X147145585Y-110335120D01*
X147126341Y-110334012D01*
X147107702Y-110332702D01*
X147089668Y-110331191D01*
X147072238Y-110329478D01*
X147055413Y-110327564D01*
X147039192Y-110325448D01*
X147023576Y-110323131D01*
X147008564Y-110320612D01*
X146994157Y-110317892D01*
X146980354Y-110314970D01*
X146967156Y-110311847D01*
X146955214Y-110308255D01*
X146941118Y-110302208D01*
X146929110Y-110294723D01*
X146919191Y-110285799D01*
X146911360Y-110275438D01*
X146905617Y-110263639D01*
X146901963Y-110250402D01*
X146900396Y-110235727D01*
X146900331Y-110231833D01*
X146901083Y-110219692D01*
X146903340Y-110208106D01*
X146907874Y-110195294D01*
X146913390Y-110184914D01*
X146920410Y-110175091D01*
X146921727Y-110173508D01*
X146931553Y-110163929D01*
X146942349Y-110156513D01*
X146954112Y-110151262D01*
X146966845Y-110148174D01*
X146980545Y-110147250D01*
X146985328Y-110147423D01*
X146998716Y-110148484D01*
X147010550Y-110149638D01*
X147024709Y-110151149D01*
X147036856Y-110152517D01*
X147050311Y-110154086D01*
X147065075Y-110155856D01*
X147081148Y-110157826D01*
X147098529Y-110159998D01*
X147110843Y-110161557D01*
X147117219Y-110162370D01*
X147132385Y-110164099D01*
X147147001Y-110165657D01*
X147161065Y-110167046D01*
X147174578Y-110168264D01*
X147187539Y-110169313D01*
X147199950Y-110170191D01*
X147211809Y-110170900D01*
X147226763Y-110171580D01*
X147240738Y-110171957D01*
X147250575Y-110172042D01*
X147263755Y-110172010D01*
X147278529Y-110171914D01*
X147290655Y-110171800D01*
X147303678Y-110171650D01*
X147317597Y-110171463D01*
X147332412Y-110171241D01*
X147348124Y-110170983D01*
X147364732Y-110170688D01*
X147382237Y-110170357D01*
X147394405Y-110170117D01*
X147400638Y-110169991D01*
X147413040Y-110169742D01*
X147425038Y-110169510D01*
X147442280Y-110169191D01*
X147458615Y-110168909D01*
X147474044Y-110168662D01*
X147488566Y-110168452D01*
X147502181Y-110168278D01*
X147514889Y-110168140D01*
X147526690Y-110168037D01*
X147541015Y-110167957D01*
X147550701Y-110167939D01*
X147563165Y-110168019D01*
X147576705Y-110168259D01*
X147591322Y-110168658D01*
X147607016Y-110169217D01*
X147623786Y-110169936D01*
X147635565Y-110170503D01*
X147647822Y-110171142D01*
X147660558Y-110171852D01*
X147673772Y-110172633D01*
X147687465Y-110173485D01*
X147701636Y-110174408D01*
X147716286Y-110175401D01*
X147731415Y-110176466D01*
X147739159Y-110177025D01*
X147754527Y-110178125D01*
X147769416Y-110179155D01*
X147783827Y-110180113D01*
X147797759Y-110181000D01*
X147811212Y-110181816D01*
X147824187Y-110182562D01*
X147836684Y-110183236D01*
X147848702Y-110183839D01*
X147865831Y-110184611D01*
X147881884Y-110185224D01*
X147896860Y-110185676D01*
X147910759Y-110185969D01*
X147923582Y-110186102D01*
X147927617Y-110186111D01*
X147940503Y-110186966D01*
X147952566Y-110189532D01*
X147963804Y-110193808D01*
X147974218Y-110199795D01*
X147983808Y-110207492D01*
X147986821Y-110210437D01*
X147994989Y-110219972D01*
X148001466Y-110230331D01*
X148006254Y-110241514D01*
X148009352Y-110253522D01*
X148010761Y-110266354D01*
X148010854Y-110270814D01*
X148010010Y-110283722D01*
X148007475Y-110295846D01*
X148003250Y-110307187D01*
X147997336Y-110317746D01*
X147989731Y-110327521D01*
X147986821Y-110330605D01*
X147977506Y-110338872D01*
X147967367Y-110345429D01*
X147956404Y-110350275D01*
X147944616Y-110353411D01*
X147932004Y-110354837D01*
X147927617Y-110354932D01*
G37*
X127380084Y-46964019D02*
X127380084Y-45964019D01*
X127380084Y-45964019D02*
X127761036Y-45964019D01*
X127761036Y-45964019D02*
X127856274Y-46011638D01*
X127856274Y-46011638D02*
X127903893Y-46059257D01*
X127903893Y-46059257D02*
X127951512Y-46154495D01*
X127951512Y-46154495D02*
X127951512Y-46297352D01*
X127951512Y-46297352D02*
X127903893Y-46392590D01*
X127903893Y-46392590D02*
X127856274Y-46440209D01*
X127856274Y-46440209D02*
X127761036Y-46487828D01*
X127761036Y-46487828D02*
X127380084Y-46487828D01*
X128570560Y-45964019D02*
X128761036Y-45964019D01*
X128761036Y-45964019D02*
X128856274Y-46011638D01*
X128856274Y-46011638D02*
X128951512Y-46106876D01*
X128951512Y-46106876D02*
X128999131Y-46297352D01*
X128999131Y-46297352D02*
X128999131Y-46630685D01*
X128999131Y-46630685D02*
X128951512Y-46821161D01*
X128951512Y-46821161D02*
X128856274Y-46916400D01*
X128856274Y-46916400D02*
X128761036Y-46964019D01*
X128761036Y-46964019D02*
X128570560Y-46964019D01*
X128570560Y-46964019D02*
X128475322Y-46916400D01*
X128475322Y-46916400D02*
X128380084Y-46821161D01*
X128380084Y-46821161D02*
X128332465Y-46630685D01*
X128332465Y-46630685D02*
X128332465Y-46297352D01*
X128332465Y-46297352D02*
X128380084Y-46106876D01*
X128380084Y-46106876D02*
X128475322Y-46011638D01*
X128475322Y-46011638D02*
X128570560Y-45964019D01*
X129332465Y-45964019D02*
X129570560Y-46964019D01*
X129570560Y-46964019D02*
X129761036Y-46249733D01*
X129761036Y-46249733D02*
X129951512Y-46964019D01*
X129951512Y-46964019D02*
X130189608Y-45964019D01*
X130570560Y-46440209D02*
X130903893Y-46440209D01*
X131046750Y-46964019D02*
X130570560Y-46964019D01*
X130570560Y-46964019D02*
X130570560Y-45964019D01*
X130570560Y-45964019D02*
X131046750Y-45964019D01*
X132046750Y-46964019D02*
X131713417Y-46487828D01*
X131475322Y-46964019D02*
X131475322Y-45964019D01*
X131475322Y-45964019D02*
X131856274Y-45964019D01*
X131856274Y-45964019D02*
X131951512Y-46011638D01*
X131951512Y-46011638D02*
X131999131Y-46059257D01*
X131999131Y-46059257D02*
X132046750Y-46154495D01*
X132046750Y-46154495D02*
X132046750Y-46297352D01*
X132046750Y-46297352D02*
X131999131Y-46392590D01*
X131999131Y-46392590D02*
X131951512Y-46440209D01*
X131951512Y-46440209D02*
X131856274Y-46487828D01*
X131856274Y-46487828D02*
X131475322Y-46487828D01*
X93316819Y-79727315D02*
X92316819Y-79727315D01*
X92316819Y-79727315D02*
X92316819Y-79489220D01*
X92316819Y-79489220D02*
X92364438Y-79346363D01*
X92364438Y-79346363D02*
X92459676Y-79251125D01*
X92459676Y-79251125D02*
X92554914Y-79203506D01*
X92554914Y-79203506D02*
X92745390Y-79155887D01*
X92745390Y-79155887D02*
X92888247Y-79155887D01*
X92888247Y-79155887D02*
X93078723Y-79203506D01*
X93078723Y-79203506D02*
X93173961Y-79251125D01*
X93173961Y-79251125D02*
X93269200Y-79346363D01*
X93269200Y-79346363D02*
X93316819Y-79489220D01*
X93316819Y-79489220D02*
X93316819Y-79727315D01*
X93031104Y-78774934D02*
X93031104Y-78298744D01*
X93316819Y-78870172D02*
X92316819Y-78536839D01*
X92316819Y-78536839D02*
X93316819Y-78203506D01*
X92316819Y-78013029D02*
X92316819Y-77441601D01*
X93316819Y-77727315D02*
X92316819Y-77727315D01*
X93031104Y-77155886D02*
X93031104Y-76679696D01*
X93316819Y-77251124D02*
X92316819Y-76917791D01*
X92316819Y-76917791D02*
X93316819Y-76584458D01*
D10*
X133855152Y-82131819D02*
X134426580Y-82131819D01*
X134140866Y-83131819D02*
X134140866Y-82131819D01*
X134759914Y-83131819D02*
X134759914Y-82131819D01*
X134759914Y-82131819D02*
X135140866Y-82131819D01*
X135140866Y-82131819D02*
X135236104Y-82179438D01*
X135236104Y-82179438D02*
X135283723Y-82227057D01*
X135283723Y-82227057D02*
X135331342Y-82322295D01*
X135331342Y-82322295D02*
X135331342Y-82465152D01*
X135331342Y-82465152D02*
X135283723Y-82560390D01*
X135283723Y-82560390D02*
X135236104Y-82608009D01*
X135236104Y-82608009D02*
X135140866Y-82655628D01*
X135140866Y-82655628D02*
X134759914Y-82655628D01*
X135521819Y-83227057D02*
X136283723Y-83227057D01*
X136998009Y-83131819D02*
X136521819Y-83131819D01*
X136521819Y-83131819D02*
X136521819Y-82131819D01*
X137283724Y-83084200D02*
X137426581Y-83131819D01*
X137426581Y-83131819D02*
X137664676Y-83131819D01*
X137664676Y-83131819D02*
X137759914Y-83084200D01*
X137759914Y-83084200D02*
X137807533Y-83036580D01*
X137807533Y-83036580D02*
X137855152Y-82941342D01*
X137855152Y-82941342D02*
X137855152Y-82846104D01*
X137855152Y-82846104D02*
X137807533Y-82750866D01*
X137807533Y-82750866D02*
X137759914Y-82703247D01*
X137759914Y-82703247D02*
X137664676Y-82655628D01*
X137664676Y-82655628D02*
X137474200Y-82608009D01*
X137474200Y-82608009D02*
X137378962Y-82560390D01*
X137378962Y-82560390D02*
X137331343Y-82512771D01*
X137331343Y-82512771D02*
X137283724Y-82417533D01*
X137283724Y-82417533D02*
X137283724Y-82322295D01*
X137283724Y-82322295D02*
X137331343Y-82227057D01*
X137331343Y-82227057D02*
X137378962Y-82179438D01*
X137378962Y-82179438D02*
X137474200Y-82131819D01*
X137474200Y-82131819D02*
X137712295Y-82131819D01*
X137712295Y-82131819D02*
X137855152Y-82179438D01*
X138283724Y-83131819D02*
X138283724Y-82131819D01*
X138283724Y-82131819D02*
X138617057Y-82846104D01*
X138617057Y-82846104D02*
X138950390Y-82131819D01*
X138950390Y-82131819D02*
X138950390Y-83131819D01*
X143809780Y-57839676D02*
X143809780Y-58357771D01*
X143809780Y-58357771D02*
X143840257Y-58418723D01*
X143840257Y-58418723D02*
X143870733Y-58449200D01*
X143870733Y-58449200D02*
X143931685Y-58479676D01*
X143931685Y-58479676D02*
X144053590Y-58479676D01*
X144053590Y-58479676D02*
X144114542Y-58449200D01*
X144114542Y-58449200D02*
X144145019Y-58418723D01*
X144145019Y-58418723D02*
X144175495Y-58357771D01*
X144175495Y-58357771D02*
X144175495Y-57839676D01*
X144754542Y-58053009D02*
X144754542Y-58479676D01*
X144602161Y-57809200D02*
X144449780Y-58266342D01*
X144449780Y-58266342D02*
X144845971Y-58266342D01*
X140818161Y-59490619D02*
X141122923Y-59490619D01*
X140757209Y-59673476D02*
X140970542Y-59033476D01*
X140970542Y-59033476D02*
X141183876Y-59673476D01*
X141397208Y-59673476D02*
X141397208Y-59033476D01*
X141397208Y-59033476D02*
X141549589Y-59033476D01*
X141549589Y-59033476D02*
X141641018Y-59063952D01*
X141641018Y-59063952D02*
X141701970Y-59124904D01*
X141701970Y-59124904D02*
X141732447Y-59185857D01*
X141732447Y-59185857D02*
X141762923Y-59307761D01*
X141762923Y-59307761D02*
X141762923Y-59399190D01*
X141762923Y-59399190D02*
X141732447Y-59521095D01*
X141732447Y-59521095D02*
X141701970Y-59582047D01*
X141701970Y-59582047D02*
X141641018Y-59643000D01*
X141641018Y-59643000D02*
X141549589Y-59673476D01*
X141549589Y-59673476D02*
X141397208Y-59673476D01*
X141976256Y-59033476D02*
X142402923Y-59673476D01*
X142402923Y-59033476D02*
X141976256Y-59673476D01*
X142951494Y-59673476D02*
X142646732Y-59673476D01*
X142646732Y-59673476D02*
X142646732Y-59033476D01*
X143103875Y-59033476D02*
X143500066Y-59033476D01*
X143500066Y-59033476D02*
X143286732Y-59277285D01*
X143286732Y-59277285D02*
X143378161Y-59277285D01*
X143378161Y-59277285D02*
X143439113Y-59307761D01*
X143439113Y-59307761D02*
X143469589Y-59338238D01*
X143469589Y-59338238D02*
X143500066Y-59399190D01*
X143500066Y-59399190D02*
X143500066Y-59551571D01*
X143500066Y-59551571D02*
X143469589Y-59612523D01*
X143469589Y-59612523D02*
X143439113Y-59643000D01*
X143439113Y-59643000D02*
X143378161Y-59673476D01*
X143378161Y-59673476D02*
X143195304Y-59673476D01*
X143195304Y-59673476D02*
X143134351Y-59643000D01*
X143134351Y-59643000D02*
X143103875Y-59612523D01*
X143713399Y-59033476D02*
X144140066Y-59033476D01*
X144140066Y-59033476D02*
X143865780Y-59673476D01*
X144688637Y-59033476D02*
X144383875Y-59033476D01*
X144383875Y-59033476D02*
X144353399Y-59338238D01*
X144353399Y-59338238D02*
X144383875Y-59307761D01*
X144383875Y-59307761D02*
X144444828Y-59277285D01*
X144444828Y-59277285D02*
X144597209Y-59277285D01*
X144597209Y-59277285D02*
X144658161Y-59307761D01*
X144658161Y-59307761D02*
X144688637Y-59338238D01*
X144688637Y-59338238D02*
X144719114Y-59399190D01*
X144719114Y-59399190D02*
X144719114Y-59551571D01*
X144719114Y-59551571D02*
X144688637Y-59612523D01*
X144688637Y-59612523D02*
X144658161Y-59643000D01*
X144658161Y-59643000D02*
X144597209Y-59673476D01*
X144597209Y-59673476D02*
X144444828Y-59673476D01*
X144444828Y-59673476D02*
X144383875Y-59643000D01*
X144383875Y-59643000D02*
X144353399Y-59612523D01*
X145206733Y-59338238D02*
X145298161Y-59368714D01*
X145298161Y-59368714D02*
X145328638Y-59399190D01*
X145328638Y-59399190D02*
X145359114Y-59460142D01*
X145359114Y-59460142D02*
X145359114Y-59551571D01*
X145359114Y-59551571D02*
X145328638Y-59612523D01*
X145328638Y-59612523D02*
X145298161Y-59643000D01*
X145298161Y-59643000D02*
X145237209Y-59673476D01*
X145237209Y-59673476D02*
X144993399Y-59673476D01*
X144993399Y-59673476D02*
X144993399Y-59033476D01*
X144993399Y-59033476D02*
X145206733Y-59033476D01*
X145206733Y-59033476D02*
X145267685Y-59063952D01*
X145267685Y-59063952D02*
X145298161Y-59094428D01*
X145298161Y-59094428D02*
X145328638Y-59155380D01*
X145328638Y-59155380D02*
X145328638Y-59216333D01*
X145328638Y-59216333D02*
X145298161Y-59277285D01*
X145298161Y-59277285D02*
X145267685Y-59307761D01*
X145267685Y-59307761D02*
X145206733Y-59338238D01*
X145206733Y-59338238D02*
X144993399Y-59338238D01*
X145999114Y-59612523D02*
X145968638Y-59643000D01*
X145968638Y-59643000D02*
X145877209Y-59673476D01*
X145877209Y-59673476D02*
X145816257Y-59673476D01*
X145816257Y-59673476D02*
X145724828Y-59643000D01*
X145724828Y-59643000D02*
X145663876Y-59582047D01*
X145663876Y-59582047D02*
X145633399Y-59521095D01*
X145633399Y-59521095D02*
X145602923Y-59399190D01*
X145602923Y-59399190D02*
X145602923Y-59307761D01*
X145602923Y-59307761D02*
X145633399Y-59185857D01*
X145633399Y-59185857D02*
X145663876Y-59124904D01*
X145663876Y-59124904D02*
X145724828Y-59063952D01*
X145724828Y-59063952D02*
X145816257Y-59033476D01*
X145816257Y-59033476D02*
X145877209Y-59033476D01*
X145877209Y-59033476D02*
X145968638Y-59063952D01*
X145968638Y-59063952D02*
X145999114Y-59094428D01*
X146639114Y-59612523D02*
X146608638Y-59643000D01*
X146608638Y-59643000D02*
X146517209Y-59673476D01*
X146517209Y-59673476D02*
X146456257Y-59673476D01*
X146456257Y-59673476D02*
X146364828Y-59643000D01*
X146364828Y-59643000D02*
X146303876Y-59582047D01*
X146303876Y-59582047D02*
X146273399Y-59521095D01*
X146273399Y-59521095D02*
X146242923Y-59399190D01*
X146242923Y-59399190D02*
X146242923Y-59307761D01*
X146242923Y-59307761D02*
X146273399Y-59185857D01*
X146273399Y-59185857D02*
X146303876Y-59124904D01*
X146303876Y-59124904D02*
X146364828Y-59063952D01*
X146364828Y-59063952D02*
X146456257Y-59033476D01*
X146456257Y-59033476D02*
X146517209Y-59033476D01*
X146517209Y-59033476D02*
X146608638Y-59063952D01*
X146608638Y-59063952D02*
X146639114Y-59094428D01*
X146852447Y-59033476D02*
X147279114Y-59033476D01*
X147279114Y-59033476D02*
X146852447Y-59673476D01*
X146852447Y-59673476D02*
X147279114Y-59673476D01*
X147522923Y-59429666D02*
X148010543Y-59429666D01*
X148681019Y-59673476D02*
X148467685Y-59368714D01*
X148315304Y-59673476D02*
X148315304Y-59033476D01*
X148315304Y-59033476D02*
X148559114Y-59033476D01*
X148559114Y-59033476D02*
X148620066Y-59063952D01*
X148620066Y-59063952D02*
X148650543Y-59094428D01*
X148650543Y-59094428D02*
X148681019Y-59155380D01*
X148681019Y-59155380D02*
X148681019Y-59246809D01*
X148681019Y-59246809D02*
X148650543Y-59307761D01*
X148650543Y-59307761D02*
X148620066Y-59338238D01*
X148620066Y-59338238D02*
X148559114Y-59368714D01*
X148559114Y-59368714D02*
X148315304Y-59368714D01*
X149260066Y-59673476D02*
X148955304Y-59673476D01*
X148955304Y-59673476D02*
X148955304Y-59033476D01*
X149412447Y-59033476D02*
X149839114Y-59033476D01*
X149839114Y-59033476D02*
X149564828Y-59673476D01*
X140676333Y-79277380D02*
X140628714Y-79325000D01*
X140628714Y-79325000D02*
X140485857Y-79372619D01*
X140485857Y-79372619D02*
X140390619Y-79372619D01*
X140390619Y-79372619D02*
X140247762Y-79325000D01*
X140247762Y-79325000D02*
X140152524Y-79229761D01*
X140152524Y-79229761D02*
X140104905Y-79134523D01*
X140104905Y-79134523D02*
X140057286Y-78944047D01*
X140057286Y-78944047D02*
X140057286Y-78801190D01*
X140057286Y-78801190D02*
X140104905Y-78610714D01*
X140104905Y-78610714D02*
X140152524Y-78515476D01*
X140152524Y-78515476D02*
X140247762Y-78420238D01*
X140247762Y-78420238D02*
X140390619Y-78372619D01*
X140390619Y-78372619D02*
X140485857Y-78372619D01*
X140485857Y-78372619D02*
X140628714Y-78420238D01*
X140628714Y-78420238D02*
X140676333Y-78467857D01*
X141009667Y-78372619D02*
X141676333Y-78372619D01*
X141676333Y-78372619D02*
X141247762Y-79372619D01*
X113269733Y-70361980D02*
X113222114Y-70409600D01*
X113222114Y-70409600D02*
X113079257Y-70457219D01*
X113079257Y-70457219D02*
X112984019Y-70457219D01*
X112984019Y-70457219D02*
X112841162Y-70409600D01*
X112841162Y-70409600D02*
X112745924Y-70314361D01*
X112745924Y-70314361D02*
X112698305Y-70219123D01*
X112698305Y-70219123D02*
X112650686Y-70028647D01*
X112650686Y-70028647D02*
X112650686Y-69885790D01*
X112650686Y-69885790D02*
X112698305Y-69695314D01*
X112698305Y-69695314D02*
X112745924Y-69600076D01*
X112745924Y-69600076D02*
X112841162Y-69504838D01*
X112841162Y-69504838D02*
X112984019Y-69457219D01*
X112984019Y-69457219D02*
X113079257Y-69457219D01*
X113079257Y-69457219D02*
X113222114Y-69504838D01*
X113222114Y-69504838D02*
X113269733Y-69552457D01*
X114222114Y-70457219D02*
X113650686Y-70457219D01*
X113936400Y-70457219D02*
X113936400Y-69457219D01*
X113936400Y-69457219D02*
X113841162Y-69600076D01*
X113841162Y-69600076D02*
X113745924Y-69695314D01*
X113745924Y-69695314D02*
X113650686Y-69742933D01*
X135901133Y-62183180D02*
X135853514Y-62230800D01*
X135853514Y-62230800D02*
X135710657Y-62278419D01*
X135710657Y-62278419D02*
X135615419Y-62278419D01*
X135615419Y-62278419D02*
X135472562Y-62230800D01*
X135472562Y-62230800D02*
X135377324Y-62135561D01*
X135377324Y-62135561D02*
X135329705Y-62040323D01*
X135329705Y-62040323D02*
X135282086Y-61849847D01*
X135282086Y-61849847D02*
X135282086Y-61706990D01*
X135282086Y-61706990D02*
X135329705Y-61516514D01*
X135329705Y-61516514D02*
X135377324Y-61421276D01*
X135377324Y-61421276D02*
X135472562Y-61326038D01*
X135472562Y-61326038D02*
X135615419Y-61278419D01*
X135615419Y-61278419D02*
X135710657Y-61278419D01*
X135710657Y-61278419D02*
X135853514Y-61326038D01*
X135853514Y-61326038D02*
X135901133Y-61373657D01*
X136234467Y-61278419D02*
X136853514Y-61278419D01*
X136853514Y-61278419D02*
X136520181Y-61659371D01*
X136520181Y-61659371D02*
X136663038Y-61659371D01*
X136663038Y-61659371D02*
X136758276Y-61706990D01*
X136758276Y-61706990D02*
X136805895Y-61754609D01*
X136805895Y-61754609D02*
X136853514Y-61849847D01*
X136853514Y-61849847D02*
X136853514Y-62087942D01*
X136853514Y-62087942D02*
X136805895Y-62183180D01*
X136805895Y-62183180D02*
X136758276Y-62230800D01*
X136758276Y-62230800D02*
X136663038Y-62278419D01*
X136663038Y-62278419D02*
X136377324Y-62278419D01*
X136377324Y-62278419D02*
X136282086Y-62230800D01*
X136282086Y-62230800D02*
X136234467Y-62183180D01*
X107727761Y-96511257D02*
X107632523Y-96463638D01*
X107632523Y-96463638D02*
X107537285Y-96368400D01*
X107537285Y-96368400D02*
X107394428Y-96225542D01*
X107394428Y-96225542D02*
X107299190Y-96177923D01*
X107299190Y-96177923D02*
X107203952Y-96177923D01*
X107251571Y-96416019D02*
X107156333Y-96368400D01*
X107156333Y-96368400D02*
X107061095Y-96273161D01*
X107061095Y-96273161D02*
X107013476Y-96082685D01*
X107013476Y-96082685D02*
X107013476Y-95749352D01*
X107013476Y-95749352D02*
X107061095Y-95558876D01*
X107061095Y-95558876D02*
X107156333Y-95463638D01*
X107156333Y-95463638D02*
X107251571Y-95416019D01*
X107251571Y-95416019D02*
X107442047Y-95416019D01*
X107442047Y-95416019D02*
X107537285Y-95463638D01*
X107537285Y-95463638D02*
X107632523Y-95558876D01*
X107632523Y-95558876D02*
X107680142Y-95749352D01*
X107680142Y-95749352D02*
X107680142Y-96082685D01*
X107680142Y-96082685D02*
X107632523Y-96273161D01*
X107632523Y-96273161D02*
X107537285Y-96368400D01*
X107537285Y-96368400D02*
X107442047Y-96416019D01*
X107442047Y-96416019D02*
X107251571Y-96416019D01*
X108632523Y-96416019D02*
X108061095Y-96416019D01*
X108346809Y-96416019D02*
X108346809Y-95416019D01*
X108346809Y-95416019D02*
X108251571Y-95558876D01*
X108251571Y-95558876D02*
X108156333Y-95654114D01*
X108156333Y-95654114D02*
X108061095Y-95701733D01*
X144765733Y-74851419D02*
X144432400Y-74375228D01*
X144194305Y-74851419D02*
X144194305Y-73851419D01*
X144194305Y-73851419D02*
X144575257Y-73851419D01*
X144575257Y-73851419D02*
X144670495Y-73899038D01*
X144670495Y-73899038D02*
X144718114Y-73946657D01*
X144718114Y-73946657D02*
X144765733Y-74041895D01*
X144765733Y-74041895D02*
X144765733Y-74184752D01*
X144765733Y-74184752D02*
X144718114Y-74279990D01*
X144718114Y-74279990D02*
X144670495Y-74327609D01*
X144670495Y-74327609D02*
X144575257Y-74375228D01*
X144575257Y-74375228D02*
X144194305Y-74375228D01*
X145670495Y-73851419D02*
X145194305Y-73851419D01*
X145194305Y-73851419D02*
X145146686Y-74327609D01*
X145146686Y-74327609D02*
X145194305Y-74279990D01*
X145194305Y-74279990D02*
X145289543Y-74232371D01*
X145289543Y-74232371D02*
X145527638Y-74232371D01*
X145527638Y-74232371D02*
X145622876Y-74279990D01*
X145622876Y-74279990D02*
X145670495Y-74327609D01*
X145670495Y-74327609D02*
X145718114Y-74422847D01*
X145718114Y-74422847D02*
X145718114Y-74660942D01*
X145718114Y-74660942D02*
X145670495Y-74756180D01*
X145670495Y-74756180D02*
X145622876Y-74803800D01*
X145622876Y-74803800D02*
X145527638Y-74851419D01*
X145527638Y-74851419D02*
X145289543Y-74851419D01*
X145289543Y-74851419D02*
X145194305Y-74803800D01*
X145194305Y-74803800D02*
X145146686Y-74756180D01*
X120737333Y-100251419D02*
X120404000Y-99775228D01*
X120165905Y-100251419D02*
X120165905Y-99251419D01*
X120165905Y-99251419D02*
X120546857Y-99251419D01*
X120546857Y-99251419D02*
X120642095Y-99299038D01*
X120642095Y-99299038D02*
X120689714Y-99346657D01*
X120689714Y-99346657D02*
X120737333Y-99441895D01*
X120737333Y-99441895D02*
X120737333Y-99584752D01*
X120737333Y-99584752D02*
X120689714Y-99679990D01*
X120689714Y-99679990D02*
X120642095Y-99727609D01*
X120642095Y-99727609D02*
X120546857Y-99775228D01*
X120546857Y-99775228D02*
X120165905Y-99775228D01*
X121308762Y-99679990D02*
X121213524Y-99632371D01*
X121213524Y-99632371D02*
X121165905Y-99584752D01*
X121165905Y-99584752D02*
X121118286Y-99489514D01*
X121118286Y-99489514D02*
X121118286Y-99441895D01*
X121118286Y-99441895D02*
X121165905Y-99346657D01*
X121165905Y-99346657D02*
X121213524Y-99299038D01*
X121213524Y-99299038D02*
X121308762Y-99251419D01*
X121308762Y-99251419D02*
X121499238Y-99251419D01*
X121499238Y-99251419D02*
X121594476Y-99299038D01*
X121594476Y-99299038D02*
X121642095Y-99346657D01*
X121642095Y-99346657D02*
X121689714Y-99441895D01*
X121689714Y-99441895D02*
X121689714Y-99489514D01*
X121689714Y-99489514D02*
X121642095Y-99584752D01*
X121642095Y-99584752D02*
X121594476Y-99632371D01*
X121594476Y-99632371D02*
X121499238Y-99679990D01*
X121499238Y-99679990D02*
X121308762Y-99679990D01*
X121308762Y-99679990D02*
X121213524Y-99727609D01*
X121213524Y-99727609D02*
X121165905Y-99775228D01*
X121165905Y-99775228D02*
X121118286Y-99870466D01*
X121118286Y-99870466D02*
X121118286Y-100060942D01*
X121118286Y-100060942D02*
X121165905Y-100156180D01*
X121165905Y-100156180D02*
X121213524Y-100203800D01*
X121213524Y-100203800D02*
X121308762Y-100251419D01*
X121308762Y-100251419D02*
X121499238Y-100251419D01*
X121499238Y-100251419D02*
X121594476Y-100203800D01*
X121594476Y-100203800D02*
X121642095Y-100156180D01*
X121642095Y-100156180D02*
X121689714Y-100060942D01*
X121689714Y-100060942D02*
X121689714Y-99870466D01*
X121689714Y-99870466D02*
X121642095Y-99775228D01*
X121642095Y-99775228D02*
X121594476Y-99727609D01*
X121594476Y-99727609D02*
X121499238Y-99679990D01*
X104845670Y-74400117D02*
X104845670Y-74918754D01*
X104845670Y-74918754D02*
X104876178Y-74979770D01*
X104876178Y-74979770D02*
X104906686Y-75010279D01*
X104906686Y-75010279D02*
X104967702Y-75040787D01*
X104967702Y-75040787D02*
X105089735Y-75040787D01*
X105089735Y-75040787D02*
X105150751Y-75010279D01*
X105150751Y-75010279D02*
X105181259Y-74979770D01*
X105181259Y-74979770D02*
X105211767Y-74918754D01*
X105211767Y-74918754D02*
X105211767Y-74400117D01*
X105852437Y-75040787D02*
X105486340Y-75040787D01*
X105669388Y-75040787D02*
X105669388Y-74400117D01*
X105669388Y-74400117D02*
X105608372Y-74491641D01*
X105608372Y-74491641D02*
X105547356Y-74552657D01*
X105547356Y-74552657D02*
X105486340Y-74583165D01*
X102015653Y-76310903D02*
X102015653Y-75669982D01*
X102015653Y-75669982D02*
X102229293Y-76127782D01*
X102229293Y-76127782D02*
X102442933Y-75669982D01*
X102442933Y-75669982D02*
X102442933Y-76310903D01*
X102717614Y-76280383D02*
X102809174Y-76310903D01*
X102809174Y-76310903D02*
X102961774Y-76310903D01*
X102961774Y-76310903D02*
X103022814Y-76280383D01*
X103022814Y-76280383D02*
X103053334Y-76249862D01*
X103053334Y-76249862D02*
X103083854Y-76188822D01*
X103083854Y-76188822D02*
X103083854Y-76127782D01*
X103083854Y-76127782D02*
X103053334Y-76066742D01*
X103053334Y-76066742D02*
X103022814Y-76036222D01*
X103022814Y-76036222D02*
X102961774Y-76005702D01*
X102961774Y-76005702D02*
X102839694Y-75975182D01*
X102839694Y-75975182D02*
X102778654Y-75944662D01*
X102778654Y-75944662D02*
X102748134Y-75914142D01*
X102748134Y-75914142D02*
X102717614Y-75853102D01*
X102717614Y-75853102D02*
X102717614Y-75792062D01*
X102717614Y-75792062D02*
X102748134Y-75731022D01*
X102748134Y-75731022D02*
X102778654Y-75700502D01*
X102778654Y-75700502D02*
X102839694Y-75669982D01*
X102839694Y-75669982D02*
X102992294Y-75669982D01*
X102992294Y-75669982D02*
X103083854Y-75700502D01*
X103663735Y-75669982D02*
X103358535Y-75669982D01*
X103358535Y-75669982D02*
X103328015Y-75975182D01*
X103328015Y-75975182D02*
X103358535Y-75944662D01*
X103358535Y-75944662D02*
X103419575Y-75914142D01*
X103419575Y-75914142D02*
X103572175Y-75914142D01*
X103572175Y-75914142D02*
X103633215Y-75944662D01*
X103633215Y-75944662D02*
X103663735Y-75975182D01*
X103663735Y-75975182D02*
X103694255Y-76036222D01*
X103694255Y-76036222D02*
X103694255Y-76188822D01*
X103694255Y-76188822D02*
X103663735Y-76249862D01*
X103663735Y-76249862D02*
X103633215Y-76280383D01*
X103633215Y-76280383D02*
X103572175Y-76310903D01*
X103572175Y-76310903D02*
X103419575Y-76310903D01*
X103419575Y-76310903D02*
X103358535Y-76280383D01*
X103358535Y-76280383D02*
X103328015Y-76249862D01*
X104243616Y-75669982D02*
X104121536Y-75669982D01*
X104121536Y-75669982D02*
X104060496Y-75700502D01*
X104060496Y-75700502D02*
X104029976Y-75731022D01*
X104029976Y-75731022D02*
X103968936Y-75822582D01*
X103968936Y-75822582D02*
X103938416Y-75944662D01*
X103938416Y-75944662D02*
X103938416Y-76188822D01*
X103938416Y-76188822D02*
X103968936Y-76249862D01*
X103968936Y-76249862D02*
X103999456Y-76280383D01*
X103999456Y-76280383D02*
X104060496Y-76310903D01*
X104060496Y-76310903D02*
X104182576Y-76310903D01*
X104182576Y-76310903D02*
X104243616Y-76280383D01*
X104243616Y-76280383D02*
X104274136Y-76249862D01*
X104274136Y-76249862D02*
X104304656Y-76188822D01*
X104304656Y-76188822D02*
X104304656Y-76036222D01*
X104304656Y-76036222D02*
X104274136Y-75975182D01*
X104274136Y-75975182D02*
X104243616Y-75944662D01*
X104243616Y-75944662D02*
X104182576Y-75914142D01*
X104182576Y-75914142D02*
X104060496Y-75914142D01*
X104060496Y-75914142D02*
X103999456Y-75944662D01*
X103999456Y-75944662D02*
X103968936Y-75975182D01*
X103968936Y-75975182D02*
X103938416Y-76036222D01*
X104701417Y-75669982D02*
X104762457Y-75669982D01*
X104762457Y-75669982D02*
X104823497Y-75700502D01*
X104823497Y-75700502D02*
X104854017Y-75731022D01*
X104854017Y-75731022D02*
X104884537Y-75792062D01*
X104884537Y-75792062D02*
X104915057Y-75914142D01*
X104915057Y-75914142D02*
X104915057Y-76066742D01*
X104915057Y-76066742D02*
X104884537Y-76188822D01*
X104884537Y-76188822D02*
X104854017Y-76249862D01*
X104854017Y-76249862D02*
X104823497Y-76280383D01*
X104823497Y-76280383D02*
X104762457Y-76310903D01*
X104762457Y-76310903D02*
X104701417Y-76310903D01*
X104701417Y-76310903D02*
X104640377Y-76280383D01*
X104640377Y-76280383D02*
X104609857Y-76249862D01*
X104609857Y-76249862D02*
X104579337Y-76188822D01*
X104579337Y-76188822D02*
X104548817Y-76066742D01*
X104548817Y-76066742D02*
X104548817Y-75914142D01*
X104548817Y-75914142D02*
X104579337Y-75792062D01*
X104579337Y-75792062D02*
X104609857Y-75731022D01*
X104609857Y-75731022D02*
X104640377Y-75700502D01*
X104640377Y-75700502D02*
X104701417Y-75669982D01*
X105128698Y-75669982D02*
X105555978Y-75669982D01*
X105555978Y-75669982D02*
X105281298Y-76310903D01*
X105922219Y-75669982D02*
X105983259Y-75669982D01*
X105983259Y-75669982D02*
X106044299Y-75700502D01*
X106044299Y-75700502D02*
X106074819Y-75731022D01*
X106074819Y-75731022D02*
X106105339Y-75792062D01*
X106105339Y-75792062D02*
X106135859Y-75914142D01*
X106135859Y-75914142D02*
X106135859Y-76066742D01*
X106135859Y-76066742D02*
X106105339Y-76188822D01*
X106105339Y-76188822D02*
X106074819Y-76249862D01*
X106074819Y-76249862D02*
X106044299Y-76280383D01*
X106044299Y-76280383D02*
X105983259Y-76310903D01*
X105983259Y-76310903D02*
X105922219Y-76310903D01*
X105922219Y-76310903D02*
X105861179Y-76280383D01*
X105861179Y-76280383D02*
X105830659Y-76249862D01*
X105830659Y-76249862D02*
X105800139Y-76188822D01*
X105800139Y-76188822D02*
X105769619Y-76066742D01*
X105769619Y-76066742D02*
X105769619Y-75914142D01*
X105769619Y-75914142D02*
X105800139Y-75792062D01*
X105800139Y-75792062D02*
X105830659Y-75731022D01*
X105830659Y-75731022D02*
X105861179Y-75700502D01*
X105861179Y-75700502D02*
X105922219Y-75669982D01*
X106380020Y-75731022D02*
X106410540Y-75700502D01*
X106410540Y-75700502D02*
X106471580Y-75669982D01*
X106471580Y-75669982D02*
X106624180Y-75669982D01*
X106624180Y-75669982D02*
X106685220Y-75700502D01*
X106685220Y-75700502D02*
X106715740Y-75731022D01*
X106715740Y-75731022D02*
X106746260Y-75792062D01*
X106746260Y-75792062D02*
X106746260Y-75853102D01*
X106746260Y-75853102D02*
X106715740Y-75944662D01*
X106715740Y-75944662D02*
X106349500Y-76310903D01*
X106349500Y-76310903D02*
X106746260Y-76310903D01*
X107234581Y-75975182D02*
X107326141Y-76005702D01*
X107326141Y-76005702D02*
X107356661Y-76036222D01*
X107356661Y-76036222D02*
X107387181Y-76097262D01*
X107387181Y-76097262D02*
X107387181Y-76188822D01*
X107387181Y-76188822D02*
X107356661Y-76249862D01*
X107356661Y-76249862D02*
X107326141Y-76280383D01*
X107326141Y-76280383D02*
X107265101Y-76310903D01*
X107265101Y-76310903D02*
X107020941Y-76310903D01*
X107020941Y-76310903D02*
X107020941Y-75669982D01*
X107020941Y-75669982D02*
X107234581Y-75669982D01*
X107234581Y-75669982D02*
X107295621Y-75700502D01*
X107295621Y-75700502D02*
X107326141Y-75731022D01*
X107326141Y-75731022D02*
X107356661Y-75792062D01*
X107356661Y-75792062D02*
X107356661Y-75853102D01*
X107356661Y-75853102D02*
X107326141Y-75914142D01*
X107326141Y-75914142D02*
X107295621Y-75944662D01*
X107295621Y-75944662D02*
X107234581Y-75975182D01*
X107234581Y-75975182D02*
X107020941Y-75975182D01*
X107631342Y-76127782D02*
X107936542Y-76127782D01*
X107570302Y-76310903D02*
X107783942Y-75669982D01*
X107783942Y-75669982D02*
X107997582Y-76310903D01*
X108333303Y-75669982D02*
X108394343Y-75669982D01*
X108394343Y-75669982D02*
X108455383Y-75700502D01*
X108455383Y-75700502D02*
X108485903Y-75731022D01*
X108485903Y-75731022D02*
X108516423Y-75792062D01*
X108516423Y-75792062D02*
X108546943Y-75914142D01*
X108546943Y-75914142D02*
X108546943Y-76066742D01*
X108546943Y-76066742D02*
X108516423Y-76188822D01*
X108516423Y-76188822D02*
X108485903Y-76249862D01*
X108485903Y-76249862D02*
X108455383Y-76280383D01*
X108455383Y-76280383D02*
X108394343Y-76310903D01*
X108394343Y-76310903D02*
X108333303Y-76310903D01*
X108333303Y-76310903D02*
X108272263Y-76280383D01*
X108272263Y-76280383D02*
X108241743Y-76249862D01*
X108241743Y-76249862D02*
X108211223Y-76188822D01*
X108211223Y-76188822D02*
X108180703Y-76066742D01*
X108180703Y-76066742D02*
X108180703Y-75914142D01*
X108180703Y-75914142D02*
X108211223Y-75792062D01*
X108211223Y-75792062D02*
X108241743Y-75731022D01*
X108241743Y-75731022D02*
X108272263Y-75700502D01*
X108272263Y-75700502D02*
X108333303Y-75669982D01*
X108760584Y-75669982D02*
X109157344Y-75669982D01*
X109157344Y-75669982D02*
X108943704Y-75914142D01*
X108943704Y-75914142D02*
X109035264Y-75914142D01*
X109035264Y-75914142D02*
X109096304Y-75944662D01*
X109096304Y-75944662D02*
X109126824Y-75975182D01*
X109126824Y-75975182D02*
X109157344Y-76036222D01*
X109157344Y-76036222D02*
X109157344Y-76188822D01*
X109157344Y-76188822D02*
X109126824Y-76249862D01*
X109126824Y-76249862D02*
X109096304Y-76280383D01*
X109096304Y-76280383D02*
X109035264Y-76310903D01*
X109035264Y-76310903D02*
X108852144Y-76310903D01*
X108852144Y-76310903D02*
X108791104Y-76280383D01*
X108791104Y-76280383D02*
X108760584Y-76249862D01*
X109432025Y-76066742D02*
X109920346Y-76066742D01*
X110530746Y-75669982D02*
X110225546Y-75669982D01*
X110225546Y-75669982D02*
X110195026Y-75975182D01*
X110195026Y-75975182D02*
X110225546Y-75944662D01*
X110225546Y-75944662D02*
X110286586Y-75914142D01*
X110286586Y-75914142D02*
X110439186Y-75914142D01*
X110439186Y-75914142D02*
X110500226Y-75944662D01*
X110500226Y-75944662D02*
X110530746Y-75975182D01*
X110530746Y-75975182D02*
X110561266Y-76036222D01*
X110561266Y-76036222D02*
X110561266Y-76188822D01*
X110561266Y-76188822D02*
X110530746Y-76249862D01*
X110530746Y-76249862D02*
X110500226Y-76280383D01*
X110500226Y-76280383D02*
X110439186Y-76310903D01*
X110439186Y-76310903D02*
X110286586Y-76310903D01*
X110286586Y-76310903D02*
X110225546Y-76280383D01*
X110225546Y-76280383D02*
X110195026Y-76249862D01*
X110958027Y-75669982D02*
X111019067Y-75669982D01*
X111019067Y-75669982D02*
X111080107Y-75700502D01*
X111080107Y-75700502D02*
X111110627Y-75731022D01*
X111110627Y-75731022D02*
X111141147Y-75792062D01*
X111141147Y-75792062D02*
X111171667Y-75914142D01*
X111171667Y-75914142D02*
X111171667Y-76066742D01*
X111171667Y-76066742D02*
X111141147Y-76188822D01*
X111141147Y-76188822D02*
X111110627Y-76249862D01*
X111110627Y-76249862D02*
X111080107Y-76280383D01*
X111080107Y-76280383D02*
X111019067Y-76310903D01*
X111019067Y-76310903D02*
X110958027Y-76310903D01*
X110958027Y-76310903D02*
X110896987Y-76280383D01*
X110896987Y-76280383D02*
X110866467Y-76249862D01*
X110866467Y-76249862D02*
X110835947Y-76188822D01*
X110835947Y-76188822D02*
X110805427Y-76066742D01*
X110805427Y-76066742D02*
X110805427Y-75914142D01*
X110805427Y-75914142D02*
X110835947Y-75792062D01*
X110835947Y-75792062D02*
X110866467Y-75731022D01*
X110866467Y-75731022D02*
X110896987Y-75700502D01*
X110896987Y-75700502D02*
X110958027Y-75669982D01*
D11*
%TO.C,TP_ADXL*%
X137738000Y-57626400D02*
X140138000Y-57626400D01*
X137738000Y-60026400D02*
X137738000Y-57626400D01*
X140138000Y-57626400D02*
X140138000Y-60026400D01*
X140138000Y-60026400D02*
X137738000Y-60026400D01*
%TO.C,C6*%
X141028052Y-74903000D02*
X140505548Y-74903000D01*
X141028052Y-73433000D02*
X140505548Y-73433000D01*
%TO.C,C4*%
X139402452Y-65149400D02*
X138879948Y-65149400D01*
X139402452Y-63679400D02*
X138879948Y-63679400D01*
D13*
%TO.C,U5*%
X143678800Y-78875600D02*
X144238800Y-78875600D01*
X144238800Y-76275600D02*
X143678800Y-76275600D01*
X146218800Y-76275600D02*
X146778800Y-76275600D01*
X146218800Y-78875600D02*
X146778800Y-78875600D01*
D14*
X143238800Y-76580600D02*
G75*
G03*
X143238800Y-76580600I-100000J0D01*
G01*
D11*
%TO.C,LED_LSM*%
X132370300Y-102026600D02*
X132370300Y-100106600D01*
X132370300Y-100106600D02*
X129685300Y-100106600D01*
X129685300Y-102026600D02*
X132370300Y-102026600D01*
D13*
%TO.C,U2*%
X105832400Y-60671200D02*
X105832400Y-61071200D01*
X105832400Y-62271200D02*
X105832400Y-62671200D01*
X105932400Y-60671200D02*
X105832400Y-60671200D01*
X105932400Y-62671200D02*
X105832400Y-62671200D01*
X107732400Y-62671200D02*
X107832400Y-62671200D01*
X107832400Y-60671200D02*
X107732400Y-60671200D01*
X107832400Y-60671200D02*
X107832400Y-61071200D01*
X107832400Y-62671200D02*
X107832400Y-62271200D01*
D14*
X105532400Y-61371200D02*
G75*
G03*
X105532400Y-61371200I-100000J0D01*
G01*
D11*
%TO.C,R4*%
X147804136Y-61495000D02*
X148258264Y-61495000D01*
X147804136Y-62965000D02*
X148258264Y-62965000D01*
%TO.C,LED_ADXL*%
X116823200Y-102483800D02*
X116823200Y-100563800D01*
X116823200Y-100563800D02*
X114138200Y-100563800D01*
X114138200Y-102483800D02*
X116823200Y-102483800D01*
%TO.C,R2*%
X106097336Y-64543000D02*
X106551464Y-64543000D01*
X106097336Y-66013000D02*
X106551464Y-66013000D01*
%TO.C,C2*%
X107246052Y-59256600D02*
X106723548Y-59256600D01*
X107246052Y-57786600D02*
X106723548Y-57786600D01*
%TO.C,LED_LPS22*%
X143011000Y-85846800D02*
X143011000Y-83926800D01*
X143011000Y-83926800D02*
X140326000Y-83926800D01*
X140326000Y-85846800D02*
X143011000Y-85846800D01*
%TO.C,R1*%
X109958136Y-72894200D02*
X110412264Y-72894200D01*
X109958136Y-74364200D02*
X110412264Y-74364200D01*
%TO.C,R3*%
X139106536Y-67337000D02*
X139560664Y-67337000D01*
X139106536Y-68807000D02*
X139560664Y-68807000D01*
%TO.C,R9*%
X135866136Y-100331600D02*
X136320264Y-100331600D01*
X135866136Y-101801600D02*
X136320264Y-101801600D01*
%TO.C,Q2*%
X140730800Y-87776000D02*
X146740800Y-87776000D01*
X142980800Y-94596000D02*
X146740800Y-94596000D01*
X146740800Y-87776000D02*
X146740800Y-89036000D01*
X146740800Y-94596000D02*
X146740800Y-93336000D01*
%TO.C,Q4*%
X129250000Y-103371600D02*
X135260000Y-103371600D01*
X131500000Y-110191600D02*
X135260000Y-110191600D01*
X135260000Y-103371600D02*
X135260000Y-104631600D01*
X135260000Y-110191600D02*
X135260000Y-108931600D01*
%TO.C,TP_MS5607*%
X110204400Y-57296200D02*
X112604400Y-57296200D01*
X110204400Y-59696200D02*
X110204400Y-57296200D01*
X112604400Y-57296200D02*
X112604400Y-59696200D01*
X112604400Y-59696200D02*
X110204400Y-59696200D01*
%TO.C,LED_MS5607*%
X105266200Y-85542000D02*
X105266200Y-83622000D01*
X105266200Y-83622000D02*
X102581200Y-83622000D01*
X102581200Y-85542000D02*
X105266200Y-85542000D01*
%TO.C,R6*%
X110770936Y-84050200D02*
X111225064Y-84050200D01*
X110770936Y-85520200D02*
X111225064Y-85520200D01*
%TO.C,C5*%
X143288748Y-67387800D02*
X143811252Y-67387800D01*
X143288748Y-68857800D02*
X143811252Y-68857800D01*
%TO.C,R7*%
X147652136Y-84493400D02*
X148106264Y-84493400D01*
X147652136Y-85963400D02*
X148106264Y-85963400D01*
%TO.C,Q3*%
X113806800Y-103320800D02*
X119816800Y-103320800D01*
X116056800Y-110140800D02*
X119816800Y-110140800D01*
X119816800Y-103320800D02*
X119816800Y-104580800D01*
X119816800Y-110140800D02*
X119816800Y-108880800D01*
%TO.C,TP_LPS22*%
X122904400Y-67049800D02*
X125304400Y-67049800D01*
X122904400Y-69449800D02*
X122904400Y-67049800D01*
X125304400Y-67049800D02*
X125304400Y-69449800D01*
X125304400Y-69449800D02*
X122904400Y-69449800D01*
%TO.C,U6*%
X95844400Y-59036200D02*
X97174400Y-59036200D01*
X95844400Y-60366200D02*
X95844400Y-59036200D01*
X95844400Y-61636200D02*
X95844400Y-97256200D01*
X95844400Y-61636200D02*
X98504400Y-61636200D01*
X95844400Y-97256200D02*
X98504400Y-97256200D01*
X98504400Y-61636200D02*
X98504400Y-97256200D01*
X106269400Y-51311200D02*
X106269400Y-49981200D01*
X107599400Y-51311200D02*
X106269400Y-51311200D01*
X108869400Y-48651200D02*
X144489400Y-48651200D01*
X108869400Y-51311200D02*
X108869400Y-48651200D01*
X108869400Y-51311200D02*
X144489400Y-51311200D01*
X144489400Y-51311200D02*
X144489400Y-48651200D01*
X152244400Y-59066200D02*
X153574400Y-59066200D01*
X152244400Y-60396200D02*
X152244400Y-59066200D01*
X152244400Y-61666200D02*
X152244400Y-97286200D01*
X152244400Y-61666200D02*
X154904400Y-61666200D01*
X152244400Y-97286200D02*
X154904400Y-97286200D01*
X154904400Y-61666200D02*
X154904400Y-97286200D01*
%TO.C,TP_LSM*%
X135477400Y-79013200D02*
X137877400Y-79013200D01*
X135477400Y-81413200D02*
X135477400Y-79013200D01*
X137877400Y-79013200D02*
X137877400Y-81413200D01*
X137877400Y-81413200D02*
X135477400Y-81413200D01*
D13*
%TO.C,U4*%
X142298000Y-60246600D02*
X143168000Y-60246600D01*
X142298000Y-65496600D02*
X143168000Y-65496600D01*
X145298000Y-60246600D02*
X144428000Y-60246600D01*
X145298000Y-65496600D02*
X144428000Y-65496600D01*
D14*
X141688000Y-60871600D02*
G75*
G03*
X141688000Y-60871600I-100000J0D01*
G01*
D11*
%TO.C,C7*%
X140641148Y-76371400D02*
X141163652Y-76371400D01*
X140641148Y-77841400D02*
X141163652Y-77841400D01*
%TO.C,C1*%
X110649652Y-70737400D02*
X110127148Y-70737400D01*
X110649652Y-69267400D02*
X110127148Y-69267400D01*
%TO.C,C3*%
X139385652Y-62539800D02*
X138863148Y-62539800D01*
X139385652Y-61069800D02*
X138863148Y-61069800D01*
%TO.C,Q1*%
X103748400Y-87928400D02*
X109758400Y-87928400D01*
X105998400Y-94748400D02*
X109758400Y-94748400D01*
X109758400Y-87928400D02*
X109758400Y-89188400D01*
X109758400Y-94748400D02*
X109758400Y-93488400D01*
%TO.C,R5*%
X145159464Y-73429800D02*
X144705336Y-73429800D01*
X145159464Y-71959800D02*
X144705336Y-71959800D01*
%TO.C,R8*%
X120649636Y-100788800D02*
X121103764Y-100788800D01*
X120649636Y-102258800D02*
X121103764Y-102258800D01*
D13*
%TO.C,U1*%
X104030800Y-69061800D02*
X107030800Y-69061800D01*
X104030800Y-74061800D02*
X107030800Y-74061800D01*
D14*
X103003800Y-69688800D02*
G75*
G03*
X103003800Y-69688800I-100000J0D01*
G01*
%TD*%
M02*
