%TF.GenerationSoftware,KiCad,Pcbnew,7.0.7*%
%TF.CreationDate,2024-02-10T01:20:28+05:30*%
%TF.ProjectId,Sensor_Stack,53656e73-6f72-45f5-9374-61636b2e6b69,rev?*%
%TF.SameCoordinates,Original*%
%TF.FileFunction,Legend,Bot*%
%TF.FilePolarity,Positive*%
%FSLAX46Y46*%
G04 Gerber Fmt 4.6, Leading zero omitted, Abs format (unit mm)*
G04 Created by KiCad (PCBNEW 7.0.7) date 2024-02-10 01:20:28*
%MOMM*%
%LPD*%
G01*
G04 APERTURE LIST*
G04 APERTURE END LIST*
%TO.C,G\u002A\u002A\u002A*%
G36*
X136767909Y-77599068D02*
G01*
X137036587Y-77685243D01*
X137271602Y-77766796D01*
X137494774Y-77843710D01*
X137629457Y-77889484D01*
X137714130Y-77897924D01*
X137758672Y-77812958D01*
X137767806Y-77766382D01*
X137853465Y-77709765D01*
X138054021Y-77693590D01*
X138349370Y-77693590D01*
X138349370Y-78983978D01*
X138349370Y-80274365D01*
X138072480Y-80416729D01*
X137795591Y-80559093D01*
X137755838Y-79661662D01*
X137739251Y-79341556D01*
X137707723Y-78990961D01*
X137657333Y-78730255D01*
X137577614Y-78525567D01*
X137458102Y-78343029D01*
X137288330Y-78148773D01*
X137278091Y-78137938D01*
X136963741Y-77871782D01*
X136648004Y-77722227D01*
X136351454Y-77695334D01*
X136094668Y-77797165D01*
X136001844Y-77935820D01*
X136024806Y-78116027D01*
X136156229Y-78305992D01*
X136384036Y-78477329D01*
X136668365Y-78636819D01*
X136408943Y-78919897D01*
X136149521Y-79202975D01*
X135846538Y-78899993D01*
X135697225Y-78737580D01*
X135578011Y-78546547D01*
X135543556Y-78361132D01*
X135565254Y-78219716D01*
X135703945Y-77972750D01*
X135947208Y-77761817D01*
X136267414Y-77615378D01*
X136412189Y-77577821D01*
X136578673Y-77564977D01*
X136767909Y-77599068D01*
G37*
G36*
X141992072Y-80218803D02*
G01*
X141719502Y-80432737D01*
X141339777Y-80582011D01*
X141191002Y-80608225D01*
X140809298Y-80604581D01*
X140406755Y-80524999D01*
X140049064Y-80379773D01*
X139936845Y-80321542D01*
X139766809Y-80258953D01*
X139691666Y-80275131D01*
X139626390Y-80346703D01*
X139479785Y-80447769D01*
X139315124Y-80535676D01*
X139194428Y-80573242D01*
X139184799Y-80546513D01*
X139173374Y-80398763D01*
X139167643Y-80143554D01*
X139168023Y-79805772D01*
X139174609Y-79428765D01*
X139715358Y-79428765D01*
X139715450Y-79432642D01*
X139782311Y-79562408D01*
X139949375Y-79721874D01*
X140181371Y-79885975D01*
X140443027Y-80029645D01*
X140699069Y-80127818D01*
X140869686Y-80163563D01*
X141167518Y-80193631D01*
X141474943Y-80197011D01*
X141740322Y-80173852D01*
X141912015Y-80124304D01*
X141922402Y-80118046D01*
X142026889Y-79991840D01*
X142006000Y-79813749D01*
X141858645Y-79572508D01*
X141805638Y-79508274D01*
X141485760Y-79249942D01*
X141082248Y-79082371D01*
X140633470Y-79022775D01*
X140564933Y-79024067D01*
X140239682Y-79065803D01*
X139969030Y-79156291D01*
X139783936Y-79281842D01*
X139715358Y-79428765D01*
X139174609Y-79428765D01*
X139174931Y-79410305D01*
X139183994Y-79106869D01*
X139208393Y-78651568D01*
X139247985Y-78311788D01*
X139308880Y-78066771D01*
X139397188Y-77895762D01*
X139519018Y-77778006D01*
X139680479Y-77692746D01*
X139741221Y-77670371D01*
X140080614Y-77604678D01*
X140499935Y-77594850D01*
X140952131Y-77642737D01*
X141302858Y-77702639D01*
X141302858Y-77402766D01*
X141302858Y-77102893D01*
X140121463Y-77102893D01*
X138940068Y-77102893D01*
X138940068Y-76881381D01*
X138940068Y-76659869D01*
X140675242Y-76659869D01*
X142410416Y-76659869D01*
X142410416Y-76881381D01*
X142406271Y-76990769D01*
X142368762Y-77068297D01*
X142259779Y-77098053D01*
X142041230Y-77102893D01*
X141672044Y-77102893D01*
X141672044Y-77529487D01*
X141672632Y-77583941D01*
X141707155Y-77909125D01*
X141790331Y-78124959D01*
X141868582Y-78261926D01*
X141850897Y-78326549D01*
X141721917Y-78308040D01*
X141475128Y-78208117D01*
X141354019Y-78159974D01*
X140987456Y-78062721D01*
X140579796Y-78007442D01*
X140525089Y-78003631D01*
X140257921Y-77991331D01*
X140087018Y-78004562D01*
X139968849Y-78051312D01*
X139859883Y-78139572D01*
X139742944Y-78291250D01*
X139678440Y-78520077D01*
X139684678Y-78637454D01*
X139736869Y-78699556D01*
X139881492Y-78675306D01*
X140029908Y-78650888D01*
X140287318Y-78631872D01*
X140576193Y-78627125D01*
X140595246Y-78627450D01*
X141132737Y-78701012D01*
X141589897Y-78897172D01*
X141964148Y-79214838D01*
X142081209Y-79376576D01*
X142181490Y-79671970D01*
X142148923Y-79958963D01*
X142129077Y-79991840D01*
X141992072Y-80218803D01*
G37*
G36*
X126904602Y-80347938D02*
G01*
X126686758Y-80460590D01*
X126672485Y-80467926D01*
X126515453Y-80542549D01*
X126428327Y-80573242D01*
X126416219Y-80558049D01*
X126395809Y-80439201D01*
X126387742Y-80240974D01*
X126384993Y-80141759D01*
X126363521Y-79974727D01*
X126327719Y-79908707D01*
X126305793Y-79916066D01*
X126197253Y-79997352D01*
X126050829Y-80139574D01*
X126018955Y-80172582D01*
X125812425Y-80360008D01*
X125612451Y-80508484D01*
X125572237Y-80533091D01*
X125399950Y-80616953D01*
X125240708Y-80633815D01*
X125047956Y-80580679D01*
X124775140Y-80454545D01*
X124600979Y-80353288D01*
X124249494Y-80054855D01*
X123969044Y-79687243D01*
X123881295Y-79486916D01*
X124104413Y-79486916D01*
X124186142Y-79828025D01*
X124391189Y-80127270D01*
X124405177Y-80140738D01*
X124637206Y-80263464D01*
X124919714Y-80269992D01*
X125226594Y-80168642D01*
X125531739Y-79967729D01*
X125809041Y-79675572D01*
X126030665Y-79358484D01*
X126186024Y-79048862D01*
X126227578Y-78792786D01*
X126157775Y-78571382D01*
X125979068Y-78365774D01*
X125903143Y-78304912D01*
X125582035Y-78156300D01*
X125224402Y-78150025D01*
X124833229Y-78286294D01*
X124531708Y-78493201D01*
X124283938Y-78791424D01*
X124139259Y-79132022D01*
X124104413Y-79486916D01*
X123881295Y-79486916D01*
X123797264Y-79295075D01*
X123761931Y-79042455D01*
X123815180Y-78677618D01*
X123973124Y-78338967D01*
X124213786Y-78050783D01*
X124515188Y-77837343D01*
X124855355Y-77722929D01*
X125212307Y-77731818D01*
X125217285Y-77732970D01*
X125387236Y-77803275D01*
X125621403Y-77936696D01*
X125870663Y-78105361D01*
X126313905Y-78431657D01*
X126313905Y-77767275D01*
X126313905Y-77102893D01*
X124947916Y-77102893D01*
X123581928Y-77102893D01*
X123581928Y-76881381D01*
X123581928Y-76659869D01*
X124938687Y-76659869D01*
X126295445Y-76659869D01*
X126341594Y-76429128D01*
X126372941Y-76227517D01*
X126387742Y-76030801D01*
X126401658Y-75875168D01*
X126485287Y-75536692D01*
X126628155Y-75154967D01*
X126811358Y-74777501D01*
X127015995Y-74451804D01*
X127150647Y-74270992D01*
X127282533Y-74115693D01*
X127395878Y-74035715D01*
X127530023Y-74006060D01*
X127724308Y-74001730D01*
X128101296Y-74001730D01*
X127878131Y-74255901D01*
X127742782Y-74424451D01*
X127488417Y-74816268D01*
X127259650Y-75259599D01*
X127074246Y-75713655D01*
X126949975Y-76137648D01*
X126904602Y-76490789D01*
X126904603Y-76492095D01*
X126923977Y-76600860D01*
X127008839Y-76649006D01*
X127199951Y-76659869D01*
X127263371Y-76660219D01*
X127420434Y-76676205D01*
X127483637Y-76739346D01*
X127495300Y-76881381D01*
X127494834Y-76928946D01*
X127473519Y-77046743D01*
X127389331Y-77094145D01*
X127199951Y-77102893D01*
X126904602Y-77102893D01*
X126904602Y-78725415D01*
X126904602Y-78792786D01*
X126904602Y-80347938D01*
G37*
G36*
X112597474Y-80010724D02*
G01*
X112398022Y-80274038D01*
X112063323Y-80503629D01*
X112000728Y-80531849D01*
X111688673Y-80599030D01*
X111313982Y-80597473D01*
X110929042Y-80530765D01*
X110586244Y-80402493D01*
X110450653Y-80332329D01*
X110272590Y-80244706D01*
X110181479Y-80215369D01*
X110148180Y-80237979D01*
X110143556Y-80306200D01*
X110123976Y-80365721D01*
X110014341Y-80445497D01*
X109931860Y-80471464D01*
X109745835Y-80539712D01*
X109710515Y-80551981D01*
X109668918Y-80547424D01*
X109641859Y-80496301D01*
X109627445Y-80378409D01*
X109623784Y-80173543D01*
X109628983Y-79861499D01*
X109641038Y-79426068D01*
X110161354Y-79426068D01*
X110242906Y-79577262D01*
X110428116Y-79746152D01*
X110692690Y-79912831D01*
X111012335Y-80057392D01*
X111208379Y-80117136D01*
X111542720Y-80177624D01*
X111881147Y-80200560D01*
X112175379Y-80183576D01*
X112377131Y-80124304D01*
X112416784Y-80096385D01*
X112493155Y-79950773D01*
X112457633Y-79762742D01*
X112323924Y-79555487D01*
X112105736Y-79352203D01*
X111816776Y-79176087D01*
X111525274Y-79077186D01*
X111185042Y-79032345D01*
X110842982Y-79042763D01*
X110535172Y-79104323D01*
X110297693Y-79212908D01*
X110166623Y-79364400D01*
X110161354Y-79426068D01*
X109641038Y-79426068D01*
X109641149Y-79422071D01*
X109652243Y-79102210D01*
X109678807Y-78647660D01*
X109719638Y-78308380D01*
X109780735Y-78063810D01*
X109868095Y-77893387D01*
X109987716Y-77776553D01*
X110145595Y-77692746D01*
X110206337Y-77670371D01*
X110545730Y-77604678D01*
X110965051Y-77594850D01*
X111417248Y-77642737D01*
X111767974Y-77702639D01*
X111767974Y-77402766D01*
X111767974Y-77102893D01*
X110586579Y-77102893D01*
X109405184Y-77102893D01*
X109405184Y-76881381D01*
X109405184Y-76659869D01*
X112063323Y-76659869D01*
X114721463Y-76659869D01*
X114721463Y-76293345D01*
X114723332Y-76163370D01*
X114749536Y-75986548D01*
X114831062Y-75865218D01*
X114998352Y-75738365D01*
X115275242Y-75549910D01*
X115296807Y-76104889D01*
X115318372Y-76659869D01*
X115684453Y-76659869D01*
X115862127Y-76662243D01*
X115992297Y-76684517D01*
X116042349Y-76749848D01*
X116050533Y-76881381D01*
X116046387Y-76990769D01*
X116008878Y-77068297D01*
X115899896Y-77098053D01*
X115681347Y-77102893D01*
X115312161Y-77102893D01*
X115312046Y-78487340D01*
X115311465Y-78730836D01*
X115303451Y-79245066D01*
X115281997Y-79639703D01*
X115242023Y-79934711D01*
X115178447Y-80150056D01*
X115086189Y-80305700D01*
X114960167Y-80421610D01*
X114795300Y-80517749D01*
X114759203Y-80535098D01*
X114551270Y-80614045D01*
X114389195Y-80645342D01*
X114217306Y-80619073D01*
X113918450Y-80493614D01*
X113626699Y-80292193D01*
X113392985Y-80045480D01*
X113299985Y-79912892D01*
X113230260Y-79770767D01*
X113253779Y-79663968D01*
X113383496Y-79558718D01*
X113632364Y-79421241D01*
X113773118Y-79355665D01*
X113826981Y-79381482D01*
X113835828Y-79519165D01*
X113870473Y-79868279D01*
X113984838Y-80168716D01*
X114170515Y-80359062D01*
X114418662Y-80425567D01*
X114460844Y-80423268D01*
X114546687Y-80393128D01*
X114611688Y-80314871D01*
X114658629Y-80171913D01*
X114690293Y-79947671D01*
X114709465Y-79625561D01*
X114718927Y-79189002D01*
X114721463Y-78621410D01*
X114721463Y-77102893D01*
X113466230Y-77102893D01*
X112210998Y-77102893D01*
X112210998Y-77546918D01*
X112219299Y-77746428D01*
X112251806Y-77984336D01*
X112300499Y-78134257D01*
X112355014Y-78245089D01*
X112331791Y-78314239D01*
X112196922Y-78299911D01*
X111944559Y-78203238D01*
X111766252Y-78138938D01*
X111421916Y-78056017D01*
X111066521Y-78008968D01*
X110817362Y-77996092D01*
X110616674Y-78005124D01*
X110475501Y-78048405D01*
X110346608Y-78134151D01*
X110206476Y-78285133D01*
X110143556Y-78514505D01*
X110143965Y-78571565D01*
X110162751Y-78680149D01*
X110240800Y-78706526D01*
X110420445Y-78675279D01*
X110567185Y-78648416D01*
X111112826Y-78623007D01*
X111621995Y-78713491D01*
X112069278Y-78913043D01*
X112429264Y-79214838D01*
X112577577Y-79428907D01*
X112658413Y-79725182D01*
X112610268Y-79950773D01*
X112597474Y-80010724D01*
G37*
G36*
X119397894Y-79920214D02*
G01*
X119250773Y-80184193D01*
X118988274Y-80405619D01*
X118626003Y-80565532D01*
X118490583Y-80596157D01*
X118101007Y-80608756D01*
X117680717Y-80537632D01*
X117288616Y-80390496D01*
X117072607Y-80291015D01*
X116947022Y-80265383D01*
X116882511Y-80308247D01*
X116868336Y-80328132D01*
X116747386Y-80433435D01*
X116587249Y-80530572D01*
X116461491Y-80573242D01*
X116453945Y-80554967D01*
X116440410Y-80420510D01*
X116429555Y-80176751D01*
X116422338Y-79849187D01*
X116419719Y-79463312D01*
X116419772Y-79406092D01*
X116420117Y-79383299D01*
X116878423Y-79383299D01*
X116926028Y-79507209D01*
X117078220Y-79666285D01*
X117308495Y-79837180D01*
X117590348Y-79996547D01*
X117682088Y-80035747D01*
X117971012Y-80118266D01*
X118302866Y-80172809D01*
X118631681Y-80195352D01*
X118911488Y-80181873D01*
X119096318Y-80128349D01*
X119174166Y-80045549D01*
X119225533Y-79876711D01*
X119201834Y-79779250D01*
X119076065Y-79589583D01*
X118873164Y-79390905D01*
X118628586Y-79215825D01*
X118377781Y-79096952D01*
X118140714Y-79047119D01*
X117824457Y-79036610D01*
X117502174Y-79070827D01*
X117212053Y-79142759D01*
X116992284Y-79245395D01*
X116881055Y-79371724D01*
X116878423Y-79383299D01*
X116420117Y-79383299D01*
X116427562Y-78891018D01*
X116452043Y-78499280D01*
X116498206Y-78209079D01*
X116571045Y-77998613D01*
X116675550Y-77846083D01*
X116816715Y-77729687D01*
X117013633Y-77650365D01*
X117339094Y-77601624D01*
X117737787Y-77599127D01*
X118173352Y-77645141D01*
X118560998Y-77707448D01*
X118560998Y-77405170D01*
X118560998Y-77102893D01*
X117342684Y-77102893D01*
X116124370Y-77102893D01*
X116124370Y-76881381D01*
X116124370Y-76659869D01*
X119336288Y-76659869D01*
X122548207Y-76659869D01*
X122548207Y-76377922D01*
X122554980Y-76228208D01*
X122644451Y-75753457D01*
X122820714Y-75259307D01*
X123061942Y-74799130D01*
X123346311Y-74426294D01*
X123379058Y-74392528D01*
X123555319Y-74237231D01*
X123719432Y-74166304D01*
X123936023Y-74149404D01*
X124260148Y-74149404D01*
X123930212Y-74516372D01*
X123732142Y-74760290D01*
X123416001Y-75291435D01*
X123214023Y-75856292D01*
X123140710Y-76419898D01*
X123146370Y-76546015D01*
X123195545Y-76638787D01*
X123323498Y-76659869D01*
X123403770Y-76665159D01*
X123488223Y-76723073D01*
X123508091Y-76881381D01*
X123503682Y-76977708D01*
X123455421Y-77079052D01*
X123323498Y-77102893D01*
X123138905Y-77102893D01*
X123138905Y-78688892D01*
X123138905Y-80274891D01*
X122849868Y-80422347D01*
X122560830Y-80569803D01*
X122536059Y-79735119D01*
X122533109Y-79639149D01*
X122518482Y-79295657D01*
X122495853Y-79055466D01*
X122457987Y-78882405D01*
X122397650Y-78740304D01*
X122307606Y-78592992D01*
X122287243Y-78562927D01*
X121966435Y-78212071D01*
X121576851Y-77970888D01*
X121148242Y-77858233D01*
X121074577Y-77851724D01*
X120870687Y-77850808D01*
X120734254Y-77900632D01*
X120604045Y-78019322D01*
X120444130Y-78261014D01*
X120359688Y-78613625D01*
X120395988Y-79010395D01*
X120550768Y-79432207D01*
X120821767Y-79859946D01*
X120903579Y-79966312D01*
X121036413Y-80149911D01*
X121092689Y-80261953D01*
X121083802Y-80332921D01*
X121021147Y-80393294D01*
X120978957Y-80424475D01*
X120768792Y-80534536D01*
X120590031Y-80520584D01*
X120399811Y-80381830D01*
X120122126Y-80028875D01*
X119953042Y-79621325D01*
X119891805Y-79188996D01*
X119932954Y-78757211D01*
X120071029Y-78351295D01*
X120300568Y-77996571D01*
X120616112Y-77718362D01*
X121012198Y-77541992D01*
X121094229Y-77522578D01*
X121450359Y-77509616D01*
X121796680Y-77625293D01*
X122157179Y-77876617D01*
X122280142Y-77978843D01*
X122428696Y-78092438D01*
X122504567Y-78136614D01*
X122506300Y-78136208D01*
X122527479Y-78059123D01*
X122542499Y-77874520D01*
X122548207Y-77619753D01*
X122548207Y-77102893D01*
X120739195Y-77102893D01*
X118930184Y-77102893D01*
X118930184Y-77546918D01*
X118938485Y-77746428D01*
X118970992Y-77984336D01*
X119019685Y-78134257D01*
X119036790Y-78162576D01*
X119079440Y-78273336D01*
X119027884Y-78311261D01*
X118870100Y-78277444D01*
X118594068Y-78172980D01*
X118391655Y-78099262D01*
X117977183Y-78003467D01*
X117592977Y-77983316D01*
X117271192Y-78038866D01*
X117043979Y-78170176D01*
X117037528Y-78176746D01*
X116913863Y-78358000D01*
X116862742Y-78540235D01*
X116864077Y-78604575D01*
X116890229Y-78684964D01*
X116981047Y-78702072D01*
X117176550Y-78672806D01*
X117513852Y-78631856D01*
X118011186Y-78638739D01*
X118444029Y-78725245D01*
X118599167Y-78792343D01*
X118865898Y-78964195D01*
X119116079Y-79182260D01*
X119310523Y-79410525D01*
X119410042Y-79612979D01*
X119414032Y-79632643D01*
X119400335Y-79876711D01*
X119397894Y-79920214D01*
G37*
G36*
X130710538Y-80207538D02*
G01*
X130456469Y-80412656D01*
X130095950Y-80550564D01*
X129634024Y-80601987D01*
X129599720Y-80602000D01*
X129289677Y-80584765D01*
X129043496Y-80523235D01*
X128786335Y-80399535D01*
X128638668Y-80323508D01*
X128468991Y-80261611D01*
X128394573Y-80275131D01*
X128329297Y-80346703D01*
X128182692Y-80447769D01*
X128018031Y-80535676D01*
X127897335Y-80573242D01*
X127887706Y-80546513D01*
X127876281Y-80398763D01*
X127870550Y-80143554D01*
X127870930Y-79805772D01*
X127877516Y-79428765D01*
X128418265Y-79428765D01*
X128418357Y-79432642D01*
X128485218Y-79562408D01*
X128652282Y-79721874D01*
X128884278Y-79885975D01*
X129145934Y-80029645D01*
X129401975Y-80127818D01*
X129572593Y-80163563D01*
X129870425Y-80193631D01*
X130177850Y-80197011D01*
X130443229Y-80173852D01*
X130614922Y-80124304D01*
X130625309Y-80118046D01*
X130729796Y-79991840D01*
X130708907Y-79813749D01*
X130561552Y-79572508D01*
X130508545Y-79508274D01*
X130188667Y-79249942D01*
X129785155Y-79082371D01*
X129336377Y-79022775D01*
X129267840Y-79024067D01*
X128942588Y-79065803D01*
X128671937Y-79156291D01*
X128486843Y-79281842D01*
X128418265Y-79428765D01*
X127877516Y-79428765D01*
X127877838Y-79410305D01*
X127886901Y-79106869D01*
X127911300Y-78651568D01*
X127950892Y-78311788D01*
X128011787Y-78066771D01*
X128100095Y-77895762D01*
X128221925Y-77778006D01*
X128383386Y-77692746D01*
X128444128Y-77670371D01*
X128783521Y-77604678D01*
X129202842Y-77594850D01*
X129655038Y-77642737D01*
X130005765Y-77702639D01*
X130005765Y-77402766D01*
X130005765Y-77102893D01*
X128824370Y-77102893D01*
X127642974Y-77102893D01*
X127642974Y-76881381D01*
X127642974Y-76659869D01*
X133217684Y-76659869D01*
X138792393Y-76659869D01*
X138792393Y-76881381D01*
X138792393Y-77102893D01*
X136761870Y-77102893D01*
X134731347Y-77102893D01*
X134731347Y-78251036D01*
X134729770Y-78601796D01*
X134718695Y-79011595D01*
X134691477Y-79316813D01*
X134641714Y-79543060D01*
X134563003Y-79715948D01*
X134448943Y-79861086D01*
X134293131Y-80004087D01*
X134186809Y-80080674D01*
X133838637Y-80230684D01*
X133424528Y-80307424D01*
X132990463Y-80309170D01*
X132582424Y-80234200D01*
X132246392Y-80080791D01*
X131987866Y-79905350D01*
X132012077Y-80891416D01*
X132013276Y-80939965D01*
X132024505Y-81327156D01*
X132039398Y-81600170D01*
X132063632Y-81789297D01*
X132102886Y-81924830D01*
X132162835Y-82037058D01*
X132249159Y-82156272D01*
X132484162Y-82391721D01*
X132829105Y-82598398D01*
X133223384Y-82731633D01*
X133638090Y-82790330D01*
X134044315Y-82773390D01*
X134413153Y-82679717D01*
X134715694Y-82508213D01*
X134923033Y-82257781D01*
X134935361Y-82232294D01*
X134962912Y-82023974D01*
X134846046Y-81841738D01*
X134584389Y-81685235D01*
X134177568Y-81554111D01*
X134149486Y-81547157D01*
X133898471Y-81483914D01*
X133714872Y-81435768D01*
X133636717Y-81412665D01*
X133641821Y-81386971D01*
X133704538Y-81269242D01*
X133816416Y-81091205D01*
X133899983Y-80968825D01*
X134008307Y-80849138D01*
X134119694Y-80812499D01*
X134283430Y-80831499D01*
X134432263Y-80866014D01*
X134781112Y-81010372D01*
X135063815Y-81216877D01*
X135260583Y-81463395D01*
X135351629Y-81727790D01*
X135317166Y-81987926D01*
X135171795Y-82245854D01*
X134859260Y-82557060D01*
X134436754Y-82791736D01*
X133919137Y-82939765D01*
X133687196Y-82970271D01*
X133161001Y-82964918D01*
X132648495Y-82867274D01*
X132189575Y-82686980D01*
X131824142Y-82433672D01*
X131822192Y-82431841D01*
X131704579Y-82314456D01*
X131611626Y-82196037D01*
X131540442Y-82058254D01*
X131488138Y-81882778D01*
X131451824Y-81651280D01*
X131428611Y-81345432D01*
X131415607Y-80946904D01*
X131409924Y-80437368D01*
X131408672Y-79798495D01*
X131408672Y-77837610D01*
X131574806Y-77775460D01*
X131606374Y-77763579D01*
X131816696Y-77684486D01*
X131952354Y-77652174D01*
X132029591Y-77686794D01*
X132064651Y-77808494D01*
X132073775Y-78037425D01*
X132073207Y-78393735D01*
X132080644Y-78779524D01*
X132113858Y-79123457D01*
X132183051Y-79387962D01*
X132298252Y-79609223D01*
X132469489Y-79823426D01*
X132627048Y-79966952D01*
X132945471Y-80139562D01*
X133288451Y-80210527D01*
X133618108Y-80174470D01*
X133896561Y-80026012D01*
X134103730Y-79847968D01*
X134126756Y-78475430D01*
X134149781Y-77102893D01*
X132262366Y-77102893D01*
X130374951Y-77102893D01*
X130374951Y-77529487D01*
X130375539Y-77583941D01*
X130410062Y-77909125D01*
X130493238Y-78124959D01*
X130571489Y-78261926D01*
X130553804Y-78326549D01*
X130424824Y-78308040D01*
X130178035Y-78208117D01*
X130056926Y-78159974D01*
X129690363Y-78062721D01*
X129282703Y-78007442D01*
X129227996Y-78003631D01*
X128960828Y-77991331D01*
X128789925Y-78004562D01*
X128671756Y-78051312D01*
X128562790Y-78139572D01*
X128445851Y-78291250D01*
X128381347Y-78520077D01*
X128387585Y-78637454D01*
X128439776Y-78699556D01*
X128584399Y-78675306D01*
X128633288Y-78663294D01*
X128991760Y-78621831D01*
X129399440Y-78633569D01*
X129792353Y-78693424D01*
X130106524Y-78796309D01*
X130207600Y-78848391D01*
X130561437Y-79100448D01*
X130783606Y-79381665D01*
X130879150Y-79672769D01*
X130853113Y-79954485D01*
X130832066Y-79991840D01*
X130710538Y-80207538D01*
G37*
G36*
X131983174Y-75155909D02*
G01*
X131983166Y-75193788D01*
X131982953Y-75349940D01*
X131982469Y-75497033D01*
X131981742Y-75632634D01*
X131980796Y-75754310D01*
X131979656Y-75859627D01*
X131978347Y-75946153D01*
X131976896Y-76011456D01*
X131975328Y-76053100D01*
X131973667Y-76068655D01*
X131970677Y-76070156D01*
X131945245Y-76074242D01*
X131901011Y-76077092D01*
X131845312Y-76078163D01*
X131726465Y-76078163D01*
X131726465Y-75165417D01*
X131726465Y-74252672D01*
X131854820Y-74252672D01*
X131983174Y-74252672D01*
X131983174Y-75155909D01*
G37*
G36*
X130121825Y-74252273D02*
G01*
X130290942Y-74252529D01*
X130486662Y-74252672D01*
X131484017Y-74252672D01*
X131484017Y-74388157D01*
X131484017Y-74523643D01*
X131059019Y-74523643D01*
X131005268Y-74523693D01*
X130883048Y-74524320D01*
X130786535Y-74525728D01*
X130713698Y-74527998D01*
X130662503Y-74531207D01*
X130630917Y-74535433D01*
X130616908Y-74540757D01*
X130613109Y-74551087D01*
X130609686Y-74576679D01*
X130606839Y-74619001D01*
X130604532Y-74679737D01*
X130602728Y-74760572D01*
X130601389Y-74863191D01*
X130600478Y-74989278D01*
X130599959Y-75140517D01*
X130599794Y-75318594D01*
X130599794Y-76079316D01*
X130482136Y-76075174D01*
X130364477Y-76071032D01*
X130357036Y-75300903D01*
X130356260Y-75222353D01*
X130354781Y-75081382D01*
X130353298Y-74950632D01*
X130351847Y-74832720D01*
X130350464Y-74730258D01*
X130349186Y-74645862D01*
X130348048Y-74582146D01*
X130347088Y-74541723D01*
X130346340Y-74527208D01*
X130344307Y-74526886D01*
X130320600Y-74526017D01*
X130273135Y-74525240D01*
X130205437Y-74524585D01*
X130121030Y-74524081D01*
X130023442Y-74523757D01*
X129916196Y-74523643D01*
X129842868Y-74523735D01*
X129733778Y-74523982D01*
X129648590Y-74523577D01*
X129584357Y-74521630D01*
X129538135Y-74517250D01*
X129506975Y-74509546D01*
X129487932Y-74497629D01*
X129478060Y-74480607D01*
X129474411Y-74457591D01*
X129474040Y-74427690D01*
X129474000Y-74390014D01*
X129473751Y-74382483D01*
X129471757Y-74357011D01*
X129469521Y-74335068D01*
X129468961Y-74316392D01*
X129471995Y-74300725D01*
X129480540Y-74287805D01*
X129496513Y-74277373D01*
X129521832Y-74269169D01*
X129558415Y-74262933D01*
X129608179Y-74258404D01*
X129673041Y-74255323D01*
X129754920Y-74253429D01*
X129855731Y-74252463D01*
X129977394Y-74252164D01*
X130121825Y-74252273D01*
G37*
G36*
X139042692Y-74883512D02*
G01*
X139100932Y-74884874D01*
X139194839Y-74888036D01*
X139266902Y-74892658D01*
X139321533Y-74899668D01*
X139363144Y-74909997D01*
X139396145Y-74924575D01*
X139424948Y-74944331D01*
X139453964Y-74970194D01*
X139459929Y-74975901D01*
X139485861Y-75001594D01*
X139506654Y-75025891D01*
X139522877Y-75052116D01*
X139535097Y-75083594D01*
X139543881Y-75123648D01*
X139549796Y-75175604D01*
X139553410Y-75242786D01*
X139555289Y-75328518D01*
X139556000Y-75436124D01*
X139556111Y-75568929D01*
X139556039Y-75624177D01*
X139555473Y-75730294D01*
X139554407Y-75825419D01*
X139552915Y-75906045D01*
X139551068Y-75968666D01*
X139548940Y-76009777D01*
X139546603Y-76025870D01*
X139543716Y-76028563D01*
X139526025Y-76034224D01*
X139499064Y-76021436D01*
X139498451Y-76021020D01*
X139492464Y-76012802D01*
X139487532Y-75995790D01*
X139483485Y-75967167D01*
X139480153Y-75924114D01*
X139477363Y-75863812D01*
X139474945Y-75783443D01*
X139472728Y-75680188D01*
X139470541Y-75551229D01*
X139463410Y-75094528D01*
X139409716Y-75040837D01*
X139356022Y-74987147D01*
X138992598Y-74982895D01*
X138977303Y-74982720D01*
X138865271Y-74981720D01*
X138777741Y-74981658D01*
X138711133Y-74982689D01*
X138661866Y-74984970D01*
X138626359Y-74988658D01*
X138601032Y-74993911D01*
X138582304Y-75000885D01*
X138569408Y-75008247D01*
X138530846Y-75041808D01*
X138494887Y-75086660D01*
X138468327Y-75133413D01*
X138457964Y-75172677D01*
X138453988Y-75195779D01*
X138437443Y-75230434D01*
X138427526Y-75242957D01*
X138412733Y-75249968D01*
X138393144Y-75234702D01*
X138379544Y-75211176D01*
X138376651Y-75165778D01*
X138389812Y-75110694D01*
X138416700Y-75052030D01*
X138454985Y-74995893D01*
X138502339Y-74948388D01*
X138530848Y-74929382D01*
X138574138Y-74911067D01*
X138630027Y-74897526D01*
X138701672Y-74888378D01*
X138792227Y-74883246D01*
X138904848Y-74881750D01*
X139042692Y-74883512D01*
G37*
G36*
X135149692Y-74241799D02*
G01*
X135169128Y-74260969D01*
X135169677Y-74263890D01*
X135171300Y-74290794D01*
X135172785Y-74342560D01*
X135174103Y-74416424D01*
X135175224Y-74509620D01*
X135176119Y-74619381D01*
X135176760Y-74742942D01*
X135177116Y-74877538D01*
X135177158Y-75020402D01*
X135176889Y-75177965D01*
X135176259Y-75330105D01*
X135175235Y-75457401D01*
X135173772Y-75561798D01*
X135171823Y-75645246D01*
X135169341Y-75709691D01*
X135166280Y-75757079D01*
X135162591Y-75789359D01*
X135158230Y-75808478D01*
X135121314Y-75881806D01*
X135060469Y-75952003D01*
X134985426Y-76001812D01*
X134982324Y-76003246D01*
X134941653Y-76019354D01*
X134899772Y-76029088D01*
X134847601Y-76033900D01*
X134776059Y-76035239D01*
X134757563Y-76035223D01*
X134686816Y-76033981D01*
X134639314Y-76030051D01*
X134610734Y-76022411D01*
X134596756Y-76010038D01*
X134593056Y-75991909D01*
X134593905Y-75979351D01*
X134600369Y-75965556D01*
X134617116Y-75956131D01*
X134648702Y-75949806D01*
X134699687Y-75945314D01*
X134774628Y-75941385D01*
X134824824Y-75938749D01*
X134881901Y-75933866D01*
X134922260Y-75926635D01*
X134953018Y-75915609D01*
X134981289Y-75899339D01*
X134996145Y-75889406D01*
X135022020Y-75870073D01*
X135042320Y-75849306D01*
X135057721Y-75823718D01*
X135068898Y-75789924D01*
X135076527Y-75744537D01*
X135081284Y-75684171D01*
X135083845Y-75605441D01*
X135084887Y-75504960D01*
X135085083Y-75379342D01*
X135085083Y-74987147D01*
X134851289Y-74980016D01*
X134770115Y-74977251D01*
X134703820Y-74973991D01*
X134658058Y-74970002D01*
X134628635Y-74964749D01*
X134611357Y-74957699D01*
X134602030Y-74948320D01*
X134595173Y-74933397D01*
X134600508Y-74910444D01*
X134608226Y-74907526D01*
X134640985Y-74902308D01*
X134693993Y-74897164D01*
X134762045Y-74892561D01*
X134839938Y-74888964D01*
X134886790Y-74887098D01*
X134959413Y-74883486D01*
X135019084Y-74879614D01*
X135060615Y-74875838D01*
X135078821Y-74872517D01*
X135079260Y-74872107D01*
X135083457Y-74853128D01*
X135087026Y-74809914D01*
X135089792Y-74746367D01*
X135091579Y-74666390D01*
X135092214Y-74573884D01*
X135092231Y-74555792D01*
X135092797Y-74467868D01*
X135094074Y-74389742D01*
X135095932Y-74326097D01*
X135098240Y-74281612D01*
X135100871Y-74260969D01*
X135101902Y-74258564D01*
X135122572Y-74240997D01*
X135149692Y-74241799D01*
G37*
G36*
X141795621Y-74241799D02*
G01*
X141815057Y-74260969D01*
X141815551Y-74263441D01*
X141817203Y-74289444D01*
X141818739Y-74340390D01*
X141820126Y-74413501D01*
X141821332Y-74505999D01*
X141822326Y-74615106D01*
X141823076Y-74738043D01*
X141823549Y-74872033D01*
X141823713Y-75014296D01*
X141823673Y-75177154D01*
X141823397Y-75324417D01*
X141822650Y-75447967D01*
X141821201Y-75550282D01*
X141818816Y-75633836D01*
X141815261Y-75701105D01*
X141810305Y-75754566D01*
X141803713Y-75796694D01*
X141795253Y-75829966D01*
X141784691Y-75856856D01*
X141771795Y-75879841D01*
X141756331Y-75901397D01*
X141738067Y-75924000D01*
X141728563Y-75934667D01*
X141683533Y-75974250D01*
X141635068Y-76005194D01*
X141616228Y-76013827D01*
X141583024Y-76024715D01*
X141542924Y-76031281D01*
X141488729Y-76034505D01*
X141413243Y-76035367D01*
X141354199Y-76035013D01*
X141301898Y-76033190D01*
X141269273Y-76029205D01*
X141251412Y-76022382D01*
X141243399Y-76012047D01*
X141239549Y-76000133D01*
X141239509Y-75976670D01*
X141255190Y-75959799D01*
X141289785Y-75948201D01*
X141346487Y-75940557D01*
X141428489Y-75935546D01*
X141494966Y-75931799D01*
X141563500Y-75923703D01*
X141613304Y-75909720D01*
X141649971Y-75887249D01*
X141679098Y-75853690D01*
X141706281Y-75806441D01*
X141713043Y-75792865D01*
X141721244Y-75773520D01*
X141727394Y-75751936D01*
X141731736Y-75724359D01*
X141734511Y-75687035D01*
X141735962Y-75636207D01*
X141736334Y-75568123D01*
X141735867Y-75479027D01*
X141734804Y-75365165D01*
X141731013Y-74987147D01*
X141497218Y-74980016D01*
X141416045Y-74977251D01*
X141349750Y-74973991D01*
X141303987Y-74970002D01*
X141274564Y-74964749D01*
X141257287Y-74957699D01*
X141247959Y-74948320D01*
X141244447Y-74942356D01*
X141238461Y-74922604D01*
X141246929Y-74907971D01*
X141272660Y-74897702D01*
X141318459Y-74891042D01*
X141387135Y-74887237D01*
X141481495Y-74885531D01*
X141515367Y-74885143D01*
X141588543Y-74883562D01*
X141650157Y-74881227D01*
X141694555Y-74878385D01*
X141716085Y-74875283D01*
X141720870Y-74872283D01*
X141727244Y-74861268D01*
X141731869Y-74839622D01*
X141735009Y-74803767D01*
X141736926Y-74750126D01*
X141737883Y-74675121D01*
X141738144Y-74575173D01*
X141738162Y-74555969D01*
X141738735Y-74467935D01*
X141740014Y-74389750D01*
X141741870Y-74326081D01*
X141744175Y-74281598D01*
X141746800Y-74260969D01*
X141747832Y-74258564D01*
X141768501Y-74240997D01*
X141795621Y-74241799D01*
G37*
G36*
X138166060Y-74897074D02*
G01*
X138188631Y-74910870D01*
X138189083Y-74911859D01*
X138192217Y-74934304D01*
X138195045Y-74980914D01*
X138197453Y-75047861D01*
X138199329Y-75131319D01*
X138200561Y-75227460D01*
X138201036Y-75332457D01*
X138201046Y-75384430D01*
X138200829Y-75493002D01*
X138200086Y-75578355D01*
X138198587Y-75644253D01*
X138196105Y-75694461D01*
X138192409Y-75732743D01*
X138187270Y-75762863D01*
X138180460Y-75788584D01*
X138171749Y-75813672D01*
X138137189Y-75883912D01*
X138075107Y-75957015D01*
X137994777Y-76008693D01*
X137978914Y-76015129D01*
X137958254Y-76021024D01*
X137931569Y-76025627D01*
X137895646Y-76029098D01*
X137847270Y-76031596D01*
X137783228Y-76033282D01*
X137700305Y-76034315D01*
X137595287Y-76034856D01*
X137464960Y-76035065D01*
X137356079Y-76035010D01*
X137243778Y-76034514D01*
X137155235Y-76033446D01*
X137087805Y-76031701D01*
X137038844Y-76029176D01*
X137005707Y-76025767D01*
X136985749Y-76021371D01*
X136976327Y-76015883D01*
X136971920Y-76001107D01*
X136968369Y-75966665D01*
X136965746Y-75911185D01*
X136964020Y-75833171D01*
X136963156Y-75731130D01*
X136963121Y-75603565D01*
X136963885Y-75448983D01*
X136964407Y-75373467D01*
X136965373Y-75247947D01*
X136966411Y-75146917D01*
X136967680Y-75067722D01*
X136969334Y-75007704D01*
X136971532Y-74964208D01*
X136974430Y-74934577D01*
X136978183Y-74916155D01*
X136982949Y-74906285D01*
X136988884Y-74902311D01*
X136996145Y-74901577D01*
X136996235Y-74901577D01*
X137003797Y-74902385D01*
X137009912Y-74906652D01*
X137014762Y-74917164D01*
X137018525Y-74936704D01*
X137021384Y-74968057D01*
X137023519Y-75014009D01*
X137025109Y-75077345D01*
X137026336Y-75160848D01*
X137027379Y-75267305D01*
X137028421Y-75399499D01*
X137028462Y-75404885D01*
X137030061Y-75558154D01*
X137032294Y-75683480D01*
X137035183Y-75781420D01*
X137038749Y-75852530D01*
X137043012Y-75897366D01*
X137047994Y-75916484D01*
X137049262Y-75917477D01*
X137072129Y-75922688D01*
X137118507Y-75927109D01*
X137184141Y-75930726D01*
X137264775Y-75933525D01*
X137356153Y-75935491D01*
X137454021Y-75936610D01*
X137554121Y-75936868D01*
X137652200Y-75936252D01*
X137744000Y-75934745D01*
X137825267Y-75932336D01*
X137891744Y-75929008D01*
X137939177Y-75924748D01*
X137963309Y-75919542D01*
X137974838Y-75913067D01*
X138021660Y-75877871D01*
X138064233Y-75834326D01*
X138091899Y-75792930D01*
X138094872Y-75782050D01*
X138100030Y-75740873D01*
X138104741Y-75673522D01*
X138108928Y-75581514D01*
X138112514Y-75466369D01*
X138115421Y-75329604D01*
X138117496Y-75213994D01*
X138119546Y-75116335D01*
X138121680Y-75041308D01*
X138124135Y-74985885D01*
X138127153Y-74947035D01*
X138130972Y-74921730D01*
X138135831Y-74906940D01*
X138141970Y-74899635D01*
X138149629Y-74896786D01*
X138166060Y-74897074D01*
G37*
G36*
X135934260Y-68956132D02*
G01*
X136158743Y-68994358D01*
X136378082Y-69059359D01*
X136589688Y-69151033D01*
X136717737Y-69222401D01*
X136903543Y-69350916D01*
X137073241Y-69499534D01*
X137224518Y-69665610D01*
X137355057Y-69846497D01*
X137462545Y-70039553D01*
X137544666Y-70242131D01*
X137560705Y-70292442D01*
X137611007Y-70496946D01*
X137637292Y-70704432D01*
X137640642Y-70922576D01*
X137637262Y-70998725D01*
X137627127Y-71121461D01*
X137610300Y-71232763D01*
X137584950Y-71343494D01*
X137549244Y-71464519D01*
X137534845Y-71506082D01*
X137498046Y-71597207D01*
X137452594Y-71696630D01*
X137402842Y-71795489D01*
X137353140Y-71884924D01*
X137307841Y-71956073D01*
X137289207Y-71980553D01*
X137251864Y-72025073D01*
X137204434Y-72078482D01*
X137150551Y-72137009D01*
X137093847Y-72196882D01*
X137037959Y-72254327D01*
X136986518Y-72305574D01*
X136943159Y-72346849D01*
X136911517Y-72374380D01*
X136895225Y-72384395D01*
X136882816Y-72388140D01*
X136859926Y-72406671D01*
X136833036Y-72432379D01*
X136777975Y-72471903D01*
X136704599Y-72516081D01*
X136617803Y-72562336D01*
X136522481Y-72608091D01*
X136423531Y-72650768D01*
X136325847Y-72687792D01*
X136322403Y-72688993D01*
X136253226Y-72711675D01*
X136186855Y-72729949D01*
X136115485Y-72745530D01*
X136031309Y-72760130D01*
X135926521Y-72775465D01*
X135923895Y-72775806D01*
X135878909Y-72778579D01*
X135813063Y-72779230D01*
X135733328Y-72778031D01*
X135646676Y-72775254D01*
X135560078Y-72771170D01*
X135480504Y-72766050D01*
X135414926Y-72760167D01*
X135370316Y-72753792D01*
X135286049Y-72734439D01*
X135074810Y-72668101D01*
X134870781Y-72579009D01*
X134679746Y-72469914D01*
X134507487Y-72343564D01*
X134505187Y-72341640D01*
X134465971Y-72306943D01*
X134418581Y-72262415D01*
X134367148Y-72212258D01*
X134315799Y-72160677D01*
X134268662Y-72111875D01*
X134229868Y-72070056D01*
X134203543Y-72039425D01*
X134193818Y-72024184D01*
X134191605Y-72018376D01*
X134176856Y-71992534D01*
X134151319Y-71952132D01*
X134118586Y-71902960D01*
X134089182Y-71858203D01*
X133984905Y-71667817D01*
X133904144Y-71464100D01*
X133847602Y-71250271D01*
X133815980Y-71029548D01*
X133809978Y-70805150D01*
X133830300Y-70580297D01*
X133832339Y-70567124D01*
X133847506Y-70483543D01*
X133866109Y-70399086D01*
X133886292Y-70321032D01*
X133906196Y-70256661D01*
X133923964Y-70213253D01*
X133930810Y-70197888D01*
X133937021Y-70172566D01*
X133938492Y-70165838D01*
X133950350Y-70135946D01*
X133971652Y-70089664D01*
X133999451Y-70032830D01*
X134030798Y-69971285D01*
X134062747Y-69910867D01*
X134092348Y-69857416D01*
X134116654Y-69816770D01*
X134147192Y-69770789D01*
X134280930Y-69600260D01*
X134436709Y-69443665D01*
X134610852Y-69304043D01*
X134799679Y-69184429D01*
X134999514Y-69087860D01*
X135036638Y-69073032D01*
X135255821Y-69003131D01*
X135480211Y-68960415D01*
X135707220Y-68944783D01*
X135934260Y-68956132D01*
G37*
G36*
X136114661Y-74894936D02*
G01*
X136233511Y-74895617D01*
X136329789Y-74897303D01*
X136406513Y-74900499D01*
X136466703Y-74905707D01*
X136513376Y-74913431D01*
X136549549Y-74924176D01*
X136578241Y-74938446D01*
X136602471Y-74956743D01*
X136625255Y-74979572D01*
X136649613Y-75007437D01*
X136655157Y-75014073D01*
X136702355Y-75092037D01*
X136722509Y-75174301D01*
X136715856Y-75257244D01*
X136682634Y-75337243D01*
X136623082Y-75410674D01*
X136610894Y-75421993D01*
X136582575Y-75445208D01*
X136552754Y-75463104D01*
X136517572Y-75476344D01*
X136473170Y-75485588D01*
X136415689Y-75491499D01*
X136341271Y-75494737D01*
X136246055Y-75495963D01*
X136126184Y-75495840D01*
X136069736Y-75495789D01*
X135971519Y-75496603D01*
X135881540Y-75498448D01*
X135804869Y-75501169D01*
X135746577Y-75504608D01*
X135711734Y-75508609D01*
X135679557Y-75516759D01*
X135608747Y-75550239D01*
X135555495Y-75598459D01*
X135521796Y-75656986D01*
X135509647Y-75721385D01*
X135521044Y-75787224D01*
X135557984Y-75850069D01*
X135573115Y-75867819D01*
X135591845Y-75887447D01*
X135611960Y-75903190D01*
X135636474Y-75915496D01*
X135668403Y-75924811D01*
X135710762Y-75931582D01*
X135766568Y-75936256D01*
X135838835Y-75939280D01*
X135930578Y-75941100D01*
X136044814Y-75942164D01*
X136184557Y-75942918D01*
X136285489Y-75943617D01*
X136395282Y-75944877D01*
X136493382Y-75946539D01*
X136576425Y-75948520D01*
X136641043Y-75950738D01*
X136683871Y-75953110D01*
X136701542Y-75955555D01*
X136709534Y-75962236D01*
X136716966Y-75988767D01*
X136700928Y-76018264D01*
X136700703Y-76018477D01*
X136686985Y-76023348D01*
X136656495Y-76027285D01*
X136607275Y-76030355D01*
X136537368Y-76032621D01*
X136444815Y-76034147D01*
X136327660Y-76034999D01*
X136183944Y-76035239D01*
X136164508Y-76035233D01*
X136035464Y-76035138D01*
X135931326Y-76034818D01*
X135848905Y-76034084D01*
X135785012Y-76032749D01*
X135736459Y-76030625D01*
X135700056Y-76027526D01*
X135672616Y-76023264D01*
X135650949Y-76017651D01*
X135631867Y-76010500D01*
X135612182Y-76001622D01*
X135559338Y-75971721D01*
X135492695Y-75912142D01*
X135447908Y-75841856D01*
X135424839Y-75765167D01*
X135423347Y-75686380D01*
X135443296Y-75609801D01*
X135484545Y-75539733D01*
X135546957Y-75480483D01*
X135630392Y-75436354D01*
X135652393Y-75428719D01*
X135679010Y-75421671D01*
X135710385Y-75416401D01*
X135750480Y-75412655D01*
X135803254Y-75410181D01*
X135872669Y-75408726D01*
X135962684Y-75408038D01*
X136077261Y-75407865D01*
X136108079Y-75407846D01*
X136224414Y-75407277D01*
X136315932Y-75405817D01*
X136385635Y-75403323D01*
X136436526Y-75399655D01*
X136471607Y-75394671D01*
X136493880Y-75388229D01*
X136524432Y-75372680D01*
X136581022Y-75325165D01*
X136616571Y-75266222D01*
X136630463Y-75201182D01*
X136622084Y-75135378D01*
X136590818Y-75074140D01*
X136536050Y-75022801D01*
X136482725Y-74987147D01*
X135974194Y-74983071D01*
X135908472Y-74982514D01*
X135783357Y-74981188D01*
X135682888Y-74979622D01*
X135604398Y-74977691D01*
X135545222Y-74975266D01*
X135502694Y-74972223D01*
X135474147Y-74968434D01*
X135456915Y-74963773D01*
X135448332Y-74958114D01*
X135438278Y-74938938D01*
X135448756Y-74915838D01*
X135453610Y-74911801D01*
X135466614Y-74906834D01*
X135489058Y-74902895D01*
X135523668Y-74899877D01*
X135573170Y-74897669D01*
X135640290Y-74896163D01*
X135727754Y-74895248D01*
X135838288Y-74894817D01*
X135974617Y-74894759D01*
X136114661Y-74894936D01*
G37*
G36*
X141018579Y-74243770D02*
G01*
X141038821Y-74265996D01*
X141040440Y-74272662D01*
X141043385Y-74305786D01*
X141045973Y-74362795D01*
X141048204Y-74440606D01*
X141050078Y-74536136D01*
X141051594Y-74646304D01*
X141052754Y-74768025D01*
X141053557Y-74898217D01*
X141054002Y-75033799D01*
X141054091Y-75171686D01*
X141053822Y-75308796D01*
X141053197Y-75442047D01*
X141052214Y-75568356D01*
X141050875Y-75684640D01*
X141049178Y-75787816D01*
X141047124Y-75874802D01*
X141044713Y-75942516D01*
X141041946Y-75987873D01*
X141038821Y-76007792D01*
X141026140Y-76024084D01*
X141003669Y-76035378D01*
X140993371Y-76034011D01*
X140981715Y-76026355D01*
X140972555Y-76009502D01*
X140965601Y-75980691D01*
X140960561Y-75937162D01*
X140957147Y-75876154D01*
X140955068Y-75794908D01*
X140954033Y-75690663D01*
X140953753Y-75560659D01*
X140953751Y-75530238D01*
X140953651Y-75415955D01*
X140953225Y-75326013D01*
X140952236Y-75257020D01*
X140950450Y-75205583D01*
X140947631Y-75168310D01*
X140943544Y-75141807D01*
X140937954Y-75122681D01*
X140930626Y-75107541D01*
X140921325Y-75092992D01*
X140918810Y-75089366D01*
X140882312Y-75047519D01*
X140840776Y-75012444D01*
X140830699Y-75005848D01*
X140815271Y-74997505D01*
X140796836Y-74991184D01*
X140771748Y-74986604D01*
X140736362Y-74983485D01*
X140687034Y-74981547D01*
X140620118Y-74980509D01*
X140531968Y-74980093D01*
X140418941Y-74980016D01*
X140345726Y-74980040D01*
X140248526Y-74980300D01*
X140173957Y-74981076D01*
X140118381Y-74982646D01*
X140078160Y-74985287D01*
X140049657Y-74989276D01*
X140029234Y-74994890D01*
X140013253Y-75002407D01*
X139998077Y-75012105D01*
X139994253Y-75014769D01*
X139953997Y-75048491D01*
X139921094Y-75084422D01*
X139920051Y-75085838D01*
X139911834Y-75098531D01*
X139905256Y-75113794D01*
X139900066Y-75134870D01*
X139896016Y-75165003D01*
X139892856Y-75207438D01*
X139890337Y-75265418D01*
X139888209Y-75342187D01*
X139886223Y-75440989D01*
X139884129Y-75565069D01*
X139882582Y-75650237D01*
X139879437Y-75777686D01*
X139875732Y-75879098D01*
X139871496Y-75953851D01*
X139866760Y-76001325D01*
X139861556Y-76020900D01*
X139850445Y-76027439D01*
X139822336Y-76027189D01*
X139817990Y-76024747D01*
X139812144Y-76016718D01*
X139807590Y-76001033D01*
X139804172Y-75974712D01*
X139801729Y-75934773D01*
X139800105Y-75878235D01*
X139799141Y-75802118D01*
X139798678Y-75703440D01*
X139798559Y-75579221D01*
X139798643Y-75474425D01*
X139799237Y-75362798D01*
X139800800Y-75273686D01*
X139803786Y-75203715D01*
X139808650Y-75149508D01*
X139815847Y-75107690D01*
X139825833Y-75074885D01*
X139839063Y-75047717D01*
X139855991Y-75022810D01*
X139877072Y-74996790D01*
X139882570Y-74990535D01*
X139922695Y-74952781D01*
X139966736Y-74920195D01*
X139974190Y-74915644D01*
X139991277Y-74906558D01*
X140010621Y-74899567D01*
X140035975Y-74894331D01*
X140071091Y-74890515D01*
X140119720Y-74887782D01*
X140185615Y-74885794D01*
X140272529Y-74884216D01*
X140384212Y-74882709D01*
X140391488Y-74882617D01*
X140502845Y-74881376D01*
X140590057Y-74880936D01*
X140657257Y-74881528D01*
X140708578Y-74883384D01*
X140748154Y-74886734D01*
X140780118Y-74891809D01*
X140808602Y-74898842D01*
X140837742Y-74908062D01*
X140882779Y-74921586D01*
X140920658Y-74929685D01*
X140940214Y-74929653D01*
X140941222Y-74928303D01*
X140945348Y-74905861D01*
X140948808Y-74859114D01*
X140951459Y-74791502D01*
X140953155Y-74706462D01*
X140953753Y-74607434D01*
X140953806Y-74565212D01*
X140954684Y-74460341D01*
X140956962Y-74379911D01*
X140961048Y-74320896D01*
X140967352Y-74280266D01*
X140976284Y-74254994D01*
X140988253Y-74242051D01*
X141003669Y-74238410D01*
X141018579Y-74243770D01*
G37*
G36*
X134106290Y-74252724D02*
G01*
X134160497Y-74261161D01*
X134203631Y-74287084D01*
X134243646Y-74321496D01*
X134247632Y-75199830D01*
X134251617Y-76078163D01*
X134130130Y-76078163D01*
X134008642Y-76078163D01*
X134004920Y-75482739D01*
X134004183Y-75368693D01*
X134003234Y-75242907D01*
X134002179Y-75141156D01*
X134000889Y-75060898D01*
X133999231Y-74999590D01*
X133997074Y-74954690D01*
X133994288Y-74923655D01*
X133990742Y-74903942D01*
X133986304Y-74893010D01*
X133980843Y-74888315D01*
X133974229Y-74887315D01*
X133958386Y-74890469D01*
X133935097Y-74908708D01*
X133928243Y-74921719D01*
X133909216Y-74959801D01*
X133881383Y-75016601D01*
X133846765Y-75087901D01*
X133807384Y-75169484D01*
X133765261Y-75257133D01*
X133722418Y-75346632D01*
X133680875Y-75433763D01*
X133642655Y-75514309D01*
X133609778Y-75584053D01*
X133584265Y-75638778D01*
X133568139Y-75674268D01*
X133549665Y-75714930D01*
X133512813Y-75790347D01*
X133473766Y-75864472D01*
X133435964Y-75931109D01*
X133402846Y-75984063D01*
X133377849Y-76017137D01*
X133327550Y-76054363D01*
X133262395Y-76071988D01*
X133194127Y-76063476D01*
X133186766Y-76060870D01*
X133143759Y-76039799D01*
X133111674Y-76015432D01*
X133102059Y-76001798D01*
X133081178Y-75966703D01*
X133053511Y-75917130D01*
X133022007Y-75858708D01*
X132989616Y-75797068D01*
X132959288Y-75737838D01*
X132933973Y-75686648D01*
X132916621Y-75649128D01*
X132910182Y-75630906D01*
X132908140Y-75625546D01*
X132895727Y-75598140D01*
X132873558Y-75550905D01*
X132843376Y-75487515D01*
X132806926Y-75411647D01*
X132765951Y-75326975D01*
X132746957Y-75287812D01*
X132704122Y-75199188D01*
X132664465Y-75116733D01*
X132630315Y-75045315D01*
X132604003Y-74989801D01*
X132587860Y-74955058D01*
X132570137Y-74919540D01*
X132547531Y-74889351D01*
X132525297Y-74880184D01*
X132524770Y-74880185D01*
X132517851Y-74880933D01*
X132512169Y-74884801D01*
X132507601Y-74894329D01*
X132504027Y-74912058D01*
X132501325Y-74940529D01*
X132499372Y-74982281D01*
X132498047Y-75039854D01*
X132497229Y-75115790D01*
X132496795Y-75212629D01*
X132496624Y-75332910D01*
X132496594Y-75479174D01*
X132496594Y-76078163D01*
X132376016Y-76078163D01*
X132255438Y-76078163D01*
X132246871Y-76031813D01*
X132245767Y-76018372D01*
X132244426Y-75977030D01*
X132243331Y-75911843D01*
X132242494Y-75825535D01*
X132241929Y-75720831D01*
X132241650Y-75600455D01*
X132241670Y-75467133D01*
X132242002Y-75323589D01*
X132242659Y-75172548D01*
X132243384Y-75042929D01*
X132244389Y-74888008D01*
X132245474Y-74757673D01*
X132246714Y-74649644D01*
X132248188Y-74561643D01*
X132249971Y-74491391D01*
X132252139Y-74436609D01*
X132254770Y-74395020D01*
X132257939Y-74364344D01*
X132261724Y-74342303D01*
X132266201Y-74326619D01*
X132271445Y-74315012D01*
X132285284Y-74292440D01*
X132310922Y-74267538D01*
X132347008Y-74255686D01*
X132402391Y-74252672D01*
X132433447Y-74255040D01*
X132462925Y-74264831D01*
X132490782Y-74285175D01*
X132519625Y-74319188D01*
X132552065Y-74369987D01*
X132590708Y-74440689D01*
X132638164Y-74534412D01*
X132659996Y-74578536D01*
X132691365Y-74642427D01*
X132716424Y-74694084D01*
X132733030Y-74729079D01*
X132739042Y-74742982D01*
X132744217Y-74755406D01*
X132759883Y-74789696D01*
X132784121Y-74841632D01*
X132814986Y-74907051D01*
X132850536Y-74981792D01*
X132877170Y-75037699D01*
X132918646Y-75125178D01*
X132958208Y-75209063D01*
X132992381Y-75281981D01*
X133017690Y-75336557D01*
X133050573Y-75407261D01*
X133100126Y-75509985D01*
X133143861Y-75595774D01*
X133180511Y-75662271D01*
X133208814Y-75707117D01*
X133227503Y-75727953D01*
X133228722Y-75728673D01*
X133248243Y-75736931D01*
X133266455Y-75735482D01*
X133285447Y-75721574D01*
X133307309Y-75692454D01*
X133334131Y-75645370D01*
X133368004Y-75577571D01*
X133411016Y-75486304D01*
X133460807Y-75379281D01*
X133552576Y-75182822D01*
X133639940Y-74996830D01*
X133721427Y-74824409D01*
X133795570Y-74668664D01*
X133860897Y-74532699D01*
X133915941Y-74419618D01*
X133925786Y-74400038D01*
X133966778Y-74330578D01*
X134007090Y-74285080D01*
X134050392Y-74260220D01*
X134100358Y-74252672D01*
X134106290Y-74252724D01*
G37*
G36*
X135248089Y-66690268D02*
G01*
X135274987Y-66740473D01*
X135321085Y-66826167D01*
X135365841Y-66908989D01*
X135405235Y-66981503D01*
X135435244Y-67036276D01*
X135445593Y-67055071D01*
X135486813Y-67130615D01*
X135531018Y-67212437D01*
X135570265Y-67285855D01*
X135611239Y-67363167D01*
X135669682Y-67473426D01*
X135717162Y-67562282D01*
X135755324Y-67632032D01*
X135785811Y-67684975D01*
X135810267Y-67723406D01*
X135830337Y-67749622D01*
X135847665Y-67765921D01*
X135863895Y-67774600D01*
X135880670Y-67777955D01*
X135899635Y-67778283D01*
X135922434Y-67777882D01*
X135960837Y-67778895D01*
X136066151Y-67788596D01*
X136188378Y-67807363D01*
X136320997Y-67833699D01*
X136457490Y-67866109D01*
X136591335Y-67903099D01*
X136716013Y-67943174D01*
X136825005Y-67984838D01*
X136883107Y-68009540D01*
X136945297Y-68036282D01*
X136988780Y-68055503D01*
X137018023Y-68069189D01*
X137037491Y-68079326D01*
X137042890Y-68082321D01*
X137073938Y-68099186D01*
X137119911Y-68123888D01*
X137172977Y-68152213D01*
X137196713Y-68164884D01*
X137242601Y-68189940D01*
X137282238Y-68212966D01*
X137321475Y-68237739D01*
X137366164Y-68268040D01*
X137422156Y-68307645D01*
X137495302Y-68360332D01*
X137520801Y-68379535D01*
X137589829Y-68436473D01*
X137669740Y-68507549D01*
X137755169Y-68587562D01*
X137840751Y-68671312D01*
X137921123Y-68753598D01*
X137990919Y-68829221D01*
X138044775Y-68892979D01*
X138060576Y-68913255D01*
X138115365Y-68986595D01*
X138173115Y-69069020D01*
X138239382Y-69168393D01*
X138253785Y-69191451D01*
X138289714Y-69254529D01*
X138331353Y-69332993D01*
X138375058Y-69419545D01*
X138417186Y-69506883D01*
X138454093Y-69587709D01*
X138482135Y-69654724D01*
X138500336Y-69701654D01*
X138521331Y-69756271D01*
X138535444Y-69794157D01*
X138544803Y-69821291D01*
X138551535Y-69843651D01*
X138557767Y-69867214D01*
X138558317Y-69869362D01*
X138567867Y-69906164D01*
X138581681Y-69958919D01*
X138596968Y-70016961D01*
X138612072Y-70079026D01*
X138628480Y-70156098D01*
X138640669Y-70223755D01*
X138648553Y-70274453D01*
X138660466Y-70350467D01*
X138671133Y-70417932D01*
X138675313Y-70451147D01*
X138680762Y-70525495D01*
X138684200Y-70616366D01*
X138685626Y-70716270D01*
X138685039Y-70817717D01*
X138682438Y-70913217D01*
X138677823Y-70995281D01*
X138671193Y-71056418D01*
X138655998Y-71149291D01*
X138624193Y-71323361D01*
X138590924Y-71476115D01*
X138554837Y-71612414D01*
X138514576Y-71737119D01*
X138468784Y-71855090D01*
X138416108Y-71971190D01*
X138412184Y-71979339D01*
X138384542Y-72043046D01*
X138373343Y-72089627D01*
X138379474Y-72125258D01*
X138403820Y-72156118D01*
X138447268Y-72188384D01*
X138468124Y-72202112D01*
X138513760Y-72232189D01*
X138577263Y-72274065D01*
X138655278Y-72325528D01*
X138744452Y-72384365D01*
X138841431Y-72448363D01*
X138942860Y-72515311D01*
X139024810Y-72569349D01*
X139120644Y-72632393D01*
X139208368Y-72689941D01*
X139284846Y-72739946D01*
X139346944Y-72780357D01*
X139391526Y-72809125D01*
X139415457Y-72824201D01*
X139438475Y-72838253D01*
X139470366Y-72861346D01*
X139486190Y-72884331D01*
X139487057Y-72913747D01*
X139474078Y-72956132D01*
X139448361Y-73018025D01*
X139435288Y-73047341D01*
X139411577Y-73095074D01*
X139391881Y-73127993D01*
X139379486Y-73140263D01*
X139376768Y-73139906D01*
X139351534Y-73133022D01*
X139306372Y-73118708D01*
X139246704Y-73098725D01*
X139177950Y-73074833D01*
X139099699Y-73047313D01*
X139008592Y-73015509D01*
X138921623Y-72985366D01*
X138850159Y-72960835D01*
X138806799Y-72945894D01*
X138749094Y-72925443D01*
X138704113Y-72908825D01*
X138679019Y-72898644D01*
X138668424Y-72894087D01*
X138630336Y-72879542D01*
X138574816Y-72859482D01*
X138508188Y-72836073D01*
X138436775Y-72811484D01*
X138366904Y-72787881D01*
X138304897Y-72767433D01*
X138257080Y-72752307D01*
X138229777Y-72744671D01*
X138204097Y-72737387D01*
X138179749Y-72725881D01*
X138173297Y-72721914D01*
X138143709Y-72708475D01*
X138103061Y-72693183D01*
X138081839Y-72686516D01*
X138044238Y-72680345D01*
X138009041Y-72685825D01*
X137970804Y-72705278D01*
X137924084Y-72741027D01*
X137863438Y-72795392D01*
X137834738Y-72821973D01*
X137722509Y-72924189D01*
X137622503Y-73011412D01*
X137529909Y-73086908D01*
X137439918Y-73153943D01*
X137347719Y-73215787D01*
X137248504Y-73275705D01*
X137137462Y-73336966D01*
X137009784Y-73402836D01*
X136860659Y-73476583D01*
X136827066Y-73490657D01*
X136770899Y-73511122D01*
X136700832Y-73534898D01*
X136623898Y-73559719D01*
X136547129Y-73583321D01*
X136477557Y-73603438D01*
X136422214Y-73617805D01*
X136371649Y-73629836D01*
X136315622Y-73643572D01*
X136274277Y-73654150D01*
X136272587Y-73654595D01*
X136220444Y-73664471D01*
X136167314Y-73669366D01*
X136162042Y-73669547D01*
X136114930Y-73674242D01*
X136076268Y-73682563D01*
X136073862Y-73683190D01*
X136045092Y-73686127D01*
X135993587Y-73688234D01*
X135924234Y-73689551D01*
X135841919Y-73690116D01*
X135751530Y-73689970D01*
X135657952Y-73689152D01*
X135566073Y-73687703D01*
X135480778Y-73685660D01*
X135406955Y-73683065D01*
X135349490Y-73679957D01*
X135313270Y-73676375D01*
X135151886Y-73646791D01*
X134862879Y-73572550D01*
X134586633Y-73472923D01*
X134322565Y-73347685D01*
X134070088Y-73196609D01*
X134005870Y-73153483D01*
X133943806Y-73110103D01*
X133889216Y-73069115D01*
X133836596Y-73025983D01*
X133780444Y-72976170D01*
X133715254Y-72915137D01*
X133635524Y-72838349D01*
X133606968Y-72810838D01*
X133553693Y-72760570D01*
X133508514Y-72719312D01*
X133475499Y-72690738D01*
X133458716Y-72678526D01*
X133453452Y-72677829D01*
X133421043Y-72682945D01*
X133363148Y-72698271D01*
X133280518Y-72723565D01*
X133173903Y-72758581D01*
X133044054Y-72803077D01*
X132891719Y-72856808D01*
X132717649Y-72919530D01*
X132683283Y-72931944D01*
X132607196Y-72959002D01*
X132533829Y-72984610D01*
X132475201Y-73004553D01*
X132471475Y-73005792D01*
X132419386Y-73023349D01*
X132376451Y-73038207D01*
X132351642Y-73047266D01*
X132342170Y-73049061D01*
X132319440Y-73037655D01*
X132291030Y-73002520D01*
X132280677Y-72986564D01*
X132261678Y-72952256D01*
X132254146Y-72930399D01*
X132259455Y-72920670D01*
X132284043Y-72899722D01*
X132321889Y-72876530D01*
X132345212Y-72864016D01*
X132393972Y-72837294D01*
X132432416Y-72815546D01*
X132443600Y-72809018D01*
X132511001Y-72769507D01*
X132585227Y-72725776D01*
X132659989Y-72681551D01*
X132728999Y-72640558D01*
X132785970Y-72606522D01*
X132824612Y-72583170D01*
X132844780Y-72570929D01*
X132895531Y-72540809D01*
X132938705Y-72515994D01*
X132977802Y-72494010D01*
X133056843Y-72448534D01*
X133123169Y-72408935D01*
X133172627Y-72377724D01*
X133201064Y-72357411D01*
X133209718Y-72350357D01*
X133226404Y-72342542D01*
X133235181Y-72354826D01*
X133241883Y-72366986D01*
X133264192Y-72397125D01*
X133295059Y-72433265D01*
X133314614Y-72455031D01*
X133349465Y-72494898D01*
X133375036Y-72525476D01*
X133402272Y-72555983D01*
X133437587Y-72589654D01*
X133447507Y-72598280D01*
X133480902Y-72628275D01*
X133525040Y-72668679D01*
X133573073Y-72713245D01*
X133595904Y-72734341D01*
X133642834Y-72776333D01*
X133682740Y-72810318D01*
X133708834Y-72830436D01*
X133720996Y-72838611D01*
X133760190Y-72865559D01*
X133802827Y-72895453D01*
X133827074Y-72912241D01*
X133936771Y-72981104D01*
X134061862Y-73050618D01*
X134193016Y-73116062D01*
X134320898Y-73172717D01*
X134436178Y-73215859D01*
X134466192Y-73225618D01*
X134601951Y-73266280D01*
X134727819Y-73296971D01*
X134851413Y-73318834D01*
X134980353Y-73333007D01*
X135122258Y-73340631D01*
X135284747Y-73342846D01*
X135316857Y-73342754D01*
X135469408Y-73339703D01*
X135602518Y-73331557D01*
X135723590Y-73317245D01*
X135840029Y-73295694D01*
X135959240Y-73265836D01*
X136088627Y-73226599D01*
X136292471Y-73151948D01*
X136483978Y-73062834D01*
X136668261Y-72956205D01*
X136850786Y-72828900D01*
X137037022Y-72677752D01*
X137071122Y-72646256D01*
X137120237Y-72596429D01*
X137174156Y-72538122D01*
X137229380Y-72475497D01*
X137282409Y-72412711D01*
X137329745Y-72353925D01*
X137367888Y-72303298D01*
X137393340Y-72264989D01*
X137402602Y-72243158D01*
X137402756Y-72241045D01*
X137415396Y-72225140D01*
X137423417Y-72219143D01*
X137446403Y-72190303D01*
X137478060Y-72141915D01*
X137516196Y-72078079D01*
X137558617Y-72002892D01*
X137603131Y-71920454D01*
X137647545Y-71834863D01*
X137689667Y-71750220D01*
X137727303Y-71670622D01*
X137758260Y-71600168D01*
X137780346Y-71542958D01*
X137793188Y-71503935D01*
X137821560Y-71408307D01*
X137850298Y-71300828D01*
X137876985Y-71191200D01*
X137899203Y-71089128D01*
X137914534Y-71004316D01*
X137919515Y-70963401D01*
X137925629Y-70877013D01*
X137929102Y-70773911D01*
X137929990Y-70661385D01*
X137928349Y-70546725D01*
X137924236Y-70437218D01*
X137917706Y-70340154D01*
X137908816Y-70262821D01*
X137902757Y-70225342D01*
X137843294Y-69957307D01*
X137757280Y-69699487D01*
X137645089Y-69452726D01*
X137507097Y-69217864D01*
X137343680Y-68995744D01*
X137334691Y-68984913D01*
X137288347Y-68932594D01*
X137232377Y-68873657D01*
X137170439Y-68811511D01*
X137106195Y-68749567D01*
X137043305Y-68691237D01*
X136985430Y-68639932D01*
X136936230Y-68599062D01*
X136899366Y-68572039D01*
X136878498Y-68562273D01*
X136869138Y-68559633D01*
X136847888Y-68542677D01*
X136832915Y-68528077D01*
X136788985Y-68495822D01*
X136726153Y-68456663D01*
X136649162Y-68413068D01*
X136562752Y-68367502D01*
X136471665Y-68322432D01*
X136380642Y-68280325D01*
X136294424Y-68243647D01*
X136217752Y-68214865D01*
X136201399Y-68209310D01*
X136081166Y-68170758D01*
X135971610Y-68140776D01*
X135866219Y-68118385D01*
X135758480Y-68102602D01*
X135641881Y-68092448D01*
X135509910Y-68086942D01*
X135356055Y-68085103D01*
X135239275Y-68085685D01*
X135116251Y-68089143D01*
X135005962Y-68096599D01*
X134902849Y-68109100D01*
X134801355Y-68127694D01*
X134695918Y-68153426D01*
X134580982Y-68187345D01*
X134450985Y-68230497D01*
X134300370Y-68283929D01*
X134218948Y-68315750D01*
X134123100Y-68357767D01*
X134025167Y-68404629D01*
X133930905Y-68453353D01*
X133846068Y-68500957D01*
X133776408Y-68544456D01*
X133727681Y-68580867D01*
X133701834Y-68598109D01*
X133680347Y-68602693D01*
X133681143Y-68597410D01*
X133698485Y-68577021D01*
X133731596Y-68544692D01*
X133776557Y-68503871D01*
X133829448Y-68458004D01*
X133886350Y-68410538D01*
X133943345Y-68364922D01*
X133996513Y-68324601D01*
X134035136Y-68297973D01*
X134095605Y-68259562D01*
X134167034Y-68216595D01*
X134245008Y-68171495D01*
X134325109Y-68126686D01*
X134402924Y-68084591D01*
X134474036Y-68047633D01*
X134534029Y-68018234D01*
X134578488Y-67998817D01*
X134602996Y-67991807D01*
X134603883Y-67991717D01*
X134622925Y-67985336D01*
X134655079Y-67971975D01*
X134670876Y-67965088D01*
X134759018Y-67930142D01*
X134852916Y-67899449D01*
X134963859Y-67869252D01*
X134998977Y-67859737D01*
X135054294Y-67841998D01*
X135095796Y-67825134D01*
X135116464Y-67811789D01*
X135117439Y-67810478D01*
X135122277Y-67803513D01*
X135125713Y-67795420D01*
X135127240Y-67783786D01*
X135126351Y-67766200D01*
X135122538Y-67740250D01*
X135115295Y-67703525D01*
X135104114Y-67653613D01*
X135088489Y-67588103D01*
X135067913Y-67504582D01*
X135041878Y-67400641D01*
X135009877Y-67273866D01*
X134971404Y-67121846D01*
X134941389Y-67003070D01*
X134909117Y-66874615D01*
X134883042Y-66769615D01*
X134862635Y-66685737D01*
X134847368Y-66620651D01*
X134836716Y-66572025D01*
X134830149Y-66537527D01*
X134827141Y-66514826D01*
X134827164Y-66501591D01*
X134829690Y-66495490D01*
X134838961Y-66491815D01*
X134872602Y-66485562D01*
X134923626Y-66479498D01*
X134985252Y-66474537D01*
X135127868Y-66465485D01*
X135248089Y-66690268D01*
G37*
%TD*%
M02*
