M48
; DRILL file {KiCad 7.0.7} date Sat Feb 10 01:20:31 2024
; FORMAT={-:-/ absolute / metric / decimal}
; #@! TF.CreationDate,2024-02-10T01:20:31+05:30
; #@! TF.GenerationSoftware,Kicad,Pcbnew,7.0.7
; #@! TF.FileFunction,Plated,1,2,PTH
FMAT,2
METRIC
; #@! TA.AperFunction,Plated,PTH,ViaDrill
T1C0.400
; #@! TA.AperFunction,Plated,PTH,ComponentDrill
T2C1.000
; #@! TA.AperFunction,Plated,PTH,ComponentDrill
T3C8.400
%
G90
G05
T1
X100.482Y-70.637
X101.448Y-70.968
X101.956Y-75.082
X102.26Y-61.874
X102.819Y-70.663
X104.623Y-93.675
X104.851Y-62.89
X106.07Y-58.547
X106.112Y-63.592
X108.255Y-68.275
X108.61Y-60.833
X109.525Y-69.901
X109.88Y-68.072
X110.541Y-76.81
X111.1Y-66.853
X113.386Y-76.81
X114.732Y-109.271
X115.214Y-68.123
X115.392Y-74.803
X130.226Y-109.144
X136.449Y-65.329
X138.201Y-61.773
X140.157Y-81.585
X141.37Y-61.797
X141.732Y-74.168
X141.732Y-93.574
X141.834Y-77.114
X142.799Y-63.551
X142.9Y-78.842
X144.526Y-68.174
X147.422Y-66.091
X147.676Y-70.866
X148.539Y-76.962
X148.742Y-70.053
X149.301Y-68.072
X151.79Y-64.618
T2
X97.174Y-60.366
X97.174Y-62.906
X97.174Y-65.446
X97.174Y-67.986
X97.174Y-70.526
X97.174Y-73.066
X97.174Y-75.606
X97.174Y-78.146
X97.174Y-80.686
X97.174Y-83.226
X97.174Y-85.766
X97.174Y-88.306
X97.174Y-90.846
X97.174Y-93.386
X97.174Y-95.926
X107.599Y-49.981
X110.139Y-49.981
X112.679Y-49.981
X115.219Y-49.981
X117.759Y-49.981
X120.299Y-49.981
X122.839Y-49.981
X125.379Y-49.981
X127.919Y-49.981
X130.459Y-49.981
X132.999Y-49.981
X135.539Y-49.981
X138.079Y-49.981
X140.619Y-49.981
X143.159Y-49.981
X153.574Y-60.396
X153.574Y-62.936
X153.574Y-65.476
X153.574Y-68.016
X153.574Y-70.556
X153.574Y-73.096
X153.574Y-75.636
X153.574Y-78.176
X153.574Y-80.716
X153.574Y-83.256
X153.574Y-85.796
X153.574Y-88.336
X153.574Y-90.876
X153.574Y-93.416
X153.574Y-95.956
T3
X97.574Y-50.281
X97.574Y-105.981
X153.174Y-50.296
X153.174Y-105.981
T0
M30
