%TF.GenerationSoftware,KiCad,Pcbnew,7.0.7*%
%TF.CreationDate,2024-02-10T01:31:51+05:30*%
%TF.ProjectId,PDB_Board,5044425f-426f-4617-9264-2e6b69636164,rev?*%
%TF.SameCoordinates,Original*%
%TF.FileFunction,Drillmap*%
%TF.FilePolarity,Positive*%
%FSLAX45Y45*%
G04 Gerber Fmt 4.5, Leading zero omitted, Abs format (unit mm)*
G04 Created by KiCad (PCBNEW 7.0.7) date 2024-02-10 01:31:51*
%MOMM*%
%LPD*%
G01*
G04 APERTURE LIST*
%ADD10C,0.200000*%
%ADD11C,0.040000*%
%ADD12C,0.060000*%
%ADD13C,0.100000*%
%ADD14C,0.152000*%
%ADD15C,0.270000*%
%ADD16C,0.840000*%
G04 APERTURE END LIST*
D10*
D11*
X11063880Y-8580340D02*
X11103880Y-8620340D01*
X11103880Y-8580340D02*
X11063880Y-8620340D01*
X11081660Y-8288240D02*
X11121660Y-8328240D01*
X11121660Y-8288240D02*
X11081660Y-8328240D01*
X11401700Y-8580340D02*
X11441700Y-8620340D01*
X11441700Y-8580340D02*
X11401700Y-8620340D01*
X11422020Y-8285700D02*
X11462020Y-8325700D01*
X11462020Y-8285700D02*
X11422020Y-8325700D01*
X11585260Y-11077260D02*
X11625260Y-11117260D01*
X11625260Y-11077260D02*
X11585260Y-11117260D01*
X12039920Y-11084880D02*
X12079920Y-11124880D01*
X12079920Y-11084880D02*
X12039920Y-11124880D01*
X12415160Y-8168860D02*
X12455160Y-8208860D01*
X12455160Y-8168860D02*
X12415160Y-8208860D01*
X12415160Y-8656540D02*
X12455160Y-8696540D01*
X12455160Y-8656540D02*
X12415160Y-8696540D01*
X12776520Y-12786680D02*
X12816520Y-12826680D01*
X12816520Y-12786680D02*
X12776520Y-12826680D01*
X12844420Y-8669240D02*
X12884420Y-8709240D01*
X12884420Y-8669240D02*
X12844420Y-8709240D01*
X12846960Y-8173940D02*
X12886960Y-8213940D01*
X12886960Y-8173940D02*
X12846960Y-8213940D01*
X13429110Y-9283750D02*
X13469110Y-9323750D01*
X13469110Y-9283750D02*
X13429110Y-9323750D01*
X14036360Y-11087420D02*
X14076360Y-11127420D01*
X14076360Y-11087420D02*
X14036360Y-11127420D01*
X14584320Y-8801320D02*
X14624320Y-8841320D01*
X14624320Y-8801320D02*
X14584320Y-8841320D01*
D12*
X11126000Y-12331700D02*
G75*
G03*
X11126000Y-12331700I-30000J0D01*
G01*
D10*
X11066000Y-12276700D02*
X11066000Y-12386700D01*
X11066000Y-12386700D02*
G75*
G03*
X11126000Y-12386700I30000J0D01*
G01*
X11126000Y-12386700D02*
X11126000Y-12276700D01*
X11126000Y-12276700D02*
G75*
G03*
X11066000Y-12276700I-30000J0D01*
G01*
D12*
X12476000Y-12331700D02*
G75*
G03*
X12476000Y-12331700I-30000J0D01*
G01*
D10*
X12416000Y-12276700D02*
X12416000Y-12386700D01*
X12416000Y-12386700D02*
G75*
G03*
X12476000Y-12386700I30000J0D01*
G01*
X12476000Y-12386700D02*
X12476000Y-12276700D01*
X12476000Y-12276700D02*
G75*
G03*
X12416000Y-12276700I-30000J0D01*
G01*
D12*
X13050040Y-12331700D02*
G75*
G03*
X13050040Y-12331700I-30000J0D01*
G01*
D10*
X12990040Y-12276700D02*
X12990040Y-12386700D01*
X12990040Y-12386700D02*
G75*
G03*
X13050040Y-12386700I30000J0D01*
G01*
X13050040Y-12386700D02*
X13050040Y-12276700D01*
X13050040Y-12276700D02*
G75*
G03*
X12990040Y-12276700I-30000J0D01*
G01*
D12*
X14400040Y-12331700D02*
G75*
G03*
X14400040Y-12331700I-30000J0D01*
G01*
D10*
X14340040Y-12276700D02*
X14340040Y-12386700D01*
X14340040Y-12386700D02*
G75*
G03*
X14400040Y-12386700I30000J0D01*
G01*
X14400040Y-12386700D02*
X14400040Y-12276700D01*
X14400040Y-12276700D02*
G75*
G03*
X14340040Y-12276700I-30000J0D01*
G01*
D13*
X9976520Y-8155780D02*
X9976520Y-8255780D01*
X9926520Y-8205780D02*
X10026520Y-8205780D01*
X9976520Y-8409780D02*
X9976520Y-8509780D01*
X9926520Y-8459780D02*
X10026520Y-8459780D01*
X9976520Y-8663780D02*
X9976520Y-8763780D01*
X9926520Y-8713780D02*
X10026520Y-8713780D01*
X9976520Y-8917780D02*
X9976520Y-9017780D01*
X9926520Y-8967780D02*
X10026520Y-8967780D01*
X9976520Y-9171780D02*
X9976520Y-9271780D01*
X9926520Y-9221780D02*
X10026520Y-9221780D01*
X9976520Y-9425780D02*
X9976520Y-9525780D01*
X9926520Y-9475780D02*
X10026520Y-9475780D01*
X9976520Y-9679780D02*
X9976520Y-9779780D01*
X9926520Y-9729780D02*
X10026520Y-9729780D01*
X9976520Y-9933780D02*
X9976520Y-10033780D01*
X9926520Y-9983780D02*
X10026520Y-9983780D01*
X9976520Y-10187780D02*
X9976520Y-10287780D01*
X9926520Y-10237780D02*
X10026520Y-10237780D01*
X9976520Y-10441780D02*
X9976520Y-10541780D01*
X9926520Y-10491780D02*
X10026520Y-10491780D01*
X9976520Y-10695780D02*
X9976520Y-10795780D01*
X9926520Y-10745780D02*
X10026520Y-10745780D01*
X9976520Y-10949780D02*
X9976520Y-11049780D01*
X9926520Y-10999780D02*
X10026520Y-10999780D01*
X9976520Y-11203780D02*
X9976520Y-11303780D01*
X9926520Y-11253780D02*
X10026520Y-11253780D01*
X9976520Y-11457780D02*
X9976520Y-11557780D01*
X9926520Y-11507780D02*
X10026520Y-11507780D01*
X9976520Y-11711780D02*
X9976520Y-11811780D01*
X9926520Y-11761780D02*
X10026520Y-11761780D01*
X11019020Y-7117280D02*
X11019020Y-7217280D01*
X10969020Y-7167280D02*
X11069020Y-7167280D01*
X11273020Y-7117280D02*
X11273020Y-7217280D01*
X11223020Y-7167280D02*
X11323020Y-7167280D01*
X11527020Y-7117280D02*
X11527020Y-7217280D01*
X11477020Y-7167280D02*
X11577020Y-7167280D01*
X11781020Y-7117280D02*
X11781020Y-7217280D01*
X11731020Y-7167280D02*
X11831020Y-7167280D01*
X12035020Y-7117280D02*
X12035020Y-7217280D01*
X11985020Y-7167280D02*
X12085020Y-7167280D01*
X12289020Y-7117280D02*
X12289020Y-7217280D01*
X12239020Y-7167280D02*
X12339020Y-7167280D01*
X12543020Y-7117280D02*
X12543020Y-7217280D01*
X12493020Y-7167280D02*
X12593020Y-7167280D01*
X12797020Y-7117280D02*
X12797020Y-7217280D01*
X12747020Y-7167280D02*
X12847020Y-7167280D01*
X13051020Y-7117280D02*
X13051020Y-7217280D01*
X13001020Y-7167280D02*
X13101020Y-7167280D01*
X13305020Y-7117280D02*
X13305020Y-7217280D01*
X13255020Y-7167280D02*
X13355020Y-7167280D01*
X13559020Y-7117280D02*
X13559020Y-7217280D01*
X13509020Y-7167280D02*
X13609020Y-7167280D01*
X13813020Y-7117280D02*
X13813020Y-7217280D01*
X13763020Y-7167280D02*
X13863020Y-7167280D01*
X14067020Y-7117280D02*
X14067020Y-7217280D01*
X14017020Y-7167280D02*
X14117020Y-7167280D01*
X14321020Y-7117280D02*
X14321020Y-7217280D01*
X14271020Y-7167280D02*
X14371020Y-7167280D01*
X14575020Y-7117280D02*
X14575020Y-7217280D01*
X14525020Y-7167280D02*
X14625020Y-7167280D01*
X15616520Y-8158780D02*
X15616520Y-8258780D01*
X15566520Y-8208780D02*
X15666520Y-8208780D01*
X15616520Y-8412780D02*
X15616520Y-8512780D01*
X15566520Y-8462780D02*
X15666520Y-8462780D01*
X15616520Y-8666780D02*
X15616520Y-8766780D01*
X15566520Y-8716780D02*
X15666520Y-8716780D01*
X15616520Y-8920780D02*
X15616520Y-9020780D01*
X15566520Y-8970780D02*
X15666520Y-8970780D01*
X15616520Y-9174780D02*
X15616520Y-9274780D01*
X15566520Y-9224780D02*
X15666520Y-9224780D01*
X15616520Y-9428780D02*
X15616520Y-9528780D01*
X15566520Y-9478780D02*
X15666520Y-9478780D01*
X15616520Y-9682780D02*
X15616520Y-9782780D01*
X15566520Y-9732780D02*
X15666520Y-9732780D01*
X15616520Y-9936780D02*
X15616520Y-10036780D01*
X15566520Y-9986780D02*
X15666520Y-9986780D01*
X15616520Y-10190780D02*
X15616520Y-10290780D01*
X15566520Y-10240780D02*
X15666520Y-10240780D01*
X15616520Y-10444780D02*
X15616520Y-10544780D01*
X15566520Y-10494780D02*
X15666520Y-10494780D01*
X15616520Y-10698780D02*
X15616520Y-10798780D01*
X15566520Y-10748780D02*
X15666520Y-10748780D01*
X15616520Y-10952780D02*
X15616520Y-11052780D01*
X15566520Y-11002780D02*
X15666520Y-11002780D01*
X15616520Y-11206780D02*
X15616520Y-11306780D01*
X15566520Y-11256780D02*
X15666520Y-11256780D01*
X15616520Y-11460780D02*
X15616520Y-11560780D01*
X15566520Y-11510780D02*
X15666520Y-11510780D01*
X15616520Y-11714780D02*
X15616520Y-11814780D01*
X15566520Y-11764780D02*
X15666520Y-11764780D01*
D14*
X13190621Y-10079121D02*
X13190621Y-9971639D01*
X13083139Y-9971639D01*
X13083139Y-10079121D01*
X13190621Y-10079121D01*
X13698621Y-10079121D02*
X13698621Y-9971639D01*
X13591139Y-9971639D01*
X13591139Y-10079121D01*
X13698621Y-10079121D01*
X14465701Y-10079121D02*
X14465701Y-9971639D01*
X14358219Y-9971639D01*
X14358219Y-10079121D01*
X14465701Y-10079121D01*
X14973701Y-10079121D02*
X14973701Y-9971639D01*
X14866219Y-9971639D01*
X14866219Y-10079121D01*
X14973701Y-10079121D01*
D15*
X11411000Y-11866700D02*
X11546000Y-11731700D01*
X11411000Y-11596700D01*
X11276000Y-11731700D01*
X11411000Y-11866700D01*
X12131000Y-11866700D02*
X12266000Y-11731700D01*
X12131000Y-11596700D01*
X11996000Y-11731700D01*
X12131000Y-11866700D01*
X13335040Y-11866700D02*
X13470040Y-11731700D01*
X13335040Y-11596700D01*
X13200040Y-11731700D01*
X13335040Y-11866700D01*
X14055040Y-11866700D02*
X14190040Y-11731700D01*
X14055040Y-11596700D01*
X13920040Y-11731700D01*
X14055040Y-11866700D01*
D16*
X9596520Y-6777280D02*
X10436520Y-7617280D01*
X10436520Y-6777280D02*
X9596520Y-7617280D01*
X10436520Y-7197280D02*
G75*
G03*
X10436520Y-7197280I-420000J0D01*
G01*
X9596520Y-12347280D02*
X10436520Y-13187280D01*
X10436520Y-12347280D02*
X9596520Y-13187280D01*
X10436520Y-12767280D02*
G75*
G03*
X10436520Y-12767280I-420000J0D01*
G01*
X15156520Y-6778780D02*
X15996520Y-7618780D01*
X15996520Y-6778780D02*
X15156520Y-7618780D01*
X15996520Y-7198780D02*
G75*
G03*
X15996520Y-7198780I-420000J0D01*
G01*
X15156520Y-12347280D02*
X15996520Y-13187280D01*
X15996520Y-12347280D02*
X15156520Y-13187280D01*
X15996520Y-12767280D02*
G75*
G03*
X15996520Y-12767280I-420000J0D01*
G01*
D10*
X9554797Y-13801264D02*
X9554797Y-13601264D01*
X9554797Y-13601264D02*
X9602416Y-13601264D01*
X9602416Y-13601264D02*
X9630987Y-13610788D01*
X9630987Y-13610788D02*
X9650035Y-13629835D01*
X9650035Y-13629835D02*
X9659559Y-13648883D01*
X9659559Y-13648883D02*
X9669083Y-13686978D01*
X9669083Y-13686978D02*
X9669083Y-13715549D01*
X9669083Y-13715549D02*
X9659559Y-13753645D01*
X9659559Y-13753645D02*
X9650035Y-13772692D01*
X9650035Y-13772692D02*
X9630987Y-13791740D01*
X9630987Y-13791740D02*
X9602416Y-13801264D01*
X9602416Y-13801264D02*
X9554797Y-13801264D01*
X9754797Y-13801264D02*
X9754797Y-13667930D01*
X9754797Y-13706026D02*
X9764321Y-13686978D01*
X9764321Y-13686978D02*
X9773844Y-13677454D01*
X9773844Y-13677454D02*
X9792892Y-13667930D01*
X9792892Y-13667930D02*
X9811940Y-13667930D01*
X9878606Y-13801264D02*
X9878606Y-13667930D01*
X9878606Y-13601264D02*
X9869083Y-13610788D01*
X9869083Y-13610788D02*
X9878606Y-13620311D01*
X9878606Y-13620311D02*
X9888130Y-13610788D01*
X9888130Y-13610788D02*
X9878606Y-13601264D01*
X9878606Y-13601264D02*
X9878606Y-13620311D01*
X10002416Y-13801264D02*
X9983368Y-13791740D01*
X9983368Y-13791740D02*
X9973844Y-13772692D01*
X9973844Y-13772692D02*
X9973844Y-13601264D01*
X10107178Y-13801264D02*
X10088130Y-13791740D01*
X10088130Y-13791740D02*
X10078606Y-13772692D01*
X10078606Y-13772692D02*
X10078606Y-13601264D01*
X10335749Y-13801264D02*
X10335749Y-13601264D01*
X10335749Y-13601264D02*
X10402416Y-13744121D01*
X10402416Y-13744121D02*
X10469083Y-13601264D01*
X10469083Y-13601264D02*
X10469083Y-13801264D01*
X10650035Y-13801264D02*
X10650035Y-13696502D01*
X10650035Y-13696502D02*
X10640511Y-13677454D01*
X10640511Y-13677454D02*
X10621464Y-13667930D01*
X10621464Y-13667930D02*
X10583368Y-13667930D01*
X10583368Y-13667930D02*
X10564321Y-13677454D01*
X10650035Y-13791740D02*
X10630987Y-13801264D01*
X10630987Y-13801264D02*
X10583368Y-13801264D01*
X10583368Y-13801264D02*
X10564321Y-13791740D01*
X10564321Y-13791740D02*
X10554797Y-13772692D01*
X10554797Y-13772692D02*
X10554797Y-13753645D01*
X10554797Y-13753645D02*
X10564321Y-13734597D01*
X10564321Y-13734597D02*
X10583368Y-13725073D01*
X10583368Y-13725073D02*
X10630987Y-13725073D01*
X10630987Y-13725073D02*
X10650035Y-13715549D01*
X10745273Y-13667930D02*
X10745273Y-13867930D01*
X10745273Y-13677454D02*
X10764321Y-13667930D01*
X10764321Y-13667930D02*
X10802416Y-13667930D01*
X10802416Y-13667930D02*
X10821464Y-13677454D01*
X10821464Y-13677454D02*
X10830987Y-13686978D01*
X10830987Y-13686978D02*
X10840511Y-13706026D01*
X10840511Y-13706026D02*
X10840511Y-13763168D01*
X10840511Y-13763168D02*
X10830987Y-13782216D01*
X10830987Y-13782216D02*
X10821464Y-13791740D01*
X10821464Y-13791740D02*
X10802416Y-13801264D01*
X10802416Y-13801264D02*
X10764321Y-13801264D01*
X10764321Y-13801264D02*
X10745273Y-13791740D01*
X10926225Y-13782216D02*
X10935749Y-13791740D01*
X10935749Y-13791740D02*
X10926225Y-13801264D01*
X10926225Y-13801264D02*
X10916702Y-13791740D01*
X10916702Y-13791740D02*
X10926225Y-13782216D01*
X10926225Y-13782216D02*
X10926225Y-13801264D01*
X10926225Y-13677454D02*
X10935749Y-13686978D01*
X10935749Y-13686978D02*
X10926225Y-13696502D01*
X10926225Y-13696502D02*
X10916702Y-13686978D01*
X10916702Y-13686978D02*
X10926225Y-13677454D01*
X10926225Y-13677454D02*
X10926225Y-13696502D01*
D11*
X9254020Y-14109780D02*
X9294020Y-14149780D01*
X9294020Y-14109780D02*
X9254020Y-14149780D01*
D10*
X9592892Y-14021264D02*
X9611940Y-14021264D01*
X9611940Y-14021264D02*
X9630987Y-14030788D01*
X9630987Y-14030788D02*
X9640511Y-14040311D01*
X9640511Y-14040311D02*
X9650035Y-14059359D01*
X9650035Y-14059359D02*
X9659559Y-14097454D01*
X9659559Y-14097454D02*
X9659559Y-14145073D01*
X9659559Y-14145073D02*
X9650035Y-14183168D01*
X9650035Y-14183168D02*
X9640511Y-14202216D01*
X9640511Y-14202216D02*
X9630987Y-14211740D01*
X9630987Y-14211740D02*
X9611940Y-14221264D01*
X9611940Y-14221264D02*
X9592892Y-14221264D01*
X9592892Y-14221264D02*
X9573844Y-14211740D01*
X9573844Y-14211740D02*
X9564321Y-14202216D01*
X9564321Y-14202216D02*
X9554797Y-14183168D01*
X9554797Y-14183168D02*
X9545273Y-14145073D01*
X9545273Y-14145073D02*
X9545273Y-14097454D01*
X9545273Y-14097454D02*
X9554797Y-14059359D01*
X9554797Y-14059359D02*
X9564321Y-14040311D01*
X9564321Y-14040311D02*
X9573844Y-14030788D01*
X9573844Y-14030788D02*
X9592892Y-14021264D01*
X9745273Y-14202216D02*
X9754797Y-14211740D01*
X9754797Y-14211740D02*
X9745273Y-14221264D01*
X9745273Y-14221264D02*
X9735749Y-14211740D01*
X9735749Y-14211740D02*
X9745273Y-14202216D01*
X9745273Y-14202216D02*
X9745273Y-14221264D01*
X9926225Y-14087930D02*
X9926225Y-14221264D01*
X9878606Y-14011740D02*
X9830987Y-14154597D01*
X9830987Y-14154597D02*
X9954797Y-14154597D01*
X10069083Y-14021264D02*
X10088130Y-14021264D01*
X10088130Y-14021264D02*
X10107178Y-14030788D01*
X10107178Y-14030788D02*
X10116702Y-14040311D01*
X10116702Y-14040311D02*
X10126225Y-14059359D01*
X10126225Y-14059359D02*
X10135749Y-14097454D01*
X10135749Y-14097454D02*
X10135749Y-14145073D01*
X10135749Y-14145073D02*
X10126225Y-14183168D01*
X10126225Y-14183168D02*
X10116702Y-14202216D01*
X10116702Y-14202216D02*
X10107178Y-14211740D01*
X10107178Y-14211740D02*
X10088130Y-14221264D01*
X10088130Y-14221264D02*
X10069083Y-14221264D01*
X10069083Y-14221264D02*
X10050035Y-14211740D01*
X10050035Y-14211740D02*
X10040511Y-14202216D01*
X10040511Y-14202216D02*
X10030987Y-14183168D01*
X10030987Y-14183168D02*
X10021464Y-14145073D01*
X10021464Y-14145073D02*
X10021464Y-14097454D01*
X10021464Y-14097454D02*
X10030987Y-14059359D01*
X10030987Y-14059359D02*
X10040511Y-14040311D01*
X10040511Y-14040311D02*
X10050035Y-14030788D01*
X10050035Y-14030788D02*
X10069083Y-14021264D01*
X10259559Y-14021264D02*
X10278606Y-14021264D01*
X10278606Y-14021264D02*
X10297654Y-14030788D01*
X10297654Y-14030788D02*
X10307178Y-14040311D01*
X10307178Y-14040311D02*
X10316702Y-14059359D01*
X10316702Y-14059359D02*
X10326225Y-14097454D01*
X10326225Y-14097454D02*
X10326225Y-14145073D01*
X10326225Y-14145073D02*
X10316702Y-14183168D01*
X10316702Y-14183168D02*
X10307178Y-14202216D01*
X10307178Y-14202216D02*
X10297654Y-14211740D01*
X10297654Y-14211740D02*
X10278606Y-14221264D01*
X10278606Y-14221264D02*
X10259559Y-14221264D01*
X10259559Y-14221264D02*
X10240511Y-14211740D01*
X10240511Y-14211740D02*
X10230987Y-14202216D01*
X10230987Y-14202216D02*
X10221464Y-14183168D01*
X10221464Y-14183168D02*
X10211940Y-14145073D01*
X10211940Y-14145073D02*
X10211940Y-14097454D01*
X10211940Y-14097454D02*
X10221464Y-14059359D01*
X10221464Y-14059359D02*
X10230987Y-14040311D01*
X10230987Y-14040311D02*
X10240511Y-14030788D01*
X10240511Y-14030788D02*
X10259559Y-14021264D01*
X10411940Y-14221264D02*
X10411940Y-14087930D01*
X10411940Y-14106978D02*
X10421464Y-14097454D01*
X10421464Y-14097454D02*
X10440511Y-14087930D01*
X10440511Y-14087930D02*
X10469083Y-14087930D01*
X10469083Y-14087930D02*
X10488130Y-14097454D01*
X10488130Y-14097454D02*
X10497654Y-14116502D01*
X10497654Y-14116502D02*
X10497654Y-14221264D01*
X10497654Y-14116502D02*
X10507178Y-14097454D01*
X10507178Y-14097454D02*
X10526225Y-14087930D01*
X10526225Y-14087930D02*
X10554797Y-14087930D01*
X10554797Y-14087930D02*
X10573845Y-14097454D01*
X10573845Y-14097454D02*
X10583368Y-14116502D01*
X10583368Y-14116502D02*
X10583368Y-14221264D01*
X10678606Y-14221264D02*
X10678606Y-14087930D01*
X10678606Y-14106978D02*
X10688130Y-14097454D01*
X10688130Y-14097454D02*
X10707178Y-14087930D01*
X10707178Y-14087930D02*
X10735749Y-14087930D01*
X10735749Y-14087930D02*
X10754797Y-14097454D01*
X10754797Y-14097454D02*
X10764321Y-14116502D01*
X10764321Y-14116502D02*
X10764321Y-14221264D01*
X10764321Y-14116502D02*
X10773845Y-14097454D01*
X10773845Y-14097454D02*
X10792892Y-14087930D01*
X10792892Y-14087930D02*
X10821464Y-14087930D01*
X10821464Y-14087930D02*
X10840511Y-14097454D01*
X10840511Y-14097454D02*
X10850035Y-14116502D01*
X10850035Y-14116502D02*
X10850035Y-14221264D01*
X11240511Y-14011740D02*
X11069083Y-14268883D01*
X11497654Y-14021264D02*
X11516702Y-14021264D01*
X11516702Y-14021264D02*
X11535749Y-14030788D01*
X11535749Y-14030788D02*
X11545273Y-14040311D01*
X11545273Y-14040311D02*
X11554797Y-14059359D01*
X11554797Y-14059359D02*
X11564321Y-14097454D01*
X11564321Y-14097454D02*
X11564321Y-14145073D01*
X11564321Y-14145073D02*
X11554797Y-14183168D01*
X11554797Y-14183168D02*
X11545273Y-14202216D01*
X11545273Y-14202216D02*
X11535749Y-14211740D01*
X11535749Y-14211740D02*
X11516702Y-14221264D01*
X11516702Y-14221264D02*
X11497654Y-14221264D01*
X11497654Y-14221264D02*
X11478606Y-14211740D01*
X11478606Y-14211740D02*
X11469083Y-14202216D01*
X11469083Y-14202216D02*
X11459559Y-14183168D01*
X11459559Y-14183168D02*
X11450035Y-14145073D01*
X11450035Y-14145073D02*
X11450035Y-14097454D01*
X11450035Y-14097454D02*
X11459559Y-14059359D01*
X11459559Y-14059359D02*
X11469083Y-14040311D01*
X11469083Y-14040311D02*
X11478606Y-14030788D01*
X11478606Y-14030788D02*
X11497654Y-14021264D01*
X11650035Y-14202216D02*
X11659559Y-14211740D01*
X11659559Y-14211740D02*
X11650035Y-14221264D01*
X11650035Y-14221264D02*
X11640511Y-14211740D01*
X11640511Y-14211740D02*
X11650035Y-14202216D01*
X11650035Y-14202216D02*
X11650035Y-14221264D01*
X11783368Y-14021264D02*
X11802416Y-14021264D01*
X11802416Y-14021264D02*
X11821464Y-14030788D01*
X11821464Y-14030788D02*
X11830987Y-14040311D01*
X11830987Y-14040311D02*
X11840511Y-14059359D01*
X11840511Y-14059359D02*
X11850035Y-14097454D01*
X11850035Y-14097454D02*
X11850035Y-14145073D01*
X11850035Y-14145073D02*
X11840511Y-14183168D01*
X11840511Y-14183168D02*
X11830987Y-14202216D01*
X11830987Y-14202216D02*
X11821464Y-14211740D01*
X11821464Y-14211740D02*
X11802416Y-14221264D01*
X11802416Y-14221264D02*
X11783368Y-14221264D01*
X11783368Y-14221264D02*
X11764321Y-14211740D01*
X11764321Y-14211740D02*
X11754797Y-14202216D01*
X11754797Y-14202216D02*
X11745273Y-14183168D01*
X11745273Y-14183168D02*
X11735749Y-14145073D01*
X11735749Y-14145073D02*
X11735749Y-14097454D01*
X11735749Y-14097454D02*
X11745273Y-14059359D01*
X11745273Y-14059359D02*
X11754797Y-14040311D01*
X11754797Y-14040311D02*
X11764321Y-14030788D01*
X11764321Y-14030788D02*
X11783368Y-14021264D01*
X12040511Y-14221264D02*
X11926226Y-14221264D01*
X11983368Y-14221264D02*
X11983368Y-14021264D01*
X11983368Y-14021264D02*
X11964321Y-14049835D01*
X11964321Y-14049835D02*
X11945273Y-14068883D01*
X11945273Y-14068883D02*
X11926226Y-14078407D01*
X12221464Y-14021264D02*
X12126226Y-14021264D01*
X12126226Y-14021264D02*
X12116702Y-14116502D01*
X12116702Y-14116502D02*
X12126226Y-14106978D01*
X12126226Y-14106978D02*
X12145273Y-14097454D01*
X12145273Y-14097454D02*
X12192892Y-14097454D01*
X12192892Y-14097454D02*
X12211940Y-14106978D01*
X12211940Y-14106978D02*
X12221464Y-14116502D01*
X12221464Y-14116502D02*
X12230987Y-14135549D01*
X12230987Y-14135549D02*
X12230987Y-14183168D01*
X12230987Y-14183168D02*
X12221464Y-14202216D01*
X12221464Y-14202216D02*
X12211940Y-14211740D01*
X12211940Y-14211740D02*
X12192892Y-14221264D01*
X12192892Y-14221264D02*
X12145273Y-14221264D01*
X12145273Y-14221264D02*
X12126226Y-14211740D01*
X12126226Y-14211740D02*
X12116702Y-14202216D01*
X12297654Y-14021264D02*
X12430987Y-14021264D01*
X12430987Y-14021264D02*
X12345273Y-14221264D01*
X12497654Y-14021264D02*
X12497654Y-14059359D01*
X12573845Y-14021264D02*
X12573845Y-14059359D01*
X12869083Y-14297454D02*
X12859559Y-14287930D01*
X12859559Y-14287930D02*
X12840511Y-14259359D01*
X12840511Y-14259359D02*
X12830988Y-14240311D01*
X12830988Y-14240311D02*
X12821464Y-14211740D01*
X12821464Y-14211740D02*
X12811940Y-14164121D01*
X12811940Y-14164121D02*
X12811940Y-14126026D01*
X12811940Y-14126026D02*
X12821464Y-14078407D01*
X12821464Y-14078407D02*
X12830988Y-14049835D01*
X12830988Y-14049835D02*
X12840511Y-14030788D01*
X12840511Y-14030788D02*
X12859559Y-14002216D01*
X12859559Y-14002216D02*
X12869083Y-13992692D01*
X13050035Y-14221264D02*
X12935749Y-14221264D01*
X12992892Y-14221264D02*
X12992892Y-14021264D01*
X12992892Y-14021264D02*
X12973845Y-14049835D01*
X12973845Y-14049835D02*
X12954797Y-14068883D01*
X12954797Y-14068883D02*
X12935749Y-14078407D01*
X13221464Y-14087930D02*
X13221464Y-14221264D01*
X13173845Y-14011740D02*
X13126226Y-14154597D01*
X13126226Y-14154597D02*
X13250035Y-14154597D01*
X13478607Y-14221264D02*
X13478607Y-14021264D01*
X13564321Y-14221264D02*
X13564321Y-14116502D01*
X13564321Y-14116502D02*
X13554797Y-14097454D01*
X13554797Y-14097454D02*
X13535750Y-14087930D01*
X13535750Y-14087930D02*
X13507178Y-14087930D01*
X13507178Y-14087930D02*
X13488130Y-14097454D01*
X13488130Y-14097454D02*
X13478607Y-14106978D01*
X13688130Y-14221264D02*
X13669083Y-14211740D01*
X13669083Y-14211740D02*
X13659559Y-14202216D01*
X13659559Y-14202216D02*
X13650035Y-14183168D01*
X13650035Y-14183168D02*
X13650035Y-14126026D01*
X13650035Y-14126026D02*
X13659559Y-14106978D01*
X13659559Y-14106978D02*
X13669083Y-14097454D01*
X13669083Y-14097454D02*
X13688130Y-14087930D01*
X13688130Y-14087930D02*
X13716702Y-14087930D01*
X13716702Y-14087930D02*
X13735750Y-14097454D01*
X13735750Y-14097454D02*
X13745273Y-14106978D01*
X13745273Y-14106978D02*
X13754797Y-14126026D01*
X13754797Y-14126026D02*
X13754797Y-14183168D01*
X13754797Y-14183168D02*
X13745273Y-14202216D01*
X13745273Y-14202216D02*
X13735750Y-14211740D01*
X13735750Y-14211740D02*
X13716702Y-14221264D01*
X13716702Y-14221264D02*
X13688130Y-14221264D01*
X13869083Y-14221264D02*
X13850035Y-14211740D01*
X13850035Y-14211740D02*
X13840511Y-14192692D01*
X13840511Y-14192692D02*
X13840511Y-14021264D01*
X14021464Y-14211740D02*
X14002416Y-14221264D01*
X14002416Y-14221264D02*
X13964321Y-14221264D01*
X13964321Y-14221264D02*
X13945273Y-14211740D01*
X13945273Y-14211740D02*
X13935750Y-14192692D01*
X13935750Y-14192692D02*
X13935750Y-14116502D01*
X13935750Y-14116502D02*
X13945273Y-14097454D01*
X13945273Y-14097454D02*
X13964321Y-14087930D01*
X13964321Y-14087930D02*
X14002416Y-14087930D01*
X14002416Y-14087930D02*
X14021464Y-14097454D01*
X14021464Y-14097454D02*
X14030988Y-14116502D01*
X14030988Y-14116502D02*
X14030988Y-14135549D01*
X14030988Y-14135549D02*
X13935750Y-14154597D01*
X14107178Y-14211740D02*
X14126226Y-14221264D01*
X14126226Y-14221264D02*
X14164321Y-14221264D01*
X14164321Y-14221264D02*
X14183369Y-14211740D01*
X14183369Y-14211740D02*
X14192892Y-14192692D01*
X14192892Y-14192692D02*
X14192892Y-14183168D01*
X14192892Y-14183168D02*
X14183369Y-14164121D01*
X14183369Y-14164121D02*
X14164321Y-14154597D01*
X14164321Y-14154597D02*
X14135750Y-14154597D01*
X14135750Y-14154597D02*
X14116702Y-14145073D01*
X14116702Y-14145073D02*
X14107178Y-14126026D01*
X14107178Y-14126026D02*
X14107178Y-14116502D01*
X14107178Y-14116502D02*
X14116702Y-14097454D01*
X14116702Y-14097454D02*
X14135750Y-14087930D01*
X14135750Y-14087930D02*
X14164321Y-14087930D01*
X14164321Y-14087930D02*
X14183369Y-14097454D01*
X14259559Y-14297454D02*
X14269083Y-14287930D01*
X14269083Y-14287930D02*
X14288131Y-14259359D01*
X14288131Y-14259359D02*
X14297654Y-14240311D01*
X14297654Y-14240311D02*
X14307178Y-14211740D01*
X14307178Y-14211740D02*
X14316702Y-14164121D01*
X14316702Y-14164121D02*
X14316702Y-14126026D01*
X14316702Y-14126026D02*
X14307178Y-14078407D01*
X14307178Y-14078407D02*
X14297654Y-14049835D01*
X14297654Y-14049835D02*
X14288131Y-14030788D01*
X14288131Y-14030788D02*
X14269083Y-14002216D01*
X14269083Y-14002216D02*
X14259559Y-13992692D01*
D12*
X9294020Y-14393780D02*
G75*
G03*
X9294020Y-14393780I-30000J0D01*
G01*
D10*
X9592892Y-14285264D02*
X9611940Y-14285264D01*
X9611940Y-14285264D02*
X9630987Y-14294788D01*
X9630987Y-14294788D02*
X9640511Y-14304311D01*
X9640511Y-14304311D02*
X9650035Y-14323359D01*
X9650035Y-14323359D02*
X9659559Y-14361454D01*
X9659559Y-14361454D02*
X9659559Y-14409073D01*
X9659559Y-14409073D02*
X9650035Y-14447168D01*
X9650035Y-14447168D02*
X9640511Y-14466216D01*
X9640511Y-14466216D02*
X9630987Y-14475740D01*
X9630987Y-14475740D02*
X9611940Y-14485264D01*
X9611940Y-14485264D02*
X9592892Y-14485264D01*
X9592892Y-14485264D02*
X9573844Y-14475740D01*
X9573844Y-14475740D02*
X9564321Y-14466216D01*
X9564321Y-14466216D02*
X9554797Y-14447168D01*
X9554797Y-14447168D02*
X9545273Y-14409073D01*
X9545273Y-14409073D02*
X9545273Y-14361454D01*
X9545273Y-14361454D02*
X9554797Y-14323359D01*
X9554797Y-14323359D02*
X9564321Y-14304311D01*
X9564321Y-14304311D02*
X9573844Y-14294788D01*
X9573844Y-14294788D02*
X9592892Y-14285264D01*
X9745273Y-14466216D02*
X9754797Y-14475740D01*
X9754797Y-14475740D02*
X9745273Y-14485264D01*
X9745273Y-14485264D02*
X9735749Y-14475740D01*
X9735749Y-14475740D02*
X9745273Y-14466216D01*
X9745273Y-14466216D02*
X9745273Y-14485264D01*
X9926225Y-14285264D02*
X9888130Y-14285264D01*
X9888130Y-14285264D02*
X9869083Y-14294788D01*
X9869083Y-14294788D02*
X9859559Y-14304311D01*
X9859559Y-14304311D02*
X9840511Y-14332883D01*
X9840511Y-14332883D02*
X9830987Y-14370978D01*
X9830987Y-14370978D02*
X9830987Y-14447168D01*
X9830987Y-14447168D02*
X9840511Y-14466216D01*
X9840511Y-14466216D02*
X9850035Y-14475740D01*
X9850035Y-14475740D02*
X9869083Y-14485264D01*
X9869083Y-14485264D02*
X9907178Y-14485264D01*
X9907178Y-14485264D02*
X9926225Y-14475740D01*
X9926225Y-14475740D02*
X9935749Y-14466216D01*
X9935749Y-14466216D02*
X9945273Y-14447168D01*
X9945273Y-14447168D02*
X9945273Y-14399549D01*
X9945273Y-14399549D02*
X9935749Y-14380502D01*
X9935749Y-14380502D02*
X9926225Y-14370978D01*
X9926225Y-14370978D02*
X9907178Y-14361454D01*
X9907178Y-14361454D02*
X9869083Y-14361454D01*
X9869083Y-14361454D02*
X9850035Y-14370978D01*
X9850035Y-14370978D02*
X9840511Y-14380502D01*
X9840511Y-14380502D02*
X9830987Y-14399549D01*
X10069083Y-14285264D02*
X10088130Y-14285264D01*
X10088130Y-14285264D02*
X10107178Y-14294788D01*
X10107178Y-14294788D02*
X10116702Y-14304311D01*
X10116702Y-14304311D02*
X10126225Y-14323359D01*
X10126225Y-14323359D02*
X10135749Y-14361454D01*
X10135749Y-14361454D02*
X10135749Y-14409073D01*
X10135749Y-14409073D02*
X10126225Y-14447168D01*
X10126225Y-14447168D02*
X10116702Y-14466216D01*
X10116702Y-14466216D02*
X10107178Y-14475740D01*
X10107178Y-14475740D02*
X10088130Y-14485264D01*
X10088130Y-14485264D02*
X10069083Y-14485264D01*
X10069083Y-14485264D02*
X10050035Y-14475740D01*
X10050035Y-14475740D02*
X10040511Y-14466216D01*
X10040511Y-14466216D02*
X10030987Y-14447168D01*
X10030987Y-14447168D02*
X10021464Y-14409073D01*
X10021464Y-14409073D02*
X10021464Y-14361454D01*
X10021464Y-14361454D02*
X10030987Y-14323359D01*
X10030987Y-14323359D02*
X10040511Y-14304311D01*
X10040511Y-14304311D02*
X10050035Y-14294788D01*
X10050035Y-14294788D02*
X10069083Y-14285264D01*
X10259559Y-14285264D02*
X10278606Y-14285264D01*
X10278606Y-14285264D02*
X10297654Y-14294788D01*
X10297654Y-14294788D02*
X10307178Y-14304311D01*
X10307178Y-14304311D02*
X10316702Y-14323359D01*
X10316702Y-14323359D02*
X10326225Y-14361454D01*
X10326225Y-14361454D02*
X10326225Y-14409073D01*
X10326225Y-14409073D02*
X10316702Y-14447168D01*
X10316702Y-14447168D02*
X10307178Y-14466216D01*
X10307178Y-14466216D02*
X10297654Y-14475740D01*
X10297654Y-14475740D02*
X10278606Y-14485264D01*
X10278606Y-14485264D02*
X10259559Y-14485264D01*
X10259559Y-14485264D02*
X10240511Y-14475740D01*
X10240511Y-14475740D02*
X10230987Y-14466216D01*
X10230987Y-14466216D02*
X10221464Y-14447168D01*
X10221464Y-14447168D02*
X10211940Y-14409073D01*
X10211940Y-14409073D02*
X10211940Y-14361454D01*
X10211940Y-14361454D02*
X10221464Y-14323359D01*
X10221464Y-14323359D02*
X10230987Y-14304311D01*
X10230987Y-14304311D02*
X10240511Y-14294788D01*
X10240511Y-14294788D02*
X10259559Y-14285264D01*
X10411940Y-14485264D02*
X10411940Y-14351930D01*
X10411940Y-14370978D02*
X10421464Y-14361454D01*
X10421464Y-14361454D02*
X10440511Y-14351930D01*
X10440511Y-14351930D02*
X10469083Y-14351930D01*
X10469083Y-14351930D02*
X10488130Y-14361454D01*
X10488130Y-14361454D02*
X10497654Y-14380502D01*
X10497654Y-14380502D02*
X10497654Y-14485264D01*
X10497654Y-14380502D02*
X10507178Y-14361454D01*
X10507178Y-14361454D02*
X10526225Y-14351930D01*
X10526225Y-14351930D02*
X10554797Y-14351930D01*
X10554797Y-14351930D02*
X10573845Y-14361454D01*
X10573845Y-14361454D02*
X10583368Y-14380502D01*
X10583368Y-14380502D02*
X10583368Y-14485264D01*
X10678606Y-14485264D02*
X10678606Y-14351930D01*
X10678606Y-14370978D02*
X10688130Y-14361454D01*
X10688130Y-14361454D02*
X10707178Y-14351930D01*
X10707178Y-14351930D02*
X10735749Y-14351930D01*
X10735749Y-14351930D02*
X10754797Y-14361454D01*
X10754797Y-14361454D02*
X10764321Y-14380502D01*
X10764321Y-14380502D02*
X10764321Y-14485264D01*
X10764321Y-14380502D02*
X10773845Y-14361454D01*
X10773845Y-14361454D02*
X10792892Y-14351930D01*
X10792892Y-14351930D02*
X10821464Y-14351930D01*
X10821464Y-14351930D02*
X10840511Y-14361454D01*
X10840511Y-14361454D02*
X10850035Y-14380502D01*
X10850035Y-14380502D02*
X10850035Y-14485264D01*
X11240511Y-14275740D02*
X11069083Y-14532883D01*
X11497654Y-14285264D02*
X11516702Y-14285264D01*
X11516702Y-14285264D02*
X11535749Y-14294788D01*
X11535749Y-14294788D02*
X11545273Y-14304311D01*
X11545273Y-14304311D02*
X11554797Y-14323359D01*
X11554797Y-14323359D02*
X11564321Y-14361454D01*
X11564321Y-14361454D02*
X11564321Y-14409073D01*
X11564321Y-14409073D02*
X11554797Y-14447168D01*
X11554797Y-14447168D02*
X11545273Y-14466216D01*
X11545273Y-14466216D02*
X11535749Y-14475740D01*
X11535749Y-14475740D02*
X11516702Y-14485264D01*
X11516702Y-14485264D02*
X11497654Y-14485264D01*
X11497654Y-14485264D02*
X11478606Y-14475740D01*
X11478606Y-14475740D02*
X11469083Y-14466216D01*
X11469083Y-14466216D02*
X11459559Y-14447168D01*
X11459559Y-14447168D02*
X11450035Y-14409073D01*
X11450035Y-14409073D02*
X11450035Y-14361454D01*
X11450035Y-14361454D02*
X11459559Y-14323359D01*
X11459559Y-14323359D02*
X11469083Y-14304311D01*
X11469083Y-14304311D02*
X11478606Y-14294788D01*
X11478606Y-14294788D02*
X11497654Y-14285264D01*
X11650035Y-14466216D02*
X11659559Y-14475740D01*
X11659559Y-14475740D02*
X11650035Y-14485264D01*
X11650035Y-14485264D02*
X11640511Y-14475740D01*
X11640511Y-14475740D02*
X11650035Y-14466216D01*
X11650035Y-14466216D02*
X11650035Y-14485264D01*
X11783368Y-14285264D02*
X11802416Y-14285264D01*
X11802416Y-14285264D02*
X11821464Y-14294788D01*
X11821464Y-14294788D02*
X11830987Y-14304311D01*
X11830987Y-14304311D02*
X11840511Y-14323359D01*
X11840511Y-14323359D02*
X11850035Y-14361454D01*
X11850035Y-14361454D02*
X11850035Y-14409073D01*
X11850035Y-14409073D02*
X11840511Y-14447168D01*
X11840511Y-14447168D02*
X11830987Y-14466216D01*
X11830987Y-14466216D02*
X11821464Y-14475740D01*
X11821464Y-14475740D02*
X11802416Y-14485264D01*
X11802416Y-14485264D02*
X11783368Y-14485264D01*
X11783368Y-14485264D02*
X11764321Y-14475740D01*
X11764321Y-14475740D02*
X11754797Y-14466216D01*
X11754797Y-14466216D02*
X11745273Y-14447168D01*
X11745273Y-14447168D02*
X11735749Y-14409073D01*
X11735749Y-14409073D02*
X11735749Y-14361454D01*
X11735749Y-14361454D02*
X11745273Y-14323359D01*
X11745273Y-14323359D02*
X11754797Y-14304311D01*
X11754797Y-14304311D02*
X11764321Y-14294788D01*
X11764321Y-14294788D02*
X11783368Y-14285264D01*
X11926226Y-14304311D02*
X11935749Y-14294788D01*
X11935749Y-14294788D02*
X11954797Y-14285264D01*
X11954797Y-14285264D02*
X12002416Y-14285264D01*
X12002416Y-14285264D02*
X12021464Y-14294788D01*
X12021464Y-14294788D02*
X12030987Y-14304311D01*
X12030987Y-14304311D02*
X12040511Y-14323359D01*
X12040511Y-14323359D02*
X12040511Y-14342407D01*
X12040511Y-14342407D02*
X12030987Y-14370978D01*
X12030987Y-14370978D02*
X11916702Y-14485264D01*
X11916702Y-14485264D02*
X12040511Y-14485264D01*
X12107178Y-14285264D02*
X12230987Y-14285264D01*
X12230987Y-14285264D02*
X12164321Y-14361454D01*
X12164321Y-14361454D02*
X12192892Y-14361454D01*
X12192892Y-14361454D02*
X12211940Y-14370978D01*
X12211940Y-14370978D02*
X12221464Y-14380502D01*
X12221464Y-14380502D02*
X12230987Y-14399549D01*
X12230987Y-14399549D02*
X12230987Y-14447168D01*
X12230987Y-14447168D02*
X12221464Y-14466216D01*
X12221464Y-14466216D02*
X12211940Y-14475740D01*
X12211940Y-14475740D02*
X12192892Y-14485264D01*
X12192892Y-14485264D02*
X12135749Y-14485264D01*
X12135749Y-14485264D02*
X12116702Y-14475740D01*
X12116702Y-14475740D02*
X12107178Y-14466216D01*
X12402416Y-14285264D02*
X12364321Y-14285264D01*
X12364321Y-14285264D02*
X12345273Y-14294788D01*
X12345273Y-14294788D02*
X12335749Y-14304311D01*
X12335749Y-14304311D02*
X12316702Y-14332883D01*
X12316702Y-14332883D02*
X12307178Y-14370978D01*
X12307178Y-14370978D02*
X12307178Y-14447168D01*
X12307178Y-14447168D02*
X12316702Y-14466216D01*
X12316702Y-14466216D02*
X12326226Y-14475740D01*
X12326226Y-14475740D02*
X12345273Y-14485264D01*
X12345273Y-14485264D02*
X12383368Y-14485264D01*
X12383368Y-14485264D02*
X12402416Y-14475740D01*
X12402416Y-14475740D02*
X12411940Y-14466216D01*
X12411940Y-14466216D02*
X12421464Y-14447168D01*
X12421464Y-14447168D02*
X12421464Y-14399549D01*
X12421464Y-14399549D02*
X12411940Y-14380502D01*
X12411940Y-14380502D02*
X12402416Y-14370978D01*
X12402416Y-14370978D02*
X12383368Y-14361454D01*
X12383368Y-14361454D02*
X12345273Y-14361454D01*
X12345273Y-14361454D02*
X12326226Y-14370978D01*
X12326226Y-14370978D02*
X12316702Y-14380502D01*
X12316702Y-14380502D02*
X12307178Y-14399549D01*
X12497654Y-14285264D02*
X12497654Y-14323359D01*
X12573845Y-14285264D02*
X12573845Y-14323359D01*
X12869083Y-14561454D02*
X12859559Y-14551930D01*
X12859559Y-14551930D02*
X12840511Y-14523359D01*
X12840511Y-14523359D02*
X12830988Y-14504311D01*
X12830988Y-14504311D02*
X12821464Y-14475740D01*
X12821464Y-14475740D02*
X12811940Y-14428121D01*
X12811940Y-14428121D02*
X12811940Y-14390026D01*
X12811940Y-14390026D02*
X12821464Y-14342407D01*
X12821464Y-14342407D02*
X12830988Y-14313835D01*
X12830988Y-14313835D02*
X12840511Y-14294788D01*
X12840511Y-14294788D02*
X12859559Y-14266216D01*
X12859559Y-14266216D02*
X12869083Y-14256692D01*
X12983368Y-14285264D02*
X13002416Y-14285264D01*
X13002416Y-14285264D02*
X13021464Y-14294788D01*
X13021464Y-14294788D02*
X13030988Y-14304311D01*
X13030988Y-14304311D02*
X13040511Y-14323359D01*
X13040511Y-14323359D02*
X13050035Y-14361454D01*
X13050035Y-14361454D02*
X13050035Y-14409073D01*
X13050035Y-14409073D02*
X13040511Y-14447168D01*
X13040511Y-14447168D02*
X13030988Y-14466216D01*
X13030988Y-14466216D02*
X13021464Y-14475740D01*
X13021464Y-14475740D02*
X13002416Y-14485264D01*
X13002416Y-14485264D02*
X12983368Y-14485264D01*
X12983368Y-14485264D02*
X12964321Y-14475740D01*
X12964321Y-14475740D02*
X12954797Y-14466216D01*
X12954797Y-14466216D02*
X12945273Y-14447168D01*
X12945273Y-14447168D02*
X12935749Y-14409073D01*
X12935749Y-14409073D02*
X12935749Y-14361454D01*
X12935749Y-14361454D02*
X12945273Y-14323359D01*
X12945273Y-14323359D02*
X12954797Y-14304311D01*
X12954797Y-14304311D02*
X12964321Y-14294788D01*
X12964321Y-14294788D02*
X12983368Y-14285264D01*
X13288130Y-14485264D02*
X13288130Y-14285264D01*
X13373845Y-14485264D02*
X13373845Y-14380502D01*
X13373845Y-14380502D02*
X13364321Y-14361454D01*
X13364321Y-14361454D02*
X13345273Y-14351930D01*
X13345273Y-14351930D02*
X13316702Y-14351930D01*
X13316702Y-14351930D02*
X13297654Y-14361454D01*
X13297654Y-14361454D02*
X13288130Y-14370978D01*
X13497654Y-14485264D02*
X13478607Y-14475740D01*
X13478607Y-14475740D02*
X13469083Y-14466216D01*
X13469083Y-14466216D02*
X13459559Y-14447168D01*
X13459559Y-14447168D02*
X13459559Y-14390026D01*
X13459559Y-14390026D02*
X13469083Y-14370978D01*
X13469083Y-14370978D02*
X13478607Y-14361454D01*
X13478607Y-14361454D02*
X13497654Y-14351930D01*
X13497654Y-14351930D02*
X13526226Y-14351930D01*
X13526226Y-14351930D02*
X13545273Y-14361454D01*
X13545273Y-14361454D02*
X13554797Y-14370978D01*
X13554797Y-14370978D02*
X13564321Y-14390026D01*
X13564321Y-14390026D02*
X13564321Y-14447168D01*
X13564321Y-14447168D02*
X13554797Y-14466216D01*
X13554797Y-14466216D02*
X13545273Y-14475740D01*
X13545273Y-14475740D02*
X13526226Y-14485264D01*
X13526226Y-14485264D02*
X13497654Y-14485264D01*
X13678607Y-14485264D02*
X13659559Y-14475740D01*
X13659559Y-14475740D02*
X13650035Y-14456692D01*
X13650035Y-14456692D02*
X13650035Y-14285264D01*
X13830988Y-14475740D02*
X13811940Y-14485264D01*
X13811940Y-14485264D02*
X13773845Y-14485264D01*
X13773845Y-14485264D02*
X13754797Y-14475740D01*
X13754797Y-14475740D02*
X13745273Y-14456692D01*
X13745273Y-14456692D02*
X13745273Y-14380502D01*
X13745273Y-14380502D02*
X13754797Y-14361454D01*
X13754797Y-14361454D02*
X13773845Y-14351930D01*
X13773845Y-14351930D02*
X13811940Y-14351930D01*
X13811940Y-14351930D02*
X13830988Y-14361454D01*
X13830988Y-14361454D02*
X13840511Y-14380502D01*
X13840511Y-14380502D02*
X13840511Y-14399549D01*
X13840511Y-14399549D02*
X13745273Y-14418597D01*
X13916702Y-14475740D02*
X13935750Y-14485264D01*
X13935750Y-14485264D02*
X13973845Y-14485264D01*
X13973845Y-14485264D02*
X13992892Y-14475740D01*
X13992892Y-14475740D02*
X14002416Y-14456692D01*
X14002416Y-14456692D02*
X14002416Y-14447168D01*
X14002416Y-14447168D02*
X13992892Y-14428121D01*
X13992892Y-14428121D02*
X13973845Y-14418597D01*
X13973845Y-14418597D02*
X13945273Y-14418597D01*
X13945273Y-14418597D02*
X13926226Y-14409073D01*
X13926226Y-14409073D02*
X13916702Y-14390026D01*
X13916702Y-14390026D02*
X13916702Y-14380502D01*
X13916702Y-14380502D02*
X13926226Y-14361454D01*
X13926226Y-14361454D02*
X13945273Y-14351930D01*
X13945273Y-14351930D02*
X13973845Y-14351930D01*
X13973845Y-14351930D02*
X13992892Y-14361454D01*
X14240512Y-14409073D02*
X14392893Y-14409073D01*
X14316702Y-14485264D02*
X14316702Y-14332883D01*
X14726226Y-14351930D02*
X14726226Y-14485264D01*
X14678607Y-14275740D02*
X14630988Y-14418597D01*
X14630988Y-14418597D02*
X14754797Y-14418597D01*
X14973845Y-14475740D02*
X14992893Y-14485264D01*
X14992893Y-14485264D02*
X15030988Y-14485264D01*
X15030988Y-14485264D02*
X15050035Y-14475740D01*
X15050035Y-14475740D02*
X15059559Y-14456692D01*
X15059559Y-14456692D02*
X15059559Y-14447168D01*
X15059559Y-14447168D02*
X15050035Y-14428121D01*
X15050035Y-14428121D02*
X15030988Y-14418597D01*
X15030988Y-14418597D02*
X15002416Y-14418597D01*
X15002416Y-14418597D02*
X14983369Y-14409073D01*
X14983369Y-14409073D02*
X14973845Y-14390026D01*
X14973845Y-14390026D02*
X14973845Y-14380502D01*
X14973845Y-14380502D02*
X14983369Y-14361454D01*
X14983369Y-14361454D02*
X15002416Y-14351930D01*
X15002416Y-14351930D02*
X15030988Y-14351930D01*
X15030988Y-14351930D02*
X15050035Y-14361454D01*
X15173845Y-14485264D02*
X15154797Y-14475740D01*
X15154797Y-14475740D02*
X15145274Y-14456692D01*
X15145274Y-14456692D02*
X15145274Y-14285264D01*
X15278607Y-14485264D02*
X15259559Y-14475740D01*
X15259559Y-14475740D02*
X15250035Y-14466216D01*
X15250035Y-14466216D02*
X15240512Y-14447168D01*
X15240512Y-14447168D02*
X15240512Y-14390026D01*
X15240512Y-14390026D02*
X15250035Y-14370978D01*
X15250035Y-14370978D02*
X15259559Y-14361454D01*
X15259559Y-14361454D02*
X15278607Y-14351930D01*
X15278607Y-14351930D02*
X15307178Y-14351930D01*
X15307178Y-14351930D02*
X15326226Y-14361454D01*
X15326226Y-14361454D02*
X15335750Y-14370978D01*
X15335750Y-14370978D02*
X15345274Y-14390026D01*
X15345274Y-14390026D02*
X15345274Y-14447168D01*
X15345274Y-14447168D02*
X15335750Y-14466216D01*
X15335750Y-14466216D02*
X15326226Y-14475740D01*
X15326226Y-14475740D02*
X15307178Y-14485264D01*
X15307178Y-14485264D02*
X15278607Y-14485264D01*
X15402416Y-14351930D02*
X15478607Y-14351930D01*
X15430988Y-14285264D02*
X15430988Y-14456692D01*
X15430988Y-14456692D02*
X15440512Y-14475740D01*
X15440512Y-14475740D02*
X15459559Y-14485264D01*
X15459559Y-14485264D02*
X15478607Y-14485264D01*
X15535750Y-14475740D02*
X15554797Y-14485264D01*
X15554797Y-14485264D02*
X15592893Y-14485264D01*
X15592893Y-14485264D02*
X15611940Y-14475740D01*
X15611940Y-14475740D02*
X15621464Y-14456692D01*
X15621464Y-14456692D02*
X15621464Y-14447168D01*
X15621464Y-14447168D02*
X15611940Y-14428121D01*
X15611940Y-14428121D02*
X15592893Y-14418597D01*
X15592893Y-14418597D02*
X15564321Y-14418597D01*
X15564321Y-14418597D02*
X15545274Y-14409073D01*
X15545274Y-14409073D02*
X15535750Y-14390026D01*
X15535750Y-14390026D02*
X15535750Y-14380502D01*
X15535750Y-14380502D02*
X15545274Y-14361454D01*
X15545274Y-14361454D02*
X15564321Y-14351930D01*
X15564321Y-14351930D02*
X15592893Y-14351930D01*
X15592893Y-14351930D02*
X15611940Y-14361454D01*
X15688131Y-14561454D02*
X15697655Y-14551930D01*
X15697655Y-14551930D02*
X15716702Y-14523359D01*
X15716702Y-14523359D02*
X15726226Y-14504311D01*
X15726226Y-14504311D02*
X15735750Y-14475740D01*
X15735750Y-14475740D02*
X15745274Y-14428121D01*
X15745274Y-14428121D02*
X15745274Y-14390026D01*
X15745274Y-14390026D02*
X15735750Y-14342407D01*
X15735750Y-14342407D02*
X15726226Y-14313835D01*
X15726226Y-14313835D02*
X15716702Y-14294788D01*
X15716702Y-14294788D02*
X15697655Y-14266216D01*
X15697655Y-14266216D02*
X15688131Y-14256692D01*
D13*
X9244020Y-14607780D02*
X9244020Y-14707780D01*
X9194020Y-14657780D02*
X9294020Y-14657780D01*
D10*
X9659559Y-14749264D02*
X9545273Y-14749264D01*
X9602416Y-14749264D02*
X9602416Y-14549264D01*
X9602416Y-14549264D02*
X9583368Y-14577835D01*
X9583368Y-14577835D02*
X9564321Y-14596883D01*
X9564321Y-14596883D02*
X9545273Y-14606407D01*
X9745273Y-14730216D02*
X9754797Y-14739740D01*
X9754797Y-14739740D02*
X9745273Y-14749264D01*
X9745273Y-14749264D02*
X9735749Y-14739740D01*
X9735749Y-14739740D02*
X9745273Y-14730216D01*
X9745273Y-14730216D02*
X9745273Y-14749264D01*
X9878606Y-14549264D02*
X9897654Y-14549264D01*
X9897654Y-14549264D02*
X9916702Y-14558788D01*
X9916702Y-14558788D02*
X9926225Y-14568311D01*
X9926225Y-14568311D02*
X9935749Y-14587359D01*
X9935749Y-14587359D02*
X9945273Y-14625454D01*
X9945273Y-14625454D02*
X9945273Y-14673073D01*
X9945273Y-14673073D02*
X9935749Y-14711168D01*
X9935749Y-14711168D02*
X9926225Y-14730216D01*
X9926225Y-14730216D02*
X9916702Y-14739740D01*
X9916702Y-14739740D02*
X9897654Y-14749264D01*
X9897654Y-14749264D02*
X9878606Y-14749264D01*
X9878606Y-14749264D02*
X9859559Y-14739740D01*
X9859559Y-14739740D02*
X9850035Y-14730216D01*
X9850035Y-14730216D02*
X9840511Y-14711168D01*
X9840511Y-14711168D02*
X9830987Y-14673073D01*
X9830987Y-14673073D02*
X9830987Y-14625454D01*
X9830987Y-14625454D02*
X9840511Y-14587359D01*
X9840511Y-14587359D02*
X9850035Y-14568311D01*
X9850035Y-14568311D02*
X9859559Y-14558788D01*
X9859559Y-14558788D02*
X9878606Y-14549264D01*
X10069083Y-14549264D02*
X10088130Y-14549264D01*
X10088130Y-14549264D02*
X10107178Y-14558788D01*
X10107178Y-14558788D02*
X10116702Y-14568311D01*
X10116702Y-14568311D02*
X10126225Y-14587359D01*
X10126225Y-14587359D02*
X10135749Y-14625454D01*
X10135749Y-14625454D02*
X10135749Y-14673073D01*
X10135749Y-14673073D02*
X10126225Y-14711168D01*
X10126225Y-14711168D02*
X10116702Y-14730216D01*
X10116702Y-14730216D02*
X10107178Y-14739740D01*
X10107178Y-14739740D02*
X10088130Y-14749264D01*
X10088130Y-14749264D02*
X10069083Y-14749264D01*
X10069083Y-14749264D02*
X10050035Y-14739740D01*
X10050035Y-14739740D02*
X10040511Y-14730216D01*
X10040511Y-14730216D02*
X10030987Y-14711168D01*
X10030987Y-14711168D02*
X10021464Y-14673073D01*
X10021464Y-14673073D02*
X10021464Y-14625454D01*
X10021464Y-14625454D02*
X10030987Y-14587359D01*
X10030987Y-14587359D02*
X10040511Y-14568311D01*
X10040511Y-14568311D02*
X10050035Y-14558788D01*
X10050035Y-14558788D02*
X10069083Y-14549264D01*
X10259559Y-14549264D02*
X10278606Y-14549264D01*
X10278606Y-14549264D02*
X10297654Y-14558788D01*
X10297654Y-14558788D02*
X10307178Y-14568311D01*
X10307178Y-14568311D02*
X10316702Y-14587359D01*
X10316702Y-14587359D02*
X10326225Y-14625454D01*
X10326225Y-14625454D02*
X10326225Y-14673073D01*
X10326225Y-14673073D02*
X10316702Y-14711168D01*
X10316702Y-14711168D02*
X10307178Y-14730216D01*
X10307178Y-14730216D02*
X10297654Y-14739740D01*
X10297654Y-14739740D02*
X10278606Y-14749264D01*
X10278606Y-14749264D02*
X10259559Y-14749264D01*
X10259559Y-14749264D02*
X10240511Y-14739740D01*
X10240511Y-14739740D02*
X10230987Y-14730216D01*
X10230987Y-14730216D02*
X10221464Y-14711168D01*
X10221464Y-14711168D02*
X10211940Y-14673073D01*
X10211940Y-14673073D02*
X10211940Y-14625454D01*
X10211940Y-14625454D02*
X10221464Y-14587359D01*
X10221464Y-14587359D02*
X10230987Y-14568311D01*
X10230987Y-14568311D02*
X10240511Y-14558788D01*
X10240511Y-14558788D02*
X10259559Y-14549264D01*
X10411940Y-14749264D02*
X10411940Y-14615930D01*
X10411940Y-14634978D02*
X10421464Y-14625454D01*
X10421464Y-14625454D02*
X10440511Y-14615930D01*
X10440511Y-14615930D02*
X10469083Y-14615930D01*
X10469083Y-14615930D02*
X10488130Y-14625454D01*
X10488130Y-14625454D02*
X10497654Y-14644502D01*
X10497654Y-14644502D02*
X10497654Y-14749264D01*
X10497654Y-14644502D02*
X10507178Y-14625454D01*
X10507178Y-14625454D02*
X10526225Y-14615930D01*
X10526225Y-14615930D02*
X10554797Y-14615930D01*
X10554797Y-14615930D02*
X10573845Y-14625454D01*
X10573845Y-14625454D02*
X10583368Y-14644502D01*
X10583368Y-14644502D02*
X10583368Y-14749264D01*
X10678606Y-14749264D02*
X10678606Y-14615930D01*
X10678606Y-14634978D02*
X10688130Y-14625454D01*
X10688130Y-14625454D02*
X10707178Y-14615930D01*
X10707178Y-14615930D02*
X10735749Y-14615930D01*
X10735749Y-14615930D02*
X10754797Y-14625454D01*
X10754797Y-14625454D02*
X10764321Y-14644502D01*
X10764321Y-14644502D02*
X10764321Y-14749264D01*
X10764321Y-14644502D02*
X10773845Y-14625454D01*
X10773845Y-14625454D02*
X10792892Y-14615930D01*
X10792892Y-14615930D02*
X10821464Y-14615930D01*
X10821464Y-14615930D02*
X10840511Y-14625454D01*
X10840511Y-14625454D02*
X10850035Y-14644502D01*
X10850035Y-14644502D02*
X10850035Y-14749264D01*
X11240511Y-14539740D02*
X11069083Y-14796883D01*
X11497654Y-14549264D02*
X11516702Y-14549264D01*
X11516702Y-14549264D02*
X11535749Y-14558788D01*
X11535749Y-14558788D02*
X11545273Y-14568311D01*
X11545273Y-14568311D02*
X11554797Y-14587359D01*
X11554797Y-14587359D02*
X11564321Y-14625454D01*
X11564321Y-14625454D02*
X11564321Y-14673073D01*
X11564321Y-14673073D02*
X11554797Y-14711168D01*
X11554797Y-14711168D02*
X11545273Y-14730216D01*
X11545273Y-14730216D02*
X11535749Y-14739740D01*
X11535749Y-14739740D02*
X11516702Y-14749264D01*
X11516702Y-14749264D02*
X11497654Y-14749264D01*
X11497654Y-14749264D02*
X11478606Y-14739740D01*
X11478606Y-14739740D02*
X11469083Y-14730216D01*
X11469083Y-14730216D02*
X11459559Y-14711168D01*
X11459559Y-14711168D02*
X11450035Y-14673073D01*
X11450035Y-14673073D02*
X11450035Y-14625454D01*
X11450035Y-14625454D02*
X11459559Y-14587359D01*
X11459559Y-14587359D02*
X11469083Y-14568311D01*
X11469083Y-14568311D02*
X11478606Y-14558788D01*
X11478606Y-14558788D02*
X11497654Y-14549264D01*
X11650035Y-14730216D02*
X11659559Y-14739740D01*
X11659559Y-14739740D02*
X11650035Y-14749264D01*
X11650035Y-14749264D02*
X11640511Y-14739740D01*
X11640511Y-14739740D02*
X11650035Y-14730216D01*
X11650035Y-14730216D02*
X11650035Y-14749264D01*
X11783368Y-14549264D02*
X11802416Y-14549264D01*
X11802416Y-14549264D02*
X11821464Y-14558788D01*
X11821464Y-14558788D02*
X11830987Y-14568311D01*
X11830987Y-14568311D02*
X11840511Y-14587359D01*
X11840511Y-14587359D02*
X11850035Y-14625454D01*
X11850035Y-14625454D02*
X11850035Y-14673073D01*
X11850035Y-14673073D02*
X11840511Y-14711168D01*
X11840511Y-14711168D02*
X11830987Y-14730216D01*
X11830987Y-14730216D02*
X11821464Y-14739740D01*
X11821464Y-14739740D02*
X11802416Y-14749264D01*
X11802416Y-14749264D02*
X11783368Y-14749264D01*
X11783368Y-14749264D02*
X11764321Y-14739740D01*
X11764321Y-14739740D02*
X11754797Y-14730216D01*
X11754797Y-14730216D02*
X11745273Y-14711168D01*
X11745273Y-14711168D02*
X11735749Y-14673073D01*
X11735749Y-14673073D02*
X11735749Y-14625454D01*
X11735749Y-14625454D02*
X11745273Y-14587359D01*
X11745273Y-14587359D02*
X11754797Y-14568311D01*
X11754797Y-14568311D02*
X11764321Y-14558788D01*
X11764321Y-14558788D02*
X11783368Y-14549264D01*
X11916702Y-14549264D02*
X12040511Y-14549264D01*
X12040511Y-14549264D02*
X11973845Y-14625454D01*
X11973845Y-14625454D02*
X12002416Y-14625454D01*
X12002416Y-14625454D02*
X12021464Y-14634978D01*
X12021464Y-14634978D02*
X12030987Y-14644502D01*
X12030987Y-14644502D02*
X12040511Y-14663549D01*
X12040511Y-14663549D02*
X12040511Y-14711168D01*
X12040511Y-14711168D02*
X12030987Y-14730216D01*
X12030987Y-14730216D02*
X12021464Y-14739740D01*
X12021464Y-14739740D02*
X12002416Y-14749264D01*
X12002416Y-14749264D02*
X11945273Y-14749264D01*
X11945273Y-14749264D02*
X11926226Y-14739740D01*
X11926226Y-14739740D02*
X11916702Y-14730216D01*
X12135749Y-14749264D02*
X12173845Y-14749264D01*
X12173845Y-14749264D02*
X12192892Y-14739740D01*
X12192892Y-14739740D02*
X12202416Y-14730216D01*
X12202416Y-14730216D02*
X12221464Y-14701645D01*
X12221464Y-14701645D02*
X12230987Y-14663549D01*
X12230987Y-14663549D02*
X12230987Y-14587359D01*
X12230987Y-14587359D02*
X12221464Y-14568311D01*
X12221464Y-14568311D02*
X12211940Y-14558788D01*
X12211940Y-14558788D02*
X12192892Y-14549264D01*
X12192892Y-14549264D02*
X12154797Y-14549264D01*
X12154797Y-14549264D02*
X12135749Y-14558788D01*
X12135749Y-14558788D02*
X12126226Y-14568311D01*
X12126226Y-14568311D02*
X12116702Y-14587359D01*
X12116702Y-14587359D02*
X12116702Y-14634978D01*
X12116702Y-14634978D02*
X12126226Y-14654026D01*
X12126226Y-14654026D02*
X12135749Y-14663549D01*
X12135749Y-14663549D02*
X12154797Y-14673073D01*
X12154797Y-14673073D02*
X12192892Y-14673073D01*
X12192892Y-14673073D02*
X12211940Y-14663549D01*
X12211940Y-14663549D02*
X12221464Y-14654026D01*
X12221464Y-14654026D02*
X12230987Y-14634978D01*
X12402416Y-14615930D02*
X12402416Y-14749264D01*
X12354797Y-14539740D02*
X12307178Y-14682597D01*
X12307178Y-14682597D02*
X12430987Y-14682597D01*
X12497654Y-14549264D02*
X12497654Y-14587359D01*
X12573845Y-14549264D02*
X12573845Y-14587359D01*
X12869083Y-14825454D02*
X12859559Y-14815930D01*
X12859559Y-14815930D02*
X12840511Y-14787359D01*
X12840511Y-14787359D02*
X12830988Y-14768311D01*
X12830988Y-14768311D02*
X12821464Y-14739740D01*
X12821464Y-14739740D02*
X12811940Y-14692121D01*
X12811940Y-14692121D02*
X12811940Y-14654026D01*
X12811940Y-14654026D02*
X12821464Y-14606407D01*
X12821464Y-14606407D02*
X12830988Y-14577835D01*
X12830988Y-14577835D02*
X12840511Y-14558788D01*
X12840511Y-14558788D02*
X12859559Y-14530216D01*
X12859559Y-14530216D02*
X12869083Y-14520692D01*
X13030988Y-14615930D02*
X13030988Y-14749264D01*
X12983368Y-14539740D02*
X12935749Y-14682597D01*
X12935749Y-14682597D02*
X13059559Y-14682597D01*
X13230988Y-14549264D02*
X13135749Y-14549264D01*
X13135749Y-14549264D02*
X13126226Y-14644502D01*
X13126226Y-14644502D02*
X13135749Y-14634978D01*
X13135749Y-14634978D02*
X13154797Y-14625454D01*
X13154797Y-14625454D02*
X13202416Y-14625454D01*
X13202416Y-14625454D02*
X13221464Y-14634978D01*
X13221464Y-14634978D02*
X13230988Y-14644502D01*
X13230988Y-14644502D02*
X13240511Y-14663549D01*
X13240511Y-14663549D02*
X13240511Y-14711168D01*
X13240511Y-14711168D02*
X13230988Y-14730216D01*
X13230988Y-14730216D02*
X13221464Y-14739740D01*
X13221464Y-14739740D02*
X13202416Y-14749264D01*
X13202416Y-14749264D02*
X13154797Y-14749264D01*
X13154797Y-14749264D02*
X13135749Y-14739740D01*
X13135749Y-14739740D02*
X13126226Y-14730216D01*
X13478607Y-14749264D02*
X13478607Y-14549264D01*
X13564321Y-14749264D02*
X13564321Y-14644502D01*
X13564321Y-14644502D02*
X13554797Y-14625454D01*
X13554797Y-14625454D02*
X13535750Y-14615930D01*
X13535750Y-14615930D02*
X13507178Y-14615930D01*
X13507178Y-14615930D02*
X13488130Y-14625454D01*
X13488130Y-14625454D02*
X13478607Y-14634978D01*
X13688130Y-14749264D02*
X13669083Y-14739740D01*
X13669083Y-14739740D02*
X13659559Y-14730216D01*
X13659559Y-14730216D02*
X13650035Y-14711168D01*
X13650035Y-14711168D02*
X13650035Y-14654026D01*
X13650035Y-14654026D02*
X13659559Y-14634978D01*
X13659559Y-14634978D02*
X13669083Y-14625454D01*
X13669083Y-14625454D02*
X13688130Y-14615930D01*
X13688130Y-14615930D02*
X13716702Y-14615930D01*
X13716702Y-14615930D02*
X13735750Y-14625454D01*
X13735750Y-14625454D02*
X13745273Y-14634978D01*
X13745273Y-14634978D02*
X13754797Y-14654026D01*
X13754797Y-14654026D02*
X13754797Y-14711168D01*
X13754797Y-14711168D02*
X13745273Y-14730216D01*
X13745273Y-14730216D02*
X13735750Y-14739740D01*
X13735750Y-14739740D02*
X13716702Y-14749264D01*
X13716702Y-14749264D02*
X13688130Y-14749264D01*
X13869083Y-14749264D02*
X13850035Y-14739740D01*
X13850035Y-14739740D02*
X13840511Y-14720692D01*
X13840511Y-14720692D02*
X13840511Y-14549264D01*
X14021464Y-14739740D02*
X14002416Y-14749264D01*
X14002416Y-14749264D02*
X13964321Y-14749264D01*
X13964321Y-14749264D02*
X13945273Y-14739740D01*
X13945273Y-14739740D02*
X13935750Y-14720692D01*
X13935750Y-14720692D02*
X13935750Y-14644502D01*
X13935750Y-14644502D02*
X13945273Y-14625454D01*
X13945273Y-14625454D02*
X13964321Y-14615930D01*
X13964321Y-14615930D02*
X14002416Y-14615930D01*
X14002416Y-14615930D02*
X14021464Y-14625454D01*
X14021464Y-14625454D02*
X14030988Y-14644502D01*
X14030988Y-14644502D02*
X14030988Y-14663549D01*
X14030988Y-14663549D02*
X13935750Y-14682597D01*
X14107178Y-14739740D02*
X14126226Y-14749264D01*
X14126226Y-14749264D02*
X14164321Y-14749264D01*
X14164321Y-14749264D02*
X14183369Y-14739740D01*
X14183369Y-14739740D02*
X14192892Y-14720692D01*
X14192892Y-14720692D02*
X14192892Y-14711168D01*
X14192892Y-14711168D02*
X14183369Y-14692121D01*
X14183369Y-14692121D02*
X14164321Y-14682597D01*
X14164321Y-14682597D02*
X14135750Y-14682597D01*
X14135750Y-14682597D02*
X14116702Y-14673073D01*
X14116702Y-14673073D02*
X14107178Y-14654026D01*
X14107178Y-14654026D02*
X14107178Y-14644502D01*
X14107178Y-14644502D02*
X14116702Y-14625454D01*
X14116702Y-14625454D02*
X14135750Y-14615930D01*
X14135750Y-14615930D02*
X14164321Y-14615930D01*
X14164321Y-14615930D02*
X14183369Y-14625454D01*
X14259559Y-14825454D02*
X14269083Y-14815930D01*
X14269083Y-14815930D02*
X14288131Y-14787359D01*
X14288131Y-14787359D02*
X14297654Y-14768311D01*
X14297654Y-14768311D02*
X14307178Y-14739740D01*
X14307178Y-14739740D02*
X14316702Y-14692121D01*
X14316702Y-14692121D02*
X14316702Y-14654026D01*
X14316702Y-14654026D02*
X14307178Y-14606407D01*
X14307178Y-14606407D02*
X14297654Y-14577835D01*
X14297654Y-14577835D02*
X14288131Y-14558788D01*
X14288131Y-14558788D02*
X14269083Y-14530216D01*
X14269083Y-14530216D02*
X14259559Y-14520692D01*
D14*
X9271761Y-14975521D02*
X9271761Y-14868039D01*
X9164279Y-14868039D01*
X9164279Y-14975521D01*
X9271761Y-14975521D01*
D10*
X9659559Y-15013264D02*
X9545273Y-15013264D01*
X9602416Y-15013264D02*
X9602416Y-14813264D01*
X9602416Y-14813264D02*
X9583368Y-14841835D01*
X9583368Y-14841835D02*
X9564321Y-14860883D01*
X9564321Y-14860883D02*
X9545273Y-14870407D01*
X9745273Y-14994216D02*
X9754797Y-15003740D01*
X9754797Y-15003740D02*
X9745273Y-15013264D01*
X9745273Y-15013264D02*
X9735749Y-15003740D01*
X9735749Y-15003740D02*
X9745273Y-14994216D01*
X9745273Y-14994216D02*
X9745273Y-15013264D01*
X9935749Y-14813264D02*
X9840511Y-14813264D01*
X9840511Y-14813264D02*
X9830987Y-14908502D01*
X9830987Y-14908502D02*
X9840511Y-14898978D01*
X9840511Y-14898978D02*
X9859559Y-14889454D01*
X9859559Y-14889454D02*
X9907178Y-14889454D01*
X9907178Y-14889454D02*
X9926225Y-14898978D01*
X9926225Y-14898978D02*
X9935749Y-14908502D01*
X9935749Y-14908502D02*
X9945273Y-14927549D01*
X9945273Y-14927549D02*
X9945273Y-14975168D01*
X9945273Y-14975168D02*
X9935749Y-14994216D01*
X9935749Y-14994216D02*
X9926225Y-15003740D01*
X9926225Y-15003740D02*
X9907178Y-15013264D01*
X9907178Y-15013264D02*
X9859559Y-15013264D01*
X9859559Y-15013264D02*
X9840511Y-15003740D01*
X9840511Y-15003740D02*
X9830987Y-14994216D01*
X10021464Y-14832311D02*
X10030987Y-14822788D01*
X10030987Y-14822788D02*
X10050035Y-14813264D01*
X10050035Y-14813264D02*
X10097654Y-14813264D01*
X10097654Y-14813264D02*
X10116702Y-14822788D01*
X10116702Y-14822788D02*
X10126225Y-14832311D01*
X10126225Y-14832311D02*
X10135749Y-14851359D01*
X10135749Y-14851359D02*
X10135749Y-14870407D01*
X10135749Y-14870407D02*
X10126225Y-14898978D01*
X10126225Y-14898978D02*
X10011940Y-15013264D01*
X10011940Y-15013264D02*
X10135749Y-15013264D01*
X10259559Y-14813264D02*
X10278606Y-14813264D01*
X10278606Y-14813264D02*
X10297654Y-14822788D01*
X10297654Y-14822788D02*
X10307178Y-14832311D01*
X10307178Y-14832311D02*
X10316702Y-14851359D01*
X10316702Y-14851359D02*
X10326225Y-14889454D01*
X10326225Y-14889454D02*
X10326225Y-14937073D01*
X10326225Y-14937073D02*
X10316702Y-14975168D01*
X10316702Y-14975168D02*
X10307178Y-14994216D01*
X10307178Y-14994216D02*
X10297654Y-15003740D01*
X10297654Y-15003740D02*
X10278606Y-15013264D01*
X10278606Y-15013264D02*
X10259559Y-15013264D01*
X10259559Y-15013264D02*
X10240511Y-15003740D01*
X10240511Y-15003740D02*
X10230987Y-14994216D01*
X10230987Y-14994216D02*
X10221464Y-14975168D01*
X10221464Y-14975168D02*
X10211940Y-14937073D01*
X10211940Y-14937073D02*
X10211940Y-14889454D01*
X10211940Y-14889454D02*
X10221464Y-14851359D01*
X10221464Y-14851359D02*
X10230987Y-14832311D01*
X10230987Y-14832311D02*
X10240511Y-14822788D01*
X10240511Y-14822788D02*
X10259559Y-14813264D01*
X10411940Y-15013264D02*
X10411940Y-14879930D01*
X10411940Y-14898978D02*
X10421464Y-14889454D01*
X10421464Y-14889454D02*
X10440511Y-14879930D01*
X10440511Y-14879930D02*
X10469083Y-14879930D01*
X10469083Y-14879930D02*
X10488130Y-14889454D01*
X10488130Y-14889454D02*
X10497654Y-14908502D01*
X10497654Y-14908502D02*
X10497654Y-15013264D01*
X10497654Y-14908502D02*
X10507178Y-14889454D01*
X10507178Y-14889454D02*
X10526225Y-14879930D01*
X10526225Y-14879930D02*
X10554797Y-14879930D01*
X10554797Y-14879930D02*
X10573845Y-14889454D01*
X10573845Y-14889454D02*
X10583368Y-14908502D01*
X10583368Y-14908502D02*
X10583368Y-15013264D01*
X10678606Y-15013264D02*
X10678606Y-14879930D01*
X10678606Y-14898978D02*
X10688130Y-14889454D01*
X10688130Y-14889454D02*
X10707178Y-14879930D01*
X10707178Y-14879930D02*
X10735749Y-14879930D01*
X10735749Y-14879930D02*
X10754797Y-14889454D01*
X10754797Y-14889454D02*
X10764321Y-14908502D01*
X10764321Y-14908502D02*
X10764321Y-15013264D01*
X10764321Y-14908502D02*
X10773845Y-14889454D01*
X10773845Y-14889454D02*
X10792892Y-14879930D01*
X10792892Y-14879930D02*
X10821464Y-14879930D01*
X10821464Y-14879930D02*
X10840511Y-14889454D01*
X10840511Y-14889454D02*
X10850035Y-14908502D01*
X10850035Y-14908502D02*
X10850035Y-15013264D01*
X11240511Y-14803740D02*
X11069083Y-15060883D01*
X11497654Y-14813264D02*
X11516702Y-14813264D01*
X11516702Y-14813264D02*
X11535749Y-14822788D01*
X11535749Y-14822788D02*
X11545273Y-14832311D01*
X11545273Y-14832311D02*
X11554797Y-14851359D01*
X11554797Y-14851359D02*
X11564321Y-14889454D01*
X11564321Y-14889454D02*
X11564321Y-14937073D01*
X11564321Y-14937073D02*
X11554797Y-14975168D01*
X11554797Y-14975168D02*
X11545273Y-14994216D01*
X11545273Y-14994216D02*
X11535749Y-15003740D01*
X11535749Y-15003740D02*
X11516702Y-15013264D01*
X11516702Y-15013264D02*
X11497654Y-15013264D01*
X11497654Y-15013264D02*
X11478606Y-15003740D01*
X11478606Y-15003740D02*
X11469083Y-14994216D01*
X11469083Y-14994216D02*
X11459559Y-14975168D01*
X11459559Y-14975168D02*
X11450035Y-14937073D01*
X11450035Y-14937073D02*
X11450035Y-14889454D01*
X11450035Y-14889454D02*
X11459559Y-14851359D01*
X11459559Y-14851359D02*
X11469083Y-14832311D01*
X11469083Y-14832311D02*
X11478606Y-14822788D01*
X11478606Y-14822788D02*
X11497654Y-14813264D01*
X11650035Y-14994216D02*
X11659559Y-15003740D01*
X11659559Y-15003740D02*
X11650035Y-15013264D01*
X11650035Y-15013264D02*
X11640511Y-15003740D01*
X11640511Y-15003740D02*
X11650035Y-14994216D01*
X11650035Y-14994216D02*
X11650035Y-15013264D01*
X11783368Y-14813264D02*
X11802416Y-14813264D01*
X11802416Y-14813264D02*
X11821464Y-14822788D01*
X11821464Y-14822788D02*
X11830987Y-14832311D01*
X11830987Y-14832311D02*
X11840511Y-14851359D01*
X11840511Y-14851359D02*
X11850035Y-14889454D01*
X11850035Y-14889454D02*
X11850035Y-14937073D01*
X11850035Y-14937073D02*
X11840511Y-14975168D01*
X11840511Y-14975168D02*
X11830987Y-14994216D01*
X11830987Y-14994216D02*
X11821464Y-15003740D01*
X11821464Y-15003740D02*
X11802416Y-15013264D01*
X11802416Y-15013264D02*
X11783368Y-15013264D01*
X11783368Y-15013264D02*
X11764321Y-15003740D01*
X11764321Y-15003740D02*
X11754797Y-14994216D01*
X11754797Y-14994216D02*
X11745273Y-14975168D01*
X11745273Y-14975168D02*
X11735749Y-14937073D01*
X11735749Y-14937073D02*
X11735749Y-14889454D01*
X11735749Y-14889454D02*
X11745273Y-14851359D01*
X11745273Y-14851359D02*
X11754797Y-14832311D01*
X11754797Y-14832311D02*
X11764321Y-14822788D01*
X11764321Y-14822788D02*
X11783368Y-14813264D01*
X12030987Y-14813264D02*
X11935749Y-14813264D01*
X11935749Y-14813264D02*
X11926226Y-14908502D01*
X11926226Y-14908502D02*
X11935749Y-14898978D01*
X11935749Y-14898978D02*
X11954797Y-14889454D01*
X11954797Y-14889454D02*
X12002416Y-14889454D01*
X12002416Y-14889454D02*
X12021464Y-14898978D01*
X12021464Y-14898978D02*
X12030987Y-14908502D01*
X12030987Y-14908502D02*
X12040511Y-14927549D01*
X12040511Y-14927549D02*
X12040511Y-14975168D01*
X12040511Y-14975168D02*
X12030987Y-14994216D01*
X12030987Y-14994216D02*
X12021464Y-15003740D01*
X12021464Y-15003740D02*
X12002416Y-15013264D01*
X12002416Y-15013264D02*
X11954797Y-15013264D01*
X11954797Y-15013264D02*
X11935749Y-15003740D01*
X11935749Y-15003740D02*
X11926226Y-14994216D01*
X12135749Y-15013264D02*
X12173845Y-15013264D01*
X12173845Y-15013264D02*
X12192892Y-15003740D01*
X12192892Y-15003740D02*
X12202416Y-14994216D01*
X12202416Y-14994216D02*
X12221464Y-14965645D01*
X12221464Y-14965645D02*
X12230987Y-14927549D01*
X12230987Y-14927549D02*
X12230987Y-14851359D01*
X12230987Y-14851359D02*
X12221464Y-14832311D01*
X12221464Y-14832311D02*
X12211940Y-14822788D01*
X12211940Y-14822788D02*
X12192892Y-14813264D01*
X12192892Y-14813264D02*
X12154797Y-14813264D01*
X12154797Y-14813264D02*
X12135749Y-14822788D01*
X12135749Y-14822788D02*
X12126226Y-14832311D01*
X12126226Y-14832311D02*
X12116702Y-14851359D01*
X12116702Y-14851359D02*
X12116702Y-14898978D01*
X12116702Y-14898978D02*
X12126226Y-14918026D01*
X12126226Y-14918026D02*
X12135749Y-14927549D01*
X12135749Y-14927549D02*
X12154797Y-14937073D01*
X12154797Y-14937073D02*
X12192892Y-14937073D01*
X12192892Y-14937073D02*
X12211940Y-14927549D01*
X12211940Y-14927549D02*
X12221464Y-14918026D01*
X12221464Y-14918026D02*
X12230987Y-14898978D01*
X12345273Y-14898978D02*
X12326226Y-14889454D01*
X12326226Y-14889454D02*
X12316702Y-14879930D01*
X12316702Y-14879930D02*
X12307178Y-14860883D01*
X12307178Y-14860883D02*
X12307178Y-14851359D01*
X12307178Y-14851359D02*
X12316702Y-14832311D01*
X12316702Y-14832311D02*
X12326226Y-14822788D01*
X12326226Y-14822788D02*
X12345273Y-14813264D01*
X12345273Y-14813264D02*
X12383368Y-14813264D01*
X12383368Y-14813264D02*
X12402416Y-14822788D01*
X12402416Y-14822788D02*
X12411940Y-14832311D01*
X12411940Y-14832311D02*
X12421464Y-14851359D01*
X12421464Y-14851359D02*
X12421464Y-14860883D01*
X12421464Y-14860883D02*
X12411940Y-14879930D01*
X12411940Y-14879930D02*
X12402416Y-14889454D01*
X12402416Y-14889454D02*
X12383368Y-14898978D01*
X12383368Y-14898978D02*
X12345273Y-14898978D01*
X12345273Y-14898978D02*
X12326226Y-14908502D01*
X12326226Y-14908502D02*
X12316702Y-14918026D01*
X12316702Y-14918026D02*
X12307178Y-14937073D01*
X12307178Y-14937073D02*
X12307178Y-14975168D01*
X12307178Y-14975168D02*
X12316702Y-14994216D01*
X12316702Y-14994216D02*
X12326226Y-15003740D01*
X12326226Y-15003740D02*
X12345273Y-15013264D01*
X12345273Y-15013264D02*
X12383368Y-15013264D01*
X12383368Y-15013264D02*
X12402416Y-15003740D01*
X12402416Y-15003740D02*
X12411940Y-14994216D01*
X12411940Y-14994216D02*
X12421464Y-14975168D01*
X12421464Y-14975168D02*
X12421464Y-14937073D01*
X12421464Y-14937073D02*
X12411940Y-14918026D01*
X12411940Y-14918026D02*
X12402416Y-14908502D01*
X12402416Y-14908502D02*
X12383368Y-14898978D01*
X12497654Y-14813264D02*
X12497654Y-14851359D01*
X12573845Y-14813264D02*
X12573845Y-14851359D01*
X12869083Y-15089454D02*
X12859559Y-15079930D01*
X12859559Y-15079930D02*
X12840511Y-15051359D01*
X12840511Y-15051359D02*
X12830988Y-15032311D01*
X12830988Y-15032311D02*
X12821464Y-15003740D01*
X12821464Y-15003740D02*
X12811940Y-14956121D01*
X12811940Y-14956121D02*
X12811940Y-14918026D01*
X12811940Y-14918026D02*
X12821464Y-14870407D01*
X12821464Y-14870407D02*
X12830988Y-14841835D01*
X12830988Y-14841835D02*
X12840511Y-14822788D01*
X12840511Y-14822788D02*
X12859559Y-14794216D01*
X12859559Y-14794216D02*
X12869083Y-14784692D01*
X13030988Y-14879930D02*
X13030988Y-15013264D01*
X12983368Y-14803740D02*
X12935749Y-14946597D01*
X12935749Y-14946597D02*
X13059559Y-14946597D01*
X13288130Y-15013264D02*
X13288130Y-14813264D01*
X13373845Y-15013264D02*
X13373845Y-14908502D01*
X13373845Y-14908502D02*
X13364321Y-14889454D01*
X13364321Y-14889454D02*
X13345273Y-14879930D01*
X13345273Y-14879930D02*
X13316702Y-14879930D01*
X13316702Y-14879930D02*
X13297654Y-14889454D01*
X13297654Y-14889454D02*
X13288130Y-14898978D01*
X13497654Y-15013264D02*
X13478607Y-15003740D01*
X13478607Y-15003740D02*
X13469083Y-14994216D01*
X13469083Y-14994216D02*
X13459559Y-14975168D01*
X13459559Y-14975168D02*
X13459559Y-14918026D01*
X13459559Y-14918026D02*
X13469083Y-14898978D01*
X13469083Y-14898978D02*
X13478607Y-14889454D01*
X13478607Y-14889454D02*
X13497654Y-14879930D01*
X13497654Y-14879930D02*
X13526226Y-14879930D01*
X13526226Y-14879930D02*
X13545273Y-14889454D01*
X13545273Y-14889454D02*
X13554797Y-14898978D01*
X13554797Y-14898978D02*
X13564321Y-14918026D01*
X13564321Y-14918026D02*
X13564321Y-14975168D01*
X13564321Y-14975168D02*
X13554797Y-14994216D01*
X13554797Y-14994216D02*
X13545273Y-15003740D01*
X13545273Y-15003740D02*
X13526226Y-15013264D01*
X13526226Y-15013264D02*
X13497654Y-15013264D01*
X13678607Y-15013264D02*
X13659559Y-15003740D01*
X13659559Y-15003740D02*
X13650035Y-14984692D01*
X13650035Y-14984692D02*
X13650035Y-14813264D01*
X13830988Y-15003740D02*
X13811940Y-15013264D01*
X13811940Y-15013264D02*
X13773845Y-15013264D01*
X13773845Y-15013264D02*
X13754797Y-15003740D01*
X13754797Y-15003740D02*
X13745273Y-14984692D01*
X13745273Y-14984692D02*
X13745273Y-14908502D01*
X13745273Y-14908502D02*
X13754797Y-14889454D01*
X13754797Y-14889454D02*
X13773845Y-14879930D01*
X13773845Y-14879930D02*
X13811940Y-14879930D01*
X13811940Y-14879930D02*
X13830988Y-14889454D01*
X13830988Y-14889454D02*
X13840511Y-14908502D01*
X13840511Y-14908502D02*
X13840511Y-14927549D01*
X13840511Y-14927549D02*
X13745273Y-14946597D01*
X13916702Y-15003740D02*
X13935750Y-15013264D01*
X13935750Y-15013264D02*
X13973845Y-15013264D01*
X13973845Y-15013264D02*
X13992892Y-15003740D01*
X13992892Y-15003740D02*
X14002416Y-14984692D01*
X14002416Y-14984692D02*
X14002416Y-14975168D01*
X14002416Y-14975168D02*
X13992892Y-14956121D01*
X13992892Y-14956121D02*
X13973845Y-14946597D01*
X13973845Y-14946597D02*
X13945273Y-14946597D01*
X13945273Y-14946597D02*
X13926226Y-14937073D01*
X13926226Y-14937073D02*
X13916702Y-14918026D01*
X13916702Y-14918026D02*
X13916702Y-14908502D01*
X13916702Y-14908502D02*
X13926226Y-14889454D01*
X13926226Y-14889454D02*
X13945273Y-14879930D01*
X13945273Y-14879930D02*
X13973845Y-14879930D01*
X13973845Y-14879930D02*
X13992892Y-14889454D01*
X14069083Y-15089454D02*
X14078607Y-15079930D01*
X14078607Y-15079930D02*
X14097654Y-15051359D01*
X14097654Y-15051359D02*
X14107178Y-15032311D01*
X14107178Y-15032311D02*
X14116702Y-15003740D01*
X14116702Y-15003740D02*
X14126226Y-14956121D01*
X14126226Y-14956121D02*
X14126226Y-14918026D01*
X14126226Y-14918026D02*
X14116702Y-14870407D01*
X14116702Y-14870407D02*
X14107178Y-14841835D01*
X14107178Y-14841835D02*
X14097654Y-14822788D01*
X14097654Y-14822788D02*
X14078607Y-14794216D01*
X14078607Y-14794216D02*
X14069083Y-14784692D01*
X9194020Y-15293780D02*
X9294020Y-15193780D01*
X9194020Y-15093780D01*
X9094020Y-15193780D01*
X9194020Y-15293780D01*
X9545273Y-15104311D02*
X9554797Y-15094788D01*
X9554797Y-15094788D02*
X9573844Y-15085264D01*
X9573844Y-15085264D02*
X9621464Y-15085264D01*
X9621464Y-15085264D02*
X9640511Y-15094788D01*
X9640511Y-15094788D02*
X9650035Y-15104311D01*
X9650035Y-15104311D02*
X9659559Y-15123359D01*
X9659559Y-15123359D02*
X9659559Y-15142407D01*
X9659559Y-15142407D02*
X9650035Y-15170978D01*
X9650035Y-15170978D02*
X9535749Y-15285264D01*
X9535749Y-15285264D02*
X9659559Y-15285264D01*
X9745273Y-15266216D02*
X9754797Y-15275740D01*
X9754797Y-15275740D02*
X9745273Y-15285264D01*
X9745273Y-15285264D02*
X9735749Y-15275740D01*
X9735749Y-15275740D02*
X9745273Y-15266216D01*
X9745273Y-15266216D02*
X9745273Y-15285264D01*
X9821464Y-15085264D02*
X9954797Y-15085264D01*
X9954797Y-15085264D02*
X9869083Y-15285264D01*
X10069083Y-15085264D02*
X10088130Y-15085264D01*
X10088130Y-15085264D02*
X10107178Y-15094788D01*
X10107178Y-15094788D02*
X10116702Y-15104311D01*
X10116702Y-15104311D02*
X10126225Y-15123359D01*
X10126225Y-15123359D02*
X10135749Y-15161454D01*
X10135749Y-15161454D02*
X10135749Y-15209073D01*
X10135749Y-15209073D02*
X10126225Y-15247168D01*
X10126225Y-15247168D02*
X10116702Y-15266216D01*
X10116702Y-15266216D02*
X10107178Y-15275740D01*
X10107178Y-15275740D02*
X10088130Y-15285264D01*
X10088130Y-15285264D02*
X10069083Y-15285264D01*
X10069083Y-15285264D02*
X10050035Y-15275740D01*
X10050035Y-15275740D02*
X10040511Y-15266216D01*
X10040511Y-15266216D02*
X10030987Y-15247168D01*
X10030987Y-15247168D02*
X10021464Y-15209073D01*
X10021464Y-15209073D02*
X10021464Y-15161454D01*
X10021464Y-15161454D02*
X10030987Y-15123359D01*
X10030987Y-15123359D02*
X10040511Y-15104311D01*
X10040511Y-15104311D02*
X10050035Y-15094788D01*
X10050035Y-15094788D02*
X10069083Y-15085264D01*
X10259559Y-15085264D02*
X10278606Y-15085264D01*
X10278606Y-15085264D02*
X10297654Y-15094788D01*
X10297654Y-15094788D02*
X10307178Y-15104311D01*
X10307178Y-15104311D02*
X10316702Y-15123359D01*
X10316702Y-15123359D02*
X10326225Y-15161454D01*
X10326225Y-15161454D02*
X10326225Y-15209073D01*
X10326225Y-15209073D02*
X10316702Y-15247168D01*
X10316702Y-15247168D02*
X10307178Y-15266216D01*
X10307178Y-15266216D02*
X10297654Y-15275740D01*
X10297654Y-15275740D02*
X10278606Y-15285264D01*
X10278606Y-15285264D02*
X10259559Y-15285264D01*
X10259559Y-15285264D02*
X10240511Y-15275740D01*
X10240511Y-15275740D02*
X10230987Y-15266216D01*
X10230987Y-15266216D02*
X10221464Y-15247168D01*
X10221464Y-15247168D02*
X10211940Y-15209073D01*
X10211940Y-15209073D02*
X10211940Y-15161454D01*
X10211940Y-15161454D02*
X10221464Y-15123359D01*
X10221464Y-15123359D02*
X10230987Y-15104311D01*
X10230987Y-15104311D02*
X10240511Y-15094788D01*
X10240511Y-15094788D02*
X10259559Y-15085264D01*
X10411940Y-15285264D02*
X10411940Y-15151930D01*
X10411940Y-15170978D02*
X10421464Y-15161454D01*
X10421464Y-15161454D02*
X10440511Y-15151930D01*
X10440511Y-15151930D02*
X10469083Y-15151930D01*
X10469083Y-15151930D02*
X10488130Y-15161454D01*
X10488130Y-15161454D02*
X10497654Y-15180502D01*
X10497654Y-15180502D02*
X10497654Y-15285264D01*
X10497654Y-15180502D02*
X10507178Y-15161454D01*
X10507178Y-15161454D02*
X10526225Y-15151930D01*
X10526225Y-15151930D02*
X10554797Y-15151930D01*
X10554797Y-15151930D02*
X10573845Y-15161454D01*
X10573845Y-15161454D02*
X10583368Y-15180502D01*
X10583368Y-15180502D02*
X10583368Y-15285264D01*
X10678606Y-15285264D02*
X10678606Y-15151930D01*
X10678606Y-15170978D02*
X10688130Y-15161454D01*
X10688130Y-15161454D02*
X10707178Y-15151930D01*
X10707178Y-15151930D02*
X10735749Y-15151930D01*
X10735749Y-15151930D02*
X10754797Y-15161454D01*
X10754797Y-15161454D02*
X10764321Y-15180502D01*
X10764321Y-15180502D02*
X10764321Y-15285264D01*
X10764321Y-15180502D02*
X10773845Y-15161454D01*
X10773845Y-15161454D02*
X10792892Y-15151930D01*
X10792892Y-15151930D02*
X10821464Y-15151930D01*
X10821464Y-15151930D02*
X10840511Y-15161454D01*
X10840511Y-15161454D02*
X10850035Y-15180502D01*
X10850035Y-15180502D02*
X10850035Y-15285264D01*
X11240511Y-15075740D02*
X11069083Y-15332883D01*
X11497654Y-15085264D02*
X11516702Y-15085264D01*
X11516702Y-15085264D02*
X11535749Y-15094788D01*
X11535749Y-15094788D02*
X11545273Y-15104311D01*
X11545273Y-15104311D02*
X11554797Y-15123359D01*
X11554797Y-15123359D02*
X11564321Y-15161454D01*
X11564321Y-15161454D02*
X11564321Y-15209073D01*
X11564321Y-15209073D02*
X11554797Y-15247168D01*
X11554797Y-15247168D02*
X11545273Y-15266216D01*
X11545273Y-15266216D02*
X11535749Y-15275740D01*
X11535749Y-15275740D02*
X11516702Y-15285264D01*
X11516702Y-15285264D02*
X11497654Y-15285264D01*
X11497654Y-15285264D02*
X11478606Y-15275740D01*
X11478606Y-15275740D02*
X11469083Y-15266216D01*
X11469083Y-15266216D02*
X11459559Y-15247168D01*
X11459559Y-15247168D02*
X11450035Y-15209073D01*
X11450035Y-15209073D02*
X11450035Y-15161454D01*
X11450035Y-15161454D02*
X11459559Y-15123359D01*
X11459559Y-15123359D02*
X11469083Y-15104311D01*
X11469083Y-15104311D02*
X11478606Y-15094788D01*
X11478606Y-15094788D02*
X11497654Y-15085264D01*
X11650035Y-15266216D02*
X11659559Y-15275740D01*
X11659559Y-15275740D02*
X11650035Y-15285264D01*
X11650035Y-15285264D02*
X11640511Y-15275740D01*
X11640511Y-15275740D02*
X11650035Y-15266216D01*
X11650035Y-15266216D02*
X11650035Y-15285264D01*
X11850035Y-15285264D02*
X11735749Y-15285264D01*
X11792892Y-15285264D02*
X11792892Y-15085264D01*
X11792892Y-15085264D02*
X11773845Y-15113835D01*
X11773845Y-15113835D02*
X11754797Y-15132883D01*
X11754797Y-15132883D02*
X11735749Y-15142407D01*
X11973845Y-15085264D02*
X11992892Y-15085264D01*
X11992892Y-15085264D02*
X12011940Y-15094788D01*
X12011940Y-15094788D02*
X12021464Y-15104311D01*
X12021464Y-15104311D02*
X12030987Y-15123359D01*
X12030987Y-15123359D02*
X12040511Y-15161454D01*
X12040511Y-15161454D02*
X12040511Y-15209073D01*
X12040511Y-15209073D02*
X12030987Y-15247168D01*
X12030987Y-15247168D02*
X12021464Y-15266216D01*
X12021464Y-15266216D02*
X12011940Y-15275740D01*
X12011940Y-15275740D02*
X11992892Y-15285264D01*
X11992892Y-15285264D02*
X11973845Y-15285264D01*
X11973845Y-15285264D02*
X11954797Y-15275740D01*
X11954797Y-15275740D02*
X11945273Y-15266216D01*
X11945273Y-15266216D02*
X11935749Y-15247168D01*
X11935749Y-15247168D02*
X11926226Y-15209073D01*
X11926226Y-15209073D02*
X11926226Y-15161454D01*
X11926226Y-15161454D02*
X11935749Y-15123359D01*
X11935749Y-15123359D02*
X11945273Y-15104311D01*
X11945273Y-15104311D02*
X11954797Y-15094788D01*
X11954797Y-15094788D02*
X11973845Y-15085264D01*
X12211940Y-15085264D02*
X12173845Y-15085264D01*
X12173845Y-15085264D02*
X12154797Y-15094788D01*
X12154797Y-15094788D02*
X12145273Y-15104311D01*
X12145273Y-15104311D02*
X12126226Y-15132883D01*
X12126226Y-15132883D02*
X12116702Y-15170978D01*
X12116702Y-15170978D02*
X12116702Y-15247168D01*
X12116702Y-15247168D02*
X12126226Y-15266216D01*
X12126226Y-15266216D02*
X12135749Y-15275740D01*
X12135749Y-15275740D02*
X12154797Y-15285264D01*
X12154797Y-15285264D02*
X12192892Y-15285264D01*
X12192892Y-15285264D02*
X12211940Y-15275740D01*
X12211940Y-15275740D02*
X12221464Y-15266216D01*
X12221464Y-15266216D02*
X12230987Y-15247168D01*
X12230987Y-15247168D02*
X12230987Y-15199549D01*
X12230987Y-15199549D02*
X12221464Y-15180502D01*
X12221464Y-15180502D02*
X12211940Y-15170978D01*
X12211940Y-15170978D02*
X12192892Y-15161454D01*
X12192892Y-15161454D02*
X12154797Y-15161454D01*
X12154797Y-15161454D02*
X12135749Y-15170978D01*
X12135749Y-15170978D02*
X12126226Y-15180502D01*
X12126226Y-15180502D02*
X12116702Y-15199549D01*
X12297654Y-15085264D02*
X12421464Y-15085264D01*
X12421464Y-15085264D02*
X12354797Y-15161454D01*
X12354797Y-15161454D02*
X12383368Y-15161454D01*
X12383368Y-15161454D02*
X12402416Y-15170978D01*
X12402416Y-15170978D02*
X12411940Y-15180502D01*
X12411940Y-15180502D02*
X12421464Y-15199549D01*
X12421464Y-15199549D02*
X12421464Y-15247168D01*
X12421464Y-15247168D02*
X12411940Y-15266216D01*
X12411940Y-15266216D02*
X12402416Y-15275740D01*
X12402416Y-15275740D02*
X12383368Y-15285264D01*
X12383368Y-15285264D02*
X12326226Y-15285264D01*
X12326226Y-15285264D02*
X12307178Y-15275740D01*
X12307178Y-15275740D02*
X12297654Y-15266216D01*
X12497654Y-15085264D02*
X12497654Y-15123359D01*
X12573845Y-15085264D02*
X12573845Y-15123359D01*
X12869083Y-15361454D02*
X12859559Y-15351930D01*
X12859559Y-15351930D02*
X12840511Y-15323359D01*
X12840511Y-15323359D02*
X12830988Y-15304311D01*
X12830988Y-15304311D02*
X12821464Y-15275740D01*
X12821464Y-15275740D02*
X12811940Y-15228121D01*
X12811940Y-15228121D02*
X12811940Y-15190026D01*
X12811940Y-15190026D02*
X12821464Y-15142407D01*
X12821464Y-15142407D02*
X12830988Y-15113835D01*
X12830988Y-15113835D02*
X12840511Y-15094788D01*
X12840511Y-15094788D02*
X12859559Y-15066216D01*
X12859559Y-15066216D02*
X12869083Y-15056692D01*
X13030988Y-15151930D02*
X13030988Y-15285264D01*
X12983368Y-15075740D02*
X12935749Y-15218597D01*
X12935749Y-15218597D02*
X13059559Y-15218597D01*
X13288130Y-15285264D02*
X13288130Y-15085264D01*
X13373845Y-15285264D02*
X13373845Y-15180502D01*
X13373845Y-15180502D02*
X13364321Y-15161454D01*
X13364321Y-15161454D02*
X13345273Y-15151930D01*
X13345273Y-15151930D02*
X13316702Y-15151930D01*
X13316702Y-15151930D02*
X13297654Y-15161454D01*
X13297654Y-15161454D02*
X13288130Y-15170978D01*
X13497654Y-15285264D02*
X13478607Y-15275740D01*
X13478607Y-15275740D02*
X13469083Y-15266216D01*
X13469083Y-15266216D02*
X13459559Y-15247168D01*
X13459559Y-15247168D02*
X13459559Y-15190026D01*
X13459559Y-15190026D02*
X13469083Y-15170978D01*
X13469083Y-15170978D02*
X13478607Y-15161454D01*
X13478607Y-15161454D02*
X13497654Y-15151930D01*
X13497654Y-15151930D02*
X13526226Y-15151930D01*
X13526226Y-15151930D02*
X13545273Y-15161454D01*
X13545273Y-15161454D02*
X13554797Y-15170978D01*
X13554797Y-15170978D02*
X13564321Y-15190026D01*
X13564321Y-15190026D02*
X13564321Y-15247168D01*
X13564321Y-15247168D02*
X13554797Y-15266216D01*
X13554797Y-15266216D02*
X13545273Y-15275740D01*
X13545273Y-15275740D02*
X13526226Y-15285264D01*
X13526226Y-15285264D02*
X13497654Y-15285264D01*
X13678607Y-15285264D02*
X13659559Y-15275740D01*
X13659559Y-15275740D02*
X13650035Y-15256692D01*
X13650035Y-15256692D02*
X13650035Y-15085264D01*
X13830988Y-15275740D02*
X13811940Y-15285264D01*
X13811940Y-15285264D02*
X13773845Y-15285264D01*
X13773845Y-15285264D02*
X13754797Y-15275740D01*
X13754797Y-15275740D02*
X13745273Y-15256692D01*
X13745273Y-15256692D02*
X13745273Y-15180502D01*
X13745273Y-15180502D02*
X13754797Y-15161454D01*
X13754797Y-15161454D02*
X13773845Y-15151930D01*
X13773845Y-15151930D02*
X13811940Y-15151930D01*
X13811940Y-15151930D02*
X13830988Y-15161454D01*
X13830988Y-15161454D02*
X13840511Y-15180502D01*
X13840511Y-15180502D02*
X13840511Y-15199549D01*
X13840511Y-15199549D02*
X13745273Y-15218597D01*
X13916702Y-15275740D02*
X13935750Y-15285264D01*
X13935750Y-15285264D02*
X13973845Y-15285264D01*
X13973845Y-15285264D02*
X13992892Y-15275740D01*
X13992892Y-15275740D02*
X14002416Y-15256692D01*
X14002416Y-15256692D02*
X14002416Y-15247168D01*
X14002416Y-15247168D02*
X13992892Y-15228121D01*
X13992892Y-15228121D02*
X13973845Y-15218597D01*
X13973845Y-15218597D02*
X13945273Y-15218597D01*
X13945273Y-15218597D02*
X13926226Y-15209073D01*
X13926226Y-15209073D02*
X13916702Y-15190026D01*
X13916702Y-15190026D02*
X13916702Y-15180502D01*
X13916702Y-15180502D02*
X13926226Y-15161454D01*
X13926226Y-15161454D02*
X13945273Y-15151930D01*
X13945273Y-15151930D02*
X13973845Y-15151930D01*
X13973845Y-15151930D02*
X13992892Y-15161454D01*
X14069083Y-15361454D02*
X14078607Y-15351930D01*
X14078607Y-15351930D02*
X14097654Y-15323359D01*
X14097654Y-15323359D02*
X14107178Y-15304311D01*
X14107178Y-15304311D02*
X14116702Y-15275740D01*
X14116702Y-15275740D02*
X14126226Y-15228121D01*
X14126226Y-15228121D02*
X14126226Y-15190026D01*
X14126226Y-15190026D02*
X14116702Y-15142407D01*
X14116702Y-15142407D02*
X14107178Y-15113835D01*
X14107178Y-15113835D02*
X14097654Y-15094788D01*
X14097654Y-15094788D02*
X14078607Y-15066216D01*
X14078607Y-15066216D02*
X14069083Y-15056692D01*
X9094020Y-15413780D02*
X9294020Y-15613780D01*
X9294020Y-15413780D02*
X9094020Y-15613780D01*
X9294020Y-15513780D02*
G75*
G03*
X9294020Y-15513780I-100000J0D01*
G01*
X9583368Y-15490978D02*
X9564321Y-15481454D01*
X9564321Y-15481454D02*
X9554797Y-15471930D01*
X9554797Y-15471930D02*
X9545273Y-15452883D01*
X9545273Y-15452883D02*
X9545273Y-15443359D01*
X9545273Y-15443359D02*
X9554797Y-15424311D01*
X9554797Y-15424311D02*
X9564321Y-15414788D01*
X9564321Y-15414788D02*
X9583368Y-15405264D01*
X9583368Y-15405264D02*
X9621464Y-15405264D01*
X9621464Y-15405264D02*
X9640511Y-15414788D01*
X9640511Y-15414788D02*
X9650035Y-15424311D01*
X9650035Y-15424311D02*
X9659559Y-15443359D01*
X9659559Y-15443359D02*
X9659559Y-15452883D01*
X9659559Y-15452883D02*
X9650035Y-15471930D01*
X9650035Y-15471930D02*
X9640511Y-15481454D01*
X9640511Y-15481454D02*
X9621464Y-15490978D01*
X9621464Y-15490978D02*
X9583368Y-15490978D01*
X9583368Y-15490978D02*
X9564321Y-15500502D01*
X9564321Y-15500502D02*
X9554797Y-15510026D01*
X9554797Y-15510026D02*
X9545273Y-15529073D01*
X9545273Y-15529073D02*
X9545273Y-15567168D01*
X9545273Y-15567168D02*
X9554797Y-15586216D01*
X9554797Y-15586216D02*
X9564321Y-15595740D01*
X9564321Y-15595740D02*
X9583368Y-15605264D01*
X9583368Y-15605264D02*
X9621464Y-15605264D01*
X9621464Y-15605264D02*
X9640511Y-15595740D01*
X9640511Y-15595740D02*
X9650035Y-15586216D01*
X9650035Y-15586216D02*
X9659559Y-15567168D01*
X9659559Y-15567168D02*
X9659559Y-15529073D01*
X9659559Y-15529073D02*
X9650035Y-15510026D01*
X9650035Y-15510026D02*
X9640511Y-15500502D01*
X9640511Y-15500502D02*
X9621464Y-15490978D01*
X9745273Y-15586216D02*
X9754797Y-15595740D01*
X9754797Y-15595740D02*
X9745273Y-15605264D01*
X9745273Y-15605264D02*
X9735749Y-15595740D01*
X9735749Y-15595740D02*
X9745273Y-15586216D01*
X9745273Y-15586216D02*
X9745273Y-15605264D01*
X9926225Y-15471930D02*
X9926225Y-15605264D01*
X9878606Y-15395740D02*
X9830987Y-15538597D01*
X9830987Y-15538597D02*
X9954797Y-15538597D01*
X10069083Y-15405264D02*
X10088130Y-15405264D01*
X10088130Y-15405264D02*
X10107178Y-15414788D01*
X10107178Y-15414788D02*
X10116702Y-15424311D01*
X10116702Y-15424311D02*
X10126225Y-15443359D01*
X10126225Y-15443359D02*
X10135749Y-15481454D01*
X10135749Y-15481454D02*
X10135749Y-15529073D01*
X10135749Y-15529073D02*
X10126225Y-15567168D01*
X10126225Y-15567168D02*
X10116702Y-15586216D01*
X10116702Y-15586216D02*
X10107178Y-15595740D01*
X10107178Y-15595740D02*
X10088130Y-15605264D01*
X10088130Y-15605264D02*
X10069083Y-15605264D01*
X10069083Y-15605264D02*
X10050035Y-15595740D01*
X10050035Y-15595740D02*
X10040511Y-15586216D01*
X10040511Y-15586216D02*
X10030987Y-15567168D01*
X10030987Y-15567168D02*
X10021464Y-15529073D01*
X10021464Y-15529073D02*
X10021464Y-15481454D01*
X10021464Y-15481454D02*
X10030987Y-15443359D01*
X10030987Y-15443359D02*
X10040511Y-15424311D01*
X10040511Y-15424311D02*
X10050035Y-15414788D01*
X10050035Y-15414788D02*
X10069083Y-15405264D01*
X10259559Y-15405264D02*
X10278606Y-15405264D01*
X10278606Y-15405264D02*
X10297654Y-15414788D01*
X10297654Y-15414788D02*
X10307178Y-15424311D01*
X10307178Y-15424311D02*
X10316702Y-15443359D01*
X10316702Y-15443359D02*
X10326225Y-15481454D01*
X10326225Y-15481454D02*
X10326225Y-15529073D01*
X10326225Y-15529073D02*
X10316702Y-15567168D01*
X10316702Y-15567168D02*
X10307178Y-15586216D01*
X10307178Y-15586216D02*
X10297654Y-15595740D01*
X10297654Y-15595740D02*
X10278606Y-15605264D01*
X10278606Y-15605264D02*
X10259559Y-15605264D01*
X10259559Y-15605264D02*
X10240511Y-15595740D01*
X10240511Y-15595740D02*
X10230987Y-15586216D01*
X10230987Y-15586216D02*
X10221464Y-15567168D01*
X10221464Y-15567168D02*
X10211940Y-15529073D01*
X10211940Y-15529073D02*
X10211940Y-15481454D01*
X10211940Y-15481454D02*
X10221464Y-15443359D01*
X10221464Y-15443359D02*
X10230987Y-15424311D01*
X10230987Y-15424311D02*
X10240511Y-15414788D01*
X10240511Y-15414788D02*
X10259559Y-15405264D01*
X10411940Y-15605264D02*
X10411940Y-15471930D01*
X10411940Y-15490978D02*
X10421464Y-15481454D01*
X10421464Y-15481454D02*
X10440511Y-15471930D01*
X10440511Y-15471930D02*
X10469083Y-15471930D01*
X10469083Y-15471930D02*
X10488130Y-15481454D01*
X10488130Y-15481454D02*
X10497654Y-15500502D01*
X10497654Y-15500502D02*
X10497654Y-15605264D01*
X10497654Y-15500502D02*
X10507178Y-15481454D01*
X10507178Y-15481454D02*
X10526225Y-15471930D01*
X10526225Y-15471930D02*
X10554797Y-15471930D01*
X10554797Y-15471930D02*
X10573845Y-15481454D01*
X10573845Y-15481454D02*
X10583368Y-15500502D01*
X10583368Y-15500502D02*
X10583368Y-15605264D01*
X10678606Y-15605264D02*
X10678606Y-15471930D01*
X10678606Y-15490978D02*
X10688130Y-15481454D01*
X10688130Y-15481454D02*
X10707178Y-15471930D01*
X10707178Y-15471930D02*
X10735749Y-15471930D01*
X10735749Y-15471930D02*
X10754797Y-15481454D01*
X10754797Y-15481454D02*
X10764321Y-15500502D01*
X10764321Y-15500502D02*
X10764321Y-15605264D01*
X10764321Y-15500502D02*
X10773845Y-15481454D01*
X10773845Y-15481454D02*
X10792892Y-15471930D01*
X10792892Y-15471930D02*
X10821464Y-15471930D01*
X10821464Y-15471930D02*
X10840511Y-15481454D01*
X10840511Y-15481454D02*
X10850035Y-15500502D01*
X10850035Y-15500502D02*
X10850035Y-15605264D01*
X11240511Y-15395740D02*
X11069083Y-15652883D01*
X11497654Y-15405264D02*
X11516702Y-15405264D01*
X11516702Y-15405264D02*
X11535749Y-15414788D01*
X11535749Y-15414788D02*
X11545273Y-15424311D01*
X11545273Y-15424311D02*
X11554797Y-15443359D01*
X11554797Y-15443359D02*
X11564321Y-15481454D01*
X11564321Y-15481454D02*
X11564321Y-15529073D01*
X11564321Y-15529073D02*
X11554797Y-15567168D01*
X11554797Y-15567168D02*
X11545273Y-15586216D01*
X11545273Y-15586216D02*
X11535749Y-15595740D01*
X11535749Y-15595740D02*
X11516702Y-15605264D01*
X11516702Y-15605264D02*
X11497654Y-15605264D01*
X11497654Y-15605264D02*
X11478606Y-15595740D01*
X11478606Y-15595740D02*
X11469083Y-15586216D01*
X11469083Y-15586216D02*
X11459559Y-15567168D01*
X11459559Y-15567168D02*
X11450035Y-15529073D01*
X11450035Y-15529073D02*
X11450035Y-15481454D01*
X11450035Y-15481454D02*
X11459559Y-15443359D01*
X11459559Y-15443359D02*
X11469083Y-15424311D01*
X11469083Y-15424311D02*
X11478606Y-15414788D01*
X11478606Y-15414788D02*
X11497654Y-15405264D01*
X11650035Y-15586216D02*
X11659559Y-15595740D01*
X11659559Y-15595740D02*
X11650035Y-15605264D01*
X11650035Y-15605264D02*
X11640511Y-15595740D01*
X11640511Y-15595740D02*
X11650035Y-15586216D01*
X11650035Y-15586216D02*
X11650035Y-15605264D01*
X11726226Y-15405264D02*
X11850035Y-15405264D01*
X11850035Y-15405264D02*
X11783368Y-15481454D01*
X11783368Y-15481454D02*
X11811940Y-15481454D01*
X11811940Y-15481454D02*
X11830987Y-15490978D01*
X11830987Y-15490978D02*
X11840511Y-15500502D01*
X11840511Y-15500502D02*
X11850035Y-15519549D01*
X11850035Y-15519549D02*
X11850035Y-15567168D01*
X11850035Y-15567168D02*
X11840511Y-15586216D01*
X11840511Y-15586216D02*
X11830987Y-15595740D01*
X11830987Y-15595740D02*
X11811940Y-15605264D01*
X11811940Y-15605264D02*
X11754797Y-15605264D01*
X11754797Y-15605264D02*
X11735749Y-15595740D01*
X11735749Y-15595740D02*
X11726226Y-15586216D01*
X11916702Y-15405264D02*
X12040511Y-15405264D01*
X12040511Y-15405264D02*
X11973845Y-15481454D01*
X11973845Y-15481454D02*
X12002416Y-15481454D01*
X12002416Y-15481454D02*
X12021464Y-15490978D01*
X12021464Y-15490978D02*
X12030987Y-15500502D01*
X12030987Y-15500502D02*
X12040511Y-15519549D01*
X12040511Y-15519549D02*
X12040511Y-15567168D01*
X12040511Y-15567168D02*
X12030987Y-15586216D01*
X12030987Y-15586216D02*
X12021464Y-15595740D01*
X12021464Y-15595740D02*
X12002416Y-15605264D01*
X12002416Y-15605264D02*
X11945273Y-15605264D01*
X11945273Y-15605264D02*
X11926226Y-15595740D01*
X11926226Y-15595740D02*
X11916702Y-15586216D01*
X12164321Y-15405264D02*
X12183368Y-15405264D01*
X12183368Y-15405264D02*
X12202416Y-15414788D01*
X12202416Y-15414788D02*
X12211940Y-15424311D01*
X12211940Y-15424311D02*
X12221464Y-15443359D01*
X12221464Y-15443359D02*
X12230987Y-15481454D01*
X12230987Y-15481454D02*
X12230987Y-15529073D01*
X12230987Y-15529073D02*
X12221464Y-15567168D01*
X12221464Y-15567168D02*
X12211940Y-15586216D01*
X12211940Y-15586216D02*
X12202416Y-15595740D01*
X12202416Y-15595740D02*
X12183368Y-15605264D01*
X12183368Y-15605264D02*
X12164321Y-15605264D01*
X12164321Y-15605264D02*
X12145273Y-15595740D01*
X12145273Y-15595740D02*
X12135749Y-15586216D01*
X12135749Y-15586216D02*
X12126226Y-15567168D01*
X12126226Y-15567168D02*
X12116702Y-15529073D01*
X12116702Y-15529073D02*
X12116702Y-15481454D01*
X12116702Y-15481454D02*
X12126226Y-15443359D01*
X12126226Y-15443359D02*
X12135749Y-15424311D01*
X12135749Y-15424311D02*
X12145273Y-15414788D01*
X12145273Y-15414788D02*
X12164321Y-15405264D01*
X12297654Y-15405264D02*
X12430987Y-15405264D01*
X12430987Y-15405264D02*
X12345273Y-15605264D01*
X12497654Y-15405264D02*
X12497654Y-15443359D01*
X12573845Y-15405264D02*
X12573845Y-15443359D01*
X12869083Y-15681454D02*
X12859559Y-15671930D01*
X12859559Y-15671930D02*
X12840511Y-15643359D01*
X12840511Y-15643359D02*
X12830988Y-15624311D01*
X12830988Y-15624311D02*
X12821464Y-15595740D01*
X12821464Y-15595740D02*
X12811940Y-15548121D01*
X12811940Y-15548121D02*
X12811940Y-15510026D01*
X12811940Y-15510026D02*
X12821464Y-15462407D01*
X12821464Y-15462407D02*
X12830988Y-15433835D01*
X12830988Y-15433835D02*
X12840511Y-15414788D01*
X12840511Y-15414788D02*
X12859559Y-15386216D01*
X12859559Y-15386216D02*
X12869083Y-15376692D01*
X13030988Y-15471930D02*
X13030988Y-15605264D01*
X12983368Y-15395740D02*
X12935749Y-15538597D01*
X12935749Y-15538597D02*
X13059559Y-15538597D01*
X13288130Y-15605264D02*
X13288130Y-15405264D01*
X13373845Y-15605264D02*
X13373845Y-15500502D01*
X13373845Y-15500502D02*
X13364321Y-15481454D01*
X13364321Y-15481454D02*
X13345273Y-15471930D01*
X13345273Y-15471930D02*
X13316702Y-15471930D01*
X13316702Y-15471930D02*
X13297654Y-15481454D01*
X13297654Y-15481454D02*
X13288130Y-15490978D01*
X13497654Y-15605264D02*
X13478607Y-15595740D01*
X13478607Y-15595740D02*
X13469083Y-15586216D01*
X13469083Y-15586216D02*
X13459559Y-15567168D01*
X13459559Y-15567168D02*
X13459559Y-15510026D01*
X13459559Y-15510026D02*
X13469083Y-15490978D01*
X13469083Y-15490978D02*
X13478607Y-15481454D01*
X13478607Y-15481454D02*
X13497654Y-15471930D01*
X13497654Y-15471930D02*
X13526226Y-15471930D01*
X13526226Y-15471930D02*
X13545273Y-15481454D01*
X13545273Y-15481454D02*
X13554797Y-15490978D01*
X13554797Y-15490978D02*
X13564321Y-15510026D01*
X13564321Y-15510026D02*
X13564321Y-15567168D01*
X13564321Y-15567168D02*
X13554797Y-15586216D01*
X13554797Y-15586216D02*
X13545273Y-15595740D01*
X13545273Y-15595740D02*
X13526226Y-15605264D01*
X13526226Y-15605264D02*
X13497654Y-15605264D01*
X13678607Y-15605264D02*
X13659559Y-15595740D01*
X13659559Y-15595740D02*
X13650035Y-15576692D01*
X13650035Y-15576692D02*
X13650035Y-15405264D01*
X13830988Y-15595740D02*
X13811940Y-15605264D01*
X13811940Y-15605264D02*
X13773845Y-15605264D01*
X13773845Y-15605264D02*
X13754797Y-15595740D01*
X13754797Y-15595740D02*
X13745273Y-15576692D01*
X13745273Y-15576692D02*
X13745273Y-15500502D01*
X13745273Y-15500502D02*
X13754797Y-15481454D01*
X13754797Y-15481454D02*
X13773845Y-15471930D01*
X13773845Y-15471930D02*
X13811940Y-15471930D01*
X13811940Y-15471930D02*
X13830988Y-15481454D01*
X13830988Y-15481454D02*
X13840511Y-15500502D01*
X13840511Y-15500502D02*
X13840511Y-15519549D01*
X13840511Y-15519549D02*
X13745273Y-15538597D01*
X13916702Y-15595740D02*
X13935750Y-15605264D01*
X13935750Y-15605264D02*
X13973845Y-15605264D01*
X13973845Y-15605264D02*
X13992892Y-15595740D01*
X13992892Y-15595740D02*
X14002416Y-15576692D01*
X14002416Y-15576692D02*
X14002416Y-15567168D01*
X14002416Y-15567168D02*
X13992892Y-15548121D01*
X13992892Y-15548121D02*
X13973845Y-15538597D01*
X13973845Y-15538597D02*
X13945273Y-15538597D01*
X13945273Y-15538597D02*
X13926226Y-15529073D01*
X13926226Y-15529073D02*
X13916702Y-15510026D01*
X13916702Y-15510026D02*
X13916702Y-15500502D01*
X13916702Y-15500502D02*
X13926226Y-15481454D01*
X13926226Y-15481454D02*
X13945273Y-15471930D01*
X13945273Y-15471930D02*
X13973845Y-15471930D01*
X13973845Y-15471930D02*
X13992892Y-15481454D01*
X14069083Y-15681454D02*
X14078607Y-15671930D01*
X14078607Y-15671930D02*
X14097654Y-15643359D01*
X14097654Y-15643359D02*
X14107178Y-15624311D01*
X14107178Y-15624311D02*
X14116702Y-15595740D01*
X14116702Y-15595740D02*
X14126226Y-15548121D01*
X14126226Y-15548121D02*
X14126226Y-15510026D01*
X14126226Y-15510026D02*
X14116702Y-15462407D01*
X14116702Y-15462407D02*
X14107178Y-15433835D01*
X14107178Y-15433835D02*
X14097654Y-15414788D01*
X14097654Y-15414788D02*
X14078607Y-15386216D01*
X14078607Y-15386216D02*
X14069083Y-15376692D01*
M02*
