%TF.GenerationSoftware,KiCad,Pcbnew,7.0.7*%
%TF.CreationDate,2024-02-10T01:31:47+05:30*%
%TF.ProjectId,PDB_Board,5044425f-426f-4617-9264-2e6b69636164,rev?*%
%TF.SameCoordinates,Original*%
%TF.FileFunction,Soldermask,Top*%
%TF.FilePolarity,Negative*%
%FSLAX46Y46*%
G04 Gerber Fmt 4.6, Leading zero omitted, Abs format (unit mm)*
G04 Created by KiCad (PCBNEW 7.0.7) date 2024-02-10 01:31:47*
%MOMM*%
%LPD*%
G01*
G04 APERTURE LIST*
G04 Aperture macros list*
%AMRoundRect*
0 Rectangle with rounded corners*
0 $1 Rounding radius*
0 $2 $3 $4 $5 $6 $7 $8 $9 X,Y pos of 4 corners*
0 Add a 4 corners polygon primitive as box body*
4,1,4,$2,$3,$4,$5,$6,$7,$8,$9,$2,$3,0*
0 Add four circle primitives for the rounded corners*
1,1,$1+$1,$2,$3*
1,1,$1+$1,$4,$5*
1,1,$1+$1,$6,$7*
1,1,$1+$1,$8,$9*
0 Add four rect primitives between the rounded corners*
20,1,$1+$1,$2,$3,$4,$5,0*
20,1,$1+$1,$4,$5,$6,$7,0*
20,1,$1+$1,$6,$7,$8,$9,0*
20,1,$1+$1,$8,$9,$2,$3,0*%
G04 Aperture macros list end*
%ADD10R,1.700000X1.700000*%
%ADD11O,1.700000X1.700000*%
%ADD12C,10.400000*%
%ADD13RoundRect,0.243750X0.243750X0.456250X-0.243750X0.456250X-0.243750X-0.456250X0.243750X-0.456250X0*%
%ADD14RoundRect,0.250000X0.262500X0.450000X-0.262500X0.450000X-0.262500X-0.450000X0.262500X-0.450000X0*%
%ADD15R,3.000000X3.000000*%
%ADD16C,3.000000*%
%ADD17RoundRect,0.250000X-0.262500X-0.450000X0.262500X-0.450000X0.262500X0.450000X-0.262500X0.450000X0*%
%ADD18RoundRect,0.250000X0.250000X0.475000X-0.250000X0.475000X-0.250000X-0.475000X0.250000X-0.475000X0*%
%ADD19RoundRect,0.250000X-0.250000X-0.475000X0.250000X-0.475000X0.250000X0.475000X-0.250000X0.475000X0*%
%ADD20RoundRect,0.243750X-0.243750X-0.456250X0.243750X-0.456250X0.243750X0.456250X-0.243750X0.456250X0*%
%ADD21RoundRect,0.150000X-0.150000X-0.700000X0.150000X-0.700000X0.150000X0.700000X-0.150000X0.700000X0*%
%ADD22RoundRect,0.250000X-0.250000X-1.100000X0.250000X-1.100000X0.250000X1.100000X-0.250000X1.100000X0*%
%ADD23R,2.000000X1.500000*%
%ADD24R,2.000000X3.800000*%
%ADD25RoundRect,0.250000X0.850000X0.350000X-0.850000X0.350000X-0.850000X-0.350000X0.850000X-0.350000X0*%
%ADD26RoundRect,0.249997X2.950003X2.650003X-2.950003X2.650003X-2.950003X-2.650003X2.950003X-2.650003X0*%
%ADD27R,0.900000X2.000000*%
%ADD28RoundRect,1.025000X-1.025000X-1.025000X1.025000X-1.025000X1.025000X1.025000X-1.025000X1.025000X0*%
%ADD29C,4.100000*%
G04 APERTURE END LIST*
D10*
%TO.C,U1*%
X156165200Y-82087800D03*
D11*
X156165200Y-84627800D03*
X156165200Y-87167800D03*
X156165200Y-89707800D03*
X156165200Y-92247800D03*
X156165200Y-94787800D03*
X156165200Y-97327800D03*
X156165200Y-99867800D03*
X156165200Y-102407800D03*
X156165200Y-104947800D03*
X156165200Y-107487800D03*
X156165200Y-110027800D03*
X156165200Y-112567800D03*
X156165200Y-115107800D03*
X156165200Y-117647800D03*
X99765200Y-117617800D03*
X99765200Y-115077800D03*
X99765200Y-112537800D03*
X99765200Y-109997800D03*
X99765200Y-107457800D03*
X99765200Y-104917800D03*
X99765200Y-102377800D03*
X99765200Y-99837800D03*
X99765200Y-97297800D03*
X99765200Y-94757800D03*
X99765200Y-92217800D03*
X99765200Y-89677800D03*
X99765200Y-87137800D03*
X99765200Y-84597800D03*
D10*
X99765200Y-82057800D03*
X110190200Y-71672800D03*
D11*
X112730200Y-71672800D03*
X115270200Y-71672800D03*
X117810200Y-71672800D03*
X120350200Y-71672800D03*
X122890200Y-71672800D03*
X125430200Y-71672800D03*
X127970200Y-71672800D03*
X130510200Y-71672800D03*
X133050200Y-71672800D03*
X135590200Y-71672800D03*
X138130200Y-71672800D03*
X140670200Y-71672800D03*
X143210200Y-71672800D03*
X145750200Y-71672800D03*
D12*
X155765200Y-127672800D03*
X100165200Y-127672800D03*
X100165200Y-71972800D03*
X155765200Y-71987800D03*
%TD*%
D13*
%TO.C,5V_LED*%
X115999100Y-111048800D03*
X114124100Y-111048800D03*
%TD*%
D14*
%TO.C,R1*%
X140510900Y-108432600D03*
X138685900Y-108432600D03*
%TD*%
D13*
%TO.C,7.4V1_LED*%
X140508600Y-111125000D03*
X138633600Y-111125000D03*
%TD*%
D15*
%TO.C,PRIMARY SWITCH*%
X144119600Y-100253800D03*
D16*
X149199600Y-100253800D03*
%TD*%
D15*
%TO.C,CAM+TELEM SWITCH*%
X131368800Y-100253800D03*
D16*
X136448800Y-100253800D03*
%TD*%
D17*
%TO.C,R3*%
X120575700Y-108204000D03*
X122400700Y-108204000D03*
%TD*%
D18*
%TO.C,C5*%
X146078800Y-85343000D03*
X144178800Y-85343000D03*
%TD*%
D14*
%TO.C,R2*%
X115951000Y-108254800D03*
X114126000Y-108254800D03*
%TD*%
D19*
%TO.C,C7*%
X144153400Y-88162400D03*
X146053400Y-88162400D03*
%TD*%
%TO.C,C2*%
X122436400Y-81888600D03*
X124336400Y-81888600D03*
%TD*%
D14*
%TO.C,R6*%
X134438400Y-90345100D03*
X132613400Y-90345100D03*
%TD*%
D18*
%TO.C,C9*%
X130534000Y-86816200D03*
X128634000Y-86816200D03*
%TD*%
D20*
%TO.C,7.4V2_LED*%
X120601500Y-111048800D03*
X122476500Y-111048800D03*
%TD*%
D21*
%TO.C,J1*%
X126715200Y-128117600D03*
X127965200Y-128117600D03*
D22*
X124865200Y-131317600D03*
X129815200Y-131317600D03*
%TD*%
D13*
%TO.C,3.3V_LED*%
X134440300Y-93062900D03*
X132565300Y-93062900D03*
%TD*%
D23*
%TO.C,U3*%
X140455600Y-86576200D03*
X140455600Y-84276200D03*
D24*
X134155600Y-84276200D03*
D23*
X140455600Y-81976200D03*
%TD*%
D18*
%TO.C,C6*%
X146078800Y-82498200D03*
X144178800Y-82498200D03*
%TD*%
D25*
%TO.C,U2*%
X118950400Y-86810200D03*
D26*
X112650400Y-84530200D03*
D25*
X118950400Y-82250200D03*
%TD*%
D18*
%TO.C,C8*%
X130584800Y-81888600D03*
X128684800Y-81888600D03*
%TD*%
D19*
%TO.C,C1*%
X122385600Y-86816200D03*
X124285600Y-86816200D03*
%TD*%
D27*
%TO.C,CAM+TELEM*%
X110960000Y-123317000D03*
X124460000Y-123317000D03*
D28*
X121310000Y-117317000D03*
D29*
X114110000Y-117317000D03*
%TD*%
D27*
%TO.C,PRIMARY*%
X130200400Y-123317000D03*
X143700400Y-123317000D03*
D28*
X140550400Y-117317000D03*
D29*
X133350400Y-117317000D03*
%TD*%
M02*
