%TF.GenerationSoftware,KiCad,Pcbnew,7.0.7*%
%TF.CreationDate,2024-02-10T01:31:47+05:30*%
%TF.ProjectId,PDB_Board,5044425f-426f-4617-9264-2e6b69636164,rev?*%
%TF.SameCoordinates,Original*%
%TF.FileFunction,Legend,Top*%
%TF.FilePolarity,Positive*%
%FSLAX46Y46*%
G04 Gerber Fmt 4.6, Leading zero omitted, Abs format (unit mm)*
G04 Created by KiCad (PCBNEW 7.0.7) date 2024-02-10 01:31:47*
%MOMM*%
%LPD*%
G01*
G04 APERTURE LIST*
%ADD10C,0.150000*%
%ADD11C,0.100000*%
%ADD12C,0.120000*%
G04 APERTURE END LIST*
D10*
X125215807Y-134439019D02*
X124882474Y-133962828D01*
X124644379Y-134439019D02*
X124644379Y-133439019D01*
X124644379Y-133439019D02*
X125025331Y-133439019D01*
X125025331Y-133439019D02*
X125120569Y-133486638D01*
X125120569Y-133486638D02*
X125168188Y-133534257D01*
X125168188Y-133534257D02*
X125215807Y-133629495D01*
X125215807Y-133629495D02*
X125215807Y-133772352D01*
X125215807Y-133772352D02*
X125168188Y-133867590D01*
X125168188Y-133867590D02*
X125120569Y-133915209D01*
X125120569Y-133915209D02*
X125025331Y-133962828D01*
X125025331Y-133962828D02*
X124644379Y-133962828D01*
X125644379Y-133439019D02*
X125644379Y-134248542D01*
X125644379Y-134248542D02*
X125691998Y-134343780D01*
X125691998Y-134343780D02*
X125739617Y-134391400D01*
X125739617Y-134391400D02*
X125834855Y-134439019D01*
X125834855Y-134439019D02*
X126025331Y-134439019D01*
X126025331Y-134439019D02*
X126120569Y-134391400D01*
X126120569Y-134391400D02*
X126168188Y-134343780D01*
X126168188Y-134343780D02*
X126215807Y-134248542D01*
X126215807Y-134248542D02*
X126215807Y-133439019D01*
X126691998Y-134439019D02*
X126691998Y-133439019D01*
X126691998Y-133439019D02*
X127263426Y-134439019D01*
X127263426Y-134439019D02*
X127263426Y-133439019D01*
X128311045Y-134343780D02*
X128263426Y-134391400D01*
X128263426Y-134391400D02*
X128120569Y-134439019D01*
X128120569Y-134439019D02*
X128025331Y-134439019D01*
X128025331Y-134439019D02*
X127882474Y-134391400D01*
X127882474Y-134391400D02*
X127787236Y-134296161D01*
X127787236Y-134296161D02*
X127739617Y-134200923D01*
X127739617Y-134200923D02*
X127691998Y-134010447D01*
X127691998Y-134010447D02*
X127691998Y-133867590D01*
X127691998Y-133867590D02*
X127739617Y-133677114D01*
X127739617Y-133677114D02*
X127787236Y-133581876D01*
X127787236Y-133581876D02*
X127882474Y-133486638D01*
X127882474Y-133486638D02*
X128025331Y-133439019D01*
X128025331Y-133439019D02*
X128120569Y-133439019D01*
X128120569Y-133439019D02*
X128263426Y-133486638D01*
X128263426Y-133486638D02*
X128311045Y-133534257D01*
X128691998Y-134153304D02*
X129168188Y-134153304D01*
X128596760Y-134439019D02*
X128930093Y-133439019D01*
X128930093Y-133439019D02*
X129263426Y-134439019D01*
X129596760Y-134439019D02*
X129596760Y-133439019D01*
X129596760Y-133439019D02*
X129930093Y-134153304D01*
X129930093Y-134153304D02*
X130263426Y-133439019D01*
X130263426Y-133439019D02*
X130263426Y-134439019D01*
D11*
X95907619Y-101418915D02*
X94907619Y-101418915D01*
X94907619Y-101418915D02*
X94907619Y-101180820D01*
X94907619Y-101180820D02*
X94955238Y-101037963D01*
X94955238Y-101037963D02*
X95050476Y-100942725D01*
X95050476Y-100942725D02*
X95145714Y-100895106D01*
X95145714Y-100895106D02*
X95336190Y-100847487D01*
X95336190Y-100847487D02*
X95479047Y-100847487D01*
X95479047Y-100847487D02*
X95669523Y-100895106D01*
X95669523Y-100895106D02*
X95764761Y-100942725D01*
X95764761Y-100942725D02*
X95860000Y-101037963D01*
X95860000Y-101037963D02*
X95907619Y-101180820D01*
X95907619Y-101180820D02*
X95907619Y-101418915D01*
X95621904Y-100466534D02*
X95621904Y-99990344D01*
X95907619Y-100561772D02*
X94907619Y-100228439D01*
X94907619Y-100228439D02*
X95907619Y-99895106D01*
X94907619Y-99704629D02*
X94907619Y-99133201D01*
X95907619Y-99418915D02*
X94907619Y-99418915D01*
X95621904Y-98847486D02*
X95621904Y-98371296D01*
X95907619Y-98942724D02*
X94907619Y-98609391D01*
X94907619Y-98609391D02*
X95907619Y-98276058D01*
X160262780Y-98376684D02*
X161262780Y-98376684D01*
X161262780Y-98376684D02*
X161262780Y-98614779D01*
X161262780Y-98614779D02*
X161215161Y-98757636D01*
X161215161Y-98757636D02*
X161119923Y-98852874D01*
X161119923Y-98852874D02*
X161024685Y-98900493D01*
X161024685Y-98900493D02*
X160834209Y-98948112D01*
X160834209Y-98948112D02*
X160691352Y-98948112D01*
X160691352Y-98948112D02*
X160500876Y-98900493D01*
X160500876Y-98900493D02*
X160405638Y-98852874D01*
X160405638Y-98852874D02*
X160310400Y-98757636D01*
X160310400Y-98757636D02*
X160262780Y-98614779D01*
X160262780Y-98614779D02*
X160262780Y-98376684D01*
X160548495Y-99329065D02*
X160548495Y-99805255D01*
X160262780Y-99233827D02*
X161262780Y-99567160D01*
X161262780Y-99567160D02*
X160262780Y-99900493D01*
X161262780Y-100090970D02*
X161262780Y-100662398D01*
X160262780Y-100376684D02*
X161262780Y-100376684D01*
X160548495Y-100948113D02*
X160548495Y-101424303D01*
X160262780Y-100852875D02*
X161262780Y-101186208D01*
X161262780Y-101186208D02*
X160262780Y-101519541D01*
G36*
X142611396Y-132375380D02*
G01*
X142598746Y-132375207D01*
X142585923Y-132374749D01*
X142573306Y-132374092D01*
X142570363Y-132373915D01*
X142557661Y-132373065D01*
X142545933Y-132372493D01*
X142534043Y-132372184D01*
X142529624Y-132372156D01*
X142517855Y-132372759D01*
X142505087Y-132373928D01*
X142492255Y-132375307D01*
X142477096Y-132377079D01*
X142464201Y-132378667D01*
X142449997Y-132380476D01*
X142434484Y-132382507D01*
X142417663Y-132384759D01*
X142433197Y-132862498D01*
X142434076Y-132897962D01*
X142434955Y-132939288D01*
X142434995Y-132960725D01*
X142434310Y-132980779D01*
X142432898Y-132999450D01*
X142430760Y-133016737D01*
X142427897Y-133032642D01*
X142424308Y-133047164D01*
X142419993Y-133060303D01*
X142414952Y-133072058D01*
X142409185Y-133082431D01*
X142399174Y-133095397D01*
X142387529Y-133105251D01*
X142374252Y-133111993D01*
X142359341Y-133115624D01*
X142348493Y-133116315D01*
X142336383Y-133115573D01*
X142323035Y-133112832D01*
X142310529Y-133108072D01*
X142298864Y-133101292D01*
X142291047Y-133095213D01*
X142281569Y-133085475D01*
X142274418Y-133074728D01*
X142269595Y-133062971D01*
X142267101Y-133050205D01*
X142266721Y-133042456D01*
X142266803Y-133029834D01*
X142266998Y-133017662D01*
X142267307Y-133003988D01*
X142267637Y-132991967D01*
X142268040Y-132978984D01*
X142268516Y-132965039D01*
X142269066Y-132950132D01*
X142269684Y-132935226D01*
X142270220Y-132921281D01*
X142270673Y-132908298D01*
X142271044Y-132896277D01*
X142271392Y-132882603D01*
X142271611Y-132870431D01*
X142271703Y-132857809D01*
X142255290Y-132384759D01*
X142243471Y-132384185D01*
X142230543Y-132383450D01*
X142216509Y-132382557D01*
X142201366Y-132381503D01*
X142185116Y-132380290D01*
X142167758Y-132378917D01*
X142155570Y-132377913D01*
X142142891Y-132376838D01*
X142129719Y-132375692D01*
X142116055Y-132374474D01*
X142101898Y-132373186D01*
X142087249Y-132371828D01*
X142072108Y-132370398D01*
X142059013Y-132367975D01*
X142047207Y-132364445D01*
X142033468Y-132358016D01*
X142022019Y-132349617D01*
X142012860Y-132339249D01*
X142005991Y-132326911D01*
X142001411Y-132312605D01*
X141999479Y-132300583D01*
X141998835Y-132287453D01*
X141999618Y-132273958D01*
X142001968Y-132261390D01*
X142005883Y-132249750D01*
X142011365Y-132239038D01*
X142018413Y-132229252D01*
X142021110Y-132226197D01*
X142029896Y-132217929D01*
X142041240Y-132210446D01*
X142053762Y-132205291D01*
X142065433Y-132202725D01*
X142077970Y-132201870D01*
X142250894Y-132215938D01*
X142250801Y-132202725D01*
X142250522Y-132188181D01*
X142250165Y-132175587D01*
X142249688Y-132162141D01*
X142249093Y-132147844D01*
X142248379Y-132132695D01*
X142247765Y-132120774D01*
X142247084Y-132108374D01*
X142246455Y-132096064D01*
X142245713Y-132080677D01*
X142245081Y-132066462D01*
X142244559Y-132053419D01*
X142244147Y-132041549D01*
X142243786Y-132028360D01*
X142243580Y-132014951D01*
X142243567Y-132011067D01*
X142244401Y-131999050D01*
X142247485Y-131986045D01*
X142252840Y-131974133D01*
X142260468Y-131963316D01*
X142267307Y-131956259D01*
X142276690Y-131948889D01*
X142288576Y-131942217D01*
X142301470Y-131937621D01*
X142313327Y-131935333D01*
X142325925Y-131934571D01*
X142339338Y-131935591D01*
X142351658Y-131938651D01*
X142362886Y-131943751D01*
X142373021Y-131950892D01*
X142382065Y-131960073D01*
X142390016Y-131971294D01*
X142396875Y-131984555D01*
X142402642Y-131999857D01*
X142405880Y-132011191D01*
X142408632Y-132023432D01*
X142410899Y-132036580D01*
X142412680Y-132050635D01*
X142413594Y-132064019D01*
X142414198Y-132076383D01*
X142414638Y-132089572D01*
X142414913Y-132103586D01*
X142415016Y-132115893D01*
X142415025Y-132120977D01*
X142413560Y-132166992D01*
X142412680Y-132215938D01*
X142425124Y-132214341D01*
X142436883Y-132212847D01*
X142453238Y-132210799D01*
X142468053Y-132208983D01*
X142481327Y-132207399D01*
X142493061Y-132206047D01*
X142506309Y-132204604D01*
X142519019Y-132203380D01*
X142529624Y-132202749D01*
X142545203Y-132202821D01*
X142559735Y-132203038D01*
X142573223Y-132203398D01*
X142585664Y-132203903D01*
X142600625Y-132204801D01*
X142613727Y-132205955D01*
X142627490Y-132207758D01*
X142640171Y-132210451D01*
X142641878Y-132210956D01*
X142653624Y-132215847D01*
X142663805Y-132222167D01*
X142674328Y-132232076D01*
X142682403Y-132244217D01*
X142687102Y-132255538D01*
X142690234Y-132268287D01*
X142691801Y-132282466D01*
X142691996Y-132290090D01*
X142691193Y-132303585D01*
X142688782Y-132316153D01*
X142684763Y-132327793D01*
X142679137Y-132338506D01*
X142671904Y-132348291D01*
X142669135Y-132351347D01*
X142660229Y-132359514D01*
X142650437Y-132365992D01*
X142637893Y-132371414D01*
X142626181Y-132374230D01*
X142613582Y-132375357D01*
X142611396Y-132375380D01*
G37*
G36*
X143541082Y-133116315D02*
G01*
X143527060Y-133115344D01*
X143514301Y-133112432D01*
X143502806Y-133107577D01*
X143492576Y-133100781D01*
X143483609Y-133092044D01*
X143475906Y-133081364D01*
X143469467Y-133068743D01*
X143464292Y-133054180D01*
X143460801Y-133041046D01*
X143457361Y-133026922D01*
X143453973Y-133011810D01*
X143450636Y-132995708D01*
X143447351Y-132978617D01*
X143445189Y-132966674D01*
X143443051Y-132954291D01*
X143440935Y-132941468D01*
X143438842Y-132928205D01*
X143436772Y-132914503D01*
X143434725Y-132900362D01*
X143432701Y-132885780D01*
X143430700Y-132870760D01*
X143429708Y-132863084D01*
X143427933Y-132848412D01*
X143426273Y-132834073D01*
X143424727Y-132820065D01*
X143423296Y-132806389D01*
X143421980Y-132793046D01*
X143420777Y-132780034D01*
X143419690Y-132767354D01*
X143418717Y-132755007D01*
X143417858Y-132742991D01*
X143416785Y-132725590D01*
X143415969Y-132708936D01*
X143415411Y-132693030D01*
X143415110Y-132677870D01*
X143415053Y-132668178D01*
X143415181Y-132656107D01*
X143415504Y-132643290D01*
X143415937Y-132630630D01*
X143416407Y-132618899D01*
X143416978Y-132606095D01*
X143417105Y-132603405D01*
X143417696Y-132590386D01*
X143418187Y-132578441D01*
X143418643Y-132565523D01*
X143418994Y-132552406D01*
X143419154Y-132539991D01*
X143419156Y-132538632D01*
X143418854Y-132519999D01*
X143417947Y-132502568D01*
X143416436Y-132486339D01*
X143414320Y-132471313D01*
X143411600Y-132457488D01*
X143408275Y-132444866D01*
X143404346Y-132433445D01*
X143397319Y-132418569D01*
X143388931Y-132406397D01*
X143379184Y-132396931D01*
X143368076Y-132390169D01*
X143355608Y-132386111D01*
X143341780Y-132384759D01*
X143328752Y-132385131D01*
X143315901Y-132386247D01*
X143303226Y-132388108D01*
X143290727Y-132390712D01*
X143278405Y-132394061D01*
X143266259Y-132398154D01*
X143254289Y-132402991D01*
X143242495Y-132408573D01*
X143230878Y-132414898D01*
X143219437Y-132421968D01*
X143208173Y-132429782D01*
X143197085Y-132438340D01*
X143186173Y-132447642D01*
X143175437Y-132457688D01*
X143164878Y-132468479D01*
X143154495Y-132480014D01*
X143146308Y-132489917D01*
X143137576Y-132501381D01*
X143128297Y-132514406D01*
X143118472Y-132528992D01*
X143111619Y-132539583D01*
X143104523Y-132550869D01*
X143097184Y-132562848D01*
X143089602Y-132575520D01*
X143081778Y-132588887D01*
X143073711Y-132602947D01*
X143065402Y-132617701D01*
X143056849Y-132633149D01*
X143048054Y-132649291D01*
X143039017Y-132666127D01*
X143038991Y-132685893D01*
X143038914Y-132705149D01*
X143038785Y-132723894D01*
X143038605Y-132742129D01*
X143038373Y-132759853D01*
X143038089Y-132777066D01*
X143037754Y-132793769D01*
X143037368Y-132809961D01*
X143036930Y-132825643D01*
X143036441Y-132840814D01*
X143035900Y-132855474D01*
X143035307Y-132869624D01*
X143034663Y-132883263D01*
X143033968Y-132896391D01*
X143033221Y-132909009D01*
X143032422Y-132921116D01*
X143030670Y-132943799D01*
X143028713Y-132964439D01*
X143026549Y-132983036D01*
X143024179Y-132999592D01*
X143021603Y-133014104D01*
X143018821Y-133026574D01*
X143014261Y-133041450D01*
X143012638Y-133045387D01*
X143006451Y-133057614D01*
X142999468Y-133068212D01*
X142991687Y-133077178D01*
X142980841Y-133086094D01*
X142968749Y-133092463D01*
X142955413Y-133096284D01*
X142940831Y-133097557D01*
X142928480Y-133096754D01*
X142916706Y-133094343D01*
X142905509Y-133090324D01*
X142894889Y-133084698D01*
X142884846Y-133077465D01*
X142881627Y-133074696D01*
X142872961Y-133065673D01*
X142866088Y-133055970D01*
X142860336Y-133043791D01*
X142857024Y-133030686D01*
X142856128Y-133018716D01*
X142857530Y-133006190D01*
X142860249Y-132994151D01*
X142863455Y-132982666D01*
X142866194Y-132969931D01*
X142867892Y-132956232D01*
X142869097Y-132942512D01*
X142869910Y-132930611D01*
X142870646Y-132917329D01*
X142871305Y-132902666D01*
X142871886Y-132886623D01*
X142872390Y-132869199D01*
X142872541Y-132863084D01*
X142875179Y-132741744D01*
X142877523Y-132138855D01*
X142878233Y-132126402D01*
X142878897Y-132114469D01*
X142879807Y-132097544D01*
X142880614Y-132081788D01*
X142881319Y-132067202D01*
X142881920Y-132053786D01*
X142882418Y-132041538D01*
X142882921Y-132027028D01*
X142883242Y-132014597D01*
X142883385Y-132001982D01*
X142883192Y-131988999D01*
X142882612Y-131976245D01*
X142881646Y-131963719D01*
X142880294Y-131951423D01*
X142878555Y-131939356D01*
X142876430Y-131927518D01*
X142875472Y-131922847D01*
X142873192Y-131911136D01*
X142871299Y-131899268D01*
X142869792Y-131887242D01*
X142868671Y-131875059D01*
X142867937Y-131862719D01*
X142867589Y-131850221D01*
X142867558Y-131845178D01*
X142868393Y-131832731D01*
X142870897Y-131821108D01*
X142875928Y-131808589D01*
X142883231Y-131797193D01*
X142891299Y-131788318D01*
X142900692Y-131780648D01*
X142910849Y-131774566D01*
X142921768Y-131770070D01*
X142933449Y-131767160D01*
X142945893Y-131765838D01*
X142950210Y-131765750D01*
X142962410Y-131766360D01*
X142977138Y-131769074D01*
X142990107Y-131773958D01*
X143001318Y-131781013D01*
X143010770Y-131790238D01*
X143018464Y-131801634D01*
X143024399Y-131815201D01*
X143027696Y-131826801D01*
X143029345Y-131835213D01*
X143031649Y-131849477D01*
X143033727Y-131863473D01*
X143035579Y-131877201D01*
X143037203Y-131890662D01*
X143038601Y-131903854D01*
X143039772Y-131916779D01*
X143040717Y-131929436D01*
X143041435Y-131941825D01*
X143041926Y-131953946D01*
X143042190Y-131965799D01*
X143042241Y-131973552D01*
X143042192Y-131989166D01*
X143042045Y-132004903D01*
X143041800Y-132020765D01*
X143041458Y-132036750D01*
X143041017Y-132052858D01*
X143040479Y-132069090D01*
X143039842Y-132085446D01*
X143039108Y-132101926D01*
X143038276Y-132118529D01*
X143037346Y-132135256D01*
X143036672Y-132146476D01*
X143035789Y-132162828D01*
X143035010Y-132179242D01*
X143034333Y-132195718D01*
X143033759Y-132212256D01*
X143033289Y-132228856D01*
X143032921Y-132245518D01*
X143032657Y-132262241D01*
X143032495Y-132279026D01*
X143032437Y-132295873D01*
X143032482Y-132312782D01*
X143032569Y-132324089D01*
X143033448Y-132396483D01*
X143041946Y-132385341D01*
X143050516Y-132374556D01*
X143059156Y-132364128D01*
X143067868Y-132354058D01*
X143076650Y-132344344D01*
X143085504Y-132334988D01*
X143094428Y-132325990D01*
X143103424Y-132317348D01*
X143112490Y-132309064D01*
X143121627Y-132301136D01*
X143130836Y-132293566D01*
X143140115Y-132286354D01*
X143154167Y-132276204D01*
X143168379Y-132266858D01*
X143177942Y-132261074D01*
X143192478Y-132253008D01*
X143207178Y-132245735D01*
X143222043Y-132239256D01*
X143237073Y-132233570D01*
X143252268Y-132228677D01*
X143267628Y-132224578D01*
X143283153Y-132221272D01*
X143298842Y-132218759D01*
X143314697Y-132217040D01*
X143330716Y-132216115D01*
X143341487Y-132215938D01*
X143358261Y-132216285D01*
X143374364Y-132217326D01*
X143389796Y-132219060D01*
X143404557Y-132221489D01*
X143418647Y-132224611D01*
X143432066Y-132228427D01*
X143444814Y-132232937D01*
X143456892Y-132238140D01*
X143468298Y-132244037D01*
X143479034Y-132250628D01*
X143489099Y-132257913D01*
X143498492Y-132265892D01*
X143507215Y-132274565D01*
X143515267Y-132283931D01*
X143522648Y-132293991D01*
X143529359Y-132304745D01*
X143535897Y-132317255D01*
X143541885Y-132331264D01*
X143547321Y-132346772D01*
X143552206Y-132363780D01*
X143555156Y-132375951D01*
X143557862Y-132388789D01*
X143560322Y-132402293D01*
X143562537Y-132416463D01*
X143564508Y-132431300D01*
X143566233Y-132446803D01*
X143567714Y-132462972D01*
X143568949Y-132479808D01*
X143569939Y-132497310D01*
X143570684Y-132515478D01*
X143577426Y-132672575D01*
X143593839Y-132844033D01*
X143595288Y-132855961D01*
X143596779Y-132867710D01*
X143599092Y-132884998D01*
X143601498Y-132901884D01*
X143603997Y-132918369D01*
X143606588Y-132934452D01*
X143609272Y-132950133D01*
X143612049Y-132965412D01*
X143614919Y-132980289D01*
X143617881Y-132994765D01*
X143620937Y-133008838D01*
X143621975Y-133013440D01*
X143624290Y-133025663D01*
X143625200Y-133037181D01*
X143624324Y-133049528D01*
X143621696Y-133061072D01*
X143616417Y-133073524D01*
X143608753Y-133084882D01*
X143600287Y-133093747D01*
X143590704Y-133101417D01*
X143580421Y-133107500D01*
X143569437Y-133111996D01*
X143557752Y-133114905D01*
X143545366Y-133116227D01*
X143541082Y-133116315D01*
G37*
G36*
X144461975Y-132452463D02*
G01*
X144460967Y-132464708D01*
X144458419Y-132481593D01*
X144454630Y-132496702D01*
X144449599Y-132510032D01*
X144443326Y-132521586D01*
X144435812Y-132531362D01*
X144427056Y-132539360D01*
X144417059Y-132545581D01*
X144405820Y-132550025D01*
X144393339Y-132552691D01*
X144379617Y-132553580D01*
X144366941Y-132552871D01*
X144351980Y-132549723D01*
X144339235Y-132544056D01*
X144328706Y-132535870D01*
X144320395Y-132525165D01*
X144314299Y-132511942D01*
X144311182Y-132500371D01*
X144309312Y-132487384D01*
X144308689Y-132472980D01*
X144308431Y-132460724D01*
X144307854Y-132447250D01*
X144307205Y-132435006D01*
X144306370Y-132420927D01*
X144306051Y-132415827D01*
X144303706Y-132347243D01*
X144287641Y-132349350D01*
X144271979Y-132351786D01*
X144256720Y-132354552D01*
X144241864Y-132357648D01*
X144227411Y-132361074D01*
X144213361Y-132364829D01*
X144199714Y-132368914D01*
X144186470Y-132373328D01*
X144173628Y-132378073D01*
X144161190Y-132383147D01*
X144149155Y-132388551D01*
X144137523Y-132394284D01*
X144126294Y-132400348D01*
X144115468Y-132406741D01*
X144105045Y-132413464D01*
X144095025Y-132420516D01*
X144081503Y-132431049D01*
X144068413Y-132442536D01*
X144059927Y-132450723D01*
X144051634Y-132459334D01*
X144043533Y-132468368D01*
X144035624Y-132477826D01*
X144027907Y-132487707D01*
X144020383Y-132498013D01*
X144013051Y-132508741D01*
X144005912Y-132519894D01*
X143998964Y-132531470D01*
X143992209Y-132543469D01*
X143985647Y-132555892D01*
X143979277Y-132568739D01*
X143973099Y-132582010D01*
X143974858Y-133033077D01*
X143974141Y-133047953D01*
X143971993Y-133061365D01*
X143968412Y-133073314D01*
X143961410Y-133086971D01*
X143951862Y-133098026D01*
X143939767Y-133106479D01*
X143925126Y-133112332D01*
X143912475Y-133115015D01*
X143898391Y-133116234D01*
X143893378Y-133116315D01*
X143880388Y-133115589D01*
X143868676Y-133113409D01*
X143855047Y-133108244D01*
X143843690Y-133100495D01*
X143834604Y-133090164D01*
X143827790Y-133077249D01*
X143824170Y-133065869D01*
X143821827Y-133053035D01*
X143820762Y-133038748D01*
X143820691Y-133033663D01*
X143820691Y-132460377D01*
X143820790Y-132447289D01*
X143821030Y-132434018D01*
X143821341Y-132421510D01*
X143821751Y-132407685D01*
X143822152Y-132395678D01*
X143822617Y-132382828D01*
X143822743Y-132379483D01*
X143823224Y-132366422D01*
X143823641Y-132354204D01*
X143824071Y-132340116D01*
X143824402Y-132327345D01*
X143824667Y-132313758D01*
X143824793Y-132300302D01*
X143824795Y-132298590D01*
X143825434Y-132283819D01*
X143827350Y-132270501D01*
X143830544Y-132258636D01*
X143836791Y-132245076D01*
X143845309Y-132234099D01*
X143856098Y-132225705D01*
X143869159Y-132219893D01*
X143884492Y-132216665D01*
X143897481Y-132215938D01*
X143911893Y-132217080D01*
X143924904Y-132220503D01*
X143936513Y-132226209D01*
X143946721Y-132234197D01*
X143955527Y-132244468D01*
X143962932Y-132257020D01*
X143968936Y-132271856D01*
X143973539Y-132288973D01*
X143975828Y-132301653D01*
X143977495Y-132315347D01*
X143978540Y-132330055D01*
X143978961Y-132345778D01*
X143988886Y-132336636D01*
X143998880Y-132327784D01*
X144008940Y-132319222D01*
X144019069Y-132310950D01*
X144029264Y-132302969D01*
X144039528Y-132295278D01*
X144049859Y-132287877D01*
X144060257Y-132280767D01*
X144070723Y-132273946D01*
X144081257Y-132267416D01*
X144091858Y-132261176D01*
X144102526Y-132255226D01*
X144113263Y-132249567D01*
X144124066Y-132244198D01*
X144134938Y-132239119D01*
X144145876Y-132234330D01*
X144156883Y-132229831D01*
X144167957Y-132225623D01*
X144179098Y-132221705D01*
X144190307Y-132218077D01*
X144201584Y-132214739D01*
X144212928Y-132211692D01*
X144224340Y-132208935D01*
X144235819Y-132206468D01*
X144247366Y-132204291D01*
X144258980Y-132202405D01*
X144270662Y-132200808D01*
X144282411Y-132199502D01*
X144294228Y-132198487D01*
X144306113Y-132197761D01*
X144318065Y-132197326D01*
X144330084Y-132197181D01*
X144342315Y-132197616D01*
X144357693Y-132199551D01*
X144372009Y-132203033D01*
X144385262Y-132208064D01*
X144397453Y-132214643D01*
X144408581Y-132222769D01*
X144418647Y-132232443D01*
X144427651Y-132243666D01*
X144429735Y-132246713D01*
X144437498Y-132259810D01*
X144442640Y-132270667D01*
X144447201Y-132282411D01*
X144451179Y-132295040D01*
X144454575Y-132308555D01*
X144457389Y-132322957D01*
X144459620Y-132338245D01*
X144461270Y-132354418D01*
X144462337Y-132371478D01*
X144462725Y-132383344D01*
X144462855Y-132395603D01*
X144462833Y-132408120D01*
X144462751Y-132421364D01*
X144462577Y-132434367D01*
X144462229Y-132447211D01*
X144461975Y-132452463D01*
G37*
G36*
X145299924Y-132591975D02*
G01*
X145299938Y-132607078D01*
X145299966Y-132619572D01*
X145300010Y-132633065D01*
X145300069Y-132647557D01*
X145300144Y-132663049D01*
X145300234Y-132679541D01*
X145300339Y-132697032D01*
X145300418Y-132709248D01*
X145300504Y-132721908D01*
X145300597Y-132735012D01*
X145300697Y-132748561D01*
X145300803Y-132762554D01*
X145300910Y-132776547D01*
X145301009Y-132790095D01*
X145301102Y-132803200D01*
X145301188Y-132815860D01*
X145301267Y-132828076D01*
X145301339Y-132839848D01*
X145301434Y-132856672D01*
X145301514Y-132872497D01*
X145301579Y-132887323D01*
X145301627Y-132901149D01*
X145301661Y-132913976D01*
X145301679Y-132925803D01*
X145301682Y-132933133D01*
X145301940Y-132945744D01*
X145302517Y-132958429D01*
X145303292Y-132971422D01*
X145304158Y-132983966D01*
X145304320Y-132986183D01*
X145305316Y-132998843D01*
X145306218Y-133011998D01*
X145306905Y-133024903D01*
X145307240Y-133036707D01*
X145307251Y-133038939D01*
X145306406Y-133051256D01*
X145303871Y-133062707D01*
X145298778Y-133074973D01*
X145291385Y-133086060D01*
X145283218Y-133094626D01*
X145273934Y-133101997D01*
X145262139Y-133108669D01*
X145249306Y-133113265D01*
X145237480Y-133115553D01*
X145224892Y-133116315D01*
X145209716Y-133115477D01*
X145195986Y-133112963D01*
X145183704Y-133108773D01*
X145172869Y-133102906D01*
X145163481Y-133095364D01*
X145155540Y-133086145D01*
X145149046Y-133075250D01*
X145143999Y-133062679D01*
X145131016Y-133069174D01*
X145117786Y-133075250D01*
X145104308Y-133080907D01*
X145090583Y-133086145D01*
X145076611Y-133090964D01*
X145062392Y-133095364D01*
X145047925Y-133099345D01*
X145033211Y-133102906D01*
X145018249Y-133106049D01*
X145003041Y-133108773D01*
X144987585Y-133111077D01*
X144971881Y-133112963D01*
X144955931Y-133114430D01*
X144939733Y-133115477D01*
X144923288Y-133116106D01*
X144906595Y-133116315D01*
X144893257Y-133116132D01*
X144880208Y-133115582D01*
X144867447Y-133114667D01*
X144854974Y-133113384D01*
X144842791Y-133111736D01*
X144830895Y-133109721D01*
X144819288Y-133107339D01*
X144802419Y-133103080D01*
X144786199Y-133097997D01*
X144770628Y-133092089D01*
X144755706Y-133085357D01*
X144741433Y-133077801D01*
X144727809Y-133069421D01*
X144713693Y-133059331D01*
X144700689Y-133048407D01*
X144688798Y-133036649D01*
X144678021Y-133024056D01*
X144668355Y-133010628D01*
X144659803Y-132996365D01*
X144652364Y-132981268D01*
X144646037Y-132965336D01*
X144640823Y-132948570D01*
X144637965Y-132936929D01*
X144635602Y-132924917D01*
X144634606Y-132918772D01*
X144632641Y-132905445D01*
X144630738Y-132892210D01*
X144628897Y-132879067D01*
X144627119Y-132866015D01*
X144625403Y-132853055D01*
X144623749Y-132840186D01*
X144622158Y-132827409D01*
X144620630Y-132814724D01*
X144619163Y-132802130D01*
X144617759Y-132789628D01*
X144616418Y-132777218D01*
X144615139Y-132764899D01*
X144613922Y-132752671D01*
X144612768Y-132740535D01*
X144611676Y-132728491D01*
X144610646Y-132716539D01*
X144609679Y-132704677D01*
X144608774Y-132692908D01*
X144607152Y-132669644D01*
X144605779Y-132646746D01*
X144604656Y-132624215D01*
X144603783Y-132602050D01*
X144603159Y-132580251D01*
X144602784Y-132558819D01*
X144602659Y-132537753D01*
X144602756Y-132523821D01*
X144603044Y-132509648D01*
X144603525Y-132495235D01*
X144604198Y-132480582D01*
X144605064Y-132465688D01*
X144606122Y-132450553D01*
X144607372Y-132435179D01*
X144608814Y-132419564D01*
X144610449Y-132403708D01*
X144612276Y-132387612D01*
X144614296Y-132371276D01*
X144616508Y-132354699D01*
X144618912Y-132337882D01*
X144621509Y-132320824D01*
X144624298Y-132303526D01*
X144627279Y-132285987D01*
X144629909Y-132273469D01*
X144633513Y-132262182D01*
X144639833Y-132249047D01*
X144647884Y-132238102D01*
X144657666Y-132229346D01*
X144669179Y-132222779D01*
X144682423Y-132218401D01*
X144697398Y-132216212D01*
X144705534Y-132215938D01*
X144718421Y-132216711D01*
X144730484Y-132219030D01*
X144741722Y-132222894D01*
X144752136Y-132228303D01*
X144761726Y-132235258D01*
X144764739Y-132237920D01*
X144772907Y-132246606D01*
X144780300Y-132257860D01*
X144785393Y-132270321D01*
X144787927Y-132281961D01*
X144788772Y-132294487D01*
X144788479Y-132307101D01*
X144787599Y-132321861D01*
X144786472Y-132335215D01*
X144784970Y-132349943D01*
X144783597Y-132361890D01*
X144782013Y-132374611D01*
X144780218Y-132388104D01*
X144778211Y-132402370D01*
X144776756Y-132412310D01*
X144774661Y-132427140D01*
X144772771Y-132441295D01*
X144771088Y-132454775D01*
X144769612Y-132467580D01*
X144768341Y-132479711D01*
X144766967Y-132494835D01*
X144765959Y-132508759D01*
X144765318Y-132521483D01*
X144765032Y-132535701D01*
X144765068Y-132552258D01*
X144765174Y-132568518D01*
X144765351Y-132584480D01*
X144765600Y-132600145D01*
X144765919Y-132615511D01*
X144766310Y-132630580D01*
X144766771Y-132645352D01*
X144767303Y-132659825D01*
X144767907Y-132674001D01*
X144768581Y-132687880D01*
X144769326Y-132701460D01*
X144770143Y-132714743D01*
X144771030Y-132727729D01*
X144771988Y-132740416D01*
X144773018Y-132752806D01*
X144774118Y-132764899D01*
X144775288Y-132776659D01*
X144777172Y-132793750D01*
X144779210Y-132810181D01*
X144781403Y-132825953D01*
X144783751Y-132841066D01*
X144786253Y-132855519D01*
X144788910Y-132869312D01*
X144791721Y-132882447D01*
X144794687Y-132894921D01*
X144797807Y-132906737D01*
X144801082Y-132917892D01*
X144812965Y-132923853D01*
X144824764Y-132929168D01*
X144836479Y-132933839D01*
X144848110Y-132937864D01*
X144854718Y-132939874D01*
X144866216Y-132942843D01*
X144879254Y-132945344D01*
X144892182Y-132946892D01*
X144905001Y-132947487D01*
X144906595Y-132947495D01*
X144920455Y-132947359D01*
X144934411Y-132946954D01*
X144948464Y-132946279D01*
X144962612Y-132945333D01*
X144976857Y-132944117D01*
X144991198Y-132942631D01*
X145005635Y-132940875D01*
X145020168Y-132938848D01*
X145034797Y-132936552D01*
X145049523Y-132933985D01*
X145064345Y-132931148D01*
X145079263Y-132928041D01*
X145094277Y-132924663D01*
X145109387Y-132921016D01*
X145124593Y-132917098D01*
X145139896Y-132912910D01*
X145139310Y-132749072D01*
X145137551Y-132592561D01*
X145137612Y-132570977D01*
X145137794Y-132549751D01*
X145138097Y-132528882D01*
X145138522Y-132508370D01*
X145139068Y-132488216D01*
X145139736Y-132468418D01*
X145140524Y-132448978D01*
X145141435Y-132429895D01*
X145142466Y-132411169D01*
X145143619Y-132392801D01*
X145144893Y-132374789D01*
X145146289Y-132357135D01*
X145147806Y-132339838D01*
X145149444Y-132322898D01*
X145151204Y-132306316D01*
X145153085Y-132290090D01*
X145155332Y-132276839D01*
X145158666Y-132264890D01*
X145164803Y-132250987D01*
X145172872Y-132239401D01*
X145182874Y-132230132D01*
X145194808Y-132223180D01*
X145208675Y-132218545D01*
X145220344Y-132216590D01*
X145233099Y-132215938D01*
X145245986Y-132216721D01*
X145258048Y-132219071D01*
X145269287Y-132222986D01*
X145279701Y-132228468D01*
X145289290Y-132235516D01*
X145292303Y-132238213D01*
X145300420Y-132246848D01*
X145307622Y-132257912D01*
X145312385Y-132270041D01*
X145314707Y-132283237D01*
X145314872Y-132293315D01*
X145299924Y-132591975D01*
G37*
G36*
X146057272Y-132441033D02*
G01*
X146043741Y-132440217D01*
X146031541Y-132437770D01*
X146018657Y-132432679D01*
X146007690Y-132425240D01*
X145998640Y-132415451D01*
X145993671Y-132407620D01*
X145988440Y-132394821D01*
X145984892Y-132382726D01*
X145982167Y-132371277D01*
X145979543Y-132358253D01*
X145977020Y-132343653D01*
X145975194Y-132331669D01*
X145973424Y-132318800D01*
X145972276Y-132309728D01*
X145960093Y-132312875D01*
X145946735Y-132316490D01*
X145932203Y-132320575D01*
X145916497Y-132325129D01*
X145899615Y-132330151D01*
X145887708Y-132333760D01*
X145875279Y-132337577D01*
X145862329Y-132341602D01*
X145848855Y-132345836D01*
X145834860Y-132350278D01*
X145820343Y-132354929D01*
X145805304Y-132359788D01*
X145789743Y-132364855D01*
X145781766Y-132367467D01*
X145765685Y-132374159D01*
X145750634Y-132381045D01*
X145736614Y-132388126D01*
X145723624Y-132395402D01*
X145711665Y-132402872D01*
X145700736Y-132410537D01*
X145690837Y-132418397D01*
X145681969Y-132426451D01*
X145670598Y-132438898D01*
X145661546Y-132451782D01*
X145654812Y-132465104D01*
X145650397Y-132478864D01*
X145648300Y-132493062D01*
X145648116Y-132497892D01*
X145660390Y-132502124D01*
X145672590Y-132505733D01*
X145684716Y-132508718D01*
X145696770Y-132511081D01*
X145708526Y-132513231D01*
X145720093Y-132515431D01*
X145742657Y-132519979D01*
X145764460Y-132524727D01*
X145785503Y-132529674D01*
X145805786Y-132534821D01*
X145825309Y-132540166D01*
X145844071Y-132545711D01*
X145862073Y-132551455D01*
X145879315Y-132557398D01*
X145895797Y-132563540D01*
X145911519Y-132569882D01*
X145926480Y-132576422D01*
X145940681Y-132583162D01*
X145954122Y-132590102D01*
X145966803Y-132597240D01*
X145978724Y-132604578D01*
X145995014Y-132615762D01*
X146010254Y-132627553D01*
X146024442Y-132639951D01*
X146037580Y-132652956D01*
X146049667Y-132666568D01*
X146060702Y-132680786D01*
X146070687Y-132695611D01*
X146079620Y-132711043D01*
X146087503Y-132727082D01*
X146094334Y-132743727D01*
X146100115Y-132760980D01*
X146104844Y-132778839D01*
X146108523Y-132797305D01*
X146111151Y-132816377D01*
X146112727Y-132836057D01*
X146113253Y-132856343D01*
X146112798Y-132872938D01*
X146111434Y-132889018D01*
X146109162Y-132904583D01*
X146105980Y-132919633D01*
X146101890Y-132934167D01*
X146096890Y-132948186D01*
X146090981Y-132961690D01*
X146084163Y-132974679D01*
X146076436Y-132987152D01*
X146067800Y-132999111D01*
X146058256Y-133010554D01*
X146047802Y-133021482D01*
X146036439Y-133031895D01*
X146024166Y-133041792D01*
X146010985Y-133051174D01*
X145996895Y-133060042D01*
X145984643Y-133066856D01*
X145971992Y-133073231D01*
X145958942Y-133079166D01*
X145945494Y-133084661D01*
X145931648Y-133089717D01*
X145917403Y-133094333D01*
X145902760Y-133098510D01*
X145887719Y-133102247D01*
X145872279Y-133105544D01*
X145856440Y-133108402D01*
X145840204Y-133110820D01*
X145823568Y-133112798D01*
X145806535Y-133114337D01*
X145789103Y-133115436D01*
X145771272Y-133116095D01*
X145753043Y-133116315D01*
X145739563Y-133116176D01*
X145726161Y-133115756D01*
X145712837Y-133115058D01*
X145699591Y-133114080D01*
X145686422Y-133112823D01*
X145673331Y-133111287D01*
X145660319Y-133109471D01*
X145647384Y-133107376D01*
X145634527Y-133105001D01*
X145621747Y-133102348D01*
X145609046Y-133099414D01*
X145596422Y-133096202D01*
X145583877Y-133092710D01*
X145571409Y-133088939D01*
X145559019Y-133084888D01*
X145546707Y-133080558D01*
X145531339Y-133074739D01*
X145516963Y-133068637D01*
X145503578Y-133062255D01*
X145491184Y-133055590D01*
X145479782Y-133048644D01*
X145469372Y-133041417D01*
X145459953Y-133033907D01*
X145447683Y-133022115D01*
X145437645Y-133009689D01*
X145429837Y-132996630D01*
X145424260Y-132982937D01*
X145420914Y-132968610D01*
X145419798Y-132953649D01*
X145420705Y-132941738D01*
X145424055Y-132928571D01*
X145429873Y-132916189D01*
X145436825Y-132906201D01*
X145445590Y-132896790D01*
X145455620Y-132888522D01*
X145466143Y-132881966D01*
X145477162Y-132877119D01*
X145488675Y-132873984D01*
X145500682Y-132872558D01*
X145504795Y-132872463D01*
X145516666Y-132874216D01*
X145527980Y-132878510D01*
X145540344Y-132885379D01*
X145551451Y-132893071D01*
X145560862Y-132900513D01*
X145570740Y-132909100D01*
X145581702Y-132916513D01*
X145592434Y-132921464D01*
X145605584Y-132926130D01*
X145617846Y-132929656D01*
X145631656Y-132932999D01*
X145647013Y-132936159D01*
X145659547Y-132938409D01*
X145673121Y-132940538D01*
X145686145Y-132942384D01*
X145698620Y-132943945D01*
X145710545Y-132945223D01*
X145724679Y-132946421D01*
X145737954Y-132947175D01*
X145750370Y-132947486D01*
X145752750Y-132947495D01*
X145765575Y-132947350D01*
X145778112Y-132946918D01*
X145790360Y-132946196D01*
X145802319Y-132945186D01*
X145813990Y-132943888D01*
X145829103Y-132941708D01*
X145843702Y-132939016D01*
X145857789Y-132935810D01*
X145871363Y-132932091D01*
X145874676Y-132931081D01*
X145888399Y-132926330D01*
X145900773Y-132921090D01*
X145911796Y-132915360D01*
X145924395Y-132906959D01*
X145934593Y-132897688D01*
X145942392Y-132887546D01*
X145947792Y-132876535D01*
X145950791Y-132864653D01*
X145951466Y-132855171D01*
X145950855Y-132841423D01*
X145949021Y-132828243D01*
X145945964Y-132815631D01*
X145941684Y-132803587D01*
X145936182Y-132792110D01*
X145929457Y-132781202D01*
X145921509Y-132770861D01*
X145912338Y-132761088D01*
X145901945Y-132751884D01*
X145890329Y-132743246D01*
X145877490Y-132735177D01*
X145863429Y-132727676D01*
X145848144Y-132720743D01*
X145831637Y-132714377D01*
X145813908Y-132708579D01*
X145794955Y-132703349D01*
X145709079Y-132684885D01*
X145695626Y-132681959D01*
X145682669Y-132678972D01*
X145670209Y-132675924D01*
X145658246Y-132672813D01*
X145646780Y-132669640D01*
X145630513Y-132664766D01*
X145615363Y-132659752D01*
X145601332Y-132654599D01*
X145588419Y-132649307D01*
X145576623Y-132643876D01*
X145565946Y-132638306D01*
X145553448Y-132630663D01*
X145541506Y-132621855D01*
X145530738Y-132612249D01*
X145521145Y-132601845D01*
X145512727Y-132590642D01*
X145505483Y-132578640D01*
X145499414Y-132565840D01*
X145494519Y-132552242D01*
X145490800Y-132537844D01*
X145488255Y-132522649D01*
X145486884Y-132506654D01*
X145486623Y-132495548D01*
X145487257Y-132475075D01*
X145489160Y-132455348D01*
X145492332Y-132436368D01*
X145496771Y-132418135D01*
X145502480Y-132400648D01*
X145509457Y-132383907D01*
X145517702Y-132367913D01*
X145527216Y-132352666D01*
X145537999Y-132338164D01*
X145550050Y-132324410D01*
X145563370Y-132311401D01*
X145577958Y-132299140D01*
X145593814Y-132287624D01*
X145610940Y-132276856D01*
X145629333Y-132266833D01*
X145648996Y-132257557D01*
X145662304Y-132252007D01*
X145673499Y-132247676D01*
X145685735Y-132243200D01*
X145699012Y-132238581D01*
X145713329Y-132233817D01*
X145728687Y-132228909D01*
X145745086Y-132223856D01*
X145756597Y-132220408D01*
X145768570Y-132216895D01*
X145781006Y-132213319D01*
X145793904Y-132209678D01*
X145807265Y-132205973D01*
X145820651Y-132202272D01*
X145833552Y-132198641D01*
X145845967Y-132195082D01*
X145857897Y-132191593D01*
X145869341Y-132188176D01*
X145885597Y-132183183D01*
X145900761Y-132178349D01*
X145914833Y-132173676D01*
X145927813Y-132169162D01*
X145939700Y-132164807D01*
X145953851Y-132159250D01*
X145963190Y-132155268D01*
X145976035Y-132150388D01*
X145989293Y-132146517D01*
X146002963Y-132143656D01*
X146014670Y-132142043D01*
X146026662Y-132141131D01*
X146036463Y-132140907D01*
X146049308Y-132141700D01*
X146061247Y-132144081D01*
X146072279Y-132148048D01*
X146084004Y-132154681D01*
X146094495Y-132163475D01*
X146102264Y-132172422D01*
X146109296Y-132184085D01*
X146113583Y-132195131D01*
X146116262Y-132207145D01*
X146117333Y-132220128D01*
X146117356Y-132222386D01*
X146117997Y-132235466D01*
X146119610Y-132249134D01*
X146121774Y-132262502D01*
X146124128Y-132274806D01*
X146126983Y-132288170D01*
X146127614Y-132290970D01*
X146130569Y-132304545D01*
X146133024Y-132317062D01*
X146135308Y-132330684D01*
X146136870Y-132342781D01*
X146137782Y-132354966D01*
X146137872Y-132359553D01*
X146137069Y-132372698D01*
X146134657Y-132384874D01*
X146130639Y-132396081D01*
X146123919Y-132407932D01*
X146116418Y-132417041D01*
X146115011Y-132418465D01*
X146106105Y-132426134D01*
X146094595Y-132433076D01*
X146081878Y-132437859D01*
X146070018Y-132440239D01*
X146057272Y-132441033D01*
G37*
G36*
X146869428Y-132375380D02*
G01*
X146856778Y-132375207D01*
X146843955Y-132374749D01*
X146831338Y-132374092D01*
X146828396Y-132373915D01*
X146815693Y-132373065D01*
X146803965Y-132372493D01*
X146792075Y-132372184D01*
X146787656Y-132372156D01*
X146775887Y-132372759D01*
X146763119Y-132373928D01*
X146750287Y-132375307D01*
X146735128Y-132377079D01*
X146722233Y-132378667D01*
X146708029Y-132380476D01*
X146692516Y-132382507D01*
X146675695Y-132384759D01*
X146691229Y-132862498D01*
X146692108Y-132897962D01*
X146692987Y-132939288D01*
X146693027Y-132960725D01*
X146692342Y-132980779D01*
X146690930Y-132999450D01*
X146688792Y-133016737D01*
X146685929Y-133032642D01*
X146682340Y-133047164D01*
X146678025Y-133060303D01*
X146672984Y-133072058D01*
X146667217Y-133082431D01*
X146657206Y-133095397D01*
X146645562Y-133105251D01*
X146632284Y-133111993D01*
X146617373Y-133115624D01*
X146606525Y-133116315D01*
X146594415Y-133115573D01*
X146581067Y-133112832D01*
X146568561Y-133108072D01*
X146556896Y-133101292D01*
X146549079Y-133095213D01*
X146539601Y-133085475D01*
X146532450Y-133074728D01*
X146527627Y-133062971D01*
X146525133Y-133050205D01*
X146524753Y-133042456D01*
X146524835Y-133029834D01*
X146525030Y-133017662D01*
X146525339Y-133003988D01*
X146525669Y-132991967D01*
X146526072Y-132978984D01*
X146526548Y-132965039D01*
X146527098Y-132950132D01*
X146527716Y-132935226D01*
X146528252Y-132921281D01*
X146528705Y-132908298D01*
X146529076Y-132896277D01*
X146529424Y-132882603D01*
X146529643Y-132870431D01*
X146529735Y-132857809D01*
X146513322Y-132384759D01*
X146501503Y-132384185D01*
X146488576Y-132383450D01*
X146474541Y-132382557D01*
X146459398Y-132381503D01*
X146443148Y-132380290D01*
X146425790Y-132378917D01*
X146413603Y-132377913D01*
X146400923Y-132376838D01*
X146387751Y-132375692D01*
X146374087Y-132374474D01*
X146359930Y-132373186D01*
X146345281Y-132371828D01*
X146330140Y-132370398D01*
X146317046Y-132367975D01*
X146305239Y-132364445D01*
X146291500Y-132358016D01*
X146280051Y-132349617D01*
X146270892Y-132339249D01*
X146264023Y-132326911D01*
X146259443Y-132312605D01*
X146257511Y-132300583D01*
X146256867Y-132287453D01*
X146257650Y-132273958D01*
X146260000Y-132261390D01*
X146263915Y-132249750D01*
X146269397Y-132239038D01*
X146276445Y-132229252D01*
X146279142Y-132226197D01*
X146287928Y-132217929D01*
X146299272Y-132210446D01*
X146311794Y-132205291D01*
X146323465Y-132202725D01*
X146336002Y-132201870D01*
X146508926Y-132215938D01*
X146508833Y-132202725D01*
X146508554Y-132188181D01*
X146508197Y-132175587D01*
X146507720Y-132162141D01*
X146507125Y-132147844D01*
X146506411Y-132132695D01*
X146505797Y-132120774D01*
X146505116Y-132108374D01*
X146504487Y-132096064D01*
X146503745Y-132080677D01*
X146503113Y-132066462D01*
X146502591Y-132053419D01*
X146502179Y-132041549D01*
X146501818Y-132028360D01*
X146501612Y-132014951D01*
X146501599Y-132011067D01*
X146502433Y-131999050D01*
X146505517Y-131986045D01*
X146510872Y-131974133D01*
X146518500Y-131963316D01*
X146525339Y-131956259D01*
X146534723Y-131948889D01*
X146546608Y-131942217D01*
X146559503Y-131937621D01*
X146571359Y-131935333D01*
X146583957Y-131934571D01*
X146597370Y-131935591D01*
X146609690Y-131938651D01*
X146620918Y-131943751D01*
X146631053Y-131950892D01*
X146640097Y-131960073D01*
X146648048Y-131971294D01*
X146654907Y-131984555D01*
X146660674Y-131999857D01*
X146663912Y-132011191D01*
X146666664Y-132023432D01*
X146668931Y-132036580D01*
X146670712Y-132050635D01*
X146671626Y-132064019D01*
X146672231Y-132076383D01*
X146672670Y-132089572D01*
X146672945Y-132103586D01*
X146673048Y-132115893D01*
X146673057Y-132120977D01*
X146671592Y-132166992D01*
X146670712Y-132215938D01*
X146683156Y-132214341D01*
X146694915Y-132212847D01*
X146711270Y-132210799D01*
X146726085Y-132208983D01*
X146739359Y-132207399D01*
X146751093Y-132206047D01*
X146764341Y-132204604D01*
X146777051Y-132203380D01*
X146787656Y-132202749D01*
X146803235Y-132202821D01*
X146817768Y-132203038D01*
X146831255Y-132203398D01*
X146843696Y-132203903D01*
X146858657Y-132204801D01*
X146871759Y-132205955D01*
X146885522Y-132207758D01*
X146898203Y-132210451D01*
X146899910Y-132210956D01*
X146911656Y-132215847D01*
X146921837Y-132222167D01*
X146932360Y-132232076D01*
X146940436Y-132244217D01*
X146945134Y-132255538D01*
X146948267Y-132268287D01*
X146949833Y-132282466D01*
X146950029Y-132290090D01*
X146949225Y-132303585D01*
X146946814Y-132316153D01*
X146942795Y-132327793D01*
X146937169Y-132338506D01*
X146929936Y-132348291D01*
X146927167Y-132351347D01*
X146918261Y-132359514D01*
X146908469Y-132365992D01*
X146895925Y-132371414D01*
X146884213Y-132374230D01*
X146871614Y-132375357D01*
X146869428Y-132375380D01*
G37*
G36*
X148334006Y-133153831D02*
G01*
X148320471Y-133152750D01*
X148307708Y-133149509D01*
X148295718Y-133144107D01*
X148284501Y-133136543D01*
X148274057Y-133126819D01*
X148266258Y-133117483D01*
X148260733Y-133109574D01*
X148254588Y-133099334D01*
X148248607Y-133087519D01*
X148242791Y-133074128D01*
X148238537Y-133063052D01*
X148234376Y-133051089D01*
X148230307Y-133038240D01*
X148226332Y-133024504D01*
X148222449Y-133009883D01*
X148218659Y-132994375D01*
X148216183Y-132983545D01*
X148186581Y-132836999D01*
X148182178Y-132818680D01*
X148177468Y-132797794D01*
X148172451Y-132774340D01*
X148169827Y-132761651D01*
X148167127Y-132748321D01*
X148164350Y-132734348D01*
X148161497Y-132719734D01*
X148158566Y-132704478D01*
X148155559Y-132688580D01*
X148152476Y-132672041D01*
X148149315Y-132654860D01*
X148146078Y-132637037D01*
X148142764Y-132618573D01*
X148139373Y-132599467D01*
X148135906Y-132579719D01*
X148132362Y-132559329D01*
X148128741Y-132538298D01*
X148125044Y-132516625D01*
X148121270Y-132494310D01*
X148117419Y-132471354D01*
X148113492Y-132447755D01*
X148109487Y-132423515D01*
X148105406Y-132398634D01*
X148101249Y-132373111D01*
X148097014Y-132346946D01*
X148092703Y-132320139D01*
X148088315Y-132292691D01*
X148083851Y-132264600D01*
X148079310Y-132235869D01*
X147914592Y-132749365D01*
X147865939Y-132911151D01*
X147862229Y-132923032D01*
X147858497Y-132934640D01*
X147854746Y-132945975D01*
X147849079Y-132962468D01*
X147843367Y-132978347D01*
X147837608Y-132993613D01*
X147831802Y-133008266D01*
X147825950Y-133022306D01*
X147820052Y-133035733D01*
X147814108Y-133048547D01*
X147808117Y-133060748D01*
X147804097Y-133068541D01*
X147795075Y-133079738D01*
X147785302Y-133089442D01*
X147774779Y-133097654D01*
X147763504Y-133104372D01*
X147751478Y-133109597D01*
X147738701Y-133113329D01*
X147725173Y-133115569D01*
X147710894Y-133116315D01*
X147699120Y-133115729D01*
X147685291Y-133113348D01*
X147672450Y-133109134D01*
X147660596Y-133103089D01*
X147649729Y-133095213D01*
X147639850Y-133085504D01*
X147634397Y-133078800D01*
X147628797Y-133067146D01*
X147623355Y-133054534D01*
X147618069Y-133040962D01*
X147613955Y-133029415D01*
X147609941Y-133017254D01*
X147606028Y-133004479D01*
X147602215Y-132991091D01*
X147601278Y-132987648D01*
X147577537Y-132893273D01*
X147572354Y-132874437D01*
X147567209Y-132855518D01*
X147562103Y-132836516D01*
X147557035Y-132817431D01*
X147552005Y-132798263D01*
X147547013Y-132779012D01*
X147542060Y-132759678D01*
X147537146Y-132740261D01*
X147532269Y-132720761D01*
X147527431Y-132701178D01*
X147522632Y-132681512D01*
X147517870Y-132661762D01*
X147513147Y-132641930D01*
X147508463Y-132622015D01*
X147503816Y-132602017D01*
X147499209Y-132581936D01*
X147494639Y-132561772D01*
X147490108Y-132541525D01*
X147485615Y-132521195D01*
X147481161Y-132500782D01*
X147476744Y-132480286D01*
X147472367Y-132459707D01*
X147468027Y-132439045D01*
X147463726Y-132418300D01*
X147459463Y-132397472D01*
X147455239Y-132376560D01*
X147451053Y-132355566D01*
X147446905Y-132334489D01*
X147442796Y-132313329D01*
X147438725Y-132292086D01*
X147434693Y-132270760D01*
X147430698Y-132249351D01*
X147401096Y-132400586D01*
X147294704Y-132846378D01*
X147293195Y-132861818D01*
X147291197Y-132878571D01*
X147289593Y-132890470D01*
X147287772Y-132902953D01*
X147285733Y-132916019D01*
X147283476Y-132929670D01*
X147281002Y-132943904D01*
X147278310Y-132958722D01*
X147275401Y-132974125D01*
X147272275Y-132990111D01*
X147268930Y-133006681D01*
X147265369Y-133023835D01*
X147261589Y-133041572D01*
X147257592Y-133059894D01*
X147253378Y-133078800D01*
X147246719Y-133091989D01*
X147239053Y-133103419D01*
X147230380Y-133113091D01*
X147220698Y-133121005D01*
X147210010Y-133127160D01*
X147198314Y-133131556D01*
X147185610Y-133134194D01*
X147171899Y-133135073D01*
X147159660Y-133134372D01*
X147146031Y-133131679D01*
X147133556Y-133126967D01*
X147122236Y-133120235D01*
X147112069Y-133111483D01*
X147107419Y-133106350D01*
X147100446Y-133096716D01*
X147094916Y-133086278D01*
X147090829Y-133075036D01*
X147088184Y-133062991D01*
X147086982Y-133050142D01*
X147086902Y-133045680D01*
X147087124Y-133028364D01*
X147087791Y-133010560D01*
X147088901Y-132992268D01*
X147090456Y-132973488D01*
X147092455Y-132954221D01*
X147094898Y-132934466D01*
X147097786Y-132914223D01*
X147101117Y-132893492D01*
X147104893Y-132872274D01*
X147109113Y-132850568D01*
X147113777Y-132828375D01*
X147118886Y-132805693D01*
X147121607Y-132794170D01*
X147124439Y-132782524D01*
X147127381Y-132770757D01*
X147130435Y-132758867D01*
X147133600Y-132746856D01*
X147136877Y-132734723D01*
X147140264Y-132722468D01*
X147143762Y-132710090D01*
X147234620Y-132366880D01*
X147282394Y-132098702D01*
X147284669Y-132087069D01*
X147289242Y-132064565D01*
X147293845Y-132043077D01*
X147298477Y-132022607D01*
X147303139Y-132003153D01*
X147307830Y-131984716D01*
X147312552Y-131967295D01*
X147317303Y-131950891D01*
X147322084Y-131935504D01*
X147326895Y-131921133D01*
X147331736Y-131907779D01*
X147336606Y-131895442D01*
X147341506Y-131884121D01*
X147348912Y-131869046D01*
X147356385Y-131856259D01*
X147358891Y-131852505D01*
X147367409Y-131840965D01*
X147376403Y-131830963D01*
X147385874Y-131822500D01*
X147395821Y-131815575D01*
X147406244Y-131810190D01*
X147419942Y-131805622D01*
X147434385Y-131803458D01*
X147440370Y-131803266D01*
X147453354Y-131804250D01*
X147465485Y-131807204D01*
X147476764Y-131812127D01*
X147487192Y-131819019D01*
X147496768Y-131827881D01*
X147505492Y-131838711D01*
X147513364Y-131851511D01*
X147518709Y-131862403D01*
X147520384Y-131866280D01*
X147526471Y-131881897D01*
X147530574Y-131893845D01*
X147534714Y-131907023D01*
X147538890Y-131921430D01*
X147543104Y-131937067D01*
X147547353Y-131953933D01*
X147551640Y-131972029D01*
X147555963Y-131991355D01*
X147560323Y-132011910D01*
X147564719Y-132033695D01*
X147569152Y-132056710D01*
X147571382Y-132068678D01*
X147573622Y-132080954D01*
X147575870Y-132093537D01*
X147578128Y-132106428D01*
X147580395Y-132119626D01*
X147582671Y-132133131D01*
X147584956Y-132146944D01*
X147587250Y-132161064D01*
X147589554Y-132175492D01*
X147592349Y-132193031D01*
X147595238Y-132210660D01*
X147598222Y-132228380D01*
X147601301Y-132246191D01*
X147604473Y-132264092D01*
X147607741Y-132282083D01*
X147611102Y-132300165D01*
X147614558Y-132318337D01*
X147618109Y-132336600D01*
X147621754Y-132354953D01*
X147625493Y-132373397D01*
X147629327Y-132391931D01*
X147633256Y-132410555D01*
X147637279Y-132429270D01*
X147641396Y-132448075D01*
X147645608Y-132466971D01*
X147649914Y-132485957D01*
X147654315Y-132505034D01*
X147658810Y-132524201D01*
X147663399Y-132543459D01*
X147668083Y-132562807D01*
X147672862Y-132582245D01*
X147677735Y-132601774D01*
X147682702Y-132621394D01*
X147687764Y-132641104D01*
X147692920Y-132660904D01*
X147698171Y-132680795D01*
X147703516Y-132700776D01*
X147708956Y-132720847D01*
X147714490Y-132741009D01*
X147720118Y-132761262D01*
X147725842Y-132781605D01*
X147733430Y-132761080D01*
X147740954Y-132740503D01*
X147748414Y-132719874D01*
X147755810Y-132699191D01*
X147763142Y-132678456D01*
X147770410Y-132657668D01*
X147777613Y-132636828D01*
X147784753Y-132615935D01*
X147791828Y-132594989D01*
X147798840Y-132573991D01*
X147805787Y-132552940D01*
X147812670Y-132531836D01*
X147819489Y-132510680D01*
X147826244Y-132489471D01*
X147832934Y-132468209D01*
X147839561Y-132446894D01*
X147846123Y-132425527D01*
X147852622Y-132404108D01*
X147859056Y-132382635D01*
X147865426Y-132361110D01*
X147871732Y-132339533D01*
X147877974Y-132317902D01*
X147884152Y-132296219D01*
X147890266Y-132274483D01*
X147896315Y-132252695D01*
X147902301Y-132230854D01*
X147908222Y-132208960D01*
X147914079Y-132187014D01*
X147919873Y-132165015D01*
X147925602Y-132142963D01*
X147931267Y-132120859D01*
X147936867Y-132098702D01*
X147961487Y-131974431D01*
X147964317Y-131960618D01*
X147967312Y-131947314D01*
X147970472Y-131934521D01*
X147973797Y-131922238D01*
X147977286Y-131910465D01*
X147980941Y-131899202D01*
X147986070Y-131884977D01*
X147991492Y-131871660D01*
X147997208Y-131859250D01*
X148000175Y-131853384D01*
X148008606Y-131841638D01*
X148017779Y-131831457D01*
X148027694Y-131822843D01*
X148038350Y-131815795D01*
X148049749Y-131810314D01*
X148061889Y-131806398D01*
X148074771Y-131804049D01*
X148088396Y-131803266D01*
X148101398Y-131804397D01*
X148113809Y-131807789D01*
X148125627Y-131813443D01*
X148136852Y-131821359D01*
X148147485Y-131831537D01*
X148157525Y-131843977D01*
X148166973Y-131858678D01*
X148172942Y-131869735D01*
X148178649Y-131881798D01*
X148184091Y-131894866D01*
X148189271Y-131908939D01*
X148194187Y-131924017D01*
X148196546Y-131931933D01*
X148199935Y-131945717D01*
X148202597Y-131958183D01*
X148205362Y-131972473D01*
X148208230Y-131988587D01*
X148210199Y-132000343D01*
X148212214Y-132012909D01*
X148214275Y-132026286D01*
X148216382Y-132040473D01*
X148218534Y-132055471D01*
X148220732Y-132071280D01*
X148222976Y-132087899D01*
X148225266Y-132105329D01*
X148227601Y-132123569D01*
X148228786Y-132132993D01*
X148231850Y-132156935D01*
X148234961Y-132180657D01*
X148238118Y-132204160D01*
X148241321Y-132227442D01*
X148244570Y-132250505D01*
X148247866Y-132273348D01*
X148251208Y-132295971D01*
X148254597Y-132318374D01*
X148258032Y-132340557D01*
X148261513Y-132362521D01*
X148265041Y-132384264D01*
X148268615Y-132405788D01*
X148272235Y-132427092D01*
X148275902Y-132448177D01*
X148279615Y-132469041D01*
X148283375Y-132489686D01*
X148287181Y-132510111D01*
X148291033Y-132530316D01*
X148294931Y-132550301D01*
X148298876Y-132570066D01*
X148302868Y-132589612D01*
X148306906Y-132608937D01*
X148310990Y-132628043D01*
X148315120Y-132646929D01*
X148319297Y-132665596D01*
X148323520Y-132684042D01*
X148327790Y-132702269D01*
X148332106Y-132720275D01*
X148336468Y-132738062D01*
X148340877Y-132755630D01*
X148345332Y-132772977D01*
X148349833Y-132790104D01*
X148390280Y-132936650D01*
X148394042Y-132950131D01*
X148397561Y-132962951D01*
X148400838Y-132975108D01*
X148403872Y-132986604D01*
X148407968Y-133002607D01*
X148411517Y-133017121D01*
X148414521Y-133030146D01*
X148416979Y-133041682D01*
X148419406Y-133054748D01*
X148421074Y-133067357D01*
X148421347Y-133072938D01*
X148420399Y-133085406D01*
X148417556Y-133097090D01*
X148412816Y-133107992D01*
X148406180Y-133118110D01*
X148397648Y-133127446D01*
X148394383Y-133130384D01*
X148384134Y-133138352D01*
X148373390Y-133144672D01*
X148362152Y-133149343D01*
X148350419Y-133152365D01*
X148338192Y-133153739D01*
X148334006Y-133153831D01*
G37*
G36*
X149266330Y-132037739D02*
G01*
X149252720Y-132037569D01*
X149238266Y-132037061D01*
X149222971Y-132036214D01*
X149210946Y-132035356D01*
X149198447Y-132034308D01*
X149185475Y-132033069D01*
X149172028Y-132031639D01*
X149158107Y-132030019D01*
X149143712Y-132028208D01*
X149133853Y-132026894D01*
X149001082Y-132009602D01*
X148999910Y-132024840D01*
X148998775Y-132040035D01*
X148997678Y-132055189D01*
X148996617Y-132070299D01*
X148995594Y-132085368D01*
X148994608Y-132100394D01*
X148993659Y-132115378D01*
X148992747Y-132130319D01*
X148991873Y-132145218D01*
X148991036Y-132160075D01*
X148990236Y-132174889D01*
X148989473Y-132189661D01*
X148988748Y-132204390D01*
X148988059Y-132219078D01*
X148987408Y-132233722D01*
X148986794Y-132248325D01*
X148986217Y-132262885D01*
X148985678Y-132277403D01*
X148985175Y-132291878D01*
X148984710Y-132306311D01*
X148984282Y-132320702D01*
X148983892Y-132335050D01*
X148983538Y-132349356D01*
X148983222Y-132363620D01*
X148982943Y-132377841D01*
X148982701Y-132392020D01*
X148982496Y-132406156D01*
X148982329Y-132420251D01*
X148982199Y-132434302D01*
X148982106Y-132448312D01*
X148982050Y-132462279D01*
X148982031Y-132476204D01*
X148982082Y-132491293D01*
X148982186Y-132503181D01*
X148982346Y-132515559D01*
X148982563Y-132528426D01*
X148982837Y-132541783D01*
X148983168Y-132555629D01*
X148983555Y-132569964D01*
X148983999Y-132584789D01*
X148984500Y-132600103D01*
X148985057Y-132615907D01*
X148985255Y-132621284D01*
X148985831Y-132637251D01*
X148986351Y-132652728D01*
X148986814Y-132667716D01*
X148987220Y-132682215D01*
X148987569Y-132696224D01*
X148987862Y-132709744D01*
X148988098Y-132722774D01*
X148988278Y-132735315D01*
X148988401Y-132747366D01*
X148988476Y-132762673D01*
X148988479Y-132766364D01*
X148988430Y-132781073D01*
X148988284Y-132795524D01*
X148988039Y-132809718D01*
X148987696Y-132823654D01*
X148987256Y-132837333D01*
X148986717Y-132850754D01*
X148986081Y-132863917D01*
X148985347Y-132876823D01*
X148984515Y-132889471D01*
X148983585Y-132901862D01*
X148982911Y-132909979D01*
X149242590Y-132906755D01*
X149255167Y-132907631D01*
X149266962Y-132910258D01*
X149277974Y-132914637D01*
X149288202Y-132920768D01*
X149297647Y-132928651D01*
X149300622Y-132931668D01*
X149308590Y-132941302D01*
X149314910Y-132951740D01*
X149319581Y-132962981D01*
X149322604Y-132975027D01*
X149323977Y-132987876D01*
X149324069Y-132992338D01*
X149323245Y-133005764D01*
X149320772Y-133018345D01*
X149316650Y-133030081D01*
X149310880Y-133040972D01*
X149303461Y-133051019D01*
X149300622Y-133054180D01*
X149291437Y-133062547D01*
X149281470Y-133069182D01*
X149270719Y-133074087D01*
X149259186Y-133077261D01*
X149246869Y-133078703D01*
X149242590Y-133078800D01*
X149230293Y-133078800D01*
X149216559Y-133078800D01*
X149201387Y-133078800D01*
X149189065Y-133078800D01*
X149175933Y-133078800D01*
X149161993Y-133078800D01*
X149147243Y-133078800D01*
X149131685Y-133078800D01*
X149115318Y-133078800D01*
X149103957Y-133078800D01*
X149087054Y-133078800D01*
X149070964Y-133078800D01*
X149055688Y-133078800D01*
X149041227Y-133078800D01*
X149027579Y-133078800D01*
X149014745Y-133078800D01*
X149002726Y-133078800D01*
X148987966Y-133078800D01*
X148974653Y-133078800D01*
X148965618Y-133078800D01*
X148951147Y-133078946D01*
X148939187Y-133079248D01*
X148926280Y-133079715D01*
X148912424Y-133080347D01*
X148897621Y-133081144D01*
X148881870Y-133082106D01*
X148865170Y-133083233D01*
X148847523Y-133084524D01*
X148835231Y-133085476D01*
X148822519Y-133086502D01*
X148809384Y-133087601D01*
X148802659Y-133088178D01*
X148789347Y-133089314D01*
X148776446Y-133090377D01*
X148763958Y-133091366D01*
X148751881Y-133092282D01*
X148734540Y-133093518D01*
X148718125Y-133094590D01*
X148702638Y-133095497D01*
X148688079Y-133096238D01*
X148674447Y-133096815D01*
X148661742Y-133097228D01*
X148649964Y-133097475D01*
X148639114Y-133097557D01*
X148626537Y-133096702D01*
X148614742Y-133094136D01*
X148603730Y-133089860D01*
X148593502Y-133083874D01*
X148584057Y-133076177D01*
X148581082Y-133073231D01*
X148573114Y-133063607D01*
X148566794Y-133053200D01*
X148562123Y-133042010D01*
X148559100Y-133030036D01*
X148557727Y-133017280D01*
X148557635Y-133012854D01*
X148558459Y-132999826D01*
X148560932Y-132987561D01*
X148565054Y-132976058D01*
X148570824Y-132965318D01*
X148578243Y-132955340D01*
X148581082Y-132952184D01*
X148590277Y-132943718D01*
X148600275Y-132937003D01*
X148611077Y-132932040D01*
X148622683Y-132928828D01*
X148635092Y-132927369D01*
X148639407Y-132927271D01*
X148653842Y-132927001D01*
X148666111Y-132926444D01*
X148679616Y-132925583D01*
X148694358Y-132924417D01*
X148710336Y-132922948D01*
X148727550Y-132921175D01*
X148739713Y-132919824D01*
X148752426Y-132918338D01*
X148765689Y-132916717D01*
X148779501Y-132914961D01*
X148793862Y-132913069D01*
X148808773Y-132911043D01*
X148816435Y-132909979D01*
X148817901Y-132897339D01*
X148819224Y-132884370D01*
X148820402Y-132871071D01*
X148821436Y-132857442D01*
X148822325Y-132843484D01*
X148823070Y-132829196D01*
X148823672Y-132814578D01*
X148824128Y-132799630D01*
X148824441Y-132784353D01*
X148824609Y-132768745D01*
X148824641Y-132758157D01*
X148824559Y-132743627D01*
X148824312Y-132728317D01*
X148824018Y-132716324D01*
X148823631Y-132703893D01*
X148823152Y-132691024D01*
X148822580Y-132677718D01*
X148821916Y-132663973D01*
X148821158Y-132649790D01*
X148820308Y-132635170D01*
X148819366Y-132620111D01*
X148818423Y-132605058D01*
X148817573Y-132590453D01*
X148816815Y-132576296D01*
X148816151Y-132562588D01*
X148815579Y-132549327D01*
X148815100Y-132536515D01*
X148814713Y-132524151D01*
X148814420Y-132512235D01*
X148814172Y-132497045D01*
X148814090Y-132482652D01*
X148814112Y-132470726D01*
X148814179Y-132458616D01*
X148814291Y-132446321D01*
X148814447Y-132433843D01*
X148814648Y-132421180D01*
X148814894Y-132408332D01*
X148815184Y-132395301D01*
X148815519Y-132382085D01*
X148815898Y-132368684D01*
X148816322Y-132355100D01*
X148816791Y-132341331D01*
X148817305Y-132327377D01*
X148817863Y-132313240D01*
X148818466Y-132298918D01*
X148819113Y-132284411D01*
X148819805Y-132269721D01*
X148820542Y-132254846D01*
X148821323Y-132239786D01*
X148822149Y-132224543D01*
X148823020Y-132209115D01*
X148823935Y-132193503D01*
X148824895Y-132177706D01*
X148825900Y-132161725D01*
X148826949Y-132145560D01*
X148828043Y-132129210D01*
X148829182Y-132112676D01*
X148830365Y-132095958D01*
X148831593Y-132079056D01*
X148832866Y-132061969D01*
X148834183Y-132044697D01*
X148835545Y-132027242D01*
X148836951Y-132009602D01*
X148729973Y-132013119D01*
X148622701Y-132015464D01*
X148609804Y-132014629D01*
X148597711Y-132012125D01*
X148586421Y-132007952D01*
X148575935Y-132002110D01*
X148566253Y-131994598D01*
X148563204Y-131991723D01*
X148555136Y-131982268D01*
X148548737Y-131971926D01*
X148544007Y-131960698D01*
X148540947Y-131948584D01*
X148539556Y-131935584D01*
X148539463Y-131931054D01*
X148540143Y-131917368D01*
X148542184Y-131904888D01*
X148545584Y-131893614D01*
X148552233Y-131880457D01*
X148561301Y-131869443D01*
X148572786Y-131860572D01*
X148586690Y-131853845D01*
X148598704Y-131850206D01*
X148612079Y-131847773D01*
X148616839Y-131847229D01*
X148630389Y-131846077D01*
X148645979Y-131845038D01*
X148663609Y-131844112D01*
X148676496Y-131843558D01*
X148690290Y-131843055D01*
X148704990Y-131842601D01*
X148720597Y-131842198D01*
X148737111Y-131841846D01*
X148754532Y-131841543D01*
X148772859Y-131841291D01*
X148792093Y-131841090D01*
X148812234Y-131840939D01*
X148833282Y-131840838D01*
X148855236Y-131840788D01*
X148866553Y-131840781D01*
X148887395Y-131840914D01*
X148908887Y-131841313D01*
X148931029Y-131841977D01*
X148953821Y-131842906D01*
X148977264Y-131844102D01*
X148989229Y-131844799D01*
X149001357Y-131845562D01*
X149013647Y-131846392D01*
X149026100Y-131847289D01*
X149038716Y-131848252D01*
X149051494Y-131849281D01*
X149064435Y-131850377D01*
X149077538Y-131851539D01*
X149090804Y-131852767D01*
X149104232Y-131854062D01*
X149117823Y-131855423D01*
X149131577Y-131856851D01*
X149145493Y-131858345D01*
X149159571Y-131859906D01*
X149173813Y-131861532D01*
X149188217Y-131863226D01*
X149202783Y-131864985D01*
X149217512Y-131866812D01*
X149232404Y-131868704D01*
X149247458Y-131870663D01*
X149262674Y-131872688D01*
X149278054Y-131874780D01*
X149291148Y-131877265D01*
X149302955Y-131880873D01*
X149316694Y-131887431D01*
X149328143Y-131895986D01*
X149337302Y-131906537D01*
X149344171Y-131919085D01*
X149348751Y-131933630D01*
X149350683Y-131945848D01*
X149351327Y-131959190D01*
X149350337Y-131972534D01*
X149347370Y-131984868D01*
X149342424Y-131996192D01*
X149335500Y-132006506D01*
X149326597Y-132015811D01*
X149323190Y-132018688D01*
X149312054Y-132026111D01*
X149300189Y-132031711D01*
X149287595Y-132035488D01*
X149274271Y-132037441D01*
X149266330Y-132037739D01*
G37*
G36*
X150518417Y-132046532D02*
G01*
X150506404Y-132046444D01*
X150493227Y-132046181D01*
X150478885Y-132045743D01*
X150463379Y-132045130D01*
X150446709Y-132044342D01*
X150434949Y-132043719D01*
X150422671Y-132043018D01*
X150409876Y-132042240D01*
X150396563Y-132041384D01*
X150382733Y-132040449D01*
X150368385Y-132039437D01*
X150353520Y-132038347D01*
X150338137Y-132037180D01*
X150330252Y-132036566D01*
X150315024Y-132035470D01*
X150300260Y-132034451D01*
X150285962Y-132033510D01*
X150272128Y-132032646D01*
X150258759Y-132031861D01*
X150245855Y-132031153D01*
X150233416Y-132030524D01*
X150221442Y-132029972D01*
X150204352Y-132029290D01*
X150188307Y-132028783D01*
X150173309Y-132028452D01*
X150159357Y-132028296D01*
X150146450Y-132028315D01*
X150142380Y-132028360D01*
X150083762Y-132028360D01*
X150084124Y-132042937D01*
X150084623Y-132058603D01*
X150085259Y-132075360D01*
X150086033Y-132093206D01*
X150086945Y-132112143D01*
X150087993Y-132132169D01*
X150089180Y-132153285D01*
X150090503Y-132175492D01*
X150091964Y-132198788D01*
X150092746Y-132210845D01*
X150093562Y-132223174D01*
X150094413Y-132235776D01*
X150095298Y-132248650D01*
X150096217Y-132261797D01*
X150097171Y-132275216D01*
X150098159Y-132288908D01*
X150099181Y-132302872D01*
X150100238Y-132317109D01*
X150101329Y-132331618D01*
X150102455Y-132346400D01*
X150103614Y-132361454D01*
X150104808Y-132376780D01*
X150106037Y-132392379D01*
X150107155Y-132406950D01*
X150108237Y-132421315D01*
X150109284Y-132435476D01*
X150110296Y-132449431D01*
X150111272Y-132463182D01*
X150112212Y-132476728D01*
X150113117Y-132490069D01*
X150113987Y-132503205D01*
X150114821Y-132516136D01*
X150115620Y-132528862D01*
X150116383Y-132541383D01*
X150117110Y-132553699D01*
X150117802Y-132565810D01*
X150118459Y-132577716D01*
X150119666Y-132600914D01*
X150120730Y-132623292D01*
X150121653Y-132644850D01*
X150122434Y-132665589D01*
X150123073Y-132685507D01*
X150123570Y-132704606D01*
X150123925Y-132722886D01*
X150124138Y-132740345D01*
X150124209Y-132756985D01*
X150124489Y-132770826D01*
X150125176Y-132784922D01*
X150126063Y-132798242D01*
X150127237Y-132812994D01*
X150128382Y-132825826D01*
X150129710Y-132839574D01*
X150130070Y-132843154D01*
X150131444Y-132857145D01*
X150132635Y-132870247D01*
X150133642Y-132882460D01*
X150134644Y-132896478D01*
X150135360Y-132909108D01*
X150135841Y-132922431D01*
X150135932Y-132930202D01*
X150135648Y-132943739D01*
X150134796Y-132956800D01*
X150133377Y-132969385D01*
X150131389Y-132981493D01*
X150128834Y-132993125D01*
X150124841Y-133006996D01*
X150119961Y-133020122D01*
X150117761Y-133025164D01*
X150111574Y-133037735D01*
X150104590Y-133048629D01*
X150096809Y-133057848D01*
X150085963Y-133067014D01*
X150073871Y-133073562D01*
X150060535Y-133077490D01*
X150045953Y-133078800D01*
X150033870Y-133077996D01*
X150022240Y-133075585D01*
X150011064Y-133071566D01*
X150000341Y-133065940D01*
X149990071Y-133058707D01*
X149986749Y-133055938D01*
X149977784Y-133046912D01*
X149970674Y-133036979D01*
X149965419Y-133026139D01*
X149962019Y-133014393D01*
X149960474Y-133001739D01*
X149960370Y-132997320D01*
X149961048Y-132985335D01*
X149962490Y-132973417D01*
X149964474Y-132960684D01*
X149966457Y-132947832D01*
X149967900Y-132935891D01*
X149968577Y-132924047D01*
X149968448Y-132910533D01*
X149968160Y-132898331D01*
X149967706Y-132884892D01*
X149967088Y-132870217D01*
X149966516Y-132858399D01*
X149965852Y-132845886D01*
X149965094Y-132832677D01*
X149964244Y-132818773D01*
X149963301Y-132804173D01*
X149962359Y-132789565D01*
X149961508Y-132775638D01*
X149960751Y-132762390D01*
X149960087Y-132749823D01*
X149959515Y-132737935D01*
X149958896Y-132723143D01*
X149958443Y-132709560D01*
X149958155Y-132697186D01*
X149958026Y-132683419D01*
X149957951Y-132668505D01*
X149957728Y-132652851D01*
X149957356Y-132636457D01*
X149956835Y-132619324D01*
X149956165Y-132601451D01*
X149955347Y-132582838D01*
X149954379Y-132563486D01*
X149953263Y-132543395D01*
X149951998Y-132522564D01*
X149950584Y-132500993D01*
X149949021Y-132478682D01*
X149947310Y-132455632D01*
X149946398Y-132443830D01*
X149945449Y-132431843D01*
X149944463Y-132419670D01*
X149943440Y-132407313D01*
X149942379Y-132394771D01*
X149941282Y-132382044D01*
X149940147Y-132369133D01*
X149938975Y-132356036D01*
X149937746Y-132341892D01*
X149936552Y-132328000D01*
X149935392Y-132314360D01*
X149934267Y-132300972D01*
X149933176Y-132287835D01*
X149932119Y-132274950D01*
X149931097Y-132262318D01*
X149930109Y-132249937D01*
X149929155Y-132237808D01*
X149928236Y-132225931D01*
X149926500Y-132202932D01*
X149924902Y-132180941D01*
X149923441Y-132159958D01*
X149922117Y-132139982D01*
X149920931Y-132121013D01*
X149919883Y-132103052D01*
X149918971Y-132086099D01*
X149918197Y-132070153D01*
X149917561Y-132055214D01*
X149917062Y-132041283D01*
X149916700Y-132028360D01*
X149841668Y-132029239D01*
X149819403Y-132029138D01*
X149797741Y-132028836D01*
X149776685Y-132028332D01*
X149756232Y-132027627D01*
X149736385Y-132026720D01*
X149717141Y-132025612D01*
X149698502Y-132024302D01*
X149680468Y-132022791D01*
X149663038Y-132021078D01*
X149646213Y-132019164D01*
X149629992Y-132017048D01*
X149614376Y-132014731D01*
X149599364Y-132012212D01*
X149584957Y-132009492D01*
X149571154Y-132006570D01*
X149557956Y-132003447D01*
X149546014Y-131999855D01*
X149531918Y-131993808D01*
X149519910Y-131986323D01*
X149509991Y-131977399D01*
X149502160Y-131967038D01*
X149496417Y-131955239D01*
X149492763Y-131942002D01*
X149491196Y-131927327D01*
X149491131Y-131923433D01*
X149491883Y-131911292D01*
X149494140Y-131899706D01*
X149498674Y-131886894D01*
X149504190Y-131876514D01*
X149511210Y-131866691D01*
X149512527Y-131865108D01*
X149522353Y-131855529D01*
X149533149Y-131848113D01*
X149544912Y-131842862D01*
X149557645Y-131839774D01*
X149571345Y-131838850D01*
X149576128Y-131839023D01*
X149589516Y-131840084D01*
X149601350Y-131841238D01*
X149615509Y-131842749D01*
X149627656Y-131844117D01*
X149641111Y-131845686D01*
X149655875Y-131847456D01*
X149671948Y-131849426D01*
X149689329Y-131851598D01*
X149701643Y-131853157D01*
X149708019Y-131853970D01*
X149723185Y-131855699D01*
X149737801Y-131857257D01*
X149751865Y-131858646D01*
X149765378Y-131859864D01*
X149778339Y-131860913D01*
X149790750Y-131861791D01*
X149802609Y-131862500D01*
X149817563Y-131863180D01*
X149831538Y-131863557D01*
X149841375Y-131863642D01*
X149854555Y-131863610D01*
X149869329Y-131863514D01*
X149881455Y-131863400D01*
X149894478Y-131863250D01*
X149908397Y-131863063D01*
X149923212Y-131862841D01*
X149938924Y-131862583D01*
X149955532Y-131862288D01*
X149973037Y-131861957D01*
X149985205Y-131861717D01*
X149991438Y-131861591D01*
X150003840Y-131861342D01*
X150015838Y-131861110D01*
X150033080Y-131860791D01*
X150049415Y-131860509D01*
X150064844Y-131860262D01*
X150079366Y-131860052D01*
X150092981Y-131859878D01*
X150105689Y-131859740D01*
X150117490Y-131859637D01*
X150131815Y-131859557D01*
X150141501Y-131859539D01*
X150153965Y-131859619D01*
X150167505Y-131859859D01*
X150182122Y-131860258D01*
X150197816Y-131860817D01*
X150214586Y-131861536D01*
X150226365Y-131862103D01*
X150238622Y-131862742D01*
X150251358Y-131863452D01*
X150264572Y-131864233D01*
X150278265Y-131865085D01*
X150292436Y-131866008D01*
X150307086Y-131867001D01*
X150322215Y-131868066D01*
X150329959Y-131868625D01*
X150345327Y-131869725D01*
X150360216Y-131870755D01*
X150374627Y-131871713D01*
X150388559Y-131872600D01*
X150402012Y-131873416D01*
X150414987Y-131874162D01*
X150427484Y-131874836D01*
X150439502Y-131875439D01*
X150456631Y-131876211D01*
X150472684Y-131876824D01*
X150487660Y-131877276D01*
X150501559Y-131877569D01*
X150514382Y-131877702D01*
X150518417Y-131877711D01*
X150531303Y-131878566D01*
X150543366Y-131881132D01*
X150554604Y-131885408D01*
X150565018Y-131891395D01*
X150574608Y-131899092D01*
X150577621Y-131902037D01*
X150585789Y-131911572D01*
X150592266Y-131921931D01*
X150597054Y-131933114D01*
X150600152Y-131945122D01*
X150601561Y-131957954D01*
X150601654Y-131962414D01*
X150600810Y-131975322D01*
X150598275Y-131987446D01*
X150594050Y-131998787D01*
X150588136Y-132009346D01*
X150580531Y-132019121D01*
X150577621Y-132022205D01*
X150568306Y-132030472D01*
X150558167Y-132037029D01*
X150547204Y-132041875D01*
X150535416Y-132045011D01*
X150522804Y-132046437D01*
X150518417Y-132046532D01*
G37*
X125719084Y-68315219D02*
X125719084Y-67315219D01*
X125719084Y-67315219D02*
X126100036Y-67315219D01*
X126100036Y-67315219D02*
X126195274Y-67362838D01*
X126195274Y-67362838D02*
X126242893Y-67410457D01*
X126242893Y-67410457D02*
X126290512Y-67505695D01*
X126290512Y-67505695D02*
X126290512Y-67648552D01*
X126290512Y-67648552D02*
X126242893Y-67743790D01*
X126242893Y-67743790D02*
X126195274Y-67791409D01*
X126195274Y-67791409D02*
X126100036Y-67839028D01*
X126100036Y-67839028D02*
X125719084Y-67839028D01*
X126909560Y-67315219D02*
X127100036Y-67315219D01*
X127100036Y-67315219D02*
X127195274Y-67362838D01*
X127195274Y-67362838D02*
X127290512Y-67458076D01*
X127290512Y-67458076D02*
X127338131Y-67648552D01*
X127338131Y-67648552D02*
X127338131Y-67981885D01*
X127338131Y-67981885D02*
X127290512Y-68172361D01*
X127290512Y-68172361D02*
X127195274Y-68267600D01*
X127195274Y-68267600D02*
X127100036Y-68315219D01*
X127100036Y-68315219D02*
X126909560Y-68315219D01*
X126909560Y-68315219D02*
X126814322Y-68267600D01*
X126814322Y-68267600D02*
X126719084Y-68172361D01*
X126719084Y-68172361D02*
X126671465Y-67981885D01*
X126671465Y-67981885D02*
X126671465Y-67648552D01*
X126671465Y-67648552D02*
X126719084Y-67458076D01*
X126719084Y-67458076D02*
X126814322Y-67362838D01*
X126814322Y-67362838D02*
X126909560Y-67315219D01*
X127671465Y-67315219D02*
X127909560Y-68315219D01*
X127909560Y-68315219D02*
X128100036Y-67600933D01*
X128100036Y-67600933D02*
X128290512Y-68315219D01*
X128290512Y-68315219D02*
X128528608Y-67315219D01*
X128909560Y-67791409D02*
X129242893Y-67791409D01*
X129385750Y-68315219D02*
X128909560Y-68315219D01*
X128909560Y-68315219D02*
X128909560Y-67315219D01*
X128909560Y-67315219D02*
X129385750Y-67315219D01*
X130385750Y-68315219D02*
X130052417Y-67839028D01*
X129814322Y-68315219D02*
X129814322Y-67315219D01*
X129814322Y-67315219D02*
X130195274Y-67315219D01*
X130195274Y-67315219D02*
X130290512Y-67362838D01*
X130290512Y-67362838D02*
X130338131Y-67410457D01*
X130338131Y-67410457D02*
X130385750Y-67505695D01*
X130385750Y-67505695D02*
X130385750Y-67648552D01*
X130385750Y-67648552D02*
X130338131Y-67743790D01*
X130338131Y-67743790D02*
X130290512Y-67791409D01*
X130290512Y-67791409D02*
X130195274Y-67839028D01*
X130195274Y-67839028D02*
X129814322Y-67839028D01*
D10*
X108536028Y-110529019D02*
X108059838Y-110529019D01*
X108059838Y-110529019D02*
X108012219Y-111005209D01*
X108012219Y-111005209D02*
X108059838Y-110957590D01*
X108059838Y-110957590D02*
X108155076Y-110909971D01*
X108155076Y-110909971D02*
X108393171Y-110909971D01*
X108393171Y-110909971D02*
X108488409Y-110957590D01*
X108488409Y-110957590D02*
X108536028Y-111005209D01*
X108536028Y-111005209D02*
X108583647Y-111100447D01*
X108583647Y-111100447D02*
X108583647Y-111338542D01*
X108583647Y-111338542D02*
X108536028Y-111433780D01*
X108536028Y-111433780D02*
X108488409Y-111481400D01*
X108488409Y-111481400D02*
X108393171Y-111529019D01*
X108393171Y-111529019D02*
X108155076Y-111529019D01*
X108155076Y-111529019D02*
X108059838Y-111481400D01*
X108059838Y-111481400D02*
X108012219Y-111433780D01*
X108869362Y-110529019D02*
X109202695Y-111529019D01*
X109202695Y-111529019D02*
X109536028Y-110529019D01*
X109631267Y-111624257D02*
X110393171Y-111624257D01*
X111107457Y-111529019D02*
X110631267Y-111529019D01*
X110631267Y-111529019D02*
X110631267Y-110529019D01*
X111440791Y-111005209D02*
X111774124Y-111005209D01*
X111916981Y-111529019D02*
X111440791Y-111529019D01*
X111440791Y-111529019D02*
X111440791Y-110529019D01*
X111440791Y-110529019D02*
X111916981Y-110529019D01*
X112345553Y-111529019D02*
X112345553Y-110529019D01*
X112345553Y-110529019D02*
X112583648Y-110529019D01*
X112583648Y-110529019D02*
X112726505Y-110576638D01*
X112726505Y-110576638D02*
X112821743Y-110671876D01*
X112821743Y-110671876D02*
X112869362Y-110767114D01*
X112869362Y-110767114D02*
X112916981Y-110957590D01*
X112916981Y-110957590D02*
X112916981Y-111100447D01*
X112916981Y-111100447D02*
X112869362Y-111290923D01*
X112869362Y-111290923D02*
X112821743Y-111386161D01*
X112821743Y-111386161D02*
X112726505Y-111481400D01*
X112726505Y-111481400D02*
X112583648Y-111529019D01*
X112583648Y-111529019D02*
X112345553Y-111529019D01*
X142479733Y-108887419D02*
X142146400Y-108411228D01*
X141908305Y-108887419D02*
X141908305Y-107887419D01*
X141908305Y-107887419D02*
X142289257Y-107887419D01*
X142289257Y-107887419D02*
X142384495Y-107935038D01*
X142384495Y-107935038D02*
X142432114Y-107982657D01*
X142432114Y-107982657D02*
X142479733Y-108077895D01*
X142479733Y-108077895D02*
X142479733Y-108220752D01*
X142479733Y-108220752D02*
X142432114Y-108315990D01*
X142432114Y-108315990D02*
X142384495Y-108363609D01*
X142384495Y-108363609D02*
X142289257Y-108411228D01*
X142289257Y-108411228D02*
X141908305Y-108411228D01*
X143432114Y-108887419D02*
X142860686Y-108887419D01*
X143146400Y-108887419D02*
X143146400Y-107887419D01*
X143146400Y-107887419D02*
X143051162Y-108030276D01*
X143051162Y-108030276D02*
X142955924Y-108125514D01*
X142955924Y-108125514D02*
X142860686Y-108173133D01*
X142156324Y-110554419D02*
X142822990Y-110554419D01*
X142822990Y-110554419D02*
X142394419Y-111554419D01*
X143203943Y-111459180D02*
X143251562Y-111506800D01*
X143251562Y-111506800D02*
X143203943Y-111554419D01*
X143203943Y-111554419D02*
X143156324Y-111506800D01*
X143156324Y-111506800D02*
X143203943Y-111459180D01*
X143203943Y-111459180D02*
X143203943Y-111554419D01*
X144108704Y-110887752D02*
X144108704Y-111554419D01*
X143870609Y-110506800D02*
X143632514Y-111221085D01*
X143632514Y-111221085D02*
X144251561Y-111221085D01*
X144489657Y-110554419D02*
X144822990Y-111554419D01*
X144822990Y-111554419D02*
X145156323Y-110554419D01*
X146013466Y-111554419D02*
X145442038Y-111554419D01*
X145727752Y-111554419D02*
X145727752Y-110554419D01*
X145727752Y-110554419D02*
X145632514Y-110697276D01*
X145632514Y-110697276D02*
X145537276Y-110792514D01*
X145537276Y-110792514D02*
X145442038Y-110840133D01*
X146203943Y-111649657D02*
X146965847Y-111649657D01*
X147680133Y-111554419D02*
X147203943Y-111554419D01*
X147203943Y-111554419D02*
X147203943Y-110554419D01*
X148013467Y-111030609D02*
X148346800Y-111030609D01*
X148489657Y-111554419D02*
X148013467Y-111554419D01*
X148013467Y-111554419D02*
X148013467Y-110554419D01*
X148013467Y-110554419D02*
X148489657Y-110554419D01*
X148918229Y-111554419D02*
X148918229Y-110554419D01*
X148918229Y-110554419D02*
X149156324Y-110554419D01*
X149156324Y-110554419D02*
X149299181Y-110602038D01*
X149299181Y-110602038D02*
X149394419Y-110697276D01*
X149394419Y-110697276D02*
X149442038Y-110792514D01*
X149442038Y-110792514D02*
X149489657Y-110982990D01*
X149489657Y-110982990D02*
X149489657Y-111125847D01*
X149489657Y-111125847D02*
X149442038Y-111316323D01*
X149442038Y-111316323D02*
X149394419Y-111411561D01*
X149394419Y-111411561D02*
X149299181Y-111506800D01*
X149299181Y-111506800D02*
X149156324Y-111554419D01*
X149156324Y-111554419D02*
X148918229Y-111554419D01*
X141548600Y-95857219D02*
X141548600Y-94857219D01*
X141548600Y-94857219D02*
X141929552Y-94857219D01*
X141929552Y-94857219D02*
X142024790Y-94904838D01*
X142024790Y-94904838D02*
X142072409Y-94952457D01*
X142072409Y-94952457D02*
X142120028Y-95047695D01*
X142120028Y-95047695D02*
X142120028Y-95190552D01*
X142120028Y-95190552D02*
X142072409Y-95285790D01*
X142072409Y-95285790D02*
X142024790Y-95333409D01*
X142024790Y-95333409D02*
X141929552Y-95381028D01*
X141929552Y-95381028D02*
X141548600Y-95381028D01*
X143120028Y-95857219D02*
X142786695Y-95381028D01*
X142548600Y-95857219D02*
X142548600Y-94857219D01*
X142548600Y-94857219D02*
X142929552Y-94857219D01*
X142929552Y-94857219D02*
X143024790Y-94904838D01*
X143024790Y-94904838D02*
X143072409Y-94952457D01*
X143072409Y-94952457D02*
X143120028Y-95047695D01*
X143120028Y-95047695D02*
X143120028Y-95190552D01*
X143120028Y-95190552D02*
X143072409Y-95285790D01*
X143072409Y-95285790D02*
X143024790Y-95333409D01*
X143024790Y-95333409D02*
X142929552Y-95381028D01*
X142929552Y-95381028D02*
X142548600Y-95381028D01*
X143548600Y-95857219D02*
X143548600Y-94857219D01*
X144024790Y-95857219D02*
X144024790Y-94857219D01*
X144024790Y-94857219D02*
X144358123Y-95571504D01*
X144358123Y-95571504D02*
X144691456Y-94857219D01*
X144691456Y-94857219D02*
X144691456Y-95857219D01*
X145120028Y-95571504D02*
X145596218Y-95571504D01*
X145024790Y-95857219D02*
X145358123Y-94857219D01*
X145358123Y-94857219D02*
X145691456Y-95857219D01*
X146596218Y-95857219D02*
X146262885Y-95381028D01*
X146024790Y-95857219D02*
X146024790Y-94857219D01*
X146024790Y-94857219D02*
X146405742Y-94857219D01*
X146405742Y-94857219D02*
X146500980Y-94904838D01*
X146500980Y-94904838D02*
X146548599Y-94952457D01*
X146548599Y-94952457D02*
X146596218Y-95047695D01*
X146596218Y-95047695D02*
X146596218Y-95190552D01*
X146596218Y-95190552D02*
X146548599Y-95285790D01*
X146548599Y-95285790D02*
X146500980Y-95333409D01*
X146500980Y-95333409D02*
X146405742Y-95381028D01*
X146405742Y-95381028D02*
X146024790Y-95381028D01*
X147215266Y-95381028D02*
X147215266Y-95857219D01*
X146881933Y-94857219D02*
X147215266Y-95381028D01*
X147215266Y-95381028D02*
X147548599Y-94857219D01*
X148596219Y-95809600D02*
X148739076Y-95857219D01*
X148739076Y-95857219D02*
X148977171Y-95857219D01*
X148977171Y-95857219D02*
X149072409Y-95809600D01*
X149072409Y-95809600D02*
X149120028Y-95761980D01*
X149120028Y-95761980D02*
X149167647Y-95666742D01*
X149167647Y-95666742D02*
X149167647Y-95571504D01*
X149167647Y-95571504D02*
X149120028Y-95476266D01*
X149120028Y-95476266D02*
X149072409Y-95428647D01*
X149072409Y-95428647D02*
X148977171Y-95381028D01*
X148977171Y-95381028D02*
X148786695Y-95333409D01*
X148786695Y-95333409D02*
X148691457Y-95285790D01*
X148691457Y-95285790D02*
X148643838Y-95238171D01*
X148643838Y-95238171D02*
X148596219Y-95142933D01*
X148596219Y-95142933D02*
X148596219Y-95047695D01*
X148596219Y-95047695D02*
X148643838Y-94952457D01*
X148643838Y-94952457D02*
X148691457Y-94904838D01*
X148691457Y-94904838D02*
X148786695Y-94857219D01*
X148786695Y-94857219D02*
X149024790Y-94857219D01*
X149024790Y-94857219D02*
X149167647Y-94904838D01*
X149500981Y-94857219D02*
X149739076Y-95857219D01*
X149739076Y-95857219D02*
X149929552Y-95142933D01*
X149929552Y-95142933D02*
X150120028Y-95857219D01*
X150120028Y-95857219D02*
X150358124Y-94857219D01*
X150739076Y-95857219D02*
X150739076Y-94857219D01*
X151072409Y-94857219D02*
X151643837Y-94857219D01*
X151358123Y-95857219D02*
X151358123Y-94857219D01*
X152548599Y-95761980D02*
X152500980Y-95809600D01*
X152500980Y-95809600D02*
X152358123Y-95857219D01*
X152358123Y-95857219D02*
X152262885Y-95857219D01*
X152262885Y-95857219D02*
X152120028Y-95809600D01*
X152120028Y-95809600D02*
X152024790Y-95714361D01*
X152024790Y-95714361D02*
X151977171Y-95619123D01*
X151977171Y-95619123D02*
X151929552Y-95428647D01*
X151929552Y-95428647D02*
X151929552Y-95285790D01*
X151929552Y-95285790D02*
X151977171Y-95095314D01*
X151977171Y-95095314D02*
X152024790Y-95000076D01*
X152024790Y-95000076D02*
X152120028Y-94904838D01*
X152120028Y-94904838D02*
X152262885Y-94857219D01*
X152262885Y-94857219D02*
X152358123Y-94857219D01*
X152358123Y-94857219D02*
X152500980Y-94904838D01*
X152500980Y-94904838D02*
X152548599Y-94952457D01*
X152977171Y-95857219D02*
X152977171Y-94857219D01*
X152977171Y-95333409D02*
X153548599Y-95333409D01*
X153548599Y-95857219D02*
X153548599Y-94857219D01*
X126834142Y-95838180D02*
X126786523Y-95885800D01*
X126786523Y-95885800D02*
X126643666Y-95933419D01*
X126643666Y-95933419D02*
X126548428Y-95933419D01*
X126548428Y-95933419D02*
X126405571Y-95885800D01*
X126405571Y-95885800D02*
X126310333Y-95790561D01*
X126310333Y-95790561D02*
X126262714Y-95695323D01*
X126262714Y-95695323D02*
X126215095Y-95504847D01*
X126215095Y-95504847D02*
X126215095Y-95361990D01*
X126215095Y-95361990D02*
X126262714Y-95171514D01*
X126262714Y-95171514D02*
X126310333Y-95076276D01*
X126310333Y-95076276D02*
X126405571Y-94981038D01*
X126405571Y-94981038D02*
X126548428Y-94933419D01*
X126548428Y-94933419D02*
X126643666Y-94933419D01*
X126643666Y-94933419D02*
X126786523Y-94981038D01*
X126786523Y-94981038D02*
X126834142Y-95028657D01*
X127215095Y-95647704D02*
X127691285Y-95647704D01*
X127119857Y-95933419D02*
X127453190Y-94933419D01*
X127453190Y-94933419D02*
X127786523Y-95933419D01*
X128119857Y-95933419D02*
X128119857Y-94933419D01*
X128119857Y-94933419D02*
X128453190Y-95647704D01*
X128453190Y-95647704D02*
X128786523Y-94933419D01*
X128786523Y-94933419D02*
X128786523Y-95933419D01*
X129262714Y-95552466D02*
X130024619Y-95552466D01*
X129643666Y-95933419D02*
X129643666Y-95171514D01*
X130357952Y-94933419D02*
X130929380Y-94933419D01*
X130643666Y-95933419D02*
X130643666Y-94933419D01*
X131262714Y-95409609D02*
X131596047Y-95409609D01*
X131738904Y-95933419D02*
X131262714Y-95933419D01*
X131262714Y-95933419D02*
X131262714Y-94933419D01*
X131262714Y-94933419D02*
X131738904Y-94933419D01*
X132643666Y-95933419D02*
X132167476Y-95933419D01*
X132167476Y-95933419D02*
X132167476Y-94933419D01*
X132977000Y-95409609D02*
X133310333Y-95409609D01*
X133453190Y-95933419D02*
X132977000Y-95933419D01*
X132977000Y-95933419D02*
X132977000Y-94933419D01*
X132977000Y-94933419D02*
X133453190Y-94933419D01*
X133881762Y-95933419D02*
X133881762Y-94933419D01*
X133881762Y-94933419D02*
X134215095Y-95647704D01*
X134215095Y-95647704D02*
X134548428Y-94933419D01*
X134548428Y-94933419D02*
X134548428Y-95933419D01*
X135738905Y-95885800D02*
X135881762Y-95933419D01*
X135881762Y-95933419D02*
X136119857Y-95933419D01*
X136119857Y-95933419D02*
X136215095Y-95885800D01*
X136215095Y-95885800D02*
X136262714Y-95838180D01*
X136262714Y-95838180D02*
X136310333Y-95742942D01*
X136310333Y-95742942D02*
X136310333Y-95647704D01*
X136310333Y-95647704D02*
X136262714Y-95552466D01*
X136262714Y-95552466D02*
X136215095Y-95504847D01*
X136215095Y-95504847D02*
X136119857Y-95457228D01*
X136119857Y-95457228D02*
X135929381Y-95409609D01*
X135929381Y-95409609D02*
X135834143Y-95361990D01*
X135834143Y-95361990D02*
X135786524Y-95314371D01*
X135786524Y-95314371D02*
X135738905Y-95219133D01*
X135738905Y-95219133D02*
X135738905Y-95123895D01*
X135738905Y-95123895D02*
X135786524Y-95028657D01*
X135786524Y-95028657D02*
X135834143Y-94981038D01*
X135834143Y-94981038D02*
X135929381Y-94933419D01*
X135929381Y-94933419D02*
X136167476Y-94933419D01*
X136167476Y-94933419D02*
X136310333Y-94981038D01*
X136643667Y-94933419D02*
X136881762Y-95933419D01*
X136881762Y-95933419D02*
X137072238Y-95219133D01*
X137072238Y-95219133D02*
X137262714Y-95933419D01*
X137262714Y-95933419D02*
X137500810Y-94933419D01*
X137881762Y-95933419D02*
X137881762Y-94933419D01*
X138215095Y-94933419D02*
X138786523Y-94933419D01*
X138500809Y-95933419D02*
X138500809Y-94933419D01*
X139691285Y-95838180D02*
X139643666Y-95885800D01*
X139643666Y-95885800D02*
X139500809Y-95933419D01*
X139500809Y-95933419D02*
X139405571Y-95933419D01*
X139405571Y-95933419D02*
X139262714Y-95885800D01*
X139262714Y-95885800D02*
X139167476Y-95790561D01*
X139167476Y-95790561D02*
X139119857Y-95695323D01*
X139119857Y-95695323D02*
X139072238Y-95504847D01*
X139072238Y-95504847D02*
X139072238Y-95361990D01*
X139072238Y-95361990D02*
X139119857Y-95171514D01*
X139119857Y-95171514D02*
X139167476Y-95076276D01*
X139167476Y-95076276D02*
X139262714Y-94981038D01*
X139262714Y-94981038D02*
X139405571Y-94933419D01*
X139405571Y-94933419D02*
X139500809Y-94933419D01*
X139500809Y-94933419D02*
X139643666Y-94981038D01*
X139643666Y-94981038D02*
X139691285Y-95028657D01*
X140119857Y-95933419D02*
X140119857Y-94933419D01*
X140119857Y-95409609D02*
X140691285Y-95409609D01*
X140691285Y-95933419D02*
X140691285Y-94933419D01*
X121321533Y-107008819D02*
X120988200Y-106532628D01*
X120750105Y-107008819D02*
X120750105Y-106008819D01*
X120750105Y-106008819D02*
X121131057Y-106008819D01*
X121131057Y-106008819D02*
X121226295Y-106056438D01*
X121226295Y-106056438D02*
X121273914Y-106104057D01*
X121273914Y-106104057D02*
X121321533Y-106199295D01*
X121321533Y-106199295D02*
X121321533Y-106342152D01*
X121321533Y-106342152D02*
X121273914Y-106437390D01*
X121273914Y-106437390D02*
X121226295Y-106485009D01*
X121226295Y-106485009D02*
X121131057Y-106532628D01*
X121131057Y-106532628D02*
X120750105Y-106532628D01*
X121654867Y-106008819D02*
X122273914Y-106008819D01*
X122273914Y-106008819D02*
X121940581Y-106389771D01*
X121940581Y-106389771D02*
X122083438Y-106389771D01*
X122083438Y-106389771D02*
X122178676Y-106437390D01*
X122178676Y-106437390D02*
X122226295Y-106485009D01*
X122226295Y-106485009D02*
X122273914Y-106580247D01*
X122273914Y-106580247D02*
X122273914Y-106818342D01*
X122273914Y-106818342D02*
X122226295Y-106913580D01*
X122226295Y-106913580D02*
X122178676Y-106961200D01*
X122178676Y-106961200D02*
X122083438Y-107008819D01*
X122083438Y-107008819D02*
X121797724Y-107008819D01*
X121797724Y-107008819D02*
X121702486Y-106961200D01*
X121702486Y-106961200D02*
X121654867Y-106913580D01*
X148035533Y-85702580D02*
X147987914Y-85750200D01*
X147987914Y-85750200D02*
X147845057Y-85797819D01*
X147845057Y-85797819D02*
X147749819Y-85797819D01*
X147749819Y-85797819D02*
X147606962Y-85750200D01*
X147606962Y-85750200D02*
X147511724Y-85654961D01*
X147511724Y-85654961D02*
X147464105Y-85559723D01*
X147464105Y-85559723D02*
X147416486Y-85369247D01*
X147416486Y-85369247D02*
X147416486Y-85226390D01*
X147416486Y-85226390D02*
X147464105Y-85035914D01*
X147464105Y-85035914D02*
X147511724Y-84940676D01*
X147511724Y-84940676D02*
X147606962Y-84845438D01*
X147606962Y-84845438D02*
X147749819Y-84797819D01*
X147749819Y-84797819D02*
X147845057Y-84797819D01*
X147845057Y-84797819D02*
X147987914Y-84845438D01*
X147987914Y-84845438D02*
X148035533Y-84893057D01*
X148940295Y-84797819D02*
X148464105Y-84797819D01*
X148464105Y-84797819D02*
X148416486Y-85274009D01*
X148416486Y-85274009D02*
X148464105Y-85226390D01*
X148464105Y-85226390D02*
X148559343Y-85178771D01*
X148559343Y-85178771D02*
X148797438Y-85178771D01*
X148797438Y-85178771D02*
X148892676Y-85226390D01*
X148892676Y-85226390D02*
X148940295Y-85274009D01*
X148940295Y-85274009D02*
X148987914Y-85369247D01*
X148987914Y-85369247D02*
X148987914Y-85607342D01*
X148987914Y-85607342D02*
X148940295Y-85702580D01*
X148940295Y-85702580D02*
X148892676Y-85750200D01*
X148892676Y-85750200D02*
X148797438Y-85797819D01*
X148797438Y-85797819D02*
X148559343Y-85797819D01*
X148559343Y-85797819D02*
X148464105Y-85750200D01*
X148464105Y-85750200D02*
X148416486Y-85702580D01*
X114821033Y-106880819D02*
X114487700Y-106404628D01*
X114249605Y-106880819D02*
X114249605Y-105880819D01*
X114249605Y-105880819D02*
X114630557Y-105880819D01*
X114630557Y-105880819D02*
X114725795Y-105928438D01*
X114725795Y-105928438D02*
X114773414Y-105976057D01*
X114773414Y-105976057D02*
X114821033Y-106071295D01*
X114821033Y-106071295D02*
X114821033Y-106214152D01*
X114821033Y-106214152D02*
X114773414Y-106309390D01*
X114773414Y-106309390D02*
X114725795Y-106357009D01*
X114725795Y-106357009D02*
X114630557Y-106404628D01*
X114630557Y-106404628D02*
X114249605Y-106404628D01*
X115201986Y-105976057D02*
X115249605Y-105928438D01*
X115249605Y-105928438D02*
X115344843Y-105880819D01*
X115344843Y-105880819D02*
X115582938Y-105880819D01*
X115582938Y-105880819D02*
X115678176Y-105928438D01*
X115678176Y-105928438D02*
X115725795Y-105976057D01*
X115725795Y-105976057D02*
X115773414Y-106071295D01*
X115773414Y-106071295D02*
X115773414Y-106166533D01*
X115773414Y-106166533D02*
X115725795Y-106309390D01*
X115725795Y-106309390D02*
X115154367Y-106880819D01*
X115154367Y-106880819D02*
X115773414Y-106880819D01*
X148060933Y-88547380D02*
X148013314Y-88595000D01*
X148013314Y-88595000D02*
X147870457Y-88642619D01*
X147870457Y-88642619D02*
X147775219Y-88642619D01*
X147775219Y-88642619D02*
X147632362Y-88595000D01*
X147632362Y-88595000D02*
X147537124Y-88499761D01*
X147537124Y-88499761D02*
X147489505Y-88404523D01*
X147489505Y-88404523D02*
X147441886Y-88214047D01*
X147441886Y-88214047D02*
X147441886Y-88071190D01*
X147441886Y-88071190D02*
X147489505Y-87880714D01*
X147489505Y-87880714D02*
X147537124Y-87785476D01*
X147537124Y-87785476D02*
X147632362Y-87690238D01*
X147632362Y-87690238D02*
X147775219Y-87642619D01*
X147775219Y-87642619D02*
X147870457Y-87642619D01*
X147870457Y-87642619D02*
X148013314Y-87690238D01*
X148013314Y-87690238D02*
X148060933Y-87737857D01*
X148394267Y-87642619D02*
X149060933Y-87642619D01*
X149060933Y-87642619D02*
X148632362Y-88642619D01*
X123219733Y-80520980D02*
X123172114Y-80568600D01*
X123172114Y-80568600D02*
X123029257Y-80616219D01*
X123029257Y-80616219D02*
X122934019Y-80616219D01*
X122934019Y-80616219D02*
X122791162Y-80568600D01*
X122791162Y-80568600D02*
X122695924Y-80473361D01*
X122695924Y-80473361D02*
X122648305Y-80378123D01*
X122648305Y-80378123D02*
X122600686Y-80187647D01*
X122600686Y-80187647D02*
X122600686Y-80044790D01*
X122600686Y-80044790D02*
X122648305Y-79854314D01*
X122648305Y-79854314D02*
X122695924Y-79759076D01*
X122695924Y-79759076D02*
X122791162Y-79663838D01*
X122791162Y-79663838D02*
X122934019Y-79616219D01*
X122934019Y-79616219D02*
X123029257Y-79616219D01*
X123029257Y-79616219D02*
X123172114Y-79663838D01*
X123172114Y-79663838D02*
X123219733Y-79711457D01*
X123600686Y-79711457D02*
X123648305Y-79663838D01*
X123648305Y-79663838D02*
X123743543Y-79616219D01*
X123743543Y-79616219D02*
X123981638Y-79616219D01*
X123981638Y-79616219D02*
X124076876Y-79663838D01*
X124076876Y-79663838D02*
X124124495Y-79711457D01*
X124124495Y-79711457D02*
X124172114Y-79806695D01*
X124172114Y-79806695D02*
X124172114Y-79901933D01*
X124172114Y-79901933D02*
X124124495Y-80044790D01*
X124124495Y-80044790D02*
X123553067Y-80616219D01*
X123553067Y-80616219D02*
X124172114Y-80616219D01*
X133308433Y-89047319D02*
X132975100Y-88571128D01*
X132737005Y-89047319D02*
X132737005Y-88047319D01*
X132737005Y-88047319D02*
X133117957Y-88047319D01*
X133117957Y-88047319D02*
X133213195Y-88094938D01*
X133213195Y-88094938D02*
X133260814Y-88142557D01*
X133260814Y-88142557D02*
X133308433Y-88237795D01*
X133308433Y-88237795D02*
X133308433Y-88380652D01*
X133308433Y-88380652D02*
X133260814Y-88475890D01*
X133260814Y-88475890D02*
X133213195Y-88523509D01*
X133213195Y-88523509D02*
X133117957Y-88571128D01*
X133117957Y-88571128D02*
X132737005Y-88571128D01*
X134165576Y-88047319D02*
X133975100Y-88047319D01*
X133975100Y-88047319D02*
X133879862Y-88094938D01*
X133879862Y-88094938D02*
X133832243Y-88142557D01*
X133832243Y-88142557D02*
X133737005Y-88285414D01*
X133737005Y-88285414D02*
X133689386Y-88475890D01*
X133689386Y-88475890D02*
X133689386Y-88856842D01*
X133689386Y-88856842D02*
X133737005Y-88952080D01*
X133737005Y-88952080D02*
X133784624Y-88999700D01*
X133784624Y-88999700D02*
X133879862Y-89047319D01*
X133879862Y-89047319D02*
X134070338Y-89047319D01*
X134070338Y-89047319D02*
X134165576Y-88999700D01*
X134165576Y-88999700D02*
X134213195Y-88952080D01*
X134213195Y-88952080D02*
X134260814Y-88856842D01*
X134260814Y-88856842D02*
X134260814Y-88618747D01*
X134260814Y-88618747D02*
X134213195Y-88523509D01*
X134213195Y-88523509D02*
X134165576Y-88475890D01*
X134165576Y-88475890D02*
X134070338Y-88428271D01*
X134070338Y-88428271D02*
X133879862Y-88428271D01*
X133879862Y-88428271D02*
X133784624Y-88475890D01*
X133784624Y-88475890D02*
X133737005Y-88523509D01*
X133737005Y-88523509D02*
X133689386Y-88618747D01*
X129417333Y-88855780D02*
X129369714Y-88903400D01*
X129369714Y-88903400D02*
X129226857Y-88951019D01*
X129226857Y-88951019D02*
X129131619Y-88951019D01*
X129131619Y-88951019D02*
X128988762Y-88903400D01*
X128988762Y-88903400D02*
X128893524Y-88808161D01*
X128893524Y-88808161D02*
X128845905Y-88712923D01*
X128845905Y-88712923D02*
X128798286Y-88522447D01*
X128798286Y-88522447D02*
X128798286Y-88379590D01*
X128798286Y-88379590D02*
X128845905Y-88189114D01*
X128845905Y-88189114D02*
X128893524Y-88093876D01*
X128893524Y-88093876D02*
X128988762Y-87998638D01*
X128988762Y-87998638D02*
X129131619Y-87951019D01*
X129131619Y-87951019D02*
X129226857Y-87951019D01*
X129226857Y-87951019D02*
X129369714Y-87998638D01*
X129369714Y-87998638D02*
X129417333Y-88046257D01*
X129893524Y-88951019D02*
X130084000Y-88951019D01*
X130084000Y-88951019D02*
X130179238Y-88903400D01*
X130179238Y-88903400D02*
X130226857Y-88855780D01*
X130226857Y-88855780D02*
X130322095Y-88712923D01*
X130322095Y-88712923D02*
X130369714Y-88522447D01*
X130369714Y-88522447D02*
X130369714Y-88141495D01*
X130369714Y-88141495D02*
X130322095Y-88046257D01*
X130322095Y-88046257D02*
X130274476Y-87998638D01*
X130274476Y-87998638D02*
X130179238Y-87951019D01*
X130179238Y-87951019D02*
X129988762Y-87951019D01*
X129988762Y-87951019D02*
X129893524Y-87998638D01*
X129893524Y-87998638D02*
X129845905Y-88046257D01*
X129845905Y-88046257D02*
X129798286Y-88141495D01*
X129798286Y-88141495D02*
X129798286Y-88379590D01*
X129798286Y-88379590D02*
X129845905Y-88474828D01*
X129845905Y-88474828D02*
X129893524Y-88522447D01*
X129893524Y-88522447D02*
X129988762Y-88570066D01*
X129988762Y-88570066D02*
X130179238Y-88570066D01*
X130179238Y-88570066D02*
X130274476Y-88522447D01*
X130274476Y-88522447D02*
X130322095Y-88474828D01*
X130322095Y-88474828D02*
X130369714Y-88379590D01*
X123741324Y-110452819D02*
X124407990Y-110452819D01*
X124407990Y-110452819D02*
X123979419Y-111452819D01*
X124788943Y-111357580D02*
X124836562Y-111405200D01*
X124836562Y-111405200D02*
X124788943Y-111452819D01*
X124788943Y-111452819D02*
X124741324Y-111405200D01*
X124741324Y-111405200D02*
X124788943Y-111357580D01*
X124788943Y-111357580D02*
X124788943Y-111452819D01*
X125693704Y-110786152D02*
X125693704Y-111452819D01*
X125455609Y-110405200D02*
X125217514Y-111119485D01*
X125217514Y-111119485D02*
X125836561Y-111119485D01*
X126074657Y-110452819D02*
X126407990Y-111452819D01*
X126407990Y-111452819D02*
X126741323Y-110452819D01*
X127027038Y-110548057D02*
X127074657Y-110500438D01*
X127074657Y-110500438D02*
X127169895Y-110452819D01*
X127169895Y-110452819D02*
X127407990Y-110452819D01*
X127407990Y-110452819D02*
X127503228Y-110500438D01*
X127503228Y-110500438D02*
X127550847Y-110548057D01*
X127550847Y-110548057D02*
X127598466Y-110643295D01*
X127598466Y-110643295D02*
X127598466Y-110738533D01*
X127598466Y-110738533D02*
X127550847Y-110881390D01*
X127550847Y-110881390D02*
X126979419Y-111452819D01*
X126979419Y-111452819D02*
X127598466Y-111452819D01*
X127788943Y-111548057D02*
X128550847Y-111548057D01*
X129265133Y-111452819D02*
X128788943Y-111452819D01*
X128788943Y-111452819D02*
X128788943Y-110452819D01*
X129598467Y-110929009D02*
X129931800Y-110929009D01*
X130074657Y-111452819D02*
X129598467Y-111452819D01*
X129598467Y-111452819D02*
X129598467Y-110452819D01*
X129598467Y-110452819D02*
X130074657Y-110452819D01*
X130503229Y-111452819D02*
X130503229Y-110452819D01*
X130503229Y-110452819D02*
X130741324Y-110452819D01*
X130741324Y-110452819D02*
X130884181Y-110500438D01*
X130884181Y-110500438D02*
X130979419Y-110595676D01*
X130979419Y-110595676D02*
X131027038Y-110690914D01*
X131027038Y-110690914D02*
X131074657Y-110881390D01*
X131074657Y-110881390D02*
X131074657Y-111024247D01*
X131074657Y-111024247D02*
X131027038Y-111214723D01*
X131027038Y-111214723D02*
X130979419Y-111309961D01*
X130979419Y-111309961D02*
X130884181Y-111405200D01*
X130884181Y-111405200D02*
X130741324Y-111452819D01*
X130741324Y-111452819D02*
X130503229Y-111452819D01*
X127006866Y-125522419D02*
X127006866Y-126236704D01*
X127006866Y-126236704D02*
X126959247Y-126379561D01*
X126959247Y-126379561D02*
X126864009Y-126474800D01*
X126864009Y-126474800D02*
X126721152Y-126522419D01*
X126721152Y-126522419D02*
X126625914Y-126522419D01*
X128006866Y-126522419D02*
X127435438Y-126522419D01*
X127721152Y-126522419D02*
X127721152Y-125522419D01*
X127721152Y-125522419D02*
X127625914Y-125665276D01*
X127625914Y-125665276D02*
X127530676Y-125760514D01*
X127530676Y-125760514D02*
X127435438Y-125808133D01*
X135596714Y-92495019D02*
X136215761Y-92495019D01*
X136215761Y-92495019D02*
X135882428Y-92875971D01*
X135882428Y-92875971D02*
X136025285Y-92875971D01*
X136025285Y-92875971D02*
X136120523Y-92923590D01*
X136120523Y-92923590D02*
X136168142Y-92971209D01*
X136168142Y-92971209D02*
X136215761Y-93066447D01*
X136215761Y-93066447D02*
X136215761Y-93304542D01*
X136215761Y-93304542D02*
X136168142Y-93399780D01*
X136168142Y-93399780D02*
X136120523Y-93447400D01*
X136120523Y-93447400D02*
X136025285Y-93495019D01*
X136025285Y-93495019D02*
X135739571Y-93495019D01*
X135739571Y-93495019D02*
X135644333Y-93447400D01*
X135644333Y-93447400D02*
X135596714Y-93399780D01*
X136644333Y-93399780D02*
X136691952Y-93447400D01*
X136691952Y-93447400D02*
X136644333Y-93495019D01*
X136644333Y-93495019D02*
X136596714Y-93447400D01*
X136596714Y-93447400D02*
X136644333Y-93399780D01*
X136644333Y-93399780D02*
X136644333Y-93495019D01*
X137025285Y-92495019D02*
X137644332Y-92495019D01*
X137644332Y-92495019D02*
X137310999Y-92875971D01*
X137310999Y-92875971D02*
X137453856Y-92875971D01*
X137453856Y-92875971D02*
X137549094Y-92923590D01*
X137549094Y-92923590D02*
X137596713Y-92971209D01*
X137596713Y-92971209D02*
X137644332Y-93066447D01*
X137644332Y-93066447D02*
X137644332Y-93304542D01*
X137644332Y-93304542D02*
X137596713Y-93399780D01*
X137596713Y-93399780D02*
X137549094Y-93447400D01*
X137549094Y-93447400D02*
X137453856Y-93495019D01*
X137453856Y-93495019D02*
X137168142Y-93495019D01*
X137168142Y-93495019D02*
X137072904Y-93447400D01*
X137072904Y-93447400D02*
X137025285Y-93399780D01*
X137930047Y-92495019D02*
X138263380Y-93495019D01*
X138263380Y-93495019D02*
X138596713Y-92495019D01*
X138691952Y-93590257D02*
X139453856Y-93590257D01*
X140168142Y-93495019D02*
X139691952Y-93495019D01*
X139691952Y-93495019D02*
X139691952Y-92495019D01*
X140501476Y-92971209D02*
X140834809Y-92971209D01*
X140977666Y-93495019D02*
X140501476Y-93495019D01*
X140501476Y-93495019D02*
X140501476Y-92495019D01*
X140501476Y-92495019D02*
X140977666Y-92495019D01*
X141406238Y-93495019D02*
X141406238Y-92495019D01*
X141406238Y-92495019D02*
X141644333Y-92495019D01*
X141644333Y-92495019D02*
X141787190Y-92542638D01*
X141787190Y-92542638D02*
X141882428Y-92637876D01*
X141882428Y-92637876D02*
X141930047Y-92733114D01*
X141930047Y-92733114D02*
X141977666Y-92923590D01*
X141977666Y-92923590D02*
X141977666Y-93066447D01*
X141977666Y-93066447D02*
X141930047Y-93256923D01*
X141930047Y-93256923D02*
X141882428Y-93352161D01*
X141882428Y-93352161D02*
X141787190Y-93447400D01*
X141787190Y-93447400D02*
X141644333Y-93495019D01*
X141644333Y-93495019D02*
X141406238Y-93495019D01*
X136601295Y-88126219D02*
X136601295Y-88935742D01*
X136601295Y-88935742D02*
X136648914Y-89030980D01*
X136648914Y-89030980D02*
X136696533Y-89078600D01*
X136696533Y-89078600D02*
X136791771Y-89126219D01*
X136791771Y-89126219D02*
X136982247Y-89126219D01*
X136982247Y-89126219D02*
X137077485Y-89078600D01*
X137077485Y-89078600D02*
X137125104Y-89030980D01*
X137125104Y-89030980D02*
X137172723Y-88935742D01*
X137172723Y-88935742D02*
X137172723Y-88126219D01*
X137553676Y-88126219D02*
X138172723Y-88126219D01*
X138172723Y-88126219D02*
X137839390Y-88507171D01*
X137839390Y-88507171D02*
X137982247Y-88507171D01*
X137982247Y-88507171D02*
X138077485Y-88554790D01*
X138077485Y-88554790D02*
X138125104Y-88602409D01*
X138125104Y-88602409D02*
X138172723Y-88697647D01*
X138172723Y-88697647D02*
X138172723Y-88935742D01*
X138172723Y-88935742D02*
X138125104Y-89030980D01*
X138125104Y-89030980D02*
X138077485Y-89078600D01*
X138077485Y-89078600D02*
X137982247Y-89126219D01*
X137982247Y-89126219D02*
X137696533Y-89126219D01*
X137696533Y-89126219D02*
X137601295Y-89078600D01*
X137601295Y-89078600D02*
X137553676Y-89030980D01*
X132305600Y-79945304D02*
X132781790Y-79945304D01*
X132210362Y-80231019D02*
X132543695Y-79231019D01*
X132543695Y-79231019D02*
X132877028Y-80231019D01*
X133210362Y-80231019D02*
X133210362Y-79231019D01*
X133210362Y-79231019D02*
X133543695Y-79945304D01*
X133543695Y-79945304D02*
X133877028Y-79231019D01*
X133877028Y-79231019D02*
X133877028Y-80231019D01*
X134305600Y-80183400D02*
X134448457Y-80231019D01*
X134448457Y-80231019D02*
X134686552Y-80231019D01*
X134686552Y-80231019D02*
X134781790Y-80183400D01*
X134781790Y-80183400D02*
X134829409Y-80135780D01*
X134829409Y-80135780D02*
X134877028Y-80040542D01*
X134877028Y-80040542D02*
X134877028Y-79945304D01*
X134877028Y-79945304D02*
X134829409Y-79850066D01*
X134829409Y-79850066D02*
X134781790Y-79802447D01*
X134781790Y-79802447D02*
X134686552Y-79754828D01*
X134686552Y-79754828D02*
X134496076Y-79707209D01*
X134496076Y-79707209D02*
X134400838Y-79659590D01*
X134400838Y-79659590D02*
X134353219Y-79611971D01*
X134353219Y-79611971D02*
X134305600Y-79516733D01*
X134305600Y-79516733D02*
X134305600Y-79421495D01*
X134305600Y-79421495D02*
X134353219Y-79326257D01*
X134353219Y-79326257D02*
X134400838Y-79278638D01*
X134400838Y-79278638D02*
X134496076Y-79231019D01*
X134496076Y-79231019D02*
X134734171Y-79231019D01*
X134734171Y-79231019D02*
X134877028Y-79278638D01*
X135829409Y-80231019D02*
X135257981Y-80231019D01*
X135543695Y-80231019D02*
X135543695Y-79231019D01*
X135543695Y-79231019D02*
X135448457Y-79373876D01*
X135448457Y-79373876D02*
X135353219Y-79469114D01*
X135353219Y-79469114D02*
X135257981Y-79516733D01*
X136781790Y-80231019D02*
X136210362Y-80231019D01*
X136496076Y-80231019D02*
X136496076Y-79231019D01*
X136496076Y-79231019D02*
X136400838Y-79373876D01*
X136400838Y-79373876D02*
X136305600Y-79469114D01*
X136305600Y-79469114D02*
X136210362Y-79516733D01*
X137734171Y-80231019D02*
X137162743Y-80231019D01*
X137448457Y-80231019D02*
X137448457Y-79231019D01*
X137448457Y-79231019D02*
X137353219Y-79373876D01*
X137353219Y-79373876D02*
X137257981Y-79469114D01*
X137257981Y-79469114D02*
X137162743Y-79516733D01*
X138067505Y-79231019D02*
X138734171Y-79231019D01*
X138734171Y-79231019D02*
X138305600Y-80231019D01*
X139115124Y-79850066D02*
X139877029Y-79850066D01*
X140257981Y-79231019D02*
X140877028Y-79231019D01*
X140877028Y-79231019D02*
X140543695Y-79611971D01*
X140543695Y-79611971D02*
X140686552Y-79611971D01*
X140686552Y-79611971D02*
X140781790Y-79659590D01*
X140781790Y-79659590D02*
X140829409Y-79707209D01*
X140829409Y-79707209D02*
X140877028Y-79802447D01*
X140877028Y-79802447D02*
X140877028Y-80040542D01*
X140877028Y-80040542D02*
X140829409Y-80135780D01*
X140829409Y-80135780D02*
X140781790Y-80183400D01*
X140781790Y-80183400D02*
X140686552Y-80231019D01*
X140686552Y-80231019D02*
X140400838Y-80231019D01*
X140400838Y-80231019D02*
X140305600Y-80183400D01*
X140305600Y-80183400D02*
X140257981Y-80135780D01*
X141305600Y-80135780D02*
X141353219Y-80183400D01*
X141353219Y-80183400D02*
X141305600Y-80231019D01*
X141305600Y-80231019D02*
X141257981Y-80183400D01*
X141257981Y-80183400D02*
X141305600Y-80135780D01*
X141305600Y-80135780D02*
X141305600Y-80231019D01*
X141686552Y-79231019D02*
X142305599Y-79231019D01*
X142305599Y-79231019D02*
X141972266Y-79611971D01*
X141972266Y-79611971D02*
X142115123Y-79611971D01*
X142115123Y-79611971D02*
X142210361Y-79659590D01*
X142210361Y-79659590D02*
X142257980Y-79707209D01*
X142257980Y-79707209D02*
X142305599Y-79802447D01*
X142305599Y-79802447D02*
X142305599Y-80040542D01*
X142305599Y-80040542D02*
X142257980Y-80135780D01*
X142257980Y-80135780D02*
X142210361Y-80183400D01*
X142210361Y-80183400D02*
X142115123Y-80231019D01*
X142115123Y-80231019D02*
X141829409Y-80231019D01*
X141829409Y-80231019D02*
X141734171Y-80183400D01*
X141734171Y-80183400D02*
X141686552Y-80135780D01*
X148042333Y-82934980D02*
X147994714Y-82982600D01*
X147994714Y-82982600D02*
X147851857Y-83030219D01*
X147851857Y-83030219D02*
X147756619Y-83030219D01*
X147756619Y-83030219D02*
X147613762Y-82982600D01*
X147613762Y-82982600D02*
X147518524Y-82887361D01*
X147518524Y-82887361D02*
X147470905Y-82792123D01*
X147470905Y-82792123D02*
X147423286Y-82601647D01*
X147423286Y-82601647D02*
X147423286Y-82458790D01*
X147423286Y-82458790D02*
X147470905Y-82268314D01*
X147470905Y-82268314D02*
X147518524Y-82173076D01*
X147518524Y-82173076D02*
X147613762Y-82077838D01*
X147613762Y-82077838D02*
X147756619Y-82030219D01*
X147756619Y-82030219D02*
X147851857Y-82030219D01*
X147851857Y-82030219D02*
X147994714Y-82077838D01*
X147994714Y-82077838D02*
X148042333Y-82125457D01*
X148899476Y-82030219D02*
X148709000Y-82030219D01*
X148709000Y-82030219D02*
X148613762Y-82077838D01*
X148613762Y-82077838D02*
X148566143Y-82125457D01*
X148566143Y-82125457D02*
X148470905Y-82268314D01*
X148470905Y-82268314D02*
X148423286Y-82458790D01*
X148423286Y-82458790D02*
X148423286Y-82839742D01*
X148423286Y-82839742D02*
X148470905Y-82934980D01*
X148470905Y-82934980D02*
X148518524Y-82982600D01*
X148518524Y-82982600D02*
X148613762Y-83030219D01*
X148613762Y-83030219D02*
X148804238Y-83030219D01*
X148804238Y-83030219D02*
X148899476Y-82982600D01*
X148899476Y-82982600D02*
X148947095Y-82934980D01*
X148947095Y-82934980D02*
X148994714Y-82839742D01*
X148994714Y-82839742D02*
X148994714Y-82601647D01*
X148994714Y-82601647D02*
X148947095Y-82506409D01*
X148947095Y-82506409D02*
X148899476Y-82458790D01*
X148899476Y-82458790D02*
X148804238Y-82411171D01*
X148804238Y-82411171D02*
X148613762Y-82411171D01*
X148613762Y-82411171D02*
X148518524Y-82458790D01*
X148518524Y-82458790D02*
X148470905Y-82506409D01*
X148470905Y-82506409D02*
X148423286Y-82601647D01*
X112337495Y-88582419D02*
X112337495Y-89391942D01*
X112337495Y-89391942D02*
X112385114Y-89487180D01*
X112385114Y-89487180D02*
X112432733Y-89534800D01*
X112432733Y-89534800D02*
X112527971Y-89582419D01*
X112527971Y-89582419D02*
X112718447Y-89582419D01*
X112718447Y-89582419D02*
X112813685Y-89534800D01*
X112813685Y-89534800D02*
X112861304Y-89487180D01*
X112861304Y-89487180D02*
X112908923Y-89391942D01*
X112908923Y-89391942D02*
X112908923Y-88582419D01*
X113337495Y-88677657D02*
X113385114Y-88630038D01*
X113385114Y-88630038D02*
X113480352Y-88582419D01*
X113480352Y-88582419D02*
X113718447Y-88582419D01*
X113718447Y-88582419D02*
X113813685Y-88630038D01*
X113813685Y-88630038D02*
X113861304Y-88677657D01*
X113861304Y-88677657D02*
X113908923Y-88772895D01*
X113908923Y-88772895D02*
X113908923Y-88868133D01*
X113908923Y-88868133D02*
X113861304Y-89010990D01*
X113861304Y-89010990D02*
X113289876Y-89582419D01*
X113289876Y-89582419D02*
X113908923Y-89582419D01*
X108878847Y-80489219D02*
X108402657Y-80489219D01*
X108402657Y-80489219D02*
X108402657Y-79489219D01*
X109212181Y-80489219D02*
X109212181Y-79489219D01*
X109212181Y-79489219D02*
X109545514Y-80203504D01*
X109545514Y-80203504D02*
X109878847Y-79489219D01*
X109878847Y-79489219D02*
X109878847Y-80489219D01*
X110259800Y-79489219D02*
X110926466Y-79489219D01*
X110926466Y-79489219D02*
X110497895Y-80489219D01*
X111450276Y-79917790D02*
X111355038Y-79870171D01*
X111355038Y-79870171D02*
X111307419Y-79822552D01*
X111307419Y-79822552D02*
X111259800Y-79727314D01*
X111259800Y-79727314D02*
X111259800Y-79679695D01*
X111259800Y-79679695D02*
X111307419Y-79584457D01*
X111307419Y-79584457D02*
X111355038Y-79536838D01*
X111355038Y-79536838D02*
X111450276Y-79489219D01*
X111450276Y-79489219D02*
X111640752Y-79489219D01*
X111640752Y-79489219D02*
X111735990Y-79536838D01*
X111735990Y-79536838D02*
X111783609Y-79584457D01*
X111783609Y-79584457D02*
X111831228Y-79679695D01*
X111831228Y-79679695D02*
X111831228Y-79727314D01*
X111831228Y-79727314D02*
X111783609Y-79822552D01*
X111783609Y-79822552D02*
X111735990Y-79870171D01*
X111735990Y-79870171D02*
X111640752Y-79917790D01*
X111640752Y-79917790D02*
X111450276Y-79917790D01*
X111450276Y-79917790D02*
X111355038Y-79965409D01*
X111355038Y-79965409D02*
X111307419Y-80013028D01*
X111307419Y-80013028D02*
X111259800Y-80108266D01*
X111259800Y-80108266D02*
X111259800Y-80298742D01*
X111259800Y-80298742D02*
X111307419Y-80393980D01*
X111307419Y-80393980D02*
X111355038Y-80441600D01*
X111355038Y-80441600D02*
X111450276Y-80489219D01*
X111450276Y-80489219D02*
X111640752Y-80489219D01*
X111640752Y-80489219D02*
X111735990Y-80441600D01*
X111735990Y-80441600D02*
X111783609Y-80393980D01*
X111783609Y-80393980D02*
X111831228Y-80298742D01*
X111831228Y-80298742D02*
X111831228Y-80108266D01*
X111831228Y-80108266D02*
X111783609Y-80013028D01*
X111783609Y-80013028D02*
X111735990Y-79965409D01*
X111735990Y-79965409D02*
X111640752Y-79917790D01*
X112450276Y-79489219D02*
X112545514Y-79489219D01*
X112545514Y-79489219D02*
X112640752Y-79536838D01*
X112640752Y-79536838D02*
X112688371Y-79584457D01*
X112688371Y-79584457D02*
X112735990Y-79679695D01*
X112735990Y-79679695D02*
X112783609Y-79870171D01*
X112783609Y-79870171D02*
X112783609Y-80108266D01*
X112783609Y-80108266D02*
X112735990Y-80298742D01*
X112735990Y-80298742D02*
X112688371Y-80393980D01*
X112688371Y-80393980D02*
X112640752Y-80441600D01*
X112640752Y-80441600D02*
X112545514Y-80489219D01*
X112545514Y-80489219D02*
X112450276Y-80489219D01*
X112450276Y-80489219D02*
X112355038Y-80441600D01*
X112355038Y-80441600D02*
X112307419Y-80393980D01*
X112307419Y-80393980D02*
X112259800Y-80298742D01*
X112259800Y-80298742D02*
X112212181Y-80108266D01*
X112212181Y-80108266D02*
X112212181Y-79870171D01*
X112212181Y-79870171D02*
X112259800Y-79679695D01*
X112259800Y-79679695D02*
X112307419Y-79584457D01*
X112307419Y-79584457D02*
X112355038Y-79536838D01*
X112355038Y-79536838D02*
X112450276Y-79489219D01*
X113688371Y-79489219D02*
X113212181Y-79489219D01*
X113212181Y-79489219D02*
X113164562Y-79965409D01*
X113164562Y-79965409D02*
X113212181Y-79917790D01*
X113212181Y-79917790D02*
X113307419Y-79870171D01*
X113307419Y-79870171D02*
X113545514Y-79870171D01*
X113545514Y-79870171D02*
X113640752Y-79917790D01*
X113640752Y-79917790D02*
X113688371Y-79965409D01*
X113688371Y-79965409D02*
X113735990Y-80060647D01*
X113735990Y-80060647D02*
X113735990Y-80298742D01*
X113735990Y-80298742D02*
X113688371Y-80393980D01*
X113688371Y-80393980D02*
X113640752Y-80441600D01*
X113640752Y-80441600D02*
X113545514Y-80489219D01*
X113545514Y-80489219D02*
X113307419Y-80489219D01*
X113307419Y-80489219D02*
X113212181Y-80441600D01*
X113212181Y-80441600D02*
X113164562Y-80393980D01*
X113926467Y-80584457D02*
X114688371Y-80584457D01*
X114783610Y-79489219D02*
X115355038Y-79489219D01*
X115069324Y-80489219D02*
X115069324Y-79489219D01*
X115878848Y-79489219D02*
X116069324Y-79489219D01*
X116069324Y-79489219D02*
X116164562Y-79536838D01*
X116164562Y-79536838D02*
X116259800Y-79632076D01*
X116259800Y-79632076D02*
X116307419Y-79822552D01*
X116307419Y-79822552D02*
X116307419Y-80155885D01*
X116307419Y-80155885D02*
X116259800Y-80346361D01*
X116259800Y-80346361D02*
X116164562Y-80441600D01*
X116164562Y-80441600D02*
X116069324Y-80489219D01*
X116069324Y-80489219D02*
X115878848Y-80489219D01*
X115878848Y-80489219D02*
X115783610Y-80441600D01*
X115783610Y-80441600D02*
X115688372Y-80346361D01*
X115688372Y-80346361D02*
X115640753Y-80155885D01*
X115640753Y-80155885D02*
X115640753Y-79822552D01*
X115640753Y-79822552D02*
X115688372Y-79632076D01*
X115688372Y-79632076D02*
X115783610Y-79536838D01*
X115783610Y-79536838D02*
X115878848Y-79489219D01*
X116688372Y-79584457D02*
X116735991Y-79536838D01*
X116735991Y-79536838D02*
X116831229Y-79489219D01*
X116831229Y-79489219D02*
X117069324Y-79489219D01*
X117069324Y-79489219D02*
X117164562Y-79536838D01*
X117164562Y-79536838D02*
X117212181Y-79584457D01*
X117212181Y-79584457D02*
X117259800Y-79679695D01*
X117259800Y-79679695D02*
X117259800Y-79774933D01*
X117259800Y-79774933D02*
X117212181Y-79917790D01*
X117212181Y-79917790D02*
X116640753Y-80489219D01*
X116640753Y-80489219D02*
X117259800Y-80489219D01*
X117640753Y-79584457D02*
X117688372Y-79536838D01*
X117688372Y-79536838D02*
X117783610Y-79489219D01*
X117783610Y-79489219D02*
X118021705Y-79489219D01*
X118021705Y-79489219D02*
X118116943Y-79536838D01*
X118116943Y-79536838D02*
X118164562Y-79584457D01*
X118164562Y-79584457D02*
X118212181Y-79679695D01*
X118212181Y-79679695D02*
X118212181Y-79774933D01*
X118212181Y-79774933D02*
X118164562Y-79917790D01*
X118164562Y-79917790D02*
X117593134Y-80489219D01*
X117593134Y-80489219D02*
X118212181Y-80489219D01*
X118831229Y-79489219D02*
X118926467Y-79489219D01*
X118926467Y-79489219D02*
X119021705Y-79536838D01*
X119021705Y-79536838D02*
X119069324Y-79584457D01*
X119069324Y-79584457D02*
X119116943Y-79679695D01*
X119116943Y-79679695D02*
X119164562Y-79870171D01*
X119164562Y-79870171D02*
X119164562Y-80108266D01*
X119164562Y-80108266D02*
X119116943Y-80298742D01*
X119116943Y-80298742D02*
X119069324Y-80393980D01*
X119069324Y-80393980D02*
X119021705Y-80441600D01*
X119021705Y-80441600D02*
X118926467Y-80489219D01*
X118926467Y-80489219D02*
X118831229Y-80489219D01*
X118831229Y-80489219D02*
X118735991Y-80441600D01*
X118735991Y-80441600D02*
X118688372Y-80393980D01*
X118688372Y-80393980D02*
X118640753Y-80298742D01*
X118640753Y-80298742D02*
X118593134Y-80108266D01*
X118593134Y-80108266D02*
X118593134Y-79870171D01*
X118593134Y-79870171D02*
X118640753Y-79679695D01*
X118640753Y-79679695D02*
X118688372Y-79584457D01*
X118688372Y-79584457D02*
X118735991Y-79536838D01*
X118735991Y-79536838D02*
X118831229Y-79489219D01*
X129468133Y-83928180D02*
X129420514Y-83975800D01*
X129420514Y-83975800D02*
X129277657Y-84023419D01*
X129277657Y-84023419D02*
X129182419Y-84023419D01*
X129182419Y-84023419D02*
X129039562Y-83975800D01*
X129039562Y-83975800D02*
X128944324Y-83880561D01*
X128944324Y-83880561D02*
X128896705Y-83785323D01*
X128896705Y-83785323D02*
X128849086Y-83594847D01*
X128849086Y-83594847D02*
X128849086Y-83451990D01*
X128849086Y-83451990D02*
X128896705Y-83261514D01*
X128896705Y-83261514D02*
X128944324Y-83166276D01*
X128944324Y-83166276D02*
X129039562Y-83071038D01*
X129039562Y-83071038D02*
X129182419Y-83023419D01*
X129182419Y-83023419D02*
X129277657Y-83023419D01*
X129277657Y-83023419D02*
X129420514Y-83071038D01*
X129420514Y-83071038D02*
X129468133Y-83118657D01*
X130039562Y-83451990D02*
X129944324Y-83404371D01*
X129944324Y-83404371D02*
X129896705Y-83356752D01*
X129896705Y-83356752D02*
X129849086Y-83261514D01*
X129849086Y-83261514D02*
X129849086Y-83213895D01*
X129849086Y-83213895D02*
X129896705Y-83118657D01*
X129896705Y-83118657D02*
X129944324Y-83071038D01*
X129944324Y-83071038D02*
X130039562Y-83023419D01*
X130039562Y-83023419D02*
X130230038Y-83023419D01*
X130230038Y-83023419D02*
X130325276Y-83071038D01*
X130325276Y-83071038D02*
X130372895Y-83118657D01*
X130372895Y-83118657D02*
X130420514Y-83213895D01*
X130420514Y-83213895D02*
X130420514Y-83261514D01*
X130420514Y-83261514D02*
X130372895Y-83356752D01*
X130372895Y-83356752D02*
X130325276Y-83404371D01*
X130325276Y-83404371D02*
X130230038Y-83451990D01*
X130230038Y-83451990D02*
X130039562Y-83451990D01*
X130039562Y-83451990D02*
X129944324Y-83499609D01*
X129944324Y-83499609D02*
X129896705Y-83547228D01*
X129896705Y-83547228D02*
X129849086Y-83642466D01*
X129849086Y-83642466D02*
X129849086Y-83832942D01*
X129849086Y-83832942D02*
X129896705Y-83928180D01*
X129896705Y-83928180D02*
X129944324Y-83975800D01*
X129944324Y-83975800D02*
X130039562Y-84023419D01*
X130039562Y-84023419D02*
X130230038Y-84023419D01*
X130230038Y-84023419D02*
X130325276Y-83975800D01*
X130325276Y-83975800D02*
X130372895Y-83928180D01*
X130372895Y-83928180D02*
X130420514Y-83832942D01*
X130420514Y-83832942D02*
X130420514Y-83642466D01*
X130420514Y-83642466D02*
X130372895Y-83547228D01*
X130372895Y-83547228D02*
X130325276Y-83499609D01*
X130325276Y-83499609D02*
X130230038Y-83451990D01*
X123168933Y-85495780D02*
X123121314Y-85543400D01*
X123121314Y-85543400D02*
X122978457Y-85591019D01*
X122978457Y-85591019D02*
X122883219Y-85591019D01*
X122883219Y-85591019D02*
X122740362Y-85543400D01*
X122740362Y-85543400D02*
X122645124Y-85448161D01*
X122645124Y-85448161D02*
X122597505Y-85352923D01*
X122597505Y-85352923D02*
X122549886Y-85162447D01*
X122549886Y-85162447D02*
X122549886Y-85019590D01*
X122549886Y-85019590D02*
X122597505Y-84829114D01*
X122597505Y-84829114D02*
X122645124Y-84733876D01*
X122645124Y-84733876D02*
X122740362Y-84638638D01*
X122740362Y-84638638D02*
X122883219Y-84591019D01*
X122883219Y-84591019D02*
X122978457Y-84591019D01*
X122978457Y-84591019D02*
X123121314Y-84638638D01*
X123121314Y-84638638D02*
X123168933Y-84686257D01*
X124121314Y-85591019D02*
X123549886Y-85591019D01*
X123835600Y-85591019D02*
X123835600Y-84591019D01*
X123835600Y-84591019D02*
X123740362Y-84733876D01*
X123740362Y-84733876D02*
X123645124Y-84829114D01*
X123645124Y-84829114D02*
X123549886Y-84876733D01*
D12*
%TO.C,U1*%
X98435200Y-80727800D02*
X99765200Y-80727800D01*
X98435200Y-82057800D02*
X98435200Y-80727800D01*
X98435200Y-83327800D02*
X98435200Y-118947800D01*
X98435200Y-83327800D02*
X101095200Y-83327800D01*
X98435200Y-118947800D02*
X101095200Y-118947800D01*
X101095200Y-83327800D02*
X101095200Y-118947800D01*
X108860200Y-73002800D02*
X108860200Y-71672800D01*
X110190200Y-73002800D02*
X108860200Y-73002800D01*
X111460200Y-70342800D02*
X147080200Y-70342800D01*
X111460200Y-73002800D02*
X111460200Y-70342800D01*
X111460200Y-73002800D02*
X147080200Y-73002800D01*
X147080200Y-73002800D02*
X147080200Y-70342800D01*
X154835200Y-80757800D02*
X156165200Y-80757800D01*
X154835200Y-82087800D02*
X154835200Y-80757800D01*
X154835200Y-83357800D02*
X154835200Y-118977800D01*
X154835200Y-83357800D02*
X157495200Y-83357800D01*
X154835200Y-118977800D02*
X157495200Y-118977800D01*
X157495200Y-83357800D02*
X157495200Y-118977800D01*
%TO.C,5V_LED*%
X116746600Y-112008800D02*
X116746600Y-110088800D01*
X116746600Y-110088800D02*
X114061600Y-110088800D01*
X114061600Y-112008800D02*
X116746600Y-112008800D01*
%TO.C,R1*%
X139825464Y-109167600D02*
X139371336Y-109167600D01*
X139825464Y-107697600D02*
X139371336Y-107697600D01*
%TO.C,7.4V1_LED*%
X141256100Y-112085000D02*
X141256100Y-110165000D01*
X141256100Y-110165000D02*
X138571100Y-110165000D01*
X138571100Y-112085000D02*
X141256100Y-112085000D01*
%TO.C,PRIMARY SWITCH*%
X141579600Y-96443800D02*
X141579600Y-104063800D01*
X141579600Y-104063800D02*
X151739600Y-104063800D01*
X151739600Y-96443800D02*
X141579600Y-96443800D01*
X151739600Y-102793800D02*
X141579600Y-102793800D01*
X151739600Y-104063800D02*
X151739600Y-96443800D01*
%TO.C,CAM+TELEM SWITCH*%
X128828800Y-96443800D02*
X128828800Y-104063800D01*
X128828800Y-104063800D02*
X138988800Y-104063800D01*
X138988800Y-96443800D02*
X128828800Y-96443800D01*
X138988800Y-102793800D02*
X128828800Y-102793800D01*
X138988800Y-104063800D02*
X138988800Y-96443800D01*
%TO.C,R3*%
X121261136Y-107469000D02*
X121715264Y-107469000D01*
X121261136Y-108939000D02*
X121715264Y-108939000D01*
%TO.C,C5*%
X145390052Y-86078000D02*
X144867548Y-86078000D01*
X145390052Y-84608000D02*
X144867548Y-84608000D01*
%TO.C,R2*%
X115265564Y-108989800D02*
X114811436Y-108989800D01*
X115265564Y-107519800D02*
X114811436Y-107519800D01*
%TO.C,C7*%
X144842148Y-87427400D02*
X145364652Y-87427400D01*
X144842148Y-88897400D02*
X145364652Y-88897400D01*
%TO.C,C2*%
X123125148Y-81153600D02*
X123647652Y-81153600D01*
X123125148Y-82623600D02*
X123647652Y-82623600D01*
%TO.C,R6*%
X133752964Y-91080100D02*
X133298836Y-91080100D01*
X133752964Y-89610100D02*
X133298836Y-89610100D01*
%TO.C,C9*%
X129845252Y-87551200D02*
X129322748Y-87551200D01*
X129845252Y-86081200D02*
X129322748Y-86081200D01*
%TO.C,7.4V2_LED*%
X119854000Y-110088800D02*
X119854000Y-112008800D01*
X119854000Y-112008800D02*
X122539000Y-112008800D01*
X122539000Y-110088800D02*
X119854000Y-110088800D01*
%TO.C,J1*%
X124355200Y-128257600D02*
X126155200Y-128257600D01*
X124355200Y-129707600D02*
X124355200Y-128257600D01*
X125625200Y-132527600D02*
X129055200Y-132527600D01*
X126155200Y-128257600D02*
X126155200Y-127267600D01*
X130325200Y-128257600D02*
X128525200Y-128257600D01*
X130325200Y-129707600D02*
X130325200Y-128257600D01*
%TO.C,3.3V_LED*%
X135187800Y-94022900D02*
X135187800Y-92102900D01*
X135187800Y-92102900D02*
X132502800Y-92102900D01*
X132502800Y-94022900D02*
X135187800Y-94022900D01*
%TO.C,U3*%
X141405600Y-87686200D02*
X135395600Y-87686200D01*
X139155600Y-80866200D02*
X135395600Y-80866200D01*
X135395600Y-87686200D02*
X135395600Y-86426200D01*
X135395600Y-80866200D02*
X135395600Y-82126200D01*
%TO.C,C6*%
X145390052Y-83233200D02*
X144867548Y-83233200D01*
X145390052Y-81763200D02*
X144867548Y-81763200D01*
%TO.C,U2*%
X117220400Y-87980200D02*
X117220400Y-87710200D01*
X117220400Y-87710200D02*
X120050400Y-87710200D01*
X117220400Y-81350200D02*
X118320400Y-81350200D01*
X117220400Y-81080200D02*
X117220400Y-81350200D01*
X110800400Y-87980200D02*
X117220400Y-87980200D01*
X110800400Y-81080200D02*
X117220400Y-81080200D01*
%TO.C,C8*%
X129896052Y-82623600D02*
X129373548Y-82623600D01*
X129896052Y-81153600D02*
X129373548Y-81153600D01*
%TO.C,C1*%
X123074348Y-86081200D02*
X123596852Y-86081200D01*
X123074348Y-87551200D02*
X123596852Y-87551200D01*
%TD*%
M02*
