M48
; DRILL file {KiCad 7.0.7} date Sat Feb 10 01:31:50 2024
; FORMAT={-:-/ absolute / metric / decimal}
; #@! TF.CreationDate,2024-02-10T01:31:50+05:30
; #@! TF.GenerationSoftware,Kicad,Pcbnew,7.0.7
; #@! TF.FileFunction,Plated,1,2,PTH
FMAT,2
METRIC
; #@! TA.AperFunction,Plated,PTH,ViaDrill
T1C0.400
; #@! TA.AperFunction,Plated,PTH,ComponentDrill
T2C0.600
; #@! TA.AperFunction,Plated,PTH,ComponentDrill
T3C1.000
; #@! TA.AperFunction,Plated,PTH,ComponentDrill
T4C1.520
; #@! TA.AperFunction,Plated,PTH,ComponentDrill
T5C2.700
; #@! TA.AperFunction,Plated,PTH,ComponentDrill
T6C8.400
%
G90
G05
T1
X110.839Y-86.003
X111.017Y-83.082
X114.217Y-86.003
X114.42Y-83.057
X116.053Y-110.973
X120.599Y-111.049
X124.352Y-81.889
X124.352Y-86.765
X127.965Y-128.067
X128.644Y-86.892
X128.67Y-81.939
X134.491Y-93.037
X140.564Y-111.074
X146.043Y-88.213
T3
X99.765Y-82.058
X99.765Y-84.598
X99.765Y-87.138
X99.765Y-89.678
X99.765Y-92.218
X99.765Y-94.758
X99.765Y-97.298
X99.765Y-99.838
X99.765Y-102.378
X99.765Y-104.918
X99.765Y-107.458
X99.765Y-109.998
X99.765Y-112.538
X99.765Y-115.078
X99.765Y-117.618
X110.19Y-71.673
X112.73Y-71.673
X115.27Y-71.673
X117.81Y-71.673
X120.35Y-71.673
X122.89Y-71.673
X125.43Y-71.673
X127.97Y-71.673
X130.51Y-71.673
X133.05Y-71.673
X135.59Y-71.673
X138.13Y-71.673
X140.67Y-71.673
X143.21Y-71.673
X145.75Y-71.673
X156.165Y-82.088
X156.165Y-84.628
X156.165Y-87.168
X156.165Y-89.708
X156.165Y-92.248
X156.165Y-94.788
X156.165Y-97.328
X156.165Y-99.868
X156.165Y-102.408
X156.165Y-104.948
X156.165Y-107.488
X156.165Y-110.028
X156.165Y-112.568
X156.165Y-115.108
X156.165Y-117.648
T4
X131.369Y-100.254
X136.449Y-100.254
X144.12Y-100.254
X149.2Y-100.254
T5
X114.11Y-117.317
X121.31Y-117.317
X133.35Y-117.317
X140.55Y-117.317
T6
X100.165Y-71.973
X100.165Y-127.673
X155.765Y-71.988
X155.765Y-127.673
T2
G00X110.96Y-122.767
M15
G01X110.96Y-123.867
M16
G05
G00X124.46Y-122.767
M15
G01X124.46Y-123.867
M16
G05
G00X130.2Y-122.767
M15
G01X130.2Y-123.867
M16
G05
G00X143.7Y-122.767
M15
G01X143.7Y-123.867
M16
G05
T0
M30
