%TF.GenerationSoftware,KiCad,Pcbnew,7.0.7*%
%TF.CreationDate,2024-02-10T01:31:47+05:30*%
%TF.ProjectId,PDB_Board,5044425f-426f-4617-9264-2e6b69636164,rev?*%
%TF.SameCoordinates,Original*%
%TF.FileFunction,Copper,L2,Bot*%
%TF.FilePolarity,Positive*%
%FSLAX46Y46*%
G04 Gerber Fmt 4.6, Leading zero omitted, Abs format (unit mm)*
G04 Created by KiCad (PCBNEW 7.0.7) date 2024-02-10 01:31:47*
%MOMM*%
%LPD*%
G01*
G04 APERTURE LIST*
G04 Aperture macros list*
%AMRoundRect*
0 Rectangle with rounded corners*
0 $1 Rounding radius*
0 $2 $3 $4 $5 $6 $7 $8 $9 X,Y pos of 4 corners*
0 Add a 4 corners polygon primitive as box body*
4,1,4,$2,$3,$4,$5,$6,$7,$8,$9,$2,$3,0*
0 Add four circle primitives for the rounded corners*
1,1,$1+$1,$2,$3*
1,1,$1+$1,$4,$5*
1,1,$1+$1,$6,$7*
1,1,$1+$1,$8,$9*
0 Add four rect primitives between the rounded corners*
20,1,$1+$1,$2,$3,$4,$5,0*
20,1,$1+$1,$4,$5,$6,$7,0*
20,1,$1+$1,$6,$7,$8,$9,0*
20,1,$1+$1,$8,$9,$2,$3,0*%
G04 Aperture macros list end*
%TA.AperFunction,ComponentPad*%
%ADD10R,1.700000X1.700000*%
%TD*%
%TA.AperFunction,ComponentPad*%
%ADD11O,1.700000X1.700000*%
%TD*%
%TA.AperFunction,ComponentPad*%
%ADD12C,10.400000*%
%TD*%
%TA.AperFunction,ComponentPad*%
%ADD13R,3.000000X3.000000*%
%TD*%
%TA.AperFunction,ComponentPad*%
%ADD14C,3.000000*%
%TD*%
%TA.AperFunction,ComponentPad*%
%ADD15R,0.900000X2.000000*%
%TD*%
%TA.AperFunction,ComponentPad*%
%ADD16RoundRect,1.025000X-1.025000X-1.025000X1.025000X-1.025000X1.025000X1.025000X-1.025000X1.025000X0*%
%TD*%
%TA.AperFunction,ComponentPad*%
%ADD17C,4.100000*%
%TD*%
%TA.AperFunction,ViaPad*%
%ADD18C,0.800000*%
%TD*%
G04 APERTURE END LIST*
D10*
%TO.P,U1,1*%
%TO.N,unconnected-(U1-Pad1)*%
X156165200Y-82087800D03*
D11*
%TO.P,U1,2*%
%TO.N,unconnected-(U1-Pad2)*%
X156165200Y-84627800D03*
%TO.P,U1,3*%
%TO.N,unconnected-(U1-Pad3)*%
X156165200Y-87167800D03*
%TO.P,U1,4*%
%TO.N,unconnected-(U1-Pad4)*%
X156165200Y-89707800D03*
%TO.P,U1,5*%
%TO.N,unconnected-(U1-Pad5)*%
X156165200Y-92247800D03*
%TO.P,U1,6*%
%TO.N,unconnected-(U1-Pad6)*%
X156165200Y-94787800D03*
%TO.P,U1,7*%
%TO.N,unconnected-(U1-Pad7)*%
X156165200Y-97327800D03*
%TO.P,U1,8*%
%TO.N,unconnected-(U1-Pad8)*%
X156165200Y-99867800D03*
%TO.P,U1,9*%
%TO.N,unconnected-(U1-Pad9)*%
X156165200Y-102407800D03*
%TO.P,U1,10*%
%TO.N,unconnected-(U1-Pad10)*%
X156165200Y-104947800D03*
%TO.P,U1,11*%
%TO.N,unconnected-(U1-Pad11)*%
X156165200Y-107487800D03*
%TO.P,U1,12*%
%TO.N,unconnected-(U1-Pad12)*%
X156165200Y-110027800D03*
%TO.P,U1,13*%
%TO.N,unconnected-(U1-Pad13)*%
X156165200Y-112567800D03*
%TO.P,U1,14*%
%TO.N,unconnected-(U1-Pad14)*%
X156165200Y-115107800D03*
%TO.P,U1,15*%
%TO.N,unconnected-(U1-Pad15)*%
X156165200Y-117647800D03*
%TO.P,U1,16*%
%TO.N,unconnected-(U1-Pad16)*%
X99765200Y-117617800D03*
%TO.P,U1,17*%
%TO.N,unconnected-(U1-Pad17)*%
X99765200Y-115077800D03*
%TO.P,U1,18*%
%TO.N,unconnected-(U1-Pad18)*%
X99765200Y-112537800D03*
%TO.P,U1,19*%
%TO.N,unconnected-(U1-Pad19)*%
X99765200Y-109997800D03*
%TO.P,U1,20*%
%TO.N,unconnected-(U1-Pad20)*%
X99765200Y-107457800D03*
%TO.P,U1,21*%
%TO.N,unconnected-(U1-Pad21)*%
X99765200Y-104917800D03*
%TO.P,U1,22*%
%TO.N,unconnected-(U1-Pad22)*%
X99765200Y-102377800D03*
%TO.P,U1,23*%
%TO.N,unconnected-(U1-Pad23)*%
X99765200Y-99837800D03*
%TO.P,U1,24*%
%TO.N,unconnected-(U1-Pad24)*%
X99765200Y-97297800D03*
%TO.P,U1,25*%
%TO.N,unconnected-(U1-Pad25)*%
X99765200Y-94757800D03*
%TO.P,U1,26*%
%TO.N,unconnected-(U1-Pad26)*%
X99765200Y-92217800D03*
%TO.P,U1,27*%
%TO.N,unconnected-(U1-Pad27)*%
X99765200Y-89677800D03*
%TO.P,U1,28*%
%TO.N,unconnected-(U1-Pad28)*%
X99765200Y-87137800D03*
%TO.P,U1,29*%
%TO.N,unconnected-(U1-Pad29)*%
X99765200Y-84597800D03*
D10*
%TO.P,U1,30*%
%TO.N,unconnected-(U1-Pad30)*%
X99765200Y-82057800D03*
%TO.P,U1,31*%
%TO.N,5V*%
X110190200Y-71672800D03*
D11*
%TO.P,U1,32*%
X112730200Y-71672800D03*
%TO.P,U1,33*%
%TO.N,unconnected-(U1-Pad33)*%
X115270200Y-71672800D03*
%TO.P,U1,34*%
%TO.N,unconnected-(U1-Pad34)*%
X117810200Y-71672800D03*
%TO.P,U1,35*%
%TO.N,unconnected-(U1-Pad35)*%
X120350200Y-71672800D03*
%TO.P,U1,36*%
%TO.N,unconnected-(U1-Pad36)*%
X122890200Y-71672800D03*
%TO.P,U1,37*%
%TO.N,3.3V*%
X125430200Y-71672800D03*
%TO.P,U1,38*%
%TO.N,unconnected-(U1-Pad38)*%
X127970200Y-71672800D03*
%TO.P,U1,39*%
%TO.N,3.3V*%
X130510200Y-71672800D03*
%TO.P,U1,40*%
X133050200Y-71672800D03*
%TO.P,U1,41*%
%TO.N,unconnected-(U1-Pad41)*%
X135590200Y-71672800D03*
%TO.P,U1,42*%
%TO.N,unconnected-(U1-Pad42)*%
X138130200Y-71672800D03*
%TO.P,U1,43*%
%TO.N,unconnected-(U1-Pad43)*%
X140670200Y-71672800D03*
%TO.P,U1,44*%
%TO.N,unconnected-(U1-Pad44)*%
X143210200Y-71672800D03*
%TO.P,U1,45*%
%TO.N,5V*%
X145750200Y-71672800D03*
D12*
%TO.P,U1,49,1*%
%TO.N,GND*%
X155765200Y-127672800D03*
%TO.P,U1,50,1*%
X100165200Y-127672800D03*
%TO.P,U1,51,1*%
X100165200Y-71972800D03*
%TO.P,U1,52,1*%
X155765200Y-71987800D03*
%TD*%
D13*
%TO.P,PRIMARY SWITCH,1,Pin_1*%
%TO.N,7.4V1_SWITCH*%
X144119600Y-100253800D03*
D14*
%TO.P,PRIMARY SWITCH,2,Pin_2*%
%TO.N,GND*%
X149199600Y-100253800D03*
%TD*%
D13*
%TO.P,CAM+TELEM SWITCH,1,Pin_1*%
%TO.N,7.4V2_SWITCH*%
X131368800Y-100253800D03*
D14*
%TO.P,CAM+TELEM SWITCH,2,Pin_2*%
%TO.N,GND*%
X136448800Y-100253800D03*
%TD*%
D15*
%TO.P,CAM+TELEM,*%
%TO.N,*%
X110960000Y-123317000D03*
X124460000Y-123317000D03*
D16*
%TO.P,CAM+TELEM,1,Pin_1*%
%TO.N,7.4V2_SWITCH*%
X121310000Y-117317000D03*
D17*
%TO.P,CAM+TELEM,2,Pin_2*%
%TO.N,7.4V2*%
X114110000Y-117317000D03*
%TD*%
D15*
%TO.P,PRIMARY,*%
%TO.N,*%
X130200400Y-123317000D03*
X143700400Y-123317000D03*
D16*
%TO.P,PRIMARY,1,Pin_1*%
%TO.N,7.4V1*%
X140550400Y-117317000D03*
D17*
%TO.P,PRIMARY,2,Pin_2*%
%TO.N,7.4V1_SWITCH*%
X133350400Y-117317000D03*
%TD*%
D18*
%TO.N,GND*%
X116052600Y-110972600D03*
X110838800Y-86003400D03*
X124351600Y-86765400D03*
X128669600Y-81939400D03*
X120599200Y-111048800D03*
X134491100Y-93037500D03*
X127965200Y-128066800D03*
X111016600Y-83082400D03*
X140563600Y-111074200D03*
X114217000Y-86003400D03*
X128644200Y-86892400D03*
X114420200Y-83057000D03*
X124351600Y-81888600D03*
X146043200Y-88213200D03*
%TD*%
%TA.AperFunction,Conductor*%
%TO.N,GND*%
G36*
X161467408Y-64883457D02*
G01*
X161668338Y-64897828D01*
X161685839Y-64900345D01*
X161876179Y-64941750D01*
X161893138Y-64946729D01*
X162075661Y-65014807D01*
X162091741Y-65022151D01*
X162131168Y-65043680D01*
X162262701Y-65115503D01*
X162277584Y-65125068D01*
X162433515Y-65241796D01*
X162446886Y-65253382D01*
X162584617Y-65391113D01*
X162596203Y-65404484D01*
X162712931Y-65560415D01*
X162722496Y-65575298D01*
X162815845Y-65746252D01*
X162823195Y-65762345D01*
X162891267Y-65944853D01*
X162896251Y-65961829D01*
X162937653Y-66152154D01*
X162940171Y-66169666D01*
X162954542Y-66370588D01*
X162954700Y-66375012D01*
X162954700Y-133370586D01*
X162954542Y-133375008D01*
X162953199Y-133393777D01*
X162940171Y-133575933D01*
X162937653Y-133593445D01*
X162896251Y-133783770D01*
X162891267Y-133800746D01*
X162823195Y-133983254D01*
X162815845Y-133999347D01*
X162722496Y-134170301D01*
X162712931Y-134185184D01*
X162596203Y-134341115D01*
X162584617Y-134354486D01*
X162446886Y-134492217D01*
X162433515Y-134503803D01*
X162277584Y-134620531D01*
X162262701Y-134630096D01*
X162091747Y-134723445D01*
X162075654Y-134730795D01*
X161893146Y-134798867D01*
X161876170Y-134803851D01*
X161685845Y-134845253D01*
X161668333Y-134847771D01*
X161486177Y-134860799D01*
X161467408Y-134862142D01*
X161462986Y-134862300D01*
X94467414Y-134862300D01*
X94462991Y-134862142D01*
X94441982Y-134860639D01*
X94262066Y-134847771D01*
X94244554Y-134845253D01*
X94054229Y-134803851D01*
X94037253Y-134798867D01*
X93854745Y-134730795D01*
X93838652Y-134723445D01*
X93667698Y-134630096D01*
X93652815Y-134620531D01*
X93496884Y-134503803D01*
X93483513Y-134492217D01*
X93345782Y-134354486D01*
X93334196Y-134341115D01*
X93217468Y-134185184D01*
X93207903Y-134170301D01*
X93114551Y-133999341D01*
X93107207Y-133983261D01*
X93039129Y-133800738D01*
X93034150Y-133783779D01*
X92992745Y-133593439D01*
X92990228Y-133575933D01*
X92983426Y-133480833D01*
X92975857Y-133375008D01*
X92975700Y-133370586D01*
X92975700Y-127672800D01*
X94460327Y-127672800D01*
X94479812Y-128143909D01*
X94538133Y-128611789D01*
X94538134Y-128611789D01*
X94634894Y-129073259D01*
X94769432Y-129525165D01*
X94940826Y-129964415D01*
X94940826Y-129964416D01*
X95147914Y-130388020D01*
X95147915Y-130388021D01*
X95389269Y-130793066D01*
X95389268Y-130793065D01*
X95663250Y-131176801D01*
X95958749Y-131525695D01*
X96931582Y-130552862D01*
X96992905Y-130519377D01*
X97062596Y-130524361D01*
X97111141Y-130557270D01*
X97191769Y-130646230D01*
X97280728Y-130726857D01*
X97317182Y-130786463D01*
X97315623Y-130856315D01*
X97285136Y-130906416D01*
X96312302Y-131879249D01*
X96312303Y-131879250D01*
X96661199Y-132174750D01*
X97044935Y-132448732D01*
X97044934Y-132448731D01*
X97449979Y-132690085D01*
X97449980Y-132690086D01*
X97873584Y-132897174D01*
X97873585Y-132897174D01*
X98312835Y-133068568D01*
X98764741Y-133203106D01*
X99226211Y-133299866D01*
X99226211Y-133299867D01*
X99694091Y-133358188D01*
X100165200Y-133377673D01*
X100636309Y-133358188D01*
X101104189Y-133299867D01*
X101104189Y-133299866D01*
X101565659Y-133203106D01*
X102017565Y-133068568D01*
X102456815Y-132897174D01*
X102456816Y-132897174D01*
X102880420Y-132690086D01*
X102880421Y-132690085D01*
X103285466Y-132448731D01*
X103285465Y-132448732D01*
X103669201Y-132174750D01*
X104018095Y-131879250D01*
X104018095Y-131879249D01*
X103045262Y-130906416D01*
X103011777Y-130845093D01*
X103016761Y-130775401D01*
X103049668Y-130726860D01*
X103138630Y-130646230D01*
X103219259Y-130557268D01*
X103278862Y-130520817D01*
X103348714Y-130522374D01*
X103398816Y-130552862D01*
X104371649Y-131525695D01*
X104371650Y-131525695D01*
X104667150Y-131176801D01*
X104941132Y-130793065D01*
X104941131Y-130793066D01*
X105182485Y-130388021D01*
X105182486Y-130388020D01*
X105389574Y-129964416D01*
X105389574Y-129964415D01*
X105560968Y-129525165D01*
X105695506Y-129073259D01*
X105792266Y-128611789D01*
X105792267Y-128611789D01*
X105850588Y-128143909D01*
X105870073Y-127672800D01*
X150060327Y-127672800D01*
X150079812Y-128143909D01*
X150138133Y-128611789D01*
X150138134Y-128611789D01*
X150234894Y-129073259D01*
X150369432Y-129525165D01*
X150540826Y-129964415D01*
X150540826Y-129964416D01*
X150747914Y-130388020D01*
X150747915Y-130388021D01*
X150989269Y-130793066D01*
X150989268Y-130793065D01*
X151263250Y-131176801D01*
X151558749Y-131525695D01*
X152531582Y-130552862D01*
X152592905Y-130519377D01*
X152662596Y-130524361D01*
X152711141Y-130557270D01*
X152791769Y-130646230D01*
X152880728Y-130726857D01*
X152917182Y-130786463D01*
X152915623Y-130856315D01*
X152885136Y-130906416D01*
X151912303Y-131879248D01*
X151912303Y-131879250D01*
X152261199Y-132174750D01*
X152644935Y-132448732D01*
X152644934Y-132448731D01*
X153049979Y-132690085D01*
X153049980Y-132690086D01*
X153473584Y-132897174D01*
X153473585Y-132897174D01*
X153912835Y-133068568D01*
X154364741Y-133203106D01*
X154826211Y-133299866D01*
X154826211Y-133299867D01*
X155294091Y-133358188D01*
X155765200Y-133377673D01*
X156236309Y-133358188D01*
X156704189Y-133299867D01*
X156704189Y-133299866D01*
X157165659Y-133203106D01*
X157617565Y-133068568D01*
X158056815Y-132897174D01*
X158056816Y-132897174D01*
X158480420Y-132690086D01*
X158480421Y-132690085D01*
X158885466Y-132448731D01*
X158885465Y-132448732D01*
X159269201Y-132174750D01*
X159618095Y-131879250D01*
X159618095Y-131879249D01*
X158645262Y-130906416D01*
X158611777Y-130845093D01*
X158616761Y-130775401D01*
X158649668Y-130726860D01*
X158738630Y-130646230D01*
X158819259Y-130557268D01*
X158878862Y-130520817D01*
X158948714Y-130522374D01*
X158998816Y-130552862D01*
X159971649Y-131525695D01*
X159971650Y-131525695D01*
X160267150Y-131176801D01*
X160541132Y-130793065D01*
X160541131Y-130793066D01*
X160782485Y-130388021D01*
X160782486Y-130388020D01*
X160989574Y-129964416D01*
X160989574Y-129964415D01*
X161160968Y-129525165D01*
X161295506Y-129073259D01*
X161392266Y-128611789D01*
X161392267Y-128611789D01*
X161450588Y-128143909D01*
X161470073Y-127672800D01*
X161450588Y-127201691D01*
X161392267Y-126733811D01*
X161392266Y-126733811D01*
X161295506Y-126272341D01*
X161160968Y-125820435D01*
X160989574Y-125381185D01*
X160989574Y-125381184D01*
X160782486Y-124957580D01*
X160782485Y-124957579D01*
X160541131Y-124552534D01*
X160541132Y-124552535D01*
X160267150Y-124168799D01*
X159971650Y-123819903D01*
X159971648Y-123819903D01*
X158998816Y-124792736D01*
X158937493Y-124826221D01*
X158867801Y-124821237D01*
X158819257Y-124788328D01*
X158738630Y-124699369D01*
X158649670Y-124618741D01*
X158613216Y-124559135D01*
X158614775Y-124489283D01*
X158645262Y-124439182D01*
X159618095Y-123466349D01*
X159269201Y-123170850D01*
X158885465Y-122896868D01*
X158885466Y-122896869D01*
X158480421Y-122655515D01*
X158480420Y-122655514D01*
X158056816Y-122448426D01*
X158056815Y-122448426D01*
X157617565Y-122277032D01*
X157165659Y-122142494D01*
X156704189Y-122045734D01*
X156704189Y-122045733D01*
X156236309Y-121987412D01*
X155765200Y-121967927D01*
X155294091Y-121987412D01*
X154826211Y-122045733D01*
X154826211Y-122045734D01*
X154364741Y-122142494D01*
X153912835Y-122277032D01*
X153473585Y-122448426D01*
X153473584Y-122448426D01*
X153049980Y-122655514D01*
X153049979Y-122655515D01*
X152644934Y-122896869D01*
X152644935Y-122896868D01*
X152261199Y-123170850D01*
X151912303Y-123466349D01*
X152885136Y-124439182D01*
X152918621Y-124500505D01*
X152913637Y-124570197D01*
X152880729Y-124618740D01*
X152791769Y-124699369D01*
X152711140Y-124788329D01*
X152651534Y-124824782D01*
X152581681Y-124823223D01*
X152531582Y-124792736D01*
X151558749Y-123819903D01*
X151263250Y-124168799D01*
X150989268Y-124552535D01*
X150989269Y-124552534D01*
X150747915Y-124957579D01*
X150747914Y-124957580D01*
X150540826Y-125381184D01*
X150540826Y-125381185D01*
X150369432Y-125820435D01*
X150234894Y-126272341D01*
X150138134Y-126733811D01*
X150138133Y-126733811D01*
X150079812Y-127201691D01*
X150060327Y-127672800D01*
X105870073Y-127672800D01*
X105850588Y-127201691D01*
X105792267Y-126733811D01*
X105792266Y-126733811D01*
X105695506Y-126272341D01*
X105560968Y-125820435D01*
X105389574Y-125381185D01*
X105389574Y-125381184D01*
X105182486Y-124957580D01*
X105182485Y-124957579D01*
X104941131Y-124552534D01*
X104941132Y-124552535D01*
X104807702Y-124365654D01*
X110001500Y-124365654D01*
X110008011Y-124426202D01*
X110008011Y-124426204D01*
X110035725Y-124500505D01*
X110059111Y-124563204D01*
X110146739Y-124680261D01*
X110263796Y-124767889D01*
X110400799Y-124818989D01*
X110428050Y-124821918D01*
X110461345Y-124825499D01*
X110461362Y-124825500D01*
X111458638Y-124825500D01*
X111458654Y-124825499D01*
X111485692Y-124822591D01*
X111519201Y-124818989D01*
X111656204Y-124767889D01*
X111773261Y-124680261D01*
X111860889Y-124563204D01*
X111911989Y-124426201D01*
X111915591Y-124392692D01*
X111918499Y-124365654D01*
X123501500Y-124365654D01*
X123508011Y-124426202D01*
X123508011Y-124426204D01*
X123535725Y-124500505D01*
X123559111Y-124563204D01*
X123646739Y-124680261D01*
X123763796Y-124767889D01*
X123900799Y-124818989D01*
X123928050Y-124821918D01*
X123961345Y-124825499D01*
X123961362Y-124825500D01*
X124958638Y-124825500D01*
X124958654Y-124825499D01*
X124985692Y-124822591D01*
X125019201Y-124818989D01*
X125156204Y-124767889D01*
X125273261Y-124680261D01*
X125360889Y-124563204D01*
X125411989Y-124426201D01*
X125415591Y-124392692D01*
X125418499Y-124365654D01*
X129241900Y-124365654D01*
X129248411Y-124426202D01*
X129248411Y-124426204D01*
X129276125Y-124500505D01*
X129299511Y-124563204D01*
X129387139Y-124680261D01*
X129504196Y-124767889D01*
X129641199Y-124818989D01*
X129668450Y-124821918D01*
X129701745Y-124825499D01*
X129701762Y-124825500D01*
X130699038Y-124825500D01*
X130699054Y-124825499D01*
X130726092Y-124822591D01*
X130759601Y-124818989D01*
X130896604Y-124767889D01*
X131013661Y-124680261D01*
X131101289Y-124563204D01*
X131152389Y-124426201D01*
X131155991Y-124392692D01*
X131158899Y-124365654D01*
X142741900Y-124365654D01*
X142748411Y-124426202D01*
X142748411Y-124426204D01*
X142776125Y-124500505D01*
X142799511Y-124563204D01*
X142887139Y-124680261D01*
X143004196Y-124767889D01*
X143141199Y-124818989D01*
X143168450Y-124821918D01*
X143201745Y-124825499D01*
X143201762Y-124825500D01*
X144199038Y-124825500D01*
X144199054Y-124825499D01*
X144226092Y-124822591D01*
X144259601Y-124818989D01*
X144396604Y-124767889D01*
X144513661Y-124680261D01*
X144601289Y-124563204D01*
X144652389Y-124426201D01*
X144655991Y-124392692D01*
X144658899Y-124365654D01*
X144658900Y-124365637D01*
X144658900Y-122268362D01*
X144658899Y-122268345D01*
X144655557Y-122237270D01*
X144652389Y-122207799D01*
X144601289Y-122070796D01*
X144513661Y-121953739D01*
X144396604Y-121866111D01*
X144396604Y-121866110D01*
X144259603Y-121815011D01*
X144199054Y-121808500D01*
X144199038Y-121808500D01*
X143201762Y-121808500D01*
X143201745Y-121808500D01*
X143141197Y-121815011D01*
X143141195Y-121815011D01*
X143004195Y-121866111D01*
X142887139Y-121953739D01*
X142799511Y-122070795D01*
X142748411Y-122207795D01*
X142748411Y-122207797D01*
X142741900Y-122268345D01*
X142741900Y-124365654D01*
X131158899Y-124365654D01*
X131158899Y-124365647D01*
X131158900Y-124365638D01*
X131158900Y-122268362D01*
X131158899Y-122268352D01*
X131158899Y-122268345D01*
X131155557Y-122237270D01*
X131152389Y-122207799D01*
X131101289Y-122070796D01*
X131013661Y-121953739D01*
X130896604Y-121866111D01*
X130896603Y-121866110D01*
X130759603Y-121815011D01*
X130699054Y-121808500D01*
X130699038Y-121808500D01*
X129701762Y-121808500D01*
X129701745Y-121808500D01*
X129641197Y-121815011D01*
X129641195Y-121815011D01*
X129504195Y-121866111D01*
X129387139Y-121953739D01*
X129299511Y-122070795D01*
X129248411Y-122207795D01*
X129248411Y-122207797D01*
X129241900Y-122268345D01*
X129241900Y-124365654D01*
X125418499Y-124365654D01*
X125418499Y-124365647D01*
X125418500Y-124365638D01*
X125418500Y-122268362D01*
X125418499Y-122268352D01*
X125418499Y-122268345D01*
X125415157Y-122237270D01*
X125411989Y-122207799D01*
X125360889Y-122070796D01*
X125273261Y-121953739D01*
X125156204Y-121866111D01*
X125156203Y-121866110D01*
X125019203Y-121815011D01*
X124958654Y-121808500D01*
X124958638Y-121808500D01*
X123961362Y-121808500D01*
X123961345Y-121808500D01*
X123900797Y-121815011D01*
X123900795Y-121815011D01*
X123763795Y-121866111D01*
X123646739Y-121953739D01*
X123559111Y-122070795D01*
X123508011Y-122207795D01*
X123508011Y-122207797D01*
X123501500Y-122268345D01*
X123501500Y-124365654D01*
X111918499Y-124365654D01*
X111918499Y-124365647D01*
X111918500Y-124365638D01*
X111918500Y-122268362D01*
X111918499Y-122268352D01*
X111918499Y-122268345D01*
X111915157Y-122237270D01*
X111911989Y-122207799D01*
X111860889Y-122070796D01*
X111773261Y-121953739D01*
X111656204Y-121866111D01*
X111656204Y-121866110D01*
X111519203Y-121815011D01*
X111458654Y-121808500D01*
X111458638Y-121808500D01*
X110461362Y-121808500D01*
X110461345Y-121808500D01*
X110400797Y-121815011D01*
X110400795Y-121815011D01*
X110263795Y-121866111D01*
X110146739Y-121953739D01*
X110059111Y-122070795D01*
X110008011Y-122207795D01*
X110008011Y-122207797D01*
X110001500Y-122268345D01*
X110001500Y-124365654D01*
X104807702Y-124365654D01*
X104667150Y-124168799D01*
X104371650Y-123819903D01*
X104371648Y-123819903D01*
X103398816Y-124792736D01*
X103337493Y-124826221D01*
X103267801Y-124821237D01*
X103219257Y-124788328D01*
X103138630Y-124699369D01*
X103049670Y-124618741D01*
X103013216Y-124559135D01*
X103014775Y-124489283D01*
X103045262Y-124439182D01*
X104018095Y-123466349D01*
X103669201Y-123170850D01*
X103285465Y-122896868D01*
X103285466Y-122896869D01*
X102880421Y-122655515D01*
X102880420Y-122655514D01*
X102456816Y-122448426D01*
X102456815Y-122448426D01*
X102017565Y-122277032D01*
X101565659Y-122142494D01*
X101104189Y-122045734D01*
X101104189Y-122045733D01*
X100636309Y-121987412D01*
X100165200Y-121967927D01*
X99694091Y-121987412D01*
X99226211Y-122045733D01*
X99226211Y-122045734D01*
X98764741Y-122142494D01*
X98312835Y-122277032D01*
X97873585Y-122448426D01*
X97873584Y-122448426D01*
X97449980Y-122655514D01*
X97449979Y-122655515D01*
X97044934Y-122896869D01*
X97044935Y-122896868D01*
X96661199Y-123170850D01*
X96312303Y-123466349D01*
X97285136Y-124439182D01*
X97318621Y-124500505D01*
X97313637Y-124570197D01*
X97280729Y-124618740D01*
X97191769Y-124699369D01*
X97111140Y-124788329D01*
X97051534Y-124824782D01*
X96981681Y-124823223D01*
X96931582Y-124792736D01*
X95958749Y-123819903D01*
X95663250Y-124168799D01*
X95389268Y-124552535D01*
X95389269Y-124552534D01*
X95147915Y-124957579D01*
X95147914Y-124957580D01*
X94940826Y-125381184D01*
X94940826Y-125381185D01*
X94769432Y-125820435D01*
X94634894Y-126272341D01*
X94538134Y-126733811D01*
X94538133Y-126733811D01*
X94479812Y-127201691D01*
X94460327Y-127672800D01*
X92975700Y-127672800D01*
X92975700Y-117617805D01*
X98402044Y-117617805D01*
X98420634Y-117842159D01*
X98420636Y-117842171D01*
X98475903Y-118060414D01*
X98566340Y-118266592D01*
X98689476Y-118455065D01*
X98689484Y-118455076D01*
X98841956Y-118620702D01*
X98841961Y-118620707D01*
X98880505Y-118650707D01*
X99019624Y-118758989D01*
X99019625Y-118758989D01*
X99019627Y-118758991D01*
X99139416Y-118823817D01*
X99217626Y-118866142D01*
X99430565Y-118939244D01*
X99652631Y-118976300D01*
X99877769Y-118976300D01*
X100099835Y-118939244D01*
X100312774Y-118866142D01*
X100510776Y-118758989D01*
X100688440Y-118620706D01*
X100787814Y-118512757D01*
X100840915Y-118455076D01*
X100840916Y-118455074D01*
X100840922Y-118455068D01*
X100964060Y-118266591D01*
X101054496Y-118060416D01*
X101109764Y-117842168D01*
X101125871Y-117647794D01*
X101128356Y-117617805D01*
X101128356Y-117617794D01*
X101109765Y-117393440D01*
X101109763Y-117393428D01*
X101090410Y-117317005D01*
X111546441Y-117317005D01*
X111566653Y-117638291D01*
X111566655Y-117638299D01*
X111626980Y-117954531D01*
X111661384Y-118060416D01*
X111726463Y-118260710D01*
X111726465Y-118260715D01*
X111863534Y-118552000D01*
X111863537Y-118552006D01*
X112036033Y-118823817D01*
X112036036Y-118823821D01*
X112036037Y-118823822D01*
X112241246Y-119071877D01*
X112421636Y-119241274D01*
X112475924Y-119292254D01*
X112475934Y-119292262D01*
X112736364Y-119481476D01*
X112736369Y-119481478D01*
X112736376Y-119481484D01*
X113018490Y-119636578D01*
X113018492Y-119636579D01*
X113018495Y-119636580D01*
X113317817Y-119755089D01*
X113629637Y-119835151D01*
X113696641Y-119843615D01*
X113949021Y-119875499D01*
X113949030Y-119875499D01*
X113949033Y-119875500D01*
X113949035Y-119875500D01*
X114270965Y-119875500D01*
X114270967Y-119875500D01*
X114270970Y-119875499D01*
X114270978Y-119875499D01*
X114461562Y-119851422D01*
X114590363Y-119835151D01*
X114902183Y-119755089D01*
X115201510Y-119636578D01*
X115483624Y-119481484D01*
X115744074Y-119292256D01*
X115978754Y-119071877D01*
X116183963Y-118823822D01*
X116356464Y-118552004D01*
X116422031Y-118412666D01*
X118751500Y-118412666D01*
X118761772Y-118558161D01*
X118816172Y-118799705D01*
X118816172Y-118799707D01*
X118872331Y-118939243D01*
X118908614Y-119029395D01*
X119036704Y-119241281D01*
X119036709Y-119241287D01*
X119036712Y-119241291D01*
X119197121Y-119429874D01*
X119197125Y-119429878D01*
X119385708Y-119590287D01*
X119385719Y-119590296D01*
X119597605Y-119718386D01*
X119827295Y-119810828D01*
X120068838Y-119865228D01*
X120214334Y-119875500D01*
X122405666Y-119875500D01*
X122551162Y-119865228D01*
X122792705Y-119810828D01*
X123022395Y-119718386D01*
X123234281Y-119590296D01*
X123422876Y-119429876D01*
X123583296Y-119241281D01*
X123711386Y-119029395D01*
X123803828Y-118799705D01*
X123858228Y-118558162D01*
X123868500Y-118412666D01*
X123868500Y-117317005D01*
X130786841Y-117317005D01*
X130807053Y-117638291D01*
X130807055Y-117638299D01*
X130867380Y-117954531D01*
X130901784Y-118060416D01*
X130966863Y-118260710D01*
X130966865Y-118260715D01*
X131103934Y-118552000D01*
X131103937Y-118552006D01*
X131276433Y-118823817D01*
X131276436Y-118823821D01*
X131276437Y-118823822D01*
X131481646Y-119071877D01*
X131662036Y-119241274D01*
X131716324Y-119292254D01*
X131716334Y-119292262D01*
X131976764Y-119481476D01*
X131976769Y-119481478D01*
X131976776Y-119481484D01*
X132258890Y-119636578D01*
X132258892Y-119636579D01*
X132258895Y-119636580D01*
X132558217Y-119755089D01*
X132870037Y-119835151D01*
X132937041Y-119843615D01*
X133189421Y-119875499D01*
X133189430Y-119875499D01*
X133189433Y-119875500D01*
X133189435Y-119875500D01*
X133511365Y-119875500D01*
X133511367Y-119875500D01*
X133511370Y-119875499D01*
X133511378Y-119875499D01*
X133701962Y-119851422D01*
X133830763Y-119835151D01*
X134142583Y-119755089D01*
X134441910Y-119636578D01*
X134724024Y-119481484D01*
X134984474Y-119292256D01*
X135219154Y-119071877D01*
X135424363Y-118823822D01*
X135596864Y-118552004D01*
X135662431Y-118412666D01*
X137991900Y-118412666D01*
X138002172Y-118558161D01*
X138056572Y-118799705D01*
X138056572Y-118799707D01*
X138112731Y-118939243D01*
X138149014Y-119029395D01*
X138277104Y-119241281D01*
X138277109Y-119241287D01*
X138277112Y-119241291D01*
X138437521Y-119429874D01*
X138437525Y-119429878D01*
X138626108Y-119590287D01*
X138626119Y-119590296D01*
X138838005Y-119718386D01*
X139067695Y-119810828D01*
X139309238Y-119865228D01*
X139454734Y-119875500D01*
X141646066Y-119875500D01*
X141791562Y-119865228D01*
X142033105Y-119810828D01*
X142262795Y-119718386D01*
X142474681Y-119590296D01*
X142663276Y-119429876D01*
X142823696Y-119241281D01*
X142951786Y-119029395D01*
X143044228Y-118799705D01*
X143098628Y-118558162D01*
X143108900Y-118412666D01*
X143108900Y-117647805D01*
X154802044Y-117647805D01*
X154820634Y-117872159D01*
X154820636Y-117872171D01*
X154875903Y-118090414D01*
X154966340Y-118296592D01*
X155089476Y-118485065D01*
X155089484Y-118485076D01*
X155241956Y-118650702D01*
X155241960Y-118650706D01*
X155419624Y-118788989D01*
X155419625Y-118788989D01*
X155419627Y-118788991D01*
X155483990Y-118823822D01*
X155617626Y-118896142D01*
X155830565Y-118969244D01*
X156052631Y-119006300D01*
X156277769Y-119006300D01*
X156499835Y-118969244D01*
X156712774Y-118896142D01*
X156910776Y-118788989D01*
X157088440Y-118650706D01*
X157240922Y-118485068D01*
X157364060Y-118296591D01*
X157454496Y-118090416D01*
X157509764Y-117872168D01*
X157528356Y-117647800D01*
X157527568Y-117638291D01*
X157509765Y-117423440D01*
X157509763Y-117423428D01*
X157454496Y-117205185D01*
X157441336Y-117175184D01*
X157364060Y-116999009D01*
X157361903Y-116995708D01*
X157240923Y-116810534D01*
X157240915Y-116810523D01*
X157088443Y-116644897D01*
X157088438Y-116644892D01*
X156910777Y-116506612D01*
X156910778Y-116506612D01*
X156910776Y-116506611D01*
X156874270Y-116486855D01*
X156824679Y-116437636D01*
X156809571Y-116369419D01*
X156833741Y-116303864D01*
X156874270Y-116268745D01*
X156874284Y-116268736D01*
X156910776Y-116248989D01*
X157088440Y-116110706D01*
X157240922Y-115945068D01*
X157364060Y-115756591D01*
X157454496Y-115550416D01*
X157509764Y-115332168D01*
X157520374Y-115204125D01*
X157528356Y-115107805D01*
X157528356Y-115107794D01*
X157509765Y-114883440D01*
X157509763Y-114883428D01*
X157454496Y-114665185D01*
X157441336Y-114635184D01*
X157364060Y-114459009D01*
X157240922Y-114270532D01*
X157240919Y-114270529D01*
X157240915Y-114270523D01*
X157088443Y-114104897D01*
X157088438Y-114104892D01*
X156910777Y-113966612D01*
X156910772Y-113966608D01*
X156874268Y-113946853D01*
X156824678Y-113897633D01*
X156809571Y-113829416D01*
X156833742Y-113763861D01*
X156874269Y-113728745D01*
X156910776Y-113708989D01*
X157088440Y-113570706D01*
X157240922Y-113405068D01*
X157364060Y-113216591D01*
X157454496Y-113010416D01*
X157509764Y-112792168D01*
X157528356Y-112567800D01*
X157525870Y-112537805D01*
X157509765Y-112343440D01*
X157509763Y-112343428D01*
X157454496Y-112125185D01*
X157441336Y-112095184D01*
X157364060Y-111919009D01*
X157240922Y-111730532D01*
X157240919Y-111730529D01*
X157240915Y-111730523D01*
X157088443Y-111564897D01*
X157088438Y-111564892D01*
X156910777Y-111426612D01*
X156910778Y-111426612D01*
X156910776Y-111426611D01*
X156874270Y-111406855D01*
X156824679Y-111357636D01*
X156809571Y-111289419D01*
X156833741Y-111223864D01*
X156874270Y-111188745D01*
X156874284Y-111188736D01*
X156910776Y-111168989D01*
X157088440Y-111030706D01*
X157240922Y-110865068D01*
X157364060Y-110676591D01*
X157454496Y-110470416D01*
X157509764Y-110252168D01*
X157528356Y-110027800D01*
X157525870Y-109997805D01*
X157509765Y-109803440D01*
X157509763Y-109803428D01*
X157454496Y-109585185D01*
X157441336Y-109555184D01*
X157364060Y-109379009D01*
X157240922Y-109190532D01*
X157240919Y-109190529D01*
X157240915Y-109190523D01*
X157088443Y-109024897D01*
X157088438Y-109024892D01*
X156910777Y-108886612D01*
X156910778Y-108886612D01*
X156910776Y-108886611D01*
X156874270Y-108866855D01*
X156824679Y-108817636D01*
X156809571Y-108749419D01*
X156833741Y-108683864D01*
X156874270Y-108648745D01*
X156874284Y-108648736D01*
X156910776Y-108628989D01*
X157088440Y-108490706D01*
X157240922Y-108325068D01*
X157364060Y-108136591D01*
X157454496Y-107930416D01*
X157509764Y-107712168D01*
X157528356Y-107487800D01*
X157525870Y-107457805D01*
X157509765Y-107263440D01*
X157509763Y-107263428D01*
X157454496Y-107045185D01*
X157441336Y-107015184D01*
X157364060Y-106839009D01*
X157240922Y-106650532D01*
X157240919Y-106650529D01*
X157240915Y-106650523D01*
X157088443Y-106484897D01*
X157088438Y-106484892D01*
X156910777Y-106346612D01*
X156910778Y-106346612D01*
X156910776Y-106346611D01*
X156874270Y-106326855D01*
X156824679Y-106277636D01*
X156809571Y-106209419D01*
X156833741Y-106143864D01*
X156874270Y-106108745D01*
X156874284Y-106108736D01*
X156910776Y-106088989D01*
X157088440Y-105950706D01*
X157240922Y-105785068D01*
X157364060Y-105596591D01*
X157454496Y-105390416D01*
X157509764Y-105172168D01*
X157528356Y-104947800D01*
X157525870Y-104917805D01*
X157509765Y-104723440D01*
X157509763Y-104723428D01*
X157454496Y-104505185D01*
X157441336Y-104475184D01*
X157364060Y-104299009D01*
X157240922Y-104110532D01*
X157240919Y-104110529D01*
X157240915Y-104110523D01*
X157088443Y-103944897D01*
X157088438Y-103944892D01*
X156910777Y-103806612D01*
X156910778Y-103806612D01*
X156910776Y-103806611D01*
X156874270Y-103786855D01*
X156824679Y-103737636D01*
X156809571Y-103669419D01*
X156833741Y-103603864D01*
X156874270Y-103568745D01*
X156874284Y-103568736D01*
X156910776Y-103548989D01*
X157088440Y-103410706D01*
X157240922Y-103245068D01*
X157364060Y-103056591D01*
X157454496Y-102850416D01*
X157509764Y-102632168D01*
X157528356Y-102407800D01*
X157525870Y-102377805D01*
X157509765Y-102183440D01*
X157509763Y-102183428D01*
X157502166Y-102153428D01*
X157454496Y-101965184D01*
X157364060Y-101759009D01*
X157240922Y-101570532D01*
X157240919Y-101570529D01*
X157240915Y-101570523D01*
X157088443Y-101404897D01*
X157088438Y-101404892D01*
X156910777Y-101266612D01*
X156910778Y-101266612D01*
X156910776Y-101266611D01*
X156874270Y-101246855D01*
X156824679Y-101197636D01*
X156809571Y-101129419D01*
X156833741Y-101063864D01*
X156874270Y-101028745D01*
X156874284Y-101028736D01*
X156910776Y-101008989D01*
X157088440Y-100870706D01*
X157239241Y-100706894D01*
X157240915Y-100705076D01*
X157240916Y-100705074D01*
X157240922Y-100705068D01*
X157364060Y-100516591D01*
X157454496Y-100310416D01*
X157509764Y-100092168D01*
X157512251Y-100062159D01*
X157528356Y-99867805D01*
X157528356Y-99867794D01*
X157509765Y-99643440D01*
X157509763Y-99643428D01*
X157494168Y-99581846D01*
X157454496Y-99425184D01*
X157364060Y-99219009D01*
X157331879Y-99169753D01*
X157240923Y-99030534D01*
X157240915Y-99030523D01*
X157088443Y-98864897D01*
X157088438Y-98864892D01*
X156910777Y-98726612D01*
X156910778Y-98726612D01*
X156910776Y-98726611D01*
X156874270Y-98706855D01*
X156824679Y-98657636D01*
X156809571Y-98589419D01*
X156833741Y-98523864D01*
X156874270Y-98488745D01*
X156874284Y-98488736D01*
X156910776Y-98468989D01*
X157088440Y-98330706D01*
X157240922Y-98165068D01*
X157364060Y-97976591D01*
X157454496Y-97770416D01*
X157509764Y-97552168D01*
X157528356Y-97327800D01*
X157525870Y-97297805D01*
X157509765Y-97103440D01*
X157509763Y-97103428D01*
X157454496Y-96885185D01*
X157441336Y-96855184D01*
X157364060Y-96679009D01*
X157240922Y-96490532D01*
X157240919Y-96490529D01*
X157240915Y-96490523D01*
X157088443Y-96324897D01*
X157088438Y-96324892D01*
X156910777Y-96186612D01*
X156910778Y-96186612D01*
X156910776Y-96186611D01*
X156874270Y-96166855D01*
X156824679Y-96117636D01*
X156809571Y-96049419D01*
X156833741Y-95983864D01*
X156874270Y-95948745D01*
X156874284Y-95948736D01*
X156910776Y-95928989D01*
X157088440Y-95790706D01*
X157240922Y-95625068D01*
X157364060Y-95436591D01*
X157454496Y-95230416D01*
X157509764Y-95012168D01*
X157528356Y-94787800D01*
X157525870Y-94757805D01*
X157509765Y-94563440D01*
X157509763Y-94563428D01*
X157454496Y-94345185D01*
X157441336Y-94315184D01*
X157364060Y-94139009D01*
X157240922Y-93950532D01*
X157240919Y-93950529D01*
X157240915Y-93950523D01*
X157088443Y-93784897D01*
X157088438Y-93784892D01*
X156910777Y-93646612D01*
X156910778Y-93646612D01*
X156910776Y-93646611D01*
X156874270Y-93626855D01*
X156824679Y-93577636D01*
X156809571Y-93509419D01*
X156833741Y-93443864D01*
X156874270Y-93408745D01*
X156874284Y-93408736D01*
X156910776Y-93388989D01*
X157088440Y-93250706D01*
X157240922Y-93085068D01*
X157364060Y-92896591D01*
X157454496Y-92690416D01*
X157509764Y-92472168D01*
X157528356Y-92247800D01*
X157525870Y-92217805D01*
X157509765Y-92023440D01*
X157509763Y-92023428D01*
X157454496Y-91805185D01*
X157441336Y-91775184D01*
X157364060Y-91599009D01*
X157240922Y-91410532D01*
X157240919Y-91410529D01*
X157240915Y-91410523D01*
X157088443Y-91244897D01*
X157088438Y-91244892D01*
X156910777Y-91106612D01*
X156910778Y-91106612D01*
X156910776Y-91106611D01*
X156874270Y-91086855D01*
X156824679Y-91037636D01*
X156809571Y-90969419D01*
X156833741Y-90903864D01*
X156874270Y-90868745D01*
X156874284Y-90868736D01*
X156910776Y-90848989D01*
X157088440Y-90710706D01*
X157240922Y-90545068D01*
X157364060Y-90356591D01*
X157454496Y-90150416D01*
X157509764Y-89932168D01*
X157528356Y-89707800D01*
X157525870Y-89677805D01*
X157509765Y-89483440D01*
X157509763Y-89483428D01*
X157454496Y-89265185D01*
X157441336Y-89235184D01*
X157364060Y-89059009D01*
X157240922Y-88870532D01*
X157240919Y-88870529D01*
X157240915Y-88870523D01*
X157088443Y-88704897D01*
X157088438Y-88704892D01*
X156910777Y-88566612D01*
X156910778Y-88566612D01*
X156910776Y-88566611D01*
X156874270Y-88546855D01*
X156824679Y-88497636D01*
X156809571Y-88429419D01*
X156833741Y-88363864D01*
X156874270Y-88328745D01*
X156874284Y-88328736D01*
X156910776Y-88308989D01*
X157088440Y-88170706D01*
X157240922Y-88005068D01*
X157364060Y-87816591D01*
X157454496Y-87610416D01*
X157509764Y-87392168D01*
X157528356Y-87167800D01*
X157525870Y-87137805D01*
X157509765Y-86943440D01*
X157509763Y-86943428D01*
X157454496Y-86725185D01*
X157441336Y-86695184D01*
X157364060Y-86519009D01*
X157240922Y-86330532D01*
X157240919Y-86330529D01*
X157240915Y-86330523D01*
X157088443Y-86164897D01*
X157088438Y-86164892D01*
X156910777Y-86026612D01*
X156910778Y-86026612D01*
X156910776Y-86026611D01*
X156874270Y-86006855D01*
X156824679Y-85957636D01*
X156809571Y-85889419D01*
X156833741Y-85823864D01*
X156874270Y-85788745D01*
X156874284Y-85788736D01*
X156910776Y-85768989D01*
X157088440Y-85630706D01*
X157240922Y-85465068D01*
X157364060Y-85276591D01*
X157454496Y-85070416D01*
X157509764Y-84852168D01*
X157528356Y-84627800D01*
X157525870Y-84597805D01*
X157509765Y-84403440D01*
X157509763Y-84403428D01*
X157454496Y-84185185D01*
X157441336Y-84155184D01*
X157364060Y-83979009D01*
X157240922Y-83790532D01*
X157240919Y-83790529D01*
X157240915Y-83790523D01*
X157095710Y-83632791D01*
X157064787Y-83570137D01*
X157072647Y-83500711D01*
X157116794Y-83446555D01*
X157143605Y-83432627D01*
X157224035Y-83402627D01*
X157261404Y-83388689D01*
X157378461Y-83301061D01*
X157466089Y-83184004D01*
X157517189Y-83047001D01*
X157520791Y-83013492D01*
X157523699Y-82986454D01*
X157523700Y-82986437D01*
X157523700Y-81189162D01*
X157523699Y-81189145D01*
X157520357Y-81158070D01*
X157517189Y-81128599D01*
X157505999Y-81098599D01*
X157494722Y-81068364D01*
X157466089Y-80991596D01*
X157378461Y-80874539D01*
X157261404Y-80786911D01*
X157261404Y-80786910D01*
X157124403Y-80735811D01*
X157063854Y-80729300D01*
X157063838Y-80729300D01*
X155266562Y-80729300D01*
X155266545Y-80729300D01*
X155205997Y-80735811D01*
X155205995Y-80735811D01*
X155068995Y-80786911D01*
X154951939Y-80874539D01*
X154864311Y-80991595D01*
X154813211Y-81128595D01*
X154813211Y-81128597D01*
X154806700Y-81189145D01*
X154806700Y-82986454D01*
X154813211Y-83047002D01*
X154813211Y-83047004D01*
X154853121Y-83154004D01*
X154864311Y-83184004D01*
X154951939Y-83301061D01*
X155068996Y-83388689D01*
X155106365Y-83402627D01*
X155186795Y-83432627D01*
X155242728Y-83474499D01*
X155267144Y-83539963D01*
X155252292Y-83608236D01*
X155234690Y-83632791D01*
X155089479Y-83790530D01*
X155089476Y-83790534D01*
X154966340Y-83979007D01*
X154875903Y-84185185D01*
X154820636Y-84403428D01*
X154820634Y-84403440D01*
X154802044Y-84627794D01*
X154802044Y-84627805D01*
X154820634Y-84852159D01*
X154820636Y-84852171D01*
X154875903Y-85070414D01*
X154966340Y-85276592D01*
X155089476Y-85465065D01*
X155089484Y-85465076D01*
X155241956Y-85630702D01*
X155241960Y-85630706D01*
X155419624Y-85768989D01*
X155419629Y-85768991D01*
X155419631Y-85768993D01*
X155456130Y-85788746D01*
X155505720Y-85837965D01*
X155520828Y-85906182D01*
X155496657Y-85971737D01*
X155456130Y-86006854D01*
X155419631Y-86026606D01*
X155419622Y-86026612D01*
X155241961Y-86164892D01*
X155241956Y-86164897D01*
X155089484Y-86330523D01*
X155089476Y-86330534D01*
X154966340Y-86519007D01*
X154875903Y-86725185D01*
X154820636Y-86943428D01*
X154820634Y-86943440D01*
X154802044Y-87167794D01*
X154802044Y-87167805D01*
X154820634Y-87392159D01*
X154820636Y-87392171D01*
X154875903Y-87610414D01*
X154966340Y-87816592D01*
X155089476Y-88005065D01*
X155089484Y-88005076D01*
X155241956Y-88170702D01*
X155241960Y-88170706D01*
X155419624Y-88308989D01*
X155419629Y-88308991D01*
X155419631Y-88308993D01*
X155456130Y-88328746D01*
X155505720Y-88377965D01*
X155520828Y-88446182D01*
X155496657Y-88511737D01*
X155456130Y-88546854D01*
X155419631Y-88566606D01*
X155419622Y-88566612D01*
X155241961Y-88704892D01*
X155241956Y-88704897D01*
X155089484Y-88870523D01*
X155089476Y-88870534D01*
X154966340Y-89059007D01*
X154875903Y-89265185D01*
X154820636Y-89483428D01*
X154820634Y-89483440D01*
X154802044Y-89707794D01*
X154802044Y-89707805D01*
X154820634Y-89932159D01*
X154820636Y-89932171D01*
X154875903Y-90150414D01*
X154966340Y-90356592D01*
X155089476Y-90545065D01*
X155089484Y-90545076D01*
X155241956Y-90710702D01*
X155241960Y-90710706D01*
X155419624Y-90848989D01*
X155419629Y-90848991D01*
X155419631Y-90848993D01*
X155456130Y-90868746D01*
X155505720Y-90917965D01*
X155520828Y-90986182D01*
X155496657Y-91051737D01*
X155456130Y-91086854D01*
X155419631Y-91106606D01*
X155419622Y-91106612D01*
X155241961Y-91244892D01*
X155241956Y-91244897D01*
X155089484Y-91410523D01*
X155089476Y-91410534D01*
X154966340Y-91599007D01*
X154875903Y-91805185D01*
X154820636Y-92023428D01*
X154820634Y-92023440D01*
X154802044Y-92247794D01*
X154802044Y-92247805D01*
X154820634Y-92472159D01*
X154820636Y-92472171D01*
X154875903Y-92690414D01*
X154966340Y-92896592D01*
X155089476Y-93085065D01*
X155089484Y-93085076D01*
X155241956Y-93250702D01*
X155241960Y-93250706D01*
X155419624Y-93388989D01*
X155419629Y-93388991D01*
X155419631Y-93388993D01*
X155456130Y-93408746D01*
X155505720Y-93457965D01*
X155520828Y-93526182D01*
X155496657Y-93591737D01*
X155456130Y-93626854D01*
X155419631Y-93646606D01*
X155419622Y-93646612D01*
X155241961Y-93784892D01*
X155241956Y-93784897D01*
X155089484Y-93950523D01*
X155089476Y-93950534D01*
X154966340Y-94139007D01*
X154875903Y-94345185D01*
X154820636Y-94563428D01*
X154820634Y-94563440D01*
X154802044Y-94787794D01*
X154802044Y-94787805D01*
X154820634Y-95012159D01*
X154820636Y-95012171D01*
X154875903Y-95230414D01*
X154966340Y-95436592D01*
X155089476Y-95625065D01*
X155089484Y-95625076D01*
X155241956Y-95790702D01*
X155241960Y-95790706D01*
X155419624Y-95928989D01*
X155419629Y-95928991D01*
X155419631Y-95928993D01*
X155456130Y-95948746D01*
X155505720Y-95997965D01*
X155520828Y-96066182D01*
X155496657Y-96131737D01*
X155456130Y-96166854D01*
X155419631Y-96186606D01*
X155419622Y-96186612D01*
X155241961Y-96324892D01*
X155241956Y-96324897D01*
X155089484Y-96490523D01*
X155089476Y-96490534D01*
X154966340Y-96679007D01*
X154875903Y-96885185D01*
X154820636Y-97103428D01*
X154820634Y-97103440D01*
X154802044Y-97327794D01*
X154802044Y-97327805D01*
X154820634Y-97552159D01*
X154820636Y-97552171D01*
X154875903Y-97770414D01*
X154966340Y-97976592D01*
X155089476Y-98165065D01*
X155089484Y-98165076D01*
X155241226Y-98329909D01*
X155241960Y-98330706D01*
X155419624Y-98468989D01*
X155419629Y-98468991D01*
X155419631Y-98468993D01*
X155456130Y-98488746D01*
X155505720Y-98537965D01*
X155520828Y-98606182D01*
X155496657Y-98671737D01*
X155456130Y-98706854D01*
X155419631Y-98726606D01*
X155419622Y-98726612D01*
X155241961Y-98864892D01*
X155241956Y-98864897D01*
X155089484Y-99030523D01*
X155089476Y-99030534D01*
X154966340Y-99219007D01*
X154875903Y-99425185D01*
X154820636Y-99643428D01*
X154820634Y-99643440D01*
X154802044Y-99867794D01*
X154802044Y-99867805D01*
X154820634Y-100092159D01*
X154820636Y-100092171D01*
X154875903Y-100310414D01*
X154966340Y-100516592D01*
X155089476Y-100705065D01*
X155089484Y-100705076D01*
X155235326Y-100863500D01*
X155241960Y-100870706D01*
X155419624Y-101008989D01*
X155419629Y-101008991D01*
X155419631Y-101008993D01*
X155456130Y-101028746D01*
X155505720Y-101077965D01*
X155520828Y-101146182D01*
X155496657Y-101211737D01*
X155456130Y-101246854D01*
X155419631Y-101266606D01*
X155419622Y-101266612D01*
X155241961Y-101404892D01*
X155241956Y-101404897D01*
X155089484Y-101570523D01*
X155089476Y-101570534D01*
X154966340Y-101759007D01*
X154875903Y-101965185D01*
X154820636Y-102183428D01*
X154820634Y-102183440D01*
X154802044Y-102407794D01*
X154802044Y-102407805D01*
X154820634Y-102632159D01*
X154820636Y-102632171D01*
X154875903Y-102850414D01*
X154966340Y-103056592D01*
X155089476Y-103245065D01*
X155089484Y-103245076D01*
X155241956Y-103410702D01*
X155241960Y-103410706D01*
X155419624Y-103548989D01*
X155419629Y-103548991D01*
X155419631Y-103548993D01*
X155456130Y-103568746D01*
X155505720Y-103617965D01*
X155520828Y-103686182D01*
X155496657Y-103751737D01*
X155456130Y-103786854D01*
X155419631Y-103806606D01*
X155419622Y-103806612D01*
X155241961Y-103944892D01*
X155241956Y-103944897D01*
X155089484Y-104110523D01*
X155089476Y-104110534D01*
X154966340Y-104299007D01*
X154875903Y-104505185D01*
X154820636Y-104723428D01*
X154820634Y-104723440D01*
X154802044Y-104947794D01*
X154802044Y-104947805D01*
X154820634Y-105172159D01*
X154820636Y-105172171D01*
X154875903Y-105390414D01*
X154966340Y-105596592D01*
X155089476Y-105785065D01*
X155089484Y-105785076D01*
X155241956Y-105950702D01*
X155241960Y-105950706D01*
X155419624Y-106088989D01*
X155419629Y-106088991D01*
X155419631Y-106088993D01*
X155456130Y-106108746D01*
X155505720Y-106157965D01*
X155520828Y-106226182D01*
X155496657Y-106291737D01*
X155456130Y-106326854D01*
X155419631Y-106346606D01*
X155419622Y-106346612D01*
X155241961Y-106484892D01*
X155241956Y-106484897D01*
X155089484Y-106650523D01*
X155089476Y-106650534D01*
X154966340Y-106839007D01*
X154875903Y-107045185D01*
X154820636Y-107263428D01*
X154820634Y-107263440D01*
X154802044Y-107487794D01*
X154802044Y-107487805D01*
X154820634Y-107712159D01*
X154820636Y-107712171D01*
X154875903Y-107930414D01*
X154966340Y-108136592D01*
X155089476Y-108325065D01*
X155089484Y-108325076D01*
X155241956Y-108490702D01*
X155241960Y-108490706D01*
X155419624Y-108628989D01*
X155419629Y-108628991D01*
X155419631Y-108628993D01*
X155456130Y-108648746D01*
X155505720Y-108697965D01*
X155520828Y-108766182D01*
X155496657Y-108831737D01*
X155456130Y-108866854D01*
X155419631Y-108886606D01*
X155419622Y-108886612D01*
X155241961Y-109024892D01*
X155241956Y-109024897D01*
X155089484Y-109190523D01*
X155089476Y-109190534D01*
X154966340Y-109379007D01*
X154875903Y-109585185D01*
X154820636Y-109803428D01*
X154820634Y-109803440D01*
X154802044Y-110027794D01*
X154802044Y-110027805D01*
X154820634Y-110252159D01*
X154820636Y-110252171D01*
X154875903Y-110470414D01*
X154966340Y-110676592D01*
X155089476Y-110865065D01*
X155089484Y-110865076D01*
X155241956Y-111030702D01*
X155241960Y-111030706D01*
X155419624Y-111168989D01*
X155419629Y-111168991D01*
X155419631Y-111168993D01*
X155456130Y-111188746D01*
X155505720Y-111237965D01*
X155520828Y-111306182D01*
X155496657Y-111371737D01*
X155456130Y-111406854D01*
X155419631Y-111426606D01*
X155419622Y-111426612D01*
X155241961Y-111564892D01*
X155241956Y-111564897D01*
X155089484Y-111730523D01*
X155089476Y-111730534D01*
X154966340Y-111919007D01*
X154875903Y-112125185D01*
X154820636Y-112343428D01*
X154820634Y-112343440D01*
X154802044Y-112567794D01*
X154802044Y-112567805D01*
X154820634Y-112792159D01*
X154820636Y-112792171D01*
X154875903Y-113010414D01*
X154966340Y-113216592D01*
X155089476Y-113405065D01*
X155089484Y-113405076D01*
X155241956Y-113570702D01*
X155241960Y-113570706D01*
X155419624Y-113708989D01*
X155456130Y-113728745D01*
X155505719Y-113777962D01*
X155520829Y-113846178D01*
X155496659Y-113911734D01*
X155456132Y-113946852D01*
X155419632Y-113966605D01*
X155419622Y-113966612D01*
X155241961Y-114104892D01*
X155241956Y-114104897D01*
X155089484Y-114270523D01*
X155089476Y-114270534D01*
X154966340Y-114459007D01*
X154875903Y-114665185D01*
X154820636Y-114883428D01*
X154820634Y-114883440D01*
X154802044Y-115107794D01*
X154802044Y-115107805D01*
X154820634Y-115332159D01*
X154820636Y-115332171D01*
X154875903Y-115550414D01*
X154966340Y-115756592D01*
X155089476Y-115945065D01*
X155089484Y-115945076D01*
X155215530Y-116081996D01*
X155241960Y-116110706D01*
X155419624Y-116248989D01*
X155419629Y-116248991D01*
X155419631Y-116248993D01*
X155456130Y-116268746D01*
X155505720Y-116317965D01*
X155520828Y-116386182D01*
X155496657Y-116451737D01*
X155456130Y-116486854D01*
X155419631Y-116506606D01*
X155419622Y-116506612D01*
X155241961Y-116644892D01*
X155241956Y-116644897D01*
X155089484Y-116810523D01*
X155089476Y-116810534D01*
X154966340Y-116999007D01*
X154875903Y-117205185D01*
X154820636Y-117423428D01*
X154820634Y-117423440D01*
X154802044Y-117647794D01*
X154802044Y-117647805D01*
X143108900Y-117647805D01*
X143108900Y-116221334D01*
X143098628Y-116075838D01*
X143044228Y-115834295D01*
X143034523Y-115810182D01*
X143000881Y-115726591D01*
X142951786Y-115604605D01*
X142823696Y-115392719D01*
X142823687Y-115392708D01*
X142663278Y-115204125D01*
X142663274Y-115204121D01*
X142474691Y-115043712D01*
X142474687Y-115043709D01*
X142474681Y-115043704D01*
X142262795Y-114915614D01*
X142262794Y-114915613D01*
X142033106Y-114823172D01*
X141912333Y-114795972D01*
X141791562Y-114768772D01*
X141646066Y-114758500D01*
X139454734Y-114758500D01*
X139309238Y-114768772D01*
X139067694Y-114823172D01*
X139067692Y-114823172D01*
X138838004Y-114915614D01*
X138837999Y-114915617D01*
X138626125Y-115043700D01*
X138626108Y-115043712D01*
X138437525Y-115204121D01*
X138437521Y-115204125D01*
X138277112Y-115392708D01*
X138277100Y-115392725D01*
X138149017Y-115604599D01*
X138149014Y-115604604D01*
X138056572Y-115834292D01*
X138056572Y-115834294D01*
X138002172Y-116075838D01*
X137991900Y-116221334D01*
X137991900Y-118412666D01*
X135662431Y-118412666D01*
X135733937Y-118260709D01*
X135833420Y-117954531D01*
X135893745Y-117638299D01*
X135895035Y-117617805D01*
X135913959Y-117317005D01*
X135913959Y-117316994D01*
X135893746Y-116995708D01*
X135888653Y-116969009D01*
X135833420Y-116679469D01*
X135733937Y-116373291D01*
X135732133Y-116369458D01*
X135596865Y-116081999D01*
X135596864Y-116081996D01*
X135509965Y-115945065D01*
X135424366Y-115810182D01*
X135424363Y-115810178D01*
X135219154Y-115562123D01*
X134984474Y-115341744D01*
X134984471Y-115341742D01*
X134984465Y-115341737D01*
X134724035Y-115152523D01*
X134724028Y-115152518D01*
X134724024Y-115152516D01*
X134526111Y-115043712D01*
X134441907Y-114997420D01*
X134441901Y-114997418D01*
X134142587Y-114878912D01*
X134043349Y-114853432D01*
X133830763Y-114798849D01*
X133830760Y-114798848D01*
X133830753Y-114798847D01*
X133511378Y-114758500D01*
X133511367Y-114758500D01*
X133189433Y-114758500D01*
X133189421Y-114758500D01*
X132870046Y-114798847D01*
X132870037Y-114798849D01*
X132558212Y-114878912D01*
X132258898Y-114997418D01*
X132258892Y-114997420D01*
X131976776Y-115152516D01*
X131976764Y-115152523D01*
X131716334Y-115341737D01*
X131716324Y-115341745D01*
X131481648Y-115562121D01*
X131276433Y-115810182D01*
X131103937Y-116081993D01*
X131103934Y-116081999D01*
X130966865Y-116373284D01*
X130966863Y-116373289D01*
X130923544Y-116506612D01*
X130867380Y-116679469D01*
X130848103Y-116780523D01*
X130807053Y-116995708D01*
X130786841Y-117316994D01*
X130786841Y-117317005D01*
X123868500Y-117317005D01*
X123868500Y-116221334D01*
X123858228Y-116075838D01*
X123803828Y-115834295D01*
X123794123Y-115810182D01*
X123760481Y-115726591D01*
X123711386Y-115604605D01*
X123583296Y-115392719D01*
X123583287Y-115392708D01*
X123422878Y-115204125D01*
X123422874Y-115204121D01*
X123234291Y-115043712D01*
X123234287Y-115043709D01*
X123234281Y-115043704D01*
X123022395Y-114915614D01*
X123022394Y-114915613D01*
X122792706Y-114823172D01*
X122671933Y-114795972D01*
X122551162Y-114768772D01*
X122405666Y-114758500D01*
X120214334Y-114758500D01*
X120068838Y-114768772D01*
X119827294Y-114823172D01*
X119827292Y-114823172D01*
X119597604Y-114915614D01*
X119597599Y-114915617D01*
X119385725Y-115043700D01*
X119385708Y-115043712D01*
X119197125Y-115204121D01*
X119197121Y-115204125D01*
X119036712Y-115392708D01*
X119036700Y-115392725D01*
X118908617Y-115604599D01*
X118908614Y-115604604D01*
X118816172Y-115834292D01*
X118816172Y-115834294D01*
X118761772Y-116075838D01*
X118751500Y-116221334D01*
X118751500Y-118412666D01*
X116422031Y-118412666D01*
X116493537Y-118260709D01*
X116593020Y-117954531D01*
X116653345Y-117638299D01*
X116654635Y-117617805D01*
X116661838Y-117503296D01*
X116673559Y-117317000D01*
X116662914Y-117147801D01*
X116653346Y-116995708D01*
X116648253Y-116969009D01*
X116593020Y-116679469D01*
X116493537Y-116373291D01*
X116491733Y-116369458D01*
X116356465Y-116081999D01*
X116356464Y-116081996D01*
X116269565Y-115945065D01*
X116183966Y-115810182D01*
X116183963Y-115810178D01*
X115978754Y-115562123D01*
X115744074Y-115341744D01*
X115744071Y-115341742D01*
X115744065Y-115341737D01*
X115483635Y-115152523D01*
X115483628Y-115152518D01*
X115483624Y-115152516D01*
X115285711Y-115043712D01*
X115201507Y-114997420D01*
X115201501Y-114997418D01*
X114902187Y-114878912D01*
X114802949Y-114853432D01*
X114590363Y-114798849D01*
X114590360Y-114798848D01*
X114590353Y-114798847D01*
X114270978Y-114758500D01*
X114270967Y-114758500D01*
X113949033Y-114758500D01*
X113949021Y-114758500D01*
X113629646Y-114798847D01*
X113629637Y-114798849D01*
X113317812Y-114878912D01*
X113018498Y-114997418D01*
X113018492Y-114997420D01*
X112736376Y-115152516D01*
X112736364Y-115152523D01*
X112475934Y-115341737D01*
X112475924Y-115341745D01*
X112241248Y-115562121D01*
X112036033Y-115810182D01*
X111863537Y-116081993D01*
X111863534Y-116081999D01*
X111726465Y-116373284D01*
X111726463Y-116373289D01*
X111683144Y-116506612D01*
X111626980Y-116679469D01*
X111607703Y-116780523D01*
X111566653Y-116995708D01*
X111546441Y-117316994D01*
X111546441Y-117317005D01*
X101090410Y-117317005D01*
X101054496Y-117175185D01*
X100964059Y-116969007D01*
X100840923Y-116780534D01*
X100840915Y-116780523D01*
X100688443Y-116614897D01*
X100688438Y-116614892D01*
X100549321Y-116506612D01*
X100510776Y-116476611D01*
X100474270Y-116456855D01*
X100424679Y-116407636D01*
X100409571Y-116339419D01*
X100433741Y-116273864D01*
X100474270Y-116238745D01*
X100474284Y-116238736D01*
X100510776Y-116218989D01*
X100688440Y-116080706D01*
X100787814Y-115972757D01*
X100840915Y-115915076D01*
X100840916Y-115915074D01*
X100840922Y-115915068D01*
X100964060Y-115726591D01*
X101054496Y-115520416D01*
X101109764Y-115302168D01*
X101109765Y-115302159D01*
X101128356Y-115077805D01*
X101128356Y-115077794D01*
X101109765Y-114853440D01*
X101109763Y-114853428D01*
X101054496Y-114635185D01*
X100964059Y-114429007D01*
X100840923Y-114240534D01*
X100840915Y-114240523D01*
X100688443Y-114074897D01*
X100688438Y-114074892D01*
X100549321Y-113966612D01*
X100510776Y-113936611D01*
X100474270Y-113916855D01*
X100424679Y-113867636D01*
X100409571Y-113799419D01*
X100433741Y-113733864D01*
X100474270Y-113698745D01*
X100474284Y-113698736D01*
X100510776Y-113678989D01*
X100688440Y-113540706D01*
X100787814Y-113432757D01*
X100840915Y-113375076D01*
X100840916Y-113375074D01*
X100840922Y-113375068D01*
X100964060Y-113186591D01*
X101054496Y-112980416D01*
X101109764Y-112762168D01*
X101128356Y-112537800D01*
X101109764Y-112313432D01*
X101054496Y-112095184D01*
X100964060Y-111889009D01*
X100840922Y-111700532D01*
X100840919Y-111700529D01*
X100840915Y-111700523D01*
X100688443Y-111534897D01*
X100688438Y-111534892D01*
X100549321Y-111426612D01*
X100510776Y-111396611D01*
X100474270Y-111376855D01*
X100424679Y-111327636D01*
X100409571Y-111259419D01*
X100433741Y-111193864D01*
X100474270Y-111158745D01*
X100474284Y-111158736D01*
X100510776Y-111138989D01*
X100688440Y-111000706D01*
X100787814Y-110892757D01*
X100840915Y-110835076D01*
X100840916Y-110835074D01*
X100840922Y-110835068D01*
X100964060Y-110646591D01*
X101054496Y-110440416D01*
X101109764Y-110222168D01*
X101128356Y-109997800D01*
X101109764Y-109773432D01*
X101054496Y-109555184D01*
X100964060Y-109349009D01*
X100840922Y-109160532D01*
X100840919Y-109160529D01*
X100840915Y-109160523D01*
X100688443Y-108994897D01*
X100688438Y-108994892D01*
X100549321Y-108886612D01*
X100510776Y-108856611D01*
X100474270Y-108836855D01*
X100424679Y-108787636D01*
X100409571Y-108719419D01*
X100433741Y-108653864D01*
X100474270Y-108618745D01*
X100474284Y-108618736D01*
X100510776Y-108598989D01*
X100688440Y-108460706D01*
X100787814Y-108352757D01*
X100840915Y-108295076D01*
X100840916Y-108295074D01*
X100840922Y-108295068D01*
X100964060Y-108106591D01*
X101054496Y-107900416D01*
X101109764Y-107682168D01*
X101128356Y-107457800D01*
X101109764Y-107233432D01*
X101054496Y-107015184D01*
X100964060Y-106809009D01*
X100840922Y-106620532D01*
X100840919Y-106620529D01*
X100840915Y-106620523D01*
X100688443Y-106454897D01*
X100688438Y-106454892D01*
X100549321Y-106346612D01*
X100510776Y-106316611D01*
X100474270Y-106296855D01*
X100424679Y-106247636D01*
X100409571Y-106179419D01*
X100433741Y-106113864D01*
X100474270Y-106078745D01*
X100474284Y-106078736D01*
X100510776Y-106058989D01*
X100688440Y-105920706D01*
X100787814Y-105812757D01*
X100840915Y-105755076D01*
X100840916Y-105755074D01*
X100840922Y-105755068D01*
X100964060Y-105566591D01*
X101054496Y-105360416D01*
X101109764Y-105142168D01*
X101128356Y-104917800D01*
X101109764Y-104693432D01*
X101054496Y-104475184D01*
X100964060Y-104269009D01*
X100840922Y-104080532D01*
X100840919Y-104080529D01*
X100840915Y-104080523D01*
X100688443Y-103914897D01*
X100688438Y-103914892D01*
X100549321Y-103806612D01*
X100510776Y-103776611D01*
X100474270Y-103756855D01*
X100424679Y-103707636D01*
X100409571Y-103639419D01*
X100433741Y-103573864D01*
X100474270Y-103538745D01*
X100474284Y-103538736D01*
X100510776Y-103518989D01*
X100688440Y-103380706D01*
X100787814Y-103272757D01*
X100840915Y-103215076D01*
X100840916Y-103215074D01*
X100840922Y-103215068D01*
X100964060Y-103026591D01*
X101054496Y-102820416D01*
X101109764Y-102602168D01*
X101128356Y-102377800D01*
X101118785Y-102262300D01*
X101109765Y-102153440D01*
X101109763Y-102153428D01*
X101062093Y-101965184D01*
X101054496Y-101935184D01*
X100996276Y-101802454D01*
X129360300Y-101802454D01*
X129366811Y-101863002D01*
X129366811Y-101863004D01*
X129404924Y-101965185D01*
X129417911Y-102000004D01*
X129505539Y-102117061D01*
X129622596Y-102204689D01*
X129759599Y-102255789D01*
X129786850Y-102258718D01*
X129820145Y-102262299D01*
X129820162Y-102262300D01*
X132917438Y-102262300D01*
X132917454Y-102262299D01*
X132944492Y-102259391D01*
X132978001Y-102255789D01*
X133115004Y-102204689D01*
X133232061Y-102117061D01*
X133319689Y-102000004D01*
X133370789Y-101863001D01*
X133374391Y-101829492D01*
X133377299Y-101802454D01*
X133377300Y-101802437D01*
X133377300Y-100253801D01*
X134443691Y-100253801D01*
X134464100Y-100539162D01*
X134524909Y-100818695D01*
X134624891Y-101086758D01*
X134761991Y-101337838D01*
X134761996Y-101337846D01*
X134868682Y-101480361D01*
X134868683Y-101480362D01*
X135653320Y-100695724D01*
X135714643Y-100662239D01*
X135784334Y-100667223D01*
X135840268Y-100709094D01*
X135840464Y-100709357D01*
X135892233Y-100778894D01*
X135997925Y-100867581D01*
X136036627Y-100925752D01*
X136037735Y-100995613D01*
X136005900Y-101050251D01*
X135222236Y-101833914D01*
X135222236Y-101833915D01*
X135364760Y-101940607D01*
X135364761Y-101940608D01*
X135615842Y-102077708D01*
X135615841Y-102077708D01*
X135883904Y-102177690D01*
X136163437Y-102238499D01*
X136448799Y-102258909D01*
X136448801Y-102258909D01*
X136734162Y-102238499D01*
X137013695Y-102177690D01*
X137281758Y-102077708D01*
X137532847Y-101940603D01*
X137675361Y-101833916D01*
X137675362Y-101833915D01*
X137643901Y-101802454D01*
X142111100Y-101802454D01*
X142117611Y-101863002D01*
X142117611Y-101863004D01*
X142155724Y-101965185D01*
X142168711Y-102000004D01*
X142256339Y-102117061D01*
X142373396Y-102204689D01*
X142510399Y-102255789D01*
X142537650Y-102258718D01*
X142570945Y-102262299D01*
X142570962Y-102262300D01*
X145668238Y-102262300D01*
X145668254Y-102262299D01*
X145695292Y-102259391D01*
X145728801Y-102255789D01*
X145865804Y-102204689D01*
X145982861Y-102117061D01*
X146070489Y-102000004D01*
X146121589Y-101863001D01*
X146125191Y-101829492D01*
X146128099Y-101802454D01*
X146128100Y-101802437D01*
X146128100Y-100253801D01*
X147194491Y-100253801D01*
X147214900Y-100539162D01*
X147275709Y-100818695D01*
X147375691Y-101086758D01*
X147512791Y-101337838D01*
X147512796Y-101337846D01*
X147619482Y-101480361D01*
X147619483Y-101480362D01*
X148404120Y-100695724D01*
X148465443Y-100662239D01*
X148535134Y-100667223D01*
X148591068Y-100709094D01*
X148591264Y-100709357D01*
X148643033Y-100778894D01*
X148748725Y-100867581D01*
X148787427Y-100925752D01*
X148788535Y-100995613D01*
X148756700Y-101050251D01*
X147973036Y-101833914D01*
X147973036Y-101833915D01*
X148115560Y-101940607D01*
X148115561Y-101940608D01*
X148366642Y-102077708D01*
X148366641Y-102077708D01*
X148634704Y-102177690D01*
X148914237Y-102238499D01*
X149199599Y-102258909D01*
X149199601Y-102258909D01*
X149484962Y-102238499D01*
X149764495Y-102177690D01*
X150032558Y-102077708D01*
X150283647Y-101940603D01*
X150426161Y-101833916D01*
X150426162Y-101833915D01*
X149642695Y-101050448D01*
X149609210Y-100989125D01*
X149614194Y-100919433D01*
X149656066Y-100863500D01*
X149662238Y-100859166D01*
X149691444Y-100839957D01*
X149813364Y-100710730D01*
X149813364Y-100710729D01*
X149818320Y-100705477D01*
X149819822Y-100706894D01*
X149867436Y-100671043D01*
X149937114Y-100665863D01*
X149998531Y-100699177D01*
X149998776Y-100699422D01*
X150779715Y-101480362D01*
X150779716Y-101480361D01*
X150886403Y-101337847D01*
X151023508Y-101086758D01*
X151123490Y-100818695D01*
X151184299Y-100539162D01*
X151204709Y-100253801D01*
X151204709Y-100253798D01*
X151184299Y-99968437D01*
X151123490Y-99688904D01*
X151023508Y-99420841D01*
X150886408Y-99169761D01*
X150886407Y-99169760D01*
X150779715Y-99027236D01*
X149995078Y-99811874D01*
X149933755Y-99845359D01*
X149864063Y-99840375D01*
X149808130Y-99798503D01*
X149807934Y-99798241D01*
X149756166Y-99728705D01*
X149708733Y-99688904D01*
X149650471Y-99640015D01*
X149611770Y-99581846D01*
X149610662Y-99511985D01*
X149642497Y-99457347D01*
X150426162Y-98673683D01*
X150426161Y-98673682D01*
X150283646Y-98566996D01*
X150283638Y-98566991D01*
X150032557Y-98429891D01*
X150032558Y-98429891D01*
X149764495Y-98329909D01*
X149484962Y-98269100D01*
X149199601Y-98248691D01*
X149199599Y-98248691D01*
X148914237Y-98269100D01*
X148634704Y-98329909D01*
X148366641Y-98429891D01*
X148115561Y-98566991D01*
X148115553Y-98566996D01*
X147973036Y-98673682D01*
X147973036Y-98673683D01*
X148756504Y-99457151D01*
X148789989Y-99518474D01*
X148785005Y-99588166D01*
X148743133Y-99644099D01*
X148736965Y-99648431D01*
X148707755Y-99667643D01*
X148580880Y-99802123D01*
X148579382Y-99800710D01*
X148531725Y-99836570D01*
X148462046Y-99841727D01*
X148400640Y-99808394D01*
X148400423Y-99808177D01*
X147619483Y-99027236D01*
X147619482Y-99027237D01*
X147512796Y-99169753D01*
X147512791Y-99169761D01*
X147375691Y-99420841D01*
X147275709Y-99688904D01*
X147214900Y-99968437D01*
X147194491Y-100253798D01*
X147194491Y-100253801D01*
X146128100Y-100253801D01*
X146128100Y-98705162D01*
X146128099Y-98705145D01*
X146124716Y-98673682D01*
X146121589Y-98644599D01*
X146070489Y-98507596D01*
X145982861Y-98390539D01*
X145865804Y-98302911D01*
X145859882Y-98300702D01*
X145728803Y-98251811D01*
X145668254Y-98245300D01*
X145668238Y-98245300D01*
X142570962Y-98245300D01*
X142570945Y-98245300D01*
X142510397Y-98251811D01*
X142510395Y-98251811D01*
X142373395Y-98302911D01*
X142256339Y-98390539D01*
X142168711Y-98507595D01*
X142117611Y-98644595D01*
X142117611Y-98644597D01*
X142111100Y-98705145D01*
X142111100Y-101802454D01*
X137643901Y-101802454D01*
X136891895Y-101050448D01*
X136858410Y-100989125D01*
X136863394Y-100919433D01*
X136905266Y-100863500D01*
X136911438Y-100859166D01*
X136940644Y-100839957D01*
X137062564Y-100710730D01*
X137062564Y-100710729D01*
X137067520Y-100705477D01*
X137069022Y-100706894D01*
X137116636Y-100671043D01*
X137186314Y-100665863D01*
X137247731Y-100699177D01*
X137247976Y-100699422D01*
X138028915Y-101480362D01*
X138028916Y-101480361D01*
X138135603Y-101337847D01*
X138272708Y-101086758D01*
X138372690Y-100818695D01*
X138433499Y-100539162D01*
X138453909Y-100253801D01*
X138453909Y-100253798D01*
X138433499Y-99968437D01*
X138372690Y-99688904D01*
X138272708Y-99420841D01*
X138135608Y-99169761D01*
X138135607Y-99169760D01*
X138028915Y-99027236D01*
X137244278Y-99811874D01*
X137182955Y-99845359D01*
X137113263Y-99840375D01*
X137057330Y-99798503D01*
X137057134Y-99798241D01*
X137005366Y-99728705D01*
X136957933Y-99688904D01*
X136899671Y-99640015D01*
X136860970Y-99581846D01*
X136859862Y-99511985D01*
X136891697Y-99457347D01*
X137675362Y-98673683D01*
X137675361Y-98673682D01*
X137532846Y-98566996D01*
X137532838Y-98566991D01*
X137281757Y-98429891D01*
X137281758Y-98429891D01*
X137013695Y-98329909D01*
X136734162Y-98269100D01*
X136448801Y-98248691D01*
X136448799Y-98248691D01*
X136163437Y-98269100D01*
X135883904Y-98329909D01*
X135615841Y-98429891D01*
X135364761Y-98566991D01*
X135364753Y-98566996D01*
X135222236Y-98673682D01*
X135222236Y-98673683D01*
X136005704Y-99457151D01*
X136039189Y-99518474D01*
X136034205Y-99588166D01*
X135992333Y-99644099D01*
X135986165Y-99648431D01*
X135956955Y-99667643D01*
X135830080Y-99802123D01*
X135828582Y-99800710D01*
X135780925Y-99836570D01*
X135711246Y-99841727D01*
X135649840Y-99808394D01*
X135649623Y-99808177D01*
X134868683Y-99027236D01*
X134868682Y-99027237D01*
X134761996Y-99169753D01*
X134761991Y-99169761D01*
X134624891Y-99420841D01*
X134524909Y-99688904D01*
X134464100Y-99968437D01*
X134443691Y-100253798D01*
X134443691Y-100253801D01*
X133377300Y-100253801D01*
X133377300Y-98705162D01*
X133377299Y-98705145D01*
X133373916Y-98673682D01*
X133370789Y-98644599D01*
X133319689Y-98507596D01*
X133232061Y-98390539D01*
X133115004Y-98302911D01*
X133109082Y-98300702D01*
X132978003Y-98251811D01*
X132917454Y-98245300D01*
X132917438Y-98245300D01*
X129820162Y-98245300D01*
X129820145Y-98245300D01*
X129759597Y-98251811D01*
X129759595Y-98251811D01*
X129622595Y-98302911D01*
X129505539Y-98390539D01*
X129417911Y-98507595D01*
X129366811Y-98644595D01*
X129366811Y-98644597D01*
X129360300Y-98705145D01*
X129360300Y-101802454D01*
X100996276Y-101802454D01*
X100964060Y-101729009D01*
X100840922Y-101540532D01*
X100840919Y-101540529D01*
X100840915Y-101540523D01*
X100688443Y-101374897D01*
X100688438Y-101374892D01*
X100549321Y-101266612D01*
X100510776Y-101236611D01*
X100474270Y-101216855D01*
X100424679Y-101167636D01*
X100409571Y-101099419D01*
X100433741Y-101033864D01*
X100474270Y-100998745D01*
X100480057Y-100995613D01*
X100510776Y-100978989D01*
X100688440Y-100840706D01*
X100787814Y-100732757D01*
X100840915Y-100675076D01*
X100840916Y-100675074D01*
X100840922Y-100675068D01*
X100964060Y-100486591D01*
X101054496Y-100280416D01*
X101109764Y-100062168D01*
X101109765Y-100062159D01*
X101128356Y-99837805D01*
X101128356Y-99837794D01*
X101109765Y-99613440D01*
X101109763Y-99613428D01*
X101098770Y-99570016D01*
X101054496Y-99395184D01*
X100964060Y-99189009D01*
X100951479Y-99169753D01*
X100858369Y-99027237D01*
X100840922Y-99000532D01*
X100840919Y-99000529D01*
X100840915Y-99000523D01*
X100688443Y-98834897D01*
X100688438Y-98834892D01*
X100549321Y-98726612D01*
X100510776Y-98696611D01*
X100474270Y-98676855D01*
X100424679Y-98627636D01*
X100409571Y-98559419D01*
X100433741Y-98493864D01*
X100474270Y-98458745D01*
X100474284Y-98458736D01*
X100510776Y-98438989D01*
X100688440Y-98300706D01*
X100787814Y-98192757D01*
X100840915Y-98135076D01*
X100840916Y-98135074D01*
X100840922Y-98135068D01*
X100964060Y-97946591D01*
X101054496Y-97740416D01*
X101109764Y-97522168D01*
X101128356Y-97297800D01*
X101109764Y-97073432D01*
X101054496Y-96855184D01*
X100964060Y-96649009D01*
X100840922Y-96460532D01*
X100840919Y-96460529D01*
X100840915Y-96460523D01*
X100688443Y-96294897D01*
X100688438Y-96294892D01*
X100549321Y-96186612D01*
X100510776Y-96156611D01*
X100474270Y-96136855D01*
X100424679Y-96087636D01*
X100409571Y-96019419D01*
X100433741Y-95953864D01*
X100474270Y-95918745D01*
X100474284Y-95918736D01*
X100510776Y-95898989D01*
X100688440Y-95760706D01*
X100787814Y-95652757D01*
X100840915Y-95595076D01*
X100840916Y-95595074D01*
X100840922Y-95595068D01*
X100964060Y-95406591D01*
X101054496Y-95200416D01*
X101109764Y-94982168D01*
X101128356Y-94757800D01*
X101109764Y-94533432D01*
X101054496Y-94315184D01*
X100964060Y-94109009D01*
X100840922Y-93920532D01*
X100840919Y-93920529D01*
X100840915Y-93920523D01*
X100688443Y-93754897D01*
X100688438Y-93754892D01*
X100549321Y-93646612D01*
X100510776Y-93616611D01*
X100474270Y-93596855D01*
X100424679Y-93547636D01*
X100409571Y-93479419D01*
X100433741Y-93413864D01*
X100474270Y-93378745D01*
X100474284Y-93378736D01*
X100510776Y-93358989D01*
X100688440Y-93220706D01*
X100787814Y-93112757D01*
X100840915Y-93055076D01*
X100840916Y-93055074D01*
X100840922Y-93055068D01*
X100964060Y-92866591D01*
X101054496Y-92660416D01*
X101109764Y-92442168D01*
X101128356Y-92217800D01*
X101109764Y-91993432D01*
X101054496Y-91775184D01*
X100964060Y-91569009D01*
X100840922Y-91380532D01*
X100840919Y-91380529D01*
X100840915Y-91380523D01*
X100688443Y-91214897D01*
X100688438Y-91214892D01*
X100549321Y-91106612D01*
X100510776Y-91076611D01*
X100474270Y-91056855D01*
X100424679Y-91007636D01*
X100409571Y-90939419D01*
X100433741Y-90873864D01*
X100474270Y-90838745D01*
X100474284Y-90838736D01*
X100510776Y-90818989D01*
X100688440Y-90680706D01*
X100787814Y-90572757D01*
X100840915Y-90515076D01*
X100840916Y-90515074D01*
X100840922Y-90515068D01*
X100964060Y-90326591D01*
X101054496Y-90120416D01*
X101109764Y-89902168D01*
X101128356Y-89677800D01*
X101109764Y-89453432D01*
X101054496Y-89235184D01*
X100964060Y-89029009D01*
X100840922Y-88840532D01*
X100840919Y-88840529D01*
X100840915Y-88840523D01*
X100688443Y-88674897D01*
X100688438Y-88674892D01*
X100549321Y-88566612D01*
X100510776Y-88536611D01*
X100474270Y-88516855D01*
X100424679Y-88467636D01*
X100409571Y-88399419D01*
X100433741Y-88333864D01*
X100474270Y-88298745D01*
X100474284Y-88298736D01*
X100510776Y-88278989D01*
X100688440Y-88140706D01*
X100787814Y-88032757D01*
X100840915Y-87975076D01*
X100840916Y-87975074D01*
X100840922Y-87975068D01*
X100964060Y-87786591D01*
X101054496Y-87580416D01*
X101109764Y-87362168D01*
X101128356Y-87137800D01*
X101109764Y-86913432D01*
X101054496Y-86695184D01*
X100964060Y-86489009D01*
X100840922Y-86300532D01*
X100840919Y-86300529D01*
X100840915Y-86300523D01*
X100688443Y-86134897D01*
X100688438Y-86134892D01*
X100549321Y-86026612D01*
X100510776Y-85996611D01*
X100474270Y-85976855D01*
X100424679Y-85927636D01*
X100409571Y-85859419D01*
X100433741Y-85793864D01*
X100474270Y-85758745D01*
X100474284Y-85758736D01*
X100510776Y-85738989D01*
X100688440Y-85600706D01*
X100787814Y-85492757D01*
X100840915Y-85435076D01*
X100840916Y-85435074D01*
X100840922Y-85435068D01*
X100964060Y-85246591D01*
X101054496Y-85040416D01*
X101109764Y-84822168D01*
X101128356Y-84597800D01*
X101109764Y-84373432D01*
X101054496Y-84155184D01*
X100964060Y-83949009D01*
X100840922Y-83760532D01*
X100840919Y-83760529D01*
X100840915Y-83760523D01*
X100695710Y-83602791D01*
X100664787Y-83540137D01*
X100672647Y-83470711D01*
X100716794Y-83416555D01*
X100743605Y-83402627D01*
X100823784Y-83372720D01*
X100861404Y-83358689D01*
X100978461Y-83271061D01*
X101066089Y-83154004D01*
X101117189Y-83017001D01*
X101120791Y-82983492D01*
X101123699Y-82956454D01*
X101123700Y-82956437D01*
X101123700Y-81159162D01*
X101123699Y-81159145D01*
X101120357Y-81128070D01*
X101117189Y-81098599D01*
X101066089Y-80961596D01*
X100978461Y-80844539D01*
X100861404Y-80756911D01*
X100861403Y-80756910D01*
X100724403Y-80705811D01*
X100663854Y-80699300D01*
X100663838Y-80699300D01*
X98866562Y-80699300D01*
X98866545Y-80699300D01*
X98805997Y-80705811D01*
X98805995Y-80705811D01*
X98668995Y-80756911D01*
X98551939Y-80844539D01*
X98464311Y-80961595D01*
X98413211Y-81098595D01*
X98413211Y-81098597D01*
X98406700Y-81159145D01*
X98406700Y-82956454D01*
X98413211Y-83017002D01*
X98413211Y-83017004D01*
X98464310Y-83154004D01*
X98464311Y-83154004D01*
X98551939Y-83271061D01*
X98668996Y-83358689D01*
X98720937Y-83378062D01*
X98786795Y-83402627D01*
X98842728Y-83444499D01*
X98867144Y-83509963D01*
X98852292Y-83578236D01*
X98834690Y-83602791D01*
X98689479Y-83760530D01*
X98689476Y-83760534D01*
X98566340Y-83949007D01*
X98475903Y-84155185D01*
X98420636Y-84373428D01*
X98420634Y-84373440D01*
X98402044Y-84597794D01*
X98402044Y-84597805D01*
X98420634Y-84822159D01*
X98420636Y-84822171D01*
X98475903Y-85040414D01*
X98566340Y-85246592D01*
X98689476Y-85435065D01*
X98689484Y-85435076D01*
X98841956Y-85600702D01*
X98841961Y-85600707D01*
X98880505Y-85630707D01*
X99019624Y-85738989D01*
X99019629Y-85738991D01*
X99019631Y-85738993D01*
X99056130Y-85758746D01*
X99105720Y-85807965D01*
X99120828Y-85876182D01*
X99096657Y-85941737D01*
X99056130Y-85976854D01*
X99019631Y-85996606D01*
X99019622Y-85996612D01*
X98841961Y-86134892D01*
X98841956Y-86134897D01*
X98689484Y-86300523D01*
X98689476Y-86300534D01*
X98566340Y-86489007D01*
X98475903Y-86695185D01*
X98420636Y-86913428D01*
X98420634Y-86913440D01*
X98402044Y-87137794D01*
X98402044Y-87137805D01*
X98420634Y-87362159D01*
X98420636Y-87362171D01*
X98475903Y-87580414D01*
X98566340Y-87786592D01*
X98689476Y-87975065D01*
X98689484Y-87975076D01*
X98841956Y-88140702D01*
X98841961Y-88140707D01*
X98880505Y-88170707D01*
X99019624Y-88278989D01*
X99019629Y-88278991D01*
X99019631Y-88278993D01*
X99056130Y-88298746D01*
X99105720Y-88347965D01*
X99120828Y-88416182D01*
X99096657Y-88481737D01*
X99056130Y-88516854D01*
X99019631Y-88536606D01*
X99019622Y-88536612D01*
X98841961Y-88674892D01*
X98841956Y-88674897D01*
X98689484Y-88840523D01*
X98689476Y-88840534D01*
X98566340Y-89029007D01*
X98475903Y-89235185D01*
X98420636Y-89453428D01*
X98420634Y-89453440D01*
X98402044Y-89677794D01*
X98402044Y-89677805D01*
X98420634Y-89902159D01*
X98420636Y-89902171D01*
X98475903Y-90120414D01*
X98566340Y-90326592D01*
X98689476Y-90515065D01*
X98689484Y-90515076D01*
X98841956Y-90680702D01*
X98841961Y-90680707D01*
X98880505Y-90710707D01*
X99019624Y-90818989D01*
X99019629Y-90818991D01*
X99019631Y-90818993D01*
X99056130Y-90838746D01*
X99105720Y-90887965D01*
X99120828Y-90956182D01*
X99096657Y-91021737D01*
X99056130Y-91056854D01*
X99019631Y-91076606D01*
X99019622Y-91076612D01*
X98841961Y-91214892D01*
X98841956Y-91214897D01*
X98689484Y-91380523D01*
X98689476Y-91380534D01*
X98566340Y-91569007D01*
X98475903Y-91775185D01*
X98420636Y-91993428D01*
X98420634Y-91993440D01*
X98402044Y-92217794D01*
X98402044Y-92217805D01*
X98420634Y-92442159D01*
X98420636Y-92442171D01*
X98475903Y-92660414D01*
X98566340Y-92866592D01*
X98689476Y-93055065D01*
X98689484Y-93055076D01*
X98841956Y-93220702D01*
X98841961Y-93220707D01*
X98880505Y-93250707D01*
X99019624Y-93358989D01*
X99019629Y-93358991D01*
X99019631Y-93358993D01*
X99056130Y-93378746D01*
X99105720Y-93427965D01*
X99120828Y-93496182D01*
X99096657Y-93561737D01*
X99056130Y-93596854D01*
X99019631Y-93616606D01*
X99019622Y-93616612D01*
X98841961Y-93754892D01*
X98841956Y-93754897D01*
X98689484Y-93920523D01*
X98689476Y-93920534D01*
X98566340Y-94109007D01*
X98475903Y-94315185D01*
X98420636Y-94533428D01*
X98420634Y-94533440D01*
X98402044Y-94757794D01*
X98402044Y-94757805D01*
X98420634Y-94982159D01*
X98420636Y-94982171D01*
X98475903Y-95200414D01*
X98566340Y-95406592D01*
X98689476Y-95595065D01*
X98689484Y-95595076D01*
X98841956Y-95760702D01*
X98841961Y-95760707D01*
X98880505Y-95790707D01*
X99019624Y-95898989D01*
X99019629Y-95898991D01*
X99019631Y-95898993D01*
X99056130Y-95918746D01*
X99105720Y-95967965D01*
X99120828Y-96036182D01*
X99096657Y-96101737D01*
X99056130Y-96136854D01*
X99019631Y-96156606D01*
X99019622Y-96156612D01*
X98841961Y-96294892D01*
X98841956Y-96294897D01*
X98689484Y-96460523D01*
X98689476Y-96460534D01*
X98566340Y-96649007D01*
X98475903Y-96855185D01*
X98420636Y-97073428D01*
X98420634Y-97073440D01*
X98402044Y-97297794D01*
X98402044Y-97297805D01*
X98420634Y-97522159D01*
X98420636Y-97522171D01*
X98475903Y-97740414D01*
X98566340Y-97946592D01*
X98689476Y-98135065D01*
X98689484Y-98135076D01*
X98841956Y-98300702D01*
X98841961Y-98300707D01*
X98880505Y-98330707D01*
X99019624Y-98438989D01*
X99019629Y-98438991D01*
X99019631Y-98438993D01*
X99056130Y-98458746D01*
X99105720Y-98507965D01*
X99120828Y-98576182D01*
X99096657Y-98641737D01*
X99056130Y-98676854D01*
X99019631Y-98696606D01*
X99019622Y-98696612D01*
X98841961Y-98834892D01*
X98841956Y-98834897D01*
X98689484Y-99000523D01*
X98689476Y-99000534D01*
X98566340Y-99189007D01*
X98475903Y-99395185D01*
X98420636Y-99613428D01*
X98420634Y-99613440D01*
X98402044Y-99837794D01*
X98402044Y-99837805D01*
X98420634Y-100062159D01*
X98420636Y-100062171D01*
X98475903Y-100280414D01*
X98566340Y-100486592D01*
X98689476Y-100675065D01*
X98689484Y-100675076D01*
X98841956Y-100840702D01*
X98841961Y-100840707D01*
X98880505Y-100870707D01*
X99019624Y-100978989D01*
X99019629Y-100978991D01*
X99019631Y-100978993D01*
X99056130Y-100998746D01*
X99105720Y-101047965D01*
X99120828Y-101116182D01*
X99096657Y-101181737D01*
X99056130Y-101216854D01*
X99019631Y-101236606D01*
X99019622Y-101236612D01*
X98841961Y-101374892D01*
X98841956Y-101374897D01*
X98689484Y-101540523D01*
X98689476Y-101540534D01*
X98566340Y-101729007D01*
X98475903Y-101935185D01*
X98420636Y-102153428D01*
X98420634Y-102153440D01*
X98402044Y-102377794D01*
X98402044Y-102377805D01*
X98420634Y-102602159D01*
X98420636Y-102602171D01*
X98475903Y-102820414D01*
X98566340Y-103026592D01*
X98689476Y-103215065D01*
X98689484Y-103215076D01*
X98841956Y-103380702D01*
X98841961Y-103380707D01*
X98880505Y-103410707D01*
X99019624Y-103518989D01*
X99019629Y-103518991D01*
X99019631Y-103518993D01*
X99056130Y-103538746D01*
X99105720Y-103587965D01*
X99120828Y-103656182D01*
X99096657Y-103721737D01*
X99056130Y-103756854D01*
X99019631Y-103776606D01*
X99019622Y-103776612D01*
X98841961Y-103914892D01*
X98841956Y-103914897D01*
X98689484Y-104080523D01*
X98689476Y-104080534D01*
X98566340Y-104269007D01*
X98475903Y-104475185D01*
X98420636Y-104693428D01*
X98420634Y-104693440D01*
X98402044Y-104917794D01*
X98402044Y-104917805D01*
X98420634Y-105142159D01*
X98420636Y-105142171D01*
X98475903Y-105360414D01*
X98566340Y-105566592D01*
X98689476Y-105755065D01*
X98689484Y-105755076D01*
X98841956Y-105920702D01*
X98841961Y-105920707D01*
X98880505Y-105950707D01*
X99019624Y-106058989D01*
X99019629Y-106058991D01*
X99019631Y-106058993D01*
X99056130Y-106078746D01*
X99105720Y-106127965D01*
X99120828Y-106196182D01*
X99096657Y-106261737D01*
X99056130Y-106296854D01*
X99019631Y-106316606D01*
X99019622Y-106316612D01*
X98841961Y-106454892D01*
X98841956Y-106454897D01*
X98689484Y-106620523D01*
X98689476Y-106620534D01*
X98566340Y-106809007D01*
X98475903Y-107015185D01*
X98420636Y-107233428D01*
X98420634Y-107233440D01*
X98402044Y-107457794D01*
X98402044Y-107457805D01*
X98420634Y-107682159D01*
X98420636Y-107682171D01*
X98475903Y-107900414D01*
X98566340Y-108106592D01*
X98689476Y-108295065D01*
X98689484Y-108295076D01*
X98841956Y-108460702D01*
X98841961Y-108460707D01*
X98880505Y-108490707D01*
X99019624Y-108598989D01*
X99019629Y-108598991D01*
X99019631Y-108598993D01*
X99056130Y-108618746D01*
X99105720Y-108667965D01*
X99120828Y-108736182D01*
X99096657Y-108801737D01*
X99056130Y-108836854D01*
X99019631Y-108856606D01*
X99019622Y-108856612D01*
X98841961Y-108994892D01*
X98841956Y-108994897D01*
X98689484Y-109160523D01*
X98689476Y-109160534D01*
X98566340Y-109349007D01*
X98475903Y-109555185D01*
X98420636Y-109773428D01*
X98420634Y-109773440D01*
X98402044Y-109997794D01*
X98402044Y-109997805D01*
X98420634Y-110222159D01*
X98420636Y-110222171D01*
X98475903Y-110440414D01*
X98566340Y-110646592D01*
X98689476Y-110835065D01*
X98689484Y-110835076D01*
X98841956Y-111000702D01*
X98841961Y-111000707D01*
X98880505Y-111030707D01*
X99019624Y-111138989D01*
X99019629Y-111138991D01*
X99019631Y-111138993D01*
X99056130Y-111158746D01*
X99105720Y-111207965D01*
X99120828Y-111276182D01*
X99096657Y-111341737D01*
X99056130Y-111376854D01*
X99019631Y-111396606D01*
X99019622Y-111396612D01*
X98841961Y-111534892D01*
X98841956Y-111534897D01*
X98689484Y-111700523D01*
X98689476Y-111700534D01*
X98566340Y-111889007D01*
X98475903Y-112095185D01*
X98420636Y-112313428D01*
X98420634Y-112313440D01*
X98402044Y-112537794D01*
X98402044Y-112537805D01*
X98420634Y-112762159D01*
X98420636Y-112762171D01*
X98475903Y-112980414D01*
X98566340Y-113186592D01*
X98689476Y-113375065D01*
X98689484Y-113375076D01*
X98841956Y-113540702D01*
X98841961Y-113540707D01*
X98880505Y-113570707D01*
X99019624Y-113678989D01*
X99019629Y-113678991D01*
X99019631Y-113678993D01*
X99056130Y-113698746D01*
X99105720Y-113747965D01*
X99120828Y-113816182D01*
X99096657Y-113881737D01*
X99056130Y-113916854D01*
X99019631Y-113936606D01*
X99019622Y-113936612D01*
X98841961Y-114074892D01*
X98841956Y-114074897D01*
X98689484Y-114240523D01*
X98689476Y-114240534D01*
X98566340Y-114429007D01*
X98475903Y-114635185D01*
X98420636Y-114853428D01*
X98420634Y-114853440D01*
X98402044Y-115077794D01*
X98402044Y-115077805D01*
X98420634Y-115302159D01*
X98420636Y-115302171D01*
X98475903Y-115520414D01*
X98566340Y-115726592D01*
X98689476Y-115915065D01*
X98689484Y-115915076D01*
X98841956Y-116080702D01*
X98841961Y-116080707D01*
X98880505Y-116110707D01*
X99019624Y-116218989D01*
X99019629Y-116218991D01*
X99019631Y-116218993D01*
X99056130Y-116238746D01*
X99105720Y-116287965D01*
X99120828Y-116356182D01*
X99096657Y-116421737D01*
X99056130Y-116456854D01*
X99019631Y-116476606D01*
X99019622Y-116476612D01*
X98841961Y-116614892D01*
X98841956Y-116614897D01*
X98689484Y-116780523D01*
X98689476Y-116780534D01*
X98566340Y-116969007D01*
X98475903Y-117175185D01*
X98420636Y-117393428D01*
X98420634Y-117393440D01*
X98402044Y-117617794D01*
X98402044Y-117617805D01*
X92975700Y-117617805D01*
X92975700Y-71972800D01*
X94460327Y-71972800D01*
X94479812Y-72443909D01*
X94538133Y-72911789D01*
X94538134Y-72911789D01*
X94634894Y-73373259D01*
X94769432Y-73825165D01*
X94940826Y-74264415D01*
X94940826Y-74264416D01*
X95147914Y-74688020D01*
X95147915Y-74688021D01*
X95389269Y-75093066D01*
X95389268Y-75093065D01*
X95663250Y-75476801D01*
X95958749Y-75825695D01*
X96931582Y-74852862D01*
X96992905Y-74819377D01*
X97062596Y-74824361D01*
X97111141Y-74857270D01*
X97191769Y-74946230D01*
X97280728Y-75026857D01*
X97317182Y-75086463D01*
X97315623Y-75156315D01*
X97285136Y-75206416D01*
X96312302Y-76179248D01*
X96312303Y-76179250D01*
X96661199Y-76474750D01*
X97044935Y-76748732D01*
X97044934Y-76748731D01*
X97449979Y-76990085D01*
X97449980Y-76990086D01*
X97873584Y-77197174D01*
X97873585Y-77197174D01*
X98312835Y-77368568D01*
X98764741Y-77503106D01*
X99226211Y-77599866D01*
X99226211Y-77599867D01*
X99694091Y-77658188D01*
X100165200Y-77677673D01*
X100636309Y-77658188D01*
X101104189Y-77599867D01*
X101104189Y-77599866D01*
X101565659Y-77503106D01*
X102017565Y-77368568D01*
X102456815Y-77197174D01*
X102456816Y-77197174D01*
X102880420Y-76990086D01*
X102880421Y-76990085D01*
X103285466Y-76748731D01*
X103285465Y-76748732D01*
X103669201Y-76474750D01*
X104018095Y-76179250D01*
X104018095Y-76179249D01*
X103045262Y-75206416D01*
X103011777Y-75145093D01*
X103016761Y-75075401D01*
X103049668Y-75026860D01*
X103138630Y-74946230D01*
X103219259Y-74857268D01*
X103278862Y-74820817D01*
X103348714Y-74822374D01*
X103398816Y-74852862D01*
X104371649Y-75825695D01*
X104371650Y-75825695D01*
X104667150Y-75476801D01*
X104941132Y-75093065D01*
X104941131Y-75093066D01*
X105182485Y-74688021D01*
X105182486Y-74688020D01*
X105389574Y-74264416D01*
X105389574Y-74264415D01*
X105560968Y-73825165D01*
X105695506Y-73373259D01*
X105792266Y-72911789D01*
X105792267Y-72911789D01*
X105834690Y-72571454D01*
X108831700Y-72571454D01*
X108838211Y-72632002D01*
X108838211Y-72632004D01*
X108889310Y-72769004D01*
X108889311Y-72769004D01*
X108976939Y-72886061D01*
X109093996Y-72973689D01*
X109230999Y-73024789D01*
X109258250Y-73027718D01*
X109291545Y-73031299D01*
X109291562Y-73031300D01*
X111088838Y-73031300D01*
X111088854Y-73031299D01*
X111115892Y-73028391D01*
X111149401Y-73024789D01*
X111286404Y-72973689D01*
X111403461Y-72886061D01*
X111491089Y-72769004D01*
X111536338Y-72647687D01*
X111578209Y-72591756D01*
X111643674Y-72567339D01*
X111711946Y-72582191D01*
X111743745Y-72607036D01*
X111806960Y-72675706D01*
X111984624Y-72813989D01*
X111984625Y-72813989D01*
X111984627Y-72813991D01*
X112111335Y-72882561D01*
X112182626Y-72921142D01*
X112395565Y-72994244D01*
X112617631Y-73031300D01*
X112842769Y-73031300D01*
X113064835Y-72994244D01*
X113277774Y-72921142D01*
X113475776Y-72813989D01*
X113653440Y-72675706D01*
X113805922Y-72510068D01*
X113896393Y-72371590D01*
X113949538Y-72326237D01*
X114018769Y-72316813D01*
X114082105Y-72346315D01*
X114104004Y-72371587D01*
X114194478Y-72510068D01*
X114194483Y-72510073D01*
X114194484Y-72510076D01*
X114321168Y-72647689D01*
X114346960Y-72675706D01*
X114524624Y-72813989D01*
X114524625Y-72813989D01*
X114524627Y-72813991D01*
X114651335Y-72882561D01*
X114722626Y-72921142D01*
X114935565Y-72994244D01*
X115157631Y-73031300D01*
X115382769Y-73031300D01*
X115604835Y-72994244D01*
X115817774Y-72921142D01*
X116015776Y-72813989D01*
X116193440Y-72675706D01*
X116345922Y-72510068D01*
X116436393Y-72371590D01*
X116489538Y-72326237D01*
X116558769Y-72316813D01*
X116622105Y-72346315D01*
X116644004Y-72371587D01*
X116734478Y-72510068D01*
X116734483Y-72510073D01*
X116734484Y-72510076D01*
X116861168Y-72647689D01*
X116886960Y-72675706D01*
X117064624Y-72813989D01*
X117064625Y-72813989D01*
X117064627Y-72813991D01*
X117191335Y-72882561D01*
X117262626Y-72921142D01*
X117475565Y-72994244D01*
X117697631Y-73031300D01*
X117922769Y-73031300D01*
X118144835Y-72994244D01*
X118357774Y-72921142D01*
X118555776Y-72813989D01*
X118733440Y-72675706D01*
X118885922Y-72510068D01*
X118976393Y-72371591D01*
X119029536Y-72326237D01*
X119098767Y-72316813D01*
X119162103Y-72346315D01*
X119184007Y-72371593D01*
X119274476Y-72510065D01*
X119274484Y-72510076D01*
X119401168Y-72647689D01*
X119426960Y-72675706D01*
X119604624Y-72813989D01*
X119604625Y-72813989D01*
X119604627Y-72813991D01*
X119731335Y-72882561D01*
X119802626Y-72921142D01*
X120015565Y-72994244D01*
X120237631Y-73031300D01*
X120462769Y-73031300D01*
X120684835Y-72994244D01*
X120897774Y-72921142D01*
X121095776Y-72813989D01*
X121273440Y-72675706D01*
X121425922Y-72510068D01*
X121516393Y-72371590D01*
X121569538Y-72326237D01*
X121638769Y-72316813D01*
X121702105Y-72346315D01*
X121724004Y-72371587D01*
X121814478Y-72510068D01*
X121814483Y-72510073D01*
X121814484Y-72510076D01*
X121941168Y-72647689D01*
X121966960Y-72675706D01*
X122144624Y-72813989D01*
X122144625Y-72813989D01*
X122144627Y-72813991D01*
X122271335Y-72882561D01*
X122342626Y-72921142D01*
X122555565Y-72994244D01*
X122777631Y-73031300D01*
X123002769Y-73031300D01*
X123224835Y-72994244D01*
X123437774Y-72921142D01*
X123635776Y-72813989D01*
X123813440Y-72675706D01*
X123965922Y-72510068D01*
X124056393Y-72371590D01*
X124109538Y-72326237D01*
X124178769Y-72316813D01*
X124242105Y-72346315D01*
X124264004Y-72371587D01*
X124354478Y-72510068D01*
X124354483Y-72510073D01*
X124354484Y-72510076D01*
X124481168Y-72647689D01*
X124506960Y-72675706D01*
X124684624Y-72813989D01*
X124684625Y-72813989D01*
X124684627Y-72813991D01*
X124811335Y-72882561D01*
X124882626Y-72921142D01*
X125095565Y-72994244D01*
X125317631Y-73031300D01*
X125542769Y-73031300D01*
X125764835Y-72994244D01*
X125977774Y-72921142D01*
X126175776Y-72813989D01*
X126353440Y-72675706D01*
X126505922Y-72510068D01*
X126596393Y-72371590D01*
X126649538Y-72326237D01*
X126718769Y-72316813D01*
X126782105Y-72346315D01*
X126804004Y-72371587D01*
X126894478Y-72510068D01*
X126894483Y-72510073D01*
X126894484Y-72510076D01*
X127021168Y-72647689D01*
X127046960Y-72675706D01*
X127224624Y-72813989D01*
X127224625Y-72813989D01*
X127224627Y-72813991D01*
X127351335Y-72882561D01*
X127422626Y-72921142D01*
X127635565Y-72994244D01*
X127857631Y-73031300D01*
X128082769Y-73031300D01*
X128304835Y-72994244D01*
X128517774Y-72921142D01*
X128715776Y-72813989D01*
X128893440Y-72675706D01*
X129045922Y-72510068D01*
X129136393Y-72371591D01*
X129189536Y-72326237D01*
X129258767Y-72316813D01*
X129322103Y-72346315D01*
X129344007Y-72371593D01*
X129434476Y-72510065D01*
X129434484Y-72510076D01*
X129561168Y-72647689D01*
X129586960Y-72675706D01*
X129764624Y-72813989D01*
X129764625Y-72813989D01*
X129764627Y-72813991D01*
X129891335Y-72882561D01*
X129962626Y-72921142D01*
X130175565Y-72994244D01*
X130397631Y-73031300D01*
X130622769Y-73031300D01*
X130844835Y-72994244D01*
X131057774Y-72921142D01*
X131255776Y-72813989D01*
X131433440Y-72675706D01*
X131585922Y-72510068D01*
X131676393Y-72371590D01*
X131729538Y-72326237D01*
X131798769Y-72316813D01*
X131862105Y-72346315D01*
X131884004Y-72371587D01*
X131974478Y-72510068D01*
X131974483Y-72510073D01*
X131974484Y-72510076D01*
X132101168Y-72647689D01*
X132126960Y-72675706D01*
X132304624Y-72813989D01*
X132304625Y-72813989D01*
X132304627Y-72813991D01*
X132431335Y-72882561D01*
X132502626Y-72921142D01*
X132715565Y-72994244D01*
X132937631Y-73031300D01*
X133162769Y-73031300D01*
X133384835Y-72994244D01*
X133597774Y-72921142D01*
X133795776Y-72813989D01*
X133973440Y-72675706D01*
X134125922Y-72510068D01*
X134216393Y-72371590D01*
X134269538Y-72326237D01*
X134338769Y-72316813D01*
X134402105Y-72346315D01*
X134424004Y-72371587D01*
X134514478Y-72510068D01*
X134514483Y-72510073D01*
X134514484Y-72510076D01*
X134641168Y-72647689D01*
X134666960Y-72675706D01*
X134844624Y-72813989D01*
X134844625Y-72813989D01*
X134844627Y-72813991D01*
X134971335Y-72882561D01*
X135042626Y-72921142D01*
X135255565Y-72994244D01*
X135477631Y-73031300D01*
X135702769Y-73031300D01*
X135924835Y-72994244D01*
X136137774Y-72921142D01*
X136335776Y-72813989D01*
X136513440Y-72675706D01*
X136665922Y-72510068D01*
X136756393Y-72371590D01*
X136809538Y-72326237D01*
X136878769Y-72316813D01*
X136942105Y-72346315D01*
X136964004Y-72371587D01*
X137054478Y-72510068D01*
X137054483Y-72510073D01*
X137054484Y-72510076D01*
X137181168Y-72647689D01*
X137206960Y-72675706D01*
X137384624Y-72813989D01*
X137384625Y-72813989D01*
X137384627Y-72813991D01*
X137511335Y-72882561D01*
X137582626Y-72921142D01*
X137795565Y-72994244D01*
X138017631Y-73031300D01*
X138242769Y-73031300D01*
X138464835Y-72994244D01*
X138677774Y-72921142D01*
X138875776Y-72813989D01*
X139053440Y-72675706D01*
X139205922Y-72510068D01*
X139296393Y-72371590D01*
X139349538Y-72326237D01*
X139418769Y-72316813D01*
X139482105Y-72346315D01*
X139504004Y-72371587D01*
X139594478Y-72510068D01*
X139594483Y-72510073D01*
X139594484Y-72510076D01*
X139721168Y-72647689D01*
X139746960Y-72675706D01*
X139924624Y-72813989D01*
X139924625Y-72813989D01*
X139924627Y-72813991D01*
X140051335Y-72882561D01*
X140122626Y-72921142D01*
X140335565Y-72994244D01*
X140557631Y-73031300D01*
X140782769Y-73031300D01*
X141004835Y-72994244D01*
X141217774Y-72921142D01*
X141415776Y-72813989D01*
X141593440Y-72675706D01*
X141745922Y-72510068D01*
X141836393Y-72371590D01*
X141889538Y-72326237D01*
X141958769Y-72316813D01*
X142022105Y-72346315D01*
X142044004Y-72371587D01*
X142134478Y-72510068D01*
X142134483Y-72510073D01*
X142134484Y-72510076D01*
X142261168Y-72647689D01*
X142286960Y-72675706D01*
X142464624Y-72813989D01*
X142464625Y-72813989D01*
X142464627Y-72813991D01*
X142591335Y-72882561D01*
X142662626Y-72921142D01*
X142875565Y-72994244D01*
X143097631Y-73031300D01*
X143322769Y-73031300D01*
X143544835Y-72994244D01*
X143757774Y-72921142D01*
X143955776Y-72813989D01*
X144133440Y-72675706D01*
X144285922Y-72510068D01*
X144376393Y-72371590D01*
X144429538Y-72326237D01*
X144498769Y-72316813D01*
X144562105Y-72346315D01*
X144584004Y-72371587D01*
X144674478Y-72510068D01*
X144674483Y-72510073D01*
X144674484Y-72510076D01*
X144801168Y-72647689D01*
X144826960Y-72675706D01*
X145004624Y-72813989D01*
X145004625Y-72813989D01*
X145004627Y-72813991D01*
X145131335Y-72882561D01*
X145202626Y-72921142D01*
X145415565Y-72994244D01*
X145637631Y-73031300D01*
X145862769Y-73031300D01*
X146084835Y-72994244D01*
X146297774Y-72921142D01*
X146495776Y-72813989D01*
X146673440Y-72675706D01*
X146825922Y-72510068D01*
X146949060Y-72321591D01*
X147039496Y-72115416D01*
X147071813Y-71987800D01*
X150060327Y-71987800D01*
X150079812Y-72458909D01*
X150138133Y-72926789D01*
X150138134Y-72926789D01*
X150234894Y-73388259D01*
X150369432Y-73840165D01*
X150540826Y-74279415D01*
X150540826Y-74279416D01*
X150747914Y-74703020D01*
X150747915Y-74703021D01*
X150989269Y-75108066D01*
X150989268Y-75108065D01*
X151263250Y-75491801D01*
X151558749Y-75840695D01*
X152531582Y-74867862D01*
X152592905Y-74834377D01*
X152662596Y-74839361D01*
X152711141Y-74872270D01*
X152791769Y-74961230D01*
X152880728Y-75041857D01*
X152917182Y-75101463D01*
X152915623Y-75171315D01*
X152885136Y-75221416D01*
X151912303Y-76194248D01*
X151912303Y-76194250D01*
X152261199Y-76489750D01*
X152644935Y-76763732D01*
X152644934Y-76763731D01*
X153049979Y-77005085D01*
X153049980Y-77005086D01*
X153473584Y-77212174D01*
X153473585Y-77212174D01*
X153912835Y-77383568D01*
X154364741Y-77518106D01*
X154826211Y-77614866D01*
X154826211Y-77614867D01*
X155294091Y-77673188D01*
X155765200Y-77692673D01*
X156236309Y-77673188D01*
X156704189Y-77614867D01*
X156704189Y-77614866D01*
X157165659Y-77518106D01*
X157617565Y-77383568D01*
X158056815Y-77212174D01*
X158056816Y-77212174D01*
X158480420Y-77005086D01*
X158480421Y-77005085D01*
X158885466Y-76763731D01*
X158885465Y-76763732D01*
X159269201Y-76489750D01*
X159618095Y-76194250D01*
X159618095Y-76194249D01*
X158645262Y-75221416D01*
X158611777Y-75160093D01*
X158616761Y-75090401D01*
X158649668Y-75041860D01*
X158738630Y-74961230D01*
X158819259Y-74872268D01*
X158878862Y-74835817D01*
X158948714Y-74837374D01*
X158998816Y-74867862D01*
X159971649Y-75840695D01*
X159971650Y-75840695D01*
X160267150Y-75491801D01*
X160541132Y-75108065D01*
X160541131Y-75108066D01*
X160782485Y-74703021D01*
X160782486Y-74703020D01*
X160989574Y-74279416D01*
X160989574Y-74279415D01*
X161160968Y-73840165D01*
X161295506Y-73388259D01*
X161392266Y-72926789D01*
X161392267Y-72926789D01*
X161450588Y-72458909D01*
X161470073Y-71987800D01*
X161450588Y-71516691D01*
X161392267Y-71048811D01*
X161392266Y-71048811D01*
X161295506Y-70587341D01*
X161160968Y-70135435D01*
X160989574Y-69696185D01*
X160989574Y-69696184D01*
X160782486Y-69272580D01*
X160782485Y-69272579D01*
X160541131Y-68867534D01*
X160541132Y-68867535D01*
X160267150Y-68483799D01*
X159971650Y-68134903D01*
X159971648Y-68134903D01*
X158998816Y-69107736D01*
X158937493Y-69141221D01*
X158867801Y-69136237D01*
X158819257Y-69103328D01*
X158738630Y-69014369D01*
X158649670Y-68933741D01*
X158613216Y-68874135D01*
X158614775Y-68804283D01*
X158645262Y-68754182D01*
X159618095Y-67781349D01*
X159269201Y-67485850D01*
X158885465Y-67211868D01*
X158885466Y-67211869D01*
X158480421Y-66970515D01*
X158480420Y-66970514D01*
X158056816Y-66763426D01*
X158056815Y-66763426D01*
X157617565Y-66592032D01*
X157165659Y-66457494D01*
X156704189Y-66360734D01*
X156704189Y-66360733D01*
X156236309Y-66302412D01*
X155765200Y-66282927D01*
X155294091Y-66302412D01*
X154826211Y-66360733D01*
X154826211Y-66360734D01*
X154364741Y-66457494D01*
X153912835Y-66592032D01*
X153473585Y-66763426D01*
X153473584Y-66763426D01*
X153049980Y-66970514D01*
X153049979Y-66970515D01*
X152644934Y-67211869D01*
X152644935Y-67211868D01*
X152261199Y-67485850D01*
X151912303Y-67781349D01*
X152885136Y-68754182D01*
X152918621Y-68815505D01*
X152913637Y-68885197D01*
X152880729Y-68933740D01*
X152791769Y-69014369D01*
X152711140Y-69103329D01*
X152651534Y-69139782D01*
X152581681Y-69138223D01*
X152531582Y-69107736D01*
X151558749Y-68134903D01*
X151263250Y-68483799D01*
X150989268Y-68867535D01*
X150989269Y-68867534D01*
X150747915Y-69272579D01*
X150747914Y-69272580D01*
X150540826Y-69696184D01*
X150540826Y-69696185D01*
X150369432Y-70135435D01*
X150234894Y-70587341D01*
X150138134Y-71048811D01*
X150138133Y-71048811D01*
X150079812Y-71516691D01*
X150060327Y-71987800D01*
X147071813Y-71987800D01*
X147094764Y-71897168D01*
X147113356Y-71672800D01*
X147105304Y-71575632D01*
X147094765Y-71448440D01*
X147094763Y-71448428D01*
X147039496Y-71230185D01*
X147005391Y-71152433D01*
X146949060Y-71024009D01*
X146932906Y-70999284D01*
X146825923Y-70835534D01*
X146825915Y-70835523D01*
X146673443Y-70669897D01*
X146673438Y-70669892D01*
X146495777Y-70531612D01*
X146495772Y-70531608D01*
X146297780Y-70424461D01*
X146297777Y-70424459D01*
X146297774Y-70424458D01*
X146297771Y-70424457D01*
X146297769Y-70424456D01*
X146084837Y-70351356D01*
X145862769Y-70314300D01*
X145637631Y-70314300D01*
X145415562Y-70351356D01*
X145202630Y-70424456D01*
X145202619Y-70424461D01*
X145004627Y-70531608D01*
X145004622Y-70531612D01*
X144826961Y-70669892D01*
X144826956Y-70669897D01*
X144674484Y-70835523D01*
X144674476Y-70835534D01*
X144584008Y-70974006D01*
X144530862Y-71019362D01*
X144461631Y-71028786D01*
X144398295Y-70999284D01*
X144376392Y-70974006D01*
X144285923Y-70835534D01*
X144285915Y-70835523D01*
X144133443Y-70669897D01*
X144133438Y-70669892D01*
X143955777Y-70531612D01*
X143955772Y-70531608D01*
X143757780Y-70424461D01*
X143757777Y-70424459D01*
X143757774Y-70424458D01*
X143757771Y-70424457D01*
X143757769Y-70424456D01*
X143544837Y-70351356D01*
X143322769Y-70314300D01*
X143097631Y-70314300D01*
X142875562Y-70351356D01*
X142662630Y-70424456D01*
X142662619Y-70424461D01*
X142464627Y-70531608D01*
X142464622Y-70531612D01*
X142286961Y-70669892D01*
X142286956Y-70669897D01*
X142134484Y-70835523D01*
X142134476Y-70835534D01*
X142044008Y-70974006D01*
X141990862Y-71019362D01*
X141921631Y-71028786D01*
X141858295Y-70999284D01*
X141836392Y-70974006D01*
X141745923Y-70835534D01*
X141745915Y-70835523D01*
X141593443Y-70669897D01*
X141593438Y-70669892D01*
X141415777Y-70531612D01*
X141415772Y-70531608D01*
X141217780Y-70424461D01*
X141217777Y-70424459D01*
X141217774Y-70424458D01*
X141217771Y-70424457D01*
X141217769Y-70424456D01*
X141004837Y-70351356D01*
X140782769Y-70314300D01*
X140557631Y-70314300D01*
X140335562Y-70351356D01*
X140122630Y-70424456D01*
X140122619Y-70424461D01*
X139924627Y-70531608D01*
X139924622Y-70531612D01*
X139746961Y-70669892D01*
X139746956Y-70669897D01*
X139594484Y-70835523D01*
X139594476Y-70835534D01*
X139504008Y-70974006D01*
X139450862Y-71019362D01*
X139381631Y-71028786D01*
X139318295Y-70999284D01*
X139296392Y-70974006D01*
X139205923Y-70835534D01*
X139205915Y-70835523D01*
X139053443Y-70669897D01*
X139053438Y-70669892D01*
X138875777Y-70531612D01*
X138875772Y-70531608D01*
X138677780Y-70424461D01*
X138677777Y-70424459D01*
X138677774Y-70424458D01*
X138677771Y-70424457D01*
X138677769Y-70424456D01*
X138464837Y-70351356D01*
X138242769Y-70314300D01*
X138017631Y-70314300D01*
X137795562Y-70351356D01*
X137582630Y-70424456D01*
X137582619Y-70424461D01*
X137384627Y-70531608D01*
X137384622Y-70531612D01*
X137206961Y-70669892D01*
X137206956Y-70669897D01*
X137054484Y-70835523D01*
X137054476Y-70835534D01*
X136964008Y-70974006D01*
X136910862Y-71019362D01*
X136841631Y-71028786D01*
X136778295Y-70999284D01*
X136756392Y-70974006D01*
X136665923Y-70835534D01*
X136665915Y-70835523D01*
X136513443Y-70669897D01*
X136513438Y-70669892D01*
X136335777Y-70531612D01*
X136335772Y-70531608D01*
X136137780Y-70424461D01*
X136137777Y-70424459D01*
X136137774Y-70424458D01*
X136137771Y-70424457D01*
X136137769Y-70424456D01*
X135924837Y-70351356D01*
X135702769Y-70314300D01*
X135477631Y-70314300D01*
X135255562Y-70351356D01*
X135042630Y-70424456D01*
X135042619Y-70424461D01*
X134844627Y-70531608D01*
X134844622Y-70531612D01*
X134666961Y-70669892D01*
X134666956Y-70669897D01*
X134514484Y-70835523D01*
X134514476Y-70835534D01*
X134424008Y-70974006D01*
X134370862Y-71019362D01*
X134301631Y-71028786D01*
X134238295Y-70999284D01*
X134216392Y-70974006D01*
X134125923Y-70835534D01*
X134125915Y-70835523D01*
X133973443Y-70669897D01*
X133973438Y-70669892D01*
X133795777Y-70531612D01*
X133795772Y-70531608D01*
X133597780Y-70424461D01*
X133597777Y-70424459D01*
X133597774Y-70424458D01*
X133597771Y-70424457D01*
X133597769Y-70424456D01*
X133384837Y-70351356D01*
X133162769Y-70314300D01*
X132937631Y-70314300D01*
X132715562Y-70351356D01*
X132502630Y-70424456D01*
X132502619Y-70424461D01*
X132304627Y-70531608D01*
X132304622Y-70531612D01*
X132126961Y-70669892D01*
X132126956Y-70669897D01*
X131974484Y-70835523D01*
X131974476Y-70835534D01*
X131884008Y-70974006D01*
X131830862Y-71019362D01*
X131761631Y-71028786D01*
X131698295Y-70999284D01*
X131676392Y-70974006D01*
X131585923Y-70835534D01*
X131585915Y-70835523D01*
X131433443Y-70669897D01*
X131433438Y-70669892D01*
X131255777Y-70531612D01*
X131255772Y-70531608D01*
X131057780Y-70424461D01*
X131057777Y-70424459D01*
X131057774Y-70424458D01*
X131057771Y-70424457D01*
X131057769Y-70424456D01*
X130844837Y-70351356D01*
X130622769Y-70314300D01*
X130397631Y-70314300D01*
X130175562Y-70351356D01*
X129962630Y-70424456D01*
X129962619Y-70424461D01*
X129764627Y-70531608D01*
X129764622Y-70531612D01*
X129586961Y-70669892D01*
X129586956Y-70669897D01*
X129434484Y-70835523D01*
X129434476Y-70835534D01*
X129344007Y-70974006D01*
X129290860Y-71019363D01*
X129221629Y-71028786D01*
X129158293Y-70999283D01*
X129136391Y-70974006D01*
X129045922Y-70835532D01*
X129045917Y-70835527D01*
X129045915Y-70835523D01*
X128893443Y-70669897D01*
X128893438Y-70669892D01*
X128715777Y-70531612D01*
X128715772Y-70531608D01*
X128517780Y-70424461D01*
X128517777Y-70424459D01*
X128517774Y-70424458D01*
X128517771Y-70424457D01*
X128517769Y-70424456D01*
X128304837Y-70351356D01*
X128082769Y-70314300D01*
X127857631Y-70314300D01*
X127635562Y-70351356D01*
X127422630Y-70424456D01*
X127422619Y-70424461D01*
X127224627Y-70531608D01*
X127224622Y-70531612D01*
X127046961Y-70669892D01*
X127046956Y-70669897D01*
X126894484Y-70835523D01*
X126894476Y-70835534D01*
X126804008Y-70974006D01*
X126750862Y-71019362D01*
X126681631Y-71028786D01*
X126618295Y-70999284D01*
X126596392Y-70974006D01*
X126505923Y-70835534D01*
X126505915Y-70835523D01*
X126353443Y-70669897D01*
X126353438Y-70669892D01*
X126175777Y-70531612D01*
X126175772Y-70531608D01*
X125977780Y-70424461D01*
X125977777Y-70424459D01*
X125977774Y-70424458D01*
X125977771Y-70424457D01*
X125977769Y-70424456D01*
X125764837Y-70351356D01*
X125542769Y-70314300D01*
X125317631Y-70314300D01*
X125095562Y-70351356D01*
X124882630Y-70424456D01*
X124882619Y-70424461D01*
X124684627Y-70531608D01*
X124684622Y-70531612D01*
X124506961Y-70669892D01*
X124506956Y-70669897D01*
X124354484Y-70835523D01*
X124354476Y-70835534D01*
X124264008Y-70974006D01*
X124210862Y-71019362D01*
X124141631Y-71028786D01*
X124078295Y-70999284D01*
X124056392Y-70974006D01*
X123965923Y-70835534D01*
X123965915Y-70835523D01*
X123813443Y-70669897D01*
X123813438Y-70669892D01*
X123635777Y-70531612D01*
X123635772Y-70531608D01*
X123437780Y-70424461D01*
X123437777Y-70424459D01*
X123437774Y-70424458D01*
X123437771Y-70424457D01*
X123437769Y-70424456D01*
X123224837Y-70351356D01*
X123002769Y-70314300D01*
X122777631Y-70314300D01*
X122555562Y-70351356D01*
X122342630Y-70424456D01*
X122342619Y-70424461D01*
X122144627Y-70531608D01*
X122144622Y-70531612D01*
X121966961Y-70669892D01*
X121966956Y-70669897D01*
X121814484Y-70835523D01*
X121814476Y-70835534D01*
X121724008Y-70974006D01*
X121670862Y-71019362D01*
X121601631Y-71028786D01*
X121538295Y-70999284D01*
X121516392Y-70974006D01*
X121425923Y-70835534D01*
X121425915Y-70835523D01*
X121273443Y-70669897D01*
X121273438Y-70669892D01*
X121095777Y-70531612D01*
X121095772Y-70531608D01*
X120897780Y-70424461D01*
X120897777Y-70424459D01*
X120897774Y-70424458D01*
X120897771Y-70424457D01*
X120897769Y-70424456D01*
X120684837Y-70351356D01*
X120462769Y-70314300D01*
X120237631Y-70314300D01*
X120015562Y-70351356D01*
X119802630Y-70424456D01*
X119802619Y-70424461D01*
X119604627Y-70531608D01*
X119604622Y-70531612D01*
X119426961Y-70669892D01*
X119426956Y-70669897D01*
X119274484Y-70835523D01*
X119274476Y-70835534D01*
X119184007Y-70974006D01*
X119130860Y-71019363D01*
X119061629Y-71028786D01*
X118998293Y-70999283D01*
X118976391Y-70974006D01*
X118885922Y-70835532D01*
X118885917Y-70835527D01*
X118885915Y-70835523D01*
X118733443Y-70669897D01*
X118733438Y-70669892D01*
X118555777Y-70531612D01*
X118555772Y-70531608D01*
X118357780Y-70424461D01*
X118357777Y-70424459D01*
X118357774Y-70424458D01*
X118357771Y-70424457D01*
X118357769Y-70424456D01*
X118144837Y-70351356D01*
X117922769Y-70314300D01*
X117697631Y-70314300D01*
X117475562Y-70351356D01*
X117262630Y-70424456D01*
X117262619Y-70424461D01*
X117064627Y-70531608D01*
X117064622Y-70531612D01*
X116886961Y-70669892D01*
X116886956Y-70669897D01*
X116734484Y-70835523D01*
X116734476Y-70835534D01*
X116644008Y-70974006D01*
X116590862Y-71019362D01*
X116521631Y-71028786D01*
X116458295Y-70999284D01*
X116436392Y-70974006D01*
X116345923Y-70835534D01*
X116345915Y-70835523D01*
X116193443Y-70669897D01*
X116193438Y-70669892D01*
X116015777Y-70531612D01*
X116015772Y-70531608D01*
X115817780Y-70424461D01*
X115817777Y-70424459D01*
X115817774Y-70424458D01*
X115817771Y-70424457D01*
X115817769Y-70424456D01*
X115604837Y-70351356D01*
X115382769Y-70314300D01*
X115157631Y-70314300D01*
X114935562Y-70351356D01*
X114722630Y-70424456D01*
X114722619Y-70424461D01*
X114524627Y-70531608D01*
X114524622Y-70531612D01*
X114346961Y-70669892D01*
X114346956Y-70669897D01*
X114194484Y-70835523D01*
X114194476Y-70835534D01*
X114104008Y-70974006D01*
X114050862Y-71019362D01*
X113981631Y-71028786D01*
X113918295Y-70999284D01*
X113896392Y-70974006D01*
X113805923Y-70835534D01*
X113805915Y-70835523D01*
X113653443Y-70669897D01*
X113653438Y-70669892D01*
X113475777Y-70531612D01*
X113475772Y-70531608D01*
X113277780Y-70424461D01*
X113277777Y-70424459D01*
X113277774Y-70424458D01*
X113277771Y-70424457D01*
X113277769Y-70424456D01*
X113064837Y-70351356D01*
X112842769Y-70314300D01*
X112617631Y-70314300D01*
X112395562Y-70351356D01*
X112182630Y-70424456D01*
X112182619Y-70424461D01*
X111984627Y-70531608D01*
X111984622Y-70531612D01*
X111806961Y-70669892D01*
X111743748Y-70738560D01*
X111683861Y-70774550D01*
X111614023Y-70772449D01*
X111556407Y-70732924D01*
X111536338Y-70697910D01*
X111491089Y-70576596D01*
X111457414Y-70531612D01*
X111403461Y-70459539D01*
X111286404Y-70371911D01*
X111286403Y-70371910D01*
X111149403Y-70320811D01*
X111088854Y-70314300D01*
X111088838Y-70314300D01*
X109291562Y-70314300D01*
X109291545Y-70314300D01*
X109230997Y-70320811D01*
X109230995Y-70320811D01*
X109093995Y-70371911D01*
X108976939Y-70459539D01*
X108889311Y-70576595D01*
X108838211Y-70713595D01*
X108838211Y-70713597D01*
X108831700Y-70774145D01*
X108831700Y-72571454D01*
X105834690Y-72571454D01*
X105850588Y-72443909D01*
X105870073Y-71972800D01*
X105850588Y-71501691D01*
X105792267Y-71033811D01*
X105792266Y-71033811D01*
X105695506Y-70572341D01*
X105560968Y-70120435D01*
X105389574Y-69681185D01*
X105389574Y-69681184D01*
X105182486Y-69257580D01*
X105182485Y-69257579D01*
X104941131Y-68852534D01*
X104941132Y-68852535D01*
X104667150Y-68468799D01*
X104371650Y-68119903D01*
X104371648Y-68119903D01*
X103398816Y-69092736D01*
X103337493Y-69126221D01*
X103267801Y-69121237D01*
X103219257Y-69088328D01*
X103138630Y-68999369D01*
X103049670Y-68918741D01*
X103013216Y-68859135D01*
X103014775Y-68789283D01*
X103045262Y-68739182D01*
X104018095Y-67766349D01*
X103669201Y-67470850D01*
X103285465Y-67196868D01*
X103285466Y-67196869D01*
X102880421Y-66955515D01*
X102880420Y-66955514D01*
X102456816Y-66748426D01*
X102456815Y-66748426D01*
X102017565Y-66577032D01*
X101565659Y-66442494D01*
X101104189Y-66345734D01*
X101104189Y-66345733D01*
X100636309Y-66287412D01*
X100165200Y-66267927D01*
X99694091Y-66287412D01*
X99226211Y-66345733D01*
X99226211Y-66345734D01*
X98764741Y-66442494D01*
X98312835Y-66577032D01*
X97873585Y-66748426D01*
X97873584Y-66748426D01*
X97449980Y-66955514D01*
X97449979Y-66955515D01*
X97044934Y-67196869D01*
X97044935Y-67196868D01*
X96661199Y-67470850D01*
X96312303Y-67766349D01*
X97285136Y-68739182D01*
X97318621Y-68800505D01*
X97313637Y-68870197D01*
X97280729Y-68918740D01*
X97191769Y-68999369D01*
X97111140Y-69088329D01*
X97051534Y-69124782D01*
X96981681Y-69123223D01*
X96931582Y-69092736D01*
X95958749Y-68119903D01*
X95663250Y-68468799D01*
X95389268Y-68852535D01*
X95389269Y-68852534D01*
X95147915Y-69257579D01*
X95147914Y-69257580D01*
X94940826Y-69681184D01*
X94940826Y-69681185D01*
X94769432Y-70120435D01*
X94634894Y-70572341D01*
X94538134Y-71033811D01*
X94538133Y-71033811D01*
X94479812Y-71501691D01*
X94460327Y-71972800D01*
X92975700Y-71972800D01*
X92975700Y-66375012D01*
X92975858Y-66370588D01*
X92982128Y-66282927D01*
X92990228Y-66169659D01*
X92992744Y-66152162D01*
X93034151Y-65961816D01*
X93039128Y-65944865D01*
X93107209Y-65762332D01*
X93114548Y-65746263D01*
X93207907Y-65575291D01*
X93217463Y-65560421D01*
X93334201Y-65404477D01*
X93345775Y-65391120D01*
X93483520Y-65253375D01*
X93496877Y-65241801D01*
X93652821Y-65125063D01*
X93667691Y-65115507D01*
X93838663Y-65022148D01*
X93854732Y-65014809D01*
X94037265Y-64946728D01*
X94054216Y-64941751D01*
X94244562Y-64900344D01*
X94262059Y-64897828D01*
X94462991Y-64883457D01*
X94467414Y-64883300D01*
X94468612Y-64883300D01*
X161461788Y-64883300D01*
X161462986Y-64883300D01*
X161467408Y-64883457D01*
G37*
%TD.AperFunction*%
%TD*%
M02*
