%TF.GenerationSoftware,KiCad,Pcbnew,7.0.7*%
%TF.CreationDate,2024-02-10T01:31:51+05:30*%
%TF.ProjectId,PDB_Board,5044425f-426f-4617-9264-2e6b69636164,rev?*%
%TF.SameCoordinates,Original*%
%TF.FileFunction,Drillmap*%
%TF.FilePolarity,Positive*%
%FSLAX45Y45*%
G04 Gerber Fmt 4.5, Leading zero omitted, Abs format (unit mm)*
G04 Created by KiCad (PCBNEW 7.0.7) date 2024-02-10 01:31:51*
%MOMM*%
%LPD*%
G01*
G04 APERTURE LIST*
%ADD10C,0.200000*%
G04 APERTURE END LIST*
D10*
X9554797Y-13801264D02*
X9554797Y-13601264D01*
X9554797Y-13601264D02*
X9602416Y-13601264D01*
X9602416Y-13601264D02*
X9630987Y-13610788D01*
X9630987Y-13610788D02*
X9650035Y-13629835D01*
X9650035Y-13629835D02*
X9659559Y-13648883D01*
X9659559Y-13648883D02*
X9669083Y-13686978D01*
X9669083Y-13686978D02*
X9669083Y-13715549D01*
X9669083Y-13715549D02*
X9659559Y-13753645D01*
X9659559Y-13753645D02*
X9650035Y-13772692D01*
X9650035Y-13772692D02*
X9630987Y-13791740D01*
X9630987Y-13791740D02*
X9602416Y-13801264D01*
X9602416Y-13801264D02*
X9554797Y-13801264D01*
X9754797Y-13801264D02*
X9754797Y-13667930D01*
X9754797Y-13706026D02*
X9764321Y-13686978D01*
X9764321Y-13686978D02*
X9773844Y-13677454D01*
X9773844Y-13677454D02*
X9792892Y-13667930D01*
X9792892Y-13667930D02*
X9811940Y-13667930D01*
X9878606Y-13801264D02*
X9878606Y-13667930D01*
X9878606Y-13601264D02*
X9869083Y-13610788D01*
X9869083Y-13610788D02*
X9878606Y-13620311D01*
X9878606Y-13620311D02*
X9888130Y-13610788D01*
X9888130Y-13610788D02*
X9878606Y-13601264D01*
X9878606Y-13601264D02*
X9878606Y-13620311D01*
X10002416Y-13801264D02*
X9983368Y-13791740D01*
X9983368Y-13791740D02*
X9973844Y-13772692D01*
X9973844Y-13772692D02*
X9973844Y-13601264D01*
X10107178Y-13801264D02*
X10088130Y-13791740D01*
X10088130Y-13791740D02*
X10078606Y-13772692D01*
X10078606Y-13772692D02*
X10078606Y-13601264D01*
X10335749Y-13801264D02*
X10335749Y-13601264D01*
X10335749Y-13601264D02*
X10402416Y-13744121D01*
X10402416Y-13744121D02*
X10469083Y-13601264D01*
X10469083Y-13601264D02*
X10469083Y-13801264D01*
X10650035Y-13801264D02*
X10650035Y-13696502D01*
X10650035Y-13696502D02*
X10640511Y-13677454D01*
X10640511Y-13677454D02*
X10621464Y-13667930D01*
X10621464Y-13667930D02*
X10583368Y-13667930D01*
X10583368Y-13667930D02*
X10564321Y-13677454D01*
X10650035Y-13791740D02*
X10630987Y-13801264D01*
X10630987Y-13801264D02*
X10583368Y-13801264D01*
X10583368Y-13801264D02*
X10564321Y-13791740D01*
X10564321Y-13791740D02*
X10554797Y-13772692D01*
X10554797Y-13772692D02*
X10554797Y-13753645D01*
X10554797Y-13753645D02*
X10564321Y-13734597D01*
X10564321Y-13734597D02*
X10583368Y-13725073D01*
X10583368Y-13725073D02*
X10630987Y-13725073D01*
X10630987Y-13725073D02*
X10650035Y-13715549D01*
X10745273Y-13667930D02*
X10745273Y-13867930D01*
X10745273Y-13677454D02*
X10764321Y-13667930D01*
X10764321Y-13667930D02*
X10802416Y-13667930D01*
X10802416Y-13667930D02*
X10821464Y-13677454D01*
X10821464Y-13677454D02*
X10830987Y-13686978D01*
X10830987Y-13686978D02*
X10840511Y-13706026D01*
X10840511Y-13706026D02*
X10840511Y-13763168D01*
X10840511Y-13763168D02*
X10830987Y-13782216D01*
X10830987Y-13782216D02*
X10821464Y-13791740D01*
X10821464Y-13791740D02*
X10802416Y-13801264D01*
X10802416Y-13801264D02*
X10764321Y-13801264D01*
X10764321Y-13801264D02*
X10745273Y-13791740D01*
X10926225Y-13782216D02*
X10935749Y-13791740D01*
X10935749Y-13791740D02*
X10926225Y-13801264D01*
X10926225Y-13801264D02*
X10916702Y-13791740D01*
X10916702Y-13791740D02*
X10926225Y-13782216D01*
X10926225Y-13782216D02*
X10926225Y-13801264D01*
X10926225Y-13677454D02*
X10935749Y-13686978D01*
X10935749Y-13686978D02*
X10926225Y-13696502D01*
X10926225Y-13696502D02*
X10916702Y-13686978D01*
X10916702Y-13686978D02*
X10926225Y-13677454D01*
X10926225Y-13677454D02*
X10926225Y-13696502D01*
M02*
