M48
; DRILL file {KiCad 7.0.7} date Mon Apr  1 01:32:33 2024
; FORMAT={-:-/ absolute / metric / decimal}
; #@! TF.CreationDate,2024-04-01T01:32:33+05:30
; #@! TF.GenerationSoftware,Kicad,Pcbnew,7.0.7
; #@! TF.FileFunction,Plated,1,2,PTH
FMAT,2
METRIC
; #@! TA.AperFunction,Plated,PTH,ComponentDrill
T1C0.762
; #@! TA.AperFunction,Plated,PTH,ComponentDrill
T2C1.000
; #@! TA.AperFunction,Plated,PTH,ComponentDrill
T3C1.520
; #@! TA.AperFunction,Plated,PTH,ComponentDrill
T4C2.000
; #@! TA.AperFunction,Plated,PTH,ComponentDrill
T5C8.400
%
G90
G05
T1
X111.482Y-97.158
X115.482Y-67.158
X117.482Y-97.158
X119.482Y-67.158
X123.482Y-97.158
X137.136Y-97.158
X141.136Y-67.158
X143.136Y-97.158
X145.136Y-67.158
X149.136Y-97.158
T2
X101.895Y-64.548
X101.895Y-67.088
X101.895Y-69.628
X101.895Y-72.168
X101.895Y-74.708
X101.895Y-77.248
X101.895Y-79.788
X101.895Y-82.328
X101.895Y-84.868
X101.895Y-87.408
X101.895Y-89.948
X101.895Y-92.488
X101.895Y-95.028
X101.895Y-97.568
X101.895Y-100.108
X112.32Y-54.163
X114.86Y-54.163
X117.4Y-54.163
X119.94Y-54.163
X122.48Y-54.163
X125.02Y-54.163
X127.56Y-54.163
X130.1Y-54.163
X132.64Y-54.163
X135.18Y-54.163
X137.72Y-54.163
X140.26Y-54.163
X142.8Y-54.163
X145.34Y-54.163
X147.88Y-54.163
X158.295Y-64.578
X158.295Y-67.118
X158.295Y-69.658
X158.295Y-72.198
X158.295Y-74.738
X158.295Y-77.278
X158.295Y-79.818
X158.295Y-82.358
X158.295Y-84.898
X158.295Y-87.438
X158.295Y-89.978
X158.295Y-92.518
X158.295Y-95.058
X158.295Y-97.598
X158.295Y-100.138
T3
X112.446Y-109.855
X117.526Y-109.855
X122.606Y-109.855
X137.795Y-110.236
X142.875Y-110.236
X147.955Y-110.236
T4
X111.482Y-66.158
X123.482Y-66.158
X137.136Y-66.158
X149.136Y-66.158
T5
X102.295Y-54.463
X102.295Y-110.163
X157.895Y-54.478
X157.895Y-110.163
T0
M30
