%TF.GenerationSoftware,KiCad,Pcbnew,7.0.7*%
%TF.CreationDate,2024-04-01T01:32:49+05:30*%
%TF.ProjectId,GPIO_stack,4750494f-5f73-4746-9163-6b2e6b696361,rev?*%
%TF.SameCoordinates,Original*%
%TF.FileFunction,Copper,L2,Bot*%
%TF.FilePolarity,Positive*%
%FSLAX46Y46*%
G04 Gerber Fmt 4.6, Leading zero omitted, Abs format (unit mm)*
G04 Created by KiCad (PCBNEW 7.0.7) date 2024-04-01 01:32:49*
%MOMM*%
%LPD*%
G01*
G04 APERTURE LIST*
%TA.AperFunction,ComponentPad*%
%ADD10C,1.524000*%
%TD*%
%TA.AperFunction,ComponentPad*%
%ADD11C,2.500000*%
%TD*%
%TA.AperFunction,ComponentPad*%
%ADD12R,3.000000X3.000000*%
%TD*%
%TA.AperFunction,ComponentPad*%
%ADD13C,3.000000*%
%TD*%
%TA.AperFunction,ComponentPad*%
%ADD14R,1.700000X1.700000*%
%TD*%
%TA.AperFunction,ComponentPad*%
%ADD15O,1.700000X1.700000*%
%TD*%
%TA.AperFunction,ComponentPad*%
%ADD16C,10.400000*%
%TD*%
G04 APERTURE END LIST*
D10*
%TO.P,U3,1,GND*%
%TO.N,GND*%
X145135600Y-67157600D03*
%TO.P,U3,2,PWM*%
%TO.N,PYRO2*%
X141135600Y-67157600D03*
%TO.P,U3,3,-*%
%TO.N,GND*%
X149135600Y-97157600D03*
%TO.P,U3,4,LOAD*%
%TO.N,LOAD2*%
X143135600Y-97157600D03*
%TO.P,U3,5,+*%
%TO.N,7.4V_Pyro*%
X137135600Y-97157600D03*
D11*
%TO.P,U3,6*%
%TO.N,N/C*%
X149135600Y-66157600D03*
%TO.P,U3,7*%
X137135600Y-66157600D03*
%TD*%
D12*
%TO.P,J1,1,Pin_1*%
%TO.N,7.4V_Pyro*%
X112445800Y-109855000D03*
D13*
%TO.P,J1,2,Pin_2*%
%TO.N,LOAD1*%
X117525800Y-109855000D03*
%TO.P,J1,3,Pin_3*%
%TO.N,GND*%
X122605800Y-109855000D03*
%TD*%
D14*
%TO.P,U1,1*%
%TO.N,unconnected-(U1-Pad1)*%
X158295200Y-64577800D03*
D15*
%TO.P,U1,2*%
%TO.N,unconnected-(U1-Pad2)*%
X158295200Y-67117800D03*
%TO.P,U1,3*%
%TO.N,unconnected-(U1-Pad3)*%
X158295200Y-69657800D03*
%TO.P,U1,4*%
%TO.N,unconnected-(U1-Pad4)*%
X158295200Y-72197800D03*
%TO.P,U1,5*%
%TO.N,unconnected-(U1-Pad5)*%
X158295200Y-74737800D03*
%TO.P,U1,6*%
%TO.N,unconnected-(U1-Pad6)*%
X158295200Y-77277800D03*
%TO.P,U1,7*%
%TO.N,unconnected-(U1-Pad7)*%
X158295200Y-79817800D03*
%TO.P,U1,8*%
%TO.N,unconnected-(U1-Pad8)*%
X158295200Y-82357800D03*
%TO.P,U1,9*%
%TO.N,unconnected-(U1-Pad9)*%
X158295200Y-84897800D03*
%TO.P,U1,10*%
%TO.N,unconnected-(U1-Pad10)*%
X158295200Y-87437800D03*
%TO.P,U1,11*%
%TO.N,unconnected-(U1-Pad11)*%
X158295200Y-89977800D03*
%TO.P,U1,12*%
%TO.N,unconnected-(U1-Pad12)*%
X158295200Y-92517800D03*
%TO.P,U1,13*%
%TO.N,unconnected-(U1-Pad13)*%
X158295200Y-95057800D03*
%TO.P,U1,14*%
%TO.N,PYRO2*%
X158295200Y-97597800D03*
%TO.P,U1,15*%
%TO.N,unconnected-(U1-Pad15)*%
X158295200Y-100137800D03*
%TO.P,U1,16*%
%TO.N,unconnected-(U1-Pad16)*%
X101895200Y-100107800D03*
%TO.P,U1,17*%
%TO.N,PYRO1*%
X101895200Y-97567800D03*
%TO.P,U1,18*%
%TO.N,unconnected-(U1-Pad18)*%
X101895200Y-95027800D03*
%TO.P,U1,19*%
%TO.N,unconnected-(U1-Pad19)*%
X101895200Y-92487800D03*
%TO.P,U1,20*%
%TO.N,unconnected-(U1-Pad20)*%
X101895200Y-89947800D03*
%TO.P,U1,21*%
%TO.N,unconnected-(U1-Pad21)*%
X101895200Y-87407800D03*
%TO.P,U1,22*%
%TO.N,unconnected-(U1-Pad22)*%
X101895200Y-84867800D03*
%TO.P,U1,23*%
%TO.N,unconnected-(U1-Pad23)*%
X101895200Y-82327800D03*
%TO.P,U1,24*%
%TO.N,unconnected-(U1-Pad24)*%
X101895200Y-79787800D03*
%TO.P,U1,25*%
%TO.N,unconnected-(U1-Pad25)*%
X101895200Y-77247800D03*
%TO.P,U1,26*%
%TO.N,unconnected-(U1-Pad26)*%
X101895200Y-74707800D03*
%TO.P,U1,27*%
%TO.N,unconnected-(U1-Pad27)*%
X101895200Y-72167800D03*
%TO.P,U1,28*%
%TO.N,unconnected-(U1-Pad28)*%
X101895200Y-69627800D03*
%TO.P,U1,29*%
%TO.N,unconnected-(U1-Pad29)*%
X101895200Y-67087800D03*
D14*
%TO.P,U1,30*%
%TO.N,unconnected-(U1-Pad30)*%
X101895200Y-64547800D03*
%TO.P,U1,31*%
%TO.N,unconnected-(U1-Pad31)*%
X112320200Y-54162800D03*
D15*
%TO.P,U1,32*%
%TO.N,unconnected-(U1-Pad32)*%
X114860200Y-54162800D03*
%TO.P,U1,33*%
%TO.N,unconnected-(U1-Pad33)*%
X117400200Y-54162800D03*
%TO.P,U1,34*%
%TO.N,unconnected-(U1-Pad34)*%
X119940200Y-54162800D03*
%TO.P,U1,35*%
%TO.N,unconnected-(U1-Pad35)*%
X122480200Y-54162800D03*
%TO.P,U1,36*%
%TO.N,unconnected-(U1-Pad36)*%
X125020200Y-54162800D03*
%TO.P,U1,37*%
%TO.N,unconnected-(U1-Pad37)*%
X127560200Y-54162800D03*
%TO.P,U1,38*%
%TO.N,unconnected-(U1-Pad38)*%
X130100200Y-54162800D03*
%TO.P,U1,39*%
%TO.N,unconnected-(U1-Pad39)*%
X132640200Y-54162800D03*
%TO.P,U1,40*%
%TO.N,unconnected-(U1-Pad40)*%
X135180200Y-54162800D03*
%TO.P,U1,41*%
%TO.N,unconnected-(U1-Pad41)*%
X137720200Y-54162800D03*
%TO.P,U1,42*%
%TO.N,unconnected-(U1-Pad42)*%
X140260200Y-54162800D03*
%TO.P,U1,43*%
%TO.N,unconnected-(U1-Pad43)*%
X142800200Y-54162800D03*
%TO.P,U1,44*%
%TO.N,unconnected-(U1-Pad44)*%
X145340200Y-54162800D03*
%TO.P,U1,45*%
%TO.N,unconnected-(U1-Pad45)*%
X147880200Y-54162800D03*
D16*
%TO.P,U1,49,1*%
%TO.N,GND*%
X157895200Y-110162800D03*
%TO.P,U1,50,1*%
X102295200Y-110162800D03*
%TO.P,U1,51,1*%
X102295200Y-54462800D03*
%TO.P,U1,52,1*%
X157895200Y-54477800D03*
%TD*%
D12*
%TO.P,J2,1,Pin_1*%
%TO.N,7.4V_Pyro*%
X137795000Y-110236000D03*
D13*
%TO.P,J2,2,Pin_2*%
%TO.N,LOAD2*%
X142875000Y-110236000D03*
%TO.P,J2,3,Pin_3*%
%TO.N,GND*%
X147955000Y-110236000D03*
%TD*%
D10*
%TO.P,U2,1,GND*%
%TO.N,GND*%
X119481600Y-67157600D03*
%TO.P,U2,2,PWM*%
%TO.N,PYRO1*%
X115481600Y-67157600D03*
%TO.P,U2,3,-*%
%TO.N,GND*%
X123481600Y-97157600D03*
%TO.P,U2,4,LOAD*%
%TO.N,LOAD1*%
X117481600Y-97157600D03*
%TO.P,U2,5,+*%
%TO.N,7.4V_Pyro*%
X111481600Y-97157600D03*
D11*
%TO.P,U2,6*%
%TO.N,N/C*%
X123481600Y-66157600D03*
%TO.P,U2,7*%
X111481600Y-66157600D03*
%TD*%
%TA.AperFunction,Conductor*%
%TO.N,GND*%
G36*
X163597407Y-47363457D02*
G01*
X163664955Y-47368289D01*
X163811844Y-47379849D01*
X163820147Y-47381074D01*
X163914960Y-47401699D01*
X164031425Y-47429660D01*
X164038601Y-47431851D01*
X164134937Y-47467783D01*
X164213122Y-47500168D01*
X164241056Y-47511739D01*
X164247047Y-47514605D01*
X164338137Y-47564343D01*
X164340780Y-47565873D01*
X164436103Y-47624288D01*
X164440843Y-47627505D01*
X164524640Y-47690235D01*
X164527720Y-47692698D01*
X164612137Y-47764797D01*
X164615713Y-47768103D01*
X164689895Y-47842285D01*
X164693201Y-47845861D01*
X164765294Y-47930271D01*
X164767776Y-47933374D01*
X164830489Y-48017149D01*
X164833721Y-48021911D01*
X164892110Y-48117193D01*
X164893663Y-48119876D01*
X164943393Y-48210951D01*
X164946259Y-48216941D01*
X164990216Y-48323060D01*
X165026142Y-48419382D01*
X165028340Y-48426581D01*
X165056298Y-48543031D01*
X165076923Y-48637844D01*
X165078150Y-48646167D01*
X165089717Y-48793131D01*
X165094542Y-48860589D01*
X165094700Y-48865013D01*
X165094700Y-115860586D01*
X165094542Y-115865008D01*
X165093158Y-115884355D01*
X165089717Y-115932468D01*
X165078150Y-116079432D01*
X165076923Y-116087755D01*
X165056301Y-116182555D01*
X165028340Y-116299017D01*
X165026142Y-116306216D01*
X164990216Y-116402539D01*
X164946259Y-116508657D01*
X164943393Y-116514647D01*
X164893663Y-116605722D01*
X164892110Y-116608405D01*
X164833721Y-116703687D01*
X164830489Y-116708449D01*
X164767776Y-116792224D01*
X164765287Y-116795336D01*
X164693201Y-116879737D01*
X164689895Y-116883313D01*
X164615713Y-116957495D01*
X164612137Y-116960801D01*
X164527736Y-117032887D01*
X164524624Y-117035376D01*
X164440849Y-117098089D01*
X164436087Y-117101321D01*
X164340805Y-117159710D01*
X164338122Y-117161263D01*
X164247047Y-117210993D01*
X164241057Y-117213859D01*
X164134939Y-117257816D01*
X164038616Y-117293742D01*
X164031417Y-117295940D01*
X163914955Y-117323901D01*
X163820155Y-117344523D01*
X163811832Y-117345750D01*
X163664868Y-117357317D01*
X163616755Y-117360758D01*
X163597408Y-117362142D01*
X163592986Y-117362300D01*
X96597414Y-117362300D01*
X96592991Y-117362142D01*
X96565444Y-117360171D01*
X96525573Y-117357320D01*
X96378561Y-117345749D01*
X96370238Y-117344522D01*
X96275472Y-117323907D01*
X96158986Y-117295941D01*
X96151786Y-117293743D01*
X96055469Y-117257819D01*
X95949335Y-117213856D01*
X95943344Y-117210990D01*
X95852286Y-117161269D01*
X95849605Y-117159716D01*
X95754310Y-117101320D01*
X95749552Y-117098091D01*
X95665767Y-117035370D01*
X95662671Y-117032894D01*
X95578261Y-116960801D01*
X95574685Y-116957495D01*
X95500503Y-116883313D01*
X95497197Y-116879737D01*
X95425098Y-116795320D01*
X95422635Y-116792240D01*
X95359901Y-116708438D01*
X95356687Y-116703701D01*
X95298279Y-116608388D01*
X95296735Y-116605722D01*
X95247002Y-116514641D01*
X95244142Y-116508663D01*
X95200180Y-116402530D01*
X95194951Y-116388510D01*
X95164252Y-116306204D01*
X95162059Y-116299017D01*
X95134100Y-116182564D01*
X95113475Y-116087753D01*
X95112251Y-116079451D01*
X95100680Y-115932426D01*
X95098036Y-115895473D01*
X95095857Y-115865007D01*
X95095700Y-115860587D01*
X95095700Y-110162800D01*
X96590327Y-110162800D01*
X96609812Y-110633909D01*
X96668133Y-111101789D01*
X96668134Y-111101789D01*
X96764894Y-111563259D01*
X96899432Y-112015165D01*
X97070826Y-112454415D01*
X97070826Y-112454416D01*
X97277914Y-112878020D01*
X97277915Y-112878021D01*
X97519269Y-113283066D01*
X97519268Y-113283065D01*
X97793250Y-113666801D01*
X98088749Y-114015695D01*
X99061582Y-113042862D01*
X99122905Y-113009377D01*
X99192596Y-113014361D01*
X99241141Y-113047270D01*
X99321769Y-113136230D01*
X99410728Y-113216857D01*
X99447182Y-113276463D01*
X99445623Y-113346315D01*
X99415136Y-113396416D01*
X98442303Y-114369248D01*
X98442303Y-114369250D01*
X98791199Y-114664750D01*
X99174935Y-114938732D01*
X99174934Y-114938731D01*
X99579979Y-115180085D01*
X99579980Y-115180086D01*
X100003584Y-115387174D01*
X100003585Y-115387174D01*
X100442835Y-115558568D01*
X100894741Y-115693106D01*
X101356211Y-115789866D01*
X101356211Y-115789867D01*
X101824091Y-115848188D01*
X102295200Y-115867673D01*
X102766309Y-115848188D01*
X103234189Y-115789867D01*
X103234189Y-115789866D01*
X103695659Y-115693106D01*
X104147565Y-115558568D01*
X104586815Y-115387174D01*
X104586816Y-115387174D01*
X105010420Y-115180086D01*
X105010421Y-115180085D01*
X105415466Y-114938731D01*
X105415465Y-114938732D01*
X105799201Y-114664750D01*
X106148095Y-114369250D01*
X106148095Y-114369249D01*
X105175262Y-113396416D01*
X105141777Y-113335093D01*
X105146761Y-113265401D01*
X105179668Y-113216860D01*
X105268630Y-113136230D01*
X105349259Y-113047268D01*
X105408862Y-113010817D01*
X105478714Y-113012374D01*
X105528816Y-113042862D01*
X106501649Y-114015695D01*
X106501650Y-114015695D01*
X106797150Y-113666801D01*
X107071132Y-113283065D01*
X107071131Y-113283066D01*
X107312485Y-112878021D01*
X107312486Y-112878020D01*
X107519574Y-112454416D01*
X107519574Y-112454415D01*
X107690968Y-112015165D01*
X107825506Y-111563259D01*
X107859136Y-111402870D01*
X110445300Y-111402870D01*
X110445301Y-111402876D01*
X110451708Y-111462483D01*
X110502002Y-111597328D01*
X110502006Y-111597335D01*
X110588252Y-111712544D01*
X110588255Y-111712547D01*
X110703464Y-111798793D01*
X110703471Y-111798797D01*
X110838317Y-111849091D01*
X110838316Y-111849091D01*
X110845244Y-111849835D01*
X110897927Y-111855500D01*
X113993672Y-111855499D01*
X114053283Y-111849091D01*
X114188131Y-111798796D01*
X114303346Y-111712546D01*
X114389596Y-111597331D01*
X114439891Y-111462483D01*
X114446300Y-111402873D01*
X114446300Y-109855001D01*
X115520190Y-109855001D01*
X115540604Y-110140433D01*
X115601428Y-110420037D01*
X115601430Y-110420043D01*
X115601431Y-110420046D01*
X115701357Y-110687958D01*
X115701435Y-110688166D01*
X115838570Y-110939309D01*
X115838575Y-110939317D01*
X116010054Y-111168387D01*
X116010070Y-111168405D01*
X116212394Y-111370729D01*
X116212412Y-111370745D01*
X116441482Y-111542224D01*
X116441490Y-111542229D01*
X116692633Y-111679364D01*
X116692632Y-111679364D01*
X116692636Y-111679365D01*
X116692639Y-111679367D01*
X116960754Y-111779369D01*
X116960760Y-111779370D01*
X116960762Y-111779371D01*
X117240366Y-111840195D01*
X117240368Y-111840195D01*
X117240372Y-111840196D01*
X117494020Y-111858337D01*
X117525799Y-111860610D01*
X117525800Y-111860610D01*
X117525801Y-111860610D01*
X117554395Y-111858564D01*
X117811228Y-111840196D01*
X117921923Y-111816116D01*
X118090837Y-111779371D01*
X118090837Y-111779370D01*
X118090846Y-111779369D01*
X118358961Y-111679367D01*
X118610115Y-111542226D01*
X118839195Y-111370739D01*
X119041539Y-111168395D01*
X119213026Y-110939315D01*
X119350167Y-110688161D01*
X119450169Y-110420046D01*
X119476201Y-110300377D01*
X119510995Y-110140433D01*
X119510995Y-110140432D01*
X119510996Y-110140428D01*
X119531410Y-109855001D01*
X120600691Y-109855001D01*
X120621100Y-110140362D01*
X120681909Y-110419895D01*
X120781891Y-110687958D01*
X120918991Y-110939038D01*
X120918996Y-110939046D01*
X121025682Y-111081561D01*
X121025683Y-111081562D01*
X121810320Y-110296924D01*
X121871643Y-110263439D01*
X121941334Y-110268423D01*
X121997268Y-110310294D01*
X121997464Y-110310557D01*
X122049233Y-110380094D01*
X122154925Y-110468781D01*
X122193627Y-110526952D01*
X122194735Y-110596813D01*
X122162900Y-110651451D01*
X121379236Y-111435114D01*
X121379236Y-111435115D01*
X121521760Y-111541807D01*
X121521761Y-111541808D01*
X121772842Y-111678908D01*
X121772841Y-111678908D01*
X122040904Y-111778890D01*
X122320437Y-111839699D01*
X122605799Y-111860109D01*
X122605801Y-111860109D01*
X122891162Y-111839699D01*
X123147802Y-111783870D01*
X135794500Y-111783870D01*
X135794501Y-111783876D01*
X135800908Y-111843483D01*
X135851202Y-111978328D01*
X135851206Y-111978335D01*
X135937452Y-112093544D01*
X135937455Y-112093547D01*
X136052664Y-112179793D01*
X136052671Y-112179797D01*
X136187517Y-112230091D01*
X136187516Y-112230091D01*
X136194444Y-112230835D01*
X136247127Y-112236500D01*
X139342872Y-112236499D01*
X139402483Y-112230091D01*
X139537331Y-112179796D01*
X139652546Y-112093546D01*
X139738796Y-111978331D01*
X139789091Y-111843483D01*
X139795500Y-111783873D01*
X139795500Y-110236001D01*
X140869390Y-110236001D01*
X140889804Y-110521433D01*
X140950628Y-110801037D01*
X140950630Y-110801043D01*
X140950631Y-110801046D01*
X141018559Y-110983167D01*
X141050635Y-111069166D01*
X141187770Y-111320309D01*
X141187775Y-111320317D01*
X141359254Y-111549387D01*
X141359270Y-111549405D01*
X141561594Y-111751729D01*
X141561612Y-111751745D01*
X141790682Y-111923224D01*
X141790690Y-111923229D01*
X142041833Y-112060364D01*
X142041832Y-112060364D01*
X142041836Y-112060365D01*
X142041839Y-112060367D01*
X142309954Y-112160369D01*
X142309960Y-112160370D01*
X142309962Y-112160371D01*
X142589566Y-112221195D01*
X142589568Y-112221195D01*
X142589572Y-112221196D01*
X142843220Y-112239337D01*
X142874999Y-112241610D01*
X142875000Y-112241610D01*
X142875001Y-112241610D01*
X142903595Y-112239564D01*
X143160428Y-112221196D01*
X143350742Y-112179796D01*
X143440037Y-112160371D01*
X143440037Y-112160370D01*
X143440046Y-112160369D01*
X143708161Y-112060367D01*
X143959315Y-111923226D01*
X144188395Y-111751739D01*
X144390739Y-111549395D01*
X144562226Y-111320315D01*
X144699367Y-111069161D01*
X144799369Y-110801046D01*
X144823723Y-110689094D01*
X144860195Y-110521433D01*
X144860195Y-110521432D01*
X144860196Y-110521428D01*
X144878648Y-110263439D01*
X144880610Y-110236001D01*
X145949891Y-110236001D01*
X145970300Y-110521362D01*
X146031109Y-110800895D01*
X146131091Y-111068958D01*
X146268191Y-111320038D01*
X146268196Y-111320046D01*
X146374882Y-111462561D01*
X146374883Y-111462562D01*
X147159520Y-110677924D01*
X147220843Y-110644439D01*
X147290534Y-110649423D01*
X147346468Y-110691294D01*
X147346664Y-110691557D01*
X147398433Y-110761094D01*
X147504125Y-110849781D01*
X147542827Y-110907952D01*
X147543935Y-110977813D01*
X147512100Y-111032451D01*
X146728436Y-111816114D01*
X146728436Y-111816115D01*
X146870960Y-111922807D01*
X146870961Y-111922808D01*
X147122042Y-112059908D01*
X147122041Y-112059908D01*
X147390104Y-112159890D01*
X147669637Y-112220699D01*
X147954999Y-112241109D01*
X147955001Y-112241109D01*
X148240362Y-112220699D01*
X148519895Y-112159890D01*
X148787958Y-112059908D01*
X149039047Y-111922803D01*
X149181561Y-111816116D01*
X149181562Y-111816115D01*
X148398095Y-111032648D01*
X148364610Y-110971325D01*
X148369594Y-110901633D01*
X148411466Y-110845700D01*
X148417638Y-110841366D01*
X148446844Y-110822157D01*
X148568764Y-110692930D01*
X148568764Y-110692929D01*
X148573720Y-110687677D01*
X148575222Y-110689094D01*
X148622836Y-110653243D01*
X148692514Y-110648063D01*
X148753931Y-110681377D01*
X148754176Y-110681622D01*
X149535115Y-111462562D01*
X149535116Y-111462561D01*
X149641803Y-111320047D01*
X149778908Y-111068958D01*
X149878890Y-110800895D01*
X149939699Y-110521362D01*
X149960109Y-110236001D01*
X149960109Y-110235998D01*
X149954874Y-110162800D01*
X152190327Y-110162800D01*
X152209812Y-110633909D01*
X152268133Y-111101789D01*
X152268134Y-111101789D01*
X152364894Y-111563259D01*
X152499432Y-112015165D01*
X152670826Y-112454415D01*
X152670826Y-112454416D01*
X152877914Y-112878020D01*
X152877915Y-112878021D01*
X153119269Y-113283066D01*
X153119268Y-113283065D01*
X153393250Y-113666801D01*
X153688749Y-114015695D01*
X154661582Y-113042862D01*
X154722905Y-113009377D01*
X154792596Y-113014361D01*
X154841141Y-113047270D01*
X154921769Y-113136230D01*
X155010728Y-113216857D01*
X155047182Y-113276463D01*
X155045623Y-113346315D01*
X155015136Y-113396416D01*
X154042303Y-114369249D01*
X154042303Y-114369250D01*
X154391199Y-114664750D01*
X154774935Y-114938732D01*
X154774934Y-114938731D01*
X155179979Y-115180085D01*
X155179980Y-115180086D01*
X155603584Y-115387174D01*
X155603585Y-115387174D01*
X156042835Y-115558568D01*
X156494741Y-115693106D01*
X156956211Y-115789866D01*
X156956211Y-115789867D01*
X157424091Y-115848188D01*
X157895200Y-115867673D01*
X158366309Y-115848188D01*
X158834189Y-115789867D01*
X158834189Y-115789866D01*
X159295659Y-115693106D01*
X159747565Y-115558568D01*
X160186815Y-115387174D01*
X160186816Y-115387174D01*
X160610420Y-115180086D01*
X160610421Y-115180085D01*
X161015466Y-114938731D01*
X161015465Y-114938732D01*
X161399201Y-114664750D01*
X161748095Y-114369250D01*
X161748095Y-114369249D01*
X160775262Y-113396416D01*
X160741777Y-113335093D01*
X160746761Y-113265401D01*
X160779668Y-113216860D01*
X160868630Y-113136230D01*
X160949259Y-113047268D01*
X161008862Y-113010817D01*
X161078714Y-113012374D01*
X161128816Y-113042862D01*
X162101649Y-114015695D01*
X162101650Y-114015695D01*
X162397150Y-113666801D01*
X162671132Y-113283065D01*
X162671131Y-113283066D01*
X162912485Y-112878021D01*
X162912486Y-112878020D01*
X163119574Y-112454416D01*
X163119574Y-112454415D01*
X163290968Y-112015165D01*
X163425506Y-111563259D01*
X163522266Y-111101789D01*
X163522267Y-111101789D01*
X163580588Y-110633909D01*
X163600073Y-110162800D01*
X163580588Y-109691691D01*
X163522267Y-109223811D01*
X163522266Y-109223811D01*
X163425506Y-108762341D01*
X163290968Y-108310435D01*
X163119574Y-107871185D01*
X163119574Y-107871184D01*
X162912486Y-107447580D01*
X162912485Y-107447579D01*
X162671131Y-107042534D01*
X162671132Y-107042535D01*
X162397150Y-106658799D01*
X162101650Y-106309903D01*
X162101649Y-106309903D01*
X161128816Y-107282736D01*
X161067493Y-107316221D01*
X160997801Y-107311237D01*
X160949257Y-107278328D01*
X160868630Y-107189369D01*
X160779670Y-107108741D01*
X160743216Y-107049135D01*
X160744775Y-106979283D01*
X160775262Y-106929182D01*
X161748095Y-105956349D01*
X161399201Y-105660850D01*
X161015465Y-105386868D01*
X161015466Y-105386869D01*
X160610421Y-105145515D01*
X160610420Y-105145514D01*
X160186816Y-104938426D01*
X160186815Y-104938426D01*
X159747565Y-104767032D01*
X159295659Y-104632494D01*
X158834189Y-104535734D01*
X158834189Y-104535733D01*
X158366309Y-104477412D01*
X157895200Y-104457927D01*
X157424091Y-104477412D01*
X156956211Y-104535733D01*
X156956211Y-104535734D01*
X156494741Y-104632494D01*
X156042835Y-104767032D01*
X155603585Y-104938426D01*
X155603584Y-104938426D01*
X155179980Y-105145514D01*
X155179979Y-105145515D01*
X154774934Y-105386869D01*
X154774935Y-105386868D01*
X154391199Y-105660850D01*
X154042303Y-105956349D01*
X155015136Y-106929182D01*
X155048621Y-106990505D01*
X155043637Y-107060197D01*
X155010729Y-107108740D01*
X154921769Y-107189369D01*
X154841140Y-107278329D01*
X154781534Y-107314782D01*
X154711681Y-107313223D01*
X154661582Y-107282736D01*
X153688749Y-106309903D01*
X153393250Y-106658799D01*
X153119268Y-107042535D01*
X153119269Y-107042534D01*
X152877915Y-107447579D01*
X152877914Y-107447580D01*
X152670826Y-107871184D01*
X152670826Y-107871185D01*
X152499432Y-108310435D01*
X152364894Y-108762341D01*
X152268134Y-109223811D01*
X152268133Y-109223811D01*
X152209812Y-109691691D01*
X152190327Y-110162800D01*
X149954874Y-110162800D01*
X149939699Y-109950637D01*
X149878890Y-109671104D01*
X149778908Y-109403041D01*
X149641808Y-109151961D01*
X149641807Y-109151960D01*
X149535115Y-109009436D01*
X148750478Y-109794074D01*
X148689155Y-109827559D01*
X148619463Y-109822575D01*
X148563530Y-109780703D01*
X148563334Y-109780441D01*
X148511566Y-109710905D01*
X148463964Y-109670962D01*
X148405871Y-109622215D01*
X148367170Y-109564046D01*
X148366062Y-109494185D01*
X148397897Y-109439547D01*
X149181562Y-108655883D01*
X149181561Y-108655882D01*
X149039046Y-108549196D01*
X149039038Y-108549191D01*
X148787957Y-108412091D01*
X148787958Y-108412091D01*
X148519895Y-108312109D01*
X148240362Y-108251300D01*
X147955001Y-108230891D01*
X147954999Y-108230891D01*
X147669637Y-108251300D01*
X147390104Y-108312109D01*
X147122041Y-108412091D01*
X146870961Y-108549191D01*
X146870953Y-108549196D01*
X146728436Y-108655882D01*
X146728436Y-108655883D01*
X147511904Y-109439351D01*
X147545389Y-109500674D01*
X147540405Y-109570366D01*
X147498533Y-109626299D01*
X147492365Y-109630631D01*
X147463155Y-109649843D01*
X147336280Y-109784323D01*
X147334782Y-109782910D01*
X147287125Y-109818770D01*
X147217446Y-109823927D01*
X147156040Y-109790594D01*
X147155823Y-109790377D01*
X146374883Y-109009436D01*
X146374882Y-109009437D01*
X146268196Y-109151953D01*
X146268191Y-109151961D01*
X146131091Y-109403041D01*
X146031109Y-109671104D01*
X145970300Y-109950637D01*
X145949891Y-110235998D01*
X145949891Y-110236001D01*
X144880610Y-110236001D01*
X144880610Y-110235998D01*
X144869056Y-110074454D01*
X144860196Y-109950572D01*
X144856358Y-109932930D01*
X144799371Y-109670962D01*
X144799370Y-109670960D01*
X144799369Y-109670954D01*
X144699367Y-109402839D01*
X144659542Y-109329906D01*
X144562229Y-109151690D01*
X144562224Y-109151682D01*
X144390745Y-108922612D01*
X144390729Y-108922594D01*
X144188405Y-108720270D01*
X144188387Y-108720254D01*
X143959317Y-108548775D01*
X143959309Y-108548770D01*
X143708166Y-108411635D01*
X143708167Y-108411635D01*
X143600915Y-108371632D01*
X143440046Y-108311631D01*
X143440043Y-108311630D01*
X143440037Y-108311628D01*
X143160433Y-108250804D01*
X142875001Y-108230390D01*
X142874999Y-108230390D01*
X142589566Y-108250804D01*
X142309962Y-108311628D01*
X142041833Y-108411635D01*
X141790690Y-108548770D01*
X141790682Y-108548775D01*
X141561612Y-108720254D01*
X141561594Y-108720270D01*
X141359270Y-108922594D01*
X141359254Y-108922612D01*
X141187775Y-109151682D01*
X141187770Y-109151690D01*
X141050635Y-109402833D01*
X140950628Y-109670962D01*
X140889804Y-109950566D01*
X140869390Y-110235998D01*
X140869390Y-110236001D01*
X139795500Y-110236001D01*
X139795499Y-108688128D01*
X139789091Y-108628517D01*
X139789061Y-108628437D01*
X139738797Y-108493671D01*
X139738793Y-108493664D01*
X139652547Y-108378455D01*
X139652544Y-108378452D01*
X139537335Y-108292206D01*
X139537328Y-108292202D01*
X139402482Y-108241908D01*
X139402483Y-108241908D01*
X139342883Y-108235501D01*
X139342881Y-108235500D01*
X139342873Y-108235500D01*
X139342864Y-108235500D01*
X136247129Y-108235500D01*
X136247123Y-108235501D01*
X136187516Y-108241908D01*
X136052671Y-108292202D01*
X136052664Y-108292206D01*
X135937455Y-108378452D01*
X135937452Y-108378455D01*
X135851206Y-108493664D01*
X135851202Y-108493671D01*
X135800908Y-108628517D01*
X135794501Y-108688116D01*
X135794501Y-108688123D01*
X135794500Y-108688135D01*
X135794500Y-111783870D01*
X123147802Y-111783870D01*
X123170695Y-111778890D01*
X123438758Y-111678908D01*
X123689847Y-111541803D01*
X123832361Y-111435116D01*
X123832362Y-111435115D01*
X123048895Y-110651648D01*
X123015410Y-110590325D01*
X123020394Y-110520633D01*
X123062266Y-110464700D01*
X123068438Y-110460366D01*
X123075906Y-110455454D01*
X123097644Y-110441157D01*
X123219564Y-110311930D01*
X123219564Y-110311929D01*
X123224520Y-110306677D01*
X123226022Y-110308094D01*
X123273636Y-110272243D01*
X123343314Y-110267063D01*
X123404731Y-110300377D01*
X123404976Y-110300622D01*
X124185915Y-111081562D01*
X124185916Y-111081561D01*
X124292603Y-110939047D01*
X124429708Y-110687958D01*
X124529690Y-110419895D01*
X124590499Y-110140362D01*
X124610908Y-109855001D01*
X124610908Y-109854998D01*
X124590499Y-109569637D01*
X124529690Y-109290104D01*
X124429708Y-109022041D01*
X124292608Y-108770961D01*
X124292607Y-108770960D01*
X124185915Y-108628436D01*
X123401278Y-109413074D01*
X123339955Y-109446559D01*
X123270263Y-109441575D01*
X123214330Y-109399703D01*
X123214134Y-109399441D01*
X123162366Y-109329905D01*
X123114764Y-109289962D01*
X123056671Y-109241215D01*
X123017970Y-109183046D01*
X123016862Y-109113185D01*
X123048697Y-109058547D01*
X123832362Y-108274883D01*
X123832361Y-108274882D01*
X123689846Y-108168196D01*
X123689838Y-108168191D01*
X123438757Y-108031091D01*
X123438758Y-108031091D01*
X123170695Y-107931109D01*
X122891162Y-107870300D01*
X122605801Y-107849891D01*
X122605799Y-107849891D01*
X122320437Y-107870300D01*
X122040904Y-107931109D01*
X121772841Y-108031091D01*
X121521761Y-108168191D01*
X121521753Y-108168196D01*
X121379236Y-108274882D01*
X121379236Y-108274883D01*
X122162704Y-109058351D01*
X122196189Y-109119674D01*
X122191205Y-109189366D01*
X122149333Y-109245299D01*
X122143165Y-109249631D01*
X122113955Y-109268843D01*
X121987080Y-109403323D01*
X121985582Y-109401910D01*
X121937925Y-109437770D01*
X121868246Y-109442927D01*
X121806840Y-109409594D01*
X121806623Y-109409377D01*
X121025683Y-108628436D01*
X121025682Y-108628437D01*
X120918996Y-108770953D01*
X120918991Y-108770961D01*
X120781891Y-109022041D01*
X120681909Y-109290104D01*
X120621100Y-109569637D01*
X120600691Y-109854998D01*
X120600691Y-109855001D01*
X119531410Y-109855001D01*
X119531410Y-109855000D01*
X119531296Y-109853413D01*
X119525979Y-109779070D01*
X119510996Y-109569572D01*
X119507220Y-109552216D01*
X119450171Y-109289962D01*
X119450170Y-109289960D01*
X119450169Y-109289954D01*
X119350167Y-109021839D01*
X119343394Y-109009436D01*
X119213029Y-108770690D01*
X119213024Y-108770682D01*
X119041545Y-108541612D01*
X119041529Y-108541594D01*
X118839205Y-108339270D01*
X118839187Y-108339254D01*
X118610117Y-108167775D01*
X118610109Y-108167770D01*
X118358966Y-108030635D01*
X118358967Y-108030635D01*
X118251715Y-107990632D01*
X118090846Y-107930631D01*
X118090843Y-107930630D01*
X118090837Y-107930628D01*
X117811233Y-107869804D01*
X117525801Y-107849390D01*
X117525799Y-107849390D01*
X117240366Y-107869804D01*
X116960762Y-107930628D01*
X116692633Y-108030635D01*
X116441490Y-108167770D01*
X116441482Y-108167775D01*
X116212412Y-108339254D01*
X116212394Y-108339270D01*
X116010070Y-108541594D01*
X116010054Y-108541612D01*
X115838575Y-108770682D01*
X115838570Y-108770690D01*
X115701435Y-109021833D01*
X115601428Y-109289962D01*
X115540604Y-109569566D01*
X115520190Y-109854998D01*
X115520190Y-109855001D01*
X114446300Y-109855001D01*
X114446299Y-108307128D01*
X114439891Y-108247517D01*
X114437799Y-108241909D01*
X114389597Y-108112671D01*
X114389593Y-108112664D01*
X114303347Y-107997455D01*
X114303344Y-107997452D01*
X114188135Y-107911206D01*
X114188128Y-107911202D01*
X114053282Y-107860908D01*
X114053283Y-107860908D01*
X113993683Y-107854501D01*
X113993681Y-107854500D01*
X113993673Y-107854500D01*
X113993664Y-107854500D01*
X110897929Y-107854500D01*
X110897923Y-107854501D01*
X110838316Y-107860908D01*
X110703471Y-107911202D01*
X110703464Y-107911206D01*
X110588255Y-107997452D01*
X110588252Y-107997455D01*
X110502006Y-108112664D01*
X110502002Y-108112671D01*
X110451708Y-108247517D01*
X110446904Y-108292204D01*
X110445301Y-108307123D01*
X110445300Y-108307135D01*
X110445300Y-111402870D01*
X107859136Y-111402870D01*
X107922266Y-111101789D01*
X107922267Y-111101789D01*
X107980588Y-110633909D01*
X108000073Y-110162800D01*
X107980588Y-109691691D01*
X107922267Y-109223811D01*
X107922266Y-109223811D01*
X107825506Y-108762341D01*
X107690968Y-108310435D01*
X107519574Y-107871185D01*
X107519574Y-107871184D01*
X107312486Y-107447580D01*
X107312485Y-107447579D01*
X107071131Y-107042534D01*
X107071132Y-107042535D01*
X106797150Y-106658799D01*
X106501650Y-106309903D01*
X106501648Y-106309903D01*
X105528816Y-107282736D01*
X105467493Y-107316221D01*
X105397801Y-107311237D01*
X105349257Y-107278328D01*
X105268630Y-107189369D01*
X105179670Y-107108741D01*
X105143216Y-107049135D01*
X105144775Y-106979283D01*
X105175262Y-106929182D01*
X106148095Y-105956349D01*
X105799201Y-105660850D01*
X105415465Y-105386868D01*
X105415466Y-105386869D01*
X105010421Y-105145515D01*
X105010420Y-105145514D01*
X104586816Y-104938426D01*
X104586815Y-104938426D01*
X104147565Y-104767032D01*
X103695659Y-104632494D01*
X103234189Y-104535734D01*
X103234189Y-104535733D01*
X102766309Y-104477412D01*
X102295200Y-104457927D01*
X101824091Y-104477412D01*
X101356211Y-104535733D01*
X101356211Y-104535734D01*
X100894741Y-104632494D01*
X100442835Y-104767032D01*
X100003585Y-104938426D01*
X100003584Y-104938426D01*
X99579980Y-105145514D01*
X99579979Y-105145515D01*
X99174934Y-105386869D01*
X99174935Y-105386868D01*
X98791199Y-105660850D01*
X98442303Y-105956349D01*
X99415136Y-106929182D01*
X99448621Y-106990505D01*
X99443637Y-107060197D01*
X99410729Y-107108740D01*
X99321769Y-107189369D01*
X99241140Y-107278329D01*
X99181534Y-107314782D01*
X99111681Y-107313223D01*
X99061582Y-107282736D01*
X98088749Y-106309903D01*
X97793250Y-106658799D01*
X97519268Y-107042535D01*
X97519269Y-107042534D01*
X97277915Y-107447579D01*
X97277914Y-107447580D01*
X97070826Y-107871184D01*
X97070826Y-107871185D01*
X96899432Y-108310435D01*
X96764894Y-108762341D01*
X96668134Y-109223811D01*
X96668133Y-109223811D01*
X96609812Y-109691691D01*
X96590327Y-110162800D01*
X95095700Y-110162800D01*
X95095700Y-100107800D01*
X100539541Y-100107800D01*
X100560136Y-100343203D01*
X100560138Y-100343213D01*
X100621294Y-100571455D01*
X100621296Y-100571459D01*
X100621297Y-100571463D01*
X100635287Y-100601464D01*
X100721165Y-100785630D01*
X100721167Y-100785634D01*
X100829481Y-100940321D01*
X100856705Y-100979201D01*
X101023799Y-101146295D01*
X101066648Y-101176298D01*
X101217365Y-101281832D01*
X101217367Y-101281833D01*
X101217370Y-101281835D01*
X101431537Y-101381703D01*
X101659792Y-101442863D01*
X101848118Y-101459339D01*
X101895199Y-101463459D01*
X101895200Y-101463459D01*
X101895201Y-101463459D01*
X101934434Y-101460026D01*
X102130608Y-101442863D01*
X102358863Y-101381703D01*
X102573030Y-101281835D01*
X102766601Y-101146295D01*
X102933695Y-100979201D01*
X103069235Y-100785630D01*
X103169103Y-100571463D01*
X103230263Y-100343208D01*
X103248234Y-100137800D01*
X156939541Y-100137800D01*
X156960136Y-100373203D01*
X156960138Y-100373213D01*
X157021294Y-100601455D01*
X157021296Y-100601459D01*
X157021297Y-100601463D01*
X157107176Y-100785630D01*
X157121165Y-100815630D01*
X157121167Y-100815634D01*
X157229481Y-100970321D01*
X157256705Y-101009201D01*
X157423799Y-101176295D01*
X157520584Y-101244065D01*
X157617365Y-101311832D01*
X157617367Y-101311833D01*
X157617370Y-101311835D01*
X157831537Y-101411703D01*
X158059792Y-101472863D01*
X158248118Y-101489339D01*
X158295199Y-101493459D01*
X158295200Y-101493459D01*
X158295201Y-101493459D01*
X158334434Y-101490026D01*
X158530608Y-101472863D01*
X158758863Y-101411703D01*
X158973030Y-101311835D01*
X159166601Y-101176295D01*
X159333695Y-101009201D01*
X159469235Y-100815630D01*
X159569103Y-100601463D01*
X159630263Y-100373208D01*
X159650859Y-100137800D01*
X159630263Y-99902392D01*
X159569103Y-99674137D01*
X159469235Y-99459971D01*
X159448228Y-99429969D01*
X159333694Y-99266397D01*
X159166602Y-99099306D01*
X159166596Y-99099301D01*
X158981042Y-98969375D01*
X158937417Y-98914798D01*
X158930223Y-98845300D01*
X158961746Y-98782945D01*
X158981042Y-98766225D01*
X159023886Y-98736225D01*
X159166601Y-98636295D01*
X159333695Y-98469201D01*
X159469235Y-98275630D01*
X159569103Y-98061463D01*
X159630263Y-97833208D01*
X159650859Y-97597800D01*
X159650268Y-97591050D01*
X159641732Y-97493481D01*
X159630263Y-97362392D01*
X159569103Y-97134137D01*
X159469235Y-96919971D01*
X159448228Y-96889969D01*
X159333694Y-96726397D01*
X159166602Y-96559306D01*
X159166596Y-96559301D01*
X158981042Y-96429375D01*
X158937417Y-96374798D01*
X158930223Y-96305300D01*
X158961746Y-96242945D01*
X158981042Y-96226225D01*
X159037389Y-96186770D01*
X159166601Y-96096295D01*
X159333695Y-95929201D01*
X159469235Y-95735630D01*
X159569103Y-95521463D01*
X159630263Y-95293208D01*
X159650859Y-95057800D01*
X159630263Y-94822392D01*
X159569103Y-94594137D01*
X159469235Y-94379971D01*
X159448228Y-94349969D01*
X159333694Y-94186397D01*
X159166602Y-94019306D01*
X159166596Y-94019301D01*
X158981042Y-93889375D01*
X158937417Y-93834798D01*
X158930223Y-93765300D01*
X158961746Y-93702945D01*
X158981042Y-93686225D01*
X159023886Y-93656225D01*
X159166601Y-93556295D01*
X159333695Y-93389201D01*
X159469235Y-93195630D01*
X159569103Y-92981463D01*
X159630263Y-92753208D01*
X159650859Y-92517800D01*
X159630263Y-92282392D01*
X159569103Y-92054137D01*
X159469235Y-91839971D01*
X159448228Y-91809969D01*
X159333694Y-91646397D01*
X159166602Y-91479306D01*
X159166596Y-91479301D01*
X158981042Y-91349375D01*
X158937417Y-91294798D01*
X158930223Y-91225300D01*
X158961746Y-91162945D01*
X158981042Y-91146225D01*
X159023886Y-91116225D01*
X159166601Y-91016295D01*
X159333695Y-90849201D01*
X159469235Y-90655630D01*
X159569103Y-90441463D01*
X159630263Y-90213208D01*
X159650859Y-89977800D01*
X159630263Y-89742392D01*
X159569103Y-89514137D01*
X159469235Y-89299971D01*
X159448228Y-89269969D01*
X159333694Y-89106397D01*
X159166602Y-88939306D01*
X159166596Y-88939301D01*
X158981042Y-88809375D01*
X158937417Y-88754798D01*
X158930223Y-88685300D01*
X158961746Y-88622945D01*
X158981042Y-88606225D01*
X159023886Y-88576225D01*
X159166601Y-88476295D01*
X159333695Y-88309201D01*
X159469235Y-88115630D01*
X159569103Y-87901463D01*
X159630263Y-87673208D01*
X159650859Y-87437800D01*
X159630263Y-87202392D01*
X159569103Y-86974137D01*
X159469235Y-86759971D01*
X159448228Y-86729969D01*
X159333694Y-86566397D01*
X159166602Y-86399306D01*
X159166596Y-86399301D01*
X158981042Y-86269375D01*
X158937417Y-86214798D01*
X158930223Y-86145300D01*
X158961746Y-86082945D01*
X158981042Y-86066225D01*
X159023886Y-86036225D01*
X159166601Y-85936295D01*
X159333695Y-85769201D01*
X159469235Y-85575630D01*
X159569103Y-85361463D01*
X159630263Y-85133208D01*
X159650859Y-84897800D01*
X159630263Y-84662392D01*
X159569103Y-84434137D01*
X159469235Y-84219971D01*
X159448228Y-84189969D01*
X159333694Y-84026397D01*
X159166602Y-83859306D01*
X159166596Y-83859301D01*
X158981042Y-83729375D01*
X158937417Y-83674798D01*
X158930223Y-83605300D01*
X158961746Y-83542945D01*
X158981042Y-83526225D01*
X159023886Y-83496225D01*
X159166601Y-83396295D01*
X159333695Y-83229201D01*
X159469235Y-83035630D01*
X159569103Y-82821463D01*
X159630263Y-82593208D01*
X159650859Y-82357800D01*
X159630263Y-82122392D01*
X159569103Y-81894137D01*
X159469235Y-81679971D01*
X159448228Y-81649969D01*
X159333694Y-81486397D01*
X159166602Y-81319306D01*
X159166596Y-81319301D01*
X158981042Y-81189375D01*
X158937417Y-81134798D01*
X158930223Y-81065300D01*
X158961746Y-81002945D01*
X158981042Y-80986225D01*
X159023886Y-80956225D01*
X159166601Y-80856295D01*
X159333695Y-80689201D01*
X159469235Y-80495630D01*
X159569103Y-80281463D01*
X159630263Y-80053208D01*
X159650859Y-79817800D01*
X159630263Y-79582392D01*
X159569103Y-79354137D01*
X159469235Y-79139971D01*
X159448228Y-79109969D01*
X159333694Y-78946397D01*
X159166602Y-78779306D01*
X159166596Y-78779301D01*
X158981042Y-78649375D01*
X158937417Y-78594798D01*
X158930223Y-78525300D01*
X158961746Y-78462945D01*
X158981042Y-78446225D01*
X159023886Y-78416225D01*
X159166601Y-78316295D01*
X159333695Y-78149201D01*
X159469235Y-77955630D01*
X159569103Y-77741463D01*
X159630263Y-77513208D01*
X159650859Y-77277800D01*
X159630263Y-77042392D01*
X159569103Y-76814137D01*
X159469235Y-76599971D01*
X159448228Y-76569969D01*
X159333694Y-76406397D01*
X159166602Y-76239306D01*
X159166596Y-76239301D01*
X158981042Y-76109375D01*
X158937417Y-76054798D01*
X158930223Y-75985300D01*
X158961746Y-75922945D01*
X158981042Y-75906225D01*
X159023886Y-75876225D01*
X159166601Y-75776295D01*
X159333695Y-75609201D01*
X159469235Y-75415630D01*
X159569103Y-75201463D01*
X159630263Y-74973208D01*
X159650859Y-74737800D01*
X159630263Y-74502392D01*
X159569103Y-74274137D01*
X159469235Y-74059971D01*
X159448228Y-74029969D01*
X159333694Y-73866397D01*
X159166602Y-73699306D01*
X159166596Y-73699301D01*
X158981042Y-73569375D01*
X158937417Y-73514798D01*
X158930223Y-73445300D01*
X158961746Y-73382945D01*
X158981042Y-73366225D01*
X159023886Y-73336225D01*
X159166601Y-73236295D01*
X159333695Y-73069201D01*
X159469235Y-72875630D01*
X159569103Y-72661463D01*
X159630263Y-72433208D01*
X159650859Y-72197800D01*
X159630263Y-71962392D01*
X159569103Y-71734137D01*
X159469235Y-71519971D01*
X159448228Y-71489969D01*
X159333694Y-71326397D01*
X159166602Y-71159306D01*
X159166596Y-71159301D01*
X158981042Y-71029375D01*
X158937417Y-70974798D01*
X158930223Y-70905300D01*
X158961746Y-70842945D01*
X158981042Y-70826225D01*
X159023886Y-70796225D01*
X159166601Y-70696295D01*
X159333695Y-70529201D01*
X159469235Y-70335630D01*
X159569103Y-70121463D01*
X159630263Y-69893208D01*
X159650859Y-69657800D01*
X159630263Y-69422392D01*
X159569103Y-69194137D01*
X159469235Y-68979971D01*
X159448228Y-68949969D01*
X159333694Y-68786397D01*
X159166602Y-68619306D01*
X159166596Y-68619301D01*
X158981042Y-68489375D01*
X158937417Y-68434798D01*
X158930223Y-68365300D01*
X158961746Y-68302945D01*
X158981042Y-68286225D01*
X159090842Y-68209342D01*
X159166601Y-68156295D01*
X159333695Y-67989201D01*
X159469235Y-67795630D01*
X159569103Y-67581463D01*
X159630263Y-67353208D01*
X159650859Y-67117800D01*
X159630263Y-66882392D01*
X159574699Y-66675021D01*
X159569105Y-66654144D01*
X159569104Y-66654143D01*
X159569103Y-66654137D01*
X159469235Y-66439971D01*
X159448227Y-66409969D01*
X159333696Y-66246400D01*
X159274066Y-66186770D01*
X159211767Y-66124471D01*
X159178284Y-66063151D01*
X159183268Y-65993459D01*
X159225139Y-65937525D01*
X159256115Y-65920610D01*
X159387531Y-65871596D01*
X159502746Y-65785346D01*
X159588996Y-65670131D01*
X159639291Y-65535283D01*
X159645700Y-65475673D01*
X159645699Y-63679928D01*
X159639291Y-63620317D01*
X159628101Y-63590316D01*
X159588997Y-63485471D01*
X159588993Y-63485464D01*
X159502747Y-63370255D01*
X159502744Y-63370252D01*
X159387535Y-63284006D01*
X159387528Y-63284002D01*
X159252682Y-63233708D01*
X159252683Y-63233708D01*
X159193083Y-63227301D01*
X159193081Y-63227300D01*
X159193073Y-63227300D01*
X159193064Y-63227300D01*
X157397329Y-63227300D01*
X157397323Y-63227301D01*
X157337716Y-63233708D01*
X157202871Y-63284002D01*
X157202864Y-63284006D01*
X157087655Y-63370252D01*
X157087652Y-63370255D01*
X157001406Y-63485464D01*
X157001402Y-63485471D01*
X156951108Y-63620317D01*
X156944701Y-63679916D01*
X156944701Y-63679923D01*
X156944700Y-63679935D01*
X156944700Y-65475670D01*
X156944701Y-65475676D01*
X156951108Y-65535283D01*
X157001402Y-65670128D01*
X157001406Y-65670135D01*
X157087652Y-65785344D01*
X157087655Y-65785347D01*
X157202864Y-65871593D01*
X157202871Y-65871597D01*
X157334281Y-65920610D01*
X157390215Y-65962481D01*
X157414632Y-66027945D01*
X157399780Y-66096218D01*
X157378630Y-66124473D01*
X157256703Y-66246400D01*
X157121165Y-66439969D01*
X157121164Y-66439971D01*
X157021298Y-66654135D01*
X157021294Y-66654144D01*
X156960138Y-66882386D01*
X156960136Y-66882396D01*
X156939541Y-67117799D01*
X156939541Y-67117800D01*
X156960136Y-67353203D01*
X156960138Y-67353213D01*
X157021294Y-67581455D01*
X157021296Y-67581459D01*
X157021297Y-67581463D01*
X157066235Y-67677832D01*
X157121165Y-67795630D01*
X157121167Y-67795634D01*
X157199917Y-67908100D01*
X157244815Y-67972221D01*
X157256701Y-67989195D01*
X157256706Y-67989202D01*
X157423797Y-68156293D01*
X157423803Y-68156298D01*
X157609358Y-68286225D01*
X157652983Y-68340802D01*
X157660177Y-68410300D01*
X157628654Y-68472655D01*
X157609358Y-68489375D01*
X157423797Y-68619305D01*
X157256705Y-68786397D01*
X157121165Y-68979969D01*
X157121164Y-68979971D01*
X157021298Y-69194135D01*
X157021294Y-69194144D01*
X156960138Y-69422386D01*
X156960136Y-69422396D01*
X156939541Y-69657799D01*
X156939541Y-69657800D01*
X156960136Y-69893203D01*
X156960138Y-69893213D01*
X157021294Y-70121455D01*
X157021296Y-70121459D01*
X157021297Y-70121463D01*
X157107176Y-70305630D01*
X157121165Y-70335630D01*
X157121167Y-70335634D01*
X157229481Y-70490321D01*
X157235699Y-70499202D01*
X157256701Y-70529195D01*
X157256706Y-70529202D01*
X157423797Y-70696293D01*
X157423803Y-70696298D01*
X157609358Y-70826225D01*
X157652983Y-70880802D01*
X157660177Y-70950300D01*
X157628654Y-71012655D01*
X157609358Y-71029375D01*
X157423797Y-71159305D01*
X157256705Y-71326397D01*
X157121165Y-71519969D01*
X157121164Y-71519971D01*
X157021298Y-71734135D01*
X157021294Y-71734144D01*
X156960138Y-71962386D01*
X156960136Y-71962396D01*
X156939541Y-72197799D01*
X156939541Y-72197800D01*
X156960136Y-72433203D01*
X156960138Y-72433213D01*
X157021294Y-72661455D01*
X157021296Y-72661459D01*
X157021297Y-72661463D01*
X157107176Y-72845630D01*
X157121165Y-72875630D01*
X157121167Y-72875634D01*
X157229481Y-73030321D01*
X157235699Y-73039202D01*
X157256701Y-73069195D01*
X157256706Y-73069202D01*
X157423797Y-73236293D01*
X157423803Y-73236298D01*
X157609358Y-73366225D01*
X157652983Y-73420802D01*
X157660177Y-73490300D01*
X157628654Y-73552655D01*
X157609358Y-73569375D01*
X157423797Y-73699305D01*
X157256705Y-73866397D01*
X157121165Y-74059969D01*
X157121164Y-74059971D01*
X157021298Y-74274135D01*
X157021294Y-74274144D01*
X156960138Y-74502386D01*
X156960136Y-74502396D01*
X156939541Y-74737799D01*
X156939541Y-74737800D01*
X156960136Y-74973203D01*
X156960138Y-74973213D01*
X157021294Y-75201455D01*
X157021296Y-75201459D01*
X157021297Y-75201463D01*
X157107176Y-75385630D01*
X157121165Y-75415630D01*
X157121167Y-75415634D01*
X157229481Y-75570321D01*
X157235699Y-75579202D01*
X157256701Y-75609195D01*
X157256706Y-75609202D01*
X157423797Y-75776293D01*
X157423803Y-75776298D01*
X157609358Y-75906225D01*
X157652983Y-75960802D01*
X157660177Y-76030300D01*
X157628654Y-76092655D01*
X157609358Y-76109375D01*
X157423797Y-76239305D01*
X157256705Y-76406397D01*
X157121165Y-76599969D01*
X157121164Y-76599971D01*
X157021298Y-76814135D01*
X157021294Y-76814144D01*
X156960138Y-77042386D01*
X156960136Y-77042396D01*
X156939541Y-77277799D01*
X156939541Y-77277800D01*
X156960136Y-77513203D01*
X156960138Y-77513213D01*
X157021294Y-77741455D01*
X157021296Y-77741459D01*
X157021297Y-77741463D01*
X157107176Y-77925630D01*
X157121165Y-77955630D01*
X157121167Y-77955634D01*
X157229481Y-78110321D01*
X157235699Y-78119202D01*
X157256701Y-78149195D01*
X157256706Y-78149202D01*
X157423797Y-78316293D01*
X157423803Y-78316298D01*
X157609358Y-78446225D01*
X157652983Y-78500802D01*
X157660177Y-78570300D01*
X157628654Y-78632655D01*
X157609358Y-78649375D01*
X157423797Y-78779305D01*
X157256705Y-78946397D01*
X157121165Y-79139969D01*
X157121164Y-79139971D01*
X157021298Y-79354135D01*
X157021294Y-79354144D01*
X156960138Y-79582386D01*
X156960136Y-79582396D01*
X156939541Y-79817799D01*
X156939541Y-79817800D01*
X156960136Y-80053203D01*
X156960138Y-80053213D01*
X157021294Y-80281455D01*
X157021296Y-80281459D01*
X157021297Y-80281463D01*
X157107176Y-80465630D01*
X157121165Y-80495630D01*
X157121167Y-80495634D01*
X157229481Y-80650321D01*
X157235699Y-80659202D01*
X157256701Y-80689195D01*
X157256706Y-80689202D01*
X157423797Y-80856293D01*
X157423803Y-80856298D01*
X157609358Y-80986225D01*
X157652983Y-81040802D01*
X157660177Y-81110300D01*
X157628654Y-81172655D01*
X157609358Y-81189375D01*
X157423797Y-81319305D01*
X157256705Y-81486397D01*
X157121165Y-81679969D01*
X157121164Y-81679971D01*
X157021298Y-81894135D01*
X157021294Y-81894144D01*
X156960138Y-82122386D01*
X156960136Y-82122396D01*
X156939541Y-82357799D01*
X156939541Y-82357800D01*
X156960136Y-82593203D01*
X156960138Y-82593213D01*
X157021294Y-82821455D01*
X157021296Y-82821459D01*
X157021297Y-82821463D01*
X157107176Y-83005630D01*
X157121165Y-83035630D01*
X157121167Y-83035634D01*
X157229481Y-83190321D01*
X157235699Y-83199202D01*
X157256701Y-83229195D01*
X157256706Y-83229202D01*
X157423797Y-83396293D01*
X157423803Y-83396298D01*
X157609358Y-83526225D01*
X157652983Y-83580802D01*
X157660177Y-83650300D01*
X157628654Y-83712655D01*
X157609358Y-83729375D01*
X157423797Y-83859305D01*
X157256705Y-84026397D01*
X157121165Y-84219969D01*
X157121164Y-84219971D01*
X157021298Y-84434135D01*
X157021294Y-84434144D01*
X156960138Y-84662386D01*
X156960136Y-84662396D01*
X156939541Y-84897799D01*
X156939541Y-84897800D01*
X156960136Y-85133203D01*
X156960138Y-85133213D01*
X157021294Y-85361455D01*
X157021296Y-85361459D01*
X157021297Y-85361463D01*
X157107176Y-85545630D01*
X157121165Y-85575630D01*
X157121167Y-85575634D01*
X157229481Y-85730321D01*
X157235699Y-85739202D01*
X157256701Y-85769195D01*
X157256706Y-85769202D01*
X157423797Y-85936293D01*
X157423803Y-85936298D01*
X157609358Y-86066225D01*
X157652983Y-86120802D01*
X157660177Y-86190300D01*
X157628654Y-86252655D01*
X157609358Y-86269375D01*
X157423797Y-86399305D01*
X157256705Y-86566397D01*
X157121165Y-86759969D01*
X157121164Y-86759971D01*
X157021298Y-86974135D01*
X157021294Y-86974144D01*
X156960138Y-87202386D01*
X156960136Y-87202396D01*
X156939541Y-87437799D01*
X156939541Y-87437800D01*
X156960136Y-87673203D01*
X156960138Y-87673213D01*
X157021294Y-87901455D01*
X157021296Y-87901459D01*
X157021297Y-87901463D01*
X157107176Y-88085630D01*
X157121165Y-88115630D01*
X157121167Y-88115634D01*
X157229481Y-88270321D01*
X157235699Y-88279202D01*
X157256701Y-88309195D01*
X157256706Y-88309202D01*
X157423797Y-88476293D01*
X157423803Y-88476298D01*
X157609358Y-88606225D01*
X157652983Y-88660802D01*
X157660177Y-88730300D01*
X157628654Y-88792655D01*
X157609358Y-88809375D01*
X157423797Y-88939305D01*
X157256705Y-89106397D01*
X157121165Y-89299969D01*
X157121164Y-89299971D01*
X157021298Y-89514135D01*
X157021294Y-89514144D01*
X156960138Y-89742386D01*
X156960136Y-89742396D01*
X156939541Y-89977799D01*
X156939541Y-89977800D01*
X156960136Y-90213203D01*
X156960138Y-90213213D01*
X157021294Y-90441455D01*
X157021296Y-90441459D01*
X157021297Y-90441463D01*
X157107176Y-90625630D01*
X157121165Y-90655630D01*
X157121167Y-90655634D01*
X157229481Y-90810321D01*
X157235699Y-90819202D01*
X157256701Y-90849195D01*
X157256706Y-90849202D01*
X157423797Y-91016293D01*
X157423803Y-91016298D01*
X157609358Y-91146225D01*
X157652983Y-91200802D01*
X157660177Y-91270300D01*
X157628654Y-91332655D01*
X157609358Y-91349375D01*
X157423797Y-91479305D01*
X157256705Y-91646397D01*
X157121165Y-91839969D01*
X157121164Y-91839971D01*
X157021298Y-92054135D01*
X157021294Y-92054144D01*
X156960138Y-92282386D01*
X156960136Y-92282396D01*
X156939541Y-92517799D01*
X156939541Y-92517800D01*
X156960136Y-92753203D01*
X156960138Y-92753213D01*
X157021294Y-92981455D01*
X157021296Y-92981459D01*
X157021297Y-92981463D01*
X157107176Y-93165630D01*
X157121165Y-93195630D01*
X157121167Y-93195634D01*
X157229481Y-93350321D01*
X157235699Y-93359202D01*
X157256701Y-93389195D01*
X157256706Y-93389202D01*
X157423797Y-93556293D01*
X157423803Y-93556298D01*
X157609358Y-93686225D01*
X157652983Y-93740802D01*
X157660177Y-93810300D01*
X157628654Y-93872655D01*
X157609358Y-93889375D01*
X157423797Y-94019305D01*
X157256705Y-94186397D01*
X157121165Y-94379969D01*
X157121164Y-94379971D01*
X157021298Y-94594135D01*
X157021294Y-94594144D01*
X156960138Y-94822386D01*
X156960136Y-94822396D01*
X156939541Y-95057799D01*
X156939541Y-95057800D01*
X156960136Y-95293203D01*
X156960138Y-95293213D01*
X157021294Y-95521455D01*
X157021296Y-95521459D01*
X157021297Y-95521463D01*
X157107176Y-95705630D01*
X157121165Y-95735630D01*
X157121167Y-95735634D01*
X157229450Y-95890277D01*
X157235699Y-95899202D01*
X157256701Y-95929195D01*
X157256706Y-95929202D01*
X157423797Y-96096293D01*
X157423803Y-96096298D01*
X157609358Y-96226225D01*
X157652983Y-96280802D01*
X157660177Y-96350300D01*
X157628654Y-96412655D01*
X157609358Y-96429375D01*
X157423797Y-96559305D01*
X157256705Y-96726397D01*
X157121165Y-96919969D01*
X157121164Y-96919971D01*
X157021298Y-97134135D01*
X157021294Y-97134144D01*
X156960138Y-97362386D01*
X156960136Y-97362396D01*
X156939541Y-97597799D01*
X156939541Y-97597800D01*
X156960136Y-97833203D01*
X156960138Y-97833213D01*
X157021294Y-98061455D01*
X157021296Y-98061459D01*
X157021297Y-98061463D01*
X157090254Y-98209341D01*
X157121165Y-98275630D01*
X157121167Y-98275634D01*
X157211872Y-98405173D01*
X157235699Y-98439202D01*
X157256701Y-98469195D01*
X157256706Y-98469202D01*
X157423797Y-98636293D01*
X157423803Y-98636298D01*
X157609358Y-98766225D01*
X157652983Y-98820802D01*
X157660177Y-98890300D01*
X157628654Y-98952655D01*
X157609358Y-98969375D01*
X157423797Y-99099305D01*
X157256705Y-99266397D01*
X157121165Y-99459969D01*
X157121164Y-99459971D01*
X157021298Y-99674135D01*
X157021294Y-99674144D01*
X156960138Y-99902386D01*
X156960136Y-99902396D01*
X156939541Y-100137799D01*
X156939541Y-100137800D01*
X103248234Y-100137800D01*
X103250859Y-100107800D01*
X103230263Y-99872392D01*
X103169103Y-99644137D01*
X103069235Y-99429971D01*
X102954702Y-99266399D01*
X102933694Y-99236397D01*
X102766602Y-99069306D01*
X102766596Y-99069301D01*
X102581042Y-98939375D01*
X102537417Y-98884798D01*
X102530223Y-98815300D01*
X102561746Y-98752945D01*
X102581042Y-98736225D01*
X102723752Y-98636298D01*
X102766601Y-98606295D01*
X102933695Y-98439201D01*
X103069235Y-98245630D01*
X103169103Y-98031463D01*
X103230263Y-97803208D01*
X103250859Y-97567800D01*
X103230263Y-97332392D01*
X103183429Y-97157602D01*
X110214277Y-97157602D01*
X110233529Y-97377662D01*
X110233530Y-97377670D01*
X110290704Y-97591045D01*
X110290705Y-97591047D01*
X110290706Y-97591050D01*
X110332384Y-97680429D01*
X110384066Y-97791262D01*
X110384068Y-97791266D01*
X110510770Y-97972215D01*
X110510775Y-97972221D01*
X110666978Y-98128424D01*
X110666984Y-98128429D01*
X110847933Y-98255131D01*
X110847935Y-98255132D01*
X110847938Y-98255134D01*
X111048150Y-98348494D01*
X111261532Y-98405670D01*
X111418723Y-98419422D01*
X111481598Y-98424923D01*
X111481600Y-98424923D01*
X111481602Y-98424923D01*
X111536616Y-98420109D01*
X111701668Y-98405670D01*
X111915050Y-98348494D01*
X112115262Y-98255134D01*
X112296220Y-98128426D01*
X112452426Y-97972220D01*
X112579134Y-97791262D01*
X112672494Y-97591050D01*
X112729670Y-97377668D01*
X112748923Y-97157602D01*
X116214277Y-97157602D01*
X116233529Y-97377662D01*
X116233530Y-97377670D01*
X116290704Y-97591045D01*
X116290705Y-97591047D01*
X116290706Y-97591050D01*
X116332384Y-97680429D01*
X116384066Y-97791262D01*
X116384068Y-97791266D01*
X116510770Y-97972215D01*
X116510775Y-97972221D01*
X116666978Y-98128424D01*
X116666984Y-98128429D01*
X116847933Y-98255131D01*
X116847935Y-98255132D01*
X116847938Y-98255134D01*
X117048150Y-98348494D01*
X117261532Y-98405670D01*
X117418723Y-98419422D01*
X117481598Y-98424923D01*
X117481600Y-98424923D01*
X117481602Y-98424923D01*
X117536617Y-98420109D01*
X117701668Y-98405670D01*
X117915050Y-98348494D01*
X118115262Y-98255134D01*
X118296220Y-98128426D01*
X118452426Y-97972220D01*
X118579134Y-97791262D01*
X118672494Y-97591050D01*
X118729670Y-97377668D01*
X118748923Y-97157600D01*
X122214779Y-97157600D01*
X122234024Y-97377576D01*
X122234026Y-97377586D01*
X122291175Y-97590870D01*
X122291180Y-97590884D01*
X122384499Y-97791007D01*
X122384500Y-97791009D01*
X122429858Y-97855787D01*
X122958650Y-97326995D01*
X123019973Y-97293510D01*
X123089664Y-97298494D01*
X123145598Y-97340365D01*
X123150139Y-97346854D01*
X123197413Y-97419212D01*
X123297757Y-97497313D01*
X123297760Y-97497314D01*
X123298111Y-97497587D01*
X123338924Y-97554297D01*
X123342599Y-97624070D01*
X123309630Y-97683122D01*
X122783411Y-98209341D01*
X122848182Y-98254694D01*
X122848192Y-98254700D01*
X123048315Y-98348019D01*
X123048329Y-98348024D01*
X123261613Y-98405173D01*
X123261623Y-98405175D01*
X123481599Y-98424421D01*
X123481601Y-98424421D01*
X123701576Y-98405175D01*
X123701586Y-98405173D01*
X123914870Y-98348024D01*
X123914884Y-98348019D01*
X124115008Y-98254700D01*
X124115020Y-98254693D01*
X124179786Y-98209342D01*
X124179787Y-98209340D01*
X123650876Y-97680429D01*
X123617391Y-97619106D01*
X123622375Y-97549414D01*
X123664247Y-97493481D01*
X123679533Y-97483697D01*
X123718851Y-97462420D01*
X123804971Y-97368869D01*
X123805683Y-97367243D01*
X123807252Y-97365377D01*
X123810592Y-97360266D01*
X123811209Y-97360669D01*
X123850636Y-97313758D01*
X123917370Y-97293064D01*
X123984699Y-97311735D01*
X124006922Y-97329369D01*
X124533340Y-97855787D01*
X124533342Y-97855786D01*
X124578693Y-97791020D01*
X124578700Y-97791008D01*
X124672019Y-97590884D01*
X124672024Y-97590870D01*
X124729173Y-97377586D01*
X124729175Y-97377576D01*
X124748421Y-97157602D01*
X135868277Y-97157602D01*
X135887529Y-97377662D01*
X135887530Y-97377670D01*
X135944704Y-97591045D01*
X135944705Y-97591047D01*
X135944706Y-97591050D01*
X135986384Y-97680429D01*
X136038066Y-97791262D01*
X136038068Y-97791266D01*
X136164770Y-97972215D01*
X136164775Y-97972221D01*
X136320978Y-98128424D01*
X136320984Y-98128429D01*
X136501933Y-98255131D01*
X136501935Y-98255132D01*
X136501938Y-98255134D01*
X136702150Y-98348494D01*
X136915532Y-98405670D01*
X137072723Y-98419422D01*
X137135598Y-98424923D01*
X137135600Y-98424923D01*
X137135602Y-98424923D01*
X137190617Y-98420109D01*
X137355668Y-98405670D01*
X137569050Y-98348494D01*
X137769262Y-98255134D01*
X137950220Y-98128426D01*
X138106426Y-97972220D01*
X138233134Y-97791262D01*
X138326494Y-97591050D01*
X138383670Y-97377668D01*
X138402923Y-97157602D01*
X141868277Y-97157602D01*
X141887529Y-97377662D01*
X141887530Y-97377670D01*
X141944704Y-97591045D01*
X141944705Y-97591047D01*
X141944706Y-97591050D01*
X141986384Y-97680429D01*
X142038066Y-97791262D01*
X142038068Y-97791266D01*
X142164770Y-97972215D01*
X142164775Y-97972221D01*
X142320978Y-98128424D01*
X142320984Y-98128429D01*
X142501933Y-98255131D01*
X142501935Y-98255132D01*
X142501938Y-98255134D01*
X142702150Y-98348494D01*
X142915532Y-98405670D01*
X143072723Y-98419422D01*
X143135598Y-98424923D01*
X143135600Y-98424923D01*
X143135602Y-98424923D01*
X143190617Y-98420109D01*
X143355668Y-98405670D01*
X143569050Y-98348494D01*
X143769262Y-98255134D01*
X143950220Y-98128426D01*
X144106426Y-97972220D01*
X144233134Y-97791262D01*
X144326494Y-97591050D01*
X144383670Y-97377668D01*
X144402923Y-97157600D01*
X147868779Y-97157600D01*
X147888024Y-97377576D01*
X147888026Y-97377586D01*
X147945175Y-97590870D01*
X147945180Y-97590884D01*
X148038499Y-97791007D01*
X148038500Y-97791009D01*
X148083858Y-97855787D01*
X148612650Y-97326995D01*
X148673973Y-97293510D01*
X148743664Y-97298494D01*
X148799598Y-97340365D01*
X148804139Y-97346854D01*
X148851413Y-97419212D01*
X148951757Y-97497313D01*
X148951760Y-97497314D01*
X148952111Y-97497587D01*
X148992924Y-97554297D01*
X148996599Y-97624070D01*
X148963630Y-97683122D01*
X148437411Y-98209341D01*
X148502182Y-98254694D01*
X148502192Y-98254700D01*
X148702315Y-98348019D01*
X148702329Y-98348024D01*
X148915613Y-98405173D01*
X148915623Y-98405175D01*
X149135599Y-98424421D01*
X149135601Y-98424421D01*
X149355576Y-98405175D01*
X149355586Y-98405173D01*
X149568870Y-98348024D01*
X149568884Y-98348019D01*
X149769008Y-98254700D01*
X149769020Y-98254693D01*
X149833786Y-98209342D01*
X149833787Y-98209340D01*
X149304876Y-97680429D01*
X149271391Y-97619106D01*
X149276375Y-97549414D01*
X149318247Y-97493481D01*
X149333533Y-97483697D01*
X149372851Y-97462420D01*
X149458971Y-97368869D01*
X149459683Y-97367243D01*
X149461252Y-97365377D01*
X149464592Y-97360266D01*
X149465209Y-97360669D01*
X149504636Y-97313758D01*
X149571370Y-97293064D01*
X149638699Y-97311735D01*
X149660922Y-97329369D01*
X150187340Y-97855787D01*
X150187342Y-97855786D01*
X150232693Y-97791020D01*
X150232700Y-97791008D01*
X150326019Y-97590884D01*
X150326024Y-97590870D01*
X150383173Y-97377586D01*
X150383175Y-97377576D01*
X150402421Y-97157600D01*
X150402421Y-97157599D01*
X150383175Y-96937623D01*
X150383173Y-96937613D01*
X150326024Y-96724329D01*
X150326020Y-96724320D01*
X150232698Y-96524190D01*
X150187340Y-96459411D01*
X149658549Y-96988202D01*
X149597226Y-97021687D01*
X149527534Y-97016703D01*
X149471601Y-96974831D01*
X149467060Y-96968343D01*
X149419789Y-96895991D01*
X149419787Y-96895988D01*
X149364273Y-96852780D01*
X149319443Y-96817887D01*
X149319440Y-96817885D01*
X149319088Y-96817612D01*
X149278275Y-96760901D01*
X149274600Y-96691129D01*
X149307569Y-96632077D01*
X149833787Y-96105858D01*
X149769009Y-96060500D01*
X149769007Y-96060499D01*
X149568884Y-95967180D01*
X149568870Y-95967175D01*
X149355586Y-95910026D01*
X149355576Y-95910024D01*
X149135601Y-95890779D01*
X149135599Y-95890779D01*
X148915623Y-95910024D01*
X148915613Y-95910026D01*
X148702329Y-95967175D01*
X148702320Y-95967179D01*
X148502186Y-96060503D01*
X148437412Y-96105857D01*
X148437411Y-96105858D01*
X148966323Y-96634770D01*
X148999808Y-96696093D01*
X148994824Y-96765785D01*
X148952952Y-96821718D01*
X148937659Y-96831506D01*
X148898349Y-96852779D01*
X148898348Y-96852779D01*
X148812226Y-96946333D01*
X148812226Y-96946334D01*
X148811511Y-96947965D01*
X148809940Y-96949833D01*
X148806608Y-96954934D01*
X148805991Y-96954531D01*
X148766552Y-97001449D01*
X148699815Y-97022135D01*
X148632488Y-97003457D01*
X148610277Y-96985830D01*
X148083858Y-96459411D01*
X148083857Y-96459412D01*
X148038503Y-96524186D01*
X147945179Y-96724320D01*
X147945175Y-96724329D01*
X147888026Y-96937613D01*
X147888024Y-96937623D01*
X147868779Y-97157599D01*
X147868779Y-97157600D01*
X144402923Y-97157600D01*
X144400132Y-97125702D01*
X144394627Y-97062777D01*
X144383670Y-96937532D01*
X144326494Y-96724150D01*
X144233134Y-96523939D01*
X144128705Y-96374798D01*
X144106427Y-96342981D01*
X144038744Y-96275298D01*
X143950220Y-96186774D01*
X143950216Y-96186771D01*
X143950215Y-96186770D01*
X143769266Y-96060068D01*
X143769262Y-96060066D01*
X143769262Y-96060065D01*
X143569050Y-95966706D01*
X143569047Y-95966705D01*
X143569045Y-95966704D01*
X143355670Y-95909530D01*
X143355662Y-95909529D01*
X143135602Y-95890277D01*
X143135598Y-95890277D01*
X142915537Y-95909529D01*
X142915529Y-95909530D01*
X142702154Y-95966704D01*
X142702148Y-95966707D01*
X142501940Y-96060065D01*
X142501938Y-96060066D01*
X142320977Y-96186775D01*
X142164775Y-96342977D01*
X142038066Y-96523938D01*
X142038065Y-96523940D01*
X141944707Y-96724148D01*
X141944704Y-96724154D01*
X141887530Y-96937529D01*
X141887529Y-96937537D01*
X141868277Y-97157597D01*
X141868277Y-97157602D01*
X138402923Y-97157602D01*
X138402923Y-97157600D01*
X138400132Y-97125702D01*
X138394627Y-97062777D01*
X138383670Y-96937532D01*
X138326494Y-96724150D01*
X138233134Y-96523939D01*
X138128705Y-96374798D01*
X138106427Y-96342981D01*
X138038744Y-96275298D01*
X137950220Y-96186774D01*
X137950216Y-96186771D01*
X137950215Y-96186770D01*
X137769266Y-96060068D01*
X137769262Y-96060066D01*
X137769260Y-96060065D01*
X137569050Y-95966706D01*
X137569047Y-95966705D01*
X137569045Y-95966704D01*
X137355670Y-95909530D01*
X137355662Y-95909529D01*
X137135602Y-95890277D01*
X137135598Y-95890277D01*
X136915537Y-95909529D01*
X136915529Y-95909530D01*
X136702154Y-95966704D01*
X136702148Y-95966707D01*
X136501940Y-96060065D01*
X136501938Y-96060066D01*
X136320977Y-96186775D01*
X136164775Y-96342977D01*
X136038066Y-96523938D01*
X136038065Y-96523940D01*
X135944707Y-96724148D01*
X135944704Y-96724154D01*
X135887530Y-96937529D01*
X135887529Y-96937537D01*
X135868277Y-97157597D01*
X135868277Y-97157602D01*
X124748421Y-97157602D01*
X124748421Y-97157600D01*
X124748421Y-97157599D01*
X124729175Y-96937623D01*
X124729173Y-96937613D01*
X124672024Y-96724329D01*
X124672020Y-96724320D01*
X124578698Y-96524190D01*
X124533340Y-96459411D01*
X124004549Y-96988202D01*
X123943226Y-97021687D01*
X123873534Y-97016703D01*
X123817601Y-96974831D01*
X123813060Y-96968343D01*
X123765789Y-96895991D01*
X123765787Y-96895988D01*
X123710273Y-96852780D01*
X123665443Y-96817887D01*
X123665440Y-96817885D01*
X123665088Y-96817612D01*
X123624275Y-96760901D01*
X123620600Y-96691129D01*
X123653569Y-96632077D01*
X124179787Y-96105858D01*
X124115009Y-96060500D01*
X124115007Y-96060499D01*
X123914884Y-95967180D01*
X123914870Y-95967175D01*
X123701586Y-95910026D01*
X123701576Y-95910024D01*
X123481601Y-95890779D01*
X123481599Y-95890779D01*
X123261623Y-95910024D01*
X123261613Y-95910026D01*
X123048329Y-95967175D01*
X123048320Y-95967179D01*
X122848186Y-96060503D01*
X122783412Y-96105857D01*
X122783411Y-96105858D01*
X123312323Y-96634770D01*
X123345808Y-96696093D01*
X123340824Y-96765785D01*
X123298952Y-96821718D01*
X123283659Y-96831506D01*
X123244349Y-96852779D01*
X123244348Y-96852779D01*
X123158226Y-96946333D01*
X123158226Y-96946334D01*
X123157511Y-96947965D01*
X123155940Y-96949833D01*
X123152608Y-96954934D01*
X123151991Y-96954531D01*
X123112552Y-97001449D01*
X123045815Y-97022135D01*
X122978488Y-97003457D01*
X122956277Y-96985830D01*
X122429858Y-96459411D01*
X122429857Y-96459412D01*
X122384503Y-96524186D01*
X122291179Y-96724320D01*
X122291175Y-96724329D01*
X122234026Y-96937613D01*
X122234024Y-96937623D01*
X122214779Y-97157599D01*
X122214779Y-97157600D01*
X118748923Y-97157600D01*
X118746132Y-97125702D01*
X118740627Y-97062777D01*
X118729670Y-96937532D01*
X118672494Y-96724150D01*
X118579134Y-96523939D01*
X118474705Y-96374798D01*
X118452427Y-96342981D01*
X118384744Y-96275298D01*
X118296220Y-96186774D01*
X118296216Y-96186771D01*
X118296215Y-96186770D01*
X118115266Y-96060068D01*
X118115262Y-96060066D01*
X118115260Y-96060065D01*
X117915050Y-95966706D01*
X117915047Y-95966705D01*
X117915045Y-95966704D01*
X117701670Y-95909530D01*
X117701662Y-95909529D01*
X117481602Y-95890277D01*
X117481598Y-95890277D01*
X117261537Y-95909529D01*
X117261529Y-95909530D01*
X117048154Y-95966704D01*
X117048148Y-95966707D01*
X116847940Y-96060065D01*
X116847938Y-96060066D01*
X116666977Y-96186775D01*
X116510775Y-96342977D01*
X116384066Y-96523938D01*
X116384065Y-96523940D01*
X116290707Y-96724148D01*
X116290704Y-96724154D01*
X116233530Y-96937529D01*
X116233529Y-96937537D01*
X116214277Y-97157597D01*
X116214277Y-97157602D01*
X112748923Y-97157602D01*
X112748923Y-97157600D01*
X112746132Y-97125702D01*
X112740627Y-97062777D01*
X112729670Y-96937532D01*
X112672494Y-96724150D01*
X112579134Y-96523939D01*
X112474705Y-96374798D01*
X112452427Y-96342981D01*
X112384744Y-96275298D01*
X112296220Y-96186774D01*
X112296216Y-96186771D01*
X112296215Y-96186770D01*
X112115266Y-96060068D01*
X112115262Y-96060066D01*
X112115260Y-96060065D01*
X111915050Y-95966706D01*
X111915047Y-95966705D01*
X111915045Y-95966704D01*
X111701670Y-95909530D01*
X111701662Y-95909529D01*
X111481602Y-95890277D01*
X111481598Y-95890277D01*
X111261537Y-95909529D01*
X111261529Y-95909530D01*
X111048154Y-95966704D01*
X111048148Y-95966707D01*
X110847940Y-96060065D01*
X110847938Y-96060066D01*
X110666977Y-96186775D01*
X110510775Y-96342977D01*
X110384066Y-96523938D01*
X110384065Y-96523940D01*
X110290707Y-96724148D01*
X110290704Y-96724154D01*
X110233530Y-96937529D01*
X110233529Y-96937537D01*
X110214277Y-97157597D01*
X110214277Y-97157602D01*
X103183429Y-97157602D01*
X103169103Y-97104137D01*
X103069235Y-96889971D01*
X103018762Y-96817887D01*
X102933694Y-96696397D01*
X102766602Y-96529306D01*
X102766601Y-96529305D01*
X102623886Y-96429375D01*
X102581041Y-96399374D01*
X102537416Y-96344797D01*
X102530224Y-96275298D01*
X102561746Y-96212944D01*
X102581036Y-96196228D01*
X102766601Y-96066295D01*
X102933695Y-95899201D01*
X103069235Y-95705630D01*
X103169103Y-95491463D01*
X103230263Y-95263208D01*
X103250859Y-95027800D01*
X103230263Y-94792392D01*
X103169103Y-94564137D01*
X103069235Y-94349971D01*
X102954702Y-94186399D01*
X102933694Y-94156397D01*
X102766602Y-93989306D01*
X102766596Y-93989301D01*
X102581042Y-93859375D01*
X102537417Y-93804798D01*
X102530223Y-93735300D01*
X102561746Y-93672945D01*
X102581042Y-93656225D01*
X102723752Y-93556298D01*
X102766601Y-93526295D01*
X102933695Y-93359201D01*
X103069235Y-93165630D01*
X103169103Y-92951463D01*
X103230263Y-92723208D01*
X103250859Y-92487800D01*
X103230263Y-92252392D01*
X103169103Y-92024137D01*
X103069235Y-91809971D01*
X102954702Y-91646399D01*
X102933694Y-91616397D01*
X102766602Y-91449306D01*
X102766596Y-91449301D01*
X102581042Y-91319375D01*
X102537417Y-91264798D01*
X102530223Y-91195300D01*
X102561746Y-91132945D01*
X102581042Y-91116225D01*
X102723752Y-91016298D01*
X102766601Y-90986295D01*
X102933695Y-90819201D01*
X103069235Y-90625630D01*
X103169103Y-90411463D01*
X103230263Y-90183208D01*
X103250859Y-89947800D01*
X103230263Y-89712392D01*
X103169103Y-89484137D01*
X103069235Y-89269971D01*
X102954702Y-89106399D01*
X102933694Y-89076397D01*
X102766602Y-88909306D01*
X102766596Y-88909301D01*
X102581042Y-88779375D01*
X102537417Y-88724798D01*
X102530223Y-88655300D01*
X102561746Y-88592945D01*
X102581042Y-88576225D01*
X102723752Y-88476298D01*
X102766601Y-88446295D01*
X102933695Y-88279201D01*
X103069235Y-88085630D01*
X103169103Y-87871463D01*
X103230263Y-87643208D01*
X103250859Y-87407800D01*
X103230263Y-87172392D01*
X103169103Y-86944137D01*
X103069235Y-86729971D01*
X102954702Y-86566399D01*
X102933694Y-86536397D01*
X102766602Y-86369306D01*
X102766596Y-86369301D01*
X102581042Y-86239375D01*
X102537417Y-86184798D01*
X102530223Y-86115300D01*
X102561746Y-86052945D01*
X102581042Y-86036225D01*
X102723752Y-85936298D01*
X102766601Y-85906295D01*
X102933695Y-85739201D01*
X103069235Y-85545630D01*
X103169103Y-85331463D01*
X103230263Y-85103208D01*
X103250859Y-84867800D01*
X103230263Y-84632392D01*
X103169103Y-84404137D01*
X103069235Y-84189971D01*
X102954702Y-84026399D01*
X102933694Y-83996397D01*
X102766602Y-83829306D01*
X102766596Y-83829301D01*
X102581042Y-83699375D01*
X102537417Y-83644798D01*
X102530223Y-83575300D01*
X102561746Y-83512945D01*
X102581042Y-83496225D01*
X102723752Y-83396298D01*
X102766601Y-83366295D01*
X102933695Y-83199201D01*
X103069235Y-83005630D01*
X103169103Y-82791463D01*
X103230263Y-82563208D01*
X103250859Y-82327800D01*
X103230263Y-82092392D01*
X103169103Y-81864137D01*
X103069235Y-81649971D01*
X102954702Y-81486399D01*
X102933694Y-81456397D01*
X102766602Y-81289306D01*
X102766596Y-81289301D01*
X102581042Y-81159375D01*
X102537417Y-81104798D01*
X102530223Y-81035300D01*
X102561746Y-80972945D01*
X102581042Y-80956225D01*
X102723752Y-80856298D01*
X102766601Y-80826295D01*
X102933695Y-80659201D01*
X103069235Y-80465630D01*
X103169103Y-80251463D01*
X103230263Y-80023208D01*
X103250859Y-79787800D01*
X103230263Y-79552392D01*
X103169103Y-79324137D01*
X103069235Y-79109971D01*
X102954702Y-78946399D01*
X102933694Y-78916397D01*
X102766602Y-78749306D01*
X102766596Y-78749301D01*
X102581042Y-78619375D01*
X102537417Y-78564798D01*
X102530223Y-78495300D01*
X102561746Y-78432945D01*
X102581042Y-78416225D01*
X102723752Y-78316298D01*
X102766601Y-78286295D01*
X102933695Y-78119201D01*
X103069235Y-77925630D01*
X103169103Y-77711463D01*
X103230263Y-77483208D01*
X103250859Y-77247800D01*
X103230263Y-77012392D01*
X103169103Y-76784137D01*
X103069235Y-76569971D01*
X102954702Y-76406399D01*
X102933694Y-76376397D01*
X102766602Y-76209306D01*
X102766596Y-76209301D01*
X102581042Y-76079375D01*
X102537417Y-76024798D01*
X102530223Y-75955300D01*
X102561746Y-75892945D01*
X102581042Y-75876225D01*
X102723752Y-75776298D01*
X102766601Y-75746295D01*
X102933695Y-75579201D01*
X103069235Y-75385630D01*
X103169103Y-75171463D01*
X103230263Y-74943208D01*
X103250859Y-74707800D01*
X103230263Y-74472392D01*
X103169103Y-74244137D01*
X103069235Y-74029971D01*
X102954702Y-73866399D01*
X102933694Y-73836397D01*
X102766602Y-73669306D01*
X102766596Y-73669301D01*
X102581042Y-73539375D01*
X102537417Y-73484798D01*
X102530223Y-73415300D01*
X102561746Y-73352945D01*
X102581042Y-73336225D01*
X102723752Y-73236298D01*
X102766601Y-73206295D01*
X102933695Y-73039201D01*
X103069235Y-72845630D01*
X103169103Y-72631463D01*
X103230263Y-72403208D01*
X103250859Y-72167800D01*
X103230263Y-71932392D01*
X103169103Y-71704137D01*
X103069235Y-71489971D01*
X102954702Y-71326399D01*
X102933694Y-71296397D01*
X102766602Y-71129306D01*
X102766596Y-71129301D01*
X102581042Y-70999375D01*
X102537417Y-70944798D01*
X102530223Y-70875300D01*
X102561746Y-70812945D01*
X102581042Y-70796225D01*
X102723752Y-70696298D01*
X102766601Y-70666295D01*
X102933695Y-70499201D01*
X103069235Y-70305630D01*
X103169103Y-70091463D01*
X103230263Y-69863208D01*
X103250859Y-69627800D01*
X103230263Y-69392392D01*
X103169103Y-69164137D01*
X103069235Y-68949971D01*
X102954702Y-68786399D01*
X102933694Y-68756397D01*
X102766602Y-68589306D01*
X102766596Y-68589301D01*
X102581042Y-68459375D01*
X102537417Y-68404798D01*
X102530223Y-68335300D01*
X102561746Y-68272945D01*
X102581042Y-68256225D01*
X102647999Y-68209341D01*
X102766601Y-68126295D01*
X102933695Y-67959201D01*
X103069235Y-67765630D01*
X103169103Y-67551463D01*
X103230263Y-67323208D01*
X103250859Y-67087800D01*
X103230263Y-66852392D01*
X103171952Y-66634770D01*
X103169105Y-66624144D01*
X103169104Y-66624143D01*
X103169103Y-66624137D01*
X103069235Y-66409971D01*
X103022328Y-66342981D01*
X102933696Y-66216400D01*
X102874900Y-66157604D01*
X109726192Y-66157604D01*
X109745796Y-66419220D01*
X109745797Y-66419225D01*
X109804176Y-66675002D01*
X109804178Y-66675011D01*
X109804180Y-66675016D01*
X109900032Y-66919243D01*
X110031214Y-67146457D01*
X110115719Y-67252423D01*
X110194798Y-67351585D01*
X110314251Y-67462420D01*
X110387121Y-67530033D01*
X110603896Y-67677828D01*
X110603901Y-67677830D01*
X110603902Y-67677831D01*
X110603903Y-67677832D01*
X110729443Y-67738288D01*
X110840273Y-67791661D01*
X110840274Y-67791661D01*
X110840277Y-67791663D01*
X111090985Y-67868996D01*
X111350418Y-67908100D01*
X111612782Y-67908100D01*
X111872215Y-67868996D01*
X112122923Y-67791663D01*
X112359304Y-67677828D01*
X112576079Y-67530033D01*
X112751522Y-67367246D01*
X112768401Y-67351585D01*
X112768401Y-67351583D01*
X112768405Y-67351581D01*
X112923098Y-67157602D01*
X114214277Y-67157602D01*
X114233529Y-67377662D01*
X114233530Y-67377670D01*
X114290704Y-67591045D01*
X114290705Y-67591047D01*
X114290706Y-67591050D01*
X114331173Y-67677832D01*
X114384066Y-67791262D01*
X114384068Y-67791266D01*
X114510770Y-67972215D01*
X114510775Y-67972221D01*
X114666978Y-68128424D01*
X114666984Y-68128429D01*
X114847933Y-68255131D01*
X114847935Y-68255132D01*
X114847938Y-68255134D01*
X115048150Y-68348494D01*
X115261532Y-68405670D01*
X115418723Y-68419422D01*
X115481598Y-68424923D01*
X115481600Y-68424923D01*
X115481602Y-68424923D01*
X115536617Y-68420109D01*
X115701668Y-68405670D01*
X115915050Y-68348494D01*
X116115262Y-68255134D01*
X116296220Y-68128426D01*
X116452426Y-67972220D01*
X116579134Y-67791262D01*
X116672494Y-67591050D01*
X116729670Y-67377668D01*
X116748923Y-67157600D01*
X118214779Y-67157600D01*
X118234024Y-67377576D01*
X118234026Y-67377586D01*
X118291175Y-67590870D01*
X118291180Y-67590884D01*
X118384499Y-67791007D01*
X118384500Y-67791009D01*
X118429858Y-67855787D01*
X118958650Y-67326995D01*
X119019973Y-67293510D01*
X119089664Y-67298494D01*
X119145598Y-67340365D01*
X119150139Y-67346854D01*
X119197413Y-67419212D01*
X119297757Y-67497313D01*
X119297760Y-67497314D01*
X119298111Y-67497587D01*
X119338924Y-67554297D01*
X119342599Y-67624070D01*
X119309630Y-67683122D01*
X118783411Y-68209341D01*
X118848182Y-68254694D01*
X118848192Y-68254700D01*
X119048315Y-68348019D01*
X119048329Y-68348024D01*
X119261613Y-68405173D01*
X119261623Y-68405175D01*
X119481599Y-68424421D01*
X119481601Y-68424421D01*
X119701576Y-68405175D01*
X119701586Y-68405173D01*
X119914870Y-68348024D01*
X119914884Y-68348019D01*
X120115008Y-68254700D01*
X120115020Y-68254693D01*
X120179786Y-68209342D01*
X120179787Y-68209340D01*
X119650876Y-67680429D01*
X119617391Y-67619106D01*
X119622375Y-67549414D01*
X119664247Y-67493481D01*
X119679533Y-67483697D01*
X119718851Y-67462420D01*
X119804971Y-67368869D01*
X119805683Y-67367243D01*
X119807252Y-67365377D01*
X119810592Y-67360266D01*
X119811209Y-67360669D01*
X119850636Y-67313758D01*
X119917370Y-67293064D01*
X119984699Y-67311735D01*
X120006922Y-67329369D01*
X120533340Y-67855787D01*
X120533342Y-67855786D01*
X120578693Y-67791020D01*
X120578700Y-67791008D01*
X120672019Y-67590884D01*
X120672024Y-67590870D01*
X120729173Y-67377586D01*
X120729175Y-67377576D01*
X120748421Y-67157600D01*
X120748421Y-67157599D01*
X120729175Y-66937623D01*
X120729173Y-66937613D01*
X120672024Y-66724329D01*
X120672020Y-66724320D01*
X120578698Y-66524190D01*
X120533340Y-66459411D01*
X120004549Y-66988202D01*
X119943226Y-67021687D01*
X119873534Y-67016703D01*
X119817601Y-66974831D01*
X119813060Y-66968343D01*
X119765789Y-66895991D01*
X119765787Y-66895988D01*
X119710273Y-66852780D01*
X119665443Y-66817887D01*
X119665440Y-66817885D01*
X119665088Y-66817612D01*
X119624275Y-66760901D01*
X119620600Y-66691129D01*
X119653569Y-66632077D01*
X120128041Y-66157604D01*
X121726192Y-66157604D01*
X121745796Y-66419220D01*
X121745797Y-66419225D01*
X121804176Y-66675002D01*
X121804178Y-66675011D01*
X121804180Y-66675016D01*
X121900032Y-66919243D01*
X122031214Y-67146457D01*
X122115719Y-67252423D01*
X122194798Y-67351585D01*
X122314251Y-67462420D01*
X122387121Y-67530033D01*
X122603896Y-67677828D01*
X122603901Y-67677830D01*
X122603902Y-67677831D01*
X122603903Y-67677832D01*
X122729443Y-67738288D01*
X122840273Y-67791661D01*
X122840274Y-67791661D01*
X122840277Y-67791663D01*
X123090985Y-67868996D01*
X123350418Y-67908100D01*
X123612782Y-67908100D01*
X123872215Y-67868996D01*
X124122923Y-67791663D01*
X124359304Y-67677828D01*
X124576079Y-67530033D01*
X124751522Y-67367246D01*
X124768401Y-67351585D01*
X124768401Y-67351583D01*
X124768405Y-67351581D01*
X124931986Y-67146457D01*
X125063168Y-66919243D01*
X125159020Y-66675016D01*
X125217402Y-66419230D01*
X125223116Y-66342980D01*
X125237008Y-66157604D01*
X135380192Y-66157604D01*
X135399796Y-66419220D01*
X135399797Y-66419225D01*
X135458176Y-66675002D01*
X135458178Y-66675011D01*
X135458180Y-66675016D01*
X135554032Y-66919243D01*
X135685214Y-67146457D01*
X135769719Y-67252423D01*
X135848798Y-67351585D01*
X135968251Y-67462420D01*
X136041121Y-67530033D01*
X136257896Y-67677828D01*
X136257901Y-67677830D01*
X136257902Y-67677831D01*
X136257903Y-67677832D01*
X136383443Y-67738288D01*
X136494273Y-67791661D01*
X136494274Y-67791661D01*
X136494277Y-67791663D01*
X136744985Y-67868996D01*
X137004418Y-67908100D01*
X137266782Y-67908100D01*
X137526215Y-67868996D01*
X137776923Y-67791663D01*
X138013304Y-67677828D01*
X138230079Y-67530033D01*
X138405522Y-67367246D01*
X138422401Y-67351585D01*
X138422401Y-67351583D01*
X138422405Y-67351581D01*
X138577098Y-67157602D01*
X139868277Y-67157602D01*
X139887529Y-67377662D01*
X139887530Y-67377670D01*
X139944704Y-67591045D01*
X139944705Y-67591047D01*
X139944706Y-67591050D01*
X139985173Y-67677832D01*
X140038066Y-67791262D01*
X140038068Y-67791266D01*
X140164770Y-67972215D01*
X140164775Y-67972221D01*
X140320978Y-68128424D01*
X140320984Y-68128429D01*
X140501933Y-68255131D01*
X140501935Y-68255132D01*
X140501938Y-68255134D01*
X140702150Y-68348494D01*
X140915532Y-68405670D01*
X141072723Y-68419422D01*
X141135598Y-68424923D01*
X141135600Y-68424923D01*
X141135602Y-68424923D01*
X141190616Y-68420109D01*
X141355668Y-68405670D01*
X141569050Y-68348494D01*
X141769262Y-68255134D01*
X141950220Y-68128426D01*
X142106426Y-67972220D01*
X142233134Y-67791262D01*
X142326494Y-67591050D01*
X142383670Y-67377668D01*
X142402923Y-67157600D01*
X143868779Y-67157600D01*
X143888024Y-67377576D01*
X143888026Y-67377586D01*
X143945175Y-67590870D01*
X143945180Y-67590884D01*
X144038499Y-67791007D01*
X144038500Y-67791009D01*
X144083858Y-67855787D01*
X144612650Y-67326995D01*
X144673973Y-67293510D01*
X144743664Y-67298494D01*
X144799598Y-67340365D01*
X144804139Y-67346854D01*
X144851413Y-67419212D01*
X144951757Y-67497313D01*
X144951760Y-67497314D01*
X144952111Y-67497587D01*
X144992924Y-67554297D01*
X144996599Y-67624070D01*
X144963630Y-67683122D01*
X144437411Y-68209341D01*
X144502182Y-68254694D01*
X144502192Y-68254700D01*
X144702315Y-68348019D01*
X144702329Y-68348024D01*
X144915613Y-68405173D01*
X144915623Y-68405175D01*
X145135599Y-68424421D01*
X145135601Y-68424421D01*
X145355576Y-68405175D01*
X145355586Y-68405173D01*
X145568870Y-68348024D01*
X145568884Y-68348019D01*
X145769008Y-68254700D01*
X145769020Y-68254693D01*
X145833786Y-68209342D01*
X145833787Y-68209340D01*
X145304876Y-67680429D01*
X145271391Y-67619106D01*
X145276375Y-67549414D01*
X145318247Y-67493481D01*
X145333533Y-67483697D01*
X145372851Y-67462420D01*
X145458971Y-67368869D01*
X145459683Y-67367243D01*
X145461252Y-67365377D01*
X145464592Y-67360266D01*
X145465209Y-67360669D01*
X145504636Y-67313758D01*
X145571370Y-67293064D01*
X145638699Y-67311735D01*
X145660922Y-67329369D01*
X146187340Y-67855787D01*
X146187342Y-67855786D01*
X146232693Y-67791020D01*
X146232700Y-67791008D01*
X146326019Y-67590884D01*
X146326024Y-67590870D01*
X146383173Y-67377586D01*
X146383175Y-67377576D01*
X146402421Y-67157600D01*
X146402421Y-67157599D01*
X146383175Y-66937623D01*
X146383173Y-66937613D01*
X146326024Y-66724329D01*
X146326020Y-66724320D01*
X146232698Y-66524190D01*
X146187340Y-66459411D01*
X145658549Y-66988202D01*
X145597226Y-67021687D01*
X145527534Y-67016703D01*
X145471601Y-66974831D01*
X145467060Y-66968343D01*
X145419789Y-66895991D01*
X145419787Y-66895988D01*
X145364273Y-66852780D01*
X145319443Y-66817887D01*
X145319440Y-66817885D01*
X145319088Y-66817612D01*
X145278275Y-66760901D01*
X145274600Y-66691129D01*
X145307569Y-66632077D01*
X145782041Y-66157604D01*
X147380192Y-66157604D01*
X147399796Y-66419220D01*
X147399797Y-66419225D01*
X147458176Y-66675002D01*
X147458178Y-66675011D01*
X147458180Y-66675016D01*
X147554032Y-66919243D01*
X147685214Y-67146457D01*
X147769719Y-67252423D01*
X147848798Y-67351585D01*
X147968251Y-67462420D01*
X148041121Y-67530033D01*
X148257896Y-67677828D01*
X148257901Y-67677830D01*
X148257902Y-67677831D01*
X148257903Y-67677832D01*
X148383443Y-67738288D01*
X148494273Y-67791661D01*
X148494274Y-67791661D01*
X148494277Y-67791663D01*
X148744985Y-67868996D01*
X149004418Y-67908100D01*
X149266782Y-67908100D01*
X149526215Y-67868996D01*
X149776923Y-67791663D01*
X150013304Y-67677828D01*
X150230079Y-67530033D01*
X150405522Y-67367246D01*
X150422401Y-67351585D01*
X150422401Y-67351583D01*
X150422405Y-67351581D01*
X150585986Y-67146457D01*
X150717168Y-66919243D01*
X150813020Y-66675016D01*
X150871402Y-66419230D01*
X150877116Y-66342980D01*
X150891008Y-66157604D01*
X150891008Y-66157595D01*
X150871403Y-65895979D01*
X150871402Y-65895974D01*
X150871402Y-65895970D01*
X150813020Y-65640184D01*
X150717168Y-65395957D01*
X150585986Y-65168743D01*
X150422405Y-64963619D01*
X150422404Y-64963618D01*
X150422401Y-64963614D01*
X150230079Y-64785167D01*
X150230078Y-64785167D01*
X150013304Y-64637372D01*
X150013300Y-64637370D01*
X150013297Y-64637368D01*
X150013296Y-64637367D01*
X149776925Y-64523538D01*
X149776927Y-64523538D01*
X149526223Y-64446206D01*
X149526219Y-64446205D01*
X149526215Y-64446204D01*
X149401423Y-64427394D01*
X149266787Y-64407100D01*
X149266782Y-64407100D01*
X149004418Y-64407100D01*
X149004412Y-64407100D01*
X148842847Y-64431453D01*
X148744985Y-64446204D01*
X148744981Y-64446205D01*
X148744982Y-64446205D01*
X148744976Y-64446206D01*
X148494273Y-64523538D01*
X148257903Y-64637367D01*
X148257902Y-64637368D01*
X148041120Y-64785167D01*
X147848798Y-64963614D01*
X147685214Y-65168743D01*
X147554032Y-65395956D01*
X147458182Y-65640178D01*
X147458176Y-65640197D01*
X147399797Y-65895974D01*
X147399796Y-65895979D01*
X147380192Y-66157595D01*
X147380192Y-66157604D01*
X145782041Y-66157604D01*
X145833787Y-66105858D01*
X145769009Y-66060500D01*
X145769007Y-66060499D01*
X145568884Y-65967180D01*
X145568870Y-65967175D01*
X145355586Y-65910026D01*
X145355576Y-65910024D01*
X145135601Y-65890779D01*
X145135599Y-65890779D01*
X144915623Y-65910024D01*
X144915613Y-65910026D01*
X144702329Y-65967175D01*
X144702320Y-65967179D01*
X144502186Y-66060503D01*
X144437412Y-66105857D01*
X144437411Y-66105858D01*
X144966323Y-66634770D01*
X144999808Y-66696093D01*
X144994824Y-66765785D01*
X144952952Y-66821718D01*
X144937659Y-66831506D01*
X144898349Y-66852779D01*
X144898348Y-66852779D01*
X144812226Y-66946333D01*
X144812226Y-66946334D01*
X144811511Y-66947965D01*
X144809940Y-66949833D01*
X144806608Y-66954934D01*
X144805991Y-66954531D01*
X144766552Y-67001449D01*
X144699815Y-67022135D01*
X144632488Y-67003457D01*
X144610277Y-66985830D01*
X144083858Y-66459411D01*
X144083857Y-66459412D01*
X144038503Y-66524186D01*
X143945179Y-66724320D01*
X143945175Y-66724329D01*
X143888026Y-66937613D01*
X143888024Y-66937623D01*
X143868779Y-67157599D01*
X143868779Y-67157600D01*
X142402923Y-67157600D01*
X142400132Y-67125702D01*
X142394627Y-67062777D01*
X142383670Y-66937532D01*
X142326494Y-66724150D01*
X142233134Y-66523939D01*
X142169780Y-66433459D01*
X142106427Y-66342981D01*
X142106423Y-66342977D01*
X141950220Y-66186774D01*
X141950216Y-66186771D01*
X141950215Y-66186770D01*
X141769266Y-66060068D01*
X141769262Y-66060066D01*
X141700378Y-66027945D01*
X141569050Y-65966706D01*
X141569047Y-65966705D01*
X141569045Y-65966704D01*
X141355670Y-65909530D01*
X141355662Y-65909529D01*
X141135602Y-65890277D01*
X141135598Y-65890277D01*
X140915537Y-65909529D01*
X140915529Y-65909530D01*
X140702154Y-65966704D01*
X140702148Y-65966707D01*
X140501940Y-66060065D01*
X140501938Y-66060066D01*
X140320977Y-66186775D01*
X140164775Y-66342977D01*
X140038066Y-66523938D01*
X140038065Y-66523940D01*
X139944707Y-66724148D01*
X139944704Y-66724154D01*
X139887530Y-66937529D01*
X139887529Y-66937537D01*
X139868277Y-67157597D01*
X139868277Y-67157602D01*
X138577098Y-67157602D01*
X138585986Y-67146457D01*
X138717168Y-66919243D01*
X138813020Y-66675016D01*
X138871402Y-66419230D01*
X138877116Y-66342980D01*
X138891008Y-66157604D01*
X138891008Y-66157595D01*
X138871403Y-65895979D01*
X138871402Y-65895974D01*
X138871402Y-65895970D01*
X138813020Y-65640184D01*
X138717168Y-65395957D01*
X138585986Y-65168743D01*
X138422405Y-64963619D01*
X138422404Y-64963618D01*
X138422401Y-64963614D01*
X138230079Y-64785167D01*
X138230078Y-64785167D01*
X138013304Y-64637372D01*
X138013300Y-64637370D01*
X138013297Y-64637368D01*
X138013296Y-64637367D01*
X137776925Y-64523538D01*
X137776927Y-64523538D01*
X137526223Y-64446206D01*
X137526219Y-64446205D01*
X137526215Y-64446204D01*
X137401423Y-64427394D01*
X137266787Y-64407100D01*
X137266782Y-64407100D01*
X137004418Y-64407100D01*
X137004412Y-64407100D01*
X136842847Y-64431453D01*
X136744985Y-64446204D01*
X136744981Y-64446205D01*
X136744982Y-64446205D01*
X136744976Y-64446206D01*
X136494273Y-64523538D01*
X136257903Y-64637367D01*
X136257902Y-64637368D01*
X136041120Y-64785167D01*
X135848798Y-64963614D01*
X135685214Y-65168743D01*
X135554032Y-65395956D01*
X135458182Y-65640178D01*
X135458176Y-65640197D01*
X135399797Y-65895974D01*
X135399796Y-65895979D01*
X135380192Y-66157595D01*
X135380192Y-66157604D01*
X125237008Y-66157604D01*
X125237008Y-66157595D01*
X125217403Y-65895979D01*
X125217402Y-65895974D01*
X125217402Y-65895970D01*
X125159020Y-65640184D01*
X125063168Y-65395957D01*
X124931986Y-65168743D01*
X124768405Y-64963619D01*
X124768404Y-64963618D01*
X124768401Y-64963614D01*
X124576079Y-64785167D01*
X124359304Y-64637372D01*
X124359300Y-64637370D01*
X124359297Y-64637368D01*
X124359296Y-64637367D01*
X124122925Y-64523538D01*
X124122927Y-64523538D01*
X123872223Y-64446206D01*
X123872219Y-64446205D01*
X123872215Y-64446204D01*
X123747423Y-64427394D01*
X123612787Y-64407100D01*
X123612782Y-64407100D01*
X123350418Y-64407100D01*
X123350412Y-64407100D01*
X123188847Y-64431453D01*
X123090985Y-64446204D01*
X123090981Y-64446205D01*
X123090982Y-64446205D01*
X123090976Y-64446206D01*
X122840273Y-64523538D01*
X122603903Y-64637367D01*
X122603902Y-64637368D01*
X122387120Y-64785167D01*
X122194798Y-64963614D01*
X122031214Y-65168743D01*
X121900032Y-65395956D01*
X121804182Y-65640178D01*
X121804176Y-65640197D01*
X121745797Y-65895974D01*
X121745796Y-65895979D01*
X121726192Y-66157595D01*
X121726192Y-66157604D01*
X120128041Y-66157604D01*
X120179787Y-66105858D01*
X120115009Y-66060500D01*
X120115007Y-66060499D01*
X119914884Y-65967180D01*
X119914870Y-65967175D01*
X119701586Y-65910026D01*
X119701576Y-65910024D01*
X119481601Y-65890779D01*
X119481599Y-65890779D01*
X119261623Y-65910024D01*
X119261613Y-65910026D01*
X119048329Y-65967175D01*
X119048320Y-65967179D01*
X118848186Y-66060503D01*
X118783412Y-66105857D01*
X118783411Y-66105858D01*
X119312323Y-66634770D01*
X119345808Y-66696093D01*
X119340824Y-66765785D01*
X119298952Y-66821718D01*
X119283659Y-66831506D01*
X119244349Y-66852779D01*
X119244348Y-66852779D01*
X119158226Y-66946333D01*
X119158226Y-66946334D01*
X119157511Y-66947965D01*
X119155940Y-66949833D01*
X119152608Y-66954934D01*
X119151991Y-66954531D01*
X119112552Y-67001449D01*
X119045815Y-67022135D01*
X118978488Y-67003457D01*
X118956277Y-66985830D01*
X118429858Y-66459411D01*
X118429857Y-66459412D01*
X118384503Y-66524186D01*
X118291179Y-66724320D01*
X118291175Y-66724329D01*
X118234026Y-66937613D01*
X118234024Y-66937623D01*
X118214779Y-67157599D01*
X118214779Y-67157600D01*
X116748923Y-67157600D01*
X116746132Y-67125702D01*
X116740627Y-67062777D01*
X116729670Y-66937532D01*
X116672494Y-66724150D01*
X116579134Y-66523939D01*
X116515780Y-66433459D01*
X116452427Y-66342981D01*
X116452423Y-66342977D01*
X116296220Y-66186774D01*
X116296216Y-66186771D01*
X116296215Y-66186770D01*
X116115266Y-66060068D01*
X116115262Y-66060066D01*
X116046378Y-66027945D01*
X115915050Y-65966706D01*
X115915047Y-65966705D01*
X115915045Y-65966704D01*
X115701670Y-65909530D01*
X115701662Y-65909529D01*
X115481602Y-65890277D01*
X115481598Y-65890277D01*
X115261537Y-65909529D01*
X115261529Y-65909530D01*
X115048154Y-65966704D01*
X115048148Y-65966707D01*
X114847940Y-66060065D01*
X114847938Y-66060066D01*
X114666977Y-66186775D01*
X114510775Y-66342977D01*
X114384066Y-66523938D01*
X114384065Y-66523940D01*
X114290707Y-66724148D01*
X114290704Y-66724154D01*
X114233530Y-66937529D01*
X114233529Y-66937537D01*
X114214277Y-67157597D01*
X114214277Y-67157602D01*
X112923098Y-67157602D01*
X112931986Y-67146457D01*
X113063168Y-66919243D01*
X113159020Y-66675016D01*
X113217402Y-66419230D01*
X113223116Y-66342980D01*
X113237008Y-66157604D01*
X113237008Y-66157595D01*
X113217403Y-65895979D01*
X113217402Y-65895974D01*
X113217402Y-65895970D01*
X113159020Y-65640184D01*
X113063168Y-65395957D01*
X112931986Y-65168743D01*
X112768405Y-64963619D01*
X112768404Y-64963618D01*
X112768401Y-64963614D01*
X112576079Y-64785167D01*
X112576078Y-64785167D01*
X112359304Y-64637372D01*
X112359300Y-64637370D01*
X112359297Y-64637368D01*
X112359296Y-64637367D01*
X112122925Y-64523538D01*
X112122927Y-64523538D01*
X111872223Y-64446206D01*
X111872219Y-64446205D01*
X111872215Y-64446204D01*
X111747423Y-64427394D01*
X111612787Y-64407100D01*
X111612782Y-64407100D01*
X111350418Y-64407100D01*
X111350412Y-64407100D01*
X111188847Y-64431453D01*
X111090985Y-64446204D01*
X111090981Y-64446205D01*
X111090982Y-64446205D01*
X111090976Y-64446206D01*
X110840273Y-64523538D01*
X110603903Y-64637367D01*
X110603902Y-64637368D01*
X110387120Y-64785167D01*
X110194798Y-64963614D01*
X110031214Y-65168743D01*
X109900032Y-65395956D01*
X109804182Y-65640178D01*
X109804176Y-65640197D01*
X109745797Y-65895974D01*
X109745796Y-65895979D01*
X109726192Y-66157595D01*
X109726192Y-66157604D01*
X102874900Y-66157604D01*
X102874891Y-66157595D01*
X102811767Y-66094471D01*
X102778284Y-66033151D01*
X102783268Y-65963459D01*
X102825139Y-65907525D01*
X102856115Y-65890610D01*
X102987531Y-65841596D01*
X103102746Y-65755346D01*
X103188996Y-65640131D01*
X103239291Y-65505283D01*
X103245700Y-65445673D01*
X103245699Y-63649928D01*
X103239291Y-63590317D01*
X103200185Y-63485469D01*
X103188997Y-63455471D01*
X103188993Y-63455464D01*
X103102747Y-63340255D01*
X103102744Y-63340252D01*
X102987535Y-63254006D01*
X102987528Y-63254002D01*
X102852682Y-63203708D01*
X102852683Y-63203708D01*
X102793083Y-63197301D01*
X102793081Y-63197300D01*
X102793073Y-63197300D01*
X102793064Y-63197300D01*
X100997329Y-63197300D01*
X100997323Y-63197301D01*
X100937716Y-63203708D01*
X100802871Y-63254002D01*
X100802864Y-63254006D01*
X100687655Y-63340252D01*
X100687652Y-63340255D01*
X100601406Y-63455464D01*
X100601402Y-63455471D01*
X100551108Y-63590317D01*
X100544701Y-63649916D01*
X100544701Y-63649923D01*
X100544700Y-63649935D01*
X100544700Y-65445670D01*
X100544701Y-65445676D01*
X100551108Y-65505283D01*
X100601402Y-65640128D01*
X100601406Y-65640135D01*
X100687652Y-65755344D01*
X100687655Y-65755347D01*
X100802864Y-65841593D01*
X100802871Y-65841597D01*
X100934281Y-65890610D01*
X100990215Y-65932481D01*
X101014632Y-65997945D01*
X100999780Y-66066218D01*
X100978630Y-66094473D01*
X100856703Y-66216400D01*
X100721165Y-66409969D01*
X100721164Y-66409971D01*
X100621298Y-66624135D01*
X100621294Y-66624144D01*
X100560138Y-66852386D01*
X100560136Y-66852396D01*
X100539541Y-67087799D01*
X100539541Y-67087800D01*
X100560136Y-67323203D01*
X100560138Y-67323213D01*
X100621294Y-67551455D01*
X100621296Y-67551459D01*
X100621297Y-67551463D01*
X100680222Y-67677828D01*
X100721165Y-67765630D01*
X100721167Y-67765634D01*
X100856701Y-67959195D01*
X100856706Y-67959202D01*
X101023797Y-68126293D01*
X101023803Y-68126298D01*
X101209358Y-68256225D01*
X101252983Y-68310802D01*
X101260177Y-68380300D01*
X101228654Y-68442655D01*
X101209358Y-68459375D01*
X101023797Y-68589305D01*
X100856705Y-68756397D01*
X100721165Y-68949969D01*
X100721164Y-68949971D01*
X100621298Y-69164135D01*
X100621294Y-69164144D01*
X100560138Y-69392386D01*
X100560136Y-69392396D01*
X100539541Y-69627799D01*
X100539541Y-69627800D01*
X100560136Y-69863203D01*
X100560138Y-69863213D01*
X100621294Y-70091455D01*
X100621296Y-70091459D01*
X100621297Y-70091463D01*
X100635287Y-70121464D01*
X100721165Y-70305630D01*
X100721167Y-70305634D01*
X100856701Y-70499195D01*
X100856706Y-70499202D01*
X101023797Y-70666293D01*
X101023803Y-70666298D01*
X101209358Y-70796225D01*
X101252983Y-70850802D01*
X101260177Y-70920300D01*
X101228654Y-70982655D01*
X101209358Y-70999375D01*
X101023797Y-71129305D01*
X100856705Y-71296397D01*
X100721165Y-71489969D01*
X100721164Y-71489971D01*
X100621298Y-71704135D01*
X100621294Y-71704144D01*
X100560138Y-71932386D01*
X100560136Y-71932396D01*
X100539541Y-72167799D01*
X100539541Y-72167800D01*
X100560136Y-72403203D01*
X100560138Y-72403213D01*
X100621294Y-72631455D01*
X100621296Y-72631459D01*
X100621297Y-72631463D01*
X100635287Y-72661464D01*
X100721165Y-72845630D01*
X100721167Y-72845634D01*
X100856701Y-73039195D01*
X100856706Y-73039202D01*
X101023797Y-73206293D01*
X101023803Y-73206298D01*
X101209358Y-73336225D01*
X101252983Y-73390802D01*
X101260177Y-73460300D01*
X101228654Y-73522655D01*
X101209358Y-73539375D01*
X101023797Y-73669305D01*
X100856705Y-73836397D01*
X100721165Y-74029969D01*
X100721164Y-74029971D01*
X100621298Y-74244135D01*
X100621294Y-74244144D01*
X100560138Y-74472386D01*
X100560136Y-74472396D01*
X100539541Y-74707799D01*
X100539541Y-74707800D01*
X100560136Y-74943203D01*
X100560138Y-74943213D01*
X100621294Y-75171455D01*
X100621296Y-75171459D01*
X100621297Y-75171463D01*
X100635287Y-75201464D01*
X100721165Y-75385630D01*
X100721167Y-75385634D01*
X100856701Y-75579195D01*
X100856706Y-75579202D01*
X101023797Y-75746293D01*
X101023803Y-75746298D01*
X101209358Y-75876225D01*
X101252983Y-75930802D01*
X101260177Y-76000300D01*
X101228654Y-76062655D01*
X101209358Y-76079375D01*
X101023797Y-76209305D01*
X100856705Y-76376397D01*
X100721165Y-76569969D01*
X100721164Y-76569971D01*
X100621298Y-76784135D01*
X100621294Y-76784144D01*
X100560138Y-77012386D01*
X100560136Y-77012396D01*
X100539541Y-77247799D01*
X100539541Y-77247800D01*
X100560136Y-77483203D01*
X100560138Y-77483213D01*
X100621294Y-77711455D01*
X100621296Y-77711459D01*
X100621297Y-77711463D01*
X100635287Y-77741464D01*
X100721165Y-77925630D01*
X100721167Y-77925634D01*
X100856701Y-78119195D01*
X100856706Y-78119202D01*
X101023797Y-78286293D01*
X101023803Y-78286298D01*
X101209358Y-78416225D01*
X101252983Y-78470802D01*
X101260177Y-78540300D01*
X101228654Y-78602655D01*
X101209358Y-78619375D01*
X101023797Y-78749305D01*
X100856705Y-78916397D01*
X100721165Y-79109969D01*
X100721164Y-79109971D01*
X100621298Y-79324135D01*
X100621294Y-79324144D01*
X100560138Y-79552386D01*
X100560136Y-79552396D01*
X100539541Y-79787799D01*
X100539541Y-79787800D01*
X100560136Y-80023203D01*
X100560138Y-80023213D01*
X100621294Y-80251455D01*
X100621296Y-80251459D01*
X100621297Y-80251463D01*
X100635287Y-80281464D01*
X100721165Y-80465630D01*
X100721167Y-80465634D01*
X100856701Y-80659195D01*
X100856706Y-80659202D01*
X101023797Y-80826293D01*
X101023803Y-80826298D01*
X101209358Y-80956225D01*
X101252983Y-81010802D01*
X101260177Y-81080300D01*
X101228654Y-81142655D01*
X101209358Y-81159375D01*
X101023797Y-81289305D01*
X100856705Y-81456397D01*
X100721165Y-81649969D01*
X100721164Y-81649971D01*
X100621298Y-81864135D01*
X100621294Y-81864144D01*
X100560138Y-82092386D01*
X100560136Y-82092396D01*
X100539541Y-82327799D01*
X100539541Y-82327800D01*
X100560136Y-82563203D01*
X100560138Y-82563213D01*
X100621294Y-82791455D01*
X100621296Y-82791459D01*
X100621297Y-82791463D01*
X100635287Y-82821464D01*
X100721165Y-83005630D01*
X100721167Y-83005634D01*
X100856701Y-83199195D01*
X100856706Y-83199202D01*
X101023797Y-83366293D01*
X101023803Y-83366298D01*
X101209358Y-83496225D01*
X101252983Y-83550802D01*
X101260177Y-83620300D01*
X101228654Y-83682655D01*
X101209358Y-83699375D01*
X101023797Y-83829305D01*
X100856705Y-83996397D01*
X100721165Y-84189969D01*
X100721164Y-84189971D01*
X100621298Y-84404135D01*
X100621294Y-84404144D01*
X100560138Y-84632386D01*
X100560136Y-84632396D01*
X100539541Y-84867799D01*
X100539541Y-84867800D01*
X100560136Y-85103203D01*
X100560138Y-85103213D01*
X100621294Y-85331455D01*
X100621296Y-85331459D01*
X100621297Y-85331463D01*
X100635287Y-85361464D01*
X100721165Y-85545630D01*
X100721167Y-85545634D01*
X100856701Y-85739195D01*
X100856706Y-85739202D01*
X101023797Y-85906293D01*
X101023803Y-85906298D01*
X101209358Y-86036225D01*
X101252983Y-86090802D01*
X101260177Y-86160300D01*
X101228654Y-86222655D01*
X101209358Y-86239375D01*
X101023797Y-86369305D01*
X100856705Y-86536397D01*
X100721165Y-86729969D01*
X100721164Y-86729971D01*
X100621298Y-86944135D01*
X100621294Y-86944144D01*
X100560138Y-87172386D01*
X100560136Y-87172396D01*
X100539541Y-87407799D01*
X100539541Y-87407800D01*
X100560136Y-87643203D01*
X100560138Y-87643213D01*
X100621294Y-87871455D01*
X100621296Y-87871459D01*
X100621297Y-87871463D01*
X100635287Y-87901464D01*
X100721165Y-88085630D01*
X100721167Y-88085634D01*
X100856701Y-88279195D01*
X100856706Y-88279202D01*
X101023797Y-88446293D01*
X101023803Y-88446298D01*
X101209358Y-88576225D01*
X101252983Y-88630802D01*
X101260177Y-88700300D01*
X101228654Y-88762655D01*
X101209358Y-88779375D01*
X101023797Y-88909305D01*
X100856705Y-89076397D01*
X100721165Y-89269969D01*
X100721164Y-89269971D01*
X100621298Y-89484135D01*
X100621294Y-89484144D01*
X100560138Y-89712386D01*
X100560136Y-89712396D01*
X100539541Y-89947799D01*
X100539541Y-89947800D01*
X100560136Y-90183203D01*
X100560138Y-90183213D01*
X100621294Y-90411455D01*
X100621296Y-90411459D01*
X100621297Y-90411463D01*
X100635287Y-90441464D01*
X100721165Y-90625630D01*
X100721167Y-90625634D01*
X100856701Y-90819195D01*
X100856706Y-90819202D01*
X101023797Y-90986293D01*
X101023803Y-90986298D01*
X101209358Y-91116225D01*
X101252983Y-91170802D01*
X101260177Y-91240300D01*
X101228654Y-91302655D01*
X101209358Y-91319375D01*
X101023797Y-91449305D01*
X100856705Y-91616397D01*
X100721165Y-91809969D01*
X100721164Y-91809971D01*
X100621298Y-92024135D01*
X100621294Y-92024144D01*
X100560138Y-92252386D01*
X100560136Y-92252396D01*
X100539541Y-92487799D01*
X100539541Y-92487800D01*
X100560136Y-92723203D01*
X100560138Y-92723213D01*
X100621294Y-92951455D01*
X100621296Y-92951459D01*
X100621297Y-92951463D01*
X100635287Y-92981464D01*
X100721165Y-93165630D01*
X100721167Y-93165634D01*
X100856701Y-93359195D01*
X100856706Y-93359202D01*
X101023797Y-93526293D01*
X101023803Y-93526298D01*
X101209358Y-93656225D01*
X101252983Y-93710802D01*
X101260177Y-93780300D01*
X101228654Y-93842655D01*
X101209358Y-93859375D01*
X101023797Y-93989305D01*
X100856705Y-94156397D01*
X100721165Y-94349969D01*
X100721164Y-94349971D01*
X100621298Y-94564135D01*
X100621294Y-94564144D01*
X100560138Y-94792386D01*
X100560136Y-94792396D01*
X100539541Y-95027799D01*
X100539541Y-95027800D01*
X100560136Y-95263203D01*
X100560138Y-95263213D01*
X100621294Y-95491455D01*
X100621296Y-95491459D01*
X100621297Y-95491463D01*
X100635287Y-95521464D01*
X100721165Y-95705630D01*
X100721167Y-95705634D01*
X100856701Y-95899195D01*
X100856706Y-95899202D01*
X101023797Y-96066293D01*
X101023803Y-96066298D01*
X101209358Y-96196225D01*
X101252983Y-96250802D01*
X101260177Y-96320300D01*
X101228654Y-96382655D01*
X101209358Y-96399375D01*
X101023797Y-96529305D01*
X100856705Y-96696397D01*
X100721165Y-96889969D01*
X100721164Y-96889971D01*
X100621298Y-97104135D01*
X100621294Y-97104144D01*
X100560138Y-97332386D01*
X100560136Y-97332396D01*
X100539541Y-97567799D01*
X100539541Y-97567800D01*
X100560136Y-97803203D01*
X100560138Y-97803213D01*
X100621294Y-98031455D01*
X100621296Y-98031459D01*
X100621297Y-98031463D01*
X100635287Y-98061464D01*
X100721165Y-98245630D01*
X100721167Y-98245634D01*
X100792862Y-98348024D01*
X100846707Y-98424923D01*
X100856701Y-98439195D01*
X100856706Y-98439202D01*
X101023797Y-98606293D01*
X101023803Y-98606298D01*
X101209358Y-98736225D01*
X101252983Y-98790802D01*
X101260177Y-98860300D01*
X101228654Y-98922655D01*
X101209358Y-98939375D01*
X101023797Y-99069305D01*
X100856705Y-99236397D01*
X100721165Y-99429969D01*
X100721164Y-99429971D01*
X100621298Y-99644135D01*
X100621294Y-99644144D01*
X100560138Y-99872386D01*
X100560136Y-99872396D01*
X100539541Y-100107799D01*
X100539541Y-100107800D01*
X95095700Y-100107800D01*
X95095700Y-54462800D01*
X96590327Y-54462800D01*
X96609812Y-54933909D01*
X96668133Y-55401789D01*
X96668134Y-55401789D01*
X96764894Y-55863259D01*
X96899432Y-56315165D01*
X97070826Y-56754415D01*
X97070826Y-56754416D01*
X97277914Y-57178020D01*
X97277915Y-57178021D01*
X97519269Y-57583066D01*
X97519268Y-57583065D01*
X97793250Y-57966801D01*
X98088749Y-58315695D01*
X99061582Y-57342862D01*
X99122905Y-57309377D01*
X99192596Y-57314361D01*
X99241141Y-57347270D01*
X99321769Y-57436230D01*
X99410728Y-57516857D01*
X99447182Y-57576463D01*
X99445623Y-57646315D01*
X99415136Y-57696416D01*
X98442303Y-58669249D01*
X98442303Y-58669250D01*
X98791199Y-58964750D01*
X99174935Y-59238732D01*
X99174934Y-59238731D01*
X99579979Y-59480085D01*
X99579980Y-59480086D01*
X100003584Y-59687174D01*
X100003585Y-59687174D01*
X100442835Y-59858568D01*
X100894741Y-59993106D01*
X101356211Y-60089866D01*
X101356211Y-60089867D01*
X101824091Y-60148188D01*
X102295200Y-60167673D01*
X102766309Y-60148188D01*
X103234189Y-60089867D01*
X103234189Y-60089866D01*
X103695659Y-59993106D01*
X104147565Y-59858568D01*
X104586815Y-59687174D01*
X104586816Y-59687174D01*
X105010420Y-59480086D01*
X105010421Y-59480085D01*
X105415466Y-59238731D01*
X105415465Y-59238732D01*
X105799201Y-58964750D01*
X106148095Y-58669250D01*
X106148095Y-58669249D01*
X105175262Y-57696416D01*
X105141777Y-57635093D01*
X105146761Y-57565401D01*
X105179668Y-57516860D01*
X105268630Y-57436230D01*
X105349259Y-57347268D01*
X105408862Y-57310817D01*
X105478714Y-57312374D01*
X105528816Y-57342862D01*
X106501649Y-58315695D01*
X106501650Y-58315695D01*
X106797150Y-57966801D01*
X107071132Y-57583065D01*
X107071131Y-57583066D01*
X107312485Y-57178021D01*
X107312486Y-57178020D01*
X107519574Y-56754416D01*
X107519574Y-56754415D01*
X107690968Y-56315165D01*
X107825506Y-55863259D01*
X107922266Y-55401789D01*
X107922267Y-55401789D01*
X107964787Y-55060670D01*
X110969700Y-55060670D01*
X110969701Y-55060676D01*
X110976108Y-55120283D01*
X111026402Y-55255128D01*
X111026406Y-55255135D01*
X111112652Y-55370344D01*
X111112655Y-55370347D01*
X111227864Y-55456593D01*
X111227871Y-55456597D01*
X111362717Y-55506891D01*
X111362716Y-55506891D01*
X111369644Y-55507635D01*
X111422327Y-55513300D01*
X113218072Y-55513299D01*
X113277683Y-55506891D01*
X113412531Y-55456596D01*
X113527746Y-55370346D01*
X113613996Y-55255131D01*
X113663010Y-55123716D01*
X113704881Y-55067784D01*
X113770345Y-55043366D01*
X113838618Y-55058217D01*
X113866873Y-55079369D01*
X113988799Y-55201295D01*
X114085584Y-55269065D01*
X114182365Y-55336832D01*
X114182367Y-55336833D01*
X114182370Y-55336835D01*
X114396537Y-55436703D01*
X114624792Y-55497863D01*
X114801234Y-55513300D01*
X114860199Y-55518459D01*
X114860200Y-55518459D01*
X114860201Y-55518459D01*
X114919166Y-55513300D01*
X115095608Y-55497863D01*
X115323863Y-55436703D01*
X115538030Y-55336835D01*
X115731601Y-55201295D01*
X115898695Y-55034201D01*
X116028624Y-54848642D01*
X116083202Y-54805017D01*
X116152700Y-54797823D01*
X116215055Y-54829346D01*
X116231775Y-54848642D01*
X116361700Y-55034195D01*
X116361705Y-55034201D01*
X116528799Y-55201295D01*
X116625584Y-55269065D01*
X116722365Y-55336832D01*
X116722367Y-55336833D01*
X116722370Y-55336835D01*
X116936537Y-55436703D01*
X117164792Y-55497863D01*
X117341234Y-55513300D01*
X117400199Y-55518459D01*
X117400200Y-55518459D01*
X117400201Y-55518459D01*
X117459166Y-55513300D01*
X117635608Y-55497863D01*
X117863863Y-55436703D01*
X118078030Y-55336835D01*
X118271601Y-55201295D01*
X118438695Y-55034201D01*
X118568624Y-54848642D01*
X118623202Y-54805017D01*
X118692700Y-54797823D01*
X118755055Y-54829346D01*
X118771775Y-54848642D01*
X118901700Y-55034195D01*
X118901705Y-55034201D01*
X119068799Y-55201295D01*
X119165584Y-55269065D01*
X119262365Y-55336832D01*
X119262367Y-55336833D01*
X119262370Y-55336835D01*
X119476537Y-55436703D01*
X119704792Y-55497863D01*
X119881234Y-55513300D01*
X119940199Y-55518459D01*
X119940200Y-55518459D01*
X119940201Y-55518459D01*
X119999166Y-55513300D01*
X120175608Y-55497863D01*
X120403863Y-55436703D01*
X120618030Y-55336835D01*
X120811601Y-55201295D01*
X120978695Y-55034201D01*
X121108624Y-54848642D01*
X121163202Y-54805017D01*
X121232700Y-54797823D01*
X121295055Y-54829346D01*
X121311775Y-54848642D01*
X121441700Y-55034195D01*
X121441705Y-55034201D01*
X121608799Y-55201295D01*
X121705584Y-55269065D01*
X121802365Y-55336832D01*
X121802367Y-55336833D01*
X121802370Y-55336835D01*
X122016537Y-55436703D01*
X122244792Y-55497863D01*
X122421234Y-55513300D01*
X122480199Y-55518459D01*
X122480200Y-55518459D01*
X122480201Y-55518459D01*
X122539166Y-55513300D01*
X122715608Y-55497863D01*
X122943863Y-55436703D01*
X123158030Y-55336835D01*
X123351601Y-55201295D01*
X123518695Y-55034201D01*
X123648624Y-54848642D01*
X123703202Y-54805017D01*
X123772700Y-54797823D01*
X123835055Y-54829346D01*
X123851775Y-54848642D01*
X123981700Y-55034195D01*
X123981705Y-55034201D01*
X124148799Y-55201295D01*
X124245584Y-55269065D01*
X124342365Y-55336832D01*
X124342367Y-55336833D01*
X124342370Y-55336835D01*
X124556537Y-55436703D01*
X124784792Y-55497863D01*
X124961234Y-55513300D01*
X125020199Y-55518459D01*
X125020200Y-55518459D01*
X125020201Y-55518459D01*
X125079166Y-55513300D01*
X125255608Y-55497863D01*
X125483863Y-55436703D01*
X125698030Y-55336835D01*
X125891601Y-55201295D01*
X126058695Y-55034201D01*
X126188624Y-54848642D01*
X126243202Y-54805017D01*
X126312700Y-54797823D01*
X126375055Y-54829346D01*
X126391775Y-54848642D01*
X126521700Y-55034195D01*
X126521705Y-55034201D01*
X126688799Y-55201295D01*
X126785584Y-55269065D01*
X126882365Y-55336832D01*
X126882367Y-55336833D01*
X126882370Y-55336835D01*
X127096537Y-55436703D01*
X127324792Y-55497863D01*
X127501234Y-55513300D01*
X127560199Y-55518459D01*
X127560200Y-55518459D01*
X127560201Y-55518459D01*
X127619166Y-55513300D01*
X127795608Y-55497863D01*
X128023863Y-55436703D01*
X128238030Y-55336835D01*
X128431601Y-55201295D01*
X128598695Y-55034201D01*
X128728624Y-54848642D01*
X128783202Y-54805017D01*
X128852700Y-54797823D01*
X128915055Y-54829346D01*
X128931775Y-54848642D01*
X129061700Y-55034195D01*
X129061705Y-55034201D01*
X129228799Y-55201295D01*
X129325584Y-55269065D01*
X129422365Y-55336832D01*
X129422367Y-55336833D01*
X129422370Y-55336835D01*
X129636537Y-55436703D01*
X129864792Y-55497863D01*
X130041234Y-55513300D01*
X130100199Y-55518459D01*
X130100200Y-55518459D01*
X130100201Y-55518459D01*
X130159166Y-55513300D01*
X130335608Y-55497863D01*
X130563863Y-55436703D01*
X130778030Y-55336835D01*
X130971601Y-55201295D01*
X131138695Y-55034201D01*
X131268624Y-54848642D01*
X131323202Y-54805017D01*
X131392700Y-54797823D01*
X131455055Y-54829346D01*
X131471775Y-54848642D01*
X131601700Y-55034195D01*
X131601705Y-55034201D01*
X131768799Y-55201295D01*
X131865584Y-55269065D01*
X131962365Y-55336832D01*
X131962367Y-55336833D01*
X131962370Y-55336835D01*
X132176537Y-55436703D01*
X132404792Y-55497863D01*
X132581234Y-55513300D01*
X132640199Y-55518459D01*
X132640200Y-55518459D01*
X132640201Y-55518459D01*
X132699166Y-55513300D01*
X132875608Y-55497863D01*
X133103863Y-55436703D01*
X133318030Y-55336835D01*
X133511601Y-55201295D01*
X133678695Y-55034201D01*
X133808624Y-54848642D01*
X133863202Y-54805017D01*
X133932700Y-54797823D01*
X133995055Y-54829346D01*
X134011775Y-54848642D01*
X134141700Y-55034195D01*
X134141705Y-55034201D01*
X134308799Y-55201295D01*
X134405584Y-55269065D01*
X134502365Y-55336832D01*
X134502367Y-55336833D01*
X134502370Y-55336835D01*
X134716537Y-55436703D01*
X134944792Y-55497863D01*
X135121234Y-55513300D01*
X135180199Y-55518459D01*
X135180200Y-55518459D01*
X135180201Y-55518459D01*
X135239166Y-55513300D01*
X135415608Y-55497863D01*
X135643863Y-55436703D01*
X135858030Y-55336835D01*
X136051601Y-55201295D01*
X136218695Y-55034201D01*
X136348624Y-54848642D01*
X136403202Y-54805017D01*
X136472700Y-54797823D01*
X136535055Y-54829346D01*
X136551775Y-54848642D01*
X136681700Y-55034195D01*
X136681705Y-55034201D01*
X136848799Y-55201295D01*
X136945584Y-55269065D01*
X137042365Y-55336832D01*
X137042367Y-55336833D01*
X137042370Y-55336835D01*
X137256537Y-55436703D01*
X137484792Y-55497863D01*
X137661234Y-55513300D01*
X137720199Y-55518459D01*
X137720200Y-55518459D01*
X137720201Y-55518459D01*
X137779166Y-55513300D01*
X137955608Y-55497863D01*
X138183863Y-55436703D01*
X138398030Y-55336835D01*
X138591601Y-55201295D01*
X138758695Y-55034201D01*
X138888624Y-54848642D01*
X138943202Y-54805017D01*
X139012700Y-54797823D01*
X139075055Y-54829346D01*
X139091775Y-54848642D01*
X139221700Y-55034195D01*
X139221705Y-55034201D01*
X139388799Y-55201295D01*
X139485584Y-55269065D01*
X139582365Y-55336832D01*
X139582367Y-55336833D01*
X139582370Y-55336835D01*
X139796537Y-55436703D01*
X140024792Y-55497863D01*
X140201234Y-55513300D01*
X140260199Y-55518459D01*
X140260200Y-55518459D01*
X140260201Y-55518459D01*
X140319166Y-55513300D01*
X140495608Y-55497863D01*
X140723863Y-55436703D01*
X140938030Y-55336835D01*
X141131601Y-55201295D01*
X141298695Y-55034201D01*
X141428624Y-54848642D01*
X141483202Y-54805017D01*
X141552700Y-54797823D01*
X141615055Y-54829346D01*
X141631775Y-54848642D01*
X141761700Y-55034195D01*
X141761705Y-55034201D01*
X141928799Y-55201295D01*
X142025584Y-55269064D01*
X142122365Y-55336832D01*
X142122367Y-55336833D01*
X142122370Y-55336835D01*
X142336537Y-55436703D01*
X142564792Y-55497863D01*
X142741234Y-55513300D01*
X142800199Y-55518459D01*
X142800200Y-55518459D01*
X142800201Y-55518459D01*
X142859166Y-55513300D01*
X143035608Y-55497863D01*
X143263863Y-55436703D01*
X143478030Y-55336835D01*
X143671601Y-55201295D01*
X143838695Y-55034201D01*
X143968624Y-54848642D01*
X144023202Y-54805017D01*
X144092700Y-54797823D01*
X144155055Y-54829346D01*
X144171775Y-54848642D01*
X144301700Y-55034195D01*
X144301705Y-55034201D01*
X144468799Y-55201295D01*
X144565584Y-55269064D01*
X144662365Y-55336832D01*
X144662367Y-55336833D01*
X144662370Y-55336835D01*
X144876537Y-55436703D01*
X145104792Y-55497863D01*
X145281234Y-55513300D01*
X145340199Y-55518459D01*
X145340200Y-55518459D01*
X145340201Y-55518459D01*
X145399166Y-55513300D01*
X145575608Y-55497863D01*
X145803863Y-55436703D01*
X146018030Y-55336835D01*
X146211601Y-55201295D01*
X146378695Y-55034201D01*
X146508624Y-54848642D01*
X146563202Y-54805017D01*
X146632700Y-54797823D01*
X146695055Y-54829346D01*
X146711775Y-54848642D01*
X146841700Y-55034195D01*
X146841705Y-55034201D01*
X147008799Y-55201295D01*
X147105584Y-55269064D01*
X147202365Y-55336832D01*
X147202367Y-55336833D01*
X147202370Y-55336835D01*
X147416537Y-55436703D01*
X147644792Y-55497863D01*
X147821234Y-55513300D01*
X147880199Y-55518459D01*
X147880200Y-55518459D01*
X147880201Y-55518459D01*
X147939166Y-55513300D01*
X148115608Y-55497863D01*
X148343863Y-55436703D01*
X148558030Y-55336835D01*
X148751601Y-55201295D01*
X148918695Y-55034201D01*
X149054235Y-54840630D01*
X149154103Y-54626463D01*
X149193937Y-54477800D01*
X152190327Y-54477800D01*
X152209812Y-54948909D01*
X152268133Y-55416789D01*
X152268134Y-55416789D01*
X152364894Y-55878259D01*
X152499432Y-56330165D01*
X152670826Y-56769415D01*
X152670826Y-56769416D01*
X152877914Y-57193020D01*
X152877915Y-57193021D01*
X153119269Y-57598066D01*
X153119268Y-57598065D01*
X153393250Y-57981801D01*
X153688749Y-58330695D01*
X154661582Y-57357862D01*
X154722905Y-57324377D01*
X154792596Y-57329361D01*
X154841141Y-57362270D01*
X154921769Y-57451230D01*
X155010728Y-57531857D01*
X155047182Y-57591463D01*
X155045623Y-57661315D01*
X155015136Y-57711416D01*
X154042303Y-58684249D01*
X154042303Y-58684250D01*
X154391199Y-58979750D01*
X154774935Y-59253732D01*
X154774934Y-59253731D01*
X155179979Y-59495085D01*
X155179980Y-59495086D01*
X155603584Y-59702174D01*
X155603585Y-59702174D01*
X156042835Y-59873568D01*
X156494741Y-60008106D01*
X156956211Y-60104866D01*
X156956211Y-60104867D01*
X157424091Y-60163188D01*
X157895200Y-60182673D01*
X158366309Y-60163188D01*
X158834189Y-60104867D01*
X158834189Y-60104866D01*
X159295659Y-60008106D01*
X159747565Y-59873568D01*
X160186815Y-59702174D01*
X160186816Y-59702174D01*
X160610420Y-59495086D01*
X160610421Y-59495085D01*
X161015466Y-59253731D01*
X161015465Y-59253732D01*
X161399201Y-58979750D01*
X161748095Y-58684250D01*
X161748095Y-58684249D01*
X160775262Y-57711416D01*
X160741777Y-57650093D01*
X160746761Y-57580401D01*
X160779668Y-57531860D01*
X160868630Y-57451230D01*
X160949259Y-57362268D01*
X161008862Y-57325817D01*
X161078714Y-57327374D01*
X161128816Y-57357862D01*
X162101649Y-58330695D01*
X162101650Y-58330695D01*
X162397150Y-57981801D01*
X162671132Y-57598065D01*
X162671131Y-57598066D01*
X162912485Y-57193021D01*
X162912486Y-57193020D01*
X163119574Y-56769416D01*
X163119574Y-56769415D01*
X163290968Y-56330165D01*
X163425506Y-55878259D01*
X163522266Y-55416789D01*
X163522267Y-55416789D01*
X163580588Y-54948909D01*
X163600073Y-54477800D01*
X163580588Y-54006691D01*
X163522267Y-53538811D01*
X163522266Y-53538811D01*
X163425506Y-53077341D01*
X163290968Y-52625435D01*
X163119574Y-52186185D01*
X163119574Y-52186184D01*
X162912486Y-51762580D01*
X162912485Y-51762579D01*
X162671131Y-51357534D01*
X162671132Y-51357535D01*
X162397150Y-50973799D01*
X162101650Y-50624903D01*
X162101649Y-50624903D01*
X161128816Y-51597736D01*
X161067493Y-51631221D01*
X160997801Y-51626237D01*
X160949257Y-51593328D01*
X160868630Y-51504369D01*
X160779670Y-51423741D01*
X160743216Y-51364135D01*
X160744775Y-51294283D01*
X160775262Y-51244182D01*
X161748095Y-50271349D01*
X161399201Y-49975850D01*
X161015465Y-49701868D01*
X161015466Y-49701869D01*
X160610421Y-49460515D01*
X160610420Y-49460514D01*
X160186816Y-49253426D01*
X160186815Y-49253426D01*
X159747565Y-49082032D01*
X159295659Y-48947494D01*
X158834189Y-48850734D01*
X158834189Y-48850733D01*
X158366309Y-48792412D01*
X157895200Y-48772927D01*
X157424091Y-48792412D01*
X156956211Y-48850733D01*
X156956211Y-48850734D01*
X156494741Y-48947494D01*
X156042835Y-49082032D01*
X155603585Y-49253426D01*
X155603584Y-49253426D01*
X155179980Y-49460514D01*
X155179979Y-49460515D01*
X154774934Y-49701869D01*
X154774935Y-49701868D01*
X154391199Y-49975850D01*
X154042303Y-50271349D01*
X155015136Y-51244182D01*
X155048621Y-51305505D01*
X155043637Y-51375197D01*
X155010729Y-51423740D01*
X154921769Y-51504369D01*
X154841140Y-51593329D01*
X154781534Y-51629782D01*
X154711681Y-51628223D01*
X154661582Y-51597736D01*
X153688749Y-50624903D01*
X153393250Y-50973799D01*
X153119268Y-51357535D01*
X153119269Y-51357534D01*
X152877915Y-51762579D01*
X152877914Y-51762580D01*
X152670826Y-52186184D01*
X152670826Y-52186185D01*
X152499432Y-52625435D01*
X152364894Y-53077341D01*
X152268134Y-53538811D01*
X152268133Y-53538811D01*
X152209812Y-54006691D01*
X152190327Y-54477800D01*
X149193937Y-54477800D01*
X149215263Y-54398208D01*
X149235859Y-54162800D01*
X149215263Y-53927392D01*
X149154103Y-53699137D01*
X149054235Y-53484971D01*
X149048625Y-53476958D01*
X148918694Y-53291397D01*
X148751602Y-53124306D01*
X148751595Y-53124301D01*
X148558034Y-52988767D01*
X148558030Y-52988765D01*
X148558028Y-52988764D01*
X148343863Y-52888897D01*
X148343859Y-52888896D01*
X148343855Y-52888894D01*
X148115613Y-52827738D01*
X148115603Y-52827736D01*
X147880201Y-52807141D01*
X147880199Y-52807141D01*
X147644796Y-52827736D01*
X147644786Y-52827738D01*
X147416544Y-52888894D01*
X147416535Y-52888898D01*
X147202371Y-52988764D01*
X147202369Y-52988765D01*
X147008797Y-53124305D01*
X146841705Y-53291397D01*
X146711775Y-53476958D01*
X146657198Y-53520583D01*
X146587700Y-53527777D01*
X146525345Y-53496254D01*
X146508625Y-53476958D01*
X146378694Y-53291397D01*
X146211602Y-53124306D01*
X146211595Y-53124301D01*
X146018034Y-52988767D01*
X146018030Y-52988765D01*
X146018028Y-52988764D01*
X145803863Y-52888897D01*
X145803859Y-52888896D01*
X145803855Y-52888894D01*
X145575613Y-52827738D01*
X145575603Y-52827736D01*
X145340201Y-52807141D01*
X145340199Y-52807141D01*
X145104796Y-52827736D01*
X145104786Y-52827738D01*
X144876544Y-52888894D01*
X144876535Y-52888898D01*
X144662371Y-52988764D01*
X144662369Y-52988765D01*
X144468797Y-53124305D01*
X144301708Y-53291394D01*
X144171774Y-53476959D01*
X144117197Y-53520584D01*
X144047698Y-53527776D01*
X143985344Y-53496254D01*
X143968624Y-53476958D01*
X143838694Y-53291397D01*
X143671602Y-53124306D01*
X143671595Y-53124301D01*
X143478034Y-52988767D01*
X143478030Y-52988765D01*
X143478028Y-52988764D01*
X143263863Y-52888897D01*
X143263859Y-52888896D01*
X143263855Y-52888894D01*
X143035613Y-52827738D01*
X143035603Y-52827736D01*
X142800201Y-52807141D01*
X142800199Y-52807141D01*
X142564796Y-52827736D01*
X142564786Y-52827738D01*
X142336544Y-52888894D01*
X142336535Y-52888898D01*
X142122371Y-52988764D01*
X142122369Y-52988765D01*
X141928797Y-53124305D01*
X141761705Y-53291397D01*
X141631775Y-53476958D01*
X141577198Y-53520583D01*
X141507700Y-53527777D01*
X141445345Y-53496254D01*
X141428625Y-53476958D01*
X141298694Y-53291397D01*
X141131602Y-53124306D01*
X141131595Y-53124301D01*
X140938034Y-52988767D01*
X140938030Y-52988765D01*
X140938028Y-52988764D01*
X140723863Y-52888897D01*
X140723859Y-52888896D01*
X140723855Y-52888894D01*
X140495613Y-52827738D01*
X140495603Y-52827736D01*
X140260201Y-52807141D01*
X140260199Y-52807141D01*
X140024796Y-52827736D01*
X140024786Y-52827738D01*
X139796544Y-52888894D01*
X139796535Y-52888898D01*
X139582371Y-52988764D01*
X139582369Y-52988765D01*
X139388797Y-53124305D01*
X139221705Y-53291397D01*
X139091775Y-53476958D01*
X139037198Y-53520583D01*
X138967700Y-53527777D01*
X138905345Y-53496254D01*
X138888625Y-53476958D01*
X138758694Y-53291397D01*
X138591602Y-53124306D01*
X138591595Y-53124301D01*
X138398034Y-52988767D01*
X138398030Y-52988765D01*
X138398028Y-52988764D01*
X138183863Y-52888897D01*
X138183859Y-52888896D01*
X138183855Y-52888894D01*
X137955613Y-52827738D01*
X137955603Y-52827736D01*
X137720201Y-52807141D01*
X137720199Y-52807141D01*
X137484796Y-52827736D01*
X137484786Y-52827738D01*
X137256544Y-52888894D01*
X137256535Y-52888898D01*
X137042371Y-52988764D01*
X137042369Y-52988765D01*
X136848797Y-53124305D01*
X136681705Y-53291397D01*
X136551775Y-53476958D01*
X136497198Y-53520583D01*
X136427700Y-53527777D01*
X136365345Y-53496254D01*
X136348625Y-53476958D01*
X136218694Y-53291397D01*
X136051602Y-53124306D01*
X136051595Y-53124301D01*
X135858034Y-52988767D01*
X135858030Y-52988765D01*
X135858028Y-52988764D01*
X135643863Y-52888897D01*
X135643859Y-52888896D01*
X135643855Y-52888894D01*
X135415613Y-52827738D01*
X135415603Y-52827736D01*
X135180201Y-52807141D01*
X135180199Y-52807141D01*
X134944796Y-52827736D01*
X134944786Y-52827738D01*
X134716544Y-52888894D01*
X134716535Y-52888898D01*
X134502371Y-52988764D01*
X134502369Y-52988765D01*
X134308797Y-53124305D01*
X134141708Y-53291394D01*
X134011774Y-53476959D01*
X133957197Y-53520584D01*
X133887698Y-53527776D01*
X133825344Y-53496254D01*
X133808624Y-53476958D01*
X133678694Y-53291397D01*
X133511602Y-53124306D01*
X133511595Y-53124301D01*
X133318034Y-52988767D01*
X133318030Y-52988765D01*
X133318028Y-52988764D01*
X133103863Y-52888897D01*
X133103859Y-52888896D01*
X133103855Y-52888894D01*
X132875613Y-52827738D01*
X132875603Y-52827736D01*
X132640201Y-52807141D01*
X132640199Y-52807141D01*
X132404796Y-52827736D01*
X132404786Y-52827738D01*
X132176544Y-52888894D01*
X132176535Y-52888898D01*
X131962371Y-52988764D01*
X131962369Y-52988765D01*
X131768797Y-53124305D01*
X131601708Y-53291394D01*
X131471774Y-53476959D01*
X131417197Y-53520584D01*
X131347698Y-53527776D01*
X131285344Y-53496254D01*
X131268624Y-53476958D01*
X131138694Y-53291397D01*
X130971602Y-53124306D01*
X130971595Y-53124301D01*
X130778034Y-52988767D01*
X130778030Y-52988765D01*
X130778028Y-52988764D01*
X130563863Y-52888897D01*
X130563859Y-52888896D01*
X130563855Y-52888894D01*
X130335613Y-52827738D01*
X130335603Y-52827736D01*
X130100201Y-52807141D01*
X130100199Y-52807141D01*
X129864796Y-52827736D01*
X129864786Y-52827738D01*
X129636544Y-52888894D01*
X129636535Y-52888898D01*
X129422371Y-52988764D01*
X129422369Y-52988765D01*
X129228797Y-53124305D01*
X129061708Y-53291394D01*
X128931774Y-53476960D01*
X128877197Y-53520584D01*
X128807698Y-53527777D01*
X128745344Y-53496255D01*
X128728629Y-53476964D01*
X128598695Y-53291399D01*
X128598693Y-53291396D01*
X128431602Y-53124306D01*
X128431595Y-53124301D01*
X128238034Y-52988767D01*
X128238030Y-52988765D01*
X128238028Y-52988764D01*
X128023863Y-52888897D01*
X128023859Y-52888896D01*
X128023855Y-52888894D01*
X127795613Y-52827738D01*
X127795603Y-52827736D01*
X127560201Y-52807141D01*
X127560199Y-52807141D01*
X127324796Y-52827736D01*
X127324786Y-52827738D01*
X127096544Y-52888894D01*
X127096535Y-52888898D01*
X126882371Y-52988764D01*
X126882369Y-52988765D01*
X126688797Y-53124305D01*
X126521705Y-53291397D01*
X126391775Y-53476958D01*
X126337198Y-53520583D01*
X126267700Y-53527777D01*
X126205345Y-53496254D01*
X126188625Y-53476958D01*
X126058694Y-53291397D01*
X125891602Y-53124306D01*
X125891595Y-53124301D01*
X125698034Y-52988767D01*
X125698030Y-52988765D01*
X125698028Y-52988764D01*
X125483863Y-52888897D01*
X125483859Y-52888896D01*
X125483855Y-52888894D01*
X125255613Y-52827738D01*
X125255603Y-52827736D01*
X125020201Y-52807141D01*
X125020199Y-52807141D01*
X124784796Y-52827736D01*
X124784786Y-52827738D01*
X124556544Y-52888894D01*
X124556535Y-52888898D01*
X124342371Y-52988764D01*
X124342369Y-52988765D01*
X124148797Y-53124305D01*
X123981708Y-53291394D01*
X123851774Y-53476960D01*
X123797197Y-53520584D01*
X123727698Y-53527777D01*
X123665344Y-53496255D01*
X123648629Y-53476964D01*
X123518695Y-53291399D01*
X123518693Y-53291396D01*
X123351602Y-53124306D01*
X123351595Y-53124301D01*
X123158034Y-52988767D01*
X123158030Y-52988765D01*
X123158028Y-52988764D01*
X122943863Y-52888897D01*
X122943859Y-52888896D01*
X122943855Y-52888894D01*
X122715613Y-52827738D01*
X122715603Y-52827736D01*
X122480201Y-52807141D01*
X122480199Y-52807141D01*
X122244796Y-52827736D01*
X122244786Y-52827738D01*
X122016544Y-52888894D01*
X122016535Y-52888898D01*
X121802371Y-52988764D01*
X121802369Y-52988765D01*
X121608797Y-53124305D01*
X121441708Y-53291394D01*
X121311774Y-53476959D01*
X121257197Y-53520584D01*
X121187698Y-53527776D01*
X121125344Y-53496254D01*
X121108624Y-53476958D01*
X120978694Y-53291397D01*
X120811602Y-53124306D01*
X120811595Y-53124301D01*
X120618034Y-52988767D01*
X120618030Y-52988765D01*
X120618028Y-52988764D01*
X120403863Y-52888897D01*
X120403859Y-52888896D01*
X120403855Y-52888894D01*
X120175613Y-52827738D01*
X120175603Y-52827736D01*
X119940201Y-52807141D01*
X119940199Y-52807141D01*
X119704796Y-52827736D01*
X119704786Y-52827738D01*
X119476544Y-52888894D01*
X119476535Y-52888898D01*
X119262371Y-52988764D01*
X119262369Y-52988765D01*
X119068797Y-53124305D01*
X118901708Y-53291394D01*
X118771774Y-53476960D01*
X118717197Y-53520584D01*
X118647698Y-53527777D01*
X118585344Y-53496255D01*
X118568629Y-53476964D01*
X118438695Y-53291399D01*
X118438693Y-53291396D01*
X118271602Y-53124306D01*
X118271595Y-53124301D01*
X118078034Y-52988767D01*
X118078030Y-52988765D01*
X118078028Y-52988764D01*
X117863863Y-52888897D01*
X117863859Y-52888896D01*
X117863855Y-52888894D01*
X117635613Y-52827738D01*
X117635603Y-52827736D01*
X117400201Y-52807141D01*
X117400199Y-52807141D01*
X117164796Y-52827736D01*
X117164786Y-52827738D01*
X116936544Y-52888894D01*
X116936535Y-52888898D01*
X116722371Y-52988764D01*
X116722369Y-52988765D01*
X116528797Y-53124305D01*
X116361705Y-53291397D01*
X116231775Y-53476958D01*
X116177198Y-53520583D01*
X116107700Y-53527777D01*
X116045345Y-53496254D01*
X116028625Y-53476958D01*
X115898694Y-53291397D01*
X115731602Y-53124306D01*
X115731595Y-53124301D01*
X115538034Y-52988767D01*
X115538030Y-52988765D01*
X115538028Y-52988764D01*
X115323863Y-52888897D01*
X115323859Y-52888896D01*
X115323855Y-52888894D01*
X115095613Y-52827738D01*
X115095603Y-52827736D01*
X114860201Y-52807141D01*
X114860199Y-52807141D01*
X114624796Y-52827736D01*
X114624786Y-52827738D01*
X114396544Y-52888894D01*
X114396535Y-52888898D01*
X114182371Y-52988764D01*
X114182369Y-52988765D01*
X113988800Y-53124303D01*
X113866873Y-53246230D01*
X113805550Y-53279714D01*
X113735858Y-53274730D01*
X113679925Y-53232858D01*
X113663010Y-53201881D01*
X113613997Y-53070471D01*
X113613993Y-53070464D01*
X113527747Y-52955255D01*
X113527744Y-52955252D01*
X113412535Y-52869006D01*
X113412528Y-52869002D01*
X113277682Y-52818708D01*
X113277683Y-52818708D01*
X113218083Y-52812301D01*
X113218081Y-52812300D01*
X113218073Y-52812300D01*
X113218064Y-52812300D01*
X111422329Y-52812300D01*
X111422323Y-52812301D01*
X111362716Y-52818708D01*
X111227871Y-52869002D01*
X111227864Y-52869006D01*
X111112655Y-52955252D01*
X111112652Y-52955255D01*
X111026406Y-53070464D01*
X111026402Y-53070471D01*
X110976108Y-53205317D01*
X110969701Y-53264916D01*
X110969700Y-53264935D01*
X110969700Y-55060670D01*
X107964787Y-55060670D01*
X107980588Y-54933909D01*
X108000073Y-54462800D01*
X107980588Y-53991691D01*
X107922267Y-53523811D01*
X107922266Y-53523811D01*
X107825506Y-53062341D01*
X107690968Y-52610435D01*
X107519574Y-52171185D01*
X107519574Y-52171184D01*
X107312486Y-51747580D01*
X107312485Y-51747579D01*
X107071131Y-51342534D01*
X107071132Y-51342535D01*
X106797150Y-50958799D01*
X106501650Y-50609903D01*
X106501649Y-50609903D01*
X105528816Y-51582736D01*
X105467493Y-51616221D01*
X105397801Y-51611237D01*
X105349257Y-51578328D01*
X105268630Y-51489369D01*
X105179670Y-51408741D01*
X105143216Y-51349135D01*
X105144775Y-51279283D01*
X105175262Y-51229182D01*
X106148095Y-50256349D01*
X105799201Y-49960850D01*
X105415465Y-49686868D01*
X105415466Y-49686869D01*
X105010421Y-49445515D01*
X105010420Y-49445514D01*
X104586816Y-49238426D01*
X104586815Y-49238426D01*
X104147565Y-49067032D01*
X103695659Y-48932494D01*
X103234189Y-48835734D01*
X103234189Y-48835733D01*
X102766309Y-48777412D01*
X102295200Y-48757927D01*
X101824091Y-48777412D01*
X101356211Y-48835733D01*
X101356211Y-48835734D01*
X100894741Y-48932494D01*
X100442835Y-49067032D01*
X100003585Y-49238426D01*
X100003584Y-49238426D01*
X99579980Y-49445514D01*
X99579979Y-49445515D01*
X99174934Y-49686869D01*
X99174935Y-49686868D01*
X98791199Y-49960850D01*
X98442303Y-50256349D01*
X99415136Y-51229182D01*
X99448621Y-51290505D01*
X99443637Y-51360197D01*
X99410729Y-51408740D01*
X99321769Y-51489369D01*
X99241140Y-51578329D01*
X99181534Y-51614782D01*
X99111681Y-51613223D01*
X99061582Y-51582736D01*
X98088749Y-50609903D01*
X97793250Y-50958799D01*
X97519268Y-51342535D01*
X97519269Y-51342534D01*
X97277915Y-51747579D01*
X97277914Y-51747580D01*
X97070826Y-52171184D01*
X97070826Y-52171185D01*
X96899432Y-52610435D01*
X96764894Y-53062341D01*
X96668134Y-53523811D01*
X96668133Y-53523811D01*
X96609812Y-53991691D01*
X96590327Y-54462800D01*
X95095700Y-54462800D01*
X95095700Y-48865012D01*
X95095858Y-48860588D01*
X95100680Y-48793173D01*
X95103454Y-48757927D01*
X95112251Y-48646144D01*
X95113475Y-48637851D01*
X95134102Y-48543031D01*
X95162062Y-48426566D01*
X95164249Y-48419404D01*
X95200189Y-48323046D01*
X95244151Y-48216914D01*
X95246994Y-48210972D01*
X95296766Y-48119821D01*
X95298258Y-48117246D01*
X95356699Y-48021877D01*
X95359887Y-48017180D01*
X95422658Y-47933327D01*
X95425073Y-47930308D01*
X95497220Y-47845836D01*
X95500478Y-47842311D01*
X95574711Y-47768078D01*
X95578236Y-47764820D01*
X95662708Y-47692673D01*
X95665727Y-47690258D01*
X95749580Y-47627487D01*
X95754277Y-47624299D01*
X95849646Y-47565858D01*
X95852221Y-47564366D01*
X95943372Y-47514594D01*
X95949314Y-47511751D01*
X96055446Y-47467789D01*
X96151804Y-47431849D01*
X96158966Y-47429662D01*
X96275443Y-47401699D01*
X96370251Y-47381075D01*
X96378544Y-47379851D01*
X96525435Y-47368289D01*
X96592992Y-47363457D01*
X96597413Y-47363300D01*
X163592987Y-47363300D01*
X163597407Y-47363457D01*
G37*
%TD.AperFunction*%
%TD*%
M02*
