%TF.GenerationSoftware,KiCad,Pcbnew,7.0.7*%
%TF.CreationDate,2024-04-01T01:32:49+05:30*%
%TF.ProjectId,GPIO_stack,4750494f-5f73-4746-9163-6b2e6b696361,rev?*%
%TF.SameCoordinates,Original*%
%TF.FileFunction,Legend,Top*%
%TF.FilePolarity,Positive*%
%FSLAX46Y46*%
G04 Gerber Fmt 4.6, Leading zero omitted, Abs format (unit mm)*
G04 Created by KiCad (PCBNEW 7.0.7) date 2024-04-01 01:32:49*
%MOMM*%
%LPD*%
G01*
G04 APERTURE LIST*
%ADD10C,0.150000*%
%ADD11C,0.100000*%
%ADD12C,0.120000*%
G04 APERTURE END LIST*
D10*
X112934979Y-63674619D02*
X112934979Y-62674619D01*
X112934979Y-62674619D02*
X113173074Y-62674619D01*
X113173074Y-62674619D02*
X113315931Y-62722238D01*
X113315931Y-62722238D02*
X113411169Y-62817476D01*
X113411169Y-62817476D02*
X113458788Y-62912714D01*
X113458788Y-62912714D02*
X113506407Y-63103190D01*
X113506407Y-63103190D02*
X113506407Y-63246047D01*
X113506407Y-63246047D02*
X113458788Y-63436523D01*
X113458788Y-63436523D02*
X113411169Y-63531761D01*
X113411169Y-63531761D02*
X113315931Y-63627000D01*
X113315931Y-63627000D02*
X113173074Y-63674619D01*
X113173074Y-63674619D02*
X112934979Y-63674619D01*
X113934979Y-63674619D02*
X113934979Y-63007952D01*
X113934979Y-63198428D02*
X113982598Y-63103190D01*
X113982598Y-63103190D02*
X114030217Y-63055571D01*
X114030217Y-63055571D02*
X114125455Y-63007952D01*
X114125455Y-63007952D02*
X114220693Y-63007952D01*
X114696884Y-63674619D02*
X114601646Y-63627000D01*
X114601646Y-63627000D02*
X114554027Y-63579380D01*
X114554027Y-63579380D02*
X114506408Y-63484142D01*
X114506408Y-63484142D02*
X114506408Y-63198428D01*
X114506408Y-63198428D02*
X114554027Y-63103190D01*
X114554027Y-63103190D02*
X114601646Y-63055571D01*
X114601646Y-63055571D02*
X114696884Y-63007952D01*
X114696884Y-63007952D02*
X114839741Y-63007952D01*
X114839741Y-63007952D02*
X114934979Y-63055571D01*
X114934979Y-63055571D02*
X114982598Y-63103190D01*
X114982598Y-63103190D02*
X115030217Y-63198428D01*
X115030217Y-63198428D02*
X115030217Y-63484142D01*
X115030217Y-63484142D02*
X114982598Y-63579380D01*
X114982598Y-63579380D02*
X114934979Y-63627000D01*
X114934979Y-63627000D02*
X114839741Y-63674619D01*
X114839741Y-63674619D02*
X114696884Y-63674619D01*
X115887360Y-63007952D02*
X115887360Y-63817476D01*
X115887360Y-63817476D02*
X115839741Y-63912714D01*
X115839741Y-63912714D02*
X115792122Y-63960333D01*
X115792122Y-63960333D02*
X115696884Y-64007952D01*
X115696884Y-64007952D02*
X115554027Y-64007952D01*
X115554027Y-64007952D02*
X115458789Y-63960333D01*
X115887360Y-63627000D02*
X115792122Y-63674619D01*
X115792122Y-63674619D02*
X115601646Y-63674619D01*
X115601646Y-63674619D02*
X115506408Y-63627000D01*
X115506408Y-63627000D02*
X115458789Y-63579380D01*
X115458789Y-63579380D02*
X115411170Y-63484142D01*
X115411170Y-63484142D02*
X115411170Y-63198428D01*
X115411170Y-63198428D02*
X115458789Y-63103190D01*
X115458789Y-63103190D02*
X115506408Y-63055571D01*
X115506408Y-63055571D02*
X115601646Y-63007952D01*
X115601646Y-63007952D02*
X115792122Y-63007952D01*
X115792122Y-63007952D02*
X115887360Y-63055571D01*
X116792122Y-63007952D02*
X116792122Y-63674619D01*
X116363551Y-63007952D02*
X116363551Y-63531761D01*
X116363551Y-63531761D02*
X116411170Y-63627000D01*
X116411170Y-63627000D02*
X116506408Y-63674619D01*
X116506408Y-63674619D02*
X116649265Y-63674619D01*
X116649265Y-63674619D02*
X116744503Y-63627000D01*
X116744503Y-63627000D02*
X116792122Y-63579380D01*
X117649265Y-63627000D02*
X117554027Y-63674619D01*
X117554027Y-63674619D02*
X117363551Y-63674619D01*
X117363551Y-63674619D02*
X117268313Y-63627000D01*
X117268313Y-63627000D02*
X117220694Y-63531761D01*
X117220694Y-63531761D02*
X117220694Y-63150809D01*
X117220694Y-63150809D02*
X117268313Y-63055571D01*
X117268313Y-63055571D02*
X117363551Y-63007952D01*
X117363551Y-63007952D02*
X117554027Y-63007952D01*
X117554027Y-63007952D02*
X117649265Y-63055571D01*
X117649265Y-63055571D02*
X117696884Y-63150809D01*
X117696884Y-63150809D02*
X117696884Y-63246047D01*
X117696884Y-63246047D02*
X117220694Y-63341285D01*
X139655779Y-63801619D02*
X139655779Y-62801619D01*
X139655779Y-62801619D02*
X139989112Y-63515904D01*
X139989112Y-63515904D02*
X140322445Y-62801619D01*
X140322445Y-62801619D02*
X140322445Y-63801619D01*
X141227207Y-63801619D02*
X141227207Y-63277809D01*
X141227207Y-63277809D02*
X141179588Y-63182571D01*
X141179588Y-63182571D02*
X141084350Y-63134952D01*
X141084350Y-63134952D02*
X140893874Y-63134952D01*
X140893874Y-63134952D02*
X140798636Y-63182571D01*
X141227207Y-63754000D02*
X141131969Y-63801619D01*
X141131969Y-63801619D02*
X140893874Y-63801619D01*
X140893874Y-63801619D02*
X140798636Y-63754000D01*
X140798636Y-63754000D02*
X140751017Y-63658761D01*
X140751017Y-63658761D02*
X140751017Y-63563523D01*
X140751017Y-63563523D02*
X140798636Y-63468285D01*
X140798636Y-63468285D02*
X140893874Y-63420666D01*
X140893874Y-63420666D02*
X141131969Y-63420666D01*
X141131969Y-63420666D02*
X141227207Y-63373047D01*
X141703398Y-63801619D02*
X141703398Y-63134952D01*
X141703398Y-62801619D02*
X141655779Y-62849238D01*
X141655779Y-62849238D02*
X141703398Y-62896857D01*
X141703398Y-62896857D02*
X141751017Y-62849238D01*
X141751017Y-62849238D02*
X141703398Y-62801619D01*
X141703398Y-62801619D02*
X141703398Y-62896857D01*
X142179588Y-63134952D02*
X142179588Y-63801619D01*
X142179588Y-63230190D02*
X142227207Y-63182571D01*
X142227207Y-63182571D02*
X142322445Y-63134952D01*
X142322445Y-63134952D02*
X142465302Y-63134952D01*
X142465302Y-63134952D02*
X142560540Y-63182571D01*
X142560540Y-63182571D02*
X142608159Y-63277809D01*
X142608159Y-63277809D02*
X142608159Y-63801619D01*
X135264769Y-114486495D02*
X135798103Y-114486495D01*
X135798103Y-114486495D02*
X135455245Y-115286495D01*
X136102865Y-115210304D02*
X136140960Y-115248400D01*
X136140960Y-115248400D02*
X136102865Y-115286495D01*
X136102865Y-115286495D02*
X136064769Y-115248400D01*
X136064769Y-115248400D02*
X136102865Y-115210304D01*
X136102865Y-115210304D02*
X136102865Y-115286495D01*
X136826674Y-114753161D02*
X136826674Y-115286495D01*
X136636198Y-114448400D02*
X136445721Y-115019828D01*
X136445721Y-115019828D02*
X136940960Y-115019828D01*
X137131436Y-114486495D02*
X137398103Y-115286495D01*
X137398103Y-115286495D02*
X137664769Y-114486495D01*
X138540960Y-115286495D02*
X138540960Y-114486495D01*
X138540960Y-114486495D02*
X138845722Y-114486495D01*
X138845722Y-114486495D02*
X138921912Y-114524590D01*
X138921912Y-114524590D02*
X138960007Y-114562685D01*
X138960007Y-114562685D02*
X138998103Y-114638876D01*
X138998103Y-114638876D02*
X138998103Y-114753161D01*
X138998103Y-114753161D02*
X138960007Y-114829352D01*
X138960007Y-114829352D02*
X138921912Y-114867447D01*
X138921912Y-114867447D02*
X138845722Y-114905542D01*
X138845722Y-114905542D02*
X138540960Y-114905542D01*
X139264769Y-114753161D02*
X139455245Y-115286495D01*
X139645722Y-114753161D02*
X139455245Y-115286495D01*
X139455245Y-115286495D02*
X139379055Y-115476971D01*
X139379055Y-115476971D02*
X139340960Y-115515066D01*
X139340960Y-115515066D02*
X139264769Y-115553161D01*
X139950484Y-115286495D02*
X139950484Y-114753161D01*
X139950484Y-114905542D02*
X139988579Y-114829352D01*
X139988579Y-114829352D02*
X140026674Y-114791257D01*
X140026674Y-114791257D02*
X140102865Y-114753161D01*
X140102865Y-114753161D02*
X140179055Y-114753161D01*
X140560007Y-115286495D02*
X140483817Y-115248400D01*
X140483817Y-115248400D02*
X140445722Y-115210304D01*
X140445722Y-115210304D02*
X140407626Y-115134114D01*
X140407626Y-115134114D02*
X140407626Y-114905542D01*
X140407626Y-114905542D02*
X140445722Y-114829352D01*
X140445722Y-114829352D02*
X140483817Y-114791257D01*
X140483817Y-114791257D02*
X140560007Y-114753161D01*
X140560007Y-114753161D02*
X140674293Y-114753161D01*
X140674293Y-114753161D02*
X140750484Y-114791257D01*
X140750484Y-114791257D02*
X140788579Y-114829352D01*
X140788579Y-114829352D02*
X140826674Y-114905542D01*
X140826674Y-114905542D02*
X140826674Y-115134114D01*
X140826674Y-115134114D02*
X140788579Y-115210304D01*
X140788579Y-115210304D02*
X140750484Y-115248400D01*
X140750484Y-115248400D02*
X140674293Y-115286495D01*
X140674293Y-115286495D02*
X140560007Y-115286495D01*
X105178219Y-99917020D02*
X104178219Y-99917020D01*
X104178219Y-99917020D02*
X104178219Y-99678925D01*
X104178219Y-99678925D02*
X104225838Y-99536068D01*
X104225838Y-99536068D02*
X104321076Y-99440830D01*
X104321076Y-99440830D02*
X104416314Y-99393211D01*
X104416314Y-99393211D02*
X104606790Y-99345592D01*
X104606790Y-99345592D02*
X104749647Y-99345592D01*
X104749647Y-99345592D02*
X104940123Y-99393211D01*
X104940123Y-99393211D02*
X105035361Y-99440830D01*
X105035361Y-99440830D02*
X105130600Y-99536068D01*
X105130600Y-99536068D02*
X105178219Y-99678925D01*
X105178219Y-99678925D02*
X105178219Y-99917020D01*
X105178219Y-98917020D02*
X104511552Y-98917020D01*
X104702028Y-98917020D02*
X104606790Y-98869401D01*
X104606790Y-98869401D02*
X104559171Y-98821782D01*
X104559171Y-98821782D02*
X104511552Y-98726544D01*
X104511552Y-98726544D02*
X104511552Y-98631306D01*
X105178219Y-98155115D02*
X105130600Y-98250353D01*
X105130600Y-98250353D02*
X105082980Y-98297972D01*
X105082980Y-98297972D02*
X104987742Y-98345591D01*
X104987742Y-98345591D02*
X104702028Y-98345591D01*
X104702028Y-98345591D02*
X104606790Y-98297972D01*
X104606790Y-98297972D02*
X104559171Y-98250353D01*
X104559171Y-98250353D02*
X104511552Y-98155115D01*
X104511552Y-98155115D02*
X104511552Y-98012258D01*
X104511552Y-98012258D02*
X104559171Y-97917020D01*
X104559171Y-97917020D02*
X104606790Y-97869401D01*
X104606790Y-97869401D02*
X104702028Y-97821782D01*
X104702028Y-97821782D02*
X104987742Y-97821782D01*
X104987742Y-97821782D02*
X105082980Y-97869401D01*
X105082980Y-97869401D02*
X105130600Y-97917020D01*
X105130600Y-97917020D02*
X105178219Y-98012258D01*
X105178219Y-98012258D02*
X105178219Y-98155115D01*
X104511552Y-96964639D02*
X105321076Y-96964639D01*
X105321076Y-96964639D02*
X105416314Y-97012258D01*
X105416314Y-97012258D02*
X105463933Y-97059877D01*
X105463933Y-97059877D02*
X105511552Y-97155115D01*
X105511552Y-97155115D02*
X105511552Y-97297972D01*
X105511552Y-97297972D02*
X105463933Y-97393210D01*
X105130600Y-96964639D02*
X105178219Y-97059877D01*
X105178219Y-97059877D02*
X105178219Y-97250353D01*
X105178219Y-97250353D02*
X105130600Y-97345591D01*
X105130600Y-97345591D02*
X105082980Y-97393210D01*
X105082980Y-97393210D02*
X104987742Y-97440829D01*
X104987742Y-97440829D02*
X104702028Y-97440829D01*
X104702028Y-97440829D02*
X104606790Y-97393210D01*
X104606790Y-97393210D02*
X104559171Y-97345591D01*
X104559171Y-97345591D02*
X104511552Y-97250353D01*
X104511552Y-97250353D02*
X104511552Y-97059877D01*
X104511552Y-97059877D02*
X104559171Y-96964639D01*
X104511552Y-96059877D02*
X105178219Y-96059877D01*
X104511552Y-96488448D02*
X105035361Y-96488448D01*
X105035361Y-96488448D02*
X105130600Y-96440829D01*
X105130600Y-96440829D02*
X105178219Y-96345591D01*
X105178219Y-96345591D02*
X105178219Y-96202734D01*
X105178219Y-96202734D02*
X105130600Y-96107496D01*
X105130600Y-96107496D02*
X105082980Y-96059877D01*
X105130600Y-95202734D02*
X105178219Y-95297972D01*
X105178219Y-95297972D02*
X105178219Y-95488448D01*
X105178219Y-95488448D02*
X105130600Y-95583686D01*
X105130600Y-95583686D02*
X105035361Y-95631305D01*
X105035361Y-95631305D02*
X104654409Y-95631305D01*
X104654409Y-95631305D02*
X104559171Y-95583686D01*
X104559171Y-95583686D02*
X104511552Y-95488448D01*
X104511552Y-95488448D02*
X104511552Y-95297972D01*
X104511552Y-95297972D02*
X104559171Y-95202734D01*
X104559171Y-95202734D02*
X104654409Y-95155115D01*
X104654409Y-95155115D02*
X104749647Y-95155115D01*
X104749647Y-95155115D02*
X104844885Y-95631305D01*
X109534569Y-114130895D02*
X110067903Y-114130895D01*
X110067903Y-114130895D02*
X109725045Y-114930895D01*
X110372665Y-114854704D02*
X110410760Y-114892800D01*
X110410760Y-114892800D02*
X110372665Y-114930895D01*
X110372665Y-114930895D02*
X110334569Y-114892800D01*
X110334569Y-114892800D02*
X110372665Y-114854704D01*
X110372665Y-114854704D02*
X110372665Y-114930895D01*
X111096474Y-114397561D02*
X111096474Y-114930895D01*
X110905998Y-114092800D02*
X110715521Y-114664228D01*
X110715521Y-114664228D02*
X111210760Y-114664228D01*
X111401236Y-114130895D02*
X111667903Y-114930895D01*
X111667903Y-114930895D02*
X111934569Y-114130895D01*
X112810760Y-114930895D02*
X112810760Y-114130895D01*
X112810760Y-114130895D02*
X113115522Y-114130895D01*
X113115522Y-114130895D02*
X113191712Y-114168990D01*
X113191712Y-114168990D02*
X113229807Y-114207085D01*
X113229807Y-114207085D02*
X113267903Y-114283276D01*
X113267903Y-114283276D02*
X113267903Y-114397561D01*
X113267903Y-114397561D02*
X113229807Y-114473752D01*
X113229807Y-114473752D02*
X113191712Y-114511847D01*
X113191712Y-114511847D02*
X113115522Y-114549942D01*
X113115522Y-114549942D02*
X112810760Y-114549942D01*
X113534569Y-114397561D02*
X113725045Y-114930895D01*
X113915522Y-114397561D02*
X113725045Y-114930895D01*
X113725045Y-114930895D02*
X113648855Y-115121371D01*
X113648855Y-115121371D02*
X113610760Y-115159466D01*
X113610760Y-115159466D02*
X113534569Y-115197561D01*
X114220284Y-114930895D02*
X114220284Y-114397561D01*
X114220284Y-114549942D02*
X114258379Y-114473752D01*
X114258379Y-114473752D02*
X114296474Y-114435657D01*
X114296474Y-114435657D02*
X114372665Y-114397561D01*
X114372665Y-114397561D02*
X114448855Y-114397561D01*
X114829807Y-114930895D02*
X114753617Y-114892800D01*
X114753617Y-114892800D02*
X114715522Y-114854704D01*
X114715522Y-114854704D02*
X114677426Y-114778514D01*
X114677426Y-114778514D02*
X114677426Y-114549942D01*
X114677426Y-114549942D02*
X114715522Y-114473752D01*
X114715522Y-114473752D02*
X114753617Y-114435657D01*
X114753617Y-114435657D02*
X114829807Y-114397561D01*
X114829807Y-114397561D02*
X114944093Y-114397561D01*
X114944093Y-114397561D02*
X115020284Y-114435657D01*
X115020284Y-114435657D02*
X115058379Y-114473752D01*
X115058379Y-114473752D02*
X115096474Y-114549942D01*
X115096474Y-114549942D02*
X115096474Y-114778514D01*
X115096474Y-114778514D02*
X115058379Y-114854704D01*
X115058379Y-114854704D02*
X115020284Y-114892800D01*
X115020284Y-114892800D02*
X114944093Y-114930895D01*
X114944093Y-114930895D02*
X114829807Y-114930895D01*
X147672607Y-114575390D02*
X147596417Y-114537295D01*
X147596417Y-114537295D02*
X147482131Y-114537295D01*
X147482131Y-114537295D02*
X147367845Y-114575390D01*
X147367845Y-114575390D02*
X147291655Y-114651580D01*
X147291655Y-114651580D02*
X147253560Y-114727771D01*
X147253560Y-114727771D02*
X147215464Y-114880152D01*
X147215464Y-114880152D02*
X147215464Y-114994438D01*
X147215464Y-114994438D02*
X147253560Y-115146819D01*
X147253560Y-115146819D02*
X147291655Y-115223009D01*
X147291655Y-115223009D02*
X147367845Y-115299200D01*
X147367845Y-115299200D02*
X147482131Y-115337295D01*
X147482131Y-115337295D02*
X147558322Y-115337295D01*
X147558322Y-115337295D02*
X147672607Y-115299200D01*
X147672607Y-115299200D02*
X147710703Y-115261104D01*
X147710703Y-115261104D02*
X147710703Y-114994438D01*
X147710703Y-114994438D02*
X147558322Y-114994438D01*
X148053560Y-115337295D02*
X148053560Y-114537295D01*
X148053560Y-114537295D02*
X148510703Y-115337295D01*
X148510703Y-115337295D02*
X148510703Y-114537295D01*
X148891655Y-115337295D02*
X148891655Y-114537295D01*
X148891655Y-114537295D02*
X149082131Y-114537295D01*
X149082131Y-114537295D02*
X149196417Y-114575390D01*
X149196417Y-114575390D02*
X149272607Y-114651580D01*
X149272607Y-114651580D02*
X149310702Y-114727771D01*
X149310702Y-114727771D02*
X149348798Y-114880152D01*
X149348798Y-114880152D02*
X149348798Y-114994438D01*
X149348798Y-114994438D02*
X149310702Y-115146819D01*
X149310702Y-115146819D02*
X149272607Y-115223009D01*
X149272607Y-115223009D02*
X149196417Y-115299200D01*
X149196417Y-115299200D02*
X149082131Y-115337295D01*
X149082131Y-115337295D02*
X148891655Y-115337295D01*
X142478312Y-115286495D02*
X142097360Y-115286495D01*
X142097360Y-115286495D02*
X142097360Y-114486495D01*
X142859264Y-115286495D02*
X142783074Y-115248400D01*
X142783074Y-115248400D02*
X142744979Y-115210304D01*
X142744979Y-115210304D02*
X142706883Y-115134114D01*
X142706883Y-115134114D02*
X142706883Y-114905542D01*
X142706883Y-114905542D02*
X142744979Y-114829352D01*
X142744979Y-114829352D02*
X142783074Y-114791257D01*
X142783074Y-114791257D02*
X142859264Y-114753161D01*
X142859264Y-114753161D02*
X142973550Y-114753161D01*
X142973550Y-114753161D02*
X143049741Y-114791257D01*
X143049741Y-114791257D02*
X143087836Y-114829352D01*
X143087836Y-114829352D02*
X143125931Y-114905542D01*
X143125931Y-114905542D02*
X143125931Y-115134114D01*
X143125931Y-115134114D02*
X143087836Y-115210304D01*
X143087836Y-115210304D02*
X143049741Y-115248400D01*
X143049741Y-115248400D02*
X142973550Y-115286495D01*
X142973550Y-115286495D02*
X142859264Y-115286495D01*
X143811646Y-115286495D02*
X143811646Y-114867447D01*
X143811646Y-114867447D02*
X143773551Y-114791257D01*
X143773551Y-114791257D02*
X143697360Y-114753161D01*
X143697360Y-114753161D02*
X143544979Y-114753161D01*
X143544979Y-114753161D02*
X143468789Y-114791257D01*
X143811646Y-115248400D02*
X143735455Y-115286495D01*
X143735455Y-115286495D02*
X143544979Y-115286495D01*
X143544979Y-115286495D02*
X143468789Y-115248400D01*
X143468789Y-115248400D02*
X143430693Y-115172209D01*
X143430693Y-115172209D02*
X143430693Y-115096019D01*
X143430693Y-115096019D02*
X143468789Y-115019828D01*
X143468789Y-115019828D02*
X143544979Y-114981733D01*
X143544979Y-114981733D02*
X143735455Y-114981733D01*
X143735455Y-114981733D02*
X143811646Y-114943638D01*
X144535456Y-115286495D02*
X144535456Y-114486495D01*
X144535456Y-115248400D02*
X144459265Y-115286495D01*
X144459265Y-115286495D02*
X144306884Y-115286495D01*
X144306884Y-115286495D02*
X144230694Y-115248400D01*
X144230694Y-115248400D02*
X144192599Y-115210304D01*
X144192599Y-115210304D02*
X144154503Y-115134114D01*
X144154503Y-115134114D02*
X144154503Y-114905542D01*
X144154503Y-114905542D02*
X144192599Y-114829352D01*
X144192599Y-114829352D02*
X144230694Y-114791257D01*
X144230694Y-114791257D02*
X144306884Y-114753161D01*
X144306884Y-114753161D02*
X144459265Y-114753161D01*
X144459265Y-114753161D02*
X144535456Y-114791257D01*
X155070180Y-96272579D02*
X156070180Y-96272579D01*
X156070180Y-96272579D02*
X155355895Y-96605912D01*
X155355895Y-96605912D02*
X156070180Y-96939245D01*
X156070180Y-96939245D02*
X155070180Y-96939245D01*
X155070180Y-97844007D02*
X155593990Y-97844007D01*
X155593990Y-97844007D02*
X155689228Y-97796388D01*
X155689228Y-97796388D02*
X155736847Y-97701150D01*
X155736847Y-97701150D02*
X155736847Y-97510674D01*
X155736847Y-97510674D02*
X155689228Y-97415436D01*
X155117800Y-97844007D02*
X155070180Y-97748769D01*
X155070180Y-97748769D02*
X155070180Y-97510674D01*
X155070180Y-97510674D02*
X155117800Y-97415436D01*
X155117800Y-97415436D02*
X155213038Y-97367817D01*
X155213038Y-97367817D02*
X155308276Y-97367817D01*
X155308276Y-97367817D02*
X155403514Y-97415436D01*
X155403514Y-97415436D02*
X155451133Y-97510674D01*
X155451133Y-97510674D02*
X155451133Y-97748769D01*
X155451133Y-97748769D02*
X155498752Y-97844007D01*
X155070180Y-98320198D02*
X155736847Y-98320198D01*
X156070180Y-98320198D02*
X156022561Y-98272579D01*
X156022561Y-98272579D02*
X155974942Y-98320198D01*
X155974942Y-98320198D02*
X156022561Y-98367817D01*
X156022561Y-98367817D02*
X156070180Y-98320198D01*
X156070180Y-98320198D02*
X155974942Y-98320198D01*
X155736847Y-98796388D02*
X155070180Y-98796388D01*
X155641609Y-98796388D02*
X155689228Y-98844007D01*
X155689228Y-98844007D02*
X155736847Y-98939245D01*
X155736847Y-98939245D02*
X155736847Y-99082102D01*
X155736847Y-99082102D02*
X155689228Y-99177340D01*
X155689228Y-99177340D02*
X155593990Y-99224959D01*
X155593990Y-99224959D02*
X155070180Y-99224959D01*
X121942407Y-114219790D02*
X121866217Y-114181695D01*
X121866217Y-114181695D02*
X121751931Y-114181695D01*
X121751931Y-114181695D02*
X121637645Y-114219790D01*
X121637645Y-114219790D02*
X121561455Y-114295980D01*
X121561455Y-114295980D02*
X121523360Y-114372171D01*
X121523360Y-114372171D02*
X121485264Y-114524552D01*
X121485264Y-114524552D02*
X121485264Y-114638838D01*
X121485264Y-114638838D02*
X121523360Y-114791219D01*
X121523360Y-114791219D02*
X121561455Y-114867409D01*
X121561455Y-114867409D02*
X121637645Y-114943600D01*
X121637645Y-114943600D02*
X121751931Y-114981695D01*
X121751931Y-114981695D02*
X121828122Y-114981695D01*
X121828122Y-114981695D02*
X121942407Y-114943600D01*
X121942407Y-114943600D02*
X121980503Y-114905504D01*
X121980503Y-114905504D02*
X121980503Y-114638838D01*
X121980503Y-114638838D02*
X121828122Y-114638838D01*
X122323360Y-114981695D02*
X122323360Y-114181695D01*
X122323360Y-114181695D02*
X122780503Y-114981695D01*
X122780503Y-114981695D02*
X122780503Y-114181695D01*
X123161455Y-114981695D02*
X123161455Y-114181695D01*
X123161455Y-114181695D02*
X123351931Y-114181695D01*
X123351931Y-114181695D02*
X123466217Y-114219790D01*
X123466217Y-114219790D02*
X123542407Y-114295980D01*
X123542407Y-114295980D02*
X123580502Y-114372171D01*
X123580502Y-114372171D02*
X123618598Y-114524552D01*
X123618598Y-114524552D02*
X123618598Y-114638838D01*
X123618598Y-114638838D02*
X123580502Y-114791219D01*
X123580502Y-114791219D02*
X123542407Y-114867409D01*
X123542407Y-114867409D02*
X123466217Y-114943600D01*
X123466217Y-114943600D02*
X123351931Y-114981695D01*
X123351931Y-114981695D02*
X123161455Y-114981695D01*
X116748112Y-114930895D02*
X116367160Y-114930895D01*
X116367160Y-114930895D02*
X116367160Y-114130895D01*
X117129064Y-114930895D02*
X117052874Y-114892800D01*
X117052874Y-114892800D02*
X117014779Y-114854704D01*
X117014779Y-114854704D02*
X116976683Y-114778514D01*
X116976683Y-114778514D02*
X116976683Y-114549942D01*
X116976683Y-114549942D02*
X117014779Y-114473752D01*
X117014779Y-114473752D02*
X117052874Y-114435657D01*
X117052874Y-114435657D02*
X117129064Y-114397561D01*
X117129064Y-114397561D02*
X117243350Y-114397561D01*
X117243350Y-114397561D02*
X117319541Y-114435657D01*
X117319541Y-114435657D02*
X117357636Y-114473752D01*
X117357636Y-114473752D02*
X117395731Y-114549942D01*
X117395731Y-114549942D02*
X117395731Y-114778514D01*
X117395731Y-114778514D02*
X117357636Y-114854704D01*
X117357636Y-114854704D02*
X117319541Y-114892800D01*
X117319541Y-114892800D02*
X117243350Y-114930895D01*
X117243350Y-114930895D02*
X117129064Y-114930895D01*
X118081446Y-114930895D02*
X118081446Y-114511847D01*
X118081446Y-114511847D02*
X118043351Y-114435657D01*
X118043351Y-114435657D02*
X117967160Y-114397561D01*
X117967160Y-114397561D02*
X117814779Y-114397561D01*
X117814779Y-114397561D02*
X117738589Y-114435657D01*
X118081446Y-114892800D02*
X118005255Y-114930895D01*
X118005255Y-114930895D02*
X117814779Y-114930895D01*
X117814779Y-114930895D02*
X117738589Y-114892800D01*
X117738589Y-114892800D02*
X117700493Y-114816609D01*
X117700493Y-114816609D02*
X117700493Y-114740419D01*
X117700493Y-114740419D02*
X117738589Y-114664228D01*
X117738589Y-114664228D02*
X117814779Y-114626133D01*
X117814779Y-114626133D02*
X118005255Y-114626133D01*
X118005255Y-114626133D02*
X118081446Y-114588038D01*
X118805256Y-114930895D02*
X118805256Y-114130895D01*
X118805256Y-114892800D02*
X118729065Y-114930895D01*
X118729065Y-114930895D02*
X118576684Y-114930895D01*
X118576684Y-114930895D02*
X118500494Y-114892800D01*
X118500494Y-114892800D02*
X118462399Y-114854704D01*
X118462399Y-114854704D02*
X118424303Y-114778514D01*
X118424303Y-114778514D02*
X118424303Y-114549942D01*
X118424303Y-114549942D02*
X118462399Y-114473752D01*
X118462399Y-114473752D02*
X118500494Y-114435657D01*
X118500494Y-114435657D02*
X118576684Y-114397561D01*
X118576684Y-114397561D02*
X118729065Y-114397561D01*
X118729065Y-114397561D02*
X118805256Y-114435657D01*
X143891095Y-62802419D02*
X143891095Y-63611942D01*
X143891095Y-63611942D02*
X143938714Y-63707180D01*
X143938714Y-63707180D02*
X143986333Y-63754800D01*
X143986333Y-63754800D02*
X144081571Y-63802419D01*
X144081571Y-63802419D02*
X144272047Y-63802419D01*
X144272047Y-63802419D02*
X144367285Y-63754800D01*
X144367285Y-63754800D02*
X144414904Y-63707180D01*
X144414904Y-63707180D02*
X144462523Y-63611942D01*
X144462523Y-63611942D02*
X144462523Y-62802419D01*
X144843476Y-62802419D02*
X145462523Y-62802419D01*
X145462523Y-62802419D02*
X145129190Y-63183371D01*
X145129190Y-63183371D02*
X145272047Y-63183371D01*
X145272047Y-63183371D02*
X145367285Y-63230990D01*
X145367285Y-63230990D02*
X145414904Y-63278609D01*
X145414904Y-63278609D02*
X145462523Y-63373847D01*
X145462523Y-63373847D02*
X145462523Y-63611942D01*
X145462523Y-63611942D02*
X145414904Y-63707180D01*
X145414904Y-63707180D02*
X145367285Y-63754800D01*
X145367285Y-63754800D02*
X145272047Y-63802419D01*
X145272047Y-63802419D02*
X144986333Y-63802419D01*
X144986333Y-63802419D02*
X144891095Y-63754800D01*
X144891095Y-63754800D02*
X144843476Y-63707180D01*
X117162466Y-104659819D02*
X117162466Y-105374104D01*
X117162466Y-105374104D02*
X117114847Y-105516961D01*
X117114847Y-105516961D02*
X117019609Y-105612200D01*
X117019609Y-105612200D02*
X116876752Y-105659819D01*
X116876752Y-105659819D02*
X116781514Y-105659819D01*
X118162466Y-105659819D02*
X117591038Y-105659819D01*
X117876752Y-105659819D02*
X117876752Y-104659819D01*
X117876752Y-104659819D02*
X117781514Y-104802676D01*
X117781514Y-104802676D02*
X117686276Y-104897914D01*
X117686276Y-104897914D02*
X117591038Y-104945533D01*
D11*
X127849084Y-50805219D02*
X127849084Y-49805219D01*
X127849084Y-49805219D02*
X128230036Y-49805219D01*
X128230036Y-49805219D02*
X128325274Y-49852838D01*
X128325274Y-49852838D02*
X128372893Y-49900457D01*
X128372893Y-49900457D02*
X128420512Y-49995695D01*
X128420512Y-49995695D02*
X128420512Y-50138552D01*
X128420512Y-50138552D02*
X128372893Y-50233790D01*
X128372893Y-50233790D02*
X128325274Y-50281409D01*
X128325274Y-50281409D02*
X128230036Y-50329028D01*
X128230036Y-50329028D02*
X127849084Y-50329028D01*
X129039560Y-49805219D02*
X129230036Y-49805219D01*
X129230036Y-49805219D02*
X129325274Y-49852838D01*
X129325274Y-49852838D02*
X129420512Y-49948076D01*
X129420512Y-49948076D02*
X129468131Y-50138552D01*
X129468131Y-50138552D02*
X129468131Y-50471885D01*
X129468131Y-50471885D02*
X129420512Y-50662361D01*
X129420512Y-50662361D02*
X129325274Y-50757600D01*
X129325274Y-50757600D02*
X129230036Y-50805219D01*
X129230036Y-50805219D02*
X129039560Y-50805219D01*
X129039560Y-50805219D02*
X128944322Y-50757600D01*
X128944322Y-50757600D02*
X128849084Y-50662361D01*
X128849084Y-50662361D02*
X128801465Y-50471885D01*
X128801465Y-50471885D02*
X128801465Y-50138552D01*
X128801465Y-50138552D02*
X128849084Y-49948076D01*
X128849084Y-49948076D02*
X128944322Y-49852838D01*
X128944322Y-49852838D02*
X129039560Y-49805219D01*
X129801465Y-49805219D02*
X130039560Y-50805219D01*
X130039560Y-50805219D02*
X130230036Y-50090933D01*
X130230036Y-50090933D02*
X130420512Y-50805219D01*
X130420512Y-50805219D02*
X130658608Y-49805219D01*
X131039560Y-50281409D02*
X131372893Y-50281409D01*
X131515750Y-50805219D02*
X131039560Y-50805219D01*
X131039560Y-50805219D02*
X131039560Y-49805219D01*
X131039560Y-49805219D02*
X131515750Y-49805219D01*
X132515750Y-50805219D02*
X132182417Y-50329028D01*
X131944322Y-50805219D02*
X131944322Y-49805219D01*
X131944322Y-49805219D02*
X132325274Y-49805219D01*
X132325274Y-49805219D02*
X132420512Y-49852838D01*
X132420512Y-49852838D02*
X132468131Y-49900457D01*
X132468131Y-49900457D02*
X132515750Y-49995695D01*
X132515750Y-49995695D02*
X132515750Y-50138552D01*
X132515750Y-50138552D02*
X132468131Y-50233790D01*
X132468131Y-50233790D02*
X132420512Y-50281409D01*
X132420512Y-50281409D02*
X132325274Y-50329028D01*
X132325274Y-50329028D02*
X131944322Y-50329028D01*
X98037619Y-83908915D02*
X97037619Y-83908915D01*
X97037619Y-83908915D02*
X97037619Y-83670820D01*
X97037619Y-83670820D02*
X97085238Y-83527963D01*
X97085238Y-83527963D02*
X97180476Y-83432725D01*
X97180476Y-83432725D02*
X97275714Y-83385106D01*
X97275714Y-83385106D02*
X97466190Y-83337487D01*
X97466190Y-83337487D02*
X97609047Y-83337487D01*
X97609047Y-83337487D02*
X97799523Y-83385106D01*
X97799523Y-83385106D02*
X97894761Y-83432725D01*
X97894761Y-83432725D02*
X97990000Y-83527963D01*
X97990000Y-83527963D02*
X98037619Y-83670820D01*
X98037619Y-83670820D02*
X98037619Y-83908915D01*
X97751904Y-82956534D02*
X97751904Y-82480344D01*
X98037619Y-83051772D02*
X97037619Y-82718439D01*
X97037619Y-82718439D02*
X98037619Y-82385106D01*
X97037619Y-82194629D02*
X97037619Y-81623201D01*
X98037619Y-81908915D02*
X97037619Y-81908915D01*
X97751904Y-81337486D02*
X97751904Y-80861296D01*
X98037619Y-81432724D02*
X97037619Y-81099391D01*
X97037619Y-81099391D02*
X98037619Y-80766058D01*
X162392780Y-80866684D02*
X163392780Y-80866684D01*
X163392780Y-80866684D02*
X163392780Y-81104779D01*
X163392780Y-81104779D02*
X163345161Y-81247636D01*
X163345161Y-81247636D02*
X163249923Y-81342874D01*
X163249923Y-81342874D02*
X163154685Y-81390493D01*
X163154685Y-81390493D02*
X162964209Y-81438112D01*
X162964209Y-81438112D02*
X162821352Y-81438112D01*
X162821352Y-81438112D02*
X162630876Y-81390493D01*
X162630876Y-81390493D02*
X162535638Y-81342874D01*
X162535638Y-81342874D02*
X162440400Y-81247636D01*
X162440400Y-81247636D02*
X162392780Y-81104779D01*
X162392780Y-81104779D02*
X162392780Y-80866684D01*
X162678495Y-81819065D02*
X162678495Y-82295255D01*
X162392780Y-81723827D02*
X163392780Y-82057160D01*
X163392780Y-82057160D02*
X162392780Y-82390493D01*
X163392780Y-82580970D02*
X163392780Y-83152398D01*
X162392780Y-82866684D02*
X163392780Y-82866684D01*
X162678495Y-83438113D02*
X162678495Y-83914303D01*
X162392780Y-83342875D02*
X163392780Y-83676208D01*
X163392780Y-83676208D02*
X162392780Y-84009541D01*
D10*
X142511666Y-105040819D02*
X142511666Y-105755104D01*
X142511666Y-105755104D02*
X142464047Y-105897961D01*
X142464047Y-105897961D02*
X142368809Y-105993200D01*
X142368809Y-105993200D02*
X142225952Y-106040819D01*
X142225952Y-106040819D02*
X142130714Y-106040819D01*
X142940238Y-105136057D02*
X142987857Y-105088438D01*
X142987857Y-105088438D02*
X143083095Y-105040819D01*
X143083095Y-105040819D02*
X143321190Y-105040819D01*
X143321190Y-105040819D02*
X143416428Y-105088438D01*
X143416428Y-105088438D02*
X143464047Y-105136057D01*
X143464047Y-105136057D02*
X143511666Y-105231295D01*
X143511666Y-105231295D02*
X143511666Y-105326533D01*
X143511666Y-105326533D02*
X143464047Y-105469390D01*
X143464047Y-105469390D02*
X142892619Y-106040819D01*
X142892619Y-106040819D02*
X143511666Y-106040819D01*
X118795895Y-62726219D02*
X118795895Y-63535742D01*
X118795895Y-63535742D02*
X118843514Y-63630980D01*
X118843514Y-63630980D02*
X118891133Y-63678600D01*
X118891133Y-63678600D02*
X118986371Y-63726219D01*
X118986371Y-63726219D02*
X119176847Y-63726219D01*
X119176847Y-63726219D02*
X119272085Y-63678600D01*
X119272085Y-63678600D02*
X119319704Y-63630980D01*
X119319704Y-63630980D02*
X119367323Y-63535742D01*
X119367323Y-63535742D02*
X119367323Y-62726219D01*
X119795895Y-62821457D02*
X119843514Y-62773838D01*
X119843514Y-62773838D02*
X119938752Y-62726219D01*
X119938752Y-62726219D02*
X120176847Y-62726219D01*
X120176847Y-62726219D02*
X120272085Y-62773838D01*
X120272085Y-62773838D02*
X120319704Y-62821457D01*
X120319704Y-62821457D02*
X120367323Y-62916695D01*
X120367323Y-62916695D02*
X120367323Y-63011933D01*
X120367323Y-63011933D02*
X120319704Y-63154790D01*
X120319704Y-63154790D02*
X119748276Y-63726219D01*
X119748276Y-63726219D02*
X120367323Y-63726219D01*
D12*
%TO.C,U3*%
X151135600Y-64157600D02*
X135135600Y-64157600D01*
X135135600Y-64157600D02*
X135135600Y-99157600D01*
X135135600Y-99157600D02*
X151135600Y-99157600D01*
X151135600Y-99157600D02*
X151135600Y-64157600D01*
%TO.C,J1*%
X109905800Y-106045000D02*
X125145800Y-106045000D01*
X109905800Y-112395000D02*
X125145800Y-112395000D01*
X109905800Y-113665000D02*
X109905800Y-106045000D01*
X109905800Y-113665000D02*
X125145800Y-113665000D01*
X125145800Y-113665000D02*
X125145800Y-106045000D01*
%TO.C,U1*%
X100565200Y-63217800D02*
X101895200Y-63217800D01*
X100565200Y-64547800D02*
X100565200Y-63217800D01*
X100565200Y-65817800D02*
X100565200Y-101437800D01*
X100565200Y-65817800D02*
X103225200Y-65817800D01*
X100565200Y-101437800D02*
X103225200Y-101437800D01*
X103225200Y-65817800D02*
X103225200Y-101437800D01*
X110990200Y-55492800D02*
X110990200Y-54162800D01*
X112320200Y-55492800D02*
X110990200Y-55492800D01*
X113590200Y-52832800D02*
X149210200Y-52832800D01*
X113590200Y-55492800D02*
X113590200Y-52832800D01*
X113590200Y-55492800D02*
X149210200Y-55492800D01*
X149210200Y-55492800D02*
X149210200Y-52832800D01*
X156965200Y-63247800D02*
X158295200Y-63247800D01*
X156965200Y-64577800D02*
X156965200Y-63247800D01*
X156965200Y-65847800D02*
X156965200Y-101467800D01*
X156965200Y-65847800D02*
X159625200Y-65847800D01*
X156965200Y-101467800D02*
X159625200Y-101467800D01*
X159625200Y-65847800D02*
X159625200Y-101467800D01*
%TO.C,J2*%
X135255000Y-106426000D02*
X150495000Y-106426000D01*
X135255000Y-112776000D02*
X150495000Y-112776000D01*
X135255000Y-114046000D02*
X135255000Y-106426000D01*
X135255000Y-114046000D02*
X150495000Y-114046000D01*
X150495000Y-114046000D02*
X150495000Y-106426000D01*
%TO.C,U2*%
X125481600Y-64157600D02*
X109481600Y-64157600D01*
X109481600Y-64157600D02*
X109481600Y-99157600D01*
X109481600Y-99157600D02*
X125481600Y-99157600D01*
X125481600Y-99157600D02*
X125481600Y-64157600D01*
%TD*%
M02*
