%TF.GenerationSoftware,KiCad,Pcbnew,7.0.7*%
%TF.CreationDate,2024-04-01T01:32:36+05:30*%
%TF.ProjectId,GPIO_stack,4750494f-5f73-4746-9163-6b2e6b696361,rev?*%
%TF.SameCoordinates,Original*%
%TF.FileFunction,Drillmap*%
%TF.FilePolarity,Positive*%
%FSLAX45Y45*%
G04 Gerber Fmt 4.5, Leading zero omitted, Abs format (unit mm)*
G04 Created by KiCad (PCBNEW 7.0.7) date 2024-04-01 01:32:36*
%MOMM*%
%LPD*%
G01*
G04 APERTURE LIST*
%ADD10C,0.200000*%
%ADD11C,0.076200*%
%ADD12C,0.100000*%
%ADD13C,0.152000*%
%ADD14C,0.840000*%
G04 APERTURE END LIST*
D10*
D11*
X11110060Y-9677660D02*
X11186260Y-9753860D01*
X11186260Y-9677660D02*
X11110060Y-9753860D01*
X11510060Y-6677660D02*
X11586260Y-6753860D01*
X11586260Y-6677660D02*
X11510060Y-6753860D01*
X11710060Y-9677660D02*
X11786260Y-9753860D01*
X11786260Y-9677660D02*
X11710060Y-9753860D01*
X11910060Y-6677660D02*
X11986260Y-6753860D01*
X11986260Y-6677660D02*
X11910060Y-6753860D01*
X12310060Y-9677660D02*
X12386260Y-9753860D01*
X12386260Y-9677660D02*
X12310060Y-9753860D01*
X13675460Y-9677660D02*
X13751660Y-9753860D01*
X13751660Y-9677660D02*
X13675460Y-9753860D01*
X14075460Y-6677660D02*
X14151660Y-6753860D01*
X14151660Y-6677660D02*
X14075460Y-6753860D01*
X14275460Y-9677660D02*
X14351660Y-9753860D01*
X14351660Y-9677660D02*
X14275460Y-9753860D01*
X14475460Y-6677660D02*
X14551660Y-6753860D01*
X14551660Y-6677660D02*
X14475460Y-6753860D01*
X14875460Y-9677660D02*
X14951660Y-9753860D01*
X14951660Y-9677660D02*
X14875460Y-9753860D01*
D12*
X10239520Y-6454780D02*
G75*
G03*
X10239520Y-6454780I-50000J0D01*
G01*
X10239520Y-6708780D02*
G75*
G03*
X10239520Y-6708780I-50000J0D01*
G01*
X10239520Y-6962780D02*
G75*
G03*
X10239520Y-6962780I-50000J0D01*
G01*
X10239520Y-7216780D02*
G75*
G03*
X10239520Y-7216780I-50000J0D01*
G01*
X10239520Y-7470780D02*
G75*
G03*
X10239520Y-7470780I-50000J0D01*
G01*
X10239520Y-7724780D02*
G75*
G03*
X10239520Y-7724780I-50000J0D01*
G01*
X10239520Y-7978780D02*
G75*
G03*
X10239520Y-7978780I-50000J0D01*
G01*
X10239520Y-8232780D02*
G75*
G03*
X10239520Y-8232780I-50000J0D01*
G01*
X10239520Y-8486780D02*
G75*
G03*
X10239520Y-8486780I-50000J0D01*
G01*
X10239520Y-8740780D02*
G75*
G03*
X10239520Y-8740780I-50000J0D01*
G01*
X10239520Y-8994780D02*
G75*
G03*
X10239520Y-8994780I-50000J0D01*
G01*
X10239520Y-9248780D02*
G75*
G03*
X10239520Y-9248780I-50000J0D01*
G01*
X10239520Y-9502780D02*
G75*
G03*
X10239520Y-9502780I-50000J0D01*
G01*
X10239520Y-9756780D02*
G75*
G03*
X10239520Y-9756780I-50000J0D01*
G01*
X10239520Y-10010780D02*
G75*
G03*
X10239520Y-10010780I-50000J0D01*
G01*
X11282020Y-5416280D02*
G75*
G03*
X11282020Y-5416280I-50000J0D01*
G01*
X11536020Y-5416280D02*
G75*
G03*
X11536020Y-5416280I-50000J0D01*
G01*
X11790020Y-5416280D02*
G75*
G03*
X11790020Y-5416280I-50000J0D01*
G01*
X12044020Y-5416280D02*
G75*
G03*
X12044020Y-5416280I-50000J0D01*
G01*
X12298020Y-5416280D02*
G75*
G03*
X12298020Y-5416280I-50000J0D01*
G01*
X12552020Y-5416280D02*
G75*
G03*
X12552020Y-5416280I-50000J0D01*
G01*
X12806020Y-5416280D02*
G75*
G03*
X12806020Y-5416280I-50000J0D01*
G01*
X13060020Y-5416280D02*
G75*
G03*
X13060020Y-5416280I-50000J0D01*
G01*
X13314020Y-5416280D02*
G75*
G03*
X13314020Y-5416280I-50000J0D01*
G01*
X13568020Y-5416280D02*
G75*
G03*
X13568020Y-5416280I-50000J0D01*
G01*
X13822020Y-5416280D02*
G75*
G03*
X13822020Y-5416280I-50000J0D01*
G01*
X14076020Y-5416280D02*
G75*
G03*
X14076020Y-5416280I-50000J0D01*
G01*
X14330020Y-5416280D02*
G75*
G03*
X14330020Y-5416280I-50000J0D01*
G01*
X14584020Y-5416280D02*
G75*
G03*
X14584020Y-5416280I-50000J0D01*
G01*
X14838020Y-5416280D02*
G75*
G03*
X14838020Y-5416280I-50000J0D01*
G01*
X15879520Y-6457780D02*
G75*
G03*
X15879520Y-6457780I-50000J0D01*
G01*
X15879520Y-6711780D02*
G75*
G03*
X15879520Y-6711780I-50000J0D01*
G01*
X15879520Y-6965780D02*
G75*
G03*
X15879520Y-6965780I-50000J0D01*
G01*
X15879520Y-7219780D02*
G75*
G03*
X15879520Y-7219780I-50000J0D01*
G01*
X15879520Y-7473780D02*
G75*
G03*
X15879520Y-7473780I-50000J0D01*
G01*
X15879520Y-7727780D02*
G75*
G03*
X15879520Y-7727780I-50000J0D01*
G01*
X15879520Y-7981780D02*
G75*
G03*
X15879520Y-7981780I-50000J0D01*
G01*
X15879520Y-8235780D02*
G75*
G03*
X15879520Y-8235780I-50000J0D01*
G01*
X15879520Y-8489780D02*
G75*
G03*
X15879520Y-8489780I-50000J0D01*
G01*
X15879520Y-8743780D02*
G75*
G03*
X15879520Y-8743780I-50000J0D01*
G01*
X15879520Y-8997780D02*
G75*
G03*
X15879520Y-8997780I-50000J0D01*
G01*
X15879520Y-9251780D02*
G75*
G03*
X15879520Y-9251780I-50000J0D01*
G01*
X15879520Y-9505780D02*
G75*
G03*
X15879520Y-9505780I-50000J0D01*
G01*
X15879520Y-9759780D02*
G75*
G03*
X15879520Y-9759780I-50000J0D01*
G01*
X15879520Y-10013780D02*
G75*
G03*
X15879520Y-10013780I-50000J0D01*
G01*
D13*
X11244580Y-10909500D02*
X11244580Y-11061500D01*
X11168580Y-10985500D02*
X11320580Y-10985500D01*
X11752580Y-10909500D02*
X11752580Y-11061500D01*
X11676580Y-10985500D02*
X11828580Y-10985500D01*
X12260580Y-10909500D02*
X12260580Y-11061500D01*
X12184580Y-10985500D02*
X12336580Y-10985500D01*
X13779500Y-10947600D02*
X13779500Y-11099600D01*
X13703500Y-11023600D02*
X13855500Y-11023600D01*
X14287500Y-10947600D02*
X14287500Y-11099600D01*
X14211500Y-11023600D02*
X14363500Y-11023600D01*
X14795500Y-10947600D02*
X14795500Y-11099600D01*
X14719500Y-11023600D02*
X14871500Y-11023600D01*
D10*
X11218871Y-6686471D02*
X11218871Y-6545049D01*
X11077449Y-6545049D01*
X11077449Y-6686471D01*
X11218871Y-6686471D01*
X12418871Y-6686471D02*
X12418871Y-6545049D01*
X12277449Y-6545049D01*
X12277449Y-6686471D01*
X12418871Y-6686471D01*
X13784271Y-6686471D02*
X13784271Y-6545049D01*
X13642849Y-6545049D01*
X13642849Y-6686471D01*
X13784271Y-6686471D01*
X14984271Y-6686471D02*
X14984271Y-6545049D01*
X14842849Y-6545049D01*
X14842849Y-6686471D01*
X14984271Y-6686471D01*
D14*
X10229520Y-5866280D02*
X10649520Y-5446280D01*
X10229520Y-5026280D01*
X9809520Y-5446280D01*
X10229520Y-5866280D01*
X10229520Y-11436280D02*
X10649520Y-11016280D01*
X10229520Y-10596280D01*
X9809520Y-11016280D01*
X10229520Y-11436280D01*
X15789520Y-5867780D02*
X16209520Y-5447780D01*
X15789520Y-5027780D01*
X15369520Y-5447780D01*
X15789520Y-5867780D01*
X15789520Y-11436280D02*
X16209520Y-11016280D01*
X15789520Y-10596280D01*
X15369520Y-11016280D01*
X15789520Y-11436280D01*
D10*
X9767797Y-12050264D02*
X9767797Y-11850264D01*
X9767797Y-11850264D02*
X9815416Y-11850264D01*
X9815416Y-11850264D02*
X9843987Y-11859788D01*
X9843987Y-11859788D02*
X9863035Y-11878835D01*
X9863035Y-11878835D02*
X9872559Y-11897883D01*
X9872559Y-11897883D02*
X9882083Y-11935978D01*
X9882083Y-11935978D02*
X9882083Y-11964549D01*
X9882083Y-11964549D02*
X9872559Y-12002645D01*
X9872559Y-12002645D02*
X9863035Y-12021692D01*
X9863035Y-12021692D02*
X9843987Y-12040740D01*
X9843987Y-12040740D02*
X9815416Y-12050264D01*
X9815416Y-12050264D02*
X9767797Y-12050264D01*
X9967797Y-12050264D02*
X9967797Y-11916930D01*
X9967797Y-11955026D02*
X9977321Y-11935978D01*
X9977321Y-11935978D02*
X9986844Y-11926454D01*
X9986844Y-11926454D02*
X10005892Y-11916930D01*
X10005892Y-11916930D02*
X10024940Y-11916930D01*
X10091606Y-12050264D02*
X10091606Y-11916930D01*
X10091606Y-11850264D02*
X10082083Y-11859788D01*
X10082083Y-11859788D02*
X10091606Y-11869311D01*
X10091606Y-11869311D02*
X10101130Y-11859788D01*
X10101130Y-11859788D02*
X10091606Y-11850264D01*
X10091606Y-11850264D02*
X10091606Y-11869311D01*
X10215416Y-12050264D02*
X10196368Y-12040740D01*
X10196368Y-12040740D02*
X10186844Y-12021692D01*
X10186844Y-12021692D02*
X10186844Y-11850264D01*
X10320178Y-12050264D02*
X10301130Y-12040740D01*
X10301130Y-12040740D02*
X10291606Y-12021692D01*
X10291606Y-12021692D02*
X10291606Y-11850264D01*
X10548749Y-12050264D02*
X10548749Y-11850264D01*
X10548749Y-11850264D02*
X10615416Y-11993121D01*
X10615416Y-11993121D02*
X10682083Y-11850264D01*
X10682083Y-11850264D02*
X10682083Y-12050264D01*
X10863035Y-12050264D02*
X10863035Y-11945502D01*
X10863035Y-11945502D02*
X10853511Y-11926454D01*
X10853511Y-11926454D02*
X10834464Y-11916930D01*
X10834464Y-11916930D02*
X10796368Y-11916930D01*
X10796368Y-11916930D02*
X10777321Y-11926454D01*
X10863035Y-12040740D02*
X10843987Y-12050264D01*
X10843987Y-12050264D02*
X10796368Y-12050264D01*
X10796368Y-12050264D02*
X10777321Y-12040740D01*
X10777321Y-12040740D02*
X10767797Y-12021692D01*
X10767797Y-12021692D02*
X10767797Y-12002645D01*
X10767797Y-12002645D02*
X10777321Y-11983597D01*
X10777321Y-11983597D02*
X10796368Y-11974073D01*
X10796368Y-11974073D02*
X10843987Y-11974073D01*
X10843987Y-11974073D02*
X10863035Y-11964549D01*
X10958273Y-11916930D02*
X10958273Y-12116930D01*
X10958273Y-11926454D02*
X10977321Y-11916930D01*
X10977321Y-11916930D02*
X11015416Y-11916930D01*
X11015416Y-11916930D02*
X11034464Y-11926454D01*
X11034464Y-11926454D02*
X11043987Y-11935978D01*
X11043987Y-11935978D02*
X11053511Y-11955026D01*
X11053511Y-11955026D02*
X11053511Y-12012168D01*
X11053511Y-12012168D02*
X11043987Y-12031216D01*
X11043987Y-12031216D02*
X11034464Y-12040740D01*
X11034464Y-12040740D02*
X11015416Y-12050264D01*
X11015416Y-12050264D02*
X10977321Y-12050264D01*
X10977321Y-12050264D02*
X10958273Y-12040740D01*
X11139225Y-12031216D02*
X11148749Y-12040740D01*
X11148749Y-12040740D02*
X11139225Y-12050264D01*
X11139225Y-12050264D02*
X11129702Y-12040740D01*
X11129702Y-12040740D02*
X11139225Y-12031216D01*
X11139225Y-12031216D02*
X11139225Y-12050264D01*
X11139225Y-11926454D02*
X11148749Y-11935978D01*
X11148749Y-11935978D02*
X11139225Y-11945502D01*
X11139225Y-11945502D02*
X11129702Y-11935978D01*
X11129702Y-11935978D02*
X11139225Y-11926454D01*
X11139225Y-11926454D02*
X11139225Y-11945502D01*
D11*
X9430820Y-12340680D02*
X9507020Y-12416880D01*
X9507020Y-12340680D02*
X9430820Y-12416880D01*
D10*
X9805892Y-12270264D02*
X9824940Y-12270264D01*
X9824940Y-12270264D02*
X9843987Y-12279788D01*
X9843987Y-12279788D02*
X9853511Y-12289311D01*
X9853511Y-12289311D02*
X9863035Y-12308359D01*
X9863035Y-12308359D02*
X9872559Y-12346454D01*
X9872559Y-12346454D02*
X9872559Y-12394073D01*
X9872559Y-12394073D02*
X9863035Y-12432168D01*
X9863035Y-12432168D02*
X9853511Y-12451216D01*
X9853511Y-12451216D02*
X9843987Y-12460740D01*
X9843987Y-12460740D02*
X9824940Y-12470264D01*
X9824940Y-12470264D02*
X9805892Y-12470264D01*
X9805892Y-12470264D02*
X9786844Y-12460740D01*
X9786844Y-12460740D02*
X9777321Y-12451216D01*
X9777321Y-12451216D02*
X9767797Y-12432168D01*
X9767797Y-12432168D02*
X9758273Y-12394073D01*
X9758273Y-12394073D02*
X9758273Y-12346454D01*
X9758273Y-12346454D02*
X9767797Y-12308359D01*
X9767797Y-12308359D02*
X9777321Y-12289311D01*
X9777321Y-12289311D02*
X9786844Y-12279788D01*
X9786844Y-12279788D02*
X9805892Y-12270264D01*
X9958273Y-12451216D02*
X9967797Y-12460740D01*
X9967797Y-12460740D02*
X9958273Y-12470264D01*
X9958273Y-12470264D02*
X9948749Y-12460740D01*
X9948749Y-12460740D02*
X9958273Y-12451216D01*
X9958273Y-12451216D02*
X9958273Y-12470264D01*
X10034464Y-12270264D02*
X10167797Y-12270264D01*
X10167797Y-12270264D02*
X10082083Y-12470264D01*
X10329702Y-12270264D02*
X10291606Y-12270264D01*
X10291606Y-12270264D02*
X10272559Y-12279788D01*
X10272559Y-12279788D02*
X10263035Y-12289311D01*
X10263035Y-12289311D02*
X10243987Y-12317883D01*
X10243987Y-12317883D02*
X10234464Y-12355978D01*
X10234464Y-12355978D02*
X10234464Y-12432168D01*
X10234464Y-12432168D02*
X10243987Y-12451216D01*
X10243987Y-12451216D02*
X10253511Y-12460740D01*
X10253511Y-12460740D02*
X10272559Y-12470264D01*
X10272559Y-12470264D02*
X10310654Y-12470264D01*
X10310654Y-12470264D02*
X10329702Y-12460740D01*
X10329702Y-12460740D02*
X10339225Y-12451216D01*
X10339225Y-12451216D02*
X10348749Y-12432168D01*
X10348749Y-12432168D02*
X10348749Y-12384549D01*
X10348749Y-12384549D02*
X10339225Y-12365502D01*
X10339225Y-12365502D02*
X10329702Y-12355978D01*
X10329702Y-12355978D02*
X10310654Y-12346454D01*
X10310654Y-12346454D02*
X10272559Y-12346454D01*
X10272559Y-12346454D02*
X10253511Y-12355978D01*
X10253511Y-12355978D02*
X10243987Y-12365502D01*
X10243987Y-12365502D02*
X10234464Y-12384549D01*
X10424940Y-12289311D02*
X10434464Y-12279788D01*
X10434464Y-12279788D02*
X10453511Y-12270264D01*
X10453511Y-12270264D02*
X10501130Y-12270264D01*
X10501130Y-12270264D02*
X10520178Y-12279788D01*
X10520178Y-12279788D02*
X10529702Y-12289311D01*
X10529702Y-12289311D02*
X10539225Y-12308359D01*
X10539225Y-12308359D02*
X10539225Y-12327407D01*
X10539225Y-12327407D02*
X10529702Y-12355978D01*
X10529702Y-12355978D02*
X10415416Y-12470264D01*
X10415416Y-12470264D02*
X10539225Y-12470264D01*
X10624940Y-12470264D02*
X10624940Y-12336930D01*
X10624940Y-12355978D02*
X10634464Y-12346454D01*
X10634464Y-12346454D02*
X10653511Y-12336930D01*
X10653511Y-12336930D02*
X10682083Y-12336930D01*
X10682083Y-12336930D02*
X10701130Y-12346454D01*
X10701130Y-12346454D02*
X10710654Y-12365502D01*
X10710654Y-12365502D02*
X10710654Y-12470264D01*
X10710654Y-12365502D02*
X10720178Y-12346454D01*
X10720178Y-12346454D02*
X10739225Y-12336930D01*
X10739225Y-12336930D02*
X10767797Y-12336930D01*
X10767797Y-12336930D02*
X10786845Y-12346454D01*
X10786845Y-12346454D02*
X10796368Y-12365502D01*
X10796368Y-12365502D02*
X10796368Y-12470264D01*
X10891606Y-12470264D02*
X10891606Y-12336930D01*
X10891606Y-12355978D02*
X10901130Y-12346454D01*
X10901130Y-12346454D02*
X10920178Y-12336930D01*
X10920178Y-12336930D02*
X10948749Y-12336930D01*
X10948749Y-12336930D02*
X10967797Y-12346454D01*
X10967797Y-12346454D02*
X10977321Y-12365502D01*
X10977321Y-12365502D02*
X10977321Y-12470264D01*
X10977321Y-12365502D02*
X10986845Y-12346454D01*
X10986845Y-12346454D02*
X11005892Y-12336930D01*
X11005892Y-12336930D02*
X11034464Y-12336930D01*
X11034464Y-12336930D02*
X11053511Y-12346454D01*
X11053511Y-12346454D02*
X11063035Y-12365502D01*
X11063035Y-12365502D02*
X11063035Y-12470264D01*
X11453511Y-12260740D02*
X11282083Y-12517883D01*
X11710654Y-12270264D02*
X11729702Y-12270264D01*
X11729702Y-12270264D02*
X11748749Y-12279788D01*
X11748749Y-12279788D02*
X11758273Y-12289311D01*
X11758273Y-12289311D02*
X11767797Y-12308359D01*
X11767797Y-12308359D02*
X11777321Y-12346454D01*
X11777321Y-12346454D02*
X11777321Y-12394073D01*
X11777321Y-12394073D02*
X11767797Y-12432168D01*
X11767797Y-12432168D02*
X11758273Y-12451216D01*
X11758273Y-12451216D02*
X11748749Y-12460740D01*
X11748749Y-12460740D02*
X11729702Y-12470264D01*
X11729702Y-12470264D02*
X11710654Y-12470264D01*
X11710654Y-12470264D02*
X11691606Y-12460740D01*
X11691606Y-12460740D02*
X11682083Y-12451216D01*
X11682083Y-12451216D02*
X11672559Y-12432168D01*
X11672559Y-12432168D02*
X11663035Y-12394073D01*
X11663035Y-12394073D02*
X11663035Y-12346454D01*
X11663035Y-12346454D02*
X11672559Y-12308359D01*
X11672559Y-12308359D02*
X11682083Y-12289311D01*
X11682083Y-12289311D02*
X11691606Y-12279788D01*
X11691606Y-12279788D02*
X11710654Y-12270264D01*
X11863035Y-12451216D02*
X11872559Y-12460740D01*
X11872559Y-12460740D02*
X11863035Y-12470264D01*
X11863035Y-12470264D02*
X11853511Y-12460740D01*
X11853511Y-12460740D02*
X11863035Y-12451216D01*
X11863035Y-12451216D02*
X11863035Y-12470264D01*
X11996368Y-12270264D02*
X12015416Y-12270264D01*
X12015416Y-12270264D02*
X12034464Y-12279788D01*
X12034464Y-12279788D02*
X12043987Y-12289311D01*
X12043987Y-12289311D02*
X12053511Y-12308359D01*
X12053511Y-12308359D02*
X12063035Y-12346454D01*
X12063035Y-12346454D02*
X12063035Y-12394073D01*
X12063035Y-12394073D02*
X12053511Y-12432168D01*
X12053511Y-12432168D02*
X12043987Y-12451216D01*
X12043987Y-12451216D02*
X12034464Y-12460740D01*
X12034464Y-12460740D02*
X12015416Y-12470264D01*
X12015416Y-12470264D02*
X11996368Y-12470264D01*
X11996368Y-12470264D02*
X11977321Y-12460740D01*
X11977321Y-12460740D02*
X11967797Y-12451216D01*
X11967797Y-12451216D02*
X11958273Y-12432168D01*
X11958273Y-12432168D02*
X11948749Y-12394073D01*
X11948749Y-12394073D02*
X11948749Y-12346454D01*
X11948749Y-12346454D02*
X11958273Y-12308359D01*
X11958273Y-12308359D02*
X11967797Y-12289311D01*
X11967797Y-12289311D02*
X11977321Y-12279788D01*
X11977321Y-12279788D02*
X11996368Y-12270264D01*
X12129702Y-12270264D02*
X12253511Y-12270264D01*
X12253511Y-12270264D02*
X12186845Y-12346454D01*
X12186845Y-12346454D02*
X12215416Y-12346454D01*
X12215416Y-12346454D02*
X12234464Y-12355978D01*
X12234464Y-12355978D02*
X12243987Y-12365502D01*
X12243987Y-12365502D02*
X12253511Y-12384549D01*
X12253511Y-12384549D02*
X12253511Y-12432168D01*
X12253511Y-12432168D02*
X12243987Y-12451216D01*
X12243987Y-12451216D02*
X12234464Y-12460740D01*
X12234464Y-12460740D02*
X12215416Y-12470264D01*
X12215416Y-12470264D02*
X12158273Y-12470264D01*
X12158273Y-12470264D02*
X12139226Y-12460740D01*
X12139226Y-12460740D02*
X12129702Y-12451216D01*
X12377321Y-12270264D02*
X12396368Y-12270264D01*
X12396368Y-12270264D02*
X12415416Y-12279788D01*
X12415416Y-12279788D02*
X12424940Y-12289311D01*
X12424940Y-12289311D02*
X12434464Y-12308359D01*
X12434464Y-12308359D02*
X12443987Y-12346454D01*
X12443987Y-12346454D02*
X12443987Y-12394073D01*
X12443987Y-12394073D02*
X12434464Y-12432168D01*
X12434464Y-12432168D02*
X12424940Y-12451216D01*
X12424940Y-12451216D02*
X12415416Y-12460740D01*
X12415416Y-12460740D02*
X12396368Y-12470264D01*
X12396368Y-12470264D02*
X12377321Y-12470264D01*
X12377321Y-12470264D02*
X12358273Y-12460740D01*
X12358273Y-12460740D02*
X12348749Y-12451216D01*
X12348749Y-12451216D02*
X12339226Y-12432168D01*
X12339226Y-12432168D02*
X12329702Y-12394073D01*
X12329702Y-12394073D02*
X12329702Y-12346454D01*
X12329702Y-12346454D02*
X12339226Y-12308359D01*
X12339226Y-12308359D02*
X12348749Y-12289311D01*
X12348749Y-12289311D02*
X12358273Y-12279788D01*
X12358273Y-12279788D02*
X12377321Y-12270264D01*
X12567797Y-12270264D02*
X12586845Y-12270264D01*
X12586845Y-12270264D02*
X12605892Y-12279788D01*
X12605892Y-12279788D02*
X12615416Y-12289311D01*
X12615416Y-12289311D02*
X12624940Y-12308359D01*
X12624940Y-12308359D02*
X12634464Y-12346454D01*
X12634464Y-12346454D02*
X12634464Y-12394073D01*
X12634464Y-12394073D02*
X12624940Y-12432168D01*
X12624940Y-12432168D02*
X12615416Y-12451216D01*
X12615416Y-12451216D02*
X12605892Y-12460740D01*
X12605892Y-12460740D02*
X12586845Y-12470264D01*
X12586845Y-12470264D02*
X12567797Y-12470264D01*
X12567797Y-12470264D02*
X12548749Y-12460740D01*
X12548749Y-12460740D02*
X12539226Y-12451216D01*
X12539226Y-12451216D02*
X12529702Y-12432168D01*
X12529702Y-12432168D02*
X12520178Y-12394073D01*
X12520178Y-12394073D02*
X12520178Y-12346454D01*
X12520178Y-12346454D02*
X12529702Y-12308359D01*
X12529702Y-12308359D02*
X12539226Y-12289311D01*
X12539226Y-12289311D02*
X12548749Y-12279788D01*
X12548749Y-12279788D02*
X12567797Y-12270264D01*
X12710654Y-12270264D02*
X12710654Y-12308359D01*
X12786845Y-12270264D02*
X12786845Y-12308359D01*
X13082083Y-12546454D02*
X13072559Y-12536930D01*
X13072559Y-12536930D02*
X13053511Y-12508359D01*
X13053511Y-12508359D02*
X13043988Y-12489311D01*
X13043988Y-12489311D02*
X13034464Y-12460740D01*
X13034464Y-12460740D02*
X13024940Y-12413121D01*
X13024940Y-12413121D02*
X13024940Y-12375026D01*
X13024940Y-12375026D02*
X13034464Y-12327407D01*
X13034464Y-12327407D02*
X13043988Y-12298835D01*
X13043988Y-12298835D02*
X13053511Y-12279788D01*
X13053511Y-12279788D02*
X13072559Y-12251216D01*
X13072559Y-12251216D02*
X13082083Y-12241692D01*
X13263035Y-12470264D02*
X13148749Y-12470264D01*
X13205892Y-12470264D02*
X13205892Y-12270264D01*
X13205892Y-12270264D02*
X13186845Y-12298835D01*
X13186845Y-12298835D02*
X13167797Y-12317883D01*
X13167797Y-12317883D02*
X13148749Y-12327407D01*
X13386845Y-12270264D02*
X13405892Y-12270264D01*
X13405892Y-12270264D02*
X13424940Y-12279788D01*
X13424940Y-12279788D02*
X13434464Y-12289311D01*
X13434464Y-12289311D02*
X13443988Y-12308359D01*
X13443988Y-12308359D02*
X13453511Y-12346454D01*
X13453511Y-12346454D02*
X13453511Y-12394073D01*
X13453511Y-12394073D02*
X13443988Y-12432168D01*
X13443988Y-12432168D02*
X13434464Y-12451216D01*
X13434464Y-12451216D02*
X13424940Y-12460740D01*
X13424940Y-12460740D02*
X13405892Y-12470264D01*
X13405892Y-12470264D02*
X13386845Y-12470264D01*
X13386845Y-12470264D02*
X13367797Y-12460740D01*
X13367797Y-12460740D02*
X13358273Y-12451216D01*
X13358273Y-12451216D02*
X13348749Y-12432168D01*
X13348749Y-12432168D02*
X13339226Y-12394073D01*
X13339226Y-12394073D02*
X13339226Y-12346454D01*
X13339226Y-12346454D02*
X13348749Y-12308359D01*
X13348749Y-12308359D02*
X13358273Y-12289311D01*
X13358273Y-12289311D02*
X13367797Y-12279788D01*
X13367797Y-12279788D02*
X13386845Y-12270264D01*
X13691607Y-12470264D02*
X13691607Y-12270264D01*
X13777321Y-12470264D02*
X13777321Y-12365502D01*
X13777321Y-12365502D02*
X13767797Y-12346454D01*
X13767797Y-12346454D02*
X13748750Y-12336930D01*
X13748750Y-12336930D02*
X13720178Y-12336930D01*
X13720178Y-12336930D02*
X13701130Y-12346454D01*
X13701130Y-12346454D02*
X13691607Y-12355978D01*
X13901130Y-12470264D02*
X13882083Y-12460740D01*
X13882083Y-12460740D02*
X13872559Y-12451216D01*
X13872559Y-12451216D02*
X13863035Y-12432168D01*
X13863035Y-12432168D02*
X13863035Y-12375026D01*
X13863035Y-12375026D02*
X13872559Y-12355978D01*
X13872559Y-12355978D02*
X13882083Y-12346454D01*
X13882083Y-12346454D02*
X13901130Y-12336930D01*
X13901130Y-12336930D02*
X13929702Y-12336930D01*
X13929702Y-12336930D02*
X13948750Y-12346454D01*
X13948750Y-12346454D02*
X13958273Y-12355978D01*
X13958273Y-12355978D02*
X13967797Y-12375026D01*
X13967797Y-12375026D02*
X13967797Y-12432168D01*
X13967797Y-12432168D02*
X13958273Y-12451216D01*
X13958273Y-12451216D02*
X13948750Y-12460740D01*
X13948750Y-12460740D02*
X13929702Y-12470264D01*
X13929702Y-12470264D02*
X13901130Y-12470264D01*
X14082083Y-12470264D02*
X14063035Y-12460740D01*
X14063035Y-12460740D02*
X14053511Y-12441692D01*
X14053511Y-12441692D02*
X14053511Y-12270264D01*
X14234464Y-12460740D02*
X14215416Y-12470264D01*
X14215416Y-12470264D02*
X14177321Y-12470264D01*
X14177321Y-12470264D02*
X14158273Y-12460740D01*
X14158273Y-12460740D02*
X14148750Y-12441692D01*
X14148750Y-12441692D02*
X14148750Y-12365502D01*
X14148750Y-12365502D02*
X14158273Y-12346454D01*
X14158273Y-12346454D02*
X14177321Y-12336930D01*
X14177321Y-12336930D02*
X14215416Y-12336930D01*
X14215416Y-12336930D02*
X14234464Y-12346454D01*
X14234464Y-12346454D02*
X14243988Y-12365502D01*
X14243988Y-12365502D02*
X14243988Y-12384549D01*
X14243988Y-12384549D02*
X14148750Y-12403597D01*
X14320178Y-12460740D02*
X14339226Y-12470264D01*
X14339226Y-12470264D02*
X14377321Y-12470264D01*
X14377321Y-12470264D02*
X14396369Y-12460740D01*
X14396369Y-12460740D02*
X14405892Y-12441692D01*
X14405892Y-12441692D02*
X14405892Y-12432168D01*
X14405892Y-12432168D02*
X14396369Y-12413121D01*
X14396369Y-12413121D02*
X14377321Y-12403597D01*
X14377321Y-12403597D02*
X14348750Y-12403597D01*
X14348750Y-12403597D02*
X14329702Y-12394073D01*
X14329702Y-12394073D02*
X14320178Y-12375026D01*
X14320178Y-12375026D02*
X14320178Y-12365502D01*
X14320178Y-12365502D02*
X14329702Y-12346454D01*
X14329702Y-12346454D02*
X14348750Y-12336930D01*
X14348750Y-12336930D02*
X14377321Y-12336930D01*
X14377321Y-12336930D02*
X14396369Y-12346454D01*
X14472559Y-12546454D02*
X14482083Y-12536930D01*
X14482083Y-12536930D02*
X14501131Y-12508359D01*
X14501131Y-12508359D02*
X14510654Y-12489311D01*
X14510654Y-12489311D02*
X14520178Y-12460740D01*
X14520178Y-12460740D02*
X14529702Y-12413121D01*
X14529702Y-12413121D02*
X14529702Y-12375026D01*
X14529702Y-12375026D02*
X14520178Y-12327407D01*
X14520178Y-12327407D02*
X14510654Y-12298835D01*
X14510654Y-12298835D02*
X14501131Y-12279788D01*
X14501131Y-12279788D02*
X14482083Y-12251216D01*
X14482083Y-12251216D02*
X14472559Y-12241692D01*
D12*
X9507020Y-12642780D02*
G75*
G03*
X9507020Y-12642780I-50000J0D01*
G01*
D10*
X9872559Y-12734264D02*
X9758273Y-12734264D01*
X9815416Y-12734264D02*
X9815416Y-12534264D01*
X9815416Y-12534264D02*
X9796368Y-12562835D01*
X9796368Y-12562835D02*
X9777321Y-12581883D01*
X9777321Y-12581883D02*
X9758273Y-12591407D01*
X9958273Y-12715216D02*
X9967797Y-12724740D01*
X9967797Y-12724740D02*
X9958273Y-12734264D01*
X9958273Y-12734264D02*
X9948749Y-12724740D01*
X9948749Y-12724740D02*
X9958273Y-12715216D01*
X9958273Y-12715216D02*
X9958273Y-12734264D01*
X10091606Y-12534264D02*
X10110654Y-12534264D01*
X10110654Y-12534264D02*
X10129702Y-12543788D01*
X10129702Y-12543788D02*
X10139225Y-12553311D01*
X10139225Y-12553311D02*
X10148749Y-12572359D01*
X10148749Y-12572359D02*
X10158273Y-12610454D01*
X10158273Y-12610454D02*
X10158273Y-12658073D01*
X10158273Y-12658073D02*
X10148749Y-12696168D01*
X10148749Y-12696168D02*
X10139225Y-12715216D01*
X10139225Y-12715216D02*
X10129702Y-12724740D01*
X10129702Y-12724740D02*
X10110654Y-12734264D01*
X10110654Y-12734264D02*
X10091606Y-12734264D01*
X10091606Y-12734264D02*
X10072559Y-12724740D01*
X10072559Y-12724740D02*
X10063035Y-12715216D01*
X10063035Y-12715216D02*
X10053511Y-12696168D01*
X10053511Y-12696168D02*
X10043987Y-12658073D01*
X10043987Y-12658073D02*
X10043987Y-12610454D01*
X10043987Y-12610454D02*
X10053511Y-12572359D01*
X10053511Y-12572359D02*
X10063035Y-12553311D01*
X10063035Y-12553311D02*
X10072559Y-12543788D01*
X10072559Y-12543788D02*
X10091606Y-12534264D01*
X10282083Y-12534264D02*
X10301130Y-12534264D01*
X10301130Y-12534264D02*
X10320178Y-12543788D01*
X10320178Y-12543788D02*
X10329702Y-12553311D01*
X10329702Y-12553311D02*
X10339225Y-12572359D01*
X10339225Y-12572359D02*
X10348749Y-12610454D01*
X10348749Y-12610454D02*
X10348749Y-12658073D01*
X10348749Y-12658073D02*
X10339225Y-12696168D01*
X10339225Y-12696168D02*
X10329702Y-12715216D01*
X10329702Y-12715216D02*
X10320178Y-12724740D01*
X10320178Y-12724740D02*
X10301130Y-12734264D01*
X10301130Y-12734264D02*
X10282083Y-12734264D01*
X10282083Y-12734264D02*
X10263035Y-12724740D01*
X10263035Y-12724740D02*
X10253511Y-12715216D01*
X10253511Y-12715216D02*
X10243987Y-12696168D01*
X10243987Y-12696168D02*
X10234464Y-12658073D01*
X10234464Y-12658073D02*
X10234464Y-12610454D01*
X10234464Y-12610454D02*
X10243987Y-12572359D01*
X10243987Y-12572359D02*
X10253511Y-12553311D01*
X10253511Y-12553311D02*
X10263035Y-12543788D01*
X10263035Y-12543788D02*
X10282083Y-12534264D01*
X10472559Y-12534264D02*
X10491606Y-12534264D01*
X10491606Y-12534264D02*
X10510654Y-12543788D01*
X10510654Y-12543788D02*
X10520178Y-12553311D01*
X10520178Y-12553311D02*
X10529702Y-12572359D01*
X10529702Y-12572359D02*
X10539225Y-12610454D01*
X10539225Y-12610454D02*
X10539225Y-12658073D01*
X10539225Y-12658073D02*
X10529702Y-12696168D01*
X10529702Y-12696168D02*
X10520178Y-12715216D01*
X10520178Y-12715216D02*
X10510654Y-12724740D01*
X10510654Y-12724740D02*
X10491606Y-12734264D01*
X10491606Y-12734264D02*
X10472559Y-12734264D01*
X10472559Y-12734264D02*
X10453511Y-12724740D01*
X10453511Y-12724740D02*
X10443987Y-12715216D01*
X10443987Y-12715216D02*
X10434464Y-12696168D01*
X10434464Y-12696168D02*
X10424940Y-12658073D01*
X10424940Y-12658073D02*
X10424940Y-12610454D01*
X10424940Y-12610454D02*
X10434464Y-12572359D01*
X10434464Y-12572359D02*
X10443987Y-12553311D01*
X10443987Y-12553311D02*
X10453511Y-12543788D01*
X10453511Y-12543788D02*
X10472559Y-12534264D01*
X10624940Y-12734264D02*
X10624940Y-12600930D01*
X10624940Y-12619978D02*
X10634464Y-12610454D01*
X10634464Y-12610454D02*
X10653511Y-12600930D01*
X10653511Y-12600930D02*
X10682083Y-12600930D01*
X10682083Y-12600930D02*
X10701130Y-12610454D01*
X10701130Y-12610454D02*
X10710654Y-12629502D01*
X10710654Y-12629502D02*
X10710654Y-12734264D01*
X10710654Y-12629502D02*
X10720178Y-12610454D01*
X10720178Y-12610454D02*
X10739225Y-12600930D01*
X10739225Y-12600930D02*
X10767797Y-12600930D01*
X10767797Y-12600930D02*
X10786845Y-12610454D01*
X10786845Y-12610454D02*
X10796368Y-12629502D01*
X10796368Y-12629502D02*
X10796368Y-12734264D01*
X10891606Y-12734264D02*
X10891606Y-12600930D01*
X10891606Y-12619978D02*
X10901130Y-12610454D01*
X10901130Y-12610454D02*
X10920178Y-12600930D01*
X10920178Y-12600930D02*
X10948749Y-12600930D01*
X10948749Y-12600930D02*
X10967797Y-12610454D01*
X10967797Y-12610454D02*
X10977321Y-12629502D01*
X10977321Y-12629502D02*
X10977321Y-12734264D01*
X10977321Y-12629502D02*
X10986845Y-12610454D01*
X10986845Y-12610454D02*
X11005892Y-12600930D01*
X11005892Y-12600930D02*
X11034464Y-12600930D01*
X11034464Y-12600930D02*
X11053511Y-12610454D01*
X11053511Y-12610454D02*
X11063035Y-12629502D01*
X11063035Y-12629502D02*
X11063035Y-12734264D01*
X11453511Y-12524740D02*
X11282083Y-12781883D01*
X11710654Y-12534264D02*
X11729702Y-12534264D01*
X11729702Y-12534264D02*
X11748749Y-12543788D01*
X11748749Y-12543788D02*
X11758273Y-12553311D01*
X11758273Y-12553311D02*
X11767797Y-12572359D01*
X11767797Y-12572359D02*
X11777321Y-12610454D01*
X11777321Y-12610454D02*
X11777321Y-12658073D01*
X11777321Y-12658073D02*
X11767797Y-12696168D01*
X11767797Y-12696168D02*
X11758273Y-12715216D01*
X11758273Y-12715216D02*
X11748749Y-12724740D01*
X11748749Y-12724740D02*
X11729702Y-12734264D01*
X11729702Y-12734264D02*
X11710654Y-12734264D01*
X11710654Y-12734264D02*
X11691606Y-12724740D01*
X11691606Y-12724740D02*
X11682083Y-12715216D01*
X11682083Y-12715216D02*
X11672559Y-12696168D01*
X11672559Y-12696168D02*
X11663035Y-12658073D01*
X11663035Y-12658073D02*
X11663035Y-12610454D01*
X11663035Y-12610454D02*
X11672559Y-12572359D01*
X11672559Y-12572359D02*
X11682083Y-12553311D01*
X11682083Y-12553311D02*
X11691606Y-12543788D01*
X11691606Y-12543788D02*
X11710654Y-12534264D01*
X11863035Y-12715216D02*
X11872559Y-12724740D01*
X11872559Y-12724740D02*
X11863035Y-12734264D01*
X11863035Y-12734264D02*
X11853511Y-12724740D01*
X11853511Y-12724740D02*
X11863035Y-12715216D01*
X11863035Y-12715216D02*
X11863035Y-12734264D01*
X11996368Y-12534264D02*
X12015416Y-12534264D01*
X12015416Y-12534264D02*
X12034464Y-12543788D01*
X12034464Y-12543788D02*
X12043987Y-12553311D01*
X12043987Y-12553311D02*
X12053511Y-12572359D01*
X12053511Y-12572359D02*
X12063035Y-12610454D01*
X12063035Y-12610454D02*
X12063035Y-12658073D01*
X12063035Y-12658073D02*
X12053511Y-12696168D01*
X12053511Y-12696168D02*
X12043987Y-12715216D01*
X12043987Y-12715216D02*
X12034464Y-12724740D01*
X12034464Y-12724740D02*
X12015416Y-12734264D01*
X12015416Y-12734264D02*
X11996368Y-12734264D01*
X11996368Y-12734264D02*
X11977321Y-12724740D01*
X11977321Y-12724740D02*
X11967797Y-12715216D01*
X11967797Y-12715216D02*
X11958273Y-12696168D01*
X11958273Y-12696168D02*
X11948749Y-12658073D01*
X11948749Y-12658073D02*
X11948749Y-12610454D01*
X11948749Y-12610454D02*
X11958273Y-12572359D01*
X11958273Y-12572359D02*
X11967797Y-12553311D01*
X11967797Y-12553311D02*
X11977321Y-12543788D01*
X11977321Y-12543788D02*
X11996368Y-12534264D01*
X12129702Y-12534264D02*
X12253511Y-12534264D01*
X12253511Y-12534264D02*
X12186845Y-12610454D01*
X12186845Y-12610454D02*
X12215416Y-12610454D01*
X12215416Y-12610454D02*
X12234464Y-12619978D01*
X12234464Y-12619978D02*
X12243987Y-12629502D01*
X12243987Y-12629502D02*
X12253511Y-12648549D01*
X12253511Y-12648549D02*
X12253511Y-12696168D01*
X12253511Y-12696168D02*
X12243987Y-12715216D01*
X12243987Y-12715216D02*
X12234464Y-12724740D01*
X12234464Y-12724740D02*
X12215416Y-12734264D01*
X12215416Y-12734264D02*
X12158273Y-12734264D01*
X12158273Y-12734264D02*
X12139226Y-12724740D01*
X12139226Y-12724740D02*
X12129702Y-12715216D01*
X12348749Y-12734264D02*
X12386845Y-12734264D01*
X12386845Y-12734264D02*
X12405892Y-12724740D01*
X12405892Y-12724740D02*
X12415416Y-12715216D01*
X12415416Y-12715216D02*
X12434464Y-12686645D01*
X12434464Y-12686645D02*
X12443987Y-12648549D01*
X12443987Y-12648549D02*
X12443987Y-12572359D01*
X12443987Y-12572359D02*
X12434464Y-12553311D01*
X12434464Y-12553311D02*
X12424940Y-12543788D01*
X12424940Y-12543788D02*
X12405892Y-12534264D01*
X12405892Y-12534264D02*
X12367797Y-12534264D01*
X12367797Y-12534264D02*
X12348749Y-12543788D01*
X12348749Y-12543788D02*
X12339226Y-12553311D01*
X12339226Y-12553311D02*
X12329702Y-12572359D01*
X12329702Y-12572359D02*
X12329702Y-12619978D01*
X12329702Y-12619978D02*
X12339226Y-12639026D01*
X12339226Y-12639026D02*
X12348749Y-12648549D01*
X12348749Y-12648549D02*
X12367797Y-12658073D01*
X12367797Y-12658073D02*
X12405892Y-12658073D01*
X12405892Y-12658073D02*
X12424940Y-12648549D01*
X12424940Y-12648549D02*
X12434464Y-12639026D01*
X12434464Y-12639026D02*
X12443987Y-12619978D01*
X12615416Y-12600930D02*
X12615416Y-12734264D01*
X12567797Y-12524740D02*
X12520178Y-12667597D01*
X12520178Y-12667597D02*
X12643987Y-12667597D01*
X12710654Y-12534264D02*
X12710654Y-12572359D01*
X12786845Y-12534264D02*
X12786845Y-12572359D01*
X13082083Y-12810454D02*
X13072559Y-12800930D01*
X13072559Y-12800930D02*
X13053511Y-12772359D01*
X13053511Y-12772359D02*
X13043988Y-12753311D01*
X13043988Y-12753311D02*
X13034464Y-12724740D01*
X13034464Y-12724740D02*
X13024940Y-12677121D01*
X13024940Y-12677121D02*
X13024940Y-12639026D01*
X13024940Y-12639026D02*
X13034464Y-12591407D01*
X13034464Y-12591407D02*
X13043988Y-12562835D01*
X13043988Y-12562835D02*
X13053511Y-12543788D01*
X13053511Y-12543788D02*
X13072559Y-12515216D01*
X13072559Y-12515216D02*
X13082083Y-12505692D01*
X13243988Y-12600930D02*
X13243988Y-12734264D01*
X13196368Y-12524740D02*
X13148749Y-12667597D01*
X13148749Y-12667597D02*
X13272559Y-12667597D01*
X13443988Y-12534264D02*
X13348749Y-12534264D01*
X13348749Y-12534264D02*
X13339226Y-12629502D01*
X13339226Y-12629502D02*
X13348749Y-12619978D01*
X13348749Y-12619978D02*
X13367797Y-12610454D01*
X13367797Y-12610454D02*
X13415416Y-12610454D01*
X13415416Y-12610454D02*
X13434464Y-12619978D01*
X13434464Y-12619978D02*
X13443988Y-12629502D01*
X13443988Y-12629502D02*
X13453511Y-12648549D01*
X13453511Y-12648549D02*
X13453511Y-12696168D01*
X13453511Y-12696168D02*
X13443988Y-12715216D01*
X13443988Y-12715216D02*
X13434464Y-12724740D01*
X13434464Y-12724740D02*
X13415416Y-12734264D01*
X13415416Y-12734264D02*
X13367797Y-12734264D01*
X13367797Y-12734264D02*
X13348749Y-12724740D01*
X13348749Y-12724740D02*
X13339226Y-12715216D01*
X13691607Y-12734264D02*
X13691607Y-12534264D01*
X13777321Y-12734264D02*
X13777321Y-12629502D01*
X13777321Y-12629502D02*
X13767797Y-12610454D01*
X13767797Y-12610454D02*
X13748750Y-12600930D01*
X13748750Y-12600930D02*
X13720178Y-12600930D01*
X13720178Y-12600930D02*
X13701130Y-12610454D01*
X13701130Y-12610454D02*
X13691607Y-12619978D01*
X13901130Y-12734264D02*
X13882083Y-12724740D01*
X13882083Y-12724740D02*
X13872559Y-12715216D01*
X13872559Y-12715216D02*
X13863035Y-12696168D01*
X13863035Y-12696168D02*
X13863035Y-12639026D01*
X13863035Y-12639026D02*
X13872559Y-12619978D01*
X13872559Y-12619978D02*
X13882083Y-12610454D01*
X13882083Y-12610454D02*
X13901130Y-12600930D01*
X13901130Y-12600930D02*
X13929702Y-12600930D01*
X13929702Y-12600930D02*
X13948750Y-12610454D01*
X13948750Y-12610454D02*
X13958273Y-12619978D01*
X13958273Y-12619978D02*
X13967797Y-12639026D01*
X13967797Y-12639026D02*
X13967797Y-12696168D01*
X13967797Y-12696168D02*
X13958273Y-12715216D01*
X13958273Y-12715216D02*
X13948750Y-12724740D01*
X13948750Y-12724740D02*
X13929702Y-12734264D01*
X13929702Y-12734264D02*
X13901130Y-12734264D01*
X14082083Y-12734264D02*
X14063035Y-12724740D01*
X14063035Y-12724740D02*
X14053511Y-12705692D01*
X14053511Y-12705692D02*
X14053511Y-12534264D01*
X14234464Y-12724740D02*
X14215416Y-12734264D01*
X14215416Y-12734264D02*
X14177321Y-12734264D01*
X14177321Y-12734264D02*
X14158273Y-12724740D01*
X14158273Y-12724740D02*
X14148750Y-12705692D01*
X14148750Y-12705692D02*
X14148750Y-12629502D01*
X14148750Y-12629502D02*
X14158273Y-12610454D01*
X14158273Y-12610454D02*
X14177321Y-12600930D01*
X14177321Y-12600930D02*
X14215416Y-12600930D01*
X14215416Y-12600930D02*
X14234464Y-12610454D01*
X14234464Y-12610454D02*
X14243988Y-12629502D01*
X14243988Y-12629502D02*
X14243988Y-12648549D01*
X14243988Y-12648549D02*
X14148750Y-12667597D01*
X14320178Y-12724740D02*
X14339226Y-12734264D01*
X14339226Y-12734264D02*
X14377321Y-12734264D01*
X14377321Y-12734264D02*
X14396369Y-12724740D01*
X14396369Y-12724740D02*
X14405892Y-12705692D01*
X14405892Y-12705692D02*
X14405892Y-12696168D01*
X14405892Y-12696168D02*
X14396369Y-12677121D01*
X14396369Y-12677121D02*
X14377321Y-12667597D01*
X14377321Y-12667597D02*
X14348750Y-12667597D01*
X14348750Y-12667597D02*
X14329702Y-12658073D01*
X14329702Y-12658073D02*
X14320178Y-12639026D01*
X14320178Y-12639026D02*
X14320178Y-12629502D01*
X14320178Y-12629502D02*
X14329702Y-12610454D01*
X14329702Y-12610454D02*
X14348750Y-12600930D01*
X14348750Y-12600930D02*
X14377321Y-12600930D01*
X14377321Y-12600930D02*
X14396369Y-12610454D01*
X14472559Y-12810454D02*
X14482083Y-12800930D01*
X14482083Y-12800930D02*
X14501131Y-12772359D01*
X14501131Y-12772359D02*
X14510654Y-12753311D01*
X14510654Y-12753311D02*
X14520178Y-12724740D01*
X14520178Y-12724740D02*
X14529702Y-12677121D01*
X14529702Y-12677121D02*
X14529702Y-12639026D01*
X14529702Y-12639026D02*
X14520178Y-12591407D01*
X14520178Y-12591407D02*
X14510654Y-12562835D01*
X14510654Y-12562835D02*
X14501131Y-12543788D01*
X14501131Y-12543788D02*
X14482083Y-12515216D01*
X14482083Y-12515216D02*
X14472559Y-12505692D01*
D13*
X9431020Y-12830780D02*
X9431020Y-12982780D01*
X9355020Y-12906780D02*
X9507020Y-12906780D01*
D10*
X9872559Y-12998264D02*
X9758273Y-12998264D01*
X9815416Y-12998264D02*
X9815416Y-12798264D01*
X9815416Y-12798264D02*
X9796368Y-12826835D01*
X9796368Y-12826835D02*
X9777321Y-12845883D01*
X9777321Y-12845883D02*
X9758273Y-12855407D01*
X9958273Y-12979216D02*
X9967797Y-12988740D01*
X9967797Y-12988740D02*
X9958273Y-12998264D01*
X9958273Y-12998264D02*
X9948749Y-12988740D01*
X9948749Y-12988740D02*
X9958273Y-12979216D01*
X9958273Y-12979216D02*
X9958273Y-12998264D01*
X10148749Y-12798264D02*
X10053511Y-12798264D01*
X10053511Y-12798264D02*
X10043987Y-12893502D01*
X10043987Y-12893502D02*
X10053511Y-12883978D01*
X10053511Y-12883978D02*
X10072559Y-12874454D01*
X10072559Y-12874454D02*
X10120178Y-12874454D01*
X10120178Y-12874454D02*
X10139225Y-12883978D01*
X10139225Y-12883978D02*
X10148749Y-12893502D01*
X10148749Y-12893502D02*
X10158273Y-12912549D01*
X10158273Y-12912549D02*
X10158273Y-12960168D01*
X10158273Y-12960168D02*
X10148749Y-12979216D01*
X10148749Y-12979216D02*
X10139225Y-12988740D01*
X10139225Y-12988740D02*
X10120178Y-12998264D01*
X10120178Y-12998264D02*
X10072559Y-12998264D01*
X10072559Y-12998264D02*
X10053511Y-12988740D01*
X10053511Y-12988740D02*
X10043987Y-12979216D01*
X10234464Y-12817311D02*
X10243987Y-12807788D01*
X10243987Y-12807788D02*
X10263035Y-12798264D01*
X10263035Y-12798264D02*
X10310654Y-12798264D01*
X10310654Y-12798264D02*
X10329702Y-12807788D01*
X10329702Y-12807788D02*
X10339225Y-12817311D01*
X10339225Y-12817311D02*
X10348749Y-12836359D01*
X10348749Y-12836359D02*
X10348749Y-12855407D01*
X10348749Y-12855407D02*
X10339225Y-12883978D01*
X10339225Y-12883978D02*
X10224940Y-12998264D01*
X10224940Y-12998264D02*
X10348749Y-12998264D01*
X10472559Y-12798264D02*
X10491606Y-12798264D01*
X10491606Y-12798264D02*
X10510654Y-12807788D01*
X10510654Y-12807788D02*
X10520178Y-12817311D01*
X10520178Y-12817311D02*
X10529702Y-12836359D01*
X10529702Y-12836359D02*
X10539225Y-12874454D01*
X10539225Y-12874454D02*
X10539225Y-12922073D01*
X10539225Y-12922073D02*
X10529702Y-12960168D01*
X10529702Y-12960168D02*
X10520178Y-12979216D01*
X10520178Y-12979216D02*
X10510654Y-12988740D01*
X10510654Y-12988740D02*
X10491606Y-12998264D01*
X10491606Y-12998264D02*
X10472559Y-12998264D01*
X10472559Y-12998264D02*
X10453511Y-12988740D01*
X10453511Y-12988740D02*
X10443987Y-12979216D01*
X10443987Y-12979216D02*
X10434464Y-12960168D01*
X10434464Y-12960168D02*
X10424940Y-12922073D01*
X10424940Y-12922073D02*
X10424940Y-12874454D01*
X10424940Y-12874454D02*
X10434464Y-12836359D01*
X10434464Y-12836359D02*
X10443987Y-12817311D01*
X10443987Y-12817311D02*
X10453511Y-12807788D01*
X10453511Y-12807788D02*
X10472559Y-12798264D01*
X10624940Y-12998264D02*
X10624940Y-12864930D01*
X10624940Y-12883978D02*
X10634464Y-12874454D01*
X10634464Y-12874454D02*
X10653511Y-12864930D01*
X10653511Y-12864930D02*
X10682083Y-12864930D01*
X10682083Y-12864930D02*
X10701130Y-12874454D01*
X10701130Y-12874454D02*
X10710654Y-12893502D01*
X10710654Y-12893502D02*
X10710654Y-12998264D01*
X10710654Y-12893502D02*
X10720178Y-12874454D01*
X10720178Y-12874454D02*
X10739225Y-12864930D01*
X10739225Y-12864930D02*
X10767797Y-12864930D01*
X10767797Y-12864930D02*
X10786845Y-12874454D01*
X10786845Y-12874454D02*
X10796368Y-12893502D01*
X10796368Y-12893502D02*
X10796368Y-12998264D01*
X10891606Y-12998264D02*
X10891606Y-12864930D01*
X10891606Y-12883978D02*
X10901130Y-12874454D01*
X10901130Y-12874454D02*
X10920178Y-12864930D01*
X10920178Y-12864930D02*
X10948749Y-12864930D01*
X10948749Y-12864930D02*
X10967797Y-12874454D01*
X10967797Y-12874454D02*
X10977321Y-12893502D01*
X10977321Y-12893502D02*
X10977321Y-12998264D01*
X10977321Y-12893502D02*
X10986845Y-12874454D01*
X10986845Y-12874454D02*
X11005892Y-12864930D01*
X11005892Y-12864930D02*
X11034464Y-12864930D01*
X11034464Y-12864930D02*
X11053511Y-12874454D01*
X11053511Y-12874454D02*
X11063035Y-12893502D01*
X11063035Y-12893502D02*
X11063035Y-12998264D01*
X11453511Y-12788740D02*
X11282083Y-13045883D01*
X11710654Y-12798264D02*
X11729702Y-12798264D01*
X11729702Y-12798264D02*
X11748749Y-12807788D01*
X11748749Y-12807788D02*
X11758273Y-12817311D01*
X11758273Y-12817311D02*
X11767797Y-12836359D01*
X11767797Y-12836359D02*
X11777321Y-12874454D01*
X11777321Y-12874454D02*
X11777321Y-12922073D01*
X11777321Y-12922073D02*
X11767797Y-12960168D01*
X11767797Y-12960168D02*
X11758273Y-12979216D01*
X11758273Y-12979216D02*
X11748749Y-12988740D01*
X11748749Y-12988740D02*
X11729702Y-12998264D01*
X11729702Y-12998264D02*
X11710654Y-12998264D01*
X11710654Y-12998264D02*
X11691606Y-12988740D01*
X11691606Y-12988740D02*
X11682083Y-12979216D01*
X11682083Y-12979216D02*
X11672559Y-12960168D01*
X11672559Y-12960168D02*
X11663035Y-12922073D01*
X11663035Y-12922073D02*
X11663035Y-12874454D01*
X11663035Y-12874454D02*
X11672559Y-12836359D01*
X11672559Y-12836359D02*
X11682083Y-12817311D01*
X11682083Y-12817311D02*
X11691606Y-12807788D01*
X11691606Y-12807788D02*
X11710654Y-12798264D01*
X11863035Y-12979216D02*
X11872559Y-12988740D01*
X11872559Y-12988740D02*
X11863035Y-12998264D01*
X11863035Y-12998264D02*
X11853511Y-12988740D01*
X11853511Y-12988740D02*
X11863035Y-12979216D01*
X11863035Y-12979216D02*
X11863035Y-12998264D01*
X11996368Y-12798264D02*
X12015416Y-12798264D01*
X12015416Y-12798264D02*
X12034464Y-12807788D01*
X12034464Y-12807788D02*
X12043987Y-12817311D01*
X12043987Y-12817311D02*
X12053511Y-12836359D01*
X12053511Y-12836359D02*
X12063035Y-12874454D01*
X12063035Y-12874454D02*
X12063035Y-12922073D01*
X12063035Y-12922073D02*
X12053511Y-12960168D01*
X12053511Y-12960168D02*
X12043987Y-12979216D01*
X12043987Y-12979216D02*
X12034464Y-12988740D01*
X12034464Y-12988740D02*
X12015416Y-12998264D01*
X12015416Y-12998264D02*
X11996368Y-12998264D01*
X11996368Y-12998264D02*
X11977321Y-12988740D01*
X11977321Y-12988740D02*
X11967797Y-12979216D01*
X11967797Y-12979216D02*
X11958273Y-12960168D01*
X11958273Y-12960168D02*
X11948749Y-12922073D01*
X11948749Y-12922073D02*
X11948749Y-12874454D01*
X11948749Y-12874454D02*
X11958273Y-12836359D01*
X11958273Y-12836359D02*
X11967797Y-12817311D01*
X11967797Y-12817311D02*
X11977321Y-12807788D01*
X11977321Y-12807788D02*
X11996368Y-12798264D01*
X12243987Y-12798264D02*
X12148749Y-12798264D01*
X12148749Y-12798264D02*
X12139226Y-12893502D01*
X12139226Y-12893502D02*
X12148749Y-12883978D01*
X12148749Y-12883978D02*
X12167797Y-12874454D01*
X12167797Y-12874454D02*
X12215416Y-12874454D01*
X12215416Y-12874454D02*
X12234464Y-12883978D01*
X12234464Y-12883978D02*
X12243987Y-12893502D01*
X12243987Y-12893502D02*
X12253511Y-12912549D01*
X12253511Y-12912549D02*
X12253511Y-12960168D01*
X12253511Y-12960168D02*
X12243987Y-12979216D01*
X12243987Y-12979216D02*
X12234464Y-12988740D01*
X12234464Y-12988740D02*
X12215416Y-12998264D01*
X12215416Y-12998264D02*
X12167797Y-12998264D01*
X12167797Y-12998264D02*
X12148749Y-12988740D01*
X12148749Y-12988740D02*
X12139226Y-12979216D01*
X12348749Y-12998264D02*
X12386845Y-12998264D01*
X12386845Y-12998264D02*
X12405892Y-12988740D01*
X12405892Y-12988740D02*
X12415416Y-12979216D01*
X12415416Y-12979216D02*
X12434464Y-12950645D01*
X12434464Y-12950645D02*
X12443987Y-12912549D01*
X12443987Y-12912549D02*
X12443987Y-12836359D01*
X12443987Y-12836359D02*
X12434464Y-12817311D01*
X12434464Y-12817311D02*
X12424940Y-12807788D01*
X12424940Y-12807788D02*
X12405892Y-12798264D01*
X12405892Y-12798264D02*
X12367797Y-12798264D01*
X12367797Y-12798264D02*
X12348749Y-12807788D01*
X12348749Y-12807788D02*
X12339226Y-12817311D01*
X12339226Y-12817311D02*
X12329702Y-12836359D01*
X12329702Y-12836359D02*
X12329702Y-12883978D01*
X12329702Y-12883978D02*
X12339226Y-12903026D01*
X12339226Y-12903026D02*
X12348749Y-12912549D01*
X12348749Y-12912549D02*
X12367797Y-12922073D01*
X12367797Y-12922073D02*
X12405892Y-12922073D01*
X12405892Y-12922073D02*
X12424940Y-12912549D01*
X12424940Y-12912549D02*
X12434464Y-12903026D01*
X12434464Y-12903026D02*
X12443987Y-12883978D01*
X12558273Y-12883978D02*
X12539226Y-12874454D01*
X12539226Y-12874454D02*
X12529702Y-12864930D01*
X12529702Y-12864930D02*
X12520178Y-12845883D01*
X12520178Y-12845883D02*
X12520178Y-12836359D01*
X12520178Y-12836359D02*
X12529702Y-12817311D01*
X12529702Y-12817311D02*
X12539226Y-12807788D01*
X12539226Y-12807788D02*
X12558273Y-12798264D01*
X12558273Y-12798264D02*
X12596368Y-12798264D01*
X12596368Y-12798264D02*
X12615416Y-12807788D01*
X12615416Y-12807788D02*
X12624940Y-12817311D01*
X12624940Y-12817311D02*
X12634464Y-12836359D01*
X12634464Y-12836359D02*
X12634464Y-12845883D01*
X12634464Y-12845883D02*
X12624940Y-12864930D01*
X12624940Y-12864930D02*
X12615416Y-12874454D01*
X12615416Y-12874454D02*
X12596368Y-12883978D01*
X12596368Y-12883978D02*
X12558273Y-12883978D01*
X12558273Y-12883978D02*
X12539226Y-12893502D01*
X12539226Y-12893502D02*
X12529702Y-12903026D01*
X12529702Y-12903026D02*
X12520178Y-12922073D01*
X12520178Y-12922073D02*
X12520178Y-12960168D01*
X12520178Y-12960168D02*
X12529702Y-12979216D01*
X12529702Y-12979216D02*
X12539226Y-12988740D01*
X12539226Y-12988740D02*
X12558273Y-12998264D01*
X12558273Y-12998264D02*
X12596368Y-12998264D01*
X12596368Y-12998264D02*
X12615416Y-12988740D01*
X12615416Y-12988740D02*
X12624940Y-12979216D01*
X12624940Y-12979216D02*
X12634464Y-12960168D01*
X12634464Y-12960168D02*
X12634464Y-12922073D01*
X12634464Y-12922073D02*
X12624940Y-12903026D01*
X12624940Y-12903026D02*
X12615416Y-12893502D01*
X12615416Y-12893502D02*
X12596368Y-12883978D01*
X12710654Y-12798264D02*
X12710654Y-12836359D01*
X12786845Y-12798264D02*
X12786845Y-12836359D01*
X13082083Y-13074454D02*
X13072559Y-13064930D01*
X13072559Y-13064930D02*
X13053511Y-13036359D01*
X13053511Y-13036359D02*
X13043988Y-13017311D01*
X13043988Y-13017311D02*
X13034464Y-12988740D01*
X13034464Y-12988740D02*
X13024940Y-12941121D01*
X13024940Y-12941121D02*
X13024940Y-12903026D01*
X13024940Y-12903026D02*
X13034464Y-12855407D01*
X13034464Y-12855407D02*
X13043988Y-12826835D01*
X13043988Y-12826835D02*
X13053511Y-12807788D01*
X13053511Y-12807788D02*
X13072559Y-12779216D01*
X13072559Y-12779216D02*
X13082083Y-12769692D01*
X13243988Y-12798264D02*
X13205892Y-12798264D01*
X13205892Y-12798264D02*
X13186845Y-12807788D01*
X13186845Y-12807788D02*
X13177321Y-12817311D01*
X13177321Y-12817311D02*
X13158273Y-12845883D01*
X13158273Y-12845883D02*
X13148749Y-12883978D01*
X13148749Y-12883978D02*
X13148749Y-12960168D01*
X13148749Y-12960168D02*
X13158273Y-12979216D01*
X13158273Y-12979216D02*
X13167797Y-12988740D01*
X13167797Y-12988740D02*
X13186845Y-12998264D01*
X13186845Y-12998264D02*
X13224940Y-12998264D01*
X13224940Y-12998264D02*
X13243988Y-12988740D01*
X13243988Y-12988740D02*
X13253511Y-12979216D01*
X13253511Y-12979216D02*
X13263035Y-12960168D01*
X13263035Y-12960168D02*
X13263035Y-12912549D01*
X13263035Y-12912549D02*
X13253511Y-12893502D01*
X13253511Y-12893502D02*
X13243988Y-12883978D01*
X13243988Y-12883978D02*
X13224940Y-12874454D01*
X13224940Y-12874454D02*
X13186845Y-12874454D01*
X13186845Y-12874454D02*
X13167797Y-12883978D01*
X13167797Y-12883978D02*
X13158273Y-12893502D01*
X13158273Y-12893502D02*
X13148749Y-12912549D01*
X13501130Y-12998264D02*
X13501130Y-12798264D01*
X13586845Y-12998264D02*
X13586845Y-12893502D01*
X13586845Y-12893502D02*
X13577321Y-12874454D01*
X13577321Y-12874454D02*
X13558273Y-12864930D01*
X13558273Y-12864930D02*
X13529702Y-12864930D01*
X13529702Y-12864930D02*
X13510654Y-12874454D01*
X13510654Y-12874454D02*
X13501130Y-12883978D01*
X13710654Y-12998264D02*
X13691607Y-12988740D01*
X13691607Y-12988740D02*
X13682083Y-12979216D01*
X13682083Y-12979216D02*
X13672559Y-12960168D01*
X13672559Y-12960168D02*
X13672559Y-12903026D01*
X13672559Y-12903026D02*
X13682083Y-12883978D01*
X13682083Y-12883978D02*
X13691607Y-12874454D01*
X13691607Y-12874454D02*
X13710654Y-12864930D01*
X13710654Y-12864930D02*
X13739226Y-12864930D01*
X13739226Y-12864930D02*
X13758273Y-12874454D01*
X13758273Y-12874454D02*
X13767797Y-12883978D01*
X13767797Y-12883978D02*
X13777321Y-12903026D01*
X13777321Y-12903026D02*
X13777321Y-12960168D01*
X13777321Y-12960168D02*
X13767797Y-12979216D01*
X13767797Y-12979216D02*
X13758273Y-12988740D01*
X13758273Y-12988740D02*
X13739226Y-12998264D01*
X13739226Y-12998264D02*
X13710654Y-12998264D01*
X13891607Y-12998264D02*
X13872559Y-12988740D01*
X13872559Y-12988740D02*
X13863035Y-12969692D01*
X13863035Y-12969692D02*
X13863035Y-12798264D01*
X14043988Y-12988740D02*
X14024940Y-12998264D01*
X14024940Y-12998264D02*
X13986845Y-12998264D01*
X13986845Y-12998264D02*
X13967797Y-12988740D01*
X13967797Y-12988740D02*
X13958273Y-12969692D01*
X13958273Y-12969692D02*
X13958273Y-12893502D01*
X13958273Y-12893502D02*
X13967797Y-12874454D01*
X13967797Y-12874454D02*
X13986845Y-12864930D01*
X13986845Y-12864930D02*
X14024940Y-12864930D01*
X14024940Y-12864930D02*
X14043988Y-12874454D01*
X14043988Y-12874454D02*
X14053511Y-12893502D01*
X14053511Y-12893502D02*
X14053511Y-12912549D01*
X14053511Y-12912549D02*
X13958273Y-12931597D01*
X14129702Y-12988740D02*
X14148750Y-12998264D01*
X14148750Y-12998264D02*
X14186845Y-12998264D01*
X14186845Y-12998264D02*
X14205892Y-12988740D01*
X14205892Y-12988740D02*
X14215416Y-12969692D01*
X14215416Y-12969692D02*
X14215416Y-12960168D01*
X14215416Y-12960168D02*
X14205892Y-12941121D01*
X14205892Y-12941121D02*
X14186845Y-12931597D01*
X14186845Y-12931597D02*
X14158273Y-12931597D01*
X14158273Y-12931597D02*
X14139226Y-12922073D01*
X14139226Y-12922073D02*
X14129702Y-12903026D01*
X14129702Y-12903026D02*
X14129702Y-12893502D01*
X14129702Y-12893502D02*
X14139226Y-12874454D01*
X14139226Y-12874454D02*
X14158273Y-12864930D01*
X14158273Y-12864930D02*
X14186845Y-12864930D01*
X14186845Y-12864930D02*
X14205892Y-12874454D01*
X14282083Y-13074454D02*
X14291607Y-13064930D01*
X14291607Y-13064930D02*
X14310654Y-13036359D01*
X14310654Y-13036359D02*
X14320178Y-13017311D01*
X14320178Y-13017311D02*
X14329702Y-12988740D01*
X14329702Y-12988740D02*
X14339226Y-12941121D01*
X14339226Y-12941121D02*
X14339226Y-12903026D01*
X14339226Y-12903026D02*
X14329702Y-12855407D01*
X14329702Y-12855407D02*
X14320178Y-12826835D01*
X14320178Y-12826835D02*
X14310654Y-12807788D01*
X14310654Y-12807788D02*
X14291607Y-12779216D01*
X14291607Y-12779216D02*
X14282083Y-12769692D01*
X9477731Y-13249491D02*
X9477731Y-13108069D01*
X9336309Y-13108069D01*
X9336309Y-13249491D01*
X9477731Y-13249491D01*
X9758273Y-13089311D02*
X9767797Y-13079788D01*
X9767797Y-13079788D02*
X9786844Y-13070264D01*
X9786844Y-13070264D02*
X9834464Y-13070264D01*
X9834464Y-13070264D02*
X9853511Y-13079788D01*
X9853511Y-13079788D02*
X9863035Y-13089311D01*
X9863035Y-13089311D02*
X9872559Y-13108359D01*
X9872559Y-13108359D02*
X9872559Y-13127407D01*
X9872559Y-13127407D02*
X9863035Y-13155978D01*
X9863035Y-13155978D02*
X9748749Y-13270264D01*
X9748749Y-13270264D02*
X9872559Y-13270264D01*
X9958273Y-13251216D02*
X9967797Y-13260740D01*
X9967797Y-13260740D02*
X9958273Y-13270264D01*
X9958273Y-13270264D02*
X9948749Y-13260740D01*
X9948749Y-13260740D02*
X9958273Y-13251216D01*
X9958273Y-13251216D02*
X9958273Y-13270264D01*
X10091606Y-13070264D02*
X10110654Y-13070264D01*
X10110654Y-13070264D02*
X10129702Y-13079788D01*
X10129702Y-13079788D02*
X10139225Y-13089311D01*
X10139225Y-13089311D02*
X10148749Y-13108359D01*
X10148749Y-13108359D02*
X10158273Y-13146454D01*
X10158273Y-13146454D02*
X10158273Y-13194073D01*
X10158273Y-13194073D02*
X10148749Y-13232168D01*
X10148749Y-13232168D02*
X10139225Y-13251216D01*
X10139225Y-13251216D02*
X10129702Y-13260740D01*
X10129702Y-13260740D02*
X10110654Y-13270264D01*
X10110654Y-13270264D02*
X10091606Y-13270264D01*
X10091606Y-13270264D02*
X10072559Y-13260740D01*
X10072559Y-13260740D02*
X10063035Y-13251216D01*
X10063035Y-13251216D02*
X10053511Y-13232168D01*
X10053511Y-13232168D02*
X10043987Y-13194073D01*
X10043987Y-13194073D02*
X10043987Y-13146454D01*
X10043987Y-13146454D02*
X10053511Y-13108359D01*
X10053511Y-13108359D02*
X10063035Y-13089311D01*
X10063035Y-13089311D02*
X10072559Y-13079788D01*
X10072559Y-13079788D02*
X10091606Y-13070264D01*
X10282083Y-13070264D02*
X10301130Y-13070264D01*
X10301130Y-13070264D02*
X10320178Y-13079788D01*
X10320178Y-13079788D02*
X10329702Y-13089311D01*
X10329702Y-13089311D02*
X10339225Y-13108359D01*
X10339225Y-13108359D02*
X10348749Y-13146454D01*
X10348749Y-13146454D02*
X10348749Y-13194073D01*
X10348749Y-13194073D02*
X10339225Y-13232168D01*
X10339225Y-13232168D02*
X10329702Y-13251216D01*
X10329702Y-13251216D02*
X10320178Y-13260740D01*
X10320178Y-13260740D02*
X10301130Y-13270264D01*
X10301130Y-13270264D02*
X10282083Y-13270264D01*
X10282083Y-13270264D02*
X10263035Y-13260740D01*
X10263035Y-13260740D02*
X10253511Y-13251216D01*
X10253511Y-13251216D02*
X10243987Y-13232168D01*
X10243987Y-13232168D02*
X10234464Y-13194073D01*
X10234464Y-13194073D02*
X10234464Y-13146454D01*
X10234464Y-13146454D02*
X10243987Y-13108359D01*
X10243987Y-13108359D02*
X10253511Y-13089311D01*
X10253511Y-13089311D02*
X10263035Y-13079788D01*
X10263035Y-13079788D02*
X10282083Y-13070264D01*
X10472559Y-13070264D02*
X10491606Y-13070264D01*
X10491606Y-13070264D02*
X10510654Y-13079788D01*
X10510654Y-13079788D02*
X10520178Y-13089311D01*
X10520178Y-13089311D02*
X10529702Y-13108359D01*
X10529702Y-13108359D02*
X10539225Y-13146454D01*
X10539225Y-13146454D02*
X10539225Y-13194073D01*
X10539225Y-13194073D02*
X10529702Y-13232168D01*
X10529702Y-13232168D02*
X10520178Y-13251216D01*
X10520178Y-13251216D02*
X10510654Y-13260740D01*
X10510654Y-13260740D02*
X10491606Y-13270264D01*
X10491606Y-13270264D02*
X10472559Y-13270264D01*
X10472559Y-13270264D02*
X10453511Y-13260740D01*
X10453511Y-13260740D02*
X10443987Y-13251216D01*
X10443987Y-13251216D02*
X10434464Y-13232168D01*
X10434464Y-13232168D02*
X10424940Y-13194073D01*
X10424940Y-13194073D02*
X10424940Y-13146454D01*
X10424940Y-13146454D02*
X10434464Y-13108359D01*
X10434464Y-13108359D02*
X10443987Y-13089311D01*
X10443987Y-13089311D02*
X10453511Y-13079788D01*
X10453511Y-13079788D02*
X10472559Y-13070264D01*
X10624940Y-13270264D02*
X10624940Y-13136930D01*
X10624940Y-13155978D02*
X10634464Y-13146454D01*
X10634464Y-13146454D02*
X10653511Y-13136930D01*
X10653511Y-13136930D02*
X10682083Y-13136930D01*
X10682083Y-13136930D02*
X10701130Y-13146454D01*
X10701130Y-13146454D02*
X10710654Y-13165502D01*
X10710654Y-13165502D02*
X10710654Y-13270264D01*
X10710654Y-13165502D02*
X10720178Y-13146454D01*
X10720178Y-13146454D02*
X10739225Y-13136930D01*
X10739225Y-13136930D02*
X10767797Y-13136930D01*
X10767797Y-13136930D02*
X10786845Y-13146454D01*
X10786845Y-13146454D02*
X10796368Y-13165502D01*
X10796368Y-13165502D02*
X10796368Y-13270264D01*
X10891606Y-13270264D02*
X10891606Y-13136930D01*
X10891606Y-13155978D02*
X10901130Y-13146454D01*
X10901130Y-13146454D02*
X10920178Y-13136930D01*
X10920178Y-13136930D02*
X10948749Y-13136930D01*
X10948749Y-13136930D02*
X10967797Y-13146454D01*
X10967797Y-13146454D02*
X10977321Y-13165502D01*
X10977321Y-13165502D02*
X10977321Y-13270264D01*
X10977321Y-13165502D02*
X10986845Y-13146454D01*
X10986845Y-13146454D02*
X11005892Y-13136930D01*
X11005892Y-13136930D02*
X11034464Y-13136930D01*
X11034464Y-13136930D02*
X11053511Y-13146454D01*
X11053511Y-13146454D02*
X11063035Y-13165502D01*
X11063035Y-13165502D02*
X11063035Y-13270264D01*
X11453511Y-13060740D02*
X11282083Y-13317883D01*
X11710654Y-13070264D02*
X11729702Y-13070264D01*
X11729702Y-13070264D02*
X11748749Y-13079788D01*
X11748749Y-13079788D02*
X11758273Y-13089311D01*
X11758273Y-13089311D02*
X11767797Y-13108359D01*
X11767797Y-13108359D02*
X11777321Y-13146454D01*
X11777321Y-13146454D02*
X11777321Y-13194073D01*
X11777321Y-13194073D02*
X11767797Y-13232168D01*
X11767797Y-13232168D02*
X11758273Y-13251216D01*
X11758273Y-13251216D02*
X11748749Y-13260740D01*
X11748749Y-13260740D02*
X11729702Y-13270264D01*
X11729702Y-13270264D02*
X11710654Y-13270264D01*
X11710654Y-13270264D02*
X11691606Y-13260740D01*
X11691606Y-13260740D02*
X11682083Y-13251216D01*
X11682083Y-13251216D02*
X11672559Y-13232168D01*
X11672559Y-13232168D02*
X11663035Y-13194073D01*
X11663035Y-13194073D02*
X11663035Y-13146454D01*
X11663035Y-13146454D02*
X11672559Y-13108359D01*
X11672559Y-13108359D02*
X11682083Y-13089311D01*
X11682083Y-13089311D02*
X11691606Y-13079788D01*
X11691606Y-13079788D02*
X11710654Y-13070264D01*
X11863035Y-13251216D02*
X11872559Y-13260740D01*
X11872559Y-13260740D02*
X11863035Y-13270264D01*
X11863035Y-13270264D02*
X11853511Y-13260740D01*
X11853511Y-13260740D02*
X11863035Y-13251216D01*
X11863035Y-13251216D02*
X11863035Y-13270264D01*
X11996368Y-13070264D02*
X12015416Y-13070264D01*
X12015416Y-13070264D02*
X12034464Y-13079788D01*
X12034464Y-13079788D02*
X12043987Y-13089311D01*
X12043987Y-13089311D02*
X12053511Y-13108359D01*
X12053511Y-13108359D02*
X12063035Y-13146454D01*
X12063035Y-13146454D02*
X12063035Y-13194073D01*
X12063035Y-13194073D02*
X12053511Y-13232168D01*
X12053511Y-13232168D02*
X12043987Y-13251216D01*
X12043987Y-13251216D02*
X12034464Y-13260740D01*
X12034464Y-13260740D02*
X12015416Y-13270264D01*
X12015416Y-13270264D02*
X11996368Y-13270264D01*
X11996368Y-13270264D02*
X11977321Y-13260740D01*
X11977321Y-13260740D02*
X11967797Y-13251216D01*
X11967797Y-13251216D02*
X11958273Y-13232168D01*
X11958273Y-13232168D02*
X11948749Y-13194073D01*
X11948749Y-13194073D02*
X11948749Y-13146454D01*
X11948749Y-13146454D02*
X11958273Y-13108359D01*
X11958273Y-13108359D02*
X11967797Y-13089311D01*
X11967797Y-13089311D02*
X11977321Y-13079788D01*
X11977321Y-13079788D02*
X11996368Y-13070264D01*
X12129702Y-13070264D02*
X12263035Y-13070264D01*
X12263035Y-13070264D02*
X12177321Y-13270264D01*
X12367797Y-13155978D02*
X12348749Y-13146454D01*
X12348749Y-13146454D02*
X12339226Y-13136930D01*
X12339226Y-13136930D02*
X12329702Y-13117883D01*
X12329702Y-13117883D02*
X12329702Y-13108359D01*
X12329702Y-13108359D02*
X12339226Y-13089311D01*
X12339226Y-13089311D02*
X12348749Y-13079788D01*
X12348749Y-13079788D02*
X12367797Y-13070264D01*
X12367797Y-13070264D02*
X12405892Y-13070264D01*
X12405892Y-13070264D02*
X12424940Y-13079788D01*
X12424940Y-13079788D02*
X12434464Y-13089311D01*
X12434464Y-13089311D02*
X12443987Y-13108359D01*
X12443987Y-13108359D02*
X12443987Y-13117883D01*
X12443987Y-13117883D02*
X12434464Y-13136930D01*
X12434464Y-13136930D02*
X12424940Y-13146454D01*
X12424940Y-13146454D02*
X12405892Y-13155978D01*
X12405892Y-13155978D02*
X12367797Y-13155978D01*
X12367797Y-13155978D02*
X12348749Y-13165502D01*
X12348749Y-13165502D02*
X12339226Y-13175026D01*
X12339226Y-13175026D02*
X12329702Y-13194073D01*
X12329702Y-13194073D02*
X12329702Y-13232168D01*
X12329702Y-13232168D02*
X12339226Y-13251216D01*
X12339226Y-13251216D02*
X12348749Y-13260740D01*
X12348749Y-13260740D02*
X12367797Y-13270264D01*
X12367797Y-13270264D02*
X12405892Y-13270264D01*
X12405892Y-13270264D02*
X12424940Y-13260740D01*
X12424940Y-13260740D02*
X12434464Y-13251216D01*
X12434464Y-13251216D02*
X12443987Y-13232168D01*
X12443987Y-13232168D02*
X12443987Y-13194073D01*
X12443987Y-13194073D02*
X12434464Y-13175026D01*
X12434464Y-13175026D02*
X12424940Y-13165502D01*
X12424940Y-13165502D02*
X12405892Y-13155978D01*
X12510654Y-13070264D02*
X12643987Y-13070264D01*
X12643987Y-13070264D02*
X12558273Y-13270264D01*
X12710654Y-13070264D02*
X12710654Y-13108359D01*
X12786845Y-13070264D02*
X12786845Y-13108359D01*
X13082083Y-13346454D02*
X13072559Y-13336930D01*
X13072559Y-13336930D02*
X13053511Y-13308359D01*
X13053511Y-13308359D02*
X13043988Y-13289311D01*
X13043988Y-13289311D02*
X13034464Y-13260740D01*
X13034464Y-13260740D02*
X13024940Y-13213121D01*
X13024940Y-13213121D02*
X13024940Y-13175026D01*
X13024940Y-13175026D02*
X13034464Y-13127407D01*
X13034464Y-13127407D02*
X13043988Y-13098835D01*
X13043988Y-13098835D02*
X13053511Y-13079788D01*
X13053511Y-13079788D02*
X13072559Y-13051216D01*
X13072559Y-13051216D02*
X13082083Y-13041692D01*
X13243988Y-13136930D02*
X13243988Y-13270264D01*
X13196368Y-13060740D02*
X13148749Y-13203597D01*
X13148749Y-13203597D02*
X13272559Y-13203597D01*
X13501130Y-13270264D02*
X13501130Y-13070264D01*
X13586845Y-13270264D02*
X13586845Y-13165502D01*
X13586845Y-13165502D02*
X13577321Y-13146454D01*
X13577321Y-13146454D02*
X13558273Y-13136930D01*
X13558273Y-13136930D02*
X13529702Y-13136930D01*
X13529702Y-13136930D02*
X13510654Y-13146454D01*
X13510654Y-13146454D02*
X13501130Y-13155978D01*
X13710654Y-13270264D02*
X13691607Y-13260740D01*
X13691607Y-13260740D02*
X13682083Y-13251216D01*
X13682083Y-13251216D02*
X13672559Y-13232168D01*
X13672559Y-13232168D02*
X13672559Y-13175026D01*
X13672559Y-13175026D02*
X13682083Y-13155978D01*
X13682083Y-13155978D02*
X13691607Y-13146454D01*
X13691607Y-13146454D02*
X13710654Y-13136930D01*
X13710654Y-13136930D02*
X13739226Y-13136930D01*
X13739226Y-13136930D02*
X13758273Y-13146454D01*
X13758273Y-13146454D02*
X13767797Y-13155978D01*
X13767797Y-13155978D02*
X13777321Y-13175026D01*
X13777321Y-13175026D02*
X13777321Y-13232168D01*
X13777321Y-13232168D02*
X13767797Y-13251216D01*
X13767797Y-13251216D02*
X13758273Y-13260740D01*
X13758273Y-13260740D02*
X13739226Y-13270264D01*
X13739226Y-13270264D02*
X13710654Y-13270264D01*
X13891607Y-13270264D02*
X13872559Y-13260740D01*
X13872559Y-13260740D02*
X13863035Y-13241692D01*
X13863035Y-13241692D02*
X13863035Y-13070264D01*
X14043988Y-13260740D02*
X14024940Y-13270264D01*
X14024940Y-13270264D02*
X13986845Y-13270264D01*
X13986845Y-13270264D02*
X13967797Y-13260740D01*
X13967797Y-13260740D02*
X13958273Y-13241692D01*
X13958273Y-13241692D02*
X13958273Y-13165502D01*
X13958273Y-13165502D02*
X13967797Y-13146454D01*
X13967797Y-13146454D02*
X13986845Y-13136930D01*
X13986845Y-13136930D02*
X14024940Y-13136930D01*
X14024940Y-13136930D02*
X14043988Y-13146454D01*
X14043988Y-13146454D02*
X14053511Y-13165502D01*
X14053511Y-13165502D02*
X14053511Y-13184549D01*
X14053511Y-13184549D02*
X13958273Y-13203597D01*
X14129702Y-13260740D02*
X14148750Y-13270264D01*
X14148750Y-13270264D02*
X14186845Y-13270264D01*
X14186845Y-13270264D02*
X14205892Y-13260740D01*
X14205892Y-13260740D02*
X14215416Y-13241692D01*
X14215416Y-13241692D02*
X14215416Y-13232168D01*
X14215416Y-13232168D02*
X14205892Y-13213121D01*
X14205892Y-13213121D02*
X14186845Y-13203597D01*
X14186845Y-13203597D02*
X14158273Y-13203597D01*
X14158273Y-13203597D02*
X14139226Y-13194073D01*
X14139226Y-13194073D02*
X14129702Y-13175026D01*
X14129702Y-13175026D02*
X14129702Y-13165502D01*
X14129702Y-13165502D02*
X14139226Y-13146454D01*
X14139226Y-13146454D02*
X14158273Y-13136930D01*
X14158273Y-13136930D02*
X14186845Y-13136930D01*
X14186845Y-13136930D02*
X14205892Y-13146454D01*
X14282083Y-13346454D02*
X14291607Y-13336930D01*
X14291607Y-13336930D02*
X14310654Y-13308359D01*
X14310654Y-13308359D02*
X14320178Y-13289311D01*
X14320178Y-13289311D02*
X14329702Y-13260740D01*
X14329702Y-13260740D02*
X14339226Y-13213121D01*
X14339226Y-13213121D02*
X14339226Y-13175026D01*
X14339226Y-13175026D02*
X14329702Y-13127407D01*
X14329702Y-13127407D02*
X14320178Y-13098835D01*
X14320178Y-13098835D02*
X14310654Y-13079788D01*
X14310654Y-13079788D02*
X14291607Y-13051216D01*
X14291607Y-13051216D02*
X14282083Y-13041692D01*
X9407020Y-13598780D02*
X9507020Y-13498780D01*
X9407020Y-13398780D01*
X9307020Y-13498780D01*
X9407020Y-13598780D01*
X9796368Y-13475978D02*
X9777321Y-13466454D01*
X9777321Y-13466454D02*
X9767797Y-13456930D01*
X9767797Y-13456930D02*
X9758273Y-13437883D01*
X9758273Y-13437883D02*
X9758273Y-13428359D01*
X9758273Y-13428359D02*
X9767797Y-13409311D01*
X9767797Y-13409311D02*
X9777321Y-13399788D01*
X9777321Y-13399788D02*
X9796368Y-13390264D01*
X9796368Y-13390264D02*
X9834464Y-13390264D01*
X9834464Y-13390264D02*
X9853511Y-13399788D01*
X9853511Y-13399788D02*
X9863035Y-13409311D01*
X9863035Y-13409311D02*
X9872559Y-13428359D01*
X9872559Y-13428359D02*
X9872559Y-13437883D01*
X9872559Y-13437883D02*
X9863035Y-13456930D01*
X9863035Y-13456930D02*
X9853511Y-13466454D01*
X9853511Y-13466454D02*
X9834464Y-13475978D01*
X9834464Y-13475978D02*
X9796368Y-13475978D01*
X9796368Y-13475978D02*
X9777321Y-13485502D01*
X9777321Y-13485502D02*
X9767797Y-13495026D01*
X9767797Y-13495026D02*
X9758273Y-13514073D01*
X9758273Y-13514073D02*
X9758273Y-13552168D01*
X9758273Y-13552168D02*
X9767797Y-13571216D01*
X9767797Y-13571216D02*
X9777321Y-13580740D01*
X9777321Y-13580740D02*
X9796368Y-13590264D01*
X9796368Y-13590264D02*
X9834464Y-13590264D01*
X9834464Y-13590264D02*
X9853511Y-13580740D01*
X9853511Y-13580740D02*
X9863035Y-13571216D01*
X9863035Y-13571216D02*
X9872559Y-13552168D01*
X9872559Y-13552168D02*
X9872559Y-13514073D01*
X9872559Y-13514073D02*
X9863035Y-13495026D01*
X9863035Y-13495026D02*
X9853511Y-13485502D01*
X9853511Y-13485502D02*
X9834464Y-13475978D01*
X9958273Y-13571216D02*
X9967797Y-13580740D01*
X9967797Y-13580740D02*
X9958273Y-13590264D01*
X9958273Y-13590264D02*
X9948749Y-13580740D01*
X9948749Y-13580740D02*
X9958273Y-13571216D01*
X9958273Y-13571216D02*
X9958273Y-13590264D01*
X10139225Y-13456930D02*
X10139225Y-13590264D01*
X10091606Y-13380740D02*
X10043987Y-13523597D01*
X10043987Y-13523597D02*
X10167797Y-13523597D01*
X10282083Y-13390264D02*
X10301130Y-13390264D01*
X10301130Y-13390264D02*
X10320178Y-13399788D01*
X10320178Y-13399788D02*
X10329702Y-13409311D01*
X10329702Y-13409311D02*
X10339225Y-13428359D01*
X10339225Y-13428359D02*
X10348749Y-13466454D01*
X10348749Y-13466454D02*
X10348749Y-13514073D01*
X10348749Y-13514073D02*
X10339225Y-13552168D01*
X10339225Y-13552168D02*
X10329702Y-13571216D01*
X10329702Y-13571216D02*
X10320178Y-13580740D01*
X10320178Y-13580740D02*
X10301130Y-13590264D01*
X10301130Y-13590264D02*
X10282083Y-13590264D01*
X10282083Y-13590264D02*
X10263035Y-13580740D01*
X10263035Y-13580740D02*
X10253511Y-13571216D01*
X10253511Y-13571216D02*
X10243987Y-13552168D01*
X10243987Y-13552168D02*
X10234464Y-13514073D01*
X10234464Y-13514073D02*
X10234464Y-13466454D01*
X10234464Y-13466454D02*
X10243987Y-13428359D01*
X10243987Y-13428359D02*
X10253511Y-13409311D01*
X10253511Y-13409311D02*
X10263035Y-13399788D01*
X10263035Y-13399788D02*
X10282083Y-13390264D01*
X10472559Y-13390264D02*
X10491606Y-13390264D01*
X10491606Y-13390264D02*
X10510654Y-13399788D01*
X10510654Y-13399788D02*
X10520178Y-13409311D01*
X10520178Y-13409311D02*
X10529702Y-13428359D01*
X10529702Y-13428359D02*
X10539225Y-13466454D01*
X10539225Y-13466454D02*
X10539225Y-13514073D01*
X10539225Y-13514073D02*
X10529702Y-13552168D01*
X10529702Y-13552168D02*
X10520178Y-13571216D01*
X10520178Y-13571216D02*
X10510654Y-13580740D01*
X10510654Y-13580740D02*
X10491606Y-13590264D01*
X10491606Y-13590264D02*
X10472559Y-13590264D01*
X10472559Y-13590264D02*
X10453511Y-13580740D01*
X10453511Y-13580740D02*
X10443987Y-13571216D01*
X10443987Y-13571216D02*
X10434464Y-13552168D01*
X10434464Y-13552168D02*
X10424940Y-13514073D01*
X10424940Y-13514073D02*
X10424940Y-13466454D01*
X10424940Y-13466454D02*
X10434464Y-13428359D01*
X10434464Y-13428359D02*
X10443987Y-13409311D01*
X10443987Y-13409311D02*
X10453511Y-13399788D01*
X10453511Y-13399788D02*
X10472559Y-13390264D01*
X10624940Y-13590264D02*
X10624940Y-13456930D01*
X10624940Y-13475978D02*
X10634464Y-13466454D01*
X10634464Y-13466454D02*
X10653511Y-13456930D01*
X10653511Y-13456930D02*
X10682083Y-13456930D01*
X10682083Y-13456930D02*
X10701130Y-13466454D01*
X10701130Y-13466454D02*
X10710654Y-13485502D01*
X10710654Y-13485502D02*
X10710654Y-13590264D01*
X10710654Y-13485502D02*
X10720178Y-13466454D01*
X10720178Y-13466454D02*
X10739225Y-13456930D01*
X10739225Y-13456930D02*
X10767797Y-13456930D01*
X10767797Y-13456930D02*
X10786845Y-13466454D01*
X10786845Y-13466454D02*
X10796368Y-13485502D01*
X10796368Y-13485502D02*
X10796368Y-13590264D01*
X10891606Y-13590264D02*
X10891606Y-13456930D01*
X10891606Y-13475978D02*
X10901130Y-13466454D01*
X10901130Y-13466454D02*
X10920178Y-13456930D01*
X10920178Y-13456930D02*
X10948749Y-13456930D01*
X10948749Y-13456930D02*
X10967797Y-13466454D01*
X10967797Y-13466454D02*
X10977321Y-13485502D01*
X10977321Y-13485502D02*
X10977321Y-13590264D01*
X10977321Y-13485502D02*
X10986845Y-13466454D01*
X10986845Y-13466454D02*
X11005892Y-13456930D01*
X11005892Y-13456930D02*
X11034464Y-13456930D01*
X11034464Y-13456930D02*
X11053511Y-13466454D01*
X11053511Y-13466454D02*
X11063035Y-13485502D01*
X11063035Y-13485502D02*
X11063035Y-13590264D01*
X11453511Y-13380740D02*
X11282083Y-13637883D01*
X11710654Y-13390264D02*
X11729702Y-13390264D01*
X11729702Y-13390264D02*
X11748749Y-13399788D01*
X11748749Y-13399788D02*
X11758273Y-13409311D01*
X11758273Y-13409311D02*
X11767797Y-13428359D01*
X11767797Y-13428359D02*
X11777321Y-13466454D01*
X11777321Y-13466454D02*
X11777321Y-13514073D01*
X11777321Y-13514073D02*
X11767797Y-13552168D01*
X11767797Y-13552168D02*
X11758273Y-13571216D01*
X11758273Y-13571216D02*
X11748749Y-13580740D01*
X11748749Y-13580740D02*
X11729702Y-13590264D01*
X11729702Y-13590264D02*
X11710654Y-13590264D01*
X11710654Y-13590264D02*
X11691606Y-13580740D01*
X11691606Y-13580740D02*
X11682083Y-13571216D01*
X11682083Y-13571216D02*
X11672559Y-13552168D01*
X11672559Y-13552168D02*
X11663035Y-13514073D01*
X11663035Y-13514073D02*
X11663035Y-13466454D01*
X11663035Y-13466454D02*
X11672559Y-13428359D01*
X11672559Y-13428359D02*
X11682083Y-13409311D01*
X11682083Y-13409311D02*
X11691606Y-13399788D01*
X11691606Y-13399788D02*
X11710654Y-13390264D01*
X11863035Y-13571216D02*
X11872559Y-13580740D01*
X11872559Y-13580740D02*
X11863035Y-13590264D01*
X11863035Y-13590264D02*
X11853511Y-13580740D01*
X11853511Y-13580740D02*
X11863035Y-13571216D01*
X11863035Y-13571216D02*
X11863035Y-13590264D01*
X11939226Y-13390264D02*
X12063035Y-13390264D01*
X12063035Y-13390264D02*
X11996368Y-13466454D01*
X11996368Y-13466454D02*
X12024940Y-13466454D01*
X12024940Y-13466454D02*
X12043987Y-13475978D01*
X12043987Y-13475978D02*
X12053511Y-13485502D01*
X12053511Y-13485502D02*
X12063035Y-13504549D01*
X12063035Y-13504549D02*
X12063035Y-13552168D01*
X12063035Y-13552168D02*
X12053511Y-13571216D01*
X12053511Y-13571216D02*
X12043987Y-13580740D01*
X12043987Y-13580740D02*
X12024940Y-13590264D01*
X12024940Y-13590264D02*
X11967797Y-13590264D01*
X11967797Y-13590264D02*
X11948749Y-13580740D01*
X11948749Y-13580740D02*
X11939226Y-13571216D01*
X12129702Y-13390264D02*
X12253511Y-13390264D01*
X12253511Y-13390264D02*
X12186845Y-13466454D01*
X12186845Y-13466454D02*
X12215416Y-13466454D01*
X12215416Y-13466454D02*
X12234464Y-13475978D01*
X12234464Y-13475978D02*
X12243987Y-13485502D01*
X12243987Y-13485502D02*
X12253511Y-13504549D01*
X12253511Y-13504549D02*
X12253511Y-13552168D01*
X12253511Y-13552168D02*
X12243987Y-13571216D01*
X12243987Y-13571216D02*
X12234464Y-13580740D01*
X12234464Y-13580740D02*
X12215416Y-13590264D01*
X12215416Y-13590264D02*
X12158273Y-13590264D01*
X12158273Y-13590264D02*
X12139226Y-13580740D01*
X12139226Y-13580740D02*
X12129702Y-13571216D01*
X12377321Y-13390264D02*
X12396368Y-13390264D01*
X12396368Y-13390264D02*
X12415416Y-13399788D01*
X12415416Y-13399788D02*
X12424940Y-13409311D01*
X12424940Y-13409311D02*
X12434464Y-13428359D01*
X12434464Y-13428359D02*
X12443987Y-13466454D01*
X12443987Y-13466454D02*
X12443987Y-13514073D01*
X12443987Y-13514073D02*
X12434464Y-13552168D01*
X12434464Y-13552168D02*
X12424940Y-13571216D01*
X12424940Y-13571216D02*
X12415416Y-13580740D01*
X12415416Y-13580740D02*
X12396368Y-13590264D01*
X12396368Y-13590264D02*
X12377321Y-13590264D01*
X12377321Y-13590264D02*
X12358273Y-13580740D01*
X12358273Y-13580740D02*
X12348749Y-13571216D01*
X12348749Y-13571216D02*
X12339226Y-13552168D01*
X12339226Y-13552168D02*
X12329702Y-13514073D01*
X12329702Y-13514073D02*
X12329702Y-13466454D01*
X12329702Y-13466454D02*
X12339226Y-13428359D01*
X12339226Y-13428359D02*
X12348749Y-13409311D01*
X12348749Y-13409311D02*
X12358273Y-13399788D01*
X12358273Y-13399788D02*
X12377321Y-13390264D01*
X12510654Y-13390264D02*
X12643987Y-13390264D01*
X12643987Y-13390264D02*
X12558273Y-13590264D01*
X12710654Y-13390264D02*
X12710654Y-13428359D01*
X12786845Y-13390264D02*
X12786845Y-13428359D01*
X13082083Y-13666454D02*
X13072559Y-13656930D01*
X13072559Y-13656930D02*
X13053511Y-13628359D01*
X13053511Y-13628359D02*
X13043988Y-13609311D01*
X13043988Y-13609311D02*
X13034464Y-13580740D01*
X13034464Y-13580740D02*
X13024940Y-13533121D01*
X13024940Y-13533121D02*
X13024940Y-13495026D01*
X13024940Y-13495026D02*
X13034464Y-13447407D01*
X13034464Y-13447407D02*
X13043988Y-13418835D01*
X13043988Y-13418835D02*
X13053511Y-13399788D01*
X13053511Y-13399788D02*
X13072559Y-13371216D01*
X13072559Y-13371216D02*
X13082083Y-13361692D01*
X13243988Y-13456930D02*
X13243988Y-13590264D01*
X13196368Y-13380740D02*
X13148749Y-13523597D01*
X13148749Y-13523597D02*
X13272559Y-13523597D01*
X13501130Y-13590264D02*
X13501130Y-13390264D01*
X13586845Y-13590264D02*
X13586845Y-13485502D01*
X13586845Y-13485502D02*
X13577321Y-13466454D01*
X13577321Y-13466454D02*
X13558273Y-13456930D01*
X13558273Y-13456930D02*
X13529702Y-13456930D01*
X13529702Y-13456930D02*
X13510654Y-13466454D01*
X13510654Y-13466454D02*
X13501130Y-13475978D01*
X13710654Y-13590264D02*
X13691607Y-13580740D01*
X13691607Y-13580740D02*
X13682083Y-13571216D01*
X13682083Y-13571216D02*
X13672559Y-13552168D01*
X13672559Y-13552168D02*
X13672559Y-13495026D01*
X13672559Y-13495026D02*
X13682083Y-13475978D01*
X13682083Y-13475978D02*
X13691607Y-13466454D01*
X13691607Y-13466454D02*
X13710654Y-13456930D01*
X13710654Y-13456930D02*
X13739226Y-13456930D01*
X13739226Y-13456930D02*
X13758273Y-13466454D01*
X13758273Y-13466454D02*
X13767797Y-13475978D01*
X13767797Y-13475978D02*
X13777321Y-13495026D01*
X13777321Y-13495026D02*
X13777321Y-13552168D01*
X13777321Y-13552168D02*
X13767797Y-13571216D01*
X13767797Y-13571216D02*
X13758273Y-13580740D01*
X13758273Y-13580740D02*
X13739226Y-13590264D01*
X13739226Y-13590264D02*
X13710654Y-13590264D01*
X13891607Y-13590264D02*
X13872559Y-13580740D01*
X13872559Y-13580740D02*
X13863035Y-13561692D01*
X13863035Y-13561692D02*
X13863035Y-13390264D01*
X14043988Y-13580740D02*
X14024940Y-13590264D01*
X14024940Y-13590264D02*
X13986845Y-13590264D01*
X13986845Y-13590264D02*
X13967797Y-13580740D01*
X13967797Y-13580740D02*
X13958273Y-13561692D01*
X13958273Y-13561692D02*
X13958273Y-13485502D01*
X13958273Y-13485502D02*
X13967797Y-13466454D01*
X13967797Y-13466454D02*
X13986845Y-13456930D01*
X13986845Y-13456930D02*
X14024940Y-13456930D01*
X14024940Y-13456930D02*
X14043988Y-13466454D01*
X14043988Y-13466454D02*
X14053511Y-13485502D01*
X14053511Y-13485502D02*
X14053511Y-13504549D01*
X14053511Y-13504549D02*
X13958273Y-13523597D01*
X14129702Y-13580740D02*
X14148750Y-13590264D01*
X14148750Y-13590264D02*
X14186845Y-13590264D01*
X14186845Y-13590264D02*
X14205892Y-13580740D01*
X14205892Y-13580740D02*
X14215416Y-13561692D01*
X14215416Y-13561692D02*
X14215416Y-13552168D01*
X14215416Y-13552168D02*
X14205892Y-13533121D01*
X14205892Y-13533121D02*
X14186845Y-13523597D01*
X14186845Y-13523597D02*
X14158273Y-13523597D01*
X14158273Y-13523597D02*
X14139226Y-13514073D01*
X14139226Y-13514073D02*
X14129702Y-13495026D01*
X14129702Y-13495026D02*
X14129702Y-13485502D01*
X14129702Y-13485502D02*
X14139226Y-13466454D01*
X14139226Y-13466454D02*
X14158273Y-13456930D01*
X14158273Y-13456930D02*
X14186845Y-13456930D01*
X14186845Y-13456930D02*
X14205892Y-13466454D01*
X14282083Y-13666454D02*
X14291607Y-13656930D01*
X14291607Y-13656930D02*
X14310654Y-13628359D01*
X14310654Y-13628359D02*
X14320178Y-13609311D01*
X14320178Y-13609311D02*
X14329702Y-13580740D01*
X14329702Y-13580740D02*
X14339226Y-13533121D01*
X14339226Y-13533121D02*
X14339226Y-13495026D01*
X14339226Y-13495026D02*
X14329702Y-13447407D01*
X14329702Y-13447407D02*
X14320178Y-13418835D01*
X14320178Y-13418835D02*
X14310654Y-13399788D01*
X14310654Y-13399788D02*
X14291607Y-13371216D01*
X14291607Y-13371216D02*
X14282083Y-13361692D01*
M02*
