%TF.GenerationSoftware,KiCad,Pcbnew,7.0.7*%
%TF.CreationDate,2024-04-01T01:32:49+05:30*%
%TF.ProjectId,GPIO_stack,4750494f-5f73-4746-9163-6b2e6b696361,rev?*%
%TF.SameCoordinates,Original*%
%TF.FileFunction,Soldermask,Bot*%
%TF.FilePolarity,Negative*%
%FSLAX46Y46*%
G04 Gerber Fmt 4.6, Leading zero omitted, Abs format (unit mm)*
G04 Created by KiCad (PCBNEW 7.0.7) date 2024-04-01 01:32:49*
%MOMM*%
%LPD*%
G01*
G04 APERTURE LIST*
%ADD10C,1.524000*%
%ADD11C,2.500000*%
%ADD12R,3.000000X3.000000*%
%ADD13C,3.000000*%
%ADD14R,1.700000X1.700000*%
%ADD15O,1.700000X1.700000*%
%ADD16C,10.400000*%
G04 APERTURE END LIST*
D10*
%TO.C,U3*%
X145135600Y-67157600D03*
X141135600Y-67157600D03*
X149135600Y-97157600D03*
X143135600Y-97157600D03*
X137135600Y-97157600D03*
D11*
X149135600Y-66157600D03*
X137135600Y-66157600D03*
%TD*%
D12*
%TO.C,J1*%
X112445800Y-109855000D03*
D13*
X117525800Y-109855000D03*
X122605800Y-109855000D03*
%TD*%
D14*
%TO.C,U1*%
X158295200Y-64577800D03*
D15*
X158295200Y-67117800D03*
X158295200Y-69657800D03*
X158295200Y-72197800D03*
X158295200Y-74737800D03*
X158295200Y-77277800D03*
X158295200Y-79817800D03*
X158295200Y-82357800D03*
X158295200Y-84897800D03*
X158295200Y-87437800D03*
X158295200Y-89977800D03*
X158295200Y-92517800D03*
X158295200Y-95057800D03*
X158295200Y-97597800D03*
X158295200Y-100137800D03*
X101895200Y-100107800D03*
X101895200Y-97567800D03*
X101895200Y-95027800D03*
X101895200Y-92487800D03*
X101895200Y-89947800D03*
X101895200Y-87407800D03*
X101895200Y-84867800D03*
X101895200Y-82327800D03*
X101895200Y-79787800D03*
X101895200Y-77247800D03*
X101895200Y-74707800D03*
X101895200Y-72167800D03*
X101895200Y-69627800D03*
X101895200Y-67087800D03*
D14*
X101895200Y-64547800D03*
X112320200Y-54162800D03*
D15*
X114860200Y-54162800D03*
X117400200Y-54162800D03*
X119940200Y-54162800D03*
X122480200Y-54162800D03*
X125020200Y-54162800D03*
X127560200Y-54162800D03*
X130100200Y-54162800D03*
X132640200Y-54162800D03*
X135180200Y-54162800D03*
X137720200Y-54162800D03*
X140260200Y-54162800D03*
X142800200Y-54162800D03*
X145340200Y-54162800D03*
X147880200Y-54162800D03*
D16*
X157895200Y-110162800D03*
X102295200Y-110162800D03*
X102295200Y-54462800D03*
X157895200Y-54477800D03*
%TD*%
D12*
%TO.C,J2*%
X137795000Y-110236000D03*
D13*
X142875000Y-110236000D03*
X147955000Y-110236000D03*
%TD*%
D10*
%TO.C,U2*%
X119481600Y-67157600D03*
X115481600Y-67157600D03*
X123481600Y-97157600D03*
X117481600Y-97157600D03*
X111481600Y-97157600D03*
D11*
X123481600Y-66157600D03*
X111481600Y-66157600D03*
%TD*%
M02*
