%TF.GenerationSoftware,KiCad,Pcbnew,7.0.7*%
%TF.CreationDate,2024-04-01T01:32:49+05:30*%
%TF.ProjectId,GPIO_stack,4750494f-5f73-4746-9163-6b2e6b696361,rev?*%
%TF.SameCoordinates,Original*%
%TF.FileFunction,Copper,L1,Top*%
%TF.FilePolarity,Positive*%
%FSLAX46Y46*%
G04 Gerber Fmt 4.6, Leading zero omitted, Abs format (unit mm)*
G04 Created by KiCad (PCBNEW 7.0.7) date 2024-04-01 01:32:49*
%MOMM*%
%LPD*%
G01*
G04 APERTURE LIST*
%TA.AperFunction,ComponentPad*%
%ADD10C,1.524000*%
%TD*%
%TA.AperFunction,ComponentPad*%
%ADD11C,2.500000*%
%TD*%
%TA.AperFunction,ComponentPad*%
%ADD12R,3.000000X3.000000*%
%TD*%
%TA.AperFunction,ComponentPad*%
%ADD13C,3.000000*%
%TD*%
%TA.AperFunction,ComponentPad*%
%ADD14R,1.700000X1.700000*%
%TD*%
%TA.AperFunction,ComponentPad*%
%ADD15O,1.700000X1.700000*%
%TD*%
%TA.AperFunction,ComponentPad*%
%ADD16C,10.400000*%
%TD*%
%TA.AperFunction,Conductor*%
%ADD17C,0.250000*%
%TD*%
G04 APERTURE END LIST*
D10*
%TO.P,U3,1,GND*%
%TO.N,GND*%
X145135600Y-67157600D03*
%TO.P,U3,2,PWM*%
%TO.N,PYRO2*%
X141135600Y-67157600D03*
%TO.P,U3,3,-*%
%TO.N,GND*%
X149135600Y-97157600D03*
%TO.P,U3,4,LOAD*%
%TO.N,LOAD2*%
X143135600Y-97157600D03*
%TO.P,U3,5,+*%
%TO.N,7.4V_Pyro*%
X137135600Y-97157600D03*
D11*
%TO.P,U3,6*%
%TO.N,N/C*%
X149135600Y-66157600D03*
%TO.P,U3,7*%
X137135600Y-66157600D03*
%TD*%
D12*
%TO.P,J1,1,Pin_1*%
%TO.N,7.4V_Pyro*%
X112445800Y-109855000D03*
D13*
%TO.P,J1,2,Pin_2*%
%TO.N,LOAD1*%
X117525800Y-109855000D03*
%TO.P,J1,3,Pin_3*%
%TO.N,GND*%
X122605800Y-109855000D03*
%TD*%
D14*
%TO.P,U1,1*%
%TO.N,unconnected-(U1-Pad1)*%
X158295200Y-64577800D03*
D15*
%TO.P,U1,2*%
%TO.N,unconnected-(U1-Pad2)*%
X158295200Y-67117800D03*
%TO.P,U1,3*%
%TO.N,unconnected-(U1-Pad3)*%
X158295200Y-69657800D03*
%TO.P,U1,4*%
%TO.N,unconnected-(U1-Pad4)*%
X158295200Y-72197800D03*
%TO.P,U1,5*%
%TO.N,unconnected-(U1-Pad5)*%
X158295200Y-74737800D03*
%TO.P,U1,6*%
%TO.N,unconnected-(U1-Pad6)*%
X158295200Y-77277800D03*
%TO.P,U1,7*%
%TO.N,unconnected-(U1-Pad7)*%
X158295200Y-79817800D03*
%TO.P,U1,8*%
%TO.N,unconnected-(U1-Pad8)*%
X158295200Y-82357800D03*
%TO.P,U1,9*%
%TO.N,unconnected-(U1-Pad9)*%
X158295200Y-84897800D03*
%TO.P,U1,10*%
%TO.N,unconnected-(U1-Pad10)*%
X158295200Y-87437800D03*
%TO.P,U1,11*%
%TO.N,unconnected-(U1-Pad11)*%
X158295200Y-89977800D03*
%TO.P,U1,12*%
%TO.N,unconnected-(U1-Pad12)*%
X158295200Y-92517800D03*
%TO.P,U1,13*%
%TO.N,unconnected-(U1-Pad13)*%
X158295200Y-95057800D03*
%TO.P,U1,14*%
%TO.N,PYRO2*%
X158295200Y-97597800D03*
%TO.P,U1,15*%
%TO.N,unconnected-(U1-Pad15)*%
X158295200Y-100137800D03*
%TO.P,U1,16*%
%TO.N,unconnected-(U1-Pad16)*%
X101895200Y-100107800D03*
%TO.P,U1,17*%
%TO.N,PYRO1*%
X101895200Y-97567800D03*
%TO.P,U1,18*%
%TO.N,unconnected-(U1-Pad18)*%
X101895200Y-95027800D03*
%TO.P,U1,19*%
%TO.N,unconnected-(U1-Pad19)*%
X101895200Y-92487800D03*
%TO.P,U1,20*%
%TO.N,unconnected-(U1-Pad20)*%
X101895200Y-89947800D03*
%TO.P,U1,21*%
%TO.N,unconnected-(U1-Pad21)*%
X101895200Y-87407800D03*
%TO.P,U1,22*%
%TO.N,unconnected-(U1-Pad22)*%
X101895200Y-84867800D03*
%TO.P,U1,23*%
%TO.N,unconnected-(U1-Pad23)*%
X101895200Y-82327800D03*
%TO.P,U1,24*%
%TO.N,unconnected-(U1-Pad24)*%
X101895200Y-79787800D03*
%TO.P,U1,25*%
%TO.N,unconnected-(U1-Pad25)*%
X101895200Y-77247800D03*
%TO.P,U1,26*%
%TO.N,unconnected-(U1-Pad26)*%
X101895200Y-74707800D03*
%TO.P,U1,27*%
%TO.N,unconnected-(U1-Pad27)*%
X101895200Y-72167800D03*
%TO.P,U1,28*%
%TO.N,unconnected-(U1-Pad28)*%
X101895200Y-69627800D03*
%TO.P,U1,29*%
%TO.N,unconnected-(U1-Pad29)*%
X101895200Y-67087800D03*
D14*
%TO.P,U1,30*%
%TO.N,unconnected-(U1-Pad30)*%
X101895200Y-64547800D03*
%TO.P,U1,31*%
%TO.N,unconnected-(U1-Pad31)*%
X112320200Y-54162800D03*
D15*
%TO.P,U1,32*%
%TO.N,unconnected-(U1-Pad32)*%
X114860200Y-54162800D03*
%TO.P,U1,33*%
%TO.N,unconnected-(U1-Pad33)*%
X117400200Y-54162800D03*
%TO.P,U1,34*%
%TO.N,unconnected-(U1-Pad34)*%
X119940200Y-54162800D03*
%TO.P,U1,35*%
%TO.N,unconnected-(U1-Pad35)*%
X122480200Y-54162800D03*
%TO.P,U1,36*%
%TO.N,unconnected-(U1-Pad36)*%
X125020200Y-54162800D03*
%TO.P,U1,37*%
%TO.N,unconnected-(U1-Pad37)*%
X127560200Y-54162800D03*
%TO.P,U1,38*%
%TO.N,unconnected-(U1-Pad38)*%
X130100200Y-54162800D03*
%TO.P,U1,39*%
%TO.N,unconnected-(U1-Pad39)*%
X132640200Y-54162800D03*
%TO.P,U1,40*%
%TO.N,unconnected-(U1-Pad40)*%
X135180200Y-54162800D03*
%TO.P,U1,41*%
%TO.N,unconnected-(U1-Pad41)*%
X137720200Y-54162800D03*
%TO.P,U1,42*%
%TO.N,unconnected-(U1-Pad42)*%
X140260200Y-54162800D03*
%TO.P,U1,43*%
%TO.N,unconnected-(U1-Pad43)*%
X142800200Y-54162800D03*
%TO.P,U1,44*%
%TO.N,unconnected-(U1-Pad44)*%
X145340200Y-54162800D03*
%TO.P,U1,45*%
%TO.N,unconnected-(U1-Pad45)*%
X147880200Y-54162800D03*
D16*
%TO.P,U1,49,1*%
%TO.N,GND*%
X157895200Y-110162800D03*
%TO.P,U1,50,1*%
X102295200Y-110162800D03*
%TO.P,U1,51,1*%
X102295200Y-54462800D03*
%TO.P,U1,52,1*%
X157895200Y-54477800D03*
%TD*%
D12*
%TO.P,J2,1,Pin_1*%
%TO.N,7.4V_Pyro*%
X137795000Y-110236000D03*
D13*
%TO.P,J2,2,Pin_2*%
%TO.N,LOAD2*%
X142875000Y-110236000D03*
%TO.P,J2,3,Pin_3*%
%TO.N,GND*%
X147955000Y-110236000D03*
%TD*%
D10*
%TO.P,U2,1,GND*%
%TO.N,GND*%
X119481600Y-67157600D03*
%TO.P,U2,2,PWM*%
%TO.N,PYRO1*%
X115481600Y-67157600D03*
%TO.P,U2,3,-*%
%TO.N,GND*%
X123481600Y-97157600D03*
%TO.P,U2,4,LOAD*%
%TO.N,LOAD1*%
X117481600Y-97157600D03*
%TO.P,U2,5,+*%
%TO.N,7.4V_Pyro*%
X111481600Y-97157600D03*
D11*
%TO.P,U2,6*%
%TO.N,N/C*%
X123481600Y-66157600D03*
%TO.P,U2,7*%
X111481600Y-66157600D03*
%TD*%
D17*
%TO.N,GND*%
X154869600Y-107137200D02*
X157895200Y-110162800D01*
X102295200Y-105375200D02*
X102295200Y-110162800D01*
%TO.N,PYRO2*%
X141135600Y-67157600D02*
X141135600Y-80438200D01*
X141135600Y-80438200D02*
X158295200Y-97597800D01*
%TO.N,PYRO1*%
X101408499Y-91312800D02*
X102514600Y-91312800D01*
X102514600Y-91312800D02*
X115481600Y-78345800D01*
X101895200Y-97567800D02*
X100720200Y-96392800D01*
X115481600Y-78345800D02*
X115481600Y-67157600D01*
X100720200Y-92001099D02*
X101408499Y-91312800D01*
X100720200Y-96392800D02*
X100720200Y-92001099D01*
%TO.N,LOAD1*%
X117481600Y-109810800D02*
X117525800Y-109855000D01*
X117481600Y-97157600D02*
X117481600Y-109810800D01*
%TO.N,LOAD2*%
X143135600Y-109975400D02*
X142875000Y-110236000D01*
X143135600Y-97157600D02*
X143135600Y-109975400D01*
%TD*%
%TA.AperFunction,Conductor*%
%TO.N,7.4V_Pyro*%
G36*
X112626275Y-110618897D02*
G01*
X112677851Y-110666031D01*
X112695800Y-110730290D01*
X112695800Y-111855000D01*
X113993628Y-111855000D01*
X113993644Y-111854999D01*
X114053172Y-111848598D01*
X114053179Y-111848596D01*
X114187886Y-111798354D01*
X114187893Y-111798350D01*
X114302987Y-111712190D01*
X114327035Y-111680066D01*
X114382968Y-111638194D01*
X114452660Y-111633208D01*
X114513983Y-111666693D01*
X114547469Y-111728015D01*
X114550299Y-111753437D01*
X114552270Y-112014000D01*
X110363000Y-112014000D01*
X110363000Y-112242600D01*
X110359170Y-111779269D01*
X110378300Y-111712072D01*
X110430724Y-111665882D01*
X110499798Y-111655367D01*
X110563591Y-111683866D01*
X110582431Y-111703934D01*
X110588610Y-111712188D01*
X110588612Y-111712190D01*
X110703706Y-111798350D01*
X110703713Y-111798354D01*
X110838420Y-111848596D01*
X110838427Y-111848598D01*
X110897955Y-111854999D01*
X110897972Y-111855000D01*
X112195800Y-111855000D01*
X112195800Y-110733625D01*
X112215485Y-110666586D01*
X112268289Y-110620831D01*
X112337447Y-110610887D01*
X112348389Y-110612966D01*
X112356969Y-110615000D01*
X112356970Y-110615000D01*
X112490060Y-110615000D01*
X112490067Y-110615000D01*
X112557405Y-110607129D01*
X112626275Y-110618897D01*
G37*
%TD.AperFunction*%
%TA.AperFunction,Conductor*%
G36*
X114370974Y-95472885D02*
G01*
X114416729Y-95525689D01*
X114427930Y-95576261D01*
X114442198Y-97462420D01*
X114521271Y-107915909D01*
X114502095Y-107983095D01*
X114449638Y-108029249D01*
X114380557Y-108039715D01*
X114316783Y-108011171D01*
X114309709Y-108003632D01*
X114309260Y-108004082D01*
X114302987Y-107997809D01*
X114187893Y-107911649D01*
X114187886Y-107911645D01*
X114053179Y-107861403D01*
X114053172Y-107861401D01*
X113993644Y-107855000D01*
X112695800Y-107855000D01*
X112695800Y-108976374D01*
X112676115Y-109043413D01*
X112623311Y-109089168D01*
X112554153Y-109099112D01*
X112543207Y-109097032D01*
X112534632Y-109095000D01*
X112534631Y-109095000D01*
X112401533Y-109095000D01*
X112334193Y-109102870D01*
X112265323Y-109091102D01*
X112213748Y-109043966D01*
X112195800Y-108979709D01*
X112195800Y-107855000D01*
X110897955Y-107855000D01*
X110838427Y-107861401D01*
X110838420Y-107861403D01*
X110703713Y-107911645D01*
X110703706Y-107911649D01*
X110588612Y-107997809D01*
X110547640Y-108052540D01*
X110491705Y-108094411D01*
X110422014Y-108099394D01*
X110360691Y-108065908D01*
X110327207Y-108004584D01*
X110324382Y-107979606D01*
X110212836Y-97940490D01*
X110231774Y-97873238D01*
X110284067Y-97826899D01*
X110353110Y-97816188D01*
X110416985Y-97844505D01*
X110427049Y-97855541D01*
X110429858Y-97855787D01*
X110958650Y-97326995D01*
X111019973Y-97293510D01*
X111089664Y-97298494D01*
X111145598Y-97340365D01*
X111150139Y-97346854D01*
X111197413Y-97419212D01*
X111297757Y-97497313D01*
X111297760Y-97497314D01*
X111298111Y-97497587D01*
X111338924Y-97554297D01*
X111342599Y-97624070D01*
X111309630Y-97683122D01*
X110783411Y-98209341D01*
X110848182Y-98254694D01*
X110848192Y-98254700D01*
X111048315Y-98348019D01*
X111048329Y-98348024D01*
X111261613Y-98405173D01*
X111261623Y-98405175D01*
X111481599Y-98424421D01*
X111481601Y-98424421D01*
X111701576Y-98405175D01*
X111701586Y-98405173D01*
X111914870Y-98348024D01*
X111914884Y-98348019D01*
X112115008Y-98254700D01*
X112115020Y-98254693D01*
X112179786Y-98209342D01*
X112179787Y-98209340D01*
X111650876Y-97680429D01*
X111617391Y-97619106D01*
X111622375Y-97549414D01*
X111664247Y-97493481D01*
X111679533Y-97483697D01*
X111718851Y-97462420D01*
X111804971Y-97368869D01*
X111805683Y-97367243D01*
X111807252Y-97365377D01*
X111810592Y-97360266D01*
X111811209Y-97360669D01*
X111850636Y-97313758D01*
X111917370Y-97293064D01*
X111984699Y-97311735D01*
X112006922Y-97329369D01*
X112533340Y-97855787D01*
X112533342Y-97855786D01*
X112578693Y-97791020D01*
X112578700Y-97791008D01*
X112672019Y-97590884D01*
X112672024Y-97590870D01*
X112729173Y-97377586D01*
X112729175Y-97377576D01*
X112748421Y-97157600D01*
X112748421Y-97157599D01*
X112729175Y-96937623D01*
X112729173Y-96937613D01*
X112672024Y-96724329D01*
X112672020Y-96724320D01*
X112578698Y-96524190D01*
X112533340Y-96459411D01*
X112004549Y-96988202D01*
X111943226Y-97021687D01*
X111873534Y-97016703D01*
X111817601Y-96974831D01*
X111813060Y-96968343D01*
X111765789Y-96895991D01*
X111765787Y-96895988D01*
X111710273Y-96852780D01*
X111665443Y-96817887D01*
X111665440Y-96817885D01*
X111665088Y-96817612D01*
X111624275Y-96760901D01*
X111620600Y-96691129D01*
X111653569Y-96632077D01*
X112179787Y-96105858D01*
X112115009Y-96060500D01*
X112115007Y-96060499D01*
X111914884Y-95967180D01*
X111914870Y-95967175D01*
X111701586Y-95910026D01*
X111701576Y-95910024D01*
X111481601Y-95890779D01*
X111481599Y-95890779D01*
X111261623Y-95910024D01*
X111261613Y-95910026D01*
X111048329Y-95967175D01*
X111048320Y-95967179D01*
X110848186Y-96060503D01*
X110783412Y-96105857D01*
X110783411Y-96105858D01*
X111312323Y-96634770D01*
X111345808Y-96696093D01*
X111340824Y-96765785D01*
X111298952Y-96821718D01*
X111283659Y-96831506D01*
X111244349Y-96852779D01*
X111244348Y-96852779D01*
X111158226Y-96946333D01*
X111158226Y-96946334D01*
X111157511Y-96947965D01*
X111155940Y-96949833D01*
X111152608Y-96954934D01*
X111151991Y-96954531D01*
X111112552Y-97001449D01*
X111045815Y-97022135D01*
X110978488Y-97003457D01*
X110956277Y-96985830D01*
X110429858Y-96459411D01*
X110429857Y-96459412D01*
X110421306Y-96471624D01*
X110366728Y-96515248D01*
X110297230Y-96522440D01*
X110234876Y-96490917D01*
X110199463Y-96430687D01*
X110195740Y-96401884D01*
X110186593Y-95578577D01*
X110205531Y-95511324D01*
X110257824Y-95464985D01*
X110310585Y-95453200D01*
X114303935Y-95453200D01*
X114370974Y-95472885D01*
G37*
%TD.AperFunction*%
%TD*%
%TA.AperFunction,Conductor*%
%TO.N,7.4V_Pyro*%
G36*
X137975475Y-110999897D02*
G01*
X138027051Y-111047031D01*
X138045000Y-111111290D01*
X138045000Y-112236000D01*
X139342828Y-112236000D01*
X139342844Y-112235999D01*
X139402372Y-112229598D01*
X139402379Y-112229596D01*
X139537086Y-112179354D01*
X139537089Y-112179352D01*
X139606915Y-112127080D01*
X139672379Y-112102662D01*
X139740652Y-112117513D01*
X139790058Y-112166917D01*
X139805226Y-112225794D01*
X139806092Y-112420400D01*
X135616908Y-112420400D01*
X135619759Y-112038308D01*
X135639943Y-111971423D01*
X135693087Y-111926063D01*
X135762317Y-111916636D01*
X135825655Y-111946135D01*
X135845831Y-111971362D01*
X135846331Y-111970989D01*
X135937809Y-112093187D01*
X135937812Y-112093190D01*
X136052906Y-112179350D01*
X136052913Y-112179354D01*
X136187620Y-112229596D01*
X136187627Y-112229598D01*
X136247155Y-112235999D01*
X136247172Y-112236000D01*
X137545000Y-112236000D01*
X137545000Y-111114625D01*
X137564685Y-111047586D01*
X137617489Y-111001831D01*
X137686647Y-110991887D01*
X137697589Y-110993966D01*
X137706169Y-110996000D01*
X137706170Y-110996000D01*
X137839260Y-110996000D01*
X137839267Y-110996000D01*
X137906605Y-110988129D01*
X137975475Y-110999897D01*
G37*
%TD.AperFunction*%
%TA.AperFunction,Conductor*%
G36*
X139674160Y-95472885D02*
G01*
X139719915Y-95525689D01*
X139731120Y-95576648D01*
X139787449Y-108231793D01*
X139768063Y-108298919D01*
X139715463Y-108344909D01*
X139646349Y-108355160D01*
X139589139Y-108331611D01*
X139537093Y-108292649D01*
X139537086Y-108292645D01*
X139402379Y-108242403D01*
X139402372Y-108242401D01*
X139342844Y-108236000D01*
X138045000Y-108236000D01*
X138045000Y-109357374D01*
X138025315Y-109424413D01*
X137972511Y-109470168D01*
X137903353Y-109480112D01*
X137892407Y-109478032D01*
X137883832Y-109476000D01*
X137883831Y-109476000D01*
X137750733Y-109476000D01*
X137683393Y-109483870D01*
X137614523Y-109472102D01*
X137562948Y-109424966D01*
X137545000Y-109360709D01*
X137545000Y-108236000D01*
X136247155Y-108236000D01*
X136187627Y-108242401D01*
X136187620Y-108242403D01*
X136052913Y-108292645D01*
X136052906Y-108292649D01*
X135937812Y-108378809D01*
X135856050Y-108488028D01*
X135800116Y-108529898D01*
X135730424Y-108534882D01*
X135669101Y-108501396D01*
X135635617Y-108440072D01*
X135632792Y-108415094D01*
X135631501Y-108298919D01*
X135507709Y-97157600D01*
X135868779Y-97157600D01*
X135888024Y-97377576D01*
X135888026Y-97377586D01*
X135945175Y-97590870D01*
X135945180Y-97590884D01*
X136038499Y-97791007D01*
X136038500Y-97791009D01*
X136083858Y-97855787D01*
X136612650Y-97326995D01*
X136673973Y-97293510D01*
X136743664Y-97298494D01*
X136799598Y-97340365D01*
X136804139Y-97346854D01*
X136851413Y-97419212D01*
X136951757Y-97497313D01*
X136951760Y-97497314D01*
X136952111Y-97497587D01*
X136992924Y-97554297D01*
X136996599Y-97624070D01*
X136963630Y-97683122D01*
X136437411Y-98209341D01*
X136502182Y-98254694D01*
X136502192Y-98254700D01*
X136702315Y-98348019D01*
X136702329Y-98348024D01*
X136915613Y-98405173D01*
X136915623Y-98405175D01*
X137135599Y-98424421D01*
X137135601Y-98424421D01*
X137355576Y-98405175D01*
X137355586Y-98405173D01*
X137568870Y-98348024D01*
X137568884Y-98348019D01*
X137769008Y-98254700D01*
X137769020Y-98254693D01*
X137833786Y-98209342D01*
X137833787Y-98209340D01*
X137304876Y-97680429D01*
X137271391Y-97619106D01*
X137276375Y-97549414D01*
X137318247Y-97493481D01*
X137333533Y-97483697D01*
X137372851Y-97462420D01*
X137458971Y-97368869D01*
X137459683Y-97367243D01*
X137461252Y-97365377D01*
X137464592Y-97360266D01*
X137465209Y-97360669D01*
X137504636Y-97313758D01*
X137571370Y-97293064D01*
X137638699Y-97311735D01*
X137660922Y-97329369D01*
X138187340Y-97855787D01*
X138187342Y-97855786D01*
X138232693Y-97791020D01*
X138232700Y-97791008D01*
X138326019Y-97590884D01*
X138326024Y-97590870D01*
X138383173Y-97377586D01*
X138383175Y-97377576D01*
X138402421Y-97157600D01*
X138402421Y-97157599D01*
X138383175Y-96937623D01*
X138383173Y-96937613D01*
X138326024Y-96724329D01*
X138326020Y-96724320D01*
X138232698Y-96524190D01*
X138187340Y-96459411D01*
X137658549Y-96988202D01*
X137597226Y-97021687D01*
X137527534Y-97016703D01*
X137471601Y-96974831D01*
X137467060Y-96968343D01*
X137419789Y-96895991D01*
X137419787Y-96895988D01*
X137364273Y-96852780D01*
X137319443Y-96817887D01*
X137319440Y-96817885D01*
X137319088Y-96817612D01*
X137278275Y-96760901D01*
X137274600Y-96691129D01*
X137307569Y-96632077D01*
X137833787Y-96105858D01*
X137769009Y-96060500D01*
X137769007Y-96060499D01*
X137568884Y-95967180D01*
X137568870Y-95967175D01*
X137355586Y-95910026D01*
X137355576Y-95910024D01*
X137135601Y-95890779D01*
X137135599Y-95890779D01*
X136915623Y-95910024D01*
X136915613Y-95910026D01*
X136702329Y-95967175D01*
X136702320Y-95967179D01*
X136502186Y-96060503D01*
X136437412Y-96105857D01*
X136437411Y-96105858D01*
X136966323Y-96634770D01*
X136999808Y-96696093D01*
X136994824Y-96765785D01*
X136952952Y-96821718D01*
X136937659Y-96831506D01*
X136898349Y-96852779D01*
X136898348Y-96852779D01*
X136812226Y-96946333D01*
X136812226Y-96946334D01*
X136811511Y-96947965D01*
X136809940Y-96949833D01*
X136806608Y-96954934D01*
X136805991Y-96954531D01*
X136766552Y-97001449D01*
X136699815Y-97022135D01*
X136632488Y-97003457D01*
X136610277Y-96985830D01*
X136083858Y-96459411D01*
X136083857Y-96459412D01*
X136038503Y-96524186D01*
X135945179Y-96724320D01*
X135945175Y-96724329D01*
X135888026Y-96937613D01*
X135888024Y-96937623D01*
X135868779Y-97157599D01*
X135868779Y-97157600D01*
X135507709Y-97157600D01*
X135490164Y-95578577D01*
X135509102Y-95511324D01*
X135561395Y-95464985D01*
X135614156Y-95453200D01*
X139607121Y-95453200D01*
X139674160Y-95472885D01*
G37*
%TD.AperFunction*%
%TD*%
%TA.AperFunction,Conductor*%
%TO.N,7.4V_Pyro*%
G36*
X114552575Y-112054346D02*
G01*
X114553999Y-112067352D01*
X114553999Y-114299999D01*
X114554000Y-114299999D01*
X114554000Y-114300000D01*
X135534400Y-114401600D01*
X135635999Y-114401600D01*
X135636000Y-114401600D01*
X135611353Y-112479146D01*
X135616609Y-112460358D01*
X135616907Y-112420400D01*
X139806093Y-112420400D01*
X139806149Y-112433052D01*
X139824523Y-112466523D01*
X139827414Y-112492439D01*
X139851685Y-116715716D01*
X139832386Y-116782868D01*
X139779846Y-116828925D01*
X139728114Y-116840428D01*
X110487427Y-116941171D01*
X110420320Y-116921718D01*
X110374384Y-116869072D01*
X110363000Y-116817172D01*
X110363000Y-112242600D01*
X110363000Y-112242599D01*
X110363000Y-112014000D01*
X114552270Y-112014000D01*
X114552575Y-112054346D01*
G37*
%TD.AperFunction*%
%TD*%
M02*
