%TF.GenerationSoftware,KiCad,Pcbnew,7.0.7*%
%TF.CreationDate,2024-04-01T01:35:50+05:30*%
%TF.ProjectId,GPS_Stack,4750535f-5374-4616-936b-2e6b69636164,rev?*%
%TF.SameCoordinates,Original*%
%TF.FileFunction,Drillmap*%
%TF.FilePolarity,Positive*%
%FSLAX45Y45*%
G04 Gerber Fmt 4.5, Leading zero omitted, Abs format (unit mm)*
G04 Created by KiCad (PCBNEW 7.0.7) date 2024-04-01 01:35:50*
%MOMM*%
%LPD*%
G01*
G04 APERTURE LIST*
%ADD10C,0.200000*%
%ADD11C,0.100000*%
%ADD12C,0.127000*%
%ADD13C,0.840000*%
G04 APERTURE END LIST*
D10*
D11*
X8447000Y-7097900D02*
X8547000Y-7197900D01*
X8547000Y-7097900D02*
X8447000Y-7197900D01*
X8447000Y-7351900D02*
X8547000Y-7451900D01*
X8547000Y-7351900D02*
X8447000Y-7451900D01*
X8447000Y-7605900D02*
X8547000Y-7705900D01*
X8547000Y-7605900D02*
X8447000Y-7705900D01*
X8447000Y-7859900D02*
X8547000Y-7959900D01*
X8547000Y-7859900D02*
X8447000Y-7959900D01*
X8447000Y-8113900D02*
X8547000Y-8213900D01*
X8547000Y-8113900D02*
X8447000Y-8213900D01*
X8447000Y-8367900D02*
X8547000Y-8467900D01*
X8547000Y-8367900D02*
X8447000Y-8467900D01*
X8447000Y-8621900D02*
X8547000Y-8721900D01*
X8547000Y-8621900D02*
X8447000Y-8721900D01*
X8447000Y-8875900D02*
X8547000Y-8975900D01*
X8547000Y-8875900D02*
X8447000Y-8975900D01*
X8447000Y-9129900D02*
X8547000Y-9229900D01*
X8547000Y-9129900D02*
X8447000Y-9229900D01*
X8447000Y-9383900D02*
X8547000Y-9483900D01*
X8547000Y-9383900D02*
X8447000Y-9483900D01*
X8447000Y-9637900D02*
X8547000Y-9737900D01*
X8547000Y-9637900D02*
X8447000Y-9737900D01*
X8447000Y-9891900D02*
X8547000Y-9991900D01*
X8547000Y-9891900D02*
X8447000Y-9991900D01*
X8447000Y-10145900D02*
X8547000Y-10245900D01*
X8547000Y-10145900D02*
X8447000Y-10245900D01*
X8447000Y-10399900D02*
X8547000Y-10499900D01*
X8547000Y-10399900D02*
X8447000Y-10499900D01*
X8447000Y-10653900D02*
X8547000Y-10753900D01*
X8547000Y-10653900D02*
X8447000Y-10753900D01*
X9489500Y-6059400D02*
X9589500Y-6159400D01*
X9589500Y-6059400D02*
X9489500Y-6159400D01*
X9743500Y-6059400D02*
X9843500Y-6159400D01*
X9843500Y-6059400D02*
X9743500Y-6159400D01*
X9997500Y-6059400D02*
X10097500Y-6159400D01*
X10097500Y-6059400D02*
X9997500Y-6159400D01*
X10251500Y-6059400D02*
X10351500Y-6159400D01*
X10351500Y-6059400D02*
X10251500Y-6159400D01*
X10505500Y-6059400D02*
X10605500Y-6159400D01*
X10605500Y-6059400D02*
X10505500Y-6159400D01*
X10759500Y-6059400D02*
X10859500Y-6159400D01*
X10859500Y-6059400D02*
X10759500Y-6159400D01*
X11013500Y-6059400D02*
X11113500Y-6159400D01*
X11113500Y-6059400D02*
X11013500Y-6159400D01*
X11267500Y-6059400D02*
X11367500Y-6159400D01*
X11367500Y-6059400D02*
X11267500Y-6159400D01*
X11521500Y-6059400D02*
X11621500Y-6159400D01*
X11621500Y-6059400D02*
X11521500Y-6159400D01*
X11775500Y-6059400D02*
X11875500Y-6159400D01*
X11875500Y-6059400D02*
X11775500Y-6159400D01*
X12029500Y-6059400D02*
X12129500Y-6159400D01*
X12129500Y-6059400D02*
X12029500Y-6159400D01*
X12283500Y-6059400D02*
X12383500Y-6159400D01*
X12383500Y-6059400D02*
X12283500Y-6159400D01*
X12537500Y-6059400D02*
X12637500Y-6159400D01*
X12637500Y-6059400D02*
X12537500Y-6159400D01*
X12791500Y-6059400D02*
X12891500Y-6159400D01*
X12891500Y-6059400D02*
X12791500Y-6159400D01*
X13045500Y-6059400D02*
X13145500Y-6159400D01*
X13145500Y-6059400D02*
X13045500Y-6159400D01*
X14087000Y-7100900D02*
X14187000Y-7200900D01*
X14187000Y-7100900D02*
X14087000Y-7200900D01*
X14087000Y-7354900D02*
X14187000Y-7454900D01*
X14187000Y-7354900D02*
X14087000Y-7454900D01*
X14087000Y-7608900D02*
X14187000Y-7708900D01*
X14187000Y-7608900D02*
X14087000Y-7708900D01*
X14087000Y-7862900D02*
X14187000Y-7962900D01*
X14187000Y-7862900D02*
X14087000Y-7962900D01*
X14087000Y-8116900D02*
X14187000Y-8216900D01*
X14187000Y-8116900D02*
X14087000Y-8216900D01*
X14087000Y-8370900D02*
X14187000Y-8470900D01*
X14187000Y-8370900D02*
X14087000Y-8470900D01*
X14087000Y-8624900D02*
X14187000Y-8724900D01*
X14187000Y-8624900D02*
X14087000Y-8724900D01*
X14087000Y-8878900D02*
X14187000Y-8978900D01*
X14187000Y-8878900D02*
X14087000Y-8978900D01*
X14087000Y-9132900D02*
X14187000Y-9232900D01*
X14187000Y-9132900D02*
X14087000Y-9232900D01*
X14087000Y-9386900D02*
X14187000Y-9486900D01*
X14187000Y-9386900D02*
X14087000Y-9486900D01*
X14087000Y-9640900D02*
X14187000Y-9740900D01*
X14187000Y-9640900D02*
X14087000Y-9740900D01*
X14087000Y-9894900D02*
X14187000Y-9994900D01*
X14187000Y-9894900D02*
X14087000Y-9994900D01*
X14087000Y-10148900D02*
X14187000Y-10248900D01*
X14187000Y-10148900D02*
X14087000Y-10248900D01*
X14087000Y-10402900D02*
X14187000Y-10502900D01*
X14187000Y-10402900D02*
X14087000Y-10502900D01*
X14087000Y-10656900D02*
X14187000Y-10756900D01*
X14187000Y-10656900D02*
X14087000Y-10756900D01*
D12*
X10330180Y-8458200D02*
G75*
G03*
X10330180Y-8458200I-63500J0D01*
G01*
X10330180Y-8712200D02*
G75*
G03*
X10330180Y-8712200I-63500J0D01*
G01*
X10330180Y-8966200D02*
G75*
G03*
X10330180Y-8966200I-63500J0D01*
G01*
X10330180Y-9220200D02*
G75*
G03*
X10330180Y-9220200I-63500J0D01*
G01*
X10330180Y-9474200D02*
G75*
G03*
X10330180Y-9474200I-63500J0D01*
G01*
X10330180Y-9728200D02*
G75*
G03*
X10330180Y-9728200I-63500J0D01*
G01*
X10330180Y-9982200D02*
G75*
G03*
X10330180Y-9982200I-63500J0D01*
G01*
X10330180Y-10236200D02*
G75*
G03*
X10330180Y-10236200I-63500J0D01*
G01*
X12616180Y-8458200D02*
G75*
G03*
X12616180Y-8458200I-63500J0D01*
G01*
X12616180Y-8712200D02*
G75*
G03*
X12616180Y-8712200I-63500J0D01*
G01*
X12616180Y-8966200D02*
G75*
G03*
X12616180Y-8966200I-63500J0D01*
G01*
X12616180Y-9220200D02*
G75*
G03*
X12616180Y-9220200I-63500J0D01*
G01*
X12616180Y-9474200D02*
G75*
G03*
X12616180Y-9474200I-63500J0D01*
G01*
X12616180Y-9728200D02*
G75*
G03*
X12616180Y-9728200I-63500J0D01*
G01*
X12616180Y-9982200D02*
G75*
G03*
X12616180Y-9982200I-63500J0D01*
G01*
X12616180Y-10236200D02*
G75*
G03*
X12616180Y-10236200I-63500J0D01*
G01*
D13*
X8537000Y-5719400D02*
X8537000Y-6559400D01*
X8117000Y-6139400D02*
X8957000Y-6139400D01*
X8537000Y-11289400D02*
X8537000Y-12129400D01*
X8117000Y-11709400D02*
X8957000Y-11709400D01*
X14097000Y-5720900D02*
X14097000Y-6560900D01*
X13677000Y-6140900D02*
X14517000Y-6140900D01*
X14097000Y-11289400D02*
X14097000Y-12129400D01*
X13677000Y-11709400D02*
X14517000Y-11709400D01*
D10*
X8075277Y-12743384D02*
X8075277Y-12543384D01*
X8075277Y-12543384D02*
X8122896Y-12543384D01*
X8122896Y-12543384D02*
X8151467Y-12552908D01*
X8151467Y-12552908D02*
X8170515Y-12571955D01*
X8170515Y-12571955D02*
X8180039Y-12591003D01*
X8180039Y-12591003D02*
X8189562Y-12629098D01*
X8189562Y-12629098D02*
X8189562Y-12657669D01*
X8189562Y-12657669D02*
X8180039Y-12695765D01*
X8180039Y-12695765D02*
X8170515Y-12714812D01*
X8170515Y-12714812D02*
X8151467Y-12733860D01*
X8151467Y-12733860D02*
X8122896Y-12743384D01*
X8122896Y-12743384D02*
X8075277Y-12743384D01*
X8275277Y-12743384D02*
X8275277Y-12610050D01*
X8275277Y-12648146D02*
X8284801Y-12629098D01*
X8284801Y-12629098D02*
X8294324Y-12619574D01*
X8294324Y-12619574D02*
X8313372Y-12610050D01*
X8313372Y-12610050D02*
X8332420Y-12610050D01*
X8399086Y-12743384D02*
X8399086Y-12610050D01*
X8399086Y-12543384D02*
X8389563Y-12552908D01*
X8389563Y-12552908D02*
X8399086Y-12562431D01*
X8399086Y-12562431D02*
X8408610Y-12552908D01*
X8408610Y-12552908D02*
X8399086Y-12543384D01*
X8399086Y-12543384D02*
X8399086Y-12562431D01*
X8522896Y-12743384D02*
X8503848Y-12733860D01*
X8503848Y-12733860D02*
X8494324Y-12714812D01*
X8494324Y-12714812D02*
X8494324Y-12543384D01*
X8627658Y-12743384D02*
X8608610Y-12733860D01*
X8608610Y-12733860D02*
X8599086Y-12714812D01*
X8599086Y-12714812D02*
X8599086Y-12543384D01*
X8856229Y-12743384D02*
X8856229Y-12543384D01*
X8856229Y-12543384D02*
X8922896Y-12686241D01*
X8922896Y-12686241D02*
X8989563Y-12543384D01*
X8989563Y-12543384D02*
X8989563Y-12743384D01*
X9170515Y-12743384D02*
X9170515Y-12638622D01*
X9170515Y-12638622D02*
X9160991Y-12619574D01*
X9160991Y-12619574D02*
X9141944Y-12610050D01*
X9141944Y-12610050D02*
X9103848Y-12610050D01*
X9103848Y-12610050D02*
X9084801Y-12619574D01*
X9170515Y-12733860D02*
X9151467Y-12743384D01*
X9151467Y-12743384D02*
X9103848Y-12743384D01*
X9103848Y-12743384D02*
X9084801Y-12733860D01*
X9084801Y-12733860D02*
X9075277Y-12714812D01*
X9075277Y-12714812D02*
X9075277Y-12695765D01*
X9075277Y-12695765D02*
X9084801Y-12676717D01*
X9084801Y-12676717D02*
X9103848Y-12667193D01*
X9103848Y-12667193D02*
X9151467Y-12667193D01*
X9151467Y-12667193D02*
X9170515Y-12657669D01*
X9265753Y-12610050D02*
X9265753Y-12810050D01*
X9265753Y-12619574D02*
X9284801Y-12610050D01*
X9284801Y-12610050D02*
X9322896Y-12610050D01*
X9322896Y-12610050D02*
X9341944Y-12619574D01*
X9341944Y-12619574D02*
X9351467Y-12629098D01*
X9351467Y-12629098D02*
X9360991Y-12648146D01*
X9360991Y-12648146D02*
X9360991Y-12705288D01*
X9360991Y-12705288D02*
X9351467Y-12724336D01*
X9351467Y-12724336D02*
X9341944Y-12733860D01*
X9341944Y-12733860D02*
X9322896Y-12743384D01*
X9322896Y-12743384D02*
X9284801Y-12743384D01*
X9284801Y-12743384D02*
X9265753Y-12733860D01*
X9446705Y-12724336D02*
X9456229Y-12733860D01*
X9456229Y-12733860D02*
X9446705Y-12743384D01*
X9446705Y-12743384D02*
X9437182Y-12733860D01*
X9437182Y-12733860D02*
X9446705Y-12724336D01*
X9446705Y-12724336D02*
X9446705Y-12743384D01*
X9446705Y-12619574D02*
X9456229Y-12629098D01*
X9456229Y-12629098D02*
X9446705Y-12638622D01*
X9446705Y-12638622D02*
X9437182Y-12629098D01*
X9437182Y-12629098D02*
X9446705Y-12619574D01*
X9446705Y-12619574D02*
X9446705Y-12638622D01*
D11*
X7714500Y-13021900D02*
X7814500Y-13121900D01*
X7814500Y-13021900D02*
X7714500Y-13121900D01*
D10*
X8180039Y-13163384D02*
X8065753Y-13163384D01*
X8122896Y-13163384D02*
X8122896Y-12963384D01*
X8122896Y-12963384D02*
X8103848Y-12991955D01*
X8103848Y-12991955D02*
X8084801Y-13011003D01*
X8084801Y-13011003D02*
X8065753Y-13020527D01*
X8265753Y-13144336D02*
X8275277Y-13153860D01*
X8275277Y-13153860D02*
X8265753Y-13163384D01*
X8265753Y-13163384D02*
X8256229Y-13153860D01*
X8256229Y-13153860D02*
X8265753Y-13144336D01*
X8265753Y-13144336D02*
X8265753Y-13163384D01*
X8399086Y-12963384D02*
X8418134Y-12963384D01*
X8418134Y-12963384D02*
X8437182Y-12972908D01*
X8437182Y-12972908D02*
X8446705Y-12982431D01*
X8446705Y-12982431D02*
X8456229Y-13001479D01*
X8456229Y-13001479D02*
X8465753Y-13039574D01*
X8465753Y-13039574D02*
X8465753Y-13087193D01*
X8465753Y-13087193D02*
X8456229Y-13125288D01*
X8456229Y-13125288D02*
X8446705Y-13144336D01*
X8446705Y-13144336D02*
X8437182Y-13153860D01*
X8437182Y-13153860D02*
X8418134Y-13163384D01*
X8418134Y-13163384D02*
X8399086Y-13163384D01*
X8399086Y-13163384D02*
X8380039Y-13153860D01*
X8380039Y-13153860D02*
X8370515Y-13144336D01*
X8370515Y-13144336D02*
X8360991Y-13125288D01*
X8360991Y-13125288D02*
X8351467Y-13087193D01*
X8351467Y-13087193D02*
X8351467Y-13039574D01*
X8351467Y-13039574D02*
X8360991Y-13001479D01*
X8360991Y-13001479D02*
X8370515Y-12982431D01*
X8370515Y-12982431D02*
X8380039Y-12972908D01*
X8380039Y-12972908D02*
X8399086Y-12963384D01*
X8589563Y-12963384D02*
X8608610Y-12963384D01*
X8608610Y-12963384D02*
X8627658Y-12972908D01*
X8627658Y-12972908D02*
X8637182Y-12982431D01*
X8637182Y-12982431D02*
X8646705Y-13001479D01*
X8646705Y-13001479D02*
X8656229Y-13039574D01*
X8656229Y-13039574D02*
X8656229Y-13087193D01*
X8656229Y-13087193D02*
X8646705Y-13125288D01*
X8646705Y-13125288D02*
X8637182Y-13144336D01*
X8637182Y-13144336D02*
X8627658Y-13153860D01*
X8627658Y-13153860D02*
X8608610Y-13163384D01*
X8608610Y-13163384D02*
X8589563Y-13163384D01*
X8589563Y-13163384D02*
X8570515Y-13153860D01*
X8570515Y-13153860D02*
X8560991Y-13144336D01*
X8560991Y-13144336D02*
X8551467Y-13125288D01*
X8551467Y-13125288D02*
X8541944Y-13087193D01*
X8541944Y-13087193D02*
X8541944Y-13039574D01*
X8541944Y-13039574D02*
X8551467Y-13001479D01*
X8551467Y-13001479D02*
X8560991Y-12982431D01*
X8560991Y-12982431D02*
X8570515Y-12972908D01*
X8570515Y-12972908D02*
X8589563Y-12963384D01*
X8780039Y-12963384D02*
X8799086Y-12963384D01*
X8799086Y-12963384D02*
X8818134Y-12972908D01*
X8818134Y-12972908D02*
X8827658Y-12982431D01*
X8827658Y-12982431D02*
X8837182Y-13001479D01*
X8837182Y-13001479D02*
X8846705Y-13039574D01*
X8846705Y-13039574D02*
X8846705Y-13087193D01*
X8846705Y-13087193D02*
X8837182Y-13125288D01*
X8837182Y-13125288D02*
X8827658Y-13144336D01*
X8827658Y-13144336D02*
X8818134Y-13153860D01*
X8818134Y-13153860D02*
X8799086Y-13163384D01*
X8799086Y-13163384D02*
X8780039Y-13163384D01*
X8780039Y-13163384D02*
X8760991Y-13153860D01*
X8760991Y-13153860D02*
X8751467Y-13144336D01*
X8751467Y-13144336D02*
X8741944Y-13125288D01*
X8741944Y-13125288D02*
X8732420Y-13087193D01*
X8732420Y-13087193D02*
X8732420Y-13039574D01*
X8732420Y-13039574D02*
X8741944Y-13001479D01*
X8741944Y-13001479D02*
X8751467Y-12982431D01*
X8751467Y-12982431D02*
X8760991Y-12972908D01*
X8760991Y-12972908D02*
X8780039Y-12963384D01*
X8932420Y-13163384D02*
X8932420Y-13030050D01*
X8932420Y-13049098D02*
X8941944Y-13039574D01*
X8941944Y-13039574D02*
X8960991Y-13030050D01*
X8960991Y-13030050D02*
X8989563Y-13030050D01*
X8989563Y-13030050D02*
X9008610Y-13039574D01*
X9008610Y-13039574D02*
X9018134Y-13058622D01*
X9018134Y-13058622D02*
X9018134Y-13163384D01*
X9018134Y-13058622D02*
X9027658Y-13039574D01*
X9027658Y-13039574D02*
X9046705Y-13030050D01*
X9046705Y-13030050D02*
X9075277Y-13030050D01*
X9075277Y-13030050D02*
X9094325Y-13039574D01*
X9094325Y-13039574D02*
X9103848Y-13058622D01*
X9103848Y-13058622D02*
X9103848Y-13163384D01*
X9199086Y-13163384D02*
X9199086Y-13030050D01*
X9199086Y-13049098D02*
X9208610Y-13039574D01*
X9208610Y-13039574D02*
X9227658Y-13030050D01*
X9227658Y-13030050D02*
X9256229Y-13030050D01*
X9256229Y-13030050D02*
X9275277Y-13039574D01*
X9275277Y-13039574D02*
X9284801Y-13058622D01*
X9284801Y-13058622D02*
X9284801Y-13163384D01*
X9284801Y-13058622D02*
X9294325Y-13039574D01*
X9294325Y-13039574D02*
X9313372Y-13030050D01*
X9313372Y-13030050D02*
X9341944Y-13030050D01*
X9341944Y-13030050D02*
X9360991Y-13039574D01*
X9360991Y-13039574D02*
X9370515Y-13058622D01*
X9370515Y-13058622D02*
X9370515Y-13163384D01*
X9760991Y-12953860D02*
X9589563Y-13211003D01*
X10018134Y-12963384D02*
X10037182Y-12963384D01*
X10037182Y-12963384D02*
X10056229Y-12972908D01*
X10056229Y-12972908D02*
X10065753Y-12982431D01*
X10065753Y-12982431D02*
X10075277Y-13001479D01*
X10075277Y-13001479D02*
X10084801Y-13039574D01*
X10084801Y-13039574D02*
X10084801Y-13087193D01*
X10084801Y-13087193D02*
X10075277Y-13125288D01*
X10075277Y-13125288D02*
X10065753Y-13144336D01*
X10065753Y-13144336D02*
X10056229Y-13153860D01*
X10056229Y-13153860D02*
X10037182Y-13163384D01*
X10037182Y-13163384D02*
X10018134Y-13163384D01*
X10018134Y-13163384D02*
X9999087Y-13153860D01*
X9999087Y-13153860D02*
X9989563Y-13144336D01*
X9989563Y-13144336D02*
X9980039Y-13125288D01*
X9980039Y-13125288D02*
X9970515Y-13087193D01*
X9970515Y-13087193D02*
X9970515Y-13039574D01*
X9970515Y-13039574D02*
X9980039Y-13001479D01*
X9980039Y-13001479D02*
X9989563Y-12982431D01*
X9989563Y-12982431D02*
X9999087Y-12972908D01*
X9999087Y-12972908D02*
X10018134Y-12963384D01*
X10170515Y-13144336D02*
X10180039Y-13153860D01*
X10180039Y-13153860D02*
X10170515Y-13163384D01*
X10170515Y-13163384D02*
X10160991Y-13153860D01*
X10160991Y-13153860D02*
X10170515Y-13144336D01*
X10170515Y-13144336D02*
X10170515Y-13163384D01*
X10303848Y-12963384D02*
X10322896Y-12963384D01*
X10322896Y-12963384D02*
X10341944Y-12972908D01*
X10341944Y-12972908D02*
X10351468Y-12982431D01*
X10351468Y-12982431D02*
X10360991Y-13001479D01*
X10360991Y-13001479D02*
X10370515Y-13039574D01*
X10370515Y-13039574D02*
X10370515Y-13087193D01*
X10370515Y-13087193D02*
X10360991Y-13125288D01*
X10360991Y-13125288D02*
X10351468Y-13144336D01*
X10351468Y-13144336D02*
X10341944Y-13153860D01*
X10341944Y-13153860D02*
X10322896Y-13163384D01*
X10322896Y-13163384D02*
X10303848Y-13163384D01*
X10303848Y-13163384D02*
X10284801Y-13153860D01*
X10284801Y-13153860D02*
X10275277Y-13144336D01*
X10275277Y-13144336D02*
X10265753Y-13125288D01*
X10265753Y-13125288D02*
X10256229Y-13087193D01*
X10256229Y-13087193D02*
X10256229Y-13039574D01*
X10256229Y-13039574D02*
X10265753Y-13001479D01*
X10265753Y-13001479D02*
X10275277Y-12982431D01*
X10275277Y-12982431D02*
X10284801Y-12972908D01*
X10284801Y-12972908D02*
X10303848Y-12963384D01*
X10437182Y-12963384D02*
X10560991Y-12963384D01*
X10560991Y-12963384D02*
X10494325Y-13039574D01*
X10494325Y-13039574D02*
X10522896Y-13039574D01*
X10522896Y-13039574D02*
X10541944Y-13049098D01*
X10541944Y-13049098D02*
X10551468Y-13058622D01*
X10551468Y-13058622D02*
X10560991Y-13077669D01*
X10560991Y-13077669D02*
X10560991Y-13125288D01*
X10560991Y-13125288D02*
X10551468Y-13144336D01*
X10551468Y-13144336D02*
X10541944Y-13153860D01*
X10541944Y-13153860D02*
X10522896Y-13163384D01*
X10522896Y-13163384D02*
X10465753Y-13163384D01*
X10465753Y-13163384D02*
X10446706Y-13153860D01*
X10446706Y-13153860D02*
X10437182Y-13144336D01*
X10656229Y-13163384D02*
X10694325Y-13163384D01*
X10694325Y-13163384D02*
X10713372Y-13153860D01*
X10713372Y-13153860D02*
X10722896Y-13144336D01*
X10722896Y-13144336D02*
X10741944Y-13115765D01*
X10741944Y-13115765D02*
X10751468Y-13077669D01*
X10751468Y-13077669D02*
X10751468Y-13001479D01*
X10751468Y-13001479D02*
X10741944Y-12982431D01*
X10741944Y-12982431D02*
X10732420Y-12972908D01*
X10732420Y-12972908D02*
X10713372Y-12963384D01*
X10713372Y-12963384D02*
X10675277Y-12963384D01*
X10675277Y-12963384D02*
X10656229Y-12972908D01*
X10656229Y-12972908D02*
X10646706Y-12982431D01*
X10646706Y-12982431D02*
X10637182Y-13001479D01*
X10637182Y-13001479D02*
X10637182Y-13049098D01*
X10637182Y-13049098D02*
X10646706Y-13068146D01*
X10646706Y-13068146D02*
X10656229Y-13077669D01*
X10656229Y-13077669D02*
X10675277Y-13087193D01*
X10675277Y-13087193D02*
X10713372Y-13087193D01*
X10713372Y-13087193D02*
X10732420Y-13077669D01*
X10732420Y-13077669D02*
X10741944Y-13068146D01*
X10741944Y-13068146D02*
X10751468Y-13049098D01*
X10922896Y-13030050D02*
X10922896Y-13163384D01*
X10875277Y-12953860D02*
X10827658Y-13096717D01*
X10827658Y-13096717D02*
X10951468Y-13096717D01*
X11018134Y-12963384D02*
X11018134Y-13001479D01*
X11094325Y-12963384D02*
X11094325Y-13001479D01*
X11389563Y-13239574D02*
X11380039Y-13230050D01*
X11380039Y-13230050D02*
X11360991Y-13201479D01*
X11360991Y-13201479D02*
X11351468Y-13182431D01*
X11351468Y-13182431D02*
X11341944Y-13153860D01*
X11341944Y-13153860D02*
X11332420Y-13106241D01*
X11332420Y-13106241D02*
X11332420Y-13068146D01*
X11332420Y-13068146D02*
X11341944Y-13020527D01*
X11341944Y-13020527D02*
X11351468Y-12991955D01*
X11351468Y-12991955D02*
X11360991Y-12972908D01*
X11360991Y-12972908D02*
X11380039Y-12944336D01*
X11380039Y-12944336D02*
X11389563Y-12934812D01*
X11551468Y-13030050D02*
X11551468Y-13163384D01*
X11503848Y-12953860D02*
X11456229Y-13096717D01*
X11456229Y-13096717D02*
X11580039Y-13096717D01*
X11751468Y-12963384D02*
X11656229Y-12963384D01*
X11656229Y-12963384D02*
X11646706Y-13058622D01*
X11646706Y-13058622D02*
X11656229Y-13049098D01*
X11656229Y-13049098D02*
X11675277Y-13039574D01*
X11675277Y-13039574D02*
X11722896Y-13039574D01*
X11722896Y-13039574D02*
X11741944Y-13049098D01*
X11741944Y-13049098D02*
X11751468Y-13058622D01*
X11751468Y-13058622D02*
X11760991Y-13077669D01*
X11760991Y-13077669D02*
X11760991Y-13125288D01*
X11760991Y-13125288D02*
X11751468Y-13144336D01*
X11751468Y-13144336D02*
X11741944Y-13153860D01*
X11741944Y-13153860D02*
X11722896Y-13163384D01*
X11722896Y-13163384D02*
X11675277Y-13163384D01*
X11675277Y-13163384D02*
X11656229Y-13153860D01*
X11656229Y-13153860D02*
X11646706Y-13144336D01*
X11999087Y-13163384D02*
X11999087Y-12963384D01*
X12084801Y-13163384D02*
X12084801Y-13058622D01*
X12084801Y-13058622D02*
X12075277Y-13039574D01*
X12075277Y-13039574D02*
X12056230Y-13030050D01*
X12056230Y-13030050D02*
X12027658Y-13030050D01*
X12027658Y-13030050D02*
X12008610Y-13039574D01*
X12008610Y-13039574D02*
X11999087Y-13049098D01*
X12208610Y-13163384D02*
X12189563Y-13153860D01*
X12189563Y-13153860D02*
X12180039Y-13144336D01*
X12180039Y-13144336D02*
X12170515Y-13125288D01*
X12170515Y-13125288D02*
X12170515Y-13068146D01*
X12170515Y-13068146D02*
X12180039Y-13049098D01*
X12180039Y-13049098D02*
X12189563Y-13039574D01*
X12189563Y-13039574D02*
X12208610Y-13030050D01*
X12208610Y-13030050D02*
X12237182Y-13030050D01*
X12237182Y-13030050D02*
X12256230Y-13039574D01*
X12256230Y-13039574D02*
X12265753Y-13049098D01*
X12265753Y-13049098D02*
X12275277Y-13068146D01*
X12275277Y-13068146D02*
X12275277Y-13125288D01*
X12275277Y-13125288D02*
X12265753Y-13144336D01*
X12265753Y-13144336D02*
X12256230Y-13153860D01*
X12256230Y-13153860D02*
X12237182Y-13163384D01*
X12237182Y-13163384D02*
X12208610Y-13163384D01*
X12389563Y-13163384D02*
X12370515Y-13153860D01*
X12370515Y-13153860D02*
X12360991Y-13134812D01*
X12360991Y-13134812D02*
X12360991Y-12963384D01*
X12541944Y-13153860D02*
X12522896Y-13163384D01*
X12522896Y-13163384D02*
X12484801Y-13163384D01*
X12484801Y-13163384D02*
X12465753Y-13153860D01*
X12465753Y-13153860D02*
X12456230Y-13134812D01*
X12456230Y-13134812D02*
X12456230Y-13058622D01*
X12456230Y-13058622D02*
X12465753Y-13039574D01*
X12465753Y-13039574D02*
X12484801Y-13030050D01*
X12484801Y-13030050D02*
X12522896Y-13030050D01*
X12522896Y-13030050D02*
X12541944Y-13039574D01*
X12541944Y-13039574D02*
X12551468Y-13058622D01*
X12551468Y-13058622D02*
X12551468Y-13077669D01*
X12551468Y-13077669D02*
X12456230Y-13096717D01*
X12627658Y-13153860D02*
X12646706Y-13163384D01*
X12646706Y-13163384D02*
X12684801Y-13163384D01*
X12684801Y-13163384D02*
X12703849Y-13153860D01*
X12703849Y-13153860D02*
X12713372Y-13134812D01*
X12713372Y-13134812D02*
X12713372Y-13125288D01*
X12713372Y-13125288D02*
X12703849Y-13106241D01*
X12703849Y-13106241D02*
X12684801Y-13096717D01*
X12684801Y-13096717D02*
X12656230Y-13096717D01*
X12656230Y-13096717D02*
X12637182Y-13087193D01*
X12637182Y-13087193D02*
X12627658Y-13068146D01*
X12627658Y-13068146D02*
X12627658Y-13058622D01*
X12627658Y-13058622D02*
X12637182Y-13039574D01*
X12637182Y-13039574D02*
X12656230Y-13030050D01*
X12656230Y-13030050D02*
X12684801Y-13030050D01*
X12684801Y-13030050D02*
X12703849Y-13039574D01*
X12780039Y-13239574D02*
X12789563Y-13230050D01*
X12789563Y-13230050D02*
X12808611Y-13201479D01*
X12808611Y-13201479D02*
X12818134Y-13182431D01*
X12818134Y-13182431D02*
X12827658Y-13153860D01*
X12827658Y-13153860D02*
X12837182Y-13106241D01*
X12837182Y-13106241D02*
X12837182Y-13068146D01*
X12837182Y-13068146D02*
X12827658Y-13020527D01*
X12827658Y-13020527D02*
X12818134Y-12991955D01*
X12818134Y-12991955D02*
X12808611Y-12972908D01*
X12808611Y-12972908D02*
X12789563Y-12944336D01*
X12789563Y-12944336D02*
X12780039Y-12934812D01*
D12*
X7814500Y-13335900D02*
G75*
G03*
X7814500Y-13335900I-63500J0D01*
G01*
D10*
X8180039Y-13427384D02*
X8065753Y-13427384D01*
X8122896Y-13427384D02*
X8122896Y-13227384D01*
X8122896Y-13227384D02*
X8103848Y-13255955D01*
X8103848Y-13255955D02*
X8084801Y-13275003D01*
X8084801Y-13275003D02*
X8065753Y-13284527D01*
X8265753Y-13408336D02*
X8275277Y-13417860D01*
X8275277Y-13417860D02*
X8265753Y-13427384D01*
X8265753Y-13427384D02*
X8256229Y-13417860D01*
X8256229Y-13417860D02*
X8265753Y-13408336D01*
X8265753Y-13408336D02*
X8265753Y-13427384D01*
X8351467Y-13246431D02*
X8360991Y-13236908D01*
X8360991Y-13236908D02*
X8380039Y-13227384D01*
X8380039Y-13227384D02*
X8427658Y-13227384D01*
X8427658Y-13227384D02*
X8446705Y-13236908D01*
X8446705Y-13236908D02*
X8456229Y-13246431D01*
X8456229Y-13246431D02*
X8465753Y-13265479D01*
X8465753Y-13265479D02*
X8465753Y-13284527D01*
X8465753Y-13284527D02*
X8456229Y-13313098D01*
X8456229Y-13313098D02*
X8341943Y-13427384D01*
X8341943Y-13427384D02*
X8465753Y-13427384D01*
X8532420Y-13227384D02*
X8665753Y-13227384D01*
X8665753Y-13227384D02*
X8580039Y-13427384D01*
X8780039Y-13227384D02*
X8799086Y-13227384D01*
X8799086Y-13227384D02*
X8818134Y-13236908D01*
X8818134Y-13236908D02*
X8827658Y-13246431D01*
X8827658Y-13246431D02*
X8837182Y-13265479D01*
X8837182Y-13265479D02*
X8846705Y-13303574D01*
X8846705Y-13303574D02*
X8846705Y-13351193D01*
X8846705Y-13351193D02*
X8837182Y-13389288D01*
X8837182Y-13389288D02*
X8827658Y-13408336D01*
X8827658Y-13408336D02*
X8818134Y-13417860D01*
X8818134Y-13417860D02*
X8799086Y-13427384D01*
X8799086Y-13427384D02*
X8780039Y-13427384D01*
X8780039Y-13427384D02*
X8760991Y-13417860D01*
X8760991Y-13417860D02*
X8751467Y-13408336D01*
X8751467Y-13408336D02*
X8741944Y-13389288D01*
X8741944Y-13389288D02*
X8732420Y-13351193D01*
X8732420Y-13351193D02*
X8732420Y-13303574D01*
X8732420Y-13303574D02*
X8741944Y-13265479D01*
X8741944Y-13265479D02*
X8751467Y-13246431D01*
X8751467Y-13246431D02*
X8760991Y-13236908D01*
X8760991Y-13236908D02*
X8780039Y-13227384D01*
X8932420Y-13427384D02*
X8932420Y-13294050D01*
X8932420Y-13313098D02*
X8941944Y-13303574D01*
X8941944Y-13303574D02*
X8960991Y-13294050D01*
X8960991Y-13294050D02*
X8989563Y-13294050D01*
X8989563Y-13294050D02*
X9008610Y-13303574D01*
X9008610Y-13303574D02*
X9018134Y-13322622D01*
X9018134Y-13322622D02*
X9018134Y-13427384D01*
X9018134Y-13322622D02*
X9027658Y-13303574D01*
X9027658Y-13303574D02*
X9046705Y-13294050D01*
X9046705Y-13294050D02*
X9075277Y-13294050D01*
X9075277Y-13294050D02*
X9094325Y-13303574D01*
X9094325Y-13303574D02*
X9103848Y-13322622D01*
X9103848Y-13322622D02*
X9103848Y-13427384D01*
X9199086Y-13427384D02*
X9199086Y-13294050D01*
X9199086Y-13313098D02*
X9208610Y-13303574D01*
X9208610Y-13303574D02*
X9227658Y-13294050D01*
X9227658Y-13294050D02*
X9256229Y-13294050D01*
X9256229Y-13294050D02*
X9275277Y-13303574D01*
X9275277Y-13303574D02*
X9284801Y-13322622D01*
X9284801Y-13322622D02*
X9284801Y-13427384D01*
X9284801Y-13322622D02*
X9294325Y-13303574D01*
X9294325Y-13303574D02*
X9313372Y-13294050D01*
X9313372Y-13294050D02*
X9341944Y-13294050D01*
X9341944Y-13294050D02*
X9360991Y-13303574D01*
X9360991Y-13303574D02*
X9370515Y-13322622D01*
X9370515Y-13322622D02*
X9370515Y-13427384D01*
X9760991Y-13217860D02*
X9589563Y-13475003D01*
X10018134Y-13227384D02*
X10037182Y-13227384D01*
X10037182Y-13227384D02*
X10056229Y-13236908D01*
X10056229Y-13236908D02*
X10065753Y-13246431D01*
X10065753Y-13246431D02*
X10075277Y-13265479D01*
X10075277Y-13265479D02*
X10084801Y-13303574D01*
X10084801Y-13303574D02*
X10084801Y-13351193D01*
X10084801Y-13351193D02*
X10075277Y-13389288D01*
X10075277Y-13389288D02*
X10065753Y-13408336D01*
X10065753Y-13408336D02*
X10056229Y-13417860D01*
X10056229Y-13417860D02*
X10037182Y-13427384D01*
X10037182Y-13427384D02*
X10018134Y-13427384D01*
X10018134Y-13427384D02*
X9999087Y-13417860D01*
X9999087Y-13417860D02*
X9989563Y-13408336D01*
X9989563Y-13408336D02*
X9980039Y-13389288D01*
X9980039Y-13389288D02*
X9970515Y-13351193D01*
X9970515Y-13351193D02*
X9970515Y-13303574D01*
X9970515Y-13303574D02*
X9980039Y-13265479D01*
X9980039Y-13265479D02*
X9989563Y-13246431D01*
X9989563Y-13246431D02*
X9999087Y-13236908D01*
X9999087Y-13236908D02*
X10018134Y-13227384D01*
X10170515Y-13408336D02*
X10180039Y-13417860D01*
X10180039Y-13417860D02*
X10170515Y-13427384D01*
X10170515Y-13427384D02*
X10160991Y-13417860D01*
X10160991Y-13417860D02*
X10170515Y-13408336D01*
X10170515Y-13408336D02*
X10170515Y-13427384D01*
X10303848Y-13227384D02*
X10322896Y-13227384D01*
X10322896Y-13227384D02*
X10341944Y-13236908D01*
X10341944Y-13236908D02*
X10351468Y-13246431D01*
X10351468Y-13246431D02*
X10360991Y-13265479D01*
X10360991Y-13265479D02*
X10370515Y-13303574D01*
X10370515Y-13303574D02*
X10370515Y-13351193D01*
X10370515Y-13351193D02*
X10360991Y-13389288D01*
X10360991Y-13389288D02*
X10351468Y-13408336D01*
X10351468Y-13408336D02*
X10341944Y-13417860D01*
X10341944Y-13417860D02*
X10322896Y-13427384D01*
X10322896Y-13427384D02*
X10303848Y-13427384D01*
X10303848Y-13427384D02*
X10284801Y-13417860D01*
X10284801Y-13417860D02*
X10275277Y-13408336D01*
X10275277Y-13408336D02*
X10265753Y-13389288D01*
X10265753Y-13389288D02*
X10256229Y-13351193D01*
X10256229Y-13351193D02*
X10256229Y-13303574D01*
X10256229Y-13303574D02*
X10265753Y-13265479D01*
X10265753Y-13265479D02*
X10275277Y-13246431D01*
X10275277Y-13246431D02*
X10284801Y-13236908D01*
X10284801Y-13236908D02*
X10303848Y-13227384D01*
X10551468Y-13227384D02*
X10456229Y-13227384D01*
X10456229Y-13227384D02*
X10446706Y-13322622D01*
X10446706Y-13322622D02*
X10456229Y-13313098D01*
X10456229Y-13313098D02*
X10475277Y-13303574D01*
X10475277Y-13303574D02*
X10522896Y-13303574D01*
X10522896Y-13303574D02*
X10541944Y-13313098D01*
X10541944Y-13313098D02*
X10551468Y-13322622D01*
X10551468Y-13322622D02*
X10560991Y-13341669D01*
X10560991Y-13341669D02*
X10560991Y-13389288D01*
X10560991Y-13389288D02*
X10551468Y-13408336D01*
X10551468Y-13408336D02*
X10541944Y-13417860D01*
X10541944Y-13417860D02*
X10522896Y-13427384D01*
X10522896Y-13427384D02*
X10475277Y-13427384D01*
X10475277Y-13427384D02*
X10456229Y-13417860D01*
X10456229Y-13417860D02*
X10446706Y-13408336D01*
X10684801Y-13227384D02*
X10703849Y-13227384D01*
X10703849Y-13227384D02*
X10722896Y-13236908D01*
X10722896Y-13236908D02*
X10732420Y-13246431D01*
X10732420Y-13246431D02*
X10741944Y-13265479D01*
X10741944Y-13265479D02*
X10751468Y-13303574D01*
X10751468Y-13303574D02*
X10751468Y-13351193D01*
X10751468Y-13351193D02*
X10741944Y-13389288D01*
X10741944Y-13389288D02*
X10732420Y-13408336D01*
X10732420Y-13408336D02*
X10722896Y-13417860D01*
X10722896Y-13417860D02*
X10703849Y-13427384D01*
X10703849Y-13427384D02*
X10684801Y-13427384D01*
X10684801Y-13427384D02*
X10665753Y-13417860D01*
X10665753Y-13417860D02*
X10656229Y-13408336D01*
X10656229Y-13408336D02*
X10646706Y-13389288D01*
X10646706Y-13389288D02*
X10637182Y-13351193D01*
X10637182Y-13351193D02*
X10637182Y-13303574D01*
X10637182Y-13303574D02*
X10646706Y-13265479D01*
X10646706Y-13265479D02*
X10656229Y-13246431D01*
X10656229Y-13246431D02*
X10665753Y-13236908D01*
X10665753Y-13236908D02*
X10684801Y-13227384D01*
X10875277Y-13227384D02*
X10894325Y-13227384D01*
X10894325Y-13227384D02*
X10913372Y-13236908D01*
X10913372Y-13236908D02*
X10922896Y-13246431D01*
X10922896Y-13246431D02*
X10932420Y-13265479D01*
X10932420Y-13265479D02*
X10941944Y-13303574D01*
X10941944Y-13303574D02*
X10941944Y-13351193D01*
X10941944Y-13351193D02*
X10932420Y-13389288D01*
X10932420Y-13389288D02*
X10922896Y-13408336D01*
X10922896Y-13408336D02*
X10913372Y-13417860D01*
X10913372Y-13417860D02*
X10894325Y-13427384D01*
X10894325Y-13427384D02*
X10875277Y-13427384D01*
X10875277Y-13427384D02*
X10856229Y-13417860D01*
X10856229Y-13417860D02*
X10846706Y-13408336D01*
X10846706Y-13408336D02*
X10837182Y-13389288D01*
X10837182Y-13389288D02*
X10827658Y-13351193D01*
X10827658Y-13351193D02*
X10827658Y-13303574D01*
X10827658Y-13303574D02*
X10837182Y-13265479D01*
X10837182Y-13265479D02*
X10846706Y-13246431D01*
X10846706Y-13246431D02*
X10856229Y-13236908D01*
X10856229Y-13236908D02*
X10875277Y-13227384D01*
X11018134Y-13227384D02*
X11018134Y-13265479D01*
X11094325Y-13227384D02*
X11094325Y-13265479D01*
X11389563Y-13503574D02*
X11380039Y-13494050D01*
X11380039Y-13494050D02*
X11360991Y-13465479D01*
X11360991Y-13465479D02*
X11351468Y-13446431D01*
X11351468Y-13446431D02*
X11341944Y-13417860D01*
X11341944Y-13417860D02*
X11332420Y-13370241D01*
X11332420Y-13370241D02*
X11332420Y-13332146D01*
X11332420Y-13332146D02*
X11341944Y-13284527D01*
X11341944Y-13284527D02*
X11351468Y-13255955D01*
X11351468Y-13255955D02*
X11360991Y-13236908D01*
X11360991Y-13236908D02*
X11380039Y-13208336D01*
X11380039Y-13208336D02*
X11389563Y-13198812D01*
X11570515Y-13427384D02*
X11456229Y-13427384D01*
X11513372Y-13427384D02*
X11513372Y-13227384D01*
X11513372Y-13227384D02*
X11494325Y-13255955D01*
X11494325Y-13255955D02*
X11475277Y-13275003D01*
X11475277Y-13275003D02*
X11456229Y-13284527D01*
X11741944Y-13227384D02*
X11703848Y-13227384D01*
X11703848Y-13227384D02*
X11684801Y-13236908D01*
X11684801Y-13236908D02*
X11675277Y-13246431D01*
X11675277Y-13246431D02*
X11656229Y-13275003D01*
X11656229Y-13275003D02*
X11646706Y-13313098D01*
X11646706Y-13313098D02*
X11646706Y-13389288D01*
X11646706Y-13389288D02*
X11656229Y-13408336D01*
X11656229Y-13408336D02*
X11665753Y-13417860D01*
X11665753Y-13417860D02*
X11684801Y-13427384D01*
X11684801Y-13427384D02*
X11722896Y-13427384D01*
X11722896Y-13427384D02*
X11741944Y-13417860D01*
X11741944Y-13417860D02*
X11751468Y-13408336D01*
X11751468Y-13408336D02*
X11760991Y-13389288D01*
X11760991Y-13389288D02*
X11760991Y-13341669D01*
X11760991Y-13341669D02*
X11751468Y-13322622D01*
X11751468Y-13322622D02*
X11741944Y-13313098D01*
X11741944Y-13313098D02*
X11722896Y-13303574D01*
X11722896Y-13303574D02*
X11684801Y-13303574D01*
X11684801Y-13303574D02*
X11665753Y-13313098D01*
X11665753Y-13313098D02*
X11656229Y-13322622D01*
X11656229Y-13322622D02*
X11646706Y-13341669D01*
X11999087Y-13427384D02*
X11999087Y-13227384D01*
X12084801Y-13427384D02*
X12084801Y-13322622D01*
X12084801Y-13322622D02*
X12075277Y-13303574D01*
X12075277Y-13303574D02*
X12056230Y-13294050D01*
X12056230Y-13294050D02*
X12027658Y-13294050D01*
X12027658Y-13294050D02*
X12008610Y-13303574D01*
X12008610Y-13303574D02*
X11999087Y-13313098D01*
X12208610Y-13427384D02*
X12189563Y-13417860D01*
X12189563Y-13417860D02*
X12180039Y-13408336D01*
X12180039Y-13408336D02*
X12170515Y-13389288D01*
X12170515Y-13389288D02*
X12170515Y-13332146D01*
X12170515Y-13332146D02*
X12180039Y-13313098D01*
X12180039Y-13313098D02*
X12189563Y-13303574D01*
X12189563Y-13303574D02*
X12208610Y-13294050D01*
X12208610Y-13294050D02*
X12237182Y-13294050D01*
X12237182Y-13294050D02*
X12256230Y-13303574D01*
X12256230Y-13303574D02*
X12265753Y-13313098D01*
X12265753Y-13313098D02*
X12275277Y-13332146D01*
X12275277Y-13332146D02*
X12275277Y-13389288D01*
X12275277Y-13389288D02*
X12265753Y-13408336D01*
X12265753Y-13408336D02*
X12256230Y-13417860D01*
X12256230Y-13417860D02*
X12237182Y-13427384D01*
X12237182Y-13427384D02*
X12208610Y-13427384D01*
X12389563Y-13427384D02*
X12370515Y-13417860D01*
X12370515Y-13417860D02*
X12360991Y-13398812D01*
X12360991Y-13398812D02*
X12360991Y-13227384D01*
X12541944Y-13417860D02*
X12522896Y-13427384D01*
X12522896Y-13427384D02*
X12484801Y-13427384D01*
X12484801Y-13427384D02*
X12465753Y-13417860D01*
X12465753Y-13417860D02*
X12456230Y-13398812D01*
X12456230Y-13398812D02*
X12456230Y-13322622D01*
X12456230Y-13322622D02*
X12465753Y-13303574D01*
X12465753Y-13303574D02*
X12484801Y-13294050D01*
X12484801Y-13294050D02*
X12522896Y-13294050D01*
X12522896Y-13294050D02*
X12541944Y-13303574D01*
X12541944Y-13303574D02*
X12551468Y-13322622D01*
X12551468Y-13322622D02*
X12551468Y-13341669D01*
X12551468Y-13341669D02*
X12456230Y-13360717D01*
X12627658Y-13417860D02*
X12646706Y-13427384D01*
X12646706Y-13427384D02*
X12684801Y-13427384D01*
X12684801Y-13427384D02*
X12703849Y-13417860D01*
X12703849Y-13417860D02*
X12713372Y-13398812D01*
X12713372Y-13398812D02*
X12713372Y-13389288D01*
X12713372Y-13389288D02*
X12703849Y-13370241D01*
X12703849Y-13370241D02*
X12684801Y-13360717D01*
X12684801Y-13360717D02*
X12656230Y-13360717D01*
X12656230Y-13360717D02*
X12637182Y-13351193D01*
X12637182Y-13351193D02*
X12627658Y-13332146D01*
X12627658Y-13332146D02*
X12627658Y-13322622D01*
X12627658Y-13322622D02*
X12637182Y-13303574D01*
X12637182Y-13303574D02*
X12656230Y-13294050D01*
X12656230Y-13294050D02*
X12684801Y-13294050D01*
X12684801Y-13294050D02*
X12703849Y-13303574D01*
X12780039Y-13503574D02*
X12789563Y-13494050D01*
X12789563Y-13494050D02*
X12808611Y-13465479D01*
X12808611Y-13465479D02*
X12818134Y-13446431D01*
X12818134Y-13446431D02*
X12827658Y-13417860D01*
X12827658Y-13417860D02*
X12837182Y-13370241D01*
X12837182Y-13370241D02*
X12837182Y-13332146D01*
X12837182Y-13332146D02*
X12827658Y-13284527D01*
X12827658Y-13284527D02*
X12818134Y-13255955D01*
X12818134Y-13255955D02*
X12808611Y-13236908D01*
X12808611Y-13236908D02*
X12789563Y-13208336D01*
X12789563Y-13208336D02*
X12780039Y-13198812D01*
X7714500Y-13499900D02*
X7714500Y-13699900D01*
X7614500Y-13599900D02*
X7814500Y-13599900D01*
X8103848Y-13577098D02*
X8084801Y-13567574D01*
X8084801Y-13567574D02*
X8075277Y-13558050D01*
X8075277Y-13558050D02*
X8065753Y-13539003D01*
X8065753Y-13539003D02*
X8065753Y-13529479D01*
X8065753Y-13529479D02*
X8075277Y-13510431D01*
X8075277Y-13510431D02*
X8084801Y-13500908D01*
X8084801Y-13500908D02*
X8103848Y-13491384D01*
X8103848Y-13491384D02*
X8141943Y-13491384D01*
X8141943Y-13491384D02*
X8160991Y-13500908D01*
X8160991Y-13500908D02*
X8170515Y-13510431D01*
X8170515Y-13510431D02*
X8180039Y-13529479D01*
X8180039Y-13529479D02*
X8180039Y-13539003D01*
X8180039Y-13539003D02*
X8170515Y-13558050D01*
X8170515Y-13558050D02*
X8160991Y-13567574D01*
X8160991Y-13567574D02*
X8141943Y-13577098D01*
X8141943Y-13577098D02*
X8103848Y-13577098D01*
X8103848Y-13577098D02*
X8084801Y-13586622D01*
X8084801Y-13586622D02*
X8075277Y-13596146D01*
X8075277Y-13596146D02*
X8065753Y-13615193D01*
X8065753Y-13615193D02*
X8065753Y-13653288D01*
X8065753Y-13653288D02*
X8075277Y-13672336D01*
X8075277Y-13672336D02*
X8084801Y-13681860D01*
X8084801Y-13681860D02*
X8103848Y-13691384D01*
X8103848Y-13691384D02*
X8141943Y-13691384D01*
X8141943Y-13691384D02*
X8160991Y-13681860D01*
X8160991Y-13681860D02*
X8170515Y-13672336D01*
X8170515Y-13672336D02*
X8180039Y-13653288D01*
X8180039Y-13653288D02*
X8180039Y-13615193D01*
X8180039Y-13615193D02*
X8170515Y-13596146D01*
X8170515Y-13596146D02*
X8160991Y-13586622D01*
X8160991Y-13586622D02*
X8141943Y-13577098D01*
X8265753Y-13672336D02*
X8275277Y-13681860D01*
X8275277Y-13681860D02*
X8265753Y-13691384D01*
X8265753Y-13691384D02*
X8256229Y-13681860D01*
X8256229Y-13681860D02*
X8265753Y-13672336D01*
X8265753Y-13672336D02*
X8265753Y-13691384D01*
X8446705Y-13558050D02*
X8446705Y-13691384D01*
X8399086Y-13481860D02*
X8351467Y-13624717D01*
X8351467Y-13624717D02*
X8475277Y-13624717D01*
X8589563Y-13491384D02*
X8608610Y-13491384D01*
X8608610Y-13491384D02*
X8627658Y-13500908D01*
X8627658Y-13500908D02*
X8637182Y-13510431D01*
X8637182Y-13510431D02*
X8646705Y-13529479D01*
X8646705Y-13529479D02*
X8656229Y-13567574D01*
X8656229Y-13567574D02*
X8656229Y-13615193D01*
X8656229Y-13615193D02*
X8646705Y-13653288D01*
X8646705Y-13653288D02*
X8637182Y-13672336D01*
X8637182Y-13672336D02*
X8627658Y-13681860D01*
X8627658Y-13681860D02*
X8608610Y-13691384D01*
X8608610Y-13691384D02*
X8589563Y-13691384D01*
X8589563Y-13691384D02*
X8570515Y-13681860D01*
X8570515Y-13681860D02*
X8560991Y-13672336D01*
X8560991Y-13672336D02*
X8551467Y-13653288D01*
X8551467Y-13653288D02*
X8541944Y-13615193D01*
X8541944Y-13615193D02*
X8541944Y-13567574D01*
X8541944Y-13567574D02*
X8551467Y-13529479D01*
X8551467Y-13529479D02*
X8560991Y-13510431D01*
X8560991Y-13510431D02*
X8570515Y-13500908D01*
X8570515Y-13500908D02*
X8589563Y-13491384D01*
X8780039Y-13491384D02*
X8799086Y-13491384D01*
X8799086Y-13491384D02*
X8818134Y-13500908D01*
X8818134Y-13500908D02*
X8827658Y-13510431D01*
X8827658Y-13510431D02*
X8837182Y-13529479D01*
X8837182Y-13529479D02*
X8846705Y-13567574D01*
X8846705Y-13567574D02*
X8846705Y-13615193D01*
X8846705Y-13615193D02*
X8837182Y-13653288D01*
X8837182Y-13653288D02*
X8827658Y-13672336D01*
X8827658Y-13672336D02*
X8818134Y-13681860D01*
X8818134Y-13681860D02*
X8799086Y-13691384D01*
X8799086Y-13691384D02*
X8780039Y-13691384D01*
X8780039Y-13691384D02*
X8760991Y-13681860D01*
X8760991Y-13681860D02*
X8751467Y-13672336D01*
X8751467Y-13672336D02*
X8741944Y-13653288D01*
X8741944Y-13653288D02*
X8732420Y-13615193D01*
X8732420Y-13615193D02*
X8732420Y-13567574D01*
X8732420Y-13567574D02*
X8741944Y-13529479D01*
X8741944Y-13529479D02*
X8751467Y-13510431D01*
X8751467Y-13510431D02*
X8760991Y-13500908D01*
X8760991Y-13500908D02*
X8780039Y-13491384D01*
X8932420Y-13691384D02*
X8932420Y-13558050D01*
X8932420Y-13577098D02*
X8941944Y-13567574D01*
X8941944Y-13567574D02*
X8960991Y-13558050D01*
X8960991Y-13558050D02*
X8989563Y-13558050D01*
X8989563Y-13558050D02*
X9008610Y-13567574D01*
X9008610Y-13567574D02*
X9018134Y-13586622D01*
X9018134Y-13586622D02*
X9018134Y-13691384D01*
X9018134Y-13586622D02*
X9027658Y-13567574D01*
X9027658Y-13567574D02*
X9046705Y-13558050D01*
X9046705Y-13558050D02*
X9075277Y-13558050D01*
X9075277Y-13558050D02*
X9094325Y-13567574D01*
X9094325Y-13567574D02*
X9103848Y-13586622D01*
X9103848Y-13586622D02*
X9103848Y-13691384D01*
X9199086Y-13691384D02*
X9199086Y-13558050D01*
X9199086Y-13577098D02*
X9208610Y-13567574D01*
X9208610Y-13567574D02*
X9227658Y-13558050D01*
X9227658Y-13558050D02*
X9256229Y-13558050D01*
X9256229Y-13558050D02*
X9275277Y-13567574D01*
X9275277Y-13567574D02*
X9284801Y-13586622D01*
X9284801Y-13586622D02*
X9284801Y-13691384D01*
X9284801Y-13586622D02*
X9294325Y-13567574D01*
X9294325Y-13567574D02*
X9313372Y-13558050D01*
X9313372Y-13558050D02*
X9341944Y-13558050D01*
X9341944Y-13558050D02*
X9360991Y-13567574D01*
X9360991Y-13567574D02*
X9370515Y-13586622D01*
X9370515Y-13586622D02*
X9370515Y-13691384D01*
X9760991Y-13481860D02*
X9589563Y-13739003D01*
X10018134Y-13491384D02*
X10037182Y-13491384D01*
X10037182Y-13491384D02*
X10056229Y-13500908D01*
X10056229Y-13500908D02*
X10065753Y-13510431D01*
X10065753Y-13510431D02*
X10075277Y-13529479D01*
X10075277Y-13529479D02*
X10084801Y-13567574D01*
X10084801Y-13567574D02*
X10084801Y-13615193D01*
X10084801Y-13615193D02*
X10075277Y-13653288D01*
X10075277Y-13653288D02*
X10065753Y-13672336D01*
X10065753Y-13672336D02*
X10056229Y-13681860D01*
X10056229Y-13681860D02*
X10037182Y-13691384D01*
X10037182Y-13691384D02*
X10018134Y-13691384D01*
X10018134Y-13691384D02*
X9999087Y-13681860D01*
X9999087Y-13681860D02*
X9989563Y-13672336D01*
X9989563Y-13672336D02*
X9980039Y-13653288D01*
X9980039Y-13653288D02*
X9970515Y-13615193D01*
X9970515Y-13615193D02*
X9970515Y-13567574D01*
X9970515Y-13567574D02*
X9980039Y-13529479D01*
X9980039Y-13529479D02*
X9989563Y-13510431D01*
X9989563Y-13510431D02*
X9999087Y-13500908D01*
X9999087Y-13500908D02*
X10018134Y-13491384D01*
X10170515Y-13672336D02*
X10180039Y-13681860D01*
X10180039Y-13681860D02*
X10170515Y-13691384D01*
X10170515Y-13691384D02*
X10160991Y-13681860D01*
X10160991Y-13681860D02*
X10170515Y-13672336D01*
X10170515Y-13672336D02*
X10170515Y-13691384D01*
X10246706Y-13491384D02*
X10370515Y-13491384D01*
X10370515Y-13491384D02*
X10303848Y-13567574D01*
X10303848Y-13567574D02*
X10332420Y-13567574D01*
X10332420Y-13567574D02*
X10351468Y-13577098D01*
X10351468Y-13577098D02*
X10360991Y-13586622D01*
X10360991Y-13586622D02*
X10370515Y-13605669D01*
X10370515Y-13605669D02*
X10370515Y-13653288D01*
X10370515Y-13653288D02*
X10360991Y-13672336D01*
X10360991Y-13672336D02*
X10351468Y-13681860D01*
X10351468Y-13681860D02*
X10332420Y-13691384D01*
X10332420Y-13691384D02*
X10275277Y-13691384D01*
X10275277Y-13691384D02*
X10256229Y-13681860D01*
X10256229Y-13681860D02*
X10246706Y-13672336D01*
X10437182Y-13491384D02*
X10560991Y-13491384D01*
X10560991Y-13491384D02*
X10494325Y-13567574D01*
X10494325Y-13567574D02*
X10522896Y-13567574D01*
X10522896Y-13567574D02*
X10541944Y-13577098D01*
X10541944Y-13577098D02*
X10551468Y-13586622D01*
X10551468Y-13586622D02*
X10560991Y-13605669D01*
X10560991Y-13605669D02*
X10560991Y-13653288D01*
X10560991Y-13653288D02*
X10551468Y-13672336D01*
X10551468Y-13672336D02*
X10541944Y-13681860D01*
X10541944Y-13681860D02*
X10522896Y-13691384D01*
X10522896Y-13691384D02*
X10465753Y-13691384D01*
X10465753Y-13691384D02*
X10446706Y-13681860D01*
X10446706Y-13681860D02*
X10437182Y-13672336D01*
X10684801Y-13491384D02*
X10703849Y-13491384D01*
X10703849Y-13491384D02*
X10722896Y-13500908D01*
X10722896Y-13500908D02*
X10732420Y-13510431D01*
X10732420Y-13510431D02*
X10741944Y-13529479D01*
X10741944Y-13529479D02*
X10751468Y-13567574D01*
X10751468Y-13567574D02*
X10751468Y-13615193D01*
X10751468Y-13615193D02*
X10741944Y-13653288D01*
X10741944Y-13653288D02*
X10732420Y-13672336D01*
X10732420Y-13672336D02*
X10722896Y-13681860D01*
X10722896Y-13681860D02*
X10703849Y-13691384D01*
X10703849Y-13691384D02*
X10684801Y-13691384D01*
X10684801Y-13691384D02*
X10665753Y-13681860D01*
X10665753Y-13681860D02*
X10656229Y-13672336D01*
X10656229Y-13672336D02*
X10646706Y-13653288D01*
X10646706Y-13653288D02*
X10637182Y-13615193D01*
X10637182Y-13615193D02*
X10637182Y-13567574D01*
X10637182Y-13567574D02*
X10646706Y-13529479D01*
X10646706Y-13529479D02*
X10656229Y-13510431D01*
X10656229Y-13510431D02*
X10665753Y-13500908D01*
X10665753Y-13500908D02*
X10684801Y-13491384D01*
X10818134Y-13491384D02*
X10951468Y-13491384D01*
X10951468Y-13491384D02*
X10865753Y-13691384D01*
X11018134Y-13491384D02*
X11018134Y-13529479D01*
X11094325Y-13491384D02*
X11094325Y-13529479D01*
X11389563Y-13767574D02*
X11380039Y-13758050D01*
X11380039Y-13758050D02*
X11360991Y-13729479D01*
X11360991Y-13729479D02*
X11351468Y-13710431D01*
X11351468Y-13710431D02*
X11341944Y-13681860D01*
X11341944Y-13681860D02*
X11332420Y-13634241D01*
X11332420Y-13634241D02*
X11332420Y-13596146D01*
X11332420Y-13596146D02*
X11341944Y-13548527D01*
X11341944Y-13548527D02*
X11351468Y-13519955D01*
X11351468Y-13519955D02*
X11360991Y-13500908D01*
X11360991Y-13500908D02*
X11380039Y-13472336D01*
X11380039Y-13472336D02*
X11389563Y-13462812D01*
X11551468Y-13558050D02*
X11551468Y-13691384D01*
X11503848Y-13481860D02*
X11456229Y-13624717D01*
X11456229Y-13624717D02*
X11580039Y-13624717D01*
X11808610Y-13691384D02*
X11808610Y-13491384D01*
X11894325Y-13691384D02*
X11894325Y-13586622D01*
X11894325Y-13586622D02*
X11884801Y-13567574D01*
X11884801Y-13567574D02*
X11865753Y-13558050D01*
X11865753Y-13558050D02*
X11837182Y-13558050D01*
X11837182Y-13558050D02*
X11818134Y-13567574D01*
X11818134Y-13567574D02*
X11808610Y-13577098D01*
X12018134Y-13691384D02*
X11999087Y-13681860D01*
X11999087Y-13681860D02*
X11989563Y-13672336D01*
X11989563Y-13672336D02*
X11980039Y-13653288D01*
X11980039Y-13653288D02*
X11980039Y-13596146D01*
X11980039Y-13596146D02*
X11989563Y-13577098D01*
X11989563Y-13577098D02*
X11999087Y-13567574D01*
X11999087Y-13567574D02*
X12018134Y-13558050D01*
X12018134Y-13558050D02*
X12046706Y-13558050D01*
X12046706Y-13558050D02*
X12065753Y-13567574D01*
X12065753Y-13567574D02*
X12075277Y-13577098D01*
X12075277Y-13577098D02*
X12084801Y-13596146D01*
X12084801Y-13596146D02*
X12084801Y-13653288D01*
X12084801Y-13653288D02*
X12075277Y-13672336D01*
X12075277Y-13672336D02*
X12065753Y-13681860D01*
X12065753Y-13681860D02*
X12046706Y-13691384D01*
X12046706Y-13691384D02*
X12018134Y-13691384D01*
X12199087Y-13691384D02*
X12180039Y-13681860D01*
X12180039Y-13681860D02*
X12170515Y-13662812D01*
X12170515Y-13662812D02*
X12170515Y-13491384D01*
X12351468Y-13681860D02*
X12332420Y-13691384D01*
X12332420Y-13691384D02*
X12294325Y-13691384D01*
X12294325Y-13691384D02*
X12275277Y-13681860D01*
X12275277Y-13681860D02*
X12265753Y-13662812D01*
X12265753Y-13662812D02*
X12265753Y-13586622D01*
X12265753Y-13586622D02*
X12275277Y-13567574D01*
X12275277Y-13567574D02*
X12294325Y-13558050D01*
X12294325Y-13558050D02*
X12332420Y-13558050D01*
X12332420Y-13558050D02*
X12351468Y-13567574D01*
X12351468Y-13567574D02*
X12360991Y-13586622D01*
X12360991Y-13586622D02*
X12360991Y-13605669D01*
X12360991Y-13605669D02*
X12265753Y-13624717D01*
X12437182Y-13681860D02*
X12456230Y-13691384D01*
X12456230Y-13691384D02*
X12494325Y-13691384D01*
X12494325Y-13691384D02*
X12513372Y-13681860D01*
X12513372Y-13681860D02*
X12522896Y-13662812D01*
X12522896Y-13662812D02*
X12522896Y-13653288D01*
X12522896Y-13653288D02*
X12513372Y-13634241D01*
X12513372Y-13634241D02*
X12494325Y-13624717D01*
X12494325Y-13624717D02*
X12465753Y-13624717D01*
X12465753Y-13624717D02*
X12446706Y-13615193D01*
X12446706Y-13615193D02*
X12437182Y-13596146D01*
X12437182Y-13596146D02*
X12437182Y-13586622D01*
X12437182Y-13586622D02*
X12446706Y-13567574D01*
X12446706Y-13567574D02*
X12465753Y-13558050D01*
X12465753Y-13558050D02*
X12494325Y-13558050D01*
X12494325Y-13558050D02*
X12513372Y-13567574D01*
X12589563Y-13767574D02*
X12599087Y-13758050D01*
X12599087Y-13758050D02*
X12618134Y-13729479D01*
X12618134Y-13729479D02*
X12627658Y-13710431D01*
X12627658Y-13710431D02*
X12637182Y-13681860D01*
X12637182Y-13681860D02*
X12646706Y-13634241D01*
X12646706Y-13634241D02*
X12646706Y-13596146D01*
X12646706Y-13596146D02*
X12637182Y-13548527D01*
X12637182Y-13548527D02*
X12627658Y-13519955D01*
X12627658Y-13519955D02*
X12618134Y-13500908D01*
X12618134Y-13500908D02*
X12599087Y-13472336D01*
X12599087Y-13472336D02*
X12589563Y-13462812D01*
M02*
