M48
; DRILL file {KiCad 7.0.7} date Mon Apr  1 01:35:50 2024
; FORMAT={-:-/ absolute / metric / decimal}
; #@! TF.CreationDate,2024-04-01T01:35:50+05:30
; #@! TF.GenerationSoftware,Kicad,Pcbnew,7.0.7
; #@! TF.FileFunction,Plated,1,2,PTH
FMAT,2
METRIC
; #@! TA.AperFunction,Plated,PTH,ComponentDrill
T1C1.000
; #@! TA.AperFunction,Plated,PTH,ComponentDrill
T2C1.270
; #@! TA.AperFunction,Plated,PTH,ComponentDrill
T3C8.400
%
G90
G05
T1
X84.97Y-71.479
X84.97Y-74.019
X84.97Y-76.559
X84.97Y-79.099
X84.97Y-81.639
X84.97Y-84.179
X84.97Y-86.719
X84.97Y-89.259
X84.97Y-91.799
X84.97Y-94.339
X84.97Y-96.879
X84.97Y-99.419
X84.97Y-101.959
X84.97Y-104.499
X84.97Y-107.039
X95.395Y-61.094
X97.935Y-61.094
X100.475Y-61.094
X103.015Y-61.094
X105.555Y-61.094
X108.095Y-61.094
X110.635Y-61.094
X113.175Y-61.094
X115.715Y-61.094
X118.255Y-61.094
X120.795Y-61.094
X123.335Y-61.094
X125.875Y-61.094
X128.415Y-61.094
X130.955Y-61.094
X141.37Y-71.509
X141.37Y-74.049
X141.37Y-76.589
X141.37Y-79.129
X141.37Y-81.669
X141.37Y-84.209
X141.37Y-86.749
X141.37Y-89.289
X141.37Y-91.829
X141.37Y-94.369
X141.37Y-96.909
X141.37Y-99.449
X141.37Y-101.989
X141.37Y-104.529
X141.37Y-107.069
T2
X102.667Y-84.582
X102.667Y-87.122
X102.667Y-89.662
X102.667Y-92.202
X102.667Y-94.742
X102.667Y-97.282
X102.667Y-99.822
X102.667Y-102.362
X125.527Y-84.582
X125.527Y-87.122
X125.527Y-89.662
X125.527Y-92.202
X125.527Y-94.742
X125.527Y-97.282
X125.527Y-99.822
X125.527Y-102.362
T3
X85.37Y-61.394
X85.37Y-117.094
X140.97Y-61.409
X140.97Y-117.094
T0
M30
