%TF.GenerationSoftware,KiCad,Pcbnew,7.0.7*%
%TF.CreationDate,2024-04-01T01:35:54+05:30*%
%TF.ProjectId,GPS_Stack,4750535f-5374-4616-936b-2e6b69636164,rev?*%
%TF.SameCoordinates,Original*%
%TF.FileFunction,Copper,L1,Top*%
%TF.FilePolarity,Positive*%
%FSLAX46Y46*%
G04 Gerber Fmt 4.6, Leading zero omitted, Abs format (unit mm)*
G04 Created by KiCad (PCBNEW 7.0.7) date 2024-04-01 01:35:54*
%MOMM*%
%LPD*%
G01*
G04 APERTURE LIST*
%TA.AperFunction,SMDPad,CuDef*%
%ADD10R,2.000000X2.000000*%
%TD*%
%TA.AperFunction,ComponentPad*%
%ADD11C,1.879600*%
%TD*%
%TA.AperFunction,ComponentPad*%
%ADD12R,1.700000X1.700000*%
%TD*%
%TA.AperFunction,ComponentPad*%
%ADD13O,1.700000X1.700000*%
%TD*%
%TA.AperFunction,ComponentPad*%
%ADD14C,10.400000*%
%TD*%
%TA.AperFunction,Conductor*%
%ADD15C,0.500000*%
%TD*%
%TA.AperFunction,Conductor*%
%ADD16C,0.250000*%
%TD*%
G04 APERTURE END LIST*
D10*
%TO.P,TP1,1,1*%
%TO.N,3.3V*%
X133705600Y-86690200D03*
%TD*%
D11*
%TO.P,U1,1,GND*%
%TO.N,GND*%
X125526800Y-84582000D03*
%TO.P,U1,2,+3V3*%
%TO.N,3.3V*%
X125526800Y-87122000D03*
%TO.P,U1,3,NC*%
%TO.N,unconnected-(U1-NC-Pad3)*%
X125526800Y-89662000D03*
%TO.P,U1,4,NC*%
%TO.N,unconnected-(U1-NC-Pad4)*%
X125526800Y-92202000D03*
%TO.P,U1,5,NC*%
%TO.N,unconnected-(U1-NC-Pad5)*%
X125526800Y-94742000D03*
%TO.P,U1,6,NC*%
%TO.N,unconnected-(U1-NC-Pad6)*%
X125526800Y-97282000D03*
%TO.P,U1,7,~{RST}*%
%TO.N,unconnected-(U1-~{RST}-Pad7)*%
X125526800Y-99822000D03*
%TO.P,U1,8,NC*%
%TO.N,unconnected-(U1-NC-Pad8)*%
X125526800Y-102362000D03*
%TO.P,U1,9,GND*%
%TO.N,GND*%
X102666800Y-84582000D03*
%TO.P,U1,10,NC*%
%TO.N,unconnected-(U1-NC-Pad10)*%
X102666800Y-87122000D03*
%TO.P,U1,11,SDA*%
%TO.N,I2C1_SDA*%
X102666800Y-89662000D03*
%TO.P,U1,12,SCL*%
%TO.N,I2C1_SCL*%
X102666800Y-92202000D03*
%TO.P,U1,13,RX*%
%TO.N,unconnected-(U1-RX-Pad13)*%
X102666800Y-94742000D03*
%TO.P,U1,14,TX*%
%TO.N,unconnected-(U1-TX-Pad14)*%
X102666800Y-97282000D03*
%TO.P,U1,15,PPS*%
%TO.N,unconnected-(U1-PPS-Pad15)*%
X102666800Y-99822000D03*
%TO.P,U1,16,EXI*%
%TO.N,unconnected-(U1-EXI-Pad16)*%
X102666800Y-102362000D03*
%TD*%
D12*
%TO.P,U2,1*%
%TO.N,unconnected-(U2-Pad1)*%
X141370000Y-71509000D03*
D13*
%TO.P,U2,2*%
%TO.N,unconnected-(U2-Pad2)*%
X141370000Y-74049000D03*
%TO.P,U2,3*%
%TO.N,unconnected-(U2-Pad3)*%
X141370000Y-76589000D03*
%TO.P,U2,4*%
%TO.N,unconnected-(U2-Pad4)*%
X141370000Y-79129000D03*
%TO.P,U2,5*%
%TO.N,unconnected-(U2-Pad5)*%
X141370000Y-81669000D03*
%TO.P,U2,6*%
%TO.N,unconnected-(U2-Pad6)*%
X141370000Y-84209000D03*
%TO.P,U2,7*%
%TO.N,unconnected-(U2-Pad7)*%
X141370000Y-86749000D03*
%TO.P,U2,8*%
%TO.N,unconnected-(U2-Pad8)*%
X141370000Y-89289000D03*
%TO.P,U2,9*%
%TO.N,unconnected-(U2-Pad9)*%
X141370000Y-91829000D03*
%TO.P,U2,10*%
%TO.N,unconnected-(U2-Pad10)*%
X141370000Y-94369000D03*
%TO.P,U2,11*%
%TO.N,unconnected-(U2-Pad11)*%
X141370000Y-96909000D03*
%TO.P,U2,12*%
%TO.N,unconnected-(U2-Pad12)*%
X141370000Y-99449000D03*
%TO.P,U2,13*%
%TO.N,unconnected-(U2-Pad13)*%
X141370000Y-101989000D03*
%TO.P,U2,14*%
%TO.N,unconnected-(U2-Pad14)*%
X141370000Y-104529000D03*
%TO.P,U2,15*%
%TO.N,unconnected-(U2-Pad15)*%
X141370000Y-107069000D03*
%TO.P,U2,16*%
%TO.N,unconnected-(U2-Pad16)*%
X84970000Y-107039000D03*
%TO.P,U2,17*%
%TO.N,unconnected-(U2-Pad17)*%
X84970000Y-104499000D03*
%TO.P,U2,18*%
%TO.N,unconnected-(U2-Pad18)*%
X84970000Y-101959000D03*
%TO.P,U2,19*%
%TO.N,unconnected-(U2-Pad19)*%
X84970000Y-99419000D03*
%TO.P,U2,20*%
%TO.N,unconnected-(U2-Pad20)*%
X84970000Y-96879000D03*
%TO.P,U2,21*%
%TO.N,unconnected-(U2-Pad21)*%
X84970000Y-94339000D03*
%TO.P,U2,22*%
%TO.N,unconnected-(U2-Pad22)*%
X84970000Y-91799000D03*
%TO.P,U2,23*%
%TO.N,I2C1_SDA*%
X84970000Y-89259000D03*
%TO.P,U2,24*%
%TO.N,I2C1_SCL*%
X84970000Y-86719000D03*
%TO.P,U2,25*%
%TO.N,unconnected-(U2-Pad25)*%
X84970000Y-84179000D03*
%TO.P,U2,26*%
%TO.N,unconnected-(U2-Pad26)*%
X84970000Y-81639000D03*
%TO.P,U2,27*%
%TO.N,unconnected-(U2-Pad27)*%
X84970000Y-79099000D03*
%TO.P,U2,28*%
%TO.N,unconnected-(U2-Pad28)*%
X84970000Y-76559000D03*
%TO.P,U2,29*%
%TO.N,unconnected-(U2-Pad29)*%
X84970000Y-74019000D03*
D12*
%TO.P,U2,30*%
%TO.N,unconnected-(U2-Pad30)*%
X84970000Y-71479000D03*
%TO.P,U2,31*%
%TO.N,unconnected-(U2-Pad31)*%
X95395000Y-61094000D03*
D13*
%TO.P,U2,32*%
%TO.N,unconnected-(U2-Pad32)*%
X97935000Y-61094000D03*
%TO.P,U2,33*%
%TO.N,unconnected-(U2-Pad33)*%
X100475000Y-61094000D03*
%TO.P,U2,34*%
%TO.N,unconnected-(U2-Pad34)*%
X103015000Y-61094000D03*
%TO.P,U2,35*%
%TO.N,unconnected-(U2-Pad35)*%
X105555000Y-61094000D03*
%TO.P,U2,36*%
%TO.N,unconnected-(U2-Pad36)*%
X108095000Y-61094000D03*
%TO.P,U2,37*%
%TO.N,3.3V*%
X110635000Y-61094000D03*
%TO.P,U2,38*%
%TO.N,unconnected-(U2-Pad38)*%
X113175000Y-61094000D03*
%TO.P,U2,39*%
%TO.N,3.3V*%
X115715000Y-61094000D03*
%TO.P,U2,40*%
X118255000Y-61094000D03*
%TO.P,U2,41*%
%TO.N,unconnected-(U2-Pad41)*%
X120795000Y-61094000D03*
%TO.P,U2,42*%
%TO.N,unconnected-(U2-Pad42)*%
X123335000Y-61094000D03*
%TO.P,U2,43*%
%TO.N,unconnected-(U2-Pad43)*%
X125875000Y-61094000D03*
%TO.P,U2,44*%
%TO.N,unconnected-(U2-Pad44)*%
X128415000Y-61094000D03*
%TO.P,U2,45*%
%TO.N,unconnected-(U2-Pad45)*%
X130955000Y-61094000D03*
D14*
%TO.P,U2,49,1*%
%TO.N,GND*%
X140970000Y-117094000D03*
%TO.P,U2,50,1*%
X85370000Y-117094000D03*
%TO.P,U2,51,1*%
X85370000Y-61394000D03*
%TO.P,U2,52,1*%
X140970000Y-61409000D03*
%TD*%
D15*
%TO.N,3.3V*%
X115715000Y-61094000D02*
X114415000Y-59794000D01*
X111935000Y-59794000D02*
X110635000Y-61094000D01*
X114415000Y-59794000D02*
X111935000Y-59794000D01*
%TO.N,I2C1_SDA*%
X102666800Y-89662000D02*
X85373000Y-89662000D01*
D16*
X102263800Y-89259000D02*
X102666800Y-89662000D01*
X85373000Y-89662000D02*
X84970000Y-89259000D01*
D15*
%TO.N,I2C1_SCL*%
X88496800Y-83192200D02*
X84970000Y-86719000D01*
X106019600Y-88849200D02*
X106019600Y-83337400D01*
X102666800Y-92202000D02*
X106019600Y-88849200D01*
X106019600Y-83337400D02*
X105874400Y-83192200D01*
X105874400Y-83192200D02*
X88496800Y-83192200D01*
%TD*%
%TA.AperFunction,Conductor*%
%TO.N,3.3V*%
G36*
X135579039Y-83839685D02*
G01*
X135624794Y-83892489D01*
X135636000Y-83944000D01*
X135636000Y-88649000D01*
X135616315Y-88716039D01*
X135563511Y-88761794D01*
X135512000Y-88773000D01*
X130095800Y-88773000D01*
X130028761Y-88753315D01*
X129983006Y-88700511D01*
X129971800Y-88649000D01*
X129971800Y-88442800D01*
X129971800Y-86940200D01*
X132205600Y-86940200D01*
X132205600Y-87738044D01*
X132212001Y-87797572D01*
X132212003Y-87797579D01*
X132262245Y-87932286D01*
X132262249Y-87932293D01*
X132348409Y-88047387D01*
X132348412Y-88047390D01*
X132463506Y-88133550D01*
X132463513Y-88133554D01*
X132598220Y-88183796D01*
X132598227Y-88183798D01*
X132657755Y-88190199D01*
X132657772Y-88190200D01*
X133455600Y-88190200D01*
X133455600Y-86940200D01*
X133955600Y-86940200D01*
X133955600Y-88190200D01*
X134753428Y-88190200D01*
X134753444Y-88190199D01*
X134812972Y-88183798D01*
X134812979Y-88183796D01*
X134947686Y-88133554D01*
X134947693Y-88133550D01*
X135062787Y-88047390D01*
X135062790Y-88047387D01*
X135148950Y-87932293D01*
X135148954Y-87932286D01*
X135199196Y-87797579D01*
X135199198Y-87797572D01*
X135205599Y-87738044D01*
X135205600Y-87738027D01*
X135205600Y-86940200D01*
X133955600Y-86940200D01*
X133455600Y-86940200D01*
X132205600Y-86940200D01*
X129971800Y-86940200D01*
X129971800Y-86440200D01*
X132205600Y-86440200D01*
X133455600Y-86440200D01*
X133455600Y-85190200D01*
X133955600Y-85190200D01*
X133955600Y-86440200D01*
X135205600Y-86440200D01*
X135205600Y-85642372D01*
X135205599Y-85642355D01*
X135199198Y-85582827D01*
X135199196Y-85582820D01*
X135148954Y-85448113D01*
X135148950Y-85448106D01*
X135062790Y-85333012D01*
X135062787Y-85333009D01*
X134947693Y-85246849D01*
X134947686Y-85246845D01*
X134812979Y-85196603D01*
X134812972Y-85196601D01*
X134753444Y-85190200D01*
X133955600Y-85190200D01*
X133455600Y-85190200D01*
X132657755Y-85190200D01*
X132598227Y-85196601D01*
X132598220Y-85196603D01*
X132463513Y-85246845D01*
X132463506Y-85246849D01*
X132348412Y-85333009D01*
X132348409Y-85333012D01*
X132262249Y-85448106D01*
X132262245Y-85448113D01*
X132212003Y-85582820D01*
X132212001Y-85582827D01*
X132205600Y-85642355D01*
X132205600Y-86440200D01*
X129971800Y-86440200D01*
X129971800Y-83820000D01*
X131431389Y-83820000D01*
X135512000Y-83820000D01*
X135579039Y-83839685D01*
G37*
%TD.AperFunction*%
%TD*%
%TA.AperFunction,Conductor*%
%TO.N,3.3V*%
G36*
X124676830Y-85922485D02*
G01*
X124697472Y-85939119D01*
X125174303Y-86415950D01*
X125207788Y-86477273D01*
X125202804Y-86546965D01*
X125160932Y-86602898D01*
X125159508Y-86603948D01*
X125088661Y-86655421D01*
X125088656Y-86655427D01*
X125002582Y-86759471D01*
X124944682Y-86798578D01*
X124874830Y-86800174D01*
X124819358Y-86768111D01*
X124346857Y-86295609D01*
X124256192Y-86434382D01*
X124160345Y-86652895D01*
X124101769Y-86884203D01*
X124101767Y-86884211D01*
X124082065Y-87121993D01*
X124082065Y-87122006D01*
X124101767Y-87359788D01*
X124101769Y-87359796D01*
X124160345Y-87591104D01*
X124256191Y-87809614D01*
X124346857Y-87948389D01*
X124819999Y-87475246D01*
X124881322Y-87441761D01*
X124951013Y-87446745D01*
X125006947Y-87488616D01*
X125012376Y-87496483D01*
X125033637Y-87529984D01*
X125150586Y-87639806D01*
X125155891Y-87643660D01*
X125198559Y-87698988D01*
X125204540Y-87768602D01*
X125171936Y-87830398D01*
X125170690Y-87831661D01*
X124699640Y-88302710D01*
X124700162Y-88311117D01*
X124684669Y-88379247D01*
X124634801Y-88428186D01*
X124576400Y-88442800D01*
X122351305Y-88442800D01*
X122284266Y-88423115D01*
X122238511Y-88370311D01*
X122227330Y-88316320D01*
X122273170Y-86024320D01*
X122294191Y-85957688D01*
X122347899Y-85912998D01*
X122397145Y-85902800D01*
X124609791Y-85902800D01*
X124676830Y-85922485D01*
G37*
%TD.AperFunction*%
%TA.AperFunction,Conductor*%
G36*
X118432512Y-61593507D02*
G01*
X118485315Y-61639262D01*
X118505000Y-61706301D01*
X118505000Y-62424633D01*
X118718483Y-62367433D01*
X118718492Y-62367429D01*
X118932578Y-62267600D01*
X119126082Y-62132105D01*
X119293105Y-61965082D01*
X119357625Y-61872940D01*
X119412202Y-61829315D01*
X119481701Y-61822123D01*
X119544056Y-61853645D01*
X119579469Y-61913875D01*
X119583200Y-61944064D01*
X119583200Y-62993995D01*
X119563515Y-63061034D01*
X119510711Y-63106789D01*
X119458200Y-63117991D01*
X116433600Y-63093599D01*
X116433599Y-63093600D01*
X116484399Y-76250799D01*
X116484400Y-76250800D01*
X131247104Y-76401953D01*
X131313935Y-76422323D01*
X131359147Y-76475593D01*
X131369827Y-76524901D01*
X131431389Y-83820000D01*
X129971800Y-83820000D01*
X129971800Y-88442800D01*
X126477199Y-88442800D01*
X126410160Y-88423115D01*
X126364405Y-88370311D01*
X126353437Y-88311119D01*
X126353958Y-88302711D01*
X125879296Y-87828049D01*
X125845811Y-87766726D01*
X125850795Y-87697034D01*
X125892667Y-87641101D01*
X125894092Y-87640050D01*
X125964939Y-87588576D01*
X125964938Y-87588576D01*
X125964942Y-87588574D01*
X126051017Y-87484526D01*
X126108916Y-87445421D01*
X126178768Y-87443825D01*
X126234241Y-87475888D01*
X126706741Y-87948389D01*
X126797404Y-87809621D01*
X126797409Y-87809613D01*
X126893254Y-87591104D01*
X126951830Y-87359796D01*
X126951832Y-87359788D01*
X126971534Y-87122006D01*
X126971534Y-87121993D01*
X126951832Y-86884211D01*
X126951830Y-86884203D01*
X126893254Y-86652895D01*
X126797406Y-86434380D01*
X126706741Y-86295609D01*
X126233599Y-86768752D01*
X126172276Y-86802237D01*
X126102584Y-86797253D01*
X126046651Y-86755381D01*
X126041222Y-86747514D01*
X126019963Y-86714016D01*
X125903016Y-86604196D01*
X125903013Y-86604193D01*
X125903010Y-86604191D01*
X125903006Y-86604189D01*
X125897703Y-86600336D01*
X125855038Y-86545006D01*
X125849059Y-86475393D01*
X125881665Y-86413598D01*
X125882908Y-86412337D01*
X126356128Y-85939119D01*
X126417451Y-85905634D01*
X126443809Y-85902800D01*
X128473200Y-85902800D01*
X128473200Y-85902799D01*
X128473200Y-79603600D01*
X128473198Y-79603600D01*
X114551447Y-79653949D01*
X114484337Y-79634507D01*
X114438392Y-79581869D01*
X114427000Y-79529954D01*
X114427000Y-62001469D01*
X114446684Y-61934434D01*
X114499488Y-61888679D01*
X114568646Y-61878735D01*
X114632202Y-61907760D01*
X114652574Y-61930350D01*
X114676892Y-61965080D01*
X114843917Y-62132105D01*
X115037421Y-62267600D01*
X115251507Y-62367429D01*
X115251516Y-62367433D01*
X115465000Y-62424634D01*
X115465000Y-61706301D01*
X115484685Y-61639262D01*
X115537489Y-61593507D01*
X115606647Y-61583563D01*
X115679237Y-61594000D01*
X115679238Y-61594000D01*
X115750762Y-61594000D01*
X115750763Y-61594000D01*
X115823353Y-61583563D01*
X115892512Y-61593507D01*
X115945315Y-61639262D01*
X115965000Y-61706301D01*
X115965000Y-62424633D01*
X116178483Y-62367433D01*
X116178492Y-62367429D01*
X116392578Y-62267600D01*
X116586082Y-62132105D01*
X116753105Y-61965082D01*
X116883425Y-61778968D01*
X116938002Y-61735344D01*
X117007501Y-61728151D01*
X117069855Y-61759673D01*
X117086575Y-61778968D01*
X117216894Y-61965082D01*
X117383917Y-62132105D01*
X117577421Y-62267600D01*
X117791507Y-62367429D01*
X117791516Y-62367433D01*
X118005000Y-62424634D01*
X118005000Y-61706301D01*
X118024685Y-61639262D01*
X118077489Y-61593507D01*
X118146647Y-61583563D01*
X118219237Y-61594000D01*
X118219238Y-61594000D01*
X118290762Y-61594000D01*
X118290763Y-61594000D01*
X118363353Y-61583563D01*
X118432512Y-61593507D01*
G37*
%TD.AperFunction*%
%TA.AperFunction,Conductor*%
G36*
X117708692Y-60863685D02*
G01*
X117754447Y-60916489D01*
X117764391Y-60985647D01*
X117760631Y-61002933D01*
X117755000Y-61022111D01*
X117755000Y-61165888D01*
X117760631Y-61185067D01*
X117760630Y-61254936D01*
X117722855Y-61313714D01*
X117659299Y-61342738D01*
X117641653Y-61344000D01*
X116328347Y-61344000D01*
X116261308Y-61324315D01*
X116215553Y-61271511D01*
X116205609Y-61202353D01*
X116209369Y-61185067D01*
X116215000Y-61165888D01*
X116215000Y-61022111D01*
X116209369Y-61002933D01*
X116209370Y-60933064D01*
X116247145Y-60874286D01*
X116310701Y-60845262D01*
X116328347Y-60844000D01*
X117641653Y-60844000D01*
X117708692Y-60863685D01*
G37*
%TD.AperFunction*%
%TA.AperFunction,Conductor*%
G36*
X115044939Y-59706640D02*
G01*
X115090953Y-59759217D01*
X115101237Y-59828326D01*
X115072526Y-59892024D01*
X115040428Y-59918663D01*
X115037427Y-59920395D01*
X114843926Y-60055886D01*
X114843920Y-60055891D01*
X114676887Y-60222924D01*
X114652573Y-60257649D01*
X114597995Y-60301273D01*
X114528497Y-60308465D01*
X114466142Y-60276942D01*
X114430730Y-60216711D01*
X114427000Y-60186532D01*
X114427000Y-59842400D01*
X114427000Y-59813390D01*
X114446685Y-59746351D01*
X114499489Y-59700596D01*
X114550388Y-59689392D01*
X114977805Y-59687286D01*
X115044939Y-59706640D01*
G37*
%TD.AperFunction*%
%TD*%
M02*
