%TF.GenerationSoftware,KiCad,Pcbnew,7.0.7*%
%TF.CreationDate,2024-04-01T01:35:54+05:30*%
%TF.ProjectId,GPS_Stack,4750535f-5374-4616-936b-2e6b69636164,rev?*%
%TF.SameCoordinates,Original*%
%TF.FileFunction,Copper,L2,Bot*%
%TF.FilePolarity,Positive*%
%FSLAX46Y46*%
G04 Gerber Fmt 4.6, Leading zero omitted, Abs format (unit mm)*
G04 Created by KiCad (PCBNEW 7.0.7) date 2024-04-01 01:35:54*
%MOMM*%
%LPD*%
G01*
G04 APERTURE LIST*
%TA.AperFunction,ComponentPad*%
%ADD10C,1.879600*%
%TD*%
%TA.AperFunction,ComponentPad*%
%ADD11R,1.700000X1.700000*%
%TD*%
%TA.AperFunction,ComponentPad*%
%ADD12O,1.700000X1.700000*%
%TD*%
%TA.AperFunction,ComponentPad*%
%ADD13C,10.400000*%
%TD*%
G04 APERTURE END LIST*
D10*
%TO.P,U1,1,GND*%
%TO.N,GND*%
X125526800Y-84582000D03*
%TO.P,U1,2,+3V3*%
%TO.N,3.3V*%
X125526800Y-87122000D03*
%TO.P,U1,3,NC*%
%TO.N,unconnected-(U1-NC-Pad3)*%
X125526800Y-89662000D03*
%TO.P,U1,4,NC*%
%TO.N,unconnected-(U1-NC-Pad4)*%
X125526800Y-92202000D03*
%TO.P,U1,5,NC*%
%TO.N,unconnected-(U1-NC-Pad5)*%
X125526800Y-94742000D03*
%TO.P,U1,6,NC*%
%TO.N,unconnected-(U1-NC-Pad6)*%
X125526800Y-97282000D03*
%TO.P,U1,7,~{RST}*%
%TO.N,unconnected-(U1-~{RST}-Pad7)*%
X125526800Y-99822000D03*
%TO.P,U1,8,NC*%
%TO.N,unconnected-(U1-NC-Pad8)*%
X125526800Y-102362000D03*
%TO.P,U1,9,GND*%
%TO.N,GND*%
X102666800Y-84582000D03*
%TO.P,U1,10,NC*%
%TO.N,unconnected-(U1-NC-Pad10)*%
X102666800Y-87122000D03*
%TO.P,U1,11,SDA*%
%TO.N,I2C1_SDA*%
X102666800Y-89662000D03*
%TO.P,U1,12,SCL*%
%TO.N,I2C1_SCL*%
X102666800Y-92202000D03*
%TO.P,U1,13,RX*%
%TO.N,unconnected-(U1-RX-Pad13)*%
X102666800Y-94742000D03*
%TO.P,U1,14,TX*%
%TO.N,unconnected-(U1-TX-Pad14)*%
X102666800Y-97282000D03*
%TO.P,U1,15,PPS*%
%TO.N,unconnected-(U1-PPS-Pad15)*%
X102666800Y-99822000D03*
%TO.P,U1,16,EXI*%
%TO.N,unconnected-(U1-EXI-Pad16)*%
X102666800Y-102362000D03*
%TD*%
D11*
%TO.P,U2,1*%
%TO.N,unconnected-(U2-Pad1)*%
X141370000Y-71509000D03*
D12*
%TO.P,U2,2*%
%TO.N,unconnected-(U2-Pad2)*%
X141370000Y-74049000D03*
%TO.P,U2,3*%
%TO.N,unconnected-(U2-Pad3)*%
X141370000Y-76589000D03*
%TO.P,U2,4*%
%TO.N,unconnected-(U2-Pad4)*%
X141370000Y-79129000D03*
%TO.P,U2,5*%
%TO.N,unconnected-(U2-Pad5)*%
X141370000Y-81669000D03*
%TO.P,U2,6*%
%TO.N,unconnected-(U2-Pad6)*%
X141370000Y-84209000D03*
%TO.P,U2,7*%
%TO.N,unconnected-(U2-Pad7)*%
X141370000Y-86749000D03*
%TO.P,U2,8*%
%TO.N,unconnected-(U2-Pad8)*%
X141370000Y-89289000D03*
%TO.P,U2,9*%
%TO.N,unconnected-(U2-Pad9)*%
X141370000Y-91829000D03*
%TO.P,U2,10*%
%TO.N,unconnected-(U2-Pad10)*%
X141370000Y-94369000D03*
%TO.P,U2,11*%
%TO.N,unconnected-(U2-Pad11)*%
X141370000Y-96909000D03*
%TO.P,U2,12*%
%TO.N,unconnected-(U2-Pad12)*%
X141370000Y-99449000D03*
%TO.P,U2,13*%
%TO.N,unconnected-(U2-Pad13)*%
X141370000Y-101989000D03*
%TO.P,U2,14*%
%TO.N,unconnected-(U2-Pad14)*%
X141370000Y-104529000D03*
%TO.P,U2,15*%
%TO.N,unconnected-(U2-Pad15)*%
X141370000Y-107069000D03*
%TO.P,U2,16*%
%TO.N,unconnected-(U2-Pad16)*%
X84970000Y-107039000D03*
%TO.P,U2,17*%
%TO.N,unconnected-(U2-Pad17)*%
X84970000Y-104499000D03*
%TO.P,U2,18*%
%TO.N,unconnected-(U2-Pad18)*%
X84970000Y-101959000D03*
%TO.P,U2,19*%
%TO.N,unconnected-(U2-Pad19)*%
X84970000Y-99419000D03*
%TO.P,U2,20*%
%TO.N,unconnected-(U2-Pad20)*%
X84970000Y-96879000D03*
%TO.P,U2,21*%
%TO.N,unconnected-(U2-Pad21)*%
X84970000Y-94339000D03*
%TO.P,U2,22*%
%TO.N,unconnected-(U2-Pad22)*%
X84970000Y-91799000D03*
%TO.P,U2,23*%
%TO.N,I2C1_SDA*%
X84970000Y-89259000D03*
%TO.P,U2,24*%
%TO.N,I2C1_SCL*%
X84970000Y-86719000D03*
%TO.P,U2,25*%
%TO.N,unconnected-(U2-Pad25)*%
X84970000Y-84179000D03*
%TO.P,U2,26*%
%TO.N,unconnected-(U2-Pad26)*%
X84970000Y-81639000D03*
%TO.P,U2,27*%
%TO.N,unconnected-(U2-Pad27)*%
X84970000Y-79099000D03*
%TO.P,U2,28*%
%TO.N,unconnected-(U2-Pad28)*%
X84970000Y-76559000D03*
%TO.P,U2,29*%
%TO.N,unconnected-(U2-Pad29)*%
X84970000Y-74019000D03*
D11*
%TO.P,U2,30*%
%TO.N,unconnected-(U2-Pad30)*%
X84970000Y-71479000D03*
%TO.P,U2,31*%
%TO.N,unconnected-(U2-Pad31)*%
X95395000Y-61094000D03*
D12*
%TO.P,U2,32*%
%TO.N,unconnected-(U2-Pad32)*%
X97935000Y-61094000D03*
%TO.P,U2,33*%
%TO.N,unconnected-(U2-Pad33)*%
X100475000Y-61094000D03*
%TO.P,U2,34*%
%TO.N,unconnected-(U2-Pad34)*%
X103015000Y-61094000D03*
%TO.P,U2,35*%
%TO.N,unconnected-(U2-Pad35)*%
X105555000Y-61094000D03*
%TO.P,U2,36*%
%TO.N,unconnected-(U2-Pad36)*%
X108095000Y-61094000D03*
%TO.P,U2,37*%
%TO.N,3.3V*%
X110635000Y-61094000D03*
%TO.P,U2,38*%
%TO.N,unconnected-(U2-Pad38)*%
X113175000Y-61094000D03*
%TO.P,U2,39*%
%TO.N,3.3V*%
X115715000Y-61094000D03*
%TO.P,U2,40*%
X118255000Y-61094000D03*
%TO.P,U2,41*%
%TO.N,unconnected-(U2-Pad41)*%
X120795000Y-61094000D03*
%TO.P,U2,42*%
%TO.N,unconnected-(U2-Pad42)*%
X123335000Y-61094000D03*
%TO.P,U2,43*%
%TO.N,unconnected-(U2-Pad43)*%
X125875000Y-61094000D03*
%TO.P,U2,44*%
%TO.N,unconnected-(U2-Pad44)*%
X128415000Y-61094000D03*
%TO.P,U2,45*%
%TO.N,unconnected-(U2-Pad45)*%
X130955000Y-61094000D03*
D13*
%TO.P,U2,49,1*%
%TO.N,GND*%
X140970000Y-117094000D03*
%TO.P,U2,50,1*%
X85370000Y-117094000D03*
%TO.P,U2,51,1*%
X85370000Y-61394000D03*
%TO.P,U2,52,1*%
X140970000Y-61409000D03*
%TD*%
%TA.AperFunction,Conductor*%
%TO.N,GND*%
G36*
X146672207Y-54294657D02*
G01*
X146739755Y-54299489D01*
X146886644Y-54311049D01*
X146894947Y-54312274D01*
X146989760Y-54332899D01*
X147106225Y-54360860D01*
X147113401Y-54363051D01*
X147209737Y-54398983D01*
X147287922Y-54431368D01*
X147315856Y-54442939D01*
X147321847Y-54445805D01*
X147412937Y-54495543D01*
X147415580Y-54497073D01*
X147510903Y-54555488D01*
X147515643Y-54558705D01*
X147599440Y-54621435D01*
X147602520Y-54623898D01*
X147686937Y-54695997D01*
X147690513Y-54699303D01*
X147764695Y-54773485D01*
X147768001Y-54777061D01*
X147840094Y-54861471D01*
X147842576Y-54864574D01*
X147905289Y-54948349D01*
X147908521Y-54953111D01*
X147966910Y-55048393D01*
X147968463Y-55051076D01*
X148018193Y-55142151D01*
X148021059Y-55148141D01*
X148065016Y-55254260D01*
X148100942Y-55350582D01*
X148103140Y-55357781D01*
X148131098Y-55474231D01*
X148151723Y-55569044D01*
X148152950Y-55577367D01*
X148164517Y-55724331D01*
X148169342Y-55791789D01*
X148169500Y-55796213D01*
X148169500Y-122791786D01*
X148169342Y-122796208D01*
X148167958Y-122815555D01*
X148164517Y-122863668D01*
X148152950Y-123010632D01*
X148151723Y-123018955D01*
X148131101Y-123113755D01*
X148103140Y-123230217D01*
X148100942Y-123237416D01*
X148065016Y-123333739D01*
X148021059Y-123439857D01*
X148018193Y-123445847D01*
X147968463Y-123536922D01*
X147966910Y-123539605D01*
X147908521Y-123634887D01*
X147905289Y-123639649D01*
X147842576Y-123723424D01*
X147840087Y-123726536D01*
X147768001Y-123810937D01*
X147764695Y-123814513D01*
X147690513Y-123888695D01*
X147686937Y-123892001D01*
X147602536Y-123964087D01*
X147599424Y-123966576D01*
X147515649Y-124029289D01*
X147510887Y-124032521D01*
X147415605Y-124090910D01*
X147412922Y-124092463D01*
X147321847Y-124142193D01*
X147315857Y-124145059D01*
X147209739Y-124189016D01*
X147113416Y-124224942D01*
X147106217Y-124227140D01*
X146989755Y-124255101D01*
X146894955Y-124275723D01*
X146886632Y-124276950D01*
X146739668Y-124288517D01*
X146691555Y-124291958D01*
X146672208Y-124293342D01*
X146667786Y-124293500D01*
X79672214Y-124293500D01*
X79667791Y-124293342D01*
X79640244Y-124291371D01*
X79600373Y-124288520D01*
X79453361Y-124276949D01*
X79445038Y-124275722D01*
X79350272Y-124255107D01*
X79233786Y-124227141D01*
X79226586Y-124224943D01*
X79130269Y-124189019D01*
X79024135Y-124145056D01*
X79018144Y-124142190D01*
X78927086Y-124092469D01*
X78924405Y-124090916D01*
X78829110Y-124032520D01*
X78824352Y-124029291D01*
X78740567Y-123966570D01*
X78737471Y-123964094D01*
X78653061Y-123892001D01*
X78649485Y-123888695D01*
X78575303Y-123814513D01*
X78571997Y-123810937D01*
X78499898Y-123726520D01*
X78497435Y-123723440D01*
X78434701Y-123639638D01*
X78431487Y-123634901D01*
X78373079Y-123539588D01*
X78371535Y-123536922D01*
X78321802Y-123445841D01*
X78318942Y-123439863D01*
X78274980Y-123333730D01*
X78269751Y-123319710D01*
X78239052Y-123237404D01*
X78236859Y-123230217D01*
X78208900Y-123113764D01*
X78188275Y-123018953D01*
X78187051Y-123010651D01*
X78175480Y-122863627D01*
X78175131Y-122858755D01*
X78170655Y-122796178D01*
X78170499Y-122791815D01*
X78170499Y-117094000D01*
X79665127Y-117094000D01*
X79684612Y-117565109D01*
X79742933Y-118032989D01*
X79742934Y-118032989D01*
X79839694Y-118494459D01*
X79974232Y-118946365D01*
X80145626Y-119385615D01*
X80145626Y-119385616D01*
X80352714Y-119809220D01*
X80352715Y-119809221D01*
X80594069Y-120214266D01*
X80594068Y-120214265D01*
X80868050Y-120598001D01*
X81163549Y-120946895D01*
X82136382Y-119974062D01*
X82197705Y-119940577D01*
X82267396Y-119945561D01*
X82315941Y-119978470D01*
X82396569Y-120067430D01*
X82485528Y-120148057D01*
X82521982Y-120207663D01*
X82520423Y-120277515D01*
X82489936Y-120327616D01*
X81517103Y-121300449D01*
X81517103Y-121300450D01*
X81865999Y-121595950D01*
X82249735Y-121869932D01*
X82249734Y-121869931D01*
X82654779Y-122111285D01*
X82654780Y-122111286D01*
X83078384Y-122318374D01*
X83078385Y-122318374D01*
X83517635Y-122489768D01*
X83969541Y-122624306D01*
X84431011Y-122721066D01*
X84431011Y-122721067D01*
X84898891Y-122779388D01*
X85370000Y-122798873D01*
X85841109Y-122779388D01*
X86308989Y-122721067D01*
X86308989Y-122721066D01*
X86770459Y-122624306D01*
X87222365Y-122489768D01*
X87661615Y-122318374D01*
X87661616Y-122318374D01*
X88085220Y-122111286D01*
X88085221Y-122111285D01*
X88490266Y-121869931D01*
X88490265Y-121869932D01*
X88874001Y-121595950D01*
X89222895Y-121300450D01*
X89222895Y-121300449D01*
X88250062Y-120327616D01*
X88216577Y-120266293D01*
X88221561Y-120196601D01*
X88254468Y-120148060D01*
X88343430Y-120067430D01*
X88424059Y-119978468D01*
X88483662Y-119942017D01*
X88553514Y-119943574D01*
X88603616Y-119974062D01*
X89576449Y-120946895D01*
X89576450Y-120946895D01*
X89871950Y-120598001D01*
X90145932Y-120214265D01*
X90145931Y-120214266D01*
X90387285Y-119809221D01*
X90387286Y-119809220D01*
X90594374Y-119385616D01*
X90594374Y-119385615D01*
X90765768Y-118946365D01*
X90900306Y-118494459D01*
X90997066Y-118032989D01*
X90997067Y-118032989D01*
X91055388Y-117565109D01*
X91074873Y-117094000D01*
X135265127Y-117094000D01*
X135284612Y-117565109D01*
X135342933Y-118032989D01*
X135342934Y-118032989D01*
X135439694Y-118494459D01*
X135574232Y-118946365D01*
X135745626Y-119385615D01*
X135745626Y-119385616D01*
X135952714Y-119809220D01*
X135952715Y-119809221D01*
X136194069Y-120214266D01*
X136194068Y-120214265D01*
X136468050Y-120598001D01*
X136763549Y-120946895D01*
X137736382Y-119974062D01*
X137797705Y-119940577D01*
X137867396Y-119945561D01*
X137915941Y-119978470D01*
X137996569Y-120067430D01*
X138085528Y-120148057D01*
X138121982Y-120207663D01*
X138120423Y-120277515D01*
X138089936Y-120327616D01*
X137117103Y-121300449D01*
X137117103Y-121300450D01*
X137465999Y-121595950D01*
X137849735Y-121869932D01*
X137849734Y-121869931D01*
X138254779Y-122111285D01*
X138254780Y-122111286D01*
X138678384Y-122318374D01*
X138678385Y-122318374D01*
X139117635Y-122489768D01*
X139569541Y-122624306D01*
X140031011Y-122721066D01*
X140031011Y-122721067D01*
X140498891Y-122779388D01*
X140970000Y-122798873D01*
X141441109Y-122779388D01*
X141908989Y-122721067D01*
X141908989Y-122721066D01*
X142370459Y-122624306D01*
X142822365Y-122489768D01*
X143261615Y-122318374D01*
X143261616Y-122318374D01*
X143685220Y-122111286D01*
X143685221Y-122111285D01*
X144090266Y-121869931D01*
X144090265Y-121869932D01*
X144474001Y-121595950D01*
X144822895Y-121300450D01*
X144822895Y-121300449D01*
X143850062Y-120327616D01*
X143816577Y-120266293D01*
X143821561Y-120196601D01*
X143854468Y-120148060D01*
X143943430Y-120067430D01*
X144024059Y-119978468D01*
X144083662Y-119942017D01*
X144153514Y-119943574D01*
X144203616Y-119974062D01*
X145176449Y-120946895D01*
X145176450Y-120946895D01*
X145471950Y-120598001D01*
X145745932Y-120214265D01*
X145745931Y-120214266D01*
X145987285Y-119809221D01*
X145987286Y-119809220D01*
X146194374Y-119385616D01*
X146194374Y-119385615D01*
X146365768Y-118946365D01*
X146500306Y-118494459D01*
X146597066Y-118032989D01*
X146597067Y-118032989D01*
X146655388Y-117565109D01*
X146674873Y-117094000D01*
X146655388Y-116622891D01*
X146597067Y-116155011D01*
X146597066Y-116155011D01*
X146500306Y-115693541D01*
X146365768Y-115241635D01*
X146194374Y-114802385D01*
X146194374Y-114802384D01*
X145987286Y-114378780D01*
X145987285Y-114378779D01*
X145745931Y-113973734D01*
X145745932Y-113973735D01*
X145471950Y-113589999D01*
X145176450Y-113241103D01*
X145176449Y-113241103D01*
X144203616Y-114213936D01*
X144142293Y-114247421D01*
X144072601Y-114242437D01*
X144024057Y-114209528D01*
X143943430Y-114120569D01*
X143854470Y-114039941D01*
X143818016Y-113980335D01*
X143819575Y-113910483D01*
X143850062Y-113860382D01*
X144822895Y-112887549D01*
X144474001Y-112592050D01*
X144090265Y-112318068D01*
X144090266Y-112318069D01*
X143685221Y-112076715D01*
X143685220Y-112076714D01*
X143261616Y-111869626D01*
X143261615Y-111869626D01*
X142822365Y-111698232D01*
X142370459Y-111563694D01*
X141908989Y-111466934D01*
X141908989Y-111466933D01*
X141441109Y-111408612D01*
X140970000Y-111389127D01*
X140498891Y-111408612D01*
X140031011Y-111466933D01*
X140031011Y-111466934D01*
X139569541Y-111563694D01*
X139117635Y-111698232D01*
X138678385Y-111869626D01*
X138678384Y-111869626D01*
X138254780Y-112076714D01*
X138254779Y-112076715D01*
X137849734Y-112318069D01*
X137849735Y-112318068D01*
X137465999Y-112592050D01*
X137117103Y-112887549D01*
X138089936Y-113860382D01*
X138123421Y-113921705D01*
X138118437Y-113991397D01*
X138085529Y-114039940D01*
X137996569Y-114120569D01*
X137915940Y-114209529D01*
X137856334Y-114245982D01*
X137786481Y-114244423D01*
X137736382Y-114213936D01*
X136763549Y-113241103D01*
X136468050Y-113589999D01*
X136194068Y-113973735D01*
X136194069Y-113973734D01*
X135952715Y-114378779D01*
X135952714Y-114378780D01*
X135745626Y-114802384D01*
X135745626Y-114802385D01*
X135574232Y-115241635D01*
X135439694Y-115693541D01*
X135342934Y-116155011D01*
X135342933Y-116155011D01*
X135284612Y-116622891D01*
X135265127Y-117094000D01*
X91074873Y-117094000D01*
X91055388Y-116622891D01*
X90997067Y-116155011D01*
X90997066Y-116155011D01*
X90900306Y-115693541D01*
X90765768Y-115241635D01*
X90594374Y-114802385D01*
X90594374Y-114802384D01*
X90387286Y-114378780D01*
X90387285Y-114378779D01*
X90145931Y-113973734D01*
X90145932Y-113973735D01*
X89871950Y-113589999D01*
X89576450Y-113241103D01*
X89576449Y-113241103D01*
X88603616Y-114213936D01*
X88542293Y-114247421D01*
X88472601Y-114242437D01*
X88424057Y-114209528D01*
X88343430Y-114120569D01*
X88254470Y-114039941D01*
X88218016Y-113980335D01*
X88219575Y-113910483D01*
X88250062Y-113860382D01*
X89222895Y-112887549D01*
X88874001Y-112592050D01*
X88490265Y-112318068D01*
X88490266Y-112318069D01*
X88085221Y-112076715D01*
X88085220Y-112076714D01*
X87661616Y-111869626D01*
X87661615Y-111869626D01*
X87222365Y-111698232D01*
X86770459Y-111563694D01*
X86308989Y-111466934D01*
X86308989Y-111466933D01*
X85841109Y-111408612D01*
X85370000Y-111389127D01*
X84898891Y-111408612D01*
X84431011Y-111466933D01*
X84431011Y-111466934D01*
X83969541Y-111563694D01*
X83517635Y-111698232D01*
X83078385Y-111869626D01*
X83078384Y-111869626D01*
X82654780Y-112076714D01*
X82654779Y-112076715D01*
X82249734Y-112318069D01*
X82249735Y-112318068D01*
X81865999Y-112592050D01*
X81517103Y-112887549D01*
X82489936Y-113860382D01*
X82523421Y-113921705D01*
X82518437Y-113991397D01*
X82485529Y-114039940D01*
X82396569Y-114120569D01*
X82315940Y-114209529D01*
X82256334Y-114245982D01*
X82186481Y-114244423D01*
X82136382Y-114213936D01*
X81163549Y-113241103D01*
X80868050Y-113589999D01*
X80594068Y-113973735D01*
X80594069Y-113973734D01*
X80352715Y-114378779D01*
X80352714Y-114378780D01*
X80145626Y-114802384D01*
X80145626Y-114802385D01*
X79974232Y-115241635D01*
X79839694Y-115693541D01*
X79742934Y-116155011D01*
X79742933Y-116155011D01*
X79684612Y-116622891D01*
X79665127Y-117094000D01*
X78170499Y-117094000D01*
X78170499Y-107039000D01*
X83614341Y-107039000D01*
X83634936Y-107274403D01*
X83634938Y-107274413D01*
X83696094Y-107502655D01*
X83696096Y-107502659D01*
X83696097Y-107502663D01*
X83710087Y-107532664D01*
X83795965Y-107716830D01*
X83795967Y-107716834D01*
X83904281Y-107871521D01*
X83931505Y-107910401D01*
X84098599Y-108077495D01*
X84141448Y-108107498D01*
X84292165Y-108213032D01*
X84292167Y-108213033D01*
X84292170Y-108213035D01*
X84506337Y-108312903D01*
X84734592Y-108374063D01*
X84922918Y-108390539D01*
X84969999Y-108394659D01*
X84970000Y-108394659D01*
X84970001Y-108394659D01*
X85009234Y-108391226D01*
X85205408Y-108374063D01*
X85433663Y-108312903D01*
X85647830Y-108213035D01*
X85841401Y-108077495D01*
X86008495Y-107910401D01*
X86144035Y-107716830D01*
X86243903Y-107502663D01*
X86305063Y-107274408D01*
X86323034Y-107069000D01*
X140014341Y-107069000D01*
X140034936Y-107304403D01*
X140034938Y-107304413D01*
X140096094Y-107532655D01*
X140096096Y-107532659D01*
X140096097Y-107532663D01*
X140181976Y-107716830D01*
X140195965Y-107746830D01*
X140195967Y-107746834D01*
X140304281Y-107901521D01*
X140331505Y-107940401D01*
X140498599Y-108107495D01*
X140595384Y-108175265D01*
X140692165Y-108243032D01*
X140692167Y-108243033D01*
X140692170Y-108243035D01*
X140906337Y-108342903D01*
X141134592Y-108404063D01*
X141322918Y-108420539D01*
X141369999Y-108424659D01*
X141370000Y-108424659D01*
X141370001Y-108424659D01*
X141409234Y-108421226D01*
X141605408Y-108404063D01*
X141833663Y-108342903D01*
X142047830Y-108243035D01*
X142241401Y-108107495D01*
X142408495Y-107940401D01*
X142544035Y-107746830D01*
X142643903Y-107532663D01*
X142705063Y-107304408D01*
X142725659Y-107069000D01*
X142705063Y-106833592D01*
X142643903Y-106605337D01*
X142544035Y-106391171D01*
X142523028Y-106361169D01*
X142408494Y-106197597D01*
X142241402Y-106030506D01*
X142241396Y-106030501D01*
X142055842Y-105900575D01*
X142012217Y-105845998D01*
X142005023Y-105776500D01*
X142036546Y-105714145D01*
X142055842Y-105697425D01*
X142098686Y-105667425D01*
X142241401Y-105567495D01*
X142408495Y-105400401D01*
X142544035Y-105206830D01*
X142643903Y-104992663D01*
X142705063Y-104764408D01*
X142725659Y-104529000D01*
X142705063Y-104293592D01*
X142643903Y-104065337D01*
X142544035Y-103851171D01*
X142523028Y-103821169D01*
X142408494Y-103657597D01*
X142241402Y-103490506D01*
X142241396Y-103490501D01*
X142055842Y-103360575D01*
X142012217Y-103305998D01*
X142005023Y-103236500D01*
X142036546Y-103174145D01*
X142055842Y-103157425D01*
X142209466Y-103049856D01*
X142241401Y-103027495D01*
X142408495Y-102860401D01*
X142544035Y-102666830D01*
X142643903Y-102452663D01*
X142705063Y-102224408D01*
X142725659Y-101989000D01*
X142705063Y-101753592D01*
X142643903Y-101525337D01*
X142544035Y-101311171D01*
X142535307Y-101298705D01*
X142408494Y-101117597D01*
X142241402Y-100950506D01*
X142241396Y-100950501D01*
X142055842Y-100820575D01*
X142012217Y-100765998D01*
X142005023Y-100696500D01*
X142036546Y-100634145D01*
X142055842Y-100617425D01*
X142209466Y-100509856D01*
X142241401Y-100487495D01*
X142408495Y-100320401D01*
X142544035Y-100126830D01*
X142643903Y-99912663D01*
X142705063Y-99684408D01*
X142725659Y-99449000D01*
X142705063Y-99213592D01*
X142643903Y-98985337D01*
X142544035Y-98771171D01*
X142535307Y-98758705D01*
X142408494Y-98577597D01*
X142241402Y-98410506D01*
X142241396Y-98410501D01*
X142055842Y-98280575D01*
X142012217Y-98225998D01*
X142005023Y-98156500D01*
X142036546Y-98094145D01*
X142055842Y-98077425D01*
X142209466Y-97969856D01*
X142241401Y-97947495D01*
X142408495Y-97780401D01*
X142544035Y-97586830D01*
X142643903Y-97372663D01*
X142705063Y-97144408D01*
X142725659Y-96909000D01*
X142705063Y-96673592D01*
X142643903Y-96445337D01*
X142544035Y-96231171D01*
X142535307Y-96218705D01*
X142408494Y-96037597D01*
X142241402Y-95870506D01*
X142241396Y-95870501D01*
X142055842Y-95740575D01*
X142012217Y-95685998D01*
X142005023Y-95616500D01*
X142036546Y-95554145D01*
X142055842Y-95537425D01*
X142209466Y-95429856D01*
X142241401Y-95407495D01*
X142408495Y-95240401D01*
X142544035Y-95046830D01*
X142643903Y-94832663D01*
X142705063Y-94604408D01*
X142725659Y-94369000D01*
X142705063Y-94133592D01*
X142643903Y-93905337D01*
X142544035Y-93691171D01*
X142535307Y-93678705D01*
X142408494Y-93497597D01*
X142241402Y-93330506D01*
X142241396Y-93330501D01*
X142055842Y-93200575D01*
X142012217Y-93145998D01*
X142005023Y-93076500D01*
X142036546Y-93014145D01*
X142055842Y-92997425D01*
X142209466Y-92889856D01*
X142241401Y-92867495D01*
X142408495Y-92700401D01*
X142544035Y-92506830D01*
X142643903Y-92292663D01*
X142705063Y-92064408D01*
X142725659Y-91829000D01*
X142705063Y-91593592D01*
X142643903Y-91365337D01*
X142544035Y-91151171D01*
X142535307Y-91138705D01*
X142408494Y-90957597D01*
X142241402Y-90790506D01*
X142241396Y-90790501D01*
X142055842Y-90660575D01*
X142012217Y-90605998D01*
X142005023Y-90536500D01*
X142036546Y-90474145D01*
X142055842Y-90457425D01*
X142209466Y-90349856D01*
X142241401Y-90327495D01*
X142408495Y-90160401D01*
X142544035Y-89966830D01*
X142643903Y-89752663D01*
X142705063Y-89524408D01*
X142725659Y-89289000D01*
X142705063Y-89053592D01*
X142643903Y-88825337D01*
X142544035Y-88611171D01*
X142535307Y-88598705D01*
X142408494Y-88417597D01*
X142241402Y-88250506D01*
X142241396Y-88250501D01*
X142055842Y-88120575D01*
X142012217Y-88065998D01*
X142005023Y-87996500D01*
X142036546Y-87934145D01*
X142055842Y-87917425D01*
X142209466Y-87809856D01*
X142241401Y-87787495D01*
X142408495Y-87620401D01*
X142544035Y-87426830D01*
X142643903Y-87212663D01*
X142705063Y-86984408D01*
X142725659Y-86749000D01*
X142705063Y-86513592D01*
X142643903Y-86285337D01*
X142544035Y-86071171D01*
X142535307Y-86058705D01*
X142408494Y-85877597D01*
X142241402Y-85710506D01*
X142241396Y-85710501D01*
X142055842Y-85580575D01*
X142012217Y-85525998D01*
X142005023Y-85456500D01*
X142036546Y-85394145D01*
X142055842Y-85377425D01*
X142180129Y-85290398D01*
X142241401Y-85247495D01*
X142408495Y-85080401D01*
X142544035Y-84886830D01*
X142643903Y-84672663D01*
X142705063Y-84444408D01*
X142725659Y-84209000D01*
X142722598Y-84174019D01*
X142712990Y-84064196D01*
X142705063Y-83973592D01*
X142643903Y-83745337D01*
X142544035Y-83531171D01*
X142523028Y-83501169D01*
X142408494Y-83337597D01*
X142241402Y-83170506D01*
X142241396Y-83170501D01*
X142055842Y-83040575D01*
X142012217Y-82985998D01*
X142005023Y-82916500D01*
X142036546Y-82854145D01*
X142055842Y-82837425D01*
X142098686Y-82807425D01*
X142241401Y-82707495D01*
X142408495Y-82540401D01*
X142544035Y-82346830D01*
X142643903Y-82132663D01*
X142705063Y-81904408D01*
X142725659Y-81669000D01*
X142705063Y-81433592D01*
X142643903Y-81205337D01*
X142544035Y-80991171D01*
X142523028Y-80961169D01*
X142408494Y-80797597D01*
X142241402Y-80630506D01*
X142241396Y-80630501D01*
X142055842Y-80500575D01*
X142012217Y-80445998D01*
X142005023Y-80376500D01*
X142036546Y-80314145D01*
X142055842Y-80297425D01*
X142098686Y-80267425D01*
X142241401Y-80167495D01*
X142408495Y-80000401D01*
X142544035Y-79806830D01*
X142643903Y-79592663D01*
X142705063Y-79364408D01*
X142725659Y-79129000D01*
X142705063Y-78893592D01*
X142643903Y-78665337D01*
X142544035Y-78451171D01*
X142523028Y-78421169D01*
X142408494Y-78257597D01*
X142241402Y-78090506D01*
X142241396Y-78090501D01*
X142055842Y-77960575D01*
X142012217Y-77905998D01*
X142005023Y-77836500D01*
X142036546Y-77774145D01*
X142055842Y-77757425D01*
X142098686Y-77727425D01*
X142241401Y-77627495D01*
X142408495Y-77460401D01*
X142544035Y-77266830D01*
X142643903Y-77052663D01*
X142705063Y-76824408D01*
X142725659Y-76589000D01*
X142705063Y-76353592D01*
X142643903Y-76125337D01*
X142544035Y-75911171D01*
X142523028Y-75881169D01*
X142408494Y-75717597D01*
X142241402Y-75550506D01*
X142241396Y-75550501D01*
X142055842Y-75420575D01*
X142012217Y-75365998D01*
X142005023Y-75296500D01*
X142036546Y-75234145D01*
X142055842Y-75217425D01*
X142098686Y-75187425D01*
X142241401Y-75087495D01*
X142408495Y-74920401D01*
X142544035Y-74726830D01*
X142643903Y-74512663D01*
X142705063Y-74284408D01*
X142725659Y-74049000D01*
X142705063Y-73813592D01*
X142643903Y-73585337D01*
X142544035Y-73371171D01*
X142523027Y-73341169D01*
X142408496Y-73177600D01*
X142378495Y-73147599D01*
X142286567Y-73055671D01*
X142253084Y-72994351D01*
X142258068Y-72924659D01*
X142299939Y-72868725D01*
X142330915Y-72851810D01*
X142462331Y-72802796D01*
X142577546Y-72716546D01*
X142663796Y-72601331D01*
X142714091Y-72466483D01*
X142720500Y-72406873D01*
X142720499Y-70611128D01*
X142714091Y-70551517D01*
X142702901Y-70521516D01*
X142663797Y-70416671D01*
X142663793Y-70416664D01*
X142577547Y-70301455D01*
X142577544Y-70301452D01*
X142462335Y-70215206D01*
X142462328Y-70215202D01*
X142327482Y-70164908D01*
X142327483Y-70164908D01*
X142267883Y-70158501D01*
X142267881Y-70158500D01*
X142267873Y-70158500D01*
X142267864Y-70158500D01*
X140472129Y-70158500D01*
X140472123Y-70158501D01*
X140412516Y-70164908D01*
X140277671Y-70215202D01*
X140277664Y-70215206D01*
X140162455Y-70301452D01*
X140162452Y-70301455D01*
X140076206Y-70416664D01*
X140076202Y-70416671D01*
X140025908Y-70551517D01*
X140019501Y-70611116D01*
X140019501Y-70611123D01*
X140019500Y-70611135D01*
X140019500Y-72406870D01*
X140019501Y-72406876D01*
X140025908Y-72466483D01*
X140076202Y-72601328D01*
X140076206Y-72601335D01*
X140162452Y-72716544D01*
X140162455Y-72716547D01*
X140277664Y-72802793D01*
X140277671Y-72802797D01*
X140409081Y-72851810D01*
X140465015Y-72893681D01*
X140489432Y-72959145D01*
X140474580Y-73027418D01*
X140453430Y-73055673D01*
X140331503Y-73177600D01*
X140195965Y-73371169D01*
X140195964Y-73371171D01*
X140096098Y-73585335D01*
X140096094Y-73585344D01*
X140034938Y-73813586D01*
X140034936Y-73813596D01*
X140014341Y-74048999D01*
X140014341Y-74049000D01*
X140034936Y-74284403D01*
X140034938Y-74284413D01*
X140096094Y-74512655D01*
X140096096Y-74512659D01*
X140096097Y-74512663D01*
X140181976Y-74696830D01*
X140195965Y-74726830D01*
X140195967Y-74726834D01*
X140304281Y-74881521D01*
X140310499Y-74890402D01*
X140331501Y-74920395D01*
X140331506Y-74920402D01*
X140498597Y-75087493D01*
X140498603Y-75087498D01*
X140684158Y-75217425D01*
X140727783Y-75272002D01*
X140734977Y-75341500D01*
X140703454Y-75403855D01*
X140684158Y-75420575D01*
X140498597Y-75550505D01*
X140331505Y-75717597D01*
X140195965Y-75911169D01*
X140195964Y-75911171D01*
X140096098Y-76125335D01*
X140096094Y-76125344D01*
X140034938Y-76353586D01*
X140034936Y-76353596D01*
X140014341Y-76588999D01*
X140014341Y-76589000D01*
X140034936Y-76824403D01*
X140034938Y-76824413D01*
X140096094Y-77052655D01*
X140096096Y-77052659D01*
X140096097Y-77052663D01*
X140181976Y-77236830D01*
X140195965Y-77266830D01*
X140195967Y-77266834D01*
X140304281Y-77421521D01*
X140310499Y-77430402D01*
X140331501Y-77460395D01*
X140331506Y-77460402D01*
X140498597Y-77627493D01*
X140498603Y-77627498D01*
X140684158Y-77757425D01*
X140727783Y-77812002D01*
X140734977Y-77881500D01*
X140703454Y-77943855D01*
X140684158Y-77960575D01*
X140498597Y-78090505D01*
X140331505Y-78257597D01*
X140195965Y-78451169D01*
X140195964Y-78451171D01*
X140096098Y-78665335D01*
X140096094Y-78665344D01*
X140034938Y-78893586D01*
X140034936Y-78893596D01*
X140014341Y-79128999D01*
X140014341Y-79129000D01*
X140034936Y-79364403D01*
X140034938Y-79364413D01*
X140096094Y-79592655D01*
X140096096Y-79592659D01*
X140096097Y-79592663D01*
X140181976Y-79776830D01*
X140195965Y-79806830D01*
X140195967Y-79806834D01*
X140304281Y-79961521D01*
X140310499Y-79970402D01*
X140331501Y-80000395D01*
X140331506Y-80000402D01*
X140498597Y-80167493D01*
X140498603Y-80167498D01*
X140684158Y-80297425D01*
X140727783Y-80352002D01*
X140734977Y-80421500D01*
X140703454Y-80483855D01*
X140684158Y-80500575D01*
X140498597Y-80630505D01*
X140331505Y-80797597D01*
X140195965Y-80991169D01*
X140195964Y-80991171D01*
X140096098Y-81205335D01*
X140096094Y-81205344D01*
X140034938Y-81433586D01*
X140034936Y-81433596D01*
X140014341Y-81668999D01*
X140014341Y-81669000D01*
X140034936Y-81904403D01*
X140034938Y-81904413D01*
X140096094Y-82132655D01*
X140096096Y-82132659D01*
X140096097Y-82132663D01*
X140181976Y-82316830D01*
X140195965Y-82346830D01*
X140195967Y-82346834D01*
X140304281Y-82501521D01*
X140310499Y-82510402D01*
X140331501Y-82540395D01*
X140331506Y-82540402D01*
X140498597Y-82707493D01*
X140498603Y-82707498D01*
X140684158Y-82837425D01*
X140727783Y-82892002D01*
X140734977Y-82961500D01*
X140703454Y-83023855D01*
X140684158Y-83040575D01*
X140498597Y-83170505D01*
X140331505Y-83337597D01*
X140195965Y-83531169D01*
X140195964Y-83531171D01*
X140096098Y-83745335D01*
X140096094Y-83745344D01*
X140034938Y-83973586D01*
X140034936Y-83973596D01*
X140014341Y-84208999D01*
X140014341Y-84209000D01*
X140034936Y-84444403D01*
X140034938Y-84444413D01*
X140096094Y-84672655D01*
X140096096Y-84672659D01*
X140096097Y-84672663D01*
X140180898Y-84854519D01*
X140195965Y-84886830D01*
X140195967Y-84886834D01*
X140268192Y-84989981D01*
X140310499Y-85050402D01*
X140331501Y-85080395D01*
X140331506Y-85080402D01*
X140498597Y-85247493D01*
X140498603Y-85247498D01*
X140684158Y-85377425D01*
X140727783Y-85432002D01*
X140734977Y-85501500D01*
X140703454Y-85563855D01*
X140684158Y-85580575D01*
X140498597Y-85710505D01*
X140331505Y-85877597D01*
X140195965Y-86071169D01*
X140195964Y-86071171D01*
X140096098Y-86285335D01*
X140096094Y-86285344D01*
X140034938Y-86513586D01*
X140034936Y-86513596D01*
X140014341Y-86748999D01*
X140014341Y-86749000D01*
X140034936Y-86984403D01*
X140034938Y-86984413D01*
X140096094Y-87212655D01*
X140096096Y-87212659D01*
X140096097Y-87212663D01*
X140164745Y-87359878D01*
X140195965Y-87426830D01*
X140195967Y-87426834D01*
X140304281Y-87581521D01*
X140310499Y-87590402D01*
X140331501Y-87620395D01*
X140331506Y-87620402D01*
X140498597Y-87787493D01*
X140498603Y-87787498D01*
X140684158Y-87917425D01*
X140727783Y-87972002D01*
X140734977Y-88041500D01*
X140703454Y-88103855D01*
X140684158Y-88120575D01*
X140498597Y-88250505D01*
X140331505Y-88417597D01*
X140195965Y-88611169D01*
X140195964Y-88611171D01*
X140096098Y-88825335D01*
X140096094Y-88825344D01*
X140034938Y-89053586D01*
X140034936Y-89053596D01*
X140014341Y-89288999D01*
X140014341Y-89289000D01*
X140034936Y-89524403D01*
X140034938Y-89524413D01*
X140096094Y-89752655D01*
X140096096Y-89752659D01*
X140096097Y-89752663D01*
X140164745Y-89899878D01*
X140195965Y-89966830D01*
X140195967Y-89966834D01*
X140304281Y-90121521D01*
X140310499Y-90130402D01*
X140331501Y-90160395D01*
X140331506Y-90160402D01*
X140498597Y-90327493D01*
X140498603Y-90327498D01*
X140684158Y-90457425D01*
X140727783Y-90512002D01*
X140734977Y-90581500D01*
X140703454Y-90643855D01*
X140684158Y-90660575D01*
X140498597Y-90790505D01*
X140331505Y-90957597D01*
X140195965Y-91151169D01*
X140195964Y-91151171D01*
X140096098Y-91365335D01*
X140096094Y-91365344D01*
X140034938Y-91593586D01*
X140034936Y-91593596D01*
X140014341Y-91828999D01*
X140014341Y-91829000D01*
X140034936Y-92064403D01*
X140034938Y-92064413D01*
X140096094Y-92292655D01*
X140096096Y-92292659D01*
X140096097Y-92292663D01*
X140164745Y-92439878D01*
X140195965Y-92506830D01*
X140195967Y-92506834D01*
X140304281Y-92661521D01*
X140310499Y-92670402D01*
X140331501Y-92700395D01*
X140331506Y-92700402D01*
X140498597Y-92867493D01*
X140498603Y-92867498D01*
X140684158Y-92997425D01*
X140727783Y-93052002D01*
X140734977Y-93121500D01*
X140703454Y-93183855D01*
X140684158Y-93200575D01*
X140498597Y-93330505D01*
X140331505Y-93497597D01*
X140195965Y-93691169D01*
X140195964Y-93691171D01*
X140096098Y-93905335D01*
X140096094Y-93905344D01*
X140034938Y-94133586D01*
X140034936Y-94133596D01*
X140014341Y-94368999D01*
X140014341Y-94369000D01*
X140034936Y-94604403D01*
X140034938Y-94604413D01*
X140096094Y-94832655D01*
X140096096Y-94832659D01*
X140096097Y-94832663D01*
X140164745Y-94979878D01*
X140195965Y-95046830D01*
X140195967Y-95046834D01*
X140304281Y-95201521D01*
X140310499Y-95210402D01*
X140331501Y-95240395D01*
X140331506Y-95240402D01*
X140498597Y-95407493D01*
X140498603Y-95407498D01*
X140684158Y-95537425D01*
X140727783Y-95592002D01*
X140734977Y-95661500D01*
X140703454Y-95723855D01*
X140684158Y-95740575D01*
X140498597Y-95870505D01*
X140331505Y-96037597D01*
X140195965Y-96231169D01*
X140195964Y-96231171D01*
X140096098Y-96445335D01*
X140096094Y-96445344D01*
X140034938Y-96673586D01*
X140034936Y-96673596D01*
X140014341Y-96908999D01*
X140014341Y-96909000D01*
X140034936Y-97144403D01*
X140034938Y-97144413D01*
X140096094Y-97372655D01*
X140096096Y-97372659D01*
X140096097Y-97372663D01*
X140164745Y-97519878D01*
X140195965Y-97586830D01*
X140195967Y-97586834D01*
X140304281Y-97741521D01*
X140310499Y-97750402D01*
X140331501Y-97780395D01*
X140331506Y-97780402D01*
X140498597Y-97947493D01*
X140498603Y-97947498D01*
X140684158Y-98077425D01*
X140727783Y-98132002D01*
X140734977Y-98201500D01*
X140703454Y-98263855D01*
X140684158Y-98280575D01*
X140498597Y-98410505D01*
X140331505Y-98577597D01*
X140195965Y-98771169D01*
X140195964Y-98771171D01*
X140096098Y-98985335D01*
X140096094Y-98985344D01*
X140034938Y-99213586D01*
X140034936Y-99213596D01*
X140014341Y-99448999D01*
X140014341Y-99449000D01*
X140034936Y-99684403D01*
X140034938Y-99684413D01*
X140096094Y-99912655D01*
X140096096Y-99912659D01*
X140096097Y-99912663D01*
X140164745Y-100059878D01*
X140195965Y-100126830D01*
X140195967Y-100126834D01*
X140304281Y-100281521D01*
X140310499Y-100290402D01*
X140331501Y-100320395D01*
X140331506Y-100320402D01*
X140498597Y-100487493D01*
X140498603Y-100487498D01*
X140684158Y-100617425D01*
X140727783Y-100672002D01*
X140734977Y-100741500D01*
X140703454Y-100803855D01*
X140684158Y-100820575D01*
X140498597Y-100950505D01*
X140331505Y-101117597D01*
X140195965Y-101311169D01*
X140195964Y-101311171D01*
X140096098Y-101525335D01*
X140096094Y-101525344D01*
X140034938Y-101753586D01*
X140034936Y-101753596D01*
X140014341Y-101988999D01*
X140014341Y-101989000D01*
X140034936Y-102224403D01*
X140034938Y-102224413D01*
X140096094Y-102452655D01*
X140096096Y-102452659D01*
X140096097Y-102452663D01*
X140164745Y-102599878D01*
X140195965Y-102666830D01*
X140195967Y-102666834D01*
X140304281Y-102821521D01*
X140310499Y-102830402D01*
X140331501Y-102860395D01*
X140331506Y-102860402D01*
X140498597Y-103027493D01*
X140498603Y-103027498D01*
X140684158Y-103157425D01*
X140727783Y-103212002D01*
X140734977Y-103281500D01*
X140703454Y-103343855D01*
X140684158Y-103360575D01*
X140498597Y-103490505D01*
X140331505Y-103657597D01*
X140195965Y-103851169D01*
X140195964Y-103851171D01*
X140096098Y-104065335D01*
X140096094Y-104065344D01*
X140034938Y-104293586D01*
X140034936Y-104293596D01*
X140014341Y-104528999D01*
X140014341Y-104529000D01*
X140034936Y-104764403D01*
X140034938Y-104764413D01*
X140096094Y-104992655D01*
X140096096Y-104992659D01*
X140096097Y-104992663D01*
X140181976Y-105176830D01*
X140195965Y-105206830D01*
X140195967Y-105206834D01*
X140304281Y-105361521D01*
X140310499Y-105370402D01*
X140331501Y-105400395D01*
X140331506Y-105400402D01*
X140498597Y-105567493D01*
X140498603Y-105567498D01*
X140684158Y-105697425D01*
X140727783Y-105752002D01*
X140734977Y-105821500D01*
X140703454Y-105883855D01*
X140684158Y-105900575D01*
X140498597Y-106030505D01*
X140331505Y-106197597D01*
X140195965Y-106391169D01*
X140195964Y-106391171D01*
X140096098Y-106605335D01*
X140096094Y-106605344D01*
X140034938Y-106833586D01*
X140034936Y-106833596D01*
X140014341Y-107068999D01*
X140014341Y-107069000D01*
X86323034Y-107069000D01*
X86325659Y-107039000D01*
X86305063Y-106803592D01*
X86243903Y-106575337D01*
X86144035Y-106361171D01*
X86029502Y-106197599D01*
X86008494Y-106167597D01*
X85841402Y-106000506D01*
X85841396Y-106000501D01*
X85655842Y-105870575D01*
X85612217Y-105815998D01*
X85605023Y-105746500D01*
X85636546Y-105684145D01*
X85655842Y-105667425D01*
X85798552Y-105567498D01*
X85841401Y-105537495D01*
X86008495Y-105370401D01*
X86144035Y-105176830D01*
X86243903Y-104962663D01*
X86305063Y-104734408D01*
X86325659Y-104499000D01*
X86305063Y-104263592D01*
X86243903Y-104035337D01*
X86144035Y-103821171D01*
X86130822Y-103802300D01*
X86008494Y-103627597D01*
X85841402Y-103460506D01*
X85841396Y-103460501D01*
X85655842Y-103330575D01*
X85612217Y-103275998D01*
X85605023Y-103206500D01*
X85636546Y-103144145D01*
X85655842Y-103127425D01*
X85678026Y-103111891D01*
X85841401Y-102997495D01*
X86008495Y-102830401D01*
X86144035Y-102636830D01*
X86243903Y-102422663D01*
X86260156Y-102362005D01*
X101221564Y-102362005D01*
X101241273Y-102599869D01*
X101241275Y-102599881D01*
X101299870Y-102831267D01*
X101385946Y-103027498D01*
X101395753Y-103049856D01*
X101526306Y-103249682D01*
X101687968Y-103425295D01*
X101876331Y-103571903D01*
X102086255Y-103685509D01*
X102312016Y-103763012D01*
X102547453Y-103802300D01*
X102547454Y-103802300D01*
X102786146Y-103802300D01*
X102786147Y-103802300D01*
X103021584Y-103763012D01*
X103247345Y-103685509D01*
X103457269Y-103571903D01*
X103645632Y-103425295D01*
X103807294Y-103249682D01*
X103937847Y-103049856D01*
X104033729Y-102831267D01*
X104092325Y-102599878D01*
X104092326Y-102599869D01*
X104112036Y-102362005D01*
X124081564Y-102362005D01*
X124101273Y-102599869D01*
X124101275Y-102599881D01*
X124159870Y-102831267D01*
X124245946Y-103027498D01*
X124255753Y-103049856D01*
X124386306Y-103249682D01*
X124547968Y-103425295D01*
X124736331Y-103571903D01*
X124946255Y-103685509D01*
X125172016Y-103763012D01*
X125407453Y-103802300D01*
X125407454Y-103802300D01*
X125646146Y-103802300D01*
X125646147Y-103802300D01*
X125881584Y-103763012D01*
X126107345Y-103685509D01*
X126317269Y-103571903D01*
X126505632Y-103425295D01*
X126667294Y-103249682D01*
X126797847Y-103049856D01*
X126893729Y-102831267D01*
X126952325Y-102599878D01*
X126952326Y-102599869D01*
X126972036Y-102362005D01*
X126972036Y-102361994D01*
X126952326Y-102124130D01*
X126952324Y-102124118D01*
X126893729Y-101892732D01*
X126797848Y-101674147D01*
X126797847Y-101674144D01*
X126667294Y-101474318D01*
X126505632Y-101298705D01*
X126365776Y-101189851D01*
X126324965Y-101133144D01*
X126321290Y-101063371D01*
X126355921Y-101002687D01*
X126365765Y-100994157D01*
X126505632Y-100885295D01*
X126667294Y-100709682D01*
X126797847Y-100509856D01*
X126893729Y-100291267D01*
X126952325Y-100059878D01*
X126952326Y-100059869D01*
X126972036Y-99822005D01*
X126972036Y-99821994D01*
X126952326Y-99584130D01*
X126952324Y-99584118D01*
X126893729Y-99352732D01*
X126797848Y-99134147D01*
X126797847Y-99134144D01*
X126667294Y-98934318D01*
X126505632Y-98758705D01*
X126365778Y-98649853D01*
X126324966Y-98593143D01*
X126321291Y-98523370D01*
X126355922Y-98462687D01*
X126365779Y-98454146D01*
X126505632Y-98345295D01*
X126667294Y-98169682D01*
X126797847Y-97969856D01*
X126893729Y-97751267D01*
X126952325Y-97519878D01*
X126952326Y-97519869D01*
X126972036Y-97282005D01*
X126972036Y-97281994D01*
X126952326Y-97044130D01*
X126952324Y-97044118D01*
X126893729Y-96812732D01*
X126797848Y-96594147D01*
X126797847Y-96594144D01*
X126667294Y-96394318D01*
X126505632Y-96218705D01*
X126365776Y-96109851D01*
X126324965Y-96053144D01*
X126321290Y-95983371D01*
X126355921Y-95922687D01*
X126365765Y-95914157D01*
X126505632Y-95805295D01*
X126667294Y-95629682D01*
X126797847Y-95429856D01*
X126893729Y-95211267D01*
X126952325Y-94979878D01*
X126952326Y-94979869D01*
X126972036Y-94742005D01*
X126972036Y-94741994D01*
X126952326Y-94504130D01*
X126952324Y-94504118D01*
X126893729Y-94272732D01*
X126797848Y-94054147D01*
X126797847Y-94054144D01*
X126667294Y-93854318D01*
X126505632Y-93678705D01*
X126365778Y-93569853D01*
X126324966Y-93513143D01*
X126321291Y-93443370D01*
X126355922Y-93382687D01*
X126365779Y-93374146D01*
X126505632Y-93265295D01*
X126667294Y-93089682D01*
X126797847Y-92889856D01*
X126893729Y-92671267D01*
X126952325Y-92439878D01*
X126952326Y-92439869D01*
X126972036Y-92202005D01*
X126972036Y-92201994D01*
X126952326Y-91964130D01*
X126952324Y-91964118D01*
X126893729Y-91732732D01*
X126797848Y-91514147D01*
X126797847Y-91514144D01*
X126667294Y-91314318D01*
X126505632Y-91138705D01*
X126365778Y-91029853D01*
X126324966Y-90973143D01*
X126321291Y-90903370D01*
X126355922Y-90842687D01*
X126365779Y-90834146D01*
X126505632Y-90725295D01*
X126667294Y-90549682D01*
X126797847Y-90349856D01*
X126893729Y-90131267D01*
X126952325Y-89899878D01*
X126952326Y-89899869D01*
X126972036Y-89662005D01*
X126972036Y-89661994D01*
X126952326Y-89424130D01*
X126952324Y-89424118D01*
X126893729Y-89192732D01*
X126797848Y-88974147D01*
X126797847Y-88974144D01*
X126667294Y-88774318D01*
X126505632Y-88598705D01*
X126365778Y-88489853D01*
X126324966Y-88433143D01*
X126321291Y-88363370D01*
X126355922Y-88302687D01*
X126365779Y-88294146D01*
X126505632Y-88185295D01*
X126667294Y-88009682D01*
X126797847Y-87809856D01*
X126893729Y-87591267D01*
X126952325Y-87359878D01*
X126952326Y-87359869D01*
X126972036Y-87122005D01*
X126972036Y-87121994D01*
X126952326Y-86884130D01*
X126952324Y-86884118D01*
X126893729Y-86652732D01*
X126797848Y-86434147D01*
X126797847Y-86434144D01*
X126667294Y-86234318D01*
X126505632Y-86058705D01*
X126505627Y-86058701D01*
X126505625Y-86058699D01*
X126365371Y-85949535D01*
X126324558Y-85892825D01*
X126320883Y-85823052D01*
X126353792Y-85765387D01*
X126353958Y-85762711D01*
X125879296Y-85288049D01*
X125845811Y-85226726D01*
X125850795Y-85157034D01*
X125892667Y-85101101D01*
X125894092Y-85100050D01*
X125962427Y-85050401D01*
X125964942Y-85048574D01*
X126051017Y-84944526D01*
X126108916Y-84905421D01*
X126178768Y-84903825D01*
X126234241Y-84935888D01*
X126706741Y-85408389D01*
X126797404Y-85269621D01*
X126797409Y-85269613D01*
X126893254Y-85051104D01*
X126951830Y-84819796D01*
X126951832Y-84819788D01*
X126971534Y-84582006D01*
X126971534Y-84581993D01*
X126951832Y-84344211D01*
X126951830Y-84344203D01*
X126893254Y-84112895D01*
X126797406Y-83894380D01*
X126706741Y-83755609D01*
X126233599Y-84228752D01*
X126172276Y-84262237D01*
X126102584Y-84257253D01*
X126046651Y-84215381D01*
X126041222Y-84207514D01*
X126019963Y-84174016D01*
X125903016Y-84064196D01*
X125903013Y-84064193D01*
X125903010Y-84064191D01*
X125903006Y-84064189D01*
X125897703Y-84060336D01*
X125855038Y-84005006D01*
X125849059Y-83935393D01*
X125881665Y-83873598D01*
X125882908Y-83872337D01*
X126353959Y-83401287D01*
X126353958Y-83401286D01*
X126316997Y-83372518D01*
X126316991Y-83372513D01*
X126107149Y-83258953D01*
X126107139Y-83258948D01*
X125881464Y-83181474D01*
X125646104Y-83142200D01*
X125407496Y-83142200D01*
X125172135Y-83181474D01*
X124946460Y-83258948D01*
X124946450Y-83258953D01*
X124736607Y-83372514D01*
X124736602Y-83372517D01*
X124699640Y-83401286D01*
X124699640Y-83401287D01*
X125174303Y-83875950D01*
X125207788Y-83937273D01*
X125202804Y-84006965D01*
X125160932Y-84062898D01*
X125159508Y-84063948D01*
X125088661Y-84115421D01*
X125088656Y-84115427D01*
X125002582Y-84219471D01*
X124944682Y-84258578D01*
X124874830Y-84260174D01*
X124819358Y-84228111D01*
X124346857Y-83755609D01*
X124256192Y-83894382D01*
X124160345Y-84112895D01*
X124101769Y-84344203D01*
X124101767Y-84344211D01*
X124082065Y-84581993D01*
X124082065Y-84582006D01*
X124101767Y-84819788D01*
X124101769Y-84819796D01*
X124160345Y-85051104D01*
X124256191Y-85269614D01*
X124346857Y-85408389D01*
X124819999Y-84935246D01*
X124881322Y-84901761D01*
X124951013Y-84906745D01*
X125006947Y-84948616D01*
X125012376Y-84956483D01*
X125033637Y-84989984D01*
X125150586Y-85099806D01*
X125155891Y-85103660D01*
X125198559Y-85158988D01*
X125204540Y-85228602D01*
X125171936Y-85290398D01*
X125170690Y-85291661D01*
X124699639Y-85762711D01*
X124700113Y-85770345D01*
X124729042Y-85810543D01*
X124732714Y-85880316D01*
X124698081Y-85940999D01*
X124688228Y-85949536D01*
X124547970Y-86058703D01*
X124386306Y-86234317D01*
X124255751Y-86434147D01*
X124159870Y-86652732D01*
X124101275Y-86884118D01*
X124101273Y-86884130D01*
X124081564Y-87121994D01*
X124081564Y-87122005D01*
X124101273Y-87359869D01*
X124101275Y-87359881D01*
X124159870Y-87591267D01*
X124245946Y-87787498D01*
X124255753Y-87809856D01*
X124386306Y-88009682D01*
X124547968Y-88185295D01*
X124547971Y-88185297D01*
X124547974Y-88185300D01*
X124687820Y-88294147D01*
X124728633Y-88350857D01*
X124732308Y-88420630D01*
X124697676Y-88481313D01*
X124687820Y-88489853D01*
X124547974Y-88598699D01*
X124547971Y-88598702D01*
X124386306Y-88774317D01*
X124255751Y-88974147D01*
X124159870Y-89192732D01*
X124101275Y-89424118D01*
X124101273Y-89424130D01*
X124081564Y-89661994D01*
X124081564Y-89662005D01*
X124101273Y-89899869D01*
X124101275Y-89899881D01*
X124159870Y-90131267D01*
X124245946Y-90327498D01*
X124255753Y-90349856D01*
X124386306Y-90549682D01*
X124547968Y-90725295D01*
X124547971Y-90725297D01*
X124547974Y-90725300D01*
X124687820Y-90834147D01*
X124728633Y-90890857D01*
X124732308Y-90960630D01*
X124697676Y-91021313D01*
X124687820Y-91029853D01*
X124547974Y-91138699D01*
X124547971Y-91138702D01*
X124386306Y-91314317D01*
X124255751Y-91514147D01*
X124159870Y-91732732D01*
X124101275Y-91964118D01*
X124101273Y-91964130D01*
X124081564Y-92201994D01*
X124081564Y-92202005D01*
X124101273Y-92439869D01*
X124101275Y-92439881D01*
X124159870Y-92671267D01*
X124245946Y-92867498D01*
X124255753Y-92889856D01*
X124386306Y-93089682D01*
X124547968Y-93265295D01*
X124547971Y-93265297D01*
X124547974Y-93265300D01*
X124687820Y-93374147D01*
X124728633Y-93430857D01*
X124732308Y-93500630D01*
X124697676Y-93561313D01*
X124687820Y-93569853D01*
X124547974Y-93678699D01*
X124547971Y-93678702D01*
X124386306Y-93854317D01*
X124255751Y-94054147D01*
X124159870Y-94272732D01*
X124101275Y-94504118D01*
X124101273Y-94504130D01*
X124081564Y-94741994D01*
X124081564Y-94742005D01*
X124101273Y-94979869D01*
X124101275Y-94979881D01*
X124159870Y-95211267D01*
X124245946Y-95407498D01*
X124255753Y-95429856D01*
X124386306Y-95629682D01*
X124547968Y-95805295D01*
X124687820Y-95914146D01*
X124728633Y-95970856D01*
X124732308Y-96040629D01*
X124697677Y-96101312D01*
X124687821Y-96109852D01*
X124547970Y-96218703D01*
X124386306Y-96394317D01*
X124255751Y-96594147D01*
X124159870Y-96812732D01*
X124101275Y-97044118D01*
X124101273Y-97044130D01*
X124081564Y-97281994D01*
X124081564Y-97282005D01*
X124101273Y-97519869D01*
X124101275Y-97519881D01*
X124159870Y-97751267D01*
X124245946Y-97947498D01*
X124255753Y-97969856D01*
X124386306Y-98169682D01*
X124547968Y-98345295D01*
X124687820Y-98454146D01*
X124728633Y-98510856D01*
X124732308Y-98580629D01*
X124697677Y-98641312D01*
X124687821Y-98649852D01*
X124547970Y-98758703D01*
X124386306Y-98934317D01*
X124255751Y-99134147D01*
X124159870Y-99352732D01*
X124101275Y-99584118D01*
X124101273Y-99584130D01*
X124081564Y-99821994D01*
X124081564Y-99822005D01*
X124101273Y-100059869D01*
X124101275Y-100059881D01*
X124159870Y-100291267D01*
X124245946Y-100487498D01*
X124255753Y-100509856D01*
X124386306Y-100709682D01*
X124547968Y-100885295D01*
X124687820Y-100994146D01*
X124728633Y-101050856D01*
X124732308Y-101120629D01*
X124697677Y-101181312D01*
X124687821Y-101189852D01*
X124547970Y-101298703D01*
X124386306Y-101474317D01*
X124255751Y-101674147D01*
X124159870Y-101892732D01*
X124101275Y-102124118D01*
X124101273Y-102124130D01*
X124081564Y-102361994D01*
X124081564Y-102362005D01*
X104112036Y-102362005D01*
X104112036Y-102361994D01*
X104092326Y-102124130D01*
X104092324Y-102124118D01*
X104033729Y-101892732D01*
X103937848Y-101674147D01*
X103937847Y-101674144D01*
X103807294Y-101474318D01*
X103645632Y-101298705D01*
X103606497Y-101268245D01*
X103505778Y-101189852D01*
X103464966Y-101133142D01*
X103461291Y-101063369D01*
X103495923Y-101002686D01*
X103505763Y-100994158D01*
X103645632Y-100885295D01*
X103807294Y-100709682D01*
X103937847Y-100509856D01*
X104033729Y-100291267D01*
X104092325Y-100059878D01*
X104092326Y-100059869D01*
X104112036Y-99822005D01*
X104112036Y-99821994D01*
X104092326Y-99584130D01*
X104092324Y-99584118D01*
X104033729Y-99352732D01*
X103937848Y-99134147D01*
X103937847Y-99134144D01*
X103807294Y-98934318D01*
X103645632Y-98758705D01*
X103505778Y-98649853D01*
X103464966Y-98593143D01*
X103461291Y-98523370D01*
X103495922Y-98462687D01*
X103505779Y-98454146D01*
X103645632Y-98345295D01*
X103807294Y-98169682D01*
X103937847Y-97969856D01*
X104033729Y-97751267D01*
X104092325Y-97519878D01*
X104092326Y-97519869D01*
X104112036Y-97282005D01*
X104112036Y-97281994D01*
X104092326Y-97044130D01*
X104092324Y-97044118D01*
X104033729Y-96812732D01*
X103937848Y-96594147D01*
X103937847Y-96594144D01*
X103807294Y-96394318D01*
X103645632Y-96218705D01*
X103505778Y-96109853D01*
X103464966Y-96053143D01*
X103461291Y-95983370D01*
X103495922Y-95922687D01*
X103505779Y-95914146D01*
X103645632Y-95805295D01*
X103807294Y-95629682D01*
X103937847Y-95429856D01*
X104033729Y-95211267D01*
X104092325Y-94979878D01*
X104092326Y-94979869D01*
X104112036Y-94742005D01*
X104112036Y-94741994D01*
X104092326Y-94504130D01*
X104092324Y-94504118D01*
X104033729Y-94272732D01*
X103937848Y-94054147D01*
X103937847Y-94054144D01*
X103807294Y-93854318D01*
X103645632Y-93678705D01*
X103505778Y-93569853D01*
X103464966Y-93513143D01*
X103461291Y-93443370D01*
X103495922Y-93382687D01*
X103505779Y-93374146D01*
X103645632Y-93265295D01*
X103807294Y-93089682D01*
X103937847Y-92889856D01*
X104033729Y-92671267D01*
X104092325Y-92439878D01*
X104092326Y-92439869D01*
X104112036Y-92202005D01*
X104112036Y-92201994D01*
X104092326Y-91964130D01*
X104092324Y-91964118D01*
X104033729Y-91732732D01*
X103937848Y-91514147D01*
X103937847Y-91514144D01*
X103807294Y-91314318D01*
X103645632Y-91138705D01*
X103505778Y-91029853D01*
X103464966Y-90973143D01*
X103461291Y-90903370D01*
X103495922Y-90842687D01*
X103505779Y-90834146D01*
X103645632Y-90725295D01*
X103807294Y-90549682D01*
X103937847Y-90349856D01*
X104033729Y-90131267D01*
X104092325Y-89899878D01*
X104092326Y-89899869D01*
X104112036Y-89662005D01*
X104112036Y-89661994D01*
X104092326Y-89424130D01*
X104092324Y-89424118D01*
X104033729Y-89192732D01*
X103937848Y-88974147D01*
X103937847Y-88974144D01*
X103807294Y-88774318D01*
X103645632Y-88598705D01*
X103505778Y-88489853D01*
X103464966Y-88433143D01*
X103461291Y-88363370D01*
X103495922Y-88302687D01*
X103505779Y-88294146D01*
X103645632Y-88185295D01*
X103807294Y-88009682D01*
X103937847Y-87809856D01*
X104033729Y-87591267D01*
X104092325Y-87359878D01*
X104092326Y-87359869D01*
X104112036Y-87122005D01*
X104112036Y-87121994D01*
X104092326Y-86884130D01*
X104092324Y-86884118D01*
X104033729Y-86652732D01*
X103937848Y-86434147D01*
X103937847Y-86434144D01*
X103807294Y-86234318D01*
X103645632Y-86058705D01*
X103645627Y-86058701D01*
X103645625Y-86058699D01*
X103505371Y-85949535D01*
X103464558Y-85892825D01*
X103460883Y-85823052D01*
X103493792Y-85765387D01*
X103493958Y-85762711D01*
X103019296Y-85288049D01*
X102985811Y-85226726D01*
X102990795Y-85157034D01*
X103032667Y-85101101D01*
X103034092Y-85100050D01*
X103102427Y-85050401D01*
X103104942Y-85048574D01*
X103191017Y-84944526D01*
X103248916Y-84905421D01*
X103318768Y-84903825D01*
X103374241Y-84935888D01*
X103846741Y-85408389D01*
X103937404Y-85269621D01*
X103937409Y-85269613D01*
X104033254Y-85051104D01*
X104091830Y-84819796D01*
X104091832Y-84819788D01*
X104111534Y-84582006D01*
X104111534Y-84581993D01*
X104091832Y-84344211D01*
X104091830Y-84344203D01*
X104033254Y-84112895D01*
X103937406Y-83894380D01*
X103846741Y-83755609D01*
X103373599Y-84228752D01*
X103312276Y-84262237D01*
X103242584Y-84257253D01*
X103186651Y-84215381D01*
X103181222Y-84207514D01*
X103159963Y-84174016D01*
X103043016Y-84064196D01*
X103043013Y-84064193D01*
X103043010Y-84064191D01*
X103043006Y-84064189D01*
X103037703Y-84060336D01*
X102995038Y-84005006D01*
X102989059Y-83935393D01*
X103021665Y-83873598D01*
X103022908Y-83872337D01*
X103493959Y-83401287D01*
X103493958Y-83401286D01*
X103456997Y-83372518D01*
X103456991Y-83372513D01*
X103247149Y-83258953D01*
X103247139Y-83258948D01*
X103021464Y-83181474D01*
X102786104Y-83142200D01*
X102547496Y-83142200D01*
X102312135Y-83181474D01*
X102086460Y-83258948D01*
X102086450Y-83258953D01*
X101876607Y-83372514D01*
X101876602Y-83372517D01*
X101839640Y-83401286D01*
X101839640Y-83401287D01*
X102314303Y-83875950D01*
X102347788Y-83937273D01*
X102342804Y-84006965D01*
X102300932Y-84062898D01*
X102299508Y-84063948D01*
X102228661Y-84115421D01*
X102228656Y-84115427D01*
X102142582Y-84219471D01*
X102084682Y-84258578D01*
X102014830Y-84260174D01*
X101959358Y-84228111D01*
X101486857Y-83755609D01*
X101396192Y-83894382D01*
X101300345Y-84112895D01*
X101241769Y-84344203D01*
X101241767Y-84344211D01*
X101222065Y-84581993D01*
X101222065Y-84582006D01*
X101241767Y-84819788D01*
X101241769Y-84819796D01*
X101300345Y-85051104D01*
X101396191Y-85269614D01*
X101486857Y-85408389D01*
X101959999Y-84935246D01*
X102021322Y-84901761D01*
X102091013Y-84906745D01*
X102146947Y-84948616D01*
X102152376Y-84956483D01*
X102173637Y-84989984D01*
X102290586Y-85099806D01*
X102295891Y-85103660D01*
X102338559Y-85158988D01*
X102344540Y-85228602D01*
X102311936Y-85290398D01*
X102310690Y-85291661D01*
X101839639Y-85762711D01*
X101840113Y-85770345D01*
X101869042Y-85810543D01*
X101872714Y-85880316D01*
X101838081Y-85940999D01*
X101828228Y-85949536D01*
X101687970Y-86058703D01*
X101526306Y-86234317D01*
X101395751Y-86434147D01*
X101299870Y-86652732D01*
X101241275Y-86884118D01*
X101241273Y-86884130D01*
X101221564Y-87121994D01*
X101221564Y-87122005D01*
X101241273Y-87359869D01*
X101241275Y-87359881D01*
X101299870Y-87591267D01*
X101385946Y-87787498D01*
X101395753Y-87809856D01*
X101526306Y-88009682D01*
X101687968Y-88185295D01*
X101687971Y-88185297D01*
X101687974Y-88185300D01*
X101827820Y-88294147D01*
X101868633Y-88350857D01*
X101872308Y-88420630D01*
X101837676Y-88481313D01*
X101827820Y-88489853D01*
X101687974Y-88598699D01*
X101687971Y-88598702D01*
X101526306Y-88774317D01*
X101395751Y-88974147D01*
X101299870Y-89192732D01*
X101241275Y-89424118D01*
X101241273Y-89424130D01*
X101221564Y-89661994D01*
X101221564Y-89662005D01*
X101241273Y-89899869D01*
X101241275Y-89899881D01*
X101299870Y-90131267D01*
X101385946Y-90327498D01*
X101395753Y-90349856D01*
X101526306Y-90549682D01*
X101687968Y-90725295D01*
X101687971Y-90725297D01*
X101687974Y-90725300D01*
X101827820Y-90834147D01*
X101868633Y-90890857D01*
X101872308Y-90960630D01*
X101837676Y-91021313D01*
X101827820Y-91029853D01*
X101687974Y-91138699D01*
X101687971Y-91138702D01*
X101526306Y-91314317D01*
X101395751Y-91514147D01*
X101299870Y-91732732D01*
X101241275Y-91964118D01*
X101241273Y-91964130D01*
X101221564Y-92201994D01*
X101221564Y-92202005D01*
X101241273Y-92439869D01*
X101241275Y-92439881D01*
X101299870Y-92671267D01*
X101385946Y-92867498D01*
X101395753Y-92889856D01*
X101526306Y-93089682D01*
X101687968Y-93265295D01*
X101687971Y-93265297D01*
X101687974Y-93265300D01*
X101827820Y-93374147D01*
X101868633Y-93430857D01*
X101872308Y-93500630D01*
X101837676Y-93561313D01*
X101827820Y-93569853D01*
X101687974Y-93678699D01*
X101687971Y-93678702D01*
X101526306Y-93854317D01*
X101395751Y-94054147D01*
X101299870Y-94272732D01*
X101241275Y-94504118D01*
X101241273Y-94504130D01*
X101221564Y-94741994D01*
X101221564Y-94742005D01*
X101241273Y-94979869D01*
X101241275Y-94979881D01*
X101299870Y-95211267D01*
X101385946Y-95407498D01*
X101395753Y-95429856D01*
X101526306Y-95629682D01*
X101687968Y-95805295D01*
X101687971Y-95805297D01*
X101687974Y-95805300D01*
X101827820Y-95914147D01*
X101868633Y-95970857D01*
X101872308Y-96040630D01*
X101837676Y-96101313D01*
X101827820Y-96109853D01*
X101687974Y-96218699D01*
X101687971Y-96218702D01*
X101526306Y-96394317D01*
X101395751Y-96594147D01*
X101299870Y-96812732D01*
X101241275Y-97044118D01*
X101241273Y-97044130D01*
X101221564Y-97281994D01*
X101221564Y-97282005D01*
X101241273Y-97519869D01*
X101241275Y-97519881D01*
X101299870Y-97751267D01*
X101385946Y-97947498D01*
X101395753Y-97969856D01*
X101526306Y-98169682D01*
X101687968Y-98345295D01*
X101827820Y-98454146D01*
X101868633Y-98510856D01*
X101872308Y-98580629D01*
X101837677Y-98641312D01*
X101827821Y-98649852D01*
X101687970Y-98758703D01*
X101526306Y-98934317D01*
X101395751Y-99134147D01*
X101299870Y-99352732D01*
X101241275Y-99584118D01*
X101241273Y-99584130D01*
X101221564Y-99821994D01*
X101221564Y-99822005D01*
X101241273Y-100059869D01*
X101241275Y-100059881D01*
X101299870Y-100291267D01*
X101385946Y-100487498D01*
X101395753Y-100509856D01*
X101526306Y-100709682D01*
X101687968Y-100885295D01*
X101827820Y-100994146D01*
X101868633Y-101050856D01*
X101872308Y-101120629D01*
X101837677Y-101181312D01*
X101827821Y-101189852D01*
X101687970Y-101298703D01*
X101526306Y-101474317D01*
X101395751Y-101674147D01*
X101299870Y-101892732D01*
X101241275Y-102124118D01*
X101241273Y-102124130D01*
X101221564Y-102361994D01*
X101221564Y-102362005D01*
X86260156Y-102362005D01*
X86305063Y-102194408D01*
X86325659Y-101959000D01*
X86305063Y-101723592D01*
X86243903Y-101495337D01*
X86144035Y-101281171D01*
X86080095Y-101189854D01*
X86008494Y-101087597D01*
X85841402Y-100920506D01*
X85841396Y-100920501D01*
X85655842Y-100790575D01*
X85612217Y-100735998D01*
X85605023Y-100666500D01*
X85636546Y-100604145D01*
X85655842Y-100587425D01*
X85678026Y-100571891D01*
X85841401Y-100457495D01*
X86008495Y-100290401D01*
X86144035Y-100096830D01*
X86243903Y-99882663D01*
X86305063Y-99654408D01*
X86325659Y-99419000D01*
X86305063Y-99183592D01*
X86243903Y-98955337D01*
X86144035Y-98741171D01*
X86080095Y-98649854D01*
X86008494Y-98547597D01*
X85841402Y-98380506D01*
X85841396Y-98380501D01*
X85655842Y-98250575D01*
X85612217Y-98195998D01*
X85605023Y-98126500D01*
X85636546Y-98064145D01*
X85655842Y-98047425D01*
X85678026Y-98031891D01*
X85841401Y-97917495D01*
X86008495Y-97750401D01*
X86144035Y-97556830D01*
X86243903Y-97342663D01*
X86305063Y-97114408D01*
X86325659Y-96879000D01*
X86305063Y-96643592D01*
X86243903Y-96415337D01*
X86144035Y-96201171D01*
X86080095Y-96109854D01*
X86008494Y-96007597D01*
X85841402Y-95840506D01*
X85841396Y-95840501D01*
X85655842Y-95710575D01*
X85612217Y-95655998D01*
X85605023Y-95586500D01*
X85636546Y-95524145D01*
X85655842Y-95507425D01*
X85678026Y-95491891D01*
X85841401Y-95377495D01*
X86008495Y-95210401D01*
X86144035Y-95016830D01*
X86243903Y-94802663D01*
X86305063Y-94574408D01*
X86325659Y-94339000D01*
X86305063Y-94103592D01*
X86243903Y-93875337D01*
X86144035Y-93661171D01*
X86080095Y-93569854D01*
X86008494Y-93467597D01*
X85841402Y-93300506D01*
X85841396Y-93300501D01*
X85655842Y-93170575D01*
X85612217Y-93115998D01*
X85605023Y-93046500D01*
X85636546Y-92984145D01*
X85655842Y-92967425D01*
X85678026Y-92951891D01*
X85841401Y-92837495D01*
X86008495Y-92670401D01*
X86144035Y-92476830D01*
X86243903Y-92262663D01*
X86305063Y-92034408D01*
X86325659Y-91799000D01*
X86305063Y-91563592D01*
X86243903Y-91335337D01*
X86144035Y-91121171D01*
X86080095Y-91029854D01*
X86008494Y-90927597D01*
X85841402Y-90760506D01*
X85841396Y-90760501D01*
X85655842Y-90630575D01*
X85612217Y-90575998D01*
X85605023Y-90506500D01*
X85636546Y-90444145D01*
X85655842Y-90427425D01*
X85678026Y-90411891D01*
X85841401Y-90297495D01*
X86008495Y-90130401D01*
X86144035Y-89936830D01*
X86243903Y-89722663D01*
X86305063Y-89494408D01*
X86325659Y-89259000D01*
X86305063Y-89023592D01*
X86243903Y-88795337D01*
X86144035Y-88581171D01*
X86080095Y-88489854D01*
X86008494Y-88387597D01*
X85841402Y-88220506D01*
X85841396Y-88220501D01*
X85655842Y-88090575D01*
X85612217Y-88035998D01*
X85605023Y-87966500D01*
X85636546Y-87904145D01*
X85655842Y-87887425D01*
X85678026Y-87871891D01*
X85841401Y-87757495D01*
X86008495Y-87590401D01*
X86144035Y-87396830D01*
X86243903Y-87182663D01*
X86305063Y-86954408D01*
X86325659Y-86719000D01*
X86305063Y-86483592D01*
X86243903Y-86255337D01*
X86144035Y-86041171D01*
X86073895Y-85940999D01*
X86008494Y-85847597D01*
X85841402Y-85680506D01*
X85841396Y-85680501D01*
X85655842Y-85550575D01*
X85612217Y-85495998D01*
X85605023Y-85426500D01*
X85636546Y-85364145D01*
X85655842Y-85347425D01*
X85737285Y-85290398D01*
X85841401Y-85217495D01*
X86008495Y-85050401D01*
X86144035Y-84856830D01*
X86243903Y-84642663D01*
X86305063Y-84414408D01*
X86325659Y-84179000D01*
X86305063Y-83943592D01*
X86243903Y-83715337D01*
X86144035Y-83501171D01*
X86029502Y-83337599D01*
X86008494Y-83307597D01*
X85841402Y-83140506D01*
X85841396Y-83140501D01*
X85655842Y-83010575D01*
X85612217Y-82955998D01*
X85605023Y-82886500D01*
X85636546Y-82824145D01*
X85655842Y-82807425D01*
X85798552Y-82707498D01*
X85841401Y-82677495D01*
X86008495Y-82510401D01*
X86144035Y-82316830D01*
X86243903Y-82102663D01*
X86305063Y-81874408D01*
X86325659Y-81639000D01*
X86305063Y-81403592D01*
X86243903Y-81175337D01*
X86144035Y-80961171D01*
X86029502Y-80797599D01*
X86008494Y-80767597D01*
X85841402Y-80600506D01*
X85841396Y-80600501D01*
X85655842Y-80470575D01*
X85612217Y-80415998D01*
X85605023Y-80346500D01*
X85636546Y-80284145D01*
X85655842Y-80267425D01*
X85798552Y-80167498D01*
X85841401Y-80137495D01*
X86008495Y-79970401D01*
X86144035Y-79776830D01*
X86243903Y-79562663D01*
X86305063Y-79334408D01*
X86325659Y-79099000D01*
X86305063Y-78863592D01*
X86243903Y-78635337D01*
X86144035Y-78421171D01*
X86029502Y-78257599D01*
X86008494Y-78227597D01*
X85841402Y-78060506D01*
X85841396Y-78060501D01*
X85655842Y-77930575D01*
X85612217Y-77875998D01*
X85605023Y-77806500D01*
X85636546Y-77744145D01*
X85655842Y-77727425D01*
X85798552Y-77627498D01*
X85841401Y-77597495D01*
X86008495Y-77430401D01*
X86144035Y-77236830D01*
X86243903Y-77022663D01*
X86305063Y-76794408D01*
X86325659Y-76559000D01*
X86305063Y-76323592D01*
X86243903Y-76095337D01*
X86144035Y-75881171D01*
X86029502Y-75717599D01*
X86008494Y-75687597D01*
X85841402Y-75520506D01*
X85841396Y-75520501D01*
X85655842Y-75390575D01*
X85612217Y-75335998D01*
X85605023Y-75266500D01*
X85636546Y-75204145D01*
X85655842Y-75187425D01*
X85798552Y-75087498D01*
X85841401Y-75057495D01*
X86008495Y-74890401D01*
X86144035Y-74696830D01*
X86243903Y-74482663D01*
X86305063Y-74254408D01*
X86325659Y-74019000D01*
X86305063Y-73783592D01*
X86243903Y-73555337D01*
X86144035Y-73341171D01*
X86008495Y-73147599D01*
X85886567Y-73025671D01*
X85853084Y-72964351D01*
X85858068Y-72894659D01*
X85899939Y-72838725D01*
X85930915Y-72821810D01*
X86062331Y-72772796D01*
X86177546Y-72686546D01*
X86263796Y-72571331D01*
X86314091Y-72436483D01*
X86320500Y-72376873D01*
X86320499Y-70581128D01*
X86314091Y-70521517D01*
X86274985Y-70416669D01*
X86263797Y-70386671D01*
X86263793Y-70386664D01*
X86177547Y-70271455D01*
X86177544Y-70271452D01*
X86062335Y-70185206D01*
X86062328Y-70185202D01*
X85927482Y-70134908D01*
X85927483Y-70134908D01*
X85867883Y-70128501D01*
X85867881Y-70128500D01*
X85867873Y-70128500D01*
X85867864Y-70128500D01*
X84072129Y-70128500D01*
X84072123Y-70128501D01*
X84012516Y-70134908D01*
X83877671Y-70185202D01*
X83877664Y-70185206D01*
X83762455Y-70271452D01*
X83762452Y-70271455D01*
X83676206Y-70386664D01*
X83676202Y-70386671D01*
X83625908Y-70521517D01*
X83619501Y-70581116D01*
X83619501Y-70581123D01*
X83619500Y-70581135D01*
X83619500Y-72376870D01*
X83619501Y-72376876D01*
X83625908Y-72436483D01*
X83676202Y-72571328D01*
X83676206Y-72571335D01*
X83762452Y-72686544D01*
X83762455Y-72686547D01*
X83877664Y-72772793D01*
X83877671Y-72772797D01*
X84009081Y-72821810D01*
X84065015Y-72863681D01*
X84089432Y-72929145D01*
X84074580Y-72997418D01*
X84053430Y-73025673D01*
X83931503Y-73147600D01*
X83795965Y-73341169D01*
X83795964Y-73341171D01*
X83696098Y-73555335D01*
X83696094Y-73555344D01*
X83634938Y-73783586D01*
X83634936Y-73783596D01*
X83614341Y-74018999D01*
X83614341Y-74019000D01*
X83634936Y-74254403D01*
X83634938Y-74254413D01*
X83696094Y-74482655D01*
X83696096Y-74482659D01*
X83696097Y-74482663D01*
X83710087Y-74512664D01*
X83795965Y-74696830D01*
X83795967Y-74696834D01*
X83931501Y-74890395D01*
X83931506Y-74890402D01*
X84098597Y-75057493D01*
X84098603Y-75057498D01*
X84284158Y-75187425D01*
X84327783Y-75242002D01*
X84334977Y-75311500D01*
X84303454Y-75373855D01*
X84284158Y-75390575D01*
X84098597Y-75520505D01*
X83931505Y-75687597D01*
X83795965Y-75881169D01*
X83795964Y-75881171D01*
X83696098Y-76095335D01*
X83696094Y-76095344D01*
X83634938Y-76323586D01*
X83634936Y-76323596D01*
X83614341Y-76558999D01*
X83614341Y-76559000D01*
X83634936Y-76794403D01*
X83634938Y-76794413D01*
X83696094Y-77022655D01*
X83696096Y-77022659D01*
X83696097Y-77022663D01*
X83710087Y-77052664D01*
X83795965Y-77236830D01*
X83795967Y-77236834D01*
X83931501Y-77430395D01*
X83931506Y-77430402D01*
X84098597Y-77597493D01*
X84098603Y-77597498D01*
X84284158Y-77727425D01*
X84327783Y-77782002D01*
X84334977Y-77851500D01*
X84303454Y-77913855D01*
X84284158Y-77930575D01*
X84098597Y-78060505D01*
X83931505Y-78227597D01*
X83795965Y-78421169D01*
X83795964Y-78421171D01*
X83696098Y-78635335D01*
X83696094Y-78635344D01*
X83634938Y-78863586D01*
X83634936Y-78863596D01*
X83614341Y-79098999D01*
X83614341Y-79099000D01*
X83634936Y-79334403D01*
X83634938Y-79334413D01*
X83696094Y-79562655D01*
X83696096Y-79562659D01*
X83696097Y-79562663D01*
X83710087Y-79592664D01*
X83795965Y-79776830D01*
X83795967Y-79776834D01*
X83931501Y-79970395D01*
X83931506Y-79970402D01*
X84098597Y-80137493D01*
X84098603Y-80137498D01*
X84284158Y-80267425D01*
X84327783Y-80322002D01*
X84334977Y-80391500D01*
X84303454Y-80453855D01*
X84284158Y-80470575D01*
X84098597Y-80600505D01*
X83931505Y-80767597D01*
X83795965Y-80961169D01*
X83795964Y-80961171D01*
X83696098Y-81175335D01*
X83696094Y-81175344D01*
X83634938Y-81403586D01*
X83634936Y-81403596D01*
X83614341Y-81638999D01*
X83614341Y-81639000D01*
X83634936Y-81874403D01*
X83634938Y-81874413D01*
X83696094Y-82102655D01*
X83696096Y-82102659D01*
X83696097Y-82102663D01*
X83710087Y-82132664D01*
X83795965Y-82316830D01*
X83795967Y-82316834D01*
X83931501Y-82510395D01*
X83931506Y-82510402D01*
X84098597Y-82677493D01*
X84098603Y-82677498D01*
X84284158Y-82807425D01*
X84327783Y-82862002D01*
X84334977Y-82931500D01*
X84303454Y-82993855D01*
X84284158Y-83010575D01*
X84098597Y-83140505D01*
X83931505Y-83307597D01*
X83795965Y-83501169D01*
X83795964Y-83501171D01*
X83696098Y-83715335D01*
X83696094Y-83715344D01*
X83634938Y-83943586D01*
X83634936Y-83943596D01*
X83614341Y-84178999D01*
X83614341Y-84179000D01*
X83634936Y-84414403D01*
X83634938Y-84414413D01*
X83696094Y-84642655D01*
X83696096Y-84642659D01*
X83696097Y-84642663D01*
X83760038Y-84779785D01*
X83795965Y-84856830D01*
X83795967Y-84856834D01*
X83931501Y-85050395D01*
X83931506Y-85050402D01*
X84098597Y-85217493D01*
X84098603Y-85217498D01*
X84284158Y-85347425D01*
X84327783Y-85402002D01*
X84334977Y-85471500D01*
X84303454Y-85533855D01*
X84284158Y-85550575D01*
X84098597Y-85680505D01*
X83931505Y-85847597D01*
X83795965Y-86041169D01*
X83795964Y-86041171D01*
X83696098Y-86255335D01*
X83696094Y-86255344D01*
X83634938Y-86483586D01*
X83634936Y-86483596D01*
X83614341Y-86718999D01*
X83614341Y-86719000D01*
X83634936Y-86954403D01*
X83634938Y-86954413D01*
X83696094Y-87182655D01*
X83696096Y-87182659D01*
X83696097Y-87182663D01*
X83710087Y-87212664D01*
X83795965Y-87396830D01*
X83795967Y-87396834D01*
X83931501Y-87590395D01*
X83931506Y-87590402D01*
X84098597Y-87757493D01*
X84098603Y-87757498D01*
X84284158Y-87887425D01*
X84327783Y-87942002D01*
X84334977Y-88011500D01*
X84303454Y-88073855D01*
X84284158Y-88090575D01*
X84098597Y-88220505D01*
X83931505Y-88387597D01*
X83795965Y-88581169D01*
X83795964Y-88581171D01*
X83696098Y-88795335D01*
X83696094Y-88795344D01*
X83634938Y-89023586D01*
X83634936Y-89023596D01*
X83614341Y-89258999D01*
X83614341Y-89259000D01*
X83634936Y-89494403D01*
X83634938Y-89494413D01*
X83696094Y-89722655D01*
X83696096Y-89722659D01*
X83696097Y-89722663D01*
X83710087Y-89752664D01*
X83795965Y-89936830D01*
X83795967Y-89936834D01*
X83931501Y-90130395D01*
X83931506Y-90130402D01*
X84098597Y-90297493D01*
X84098603Y-90297498D01*
X84284158Y-90427425D01*
X84327783Y-90482002D01*
X84334977Y-90551500D01*
X84303454Y-90613855D01*
X84284158Y-90630575D01*
X84098597Y-90760505D01*
X83931505Y-90927597D01*
X83795965Y-91121169D01*
X83795964Y-91121171D01*
X83696098Y-91335335D01*
X83696094Y-91335344D01*
X83634938Y-91563586D01*
X83634936Y-91563596D01*
X83614341Y-91798999D01*
X83614341Y-91799000D01*
X83634936Y-92034403D01*
X83634938Y-92034413D01*
X83696094Y-92262655D01*
X83696096Y-92262659D01*
X83696097Y-92262663D01*
X83710087Y-92292664D01*
X83795965Y-92476830D01*
X83795967Y-92476834D01*
X83931501Y-92670395D01*
X83931506Y-92670402D01*
X84098597Y-92837493D01*
X84098603Y-92837498D01*
X84284158Y-92967425D01*
X84327783Y-93022002D01*
X84334977Y-93091500D01*
X84303454Y-93153855D01*
X84284158Y-93170575D01*
X84098597Y-93300505D01*
X83931505Y-93467597D01*
X83795965Y-93661169D01*
X83795964Y-93661171D01*
X83696098Y-93875335D01*
X83696094Y-93875344D01*
X83634938Y-94103586D01*
X83634936Y-94103596D01*
X83614341Y-94338999D01*
X83614341Y-94339000D01*
X83634936Y-94574403D01*
X83634938Y-94574413D01*
X83696094Y-94802655D01*
X83696096Y-94802659D01*
X83696097Y-94802663D01*
X83710087Y-94832664D01*
X83795965Y-95016830D01*
X83795967Y-95016834D01*
X83931501Y-95210395D01*
X83931506Y-95210402D01*
X84098597Y-95377493D01*
X84098603Y-95377498D01*
X84284158Y-95507425D01*
X84327783Y-95562002D01*
X84334977Y-95631500D01*
X84303454Y-95693855D01*
X84284158Y-95710575D01*
X84098597Y-95840505D01*
X83931505Y-96007597D01*
X83795965Y-96201169D01*
X83795964Y-96201171D01*
X83696098Y-96415335D01*
X83696094Y-96415344D01*
X83634938Y-96643586D01*
X83634936Y-96643596D01*
X83614341Y-96878999D01*
X83614341Y-96879000D01*
X83634936Y-97114403D01*
X83634938Y-97114413D01*
X83696094Y-97342655D01*
X83696096Y-97342659D01*
X83696097Y-97342663D01*
X83710087Y-97372664D01*
X83795965Y-97556830D01*
X83795967Y-97556834D01*
X83931501Y-97750395D01*
X83931506Y-97750402D01*
X84098597Y-97917493D01*
X84098603Y-97917498D01*
X84284158Y-98047425D01*
X84327783Y-98102002D01*
X84334977Y-98171500D01*
X84303454Y-98233855D01*
X84284158Y-98250575D01*
X84098597Y-98380505D01*
X83931505Y-98547597D01*
X83795965Y-98741169D01*
X83795964Y-98741171D01*
X83696098Y-98955335D01*
X83696094Y-98955344D01*
X83634938Y-99183586D01*
X83634936Y-99183596D01*
X83614341Y-99418999D01*
X83614341Y-99419000D01*
X83634936Y-99654403D01*
X83634938Y-99654413D01*
X83696094Y-99882655D01*
X83696096Y-99882659D01*
X83696097Y-99882663D01*
X83710087Y-99912664D01*
X83795965Y-100096830D01*
X83795967Y-100096834D01*
X83931501Y-100290395D01*
X83931506Y-100290402D01*
X84098597Y-100457493D01*
X84098603Y-100457498D01*
X84284158Y-100587425D01*
X84327783Y-100642002D01*
X84334977Y-100711500D01*
X84303454Y-100773855D01*
X84284158Y-100790575D01*
X84098597Y-100920505D01*
X83931505Y-101087597D01*
X83795965Y-101281169D01*
X83795964Y-101281171D01*
X83696098Y-101495335D01*
X83696094Y-101495344D01*
X83634938Y-101723586D01*
X83634936Y-101723596D01*
X83614341Y-101958999D01*
X83614341Y-101959000D01*
X83634936Y-102194403D01*
X83634938Y-102194413D01*
X83696094Y-102422655D01*
X83696096Y-102422659D01*
X83696097Y-102422663D01*
X83710087Y-102452664D01*
X83795965Y-102636830D01*
X83795967Y-102636834D01*
X83931501Y-102830395D01*
X83931506Y-102830402D01*
X84098597Y-102997493D01*
X84098603Y-102997498D01*
X84284158Y-103127425D01*
X84327783Y-103182002D01*
X84334977Y-103251500D01*
X84303454Y-103313855D01*
X84284158Y-103330575D01*
X84098597Y-103460505D01*
X83931505Y-103627597D01*
X83795965Y-103821169D01*
X83795964Y-103821171D01*
X83696098Y-104035335D01*
X83696094Y-104035344D01*
X83634938Y-104263586D01*
X83634936Y-104263596D01*
X83614341Y-104498999D01*
X83614341Y-104499000D01*
X83634936Y-104734403D01*
X83634938Y-104734413D01*
X83696094Y-104962655D01*
X83696096Y-104962659D01*
X83696097Y-104962663D01*
X83710087Y-104992664D01*
X83795965Y-105176830D01*
X83795967Y-105176834D01*
X83931501Y-105370395D01*
X83931506Y-105370402D01*
X84098597Y-105537493D01*
X84098603Y-105537498D01*
X84284158Y-105667425D01*
X84327783Y-105722002D01*
X84334977Y-105791500D01*
X84303454Y-105853855D01*
X84284158Y-105870575D01*
X84098597Y-106000505D01*
X83931505Y-106167597D01*
X83795965Y-106361169D01*
X83795964Y-106361171D01*
X83696098Y-106575335D01*
X83696094Y-106575344D01*
X83634938Y-106803586D01*
X83634936Y-106803596D01*
X83614341Y-107038999D01*
X83614341Y-107039000D01*
X78170499Y-107039000D01*
X78170499Y-61394000D01*
X79665127Y-61394000D01*
X79684612Y-61865109D01*
X79742933Y-62332989D01*
X79742934Y-62332989D01*
X79839694Y-62794459D01*
X79974232Y-63246365D01*
X80145626Y-63685615D01*
X80145626Y-63685616D01*
X80352714Y-64109220D01*
X80352715Y-64109221D01*
X80594069Y-64514266D01*
X80594068Y-64514265D01*
X80868050Y-64898001D01*
X81163549Y-65246895D01*
X82136382Y-64274062D01*
X82197705Y-64240577D01*
X82267396Y-64245561D01*
X82315941Y-64278470D01*
X82396569Y-64367430D01*
X82485528Y-64448057D01*
X82521982Y-64507663D01*
X82520423Y-64577515D01*
X82489936Y-64627616D01*
X81517103Y-65600449D01*
X81517103Y-65600450D01*
X81865999Y-65895950D01*
X82249735Y-66169932D01*
X82249734Y-66169931D01*
X82654779Y-66411285D01*
X82654780Y-66411286D01*
X83078384Y-66618374D01*
X83078385Y-66618374D01*
X83517635Y-66789768D01*
X83969541Y-66924306D01*
X84431011Y-67021066D01*
X84431011Y-67021067D01*
X84898891Y-67079388D01*
X85370000Y-67098873D01*
X85841109Y-67079388D01*
X86308989Y-67021067D01*
X86308989Y-67021066D01*
X86770459Y-66924306D01*
X87222365Y-66789768D01*
X87661615Y-66618374D01*
X87661616Y-66618374D01*
X88085220Y-66411286D01*
X88085221Y-66411285D01*
X88490266Y-66169931D01*
X88490265Y-66169932D01*
X88874001Y-65895950D01*
X89222895Y-65600450D01*
X89222895Y-65600449D01*
X88250062Y-64627616D01*
X88216577Y-64566293D01*
X88221561Y-64496601D01*
X88254468Y-64448060D01*
X88343430Y-64367430D01*
X88424059Y-64278468D01*
X88483662Y-64242017D01*
X88553514Y-64243574D01*
X88603616Y-64274062D01*
X89576449Y-65246895D01*
X89576450Y-65246895D01*
X89871950Y-64898001D01*
X90145932Y-64514265D01*
X90145931Y-64514266D01*
X90387285Y-64109221D01*
X90387286Y-64109220D01*
X90594374Y-63685616D01*
X90594374Y-63685615D01*
X90765768Y-63246365D01*
X90900306Y-62794459D01*
X90997066Y-62332989D01*
X90997067Y-62332989D01*
X91039587Y-61991870D01*
X94044500Y-61991870D01*
X94044501Y-61991876D01*
X94050908Y-62051483D01*
X94101202Y-62186328D01*
X94101206Y-62186335D01*
X94187452Y-62301544D01*
X94187455Y-62301547D01*
X94302664Y-62387793D01*
X94302671Y-62387797D01*
X94437517Y-62438091D01*
X94437516Y-62438091D01*
X94444444Y-62438835D01*
X94497127Y-62444500D01*
X96292872Y-62444499D01*
X96352483Y-62438091D01*
X96487331Y-62387796D01*
X96602546Y-62301546D01*
X96688796Y-62186331D01*
X96737810Y-62054916D01*
X96779681Y-61998984D01*
X96845145Y-61974566D01*
X96913418Y-61989417D01*
X96941673Y-62010569D01*
X97063599Y-62132495D01*
X97160384Y-62200264D01*
X97257165Y-62268032D01*
X97257167Y-62268033D01*
X97257170Y-62268035D01*
X97471337Y-62367903D01*
X97699592Y-62429063D01*
X97876034Y-62444500D01*
X97934999Y-62449659D01*
X97935000Y-62449659D01*
X97935001Y-62449659D01*
X97993966Y-62444500D01*
X98170408Y-62429063D01*
X98398663Y-62367903D01*
X98612830Y-62268035D01*
X98806401Y-62132495D01*
X98973495Y-61965401D01*
X99103426Y-61779841D01*
X99158002Y-61736217D01*
X99227500Y-61729023D01*
X99289855Y-61760546D01*
X99306575Y-61779842D01*
X99436500Y-61965395D01*
X99436505Y-61965401D01*
X99603599Y-62132495D01*
X99700384Y-62200264D01*
X99797165Y-62268032D01*
X99797167Y-62268033D01*
X99797170Y-62268035D01*
X100011337Y-62367903D01*
X100239592Y-62429063D01*
X100416034Y-62444500D01*
X100474999Y-62449659D01*
X100475000Y-62449659D01*
X100475001Y-62449659D01*
X100533966Y-62444500D01*
X100710408Y-62429063D01*
X100938663Y-62367903D01*
X101152830Y-62268035D01*
X101346401Y-62132495D01*
X101513495Y-61965401D01*
X101643426Y-61779841D01*
X101698002Y-61736217D01*
X101767500Y-61729023D01*
X101829855Y-61760546D01*
X101846575Y-61779842D01*
X101976500Y-61965395D01*
X101976505Y-61965401D01*
X102143599Y-62132495D01*
X102240384Y-62200264D01*
X102337165Y-62268032D01*
X102337167Y-62268033D01*
X102337170Y-62268035D01*
X102551337Y-62367903D01*
X102779592Y-62429063D01*
X102956034Y-62444500D01*
X103014999Y-62449659D01*
X103015000Y-62449659D01*
X103015001Y-62449659D01*
X103073966Y-62444500D01*
X103250408Y-62429063D01*
X103478663Y-62367903D01*
X103692830Y-62268035D01*
X103886401Y-62132495D01*
X104053495Y-61965401D01*
X104183426Y-61779841D01*
X104238002Y-61736217D01*
X104307500Y-61729023D01*
X104369855Y-61760546D01*
X104386575Y-61779842D01*
X104516500Y-61965395D01*
X104516505Y-61965401D01*
X104683599Y-62132495D01*
X104780384Y-62200265D01*
X104877165Y-62268032D01*
X104877167Y-62268033D01*
X104877170Y-62268035D01*
X105091337Y-62367903D01*
X105319592Y-62429063D01*
X105496034Y-62444500D01*
X105554999Y-62449659D01*
X105555000Y-62449659D01*
X105555001Y-62449659D01*
X105613966Y-62444500D01*
X105790408Y-62429063D01*
X106018663Y-62367903D01*
X106232830Y-62268035D01*
X106426401Y-62132495D01*
X106593495Y-61965401D01*
X106723426Y-61779841D01*
X106778002Y-61736217D01*
X106847500Y-61729023D01*
X106909855Y-61760546D01*
X106926575Y-61779842D01*
X107056500Y-61965395D01*
X107056505Y-61965401D01*
X107223599Y-62132495D01*
X107320384Y-62200265D01*
X107417165Y-62268032D01*
X107417167Y-62268033D01*
X107417170Y-62268035D01*
X107631337Y-62367903D01*
X107859592Y-62429063D01*
X108036034Y-62444500D01*
X108094999Y-62449659D01*
X108095000Y-62449659D01*
X108095001Y-62449659D01*
X108153966Y-62444500D01*
X108330408Y-62429063D01*
X108558663Y-62367903D01*
X108772830Y-62268035D01*
X108966401Y-62132495D01*
X109133495Y-61965401D01*
X109263426Y-61779841D01*
X109318002Y-61736217D01*
X109387500Y-61729023D01*
X109449855Y-61760546D01*
X109466575Y-61779842D01*
X109596500Y-61965395D01*
X109596505Y-61965401D01*
X109763599Y-62132495D01*
X109860384Y-62200265D01*
X109957165Y-62268032D01*
X109957167Y-62268033D01*
X109957170Y-62268035D01*
X110171337Y-62367903D01*
X110399592Y-62429063D01*
X110576034Y-62444500D01*
X110634999Y-62449659D01*
X110635000Y-62449659D01*
X110635001Y-62449659D01*
X110693966Y-62444500D01*
X110870408Y-62429063D01*
X111098663Y-62367903D01*
X111312830Y-62268035D01*
X111506401Y-62132495D01*
X111673495Y-61965401D01*
X111803426Y-61779841D01*
X111858002Y-61736217D01*
X111927500Y-61729023D01*
X111989855Y-61760546D01*
X112006575Y-61779842D01*
X112136500Y-61965395D01*
X112136505Y-61965401D01*
X112303599Y-62132495D01*
X112400384Y-62200265D01*
X112497165Y-62268032D01*
X112497167Y-62268033D01*
X112497170Y-62268035D01*
X112711337Y-62367903D01*
X112939592Y-62429063D01*
X113116034Y-62444500D01*
X113174999Y-62449659D01*
X113175000Y-62449659D01*
X113175001Y-62449659D01*
X113233966Y-62444500D01*
X113410408Y-62429063D01*
X113638663Y-62367903D01*
X113852830Y-62268035D01*
X114046401Y-62132495D01*
X114213495Y-61965401D01*
X114343426Y-61779841D01*
X114398002Y-61736217D01*
X114467500Y-61729023D01*
X114529855Y-61760546D01*
X114546575Y-61779842D01*
X114676500Y-61965395D01*
X114676505Y-61965401D01*
X114843599Y-62132495D01*
X114940384Y-62200265D01*
X115037165Y-62268032D01*
X115037167Y-62268033D01*
X115037170Y-62268035D01*
X115251337Y-62367903D01*
X115479592Y-62429063D01*
X115656034Y-62444500D01*
X115714999Y-62449659D01*
X115715000Y-62449659D01*
X115715001Y-62449659D01*
X115773966Y-62444500D01*
X115950408Y-62429063D01*
X116178663Y-62367903D01*
X116392830Y-62268035D01*
X116586401Y-62132495D01*
X116753495Y-61965401D01*
X116883426Y-61779841D01*
X116938002Y-61736217D01*
X117007500Y-61729023D01*
X117069855Y-61760546D01*
X117086575Y-61779842D01*
X117216500Y-61965395D01*
X117216505Y-61965401D01*
X117383599Y-62132495D01*
X117480384Y-62200265D01*
X117577165Y-62268032D01*
X117577167Y-62268033D01*
X117577170Y-62268035D01*
X117791337Y-62367903D01*
X118019592Y-62429063D01*
X118196034Y-62444500D01*
X118254999Y-62449659D01*
X118255000Y-62449659D01*
X118255001Y-62449659D01*
X118313966Y-62444500D01*
X118490408Y-62429063D01*
X118718663Y-62367903D01*
X118932830Y-62268035D01*
X119126401Y-62132495D01*
X119293495Y-61965401D01*
X119423426Y-61779841D01*
X119478002Y-61736217D01*
X119547500Y-61729023D01*
X119609855Y-61760546D01*
X119626575Y-61779842D01*
X119756500Y-61965395D01*
X119756505Y-61965401D01*
X119923599Y-62132495D01*
X120020384Y-62200265D01*
X120117165Y-62268032D01*
X120117167Y-62268033D01*
X120117170Y-62268035D01*
X120331337Y-62367903D01*
X120559592Y-62429063D01*
X120736034Y-62444500D01*
X120794999Y-62449659D01*
X120795000Y-62449659D01*
X120795001Y-62449659D01*
X120853966Y-62444500D01*
X121030408Y-62429063D01*
X121258663Y-62367903D01*
X121472830Y-62268035D01*
X121666401Y-62132495D01*
X121833495Y-61965401D01*
X121963426Y-61779841D01*
X122018002Y-61736217D01*
X122087500Y-61729023D01*
X122149855Y-61760546D01*
X122166575Y-61779842D01*
X122296500Y-61965395D01*
X122296505Y-61965401D01*
X122463599Y-62132495D01*
X122560384Y-62200265D01*
X122657165Y-62268032D01*
X122657167Y-62268033D01*
X122657170Y-62268035D01*
X122871337Y-62367903D01*
X123099592Y-62429063D01*
X123276034Y-62444500D01*
X123334999Y-62449659D01*
X123335000Y-62449659D01*
X123335001Y-62449659D01*
X123393966Y-62444500D01*
X123570408Y-62429063D01*
X123798663Y-62367903D01*
X124012830Y-62268035D01*
X124206401Y-62132495D01*
X124373495Y-61965401D01*
X124503426Y-61779840D01*
X124558001Y-61736217D01*
X124627499Y-61729023D01*
X124689854Y-61760546D01*
X124706574Y-61779841D01*
X124836505Y-61965401D01*
X125003599Y-62132495D01*
X125100384Y-62200265D01*
X125197165Y-62268032D01*
X125197167Y-62268033D01*
X125197170Y-62268035D01*
X125411337Y-62367903D01*
X125639592Y-62429063D01*
X125816034Y-62444500D01*
X125874999Y-62449659D01*
X125875000Y-62449659D01*
X125875001Y-62449659D01*
X125933966Y-62444500D01*
X126110408Y-62429063D01*
X126338663Y-62367903D01*
X126552830Y-62268035D01*
X126746401Y-62132495D01*
X126913495Y-61965401D01*
X127043426Y-61779841D01*
X127098002Y-61736217D01*
X127167500Y-61729023D01*
X127229855Y-61760546D01*
X127246575Y-61779842D01*
X127376500Y-61965395D01*
X127376505Y-61965401D01*
X127543599Y-62132495D01*
X127640384Y-62200265D01*
X127737165Y-62268032D01*
X127737167Y-62268033D01*
X127737170Y-62268035D01*
X127951337Y-62367903D01*
X128179592Y-62429063D01*
X128356034Y-62444500D01*
X128414999Y-62449659D01*
X128415000Y-62449659D01*
X128415001Y-62449659D01*
X128473966Y-62444500D01*
X128650408Y-62429063D01*
X128878663Y-62367903D01*
X129092830Y-62268035D01*
X129286401Y-62132495D01*
X129453495Y-61965401D01*
X129583426Y-61779840D01*
X129638001Y-61736217D01*
X129707499Y-61729023D01*
X129769854Y-61760546D01*
X129786574Y-61779841D01*
X129916505Y-61965401D01*
X130083599Y-62132495D01*
X130180384Y-62200265D01*
X130277165Y-62268032D01*
X130277167Y-62268033D01*
X130277170Y-62268035D01*
X130491337Y-62367903D01*
X130719592Y-62429063D01*
X130896034Y-62444500D01*
X130954999Y-62449659D01*
X130955000Y-62449659D01*
X130955001Y-62449659D01*
X131013966Y-62444500D01*
X131190408Y-62429063D01*
X131418663Y-62367903D01*
X131632830Y-62268035D01*
X131826401Y-62132495D01*
X131993495Y-61965401D01*
X132129035Y-61771830D01*
X132228903Y-61557663D01*
X132268737Y-61409000D01*
X135265127Y-61409000D01*
X135284612Y-61880109D01*
X135342933Y-62347989D01*
X135342934Y-62347989D01*
X135439694Y-62809459D01*
X135574232Y-63261365D01*
X135745626Y-63700615D01*
X135745626Y-63700616D01*
X135952714Y-64124220D01*
X135952715Y-64124221D01*
X136194069Y-64529266D01*
X136194068Y-64529265D01*
X136468050Y-64913001D01*
X136763549Y-65261895D01*
X137736382Y-64289062D01*
X137797705Y-64255577D01*
X137867396Y-64260561D01*
X137915941Y-64293470D01*
X137996569Y-64382430D01*
X138085528Y-64463057D01*
X138121982Y-64522663D01*
X138120423Y-64592515D01*
X138089936Y-64642616D01*
X137117103Y-65615449D01*
X137117103Y-65615450D01*
X137465999Y-65910950D01*
X137849735Y-66184932D01*
X137849734Y-66184931D01*
X138254779Y-66426285D01*
X138254780Y-66426286D01*
X138678384Y-66633374D01*
X138678385Y-66633374D01*
X139117635Y-66804768D01*
X139569541Y-66939306D01*
X140031011Y-67036066D01*
X140031011Y-67036067D01*
X140498891Y-67094388D01*
X140970000Y-67113873D01*
X141441109Y-67094388D01*
X141908989Y-67036067D01*
X141908989Y-67036066D01*
X142370459Y-66939306D01*
X142822365Y-66804768D01*
X143261615Y-66633374D01*
X143261616Y-66633374D01*
X143685220Y-66426286D01*
X143685221Y-66426285D01*
X144090266Y-66184931D01*
X144090265Y-66184932D01*
X144474001Y-65910950D01*
X144822895Y-65615450D01*
X144822895Y-65615449D01*
X143850062Y-64642616D01*
X143816577Y-64581293D01*
X143821561Y-64511601D01*
X143854468Y-64463060D01*
X143943430Y-64382430D01*
X144024059Y-64293468D01*
X144083662Y-64257017D01*
X144153514Y-64258574D01*
X144203616Y-64289062D01*
X145176449Y-65261895D01*
X145176450Y-65261895D01*
X145471950Y-64913001D01*
X145745932Y-64529265D01*
X145745931Y-64529266D01*
X145987285Y-64124221D01*
X145987286Y-64124220D01*
X146194374Y-63700616D01*
X146194374Y-63700615D01*
X146365768Y-63261365D01*
X146500306Y-62809459D01*
X146597066Y-62347989D01*
X146597067Y-62347989D01*
X146655388Y-61880109D01*
X146674873Y-61409000D01*
X146655388Y-60937891D01*
X146597067Y-60470011D01*
X146597066Y-60470011D01*
X146500306Y-60008541D01*
X146365768Y-59556635D01*
X146194374Y-59117385D01*
X146194374Y-59117384D01*
X145987286Y-58693780D01*
X145987285Y-58693779D01*
X145745931Y-58288734D01*
X145745932Y-58288735D01*
X145471950Y-57904999D01*
X145176450Y-57556103D01*
X145176449Y-57556103D01*
X144203616Y-58528936D01*
X144142293Y-58562421D01*
X144072601Y-58557437D01*
X144024057Y-58524528D01*
X143943430Y-58435569D01*
X143854470Y-58354941D01*
X143818016Y-58295335D01*
X143819575Y-58225483D01*
X143850062Y-58175382D01*
X144822895Y-57202549D01*
X144474001Y-56907050D01*
X144090265Y-56633068D01*
X144090266Y-56633069D01*
X143685221Y-56391715D01*
X143685220Y-56391714D01*
X143261616Y-56184626D01*
X143261615Y-56184626D01*
X142822365Y-56013232D01*
X142370459Y-55878694D01*
X141908989Y-55781934D01*
X141908989Y-55781933D01*
X141441109Y-55723612D01*
X140970000Y-55704127D01*
X140498891Y-55723612D01*
X140031011Y-55781933D01*
X140031011Y-55781934D01*
X139569541Y-55878694D01*
X139117635Y-56013232D01*
X138678385Y-56184626D01*
X138678384Y-56184626D01*
X138254780Y-56391714D01*
X138254779Y-56391715D01*
X137849734Y-56633069D01*
X137849735Y-56633068D01*
X137465999Y-56907050D01*
X137117103Y-57202549D01*
X138089936Y-58175382D01*
X138123421Y-58236705D01*
X138118437Y-58306397D01*
X138085529Y-58354940D01*
X137996569Y-58435569D01*
X137915940Y-58524529D01*
X137856334Y-58560982D01*
X137786481Y-58559423D01*
X137736382Y-58528936D01*
X136763549Y-57556103D01*
X136468050Y-57904999D01*
X136194068Y-58288735D01*
X136194069Y-58288734D01*
X135952715Y-58693779D01*
X135952714Y-58693780D01*
X135745626Y-59117384D01*
X135745626Y-59117385D01*
X135574232Y-59556635D01*
X135439694Y-60008541D01*
X135342934Y-60470011D01*
X135342933Y-60470011D01*
X135284612Y-60937891D01*
X135265127Y-61409000D01*
X132268737Y-61409000D01*
X132290063Y-61329408D01*
X132310659Y-61094000D01*
X132290063Y-60858592D01*
X132228903Y-60630337D01*
X132129035Y-60416171D01*
X132123425Y-60408158D01*
X131993494Y-60222597D01*
X131826402Y-60055506D01*
X131826395Y-60055501D01*
X131632834Y-59919967D01*
X131632830Y-59919965D01*
X131632828Y-59919964D01*
X131418663Y-59820097D01*
X131418659Y-59820096D01*
X131418655Y-59820094D01*
X131190413Y-59758938D01*
X131190403Y-59758936D01*
X130955001Y-59738341D01*
X130954999Y-59738341D01*
X130719596Y-59758936D01*
X130719586Y-59758938D01*
X130491344Y-59820094D01*
X130491335Y-59820098D01*
X130277171Y-59919964D01*
X130277169Y-59919965D01*
X130083597Y-60055505D01*
X129916505Y-60222597D01*
X129786575Y-60408158D01*
X129731998Y-60451783D01*
X129662500Y-60458977D01*
X129600145Y-60427454D01*
X129583425Y-60408158D01*
X129453494Y-60222597D01*
X129286402Y-60055506D01*
X129286395Y-60055501D01*
X129092834Y-59919967D01*
X129092830Y-59919965D01*
X129092828Y-59919964D01*
X128878663Y-59820097D01*
X128878659Y-59820096D01*
X128878655Y-59820094D01*
X128650413Y-59758938D01*
X128650403Y-59758936D01*
X128415001Y-59738341D01*
X128414999Y-59738341D01*
X128179596Y-59758936D01*
X128179586Y-59758938D01*
X127951344Y-59820094D01*
X127951335Y-59820098D01*
X127737171Y-59919964D01*
X127737169Y-59919965D01*
X127543597Y-60055505D01*
X127376505Y-60222597D01*
X127246575Y-60408158D01*
X127191998Y-60451783D01*
X127122500Y-60458977D01*
X127060145Y-60427454D01*
X127043425Y-60408158D01*
X126913494Y-60222597D01*
X126746402Y-60055506D01*
X126746395Y-60055501D01*
X126552834Y-59919967D01*
X126552830Y-59919965D01*
X126552828Y-59919964D01*
X126338663Y-59820097D01*
X126338659Y-59820096D01*
X126338655Y-59820094D01*
X126110413Y-59758938D01*
X126110403Y-59758936D01*
X125875001Y-59738341D01*
X125874999Y-59738341D01*
X125639596Y-59758936D01*
X125639586Y-59758938D01*
X125411344Y-59820094D01*
X125411335Y-59820098D01*
X125197171Y-59919964D01*
X125197169Y-59919965D01*
X125003597Y-60055505D01*
X124836508Y-60222594D01*
X124706574Y-60408160D01*
X124651997Y-60451784D01*
X124582498Y-60458977D01*
X124520144Y-60427455D01*
X124503429Y-60408164D01*
X124373495Y-60222599D01*
X124373493Y-60222596D01*
X124206402Y-60055506D01*
X124206395Y-60055501D01*
X124012834Y-59919967D01*
X124012830Y-59919965D01*
X124012828Y-59919964D01*
X123798663Y-59820097D01*
X123798659Y-59820096D01*
X123798655Y-59820094D01*
X123570413Y-59758938D01*
X123570403Y-59758936D01*
X123335001Y-59738341D01*
X123334999Y-59738341D01*
X123099596Y-59758936D01*
X123099586Y-59758938D01*
X122871344Y-59820094D01*
X122871335Y-59820098D01*
X122657171Y-59919964D01*
X122657169Y-59919965D01*
X122463597Y-60055505D01*
X122296508Y-60222594D01*
X122166574Y-60408159D01*
X122111997Y-60451784D01*
X122042498Y-60458976D01*
X121980144Y-60427454D01*
X121963424Y-60408158D01*
X121833494Y-60222597D01*
X121666402Y-60055506D01*
X121666395Y-60055501D01*
X121472834Y-59919967D01*
X121472830Y-59919965D01*
X121472828Y-59919964D01*
X121258663Y-59820097D01*
X121258659Y-59820096D01*
X121258655Y-59820094D01*
X121030413Y-59758938D01*
X121030403Y-59758936D01*
X120795001Y-59738341D01*
X120794999Y-59738341D01*
X120559596Y-59758936D01*
X120559586Y-59758938D01*
X120331344Y-59820094D01*
X120331335Y-59820098D01*
X120117171Y-59919964D01*
X120117169Y-59919965D01*
X119923597Y-60055505D01*
X119756505Y-60222597D01*
X119626575Y-60408158D01*
X119571998Y-60451783D01*
X119502500Y-60458977D01*
X119440145Y-60427454D01*
X119423425Y-60408158D01*
X119293494Y-60222597D01*
X119126402Y-60055506D01*
X119126395Y-60055501D01*
X118932834Y-59919967D01*
X118932830Y-59919965D01*
X118932828Y-59919964D01*
X118718663Y-59820097D01*
X118718659Y-59820096D01*
X118718655Y-59820094D01*
X118490413Y-59758938D01*
X118490403Y-59758936D01*
X118255001Y-59738341D01*
X118254999Y-59738341D01*
X118019596Y-59758936D01*
X118019586Y-59758938D01*
X117791344Y-59820094D01*
X117791335Y-59820098D01*
X117577171Y-59919964D01*
X117577169Y-59919965D01*
X117383597Y-60055505D01*
X117216508Y-60222594D01*
X117086574Y-60408159D01*
X117031997Y-60451784D01*
X116962498Y-60458976D01*
X116900144Y-60427454D01*
X116883424Y-60408158D01*
X116753494Y-60222597D01*
X116586402Y-60055506D01*
X116586395Y-60055501D01*
X116392834Y-59919967D01*
X116392830Y-59919965D01*
X116392828Y-59919964D01*
X116178663Y-59820097D01*
X116178659Y-59820096D01*
X116178655Y-59820094D01*
X115950413Y-59758938D01*
X115950403Y-59758936D01*
X115715001Y-59738341D01*
X115714999Y-59738341D01*
X115479596Y-59758936D01*
X115479586Y-59758938D01*
X115251344Y-59820094D01*
X115251335Y-59820098D01*
X115037171Y-59919964D01*
X115037169Y-59919965D01*
X114843597Y-60055505D01*
X114676508Y-60222594D01*
X114546574Y-60408160D01*
X114491997Y-60451784D01*
X114422498Y-60458977D01*
X114360144Y-60427455D01*
X114343429Y-60408164D01*
X114213495Y-60222599D01*
X114213493Y-60222596D01*
X114046402Y-60055506D01*
X114046395Y-60055501D01*
X113852834Y-59919967D01*
X113852830Y-59919965D01*
X113852828Y-59919964D01*
X113638663Y-59820097D01*
X113638659Y-59820096D01*
X113638655Y-59820094D01*
X113410413Y-59758938D01*
X113410403Y-59758936D01*
X113175001Y-59738341D01*
X113174999Y-59738341D01*
X112939596Y-59758936D01*
X112939586Y-59758938D01*
X112711344Y-59820094D01*
X112711335Y-59820098D01*
X112497171Y-59919964D01*
X112497169Y-59919965D01*
X112303597Y-60055505D01*
X112136505Y-60222597D01*
X112006575Y-60408158D01*
X111951998Y-60451783D01*
X111882500Y-60458977D01*
X111820145Y-60427454D01*
X111803425Y-60408158D01*
X111673494Y-60222597D01*
X111506402Y-60055506D01*
X111506395Y-60055501D01*
X111312834Y-59919967D01*
X111312830Y-59919965D01*
X111312828Y-59919964D01*
X111098663Y-59820097D01*
X111098659Y-59820096D01*
X111098655Y-59820094D01*
X110870413Y-59758938D01*
X110870403Y-59758936D01*
X110635001Y-59738341D01*
X110634999Y-59738341D01*
X110399596Y-59758936D01*
X110399586Y-59758938D01*
X110171344Y-59820094D01*
X110171335Y-59820098D01*
X109957171Y-59919964D01*
X109957169Y-59919965D01*
X109763597Y-60055505D01*
X109596508Y-60222594D01*
X109466574Y-60408159D01*
X109411997Y-60451784D01*
X109342498Y-60458976D01*
X109280144Y-60427454D01*
X109263424Y-60408158D01*
X109133494Y-60222597D01*
X108966402Y-60055506D01*
X108966395Y-60055501D01*
X108772834Y-59919967D01*
X108772830Y-59919965D01*
X108772828Y-59919964D01*
X108558663Y-59820097D01*
X108558659Y-59820096D01*
X108558655Y-59820094D01*
X108330413Y-59758938D01*
X108330403Y-59758936D01*
X108095001Y-59738341D01*
X108094999Y-59738341D01*
X107859596Y-59758936D01*
X107859586Y-59758938D01*
X107631344Y-59820094D01*
X107631335Y-59820098D01*
X107417171Y-59919964D01*
X107417169Y-59919965D01*
X107223597Y-60055505D01*
X107056505Y-60222597D01*
X106926575Y-60408158D01*
X106871998Y-60451783D01*
X106802500Y-60458977D01*
X106740145Y-60427454D01*
X106723425Y-60408158D01*
X106593494Y-60222597D01*
X106426402Y-60055506D01*
X106426395Y-60055501D01*
X106232834Y-59919967D01*
X106232830Y-59919965D01*
X106232828Y-59919964D01*
X106018663Y-59820097D01*
X106018659Y-59820096D01*
X106018655Y-59820094D01*
X105790413Y-59758938D01*
X105790403Y-59758936D01*
X105555001Y-59738341D01*
X105554999Y-59738341D01*
X105319596Y-59758936D01*
X105319586Y-59758938D01*
X105091344Y-59820094D01*
X105091335Y-59820098D01*
X104877171Y-59919964D01*
X104877169Y-59919965D01*
X104683597Y-60055505D01*
X104516505Y-60222597D01*
X104386575Y-60408158D01*
X104331998Y-60451783D01*
X104262500Y-60458977D01*
X104200145Y-60427454D01*
X104183425Y-60408158D01*
X104053494Y-60222597D01*
X103886402Y-60055506D01*
X103886395Y-60055501D01*
X103692834Y-59919967D01*
X103692830Y-59919965D01*
X103692828Y-59919964D01*
X103478663Y-59820097D01*
X103478659Y-59820096D01*
X103478655Y-59820094D01*
X103250413Y-59758938D01*
X103250403Y-59758936D01*
X103015001Y-59738341D01*
X103014999Y-59738341D01*
X102779596Y-59758936D01*
X102779586Y-59758938D01*
X102551344Y-59820094D01*
X102551335Y-59820098D01*
X102337171Y-59919964D01*
X102337169Y-59919965D01*
X102143597Y-60055505D01*
X101976505Y-60222597D01*
X101846575Y-60408158D01*
X101791998Y-60451783D01*
X101722500Y-60458977D01*
X101660145Y-60427454D01*
X101643425Y-60408158D01*
X101513494Y-60222597D01*
X101346402Y-60055506D01*
X101346395Y-60055501D01*
X101152834Y-59919967D01*
X101152830Y-59919965D01*
X101152828Y-59919964D01*
X100938663Y-59820097D01*
X100938659Y-59820096D01*
X100938655Y-59820094D01*
X100710413Y-59758938D01*
X100710403Y-59758936D01*
X100475001Y-59738341D01*
X100474999Y-59738341D01*
X100239596Y-59758936D01*
X100239586Y-59758938D01*
X100011344Y-59820094D01*
X100011335Y-59820098D01*
X99797171Y-59919964D01*
X99797169Y-59919965D01*
X99603597Y-60055505D01*
X99436505Y-60222597D01*
X99306575Y-60408158D01*
X99251998Y-60451783D01*
X99182500Y-60458977D01*
X99120145Y-60427454D01*
X99103425Y-60408158D01*
X98973494Y-60222597D01*
X98806402Y-60055506D01*
X98806395Y-60055501D01*
X98612834Y-59919967D01*
X98612830Y-59919965D01*
X98612828Y-59919964D01*
X98398663Y-59820097D01*
X98398659Y-59820096D01*
X98398655Y-59820094D01*
X98170413Y-59758938D01*
X98170403Y-59758936D01*
X97935001Y-59738341D01*
X97934999Y-59738341D01*
X97699596Y-59758936D01*
X97699586Y-59758938D01*
X97471344Y-59820094D01*
X97471335Y-59820098D01*
X97257171Y-59919964D01*
X97257169Y-59919965D01*
X97063600Y-60055503D01*
X96941673Y-60177430D01*
X96880350Y-60210914D01*
X96810658Y-60205930D01*
X96754725Y-60164058D01*
X96737810Y-60133081D01*
X96688797Y-60001671D01*
X96688793Y-60001664D01*
X96602547Y-59886455D01*
X96602544Y-59886452D01*
X96487335Y-59800206D01*
X96487328Y-59800202D01*
X96352482Y-59749908D01*
X96352483Y-59749908D01*
X96292883Y-59743501D01*
X96292881Y-59743500D01*
X96292873Y-59743500D01*
X96292864Y-59743500D01*
X94497129Y-59743500D01*
X94497123Y-59743501D01*
X94437516Y-59749908D01*
X94302671Y-59800202D01*
X94302664Y-59800206D01*
X94187455Y-59886452D01*
X94187452Y-59886455D01*
X94101206Y-60001664D01*
X94101202Y-60001671D01*
X94050908Y-60136517D01*
X94044501Y-60196116D01*
X94044500Y-60196135D01*
X94044500Y-61991870D01*
X91039587Y-61991870D01*
X91055388Y-61865109D01*
X91074873Y-61394000D01*
X91055388Y-60922891D01*
X90997067Y-60455011D01*
X90997066Y-60455011D01*
X90900306Y-59993541D01*
X90765768Y-59541635D01*
X90594374Y-59102385D01*
X90594374Y-59102384D01*
X90387286Y-58678780D01*
X90387285Y-58678779D01*
X90145931Y-58273734D01*
X90145932Y-58273735D01*
X89871950Y-57889999D01*
X89576450Y-57541103D01*
X89576449Y-57541102D01*
X88603616Y-58513936D01*
X88542293Y-58547421D01*
X88472601Y-58542437D01*
X88424057Y-58509528D01*
X88343430Y-58420569D01*
X88254470Y-58339941D01*
X88218016Y-58280335D01*
X88219575Y-58210483D01*
X88250062Y-58160382D01*
X89222895Y-57187549D01*
X88874001Y-56892050D01*
X88490265Y-56618068D01*
X88490266Y-56618069D01*
X88085221Y-56376715D01*
X88085220Y-56376714D01*
X87661616Y-56169626D01*
X87661615Y-56169626D01*
X87222365Y-55998232D01*
X86770459Y-55863694D01*
X86308989Y-55766934D01*
X86308989Y-55766933D01*
X85841109Y-55708612D01*
X85370000Y-55689127D01*
X84898891Y-55708612D01*
X84431011Y-55766933D01*
X84431011Y-55766934D01*
X83969541Y-55863694D01*
X83517635Y-55998232D01*
X83078385Y-56169626D01*
X83078384Y-56169626D01*
X82654780Y-56376714D01*
X82654779Y-56376715D01*
X82249734Y-56618069D01*
X82249735Y-56618068D01*
X81865999Y-56892050D01*
X81517103Y-57187549D01*
X82489936Y-58160382D01*
X82523421Y-58221705D01*
X82518437Y-58291397D01*
X82485529Y-58339940D01*
X82396569Y-58420569D01*
X82315940Y-58509529D01*
X82256334Y-58545982D01*
X82186481Y-58544423D01*
X82136382Y-58513936D01*
X81163549Y-57541103D01*
X80868050Y-57889999D01*
X80594068Y-58273735D01*
X80594069Y-58273734D01*
X80352715Y-58678779D01*
X80352714Y-58678780D01*
X80145626Y-59102384D01*
X80145626Y-59102385D01*
X79974232Y-59541635D01*
X79839694Y-59993541D01*
X79742934Y-60455011D01*
X79742933Y-60455011D01*
X79684612Y-60922891D01*
X79665127Y-61394000D01*
X78170499Y-61394000D01*
X78170499Y-55796213D01*
X78170657Y-55791790D01*
X78171362Y-55781933D01*
X78175482Y-55724331D01*
X78187051Y-55577344D01*
X78188274Y-55569053D01*
X78208902Y-55474231D01*
X78236862Y-55357766D01*
X78239049Y-55350604D01*
X78274989Y-55254246D01*
X78318951Y-55148114D01*
X78321794Y-55142172D01*
X78371566Y-55051021D01*
X78373058Y-55048446D01*
X78431499Y-54953077D01*
X78434687Y-54948380D01*
X78497458Y-54864527D01*
X78499873Y-54861508D01*
X78572020Y-54777036D01*
X78575278Y-54773511D01*
X78649511Y-54699278D01*
X78653036Y-54696020D01*
X78737508Y-54623873D01*
X78740527Y-54621458D01*
X78824380Y-54558687D01*
X78829077Y-54555499D01*
X78924446Y-54497058D01*
X78927021Y-54495566D01*
X79018172Y-54445794D01*
X79024114Y-54442951D01*
X79130246Y-54398989D01*
X79226604Y-54363049D01*
X79233766Y-54360862D01*
X79350243Y-54332899D01*
X79445051Y-54312275D01*
X79453344Y-54311051D01*
X79600235Y-54299489D01*
X79667792Y-54294657D01*
X79672213Y-54294500D01*
X146667787Y-54294500D01*
X146672207Y-54294657D01*
G37*
%TD.AperFunction*%
%TD*%
M02*
