%TF.GenerationSoftware,KiCad,Pcbnew,7.0.7*%
%TF.CreationDate,2024-04-01T01:35:50+05:30*%
%TF.ProjectId,GPS_Stack,4750535f-5374-4616-936b-2e6b69636164,rev?*%
%TF.SameCoordinates,Original*%
%TF.FileFunction,Drillmap*%
%TF.FilePolarity,Positive*%
%FSLAX45Y45*%
G04 Gerber Fmt 4.5, Leading zero omitted, Abs format (unit mm)*
G04 Created by KiCad (PCBNEW 7.0.7) date 2024-04-01 01:35:51*
%MOMM*%
%LPD*%
G01*
G04 APERTURE LIST*
%ADD10C,0.200000*%
G04 APERTURE END LIST*
D10*
X8075277Y-12743384D02*
X8075277Y-12543384D01*
X8075277Y-12543384D02*
X8122896Y-12543384D01*
X8122896Y-12543384D02*
X8151467Y-12552908D01*
X8151467Y-12552908D02*
X8170515Y-12571955D01*
X8170515Y-12571955D02*
X8180039Y-12591003D01*
X8180039Y-12591003D02*
X8189562Y-12629098D01*
X8189562Y-12629098D02*
X8189562Y-12657669D01*
X8189562Y-12657669D02*
X8180039Y-12695765D01*
X8180039Y-12695765D02*
X8170515Y-12714812D01*
X8170515Y-12714812D02*
X8151467Y-12733860D01*
X8151467Y-12733860D02*
X8122896Y-12743384D01*
X8122896Y-12743384D02*
X8075277Y-12743384D01*
X8275277Y-12743384D02*
X8275277Y-12610050D01*
X8275277Y-12648146D02*
X8284801Y-12629098D01*
X8284801Y-12629098D02*
X8294324Y-12619574D01*
X8294324Y-12619574D02*
X8313372Y-12610050D01*
X8313372Y-12610050D02*
X8332420Y-12610050D01*
X8399086Y-12743384D02*
X8399086Y-12610050D01*
X8399086Y-12543384D02*
X8389563Y-12552908D01*
X8389563Y-12552908D02*
X8399086Y-12562431D01*
X8399086Y-12562431D02*
X8408610Y-12552908D01*
X8408610Y-12552908D02*
X8399086Y-12543384D01*
X8399086Y-12543384D02*
X8399086Y-12562431D01*
X8522896Y-12743384D02*
X8503848Y-12733860D01*
X8503848Y-12733860D02*
X8494324Y-12714812D01*
X8494324Y-12714812D02*
X8494324Y-12543384D01*
X8627658Y-12743384D02*
X8608610Y-12733860D01*
X8608610Y-12733860D02*
X8599086Y-12714812D01*
X8599086Y-12714812D02*
X8599086Y-12543384D01*
X8856229Y-12743384D02*
X8856229Y-12543384D01*
X8856229Y-12543384D02*
X8922896Y-12686241D01*
X8922896Y-12686241D02*
X8989563Y-12543384D01*
X8989563Y-12543384D02*
X8989563Y-12743384D01*
X9170515Y-12743384D02*
X9170515Y-12638622D01*
X9170515Y-12638622D02*
X9160991Y-12619574D01*
X9160991Y-12619574D02*
X9141944Y-12610050D01*
X9141944Y-12610050D02*
X9103848Y-12610050D01*
X9103848Y-12610050D02*
X9084801Y-12619574D01*
X9170515Y-12733860D02*
X9151467Y-12743384D01*
X9151467Y-12743384D02*
X9103848Y-12743384D01*
X9103848Y-12743384D02*
X9084801Y-12733860D01*
X9084801Y-12733860D02*
X9075277Y-12714812D01*
X9075277Y-12714812D02*
X9075277Y-12695765D01*
X9075277Y-12695765D02*
X9084801Y-12676717D01*
X9084801Y-12676717D02*
X9103848Y-12667193D01*
X9103848Y-12667193D02*
X9151467Y-12667193D01*
X9151467Y-12667193D02*
X9170515Y-12657669D01*
X9265753Y-12610050D02*
X9265753Y-12810050D01*
X9265753Y-12619574D02*
X9284801Y-12610050D01*
X9284801Y-12610050D02*
X9322896Y-12610050D01*
X9322896Y-12610050D02*
X9341944Y-12619574D01*
X9341944Y-12619574D02*
X9351467Y-12629098D01*
X9351467Y-12629098D02*
X9360991Y-12648146D01*
X9360991Y-12648146D02*
X9360991Y-12705288D01*
X9360991Y-12705288D02*
X9351467Y-12724336D01*
X9351467Y-12724336D02*
X9341944Y-12733860D01*
X9341944Y-12733860D02*
X9322896Y-12743384D01*
X9322896Y-12743384D02*
X9284801Y-12743384D01*
X9284801Y-12743384D02*
X9265753Y-12733860D01*
X9446705Y-12724336D02*
X9456229Y-12733860D01*
X9456229Y-12733860D02*
X9446705Y-12743384D01*
X9446705Y-12743384D02*
X9437182Y-12733860D01*
X9437182Y-12733860D02*
X9446705Y-12724336D01*
X9446705Y-12724336D02*
X9446705Y-12743384D01*
X9446705Y-12619574D02*
X9456229Y-12629098D01*
X9456229Y-12629098D02*
X9446705Y-12638622D01*
X9446705Y-12638622D02*
X9437182Y-12629098D01*
X9437182Y-12629098D02*
X9446705Y-12619574D01*
X9446705Y-12619574D02*
X9446705Y-12638622D01*
M02*
