%TF.GenerationSoftware,KiCad,Pcbnew,7.0.7*%
%TF.CreationDate,2024-04-01T01:35:54+05:30*%
%TF.ProjectId,GPS_Stack,4750535f-5374-4616-936b-2e6b69636164,rev?*%
%TF.SameCoordinates,Original*%
%TF.FileFunction,Soldermask,Bot*%
%TF.FilePolarity,Negative*%
%FSLAX46Y46*%
G04 Gerber Fmt 4.6, Leading zero omitted, Abs format (unit mm)*
G04 Created by KiCad (PCBNEW 7.0.7) date 2024-04-01 01:35:54*
%MOMM*%
%LPD*%
G01*
G04 APERTURE LIST*
%ADD10C,1.879600*%
%ADD11R,1.700000X1.700000*%
%ADD12O,1.700000X1.700000*%
%ADD13C,10.400000*%
G04 APERTURE END LIST*
D10*
%TO.C,U1*%
X125526800Y-84582000D03*
X125526800Y-87122000D03*
X125526800Y-89662000D03*
X125526800Y-92202000D03*
X125526800Y-94742000D03*
X125526800Y-97282000D03*
X125526800Y-99822000D03*
X125526800Y-102362000D03*
X102666800Y-84582000D03*
X102666800Y-87122000D03*
X102666800Y-89662000D03*
X102666800Y-92202000D03*
X102666800Y-94742000D03*
X102666800Y-97282000D03*
X102666800Y-99822000D03*
X102666800Y-102362000D03*
%TD*%
D11*
%TO.C,U2*%
X141370000Y-71509000D03*
D12*
X141370000Y-74049000D03*
X141370000Y-76589000D03*
X141370000Y-79129000D03*
X141370000Y-81669000D03*
X141370000Y-84209000D03*
X141370000Y-86749000D03*
X141370000Y-89289000D03*
X141370000Y-91829000D03*
X141370000Y-94369000D03*
X141370000Y-96909000D03*
X141370000Y-99449000D03*
X141370000Y-101989000D03*
X141370000Y-104529000D03*
X141370000Y-107069000D03*
X84970000Y-107039000D03*
X84970000Y-104499000D03*
X84970000Y-101959000D03*
X84970000Y-99419000D03*
X84970000Y-96879000D03*
X84970000Y-94339000D03*
X84970000Y-91799000D03*
X84970000Y-89259000D03*
X84970000Y-86719000D03*
X84970000Y-84179000D03*
X84970000Y-81639000D03*
X84970000Y-79099000D03*
X84970000Y-76559000D03*
X84970000Y-74019000D03*
D11*
X84970000Y-71479000D03*
X95395000Y-61094000D03*
D12*
X97935000Y-61094000D03*
X100475000Y-61094000D03*
X103015000Y-61094000D03*
X105555000Y-61094000D03*
X108095000Y-61094000D03*
X110635000Y-61094000D03*
X113175000Y-61094000D03*
X115715000Y-61094000D03*
X118255000Y-61094000D03*
X120795000Y-61094000D03*
X123335000Y-61094000D03*
X125875000Y-61094000D03*
X128415000Y-61094000D03*
X130955000Y-61094000D03*
D13*
X140970000Y-117094000D03*
X85370000Y-117094000D03*
X85370000Y-61394000D03*
X140970000Y-61409000D03*
%TD*%
M02*
