%TF.GenerationSoftware,KiCad,Pcbnew,7.0.7*%
%TF.CreationDate,2024-04-01T01:35:54+05:30*%
%TF.ProjectId,GPS_Stack,4750535f-5374-4616-936b-2e6b69636164,rev?*%
%TF.SameCoordinates,Original*%
%TF.FileFunction,Legend,Bot*%
%TF.FilePolarity,Positive*%
%FSLAX46Y46*%
G04 Gerber Fmt 4.6, Leading zero omitted, Abs format (unit mm)*
G04 Created by KiCad (PCBNEW 7.0.7) date 2024-04-01 01:35:54*
%MOMM*%
%LPD*%
G01*
G04 APERTURE LIST*
%ADD10C,0.150000*%
G04 APERTURE END LIST*
D10*
G36*
X105432754Y-65791800D02*
G01*
X105088372Y-65791800D01*
X105067859Y-65791433D01*
X105047792Y-65790334D01*
X105028172Y-65788502D01*
X105008999Y-65785938D01*
X104990272Y-65782640D01*
X104971992Y-65778610D01*
X104954158Y-65773848D01*
X104936770Y-65768352D01*
X104919829Y-65762124D01*
X104903335Y-65755163D01*
X104887287Y-65747469D01*
X104871686Y-65739043D01*
X104856531Y-65729884D01*
X104841822Y-65719992D01*
X104827560Y-65709368D01*
X104813745Y-65698010D01*
X104800578Y-65686024D01*
X104788260Y-65673587D01*
X104776792Y-65660699D01*
X104766173Y-65647360D01*
X104756403Y-65633570D01*
X104747484Y-65619329D01*
X104739413Y-65604637D01*
X104732192Y-65589493D01*
X104725821Y-65573899D01*
X104720299Y-65557853D01*
X104715627Y-65541356D01*
X104711804Y-65524409D01*
X104708831Y-65507010D01*
X104706707Y-65489160D01*
X104705433Y-65470859D01*
X104705008Y-65452107D01*
X104705041Y-65450348D01*
X104850088Y-65450348D01*
X104850154Y-65456589D01*
X104850678Y-65468821D01*
X104851727Y-65480719D01*
X104854283Y-65497939D01*
X104858019Y-65514406D01*
X104862935Y-65530122D01*
X104869031Y-65545085D01*
X104876306Y-65559296D01*
X104884762Y-65572754D01*
X104894397Y-65585461D01*
X104905212Y-65597415D01*
X104917206Y-65608617D01*
X104921455Y-65612170D01*
X104934847Y-65622150D01*
X104949207Y-65631115D01*
X104964536Y-65639066D01*
X104975293Y-65643802D01*
X104986481Y-65648087D01*
X104998100Y-65651922D01*
X105010148Y-65655305D01*
X105022628Y-65658237D01*
X105035537Y-65660718D01*
X105048878Y-65662748D01*
X105062648Y-65664326D01*
X105076850Y-65665454D01*
X105091481Y-65666131D01*
X105106543Y-65666356D01*
X105294415Y-65666356D01*
X105294415Y-65241081D01*
X105135266Y-65241081D01*
X105117721Y-65241285D01*
X105100733Y-65241898D01*
X105084302Y-65242920D01*
X105068428Y-65244351D01*
X105053111Y-65246190D01*
X105038350Y-65248438D01*
X105024147Y-65251094D01*
X105010501Y-65254160D01*
X104997412Y-65257634D01*
X104984880Y-65261517D01*
X104972904Y-65265809D01*
X104961486Y-65270509D01*
X104940320Y-65281136D01*
X104921383Y-65293398D01*
X104904673Y-65307294D01*
X104890192Y-65322826D01*
X104877938Y-65339992D01*
X104867912Y-65358794D01*
X104860114Y-65379230D01*
X104854544Y-65401301D01*
X104852595Y-65412950D01*
X104851202Y-65425007D01*
X104850367Y-65437473D01*
X104850088Y-65450348D01*
X104705041Y-65450348D01*
X104705289Y-65437044D01*
X104706130Y-65422339D01*
X104707533Y-65407992D01*
X104709496Y-65394001D01*
X104712021Y-65380368D01*
X104715106Y-65367092D01*
X104718753Y-65354173D01*
X104722960Y-65341611D01*
X104727728Y-65329407D01*
X104733058Y-65317559D01*
X104738948Y-65306069D01*
X104745400Y-65294936D01*
X104752412Y-65284161D01*
X104759986Y-65273742D01*
X104768120Y-65263681D01*
X104776816Y-65253977D01*
X104785943Y-65244659D01*
X104795445Y-65235828D01*
X104805323Y-65227485D01*
X104815577Y-65219630D01*
X104826206Y-65212263D01*
X104837211Y-65205383D01*
X104848591Y-65198991D01*
X104860347Y-65193087D01*
X104872478Y-65187671D01*
X104884985Y-65182742D01*
X104897867Y-65178301D01*
X104911125Y-65174347D01*
X104924758Y-65170882D01*
X104938767Y-65167904D01*
X104953151Y-65165414D01*
X104967911Y-65163412D01*
X104967911Y-65160187D01*
X104961979Y-65158186D01*
X104950357Y-65153931D01*
X104939054Y-65149343D01*
X104928072Y-65144420D01*
X104917411Y-65139162D01*
X104907071Y-65133571D01*
X104892161Y-65124556D01*
X104877972Y-65114790D01*
X104864505Y-65104271D01*
X104851759Y-65093000D01*
X104839734Y-65080977D01*
X104828431Y-65068202D01*
X104817848Y-65054675D01*
X104814494Y-65050015D01*
X104805071Y-65035729D01*
X104796607Y-65020985D01*
X104789100Y-65005782D01*
X104782552Y-64990121D01*
X104776962Y-64974001D01*
X104772330Y-64957423D01*
X104768657Y-64940386D01*
X104766741Y-64928774D01*
X104765250Y-64916957D01*
X104764416Y-64907543D01*
X104908414Y-64907543D01*
X104908477Y-64913727D01*
X104908988Y-64925833D01*
X104910009Y-64937589D01*
X104912499Y-64954566D01*
X104916137Y-64970754D01*
X104920924Y-64986154D01*
X104926860Y-65000766D01*
X104933945Y-65014590D01*
X104942178Y-65027625D01*
X104951561Y-65039872D01*
X104962093Y-65051331D01*
X104973773Y-65062002D01*
X104977887Y-65065356D01*
X104990800Y-65074779D01*
X105004568Y-65083244D01*
X105019191Y-65090750D01*
X105034669Y-65097298D01*
X105051003Y-65102888D01*
X105062367Y-65106082D01*
X105074111Y-65108851D01*
X105086235Y-65111193D01*
X105098740Y-65113110D01*
X105111624Y-65114600D01*
X105124889Y-65115665D01*
X105138534Y-65116304D01*
X105152559Y-65116517D01*
X105294415Y-65116517D01*
X105294415Y-64735498D01*
X105135266Y-64735498D01*
X105121310Y-64735666D01*
X105107796Y-64736170D01*
X105094725Y-64737010D01*
X105082098Y-64738186D01*
X105069913Y-64739698D01*
X105058172Y-64741546D01*
X105036018Y-64746251D01*
X105015637Y-64752299D01*
X104997028Y-64759692D01*
X104980191Y-64768428D01*
X104965127Y-64778509D01*
X104951835Y-64789934D01*
X104940315Y-64802703D01*
X104930567Y-64816816D01*
X104922592Y-64832273D01*
X104916389Y-64849074D01*
X104911958Y-64867220D01*
X104909300Y-64886709D01*
X104908414Y-64907543D01*
X104764416Y-64907543D01*
X104764185Y-64904937D01*
X104763546Y-64892713D01*
X104763333Y-64880285D01*
X104763685Y-64865406D01*
X104764739Y-64850884D01*
X104766497Y-64836720D01*
X104768957Y-64822913D01*
X104772120Y-64809462D01*
X104775987Y-64796369D01*
X104780556Y-64783634D01*
X104785828Y-64771255D01*
X104791803Y-64759234D01*
X104798481Y-64747570D01*
X104805863Y-64736263D01*
X104813947Y-64725313D01*
X104822734Y-64714721D01*
X104832224Y-64704485D01*
X104842417Y-64694607D01*
X104853312Y-64685086D01*
X104864772Y-64676000D01*
X104876728Y-64667501D01*
X104889181Y-64659587D01*
X104902130Y-64652260D01*
X104915577Y-64645519D01*
X104929521Y-64639364D01*
X104943961Y-64633795D01*
X104958899Y-64628813D01*
X104974333Y-64624416D01*
X104990264Y-64620606D01*
X105006692Y-64617382D01*
X105023617Y-64614744D01*
X105041039Y-64612693D01*
X105058957Y-64611227D01*
X105077373Y-64610348D01*
X105096285Y-64610055D01*
X105432754Y-64610055D01*
X105432754Y-65791800D01*
G37*
G36*
X104128180Y-64929055D02*
G01*
X104140306Y-64929404D01*
X104152273Y-64929987D01*
X104164080Y-64930802D01*
X104187219Y-64933132D01*
X104209720Y-64936394D01*
X104231585Y-64940588D01*
X104252814Y-64945713D01*
X104273406Y-64951771D01*
X104293361Y-64958760D01*
X104312680Y-64966682D01*
X104331362Y-64975535D01*
X104349408Y-64985321D01*
X104366817Y-64996038D01*
X104383590Y-65007687D01*
X104399726Y-65020268D01*
X104415225Y-65033782D01*
X104430088Y-65048227D01*
X104444143Y-65063501D01*
X104457291Y-65079500D01*
X104469532Y-65096226D01*
X104480866Y-65113678D01*
X104491294Y-65131855D01*
X104500815Y-65150758D01*
X104509429Y-65170387D01*
X104517137Y-65190742D01*
X104523937Y-65211823D01*
X104529831Y-65233630D01*
X104534818Y-65256162D01*
X104536972Y-65267701D01*
X104538899Y-65279421D01*
X104540599Y-65291322D01*
X104542072Y-65303405D01*
X104543319Y-65315669D01*
X104544339Y-65328115D01*
X104545133Y-65340742D01*
X104545699Y-65353551D01*
X104546039Y-65366541D01*
X104546153Y-65379713D01*
X104546044Y-65391820D01*
X104545716Y-65403776D01*
X104544408Y-65427240D01*
X104542227Y-65450103D01*
X104539173Y-65472366D01*
X104535248Y-65494030D01*
X104530449Y-65515094D01*
X104524779Y-65535557D01*
X104518236Y-65555421D01*
X104510820Y-65574685D01*
X104502532Y-65593349D01*
X104493372Y-65611413D01*
X104483339Y-65628877D01*
X104472434Y-65645742D01*
X104460657Y-65662006D01*
X104448007Y-65677670D01*
X104434485Y-65692735D01*
X104420231Y-65707002D01*
X104405386Y-65720349D01*
X104389951Y-65732776D01*
X104373925Y-65744282D01*
X104357308Y-65754868D01*
X104340100Y-65764533D01*
X104322302Y-65773277D01*
X104303913Y-65781102D01*
X104284933Y-65788005D01*
X104265362Y-65793989D01*
X104245200Y-65799051D01*
X104224448Y-65803193D01*
X104203105Y-65806415D01*
X104181171Y-65808716D01*
X104158647Y-65810097D01*
X104135532Y-65810557D01*
X104123609Y-65810439D01*
X104111839Y-65810083D01*
X104088756Y-65808661D01*
X104066282Y-65806291D01*
X104044417Y-65802974D01*
X104023161Y-65798708D01*
X104002514Y-65793494D01*
X103982476Y-65787332D01*
X103963047Y-65780222D01*
X103944228Y-65772165D01*
X103926017Y-65763159D01*
X103908415Y-65753205D01*
X103891423Y-65742304D01*
X103875040Y-65730454D01*
X103859265Y-65717657D01*
X103844100Y-65703911D01*
X103829544Y-65689218D01*
X103815702Y-65673737D01*
X103802754Y-65657632D01*
X103790698Y-65640902D01*
X103779535Y-65623547D01*
X103769266Y-65605566D01*
X103759889Y-65586961D01*
X103751405Y-65567730D01*
X103743815Y-65547874D01*
X103737117Y-65527393D01*
X103731313Y-65506287D01*
X103726401Y-65484556D01*
X103722383Y-65462200D01*
X103719257Y-65439219D01*
X103718029Y-65427493D01*
X103717024Y-65415612D01*
X103716243Y-65403574D01*
X103715685Y-65391381D01*
X103715350Y-65379030D01*
X103715283Y-65371506D01*
X103853578Y-65371506D01*
X103853854Y-65390719D01*
X103854681Y-65409375D01*
X103856061Y-65427474D01*
X103857992Y-65445017D01*
X103860476Y-65462004D01*
X103863511Y-65478434D01*
X103867098Y-65494308D01*
X103871236Y-65509626D01*
X103875927Y-65524387D01*
X103881169Y-65538591D01*
X103886964Y-65552240D01*
X103893310Y-65565331D01*
X103900208Y-65577867D01*
X103907658Y-65589846D01*
X103915659Y-65601268D01*
X103924213Y-65612134D01*
X103933242Y-65622392D01*
X103942746Y-65631987D01*
X103952724Y-65640920D01*
X103963175Y-65649192D01*
X103974101Y-65656802D01*
X103985501Y-65663751D01*
X103997374Y-65670037D01*
X104009722Y-65675662D01*
X104022544Y-65680625D01*
X104035839Y-65684926D01*
X104049609Y-65688566D01*
X104063852Y-65691544D01*
X104078570Y-65693860D01*
X104093761Y-65695514D01*
X104109427Y-65696507D01*
X104125566Y-65696838D01*
X104141447Y-65696501D01*
X104156923Y-65695491D01*
X104171993Y-65693809D01*
X104186658Y-65691452D01*
X104200917Y-65688423D01*
X104214772Y-65684720D01*
X104228221Y-65680345D01*
X104241264Y-65675296D01*
X104253903Y-65669574D01*
X104266136Y-65663178D01*
X104277964Y-65656110D01*
X104289386Y-65648368D01*
X104300403Y-65639953D01*
X104311015Y-65630865D01*
X104321222Y-65621104D01*
X104331024Y-65610669D01*
X104340287Y-65599615D01*
X104348952Y-65588069D01*
X104357020Y-65576030D01*
X104364491Y-65563500D01*
X104371364Y-65550476D01*
X104377639Y-65536961D01*
X104383316Y-65522953D01*
X104388396Y-65508453D01*
X104392878Y-65493461D01*
X104396763Y-65477976D01*
X104400050Y-65462000D01*
X104402739Y-65445530D01*
X104404831Y-65428569D01*
X104406325Y-65411115D01*
X104407222Y-65393169D01*
X104407520Y-65374730D01*
X104407224Y-65355575D01*
X104406334Y-65336945D01*
X104404852Y-65318838D01*
X104402776Y-65301256D01*
X104400107Y-65284198D01*
X104396845Y-65267665D01*
X104392991Y-65251656D01*
X104388543Y-65236171D01*
X104383502Y-65221211D01*
X104377868Y-65206775D01*
X104371641Y-65192864D01*
X104364821Y-65179477D01*
X104357407Y-65166614D01*
X104349401Y-65154275D01*
X104340802Y-65142461D01*
X104331610Y-65131171D01*
X104321909Y-65120453D01*
X104311785Y-65110426D01*
X104301237Y-65101091D01*
X104290265Y-65092447D01*
X104278870Y-65084494D01*
X104267052Y-65077233D01*
X104254809Y-65070664D01*
X104242144Y-65064786D01*
X104229054Y-65059600D01*
X104215541Y-65055105D01*
X104201604Y-65051302D01*
X104187244Y-65048190D01*
X104172460Y-65045770D01*
X104157252Y-65044041D01*
X104141621Y-65043004D01*
X104125566Y-65042658D01*
X104109427Y-65042992D01*
X104093761Y-65043995D01*
X104078570Y-65045667D01*
X104063852Y-65048007D01*
X104049609Y-65051016D01*
X104035839Y-65054693D01*
X104022544Y-65059039D01*
X104009722Y-65064054D01*
X103997374Y-65069737D01*
X103985501Y-65076089D01*
X103974101Y-65083109D01*
X103963175Y-65090798D01*
X103952724Y-65099156D01*
X103942746Y-65108182D01*
X103933242Y-65117877D01*
X103924213Y-65128241D01*
X103915659Y-65139186D01*
X103907658Y-65150699D01*
X103900208Y-65162780D01*
X103893310Y-65175428D01*
X103886964Y-65188645D01*
X103881169Y-65202429D01*
X103875927Y-65216782D01*
X103871236Y-65231702D01*
X103867098Y-65247190D01*
X103863511Y-65263246D01*
X103860476Y-65279870D01*
X103857992Y-65297061D01*
X103856061Y-65314821D01*
X103854681Y-65333148D01*
X103853854Y-65352043D01*
X103853578Y-65371506D01*
X103715283Y-65371506D01*
X103715238Y-65366524D01*
X103715342Y-65353752D01*
X103715653Y-65341157D01*
X103716171Y-65328737D01*
X103716896Y-65316492D01*
X103717829Y-65304424D01*
X103718968Y-65292531D01*
X103721870Y-65269272D01*
X103725600Y-65246717D01*
X103730159Y-65224865D01*
X103735546Y-65203715D01*
X103741763Y-65183268D01*
X103748809Y-65163525D01*
X103756683Y-65144484D01*
X103765387Y-65126147D01*
X103774919Y-65108512D01*
X103785280Y-65091580D01*
X103796471Y-65075351D01*
X103808490Y-65059825D01*
X103821338Y-65045003D01*
X103834887Y-65030948D01*
X103849085Y-65017800D01*
X103863931Y-65005559D01*
X103879425Y-64994224D01*
X103895566Y-64983797D01*
X103912356Y-64974276D01*
X103929794Y-64965662D01*
X103947880Y-64957954D01*
X103966614Y-64951154D01*
X103985995Y-64945260D01*
X104006025Y-64940273D01*
X104026703Y-64936192D01*
X104048029Y-64933019D01*
X104070003Y-64930752D01*
X104092625Y-64929392D01*
X104115894Y-64928938D01*
X104128180Y-64929055D01*
G37*
G36*
X103218374Y-64929258D02*
G01*
X103238228Y-64930216D01*
X103257786Y-64931813D01*
X103277048Y-64934049D01*
X103296016Y-64936924D01*
X103314688Y-64940438D01*
X103333064Y-64944590D01*
X103351146Y-64949381D01*
X103368931Y-64954812D01*
X103386422Y-64960881D01*
X103403617Y-64967589D01*
X103420517Y-64974935D01*
X103437121Y-64982921D01*
X103453430Y-64991545D01*
X103469444Y-65000809D01*
X103485162Y-65010711D01*
X103485162Y-65154033D01*
X103469695Y-65140546D01*
X103453998Y-65127929D01*
X103438069Y-65116183D01*
X103421909Y-65105306D01*
X103405518Y-65095300D01*
X103388895Y-65086164D01*
X103372041Y-65077898D01*
X103354956Y-65070502D01*
X103337639Y-65063976D01*
X103320092Y-65058320D01*
X103302313Y-65053534D01*
X103284302Y-65049619D01*
X103266061Y-65046573D01*
X103247588Y-65044398D01*
X103228884Y-65043093D01*
X103209949Y-65042658D01*
X103199238Y-65042858D01*
X103178836Y-65044461D01*
X103159794Y-65047667D01*
X103142112Y-65052475D01*
X103125791Y-65058887D01*
X103110830Y-65066901D01*
X103097228Y-65076518D01*
X103084987Y-65087738D01*
X103074106Y-65100561D01*
X103064585Y-65114986D01*
X103056424Y-65131015D01*
X103049624Y-65148646D01*
X103044183Y-65167880D01*
X103040103Y-65188717D01*
X103037383Y-65211157D01*
X103036533Y-65222978D01*
X103036023Y-65235199D01*
X103035853Y-65247822D01*
X103288790Y-65283872D01*
X103305939Y-65286523D01*
X103322543Y-65289566D01*
X103338603Y-65293001D01*
X103354118Y-65296828D01*
X103369089Y-65301047D01*
X103383515Y-65305658D01*
X103397397Y-65310662D01*
X103410735Y-65316057D01*
X103423528Y-65321845D01*
X103435777Y-65328025D01*
X103447481Y-65334597D01*
X103458641Y-65341561D01*
X103469257Y-65348917D01*
X103479328Y-65356665D01*
X103488855Y-65364806D01*
X103497838Y-65373338D01*
X103506276Y-65382263D01*
X103514170Y-65391580D01*
X103521519Y-65401289D01*
X103528324Y-65411390D01*
X103534585Y-65421883D01*
X103540301Y-65432768D01*
X103545472Y-65444046D01*
X103550100Y-65455715D01*
X103554183Y-65467777D01*
X103557721Y-65480231D01*
X103560715Y-65493077D01*
X103563165Y-65506315D01*
X103565071Y-65519945D01*
X103566432Y-65533967D01*
X103567248Y-65548382D01*
X103567520Y-65563188D01*
X103567242Y-65577010D01*
X103566408Y-65590487D01*
X103565016Y-65603618D01*
X103563069Y-65616403D01*
X103560565Y-65628842D01*
X103557505Y-65640935D01*
X103553888Y-65652683D01*
X103549715Y-65664085D01*
X103544986Y-65675141D01*
X103539700Y-65685852D01*
X103533857Y-65696216D01*
X103527458Y-65706235D01*
X103520503Y-65715908D01*
X103512992Y-65725236D01*
X103504924Y-65734217D01*
X103496299Y-65742853D01*
X103487147Y-65751052D01*
X103477569Y-65758721D01*
X103467565Y-65765862D01*
X103457135Y-65772474D01*
X103446279Y-65778557D01*
X103434997Y-65784110D01*
X103423290Y-65789135D01*
X103411156Y-65793631D01*
X103398597Y-65797598D01*
X103385611Y-65801036D01*
X103372200Y-65803946D01*
X103358363Y-65806326D01*
X103344100Y-65808177D01*
X103329411Y-65809499D01*
X103314296Y-65810293D01*
X103298756Y-65810557D01*
X103277648Y-65809965D01*
X103257192Y-65808190D01*
X103237385Y-65805230D01*
X103218229Y-65801087D01*
X103199723Y-65795760D01*
X103181867Y-65789249D01*
X103164662Y-65781554D01*
X103148107Y-65772675D01*
X103132202Y-65762613D01*
X103116947Y-65751367D01*
X103102343Y-65738937D01*
X103088389Y-65725323D01*
X103075086Y-65710525D01*
X103062432Y-65694544D01*
X103050429Y-65677378D01*
X103039077Y-65659029D01*
X103035853Y-65659029D01*
X103035853Y-65791800D01*
X102900737Y-65791800D01*
X102900737Y-65355679D01*
X103035853Y-65355679D01*
X103035853Y-65441848D01*
X103036109Y-65455511D01*
X103036878Y-65468877D01*
X103038161Y-65481945D01*
X103039956Y-65494715D01*
X103042264Y-65507187D01*
X103045085Y-65519362D01*
X103048419Y-65531239D01*
X103052266Y-65542818D01*
X103056625Y-65554100D01*
X103061498Y-65565084D01*
X103066884Y-65575771D01*
X103072782Y-65586159D01*
X103079193Y-65596250D01*
X103086118Y-65606044D01*
X103093555Y-65615539D01*
X103101505Y-65624737D01*
X103105624Y-65629173D01*
X103114069Y-65637623D01*
X103127251Y-65649240D01*
X103141052Y-65659591D01*
X103155470Y-65668674D01*
X103170507Y-65676489D01*
X103186163Y-65683037D01*
X103202436Y-65688318D01*
X103219328Y-65692332D01*
X103230932Y-65694303D01*
X103242812Y-65695711D01*
X103254966Y-65696556D01*
X103267395Y-65696838D01*
X103271946Y-65696799D01*
X103285260Y-65696210D01*
X103298063Y-65694916D01*
X103310357Y-65692917D01*
X103322140Y-65690211D01*
X103333414Y-65686800D01*
X103347651Y-65681153D01*
X103360983Y-65674252D01*
X103373407Y-65666095D01*
X103384924Y-65656684D01*
X103395228Y-65646284D01*
X103404159Y-65635160D01*
X103411715Y-65623313D01*
X103417897Y-65610742D01*
X103422706Y-65597448D01*
X103426140Y-65583430D01*
X103428201Y-65568688D01*
X103428888Y-65553223D01*
X103428702Y-65542549D01*
X103427722Y-65527316D01*
X103425902Y-65513015D01*
X103423243Y-65499646D01*
X103419744Y-65487210D01*
X103415405Y-65475706D01*
X103410226Y-65465135D01*
X103402015Y-65452491D01*
X103392311Y-65441505D01*
X103381114Y-65432176D01*
X103378083Y-65430053D01*
X103365054Y-65421968D01*
X103354333Y-65416331D01*
X103342798Y-65411060D01*
X103330448Y-65406154D01*
X103317285Y-65401614D01*
X103303308Y-65397440D01*
X103288516Y-65393632D01*
X103272911Y-65390190D01*
X103256491Y-65387113D01*
X103239258Y-65384402D01*
X103035853Y-65355679D01*
X102900737Y-65355679D01*
X102900737Y-65243425D01*
X102901028Y-65224077D01*
X102901899Y-65205343D01*
X102903352Y-65187223D01*
X102905386Y-65169718D01*
X102908000Y-65152826D01*
X102911196Y-65136549D01*
X102914973Y-65120886D01*
X102919330Y-65105837D01*
X102924269Y-65091403D01*
X102929789Y-65077583D01*
X102935890Y-65064377D01*
X102942572Y-65051785D01*
X102949834Y-65039807D01*
X102957678Y-65028444D01*
X102966103Y-65017695D01*
X102975109Y-65007560D01*
X102984696Y-64998040D01*
X102994864Y-64989133D01*
X103005613Y-64980841D01*
X103016944Y-64973163D01*
X103028855Y-64966099D01*
X103041347Y-64959650D01*
X103054420Y-64953815D01*
X103068074Y-64948594D01*
X103082310Y-64943987D01*
X103097126Y-64939995D01*
X103112523Y-64936616D01*
X103128501Y-64933852D01*
X103145061Y-64931702D01*
X103162201Y-64930167D01*
X103179923Y-64929245D01*
X103198225Y-64928938D01*
X103218374Y-64929258D01*
G37*
G36*
X102209921Y-65079001D02*
G01*
X102221769Y-65073597D01*
X102235149Y-65069109D01*
X102246955Y-65066178D01*
X102259741Y-65063834D01*
X102273507Y-65062075D01*
X102288253Y-65060903D01*
X102303979Y-65060317D01*
X102312210Y-65060243D01*
X102328174Y-65060959D01*
X102343644Y-65063108D01*
X102358619Y-65066688D01*
X102373100Y-65071701D01*
X102387086Y-65078147D01*
X102400577Y-65086024D01*
X102413574Y-65095334D01*
X102426076Y-65106075D01*
X102438083Y-65118250D01*
X102445814Y-65127161D01*
X102453324Y-65136710D01*
X102456997Y-65141723D01*
X102464024Y-65152102D01*
X102470598Y-65162944D01*
X102476719Y-65174249D01*
X102482386Y-65186016D01*
X102487600Y-65198246D01*
X102492360Y-65210938D01*
X102496667Y-65224093D01*
X102500521Y-65237710D01*
X102503921Y-65251790D01*
X102506868Y-65266332D01*
X102509362Y-65281337D01*
X102511402Y-65296805D01*
X102512989Y-65312735D01*
X102514122Y-65329127D01*
X102514802Y-65345982D01*
X102515029Y-65363300D01*
X102515029Y-65791800D01*
X102650144Y-65791800D01*
X102650144Y-64947696D01*
X102515029Y-64947696D01*
X102515029Y-65124430D01*
X102511805Y-65124430D01*
X102508060Y-65113049D01*
X102504079Y-65101986D01*
X102497666Y-65085988D01*
X102490722Y-65070706D01*
X102483247Y-65056141D01*
X102475242Y-65042291D01*
X102466706Y-65029158D01*
X102457639Y-65016741D01*
X102448042Y-65005040D01*
X102437914Y-64994055D01*
X102427255Y-64983786D01*
X102423585Y-64980522D01*
X102412308Y-64971304D01*
X102400789Y-64962992D01*
X102389028Y-64955587D01*
X102377024Y-64949088D01*
X102364779Y-64943497D01*
X102352291Y-64938812D01*
X102339561Y-64935034D01*
X102326590Y-64932162D01*
X102313376Y-64930198D01*
X102299919Y-64929140D01*
X102290814Y-64928938D01*
X102278010Y-64929117D01*
X102265975Y-64929653D01*
X102252013Y-64930825D01*
X102239253Y-64932555D01*
X102227695Y-64934843D01*
X102215413Y-64938326D01*
X102209921Y-64940369D01*
X102209921Y-65079001D01*
G37*
G36*
X101481003Y-65065519D02*
G01*
X101484227Y-65065519D01*
X101494489Y-65048980D01*
X101505494Y-65033508D01*
X101517241Y-65019103D01*
X101529729Y-65005765D01*
X101542959Y-64993494D01*
X101556932Y-64982290D01*
X101571646Y-64972153D01*
X101587102Y-64963084D01*
X101603300Y-64955081D01*
X101620239Y-64948145D01*
X101637921Y-64942276D01*
X101656345Y-64937475D01*
X101675510Y-64933740D01*
X101695417Y-64931072D01*
X101716066Y-64929472D01*
X101737458Y-64928938D01*
X101759129Y-64929431D01*
X101780253Y-64930908D01*
X101800831Y-64933369D01*
X101820860Y-64936815D01*
X101840343Y-64941246D01*
X101859278Y-64946661D01*
X101877666Y-64953061D01*
X101895507Y-64960446D01*
X101912801Y-64968815D01*
X101929547Y-64978169D01*
X101945746Y-64988507D01*
X101961398Y-64999830D01*
X101976502Y-65012137D01*
X101991059Y-65025430D01*
X102005069Y-65039706D01*
X102018532Y-65054968D01*
X102025024Y-65062907D01*
X102037389Y-65079272D01*
X102048929Y-65096285D01*
X102059645Y-65113946D01*
X102069537Y-65132255D01*
X102078605Y-65151212D01*
X102086848Y-65170817D01*
X102094267Y-65191071D01*
X102100861Y-65211972D01*
X102106631Y-65233521D01*
X102111577Y-65255718D01*
X102115699Y-65278563D01*
X102117451Y-65290228D01*
X102118996Y-65302056D01*
X102120336Y-65314046D01*
X102121469Y-65326197D01*
X102122396Y-65338511D01*
X102123118Y-65350986D01*
X102123633Y-65363624D01*
X102123942Y-65376423D01*
X102124045Y-65389385D01*
X102123952Y-65401487D01*
X102123673Y-65413429D01*
X102122557Y-65436834D01*
X102120696Y-65459600D01*
X102118092Y-65481727D01*
X102114743Y-65503216D01*
X102110650Y-65524065D01*
X102105813Y-65544276D01*
X102100231Y-65563848D01*
X102093906Y-65582781D01*
X102086836Y-65601075D01*
X102079022Y-65618730D01*
X102070464Y-65635747D01*
X102061162Y-65652124D01*
X102051116Y-65667863D01*
X102040325Y-65682963D01*
X102028790Y-65697424D01*
X102016634Y-65711124D01*
X102003978Y-65723940D01*
X101990824Y-65735872D01*
X101977170Y-65746920D01*
X101963017Y-65757084D01*
X101948364Y-65766365D01*
X101933213Y-65774761D01*
X101917562Y-65782274D01*
X101901412Y-65788903D01*
X101884763Y-65794648D01*
X101867615Y-65799509D01*
X101849968Y-65803487D01*
X101831822Y-65806580D01*
X101813176Y-65808790D01*
X101794031Y-65810115D01*
X101774387Y-65810557D01*
X101762232Y-65810398D01*
X101750276Y-65809921D01*
X101726961Y-65808011D01*
X101704444Y-65804828D01*
X101682723Y-65800372D01*
X101661799Y-65794643D01*
X101641672Y-65787641D01*
X101622341Y-65779366D01*
X101603808Y-65769818D01*
X101586071Y-65758996D01*
X101569131Y-65746902D01*
X101552989Y-65733534D01*
X101537642Y-65718893D01*
X101523093Y-65702979D01*
X101509341Y-65685792D01*
X101496385Y-65667332D01*
X101484227Y-65647599D01*
X101481003Y-65647599D01*
X101481003Y-65791800D01*
X101345887Y-65791800D01*
X101345887Y-65409901D01*
X101481003Y-65409901D01*
X101481278Y-65425268D01*
X101482106Y-65440300D01*
X101483486Y-65454999D01*
X101485417Y-65469362D01*
X101487901Y-65483392D01*
X101490936Y-65497087D01*
X101494523Y-65510448D01*
X101498661Y-65523474D01*
X101503352Y-65536167D01*
X101508594Y-65548524D01*
X101514389Y-65560548D01*
X101520735Y-65572237D01*
X101527633Y-65583592D01*
X101535083Y-65594613D01*
X101543084Y-65605299D01*
X101551638Y-65615652D01*
X101560596Y-65625483D01*
X101569887Y-65634680D01*
X101579510Y-65643242D01*
X101589465Y-65651171D01*
X101599752Y-65658465D01*
X101610370Y-65665124D01*
X101621321Y-65671150D01*
X101632604Y-65676541D01*
X101644219Y-65681298D01*
X101656166Y-65685421D01*
X101668445Y-65688910D01*
X101681056Y-65691764D01*
X101693999Y-65693984D01*
X101707274Y-65695569D01*
X101720881Y-65696521D01*
X101734820Y-65696838D01*
X101748963Y-65696509D01*
X101762741Y-65695524D01*
X101776156Y-65693881D01*
X101789207Y-65691581D01*
X101801893Y-65688623D01*
X101814215Y-65685009D01*
X101826174Y-65680737D01*
X101837768Y-65675809D01*
X101848998Y-65670223D01*
X101859864Y-65663980D01*
X101870367Y-65657079D01*
X101880504Y-65649522D01*
X101890278Y-65641307D01*
X101899688Y-65632436D01*
X101908734Y-65622907D01*
X101917416Y-65612721D01*
X101925650Y-65601931D01*
X101933353Y-65590666D01*
X101940524Y-65578924D01*
X101947164Y-65566705D01*
X101953274Y-65554011D01*
X101958851Y-65540840D01*
X101963898Y-65527193D01*
X101968414Y-65513070D01*
X101972398Y-65498470D01*
X101975851Y-65483394D01*
X101978773Y-65467842D01*
X101981163Y-65451813D01*
X101983022Y-65435309D01*
X101984350Y-65418328D01*
X101985147Y-65400871D01*
X101985413Y-65382937D01*
X101985136Y-65363277D01*
X101984305Y-65344157D01*
X101982919Y-65325578D01*
X101980980Y-65307539D01*
X101978486Y-65290041D01*
X101975439Y-65273083D01*
X101971837Y-65256665D01*
X101967681Y-65240788D01*
X101962971Y-65225451D01*
X101957707Y-65210654D01*
X101951888Y-65196398D01*
X101945516Y-65182682D01*
X101938589Y-65169507D01*
X101931109Y-65156872D01*
X101923074Y-65144777D01*
X101914485Y-65133223D01*
X101905414Y-65122256D01*
X101895933Y-65111997D01*
X101886042Y-65102445D01*
X101875742Y-65093601D01*
X101865031Y-65085464D01*
X101853911Y-65078035D01*
X101842381Y-65071313D01*
X101830441Y-65065299D01*
X101818091Y-65059993D01*
X101805331Y-65055394D01*
X101792161Y-65051502D01*
X101778582Y-65048318D01*
X101764593Y-65045842D01*
X101750193Y-65044073D01*
X101735384Y-65043012D01*
X101720165Y-65042658D01*
X101713698Y-65042727D01*
X101700978Y-65043279D01*
X101688545Y-65044382D01*
X101676398Y-65046038D01*
X101664536Y-65048245D01*
X101652962Y-65051004D01*
X101636136Y-65056178D01*
X101619955Y-65062593D01*
X101604417Y-65070250D01*
X101589523Y-65079148D01*
X101575274Y-65089288D01*
X101566132Y-65096738D01*
X101557276Y-65104739D01*
X101548707Y-65113293D01*
X101540508Y-65122245D01*
X101532839Y-65131442D01*
X101525698Y-65140884D01*
X101519086Y-65150570D01*
X101510160Y-65165560D01*
X101502425Y-65181101D01*
X101495879Y-65197193D01*
X101490523Y-65213837D01*
X101487614Y-65225239D01*
X101485234Y-65236886D01*
X101483383Y-65248778D01*
X101482060Y-65260915D01*
X101481267Y-65273297D01*
X101481003Y-65285924D01*
X101481003Y-65409901D01*
X101345887Y-65409901D01*
X101345887Y-64535024D01*
X101481003Y-64535024D01*
X101481003Y-65065519D01*
G37*
G36*
X101031107Y-65116517D02*
G01*
X101044904Y-65115538D01*
X101057939Y-65112601D01*
X101070211Y-65107707D01*
X101081720Y-65100855D01*
X101092468Y-65092045D01*
X101095880Y-65088673D01*
X101103564Y-65079700D01*
X101111065Y-65068215D01*
X101116691Y-65055946D01*
X101120442Y-65042894D01*
X101122317Y-65029059D01*
X101122552Y-65021848D01*
X101121901Y-65010045D01*
X101119400Y-64996636D01*
X101115024Y-64984051D01*
X101108773Y-64972291D01*
X101100647Y-64961355D01*
X101095880Y-64956196D01*
X101085388Y-64946933D01*
X101074132Y-64939586D01*
X101062114Y-64934156D01*
X101049334Y-64930642D01*
X101035791Y-64929045D01*
X101031107Y-64928938D01*
X101019296Y-64929604D01*
X101005860Y-64932159D01*
X100993227Y-64936631D01*
X100981398Y-64943020D01*
X100970373Y-64951325D01*
X100965162Y-64956196D01*
X100957309Y-64964908D01*
X100949643Y-64976119D01*
X100943893Y-64988154D01*
X100940060Y-65001014D01*
X100938144Y-65014697D01*
X100937904Y-65021848D01*
X100938570Y-65033758D01*
X100941125Y-65047332D01*
X100945597Y-65060123D01*
X100951985Y-65072130D01*
X100960290Y-65083355D01*
X100965162Y-65088673D01*
X100973959Y-65096695D01*
X100985252Y-65104526D01*
X100997349Y-65110399D01*
X101010249Y-65114314D01*
X101023954Y-65116272D01*
X101031107Y-65116517D01*
G37*
G36*
X101031107Y-65810557D02*
G01*
X101044904Y-65809589D01*
X101057939Y-65806683D01*
X101070211Y-65801840D01*
X101081720Y-65795060D01*
X101092468Y-65786343D01*
X101095880Y-65783007D01*
X101103564Y-65774132D01*
X101111065Y-65762784D01*
X101116691Y-65750674D01*
X101120442Y-65737801D01*
X101122317Y-65724165D01*
X101122552Y-65717061D01*
X101121614Y-65703134D01*
X101118801Y-65689927D01*
X101114113Y-65677442D01*
X101107549Y-65665679D01*
X101099110Y-65654636D01*
X101095880Y-65651116D01*
X101087189Y-65643010D01*
X101076061Y-65635096D01*
X101064170Y-65629161D01*
X101051517Y-65625205D01*
X101038101Y-65623226D01*
X101031107Y-65622979D01*
X101019296Y-65623666D01*
X101005860Y-65626304D01*
X100993227Y-65630920D01*
X100981398Y-65637514D01*
X100970373Y-65646087D01*
X100965162Y-65651116D01*
X100957309Y-65660067D01*
X100949643Y-65671470D01*
X100943893Y-65683595D01*
X100940060Y-65696440D01*
X100938144Y-65710007D01*
X100937904Y-65717061D01*
X100938570Y-65728795D01*
X100941125Y-65742176D01*
X100945597Y-65754795D01*
X100951985Y-65766652D01*
X100960290Y-65777746D01*
X100965162Y-65783007D01*
X100973959Y-65790944D01*
X100985252Y-65798692D01*
X100997349Y-65804504D01*
X101010249Y-65808378D01*
X101023954Y-65810315D01*
X101031107Y-65810557D01*
G37*
G36*
X99353159Y-65709734D02*
G01*
X99364335Y-65715937D01*
X99375587Y-65721943D01*
X99386916Y-65727752D01*
X99398322Y-65733364D01*
X99409805Y-65738780D01*
X99421364Y-65743998D01*
X99433001Y-65749020D01*
X99444713Y-65753844D01*
X99456503Y-65758472D01*
X99468369Y-65762903D01*
X99480312Y-65767136D01*
X99492332Y-65771173D01*
X99504428Y-65775013D01*
X99516601Y-65778656D01*
X99528851Y-65782102D01*
X99541177Y-65785351D01*
X99553580Y-65788404D01*
X99566060Y-65791259D01*
X99578617Y-65793918D01*
X99591250Y-65796379D01*
X99603960Y-65798644D01*
X99616747Y-65800711D01*
X99629610Y-65802582D01*
X99642550Y-65804256D01*
X99655567Y-65805733D01*
X99668660Y-65807013D01*
X99681831Y-65808096D01*
X99695078Y-65808982D01*
X99708401Y-65809671D01*
X99721801Y-65810164D01*
X99735279Y-65810459D01*
X99748832Y-65810557D01*
X99764564Y-65810398D01*
X99780107Y-65809921D01*
X99795460Y-65809125D01*
X99810624Y-65808011D01*
X99825598Y-65806579D01*
X99840383Y-65804828D01*
X99854979Y-65802760D01*
X99869384Y-65800372D01*
X99883601Y-65797667D01*
X99897628Y-65794643D01*
X99911465Y-65791301D01*
X99925113Y-65787641D01*
X99938571Y-65783663D01*
X99951840Y-65779366D01*
X99964920Y-65774751D01*
X99977810Y-65769818D01*
X99990511Y-65764566D01*
X100003022Y-65758996D01*
X100015343Y-65753108D01*
X100027475Y-65746902D01*
X100039418Y-65740377D01*
X100051171Y-65733534D01*
X100062735Y-65726373D01*
X100074109Y-65718893D01*
X100085294Y-65711095D01*
X100096289Y-65702979D01*
X100107094Y-65694545D01*
X100117711Y-65685792D01*
X100128138Y-65676721D01*
X100138375Y-65667332D01*
X100148423Y-65657624D01*
X100158281Y-65647599D01*
X100167892Y-65637311D01*
X100177198Y-65626818D01*
X100186199Y-65616119D01*
X100194895Y-65605215D01*
X100203285Y-65594105D01*
X100211371Y-65582790D01*
X100219151Y-65571269D01*
X100226626Y-65559543D01*
X100233796Y-65547611D01*
X100240661Y-65535474D01*
X100247221Y-65523131D01*
X100253476Y-65510583D01*
X100259426Y-65497829D01*
X100265070Y-65484870D01*
X100270410Y-65471705D01*
X100275444Y-65458335D01*
X100280174Y-65444759D01*
X100284598Y-65430978D01*
X100288717Y-65416991D01*
X100292531Y-65402798D01*
X100296039Y-65388401D01*
X100299243Y-65373797D01*
X100302142Y-65358988D01*
X100304735Y-65343974D01*
X100307023Y-65328754D01*
X100309007Y-65313329D01*
X100310685Y-65297698D01*
X100312058Y-65281862D01*
X100313126Y-65265820D01*
X100313889Y-65249572D01*
X100314346Y-65233119D01*
X100314499Y-65216461D01*
X100314329Y-65199448D01*
X100313821Y-65182626D01*
X100312974Y-65165996D01*
X100311788Y-65149558D01*
X100310263Y-65133312D01*
X100308399Y-65117258D01*
X100306196Y-65101395D01*
X100303654Y-65085724D01*
X100300774Y-65070245D01*
X100297554Y-65054957D01*
X100293996Y-65039862D01*
X100290099Y-65024958D01*
X100285863Y-65010246D01*
X100281288Y-64995725D01*
X100276374Y-64981397D01*
X100271121Y-64967260D01*
X100265530Y-64953315D01*
X100259599Y-64939562D01*
X100253330Y-64926000D01*
X100246721Y-64912631D01*
X100239774Y-64899453D01*
X100232488Y-64886466D01*
X100224863Y-64873672D01*
X100216899Y-64861069D01*
X100208597Y-64848659D01*
X100199955Y-64836439D01*
X100190974Y-64824412D01*
X100181655Y-64812576D01*
X100171997Y-64800933D01*
X100162000Y-64789481D01*
X100151664Y-64778220D01*
X100140989Y-64767152D01*
X100130053Y-64756333D01*
X100118937Y-64745857D01*
X100107639Y-64735725D01*
X100096159Y-64725936D01*
X100084498Y-64716491D01*
X100072656Y-64707389D01*
X100060632Y-64698630D01*
X100048427Y-64690215D01*
X100036040Y-64682144D01*
X100023472Y-64674416D01*
X100010722Y-64667031D01*
X99997791Y-64659990D01*
X99984678Y-64653293D01*
X99971384Y-64646939D01*
X99957908Y-64640928D01*
X99944251Y-64635261D01*
X99930412Y-64629937D01*
X99916392Y-64624957D01*
X99902191Y-64620320D01*
X99887808Y-64616027D01*
X99873244Y-64612077D01*
X99858498Y-64608470D01*
X99843570Y-64605207D01*
X99828462Y-64602288D01*
X99813171Y-64599712D01*
X99797700Y-64597479D01*
X99782046Y-64595590D01*
X99766212Y-64594045D01*
X99750196Y-64592843D01*
X99733998Y-64591984D01*
X99717619Y-64591469D01*
X99701058Y-64591297D01*
X99689065Y-64591361D01*
X99677193Y-64591552D01*
X99665442Y-64591872D01*
X99642301Y-64592893D01*
X99619644Y-64594425D01*
X99597470Y-64596467D01*
X99575779Y-64599020D01*
X99554571Y-64602084D01*
X99533846Y-64605658D01*
X99513604Y-64609743D01*
X99493846Y-64614339D01*
X99474571Y-64619445D01*
X99455778Y-64625062D01*
X99437469Y-64631189D01*
X99419643Y-64637827D01*
X99402301Y-64644976D01*
X99385441Y-64652635D01*
X99377192Y-64656656D01*
X99377192Y-64816391D01*
X99395315Y-64804324D01*
X99413852Y-64793036D01*
X99432803Y-64782525D01*
X99452169Y-64772794D01*
X99471949Y-64763841D01*
X99492144Y-64755666D01*
X99512753Y-64748270D01*
X99533776Y-64741653D01*
X99555215Y-64735814D01*
X99577067Y-64730754D01*
X99599334Y-64726472D01*
X99622015Y-64722968D01*
X99645111Y-64720244D01*
X99656814Y-64719173D01*
X99668621Y-64718297D01*
X99680532Y-64717616D01*
X99692546Y-64717129D01*
X99704664Y-64716837D01*
X99716885Y-64716740D01*
X99729235Y-64716874D01*
X99741444Y-64717274D01*
X99753513Y-64717941D01*
X99765442Y-64718874D01*
X99777231Y-64720075D01*
X99788879Y-64721542D01*
X99811755Y-64725276D01*
X99834070Y-64730078D01*
X99855824Y-64735947D01*
X99877017Y-64742883D01*
X99897649Y-64750885D01*
X99917721Y-64759955D01*
X99937231Y-64770092D01*
X99956180Y-64781296D01*
X99974568Y-64793567D01*
X99992395Y-64806905D01*
X100009661Y-64821310D01*
X100026366Y-64836782D01*
X100042510Y-64853321D01*
X100057878Y-64870673D01*
X100072254Y-64888657D01*
X100085639Y-64907273D01*
X100098032Y-64926520D01*
X100109434Y-64946400D01*
X100119845Y-64966912D01*
X100129264Y-64988056D01*
X100137691Y-65009832D01*
X100141533Y-65020956D01*
X100145127Y-65032239D01*
X100148474Y-65043680D01*
X100151572Y-65055279D01*
X100154422Y-65067036D01*
X100157025Y-65078951D01*
X100159380Y-65091024D01*
X100161487Y-65103254D01*
X100163346Y-65115643D01*
X100164957Y-65128190D01*
X100166320Y-65140895D01*
X100167436Y-65153758D01*
X100168303Y-65166779D01*
X100168923Y-65179957D01*
X100169295Y-65193294D01*
X100169418Y-65206789D01*
X100169303Y-65220672D01*
X100168958Y-65234368D01*
X100168383Y-65247877D01*
X100167578Y-65261199D01*
X100166542Y-65274333D01*
X100165276Y-65287280D01*
X100163780Y-65300040D01*
X100162055Y-65312613D01*
X100160099Y-65324999D01*
X100157912Y-65337198D01*
X100155496Y-65349209D01*
X100152850Y-65361033D01*
X100149973Y-65372670D01*
X100146866Y-65384120D01*
X100143530Y-65395382D01*
X100136166Y-65417346D01*
X100127881Y-65438561D01*
X100118676Y-65459027D01*
X100108551Y-65478744D01*
X100097505Y-65497712D01*
X100085539Y-65515932D01*
X100072652Y-65533403D01*
X100058845Y-65550125D01*
X100051596Y-65558206D01*
X100036538Y-65573680D01*
X100020821Y-65588156D01*
X100004445Y-65601634D01*
X99987409Y-65614113D01*
X99969713Y-65625594D01*
X99951358Y-65636076D01*
X99932344Y-65645561D01*
X99912670Y-65654047D01*
X99892337Y-65661534D01*
X99871345Y-65668023D01*
X99849692Y-65673514D01*
X99827381Y-65678007D01*
X99804410Y-65681501D01*
X99792677Y-65682874D01*
X99780779Y-65683997D01*
X99768717Y-65684870D01*
X99756489Y-65685494D01*
X99744097Y-65685869D01*
X99731540Y-65685993D01*
X99714392Y-65685777D01*
X99697532Y-65685128D01*
X99680961Y-65684046D01*
X99664678Y-65682531D01*
X99648684Y-65680584D01*
X99632979Y-65678204D01*
X99617562Y-65675391D01*
X99602433Y-65672145D01*
X99587593Y-65668466D01*
X99573042Y-65664355D01*
X99558779Y-65659811D01*
X99544804Y-65654834D01*
X99531118Y-65649425D01*
X99517721Y-65643582D01*
X99504612Y-65637307D01*
X99491791Y-65630599D01*
X99491791Y-65298234D01*
X99750591Y-65298234D01*
X99750591Y-65172790D01*
X99353159Y-65172790D01*
X99353159Y-65709734D01*
G37*
G36*
X99084394Y-65791800D02*
G01*
X98946055Y-65791800D01*
X98946055Y-65354507D01*
X98790130Y-65354507D01*
X98777900Y-65354401D01*
X98765828Y-65354083D01*
X98753914Y-65353554D01*
X98742159Y-65352813D01*
X98719125Y-65350695D01*
X98696726Y-65347729D01*
X98674960Y-65343917D01*
X98653829Y-65339257D01*
X98633332Y-65333750D01*
X98613469Y-65327396D01*
X98594241Y-65320195D01*
X98575647Y-65312146D01*
X98557687Y-65303250D01*
X98540361Y-65293507D01*
X98523670Y-65282917D01*
X98507613Y-65271480D01*
X98492190Y-65259195D01*
X98477402Y-65246063D01*
X98463383Y-65232266D01*
X98450268Y-65217986D01*
X98438058Y-65203223D01*
X98426752Y-65187976D01*
X98416351Y-65172247D01*
X98406854Y-65156034D01*
X98398261Y-65139338D01*
X98390573Y-65122159D01*
X98383790Y-65104497D01*
X98377911Y-65086351D01*
X98372936Y-65067723D01*
X98368866Y-65048611D01*
X98365701Y-65029016D01*
X98363440Y-65008939D01*
X98362083Y-64988378D01*
X98361769Y-64973781D01*
X98506711Y-64973781D01*
X98507006Y-64988807D01*
X98507892Y-65003402D01*
X98509369Y-65017566D01*
X98511437Y-65031301D01*
X98514095Y-65044604D01*
X98517345Y-65057477D01*
X98521185Y-65069920D01*
X98525615Y-65081932D01*
X98530637Y-65093514D01*
X98536249Y-65104665D01*
X98542452Y-65115386D01*
X98549246Y-65125676D01*
X98556630Y-65135536D01*
X98564606Y-65144965D01*
X98573172Y-65153964D01*
X98582328Y-65162532D01*
X98592010Y-65170589D01*
X98602222Y-65178126D01*
X98612966Y-65185143D01*
X98624241Y-65191640D01*
X98636047Y-65197617D01*
X98648384Y-65203075D01*
X98661252Y-65208013D01*
X98674652Y-65212431D01*
X98688583Y-65216329D01*
X98703045Y-65219708D01*
X98718039Y-65222567D01*
X98733564Y-65224906D01*
X98749620Y-65226725D01*
X98766207Y-65228024D01*
X98783325Y-65228804D01*
X98800975Y-65229064D01*
X98946055Y-65229064D01*
X98946055Y-64735498D01*
X98783682Y-64735498D01*
X98766642Y-64735731D01*
X98750143Y-64736429D01*
X98734184Y-64737592D01*
X98718767Y-64739221D01*
X98703891Y-64741315D01*
X98689555Y-64743875D01*
X98675761Y-64746900D01*
X98662507Y-64750391D01*
X98649795Y-64754347D01*
X98637623Y-64758768D01*
X98625992Y-64763655D01*
X98614903Y-64769007D01*
X98604354Y-64774824D01*
X98584880Y-64787855D01*
X98567569Y-64802748D01*
X98552422Y-64819502D01*
X98539439Y-64838118D01*
X98528620Y-64858596D01*
X98524022Y-64869532D01*
X98519964Y-64880935D01*
X98516448Y-64892802D01*
X98513473Y-64905135D01*
X98511039Y-64917934D01*
X98509145Y-64931198D01*
X98507793Y-64944927D01*
X98506981Y-64959121D01*
X98506711Y-64973781D01*
X98361769Y-64973781D01*
X98361631Y-64967333D01*
X98362038Y-64946348D01*
X98363261Y-64925962D01*
X98365299Y-64906176D01*
X98368152Y-64886990D01*
X98371820Y-64868404D01*
X98376304Y-64850417D01*
X98381602Y-64833031D01*
X98387716Y-64816245D01*
X98394645Y-64800058D01*
X98402389Y-64784472D01*
X98410948Y-64769485D01*
X98420322Y-64755099D01*
X98430512Y-64741312D01*
X98441516Y-64728125D01*
X98453336Y-64715538D01*
X98465971Y-64703551D01*
X98472558Y-64697799D01*
X98486232Y-64686842D01*
X98500575Y-64676616D01*
X98515587Y-64667120D01*
X98531268Y-64658355D01*
X98547617Y-64650320D01*
X98564634Y-64643016D01*
X98582320Y-64636442D01*
X98600675Y-64630598D01*
X98619699Y-64625485D01*
X98639391Y-64621103D01*
X98659752Y-64617451D01*
X98680781Y-64614529D01*
X98702479Y-64612338D01*
X98724845Y-64610877D01*
X98747880Y-64610146D01*
X98759649Y-64610055D01*
X99084394Y-64610055D01*
X99084394Y-65791800D01*
G37*
G36*
X98199551Y-65748715D02*
G01*
X98199551Y-65585463D01*
X98188619Y-65594091D01*
X98178926Y-65601029D01*
X98168703Y-65607738D01*
X98157951Y-65614218D01*
X98146670Y-65620469D01*
X98134859Y-65626491D01*
X98132433Y-65627668D01*
X98120067Y-65633303D01*
X98107515Y-65638665D01*
X98094776Y-65643755D01*
X98081852Y-65648574D01*
X98068742Y-65653121D01*
X98055445Y-65657395D01*
X98050074Y-65659029D01*
X98036512Y-65662916D01*
X98022935Y-65666517D01*
X98009344Y-65669831D01*
X97995738Y-65672859D01*
X97982118Y-65675601D01*
X97968484Y-65678057D01*
X97963026Y-65678959D01*
X97949537Y-65680986D01*
X97936362Y-65682669D01*
X97923502Y-65684008D01*
X97910957Y-65685004D01*
X97898727Y-65685657D01*
X97886811Y-65685966D01*
X97882133Y-65685993D01*
X97866413Y-65685809D01*
X97851198Y-65685256D01*
X97836490Y-65684335D01*
X97822287Y-65683044D01*
X97808591Y-65681385D01*
X97795401Y-65679358D01*
X97782717Y-65676961D01*
X97770539Y-65674197D01*
X97758866Y-65671063D01*
X97742307Y-65665671D01*
X97726886Y-65659450D01*
X97712604Y-65652400D01*
X97699460Y-65644520D01*
X97691331Y-65638806D01*
X97680069Y-65629592D01*
X97669915Y-65619647D01*
X97660869Y-65608971D01*
X97652931Y-65597562D01*
X97646100Y-65585422D01*
X97640377Y-65572551D01*
X97635762Y-65558948D01*
X97632254Y-65544614D01*
X97629854Y-65529547D01*
X97628562Y-65513750D01*
X97628316Y-65502811D01*
X97628646Y-65491065D01*
X97629985Y-65476935D01*
X97632355Y-65463421D01*
X97635755Y-65450523D01*
X97640186Y-65438240D01*
X97645647Y-65426572D01*
X97649418Y-65419866D01*
X97656322Y-65408941D01*
X97664027Y-65398331D01*
X97672534Y-65388036D01*
X97681842Y-65378055D01*
X97691951Y-65368389D01*
X97702862Y-65359039D01*
X97707451Y-65355386D01*
X97716898Y-65348100D01*
X97726776Y-65340897D01*
X97737085Y-65333775D01*
X97747824Y-65326737D01*
X97758993Y-65319780D01*
X97770593Y-65312906D01*
X97782624Y-65306115D01*
X97795085Y-65299406D01*
X97807885Y-65292624D01*
X97820932Y-65285759D01*
X97834226Y-65278812D01*
X97847768Y-65271782D01*
X97861557Y-65264670D01*
X97872061Y-65259282D01*
X97882704Y-65253847D01*
X97893487Y-65248367D01*
X97904408Y-65242839D01*
X97915931Y-65236954D01*
X97927310Y-65231058D01*
X97938545Y-65225152D01*
X97949636Y-65219236D01*
X97960582Y-65213310D01*
X97971384Y-65207373D01*
X97982042Y-65201426D01*
X97992555Y-65195468D01*
X98002925Y-65189501D01*
X98013150Y-65183523D01*
X98019886Y-65179532D01*
X98033006Y-65171375D01*
X98045696Y-65163027D01*
X98057956Y-65154486D01*
X98069785Y-65145753D01*
X98081183Y-65136827D01*
X98092151Y-65127709D01*
X98102689Y-65118399D01*
X98112796Y-65108896D01*
X98122427Y-65099064D01*
X98131536Y-65088911D01*
X98140122Y-65078438D01*
X98148187Y-65067644D01*
X98155729Y-65056529D01*
X98162750Y-65045094D01*
X98169248Y-65033338D01*
X98175224Y-65021262D01*
X98180514Y-65008760D01*
X98185098Y-64995727D01*
X98188977Y-64982162D01*
X98192151Y-64968066D01*
X98194619Y-64953439D01*
X98196382Y-64938281D01*
X98197242Y-64926563D01*
X98197704Y-64914547D01*
X98197793Y-64906370D01*
X98197481Y-64891443D01*
X98196546Y-64876887D01*
X98194987Y-64862702D01*
X98192805Y-64848888D01*
X98190000Y-64835444D01*
X98186571Y-64822372D01*
X98182519Y-64809671D01*
X98177844Y-64797340D01*
X98172545Y-64785381D01*
X98166623Y-64773792D01*
X98162328Y-64766273D01*
X98155483Y-64755247D01*
X98148246Y-64744593D01*
X98140618Y-64734310D01*
X98132598Y-64724397D01*
X98124187Y-64714856D01*
X98115383Y-64705685D01*
X98106189Y-64696886D01*
X98096603Y-64688457D01*
X98086625Y-64680399D01*
X98076256Y-64672712D01*
X98069125Y-64667794D01*
X98058160Y-64660715D01*
X98046917Y-64653987D01*
X98035395Y-64647608D01*
X98023595Y-64641581D01*
X98011517Y-64635903D01*
X97999161Y-64630576D01*
X97986527Y-64625599D01*
X97973614Y-64620973D01*
X97960423Y-64616696D01*
X97946954Y-64612771D01*
X97937820Y-64610348D01*
X97923946Y-64606943D01*
X97910020Y-64603874D01*
X97896043Y-64601139D01*
X97882014Y-64598739D01*
X97867934Y-64596674D01*
X97853802Y-64594944D01*
X97839618Y-64593548D01*
X97825383Y-64592488D01*
X97811097Y-64591762D01*
X97796759Y-64591371D01*
X97787171Y-64591297D01*
X97765706Y-64591495D01*
X97744980Y-64592089D01*
X97724994Y-64593080D01*
X97705747Y-64594466D01*
X97687240Y-64596249D01*
X97669472Y-64598427D01*
X97652444Y-64601002D01*
X97636156Y-64603973D01*
X97620607Y-64607340D01*
X97605798Y-64611104D01*
X97591729Y-64615263D01*
X97578399Y-64619819D01*
X97565808Y-64624770D01*
X97553958Y-64630118D01*
X97542847Y-64635862D01*
X97532475Y-64642002D01*
X97532475Y-64797633D01*
X97545787Y-64787838D01*
X97559563Y-64778674D01*
X97573804Y-64770142D01*
X97588510Y-64762243D01*
X97603681Y-64754975D01*
X97619317Y-64748339D01*
X97635418Y-64742335D01*
X97651983Y-64736963D01*
X97669013Y-64732224D01*
X97686508Y-64728116D01*
X97704468Y-64724640D01*
X97722893Y-64721796D01*
X97741782Y-64719584D01*
X97761137Y-64718004D01*
X97780956Y-64717056D01*
X97801240Y-64716740D01*
X97815436Y-64716969D01*
X97829633Y-64717656D01*
X97843830Y-64718801D01*
X97858026Y-64720404D01*
X97872223Y-64722465D01*
X97886420Y-64724983D01*
X97892098Y-64726119D01*
X97905967Y-64729343D01*
X97919364Y-64733154D01*
X97932288Y-64737552D01*
X97944740Y-64742537D01*
X97956720Y-64748108D01*
X97968228Y-64754266D01*
X97972698Y-64756894D01*
X97983459Y-64763880D01*
X97993575Y-64771468D01*
X98003048Y-64779657D01*
X98011876Y-64788447D01*
X98020061Y-64797838D01*
X98027601Y-64807830D01*
X98030437Y-64811995D01*
X98036854Y-64822886D01*
X98042184Y-64834492D01*
X98046426Y-64846814D01*
X98049580Y-64859851D01*
X98051646Y-64873604D01*
X98052625Y-64888073D01*
X98052712Y-64894060D01*
X98052304Y-64907872D01*
X98051081Y-64921097D01*
X98049041Y-64933735D01*
X98046186Y-64945787D01*
X98042516Y-64957251D01*
X98038029Y-64968129D01*
X98036006Y-64972316D01*
X98029075Y-64984430D01*
X98022449Y-64994226D01*
X98015050Y-65003750D01*
X98006878Y-65013002D01*
X97997934Y-65021982D01*
X97988217Y-65030691D01*
X97986181Y-65032400D01*
X97975480Y-65040790D01*
X97964078Y-65049109D01*
X97951976Y-65057357D01*
X97941788Y-65063903D01*
X97931152Y-65070404D01*
X97920068Y-65076859D01*
X97908534Y-65083268D01*
X97905580Y-65084863D01*
X97893490Y-65091316D01*
X97880961Y-65097924D01*
X97867991Y-65104688D01*
X97854582Y-65111608D01*
X97840734Y-65118683D01*
X97830059Y-65124092D01*
X97819137Y-65129588D01*
X97807967Y-65135172D01*
X97796550Y-65140843D01*
X97784684Y-65146752D01*
X97772937Y-65152717D01*
X97761308Y-65158739D01*
X97749798Y-65164817D01*
X97738406Y-65170953D01*
X97727132Y-65177144D01*
X97715977Y-65183393D01*
X97704941Y-65189698D01*
X97694023Y-65196060D01*
X97683224Y-65202479D01*
X97676090Y-65206789D01*
X97665552Y-65213288D01*
X97655262Y-65219927D01*
X97645219Y-65226704D01*
X97635423Y-65233621D01*
X97625875Y-65240676D01*
X97616574Y-65247871D01*
X97604557Y-65257680D01*
X97592980Y-65267737D01*
X97581843Y-65278041D01*
X97576439Y-65283286D01*
X97566016Y-65293906D01*
X97556142Y-65304810D01*
X97546818Y-65315998D01*
X97538044Y-65327469D01*
X97529819Y-65339225D01*
X97522144Y-65351265D01*
X97515018Y-65363588D01*
X97508442Y-65376196D01*
X97502534Y-65389110D01*
X97497414Y-65402501D01*
X97493082Y-65416368D01*
X97489537Y-65430711D01*
X97486780Y-65445530D01*
X97484811Y-65460826D01*
X97483851Y-65472610D01*
X97483334Y-65484663D01*
X97483236Y-65492846D01*
X97483537Y-65508986D01*
X97484441Y-65524651D01*
X97485948Y-65539843D01*
X97488058Y-65554560D01*
X97490770Y-65568804D01*
X97494086Y-65582573D01*
X97498004Y-65595869D01*
X97502525Y-65608691D01*
X97507648Y-65621038D01*
X97513375Y-65632912D01*
X97517527Y-65640564D01*
X97524116Y-65651689D01*
X97531132Y-65662423D01*
X97538576Y-65672764D01*
X97546447Y-65682715D01*
X97554746Y-65692273D01*
X97563473Y-65701440D01*
X97572627Y-65710216D01*
X97582209Y-65718600D01*
X97592218Y-65726592D01*
X97602656Y-65734193D01*
X97609851Y-65739043D01*
X97620889Y-65745947D01*
X97632242Y-65752479D01*
X97643908Y-65758641D01*
X97655889Y-65764432D01*
X97668185Y-65769852D01*
X97680794Y-65774901D01*
X97693718Y-65779579D01*
X97706956Y-65783886D01*
X97720508Y-65787822D01*
X97734375Y-65791387D01*
X97743794Y-65793558D01*
X97758047Y-65796596D01*
X97772449Y-65799335D01*
X97787001Y-65801775D01*
X97801702Y-65803917D01*
X97816553Y-65805760D01*
X97831553Y-65807304D01*
X97846702Y-65808549D01*
X97862001Y-65809495D01*
X97877450Y-65810142D01*
X97893047Y-65810491D01*
X97903529Y-65810557D01*
X97916470Y-65810361D01*
X97928567Y-65809880D01*
X97941591Y-65809111D01*
X97955542Y-65808053D01*
X97967877Y-65806951D01*
X97972991Y-65806454D01*
X97985864Y-65805079D01*
X97998837Y-65803517D01*
X98011910Y-65801770D01*
X98025084Y-65799837D01*
X98038357Y-65797717D01*
X98051731Y-65795412D01*
X98057109Y-65794437D01*
X98070374Y-65791871D01*
X98083424Y-65789119D01*
X98096260Y-65786181D01*
X98108880Y-65783057D01*
X98121287Y-65779747D01*
X98133478Y-65776251D01*
X98138295Y-65774800D01*
X98149837Y-65771072D01*
X98162724Y-65766428D01*
X98174560Y-65761599D01*
X98185344Y-65756585D01*
X98196598Y-65750500D01*
X98199551Y-65748715D01*
G37*
G36*
X105432754Y-67807800D02*
G01*
X105088372Y-67807800D01*
X105067859Y-67807433D01*
X105047792Y-67806334D01*
X105028172Y-67804502D01*
X105008999Y-67801938D01*
X104990272Y-67798640D01*
X104971992Y-67794610D01*
X104954158Y-67789848D01*
X104936770Y-67784352D01*
X104919829Y-67778124D01*
X104903335Y-67771163D01*
X104887287Y-67763469D01*
X104871686Y-67755043D01*
X104856531Y-67745884D01*
X104841822Y-67735992D01*
X104827560Y-67725368D01*
X104813745Y-67714010D01*
X104800578Y-67702024D01*
X104788260Y-67689587D01*
X104776792Y-67676699D01*
X104766173Y-67663360D01*
X104756403Y-67649570D01*
X104747484Y-67635329D01*
X104739413Y-67620637D01*
X104732192Y-67605493D01*
X104725821Y-67589899D01*
X104720299Y-67573853D01*
X104715627Y-67557356D01*
X104711804Y-67540409D01*
X104708831Y-67523010D01*
X104706707Y-67505160D01*
X104705433Y-67486859D01*
X104705008Y-67468107D01*
X104705041Y-67466348D01*
X104850088Y-67466348D01*
X104850154Y-67472589D01*
X104850678Y-67484821D01*
X104851727Y-67496719D01*
X104854283Y-67513939D01*
X104858019Y-67530406D01*
X104862935Y-67546122D01*
X104869031Y-67561085D01*
X104876306Y-67575296D01*
X104884762Y-67588754D01*
X104894397Y-67601461D01*
X104905212Y-67613415D01*
X104917206Y-67624617D01*
X104921455Y-67628170D01*
X104934847Y-67638150D01*
X104949207Y-67647115D01*
X104964536Y-67655066D01*
X104975293Y-67659802D01*
X104986481Y-67664087D01*
X104998100Y-67667922D01*
X105010148Y-67671305D01*
X105022628Y-67674237D01*
X105035537Y-67676718D01*
X105048878Y-67678748D01*
X105062648Y-67680326D01*
X105076850Y-67681454D01*
X105091481Y-67682131D01*
X105106543Y-67682356D01*
X105294415Y-67682356D01*
X105294415Y-67257081D01*
X105135266Y-67257081D01*
X105117721Y-67257285D01*
X105100733Y-67257898D01*
X105084302Y-67258920D01*
X105068428Y-67260351D01*
X105053111Y-67262190D01*
X105038350Y-67264438D01*
X105024147Y-67267094D01*
X105010501Y-67270160D01*
X104997412Y-67273634D01*
X104984880Y-67277517D01*
X104972904Y-67281809D01*
X104961486Y-67286509D01*
X104940320Y-67297136D01*
X104921383Y-67309398D01*
X104904673Y-67323294D01*
X104890192Y-67338826D01*
X104877938Y-67355992D01*
X104867912Y-67374794D01*
X104860114Y-67395230D01*
X104854544Y-67417301D01*
X104852595Y-67428950D01*
X104851202Y-67441007D01*
X104850367Y-67453473D01*
X104850088Y-67466348D01*
X104705041Y-67466348D01*
X104705289Y-67453044D01*
X104706130Y-67438339D01*
X104707533Y-67423992D01*
X104709496Y-67410001D01*
X104712021Y-67396368D01*
X104715106Y-67383092D01*
X104718753Y-67370173D01*
X104722960Y-67357611D01*
X104727728Y-67345407D01*
X104733058Y-67333559D01*
X104738948Y-67322069D01*
X104745400Y-67310936D01*
X104752412Y-67300161D01*
X104759986Y-67289742D01*
X104768120Y-67279681D01*
X104776816Y-67269977D01*
X104785943Y-67260659D01*
X104795445Y-67251828D01*
X104805323Y-67243485D01*
X104815577Y-67235630D01*
X104826206Y-67228263D01*
X104837211Y-67221383D01*
X104848591Y-67214991D01*
X104860347Y-67209087D01*
X104872478Y-67203671D01*
X104884985Y-67198742D01*
X104897867Y-67194301D01*
X104911125Y-67190347D01*
X104924758Y-67186882D01*
X104938767Y-67183904D01*
X104953151Y-67181414D01*
X104967911Y-67179412D01*
X104967911Y-67176187D01*
X104961979Y-67174186D01*
X104950357Y-67169931D01*
X104939054Y-67165343D01*
X104928072Y-67160420D01*
X104917411Y-67155162D01*
X104907071Y-67149571D01*
X104892161Y-67140556D01*
X104877972Y-67130790D01*
X104864505Y-67120271D01*
X104851759Y-67109000D01*
X104839734Y-67096977D01*
X104828431Y-67084202D01*
X104817848Y-67070675D01*
X104814494Y-67066015D01*
X104805071Y-67051729D01*
X104796607Y-67036985D01*
X104789100Y-67021782D01*
X104782552Y-67006121D01*
X104776962Y-66990001D01*
X104772330Y-66973423D01*
X104768657Y-66956386D01*
X104766741Y-66944774D01*
X104765250Y-66932957D01*
X104764416Y-66923543D01*
X104908414Y-66923543D01*
X104908477Y-66929727D01*
X104908988Y-66941833D01*
X104910009Y-66953589D01*
X104912499Y-66970566D01*
X104916137Y-66986754D01*
X104920924Y-67002154D01*
X104926860Y-67016766D01*
X104933945Y-67030590D01*
X104942178Y-67043625D01*
X104951561Y-67055872D01*
X104962093Y-67067331D01*
X104973773Y-67078002D01*
X104977887Y-67081356D01*
X104990800Y-67090779D01*
X105004568Y-67099244D01*
X105019191Y-67106750D01*
X105034669Y-67113298D01*
X105051003Y-67118888D01*
X105062367Y-67122082D01*
X105074111Y-67124851D01*
X105086235Y-67127193D01*
X105098740Y-67129110D01*
X105111624Y-67130600D01*
X105124889Y-67131665D01*
X105138534Y-67132304D01*
X105152559Y-67132517D01*
X105294415Y-67132517D01*
X105294415Y-66751498D01*
X105135266Y-66751498D01*
X105121310Y-66751666D01*
X105107796Y-66752170D01*
X105094725Y-66753010D01*
X105082098Y-66754186D01*
X105069913Y-66755698D01*
X105058172Y-66757546D01*
X105036018Y-66762251D01*
X105015637Y-66768299D01*
X104997028Y-66775692D01*
X104980191Y-66784428D01*
X104965127Y-66794509D01*
X104951835Y-66805934D01*
X104940315Y-66818703D01*
X104930567Y-66832816D01*
X104922592Y-66848273D01*
X104916389Y-66865074D01*
X104911958Y-66883220D01*
X104909300Y-66902709D01*
X104908414Y-66923543D01*
X104764416Y-66923543D01*
X104764185Y-66920937D01*
X104763546Y-66908713D01*
X104763333Y-66896285D01*
X104763685Y-66881406D01*
X104764739Y-66866884D01*
X104766497Y-66852720D01*
X104768957Y-66838913D01*
X104772120Y-66825462D01*
X104775987Y-66812369D01*
X104780556Y-66799634D01*
X104785828Y-66787255D01*
X104791803Y-66775234D01*
X104798481Y-66763570D01*
X104805863Y-66752263D01*
X104813947Y-66741313D01*
X104822734Y-66730721D01*
X104832224Y-66720485D01*
X104842417Y-66710607D01*
X104853312Y-66701086D01*
X104864772Y-66692000D01*
X104876728Y-66683501D01*
X104889181Y-66675587D01*
X104902130Y-66668260D01*
X104915577Y-66661519D01*
X104929521Y-66655364D01*
X104943961Y-66649795D01*
X104958899Y-66644813D01*
X104974333Y-66640416D01*
X104990264Y-66636606D01*
X105006692Y-66633382D01*
X105023617Y-66630744D01*
X105041039Y-66628693D01*
X105058957Y-66627227D01*
X105077373Y-66626348D01*
X105096285Y-66626055D01*
X105432754Y-66626055D01*
X105432754Y-67807800D01*
G37*
G36*
X103816648Y-66963696D02*
G01*
X104204994Y-67944673D01*
X104211561Y-67961641D01*
X104218292Y-67978071D01*
X104225187Y-67993961D01*
X104232247Y-68009314D01*
X104239471Y-68024127D01*
X104246859Y-68038402D01*
X104254412Y-68052138D01*
X104262129Y-68065335D01*
X104270010Y-68077994D01*
X104278055Y-68090114D01*
X104286265Y-68101695D01*
X104294639Y-68112738D01*
X104303177Y-68123242D01*
X104311880Y-68133208D01*
X104320747Y-68142634D01*
X104329778Y-68151522D01*
X104338973Y-68159872D01*
X104348333Y-68167683D01*
X104357857Y-68174955D01*
X104367545Y-68181688D01*
X104387415Y-68193539D01*
X104407942Y-68203235D01*
X104429126Y-68210776D01*
X104450967Y-68216163D01*
X104473465Y-68219395D01*
X104496620Y-68220472D01*
X104509539Y-68220307D01*
X104521918Y-68219813D01*
X104533756Y-68218988D01*
X104547794Y-68217494D01*
X104560987Y-68215485D01*
X104573336Y-68212961D01*
X104584841Y-68209921D01*
X104584841Y-68089167D01*
X104571372Y-68093305D01*
X104558262Y-68096741D01*
X104545509Y-68099476D01*
X104533115Y-68101509D01*
X104521078Y-68102842D01*
X104507105Y-68103515D01*
X104504827Y-68103529D01*
X104492275Y-68103028D01*
X104480120Y-68101527D01*
X104468361Y-68099026D01*
X104456998Y-68095524D01*
X104446031Y-68091021D01*
X104435460Y-68085517D01*
X104425286Y-68079013D01*
X104415507Y-68071509D01*
X104406125Y-68063003D01*
X104397139Y-68053497D01*
X104388548Y-68042990D01*
X104380354Y-68031483D01*
X104372557Y-68018975D01*
X104365155Y-68005467D01*
X104358149Y-67990958D01*
X104351540Y-67975448D01*
X104284129Y-67807800D01*
X104613857Y-66963696D01*
X104463794Y-66963696D01*
X104235476Y-67614945D01*
X104232024Y-67626532D01*
X104228552Y-67639274D01*
X104225539Y-67650712D01*
X104222083Y-67664095D01*
X104218999Y-67676204D01*
X104218183Y-67679425D01*
X104213201Y-67679425D01*
X104210244Y-67666406D01*
X104207046Y-67653780D01*
X104203680Y-67641216D01*
X104200434Y-67629518D01*
X104196788Y-67616704D01*
X103956746Y-66963696D01*
X103816648Y-66963696D01*
G37*
G36*
X103253619Y-67764715D02*
G01*
X103253619Y-67601463D01*
X103242687Y-67610091D01*
X103232994Y-67617029D01*
X103222772Y-67623738D01*
X103212020Y-67630218D01*
X103200738Y-67636469D01*
X103188927Y-67642491D01*
X103186502Y-67643668D01*
X103174135Y-67649303D01*
X103161583Y-67654665D01*
X103148845Y-67659755D01*
X103135920Y-67664574D01*
X103122810Y-67669121D01*
X103109514Y-67673395D01*
X103104143Y-67675029D01*
X103090580Y-67678916D01*
X103077003Y-67682517D01*
X103063412Y-67685831D01*
X103049806Y-67688859D01*
X103036187Y-67691601D01*
X103022552Y-67694057D01*
X103017095Y-67694959D01*
X103003605Y-67696986D01*
X102990430Y-67698669D01*
X102977570Y-67700008D01*
X102965025Y-67701004D01*
X102952795Y-67701657D01*
X102940879Y-67701966D01*
X102936201Y-67701993D01*
X102920481Y-67701809D01*
X102905267Y-67701256D01*
X102890558Y-67700335D01*
X102876356Y-67699044D01*
X102862660Y-67697385D01*
X102849469Y-67695358D01*
X102836785Y-67692961D01*
X102824607Y-67690197D01*
X102812935Y-67687063D01*
X102796375Y-67681671D01*
X102780955Y-67675450D01*
X102766672Y-67668400D01*
X102753529Y-67660520D01*
X102745399Y-67654806D01*
X102734138Y-67645592D01*
X102723984Y-67635647D01*
X102714938Y-67624971D01*
X102706999Y-67613562D01*
X102700169Y-67601422D01*
X102694446Y-67588551D01*
X102689830Y-67574948D01*
X102686323Y-67560614D01*
X102683923Y-67545547D01*
X102682630Y-67529750D01*
X102682384Y-67518811D01*
X102682714Y-67507065D01*
X102684054Y-67492935D01*
X102686423Y-67479421D01*
X102689824Y-67466523D01*
X102694254Y-67454240D01*
X102699716Y-67442572D01*
X102703487Y-67435866D01*
X102710391Y-67424941D01*
X102718096Y-67414331D01*
X102726602Y-67404036D01*
X102735910Y-67394055D01*
X102746019Y-67384389D01*
X102756930Y-67375039D01*
X102761519Y-67371386D01*
X102770967Y-67364100D01*
X102780845Y-67356897D01*
X102791153Y-67349775D01*
X102801892Y-67342737D01*
X102813062Y-67335780D01*
X102824662Y-67328906D01*
X102836692Y-67322115D01*
X102849153Y-67315406D01*
X102861953Y-67308624D01*
X102875000Y-67301759D01*
X102888295Y-67294812D01*
X102901836Y-67287782D01*
X102915626Y-67280670D01*
X102926130Y-67275282D01*
X102936773Y-67269847D01*
X102947555Y-67264367D01*
X102958476Y-67258839D01*
X102970000Y-67252954D01*
X102981379Y-67247058D01*
X102992614Y-67241152D01*
X103003704Y-67235236D01*
X103014650Y-67229310D01*
X103025452Y-67223373D01*
X103036110Y-67217426D01*
X103046624Y-67211468D01*
X103056993Y-67205501D01*
X103067218Y-67199523D01*
X103073954Y-67195532D01*
X103087075Y-67187375D01*
X103099765Y-67179027D01*
X103112024Y-67170486D01*
X103123853Y-67161753D01*
X103135252Y-67152827D01*
X103146220Y-67143709D01*
X103156757Y-67134399D01*
X103166864Y-67124896D01*
X103176495Y-67115064D01*
X103185604Y-67104911D01*
X103194191Y-67094438D01*
X103202255Y-67083644D01*
X103209798Y-67072529D01*
X103216818Y-67061094D01*
X103223317Y-67049338D01*
X103229293Y-67037262D01*
X103234582Y-67024760D01*
X103239166Y-67011727D01*
X103243045Y-66998162D01*
X103246219Y-66984066D01*
X103248687Y-66969439D01*
X103250450Y-66954281D01*
X103251310Y-66942563D01*
X103251773Y-66930547D01*
X103251861Y-66922370D01*
X103251549Y-66907443D01*
X103250614Y-66892887D01*
X103249056Y-66878702D01*
X103246874Y-66864888D01*
X103244069Y-66851444D01*
X103240640Y-66838372D01*
X103236588Y-66825671D01*
X103231912Y-66813340D01*
X103226614Y-66801381D01*
X103220691Y-66789792D01*
X103216397Y-66782273D01*
X103209552Y-66771247D01*
X103202315Y-66760593D01*
X103194686Y-66750310D01*
X103186666Y-66740397D01*
X103178255Y-66730856D01*
X103169452Y-66721685D01*
X103160257Y-66712886D01*
X103150671Y-66704457D01*
X103140693Y-66696399D01*
X103130324Y-66688712D01*
X103123194Y-66683794D01*
X103112229Y-66676715D01*
X103100985Y-66669987D01*
X103089464Y-66663608D01*
X103077664Y-66657581D01*
X103065586Y-66651903D01*
X103053230Y-66646576D01*
X103040595Y-66641599D01*
X103027683Y-66636973D01*
X103014492Y-66632696D01*
X103001023Y-66628771D01*
X102991889Y-66626348D01*
X102978014Y-66622943D01*
X102964089Y-66619874D01*
X102950111Y-66617139D01*
X102936082Y-66614739D01*
X102922002Y-66612674D01*
X102907870Y-66610944D01*
X102893687Y-66609548D01*
X102879452Y-66608488D01*
X102865165Y-66607762D01*
X102850827Y-66607371D01*
X102841240Y-66607297D01*
X102819774Y-66607495D01*
X102799048Y-66608089D01*
X102779062Y-66609080D01*
X102759815Y-66610466D01*
X102741308Y-66612249D01*
X102723541Y-66614427D01*
X102706513Y-66617002D01*
X102690224Y-66619973D01*
X102674676Y-66623340D01*
X102659867Y-66627104D01*
X102645797Y-66631263D01*
X102632467Y-66635819D01*
X102619877Y-66640770D01*
X102608026Y-66646118D01*
X102596915Y-66651862D01*
X102586543Y-66658002D01*
X102586543Y-66813633D01*
X102599855Y-66803838D01*
X102613631Y-66794674D01*
X102627873Y-66786142D01*
X102642579Y-66778243D01*
X102657750Y-66770975D01*
X102673385Y-66764339D01*
X102689486Y-66758335D01*
X102706051Y-66752963D01*
X102723082Y-66748224D01*
X102740577Y-66744116D01*
X102758537Y-66740640D01*
X102776961Y-66737796D01*
X102795851Y-66735584D01*
X102815205Y-66734004D01*
X102835024Y-66733056D01*
X102855308Y-66732740D01*
X102869505Y-66732969D01*
X102883701Y-66733656D01*
X102897898Y-66734801D01*
X102912095Y-66736404D01*
X102926291Y-66738465D01*
X102940488Y-66740983D01*
X102946167Y-66742119D01*
X102960035Y-66745343D01*
X102973432Y-66749154D01*
X102986356Y-66753552D01*
X102998809Y-66758537D01*
X103010788Y-66764108D01*
X103022296Y-66770266D01*
X103026767Y-66772894D01*
X103037527Y-66779880D01*
X103047644Y-66787468D01*
X103057116Y-66795657D01*
X103065945Y-66804447D01*
X103074129Y-66813838D01*
X103081670Y-66823830D01*
X103084506Y-66827995D01*
X103090923Y-66838886D01*
X103096252Y-66850492D01*
X103100494Y-66862814D01*
X103103648Y-66875851D01*
X103105715Y-66889604D01*
X103106694Y-66904073D01*
X103106781Y-66910060D01*
X103106373Y-66923872D01*
X103105149Y-66937097D01*
X103103110Y-66949735D01*
X103100255Y-66961787D01*
X103096584Y-66973251D01*
X103092097Y-66984129D01*
X103090074Y-66988316D01*
X103083143Y-67000430D01*
X103076517Y-67010226D01*
X103069118Y-67019750D01*
X103060947Y-67029002D01*
X103052002Y-67037982D01*
X103042285Y-67046691D01*
X103040249Y-67048400D01*
X103029548Y-67056790D01*
X103018147Y-67065109D01*
X103006044Y-67073357D01*
X102995857Y-67079903D01*
X102985221Y-67086404D01*
X102974136Y-67092859D01*
X102962602Y-67099268D01*
X102959649Y-67100863D01*
X102947559Y-67107316D01*
X102935029Y-67113924D01*
X102922060Y-67120688D01*
X102908651Y-67127608D01*
X102894802Y-67134683D01*
X102884127Y-67140092D01*
X102873205Y-67145588D01*
X102862036Y-67151172D01*
X102850619Y-67156843D01*
X102838753Y-67162752D01*
X102827005Y-67168717D01*
X102815377Y-67174739D01*
X102803866Y-67180817D01*
X102792474Y-67186953D01*
X102781201Y-67193144D01*
X102770046Y-67199393D01*
X102759009Y-67205698D01*
X102748091Y-67212060D01*
X102737292Y-67218479D01*
X102730158Y-67222789D01*
X102719621Y-67229288D01*
X102709330Y-67235927D01*
X102699287Y-67242704D01*
X102689492Y-67249621D01*
X102679943Y-67256676D01*
X102670642Y-67263871D01*
X102658626Y-67273680D01*
X102647048Y-67283737D01*
X102635911Y-67294041D01*
X102630507Y-67299286D01*
X102620084Y-67309906D01*
X102610211Y-67320810D01*
X102600887Y-67331998D01*
X102592112Y-67343469D01*
X102583887Y-67355225D01*
X102576212Y-67367265D01*
X102569086Y-67379588D01*
X102562510Y-67392196D01*
X102556602Y-67405110D01*
X102551482Y-67418501D01*
X102547150Y-67432368D01*
X102543606Y-67446711D01*
X102540849Y-67461530D01*
X102538879Y-67476826D01*
X102537919Y-67488610D01*
X102537402Y-67500663D01*
X102537304Y-67508846D01*
X102537605Y-67524986D01*
X102538510Y-67540651D01*
X102540017Y-67555843D01*
X102542126Y-67570560D01*
X102544839Y-67584804D01*
X102548154Y-67598573D01*
X102552072Y-67611869D01*
X102556593Y-67624691D01*
X102561717Y-67637038D01*
X102567443Y-67648912D01*
X102571596Y-67656564D01*
X102578184Y-67667689D01*
X102585200Y-67678423D01*
X102592644Y-67688764D01*
X102600516Y-67698715D01*
X102608815Y-67708273D01*
X102617541Y-67717440D01*
X102626695Y-67726216D01*
X102636277Y-67734600D01*
X102646287Y-67742592D01*
X102656724Y-67750193D01*
X102663920Y-67755043D01*
X102674958Y-67761947D01*
X102686310Y-67768479D01*
X102697977Y-67774641D01*
X102709958Y-67780432D01*
X102722253Y-67785852D01*
X102734863Y-67790901D01*
X102747786Y-67795579D01*
X102761024Y-67799886D01*
X102774577Y-67803822D01*
X102788443Y-67807387D01*
X102797862Y-67809558D01*
X102812115Y-67812596D01*
X102826518Y-67815335D01*
X102841070Y-67817775D01*
X102855771Y-67819917D01*
X102870621Y-67821760D01*
X102885621Y-67823304D01*
X102900771Y-67824549D01*
X102916070Y-67825495D01*
X102931518Y-67826142D01*
X102947116Y-67826491D01*
X102957597Y-67826557D01*
X102970538Y-67826361D01*
X102982635Y-67825880D01*
X102995659Y-67825111D01*
X103009611Y-67824053D01*
X103021946Y-67822951D01*
X103027060Y-67822454D01*
X103039933Y-67821079D01*
X103052906Y-67819517D01*
X103065979Y-67817770D01*
X103079152Y-67815837D01*
X103092426Y-67813717D01*
X103105799Y-67811412D01*
X103111177Y-67810437D01*
X103124442Y-67807871D01*
X103137492Y-67805119D01*
X103150328Y-67802181D01*
X103162949Y-67799057D01*
X103175355Y-67795747D01*
X103187547Y-67792251D01*
X103192363Y-67790800D01*
X103203905Y-67787072D01*
X103216792Y-67782428D01*
X103228628Y-67777599D01*
X103239413Y-67772585D01*
X103250667Y-67766500D01*
X103253619Y-67764715D01*
G37*
G36*
X102277332Y-67826557D02*
G01*
X102291129Y-67825589D01*
X102304164Y-67822683D01*
X102316436Y-67817840D01*
X102327945Y-67811060D01*
X102338692Y-67802343D01*
X102342105Y-67799007D01*
X102349789Y-67790132D01*
X102357290Y-67778784D01*
X102362916Y-67766674D01*
X102366667Y-67753801D01*
X102368542Y-67740165D01*
X102368776Y-67733061D01*
X102367839Y-67719134D01*
X102365026Y-67705927D01*
X102360337Y-67693442D01*
X102353774Y-67681679D01*
X102345335Y-67670636D01*
X102342105Y-67667116D01*
X102333414Y-67659010D01*
X102322286Y-67651096D01*
X102310395Y-67645161D01*
X102297742Y-67641205D01*
X102284326Y-67639226D01*
X102277332Y-67638979D01*
X102265521Y-67639666D01*
X102252085Y-67642304D01*
X102239452Y-67646920D01*
X102227623Y-67653514D01*
X102216598Y-67662087D01*
X102211386Y-67667116D01*
X102203534Y-67676067D01*
X102195868Y-67687470D01*
X102190118Y-67699595D01*
X102186285Y-67712440D01*
X102184368Y-67726007D01*
X102184129Y-67733061D01*
X102184794Y-67744795D01*
X102187350Y-67758176D01*
X102191822Y-67770795D01*
X102198210Y-67782652D01*
X102206515Y-67793746D01*
X102211386Y-67799007D01*
X102220183Y-67806944D01*
X102231477Y-67814692D01*
X102243573Y-67820504D01*
X102256474Y-67824378D01*
X102270178Y-67826315D01*
X102277332Y-67826557D01*
G37*
G36*
X101119914Y-67807800D02*
G01*
X101312768Y-67807800D01*
X101769698Y-67267339D01*
X101777187Y-67258293D01*
X101784908Y-67248703D01*
X101792171Y-67239261D01*
X101799286Y-67229031D01*
X101801058Y-67226013D01*
X101804282Y-67226013D01*
X101804282Y-67807800D01*
X101942622Y-67807800D01*
X101942622Y-66626055D01*
X101804282Y-66626055D01*
X101804282Y-67181463D01*
X101801058Y-67181463D01*
X101793838Y-67170917D01*
X101786369Y-67160998D01*
X101777910Y-67150565D01*
X101769698Y-67141017D01*
X101327716Y-66626055D01*
X101155378Y-66626055D01*
X101662426Y-67192894D01*
X101119914Y-67807800D01*
G37*
G36*
X100939663Y-67826557D02*
G01*
X100953460Y-67825589D01*
X100966494Y-67822683D01*
X100978766Y-67817840D01*
X100990276Y-67811060D01*
X101001023Y-67802343D01*
X101004436Y-67799007D01*
X101012120Y-67790132D01*
X101019621Y-67778784D01*
X101025247Y-67766674D01*
X101028998Y-67753801D01*
X101030873Y-67740165D01*
X101031107Y-67733061D01*
X101030170Y-67719134D01*
X101027357Y-67705927D01*
X101022668Y-67693442D01*
X101016105Y-67681679D01*
X101007666Y-67670636D01*
X101004436Y-67667116D01*
X100995745Y-67659010D01*
X100984616Y-67651096D01*
X100972726Y-67645161D01*
X100960072Y-67641205D01*
X100946657Y-67639226D01*
X100939663Y-67638979D01*
X100927852Y-67639666D01*
X100914415Y-67642304D01*
X100901783Y-67646920D01*
X100889954Y-67653514D01*
X100878928Y-67662087D01*
X100873717Y-67667116D01*
X100865865Y-67676067D01*
X100858198Y-67687470D01*
X100852449Y-67699595D01*
X100848616Y-67712440D01*
X100846699Y-67726007D01*
X100846460Y-67733061D01*
X100847125Y-67744795D01*
X100849681Y-67758176D01*
X100854152Y-67770795D01*
X100860541Y-67782652D01*
X100868846Y-67793746D01*
X100873717Y-67799007D01*
X100882514Y-67806944D01*
X100893807Y-67814692D01*
X100905904Y-67820504D01*
X100918805Y-67824378D01*
X100932509Y-67826315D01*
X100939663Y-67826557D01*
G37*
G36*
X100741826Y-67807800D02*
G01*
X100587660Y-67807800D01*
X100469837Y-67482175D01*
X99968651Y-67482175D01*
X99843208Y-67807800D01*
X99689921Y-67807800D01*
X99863320Y-67357611D01*
X100014080Y-67357611D01*
X100423529Y-67357611D01*
X100239760Y-66854666D01*
X100239103Y-66852850D01*
X100235256Y-66841090D01*
X100231574Y-66827846D01*
X100228632Y-66815676D01*
X100225804Y-66802475D01*
X100223091Y-66788244D01*
X100221003Y-66776118D01*
X100217485Y-66776118D01*
X100216918Y-66779460D01*
X100214646Y-66792255D01*
X100212375Y-66804134D01*
X100209535Y-66817695D01*
X100206696Y-66829826D01*
X100203289Y-66842493D01*
X100199314Y-66854666D01*
X100014080Y-67357611D01*
X99863320Y-67357611D01*
X100145092Y-66626055D01*
X100288414Y-66626055D01*
X100741826Y-67807800D01*
G37*
G36*
X99492963Y-67826557D02*
G01*
X99506761Y-67825589D01*
X99519795Y-67822683D01*
X99532067Y-67817840D01*
X99543577Y-67811060D01*
X99554324Y-67802343D01*
X99557737Y-67799007D01*
X99565420Y-67790132D01*
X99572922Y-67778784D01*
X99578548Y-67766674D01*
X99582298Y-67753801D01*
X99584174Y-67740165D01*
X99584408Y-67733061D01*
X99583470Y-67719134D01*
X99580657Y-67705927D01*
X99575969Y-67693442D01*
X99569405Y-67681679D01*
X99560966Y-67670636D01*
X99557737Y-67667116D01*
X99549046Y-67659010D01*
X99537917Y-67651096D01*
X99526026Y-67645161D01*
X99513373Y-67641205D01*
X99499957Y-67639226D01*
X99492963Y-67638979D01*
X99481153Y-67639666D01*
X99467716Y-67642304D01*
X99455083Y-67646920D01*
X99443254Y-67653514D01*
X99432229Y-67662087D01*
X99427018Y-67667116D01*
X99419165Y-67676067D01*
X99411499Y-67687470D01*
X99405750Y-67699595D01*
X99401917Y-67712440D01*
X99400000Y-67726007D01*
X99399760Y-67733061D01*
X99400426Y-67744795D01*
X99402981Y-67758176D01*
X99407453Y-67770795D01*
X99413842Y-67782652D01*
X99422147Y-67793746D01*
X99427018Y-67799007D01*
X99435815Y-67806944D01*
X99447108Y-67814692D01*
X99459205Y-67820504D01*
X99472106Y-67824378D01*
X99485810Y-67826315D01*
X99492963Y-67826557D01*
G37*
G36*
X97953061Y-67807800D02*
G01*
X98090814Y-67807800D01*
X98090814Y-67014987D01*
X98090770Y-67003099D01*
X98090636Y-66990880D01*
X98090412Y-66978332D01*
X98090100Y-66965455D01*
X98089698Y-66952247D01*
X98089207Y-66938710D01*
X98088626Y-66924843D01*
X98087957Y-66910647D01*
X98087197Y-66896120D01*
X98086349Y-66881264D01*
X98085411Y-66866078D01*
X98084384Y-66850563D01*
X98083268Y-66834718D01*
X98082063Y-66818543D01*
X98080768Y-66802038D01*
X98079384Y-66785204D01*
X98082608Y-66785204D01*
X98086306Y-66799807D01*
X98089927Y-66813612D01*
X98093471Y-66826618D01*
X98096937Y-66838826D01*
X98100326Y-66850235D01*
X98104725Y-66864205D01*
X98108986Y-66876755D01*
X98113110Y-66887885D01*
X98118072Y-66899802D01*
X98521952Y-67807800D01*
X98589656Y-67807800D01*
X98992656Y-66906250D01*
X98998082Y-66892862D01*
X99002453Y-66880678D01*
X99006852Y-66867185D01*
X99011278Y-66852381D01*
X99014615Y-66840419D01*
X99017968Y-66827720D01*
X99021337Y-66814285D01*
X99024721Y-66800113D01*
X99028121Y-66785204D01*
X99031345Y-66785204D01*
X99030192Y-66799291D01*
X99029153Y-66814955D01*
X99028228Y-66832195D01*
X99027673Y-66844564D01*
X99027170Y-66857634D01*
X99026716Y-66871405D01*
X99026313Y-66885876D01*
X99025961Y-66901049D01*
X99025658Y-66916921D01*
X99025407Y-66933495D01*
X99025205Y-66950769D01*
X99025054Y-66968743D01*
X99024953Y-66987419D01*
X99024903Y-67006795D01*
X99024896Y-67016746D01*
X99024896Y-67807800D01*
X99158253Y-67807800D01*
X99158253Y-66626055D01*
X98975364Y-66626055D01*
X98612517Y-67449935D01*
X98607394Y-67461617D01*
X98602501Y-67472924D01*
X98597841Y-67483856D01*
X98591283Y-67499549D01*
X98585246Y-67514397D01*
X98579729Y-67528400D01*
X98574732Y-67541558D01*
X98570256Y-67553871D01*
X98566300Y-67565340D01*
X98561835Y-67579316D01*
X98558295Y-67591791D01*
X98553312Y-67591791D01*
X98548934Y-67579821D01*
X98544666Y-67568238D01*
X98540508Y-67557043D01*
X98534477Y-67540974D01*
X98528693Y-67525777D01*
X98523156Y-67511450D01*
X98517867Y-67497994D01*
X98512825Y-67485408D01*
X98508030Y-67473694D01*
X98503482Y-67462850D01*
X98497804Y-67449745D01*
X98496453Y-67446711D01*
X98126278Y-66626055D01*
X97953061Y-66626055D01*
X97953061Y-67807800D01*
G37*
G36*
X97621868Y-67826557D02*
G01*
X97635665Y-67825589D01*
X97648699Y-67822683D01*
X97660972Y-67817840D01*
X97672481Y-67811060D01*
X97683228Y-67802343D01*
X97686641Y-67799007D01*
X97694325Y-67790132D01*
X97701826Y-67778784D01*
X97707452Y-67766674D01*
X97711203Y-67753801D01*
X97713078Y-67740165D01*
X97713312Y-67733061D01*
X97712375Y-67719134D01*
X97709562Y-67705927D01*
X97704873Y-67693442D01*
X97698310Y-67681679D01*
X97689871Y-67670636D01*
X97686641Y-67667116D01*
X97677950Y-67659010D01*
X97666822Y-67651096D01*
X97654931Y-67645161D01*
X97642278Y-67641205D01*
X97628862Y-67639226D01*
X97621868Y-67638979D01*
X97610057Y-67639666D01*
X97596621Y-67642304D01*
X97583988Y-67646920D01*
X97572159Y-67653514D01*
X97561134Y-67662087D01*
X97555922Y-67667116D01*
X97548070Y-67676067D01*
X97540404Y-67687470D01*
X97534654Y-67699595D01*
X97530821Y-67712440D01*
X97528904Y-67726007D01*
X97528665Y-67733061D01*
X97529330Y-67744795D01*
X97531886Y-67758176D01*
X97536358Y-67770795D01*
X97542746Y-67782652D01*
X97551051Y-67793746D01*
X97555922Y-67799007D01*
X97564719Y-67806944D01*
X97576013Y-67814692D01*
X97588109Y-67820504D01*
X97601010Y-67824378D01*
X97614714Y-67826315D01*
X97621868Y-67826557D01*
G37*
G36*
X105432754Y-69823800D02*
G01*
X105119439Y-69823800D01*
X105101382Y-69823637D01*
X105083554Y-69823151D01*
X105065955Y-69822341D01*
X105048585Y-69821207D01*
X105031443Y-69819749D01*
X105014531Y-69817967D01*
X104997848Y-69815861D01*
X104981393Y-69813431D01*
X104965168Y-69810677D01*
X104949172Y-69807599D01*
X104933404Y-69804197D01*
X104917866Y-69800471D01*
X104902556Y-69796421D01*
X104887476Y-69792047D01*
X104872624Y-69787349D01*
X104858002Y-69782327D01*
X104843608Y-69776981D01*
X104829444Y-69771311D01*
X104815508Y-69765317D01*
X104801802Y-69758999D01*
X104788324Y-69752357D01*
X104775075Y-69745391D01*
X104762056Y-69738101D01*
X104749265Y-69730487D01*
X104736703Y-69722548D01*
X104724371Y-69714286D01*
X104712267Y-69705700D01*
X104700392Y-69696790D01*
X104688746Y-69687556D01*
X104677329Y-69677998D01*
X104666141Y-69668116D01*
X104655183Y-69657910D01*
X104644508Y-69647418D01*
X104634172Y-69636717D01*
X104624174Y-69625805D01*
X104614516Y-69614683D01*
X104605197Y-69603352D01*
X104596216Y-69591810D01*
X104587575Y-69580058D01*
X104579272Y-69568096D01*
X104571308Y-69555923D01*
X104563683Y-69543541D01*
X104556397Y-69530949D01*
X104549450Y-69518146D01*
X104542842Y-69505134D01*
X104536572Y-69491911D01*
X104530642Y-69478479D01*
X104525050Y-69464836D01*
X104519797Y-69450983D01*
X104514883Y-69436920D01*
X104510308Y-69422647D01*
X104506072Y-69408164D01*
X104502175Y-69393471D01*
X104498617Y-69378567D01*
X104495397Y-69363454D01*
X104492517Y-69348130D01*
X104489975Y-69332597D01*
X104487772Y-69316853D01*
X104485909Y-69300900D01*
X104484384Y-69284736D01*
X104483197Y-69268362D01*
X104482350Y-69251778D01*
X104481842Y-69234984D01*
X104481707Y-69221497D01*
X104626753Y-69221497D01*
X104626879Y-69235647D01*
X104627259Y-69249596D01*
X104627891Y-69263342D01*
X104628777Y-69276886D01*
X104629915Y-69290229D01*
X104631307Y-69303369D01*
X104632952Y-69316307D01*
X104634849Y-69329043D01*
X104637000Y-69341577D01*
X104639404Y-69353909D01*
X104642060Y-69366039D01*
X104644970Y-69377966D01*
X104648133Y-69389692D01*
X104651549Y-69401215D01*
X104655218Y-69412537D01*
X104659139Y-69423656D01*
X104667742Y-69445289D01*
X104677357Y-69466113D01*
X104687984Y-69486130D01*
X104699623Y-69505337D01*
X104712274Y-69523737D01*
X104725937Y-69541328D01*
X104740612Y-69558111D01*
X104756299Y-69574086D01*
X104772859Y-69589134D01*
X104790224Y-69603212D01*
X104808396Y-69616318D01*
X104827374Y-69628454D01*
X104847157Y-69639619D01*
X104867747Y-69649813D01*
X104889143Y-69659036D01*
X104900143Y-69663284D01*
X104911345Y-69667289D01*
X104922748Y-69671051D01*
X104934352Y-69674570D01*
X104946158Y-69677847D01*
X104958166Y-69680881D01*
X104970375Y-69683672D01*
X104982786Y-69686221D01*
X104995398Y-69688526D01*
X105008211Y-69690589D01*
X105021226Y-69692410D01*
X105034443Y-69693987D01*
X105047861Y-69695322D01*
X105061481Y-69696415D01*
X105075302Y-69697264D01*
X105089324Y-69697871D01*
X105103548Y-69698235D01*
X105117974Y-69698356D01*
X105294415Y-69698356D01*
X105294415Y-68767498D01*
X105109767Y-68767498D01*
X105080051Y-68767941D01*
X105051277Y-68769271D01*
X105023447Y-68771488D01*
X104996561Y-68774592D01*
X104970618Y-68778582D01*
X104945618Y-68783459D01*
X104921561Y-68789223D01*
X104898448Y-68795873D01*
X104876279Y-68803410D01*
X104855053Y-68811834D01*
X104834770Y-68821144D01*
X104815430Y-68831342D01*
X104797034Y-68842426D01*
X104779582Y-68854396D01*
X104763072Y-68867254D01*
X104747506Y-68880998D01*
X104732884Y-68895629D01*
X104719205Y-68911146D01*
X104706469Y-68927550D01*
X104694677Y-68944841D01*
X104683828Y-68963019D01*
X104673922Y-68982083D01*
X104664960Y-69002034D01*
X104656941Y-69022872D01*
X104649866Y-69044597D01*
X104643734Y-69067208D01*
X104638545Y-69090706D01*
X104634300Y-69115091D01*
X104630998Y-69140362D01*
X104628640Y-69166520D01*
X104627224Y-69193565D01*
X104626753Y-69221497D01*
X104481707Y-69221497D01*
X104481672Y-69217980D01*
X104482282Y-69182547D01*
X104484112Y-69148239D01*
X104487162Y-69115056D01*
X104491432Y-69082997D01*
X104496921Y-69052064D01*
X104503630Y-69022255D01*
X104511560Y-68993571D01*
X104520709Y-68966013D01*
X104531078Y-68939578D01*
X104542666Y-68914269D01*
X104555475Y-68890085D01*
X104569504Y-68867025D01*
X104584752Y-68845091D01*
X104601221Y-68824281D01*
X104618909Y-68804596D01*
X104637817Y-68786036D01*
X104657945Y-68768601D01*
X104679293Y-68752290D01*
X104701861Y-68737105D01*
X104725648Y-68723044D01*
X104750656Y-68710109D01*
X104776883Y-68698298D01*
X104804330Y-68687611D01*
X104832998Y-68678050D01*
X104862885Y-68669614D01*
X104893991Y-68662302D01*
X104926318Y-68656116D01*
X104959865Y-68651054D01*
X104994631Y-68647117D01*
X105030618Y-68644305D01*
X105067824Y-68642617D01*
X105106250Y-68642055D01*
X105432754Y-68642055D01*
X105432754Y-69823800D01*
G37*
G36*
X103987446Y-68961258D02*
G01*
X104007299Y-68962216D01*
X104026858Y-68963813D01*
X104046120Y-68966049D01*
X104065088Y-68968924D01*
X104083760Y-68972438D01*
X104102136Y-68976590D01*
X104120218Y-68981381D01*
X104138003Y-68986812D01*
X104155494Y-68992881D01*
X104172689Y-68999589D01*
X104189589Y-69006935D01*
X104206193Y-69014921D01*
X104222502Y-69023545D01*
X104238515Y-69032809D01*
X104254234Y-69042711D01*
X104254234Y-69186033D01*
X104238767Y-69172546D01*
X104223070Y-69159929D01*
X104207141Y-69148183D01*
X104190981Y-69137306D01*
X104174589Y-69127300D01*
X104157967Y-69118164D01*
X104141113Y-69109898D01*
X104124028Y-69102502D01*
X104106711Y-69095976D01*
X104089164Y-69090320D01*
X104071385Y-69085534D01*
X104053374Y-69081619D01*
X104035133Y-69078573D01*
X104016660Y-69076398D01*
X103997956Y-69075093D01*
X103979021Y-69074658D01*
X103968310Y-69074858D01*
X103947908Y-69076461D01*
X103928866Y-69079667D01*
X103911184Y-69084475D01*
X103894863Y-69090887D01*
X103879901Y-69098901D01*
X103866300Y-69108518D01*
X103854059Y-69119738D01*
X103843178Y-69132561D01*
X103833657Y-69146986D01*
X103825496Y-69163015D01*
X103818696Y-69180646D01*
X103813255Y-69199880D01*
X103809175Y-69220717D01*
X103806455Y-69243157D01*
X103805604Y-69254978D01*
X103805094Y-69267199D01*
X103804924Y-69279822D01*
X104057862Y-69315872D01*
X104075011Y-69318523D01*
X104091615Y-69321566D01*
X104107674Y-69325001D01*
X104123190Y-69328828D01*
X104138160Y-69333047D01*
X104152587Y-69337658D01*
X104166469Y-69342662D01*
X104179807Y-69348057D01*
X104192600Y-69353845D01*
X104204849Y-69360025D01*
X104216553Y-69366597D01*
X104227713Y-69373561D01*
X104238329Y-69380917D01*
X104248400Y-69388665D01*
X104257927Y-69396806D01*
X104266910Y-69405338D01*
X104275348Y-69414263D01*
X104283242Y-69423580D01*
X104290591Y-69433289D01*
X104297396Y-69443390D01*
X104303656Y-69453883D01*
X104309373Y-69464768D01*
X104314544Y-69476046D01*
X104319172Y-69487715D01*
X104323255Y-69499777D01*
X104326793Y-69512231D01*
X104329787Y-69525077D01*
X104332237Y-69538315D01*
X104334142Y-69551945D01*
X104335503Y-69565967D01*
X104336320Y-69580382D01*
X104336592Y-69595188D01*
X104336314Y-69609010D01*
X104335479Y-69622487D01*
X104334088Y-69635618D01*
X104332141Y-69648403D01*
X104329637Y-69660842D01*
X104326577Y-69672935D01*
X104322960Y-69684683D01*
X104318787Y-69696085D01*
X104314057Y-69707141D01*
X104308771Y-69717852D01*
X104302929Y-69728216D01*
X104296530Y-69738235D01*
X104289575Y-69747908D01*
X104282064Y-69757236D01*
X104273995Y-69766217D01*
X104265371Y-69774853D01*
X104256219Y-69783052D01*
X104246641Y-69790721D01*
X104236637Y-69797862D01*
X104226207Y-69804474D01*
X104215351Y-69810557D01*
X104204069Y-69816110D01*
X104192361Y-69821135D01*
X104180228Y-69825631D01*
X104167669Y-69829598D01*
X104154683Y-69833036D01*
X104141272Y-69835946D01*
X104127435Y-69838326D01*
X104113172Y-69840177D01*
X104098483Y-69841499D01*
X104083368Y-69842293D01*
X104067827Y-69842557D01*
X104046720Y-69841965D01*
X104026263Y-69840190D01*
X104006457Y-69837230D01*
X103987301Y-69833087D01*
X103968795Y-69827760D01*
X103950939Y-69821249D01*
X103933734Y-69813554D01*
X103917178Y-69804675D01*
X103901274Y-69794613D01*
X103886019Y-69783367D01*
X103871415Y-69770937D01*
X103857461Y-69757323D01*
X103844157Y-69742525D01*
X103831504Y-69726544D01*
X103819501Y-69709378D01*
X103808148Y-69691029D01*
X103804924Y-69691029D01*
X103804924Y-69823800D01*
X103669809Y-69823800D01*
X103669809Y-69387679D01*
X103804924Y-69387679D01*
X103804924Y-69473848D01*
X103805181Y-69487511D01*
X103805950Y-69500877D01*
X103807233Y-69513945D01*
X103809028Y-69526715D01*
X103811336Y-69539187D01*
X103814157Y-69551362D01*
X103817491Y-69563239D01*
X103821338Y-69574818D01*
X103825697Y-69586100D01*
X103830570Y-69597084D01*
X103835955Y-69607771D01*
X103841854Y-69618159D01*
X103848265Y-69628250D01*
X103855190Y-69638044D01*
X103862627Y-69647539D01*
X103870577Y-69656737D01*
X103874696Y-69661173D01*
X103883141Y-69669623D01*
X103896323Y-69681240D01*
X103910124Y-69691591D01*
X103924542Y-69700674D01*
X103939579Y-69708489D01*
X103955235Y-69715037D01*
X103971508Y-69720318D01*
X103988400Y-69724332D01*
X104000004Y-69726303D01*
X104011884Y-69727711D01*
X104024038Y-69728556D01*
X104036467Y-69728838D01*
X104041018Y-69728799D01*
X104054331Y-69728210D01*
X104067135Y-69726916D01*
X104079429Y-69724917D01*
X104091212Y-69722211D01*
X104102485Y-69718800D01*
X104116723Y-69713153D01*
X104130054Y-69706252D01*
X104142479Y-69698095D01*
X104153996Y-69688684D01*
X104164300Y-69678284D01*
X104173230Y-69667160D01*
X104180787Y-69655313D01*
X104186969Y-69642742D01*
X104191778Y-69629448D01*
X104195212Y-69615430D01*
X104197273Y-69600688D01*
X104197960Y-69585223D01*
X104197773Y-69574549D01*
X104196794Y-69559316D01*
X104194974Y-69545015D01*
X104192315Y-69531646D01*
X104188816Y-69519210D01*
X104184477Y-69507706D01*
X104179298Y-69497135D01*
X104171087Y-69484491D01*
X104161383Y-69473505D01*
X104150186Y-69464176D01*
X104147155Y-69462053D01*
X104134126Y-69453968D01*
X104123405Y-69448331D01*
X104111870Y-69443060D01*
X104099520Y-69438154D01*
X104086357Y-69433614D01*
X104072379Y-69429440D01*
X104057588Y-69425632D01*
X104041983Y-69422190D01*
X104025563Y-69419113D01*
X104008330Y-69416402D01*
X103804924Y-69387679D01*
X103669809Y-69387679D01*
X103669809Y-69275425D01*
X103670100Y-69256077D01*
X103670971Y-69237343D01*
X103672424Y-69219223D01*
X103674458Y-69201718D01*
X103677072Y-69184826D01*
X103680268Y-69168549D01*
X103684045Y-69152886D01*
X103688402Y-69137837D01*
X103693341Y-69123403D01*
X103698861Y-69109583D01*
X103704962Y-69096377D01*
X103711643Y-69083785D01*
X103718906Y-69071807D01*
X103726750Y-69060444D01*
X103735175Y-69049695D01*
X103744181Y-69039560D01*
X103753768Y-69030040D01*
X103763936Y-69021133D01*
X103774685Y-69012841D01*
X103786015Y-69005163D01*
X103797927Y-68998099D01*
X103810419Y-68991650D01*
X103823492Y-68985815D01*
X103837146Y-68980594D01*
X103851381Y-68975987D01*
X103866198Y-68971995D01*
X103881595Y-68968616D01*
X103897573Y-68965852D01*
X103914133Y-68963702D01*
X103931273Y-68962167D01*
X103948995Y-68961245D01*
X103967297Y-68960938D01*
X103987446Y-68961258D01*
G37*
G36*
X103027646Y-69814714D02*
G01*
X103040066Y-69821240D01*
X103053438Y-69826895D01*
X103067763Y-69831681D01*
X103079132Y-69834699D01*
X103091036Y-69837228D01*
X103103477Y-69839267D01*
X103116453Y-69840817D01*
X103129965Y-69841878D01*
X103144012Y-69842449D01*
X103153675Y-69842557D01*
X103167326Y-69842316D01*
X103180542Y-69841591D01*
X103193326Y-69840383D01*
X103205676Y-69838692D01*
X103217593Y-69836518D01*
X103229076Y-69833861D01*
X103250743Y-69827097D01*
X103270677Y-69818400D01*
X103288877Y-69807771D01*
X103305344Y-69795209D01*
X103320078Y-69780715D01*
X103333078Y-69764288D01*
X103344345Y-69745929D01*
X103353878Y-69725637D01*
X103361679Y-69703412D01*
X103364929Y-69691575D01*
X103367745Y-69679255D01*
X103370129Y-69666452D01*
X103372079Y-69653165D01*
X103373595Y-69639396D01*
X103374679Y-69625143D01*
X103375329Y-69610407D01*
X103375545Y-69595188D01*
X103375545Y-69095174D01*
X103520626Y-69095174D01*
X103520626Y-68979696D01*
X103375545Y-68979696D01*
X103375545Y-68778636D01*
X103240430Y-68735844D01*
X103240430Y-68979696D01*
X103027646Y-68979696D01*
X103027646Y-69095174D01*
X103240430Y-69095174D01*
X103240430Y-69571155D01*
X103240178Y-69586664D01*
X103239421Y-69601318D01*
X103238158Y-69615117D01*
X103236391Y-69628060D01*
X103234119Y-69640149D01*
X103230304Y-69654936D01*
X103225592Y-69668203D01*
X103219982Y-69679949D01*
X103213475Y-69690176D01*
X103211707Y-69692495D01*
X103201717Y-69702965D01*
X103189880Y-69711660D01*
X103179082Y-69717339D01*
X103167101Y-69721882D01*
X103153940Y-69725289D01*
X103139597Y-69727560D01*
X103124072Y-69728696D01*
X103115866Y-69728838D01*
X103103332Y-69728270D01*
X103091228Y-69726566D01*
X103079555Y-69723727D01*
X103068312Y-69719752D01*
X103057500Y-69714641D01*
X103047118Y-69708395D01*
X103037167Y-69701013D01*
X103027646Y-69692495D01*
X103027646Y-69814714D01*
G37*
G36*
X102539657Y-68961423D02*
G01*
X102559758Y-68962876D01*
X102579435Y-68965297D01*
X102598688Y-68968687D01*
X102617518Y-68973046D01*
X102635925Y-68978373D01*
X102653907Y-68984668D01*
X102671467Y-68991933D01*
X102688602Y-69000166D01*
X102705314Y-69009367D01*
X102721602Y-69019537D01*
X102737467Y-69030676D01*
X102752908Y-69042783D01*
X102767926Y-69055859D01*
X102782520Y-69069903D01*
X102796690Y-69084916D01*
X102810212Y-69100661D01*
X102822862Y-69116973D01*
X102834640Y-69133853D01*
X102845545Y-69151301D01*
X102855577Y-69169317D01*
X102864738Y-69187901D01*
X102873025Y-69207053D01*
X102880441Y-69226772D01*
X102886984Y-69247060D01*
X102892654Y-69267915D01*
X102897453Y-69289338D01*
X102901379Y-69311329D01*
X102904432Y-69333888D01*
X102906613Y-69357015D01*
X102907376Y-69368791D01*
X102907922Y-69380709D01*
X102908249Y-69392770D01*
X102908358Y-69404972D01*
X102908258Y-69417887D01*
X102907958Y-69430620D01*
X102907459Y-69443170D01*
X102906760Y-69455539D01*
X102905860Y-69467726D01*
X102904762Y-69479731D01*
X102903463Y-69491553D01*
X102901965Y-69503194D01*
X102898369Y-69525929D01*
X102893973Y-69547936D01*
X102888779Y-69569215D01*
X102882786Y-69589766D01*
X102875993Y-69609589D01*
X102868401Y-69628683D01*
X102860010Y-69647049D01*
X102850820Y-69664687D01*
X102840831Y-69681597D01*
X102830043Y-69697779D01*
X102818455Y-69713233D01*
X102806069Y-69727959D01*
X102792984Y-69741836D01*
X102779301Y-69754818D01*
X102765021Y-69766904D01*
X102750143Y-69778096D01*
X102734668Y-69788392D01*
X102718595Y-69797792D01*
X102701924Y-69806298D01*
X102684656Y-69813908D01*
X102666790Y-69820622D01*
X102648326Y-69826442D01*
X102629265Y-69831366D01*
X102609606Y-69835395D01*
X102589350Y-69838528D01*
X102568495Y-69840767D01*
X102547044Y-69842110D01*
X102524994Y-69842557D01*
X102502412Y-69842244D01*
X102480389Y-69841303D01*
X102458925Y-69839734D01*
X102438019Y-69837538D01*
X102417672Y-69834715D01*
X102397884Y-69831264D01*
X102378655Y-69827186D01*
X102359984Y-69822481D01*
X102341872Y-69817148D01*
X102324318Y-69811187D01*
X102307323Y-69804600D01*
X102290887Y-69797385D01*
X102275010Y-69789542D01*
X102259692Y-69781072D01*
X102244932Y-69771975D01*
X102230730Y-69762250D01*
X102230730Y-69636221D01*
X102245767Y-69647436D01*
X102260983Y-69657928D01*
X102276377Y-69667696D01*
X102291950Y-69676741D01*
X102307701Y-69685062D01*
X102323631Y-69692659D01*
X102339740Y-69699533D01*
X102356027Y-69705684D01*
X102372493Y-69711110D01*
X102389137Y-69715814D01*
X102405960Y-69719793D01*
X102422962Y-69723049D01*
X102440142Y-69725582D01*
X102457501Y-69727391D01*
X102475038Y-69728476D01*
X102492754Y-69728838D01*
X102508441Y-69728536D01*
X102523703Y-69727629D01*
X102538538Y-69726118D01*
X102552948Y-69724002D01*
X102566931Y-69721282D01*
X102580489Y-69717957D01*
X102593621Y-69714028D01*
X102606327Y-69709494D01*
X102618607Y-69704356D01*
X102630461Y-69698613D01*
X102641890Y-69692266D01*
X102652892Y-69685314D01*
X102663468Y-69677758D01*
X102673619Y-69669597D01*
X102683344Y-69660832D01*
X102692642Y-69651462D01*
X102701421Y-69641537D01*
X102709660Y-69631106D01*
X102717358Y-69620169D01*
X102724516Y-69608725D01*
X102731134Y-69596776D01*
X102737211Y-69584321D01*
X102742747Y-69571360D01*
X102747744Y-69557892D01*
X102752200Y-69543919D01*
X102756115Y-69529440D01*
X102759490Y-69514454D01*
X102762325Y-69498963D01*
X102764619Y-69482965D01*
X102766373Y-69466462D01*
X102767587Y-69449452D01*
X102768260Y-69431936D01*
X102172112Y-69431936D01*
X102172112Y-69361594D01*
X102172467Y-69338359D01*
X102173458Y-69317338D01*
X102310744Y-69317338D01*
X102766502Y-69317338D01*
X102764359Y-69303943D01*
X102761817Y-69290872D01*
X102758873Y-69278124D01*
X102755529Y-69265698D01*
X102751784Y-69253596D01*
X102747638Y-69241816D01*
X102743092Y-69230359D01*
X102738145Y-69219225D01*
X102732797Y-69208414D01*
X102727049Y-69197926D01*
X102720899Y-69187760D01*
X102714350Y-69177918D01*
X102707399Y-69168398D01*
X102700048Y-69159201D01*
X102692296Y-69150327D01*
X102684143Y-69141776D01*
X102671361Y-69129781D01*
X102658074Y-69118966D01*
X102644282Y-69109331D01*
X102629985Y-69100876D01*
X102615183Y-69093600D01*
X102599877Y-69087505D01*
X102584065Y-69082589D01*
X102567749Y-69078853D01*
X102550928Y-69076296D01*
X102533601Y-69074920D01*
X102521770Y-69074658D01*
X102515621Y-69074720D01*
X102503579Y-69075219D01*
X102491879Y-69076218D01*
X102474967Y-69078651D01*
X102458823Y-69082208D01*
X102443447Y-69086888D01*
X102428839Y-69092690D01*
X102414998Y-69099616D01*
X102401925Y-69107666D01*
X102389619Y-69116838D01*
X102378081Y-69127133D01*
X102367311Y-69138552D01*
X102363884Y-69142595D01*
X102354246Y-69155322D01*
X102345570Y-69168946D01*
X102337859Y-69183466D01*
X102331111Y-69198882D01*
X102325326Y-69215195D01*
X102322004Y-69226568D01*
X102319111Y-69238340D01*
X102316646Y-69250510D01*
X102314610Y-69263079D01*
X102313001Y-69276046D01*
X102311821Y-69289411D01*
X102311068Y-69303175D01*
X102310744Y-69317338D01*
X102173458Y-69317338D01*
X102173532Y-69315767D01*
X102175306Y-69293818D01*
X102177791Y-69272513D01*
X102180985Y-69251851D01*
X102184889Y-69231833D01*
X102189503Y-69212458D01*
X102194827Y-69193726D01*
X102200860Y-69175638D01*
X102207604Y-69158193D01*
X102215057Y-69141392D01*
X102223220Y-69125234D01*
X102232093Y-69109720D01*
X102241676Y-69094849D01*
X102251968Y-69080622D01*
X102262970Y-69067037D01*
X102274584Y-69054190D01*
X102286784Y-69042170D01*
X102299570Y-69030980D01*
X102312943Y-69020619D01*
X102326901Y-69011087D01*
X102341446Y-69002383D01*
X102356577Y-68994509D01*
X102372294Y-68987463D01*
X102388597Y-68981246D01*
X102405486Y-68975859D01*
X102422962Y-68971300D01*
X102441024Y-68967570D01*
X102459671Y-68964668D01*
X102478906Y-68962596D01*
X102498726Y-68961353D01*
X102519132Y-68960938D01*
X102539657Y-68961423D01*
G37*
G36*
X101925622Y-69148517D02*
G01*
X101939419Y-69147538D01*
X101952454Y-69144601D01*
X101964726Y-69139707D01*
X101976235Y-69132855D01*
X101986983Y-69124045D01*
X101990395Y-69120673D01*
X101998079Y-69111700D01*
X102005580Y-69100215D01*
X102011206Y-69087946D01*
X102014957Y-69074894D01*
X102016832Y-69061059D01*
X102017067Y-69053848D01*
X102016416Y-69042045D01*
X102013915Y-69028636D01*
X102009539Y-69016051D01*
X102003288Y-69004291D01*
X101995162Y-68993355D01*
X101990395Y-68988196D01*
X101979903Y-68978933D01*
X101968647Y-68971586D01*
X101956629Y-68966156D01*
X101943849Y-68962642D01*
X101930306Y-68961045D01*
X101925622Y-68960938D01*
X101913811Y-68961604D01*
X101900375Y-68964159D01*
X101887742Y-68968631D01*
X101875913Y-68975020D01*
X101864888Y-68983325D01*
X101859677Y-68988196D01*
X101851824Y-68996908D01*
X101844158Y-69008119D01*
X101838408Y-69020154D01*
X101834575Y-69033014D01*
X101832659Y-69046697D01*
X101832419Y-69053848D01*
X101833085Y-69065758D01*
X101835640Y-69079332D01*
X101840112Y-69092123D01*
X101846500Y-69104130D01*
X101854805Y-69115355D01*
X101859677Y-69120673D01*
X101868474Y-69128695D01*
X101879767Y-69136526D01*
X101891864Y-69142399D01*
X101904764Y-69146314D01*
X101918469Y-69148272D01*
X101925622Y-69148517D01*
G37*
G36*
X101925622Y-69842557D02*
G01*
X101939419Y-69841589D01*
X101952454Y-69838683D01*
X101964726Y-69833840D01*
X101976235Y-69827060D01*
X101986983Y-69818343D01*
X101990395Y-69815007D01*
X101998079Y-69806132D01*
X102005580Y-69794784D01*
X102011206Y-69782674D01*
X102014957Y-69769801D01*
X102016832Y-69756165D01*
X102017067Y-69749061D01*
X102016129Y-69735134D01*
X102013316Y-69721927D01*
X102008628Y-69709442D01*
X102002064Y-69697679D01*
X101993625Y-69686636D01*
X101990395Y-69683116D01*
X101981704Y-69675010D01*
X101970576Y-69667096D01*
X101958685Y-69661161D01*
X101946032Y-69657205D01*
X101932616Y-69655226D01*
X101925622Y-69654979D01*
X101913811Y-69655666D01*
X101900375Y-69658304D01*
X101887742Y-69662920D01*
X101875913Y-69669514D01*
X101864888Y-69678087D01*
X101859677Y-69683116D01*
X101851824Y-69692067D01*
X101844158Y-69703470D01*
X101838408Y-69715595D01*
X101834575Y-69728440D01*
X101832659Y-69742007D01*
X101832419Y-69749061D01*
X101833085Y-69760795D01*
X101835640Y-69774176D01*
X101840112Y-69786795D01*
X101846500Y-69798652D01*
X101854805Y-69809746D01*
X101859677Y-69815007D01*
X101868474Y-69822944D01*
X101879767Y-69830692D01*
X101891864Y-69836504D01*
X101904764Y-69840378D01*
X101918469Y-69842315D01*
X101925622Y-69842557D01*
G37*
G36*
X100650088Y-68952732D02*
G01*
X100650354Y-68939392D01*
X100651151Y-68926482D01*
X100652479Y-68914003D01*
X100654338Y-68901954D01*
X100656729Y-68890335D01*
X100660464Y-68876418D01*
X100665029Y-68863173D01*
X100667088Y-68858063D01*
X100672616Y-68845760D01*
X100678760Y-68834129D01*
X100685519Y-68823171D01*
X100692893Y-68812886D01*
X100700883Y-68803273D01*
X100709489Y-68794333D01*
X100713103Y-68790945D01*
X100722513Y-68782940D01*
X100732423Y-68775592D01*
X100742834Y-68768903D01*
X100753747Y-68762873D01*
X100765160Y-68757500D01*
X100777074Y-68752786D01*
X100781980Y-68751085D01*
X100794502Y-68747285D01*
X100807339Y-68744130D01*
X100820491Y-68741618D01*
X100833957Y-68739751D01*
X100847739Y-68738527D01*
X100861836Y-68737947D01*
X100867562Y-68737896D01*
X100879891Y-68738168D01*
X100892149Y-68738983D01*
X100904335Y-68740343D01*
X100916449Y-68742246D01*
X100928492Y-68744694D01*
X100940463Y-68747685D01*
X100945231Y-68749033D01*
X100957004Y-68752637D01*
X100968690Y-68756670D01*
X100980291Y-68761132D01*
X100991806Y-68766023D01*
X101003234Y-68771344D01*
X101014577Y-68777094D01*
X101019090Y-68779515D01*
X101030207Y-68785746D01*
X101041210Y-68792349D01*
X101052098Y-68799324D01*
X101062871Y-68806672D01*
X101073530Y-68814391D01*
X101084074Y-68822482D01*
X101088260Y-68825823D01*
X101098587Y-68834400D01*
X101108685Y-68843277D01*
X101118554Y-68852455D01*
X101128194Y-68861933D01*
X101137605Y-68871712D01*
X101146787Y-68881791D01*
X101150395Y-68885907D01*
X101150395Y-68738775D01*
X101139616Y-68728511D01*
X101128599Y-68718710D01*
X101117345Y-68709373D01*
X101105855Y-68700499D01*
X101094127Y-68692089D01*
X101082162Y-68684143D01*
X101069961Y-68676661D01*
X101057522Y-68669642D01*
X101044846Y-68663087D01*
X101031934Y-68656996D01*
X101023194Y-68653192D01*
X101009679Y-68647850D01*
X100995624Y-68643033D01*
X100981027Y-68638741D01*
X100965890Y-68634975D01*
X100950211Y-68631734D01*
X100933992Y-68629019D01*
X100917232Y-68626830D01*
X100899931Y-68625166D01*
X100888096Y-68624348D01*
X100876021Y-68623764D01*
X100863705Y-68623414D01*
X100851149Y-68623297D01*
X100837618Y-68623483D01*
X100824283Y-68624039D01*
X100811144Y-68624966D01*
X100798200Y-68626265D01*
X100785453Y-68627934D01*
X100772901Y-68629974D01*
X100760544Y-68632385D01*
X100748384Y-68635167D01*
X100736419Y-68638320D01*
X100724650Y-68641844D01*
X100716913Y-68644400D01*
X100705462Y-68648474D01*
X100694299Y-68652894D01*
X100683425Y-68657658D01*
X100672840Y-68662768D01*
X100659174Y-68670118D01*
X100646022Y-68678082D01*
X100633382Y-68686660D01*
X100621256Y-68695851D01*
X100609642Y-68705656D01*
X100598591Y-68716060D01*
X100588155Y-68727051D01*
X100578331Y-68738629D01*
X100569122Y-68750792D01*
X100560526Y-68763541D01*
X100552544Y-68776877D01*
X100546960Y-68787263D01*
X100541721Y-68797980D01*
X100538421Y-68805307D01*
X100533759Y-68816560D01*
X100529556Y-68828116D01*
X100525811Y-68839977D01*
X100522525Y-68852142D01*
X100519697Y-68864611D01*
X100517328Y-68877383D01*
X100515418Y-68890460D01*
X100513966Y-68903840D01*
X100512972Y-68917525D01*
X100512437Y-68931514D01*
X100512335Y-68941008D01*
X100512477Y-68954026D01*
X100512902Y-68966813D01*
X100513611Y-68979367D01*
X100514602Y-68991690D01*
X100515877Y-69003781D01*
X100517436Y-69015640D01*
X100519278Y-69027267D01*
X100522174Y-69042409D01*
X100525575Y-69057140D01*
X100528455Y-69067917D01*
X100532742Y-69082031D01*
X100537541Y-69095944D01*
X100542854Y-69109655D01*
X100548679Y-69123164D01*
X100555017Y-69136473D01*
X100561868Y-69149579D01*
X100569232Y-69162485D01*
X100577109Y-69175188D01*
X100585508Y-69187654D01*
X100594438Y-69199991D01*
X100603899Y-69212200D01*
X100611344Y-69221273D01*
X100619087Y-69230273D01*
X100627129Y-69239202D01*
X100635470Y-69248058D01*
X100644110Y-69256842D01*
X100653049Y-69265554D01*
X100659174Y-69271322D01*
X100668561Y-69279966D01*
X100678257Y-69288640D01*
X100688262Y-69297345D01*
X100698577Y-69306081D01*
X100709200Y-69314848D01*
X100720133Y-69323646D01*
X100731374Y-69332475D01*
X100742925Y-69341334D01*
X100754785Y-69350225D01*
X100766954Y-69359147D01*
X100775238Y-69365111D01*
X100785529Y-69372446D01*
X100795590Y-69379647D01*
X100805422Y-69386715D01*
X100815026Y-69393651D01*
X100829001Y-69403806D01*
X100842462Y-69413662D01*
X100855407Y-69423219D01*
X100867837Y-69432477D01*
X100879752Y-69441436D01*
X100891152Y-69450096D01*
X100902036Y-69458458D01*
X100912405Y-69466521D01*
X100922324Y-69474333D01*
X100931856Y-69482053D01*
X100941001Y-69489679D01*
X100952595Y-69499704D01*
X100963501Y-69509564D01*
X100973720Y-69519259D01*
X100983252Y-69528789D01*
X100992098Y-69538154D01*
X100998281Y-69545070D01*
X101005901Y-69554229D01*
X101014603Y-69565678D01*
X101022388Y-69577126D01*
X101029257Y-69588575D01*
X101035211Y-69600024D01*
X101040248Y-69611473D01*
X101042831Y-69618342D01*
X101046462Y-69630063D01*
X101049477Y-69642328D01*
X101051877Y-69655136D01*
X101053662Y-69668489D01*
X101054831Y-69682385D01*
X101055385Y-69696825D01*
X101055434Y-69702753D01*
X100466906Y-69702753D01*
X100466906Y-69823800D01*
X101196411Y-69823800D01*
X101196411Y-69765474D01*
X101196267Y-69751403D01*
X101195834Y-69737657D01*
X101195113Y-69724235D01*
X101194103Y-69711138D01*
X101192804Y-69698365D01*
X101191218Y-69685917D01*
X101189342Y-69673794D01*
X101187178Y-69661995D01*
X101184726Y-69650520D01*
X101181007Y-69635726D01*
X101179998Y-69632118D01*
X101175560Y-69617775D01*
X101170454Y-69603615D01*
X101164679Y-69589638D01*
X101158236Y-69575844D01*
X101151124Y-69562234D01*
X101143343Y-69548806D01*
X101137069Y-69538856D01*
X101130418Y-69529009D01*
X101125776Y-69522502D01*
X101118428Y-69512775D01*
X101110674Y-69503048D01*
X101102512Y-69493321D01*
X101093943Y-69483594D01*
X101084968Y-69473867D01*
X101075585Y-69464140D01*
X101065795Y-69454413D01*
X101055599Y-69444686D01*
X101044995Y-69434959D01*
X101033984Y-69425232D01*
X101026418Y-69418747D01*
X101014635Y-69408904D01*
X101002368Y-69398830D01*
X100989617Y-69388523D01*
X100976382Y-69377985D01*
X100962662Y-69367214D01*
X100953246Y-69359905D01*
X100943615Y-69352493D01*
X100933769Y-69344978D01*
X100923708Y-69337360D01*
X100913432Y-69329639D01*
X100902940Y-69321815D01*
X100892233Y-69313888D01*
X100881311Y-69305857D01*
X100875769Y-69301804D01*
X100863919Y-69293212D01*
X100852441Y-69284692D01*
X100841333Y-69276245D01*
X100830596Y-69267869D01*
X100820230Y-69259566D01*
X100810235Y-69251335D01*
X100800611Y-69243176D01*
X100791358Y-69235089D01*
X100782476Y-69227074D01*
X100771211Y-69216500D01*
X100768497Y-69213876D01*
X100757919Y-69203330D01*
X100747871Y-69192792D01*
X100738355Y-69182264D01*
X100729370Y-69171744D01*
X100720916Y-69161234D01*
X100712993Y-69150733D01*
X100705602Y-69140242D01*
X100698742Y-69129759D01*
X100692385Y-69119263D01*
X100686505Y-69108730D01*
X100681101Y-69098160D01*
X100675016Y-69084897D01*
X100669675Y-69071576D01*
X100665078Y-69058198D01*
X100661226Y-69044763D01*
X100658017Y-69031078D01*
X100655353Y-69017136D01*
X100653232Y-69002937D01*
X100651655Y-68988480D01*
X100650784Y-68976729D01*
X100650262Y-68964813D01*
X100650088Y-68952732D01*
G37*
G36*
X99548651Y-68720310D02*
G01*
X99555639Y-68732396D01*
X99562976Y-68745205D01*
X99570660Y-68758737D01*
X99576652Y-68769362D01*
X99582840Y-68780393D01*
X99589223Y-68791831D01*
X99595802Y-68803677D01*
X99602577Y-68815929D01*
X99609547Y-68828588D01*
X99614303Y-68837254D01*
X99621491Y-68850540D01*
X99628767Y-68864130D01*
X99636130Y-68878024D01*
X99643580Y-68892222D01*
X99651119Y-68906724D01*
X99658744Y-68921530D01*
X99666458Y-68936640D01*
X99674259Y-68952054D01*
X99682147Y-68967772D01*
X99687455Y-68978419D01*
X99692802Y-68989202D01*
X99695490Y-68994644D01*
X99700845Y-69005613D01*
X99706215Y-69016685D01*
X99711598Y-69027861D01*
X99716995Y-69039139D01*
X99722406Y-69050520D01*
X99727830Y-69062005D01*
X99733269Y-69073592D01*
X99738721Y-69085282D01*
X99744186Y-69097076D01*
X99749666Y-69108972D01*
X99755159Y-69120972D01*
X99760666Y-69133075D01*
X99766187Y-69145280D01*
X99771721Y-69157589D01*
X99777269Y-69170001D01*
X99782831Y-69182515D01*
X99788377Y-69195108D01*
X99793877Y-69207753D01*
X99799331Y-69220451D01*
X99804739Y-69233202D01*
X99810102Y-69246005D01*
X99815419Y-69258861D01*
X99820690Y-69271770D01*
X99825915Y-69284731D01*
X99831095Y-69297745D01*
X99836228Y-69310812D01*
X99841316Y-69323931D01*
X99846358Y-69337103D01*
X99851355Y-69350327D01*
X99856305Y-69363605D01*
X99861210Y-69376935D01*
X99866069Y-69390317D01*
X99870868Y-69403737D01*
X99875594Y-69417176D01*
X99880247Y-69430637D01*
X99884827Y-69444118D01*
X99889333Y-69457620D01*
X99893766Y-69471142D01*
X99898126Y-69484685D01*
X99902412Y-69498248D01*
X99906625Y-69511832D01*
X99910765Y-69525437D01*
X99914832Y-69539062D01*
X99918825Y-69552708D01*
X99922745Y-69566375D01*
X99926592Y-69580062D01*
X99930366Y-69593770D01*
X99934066Y-69607498D01*
X99937667Y-69621223D01*
X99941141Y-69634920D01*
X99944490Y-69648590D01*
X99947713Y-69662233D01*
X99950810Y-69675848D01*
X99953781Y-69689435D01*
X99956626Y-69702995D01*
X99959345Y-69716528D01*
X99961938Y-69730033D01*
X99964406Y-69743511D01*
X99966747Y-69756961D01*
X99968962Y-69770384D01*
X99971052Y-69783779D01*
X99973015Y-69797146D01*
X99974853Y-69810487D01*
X99976564Y-69823800D01*
X100121645Y-69823800D01*
X100119714Y-69810593D01*
X100117660Y-69797353D01*
X100115483Y-69784078D01*
X100113182Y-69770768D01*
X100110757Y-69757425D01*
X100108208Y-69744047D01*
X100105536Y-69730634D01*
X100102740Y-69717187D01*
X100099821Y-69703706D01*
X100096778Y-69690191D01*
X100093611Y-69676641D01*
X100090320Y-69663057D01*
X100086906Y-69649439D01*
X100083369Y-69635786D01*
X100079707Y-69622099D01*
X100075922Y-69608377D01*
X100072008Y-69594619D01*
X100068032Y-69580895D01*
X100063994Y-69567206D01*
X100059894Y-69553551D01*
X100055732Y-69539930D01*
X100051509Y-69526344D01*
X100047223Y-69512792D01*
X100042876Y-69499274D01*
X100038467Y-69485791D01*
X100033997Y-69472342D01*
X100029464Y-69458927D01*
X100024869Y-69445547D01*
X100020213Y-69432201D01*
X100015495Y-69418889D01*
X100010715Y-69405612D01*
X100005873Y-69392369D01*
X100000947Y-69379173D01*
X99995986Y-69366037D01*
X99990991Y-69352960D01*
X99985962Y-69339942D01*
X99980898Y-69326984D01*
X99975800Y-69314086D01*
X99970667Y-69301247D01*
X99965500Y-69288468D01*
X99960299Y-69275748D01*
X99955063Y-69263088D01*
X99949793Y-69250488D01*
X99944489Y-69237946D01*
X99939151Y-69225465D01*
X99933778Y-69213043D01*
X99928370Y-69200680D01*
X99922929Y-69188377D01*
X99917480Y-69176166D01*
X99912052Y-69164078D01*
X99906645Y-69152114D01*
X99901258Y-69140274D01*
X99895892Y-69128557D01*
X99890547Y-69116964D01*
X99885222Y-69105494D01*
X99879917Y-69094148D01*
X99874634Y-69082926D01*
X99869371Y-69071828D01*
X99864128Y-69060853D01*
X99858906Y-69050002D01*
X99853705Y-69039274D01*
X99848525Y-69028670D01*
X99840792Y-69012996D01*
X99838225Y-69007833D01*
X99830538Y-68992561D01*
X99822975Y-68977629D01*
X99815536Y-68963036D01*
X99808220Y-68948784D01*
X99801028Y-68934872D01*
X99793959Y-68921300D01*
X99787014Y-68908068D01*
X99780193Y-68895176D01*
X99773495Y-68882624D01*
X99766922Y-68870412D01*
X99762608Y-68862460D01*
X99756299Y-68850887D01*
X99750232Y-68839798D01*
X99744408Y-68829193D01*
X99737019Y-68815807D01*
X99730060Y-68803282D01*
X99723532Y-68791618D01*
X99717435Y-68780815D01*
X99710418Y-68768522D01*
X99707800Y-68763981D01*
X100300430Y-68763981D01*
X100300430Y-68642055D01*
X99548651Y-68642055D01*
X99548651Y-68720310D01*
G37*
G36*
X98805957Y-68642055D02*
G01*
X99373382Y-70011378D01*
X99499412Y-70011378D01*
X98933745Y-68642055D01*
X98805957Y-68642055D01*
G37*
G36*
X98358861Y-68623337D02*
G01*
X98370780Y-68623655D01*
X98382526Y-68624292D01*
X98399824Y-68625843D01*
X98416736Y-68628111D01*
X98433261Y-68631095D01*
X98449399Y-68634795D01*
X98465151Y-68639211D01*
X98480517Y-68644343D01*
X98495497Y-68650192D01*
X98510090Y-68656756D01*
X98524296Y-68664037D01*
X98538044Y-68672023D01*
X98551368Y-68680705D01*
X98564271Y-68690083D01*
X98576751Y-68700156D01*
X98588808Y-68710924D01*
X98600443Y-68722388D01*
X98611655Y-68734548D01*
X98622445Y-68747403D01*
X98632813Y-68760954D01*
X98642758Y-68775200D01*
X98649153Y-68785084D01*
X98655324Y-68795235D01*
X98661307Y-68805687D01*
X98667103Y-68816439D01*
X98672711Y-68827490D01*
X98678130Y-68838842D01*
X98683363Y-68850493D01*
X98688407Y-68862445D01*
X98693264Y-68874696D01*
X98697932Y-68887248D01*
X98702414Y-68900099D01*
X98706707Y-68913250D01*
X98710812Y-68926702D01*
X98714730Y-68940453D01*
X98718460Y-68954504D01*
X98722003Y-68968855D01*
X98725357Y-68983506D01*
X98728480Y-68998448D01*
X98731402Y-69013672D01*
X98734122Y-69029177D01*
X98736641Y-69044964D01*
X98738958Y-69061033D01*
X98741074Y-69077383D01*
X98742988Y-69094014D01*
X98744701Y-69110928D01*
X98746212Y-69128123D01*
X98747522Y-69145600D01*
X98748630Y-69163358D01*
X98749537Y-69181398D01*
X98750242Y-69199720D01*
X98750746Y-69218323D01*
X98751048Y-69237208D01*
X98751149Y-69256375D01*
X98751053Y-69273836D01*
X98750764Y-69291051D01*
X98750284Y-69308018D01*
X98749610Y-69324738D01*
X98748745Y-69341211D01*
X98747687Y-69357436D01*
X98746437Y-69373414D01*
X98744994Y-69389145D01*
X98743359Y-69404628D01*
X98741532Y-69419865D01*
X98739512Y-69434853D01*
X98737301Y-69449595D01*
X98734896Y-69464089D01*
X98732300Y-69478336D01*
X98729511Y-69492336D01*
X98726529Y-69506088D01*
X98724950Y-69512852D01*
X98721657Y-69526180D01*
X98718186Y-69539246D01*
X98714536Y-69552048D01*
X98710708Y-69564587D01*
X98706701Y-69576862D01*
X98702515Y-69588874D01*
X98698151Y-69600623D01*
X98693608Y-69612109D01*
X98688886Y-69623331D01*
X98683986Y-69634290D01*
X98678907Y-69644985D01*
X98670954Y-69660535D01*
X98662599Y-69675492D01*
X98653843Y-69689857D01*
X98647786Y-69699059D01*
X98638384Y-69712339D01*
X98628600Y-69724991D01*
X98618435Y-69737014D01*
X98607889Y-69748409D01*
X98596962Y-69759175D01*
X98585653Y-69769312D01*
X98573963Y-69778821D01*
X98561892Y-69787701D01*
X98549440Y-69795953D01*
X98536606Y-69803576D01*
X98527811Y-69808297D01*
X98514335Y-69814806D01*
X98500519Y-69820630D01*
X98486363Y-69825770D01*
X98471867Y-69830223D01*
X98457031Y-69833992D01*
X98441855Y-69837076D01*
X98426339Y-69839474D01*
X98410483Y-69841187D01*
X98394287Y-69842215D01*
X98377751Y-69842557D01*
X98366071Y-69842398D01*
X98348851Y-69841563D01*
X98331992Y-69840011D01*
X98315493Y-69837743D01*
X98299356Y-69834760D01*
X98283578Y-69831060D01*
X98268162Y-69826643D01*
X98253106Y-69821511D01*
X98238411Y-69815663D01*
X98224076Y-69809098D01*
X98210102Y-69801818D01*
X98200960Y-69796579D01*
X98187587Y-69788171D01*
X98174620Y-69779103D01*
X98162060Y-69769376D01*
X98149908Y-69758990D01*
X98138162Y-69747944D01*
X98126823Y-69736238D01*
X98115892Y-69723874D01*
X98105367Y-69710849D01*
X98095249Y-69697166D01*
X98085539Y-69682823D01*
X98079294Y-69672864D01*
X98073238Y-69662627D01*
X98067369Y-69652110D01*
X98061688Y-69641313D01*
X98056195Y-69630238D01*
X98050890Y-69618883D01*
X98045772Y-69607248D01*
X98040842Y-69595335D01*
X98036100Y-69583142D01*
X98031546Y-69570669D01*
X98027179Y-69557917D01*
X98023000Y-69544886D01*
X98019009Y-69531576D01*
X98015206Y-69517986D01*
X98011590Y-69504117D01*
X98008162Y-69489968D01*
X98004897Y-69475549D01*
X98001843Y-69460865D01*
X97998999Y-69445919D01*
X97996365Y-69430709D01*
X97993943Y-69415236D01*
X97991731Y-69399499D01*
X97989730Y-69383499D01*
X97987939Y-69367236D01*
X97986359Y-69350710D01*
X97984990Y-69333920D01*
X97983831Y-69316867D01*
X97982883Y-69299551D01*
X97982146Y-69281971D01*
X97981619Y-69264128D01*
X97981303Y-69246021D01*
X97981273Y-69240841D01*
X98119830Y-69240841D01*
X98120069Y-69270756D01*
X98120786Y-69299721D01*
X98121981Y-69327737D01*
X98123654Y-69354803D01*
X98125805Y-69380919D01*
X98128434Y-69406086D01*
X98131541Y-69430303D01*
X98135126Y-69453570D01*
X98139189Y-69475888D01*
X98143730Y-69497256D01*
X98148749Y-69517674D01*
X98154246Y-69537142D01*
X98160220Y-69555661D01*
X98166673Y-69573230D01*
X98173604Y-69589850D01*
X98181013Y-69605520D01*
X98188900Y-69620240D01*
X98197265Y-69634010D01*
X98206108Y-69646831D01*
X98215428Y-69658702D01*
X98225227Y-69669623D01*
X98235504Y-69679595D01*
X98246259Y-69688617D01*
X98257492Y-69696689D01*
X98269202Y-69703812D01*
X98281391Y-69709985D01*
X98294058Y-69715208D01*
X98307203Y-69719482D01*
X98320825Y-69722806D01*
X98334926Y-69725180D01*
X98349505Y-69726604D01*
X98364562Y-69727079D01*
X98379835Y-69726613D01*
X98394623Y-69725214D01*
X98408926Y-69722883D01*
X98422745Y-69719619D01*
X98436078Y-69715423D01*
X98448927Y-69710294D01*
X98461291Y-69704233D01*
X98473170Y-69697239D01*
X98484564Y-69689313D01*
X98495474Y-69680454D01*
X98505898Y-69670662D01*
X98515838Y-69659939D01*
X98525293Y-69648282D01*
X98534263Y-69635693D01*
X98542748Y-69622172D01*
X98550748Y-69607718D01*
X98558263Y-69592331D01*
X98565294Y-69576012D01*
X98571839Y-69558761D01*
X98577900Y-69540577D01*
X98583476Y-69521461D01*
X98588567Y-69501412D01*
X98593173Y-69480430D01*
X98597294Y-69458516D01*
X98600931Y-69435669D01*
X98604082Y-69411890D01*
X98606749Y-69387179D01*
X98608931Y-69361535D01*
X98610628Y-69334958D01*
X98611840Y-69307449D01*
X98612568Y-69279008D01*
X98612810Y-69249633D01*
X98612563Y-69218150D01*
X98611821Y-69187665D01*
X98610584Y-69158180D01*
X98608853Y-69129695D01*
X98606628Y-69102209D01*
X98603907Y-69075723D01*
X98600692Y-69050236D01*
X98596983Y-69025748D01*
X98592779Y-69002260D01*
X98588080Y-68979772D01*
X98582887Y-68958283D01*
X98577199Y-68937793D01*
X98571017Y-68918303D01*
X98564340Y-68899813D01*
X98557168Y-68882322D01*
X98549502Y-68865830D01*
X98541341Y-68850338D01*
X98532686Y-68835846D01*
X98523536Y-68822352D01*
X98513892Y-68809859D01*
X98503752Y-68798365D01*
X98493119Y-68787870D01*
X98481990Y-68778375D01*
X98470368Y-68769879D01*
X98458250Y-68762383D01*
X98445638Y-68755887D01*
X98432531Y-68750389D01*
X98418930Y-68745892D01*
X98404834Y-68742393D01*
X98390244Y-68739895D01*
X98375159Y-68738396D01*
X98359579Y-68737896D01*
X98344829Y-68738387D01*
X98330547Y-68739860D01*
X98316733Y-68742316D01*
X98303388Y-68745754D01*
X98290511Y-68750175D01*
X98278102Y-68755577D01*
X98266161Y-68761962D01*
X98254689Y-68769330D01*
X98243685Y-68777680D01*
X98233149Y-68787012D01*
X98223081Y-68797326D01*
X98213482Y-68808622D01*
X98204351Y-68820901D01*
X98195688Y-68834163D01*
X98187494Y-68848406D01*
X98179767Y-68863632D01*
X98172509Y-68879840D01*
X98165720Y-68897031D01*
X98159398Y-68915204D01*
X98153545Y-68934359D01*
X98148160Y-68954496D01*
X98143243Y-68975616D01*
X98138795Y-68997718D01*
X98134815Y-69020802D01*
X98131303Y-69044869D01*
X98128259Y-69069918D01*
X98125683Y-69095949D01*
X98123576Y-69122963D01*
X98121937Y-69150959D01*
X98120767Y-69179937D01*
X98120064Y-69209898D01*
X98119830Y-69240841D01*
X97981273Y-69240841D01*
X97981198Y-69227652D01*
X97981561Y-69190470D01*
X97982650Y-69154468D01*
X97984464Y-69119647D01*
X97987005Y-69086006D01*
X97990271Y-69053546D01*
X97994263Y-69022265D01*
X97998982Y-68992166D01*
X98004425Y-68963246D01*
X98010595Y-68935508D01*
X98017491Y-68908949D01*
X98025112Y-68883571D01*
X98033460Y-68859373D01*
X98042533Y-68836356D01*
X98052332Y-68814519D01*
X98062857Y-68793862D01*
X98074108Y-68774386D01*
X98086085Y-68756090D01*
X98098787Y-68738974D01*
X98112216Y-68723039D01*
X98126370Y-68708284D01*
X98141250Y-68694710D01*
X98156856Y-68682316D01*
X98173188Y-68671102D01*
X98190245Y-68661069D01*
X98208029Y-68652216D01*
X98226538Y-68644544D01*
X98245774Y-68638052D01*
X98265735Y-68632740D01*
X98286422Y-68628609D01*
X98307835Y-68625658D01*
X98329973Y-68623887D01*
X98352838Y-68623297D01*
X98358861Y-68623337D01*
G37*
G36*
X97320277Y-69823800D02*
G01*
X97455392Y-69823800D01*
X97455392Y-68802083D01*
X97464075Y-68810271D01*
X97473175Y-68817887D01*
X97483678Y-68825923D01*
X97493796Y-68833146D01*
X97501114Y-68838133D01*
X97512692Y-68845707D01*
X97522735Y-68852002D01*
X97533134Y-68858283D01*
X97543892Y-68864550D01*
X97555008Y-68870802D01*
X97566481Y-68877041D01*
X97568818Y-68878287D01*
X97580642Y-68884366D01*
X97592666Y-68890331D01*
X97604891Y-68896181D01*
X97617316Y-68901917D01*
X97629941Y-68907538D01*
X97642767Y-68913045D01*
X97647953Y-68915216D01*
X97660909Y-68920434D01*
X97673765Y-68925280D01*
X97686520Y-68929753D01*
X97699175Y-68933855D01*
X97711730Y-68937584D01*
X97724185Y-68940942D01*
X97729139Y-68942181D01*
X97729139Y-68805600D01*
X97715089Y-68801729D01*
X97703663Y-68798333D01*
X97692072Y-68794672D01*
X97680316Y-68790745D01*
X97668396Y-68786552D01*
X97656310Y-68782094D01*
X97644060Y-68777370D01*
X97634764Y-68773653D01*
X97622330Y-68768528D01*
X97609943Y-68763267D01*
X97597601Y-68757867D01*
X97585305Y-68752331D01*
X97573054Y-68746656D01*
X97560850Y-68740845D01*
X97548691Y-68734896D01*
X97536578Y-68728810D01*
X97524575Y-68722545D01*
X97512746Y-68716207D01*
X97501091Y-68709796D01*
X97489610Y-68703311D01*
X97478303Y-68696753D01*
X97467171Y-68690122D01*
X97456212Y-68683417D01*
X97445427Y-68676640D01*
X97434908Y-68669844D01*
X97424746Y-68663084D01*
X97414941Y-68656361D01*
X97403187Y-68648009D01*
X97391991Y-68639715D01*
X97381354Y-68631477D01*
X97371275Y-68623297D01*
X97320277Y-68623297D01*
X97320277Y-69823800D01*
G37*
G36*
X96341645Y-68642055D02*
G01*
X96909070Y-70011378D01*
X97035099Y-70011378D01*
X96469432Y-68642055D01*
X96341645Y-68642055D01*
G37*
G36*
X95721463Y-68952732D02*
G01*
X95721729Y-68939392D01*
X95722526Y-68926482D01*
X95723854Y-68914003D01*
X95725713Y-68901954D01*
X95728103Y-68890335D01*
X95731839Y-68876418D01*
X95736404Y-68863173D01*
X95738462Y-68858063D01*
X95743991Y-68845760D01*
X95750135Y-68834129D01*
X95756894Y-68823171D01*
X95764268Y-68812886D01*
X95772258Y-68803273D01*
X95780863Y-68794333D01*
X95784478Y-68790945D01*
X95793887Y-68782940D01*
X95803798Y-68775592D01*
X95814209Y-68768903D01*
X95825121Y-68762873D01*
X95836534Y-68757500D01*
X95848448Y-68752786D01*
X95853354Y-68751085D01*
X95865876Y-68747285D01*
X95878714Y-68744130D01*
X95891865Y-68741618D01*
X95905332Y-68739751D01*
X95919114Y-68738527D01*
X95933210Y-68737947D01*
X95938937Y-68737896D01*
X95951266Y-68738168D01*
X95963523Y-68738983D01*
X95975709Y-68740343D01*
X95987824Y-68742246D01*
X95999867Y-68744694D01*
X96011838Y-68747685D01*
X96016606Y-68749033D01*
X96028379Y-68752637D01*
X96040065Y-68756670D01*
X96051666Y-68761132D01*
X96063180Y-68766023D01*
X96074609Y-68771344D01*
X96085952Y-68777094D01*
X96090465Y-68779515D01*
X96101582Y-68785746D01*
X96112584Y-68792349D01*
X96123472Y-68799324D01*
X96134246Y-68806672D01*
X96144905Y-68814391D01*
X96155449Y-68822482D01*
X96159635Y-68825823D01*
X96169962Y-68834400D01*
X96180060Y-68843277D01*
X96189929Y-68852455D01*
X96199569Y-68861933D01*
X96208979Y-68871712D01*
X96218162Y-68881791D01*
X96221770Y-68885907D01*
X96221770Y-68738775D01*
X96210990Y-68728511D01*
X96199974Y-68718710D01*
X96188720Y-68709373D01*
X96177229Y-68700499D01*
X96165502Y-68692089D01*
X96153537Y-68684143D01*
X96141335Y-68676661D01*
X96128897Y-68669642D01*
X96116221Y-68663087D01*
X96103309Y-68656996D01*
X96094569Y-68653192D01*
X96081054Y-68647850D01*
X96066998Y-68643033D01*
X96052402Y-68638741D01*
X96037265Y-68634975D01*
X96021586Y-68631734D01*
X96005367Y-68629019D01*
X95988607Y-68626830D01*
X95971305Y-68625166D01*
X95959471Y-68624348D01*
X95947395Y-68623764D01*
X95935080Y-68623414D01*
X95922524Y-68623297D01*
X95908993Y-68623483D01*
X95895658Y-68624039D01*
X95882519Y-68624966D01*
X95869575Y-68626265D01*
X95856827Y-68627934D01*
X95844275Y-68629974D01*
X95831919Y-68632385D01*
X95819759Y-68635167D01*
X95807794Y-68638320D01*
X95796025Y-68641844D01*
X95788288Y-68644400D01*
X95776837Y-68648474D01*
X95765674Y-68652894D01*
X95754800Y-68657658D01*
X95744214Y-68662768D01*
X95730549Y-68670118D01*
X95717396Y-68678082D01*
X95704757Y-68686660D01*
X95692630Y-68695851D01*
X95681017Y-68705656D01*
X95669966Y-68716060D01*
X95659529Y-68727051D01*
X95649706Y-68738629D01*
X95640497Y-68750792D01*
X95631901Y-68763541D01*
X95623919Y-68776877D01*
X95618335Y-68787263D01*
X95613096Y-68797980D01*
X95609795Y-68805307D01*
X95605134Y-68816560D01*
X95600930Y-68828116D01*
X95597186Y-68839977D01*
X95593900Y-68852142D01*
X95591072Y-68864611D01*
X95588703Y-68877383D01*
X95586793Y-68890460D01*
X95585340Y-68903840D01*
X95584347Y-68917525D01*
X95583812Y-68931514D01*
X95583710Y-68941008D01*
X95583852Y-68954026D01*
X95584277Y-68966813D01*
X95584985Y-68979367D01*
X95585977Y-68991690D01*
X95587252Y-69003781D01*
X95588811Y-69015640D01*
X95590652Y-69027267D01*
X95593549Y-69042409D01*
X95596949Y-69057140D01*
X95599830Y-69067917D01*
X95604117Y-69082031D01*
X95608916Y-69095944D01*
X95614228Y-69109655D01*
X95620054Y-69123164D01*
X95626392Y-69136473D01*
X95633243Y-69149579D01*
X95640607Y-69162485D01*
X95648483Y-69175188D01*
X95656882Y-69187654D01*
X95665812Y-69199991D01*
X95675274Y-69212200D01*
X95682718Y-69221273D01*
X95690462Y-69230273D01*
X95698504Y-69239202D01*
X95706845Y-69248058D01*
X95715485Y-69256842D01*
X95724424Y-69265554D01*
X95730549Y-69271322D01*
X95739936Y-69279966D01*
X95749632Y-69288640D01*
X95759637Y-69297345D01*
X95769951Y-69306081D01*
X95780575Y-69314848D01*
X95791507Y-69323646D01*
X95802749Y-69332475D01*
X95814300Y-69341334D01*
X95826160Y-69350225D01*
X95838329Y-69359147D01*
X95846613Y-69365111D01*
X95856903Y-69372446D01*
X95866965Y-69379647D01*
X95876797Y-69386715D01*
X95886400Y-69393651D01*
X95900376Y-69403806D01*
X95913836Y-69413662D01*
X95926782Y-69423219D01*
X95939212Y-69432477D01*
X95951127Y-69441436D01*
X95962526Y-69450096D01*
X95973411Y-69458458D01*
X95983780Y-69466521D01*
X95993698Y-69474333D01*
X96003230Y-69482053D01*
X96012376Y-69489679D01*
X96023969Y-69499704D01*
X96034875Y-69509564D01*
X96045095Y-69519259D01*
X96054627Y-69528789D01*
X96063472Y-69538154D01*
X96069656Y-69545070D01*
X96077276Y-69554229D01*
X96085977Y-69565678D01*
X96093763Y-69577126D01*
X96100632Y-69588575D01*
X96106585Y-69600024D01*
X96111623Y-69611473D01*
X96114206Y-69618342D01*
X96117836Y-69630063D01*
X96120852Y-69642328D01*
X96123252Y-69655136D01*
X96125036Y-69668489D01*
X96126206Y-69682385D01*
X96126759Y-69696825D01*
X96126809Y-69702753D01*
X95538281Y-69702753D01*
X95538281Y-69823800D01*
X96267786Y-69823800D01*
X96267786Y-69765474D01*
X96267641Y-69751403D01*
X96267209Y-69737657D01*
X96266487Y-69724235D01*
X96265477Y-69711138D01*
X96264179Y-69698365D01*
X96262592Y-69685917D01*
X96260717Y-69673794D01*
X96258553Y-69661995D01*
X96256101Y-69650520D01*
X96252382Y-69635726D01*
X96251372Y-69632118D01*
X96246935Y-69617775D01*
X96241829Y-69603615D01*
X96236054Y-69589638D01*
X96229610Y-69575844D01*
X96222498Y-69562234D01*
X96214718Y-69548806D01*
X96208443Y-69538856D01*
X96201793Y-69529009D01*
X96197151Y-69522502D01*
X96189803Y-69512775D01*
X96182048Y-69503048D01*
X96173887Y-69493321D01*
X96165318Y-69483594D01*
X96156342Y-69473867D01*
X96146960Y-69464140D01*
X96137170Y-69454413D01*
X96126973Y-69444686D01*
X96116370Y-69434959D01*
X96105359Y-69425232D01*
X96097793Y-69418747D01*
X96086010Y-69408904D01*
X96073743Y-69398830D01*
X96060992Y-69388523D01*
X96047756Y-69377985D01*
X96034037Y-69367214D01*
X96024621Y-69359905D01*
X96014990Y-69352493D01*
X96005144Y-69344978D01*
X95995083Y-69337360D01*
X95984806Y-69329639D01*
X95974315Y-69321815D01*
X95963608Y-69313888D01*
X95952685Y-69305857D01*
X95947144Y-69301804D01*
X95935294Y-69293212D01*
X95923815Y-69284692D01*
X95912708Y-69276245D01*
X95901971Y-69267869D01*
X95891605Y-69259566D01*
X95881610Y-69251335D01*
X95871986Y-69243176D01*
X95862733Y-69235089D01*
X95853851Y-69227074D01*
X95842585Y-69216500D01*
X95839872Y-69213876D01*
X95829293Y-69203330D01*
X95819246Y-69192792D01*
X95809729Y-69182264D01*
X95800744Y-69171744D01*
X95792291Y-69161234D01*
X95784368Y-69150733D01*
X95776976Y-69140242D01*
X95770116Y-69129759D01*
X95763760Y-69119263D01*
X95757880Y-69108730D01*
X95752476Y-69098160D01*
X95746391Y-69084897D01*
X95741050Y-69071576D01*
X95736453Y-69058198D01*
X95732601Y-69044763D01*
X95729392Y-69031078D01*
X95726727Y-69017136D01*
X95724606Y-69002937D01*
X95723029Y-68988480D01*
X95722159Y-68976729D01*
X95721637Y-68964813D01*
X95721463Y-68952732D01*
G37*
G36*
X94989482Y-68623337D02*
G01*
X95001401Y-68623655D01*
X95013147Y-68624292D01*
X95030445Y-68625843D01*
X95047357Y-68628111D01*
X95063882Y-68631095D01*
X95080020Y-68634795D01*
X95095773Y-68639211D01*
X95111138Y-68644343D01*
X95126118Y-68650192D01*
X95140711Y-68656756D01*
X95154917Y-68664037D01*
X95168665Y-68672023D01*
X95181989Y-68680705D01*
X95194892Y-68690083D01*
X95207372Y-68700156D01*
X95219429Y-68710924D01*
X95231064Y-68722388D01*
X95242276Y-68734548D01*
X95253066Y-68747403D01*
X95263434Y-68760954D01*
X95273379Y-68775200D01*
X95279774Y-68785084D01*
X95285945Y-68795235D01*
X95291929Y-68805687D01*
X95297724Y-68816439D01*
X95303332Y-68827490D01*
X95308752Y-68838842D01*
X95313984Y-68850493D01*
X95319028Y-68862445D01*
X95323885Y-68874696D01*
X95328553Y-68887248D01*
X95333035Y-68900099D01*
X95337328Y-68913250D01*
X95341433Y-68926702D01*
X95345351Y-68940453D01*
X95349081Y-68954504D01*
X95352624Y-68968855D01*
X95355978Y-68983506D01*
X95359101Y-68998448D01*
X95362023Y-69013672D01*
X95364743Y-69029177D01*
X95367262Y-69044964D01*
X95369579Y-69061033D01*
X95371695Y-69077383D01*
X95373609Y-69094014D01*
X95375322Y-69110928D01*
X95376833Y-69128123D01*
X95378143Y-69145600D01*
X95379251Y-69163358D01*
X95380158Y-69181398D01*
X95380863Y-69199720D01*
X95381367Y-69218323D01*
X95381669Y-69237208D01*
X95381770Y-69256375D01*
X95381674Y-69273836D01*
X95381386Y-69291051D01*
X95380905Y-69308018D01*
X95380231Y-69324738D01*
X95379366Y-69341211D01*
X95378308Y-69357436D01*
X95377058Y-69373414D01*
X95375615Y-69389145D01*
X95373980Y-69404628D01*
X95372153Y-69419865D01*
X95370134Y-69434853D01*
X95367922Y-69449595D01*
X95365517Y-69464089D01*
X95362921Y-69478336D01*
X95360132Y-69492336D01*
X95357151Y-69506088D01*
X95355571Y-69512852D01*
X95352278Y-69526180D01*
X95348807Y-69539246D01*
X95345157Y-69552048D01*
X95341329Y-69564587D01*
X95337322Y-69576862D01*
X95333136Y-69588874D01*
X95328772Y-69600623D01*
X95324229Y-69612109D01*
X95319507Y-69623331D01*
X95314607Y-69634290D01*
X95309528Y-69644985D01*
X95301575Y-69660535D01*
X95293221Y-69675492D01*
X95284464Y-69689857D01*
X95278407Y-69699059D01*
X95269005Y-69712339D01*
X95259221Y-69724991D01*
X95249056Y-69737014D01*
X95238510Y-69748409D01*
X95227583Y-69759175D01*
X95216274Y-69769312D01*
X95204584Y-69778821D01*
X95192513Y-69787701D01*
X95180061Y-69795953D01*
X95167227Y-69803576D01*
X95158432Y-69808297D01*
X95144956Y-69814806D01*
X95131140Y-69820630D01*
X95116984Y-69825770D01*
X95102488Y-69830223D01*
X95087652Y-69833992D01*
X95072476Y-69837076D01*
X95056960Y-69839474D01*
X95041104Y-69841187D01*
X95024908Y-69842215D01*
X95008372Y-69842557D01*
X94996692Y-69842398D01*
X94979472Y-69841563D01*
X94962613Y-69840011D01*
X94946114Y-69837743D01*
X94929977Y-69834760D01*
X94914200Y-69831060D01*
X94898783Y-69826643D01*
X94883727Y-69821511D01*
X94869032Y-69815663D01*
X94854697Y-69809098D01*
X94840723Y-69801818D01*
X94831582Y-69796579D01*
X94818208Y-69788171D01*
X94805241Y-69779103D01*
X94792681Y-69769376D01*
X94780529Y-69758990D01*
X94768783Y-69747944D01*
X94757444Y-69736238D01*
X94746513Y-69723874D01*
X94735988Y-69710849D01*
X94725870Y-69697166D01*
X94716160Y-69682823D01*
X94709915Y-69672864D01*
X94703859Y-69662627D01*
X94697990Y-69652110D01*
X94692309Y-69641313D01*
X94686816Y-69630238D01*
X94681511Y-69618883D01*
X94676393Y-69607248D01*
X94671463Y-69595335D01*
X94666721Y-69583142D01*
X94662167Y-69570669D01*
X94657800Y-69557917D01*
X94653621Y-69544886D01*
X94649630Y-69531576D01*
X94645827Y-69517986D01*
X94642211Y-69504117D01*
X94638783Y-69489968D01*
X94635518Y-69475549D01*
X94632464Y-69460865D01*
X94629620Y-69445919D01*
X94626987Y-69430709D01*
X94624564Y-69415236D01*
X94622352Y-69399499D01*
X94620351Y-69383499D01*
X94618560Y-69367236D01*
X94616980Y-69350710D01*
X94615611Y-69333920D01*
X94614452Y-69316867D01*
X94613504Y-69299551D01*
X94612767Y-69281971D01*
X94612240Y-69264128D01*
X94611924Y-69246021D01*
X94611894Y-69240841D01*
X94750451Y-69240841D01*
X94750690Y-69270756D01*
X94751407Y-69299721D01*
X94752602Y-69327737D01*
X94754275Y-69354803D01*
X94756426Y-69380919D01*
X94759055Y-69406086D01*
X94762162Y-69430303D01*
X94765747Y-69453570D01*
X94769810Y-69475888D01*
X94774351Y-69497256D01*
X94779370Y-69517674D01*
X94784867Y-69537142D01*
X94790842Y-69555661D01*
X94797294Y-69573230D01*
X94804225Y-69589850D01*
X94811634Y-69605520D01*
X94819521Y-69620240D01*
X94827886Y-69634010D01*
X94836729Y-69646831D01*
X94846049Y-69658702D01*
X94855848Y-69669623D01*
X94866125Y-69679595D01*
X94876880Y-69688617D01*
X94888113Y-69696689D01*
X94899823Y-69703812D01*
X94912012Y-69709985D01*
X94924679Y-69715208D01*
X94937824Y-69719482D01*
X94951446Y-69722806D01*
X94965547Y-69725180D01*
X94980126Y-69726604D01*
X94995183Y-69727079D01*
X95010456Y-69726613D01*
X95025244Y-69725214D01*
X95039547Y-69722883D01*
X95053366Y-69719619D01*
X95066699Y-69715423D01*
X95079548Y-69710294D01*
X95091912Y-69704233D01*
X95103791Y-69697239D01*
X95115186Y-69689313D01*
X95126095Y-69680454D01*
X95136519Y-69670662D01*
X95146459Y-69659939D01*
X95155914Y-69648282D01*
X95164884Y-69635693D01*
X95173369Y-69622172D01*
X95181369Y-69607718D01*
X95188884Y-69592331D01*
X95195915Y-69576012D01*
X95202460Y-69558761D01*
X95208521Y-69540577D01*
X95214097Y-69521461D01*
X95219188Y-69501412D01*
X95223794Y-69480430D01*
X95227916Y-69458516D01*
X95231552Y-69435669D01*
X95234704Y-69411890D01*
X95237370Y-69387179D01*
X95239552Y-69361535D01*
X95241249Y-69334958D01*
X95242461Y-69307449D01*
X95243189Y-69279008D01*
X95243431Y-69249633D01*
X95243184Y-69218150D01*
X95242442Y-69187665D01*
X95241205Y-69158180D01*
X95239474Y-69129695D01*
X95237249Y-69102209D01*
X95234528Y-69075723D01*
X95231314Y-69050236D01*
X95227604Y-69025748D01*
X95223400Y-69002260D01*
X95218701Y-68979772D01*
X95213508Y-68958283D01*
X95207820Y-68937793D01*
X95201638Y-68918303D01*
X95194961Y-68899813D01*
X95187789Y-68882322D01*
X95180123Y-68865830D01*
X95171963Y-68850338D01*
X95163307Y-68835846D01*
X95154157Y-68822352D01*
X95144513Y-68809859D01*
X95134374Y-68798365D01*
X95123740Y-68787870D01*
X95112612Y-68778375D01*
X95100989Y-68769879D01*
X95088871Y-68762383D01*
X95076259Y-68755887D01*
X95063152Y-68750389D01*
X95049551Y-68745892D01*
X95035455Y-68742393D01*
X95020865Y-68739895D01*
X95005780Y-68738396D01*
X94990200Y-68737896D01*
X94975450Y-68738387D01*
X94961168Y-68739860D01*
X94947354Y-68742316D01*
X94934009Y-68745754D01*
X94921132Y-68750175D01*
X94908723Y-68755577D01*
X94896782Y-68761962D01*
X94885310Y-68769330D01*
X94874306Y-68777680D01*
X94863770Y-68787012D01*
X94853702Y-68797326D01*
X94844103Y-68808622D01*
X94834972Y-68820901D01*
X94826309Y-68834163D01*
X94818115Y-68848406D01*
X94810388Y-68863632D01*
X94803130Y-68879840D01*
X94796341Y-68897031D01*
X94790019Y-68915204D01*
X94784166Y-68934359D01*
X94778781Y-68954496D01*
X94773864Y-68975616D01*
X94769416Y-68997718D01*
X94765436Y-69020802D01*
X94761924Y-69044869D01*
X94758880Y-69069918D01*
X94756305Y-69095949D01*
X94754197Y-69122963D01*
X94752558Y-69150959D01*
X94751388Y-69179937D01*
X94750685Y-69209898D01*
X94750451Y-69240841D01*
X94611894Y-69240841D01*
X94611819Y-69227652D01*
X94612182Y-69190470D01*
X94613271Y-69154468D01*
X94615085Y-69119647D01*
X94617626Y-69086006D01*
X94620892Y-69053546D01*
X94624885Y-69022265D01*
X94629603Y-68992166D01*
X94635047Y-68963246D01*
X94641216Y-68935508D01*
X94648112Y-68908949D01*
X94655734Y-68883571D01*
X94664081Y-68859373D01*
X94673154Y-68836356D01*
X94682953Y-68814519D01*
X94693478Y-68793862D01*
X94704729Y-68774386D01*
X94716706Y-68756090D01*
X94729408Y-68738974D01*
X94742837Y-68723039D01*
X94756991Y-68708284D01*
X94771871Y-68694710D01*
X94787477Y-68682316D01*
X94803809Y-68671102D01*
X94820866Y-68661069D01*
X94838650Y-68652216D01*
X94857159Y-68644544D01*
X94876395Y-68638052D01*
X94896356Y-68632740D01*
X94917043Y-68628609D01*
X94938456Y-68625658D01*
X94960594Y-68623887D01*
X94983459Y-68623297D01*
X94989482Y-68623337D01*
G37*
G36*
X93911331Y-68952732D02*
G01*
X93911596Y-68939392D01*
X93912393Y-68926482D01*
X93913721Y-68914003D01*
X93915580Y-68901954D01*
X93917971Y-68890335D01*
X93921706Y-68876418D01*
X93926271Y-68863173D01*
X93928330Y-68858063D01*
X93933858Y-68845760D01*
X93940002Y-68834129D01*
X93946761Y-68823171D01*
X93954136Y-68812886D01*
X93962126Y-68803273D01*
X93970731Y-68794333D01*
X93974345Y-68790945D01*
X93983755Y-68782940D01*
X93993665Y-68775592D01*
X94004077Y-68768903D01*
X94014989Y-68762873D01*
X94026402Y-68757500D01*
X94038316Y-68752786D01*
X94043222Y-68751085D01*
X94055744Y-68747285D01*
X94068581Y-68744130D01*
X94081733Y-68741618D01*
X94095200Y-68739751D01*
X94108981Y-68738527D01*
X94123078Y-68737947D01*
X94128804Y-68737896D01*
X94141133Y-68738168D01*
X94153391Y-68738983D01*
X94165577Y-68740343D01*
X94177691Y-68742246D01*
X94189734Y-68744694D01*
X94201705Y-68747685D01*
X94206474Y-68749033D01*
X94218246Y-68752637D01*
X94229932Y-68756670D01*
X94241533Y-68761132D01*
X94253048Y-68766023D01*
X94264477Y-68771344D01*
X94275819Y-68777094D01*
X94280333Y-68779515D01*
X94291450Y-68785746D01*
X94302452Y-68792349D01*
X94313340Y-68799324D01*
X94324113Y-68806672D01*
X94334772Y-68814391D01*
X94345317Y-68822482D01*
X94349502Y-68825823D01*
X94359829Y-68834400D01*
X94369927Y-68843277D01*
X94379796Y-68852455D01*
X94389436Y-68861933D01*
X94398847Y-68871712D01*
X94408029Y-68881791D01*
X94411638Y-68885907D01*
X94411638Y-68738775D01*
X94400858Y-68728511D01*
X94389841Y-68718710D01*
X94378588Y-68709373D01*
X94367097Y-68700499D01*
X94355369Y-68692089D01*
X94343405Y-68684143D01*
X94331203Y-68676661D01*
X94318764Y-68669642D01*
X94306089Y-68663087D01*
X94293176Y-68656996D01*
X94284436Y-68653192D01*
X94270921Y-68647850D01*
X94256866Y-68643033D01*
X94242269Y-68638741D01*
X94227132Y-68634975D01*
X94211454Y-68631734D01*
X94195234Y-68629019D01*
X94178474Y-68626830D01*
X94161173Y-68625166D01*
X94149338Y-68624348D01*
X94137263Y-68623764D01*
X94124947Y-68623414D01*
X94112391Y-68623297D01*
X94098860Y-68623483D01*
X94085525Y-68624039D01*
X94072386Y-68624966D01*
X94059442Y-68626265D01*
X94046695Y-68627934D01*
X94034143Y-68629974D01*
X94021787Y-68632385D01*
X94009626Y-68635167D01*
X93997661Y-68638320D01*
X93985893Y-68641844D01*
X93978155Y-68644400D01*
X93966704Y-68648474D01*
X93955542Y-68652894D01*
X93944667Y-68657658D01*
X93934082Y-68662768D01*
X93920416Y-68670118D01*
X93907264Y-68678082D01*
X93894624Y-68686660D01*
X93882498Y-68695851D01*
X93870884Y-68705656D01*
X93859833Y-68716060D01*
X93849397Y-68727051D01*
X93839574Y-68738629D01*
X93830364Y-68750792D01*
X93821768Y-68763541D01*
X93813786Y-68776877D01*
X93808202Y-68787263D01*
X93802963Y-68797980D01*
X93799663Y-68805307D01*
X93795001Y-68816560D01*
X93790798Y-68828116D01*
X93787053Y-68839977D01*
X93783767Y-68852142D01*
X93780940Y-68864611D01*
X93778570Y-68877383D01*
X93776660Y-68890460D01*
X93775208Y-68903840D01*
X93774214Y-68917525D01*
X93773679Y-68931514D01*
X93773578Y-68941008D01*
X93773719Y-68954026D01*
X93774144Y-68966813D01*
X93774853Y-68979367D01*
X93775844Y-68991690D01*
X93777120Y-69003781D01*
X93778678Y-69015640D01*
X93780520Y-69027267D01*
X93783416Y-69042409D01*
X93786817Y-69057140D01*
X93789698Y-69067917D01*
X93793984Y-69082031D01*
X93798783Y-69095944D01*
X93804096Y-69109655D01*
X93809921Y-69123164D01*
X93816259Y-69136473D01*
X93823110Y-69149579D01*
X93830474Y-69162485D01*
X93838351Y-69175188D01*
X93846750Y-69187654D01*
X93855680Y-69199991D01*
X93865141Y-69212200D01*
X93872586Y-69221273D01*
X93880329Y-69230273D01*
X93888372Y-69239202D01*
X93896713Y-69248058D01*
X93905353Y-69256842D01*
X93914291Y-69265554D01*
X93920416Y-69271322D01*
X93929803Y-69279966D01*
X93939499Y-69288640D01*
X93949505Y-69297345D01*
X93959819Y-69306081D01*
X93970442Y-69314848D01*
X93981375Y-69323646D01*
X93992616Y-69332475D01*
X94004167Y-69341334D01*
X94016027Y-69350225D01*
X94028196Y-69359147D01*
X94036481Y-69365111D01*
X94046771Y-69372446D01*
X94056832Y-69379647D01*
X94066664Y-69386715D01*
X94076268Y-69393651D01*
X94090243Y-69403806D01*
X94103704Y-69413662D01*
X94116649Y-69423219D01*
X94129079Y-69432477D01*
X94140994Y-69441436D01*
X94152394Y-69450096D01*
X94163278Y-69458458D01*
X94173647Y-69466521D01*
X94183566Y-69474333D01*
X94193098Y-69482053D01*
X94202244Y-69489679D01*
X94213837Y-69499704D01*
X94224743Y-69509564D01*
X94234962Y-69519259D01*
X94244494Y-69528789D01*
X94253340Y-69538154D01*
X94259523Y-69545070D01*
X94267144Y-69554229D01*
X94275845Y-69565678D01*
X94283630Y-69577126D01*
X94290499Y-69588575D01*
X94296453Y-69600024D01*
X94301490Y-69611473D01*
X94304073Y-69618342D01*
X94307704Y-69630063D01*
X94310719Y-69642328D01*
X94313119Y-69655136D01*
X94314904Y-69668489D01*
X94316073Y-69682385D01*
X94316627Y-69696825D01*
X94316676Y-69702753D01*
X93728148Y-69702753D01*
X93728148Y-69823800D01*
X94457653Y-69823800D01*
X94457653Y-69765474D01*
X94457509Y-69751403D01*
X94457076Y-69737657D01*
X94456355Y-69724235D01*
X94455345Y-69711138D01*
X94454047Y-69698365D01*
X94452460Y-69685917D01*
X94450584Y-69673794D01*
X94448421Y-69661995D01*
X94445968Y-69650520D01*
X94442250Y-69635726D01*
X94441240Y-69632118D01*
X94436802Y-69617775D01*
X94431696Y-69603615D01*
X94425921Y-69589638D01*
X94419478Y-69575844D01*
X94412366Y-69562234D01*
X94404585Y-69548806D01*
X94398311Y-69538856D01*
X94391660Y-69529009D01*
X94387018Y-69522502D01*
X94379670Y-69512775D01*
X94371916Y-69503048D01*
X94363754Y-69493321D01*
X94355185Y-69483594D01*
X94346210Y-69473867D01*
X94336827Y-69464140D01*
X94327038Y-69454413D01*
X94316841Y-69444686D01*
X94306237Y-69434959D01*
X94295226Y-69425232D01*
X94287660Y-69418747D01*
X94275877Y-69408904D01*
X94263610Y-69398830D01*
X94250859Y-69388523D01*
X94237624Y-69377985D01*
X94223904Y-69367214D01*
X94214488Y-69359905D01*
X94204858Y-69352493D01*
X94195012Y-69344978D01*
X94184950Y-69337360D01*
X94174674Y-69329639D01*
X94164182Y-69321815D01*
X94153475Y-69313888D01*
X94142553Y-69305857D01*
X94137011Y-69301804D01*
X94125161Y-69293212D01*
X94113683Y-69284692D01*
X94102575Y-69276245D01*
X94091838Y-69267869D01*
X94081472Y-69259566D01*
X94071478Y-69251335D01*
X94061854Y-69243176D01*
X94052601Y-69235089D01*
X94043719Y-69227074D01*
X94032453Y-69216500D01*
X94029739Y-69213876D01*
X94019161Y-69203330D01*
X94009113Y-69192792D01*
X93999597Y-69182264D01*
X93990612Y-69171744D01*
X93982158Y-69161234D01*
X93974235Y-69150733D01*
X93966844Y-69140242D01*
X93959984Y-69129759D01*
X93953627Y-69119263D01*
X93947747Y-69108730D01*
X93942343Y-69098160D01*
X93936258Y-69084897D01*
X93930917Y-69071576D01*
X93926321Y-69058198D01*
X93922468Y-69044763D01*
X93919259Y-69031078D01*
X93916595Y-69017136D01*
X93914474Y-69002937D01*
X93912897Y-68988480D01*
X93912027Y-68976729D01*
X93911505Y-68964813D01*
X93911331Y-68952732D01*
G37*
G36*
X93091594Y-68653850D02*
G01*
X93097063Y-68665713D01*
X93102686Y-68677645D01*
X93108462Y-68689646D01*
X93114391Y-68701715D01*
X93120474Y-68713853D01*
X93126710Y-68726060D01*
X93133100Y-68738335D01*
X93139643Y-68750680D01*
X93146339Y-68763093D01*
X93153189Y-68775574D01*
X93160192Y-68788124D01*
X93167349Y-68800743D01*
X93174659Y-68813431D01*
X93182123Y-68826187D01*
X93189739Y-68839012D01*
X93197440Y-68851837D01*
X93205228Y-68864667D01*
X93213102Y-68877501D01*
X93221064Y-68890340D01*
X93229112Y-68903183D01*
X93237248Y-68916031D01*
X93245470Y-68928884D01*
X93253780Y-68941741D01*
X93262177Y-68954603D01*
X93270660Y-68967469D01*
X93279231Y-68980340D01*
X93287888Y-68993215D01*
X93296633Y-69006095D01*
X93305465Y-69018980D01*
X93314383Y-69031869D01*
X93323389Y-69044763D01*
X93332429Y-69057647D01*
X93341524Y-69070509D01*
X93350674Y-69083348D01*
X93359879Y-69096163D01*
X93369139Y-69108956D01*
X93378454Y-69121726D01*
X93387823Y-69134474D01*
X93397248Y-69147198D01*
X93406728Y-69159899D01*
X93416263Y-69172578D01*
X93425852Y-69185233D01*
X93435497Y-69197866D01*
X93445196Y-69210476D01*
X93454951Y-69223063D01*
X93464760Y-69235627D01*
X93474624Y-69248168D01*
X93484509Y-69260651D01*
X93494381Y-69273040D01*
X93504238Y-69285334D01*
X93514082Y-69297536D01*
X93523912Y-69309643D01*
X93533728Y-69321656D01*
X93543531Y-69333575D01*
X93553319Y-69345401D01*
X93563094Y-69357133D01*
X93572856Y-69368770D01*
X93582603Y-69380314D01*
X93592337Y-69391764D01*
X93602057Y-69403121D01*
X93611764Y-69414383D01*
X93621456Y-69425551D01*
X93631135Y-69436626D01*
X93631135Y-69553569D01*
X93075434Y-69553569D01*
X93075434Y-69823800D01*
X92941784Y-69823800D01*
X92941784Y-69553569D01*
X92790256Y-69553569D01*
X92790256Y-69429885D01*
X92941784Y-69429885D01*
X92941784Y-68845753D01*
X93075434Y-68845753D01*
X93075434Y-69429885D01*
X93478435Y-69429885D01*
X93473360Y-69423524D01*
X93465680Y-69413896D01*
X93457918Y-69404166D01*
X93450073Y-69394332D01*
X93442146Y-69384396D01*
X93434137Y-69374356D01*
X93426044Y-69364214D01*
X93417870Y-69353968D01*
X93409613Y-69343620D01*
X93401274Y-69333168D01*
X93392852Y-69322613D01*
X93387156Y-69315491D01*
X93378548Y-69304614D01*
X93369862Y-69293506D01*
X93361100Y-69282165D01*
X93352260Y-69270593D01*
X93343343Y-69258789D01*
X93334348Y-69246753D01*
X93325276Y-69234485D01*
X93316127Y-69221986D01*
X93306901Y-69209254D01*
X93297597Y-69196291D01*
X93294478Y-69191898D01*
X93285058Y-69178536D01*
X93275546Y-69164901D01*
X93265941Y-69150993D01*
X93256243Y-69136812D01*
X93246453Y-69122358D01*
X93239874Y-69112571D01*
X93233254Y-69102662D01*
X93226593Y-69092631D01*
X93219891Y-69082480D01*
X93213148Y-69072207D01*
X93206363Y-69061812D01*
X93199537Y-69051296D01*
X93192670Y-69040659D01*
X93185721Y-69029834D01*
X93178721Y-69018829D01*
X93171671Y-69007642D01*
X93164570Y-68996274D01*
X93157419Y-68984726D01*
X93150218Y-68972996D01*
X93142966Y-68961086D01*
X93135664Y-68948995D01*
X93128312Y-68936723D01*
X93120909Y-68924270D01*
X93113456Y-68911636D01*
X93105952Y-68898821D01*
X93098398Y-68885826D01*
X93090794Y-68872649D01*
X93083139Y-68859292D01*
X93075434Y-68845753D01*
X92941784Y-68845753D01*
X92941784Y-68642055D01*
X93086278Y-68642055D01*
X93091594Y-68653850D01*
G37*
%TO.C,G\u002A\u002A\u002A*%
G36*
X124220309Y-74779668D02*
G01*
X124488987Y-74865843D01*
X124724002Y-74947396D01*
X124947174Y-75024310D01*
X125081857Y-75070084D01*
X125166530Y-75078524D01*
X125211072Y-74993558D01*
X125220206Y-74946982D01*
X125305865Y-74890365D01*
X125506421Y-74874190D01*
X125801770Y-74874190D01*
X125801770Y-76164578D01*
X125801770Y-77454965D01*
X125524880Y-77597329D01*
X125247991Y-77739693D01*
X125208238Y-76842262D01*
X125191651Y-76522156D01*
X125160123Y-76171561D01*
X125109733Y-75910855D01*
X125030014Y-75706167D01*
X124910502Y-75523629D01*
X124740730Y-75329373D01*
X124730491Y-75318538D01*
X124416141Y-75052382D01*
X124100404Y-74902827D01*
X123803854Y-74875934D01*
X123547068Y-74977765D01*
X123454244Y-75116420D01*
X123477206Y-75296627D01*
X123608629Y-75486592D01*
X123836436Y-75657929D01*
X124120765Y-75817419D01*
X123861343Y-76100497D01*
X123601921Y-76383575D01*
X123298938Y-76080593D01*
X123149625Y-75918180D01*
X123030411Y-75727147D01*
X122995956Y-75541732D01*
X123017654Y-75400316D01*
X123156345Y-75153350D01*
X123399608Y-74942417D01*
X123719814Y-74795978D01*
X123864589Y-74758421D01*
X124031073Y-74745577D01*
X124220309Y-74779668D01*
G37*
G36*
X129444472Y-77399403D02*
G01*
X129171902Y-77613337D01*
X128792177Y-77762611D01*
X128643402Y-77788825D01*
X128261698Y-77785181D01*
X127859155Y-77705599D01*
X127501464Y-77560373D01*
X127389245Y-77502142D01*
X127219209Y-77439553D01*
X127144066Y-77455731D01*
X127078790Y-77527303D01*
X126932185Y-77628369D01*
X126767524Y-77716276D01*
X126646828Y-77753842D01*
X126637199Y-77727113D01*
X126625774Y-77579363D01*
X126620043Y-77324154D01*
X126620423Y-76986372D01*
X126627009Y-76609365D01*
X127167758Y-76609365D01*
X127167850Y-76613242D01*
X127234711Y-76743008D01*
X127401775Y-76902474D01*
X127633771Y-77066575D01*
X127895427Y-77210245D01*
X128151469Y-77308418D01*
X128322086Y-77344163D01*
X128619918Y-77374231D01*
X128927343Y-77377611D01*
X129192722Y-77354452D01*
X129364415Y-77304904D01*
X129374802Y-77298646D01*
X129479289Y-77172440D01*
X129458400Y-76994349D01*
X129311045Y-76753108D01*
X129258038Y-76688874D01*
X128938160Y-76430542D01*
X128534648Y-76262971D01*
X128085870Y-76203375D01*
X128017333Y-76204667D01*
X127692082Y-76246403D01*
X127421430Y-76336891D01*
X127236336Y-76462442D01*
X127167758Y-76609365D01*
X126627009Y-76609365D01*
X126627331Y-76590905D01*
X126636394Y-76287469D01*
X126660793Y-75832168D01*
X126700385Y-75492388D01*
X126761280Y-75247371D01*
X126849588Y-75076362D01*
X126971418Y-74958606D01*
X127132879Y-74873346D01*
X127193621Y-74850971D01*
X127533014Y-74785278D01*
X127952335Y-74775450D01*
X128404531Y-74823337D01*
X128755258Y-74883239D01*
X128755258Y-74583366D01*
X128755258Y-74283493D01*
X127573863Y-74283493D01*
X126392468Y-74283493D01*
X126392468Y-74061981D01*
X126392468Y-73840469D01*
X128127642Y-73840469D01*
X129862816Y-73840469D01*
X129862816Y-74061981D01*
X129858671Y-74171369D01*
X129821162Y-74248897D01*
X129712179Y-74278653D01*
X129493630Y-74283493D01*
X129124444Y-74283493D01*
X129124444Y-74710087D01*
X129125032Y-74764541D01*
X129159555Y-75089725D01*
X129242731Y-75305559D01*
X129320982Y-75442526D01*
X129303297Y-75507149D01*
X129174317Y-75488640D01*
X128927528Y-75388717D01*
X128806419Y-75340574D01*
X128439856Y-75243321D01*
X128032196Y-75188042D01*
X127977489Y-75184231D01*
X127710321Y-75171931D01*
X127539418Y-75185162D01*
X127421249Y-75231912D01*
X127312283Y-75320172D01*
X127195344Y-75471850D01*
X127130840Y-75700677D01*
X127137078Y-75818054D01*
X127189269Y-75880156D01*
X127333892Y-75855906D01*
X127482308Y-75831488D01*
X127739718Y-75812472D01*
X128028593Y-75807725D01*
X128047646Y-75808050D01*
X128585137Y-75881612D01*
X129042297Y-76077772D01*
X129416548Y-76395438D01*
X129533609Y-76557176D01*
X129633890Y-76852570D01*
X129601323Y-77139563D01*
X129581477Y-77172440D01*
X129444472Y-77399403D01*
G37*
G36*
X114357002Y-77528538D02*
G01*
X114139158Y-77641190D01*
X114124885Y-77648526D01*
X113967853Y-77723149D01*
X113880727Y-77753842D01*
X113868619Y-77738649D01*
X113848209Y-77619801D01*
X113840142Y-77421574D01*
X113837393Y-77322359D01*
X113815921Y-77155327D01*
X113780119Y-77089307D01*
X113758193Y-77096666D01*
X113649653Y-77177952D01*
X113503229Y-77320174D01*
X113471355Y-77353182D01*
X113264825Y-77540608D01*
X113064851Y-77689084D01*
X113024637Y-77713691D01*
X112852350Y-77797553D01*
X112693108Y-77814415D01*
X112500356Y-77761279D01*
X112227540Y-77635145D01*
X112053379Y-77533888D01*
X111701894Y-77235455D01*
X111421444Y-76867843D01*
X111333695Y-76667516D01*
X111556813Y-76667516D01*
X111638542Y-77008625D01*
X111843589Y-77307870D01*
X111857577Y-77321338D01*
X112089606Y-77444064D01*
X112372114Y-77450592D01*
X112678994Y-77349242D01*
X112984139Y-77148329D01*
X113261441Y-76856172D01*
X113483065Y-76539084D01*
X113638424Y-76229462D01*
X113679978Y-75973386D01*
X113610175Y-75751982D01*
X113431468Y-75546374D01*
X113355543Y-75485512D01*
X113034435Y-75336900D01*
X112676802Y-75330625D01*
X112285629Y-75466894D01*
X111984108Y-75673801D01*
X111736338Y-75972024D01*
X111591659Y-76312622D01*
X111556813Y-76667516D01*
X111333695Y-76667516D01*
X111249664Y-76475675D01*
X111214331Y-76223055D01*
X111267580Y-75858218D01*
X111425524Y-75519567D01*
X111666186Y-75231383D01*
X111967588Y-75017943D01*
X112307755Y-74903529D01*
X112664707Y-74912418D01*
X112669685Y-74913570D01*
X112839636Y-74983875D01*
X113073803Y-75117296D01*
X113323063Y-75285961D01*
X113766305Y-75612257D01*
X113766305Y-74947875D01*
X113766305Y-74283493D01*
X112400316Y-74283493D01*
X111034328Y-74283493D01*
X111034328Y-74061981D01*
X111034328Y-73840469D01*
X112391087Y-73840469D01*
X113747845Y-73840469D01*
X113793994Y-73609728D01*
X113825341Y-73408117D01*
X113840142Y-73211401D01*
X113854058Y-73055768D01*
X113937687Y-72717292D01*
X114080555Y-72335567D01*
X114263758Y-71958101D01*
X114468395Y-71632404D01*
X114603047Y-71451592D01*
X114734933Y-71296293D01*
X114848278Y-71216315D01*
X114982423Y-71186660D01*
X115176708Y-71182330D01*
X115553696Y-71182330D01*
X115330531Y-71436501D01*
X115195182Y-71605051D01*
X114940817Y-71996868D01*
X114712050Y-72440199D01*
X114526646Y-72894255D01*
X114402375Y-73318248D01*
X114357002Y-73671389D01*
X114357003Y-73672695D01*
X114376377Y-73781460D01*
X114461239Y-73829606D01*
X114652351Y-73840469D01*
X114715771Y-73840819D01*
X114872834Y-73856805D01*
X114936037Y-73919946D01*
X114947700Y-74061981D01*
X114947234Y-74109546D01*
X114925919Y-74227343D01*
X114841731Y-74274745D01*
X114652351Y-74283493D01*
X114357002Y-74283493D01*
X114357002Y-75906015D01*
X114357002Y-75973386D01*
X114357002Y-77528538D01*
G37*
G36*
X100049874Y-77191324D02*
G01*
X99850422Y-77454638D01*
X99515723Y-77684229D01*
X99453128Y-77712449D01*
X99141073Y-77779630D01*
X98766382Y-77778073D01*
X98381442Y-77711365D01*
X98038644Y-77583093D01*
X97903053Y-77512929D01*
X97724990Y-77425306D01*
X97633879Y-77395969D01*
X97600580Y-77418579D01*
X97595956Y-77486800D01*
X97576376Y-77546321D01*
X97466741Y-77626097D01*
X97384260Y-77652064D01*
X97198235Y-77720312D01*
X97162915Y-77732581D01*
X97121318Y-77728024D01*
X97094259Y-77676901D01*
X97079845Y-77559009D01*
X97076184Y-77354143D01*
X97081383Y-77042099D01*
X97093438Y-76606668D01*
X97613754Y-76606668D01*
X97695306Y-76757862D01*
X97880516Y-76926752D01*
X98145090Y-77093431D01*
X98464735Y-77237992D01*
X98660779Y-77297736D01*
X98995120Y-77358224D01*
X99333547Y-77381160D01*
X99627779Y-77364176D01*
X99829531Y-77304904D01*
X99869184Y-77276985D01*
X99945555Y-77131373D01*
X99910033Y-76943342D01*
X99776324Y-76736087D01*
X99558136Y-76532803D01*
X99269176Y-76356687D01*
X98977674Y-76257786D01*
X98637442Y-76212945D01*
X98295382Y-76223363D01*
X97987572Y-76284923D01*
X97750093Y-76393508D01*
X97619023Y-76545000D01*
X97613754Y-76606668D01*
X97093438Y-76606668D01*
X97093549Y-76602671D01*
X97104643Y-76282810D01*
X97131207Y-75828260D01*
X97172038Y-75488980D01*
X97233135Y-75244410D01*
X97320495Y-75073987D01*
X97440116Y-74957153D01*
X97597995Y-74873346D01*
X97658737Y-74850971D01*
X97998130Y-74785278D01*
X98417451Y-74775450D01*
X98869648Y-74823337D01*
X99220374Y-74883239D01*
X99220374Y-74583366D01*
X99220374Y-74283493D01*
X98038979Y-74283493D01*
X96857584Y-74283493D01*
X96857584Y-74061981D01*
X96857584Y-73840469D01*
X99515723Y-73840469D01*
X102173863Y-73840469D01*
X102173863Y-73473945D01*
X102175732Y-73343970D01*
X102201936Y-73167148D01*
X102283462Y-73045818D01*
X102450752Y-72918965D01*
X102727642Y-72730510D01*
X102749207Y-73285489D01*
X102770772Y-73840469D01*
X103136853Y-73840469D01*
X103314527Y-73842843D01*
X103444697Y-73865117D01*
X103494749Y-73930448D01*
X103502933Y-74061981D01*
X103498787Y-74171369D01*
X103461278Y-74248897D01*
X103352296Y-74278653D01*
X103133747Y-74283493D01*
X102764561Y-74283493D01*
X102764446Y-75667940D01*
X102763865Y-75911436D01*
X102755851Y-76425666D01*
X102734397Y-76820303D01*
X102694423Y-77115311D01*
X102630847Y-77330656D01*
X102538589Y-77486300D01*
X102412567Y-77602210D01*
X102247700Y-77698349D01*
X102211603Y-77715698D01*
X102003670Y-77794645D01*
X101841595Y-77825942D01*
X101669706Y-77799673D01*
X101370850Y-77674214D01*
X101079099Y-77472793D01*
X100845385Y-77226080D01*
X100752385Y-77093492D01*
X100682660Y-76951367D01*
X100706179Y-76844568D01*
X100835896Y-76739318D01*
X101084764Y-76601841D01*
X101225518Y-76536265D01*
X101279381Y-76562082D01*
X101288228Y-76699765D01*
X101322873Y-77048879D01*
X101437238Y-77349316D01*
X101622915Y-77539662D01*
X101871062Y-77606167D01*
X101913244Y-77603868D01*
X101999087Y-77573728D01*
X102064088Y-77495471D01*
X102111029Y-77352513D01*
X102142693Y-77128271D01*
X102161865Y-76806161D01*
X102171327Y-76369602D01*
X102173863Y-75802010D01*
X102173863Y-74283493D01*
X100918630Y-74283493D01*
X99663398Y-74283493D01*
X99663398Y-74727518D01*
X99671699Y-74927028D01*
X99704206Y-75164936D01*
X99752899Y-75314857D01*
X99807414Y-75425689D01*
X99784191Y-75494839D01*
X99649322Y-75480511D01*
X99396959Y-75383838D01*
X99218652Y-75319538D01*
X98874316Y-75236617D01*
X98518921Y-75189568D01*
X98269762Y-75176692D01*
X98069074Y-75185724D01*
X97927901Y-75229005D01*
X97799008Y-75314751D01*
X97658876Y-75465733D01*
X97595956Y-75695105D01*
X97596365Y-75752165D01*
X97615151Y-75860749D01*
X97693200Y-75887126D01*
X97872845Y-75855879D01*
X98019585Y-75829016D01*
X98565226Y-75803607D01*
X99074395Y-75894091D01*
X99521678Y-76093643D01*
X99881664Y-76395438D01*
X100029977Y-76609507D01*
X100110813Y-76905782D01*
X100062668Y-77131373D01*
X100049874Y-77191324D01*
G37*
G36*
X106850294Y-77100814D02*
G01*
X106703173Y-77364793D01*
X106440674Y-77586219D01*
X106078403Y-77746132D01*
X105942983Y-77776757D01*
X105553407Y-77789356D01*
X105133117Y-77718232D01*
X104741016Y-77571096D01*
X104525007Y-77471615D01*
X104399422Y-77445983D01*
X104334911Y-77488847D01*
X104320736Y-77508732D01*
X104199786Y-77614035D01*
X104039649Y-77711172D01*
X103913891Y-77753842D01*
X103906345Y-77735567D01*
X103892810Y-77601110D01*
X103881955Y-77357351D01*
X103874738Y-77029787D01*
X103872119Y-76643912D01*
X103872172Y-76586692D01*
X103872517Y-76563899D01*
X104330823Y-76563899D01*
X104378428Y-76687809D01*
X104530620Y-76846885D01*
X104760895Y-77017780D01*
X105042748Y-77177147D01*
X105134488Y-77216347D01*
X105423412Y-77298866D01*
X105755266Y-77353409D01*
X106084081Y-77375952D01*
X106363888Y-77362473D01*
X106548718Y-77308949D01*
X106626566Y-77226149D01*
X106677933Y-77057311D01*
X106654234Y-76959850D01*
X106528465Y-76770183D01*
X106325564Y-76571505D01*
X106080986Y-76396425D01*
X105830181Y-76277552D01*
X105593114Y-76227719D01*
X105276857Y-76217210D01*
X104954574Y-76251427D01*
X104664453Y-76323359D01*
X104444684Y-76425995D01*
X104333455Y-76552324D01*
X104330823Y-76563899D01*
X103872517Y-76563899D01*
X103879962Y-76071618D01*
X103904443Y-75679880D01*
X103950606Y-75389679D01*
X104023445Y-75179213D01*
X104127950Y-75026683D01*
X104269115Y-74910287D01*
X104466033Y-74830965D01*
X104791494Y-74782224D01*
X105190187Y-74779727D01*
X105625752Y-74825741D01*
X106013398Y-74888048D01*
X106013398Y-74585770D01*
X106013398Y-74283493D01*
X104795084Y-74283493D01*
X103576770Y-74283493D01*
X103576770Y-74061981D01*
X103576770Y-73840469D01*
X106788688Y-73840469D01*
X110000607Y-73840469D01*
X110000607Y-73558522D01*
X110007380Y-73408808D01*
X110096851Y-72934057D01*
X110273114Y-72439907D01*
X110514342Y-71979730D01*
X110798711Y-71606894D01*
X110831458Y-71573128D01*
X111007719Y-71417831D01*
X111171832Y-71346904D01*
X111388423Y-71330004D01*
X111712548Y-71330004D01*
X111382612Y-71696972D01*
X111184542Y-71940890D01*
X110868401Y-72472035D01*
X110666423Y-73036892D01*
X110593110Y-73600498D01*
X110598770Y-73726615D01*
X110647945Y-73819387D01*
X110775898Y-73840469D01*
X110856170Y-73845759D01*
X110940623Y-73903673D01*
X110960491Y-74061981D01*
X110956082Y-74158308D01*
X110907821Y-74259652D01*
X110775898Y-74283493D01*
X110591305Y-74283493D01*
X110591305Y-75869492D01*
X110591305Y-77455491D01*
X110302268Y-77602947D01*
X110013230Y-77750403D01*
X109988459Y-76915719D01*
X109985509Y-76819749D01*
X109970882Y-76476257D01*
X109948253Y-76236066D01*
X109910387Y-76063005D01*
X109850050Y-75920904D01*
X109760006Y-75773592D01*
X109739643Y-75743527D01*
X109418835Y-75392671D01*
X109029251Y-75151488D01*
X108600642Y-75038833D01*
X108526977Y-75032324D01*
X108323087Y-75031408D01*
X108186654Y-75081232D01*
X108056445Y-75199922D01*
X107896530Y-75441614D01*
X107812088Y-75794225D01*
X107848388Y-76190995D01*
X108003168Y-76612807D01*
X108274167Y-77040546D01*
X108355979Y-77146912D01*
X108488813Y-77330511D01*
X108545089Y-77442553D01*
X108536202Y-77513521D01*
X108473547Y-77573894D01*
X108431357Y-77605075D01*
X108221192Y-77715136D01*
X108042431Y-77701184D01*
X107852211Y-77562430D01*
X107574526Y-77209475D01*
X107405442Y-76801925D01*
X107344205Y-76369596D01*
X107385354Y-75937811D01*
X107523429Y-75531895D01*
X107752968Y-75177171D01*
X108068512Y-74898962D01*
X108464598Y-74722592D01*
X108546629Y-74703178D01*
X108902759Y-74690216D01*
X109249080Y-74805893D01*
X109609579Y-75057217D01*
X109732542Y-75159443D01*
X109881096Y-75273038D01*
X109956967Y-75317214D01*
X109958700Y-75316808D01*
X109979879Y-75239723D01*
X109994899Y-75055120D01*
X110000607Y-74800353D01*
X110000607Y-74283493D01*
X108191595Y-74283493D01*
X106382584Y-74283493D01*
X106382584Y-74727518D01*
X106390885Y-74927028D01*
X106423392Y-75164936D01*
X106472085Y-75314857D01*
X106489190Y-75343176D01*
X106531840Y-75453936D01*
X106480284Y-75491861D01*
X106322500Y-75458044D01*
X106046468Y-75353580D01*
X105844055Y-75279862D01*
X105429583Y-75184067D01*
X105045377Y-75163916D01*
X104723592Y-75219466D01*
X104496379Y-75350776D01*
X104489928Y-75357346D01*
X104366263Y-75538600D01*
X104315142Y-75720835D01*
X104316477Y-75785175D01*
X104342629Y-75865564D01*
X104433447Y-75882672D01*
X104628950Y-75853406D01*
X104966252Y-75812456D01*
X105463586Y-75819339D01*
X105896429Y-75905845D01*
X106051567Y-75972943D01*
X106318298Y-76144795D01*
X106568479Y-76362860D01*
X106762923Y-76591125D01*
X106862442Y-76793579D01*
X106866432Y-76813243D01*
X106852735Y-77057311D01*
X106850294Y-77100814D01*
G37*
G36*
X118162938Y-77388138D02*
G01*
X117908869Y-77593256D01*
X117548350Y-77731164D01*
X117086424Y-77782587D01*
X117052120Y-77782600D01*
X116742077Y-77765365D01*
X116495896Y-77703835D01*
X116238735Y-77580135D01*
X116091068Y-77504108D01*
X115921391Y-77442211D01*
X115846973Y-77455731D01*
X115781697Y-77527303D01*
X115635092Y-77628369D01*
X115470431Y-77716276D01*
X115349735Y-77753842D01*
X115340106Y-77727113D01*
X115328681Y-77579363D01*
X115322950Y-77324154D01*
X115323330Y-76986372D01*
X115329916Y-76609365D01*
X115870665Y-76609365D01*
X115870757Y-76613242D01*
X115937618Y-76743008D01*
X116104682Y-76902474D01*
X116336678Y-77066575D01*
X116598334Y-77210245D01*
X116854375Y-77308418D01*
X117024993Y-77344163D01*
X117322825Y-77374231D01*
X117630250Y-77377611D01*
X117895629Y-77354452D01*
X118067322Y-77304904D01*
X118077709Y-77298646D01*
X118182196Y-77172440D01*
X118161307Y-76994349D01*
X118013952Y-76753108D01*
X117960945Y-76688874D01*
X117641067Y-76430542D01*
X117237555Y-76262971D01*
X116788777Y-76203375D01*
X116720240Y-76204667D01*
X116394988Y-76246403D01*
X116124337Y-76336891D01*
X115939243Y-76462442D01*
X115870665Y-76609365D01*
X115329916Y-76609365D01*
X115330238Y-76590905D01*
X115339301Y-76287469D01*
X115363700Y-75832168D01*
X115403292Y-75492388D01*
X115464187Y-75247371D01*
X115552495Y-75076362D01*
X115674325Y-74958606D01*
X115835786Y-74873346D01*
X115896528Y-74850971D01*
X116235921Y-74785278D01*
X116655242Y-74775450D01*
X117107438Y-74823337D01*
X117458165Y-74883239D01*
X117458165Y-74583366D01*
X117458165Y-74283493D01*
X116276770Y-74283493D01*
X115095374Y-74283493D01*
X115095374Y-74061981D01*
X115095374Y-73840469D01*
X120670084Y-73840469D01*
X126244793Y-73840469D01*
X126244793Y-74061981D01*
X126244793Y-74283493D01*
X124214270Y-74283493D01*
X122183747Y-74283493D01*
X122183747Y-75431636D01*
X122182170Y-75782396D01*
X122171095Y-76192195D01*
X122143877Y-76497413D01*
X122094114Y-76723660D01*
X122015403Y-76896548D01*
X121901343Y-77041686D01*
X121745531Y-77184687D01*
X121639209Y-77261274D01*
X121291037Y-77411284D01*
X120876928Y-77488024D01*
X120442863Y-77489770D01*
X120034824Y-77414800D01*
X119698792Y-77261391D01*
X119440266Y-77085950D01*
X119464477Y-78072016D01*
X119465676Y-78120565D01*
X119476905Y-78507756D01*
X119491798Y-78780770D01*
X119516032Y-78969897D01*
X119555286Y-79105430D01*
X119615235Y-79217658D01*
X119701559Y-79336872D01*
X119936562Y-79572321D01*
X120281505Y-79778998D01*
X120675784Y-79912233D01*
X121090490Y-79970930D01*
X121496715Y-79953990D01*
X121865553Y-79860317D01*
X122168094Y-79688813D01*
X122375433Y-79438381D01*
X122387761Y-79412894D01*
X122415312Y-79204574D01*
X122298446Y-79022338D01*
X122036789Y-78865835D01*
X121629968Y-78734711D01*
X121601886Y-78727757D01*
X121350871Y-78664514D01*
X121167272Y-78616368D01*
X121089117Y-78593265D01*
X121094221Y-78567571D01*
X121156938Y-78449842D01*
X121268816Y-78271805D01*
X121352383Y-78149425D01*
X121460707Y-78029738D01*
X121572094Y-77993099D01*
X121735830Y-78012099D01*
X121884663Y-78046614D01*
X122233512Y-78190972D01*
X122516215Y-78397477D01*
X122712983Y-78643995D01*
X122804029Y-78908390D01*
X122769566Y-79168526D01*
X122624195Y-79426454D01*
X122311660Y-79737660D01*
X121889154Y-79972336D01*
X121371537Y-80120365D01*
X121139596Y-80150871D01*
X120613401Y-80145518D01*
X120100895Y-80047874D01*
X119641975Y-79867580D01*
X119276542Y-79614272D01*
X119274592Y-79612441D01*
X119156979Y-79495056D01*
X119064026Y-79376637D01*
X118992842Y-79238854D01*
X118940538Y-79063378D01*
X118904224Y-78831880D01*
X118881011Y-78526032D01*
X118868007Y-78127504D01*
X118862324Y-77617968D01*
X118861072Y-76979095D01*
X118861072Y-75018210D01*
X119027206Y-74956060D01*
X119058774Y-74944179D01*
X119269096Y-74865086D01*
X119404754Y-74832774D01*
X119481991Y-74867394D01*
X119517051Y-74989094D01*
X119526175Y-75218025D01*
X119525607Y-75574335D01*
X119533044Y-75960124D01*
X119566258Y-76304057D01*
X119635451Y-76568562D01*
X119750652Y-76789823D01*
X119921889Y-77004026D01*
X120079448Y-77147552D01*
X120397871Y-77320162D01*
X120740851Y-77391127D01*
X121070508Y-77355070D01*
X121348961Y-77206612D01*
X121556130Y-77028568D01*
X121579156Y-75656030D01*
X121602181Y-74283493D01*
X119714766Y-74283493D01*
X117827351Y-74283493D01*
X117827351Y-74710087D01*
X117827939Y-74764541D01*
X117862462Y-75089725D01*
X117945638Y-75305559D01*
X118023889Y-75442526D01*
X118006204Y-75507149D01*
X117877224Y-75488640D01*
X117630435Y-75388717D01*
X117509326Y-75340574D01*
X117142763Y-75243321D01*
X116735103Y-75188042D01*
X116680396Y-75184231D01*
X116413228Y-75171931D01*
X116242325Y-75185162D01*
X116124156Y-75231912D01*
X116015190Y-75320172D01*
X115898251Y-75471850D01*
X115833747Y-75700677D01*
X115839985Y-75818054D01*
X115892176Y-75880156D01*
X116036799Y-75855906D01*
X116085688Y-75843894D01*
X116444160Y-75802431D01*
X116851840Y-75814169D01*
X117244753Y-75874024D01*
X117558924Y-75976909D01*
X117660000Y-76028991D01*
X118013837Y-76281048D01*
X118236006Y-76562265D01*
X118331550Y-76853369D01*
X118305513Y-77135085D01*
X118284466Y-77172440D01*
X118162938Y-77388138D01*
G37*
G36*
X118993437Y-72184109D02*
G01*
X118993429Y-72221988D01*
X118993216Y-72378140D01*
X118992732Y-72525233D01*
X118992005Y-72660834D01*
X118991059Y-72782510D01*
X118989919Y-72887827D01*
X118988610Y-72974353D01*
X118987159Y-73039656D01*
X118985591Y-73081300D01*
X118983930Y-73096855D01*
X118980940Y-73098356D01*
X118955508Y-73102442D01*
X118911274Y-73105292D01*
X118855575Y-73106363D01*
X118736728Y-73106363D01*
X118736728Y-72193617D01*
X118736728Y-71280872D01*
X118865083Y-71280872D01*
X118993437Y-71280872D01*
X118993437Y-72184109D01*
G37*
G36*
X117132088Y-71280473D02*
G01*
X117301205Y-71280729D01*
X117496925Y-71280872D01*
X118494280Y-71280872D01*
X118494280Y-71416357D01*
X118494280Y-71551843D01*
X118069282Y-71551843D01*
X118015531Y-71551893D01*
X117893311Y-71552520D01*
X117796798Y-71553928D01*
X117723961Y-71556198D01*
X117672766Y-71559407D01*
X117641180Y-71563633D01*
X117627171Y-71568957D01*
X117623372Y-71579287D01*
X117619949Y-71604879D01*
X117617102Y-71647201D01*
X117614795Y-71707937D01*
X117612991Y-71788772D01*
X117611652Y-71891391D01*
X117610741Y-72017478D01*
X117610222Y-72168717D01*
X117610057Y-72346794D01*
X117610057Y-73107516D01*
X117492399Y-73103374D01*
X117374740Y-73099232D01*
X117367299Y-72329103D01*
X117366523Y-72250553D01*
X117365044Y-72109582D01*
X117363561Y-71978832D01*
X117362110Y-71860920D01*
X117360727Y-71758458D01*
X117359449Y-71674062D01*
X117358311Y-71610346D01*
X117357351Y-71569923D01*
X117356603Y-71555408D01*
X117354570Y-71555086D01*
X117330863Y-71554217D01*
X117283398Y-71553440D01*
X117215700Y-71552785D01*
X117131293Y-71552281D01*
X117033705Y-71551957D01*
X116926459Y-71551843D01*
X116853131Y-71551935D01*
X116744041Y-71552182D01*
X116658853Y-71551777D01*
X116594620Y-71549830D01*
X116548398Y-71545450D01*
X116517238Y-71537746D01*
X116498195Y-71525829D01*
X116488323Y-71508807D01*
X116484674Y-71485791D01*
X116484303Y-71455890D01*
X116484263Y-71418214D01*
X116484014Y-71410683D01*
X116482020Y-71385211D01*
X116479784Y-71363268D01*
X116479224Y-71344592D01*
X116482258Y-71328925D01*
X116490803Y-71316005D01*
X116506776Y-71305573D01*
X116532095Y-71297369D01*
X116568678Y-71291133D01*
X116618442Y-71286604D01*
X116683304Y-71283523D01*
X116765183Y-71281629D01*
X116865994Y-71280663D01*
X116987657Y-71280364D01*
X117132088Y-71280473D01*
G37*
G36*
X126052955Y-71911712D02*
G01*
X126111195Y-71913074D01*
X126205102Y-71916236D01*
X126277165Y-71920858D01*
X126331796Y-71927868D01*
X126373407Y-71938197D01*
X126406408Y-71952775D01*
X126435211Y-71972531D01*
X126464227Y-71998394D01*
X126470192Y-72004101D01*
X126496124Y-72029794D01*
X126516917Y-72054091D01*
X126533140Y-72080316D01*
X126545360Y-72111794D01*
X126554144Y-72151848D01*
X126560059Y-72203804D01*
X126563673Y-72270986D01*
X126565552Y-72356718D01*
X126566263Y-72464324D01*
X126566374Y-72597129D01*
X126566302Y-72652377D01*
X126565736Y-72758494D01*
X126564670Y-72853619D01*
X126563178Y-72934245D01*
X126561331Y-72996866D01*
X126559203Y-73037977D01*
X126556866Y-73054070D01*
X126553979Y-73056763D01*
X126536288Y-73062424D01*
X126509327Y-73049636D01*
X126508714Y-73049220D01*
X126502727Y-73041002D01*
X126497795Y-73023990D01*
X126493748Y-72995367D01*
X126490416Y-72952314D01*
X126487626Y-72892012D01*
X126485208Y-72811643D01*
X126482991Y-72708388D01*
X126480804Y-72579429D01*
X126473673Y-72122728D01*
X126419979Y-72069037D01*
X126366285Y-72015347D01*
X126002861Y-72011095D01*
X125987566Y-72010920D01*
X125875534Y-72009920D01*
X125788004Y-72009858D01*
X125721396Y-72010889D01*
X125672129Y-72013170D01*
X125636622Y-72016858D01*
X125611295Y-72022111D01*
X125592567Y-72029085D01*
X125579671Y-72036447D01*
X125541109Y-72070008D01*
X125505150Y-72114860D01*
X125478590Y-72161613D01*
X125468227Y-72200877D01*
X125464251Y-72223979D01*
X125447706Y-72258634D01*
X125437789Y-72271157D01*
X125422996Y-72278168D01*
X125403407Y-72262902D01*
X125389807Y-72239376D01*
X125386914Y-72193978D01*
X125400075Y-72138894D01*
X125426963Y-72080230D01*
X125465248Y-72024093D01*
X125512602Y-71976588D01*
X125541111Y-71957582D01*
X125584401Y-71939267D01*
X125640290Y-71925726D01*
X125711935Y-71916578D01*
X125802490Y-71911446D01*
X125915111Y-71909950D01*
X126052955Y-71911712D01*
G37*
G36*
X122159955Y-71269999D02*
G01*
X122179391Y-71289169D01*
X122179940Y-71292090D01*
X122181563Y-71318994D01*
X122183048Y-71370760D01*
X122184366Y-71444624D01*
X122185487Y-71537820D01*
X122186382Y-71647581D01*
X122187023Y-71771142D01*
X122187379Y-71905738D01*
X122187421Y-72048602D01*
X122187152Y-72206165D01*
X122186522Y-72358305D01*
X122185498Y-72485601D01*
X122184035Y-72589998D01*
X122182086Y-72673446D01*
X122179604Y-72737891D01*
X122176543Y-72785279D01*
X122172854Y-72817559D01*
X122168493Y-72836678D01*
X122131577Y-72910006D01*
X122070732Y-72980203D01*
X121995689Y-73030012D01*
X121992587Y-73031446D01*
X121951916Y-73047554D01*
X121910035Y-73057288D01*
X121857864Y-73062100D01*
X121786322Y-73063439D01*
X121767826Y-73063423D01*
X121697079Y-73062181D01*
X121649577Y-73058251D01*
X121620997Y-73050611D01*
X121607019Y-73038238D01*
X121603319Y-73020109D01*
X121604168Y-73007551D01*
X121610632Y-72993756D01*
X121627379Y-72984331D01*
X121658965Y-72978006D01*
X121709950Y-72973514D01*
X121784891Y-72969585D01*
X121835087Y-72966949D01*
X121892164Y-72962066D01*
X121932523Y-72954835D01*
X121963281Y-72943809D01*
X121991552Y-72927539D01*
X122006408Y-72917606D01*
X122032283Y-72898273D01*
X122052583Y-72877506D01*
X122067984Y-72851918D01*
X122079161Y-72818124D01*
X122086790Y-72772737D01*
X122091547Y-72712371D01*
X122094108Y-72633641D01*
X122095150Y-72533160D01*
X122095346Y-72407542D01*
X122095346Y-72015347D01*
X121861552Y-72008216D01*
X121780378Y-72005451D01*
X121714083Y-72002191D01*
X121668321Y-71998202D01*
X121638898Y-71992949D01*
X121621620Y-71985899D01*
X121612293Y-71976520D01*
X121605436Y-71961597D01*
X121610771Y-71938644D01*
X121618489Y-71935726D01*
X121651248Y-71930508D01*
X121704256Y-71925364D01*
X121772308Y-71920761D01*
X121850201Y-71917164D01*
X121897053Y-71915298D01*
X121969676Y-71911686D01*
X122029347Y-71907814D01*
X122070878Y-71904038D01*
X122089084Y-71900717D01*
X122089523Y-71900307D01*
X122093720Y-71881328D01*
X122097289Y-71838114D01*
X122100055Y-71774567D01*
X122101842Y-71694590D01*
X122102477Y-71602084D01*
X122102494Y-71583992D01*
X122103060Y-71496068D01*
X122104337Y-71417942D01*
X122106195Y-71354297D01*
X122108503Y-71309812D01*
X122111134Y-71289169D01*
X122112165Y-71286764D01*
X122132835Y-71269197D01*
X122159955Y-71269999D01*
G37*
G36*
X128805884Y-71269999D02*
G01*
X128825320Y-71289169D01*
X128825814Y-71291641D01*
X128827466Y-71317644D01*
X128829002Y-71368590D01*
X128830389Y-71441701D01*
X128831595Y-71534199D01*
X128832589Y-71643306D01*
X128833339Y-71766243D01*
X128833812Y-71900233D01*
X128833976Y-72042496D01*
X128833936Y-72205354D01*
X128833660Y-72352617D01*
X128832913Y-72476167D01*
X128831464Y-72578482D01*
X128829079Y-72662036D01*
X128825524Y-72729305D01*
X128820568Y-72782766D01*
X128813976Y-72824894D01*
X128805516Y-72858166D01*
X128794954Y-72885056D01*
X128782058Y-72908041D01*
X128766594Y-72929597D01*
X128748330Y-72952200D01*
X128738826Y-72962867D01*
X128693796Y-73002450D01*
X128645331Y-73033394D01*
X128626491Y-73042027D01*
X128593287Y-73052915D01*
X128553187Y-73059481D01*
X128498992Y-73062705D01*
X128423506Y-73063567D01*
X128364462Y-73063213D01*
X128312161Y-73061390D01*
X128279536Y-73057405D01*
X128261675Y-73050582D01*
X128253662Y-73040247D01*
X128249812Y-73028333D01*
X128249772Y-73004870D01*
X128265453Y-72987999D01*
X128300048Y-72976401D01*
X128356750Y-72968757D01*
X128438752Y-72963746D01*
X128505229Y-72959999D01*
X128573763Y-72951903D01*
X128623567Y-72937920D01*
X128660234Y-72915449D01*
X128689361Y-72881890D01*
X128716544Y-72834641D01*
X128723306Y-72821065D01*
X128731507Y-72801720D01*
X128737657Y-72780136D01*
X128741999Y-72752559D01*
X128744774Y-72715235D01*
X128746225Y-72664407D01*
X128746597Y-72596323D01*
X128746130Y-72507227D01*
X128745067Y-72393365D01*
X128741276Y-72015347D01*
X128507481Y-72008216D01*
X128426308Y-72005451D01*
X128360013Y-72002191D01*
X128314250Y-71998202D01*
X128284827Y-71992949D01*
X128267550Y-71985899D01*
X128258222Y-71976520D01*
X128254710Y-71970556D01*
X128248724Y-71950804D01*
X128257192Y-71936171D01*
X128282923Y-71925902D01*
X128328722Y-71919242D01*
X128397398Y-71915437D01*
X128491758Y-71913731D01*
X128525630Y-71913343D01*
X128598806Y-71911762D01*
X128660420Y-71909427D01*
X128704818Y-71906585D01*
X128726348Y-71903483D01*
X128731133Y-71900483D01*
X128737507Y-71889468D01*
X128742132Y-71867822D01*
X128745272Y-71831967D01*
X128747189Y-71778326D01*
X128748146Y-71703321D01*
X128748407Y-71603373D01*
X128748425Y-71584169D01*
X128748998Y-71496135D01*
X128750277Y-71417950D01*
X128752133Y-71354281D01*
X128754438Y-71309798D01*
X128757063Y-71289169D01*
X128758095Y-71286764D01*
X128778764Y-71269197D01*
X128805884Y-71269999D01*
G37*
G36*
X125176323Y-71925274D02*
G01*
X125198894Y-71939070D01*
X125199346Y-71940059D01*
X125202480Y-71962504D01*
X125205308Y-72009114D01*
X125207716Y-72076061D01*
X125209592Y-72159519D01*
X125210824Y-72255660D01*
X125211299Y-72360657D01*
X125211309Y-72412630D01*
X125211092Y-72521202D01*
X125210349Y-72606555D01*
X125208850Y-72672453D01*
X125206368Y-72722661D01*
X125202672Y-72760943D01*
X125197533Y-72791063D01*
X125190723Y-72816784D01*
X125182012Y-72841872D01*
X125147452Y-72912112D01*
X125085370Y-72985215D01*
X125005040Y-73036893D01*
X124989177Y-73043329D01*
X124968517Y-73049224D01*
X124941832Y-73053827D01*
X124905909Y-73057298D01*
X124857533Y-73059796D01*
X124793491Y-73061482D01*
X124710568Y-73062515D01*
X124605550Y-73063056D01*
X124475223Y-73063265D01*
X124366342Y-73063210D01*
X124254041Y-73062714D01*
X124165498Y-73061646D01*
X124098068Y-73059901D01*
X124049107Y-73057376D01*
X124015970Y-73053967D01*
X123996012Y-73049571D01*
X123986590Y-73044083D01*
X123982183Y-73029307D01*
X123978632Y-72994865D01*
X123976009Y-72939385D01*
X123974283Y-72861371D01*
X123973419Y-72759330D01*
X123973384Y-72631765D01*
X123974148Y-72477183D01*
X123974670Y-72401667D01*
X123975636Y-72276147D01*
X123976674Y-72175117D01*
X123977943Y-72095922D01*
X123979597Y-72035904D01*
X123981795Y-71992408D01*
X123984693Y-71962777D01*
X123988446Y-71944355D01*
X123993212Y-71934485D01*
X123999147Y-71930511D01*
X124006408Y-71929777D01*
X124006498Y-71929777D01*
X124014060Y-71930585D01*
X124020175Y-71934852D01*
X124025025Y-71945364D01*
X124028788Y-71964904D01*
X124031647Y-71996257D01*
X124033782Y-72042209D01*
X124035372Y-72105545D01*
X124036599Y-72189048D01*
X124037642Y-72295505D01*
X124038684Y-72427699D01*
X124038725Y-72433085D01*
X124040324Y-72586354D01*
X124042557Y-72711680D01*
X124045446Y-72809620D01*
X124049012Y-72880730D01*
X124053275Y-72925566D01*
X124058257Y-72944684D01*
X124059525Y-72945677D01*
X124082392Y-72950888D01*
X124128770Y-72955309D01*
X124194404Y-72958926D01*
X124275038Y-72961725D01*
X124366416Y-72963691D01*
X124464284Y-72964810D01*
X124564384Y-72965068D01*
X124662463Y-72964452D01*
X124754263Y-72962945D01*
X124835530Y-72960536D01*
X124902007Y-72957208D01*
X124949440Y-72952948D01*
X124973572Y-72947742D01*
X124985101Y-72941267D01*
X125031923Y-72906071D01*
X125074496Y-72862526D01*
X125102162Y-72821130D01*
X125105135Y-72810250D01*
X125110293Y-72769073D01*
X125115004Y-72701722D01*
X125119191Y-72609714D01*
X125122777Y-72494569D01*
X125125684Y-72357804D01*
X125127759Y-72242194D01*
X125129809Y-72144535D01*
X125131943Y-72069508D01*
X125134398Y-72014085D01*
X125137416Y-71975235D01*
X125141235Y-71949930D01*
X125146094Y-71935140D01*
X125152233Y-71927835D01*
X125159892Y-71924986D01*
X125176323Y-71925274D01*
G37*
G36*
X122944523Y-65984332D02*
G01*
X123169006Y-66022558D01*
X123388345Y-66087559D01*
X123599951Y-66179233D01*
X123728000Y-66250601D01*
X123913806Y-66379116D01*
X124083504Y-66527734D01*
X124234781Y-66693810D01*
X124365320Y-66874697D01*
X124472808Y-67067753D01*
X124554929Y-67270331D01*
X124570968Y-67320642D01*
X124621270Y-67525146D01*
X124647555Y-67732632D01*
X124650905Y-67950776D01*
X124647525Y-68026925D01*
X124637390Y-68149661D01*
X124620563Y-68260963D01*
X124595213Y-68371694D01*
X124559507Y-68492719D01*
X124545108Y-68534282D01*
X124508309Y-68625407D01*
X124462857Y-68724830D01*
X124413105Y-68823689D01*
X124363403Y-68913124D01*
X124318104Y-68984273D01*
X124299470Y-69008753D01*
X124262127Y-69053273D01*
X124214697Y-69106682D01*
X124160814Y-69165209D01*
X124104110Y-69225082D01*
X124048222Y-69282527D01*
X123996781Y-69333774D01*
X123953422Y-69375049D01*
X123921780Y-69402580D01*
X123905488Y-69412595D01*
X123893079Y-69416340D01*
X123870189Y-69434871D01*
X123843299Y-69460579D01*
X123788238Y-69500103D01*
X123714862Y-69544281D01*
X123628066Y-69590536D01*
X123532744Y-69636291D01*
X123433794Y-69678968D01*
X123336110Y-69715992D01*
X123332666Y-69717193D01*
X123263489Y-69739875D01*
X123197118Y-69758149D01*
X123125748Y-69773730D01*
X123041572Y-69788330D01*
X122936784Y-69803665D01*
X122934158Y-69804006D01*
X122889172Y-69806779D01*
X122823326Y-69807430D01*
X122743591Y-69806231D01*
X122656939Y-69803454D01*
X122570341Y-69799370D01*
X122490767Y-69794250D01*
X122425189Y-69788367D01*
X122380579Y-69781992D01*
X122296312Y-69762639D01*
X122085073Y-69696301D01*
X121881044Y-69607209D01*
X121690009Y-69498114D01*
X121517750Y-69371764D01*
X121515450Y-69369840D01*
X121476234Y-69335143D01*
X121428844Y-69290615D01*
X121377411Y-69240458D01*
X121326062Y-69188877D01*
X121278925Y-69140075D01*
X121240131Y-69098256D01*
X121213806Y-69067625D01*
X121204081Y-69052384D01*
X121201868Y-69046576D01*
X121187119Y-69020734D01*
X121161582Y-68980332D01*
X121128849Y-68931160D01*
X121099445Y-68886403D01*
X120995168Y-68696017D01*
X120914407Y-68492300D01*
X120857865Y-68278471D01*
X120826243Y-68057748D01*
X120820241Y-67833350D01*
X120840563Y-67608497D01*
X120842602Y-67595324D01*
X120857769Y-67511743D01*
X120876372Y-67427286D01*
X120896555Y-67349232D01*
X120916459Y-67284861D01*
X120934227Y-67241453D01*
X120941073Y-67226088D01*
X120947284Y-67200766D01*
X120948755Y-67194038D01*
X120960613Y-67164146D01*
X120981915Y-67117864D01*
X121009714Y-67061030D01*
X121041061Y-66999485D01*
X121073010Y-66939067D01*
X121102611Y-66885616D01*
X121126917Y-66844970D01*
X121157455Y-66798989D01*
X121291193Y-66628460D01*
X121446972Y-66471865D01*
X121621115Y-66332243D01*
X121809942Y-66212629D01*
X122009777Y-66116060D01*
X122046901Y-66101232D01*
X122266084Y-66031331D01*
X122490474Y-65988615D01*
X122717483Y-65972983D01*
X122944523Y-65984332D01*
G37*
G36*
X123124924Y-71923136D02*
G01*
X123243774Y-71923817D01*
X123340052Y-71925503D01*
X123416776Y-71928699D01*
X123476966Y-71933907D01*
X123523639Y-71941631D01*
X123559812Y-71952376D01*
X123588504Y-71966646D01*
X123612734Y-71984943D01*
X123635518Y-72007772D01*
X123659876Y-72035637D01*
X123665420Y-72042273D01*
X123712618Y-72120237D01*
X123732772Y-72202501D01*
X123726119Y-72285444D01*
X123692897Y-72365443D01*
X123633345Y-72438874D01*
X123621157Y-72450193D01*
X123592838Y-72473408D01*
X123563017Y-72491304D01*
X123527835Y-72504544D01*
X123483433Y-72513788D01*
X123425952Y-72519699D01*
X123351534Y-72522937D01*
X123256318Y-72524163D01*
X123136447Y-72524040D01*
X123079999Y-72523989D01*
X122981782Y-72524803D01*
X122891803Y-72526648D01*
X122815132Y-72529369D01*
X122756840Y-72532808D01*
X122721997Y-72536809D01*
X122689820Y-72544959D01*
X122619010Y-72578439D01*
X122565758Y-72626659D01*
X122532059Y-72685186D01*
X122519910Y-72749585D01*
X122531307Y-72815424D01*
X122568247Y-72878269D01*
X122583378Y-72896019D01*
X122602108Y-72915647D01*
X122622223Y-72931390D01*
X122646737Y-72943696D01*
X122678666Y-72953011D01*
X122721025Y-72959782D01*
X122776831Y-72964456D01*
X122849098Y-72967480D01*
X122940841Y-72969300D01*
X123055077Y-72970364D01*
X123194820Y-72971118D01*
X123295752Y-72971817D01*
X123405545Y-72973077D01*
X123503645Y-72974739D01*
X123586688Y-72976720D01*
X123651306Y-72978938D01*
X123694134Y-72981310D01*
X123711805Y-72983755D01*
X123719797Y-72990436D01*
X123727229Y-73016967D01*
X123711191Y-73046464D01*
X123710966Y-73046677D01*
X123697248Y-73051548D01*
X123666758Y-73055485D01*
X123617538Y-73058555D01*
X123547631Y-73060821D01*
X123455078Y-73062347D01*
X123337923Y-73063199D01*
X123194207Y-73063439D01*
X123174771Y-73063433D01*
X123045727Y-73063338D01*
X122941589Y-73063018D01*
X122859168Y-73062284D01*
X122795275Y-73060949D01*
X122746722Y-73058825D01*
X122710319Y-73055726D01*
X122682879Y-73051464D01*
X122661212Y-73045851D01*
X122642130Y-73038700D01*
X122622445Y-73029822D01*
X122569601Y-72999921D01*
X122502958Y-72940342D01*
X122458171Y-72870056D01*
X122435102Y-72793367D01*
X122433610Y-72714580D01*
X122453559Y-72638001D01*
X122494808Y-72567933D01*
X122557220Y-72508683D01*
X122640655Y-72464554D01*
X122662656Y-72456919D01*
X122689273Y-72449871D01*
X122720648Y-72444601D01*
X122760743Y-72440855D01*
X122813517Y-72438381D01*
X122882932Y-72436926D01*
X122972947Y-72436238D01*
X123087524Y-72436065D01*
X123118342Y-72436046D01*
X123234677Y-72435477D01*
X123326195Y-72434017D01*
X123395898Y-72431523D01*
X123446789Y-72427855D01*
X123481870Y-72422871D01*
X123504143Y-72416429D01*
X123534695Y-72400880D01*
X123591285Y-72353365D01*
X123626834Y-72294422D01*
X123640726Y-72229382D01*
X123632347Y-72163578D01*
X123601081Y-72102340D01*
X123546313Y-72051001D01*
X123492988Y-72015347D01*
X122984457Y-72011271D01*
X122918735Y-72010714D01*
X122793620Y-72009388D01*
X122693151Y-72007822D01*
X122614661Y-72005891D01*
X122555485Y-72003466D01*
X122512957Y-72000423D01*
X122484410Y-71996634D01*
X122467178Y-71991973D01*
X122458595Y-71986314D01*
X122448541Y-71967138D01*
X122459019Y-71944038D01*
X122463873Y-71940001D01*
X122476877Y-71935034D01*
X122499321Y-71931095D01*
X122533931Y-71928077D01*
X122583433Y-71925869D01*
X122650553Y-71924363D01*
X122738017Y-71923448D01*
X122848551Y-71923017D01*
X122984880Y-71922959D01*
X123124924Y-71923136D01*
G37*
G36*
X128028842Y-71271970D02*
G01*
X128049084Y-71294196D01*
X128050703Y-71300862D01*
X128053648Y-71333986D01*
X128056236Y-71390995D01*
X128058467Y-71468806D01*
X128060341Y-71564336D01*
X128061857Y-71674504D01*
X128063017Y-71796225D01*
X128063820Y-71926417D01*
X128064265Y-72061999D01*
X128064354Y-72199886D01*
X128064085Y-72336996D01*
X128063460Y-72470247D01*
X128062477Y-72596556D01*
X128061138Y-72712840D01*
X128059441Y-72816016D01*
X128057387Y-72903002D01*
X128054976Y-72970716D01*
X128052209Y-73016073D01*
X128049084Y-73035992D01*
X128036403Y-73052284D01*
X128013932Y-73063578D01*
X128003634Y-73062211D01*
X127991978Y-73054555D01*
X127982818Y-73037702D01*
X127975864Y-73008891D01*
X127970824Y-72965362D01*
X127967410Y-72904354D01*
X127965331Y-72823108D01*
X127964296Y-72718863D01*
X127964016Y-72588859D01*
X127964014Y-72558438D01*
X127963914Y-72444155D01*
X127963488Y-72354213D01*
X127962499Y-72285220D01*
X127960713Y-72233783D01*
X127957894Y-72196510D01*
X127953807Y-72170007D01*
X127948217Y-72150881D01*
X127940889Y-72135741D01*
X127931588Y-72121192D01*
X127929073Y-72117566D01*
X127892575Y-72075719D01*
X127851039Y-72040644D01*
X127840962Y-72034048D01*
X127825534Y-72025705D01*
X127807099Y-72019384D01*
X127782011Y-72014804D01*
X127746625Y-72011685D01*
X127697297Y-72009747D01*
X127630381Y-72008709D01*
X127542231Y-72008293D01*
X127429204Y-72008216D01*
X127355989Y-72008240D01*
X127258789Y-72008500D01*
X127184220Y-72009276D01*
X127128644Y-72010846D01*
X127088423Y-72013487D01*
X127059920Y-72017476D01*
X127039497Y-72023090D01*
X127023516Y-72030607D01*
X127008340Y-72040305D01*
X127004516Y-72042969D01*
X126964260Y-72076691D01*
X126931357Y-72112622D01*
X126930314Y-72114038D01*
X126922097Y-72126731D01*
X126915519Y-72141994D01*
X126910329Y-72163070D01*
X126906279Y-72193203D01*
X126903119Y-72235638D01*
X126900600Y-72293618D01*
X126898472Y-72370387D01*
X126896486Y-72469189D01*
X126894392Y-72593269D01*
X126892845Y-72678437D01*
X126889700Y-72805886D01*
X126885995Y-72907298D01*
X126881759Y-72982051D01*
X126877023Y-73029525D01*
X126871819Y-73049100D01*
X126860708Y-73055639D01*
X126832599Y-73055389D01*
X126828253Y-73052947D01*
X126822407Y-73044918D01*
X126817853Y-73029233D01*
X126814435Y-73002912D01*
X126811992Y-72962973D01*
X126810368Y-72906435D01*
X126809404Y-72830318D01*
X126808941Y-72731640D01*
X126808822Y-72607421D01*
X126808906Y-72502625D01*
X126809500Y-72390998D01*
X126811063Y-72301886D01*
X126814049Y-72231915D01*
X126818913Y-72177708D01*
X126826110Y-72135890D01*
X126836096Y-72103085D01*
X126849326Y-72075917D01*
X126866254Y-72051010D01*
X126887335Y-72024990D01*
X126892833Y-72018735D01*
X126932958Y-71980981D01*
X126976999Y-71948395D01*
X126984453Y-71943844D01*
X127001540Y-71934758D01*
X127020884Y-71927767D01*
X127046238Y-71922531D01*
X127081354Y-71918715D01*
X127129983Y-71915982D01*
X127195878Y-71913994D01*
X127282792Y-71912416D01*
X127394475Y-71910909D01*
X127401751Y-71910817D01*
X127513108Y-71909576D01*
X127600320Y-71909136D01*
X127667520Y-71909728D01*
X127718841Y-71911584D01*
X127758417Y-71914934D01*
X127790381Y-71920009D01*
X127818865Y-71927042D01*
X127848005Y-71936262D01*
X127893042Y-71949786D01*
X127930921Y-71957885D01*
X127950477Y-71957853D01*
X127951485Y-71956503D01*
X127955611Y-71934061D01*
X127959071Y-71887314D01*
X127961722Y-71819702D01*
X127963418Y-71734662D01*
X127964016Y-71635634D01*
X127964069Y-71593412D01*
X127964947Y-71488541D01*
X127967225Y-71408111D01*
X127971311Y-71349096D01*
X127977615Y-71308466D01*
X127986547Y-71283194D01*
X127998516Y-71270251D01*
X128013932Y-71266610D01*
X128028842Y-71271970D01*
G37*
G36*
X121116553Y-71280924D02*
G01*
X121170760Y-71289361D01*
X121213894Y-71315284D01*
X121253909Y-71349696D01*
X121257895Y-72228030D01*
X121261880Y-73106363D01*
X121140393Y-73106363D01*
X121018905Y-73106363D01*
X121015183Y-72510939D01*
X121014446Y-72396893D01*
X121013497Y-72271107D01*
X121012442Y-72169356D01*
X121011152Y-72089098D01*
X121009494Y-72027790D01*
X121007337Y-71982890D01*
X121004551Y-71951855D01*
X121001005Y-71932142D01*
X120996567Y-71921210D01*
X120991106Y-71916515D01*
X120984492Y-71915515D01*
X120968649Y-71918669D01*
X120945360Y-71936908D01*
X120938506Y-71949919D01*
X120919479Y-71988001D01*
X120891646Y-72044801D01*
X120857028Y-72116101D01*
X120817647Y-72197684D01*
X120775524Y-72285333D01*
X120732681Y-72374832D01*
X120691138Y-72461963D01*
X120652918Y-72542509D01*
X120620041Y-72612253D01*
X120594528Y-72666978D01*
X120578402Y-72702468D01*
X120559928Y-72743130D01*
X120523076Y-72818547D01*
X120484029Y-72892672D01*
X120446227Y-72959309D01*
X120413109Y-73012263D01*
X120388112Y-73045337D01*
X120337813Y-73082563D01*
X120272658Y-73100188D01*
X120204390Y-73091676D01*
X120197029Y-73089070D01*
X120154022Y-73067999D01*
X120121937Y-73043632D01*
X120112322Y-73029998D01*
X120091441Y-72994903D01*
X120063774Y-72945330D01*
X120032270Y-72886908D01*
X119999879Y-72825268D01*
X119969551Y-72766038D01*
X119944236Y-72714848D01*
X119926884Y-72677328D01*
X119920445Y-72659106D01*
X119918403Y-72653746D01*
X119905990Y-72626340D01*
X119883821Y-72579105D01*
X119853639Y-72515715D01*
X119817189Y-72439847D01*
X119776214Y-72355175D01*
X119757220Y-72316012D01*
X119714385Y-72227388D01*
X119674728Y-72144933D01*
X119640578Y-72073515D01*
X119614266Y-72018001D01*
X119598123Y-71983258D01*
X119580400Y-71947740D01*
X119557794Y-71917551D01*
X119535560Y-71908384D01*
X119535033Y-71908385D01*
X119528114Y-71909133D01*
X119522432Y-71913001D01*
X119517864Y-71922529D01*
X119514290Y-71940258D01*
X119511588Y-71968729D01*
X119509635Y-72010481D01*
X119508310Y-72068054D01*
X119507492Y-72143990D01*
X119507058Y-72240829D01*
X119506887Y-72361110D01*
X119506857Y-72507374D01*
X119506857Y-73106363D01*
X119386279Y-73106363D01*
X119265701Y-73106363D01*
X119257134Y-73060013D01*
X119256030Y-73046572D01*
X119254689Y-73005230D01*
X119253594Y-72940043D01*
X119252757Y-72853735D01*
X119252192Y-72749031D01*
X119251913Y-72628655D01*
X119251933Y-72495333D01*
X119252265Y-72351789D01*
X119252922Y-72200748D01*
X119253647Y-72071129D01*
X119254652Y-71916208D01*
X119255737Y-71785873D01*
X119256977Y-71677844D01*
X119258451Y-71589843D01*
X119260234Y-71519591D01*
X119262402Y-71464809D01*
X119265033Y-71423220D01*
X119268202Y-71392544D01*
X119271987Y-71370503D01*
X119276464Y-71354819D01*
X119281708Y-71343212D01*
X119295547Y-71320640D01*
X119321185Y-71295738D01*
X119357271Y-71283886D01*
X119412654Y-71280872D01*
X119443710Y-71283240D01*
X119473188Y-71293031D01*
X119501045Y-71313375D01*
X119529888Y-71347388D01*
X119562328Y-71398187D01*
X119600971Y-71468889D01*
X119648427Y-71562612D01*
X119670259Y-71606736D01*
X119701628Y-71670627D01*
X119726687Y-71722284D01*
X119743293Y-71757279D01*
X119749305Y-71771182D01*
X119754480Y-71783606D01*
X119770146Y-71817896D01*
X119794384Y-71869832D01*
X119825249Y-71935251D01*
X119860799Y-72009992D01*
X119887433Y-72065899D01*
X119928909Y-72153378D01*
X119968471Y-72237263D01*
X120002644Y-72310181D01*
X120027953Y-72364757D01*
X120060836Y-72435461D01*
X120110389Y-72538185D01*
X120154124Y-72623974D01*
X120190774Y-72690471D01*
X120219077Y-72735317D01*
X120237766Y-72756153D01*
X120238985Y-72756873D01*
X120258506Y-72765131D01*
X120276718Y-72763682D01*
X120295710Y-72749774D01*
X120317572Y-72720654D01*
X120344394Y-72673570D01*
X120378267Y-72605771D01*
X120421279Y-72514504D01*
X120471070Y-72407481D01*
X120562839Y-72211022D01*
X120650203Y-72025030D01*
X120731690Y-71852609D01*
X120805833Y-71696864D01*
X120871160Y-71560899D01*
X120926204Y-71447818D01*
X120936049Y-71428238D01*
X120977041Y-71358778D01*
X121017353Y-71313280D01*
X121060655Y-71288420D01*
X121110621Y-71280872D01*
X121116553Y-71280924D01*
G37*
G36*
X122258352Y-63718468D02*
G01*
X122285250Y-63768673D01*
X122331348Y-63854367D01*
X122376104Y-63937189D01*
X122415498Y-64009703D01*
X122445507Y-64064476D01*
X122455856Y-64083271D01*
X122497076Y-64158815D01*
X122541281Y-64240637D01*
X122580528Y-64314055D01*
X122621502Y-64391367D01*
X122679945Y-64501626D01*
X122727425Y-64590482D01*
X122765587Y-64660232D01*
X122796074Y-64713175D01*
X122820530Y-64751606D01*
X122840600Y-64777822D01*
X122857928Y-64794121D01*
X122874158Y-64802800D01*
X122890933Y-64806155D01*
X122909898Y-64806483D01*
X122932697Y-64806082D01*
X122971100Y-64807095D01*
X123076414Y-64816796D01*
X123198641Y-64835563D01*
X123331260Y-64861899D01*
X123467753Y-64894309D01*
X123601598Y-64931299D01*
X123726276Y-64971374D01*
X123835268Y-65013038D01*
X123893370Y-65037740D01*
X123955560Y-65064482D01*
X123999043Y-65083703D01*
X124028286Y-65097389D01*
X124047754Y-65107526D01*
X124053153Y-65110521D01*
X124084201Y-65127386D01*
X124130174Y-65152088D01*
X124183240Y-65180413D01*
X124206976Y-65193084D01*
X124252864Y-65218140D01*
X124292501Y-65241166D01*
X124331738Y-65265939D01*
X124376427Y-65296240D01*
X124432419Y-65335845D01*
X124505565Y-65388532D01*
X124531064Y-65407735D01*
X124600092Y-65464673D01*
X124680003Y-65535749D01*
X124765432Y-65615762D01*
X124851014Y-65699512D01*
X124931386Y-65781798D01*
X125001182Y-65857421D01*
X125055038Y-65921179D01*
X125070839Y-65941455D01*
X125125628Y-66014795D01*
X125183378Y-66097220D01*
X125249645Y-66196593D01*
X125264048Y-66219651D01*
X125299977Y-66282729D01*
X125341616Y-66361193D01*
X125385321Y-66447745D01*
X125427449Y-66535083D01*
X125464356Y-66615909D01*
X125492398Y-66682924D01*
X125510599Y-66729854D01*
X125531594Y-66784471D01*
X125545707Y-66822357D01*
X125555066Y-66849491D01*
X125561798Y-66871851D01*
X125568030Y-66895414D01*
X125568580Y-66897562D01*
X125578130Y-66934364D01*
X125591944Y-66987119D01*
X125607231Y-67045161D01*
X125622335Y-67107226D01*
X125638743Y-67184298D01*
X125650932Y-67251955D01*
X125658816Y-67302653D01*
X125670729Y-67378667D01*
X125681396Y-67446132D01*
X125685576Y-67479347D01*
X125691025Y-67553695D01*
X125694463Y-67644566D01*
X125695889Y-67744470D01*
X125695302Y-67845917D01*
X125692701Y-67941417D01*
X125688086Y-68023481D01*
X125681456Y-68084618D01*
X125666261Y-68177491D01*
X125634456Y-68351561D01*
X125601187Y-68504315D01*
X125565100Y-68640614D01*
X125524839Y-68765319D01*
X125479047Y-68883290D01*
X125426371Y-68999390D01*
X125422447Y-69007539D01*
X125394805Y-69071246D01*
X125383606Y-69117827D01*
X125389737Y-69153458D01*
X125414083Y-69184318D01*
X125457531Y-69216584D01*
X125478387Y-69230312D01*
X125524023Y-69260389D01*
X125587526Y-69302265D01*
X125665541Y-69353728D01*
X125754715Y-69412565D01*
X125851694Y-69476563D01*
X125953123Y-69543511D01*
X126035073Y-69597549D01*
X126130907Y-69660593D01*
X126218631Y-69718141D01*
X126295109Y-69768146D01*
X126357207Y-69808557D01*
X126401789Y-69837325D01*
X126425720Y-69852401D01*
X126448738Y-69866453D01*
X126480629Y-69889546D01*
X126496453Y-69912531D01*
X126497320Y-69941947D01*
X126484341Y-69984332D01*
X126458624Y-70046225D01*
X126445551Y-70075541D01*
X126421840Y-70123274D01*
X126402144Y-70156193D01*
X126389749Y-70168463D01*
X126387031Y-70168106D01*
X126361797Y-70161222D01*
X126316635Y-70146908D01*
X126256967Y-70126925D01*
X126188213Y-70103033D01*
X126109962Y-70075513D01*
X126018855Y-70043709D01*
X125931886Y-70013566D01*
X125860422Y-69989035D01*
X125817062Y-69974094D01*
X125759357Y-69953643D01*
X125714376Y-69937025D01*
X125689282Y-69926844D01*
X125678687Y-69922287D01*
X125640599Y-69907742D01*
X125585079Y-69887682D01*
X125518451Y-69864273D01*
X125447038Y-69839684D01*
X125377167Y-69816081D01*
X125315160Y-69795633D01*
X125267343Y-69780507D01*
X125240040Y-69772871D01*
X125214360Y-69765587D01*
X125190012Y-69754081D01*
X125183560Y-69750114D01*
X125153972Y-69736675D01*
X125113324Y-69721383D01*
X125092102Y-69714716D01*
X125054501Y-69708545D01*
X125019304Y-69714025D01*
X124981067Y-69733478D01*
X124934347Y-69769227D01*
X124873701Y-69823592D01*
X124845001Y-69850173D01*
X124732772Y-69952389D01*
X124632766Y-70039612D01*
X124540172Y-70115108D01*
X124450181Y-70182143D01*
X124357982Y-70243987D01*
X124258767Y-70303905D01*
X124147725Y-70365166D01*
X124020047Y-70431036D01*
X123870922Y-70504783D01*
X123837329Y-70518857D01*
X123781162Y-70539322D01*
X123711095Y-70563098D01*
X123634161Y-70587919D01*
X123557392Y-70611521D01*
X123487820Y-70631638D01*
X123432477Y-70646005D01*
X123381912Y-70658036D01*
X123325885Y-70671772D01*
X123284540Y-70682350D01*
X123282850Y-70682795D01*
X123230707Y-70692671D01*
X123177577Y-70697566D01*
X123172305Y-70697747D01*
X123125193Y-70702442D01*
X123086531Y-70710763D01*
X123084125Y-70711390D01*
X123055355Y-70714327D01*
X123003850Y-70716434D01*
X122934497Y-70717751D01*
X122852182Y-70718316D01*
X122761793Y-70718170D01*
X122668215Y-70717352D01*
X122576336Y-70715903D01*
X122491041Y-70713860D01*
X122417218Y-70711265D01*
X122359753Y-70708157D01*
X122323533Y-70704575D01*
X122162149Y-70674991D01*
X121873142Y-70600750D01*
X121596896Y-70501123D01*
X121332828Y-70375885D01*
X121080351Y-70224809D01*
X121016133Y-70181683D01*
X120954069Y-70138303D01*
X120899479Y-70097315D01*
X120846859Y-70054183D01*
X120790707Y-70004370D01*
X120725517Y-69943337D01*
X120645787Y-69866549D01*
X120617231Y-69839038D01*
X120563956Y-69788770D01*
X120518777Y-69747512D01*
X120485762Y-69718938D01*
X120468979Y-69706726D01*
X120463715Y-69706029D01*
X120431306Y-69711145D01*
X120373411Y-69726471D01*
X120290781Y-69751765D01*
X120184166Y-69786781D01*
X120054317Y-69831277D01*
X119901982Y-69885008D01*
X119727912Y-69947730D01*
X119693546Y-69960144D01*
X119617459Y-69987202D01*
X119544092Y-70012810D01*
X119485464Y-70032753D01*
X119481738Y-70033992D01*
X119429649Y-70051549D01*
X119386714Y-70066407D01*
X119361905Y-70075466D01*
X119352433Y-70077261D01*
X119329703Y-70065855D01*
X119301293Y-70030720D01*
X119290940Y-70014764D01*
X119271941Y-69980456D01*
X119264409Y-69958599D01*
X119269718Y-69948870D01*
X119294306Y-69927922D01*
X119332152Y-69904730D01*
X119355475Y-69892216D01*
X119404235Y-69865494D01*
X119442679Y-69843746D01*
X119453863Y-69837218D01*
X119521264Y-69797707D01*
X119595490Y-69753976D01*
X119670252Y-69709751D01*
X119739262Y-69668758D01*
X119796233Y-69634722D01*
X119834875Y-69611370D01*
X119855043Y-69599129D01*
X119905794Y-69569009D01*
X119948968Y-69544194D01*
X119988065Y-69522210D01*
X120067106Y-69476734D01*
X120133432Y-69437135D01*
X120182890Y-69405924D01*
X120211327Y-69385611D01*
X120219981Y-69378557D01*
X120236667Y-69370742D01*
X120245444Y-69383026D01*
X120252146Y-69395186D01*
X120274455Y-69425325D01*
X120305322Y-69461465D01*
X120324877Y-69483231D01*
X120359728Y-69523098D01*
X120385299Y-69553676D01*
X120412535Y-69584183D01*
X120447850Y-69617854D01*
X120457770Y-69626480D01*
X120491165Y-69656475D01*
X120535303Y-69696879D01*
X120583336Y-69741445D01*
X120606167Y-69762541D01*
X120653097Y-69804533D01*
X120693003Y-69838518D01*
X120719097Y-69858636D01*
X120731259Y-69866811D01*
X120770453Y-69893759D01*
X120813090Y-69923653D01*
X120837337Y-69940441D01*
X120947034Y-70009304D01*
X121072125Y-70078818D01*
X121203279Y-70144262D01*
X121331161Y-70200917D01*
X121446441Y-70244059D01*
X121476455Y-70253818D01*
X121612214Y-70294480D01*
X121738082Y-70325171D01*
X121861676Y-70347034D01*
X121990616Y-70361207D01*
X122132521Y-70368831D01*
X122295010Y-70371046D01*
X122327120Y-70370954D01*
X122479671Y-70367903D01*
X122612781Y-70359757D01*
X122733853Y-70345445D01*
X122850292Y-70323894D01*
X122969503Y-70294036D01*
X123098890Y-70254799D01*
X123302734Y-70180148D01*
X123494241Y-70091034D01*
X123678524Y-69984405D01*
X123861049Y-69857100D01*
X124047285Y-69705952D01*
X124081385Y-69674456D01*
X124130500Y-69624629D01*
X124184419Y-69566322D01*
X124239643Y-69503697D01*
X124292672Y-69440911D01*
X124340008Y-69382125D01*
X124378151Y-69331498D01*
X124403603Y-69293189D01*
X124412865Y-69271358D01*
X124413019Y-69269245D01*
X124425659Y-69253340D01*
X124433680Y-69247343D01*
X124456666Y-69218503D01*
X124488323Y-69170115D01*
X124526459Y-69106279D01*
X124568880Y-69031092D01*
X124613394Y-68948654D01*
X124657808Y-68863063D01*
X124699930Y-68778420D01*
X124737566Y-68698822D01*
X124768523Y-68628368D01*
X124790609Y-68571158D01*
X124803451Y-68532135D01*
X124831823Y-68436507D01*
X124860561Y-68329028D01*
X124887248Y-68219400D01*
X124909466Y-68117328D01*
X124924797Y-68032516D01*
X124929778Y-67991601D01*
X124935892Y-67905213D01*
X124939365Y-67802111D01*
X124940253Y-67689585D01*
X124938612Y-67574925D01*
X124934499Y-67465418D01*
X124927969Y-67368354D01*
X124919079Y-67291021D01*
X124913020Y-67253542D01*
X124853557Y-66985507D01*
X124767543Y-66727687D01*
X124655352Y-66480926D01*
X124517360Y-66246064D01*
X124353943Y-66023944D01*
X124344954Y-66013113D01*
X124298610Y-65960794D01*
X124242640Y-65901857D01*
X124180702Y-65839711D01*
X124116458Y-65777767D01*
X124053568Y-65719437D01*
X123995693Y-65668132D01*
X123946493Y-65627262D01*
X123909629Y-65600239D01*
X123888761Y-65590473D01*
X123879401Y-65587833D01*
X123858151Y-65570877D01*
X123843178Y-65556277D01*
X123799248Y-65524022D01*
X123736416Y-65484863D01*
X123659425Y-65441268D01*
X123573015Y-65395702D01*
X123481928Y-65350632D01*
X123390905Y-65308525D01*
X123304687Y-65271847D01*
X123228015Y-65243065D01*
X123211662Y-65237510D01*
X123091429Y-65198958D01*
X122981873Y-65168976D01*
X122876482Y-65146585D01*
X122768743Y-65130802D01*
X122652144Y-65120648D01*
X122520173Y-65115142D01*
X122366318Y-65113303D01*
X122249538Y-65113885D01*
X122126514Y-65117343D01*
X122016225Y-65124799D01*
X121913112Y-65137300D01*
X121811618Y-65155894D01*
X121706181Y-65181626D01*
X121591245Y-65215545D01*
X121461248Y-65258697D01*
X121310633Y-65312129D01*
X121229211Y-65343950D01*
X121133363Y-65385967D01*
X121035430Y-65432829D01*
X120941168Y-65481553D01*
X120856331Y-65529157D01*
X120786671Y-65572656D01*
X120737944Y-65609067D01*
X120712097Y-65626309D01*
X120690610Y-65630893D01*
X120691406Y-65625610D01*
X120708748Y-65605221D01*
X120741859Y-65572892D01*
X120786820Y-65532071D01*
X120839711Y-65486204D01*
X120896613Y-65438738D01*
X120953608Y-65393122D01*
X121006776Y-65352801D01*
X121045399Y-65326173D01*
X121105868Y-65287762D01*
X121177297Y-65244795D01*
X121255271Y-65199695D01*
X121335372Y-65154886D01*
X121413187Y-65112791D01*
X121484299Y-65075833D01*
X121544292Y-65046434D01*
X121588751Y-65027017D01*
X121613259Y-65020007D01*
X121614146Y-65019917D01*
X121633188Y-65013536D01*
X121665342Y-65000175D01*
X121681139Y-64993288D01*
X121769281Y-64958342D01*
X121863179Y-64927649D01*
X121974122Y-64897452D01*
X122009240Y-64887937D01*
X122064557Y-64870198D01*
X122106059Y-64853334D01*
X122126727Y-64839989D01*
X122127702Y-64838678D01*
X122132540Y-64831713D01*
X122135976Y-64823620D01*
X122137503Y-64811986D01*
X122136614Y-64794400D01*
X122132801Y-64768450D01*
X122125558Y-64731725D01*
X122114377Y-64681813D01*
X122098752Y-64616303D01*
X122078176Y-64532782D01*
X122052141Y-64428841D01*
X122020140Y-64302066D01*
X121981667Y-64150046D01*
X121951652Y-64031270D01*
X121919380Y-63902815D01*
X121893305Y-63797815D01*
X121872898Y-63713937D01*
X121857631Y-63648851D01*
X121846979Y-63600225D01*
X121840412Y-63565727D01*
X121837404Y-63543026D01*
X121837427Y-63529791D01*
X121839953Y-63523690D01*
X121849224Y-63520015D01*
X121882865Y-63513762D01*
X121933889Y-63507698D01*
X121995515Y-63502737D01*
X122138131Y-63493685D01*
X122258352Y-63718468D01*
G37*
%TD*%
M02*
