M48
; DRILL file {KiCad 7.0.7} date Sat Feb 10 00:47:28 2024
; FORMAT={-:-/ absolute / metric / decimal}
; #@! TF.CreationDate,2024-02-10T00:47:28+05:30
; #@! TF.GenerationSoftware,Kicad,Pcbnew,7.0.7
; #@! TF.FileFunction,Plated,1,2,PTH
FMAT,2
METRIC
; #@! TA.AperFunction,Plated,PTH,ViaDrill
T1C0.400
; #@! TA.AperFunction,Plated,PTH,ComponentDrill
T2C1.000
; #@! TA.AperFunction,Plated,PTH,ComponentDrill
T3C8.400
%
G90
G05
T1
X117.958Y-83.718
X119.024Y-80.264
X119.685Y-78.486
X120.701Y-71.12
X121.412Y-73.152
X121.463Y-71.933
X122.25Y-111.125
X122.834Y-73.863
X122.987Y-78.435
X123.038Y-91.745
X123.495Y-72.898
X123.546Y-79.498
X124.612Y-77.318
X124.612Y-88.849
X124.638Y-115.799
X125.425Y-75.692
X125.628Y-97.282
X126.517Y-108.687
X126.848Y-74.93
X128.016Y-78.689
X128.321Y-80.315
X129.489Y-87.681
X130.353Y-84.633
X130.454Y-105.994
X131.877Y-91.186
X133.198Y-86.309
X133.198Y-95.606
X134.214Y-94.488
X135.052Y-81.813
X135.128Y-87.859
X135.763Y-111.557
X137.338Y-92.431
X137.617Y-84.582
X138.125Y-90.983
X138.227Y-75.33
X138.709Y-65.278
X138.887Y-90.018
X139.243Y-72.949
X139.649Y-69.698
X140.31Y-91.745
X140.716Y-61.138
X141.681Y-76.098
X142.189Y-89.256
X142.392Y-67.564
X142.443Y-70.663
X142.469Y-117.551
X142.748Y-82.702
X142.85Y-78.638
X143.307Y-66.091
X143.916Y-71.679
X144.983Y-100.381
X146.456Y-72.644
X147.015Y-67.31
X147.015Y-78.613
X147.168Y-73.355
X147.168Y-82.677
X147.371Y-95.402
X148.819Y-86.538
X149.758Y-99.009
X149.758Y-113.081
X151.79Y-70.714
X151.892Y-73.558
X152.603Y-100.228
X153.162Y-80.01
X153.822Y-98.298
X154.33Y-79.045
X154.94Y-83.566
X155.804Y-66.497
X156.159Y-71.526
X158.445Y-72.542
X159.461Y-89.662
X159.664Y-70.358
X159.817Y-81.534
X159.918Y-76.403
X160.122Y-68.783
X160.325Y-93.269
X160.579Y-90.221
X160.579Y-101.346
X161.087Y-74.473
X162.052Y-76.2
X162.052Y-101.702
X162.103Y-87.376
X162.154Y-71.984
X162.255Y-75.082
X162.509Y-80.874
X163.017Y-68.072
X163.017Y-91.796
X163.271Y-93.32
X163.627Y-82.093
X163.805Y-111.277
X163.982Y-78.232
X164.033Y-99.263
X164.135Y-71.171
X164.643Y-89.611
X165.151Y-102.006
X165.354Y-73.609
X165.456Y-77.876
X165.862Y-82.702
X165.964Y-100.127
X166.827Y-79.045
X167.284Y-98.857
X167.64Y-82.804
X168.3Y-70.053
X168.656Y-80.01
X168.808Y-90.983
X169.672Y-75.387
X169.672Y-82.042
T2
X115.711Y-65.96
X115.711Y-68.5
X115.711Y-71.04
X115.711Y-73.58
X115.711Y-76.12
X115.711Y-78.66
X115.711Y-81.2
X115.711Y-83.74
X115.711Y-86.28
X115.711Y-88.82
X115.711Y-91.36
X115.711Y-93.9
X115.711Y-96.44
X115.711Y-98.98
X115.711Y-101.52
X126.136Y-55.575
X127.33Y-64.262
X128.676Y-55.575
X129.87Y-64.262
X131.216Y-55.575
X132.41Y-64.262
X133.756Y-55.575
X136.296Y-55.575
X138.836Y-55.575
X141.376Y-55.575
X143.256Y-61.925
X143.256Y-64.465
X143.916Y-55.575
X145.796Y-61.925
X145.796Y-64.465
X146.456Y-55.575
X148.336Y-61.925
X148.336Y-64.465
X148.996Y-55.575
X150.876Y-61.925
X150.876Y-64.465
X151.536Y-55.575
X153.416Y-61.925
X153.416Y-64.465
X154.076Y-55.575
X155.956Y-61.925
X155.956Y-64.465
X156.616Y-55.575
X158.496Y-61.925
X158.496Y-64.465
X159.156Y-55.575
X161.036Y-61.925
X161.036Y-64.465
X161.696Y-55.575
X163.576Y-61.925
X163.576Y-64.465
X166.116Y-61.925
X166.116Y-64.465
X172.111Y-65.99
X172.111Y-68.53
X172.111Y-71.07
X172.111Y-73.61
X172.111Y-76.15
X172.111Y-78.69
X172.111Y-81.23
X172.111Y-83.77
X172.111Y-86.31
X172.111Y-88.85
X172.111Y-91.39
X172.111Y-93.93
X172.111Y-96.47
X172.111Y-99.01
X172.111Y-101.55
T3
X116.111Y-55.875
X116.111Y-111.575
X171.711Y-55.89
X171.711Y-111.575
T0
M30
