%TF.GenerationSoftware,KiCad,Pcbnew,7.0.7*%
%TF.CreationDate,2024-02-10T00:47:22+05:30*%
%TF.ProjectId,MC_stack,4d435f73-7461-4636-9b2e-6b696361645f,rev?*%
%TF.SameCoordinates,Original*%
%TF.FileFunction,Legend,Top*%
%TF.FilePolarity,Positive*%
%FSLAX46Y46*%
G04 Gerber Fmt 4.6, Leading zero omitted, Abs format (unit mm)*
G04 Created by KiCad (PCBNEW 7.0.7) date 2024-02-10 00:47:22*
%MOMM*%
%LPD*%
G01*
G04 APERTURE LIST*
%ADD10C,0.125000*%
%ADD11C,0.150000*%
%ADD12C,0.100000*%
%ADD13C,0.120000*%
G04 APERTURE END LIST*
D10*
X132085988Y-66283519D02*
X132038369Y-66259709D01*
X132038369Y-66259709D02*
X131966940Y-66259709D01*
X131966940Y-66259709D02*
X131895512Y-66283519D01*
X131895512Y-66283519D02*
X131847893Y-66331138D01*
X131847893Y-66331138D02*
X131824083Y-66378757D01*
X131824083Y-66378757D02*
X131800274Y-66473995D01*
X131800274Y-66473995D02*
X131800274Y-66545423D01*
X131800274Y-66545423D02*
X131824083Y-66640661D01*
X131824083Y-66640661D02*
X131847893Y-66688280D01*
X131847893Y-66688280D02*
X131895512Y-66735900D01*
X131895512Y-66735900D02*
X131966940Y-66759709D01*
X131966940Y-66759709D02*
X132014559Y-66759709D01*
X132014559Y-66759709D02*
X132085988Y-66735900D01*
X132085988Y-66735900D02*
X132109797Y-66712090D01*
X132109797Y-66712090D02*
X132109797Y-66545423D01*
X132109797Y-66545423D02*
X132014559Y-66545423D01*
X132324083Y-66759709D02*
X132324083Y-66259709D01*
X132324083Y-66259709D02*
X132609797Y-66759709D01*
X132609797Y-66759709D02*
X132609797Y-66259709D01*
X132847893Y-66759709D02*
X132847893Y-66259709D01*
X132847893Y-66259709D02*
X132966941Y-66259709D01*
X132966941Y-66259709D02*
X133038369Y-66283519D01*
X133038369Y-66283519D02*
X133085988Y-66331138D01*
X133085988Y-66331138D02*
X133109798Y-66378757D01*
X133109798Y-66378757D02*
X133133607Y-66473995D01*
X133133607Y-66473995D02*
X133133607Y-66545423D01*
X133133607Y-66545423D02*
X133109798Y-66640661D01*
X133109798Y-66640661D02*
X133085988Y-66688280D01*
X133085988Y-66688280D02*
X133038369Y-66735900D01*
X133038369Y-66735900D02*
X132966941Y-66759709D01*
X132966941Y-66759709D02*
X132847893Y-66759709D01*
X157784474Y-66558100D02*
X157855902Y-66581909D01*
X157855902Y-66581909D02*
X157974950Y-66581909D01*
X157974950Y-66581909D02*
X158022569Y-66558100D01*
X158022569Y-66558100D02*
X158046378Y-66534290D01*
X158046378Y-66534290D02*
X158070188Y-66486671D01*
X158070188Y-66486671D02*
X158070188Y-66439052D01*
X158070188Y-66439052D02*
X158046378Y-66391433D01*
X158046378Y-66391433D02*
X158022569Y-66367623D01*
X158022569Y-66367623D02*
X157974950Y-66343814D01*
X157974950Y-66343814D02*
X157879712Y-66320004D01*
X157879712Y-66320004D02*
X157832093Y-66296195D01*
X157832093Y-66296195D02*
X157808283Y-66272385D01*
X157808283Y-66272385D02*
X157784474Y-66224766D01*
X157784474Y-66224766D02*
X157784474Y-66177147D01*
X157784474Y-66177147D02*
X157808283Y-66129528D01*
X157808283Y-66129528D02*
X157832093Y-66105719D01*
X157832093Y-66105719D02*
X157879712Y-66081909D01*
X157879712Y-66081909D02*
X157998759Y-66081909D01*
X157998759Y-66081909D02*
X158070188Y-66105719D01*
X158236854Y-66081909D02*
X158355902Y-66581909D01*
X158355902Y-66581909D02*
X158451140Y-66224766D01*
X158451140Y-66224766D02*
X158546378Y-66581909D01*
X158546378Y-66581909D02*
X158665426Y-66081909D01*
X158951140Y-66081909D02*
X159046378Y-66081909D01*
X159046378Y-66081909D02*
X159093997Y-66105719D01*
X159093997Y-66105719D02*
X159141616Y-66153338D01*
X159141616Y-66153338D02*
X159165426Y-66248576D01*
X159165426Y-66248576D02*
X159165426Y-66415242D01*
X159165426Y-66415242D02*
X159141616Y-66510480D01*
X159141616Y-66510480D02*
X159093997Y-66558100D01*
X159093997Y-66558100D02*
X159046378Y-66581909D01*
X159046378Y-66581909D02*
X158951140Y-66581909D01*
X158951140Y-66581909D02*
X158903521Y-66558100D01*
X158903521Y-66558100D02*
X158855902Y-66510480D01*
X158855902Y-66510480D02*
X158832093Y-66415242D01*
X158832093Y-66415242D02*
X158832093Y-66248576D01*
X158832093Y-66248576D02*
X158855902Y-66153338D01*
X158855902Y-66153338D02*
X158903521Y-66105719D01*
X158903521Y-66105719D02*
X158951140Y-66081909D01*
X126301150Y-66523204D02*
X126372578Y-66547014D01*
X126372578Y-66547014D02*
X126396388Y-66570823D01*
X126396388Y-66570823D02*
X126420197Y-66618442D01*
X126420197Y-66618442D02*
X126420197Y-66689871D01*
X126420197Y-66689871D02*
X126396388Y-66737490D01*
X126396388Y-66737490D02*
X126372578Y-66761300D01*
X126372578Y-66761300D02*
X126324959Y-66785109D01*
X126324959Y-66785109D02*
X126134483Y-66785109D01*
X126134483Y-66785109D02*
X126134483Y-66285109D01*
X126134483Y-66285109D02*
X126301150Y-66285109D01*
X126301150Y-66285109D02*
X126348769Y-66308919D01*
X126348769Y-66308919D02*
X126372578Y-66332728D01*
X126372578Y-66332728D02*
X126396388Y-66380347D01*
X126396388Y-66380347D02*
X126396388Y-66427966D01*
X126396388Y-66427966D02*
X126372578Y-66475585D01*
X126372578Y-66475585D02*
X126348769Y-66499395D01*
X126348769Y-66499395D02*
X126301150Y-66523204D01*
X126301150Y-66523204D02*
X126134483Y-66523204D01*
X126729721Y-66285109D02*
X126824959Y-66285109D01*
X126824959Y-66285109D02*
X126872578Y-66308919D01*
X126872578Y-66308919D02*
X126920197Y-66356538D01*
X126920197Y-66356538D02*
X126944007Y-66451776D01*
X126944007Y-66451776D02*
X126944007Y-66618442D01*
X126944007Y-66618442D02*
X126920197Y-66713680D01*
X126920197Y-66713680D02*
X126872578Y-66761300D01*
X126872578Y-66761300D02*
X126824959Y-66785109D01*
X126824959Y-66785109D02*
X126729721Y-66785109D01*
X126729721Y-66785109D02*
X126682102Y-66761300D01*
X126682102Y-66761300D02*
X126634483Y-66713680D01*
X126634483Y-66713680D02*
X126610674Y-66618442D01*
X126610674Y-66618442D02*
X126610674Y-66451776D01*
X126610674Y-66451776D02*
X126634483Y-66356538D01*
X126634483Y-66356538D02*
X126682102Y-66308919D01*
X126682102Y-66308919D02*
X126729721Y-66285109D01*
X127253531Y-66285109D02*
X127348769Y-66285109D01*
X127348769Y-66285109D02*
X127396388Y-66308919D01*
X127396388Y-66308919D02*
X127444007Y-66356538D01*
X127444007Y-66356538D02*
X127467817Y-66451776D01*
X127467817Y-66451776D02*
X127467817Y-66618442D01*
X127467817Y-66618442D02*
X127444007Y-66713680D01*
X127444007Y-66713680D02*
X127396388Y-66761300D01*
X127396388Y-66761300D02*
X127348769Y-66785109D01*
X127348769Y-66785109D02*
X127253531Y-66785109D01*
X127253531Y-66785109D02*
X127205912Y-66761300D01*
X127205912Y-66761300D02*
X127158293Y-66713680D01*
X127158293Y-66713680D02*
X127134484Y-66618442D01*
X127134484Y-66618442D02*
X127134484Y-66451776D01*
X127134484Y-66451776D02*
X127158293Y-66356538D01*
X127158293Y-66356538D02*
X127205912Y-66308919D01*
X127205912Y-66308919D02*
X127253531Y-66285109D01*
X127610675Y-66285109D02*
X127896389Y-66285109D01*
X127753532Y-66785109D02*
X127753532Y-66285109D01*
X128158293Y-66285109D02*
X128205912Y-66285109D01*
X128205912Y-66285109D02*
X128253531Y-66308919D01*
X128253531Y-66308919D02*
X128277341Y-66332728D01*
X128277341Y-66332728D02*
X128301150Y-66380347D01*
X128301150Y-66380347D02*
X128324960Y-66475585D01*
X128324960Y-66475585D02*
X128324960Y-66594633D01*
X128324960Y-66594633D02*
X128301150Y-66689871D01*
X128301150Y-66689871D02*
X128277341Y-66737490D01*
X128277341Y-66737490D02*
X128253531Y-66761300D01*
X128253531Y-66761300D02*
X128205912Y-66785109D01*
X128205912Y-66785109D02*
X128158293Y-66785109D01*
X128158293Y-66785109D02*
X128110674Y-66761300D01*
X128110674Y-66761300D02*
X128086865Y-66737490D01*
X128086865Y-66737490D02*
X128063055Y-66689871D01*
X128063055Y-66689871D02*
X128039246Y-66594633D01*
X128039246Y-66594633D02*
X128039246Y-66475585D01*
X128039246Y-66475585D02*
X128063055Y-66380347D01*
X128063055Y-66380347D02*
X128086865Y-66332728D01*
X128086865Y-66332728D02*
X128110674Y-66308919D01*
X128110674Y-66308919D02*
X128158293Y-66285109D01*
X142622264Y-59427109D02*
X142931788Y-59427109D01*
X142931788Y-59427109D02*
X142765121Y-59617585D01*
X142765121Y-59617585D02*
X142836550Y-59617585D01*
X142836550Y-59617585D02*
X142884169Y-59641395D01*
X142884169Y-59641395D02*
X142907978Y-59665204D01*
X142907978Y-59665204D02*
X142931788Y-59712823D01*
X142931788Y-59712823D02*
X142931788Y-59831871D01*
X142931788Y-59831871D02*
X142907978Y-59879490D01*
X142907978Y-59879490D02*
X142884169Y-59903300D01*
X142884169Y-59903300D02*
X142836550Y-59927109D01*
X142836550Y-59927109D02*
X142693693Y-59927109D01*
X142693693Y-59927109D02*
X142646074Y-59903300D01*
X142646074Y-59903300D02*
X142622264Y-59879490D01*
X143146073Y-59879490D02*
X143169883Y-59903300D01*
X143169883Y-59903300D02*
X143146073Y-59927109D01*
X143146073Y-59927109D02*
X143122264Y-59903300D01*
X143122264Y-59903300D02*
X143146073Y-59879490D01*
X143146073Y-59879490D02*
X143146073Y-59927109D01*
X143336549Y-59427109D02*
X143646073Y-59427109D01*
X143646073Y-59427109D02*
X143479406Y-59617585D01*
X143479406Y-59617585D02*
X143550835Y-59617585D01*
X143550835Y-59617585D02*
X143598454Y-59641395D01*
X143598454Y-59641395D02*
X143622263Y-59665204D01*
X143622263Y-59665204D02*
X143646073Y-59712823D01*
X143646073Y-59712823D02*
X143646073Y-59831871D01*
X143646073Y-59831871D02*
X143622263Y-59879490D01*
X143622263Y-59879490D02*
X143598454Y-59903300D01*
X143598454Y-59903300D02*
X143550835Y-59927109D01*
X143550835Y-59927109D02*
X143407978Y-59927109D01*
X143407978Y-59927109D02*
X143360359Y-59903300D01*
X143360359Y-59903300D02*
X143336549Y-59879490D01*
X143788930Y-59427109D02*
X143955596Y-59927109D01*
X143955596Y-59927109D02*
X144122263Y-59427109D01*
X128485550Y-61900404D02*
X128556978Y-61924214D01*
X128556978Y-61924214D02*
X128580788Y-61948023D01*
X128580788Y-61948023D02*
X128604597Y-61995642D01*
X128604597Y-61995642D02*
X128604597Y-62067071D01*
X128604597Y-62067071D02*
X128580788Y-62114690D01*
X128580788Y-62114690D02*
X128556978Y-62138500D01*
X128556978Y-62138500D02*
X128509359Y-62162309D01*
X128509359Y-62162309D02*
X128318883Y-62162309D01*
X128318883Y-62162309D02*
X128318883Y-61662309D01*
X128318883Y-61662309D02*
X128485550Y-61662309D01*
X128485550Y-61662309D02*
X128533169Y-61686119D01*
X128533169Y-61686119D02*
X128556978Y-61709928D01*
X128556978Y-61709928D02*
X128580788Y-61757547D01*
X128580788Y-61757547D02*
X128580788Y-61805166D01*
X128580788Y-61805166D02*
X128556978Y-61852785D01*
X128556978Y-61852785D02*
X128533169Y-61876595D01*
X128533169Y-61876595D02*
X128485550Y-61900404D01*
X128485550Y-61900404D02*
X128318883Y-61900404D01*
X128914121Y-61662309D02*
X129009359Y-61662309D01*
X129009359Y-61662309D02*
X129056978Y-61686119D01*
X129056978Y-61686119D02*
X129104597Y-61733738D01*
X129104597Y-61733738D02*
X129128407Y-61828976D01*
X129128407Y-61828976D02*
X129128407Y-61995642D01*
X129128407Y-61995642D02*
X129104597Y-62090880D01*
X129104597Y-62090880D02*
X129056978Y-62138500D01*
X129056978Y-62138500D02*
X129009359Y-62162309D01*
X129009359Y-62162309D02*
X128914121Y-62162309D01*
X128914121Y-62162309D02*
X128866502Y-62138500D01*
X128866502Y-62138500D02*
X128818883Y-62090880D01*
X128818883Y-62090880D02*
X128795074Y-61995642D01*
X128795074Y-61995642D02*
X128795074Y-61828976D01*
X128795074Y-61828976D02*
X128818883Y-61733738D01*
X128818883Y-61733738D02*
X128866502Y-61686119D01*
X128866502Y-61686119D02*
X128914121Y-61662309D01*
X129437931Y-61662309D02*
X129533169Y-61662309D01*
X129533169Y-61662309D02*
X129580788Y-61686119D01*
X129580788Y-61686119D02*
X129628407Y-61733738D01*
X129628407Y-61733738D02*
X129652217Y-61828976D01*
X129652217Y-61828976D02*
X129652217Y-61995642D01*
X129652217Y-61995642D02*
X129628407Y-62090880D01*
X129628407Y-62090880D02*
X129580788Y-62138500D01*
X129580788Y-62138500D02*
X129533169Y-62162309D01*
X129533169Y-62162309D02*
X129437931Y-62162309D01*
X129437931Y-62162309D02*
X129390312Y-62138500D01*
X129390312Y-62138500D02*
X129342693Y-62090880D01*
X129342693Y-62090880D02*
X129318884Y-61995642D01*
X129318884Y-61995642D02*
X129318884Y-61828976D01*
X129318884Y-61828976D02*
X129342693Y-61733738D01*
X129342693Y-61733738D02*
X129390312Y-61686119D01*
X129390312Y-61686119D02*
X129437931Y-61662309D01*
X129795075Y-61662309D02*
X130080789Y-61662309D01*
X129937932Y-62162309D02*
X129937932Y-61662309D01*
X130723645Y-61662309D02*
X130771264Y-61662309D01*
X130771264Y-61662309D02*
X130818883Y-61686119D01*
X130818883Y-61686119D02*
X130842693Y-61709928D01*
X130842693Y-61709928D02*
X130866502Y-61757547D01*
X130866502Y-61757547D02*
X130890312Y-61852785D01*
X130890312Y-61852785D02*
X130890312Y-61971833D01*
X130890312Y-61971833D02*
X130866502Y-62067071D01*
X130866502Y-62067071D02*
X130842693Y-62114690D01*
X130842693Y-62114690D02*
X130818883Y-62138500D01*
X130818883Y-62138500D02*
X130771264Y-62162309D01*
X130771264Y-62162309D02*
X130723645Y-62162309D01*
X130723645Y-62162309D02*
X130676026Y-62138500D01*
X130676026Y-62138500D02*
X130652217Y-62114690D01*
X130652217Y-62114690D02*
X130628407Y-62067071D01*
X130628407Y-62067071D02*
X130604598Y-61971833D01*
X130604598Y-61971833D02*
X130604598Y-61852785D01*
X130604598Y-61852785D02*
X130628407Y-61757547D01*
X130628407Y-61757547D02*
X130652217Y-61709928D01*
X130652217Y-61709928D02*
X130676026Y-61686119D01*
X130676026Y-61686119D02*
X130723645Y-61662309D01*
X131461740Y-62138500D02*
X131533168Y-62162309D01*
X131533168Y-62162309D02*
X131652216Y-62162309D01*
X131652216Y-62162309D02*
X131699835Y-62138500D01*
X131699835Y-62138500D02*
X131723644Y-62114690D01*
X131723644Y-62114690D02*
X131747454Y-62067071D01*
X131747454Y-62067071D02*
X131747454Y-62019452D01*
X131747454Y-62019452D02*
X131723644Y-61971833D01*
X131723644Y-61971833D02*
X131699835Y-61948023D01*
X131699835Y-61948023D02*
X131652216Y-61924214D01*
X131652216Y-61924214D02*
X131556978Y-61900404D01*
X131556978Y-61900404D02*
X131509359Y-61876595D01*
X131509359Y-61876595D02*
X131485549Y-61852785D01*
X131485549Y-61852785D02*
X131461740Y-61805166D01*
X131461740Y-61805166D02*
X131461740Y-61757547D01*
X131461740Y-61757547D02*
X131485549Y-61709928D01*
X131485549Y-61709928D02*
X131509359Y-61686119D01*
X131509359Y-61686119D02*
X131556978Y-61662309D01*
X131556978Y-61662309D02*
X131676025Y-61662309D01*
X131676025Y-61662309D02*
X131747454Y-61686119D01*
X131914120Y-61662309D02*
X132033168Y-62162309D01*
X132033168Y-62162309D02*
X132128406Y-61805166D01*
X132128406Y-61805166D02*
X132223644Y-62162309D01*
X132223644Y-62162309D02*
X132342692Y-61662309D01*
X132533168Y-62162309D02*
X132533168Y-61662309D01*
X132699835Y-61662309D02*
X132985549Y-61662309D01*
X132842692Y-62162309D02*
X132842692Y-61662309D01*
X133437929Y-62114690D02*
X133414120Y-62138500D01*
X133414120Y-62138500D02*
X133342691Y-62162309D01*
X133342691Y-62162309D02*
X133295072Y-62162309D01*
X133295072Y-62162309D02*
X133223644Y-62138500D01*
X133223644Y-62138500D02*
X133176025Y-62090880D01*
X133176025Y-62090880D02*
X133152215Y-62043261D01*
X133152215Y-62043261D02*
X133128406Y-61948023D01*
X133128406Y-61948023D02*
X133128406Y-61876595D01*
X133128406Y-61876595D02*
X133152215Y-61781357D01*
X133152215Y-61781357D02*
X133176025Y-61733738D01*
X133176025Y-61733738D02*
X133223644Y-61686119D01*
X133223644Y-61686119D02*
X133295072Y-61662309D01*
X133295072Y-61662309D02*
X133342691Y-61662309D01*
X133342691Y-61662309D02*
X133414120Y-61686119D01*
X133414120Y-61686119D02*
X133437929Y-61709928D01*
X133652215Y-62162309D02*
X133652215Y-61662309D01*
X133652215Y-61900404D02*
X133937929Y-61900404D01*
X133937929Y-62162309D02*
X133937929Y-61662309D01*
D11*
X123831579Y-100580819D02*
X123831579Y-99580819D01*
X123831579Y-99580819D02*
X124403007Y-100580819D01*
X124403007Y-100580819D02*
X124403007Y-99580819D01*
X125450626Y-100580819D02*
X125117293Y-100104628D01*
X124879198Y-100580819D02*
X124879198Y-99580819D01*
X124879198Y-99580819D02*
X125260150Y-99580819D01*
X125260150Y-99580819D02*
X125355388Y-99628438D01*
X125355388Y-99628438D02*
X125403007Y-99676057D01*
X125403007Y-99676057D02*
X125450626Y-99771295D01*
X125450626Y-99771295D02*
X125450626Y-99914152D01*
X125450626Y-99914152D02*
X125403007Y-100009390D01*
X125403007Y-100009390D02*
X125355388Y-100057009D01*
X125355388Y-100057009D02*
X125260150Y-100104628D01*
X125260150Y-100104628D02*
X124879198Y-100104628D01*
X125831579Y-100533200D02*
X125974436Y-100580819D01*
X125974436Y-100580819D02*
X126212531Y-100580819D01*
X126212531Y-100580819D02*
X126307769Y-100533200D01*
X126307769Y-100533200D02*
X126355388Y-100485580D01*
X126355388Y-100485580D02*
X126403007Y-100390342D01*
X126403007Y-100390342D02*
X126403007Y-100295104D01*
X126403007Y-100295104D02*
X126355388Y-100199866D01*
X126355388Y-100199866D02*
X126307769Y-100152247D01*
X126307769Y-100152247D02*
X126212531Y-100104628D01*
X126212531Y-100104628D02*
X126022055Y-100057009D01*
X126022055Y-100057009D02*
X125926817Y-100009390D01*
X125926817Y-100009390D02*
X125879198Y-99961771D01*
X125879198Y-99961771D02*
X125831579Y-99866533D01*
X125831579Y-99866533D02*
X125831579Y-99771295D01*
X125831579Y-99771295D02*
X125879198Y-99676057D01*
X125879198Y-99676057D02*
X125926817Y-99628438D01*
X125926817Y-99628438D02*
X126022055Y-99580819D01*
X126022055Y-99580819D02*
X126260150Y-99580819D01*
X126260150Y-99580819D02*
X126403007Y-99628438D01*
X126688722Y-99580819D02*
X127260150Y-99580819D01*
X126974436Y-100580819D02*
X126974436Y-99580819D01*
X128307770Y-100533200D02*
X128450627Y-100580819D01*
X128450627Y-100580819D02*
X128688722Y-100580819D01*
X128688722Y-100580819D02*
X128783960Y-100533200D01*
X128783960Y-100533200D02*
X128831579Y-100485580D01*
X128831579Y-100485580D02*
X128879198Y-100390342D01*
X128879198Y-100390342D02*
X128879198Y-100295104D01*
X128879198Y-100295104D02*
X128831579Y-100199866D01*
X128831579Y-100199866D02*
X128783960Y-100152247D01*
X128783960Y-100152247D02*
X128688722Y-100104628D01*
X128688722Y-100104628D02*
X128498246Y-100057009D01*
X128498246Y-100057009D02*
X128403008Y-100009390D01*
X128403008Y-100009390D02*
X128355389Y-99961771D01*
X128355389Y-99961771D02*
X128307770Y-99866533D01*
X128307770Y-99866533D02*
X128307770Y-99771295D01*
X128307770Y-99771295D02*
X128355389Y-99676057D01*
X128355389Y-99676057D02*
X128403008Y-99628438D01*
X128403008Y-99628438D02*
X128498246Y-99580819D01*
X128498246Y-99580819D02*
X128736341Y-99580819D01*
X128736341Y-99580819D02*
X128879198Y-99628438D01*
X129212532Y-99580819D02*
X129450627Y-100580819D01*
X129450627Y-100580819D02*
X129641103Y-99866533D01*
X129641103Y-99866533D02*
X129831579Y-100580819D01*
X129831579Y-100580819D02*
X130069675Y-99580819D01*
X130450627Y-100580819D02*
X130450627Y-99580819D01*
X130783960Y-99580819D02*
X131355388Y-99580819D01*
X131069674Y-100580819D02*
X131069674Y-99580819D01*
X132260150Y-100485580D02*
X132212531Y-100533200D01*
X132212531Y-100533200D02*
X132069674Y-100580819D01*
X132069674Y-100580819D02*
X131974436Y-100580819D01*
X131974436Y-100580819D02*
X131831579Y-100533200D01*
X131831579Y-100533200D02*
X131736341Y-100437961D01*
X131736341Y-100437961D02*
X131688722Y-100342723D01*
X131688722Y-100342723D02*
X131641103Y-100152247D01*
X131641103Y-100152247D02*
X131641103Y-100009390D01*
X131641103Y-100009390D02*
X131688722Y-99818914D01*
X131688722Y-99818914D02*
X131736341Y-99723676D01*
X131736341Y-99723676D02*
X131831579Y-99628438D01*
X131831579Y-99628438D02*
X131974436Y-99580819D01*
X131974436Y-99580819D02*
X132069674Y-99580819D01*
X132069674Y-99580819D02*
X132212531Y-99628438D01*
X132212531Y-99628438D02*
X132260150Y-99676057D01*
X132688722Y-100580819D02*
X132688722Y-99580819D01*
X132688722Y-100057009D02*
X133260150Y-100057009D01*
X133260150Y-100580819D02*
X133260150Y-99580819D01*
D10*
X129338064Y-66259709D02*
X129647588Y-66259709D01*
X129647588Y-66259709D02*
X129480921Y-66450185D01*
X129480921Y-66450185D02*
X129552350Y-66450185D01*
X129552350Y-66450185D02*
X129599969Y-66473995D01*
X129599969Y-66473995D02*
X129623778Y-66497804D01*
X129623778Y-66497804D02*
X129647588Y-66545423D01*
X129647588Y-66545423D02*
X129647588Y-66664471D01*
X129647588Y-66664471D02*
X129623778Y-66712090D01*
X129623778Y-66712090D02*
X129599969Y-66735900D01*
X129599969Y-66735900D02*
X129552350Y-66759709D01*
X129552350Y-66759709D02*
X129409493Y-66759709D01*
X129409493Y-66759709D02*
X129361874Y-66735900D01*
X129361874Y-66735900D02*
X129338064Y-66712090D01*
X129861873Y-66712090D02*
X129885683Y-66735900D01*
X129885683Y-66735900D02*
X129861873Y-66759709D01*
X129861873Y-66759709D02*
X129838064Y-66735900D01*
X129838064Y-66735900D02*
X129861873Y-66712090D01*
X129861873Y-66712090D02*
X129861873Y-66759709D01*
X130052349Y-66259709D02*
X130361873Y-66259709D01*
X130361873Y-66259709D02*
X130195206Y-66450185D01*
X130195206Y-66450185D02*
X130266635Y-66450185D01*
X130266635Y-66450185D02*
X130314254Y-66473995D01*
X130314254Y-66473995D02*
X130338063Y-66497804D01*
X130338063Y-66497804D02*
X130361873Y-66545423D01*
X130361873Y-66545423D02*
X130361873Y-66664471D01*
X130361873Y-66664471D02*
X130338063Y-66712090D01*
X130338063Y-66712090D02*
X130314254Y-66735900D01*
X130314254Y-66735900D02*
X130266635Y-66759709D01*
X130266635Y-66759709D02*
X130123778Y-66759709D01*
X130123778Y-66759709D02*
X130076159Y-66735900D01*
X130076159Y-66735900D02*
X130052349Y-66712090D01*
X130504730Y-66259709D02*
X130671396Y-66759709D01*
X130671396Y-66759709D02*
X130838063Y-66259709D01*
X152526674Y-66591300D02*
X152598102Y-66615109D01*
X152598102Y-66615109D02*
X152717150Y-66615109D01*
X152717150Y-66615109D02*
X152764769Y-66591300D01*
X152764769Y-66591300D02*
X152788578Y-66567490D01*
X152788578Y-66567490D02*
X152812388Y-66519871D01*
X152812388Y-66519871D02*
X152812388Y-66472252D01*
X152812388Y-66472252D02*
X152788578Y-66424633D01*
X152788578Y-66424633D02*
X152764769Y-66400823D01*
X152764769Y-66400823D02*
X152717150Y-66377014D01*
X152717150Y-66377014D02*
X152621912Y-66353204D01*
X152621912Y-66353204D02*
X152574293Y-66329395D01*
X152574293Y-66329395D02*
X152550483Y-66305585D01*
X152550483Y-66305585D02*
X152526674Y-66257966D01*
X152526674Y-66257966D02*
X152526674Y-66210347D01*
X152526674Y-66210347D02*
X152550483Y-66162728D01*
X152550483Y-66162728D02*
X152574293Y-66138919D01*
X152574293Y-66138919D02*
X152621912Y-66115109D01*
X152621912Y-66115109D02*
X152740959Y-66115109D01*
X152740959Y-66115109D02*
X152812388Y-66138919D01*
X152979054Y-66115109D02*
X153098102Y-66615109D01*
X153098102Y-66615109D02*
X153193340Y-66257966D01*
X153193340Y-66257966D02*
X153288578Y-66615109D01*
X153288578Y-66615109D02*
X153407626Y-66115109D01*
X153883816Y-66567490D02*
X153860007Y-66591300D01*
X153860007Y-66591300D02*
X153788578Y-66615109D01*
X153788578Y-66615109D02*
X153740959Y-66615109D01*
X153740959Y-66615109D02*
X153669531Y-66591300D01*
X153669531Y-66591300D02*
X153621912Y-66543680D01*
X153621912Y-66543680D02*
X153598102Y-66496061D01*
X153598102Y-66496061D02*
X153574293Y-66400823D01*
X153574293Y-66400823D02*
X153574293Y-66329395D01*
X153574293Y-66329395D02*
X153598102Y-66234157D01*
X153598102Y-66234157D02*
X153621912Y-66186538D01*
X153621912Y-66186538D02*
X153669531Y-66138919D01*
X153669531Y-66138919D02*
X153740959Y-66115109D01*
X153740959Y-66115109D02*
X153788578Y-66115109D01*
X153788578Y-66115109D02*
X153860007Y-66138919D01*
X153860007Y-66138919D02*
X153883816Y-66162728D01*
X154336197Y-66615109D02*
X154098102Y-66615109D01*
X154098102Y-66615109D02*
X154098102Y-66115109D01*
X154502864Y-66615109D02*
X154502864Y-66115109D01*
X154788578Y-66615109D02*
X154574293Y-66329395D01*
X154788578Y-66115109D02*
X154502864Y-66400823D01*
X142622264Y-66589909D02*
X142931788Y-66589909D01*
X142931788Y-66589909D02*
X142765121Y-66780385D01*
X142765121Y-66780385D02*
X142836550Y-66780385D01*
X142836550Y-66780385D02*
X142884169Y-66804195D01*
X142884169Y-66804195D02*
X142907978Y-66828004D01*
X142907978Y-66828004D02*
X142931788Y-66875623D01*
X142931788Y-66875623D02*
X142931788Y-66994671D01*
X142931788Y-66994671D02*
X142907978Y-67042290D01*
X142907978Y-67042290D02*
X142884169Y-67066100D01*
X142884169Y-67066100D02*
X142836550Y-67089909D01*
X142836550Y-67089909D02*
X142693693Y-67089909D01*
X142693693Y-67089909D02*
X142646074Y-67066100D01*
X142646074Y-67066100D02*
X142622264Y-67042290D01*
X143146073Y-67042290D02*
X143169883Y-67066100D01*
X143169883Y-67066100D02*
X143146073Y-67089909D01*
X143146073Y-67089909D02*
X143122264Y-67066100D01*
X143122264Y-67066100D02*
X143146073Y-67042290D01*
X143146073Y-67042290D02*
X143146073Y-67089909D01*
X143336549Y-66589909D02*
X143646073Y-66589909D01*
X143646073Y-66589909D02*
X143479406Y-66780385D01*
X143479406Y-66780385D02*
X143550835Y-66780385D01*
X143550835Y-66780385D02*
X143598454Y-66804195D01*
X143598454Y-66804195D02*
X143622263Y-66828004D01*
X143622263Y-66828004D02*
X143646073Y-66875623D01*
X143646073Y-66875623D02*
X143646073Y-66994671D01*
X143646073Y-66994671D02*
X143622263Y-67042290D01*
X143622263Y-67042290D02*
X143598454Y-67066100D01*
X143598454Y-67066100D02*
X143550835Y-67089909D01*
X143550835Y-67089909D02*
X143407978Y-67089909D01*
X143407978Y-67089909D02*
X143360359Y-67066100D01*
X143360359Y-67066100D02*
X143336549Y-67042290D01*
X143788930Y-66589909D02*
X143955596Y-67089909D01*
X143955596Y-67089909D02*
X144122263Y-66589909D01*
X160272083Y-66581909D02*
X160272083Y-66081909D01*
X160272083Y-66081909D02*
X160557797Y-66581909D01*
X160557797Y-66581909D02*
X160557797Y-66081909D01*
X161081607Y-66581909D02*
X160914941Y-66343814D01*
X160795893Y-66581909D02*
X160795893Y-66081909D01*
X160795893Y-66081909D02*
X160986369Y-66081909D01*
X160986369Y-66081909D02*
X161033988Y-66105719D01*
X161033988Y-66105719D02*
X161057798Y-66129528D01*
X161057798Y-66129528D02*
X161081607Y-66177147D01*
X161081607Y-66177147D02*
X161081607Y-66248576D01*
X161081607Y-66248576D02*
X161057798Y-66296195D01*
X161057798Y-66296195D02*
X161033988Y-66320004D01*
X161033988Y-66320004D02*
X160986369Y-66343814D01*
X160986369Y-66343814D02*
X160795893Y-66343814D01*
X161272084Y-66558100D02*
X161343512Y-66581909D01*
X161343512Y-66581909D02*
X161462560Y-66581909D01*
X161462560Y-66581909D02*
X161510179Y-66558100D01*
X161510179Y-66558100D02*
X161533988Y-66534290D01*
X161533988Y-66534290D02*
X161557798Y-66486671D01*
X161557798Y-66486671D02*
X161557798Y-66439052D01*
X161557798Y-66439052D02*
X161533988Y-66391433D01*
X161533988Y-66391433D02*
X161510179Y-66367623D01*
X161510179Y-66367623D02*
X161462560Y-66343814D01*
X161462560Y-66343814D02*
X161367322Y-66320004D01*
X161367322Y-66320004D02*
X161319703Y-66296195D01*
X161319703Y-66296195D02*
X161295893Y-66272385D01*
X161295893Y-66272385D02*
X161272084Y-66224766D01*
X161272084Y-66224766D02*
X161272084Y-66177147D01*
X161272084Y-66177147D02*
X161295893Y-66129528D01*
X161295893Y-66129528D02*
X161319703Y-66105719D01*
X161319703Y-66105719D02*
X161367322Y-66081909D01*
X161367322Y-66081909D02*
X161486369Y-66081909D01*
X161486369Y-66081909D02*
X161557798Y-66105719D01*
X161700655Y-66081909D02*
X161986369Y-66081909D01*
X161843512Y-66581909D02*
X161843512Y-66081909D01*
X149834274Y-66608900D02*
X149905702Y-66632709D01*
X149905702Y-66632709D02*
X150024750Y-66632709D01*
X150024750Y-66632709D02*
X150072369Y-66608900D01*
X150072369Y-66608900D02*
X150096178Y-66585090D01*
X150096178Y-66585090D02*
X150119988Y-66537471D01*
X150119988Y-66537471D02*
X150119988Y-66489852D01*
X150119988Y-66489852D02*
X150096178Y-66442233D01*
X150096178Y-66442233D02*
X150072369Y-66418423D01*
X150072369Y-66418423D02*
X150024750Y-66394614D01*
X150024750Y-66394614D02*
X149929512Y-66370804D01*
X149929512Y-66370804D02*
X149881893Y-66346995D01*
X149881893Y-66346995D02*
X149858083Y-66323185D01*
X149858083Y-66323185D02*
X149834274Y-66275566D01*
X149834274Y-66275566D02*
X149834274Y-66227947D01*
X149834274Y-66227947D02*
X149858083Y-66180328D01*
X149858083Y-66180328D02*
X149881893Y-66156519D01*
X149881893Y-66156519D02*
X149929512Y-66132709D01*
X149929512Y-66132709D02*
X150048559Y-66132709D01*
X150048559Y-66132709D02*
X150119988Y-66156519D01*
X150286654Y-66132709D02*
X150405702Y-66632709D01*
X150405702Y-66632709D02*
X150500940Y-66275566D01*
X150500940Y-66275566D02*
X150596178Y-66632709D01*
X150596178Y-66632709D02*
X150715226Y-66132709D01*
X150905702Y-66632709D02*
X150905702Y-66132709D01*
X150905702Y-66132709D02*
X151024750Y-66132709D01*
X151024750Y-66132709D02*
X151096178Y-66156519D01*
X151096178Y-66156519D02*
X151143797Y-66204138D01*
X151143797Y-66204138D02*
X151167607Y-66251757D01*
X151167607Y-66251757D02*
X151191416Y-66346995D01*
X151191416Y-66346995D02*
X151191416Y-66418423D01*
X151191416Y-66418423D02*
X151167607Y-66513661D01*
X151167607Y-66513661D02*
X151143797Y-66561280D01*
X151143797Y-66561280D02*
X151096178Y-66608900D01*
X151096178Y-66608900D02*
X151024750Y-66632709D01*
X151024750Y-66632709D02*
X150905702Y-66632709D01*
X151405702Y-66632709D02*
X151405702Y-66132709D01*
X151739035Y-66132709D02*
X151834273Y-66132709D01*
X151834273Y-66132709D02*
X151881892Y-66156519D01*
X151881892Y-66156519D02*
X151929511Y-66204138D01*
X151929511Y-66204138D02*
X151953321Y-66299376D01*
X151953321Y-66299376D02*
X151953321Y-66466042D01*
X151953321Y-66466042D02*
X151929511Y-66561280D01*
X151929511Y-66561280D02*
X151881892Y-66608900D01*
X151881892Y-66608900D02*
X151834273Y-66632709D01*
X151834273Y-66632709D02*
X151739035Y-66632709D01*
X151739035Y-66632709D02*
X151691416Y-66608900D01*
X151691416Y-66608900D02*
X151643797Y-66561280D01*
X151643797Y-66561280D02*
X151619988Y-66466042D01*
X151619988Y-66466042D02*
X151619988Y-66299376D01*
X151619988Y-66299376D02*
X151643797Y-66204138D01*
X151643797Y-66204138D02*
X151691416Y-66156519D01*
X151691416Y-66156519D02*
X151739035Y-66132709D01*
D11*
X153738342Y-87576819D02*
X153405009Y-87100628D01*
X153166914Y-87576819D02*
X153166914Y-86576819D01*
X153166914Y-86576819D02*
X153547866Y-86576819D01*
X153547866Y-86576819D02*
X153643104Y-86624438D01*
X153643104Y-86624438D02*
X153690723Y-86672057D01*
X153690723Y-86672057D02*
X153738342Y-86767295D01*
X153738342Y-86767295D02*
X153738342Y-86910152D01*
X153738342Y-86910152D02*
X153690723Y-87005390D01*
X153690723Y-87005390D02*
X153643104Y-87053009D01*
X153643104Y-87053009D02*
X153547866Y-87100628D01*
X153547866Y-87100628D02*
X153166914Y-87100628D01*
X154690723Y-87576819D02*
X154119295Y-87576819D01*
X154405009Y-87576819D02*
X154405009Y-86576819D01*
X154405009Y-86576819D02*
X154309771Y-86719676D01*
X154309771Y-86719676D02*
X154214533Y-86814914D01*
X154214533Y-86814914D02*
X154119295Y-86862533D01*
X155547866Y-86576819D02*
X155357390Y-86576819D01*
X155357390Y-86576819D02*
X155262152Y-86624438D01*
X155262152Y-86624438D02*
X155214533Y-86672057D01*
X155214533Y-86672057D02*
X155119295Y-86814914D01*
X155119295Y-86814914D02*
X155071676Y-87005390D01*
X155071676Y-87005390D02*
X155071676Y-87386342D01*
X155071676Y-87386342D02*
X155119295Y-87481580D01*
X155119295Y-87481580D02*
X155166914Y-87529200D01*
X155166914Y-87529200D02*
X155262152Y-87576819D01*
X155262152Y-87576819D02*
X155452628Y-87576819D01*
X155452628Y-87576819D02*
X155547866Y-87529200D01*
X155547866Y-87529200D02*
X155595485Y-87481580D01*
X155595485Y-87481580D02*
X155643104Y-87386342D01*
X155643104Y-87386342D02*
X155643104Y-87148247D01*
X155643104Y-87148247D02*
X155595485Y-87053009D01*
X155595485Y-87053009D02*
X155547866Y-87005390D01*
X155547866Y-87005390D02*
X155452628Y-86957771D01*
X155452628Y-86957771D02*
X155262152Y-86957771D01*
X155262152Y-86957771D02*
X155166914Y-87005390D01*
X155166914Y-87005390D02*
X155119295Y-87053009D01*
X155119295Y-87053009D02*
X155071676Y-87148247D01*
X135189933Y-71835180D02*
X135142314Y-71882800D01*
X135142314Y-71882800D02*
X134999457Y-71930419D01*
X134999457Y-71930419D02*
X134904219Y-71930419D01*
X134904219Y-71930419D02*
X134761362Y-71882800D01*
X134761362Y-71882800D02*
X134666124Y-71787561D01*
X134666124Y-71787561D02*
X134618505Y-71692323D01*
X134618505Y-71692323D02*
X134570886Y-71501847D01*
X134570886Y-71501847D02*
X134570886Y-71358990D01*
X134570886Y-71358990D02*
X134618505Y-71168514D01*
X134618505Y-71168514D02*
X134666124Y-71073276D01*
X134666124Y-71073276D02*
X134761362Y-70978038D01*
X134761362Y-70978038D02*
X134904219Y-70930419D01*
X134904219Y-70930419D02*
X134999457Y-70930419D01*
X134999457Y-70930419D02*
X135142314Y-70978038D01*
X135142314Y-70978038D02*
X135189933Y-71025657D01*
X135761362Y-71358990D02*
X135666124Y-71311371D01*
X135666124Y-71311371D02*
X135618505Y-71263752D01*
X135618505Y-71263752D02*
X135570886Y-71168514D01*
X135570886Y-71168514D02*
X135570886Y-71120895D01*
X135570886Y-71120895D02*
X135618505Y-71025657D01*
X135618505Y-71025657D02*
X135666124Y-70978038D01*
X135666124Y-70978038D02*
X135761362Y-70930419D01*
X135761362Y-70930419D02*
X135951838Y-70930419D01*
X135951838Y-70930419D02*
X136047076Y-70978038D01*
X136047076Y-70978038D02*
X136094695Y-71025657D01*
X136094695Y-71025657D02*
X136142314Y-71120895D01*
X136142314Y-71120895D02*
X136142314Y-71168514D01*
X136142314Y-71168514D02*
X136094695Y-71263752D01*
X136094695Y-71263752D02*
X136047076Y-71311371D01*
X136047076Y-71311371D02*
X135951838Y-71358990D01*
X135951838Y-71358990D02*
X135761362Y-71358990D01*
X135761362Y-71358990D02*
X135666124Y-71406609D01*
X135666124Y-71406609D02*
X135618505Y-71454228D01*
X135618505Y-71454228D02*
X135570886Y-71549466D01*
X135570886Y-71549466D02*
X135570886Y-71739942D01*
X135570886Y-71739942D02*
X135618505Y-71835180D01*
X135618505Y-71835180D02*
X135666124Y-71882800D01*
X135666124Y-71882800D02*
X135761362Y-71930419D01*
X135761362Y-71930419D02*
X135951838Y-71930419D01*
X135951838Y-71930419D02*
X136047076Y-71882800D01*
X136047076Y-71882800D02*
X136094695Y-71835180D01*
X136094695Y-71835180D02*
X136142314Y-71739942D01*
X136142314Y-71739942D02*
X136142314Y-71549466D01*
X136142314Y-71549466D02*
X136094695Y-71454228D01*
X136094695Y-71454228D02*
X136047076Y-71406609D01*
X136047076Y-71406609D02*
X135951838Y-71358990D01*
X123124933Y-71657380D02*
X123077314Y-71705000D01*
X123077314Y-71705000D02*
X122934457Y-71752619D01*
X122934457Y-71752619D02*
X122839219Y-71752619D01*
X122839219Y-71752619D02*
X122696362Y-71705000D01*
X122696362Y-71705000D02*
X122601124Y-71609761D01*
X122601124Y-71609761D02*
X122553505Y-71514523D01*
X122553505Y-71514523D02*
X122505886Y-71324047D01*
X122505886Y-71324047D02*
X122505886Y-71181190D01*
X122505886Y-71181190D02*
X122553505Y-70990714D01*
X122553505Y-70990714D02*
X122601124Y-70895476D01*
X122601124Y-70895476D02*
X122696362Y-70800238D01*
X122696362Y-70800238D02*
X122839219Y-70752619D01*
X122839219Y-70752619D02*
X122934457Y-70752619D01*
X122934457Y-70752619D02*
X123077314Y-70800238D01*
X123077314Y-70800238D02*
X123124933Y-70847857D01*
X123458267Y-70752619D02*
X124077314Y-70752619D01*
X124077314Y-70752619D02*
X123743981Y-71133571D01*
X123743981Y-71133571D02*
X123886838Y-71133571D01*
X123886838Y-71133571D02*
X123982076Y-71181190D01*
X123982076Y-71181190D02*
X124029695Y-71228809D01*
X124029695Y-71228809D02*
X124077314Y-71324047D01*
X124077314Y-71324047D02*
X124077314Y-71562142D01*
X124077314Y-71562142D02*
X124029695Y-71657380D01*
X124029695Y-71657380D02*
X123982076Y-71705000D01*
X123982076Y-71705000D02*
X123886838Y-71752619D01*
X123886838Y-71752619D02*
X123601124Y-71752619D01*
X123601124Y-71752619D02*
X123505886Y-71705000D01*
X123505886Y-71705000D02*
X123458267Y-71657380D01*
X153585942Y-80718819D02*
X153252609Y-80242628D01*
X153014514Y-80718819D02*
X153014514Y-79718819D01*
X153014514Y-79718819D02*
X153395466Y-79718819D01*
X153395466Y-79718819D02*
X153490704Y-79766438D01*
X153490704Y-79766438D02*
X153538323Y-79814057D01*
X153538323Y-79814057D02*
X153585942Y-79909295D01*
X153585942Y-79909295D02*
X153585942Y-80052152D01*
X153585942Y-80052152D02*
X153538323Y-80147390D01*
X153538323Y-80147390D02*
X153490704Y-80195009D01*
X153490704Y-80195009D02*
X153395466Y-80242628D01*
X153395466Y-80242628D02*
X153014514Y-80242628D01*
X154538323Y-80718819D02*
X153966895Y-80718819D01*
X154252609Y-80718819D02*
X154252609Y-79718819D01*
X154252609Y-79718819D02*
X154157371Y-79861676D01*
X154157371Y-79861676D02*
X154062133Y-79956914D01*
X154062133Y-79956914D02*
X153966895Y-80004533D01*
X155157371Y-79718819D02*
X155252609Y-79718819D01*
X155252609Y-79718819D02*
X155347847Y-79766438D01*
X155347847Y-79766438D02*
X155395466Y-79814057D01*
X155395466Y-79814057D02*
X155443085Y-79909295D01*
X155443085Y-79909295D02*
X155490704Y-80099771D01*
X155490704Y-80099771D02*
X155490704Y-80337866D01*
X155490704Y-80337866D02*
X155443085Y-80528342D01*
X155443085Y-80528342D02*
X155395466Y-80623580D01*
X155395466Y-80623580D02*
X155347847Y-80671200D01*
X155347847Y-80671200D02*
X155252609Y-80718819D01*
X155252609Y-80718819D02*
X155157371Y-80718819D01*
X155157371Y-80718819D02*
X155062133Y-80671200D01*
X155062133Y-80671200D02*
X155014514Y-80623580D01*
X155014514Y-80623580D02*
X154966895Y-80528342D01*
X154966895Y-80528342D02*
X154919276Y-80337866D01*
X154919276Y-80337866D02*
X154919276Y-80099771D01*
X154919276Y-80099771D02*
X154966895Y-79909295D01*
X154966895Y-79909295D02*
X155014514Y-79814057D01*
X155014514Y-79814057D02*
X155062133Y-79766438D01*
X155062133Y-79766438D02*
X155157371Y-79718819D01*
X136350476Y-81369819D02*
X137017142Y-82369819D01*
X137017142Y-81369819D02*
X136350476Y-82369819D01*
X137921904Y-82369819D02*
X137350476Y-82369819D01*
X137636190Y-82369819D02*
X137636190Y-81369819D01*
X137636190Y-81369819D02*
X137540952Y-81512676D01*
X137540952Y-81512676D02*
X137445714Y-81607914D01*
X137445714Y-81607914D02*
X137350476Y-81655533D01*
X132726133Y-71835180D02*
X132678514Y-71882800D01*
X132678514Y-71882800D02*
X132535657Y-71930419D01*
X132535657Y-71930419D02*
X132440419Y-71930419D01*
X132440419Y-71930419D02*
X132297562Y-71882800D01*
X132297562Y-71882800D02*
X132202324Y-71787561D01*
X132202324Y-71787561D02*
X132154705Y-71692323D01*
X132154705Y-71692323D02*
X132107086Y-71501847D01*
X132107086Y-71501847D02*
X132107086Y-71358990D01*
X132107086Y-71358990D02*
X132154705Y-71168514D01*
X132154705Y-71168514D02*
X132202324Y-71073276D01*
X132202324Y-71073276D02*
X132297562Y-70978038D01*
X132297562Y-70978038D02*
X132440419Y-70930419D01*
X132440419Y-70930419D02*
X132535657Y-70930419D01*
X132535657Y-70930419D02*
X132678514Y-70978038D01*
X132678514Y-70978038D02*
X132726133Y-71025657D01*
X133059467Y-70930419D02*
X133726133Y-70930419D01*
X133726133Y-70930419D02*
X133297562Y-71930419D01*
X145680133Y-95678419D02*
X145346800Y-95202228D01*
X145108705Y-95678419D02*
X145108705Y-94678419D01*
X145108705Y-94678419D02*
X145489657Y-94678419D01*
X145489657Y-94678419D02*
X145584895Y-94726038D01*
X145584895Y-94726038D02*
X145632514Y-94773657D01*
X145632514Y-94773657D02*
X145680133Y-94868895D01*
X145680133Y-94868895D02*
X145680133Y-95011752D01*
X145680133Y-95011752D02*
X145632514Y-95106990D01*
X145632514Y-95106990D02*
X145584895Y-95154609D01*
X145584895Y-95154609D02*
X145489657Y-95202228D01*
X145489657Y-95202228D02*
X145108705Y-95202228D01*
X146251562Y-95106990D02*
X146156324Y-95059371D01*
X146156324Y-95059371D02*
X146108705Y-95011752D01*
X146108705Y-95011752D02*
X146061086Y-94916514D01*
X146061086Y-94916514D02*
X146061086Y-94868895D01*
X146061086Y-94868895D02*
X146108705Y-94773657D01*
X146108705Y-94773657D02*
X146156324Y-94726038D01*
X146156324Y-94726038D02*
X146251562Y-94678419D01*
X146251562Y-94678419D02*
X146442038Y-94678419D01*
X146442038Y-94678419D02*
X146537276Y-94726038D01*
X146537276Y-94726038D02*
X146584895Y-94773657D01*
X146584895Y-94773657D02*
X146632514Y-94868895D01*
X146632514Y-94868895D02*
X146632514Y-94916514D01*
X146632514Y-94916514D02*
X146584895Y-95011752D01*
X146584895Y-95011752D02*
X146537276Y-95059371D01*
X146537276Y-95059371D02*
X146442038Y-95106990D01*
X146442038Y-95106990D02*
X146251562Y-95106990D01*
X146251562Y-95106990D02*
X146156324Y-95154609D01*
X146156324Y-95154609D02*
X146108705Y-95202228D01*
X146108705Y-95202228D02*
X146061086Y-95297466D01*
X146061086Y-95297466D02*
X146061086Y-95487942D01*
X146061086Y-95487942D02*
X146108705Y-95583180D01*
X146108705Y-95583180D02*
X146156324Y-95630800D01*
X146156324Y-95630800D02*
X146251562Y-95678419D01*
X146251562Y-95678419D02*
X146442038Y-95678419D01*
X146442038Y-95678419D02*
X146537276Y-95630800D01*
X146537276Y-95630800D02*
X146584895Y-95583180D01*
X146584895Y-95583180D02*
X146632514Y-95487942D01*
X146632514Y-95487942D02*
X146632514Y-95297466D01*
X146632514Y-95297466D02*
X146584895Y-95202228D01*
X146584895Y-95202228D02*
X146537276Y-95154609D01*
X146537276Y-95154609D02*
X146442038Y-95106990D01*
X150542666Y-58814619D02*
X150542666Y-59528904D01*
X150542666Y-59528904D02*
X150495047Y-59671761D01*
X150495047Y-59671761D02*
X150399809Y-59767000D01*
X150399809Y-59767000D02*
X150256952Y-59814619D01*
X150256952Y-59814619D02*
X150161714Y-59814619D01*
X151542666Y-59814619D02*
X150971238Y-59814619D01*
X151256952Y-59814619D02*
X151256952Y-58814619D01*
X151256952Y-58814619D02*
X151161714Y-58957476D01*
X151161714Y-58957476D02*
X151066476Y-59052714D01*
X151066476Y-59052714D02*
X150971238Y-59100333D01*
X138791961Y-105270057D02*
X138696723Y-105222438D01*
X138696723Y-105222438D02*
X138601485Y-105127200D01*
X138601485Y-105127200D02*
X138458628Y-104984342D01*
X138458628Y-104984342D02*
X138363390Y-104936723D01*
X138363390Y-104936723D02*
X138268152Y-104936723D01*
X138315771Y-105174819D02*
X138220533Y-105127200D01*
X138220533Y-105127200D02*
X138125295Y-105031961D01*
X138125295Y-105031961D02*
X138077676Y-104841485D01*
X138077676Y-104841485D02*
X138077676Y-104508152D01*
X138077676Y-104508152D02*
X138125295Y-104317676D01*
X138125295Y-104317676D02*
X138220533Y-104222438D01*
X138220533Y-104222438D02*
X138315771Y-104174819D01*
X138315771Y-104174819D02*
X138506247Y-104174819D01*
X138506247Y-104174819D02*
X138601485Y-104222438D01*
X138601485Y-104222438D02*
X138696723Y-104317676D01*
X138696723Y-104317676D02*
X138744342Y-104508152D01*
X138744342Y-104508152D02*
X138744342Y-104841485D01*
X138744342Y-104841485D02*
X138696723Y-105031961D01*
X138696723Y-105031961D02*
X138601485Y-105127200D01*
X138601485Y-105127200D02*
X138506247Y-105174819D01*
X138506247Y-105174819D02*
X138315771Y-105174819D01*
X139696723Y-105174819D02*
X139125295Y-105174819D01*
X139411009Y-105174819D02*
X139411009Y-104174819D01*
X139411009Y-104174819D02*
X139315771Y-104317676D01*
X139315771Y-104317676D02*
X139220533Y-104412914D01*
X139220533Y-104412914D02*
X139125295Y-104460533D01*
X137856933Y-71809780D02*
X137809314Y-71857400D01*
X137809314Y-71857400D02*
X137666457Y-71905019D01*
X137666457Y-71905019D02*
X137571219Y-71905019D01*
X137571219Y-71905019D02*
X137428362Y-71857400D01*
X137428362Y-71857400D02*
X137333124Y-71762161D01*
X137333124Y-71762161D02*
X137285505Y-71666923D01*
X137285505Y-71666923D02*
X137237886Y-71476447D01*
X137237886Y-71476447D02*
X137237886Y-71333590D01*
X137237886Y-71333590D02*
X137285505Y-71143114D01*
X137285505Y-71143114D02*
X137333124Y-71047876D01*
X137333124Y-71047876D02*
X137428362Y-70952638D01*
X137428362Y-70952638D02*
X137571219Y-70905019D01*
X137571219Y-70905019D02*
X137666457Y-70905019D01*
X137666457Y-70905019D02*
X137809314Y-70952638D01*
X137809314Y-70952638D02*
X137856933Y-71000257D01*
X138333124Y-71905019D02*
X138523600Y-71905019D01*
X138523600Y-71905019D02*
X138618838Y-71857400D01*
X138618838Y-71857400D02*
X138666457Y-71809780D01*
X138666457Y-71809780D02*
X138761695Y-71666923D01*
X138761695Y-71666923D02*
X138809314Y-71476447D01*
X138809314Y-71476447D02*
X138809314Y-71095495D01*
X138809314Y-71095495D02*
X138761695Y-71000257D01*
X138761695Y-71000257D02*
X138714076Y-70952638D01*
X138714076Y-70952638D02*
X138618838Y-70905019D01*
X138618838Y-70905019D02*
X138428362Y-70905019D01*
X138428362Y-70905019D02*
X138333124Y-70952638D01*
X138333124Y-70952638D02*
X138285505Y-71000257D01*
X138285505Y-71000257D02*
X138237886Y-71095495D01*
X138237886Y-71095495D02*
X138237886Y-71333590D01*
X138237886Y-71333590D02*
X138285505Y-71428828D01*
X138285505Y-71428828D02*
X138333124Y-71476447D01*
X138333124Y-71476447D02*
X138428362Y-71524066D01*
X138428362Y-71524066D02*
X138618838Y-71524066D01*
X138618838Y-71524066D02*
X138714076Y-71476447D01*
X138714076Y-71476447D02*
X138761695Y-71428828D01*
X138761695Y-71428828D02*
X138809314Y-71333590D01*
X125209633Y-111885619D02*
X124876300Y-111409428D01*
X124638205Y-111885619D02*
X124638205Y-110885619D01*
X124638205Y-110885619D02*
X125019157Y-110885619D01*
X125019157Y-110885619D02*
X125114395Y-110933238D01*
X125114395Y-110933238D02*
X125162014Y-110980857D01*
X125162014Y-110980857D02*
X125209633Y-111076095D01*
X125209633Y-111076095D02*
X125209633Y-111218952D01*
X125209633Y-111218952D02*
X125162014Y-111314190D01*
X125162014Y-111314190D02*
X125114395Y-111361809D01*
X125114395Y-111361809D02*
X125019157Y-111409428D01*
X125019157Y-111409428D02*
X124638205Y-111409428D01*
X126162014Y-111885619D02*
X125590586Y-111885619D01*
X125876300Y-111885619D02*
X125876300Y-110885619D01*
X125876300Y-110885619D02*
X125781062Y-111028476D01*
X125781062Y-111028476D02*
X125685824Y-111123714D01*
X125685824Y-111123714D02*
X125590586Y-111171333D01*
X128744742Y-108207980D02*
X128697123Y-108255600D01*
X128697123Y-108255600D02*
X128554266Y-108303219D01*
X128554266Y-108303219D02*
X128459028Y-108303219D01*
X128459028Y-108303219D02*
X128316171Y-108255600D01*
X128316171Y-108255600D02*
X128220933Y-108160361D01*
X128220933Y-108160361D02*
X128173314Y-108065123D01*
X128173314Y-108065123D02*
X128125695Y-107874647D01*
X128125695Y-107874647D02*
X128125695Y-107731790D01*
X128125695Y-107731790D02*
X128173314Y-107541314D01*
X128173314Y-107541314D02*
X128220933Y-107446076D01*
X128220933Y-107446076D02*
X128316171Y-107350838D01*
X128316171Y-107350838D02*
X128459028Y-107303219D01*
X128459028Y-107303219D02*
X128554266Y-107303219D01*
X128554266Y-107303219D02*
X128697123Y-107350838D01*
X128697123Y-107350838D02*
X128744742Y-107398457D01*
X129697123Y-108303219D02*
X129125695Y-108303219D01*
X129411409Y-108303219D02*
X129411409Y-107303219D01*
X129411409Y-107303219D02*
X129316171Y-107446076D01*
X129316171Y-107446076D02*
X129220933Y-107541314D01*
X129220933Y-107541314D02*
X129125695Y-107588933D01*
X130554266Y-107303219D02*
X130363790Y-107303219D01*
X130363790Y-107303219D02*
X130268552Y-107350838D01*
X130268552Y-107350838D02*
X130220933Y-107398457D01*
X130220933Y-107398457D02*
X130125695Y-107541314D01*
X130125695Y-107541314D02*
X130078076Y-107731790D01*
X130078076Y-107731790D02*
X130078076Y-108112742D01*
X130078076Y-108112742D02*
X130125695Y-108207980D01*
X130125695Y-108207980D02*
X130173314Y-108255600D01*
X130173314Y-108255600D02*
X130268552Y-108303219D01*
X130268552Y-108303219D02*
X130459028Y-108303219D01*
X130459028Y-108303219D02*
X130554266Y-108255600D01*
X130554266Y-108255600D02*
X130601885Y-108207980D01*
X130601885Y-108207980D02*
X130649504Y-108112742D01*
X130649504Y-108112742D02*
X130649504Y-107874647D01*
X130649504Y-107874647D02*
X130601885Y-107779409D01*
X130601885Y-107779409D02*
X130554266Y-107731790D01*
X130554266Y-107731790D02*
X130459028Y-107684171D01*
X130459028Y-107684171D02*
X130268552Y-107684171D01*
X130268552Y-107684171D02*
X130173314Y-107731790D01*
X130173314Y-107731790D02*
X130125695Y-107779409D01*
X130125695Y-107779409D02*
X130078076Y-107874647D01*
X120889733Y-71606580D02*
X120842114Y-71654200D01*
X120842114Y-71654200D02*
X120699257Y-71701819D01*
X120699257Y-71701819D02*
X120604019Y-71701819D01*
X120604019Y-71701819D02*
X120461162Y-71654200D01*
X120461162Y-71654200D02*
X120365924Y-71558961D01*
X120365924Y-71558961D02*
X120318305Y-71463723D01*
X120318305Y-71463723D02*
X120270686Y-71273247D01*
X120270686Y-71273247D02*
X120270686Y-71130390D01*
X120270686Y-71130390D02*
X120318305Y-70939914D01*
X120318305Y-70939914D02*
X120365924Y-70844676D01*
X120365924Y-70844676D02*
X120461162Y-70749438D01*
X120461162Y-70749438D02*
X120604019Y-70701819D01*
X120604019Y-70701819D02*
X120699257Y-70701819D01*
X120699257Y-70701819D02*
X120842114Y-70749438D01*
X120842114Y-70749438D02*
X120889733Y-70797057D01*
X121270686Y-70797057D02*
X121318305Y-70749438D01*
X121318305Y-70749438D02*
X121413543Y-70701819D01*
X121413543Y-70701819D02*
X121651638Y-70701819D01*
X121651638Y-70701819D02*
X121746876Y-70749438D01*
X121746876Y-70749438D02*
X121794495Y-70797057D01*
X121794495Y-70797057D02*
X121842114Y-70892295D01*
X121842114Y-70892295D02*
X121842114Y-70987533D01*
X121842114Y-70987533D02*
X121794495Y-71130390D01*
X121794495Y-71130390D02*
X121223067Y-71701819D01*
X121223067Y-71701819D02*
X121842114Y-71701819D01*
X124452142Y-59586019D02*
X124118809Y-59109828D01*
X123880714Y-59586019D02*
X123880714Y-58586019D01*
X123880714Y-58586019D02*
X124261666Y-58586019D01*
X124261666Y-58586019D02*
X124356904Y-58633638D01*
X124356904Y-58633638D02*
X124404523Y-58681257D01*
X124404523Y-58681257D02*
X124452142Y-58776495D01*
X124452142Y-58776495D02*
X124452142Y-58919352D01*
X124452142Y-58919352D02*
X124404523Y-59014590D01*
X124404523Y-59014590D02*
X124356904Y-59062209D01*
X124356904Y-59062209D02*
X124261666Y-59109828D01*
X124261666Y-59109828D02*
X123880714Y-59109828D01*
X124833095Y-58681257D02*
X124880714Y-58633638D01*
X124880714Y-58633638D02*
X124975952Y-58586019D01*
X124975952Y-58586019D02*
X125214047Y-58586019D01*
X125214047Y-58586019D02*
X125309285Y-58633638D01*
X125309285Y-58633638D02*
X125356904Y-58681257D01*
X125356904Y-58681257D02*
X125404523Y-58776495D01*
X125404523Y-58776495D02*
X125404523Y-58871733D01*
X125404523Y-58871733D02*
X125356904Y-59014590D01*
X125356904Y-59014590D02*
X124785476Y-59586019D01*
X124785476Y-59586019D02*
X125404523Y-59586019D01*
X126023571Y-58586019D02*
X126118809Y-58586019D01*
X126118809Y-58586019D02*
X126214047Y-58633638D01*
X126214047Y-58633638D02*
X126261666Y-58681257D01*
X126261666Y-58681257D02*
X126309285Y-58776495D01*
X126309285Y-58776495D02*
X126356904Y-58966971D01*
X126356904Y-58966971D02*
X126356904Y-59205066D01*
X126356904Y-59205066D02*
X126309285Y-59395542D01*
X126309285Y-59395542D02*
X126261666Y-59490780D01*
X126261666Y-59490780D02*
X126214047Y-59538400D01*
X126214047Y-59538400D02*
X126118809Y-59586019D01*
X126118809Y-59586019D02*
X126023571Y-59586019D01*
X126023571Y-59586019D02*
X125928333Y-59538400D01*
X125928333Y-59538400D02*
X125880714Y-59490780D01*
X125880714Y-59490780D02*
X125833095Y-59395542D01*
X125833095Y-59395542D02*
X125785476Y-59205066D01*
X125785476Y-59205066D02*
X125785476Y-58966971D01*
X125785476Y-58966971D02*
X125833095Y-58776495D01*
X125833095Y-58776495D02*
X125880714Y-58681257D01*
X125880714Y-58681257D02*
X125928333Y-58633638D01*
X125928333Y-58633638D02*
X126023571Y-58586019D01*
X148404342Y-69923819D02*
X148071009Y-69447628D01*
X147832914Y-69923819D02*
X147832914Y-68923819D01*
X147832914Y-68923819D02*
X148213866Y-68923819D01*
X148213866Y-68923819D02*
X148309104Y-68971438D01*
X148309104Y-68971438D02*
X148356723Y-69019057D01*
X148356723Y-69019057D02*
X148404342Y-69114295D01*
X148404342Y-69114295D02*
X148404342Y-69257152D01*
X148404342Y-69257152D02*
X148356723Y-69352390D01*
X148356723Y-69352390D02*
X148309104Y-69400009D01*
X148309104Y-69400009D02*
X148213866Y-69447628D01*
X148213866Y-69447628D02*
X147832914Y-69447628D01*
X149356723Y-69923819D02*
X148785295Y-69923819D01*
X149071009Y-69923819D02*
X149071009Y-68923819D01*
X149071009Y-68923819D02*
X148975771Y-69066676D01*
X148975771Y-69066676D02*
X148880533Y-69161914D01*
X148880533Y-69161914D02*
X148785295Y-69209533D01*
X150213866Y-69257152D02*
X150213866Y-69923819D01*
X149975771Y-68876200D02*
X149737676Y-69590485D01*
X149737676Y-69590485D02*
X150356723Y-69590485D01*
X133739095Y-58459019D02*
X134310523Y-58459019D01*
X134024809Y-59459019D02*
X134024809Y-58459019D01*
X134643857Y-59459019D02*
X134643857Y-58459019D01*
X134643857Y-58459019D02*
X135024809Y-58459019D01*
X135024809Y-58459019D02*
X135120047Y-58506638D01*
X135120047Y-58506638D02*
X135167666Y-58554257D01*
X135167666Y-58554257D02*
X135215285Y-58649495D01*
X135215285Y-58649495D02*
X135215285Y-58792352D01*
X135215285Y-58792352D02*
X135167666Y-58887590D01*
X135167666Y-58887590D02*
X135120047Y-58935209D01*
X135120047Y-58935209D02*
X135024809Y-58982828D01*
X135024809Y-58982828D02*
X134643857Y-58982828D01*
X136167666Y-59459019D02*
X135596238Y-59459019D01*
X135881952Y-59459019D02*
X135881952Y-58459019D01*
X135881952Y-58459019D02*
X135786714Y-58601876D01*
X135786714Y-58601876D02*
X135691476Y-58697114D01*
X135691476Y-58697114D02*
X135596238Y-58744733D01*
X143927533Y-72260619D02*
X143594200Y-71784428D01*
X143356105Y-72260619D02*
X143356105Y-71260619D01*
X143356105Y-71260619D02*
X143737057Y-71260619D01*
X143737057Y-71260619D02*
X143832295Y-71308238D01*
X143832295Y-71308238D02*
X143879914Y-71355857D01*
X143879914Y-71355857D02*
X143927533Y-71451095D01*
X143927533Y-71451095D02*
X143927533Y-71593952D01*
X143927533Y-71593952D02*
X143879914Y-71689190D01*
X143879914Y-71689190D02*
X143832295Y-71736809D01*
X143832295Y-71736809D02*
X143737057Y-71784428D01*
X143737057Y-71784428D02*
X143356105Y-71784428D01*
X144832295Y-71260619D02*
X144356105Y-71260619D01*
X144356105Y-71260619D02*
X144308486Y-71736809D01*
X144308486Y-71736809D02*
X144356105Y-71689190D01*
X144356105Y-71689190D02*
X144451343Y-71641571D01*
X144451343Y-71641571D02*
X144689438Y-71641571D01*
X144689438Y-71641571D02*
X144784676Y-71689190D01*
X144784676Y-71689190D02*
X144832295Y-71736809D01*
X144832295Y-71736809D02*
X144879914Y-71832047D01*
X144879914Y-71832047D02*
X144879914Y-72070142D01*
X144879914Y-72070142D02*
X144832295Y-72165380D01*
X144832295Y-72165380D02*
X144784676Y-72213000D01*
X144784676Y-72213000D02*
X144689438Y-72260619D01*
X144689438Y-72260619D02*
X144451343Y-72260619D01*
X144451343Y-72260619D02*
X144356105Y-72213000D01*
X144356105Y-72213000D02*
X144308486Y-72165380D01*
X146950133Y-116990019D02*
X146616800Y-116513828D01*
X146378705Y-116990019D02*
X146378705Y-115990019D01*
X146378705Y-115990019D02*
X146759657Y-115990019D01*
X146759657Y-115990019D02*
X146854895Y-116037638D01*
X146854895Y-116037638D02*
X146902514Y-116085257D01*
X146902514Y-116085257D02*
X146950133Y-116180495D01*
X146950133Y-116180495D02*
X146950133Y-116323352D01*
X146950133Y-116323352D02*
X146902514Y-116418590D01*
X146902514Y-116418590D02*
X146854895Y-116466209D01*
X146854895Y-116466209D02*
X146759657Y-116513828D01*
X146759657Y-116513828D02*
X146378705Y-116513828D01*
X147807276Y-116323352D02*
X147807276Y-116990019D01*
X147569181Y-115942400D02*
X147331086Y-116656685D01*
X147331086Y-116656685D02*
X147950133Y-116656685D01*
X135323342Y-90345419D02*
X134990009Y-89869228D01*
X134751914Y-90345419D02*
X134751914Y-89345419D01*
X134751914Y-89345419D02*
X135132866Y-89345419D01*
X135132866Y-89345419D02*
X135228104Y-89393038D01*
X135228104Y-89393038D02*
X135275723Y-89440657D01*
X135275723Y-89440657D02*
X135323342Y-89535895D01*
X135323342Y-89535895D02*
X135323342Y-89678752D01*
X135323342Y-89678752D02*
X135275723Y-89773990D01*
X135275723Y-89773990D02*
X135228104Y-89821609D01*
X135228104Y-89821609D02*
X135132866Y-89869228D01*
X135132866Y-89869228D02*
X134751914Y-89869228D01*
X136275723Y-90345419D02*
X135704295Y-90345419D01*
X135990009Y-90345419D02*
X135990009Y-89345419D01*
X135990009Y-89345419D02*
X135894771Y-89488276D01*
X135894771Y-89488276D02*
X135799533Y-89583514D01*
X135799533Y-89583514D02*
X135704295Y-89631133D01*
X136609057Y-89345419D02*
X137275723Y-89345419D01*
X137275723Y-89345419D02*
X136847152Y-90345419D01*
X132694514Y-118412419D02*
X132694514Y-117412419D01*
X132694514Y-117412419D02*
X132932609Y-117412419D01*
X132932609Y-117412419D02*
X133075466Y-117460038D01*
X133075466Y-117460038D02*
X133170704Y-117555276D01*
X133170704Y-117555276D02*
X133218323Y-117650514D01*
X133218323Y-117650514D02*
X133265942Y-117840990D01*
X133265942Y-117840990D02*
X133265942Y-117983847D01*
X133265942Y-117983847D02*
X133218323Y-118174323D01*
X133218323Y-118174323D02*
X133170704Y-118269561D01*
X133170704Y-118269561D02*
X133075466Y-118364800D01*
X133075466Y-118364800D02*
X132932609Y-118412419D01*
X132932609Y-118412419D02*
X132694514Y-118412419D01*
X133646895Y-118364800D02*
X133789752Y-118412419D01*
X133789752Y-118412419D02*
X134027847Y-118412419D01*
X134027847Y-118412419D02*
X134123085Y-118364800D01*
X134123085Y-118364800D02*
X134170704Y-118317180D01*
X134170704Y-118317180D02*
X134218323Y-118221942D01*
X134218323Y-118221942D02*
X134218323Y-118126704D01*
X134218323Y-118126704D02*
X134170704Y-118031466D01*
X134170704Y-118031466D02*
X134123085Y-117983847D01*
X134123085Y-117983847D02*
X134027847Y-117936228D01*
X134027847Y-117936228D02*
X133837371Y-117888609D01*
X133837371Y-117888609D02*
X133742133Y-117840990D01*
X133742133Y-117840990D02*
X133694514Y-117793371D01*
X133694514Y-117793371D02*
X133646895Y-117698133D01*
X133646895Y-117698133D02*
X133646895Y-117602895D01*
X133646895Y-117602895D02*
X133694514Y-117507657D01*
X133694514Y-117507657D02*
X133742133Y-117460038D01*
X133742133Y-117460038D02*
X133837371Y-117412419D01*
X133837371Y-117412419D02*
X134075466Y-117412419D01*
X134075466Y-117412419D02*
X134218323Y-117460038D01*
X134599276Y-117507657D02*
X134646895Y-117460038D01*
X134646895Y-117460038D02*
X134742133Y-117412419D01*
X134742133Y-117412419D02*
X134980228Y-117412419D01*
X134980228Y-117412419D02*
X135075466Y-117460038D01*
X135075466Y-117460038D02*
X135123085Y-117507657D01*
X135123085Y-117507657D02*
X135170704Y-117602895D01*
X135170704Y-117602895D02*
X135170704Y-117698133D01*
X135170704Y-117698133D02*
X135123085Y-117840990D01*
X135123085Y-117840990D02*
X134551657Y-118412419D01*
X134551657Y-118412419D02*
X135170704Y-118412419D01*
X130186133Y-71835180D02*
X130138514Y-71882800D01*
X130138514Y-71882800D02*
X129995657Y-71930419D01*
X129995657Y-71930419D02*
X129900419Y-71930419D01*
X129900419Y-71930419D02*
X129757562Y-71882800D01*
X129757562Y-71882800D02*
X129662324Y-71787561D01*
X129662324Y-71787561D02*
X129614705Y-71692323D01*
X129614705Y-71692323D02*
X129567086Y-71501847D01*
X129567086Y-71501847D02*
X129567086Y-71358990D01*
X129567086Y-71358990D02*
X129614705Y-71168514D01*
X129614705Y-71168514D02*
X129662324Y-71073276D01*
X129662324Y-71073276D02*
X129757562Y-70978038D01*
X129757562Y-70978038D02*
X129900419Y-70930419D01*
X129900419Y-70930419D02*
X129995657Y-70930419D01*
X129995657Y-70930419D02*
X130138514Y-70978038D01*
X130138514Y-70978038D02*
X130186133Y-71025657D01*
X131043276Y-70930419D02*
X130852800Y-70930419D01*
X130852800Y-70930419D02*
X130757562Y-70978038D01*
X130757562Y-70978038D02*
X130709943Y-71025657D01*
X130709943Y-71025657D02*
X130614705Y-71168514D01*
X130614705Y-71168514D02*
X130567086Y-71358990D01*
X130567086Y-71358990D02*
X130567086Y-71739942D01*
X130567086Y-71739942D02*
X130614705Y-71835180D01*
X130614705Y-71835180D02*
X130662324Y-71882800D01*
X130662324Y-71882800D02*
X130757562Y-71930419D01*
X130757562Y-71930419D02*
X130948038Y-71930419D01*
X130948038Y-71930419D02*
X131043276Y-71882800D01*
X131043276Y-71882800D02*
X131090895Y-71835180D01*
X131090895Y-71835180D02*
X131138514Y-71739942D01*
X131138514Y-71739942D02*
X131138514Y-71501847D01*
X131138514Y-71501847D02*
X131090895Y-71406609D01*
X131090895Y-71406609D02*
X131043276Y-71358990D01*
X131043276Y-71358990D02*
X130948038Y-71311371D01*
X130948038Y-71311371D02*
X130757562Y-71311371D01*
X130757562Y-71311371D02*
X130662324Y-71358990D01*
X130662324Y-71358990D02*
X130614705Y-71406609D01*
X130614705Y-71406609D02*
X130567086Y-71501847D01*
X125487133Y-71708180D02*
X125439514Y-71755800D01*
X125439514Y-71755800D02*
X125296657Y-71803419D01*
X125296657Y-71803419D02*
X125201419Y-71803419D01*
X125201419Y-71803419D02*
X125058562Y-71755800D01*
X125058562Y-71755800D02*
X124963324Y-71660561D01*
X124963324Y-71660561D02*
X124915705Y-71565323D01*
X124915705Y-71565323D02*
X124868086Y-71374847D01*
X124868086Y-71374847D02*
X124868086Y-71231990D01*
X124868086Y-71231990D02*
X124915705Y-71041514D01*
X124915705Y-71041514D02*
X124963324Y-70946276D01*
X124963324Y-70946276D02*
X125058562Y-70851038D01*
X125058562Y-70851038D02*
X125201419Y-70803419D01*
X125201419Y-70803419D02*
X125296657Y-70803419D01*
X125296657Y-70803419D02*
X125439514Y-70851038D01*
X125439514Y-70851038D02*
X125487133Y-70898657D01*
X126344276Y-71136752D02*
X126344276Y-71803419D01*
X126106181Y-70755800D02*
X125868086Y-71470085D01*
X125868086Y-71470085D02*
X126487133Y-71470085D01*
X143349742Y-86948180D02*
X143302123Y-86995800D01*
X143302123Y-86995800D02*
X143159266Y-87043419D01*
X143159266Y-87043419D02*
X143064028Y-87043419D01*
X143064028Y-87043419D02*
X142921171Y-86995800D01*
X142921171Y-86995800D02*
X142825933Y-86900561D01*
X142825933Y-86900561D02*
X142778314Y-86805323D01*
X142778314Y-86805323D02*
X142730695Y-86614847D01*
X142730695Y-86614847D02*
X142730695Y-86471990D01*
X142730695Y-86471990D02*
X142778314Y-86281514D01*
X142778314Y-86281514D02*
X142825933Y-86186276D01*
X142825933Y-86186276D02*
X142921171Y-86091038D01*
X142921171Y-86091038D02*
X143064028Y-86043419D01*
X143064028Y-86043419D02*
X143159266Y-86043419D01*
X143159266Y-86043419D02*
X143302123Y-86091038D01*
X143302123Y-86091038D02*
X143349742Y-86138657D01*
X144302123Y-87043419D02*
X143730695Y-87043419D01*
X144016409Y-87043419D02*
X144016409Y-86043419D01*
X144016409Y-86043419D02*
X143921171Y-86186276D01*
X143921171Y-86186276D02*
X143825933Y-86281514D01*
X143825933Y-86281514D02*
X143730695Y-86329133D01*
X145206885Y-86043419D02*
X144730695Y-86043419D01*
X144730695Y-86043419D02*
X144683076Y-86519609D01*
X144683076Y-86519609D02*
X144730695Y-86471990D01*
X144730695Y-86471990D02*
X144825933Y-86424371D01*
X144825933Y-86424371D02*
X145064028Y-86424371D01*
X145064028Y-86424371D02*
X145159266Y-86471990D01*
X145159266Y-86471990D02*
X145206885Y-86519609D01*
X145206885Y-86519609D02*
X145254504Y-86614847D01*
X145254504Y-86614847D02*
X145254504Y-86852942D01*
X145254504Y-86852942D02*
X145206885Y-86948180D01*
X145206885Y-86948180D02*
X145159266Y-86995800D01*
X145159266Y-86995800D02*
X145064028Y-87043419D01*
X145064028Y-87043419D02*
X144825933Y-87043419D01*
X144825933Y-87043419D02*
X144730695Y-86995800D01*
X144730695Y-86995800D02*
X144683076Y-86948180D01*
X132065733Y-90370819D02*
X131732400Y-89894628D01*
X131494305Y-90370819D02*
X131494305Y-89370819D01*
X131494305Y-89370819D02*
X131875257Y-89370819D01*
X131875257Y-89370819D02*
X131970495Y-89418438D01*
X131970495Y-89418438D02*
X132018114Y-89466057D01*
X132018114Y-89466057D02*
X132065733Y-89561295D01*
X132065733Y-89561295D02*
X132065733Y-89704152D01*
X132065733Y-89704152D02*
X132018114Y-89799390D01*
X132018114Y-89799390D02*
X131970495Y-89847009D01*
X131970495Y-89847009D02*
X131875257Y-89894628D01*
X131875257Y-89894628D02*
X131494305Y-89894628D01*
X132399067Y-89370819D02*
X133065733Y-89370819D01*
X133065733Y-89370819D02*
X132637162Y-90370819D01*
X138447542Y-62233980D02*
X138399923Y-62281600D01*
X138399923Y-62281600D02*
X138257066Y-62329219D01*
X138257066Y-62329219D02*
X138161828Y-62329219D01*
X138161828Y-62329219D02*
X138018971Y-62281600D01*
X138018971Y-62281600D02*
X137923733Y-62186361D01*
X137923733Y-62186361D02*
X137876114Y-62091123D01*
X137876114Y-62091123D02*
X137828495Y-61900647D01*
X137828495Y-61900647D02*
X137828495Y-61757790D01*
X137828495Y-61757790D02*
X137876114Y-61567314D01*
X137876114Y-61567314D02*
X137923733Y-61472076D01*
X137923733Y-61472076D02*
X138018971Y-61376838D01*
X138018971Y-61376838D02*
X138161828Y-61329219D01*
X138161828Y-61329219D02*
X138257066Y-61329219D01*
X138257066Y-61329219D02*
X138399923Y-61376838D01*
X138399923Y-61376838D02*
X138447542Y-61424457D01*
X139399923Y-62329219D02*
X138828495Y-62329219D01*
X139114209Y-62329219D02*
X139114209Y-61329219D01*
X139114209Y-61329219D02*
X139018971Y-61472076D01*
X139018971Y-61472076D02*
X138923733Y-61567314D01*
X138923733Y-61567314D02*
X138828495Y-61614933D01*
X139733257Y-61329219D02*
X140352304Y-61329219D01*
X140352304Y-61329219D02*
X140018971Y-61710171D01*
X140018971Y-61710171D02*
X140161828Y-61710171D01*
X140161828Y-61710171D02*
X140257066Y-61757790D01*
X140257066Y-61757790D02*
X140304685Y-61805409D01*
X140304685Y-61805409D02*
X140352304Y-61900647D01*
X140352304Y-61900647D02*
X140352304Y-62138742D01*
X140352304Y-62138742D02*
X140304685Y-62233980D01*
X140304685Y-62233980D02*
X140257066Y-62281600D01*
X140257066Y-62281600D02*
X140161828Y-62329219D01*
X140161828Y-62329219D02*
X139876114Y-62329219D01*
X139876114Y-62329219D02*
X139780876Y-62281600D01*
X139780876Y-62281600D02*
X139733257Y-62233980D01*
X133215142Y-76356380D02*
X133167523Y-76404000D01*
X133167523Y-76404000D02*
X133024666Y-76451619D01*
X133024666Y-76451619D02*
X132929428Y-76451619D01*
X132929428Y-76451619D02*
X132786571Y-76404000D01*
X132786571Y-76404000D02*
X132691333Y-76308761D01*
X132691333Y-76308761D02*
X132643714Y-76213523D01*
X132643714Y-76213523D02*
X132596095Y-76023047D01*
X132596095Y-76023047D02*
X132596095Y-75880190D01*
X132596095Y-75880190D02*
X132643714Y-75689714D01*
X132643714Y-75689714D02*
X132691333Y-75594476D01*
X132691333Y-75594476D02*
X132786571Y-75499238D01*
X132786571Y-75499238D02*
X132929428Y-75451619D01*
X132929428Y-75451619D02*
X133024666Y-75451619D01*
X133024666Y-75451619D02*
X133167523Y-75499238D01*
X133167523Y-75499238D02*
X133215142Y-75546857D01*
X134167523Y-76451619D02*
X133596095Y-76451619D01*
X133881809Y-76451619D02*
X133881809Y-75451619D01*
X133881809Y-75451619D02*
X133786571Y-75594476D01*
X133786571Y-75594476D02*
X133691333Y-75689714D01*
X133691333Y-75689714D02*
X133596095Y-75737333D01*
X135119904Y-76451619D02*
X134548476Y-76451619D01*
X134834190Y-76451619D02*
X134834190Y-75451619D01*
X134834190Y-75451619D02*
X134738952Y-75594476D01*
X134738952Y-75594476D02*
X134643714Y-75689714D01*
X134643714Y-75689714D02*
X134548476Y-75737333D01*
X153712942Y-78356619D02*
X153379609Y-77880428D01*
X153141514Y-78356619D02*
X153141514Y-77356619D01*
X153141514Y-77356619D02*
X153522466Y-77356619D01*
X153522466Y-77356619D02*
X153617704Y-77404238D01*
X153617704Y-77404238D02*
X153665323Y-77451857D01*
X153665323Y-77451857D02*
X153712942Y-77547095D01*
X153712942Y-77547095D02*
X153712942Y-77689952D01*
X153712942Y-77689952D02*
X153665323Y-77785190D01*
X153665323Y-77785190D02*
X153617704Y-77832809D01*
X153617704Y-77832809D02*
X153522466Y-77880428D01*
X153522466Y-77880428D02*
X153141514Y-77880428D01*
X154665323Y-78356619D02*
X154093895Y-78356619D01*
X154379609Y-78356619D02*
X154379609Y-77356619D01*
X154379609Y-77356619D02*
X154284371Y-77499476D01*
X154284371Y-77499476D02*
X154189133Y-77594714D01*
X154189133Y-77594714D02*
X154093895Y-77642333D01*
X155046276Y-77451857D02*
X155093895Y-77404238D01*
X155093895Y-77404238D02*
X155189133Y-77356619D01*
X155189133Y-77356619D02*
X155427228Y-77356619D01*
X155427228Y-77356619D02*
X155522466Y-77404238D01*
X155522466Y-77404238D02*
X155570085Y-77451857D01*
X155570085Y-77451857D02*
X155617704Y-77547095D01*
X155617704Y-77547095D02*
X155617704Y-77642333D01*
X155617704Y-77642333D02*
X155570085Y-77785190D01*
X155570085Y-77785190D02*
X154998657Y-78356619D01*
X154998657Y-78356619D02*
X155617704Y-78356619D01*
X140523933Y-95476219D02*
X140190600Y-95000028D01*
X139952505Y-95476219D02*
X139952505Y-94476219D01*
X139952505Y-94476219D02*
X140333457Y-94476219D01*
X140333457Y-94476219D02*
X140428695Y-94523838D01*
X140428695Y-94523838D02*
X140476314Y-94571457D01*
X140476314Y-94571457D02*
X140523933Y-94666695D01*
X140523933Y-94666695D02*
X140523933Y-94809552D01*
X140523933Y-94809552D02*
X140476314Y-94904790D01*
X140476314Y-94904790D02*
X140428695Y-94952409D01*
X140428695Y-94952409D02*
X140333457Y-95000028D01*
X140333457Y-95000028D02*
X139952505Y-95000028D01*
X141381076Y-94476219D02*
X141190600Y-94476219D01*
X141190600Y-94476219D02*
X141095362Y-94523838D01*
X141095362Y-94523838D02*
X141047743Y-94571457D01*
X141047743Y-94571457D02*
X140952505Y-94714314D01*
X140952505Y-94714314D02*
X140904886Y-94904790D01*
X140904886Y-94904790D02*
X140904886Y-95285742D01*
X140904886Y-95285742D02*
X140952505Y-95380980D01*
X140952505Y-95380980D02*
X141000124Y-95428600D01*
X141000124Y-95428600D02*
X141095362Y-95476219D01*
X141095362Y-95476219D02*
X141285838Y-95476219D01*
X141285838Y-95476219D02*
X141381076Y-95428600D01*
X141381076Y-95428600D02*
X141428695Y-95380980D01*
X141428695Y-95380980D02*
X141476314Y-95285742D01*
X141476314Y-95285742D02*
X141476314Y-95047647D01*
X141476314Y-95047647D02*
X141428695Y-94952409D01*
X141428695Y-94952409D02*
X141381076Y-94904790D01*
X141381076Y-94904790D02*
X141285838Y-94857171D01*
X141285838Y-94857171D02*
X141095362Y-94857171D01*
X141095362Y-94857171D02*
X141000124Y-94904790D01*
X141000124Y-94904790D02*
X140952505Y-94952409D01*
X140952505Y-94952409D02*
X140904886Y-95047647D01*
X146169142Y-68272819D02*
X145835809Y-67796628D01*
X145597714Y-68272819D02*
X145597714Y-67272819D01*
X145597714Y-67272819D02*
X145978666Y-67272819D01*
X145978666Y-67272819D02*
X146073904Y-67320438D01*
X146073904Y-67320438D02*
X146121523Y-67368057D01*
X146121523Y-67368057D02*
X146169142Y-67463295D01*
X146169142Y-67463295D02*
X146169142Y-67606152D01*
X146169142Y-67606152D02*
X146121523Y-67701390D01*
X146121523Y-67701390D02*
X146073904Y-67749009D01*
X146073904Y-67749009D02*
X145978666Y-67796628D01*
X145978666Y-67796628D02*
X145597714Y-67796628D01*
X147121523Y-68272819D02*
X146550095Y-68272819D01*
X146835809Y-68272819D02*
X146835809Y-67272819D01*
X146835809Y-67272819D02*
X146740571Y-67415676D01*
X146740571Y-67415676D02*
X146645333Y-67510914D01*
X146645333Y-67510914D02*
X146550095Y-67558533D01*
X148026285Y-67272819D02*
X147550095Y-67272819D01*
X147550095Y-67272819D02*
X147502476Y-67749009D01*
X147502476Y-67749009D02*
X147550095Y-67701390D01*
X147550095Y-67701390D02*
X147645333Y-67653771D01*
X147645333Y-67653771D02*
X147883428Y-67653771D01*
X147883428Y-67653771D02*
X147978666Y-67701390D01*
X147978666Y-67701390D02*
X148026285Y-67749009D01*
X148026285Y-67749009D02*
X148073904Y-67844247D01*
X148073904Y-67844247D02*
X148073904Y-68082342D01*
X148073904Y-68082342D02*
X148026285Y-68177580D01*
X148026285Y-68177580D02*
X147978666Y-68225200D01*
X147978666Y-68225200D02*
X147883428Y-68272819D01*
X147883428Y-68272819D02*
X147645333Y-68272819D01*
X147645333Y-68272819D02*
X147550095Y-68225200D01*
X147550095Y-68225200D02*
X147502476Y-68177580D01*
X151536495Y-115761419D02*
X151536495Y-116570942D01*
X151536495Y-116570942D02*
X151584114Y-116666180D01*
X151584114Y-116666180D02*
X151631733Y-116713800D01*
X151631733Y-116713800D02*
X151726971Y-116761419D01*
X151726971Y-116761419D02*
X151917447Y-116761419D01*
X151917447Y-116761419D02*
X152012685Y-116713800D01*
X152012685Y-116713800D02*
X152060304Y-116666180D01*
X152060304Y-116666180D02*
X152107923Y-116570942D01*
X152107923Y-116570942D02*
X152107923Y-115761419D01*
X153107923Y-116761419D02*
X152536495Y-116761419D01*
X152822209Y-116761419D02*
X152822209Y-115761419D01*
X152822209Y-115761419D02*
X152726971Y-115904276D01*
X152726971Y-115904276D02*
X152631733Y-115999514D01*
X152631733Y-115999514D02*
X152536495Y-116047133D01*
X146906314Y-100480019D02*
X146906314Y-99480019D01*
X146906314Y-99480019D02*
X147239647Y-100194304D01*
X147239647Y-100194304D02*
X147572980Y-99480019D01*
X147572980Y-99480019D02*
X147572980Y-100480019D01*
X148049171Y-100480019D02*
X148049171Y-99813352D01*
X148049171Y-99480019D02*
X148001552Y-99527638D01*
X148001552Y-99527638D02*
X148049171Y-99575257D01*
X148049171Y-99575257D02*
X148096790Y-99527638D01*
X148096790Y-99527638D02*
X148049171Y-99480019D01*
X148049171Y-99480019D02*
X148049171Y-99575257D01*
X148953932Y-100432400D02*
X148858694Y-100480019D01*
X148858694Y-100480019D02*
X148668218Y-100480019D01*
X148668218Y-100480019D02*
X148572980Y-100432400D01*
X148572980Y-100432400D02*
X148525361Y-100384780D01*
X148525361Y-100384780D02*
X148477742Y-100289542D01*
X148477742Y-100289542D02*
X148477742Y-100003828D01*
X148477742Y-100003828D02*
X148525361Y-99908590D01*
X148525361Y-99908590D02*
X148572980Y-99860971D01*
X148572980Y-99860971D02*
X148668218Y-99813352D01*
X148668218Y-99813352D02*
X148858694Y-99813352D01*
X148858694Y-99813352D02*
X148953932Y-99860971D01*
X149382504Y-100480019D02*
X149382504Y-99813352D01*
X149382504Y-100003828D02*
X149430123Y-99908590D01*
X149430123Y-99908590D02*
X149477742Y-99860971D01*
X149477742Y-99860971D02*
X149572980Y-99813352D01*
X149572980Y-99813352D02*
X149668218Y-99813352D01*
X150144409Y-100480019D02*
X150049171Y-100432400D01*
X150049171Y-100432400D02*
X150001552Y-100384780D01*
X150001552Y-100384780D02*
X149953933Y-100289542D01*
X149953933Y-100289542D02*
X149953933Y-100003828D01*
X149953933Y-100003828D02*
X150001552Y-99908590D01*
X150001552Y-99908590D02*
X150049171Y-99860971D01*
X150049171Y-99860971D02*
X150144409Y-99813352D01*
X150144409Y-99813352D02*
X150287266Y-99813352D01*
X150287266Y-99813352D02*
X150382504Y-99860971D01*
X150382504Y-99860971D02*
X150430123Y-99908590D01*
X150430123Y-99908590D02*
X150477742Y-100003828D01*
X150477742Y-100003828D02*
X150477742Y-100289542D01*
X150477742Y-100289542D02*
X150430123Y-100384780D01*
X150430123Y-100384780D02*
X150382504Y-100432400D01*
X150382504Y-100432400D02*
X150287266Y-100480019D01*
X150287266Y-100480019D02*
X150144409Y-100480019D01*
X150668219Y-100575257D02*
X151430123Y-100575257D01*
X151620600Y-100432400D02*
X151763457Y-100480019D01*
X151763457Y-100480019D02*
X152001552Y-100480019D01*
X152001552Y-100480019D02*
X152096790Y-100432400D01*
X152096790Y-100432400D02*
X152144409Y-100384780D01*
X152144409Y-100384780D02*
X152192028Y-100289542D01*
X152192028Y-100289542D02*
X152192028Y-100194304D01*
X152192028Y-100194304D02*
X152144409Y-100099066D01*
X152144409Y-100099066D02*
X152096790Y-100051447D01*
X152096790Y-100051447D02*
X152001552Y-100003828D01*
X152001552Y-100003828D02*
X151811076Y-99956209D01*
X151811076Y-99956209D02*
X151715838Y-99908590D01*
X151715838Y-99908590D02*
X151668219Y-99860971D01*
X151668219Y-99860971D02*
X151620600Y-99765733D01*
X151620600Y-99765733D02*
X151620600Y-99670495D01*
X151620600Y-99670495D02*
X151668219Y-99575257D01*
X151668219Y-99575257D02*
X151715838Y-99527638D01*
X151715838Y-99527638D02*
X151811076Y-99480019D01*
X151811076Y-99480019D02*
X152049171Y-99480019D01*
X152049171Y-99480019D02*
X152192028Y-99527638D01*
X152620600Y-100480019D02*
X152620600Y-99480019D01*
X152620600Y-99480019D02*
X152858695Y-99480019D01*
X152858695Y-99480019D02*
X153001552Y-99527638D01*
X153001552Y-99527638D02*
X153096790Y-99622876D01*
X153096790Y-99622876D02*
X153144409Y-99718114D01*
X153144409Y-99718114D02*
X153192028Y-99908590D01*
X153192028Y-99908590D02*
X153192028Y-100051447D01*
X153192028Y-100051447D02*
X153144409Y-100241923D01*
X153144409Y-100241923D02*
X153096790Y-100337161D01*
X153096790Y-100337161D02*
X153001552Y-100432400D01*
X153001552Y-100432400D02*
X152858695Y-100480019D01*
X152858695Y-100480019D02*
X152620600Y-100480019D01*
X153382505Y-100575257D02*
X154144409Y-100575257D01*
X154953933Y-100384780D02*
X154906314Y-100432400D01*
X154906314Y-100432400D02*
X154763457Y-100480019D01*
X154763457Y-100480019D02*
X154668219Y-100480019D01*
X154668219Y-100480019D02*
X154525362Y-100432400D01*
X154525362Y-100432400D02*
X154430124Y-100337161D01*
X154430124Y-100337161D02*
X154382505Y-100241923D01*
X154382505Y-100241923D02*
X154334886Y-100051447D01*
X154334886Y-100051447D02*
X154334886Y-99908590D01*
X154334886Y-99908590D02*
X154382505Y-99718114D01*
X154382505Y-99718114D02*
X154430124Y-99622876D01*
X154430124Y-99622876D02*
X154525362Y-99527638D01*
X154525362Y-99527638D02*
X154668219Y-99480019D01*
X154668219Y-99480019D02*
X154763457Y-99480019D01*
X154763457Y-99480019D02*
X154906314Y-99527638D01*
X154906314Y-99527638D02*
X154953933Y-99575257D01*
X155811076Y-100480019D02*
X155811076Y-99956209D01*
X155811076Y-99956209D02*
X155763457Y-99860971D01*
X155763457Y-99860971D02*
X155668219Y-99813352D01*
X155668219Y-99813352D02*
X155477743Y-99813352D01*
X155477743Y-99813352D02*
X155382505Y-99860971D01*
X155811076Y-100432400D02*
X155715838Y-100480019D01*
X155715838Y-100480019D02*
X155477743Y-100480019D01*
X155477743Y-100480019D02*
X155382505Y-100432400D01*
X155382505Y-100432400D02*
X155334886Y-100337161D01*
X155334886Y-100337161D02*
X155334886Y-100241923D01*
X155334886Y-100241923D02*
X155382505Y-100146685D01*
X155382505Y-100146685D02*
X155477743Y-100099066D01*
X155477743Y-100099066D02*
X155715838Y-100099066D01*
X155715838Y-100099066D02*
X155811076Y-100051447D01*
X156287267Y-100480019D02*
X156287267Y-99813352D01*
X156287267Y-100003828D02*
X156334886Y-99908590D01*
X156334886Y-99908590D02*
X156382505Y-99860971D01*
X156382505Y-99860971D02*
X156477743Y-99813352D01*
X156477743Y-99813352D02*
X156572981Y-99813352D01*
X157334886Y-100480019D02*
X157334886Y-99480019D01*
X157334886Y-100432400D02*
X157239648Y-100480019D01*
X157239648Y-100480019D02*
X157049172Y-100480019D01*
X157049172Y-100480019D02*
X156953934Y-100432400D01*
X156953934Y-100432400D02*
X156906315Y-100384780D01*
X156906315Y-100384780D02*
X156858696Y-100289542D01*
X156858696Y-100289542D02*
X156858696Y-100003828D01*
X156858696Y-100003828D02*
X156906315Y-99908590D01*
X156906315Y-99908590D02*
X156953934Y-99860971D01*
X156953934Y-99860971D02*
X157049172Y-99813352D01*
X157049172Y-99813352D02*
X157239648Y-99813352D01*
X157239648Y-99813352D02*
X157334886Y-99860971D01*
X129830533Y-78616980D02*
X129782914Y-78664600D01*
X129782914Y-78664600D02*
X129640057Y-78712219D01*
X129640057Y-78712219D02*
X129544819Y-78712219D01*
X129544819Y-78712219D02*
X129401962Y-78664600D01*
X129401962Y-78664600D02*
X129306724Y-78569361D01*
X129306724Y-78569361D02*
X129259105Y-78474123D01*
X129259105Y-78474123D02*
X129211486Y-78283647D01*
X129211486Y-78283647D02*
X129211486Y-78140790D01*
X129211486Y-78140790D02*
X129259105Y-77950314D01*
X129259105Y-77950314D02*
X129306724Y-77855076D01*
X129306724Y-77855076D02*
X129401962Y-77759838D01*
X129401962Y-77759838D02*
X129544819Y-77712219D01*
X129544819Y-77712219D02*
X129640057Y-77712219D01*
X129640057Y-77712219D02*
X129782914Y-77759838D01*
X129782914Y-77759838D02*
X129830533Y-77807457D01*
X130782914Y-78712219D02*
X130211486Y-78712219D01*
X130497200Y-78712219D02*
X130497200Y-77712219D01*
X130497200Y-77712219D02*
X130401962Y-77855076D01*
X130401962Y-77855076D02*
X130306724Y-77950314D01*
X130306724Y-77950314D02*
X130211486Y-77997933D01*
X127925533Y-71784380D02*
X127877914Y-71832000D01*
X127877914Y-71832000D02*
X127735057Y-71879619D01*
X127735057Y-71879619D02*
X127639819Y-71879619D01*
X127639819Y-71879619D02*
X127496962Y-71832000D01*
X127496962Y-71832000D02*
X127401724Y-71736761D01*
X127401724Y-71736761D02*
X127354105Y-71641523D01*
X127354105Y-71641523D02*
X127306486Y-71451047D01*
X127306486Y-71451047D02*
X127306486Y-71308190D01*
X127306486Y-71308190D02*
X127354105Y-71117714D01*
X127354105Y-71117714D02*
X127401724Y-71022476D01*
X127401724Y-71022476D02*
X127496962Y-70927238D01*
X127496962Y-70927238D02*
X127639819Y-70879619D01*
X127639819Y-70879619D02*
X127735057Y-70879619D01*
X127735057Y-70879619D02*
X127877914Y-70927238D01*
X127877914Y-70927238D02*
X127925533Y-70974857D01*
X128830295Y-70879619D02*
X128354105Y-70879619D01*
X128354105Y-70879619D02*
X128306486Y-71355809D01*
X128306486Y-71355809D02*
X128354105Y-71308190D01*
X128354105Y-71308190D02*
X128449343Y-71260571D01*
X128449343Y-71260571D02*
X128687438Y-71260571D01*
X128687438Y-71260571D02*
X128782676Y-71308190D01*
X128782676Y-71308190D02*
X128830295Y-71355809D01*
X128830295Y-71355809D02*
X128877914Y-71451047D01*
X128877914Y-71451047D02*
X128877914Y-71689142D01*
X128877914Y-71689142D02*
X128830295Y-71784380D01*
X128830295Y-71784380D02*
X128782676Y-71832000D01*
X128782676Y-71832000D02*
X128687438Y-71879619D01*
X128687438Y-71879619D02*
X128449343Y-71879619D01*
X128449343Y-71879619D02*
X128354105Y-71832000D01*
X128354105Y-71832000D02*
X128306486Y-71784380D01*
X139257828Y-75743600D02*
X139400685Y-75791219D01*
X139400685Y-75791219D02*
X139638780Y-75791219D01*
X139638780Y-75791219D02*
X139734018Y-75743600D01*
X139734018Y-75743600D02*
X139781637Y-75695980D01*
X139781637Y-75695980D02*
X139829256Y-75600742D01*
X139829256Y-75600742D02*
X139829256Y-75505504D01*
X139829256Y-75505504D02*
X139781637Y-75410266D01*
X139781637Y-75410266D02*
X139734018Y-75362647D01*
X139734018Y-75362647D02*
X139638780Y-75315028D01*
X139638780Y-75315028D02*
X139448304Y-75267409D01*
X139448304Y-75267409D02*
X139353066Y-75219790D01*
X139353066Y-75219790D02*
X139305447Y-75172171D01*
X139305447Y-75172171D02*
X139257828Y-75076933D01*
X139257828Y-75076933D02*
X139257828Y-74981695D01*
X139257828Y-74981695D02*
X139305447Y-74886457D01*
X139305447Y-74886457D02*
X139353066Y-74838838D01*
X139353066Y-74838838D02*
X139448304Y-74791219D01*
X139448304Y-74791219D02*
X139686399Y-74791219D01*
X139686399Y-74791219D02*
X139829256Y-74838838D01*
X140114971Y-74791219D02*
X140686399Y-74791219D01*
X140400685Y-75791219D02*
X140400685Y-74791219D01*
X141019733Y-75791219D02*
X141019733Y-74791219D01*
X141019733Y-74791219D02*
X141353066Y-75505504D01*
X141353066Y-75505504D02*
X141686399Y-74791219D01*
X141686399Y-74791219D02*
X141686399Y-75791219D01*
X142067352Y-74791219D02*
X142686399Y-74791219D01*
X142686399Y-74791219D02*
X142353066Y-75172171D01*
X142353066Y-75172171D02*
X142495923Y-75172171D01*
X142495923Y-75172171D02*
X142591161Y-75219790D01*
X142591161Y-75219790D02*
X142638780Y-75267409D01*
X142638780Y-75267409D02*
X142686399Y-75362647D01*
X142686399Y-75362647D02*
X142686399Y-75600742D01*
X142686399Y-75600742D02*
X142638780Y-75695980D01*
X142638780Y-75695980D02*
X142591161Y-75743600D01*
X142591161Y-75743600D02*
X142495923Y-75791219D01*
X142495923Y-75791219D02*
X142210209Y-75791219D01*
X142210209Y-75791219D02*
X142114971Y-75743600D01*
X142114971Y-75743600D02*
X142067352Y-75695980D01*
X143067352Y-74886457D02*
X143114971Y-74838838D01*
X143114971Y-74838838D02*
X143210209Y-74791219D01*
X143210209Y-74791219D02*
X143448304Y-74791219D01*
X143448304Y-74791219D02*
X143543542Y-74838838D01*
X143543542Y-74838838D02*
X143591161Y-74886457D01*
X143591161Y-74886457D02*
X143638780Y-74981695D01*
X143638780Y-74981695D02*
X143638780Y-75076933D01*
X143638780Y-75076933D02*
X143591161Y-75219790D01*
X143591161Y-75219790D02*
X143019733Y-75791219D01*
X143019733Y-75791219D02*
X143638780Y-75791219D01*
X144400685Y-75267409D02*
X144067352Y-75267409D01*
X144067352Y-75791219D02*
X144067352Y-74791219D01*
X144067352Y-74791219D02*
X144543542Y-74791219D01*
X145353066Y-75124552D02*
X145353066Y-75791219D01*
X145114971Y-74743600D02*
X144876876Y-75457885D01*
X144876876Y-75457885D02*
X145495923Y-75457885D01*
X146400685Y-75791219D02*
X145829257Y-75791219D01*
X146114971Y-75791219D02*
X146114971Y-74791219D01*
X146114971Y-74791219D02*
X146019733Y-74934076D01*
X146019733Y-74934076D02*
X145924495Y-75029314D01*
X145924495Y-75029314D02*
X145829257Y-75076933D01*
X147353066Y-75791219D02*
X146781638Y-75791219D01*
X147067352Y-75791219D02*
X147067352Y-74791219D01*
X147067352Y-74791219D02*
X146972114Y-74934076D01*
X146972114Y-74934076D02*
X146876876Y-75029314D01*
X146876876Y-75029314D02*
X146781638Y-75076933D01*
X148353066Y-75695980D02*
X148305447Y-75743600D01*
X148305447Y-75743600D02*
X148162590Y-75791219D01*
X148162590Y-75791219D02*
X148067352Y-75791219D01*
X148067352Y-75791219D02*
X147924495Y-75743600D01*
X147924495Y-75743600D02*
X147829257Y-75648361D01*
X147829257Y-75648361D02*
X147781638Y-75553123D01*
X147781638Y-75553123D02*
X147734019Y-75362647D01*
X147734019Y-75362647D02*
X147734019Y-75219790D01*
X147734019Y-75219790D02*
X147781638Y-75029314D01*
X147781638Y-75029314D02*
X147829257Y-74934076D01*
X147829257Y-74934076D02*
X147924495Y-74838838D01*
X147924495Y-74838838D02*
X148067352Y-74791219D01*
X148067352Y-74791219D02*
X148162590Y-74791219D01*
X148162590Y-74791219D02*
X148305447Y-74838838D01*
X148305447Y-74838838D02*
X148353066Y-74886457D01*
X148781638Y-75267409D02*
X149114971Y-75267409D01*
X149257828Y-75791219D02*
X148781638Y-75791219D01*
X148781638Y-75791219D02*
X148781638Y-74791219D01*
X148781638Y-74791219D02*
X149257828Y-74791219D01*
X149686400Y-74791219D02*
X149686400Y-75600742D01*
X149686400Y-75600742D02*
X149734019Y-75695980D01*
X149734019Y-75695980D02*
X149781638Y-75743600D01*
X149781638Y-75743600D02*
X149876876Y-75791219D01*
X149876876Y-75791219D02*
X150067352Y-75791219D01*
X150067352Y-75791219D02*
X150162590Y-75743600D01*
X150162590Y-75743600D02*
X150210209Y-75695980D01*
X150210209Y-75695980D02*
X150257828Y-75600742D01*
X150257828Y-75600742D02*
X150257828Y-74791219D01*
X150638781Y-75791219D02*
X151162590Y-75124552D01*
X150638781Y-75124552D02*
X151162590Y-75791219D01*
X143451342Y-89278619D02*
X143118009Y-88802428D01*
X142879914Y-89278619D02*
X142879914Y-88278619D01*
X142879914Y-88278619D02*
X143260866Y-88278619D01*
X143260866Y-88278619D02*
X143356104Y-88326238D01*
X143356104Y-88326238D02*
X143403723Y-88373857D01*
X143403723Y-88373857D02*
X143451342Y-88469095D01*
X143451342Y-88469095D02*
X143451342Y-88611952D01*
X143451342Y-88611952D02*
X143403723Y-88707190D01*
X143403723Y-88707190D02*
X143356104Y-88754809D01*
X143356104Y-88754809D02*
X143260866Y-88802428D01*
X143260866Y-88802428D02*
X142879914Y-88802428D01*
X144403723Y-89278619D02*
X143832295Y-89278619D01*
X144118009Y-89278619D02*
X144118009Y-88278619D01*
X144118009Y-88278619D02*
X144022771Y-88421476D01*
X144022771Y-88421476D02*
X143927533Y-88516714D01*
X143927533Y-88516714D02*
X143832295Y-88564333D01*
X144879914Y-89278619D02*
X145070390Y-89278619D01*
X145070390Y-89278619D02*
X145165628Y-89231000D01*
X145165628Y-89231000D02*
X145213247Y-89183380D01*
X145213247Y-89183380D02*
X145308485Y-89040523D01*
X145308485Y-89040523D02*
X145356104Y-88850047D01*
X145356104Y-88850047D02*
X145356104Y-88469095D01*
X145356104Y-88469095D02*
X145308485Y-88373857D01*
X145308485Y-88373857D02*
X145260866Y-88326238D01*
X145260866Y-88326238D02*
X145165628Y-88278619D01*
X145165628Y-88278619D02*
X144975152Y-88278619D01*
X144975152Y-88278619D02*
X144879914Y-88326238D01*
X144879914Y-88326238D02*
X144832295Y-88373857D01*
X144832295Y-88373857D02*
X144784676Y-88469095D01*
X144784676Y-88469095D02*
X144784676Y-88707190D01*
X144784676Y-88707190D02*
X144832295Y-88802428D01*
X144832295Y-88802428D02*
X144879914Y-88850047D01*
X144879914Y-88850047D02*
X144975152Y-88897666D01*
X144975152Y-88897666D02*
X145165628Y-88897666D01*
X145165628Y-88897666D02*
X145260866Y-88850047D01*
X145260866Y-88850047D02*
X145308485Y-88802428D01*
X145308485Y-88802428D02*
X145356104Y-88707190D01*
X153789142Y-76426219D02*
X153455809Y-75950028D01*
X153217714Y-76426219D02*
X153217714Y-75426219D01*
X153217714Y-75426219D02*
X153598666Y-75426219D01*
X153598666Y-75426219D02*
X153693904Y-75473838D01*
X153693904Y-75473838D02*
X153741523Y-75521457D01*
X153741523Y-75521457D02*
X153789142Y-75616695D01*
X153789142Y-75616695D02*
X153789142Y-75759552D01*
X153789142Y-75759552D02*
X153741523Y-75854790D01*
X153741523Y-75854790D02*
X153693904Y-75902409D01*
X153693904Y-75902409D02*
X153598666Y-75950028D01*
X153598666Y-75950028D02*
X153217714Y-75950028D01*
X154741523Y-76426219D02*
X154170095Y-76426219D01*
X154455809Y-76426219D02*
X154455809Y-75426219D01*
X154455809Y-75426219D02*
X154360571Y-75569076D01*
X154360571Y-75569076D02*
X154265333Y-75664314D01*
X154265333Y-75664314D02*
X154170095Y-75711933D01*
X155074857Y-75426219D02*
X155693904Y-75426219D01*
X155693904Y-75426219D02*
X155360571Y-75807171D01*
X155360571Y-75807171D02*
X155503428Y-75807171D01*
X155503428Y-75807171D02*
X155598666Y-75854790D01*
X155598666Y-75854790D02*
X155646285Y-75902409D01*
X155646285Y-75902409D02*
X155693904Y-75997647D01*
X155693904Y-75997647D02*
X155693904Y-76235742D01*
X155693904Y-76235742D02*
X155646285Y-76330980D01*
X155646285Y-76330980D02*
X155598666Y-76378600D01*
X155598666Y-76378600D02*
X155503428Y-76426219D01*
X155503428Y-76426219D02*
X155217714Y-76426219D01*
X155217714Y-76426219D02*
X155122476Y-76378600D01*
X155122476Y-76378600D02*
X155074857Y-76330980D01*
X123999666Y-63742219D02*
X123999666Y-64456504D01*
X123999666Y-64456504D02*
X123952047Y-64599361D01*
X123952047Y-64599361D02*
X123856809Y-64694600D01*
X123856809Y-64694600D02*
X123713952Y-64742219D01*
X123713952Y-64742219D02*
X123618714Y-64742219D01*
X124428238Y-63837457D02*
X124475857Y-63789838D01*
X124475857Y-63789838D02*
X124571095Y-63742219D01*
X124571095Y-63742219D02*
X124809190Y-63742219D01*
X124809190Y-63742219D02*
X124904428Y-63789838D01*
X124904428Y-63789838D02*
X124952047Y-63837457D01*
X124952047Y-63837457D02*
X124999666Y-63932695D01*
X124999666Y-63932695D02*
X124999666Y-64027933D01*
X124999666Y-64027933D02*
X124952047Y-64170790D01*
X124952047Y-64170790D02*
X124380619Y-64742219D01*
X124380619Y-64742219D02*
X124999666Y-64742219D01*
X154493933Y-83030219D02*
X154160600Y-82554028D01*
X153922505Y-83030219D02*
X153922505Y-82030219D01*
X153922505Y-82030219D02*
X154303457Y-82030219D01*
X154303457Y-82030219D02*
X154398695Y-82077838D01*
X154398695Y-82077838D02*
X154446314Y-82125457D01*
X154446314Y-82125457D02*
X154493933Y-82220695D01*
X154493933Y-82220695D02*
X154493933Y-82363552D01*
X154493933Y-82363552D02*
X154446314Y-82458790D01*
X154446314Y-82458790D02*
X154398695Y-82506409D01*
X154398695Y-82506409D02*
X154303457Y-82554028D01*
X154303457Y-82554028D02*
X153922505Y-82554028D01*
X154970124Y-83030219D02*
X155160600Y-83030219D01*
X155160600Y-83030219D02*
X155255838Y-82982600D01*
X155255838Y-82982600D02*
X155303457Y-82934980D01*
X155303457Y-82934980D02*
X155398695Y-82792123D01*
X155398695Y-82792123D02*
X155446314Y-82601647D01*
X155446314Y-82601647D02*
X155446314Y-82220695D01*
X155446314Y-82220695D02*
X155398695Y-82125457D01*
X155398695Y-82125457D02*
X155351076Y-82077838D01*
X155351076Y-82077838D02*
X155255838Y-82030219D01*
X155255838Y-82030219D02*
X155065362Y-82030219D01*
X155065362Y-82030219D02*
X154970124Y-82077838D01*
X154970124Y-82077838D02*
X154922505Y-82125457D01*
X154922505Y-82125457D02*
X154874886Y-82220695D01*
X154874886Y-82220695D02*
X154874886Y-82458790D01*
X154874886Y-82458790D02*
X154922505Y-82554028D01*
X154922505Y-82554028D02*
X154970124Y-82601647D01*
X154970124Y-82601647D02*
X155065362Y-82649266D01*
X155065362Y-82649266D02*
X155255838Y-82649266D01*
X155255838Y-82649266D02*
X155351076Y-82601647D01*
X155351076Y-82601647D02*
X155398695Y-82554028D01*
X155398695Y-82554028D02*
X155446314Y-82458790D01*
X131684733Y-85316219D02*
X131351400Y-84840028D01*
X131113305Y-85316219D02*
X131113305Y-84316219D01*
X131113305Y-84316219D02*
X131494257Y-84316219D01*
X131494257Y-84316219D02*
X131589495Y-84363838D01*
X131589495Y-84363838D02*
X131637114Y-84411457D01*
X131637114Y-84411457D02*
X131684733Y-84506695D01*
X131684733Y-84506695D02*
X131684733Y-84649552D01*
X131684733Y-84649552D02*
X131637114Y-84744790D01*
X131637114Y-84744790D02*
X131589495Y-84792409D01*
X131589495Y-84792409D02*
X131494257Y-84840028D01*
X131494257Y-84840028D02*
X131113305Y-84840028D01*
X132018067Y-84316219D02*
X132637114Y-84316219D01*
X132637114Y-84316219D02*
X132303781Y-84697171D01*
X132303781Y-84697171D02*
X132446638Y-84697171D01*
X132446638Y-84697171D02*
X132541876Y-84744790D01*
X132541876Y-84744790D02*
X132589495Y-84792409D01*
X132589495Y-84792409D02*
X132637114Y-84887647D01*
X132637114Y-84887647D02*
X132637114Y-85125742D01*
X132637114Y-85125742D02*
X132589495Y-85220980D01*
X132589495Y-85220980D02*
X132541876Y-85268600D01*
X132541876Y-85268600D02*
X132446638Y-85316219D01*
X132446638Y-85316219D02*
X132160924Y-85316219D01*
X132160924Y-85316219D02*
X132065686Y-85268600D01*
X132065686Y-85268600D02*
X132018067Y-85220980D01*
X132275342Y-112519619D02*
X131942009Y-112043428D01*
X131703914Y-112519619D02*
X131703914Y-111519619D01*
X131703914Y-111519619D02*
X132084866Y-111519619D01*
X132084866Y-111519619D02*
X132180104Y-111567238D01*
X132180104Y-111567238D02*
X132227723Y-111614857D01*
X132227723Y-111614857D02*
X132275342Y-111710095D01*
X132275342Y-111710095D02*
X132275342Y-111852952D01*
X132275342Y-111852952D02*
X132227723Y-111948190D01*
X132227723Y-111948190D02*
X132180104Y-111995809D01*
X132180104Y-111995809D02*
X132084866Y-112043428D01*
X132084866Y-112043428D02*
X131703914Y-112043428D01*
X133227723Y-112519619D02*
X132656295Y-112519619D01*
X132942009Y-112519619D02*
X132942009Y-111519619D01*
X132942009Y-111519619D02*
X132846771Y-111662476D01*
X132846771Y-111662476D02*
X132751533Y-111757714D01*
X132751533Y-111757714D02*
X132656295Y-111805333D01*
X133799152Y-111948190D02*
X133703914Y-111900571D01*
X133703914Y-111900571D02*
X133656295Y-111852952D01*
X133656295Y-111852952D02*
X133608676Y-111757714D01*
X133608676Y-111757714D02*
X133608676Y-111710095D01*
X133608676Y-111710095D02*
X133656295Y-111614857D01*
X133656295Y-111614857D02*
X133703914Y-111567238D01*
X133703914Y-111567238D02*
X133799152Y-111519619D01*
X133799152Y-111519619D02*
X133989628Y-111519619D01*
X133989628Y-111519619D02*
X134084866Y-111567238D01*
X134084866Y-111567238D02*
X134132485Y-111614857D01*
X134132485Y-111614857D02*
X134180104Y-111710095D01*
X134180104Y-111710095D02*
X134180104Y-111757714D01*
X134180104Y-111757714D02*
X134132485Y-111852952D01*
X134132485Y-111852952D02*
X134084866Y-111900571D01*
X134084866Y-111900571D02*
X133989628Y-111948190D01*
X133989628Y-111948190D02*
X133799152Y-111948190D01*
X133799152Y-111948190D02*
X133703914Y-111995809D01*
X133703914Y-111995809D02*
X133656295Y-112043428D01*
X133656295Y-112043428D02*
X133608676Y-112138666D01*
X133608676Y-112138666D02*
X133608676Y-112329142D01*
X133608676Y-112329142D02*
X133656295Y-112424380D01*
X133656295Y-112424380D02*
X133703914Y-112472000D01*
X133703914Y-112472000D02*
X133799152Y-112519619D01*
X133799152Y-112519619D02*
X133989628Y-112519619D01*
X133989628Y-112519619D02*
X134084866Y-112472000D01*
X134084866Y-112472000D02*
X134132485Y-112424380D01*
X134132485Y-112424380D02*
X134180104Y-112329142D01*
X134180104Y-112329142D02*
X134180104Y-112138666D01*
X134180104Y-112138666D02*
X134132485Y-112043428D01*
X134132485Y-112043428D02*
X134084866Y-111995809D01*
X134084866Y-111995809D02*
X133989628Y-111948190D01*
X138210633Y-78865619D02*
X137877300Y-78389428D01*
X137639205Y-78865619D02*
X137639205Y-77865619D01*
X137639205Y-77865619D02*
X138020157Y-77865619D01*
X138020157Y-77865619D02*
X138115395Y-77913238D01*
X138115395Y-77913238D02*
X138163014Y-77960857D01*
X138163014Y-77960857D02*
X138210633Y-78056095D01*
X138210633Y-78056095D02*
X138210633Y-78198952D01*
X138210633Y-78198952D02*
X138163014Y-78294190D01*
X138163014Y-78294190D02*
X138115395Y-78341809D01*
X138115395Y-78341809D02*
X138020157Y-78389428D01*
X138020157Y-78389428D02*
X137639205Y-78389428D01*
X138591586Y-77960857D02*
X138639205Y-77913238D01*
X138639205Y-77913238D02*
X138734443Y-77865619D01*
X138734443Y-77865619D02*
X138972538Y-77865619D01*
X138972538Y-77865619D02*
X139067776Y-77913238D01*
X139067776Y-77913238D02*
X139115395Y-77960857D01*
X139115395Y-77960857D02*
X139163014Y-78056095D01*
X139163014Y-78056095D02*
X139163014Y-78151333D01*
X139163014Y-78151333D02*
X139115395Y-78294190D01*
X139115395Y-78294190D02*
X138543967Y-78865619D01*
X138543967Y-78865619D02*
X139163014Y-78865619D01*
X124236314Y-118234619D02*
X124236314Y-117234619D01*
X124236314Y-117234619D02*
X124474409Y-117234619D01*
X124474409Y-117234619D02*
X124617266Y-117282238D01*
X124617266Y-117282238D02*
X124712504Y-117377476D01*
X124712504Y-117377476D02*
X124760123Y-117472714D01*
X124760123Y-117472714D02*
X124807742Y-117663190D01*
X124807742Y-117663190D02*
X124807742Y-117806047D01*
X124807742Y-117806047D02*
X124760123Y-117996523D01*
X124760123Y-117996523D02*
X124712504Y-118091761D01*
X124712504Y-118091761D02*
X124617266Y-118187000D01*
X124617266Y-118187000D02*
X124474409Y-118234619D01*
X124474409Y-118234619D02*
X124236314Y-118234619D01*
X125188695Y-118187000D02*
X125331552Y-118234619D01*
X125331552Y-118234619D02*
X125569647Y-118234619D01*
X125569647Y-118234619D02*
X125664885Y-118187000D01*
X125664885Y-118187000D02*
X125712504Y-118139380D01*
X125712504Y-118139380D02*
X125760123Y-118044142D01*
X125760123Y-118044142D02*
X125760123Y-117948904D01*
X125760123Y-117948904D02*
X125712504Y-117853666D01*
X125712504Y-117853666D02*
X125664885Y-117806047D01*
X125664885Y-117806047D02*
X125569647Y-117758428D01*
X125569647Y-117758428D02*
X125379171Y-117710809D01*
X125379171Y-117710809D02*
X125283933Y-117663190D01*
X125283933Y-117663190D02*
X125236314Y-117615571D01*
X125236314Y-117615571D02*
X125188695Y-117520333D01*
X125188695Y-117520333D02*
X125188695Y-117425095D01*
X125188695Y-117425095D02*
X125236314Y-117329857D01*
X125236314Y-117329857D02*
X125283933Y-117282238D01*
X125283933Y-117282238D02*
X125379171Y-117234619D01*
X125379171Y-117234619D02*
X125617266Y-117234619D01*
X125617266Y-117234619D02*
X125760123Y-117282238D01*
X126712504Y-118234619D02*
X126141076Y-118234619D01*
X126426790Y-118234619D02*
X126426790Y-117234619D01*
X126426790Y-117234619D02*
X126331552Y-117377476D01*
X126331552Y-117377476D02*
X126236314Y-117472714D01*
X126236314Y-117472714D02*
X126141076Y-117520333D01*
X153839942Y-85367019D02*
X153506609Y-84890828D01*
X153268514Y-85367019D02*
X153268514Y-84367019D01*
X153268514Y-84367019D02*
X153649466Y-84367019D01*
X153649466Y-84367019D02*
X153744704Y-84414638D01*
X153744704Y-84414638D02*
X153792323Y-84462257D01*
X153792323Y-84462257D02*
X153839942Y-84557495D01*
X153839942Y-84557495D02*
X153839942Y-84700352D01*
X153839942Y-84700352D02*
X153792323Y-84795590D01*
X153792323Y-84795590D02*
X153744704Y-84843209D01*
X153744704Y-84843209D02*
X153649466Y-84890828D01*
X153649466Y-84890828D02*
X153268514Y-84890828D01*
X154792323Y-85367019D02*
X154220895Y-85367019D01*
X154506609Y-85367019D02*
X154506609Y-84367019D01*
X154506609Y-84367019D02*
X154411371Y-84509876D01*
X154411371Y-84509876D02*
X154316133Y-84605114D01*
X154316133Y-84605114D02*
X154220895Y-84652733D01*
X155744704Y-85367019D02*
X155173276Y-85367019D01*
X155458990Y-85367019D02*
X155458990Y-84367019D01*
X155458990Y-84367019D02*
X155363752Y-84509876D01*
X155363752Y-84509876D02*
X155268514Y-84605114D01*
X155268514Y-84605114D02*
X155173276Y-84652733D01*
X135399542Y-62183180D02*
X135351923Y-62230800D01*
X135351923Y-62230800D02*
X135209066Y-62278419D01*
X135209066Y-62278419D02*
X135113828Y-62278419D01*
X135113828Y-62278419D02*
X134970971Y-62230800D01*
X134970971Y-62230800D02*
X134875733Y-62135561D01*
X134875733Y-62135561D02*
X134828114Y-62040323D01*
X134828114Y-62040323D02*
X134780495Y-61849847D01*
X134780495Y-61849847D02*
X134780495Y-61706990D01*
X134780495Y-61706990D02*
X134828114Y-61516514D01*
X134828114Y-61516514D02*
X134875733Y-61421276D01*
X134875733Y-61421276D02*
X134970971Y-61326038D01*
X134970971Y-61326038D02*
X135113828Y-61278419D01*
X135113828Y-61278419D02*
X135209066Y-61278419D01*
X135209066Y-61278419D02*
X135351923Y-61326038D01*
X135351923Y-61326038D02*
X135399542Y-61373657D01*
X136351923Y-62278419D02*
X135780495Y-62278419D01*
X136066209Y-62278419D02*
X136066209Y-61278419D01*
X136066209Y-61278419D02*
X135970971Y-61421276D01*
X135970971Y-61421276D02*
X135875733Y-61516514D01*
X135875733Y-61516514D02*
X135780495Y-61564133D01*
X136732876Y-61373657D02*
X136780495Y-61326038D01*
X136780495Y-61326038D02*
X136875733Y-61278419D01*
X136875733Y-61278419D02*
X137113828Y-61278419D01*
X137113828Y-61278419D02*
X137209066Y-61326038D01*
X137209066Y-61326038D02*
X137256685Y-61373657D01*
X137256685Y-61373657D02*
X137304304Y-61468895D01*
X137304304Y-61468895D02*
X137304304Y-61564133D01*
X137304304Y-61564133D02*
X137256685Y-61706990D01*
X137256685Y-61706990D02*
X136685257Y-62278419D01*
X136685257Y-62278419D02*
X137304304Y-62278419D01*
X139158742Y-116894780D02*
X139111123Y-116942400D01*
X139111123Y-116942400D02*
X138968266Y-116990019D01*
X138968266Y-116990019D02*
X138873028Y-116990019D01*
X138873028Y-116990019D02*
X138730171Y-116942400D01*
X138730171Y-116942400D02*
X138634933Y-116847161D01*
X138634933Y-116847161D02*
X138587314Y-116751923D01*
X138587314Y-116751923D02*
X138539695Y-116561447D01*
X138539695Y-116561447D02*
X138539695Y-116418590D01*
X138539695Y-116418590D02*
X138587314Y-116228114D01*
X138587314Y-116228114D02*
X138634933Y-116132876D01*
X138634933Y-116132876D02*
X138730171Y-116037638D01*
X138730171Y-116037638D02*
X138873028Y-115990019D01*
X138873028Y-115990019D02*
X138968266Y-115990019D01*
X138968266Y-115990019D02*
X139111123Y-116037638D01*
X139111123Y-116037638D02*
X139158742Y-116085257D01*
X140111123Y-116990019D02*
X139539695Y-116990019D01*
X139825409Y-116990019D02*
X139825409Y-115990019D01*
X139825409Y-115990019D02*
X139730171Y-116132876D01*
X139730171Y-116132876D02*
X139634933Y-116228114D01*
X139634933Y-116228114D02*
X139539695Y-116275733D01*
X140968266Y-116323352D02*
X140968266Y-116990019D01*
X140730171Y-115942400D02*
X140492076Y-116656685D01*
X140492076Y-116656685D02*
X141111123Y-116656685D01*
D12*
X111853819Y-85321315D02*
X110853819Y-85321315D01*
X110853819Y-85321315D02*
X110853819Y-85083220D01*
X110853819Y-85083220D02*
X110901438Y-84940363D01*
X110901438Y-84940363D02*
X110996676Y-84845125D01*
X110996676Y-84845125D02*
X111091914Y-84797506D01*
X111091914Y-84797506D02*
X111282390Y-84749887D01*
X111282390Y-84749887D02*
X111425247Y-84749887D01*
X111425247Y-84749887D02*
X111615723Y-84797506D01*
X111615723Y-84797506D02*
X111710961Y-84845125D01*
X111710961Y-84845125D02*
X111806200Y-84940363D01*
X111806200Y-84940363D02*
X111853819Y-85083220D01*
X111853819Y-85083220D02*
X111853819Y-85321315D01*
X111568104Y-84368934D02*
X111568104Y-83892744D01*
X111853819Y-84464172D02*
X110853819Y-84130839D01*
X110853819Y-84130839D02*
X111853819Y-83797506D01*
X110853819Y-83607029D02*
X110853819Y-83035601D01*
X111853819Y-83321315D02*
X110853819Y-83321315D01*
X111568104Y-82749886D02*
X111568104Y-82273696D01*
X111853819Y-82845124D02*
X110853819Y-82511791D01*
X110853819Y-82511791D02*
X111853819Y-82178458D01*
G36*
X158557596Y-116277780D02*
G01*
X158544946Y-116277607D01*
X158532123Y-116277149D01*
X158519506Y-116276492D01*
X158516563Y-116276315D01*
X158503861Y-116275465D01*
X158492133Y-116274893D01*
X158480243Y-116274584D01*
X158475824Y-116274556D01*
X158464055Y-116275159D01*
X158451287Y-116276328D01*
X158438455Y-116277707D01*
X158423296Y-116279479D01*
X158410401Y-116281067D01*
X158396197Y-116282876D01*
X158380684Y-116284907D01*
X158363863Y-116287159D01*
X158379397Y-116764898D01*
X158380276Y-116800362D01*
X158381155Y-116841688D01*
X158381195Y-116863125D01*
X158380510Y-116883179D01*
X158379098Y-116901850D01*
X158376960Y-116919137D01*
X158374097Y-116935042D01*
X158370508Y-116949564D01*
X158366193Y-116962703D01*
X158361152Y-116974458D01*
X158355385Y-116984831D01*
X158345374Y-116997797D01*
X158333729Y-117007651D01*
X158320452Y-117014393D01*
X158305541Y-117018024D01*
X158294693Y-117018715D01*
X158282583Y-117017973D01*
X158269235Y-117015232D01*
X158256729Y-117010472D01*
X158245064Y-117003692D01*
X158237247Y-116997613D01*
X158227769Y-116987875D01*
X158220618Y-116977128D01*
X158215795Y-116965371D01*
X158213301Y-116952605D01*
X158212921Y-116944856D01*
X158213003Y-116932234D01*
X158213198Y-116920062D01*
X158213507Y-116906388D01*
X158213837Y-116894367D01*
X158214240Y-116881384D01*
X158214716Y-116867439D01*
X158215266Y-116852532D01*
X158215884Y-116837626D01*
X158216420Y-116823681D01*
X158216873Y-116810698D01*
X158217244Y-116798677D01*
X158217592Y-116785003D01*
X158217811Y-116772831D01*
X158217903Y-116760209D01*
X158201490Y-116287159D01*
X158189671Y-116286585D01*
X158176743Y-116285850D01*
X158162709Y-116284957D01*
X158147566Y-116283903D01*
X158131316Y-116282690D01*
X158113958Y-116281317D01*
X158101770Y-116280313D01*
X158089091Y-116279238D01*
X158075919Y-116278092D01*
X158062255Y-116276874D01*
X158048098Y-116275586D01*
X158033449Y-116274228D01*
X158018308Y-116272798D01*
X158005213Y-116270375D01*
X157993407Y-116266845D01*
X157979668Y-116260416D01*
X157968219Y-116252017D01*
X157959060Y-116241649D01*
X157952191Y-116229311D01*
X157947611Y-116215005D01*
X157945679Y-116202983D01*
X157945035Y-116189853D01*
X157945818Y-116176358D01*
X157948168Y-116163790D01*
X157952083Y-116152150D01*
X157957565Y-116141438D01*
X157964613Y-116131652D01*
X157967310Y-116128597D01*
X157976096Y-116120329D01*
X157987440Y-116112846D01*
X157999962Y-116107691D01*
X158011633Y-116105125D01*
X158024170Y-116104270D01*
X158197094Y-116118338D01*
X158197001Y-116105125D01*
X158196722Y-116090581D01*
X158196365Y-116077987D01*
X158195888Y-116064541D01*
X158195293Y-116050244D01*
X158194579Y-116035095D01*
X158193965Y-116023174D01*
X158193284Y-116010774D01*
X158192655Y-115998464D01*
X158191913Y-115983077D01*
X158191281Y-115968862D01*
X158190759Y-115955819D01*
X158190347Y-115943949D01*
X158189986Y-115930760D01*
X158189780Y-115917351D01*
X158189767Y-115913467D01*
X158190601Y-115901450D01*
X158193685Y-115888445D01*
X158199040Y-115876533D01*
X158206668Y-115865716D01*
X158213507Y-115858659D01*
X158222890Y-115851289D01*
X158234776Y-115844617D01*
X158247670Y-115840021D01*
X158259527Y-115837733D01*
X158272125Y-115836971D01*
X158285538Y-115837991D01*
X158297858Y-115841051D01*
X158309086Y-115846151D01*
X158319221Y-115853292D01*
X158328265Y-115862473D01*
X158336216Y-115873694D01*
X158343075Y-115886955D01*
X158348842Y-115902257D01*
X158352080Y-115913591D01*
X158354832Y-115925832D01*
X158357099Y-115938980D01*
X158358880Y-115953035D01*
X158359794Y-115966419D01*
X158360398Y-115978783D01*
X158360838Y-115991972D01*
X158361113Y-116005986D01*
X158361216Y-116018293D01*
X158361225Y-116023377D01*
X158359760Y-116069392D01*
X158358880Y-116118338D01*
X158371324Y-116116741D01*
X158383083Y-116115247D01*
X158399438Y-116113199D01*
X158414253Y-116111383D01*
X158427527Y-116109799D01*
X158439261Y-116108447D01*
X158452509Y-116107004D01*
X158465219Y-116105780D01*
X158475824Y-116105149D01*
X158491403Y-116105221D01*
X158505935Y-116105438D01*
X158519423Y-116105798D01*
X158531864Y-116106303D01*
X158546825Y-116107201D01*
X158559927Y-116108355D01*
X158573690Y-116110158D01*
X158586371Y-116112851D01*
X158588078Y-116113356D01*
X158599824Y-116118247D01*
X158610005Y-116124567D01*
X158620528Y-116134476D01*
X158628603Y-116146617D01*
X158633302Y-116157938D01*
X158636434Y-116170687D01*
X158638001Y-116184866D01*
X158638196Y-116192490D01*
X158637393Y-116205985D01*
X158634982Y-116218553D01*
X158630963Y-116230193D01*
X158625337Y-116240906D01*
X158618104Y-116250691D01*
X158615335Y-116253747D01*
X158606429Y-116261914D01*
X158596637Y-116268392D01*
X158584093Y-116273814D01*
X158572381Y-116276630D01*
X158559782Y-116277757D01*
X158557596Y-116277780D01*
G37*
G36*
X159487282Y-117018715D02*
G01*
X159473260Y-117017744D01*
X159460501Y-117014832D01*
X159449006Y-117009977D01*
X159438776Y-117003181D01*
X159429809Y-116994444D01*
X159422106Y-116983764D01*
X159415667Y-116971143D01*
X159410492Y-116956580D01*
X159407001Y-116943446D01*
X159403561Y-116929322D01*
X159400173Y-116914210D01*
X159396836Y-116898108D01*
X159393551Y-116881017D01*
X159391389Y-116869074D01*
X159389251Y-116856691D01*
X159387135Y-116843868D01*
X159385042Y-116830605D01*
X159382972Y-116816903D01*
X159380925Y-116802762D01*
X159378901Y-116788180D01*
X159376900Y-116773160D01*
X159375908Y-116765484D01*
X159374133Y-116750812D01*
X159372473Y-116736473D01*
X159370927Y-116722465D01*
X159369496Y-116708789D01*
X159368180Y-116695446D01*
X159366977Y-116682434D01*
X159365890Y-116669754D01*
X159364917Y-116657407D01*
X159364058Y-116645391D01*
X159362985Y-116627990D01*
X159362169Y-116611336D01*
X159361611Y-116595430D01*
X159361310Y-116580270D01*
X159361253Y-116570578D01*
X159361381Y-116558507D01*
X159361704Y-116545690D01*
X159362137Y-116533030D01*
X159362607Y-116521299D01*
X159363178Y-116508495D01*
X159363305Y-116505805D01*
X159363896Y-116492786D01*
X159364387Y-116480841D01*
X159364843Y-116467923D01*
X159365194Y-116454806D01*
X159365354Y-116442391D01*
X159365356Y-116441032D01*
X159365054Y-116422399D01*
X159364147Y-116404968D01*
X159362636Y-116388739D01*
X159360520Y-116373713D01*
X159357800Y-116359888D01*
X159354475Y-116347266D01*
X159350546Y-116335845D01*
X159343519Y-116320969D01*
X159335131Y-116308797D01*
X159325384Y-116299331D01*
X159314276Y-116292569D01*
X159301808Y-116288511D01*
X159287980Y-116287159D01*
X159274952Y-116287531D01*
X159262101Y-116288647D01*
X159249426Y-116290508D01*
X159236927Y-116293112D01*
X159224605Y-116296461D01*
X159212459Y-116300554D01*
X159200489Y-116305391D01*
X159188695Y-116310973D01*
X159177078Y-116317298D01*
X159165637Y-116324368D01*
X159154373Y-116332182D01*
X159143285Y-116340740D01*
X159132373Y-116350042D01*
X159121637Y-116360088D01*
X159111078Y-116370879D01*
X159100695Y-116382414D01*
X159092508Y-116392317D01*
X159083776Y-116403781D01*
X159074497Y-116416806D01*
X159064672Y-116431392D01*
X159057819Y-116441983D01*
X159050723Y-116453269D01*
X159043384Y-116465248D01*
X159035802Y-116477920D01*
X159027978Y-116491287D01*
X159019911Y-116505347D01*
X159011602Y-116520101D01*
X159003049Y-116535549D01*
X158994254Y-116551691D01*
X158985217Y-116568527D01*
X158985191Y-116588293D01*
X158985114Y-116607549D01*
X158984985Y-116626294D01*
X158984805Y-116644529D01*
X158984573Y-116662253D01*
X158984289Y-116679466D01*
X158983954Y-116696169D01*
X158983568Y-116712361D01*
X158983130Y-116728043D01*
X158982641Y-116743214D01*
X158982100Y-116757874D01*
X158981507Y-116772024D01*
X158980863Y-116785663D01*
X158980168Y-116798791D01*
X158979421Y-116811409D01*
X158978622Y-116823516D01*
X158976870Y-116846199D01*
X158974913Y-116866839D01*
X158972749Y-116885436D01*
X158970379Y-116901992D01*
X158967803Y-116916504D01*
X158965021Y-116928974D01*
X158960461Y-116943850D01*
X158958838Y-116947787D01*
X158952651Y-116960014D01*
X158945668Y-116970612D01*
X158937887Y-116979578D01*
X158927041Y-116988494D01*
X158914949Y-116994863D01*
X158901613Y-116998684D01*
X158887031Y-116999957D01*
X158874680Y-116999154D01*
X158862906Y-116996743D01*
X158851709Y-116992724D01*
X158841089Y-116987098D01*
X158831046Y-116979865D01*
X158827827Y-116977096D01*
X158819161Y-116968073D01*
X158812288Y-116958370D01*
X158806536Y-116946191D01*
X158803224Y-116933086D01*
X158802328Y-116921116D01*
X158803730Y-116908590D01*
X158806449Y-116896551D01*
X158809655Y-116885066D01*
X158812394Y-116872331D01*
X158814092Y-116858632D01*
X158815297Y-116844912D01*
X158816110Y-116833011D01*
X158816846Y-116819729D01*
X158817505Y-116805066D01*
X158818086Y-116789023D01*
X158818590Y-116771599D01*
X158818741Y-116765484D01*
X158821379Y-116644144D01*
X158823723Y-116041255D01*
X158824433Y-116028802D01*
X158825097Y-116016869D01*
X158826007Y-115999944D01*
X158826814Y-115984188D01*
X158827519Y-115969602D01*
X158828120Y-115956186D01*
X158828618Y-115943938D01*
X158829121Y-115929428D01*
X158829442Y-115916997D01*
X158829585Y-115904382D01*
X158829392Y-115891399D01*
X158828812Y-115878645D01*
X158827846Y-115866119D01*
X158826494Y-115853823D01*
X158824755Y-115841756D01*
X158822630Y-115829918D01*
X158821672Y-115825247D01*
X158819392Y-115813536D01*
X158817499Y-115801668D01*
X158815992Y-115789642D01*
X158814871Y-115777459D01*
X158814137Y-115765119D01*
X158813789Y-115752621D01*
X158813758Y-115747578D01*
X158814593Y-115735131D01*
X158817097Y-115723508D01*
X158822128Y-115710989D01*
X158829431Y-115699593D01*
X158837499Y-115690718D01*
X158846892Y-115683048D01*
X158857049Y-115676966D01*
X158867968Y-115672470D01*
X158879649Y-115669560D01*
X158892093Y-115668238D01*
X158896410Y-115668150D01*
X158908610Y-115668760D01*
X158923338Y-115671474D01*
X158936307Y-115676358D01*
X158947518Y-115683413D01*
X158956970Y-115692638D01*
X158964664Y-115704034D01*
X158970599Y-115717601D01*
X158973896Y-115729201D01*
X158975545Y-115737613D01*
X158977849Y-115751877D01*
X158979927Y-115765873D01*
X158981779Y-115779601D01*
X158983403Y-115793062D01*
X158984801Y-115806254D01*
X158985972Y-115819179D01*
X158986917Y-115831836D01*
X158987635Y-115844225D01*
X158988126Y-115856346D01*
X158988390Y-115868199D01*
X158988441Y-115875952D01*
X158988392Y-115891566D01*
X158988245Y-115907303D01*
X158988000Y-115923165D01*
X158987658Y-115939150D01*
X158987217Y-115955258D01*
X158986679Y-115971490D01*
X158986042Y-115987846D01*
X158985308Y-116004326D01*
X158984476Y-116020929D01*
X158983546Y-116037656D01*
X158982872Y-116048876D01*
X158981989Y-116065228D01*
X158981210Y-116081642D01*
X158980533Y-116098118D01*
X158979959Y-116114656D01*
X158979489Y-116131256D01*
X158979121Y-116147918D01*
X158978857Y-116164641D01*
X158978695Y-116181426D01*
X158978637Y-116198273D01*
X158978682Y-116215182D01*
X158978769Y-116226489D01*
X158979648Y-116298883D01*
X158988146Y-116287741D01*
X158996716Y-116276956D01*
X159005356Y-116266528D01*
X159014068Y-116256458D01*
X159022850Y-116246744D01*
X159031704Y-116237388D01*
X159040628Y-116228390D01*
X159049624Y-116219748D01*
X159058690Y-116211464D01*
X159067827Y-116203536D01*
X159077036Y-116195966D01*
X159086315Y-116188754D01*
X159100367Y-116178604D01*
X159114579Y-116169258D01*
X159124142Y-116163474D01*
X159138678Y-116155408D01*
X159153378Y-116148135D01*
X159168243Y-116141656D01*
X159183273Y-116135970D01*
X159198468Y-116131077D01*
X159213828Y-116126978D01*
X159229353Y-116123672D01*
X159245042Y-116121159D01*
X159260897Y-116119440D01*
X159276916Y-116118515D01*
X159287687Y-116118338D01*
X159304461Y-116118685D01*
X159320564Y-116119726D01*
X159335996Y-116121460D01*
X159350757Y-116123889D01*
X159364847Y-116127011D01*
X159378266Y-116130827D01*
X159391014Y-116135337D01*
X159403092Y-116140540D01*
X159414498Y-116146437D01*
X159425234Y-116153028D01*
X159435299Y-116160313D01*
X159444692Y-116168292D01*
X159453415Y-116176965D01*
X159461467Y-116186331D01*
X159468848Y-116196391D01*
X159475559Y-116207145D01*
X159482097Y-116219655D01*
X159488085Y-116233664D01*
X159493521Y-116249172D01*
X159498406Y-116266180D01*
X159501356Y-116278351D01*
X159504062Y-116291189D01*
X159506522Y-116304693D01*
X159508737Y-116318863D01*
X159510708Y-116333700D01*
X159512433Y-116349203D01*
X159513914Y-116365372D01*
X159515149Y-116382208D01*
X159516139Y-116399710D01*
X159516884Y-116417878D01*
X159523626Y-116574975D01*
X159540039Y-116746433D01*
X159541488Y-116758361D01*
X159542979Y-116770110D01*
X159545292Y-116787398D01*
X159547698Y-116804284D01*
X159550197Y-116820769D01*
X159552788Y-116836852D01*
X159555472Y-116852533D01*
X159558249Y-116867812D01*
X159561119Y-116882689D01*
X159564081Y-116897165D01*
X159567137Y-116911238D01*
X159568175Y-116915840D01*
X159570490Y-116928063D01*
X159571400Y-116939581D01*
X159570524Y-116951928D01*
X159567896Y-116963472D01*
X159562617Y-116975924D01*
X159554953Y-116987282D01*
X159546487Y-116996147D01*
X159536904Y-117003817D01*
X159526621Y-117009900D01*
X159515637Y-117014396D01*
X159503952Y-117017305D01*
X159491566Y-117018627D01*
X159487282Y-117018715D01*
G37*
G36*
X160408175Y-116354863D02*
G01*
X160407167Y-116367108D01*
X160404619Y-116383993D01*
X160400830Y-116399102D01*
X160395799Y-116412432D01*
X160389526Y-116423986D01*
X160382012Y-116433762D01*
X160373256Y-116441760D01*
X160363259Y-116447981D01*
X160352020Y-116452425D01*
X160339539Y-116455091D01*
X160325817Y-116455980D01*
X160313141Y-116455271D01*
X160298180Y-116452123D01*
X160285435Y-116446456D01*
X160274906Y-116438270D01*
X160266595Y-116427565D01*
X160260499Y-116414342D01*
X160257382Y-116402771D01*
X160255512Y-116389784D01*
X160254889Y-116375380D01*
X160254631Y-116363124D01*
X160254054Y-116349650D01*
X160253405Y-116337406D01*
X160252570Y-116323327D01*
X160252251Y-116318227D01*
X160249906Y-116249643D01*
X160233841Y-116251750D01*
X160218179Y-116254186D01*
X160202920Y-116256952D01*
X160188064Y-116260048D01*
X160173611Y-116263474D01*
X160159561Y-116267229D01*
X160145914Y-116271314D01*
X160132670Y-116275728D01*
X160119828Y-116280473D01*
X160107390Y-116285547D01*
X160095355Y-116290951D01*
X160083723Y-116296684D01*
X160072494Y-116302748D01*
X160061668Y-116309141D01*
X160051245Y-116315864D01*
X160041225Y-116322916D01*
X160027703Y-116333449D01*
X160014613Y-116344936D01*
X160006127Y-116353123D01*
X159997834Y-116361734D01*
X159989733Y-116370768D01*
X159981824Y-116380226D01*
X159974107Y-116390107D01*
X159966583Y-116400413D01*
X159959251Y-116411141D01*
X159952112Y-116422294D01*
X159945164Y-116433870D01*
X159938409Y-116445869D01*
X159931847Y-116458292D01*
X159925477Y-116471139D01*
X159919299Y-116484410D01*
X159921058Y-116935477D01*
X159920341Y-116950353D01*
X159918193Y-116963765D01*
X159914612Y-116975714D01*
X159907610Y-116989371D01*
X159898062Y-117000426D01*
X159885967Y-117008879D01*
X159871326Y-117014732D01*
X159858675Y-117017415D01*
X159844591Y-117018634D01*
X159839578Y-117018715D01*
X159826588Y-117017989D01*
X159814876Y-117015809D01*
X159801247Y-117010644D01*
X159789890Y-117002895D01*
X159780804Y-116992564D01*
X159773990Y-116979649D01*
X159770370Y-116968269D01*
X159768027Y-116955435D01*
X159766962Y-116941148D01*
X159766891Y-116936063D01*
X159766891Y-116362777D01*
X159766990Y-116349689D01*
X159767230Y-116336418D01*
X159767541Y-116323910D01*
X159767951Y-116310085D01*
X159768352Y-116298078D01*
X159768817Y-116285228D01*
X159768943Y-116281883D01*
X159769424Y-116268822D01*
X159769841Y-116256604D01*
X159770271Y-116242516D01*
X159770602Y-116229745D01*
X159770867Y-116216158D01*
X159770993Y-116202702D01*
X159770995Y-116200990D01*
X159771634Y-116186219D01*
X159773550Y-116172901D01*
X159776744Y-116161036D01*
X159782991Y-116147476D01*
X159791509Y-116136499D01*
X159802298Y-116128105D01*
X159815359Y-116122293D01*
X159830692Y-116119065D01*
X159843681Y-116118338D01*
X159858093Y-116119480D01*
X159871104Y-116122903D01*
X159882713Y-116128609D01*
X159892921Y-116136597D01*
X159901727Y-116146868D01*
X159909132Y-116159420D01*
X159915136Y-116174256D01*
X159919739Y-116191373D01*
X159922028Y-116204053D01*
X159923695Y-116217747D01*
X159924740Y-116232455D01*
X159925161Y-116248178D01*
X159935086Y-116239036D01*
X159945080Y-116230184D01*
X159955140Y-116221622D01*
X159965269Y-116213350D01*
X159975464Y-116205369D01*
X159985728Y-116197678D01*
X159996059Y-116190277D01*
X160006457Y-116183167D01*
X160016923Y-116176346D01*
X160027457Y-116169816D01*
X160038058Y-116163576D01*
X160048726Y-116157626D01*
X160059463Y-116151967D01*
X160070266Y-116146598D01*
X160081138Y-116141519D01*
X160092076Y-116136730D01*
X160103083Y-116132231D01*
X160114157Y-116128023D01*
X160125298Y-116124105D01*
X160136507Y-116120477D01*
X160147784Y-116117139D01*
X160159128Y-116114092D01*
X160170540Y-116111335D01*
X160182019Y-116108868D01*
X160193566Y-116106691D01*
X160205180Y-116104805D01*
X160216862Y-116103208D01*
X160228611Y-116101902D01*
X160240428Y-116100887D01*
X160252313Y-116100161D01*
X160264265Y-116099726D01*
X160276284Y-116099581D01*
X160288515Y-116100016D01*
X160303893Y-116101951D01*
X160318209Y-116105433D01*
X160331462Y-116110464D01*
X160343653Y-116117043D01*
X160354781Y-116125169D01*
X160364847Y-116134843D01*
X160373851Y-116146066D01*
X160375935Y-116149113D01*
X160383698Y-116162210D01*
X160388840Y-116173067D01*
X160393401Y-116184811D01*
X160397379Y-116197440D01*
X160400775Y-116210955D01*
X160403589Y-116225357D01*
X160405820Y-116240645D01*
X160407470Y-116256818D01*
X160408537Y-116273878D01*
X160408925Y-116285744D01*
X160409055Y-116298003D01*
X160409033Y-116310520D01*
X160408951Y-116323764D01*
X160408777Y-116336767D01*
X160408429Y-116349611D01*
X160408175Y-116354863D01*
G37*
G36*
X161246124Y-116494375D02*
G01*
X161246138Y-116509478D01*
X161246166Y-116521972D01*
X161246210Y-116535465D01*
X161246269Y-116549957D01*
X161246344Y-116565449D01*
X161246434Y-116581941D01*
X161246539Y-116599432D01*
X161246618Y-116611648D01*
X161246704Y-116624308D01*
X161246797Y-116637412D01*
X161246897Y-116650961D01*
X161247003Y-116664954D01*
X161247110Y-116678947D01*
X161247209Y-116692495D01*
X161247302Y-116705600D01*
X161247388Y-116718260D01*
X161247467Y-116730476D01*
X161247539Y-116742248D01*
X161247634Y-116759072D01*
X161247714Y-116774897D01*
X161247779Y-116789723D01*
X161247827Y-116803549D01*
X161247861Y-116816376D01*
X161247879Y-116828203D01*
X161247882Y-116835533D01*
X161248140Y-116848144D01*
X161248717Y-116860829D01*
X161249492Y-116873822D01*
X161250358Y-116886366D01*
X161250520Y-116888583D01*
X161251516Y-116901243D01*
X161252418Y-116914398D01*
X161253105Y-116927303D01*
X161253440Y-116939107D01*
X161253451Y-116941339D01*
X161252606Y-116953656D01*
X161250071Y-116965107D01*
X161244978Y-116977373D01*
X161237585Y-116988460D01*
X161229418Y-116997026D01*
X161220134Y-117004397D01*
X161208339Y-117011069D01*
X161195506Y-117015665D01*
X161183680Y-117017953D01*
X161171092Y-117018715D01*
X161155916Y-117017877D01*
X161142186Y-117015363D01*
X161129904Y-117011173D01*
X161119069Y-117005306D01*
X161109681Y-116997764D01*
X161101740Y-116988545D01*
X161095246Y-116977650D01*
X161090199Y-116965079D01*
X161077216Y-116971574D01*
X161063986Y-116977650D01*
X161050508Y-116983307D01*
X161036783Y-116988545D01*
X161022811Y-116993364D01*
X161008592Y-116997764D01*
X160994125Y-117001745D01*
X160979411Y-117005306D01*
X160964449Y-117008449D01*
X160949241Y-117011173D01*
X160933785Y-117013477D01*
X160918081Y-117015363D01*
X160902131Y-117016830D01*
X160885933Y-117017877D01*
X160869488Y-117018506D01*
X160852795Y-117018715D01*
X160839457Y-117018532D01*
X160826408Y-117017982D01*
X160813647Y-117017067D01*
X160801174Y-117015784D01*
X160788991Y-117014136D01*
X160777095Y-117012121D01*
X160765488Y-117009739D01*
X160748619Y-117005480D01*
X160732399Y-117000397D01*
X160716828Y-116994489D01*
X160701906Y-116987757D01*
X160687633Y-116980201D01*
X160674009Y-116971821D01*
X160659893Y-116961731D01*
X160646889Y-116950807D01*
X160634998Y-116939049D01*
X160624221Y-116926456D01*
X160614555Y-116913028D01*
X160606003Y-116898765D01*
X160598564Y-116883668D01*
X160592237Y-116867736D01*
X160587023Y-116850970D01*
X160584165Y-116839329D01*
X160581802Y-116827317D01*
X160580806Y-116821172D01*
X160578841Y-116807845D01*
X160576938Y-116794610D01*
X160575097Y-116781467D01*
X160573319Y-116768415D01*
X160571603Y-116755455D01*
X160569949Y-116742586D01*
X160568358Y-116729809D01*
X160566830Y-116717124D01*
X160565363Y-116704530D01*
X160563959Y-116692028D01*
X160562618Y-116679618D01*
X160561339Y-116667299D01*
X160560122Y-116655071D01*
X160558968Y-116642935D01*
X160557876Y-116630891D01*
X160556846Y-116618939D01*
X160555879Y-116607077D01*
X160554974Y-116595308D01*
X160553352Y-116572044D01*
X160551979Y-116549146D01*
X160550856Y-116526615D01*
X160549983Y-116504450D01*
X160549359Y-116482651D01*
X160548984Y-116461219D01*
X160548859Y-116440153D01*
X160548956Y-116426221D01*
X160549244Y-116412048D01*
X160549725Y-116397635D01*
X160550398Y-116382982D01*
X160551264Y-116368088D01*
X160552322Y-116352953D01*
X160553572Y-116337579D01*
X160555014Y-116321964D01*
X160556649Y-116306108D01*
X160558476Y-116290012D01*
X160560496Y-116273676D01*
X160562708Y-116257099D01*
X160565112Y-116240282D01*
X160567709Y-116223224D01*
X160570498Y-116205926D01*
X160573479Y-116188387D01*
X160576109Y-116175869D01*
X160579713Y-116164582D01*
X160586033Y-116151447D01*
X160594084Y-116140502D01*
X160603866Y-116131746D01*
X160615379Y-116125179D01*
X160628623Y-116120801D01*
X160643598Y-116118612D01*
X160651734Y-116118338D01*
X160664621Y-116119111D01*
X160676684Y-116121430D01*
X160687922Y-116125294D01*
X160698336Y-116130703D01*
X160707926Y-116137658D01*
X160710939Y-116140320D01*
X160719107Y-116149006D01*
X160726500Y-116160260D01*
X160731593Y-116172721D01*
X160734127Y-116184361D01*
X160734972Y-116196887D01*
X160734679Y-116209501D01*
X160733799Y-116224261D01*
X160732672Y-116237615D01*
X160731170Y-116252343D01*
X160729797Y-116264290D01*
X160728213Y-116277011D01*
X160726418Y-116290504D01*
X160724411Y-116304770D01*
X160722956Y-116314710D01*
X160720861Y-116329540D01*
X160718971Y-116343695D01*
X160717288Y-116357175D01*
X160715812Y-116369980D01*
X160714541Y-116382111D01*
X160713167Y-116397235D01*
X160712159Y-116411159D01*
X160711518Y-116423883D01*
X160711232Y-116438101D01*
X160711268Y-116454658D01*
X160711374Y-116470918D01*
X160711551Y-116486880D01*
X160711800Y-116502545D01*
X160712119Y-116517911D01*
X160712510Y-116532980D01*
X160712971Y-116547752D01*
X160713503Y-116562225D01*
X160714107Y-116576401D01*
X160714781Y-116590280D01*
X160715526Y-116603860D01*
X160716343Y-116617143D01*
X160717230Y-116630129D01*
X160718188Y-116642816D01*
X160719218Y-116655206D01*
X160720318Y-116667299D01*
X160721488Y-116679059D01*
X160723372Y-116696150D01*
X160725410Y-116712581D01*
X160727603Y-116728353D01*
X160729951Y-116743466D01*
X160732453Y-116757919D01*
X160735110Y-116771712D01*
X160737921Y-116784847D01*
X160740887Y-116797321D01*
X160744007Y-116809137D01*
X160747282Y-116820292D01*
X160759165Y-116826253D01*
X160770964Y-116831568D01*
X160782679Y-116836239D01*
X160794310Y-116840264D01*
X160800918Y-116842274D01*
X160812416Y-116845243D01*
X160825454Y-116847744D01*
X160838382Y-116849292D01*
X160851201Y-116849887D01*
X160852795Y-116849895D01*
X160866655Y-116849759D01*
X160880611Y-116849354D01*
X160894664Y-116848679D01*
X160908812Y-116847733D01*
X160923057Y-116846517D01*
X160937398Y-116845031D01*
X160951835Y-116843275D01*
X160966368Y-116841248D01*
X160980997Y-116838952D01*
X160995723Y-116836385D01*
X161010545Y-116833548D01*
X161025463Y-116830441D01*
X161040477Y-116827063D01*
X161055587Y-116823416D01*
X161070793Y-116819498D01*
X161086096Y-116815310D01*
X161085510Y-116651472D01*
X161083751Y-116494961D01*
X161083812Y-116473377D01*
X161083994Y-116452151D01*
X161084297Y-116431282D01*
X161084722Y-116410770D01*
X161085268Y-116390616D01*
X161085936Y-116370818D01*
X161086724Y-116351378D01*
X161087635Y-116332295D01*
X161088666Y-116313569D01*
X161089819Y-116295201D01*
X161091093Y-116277189D01*
X161092489Y-116259535D01*
X161094006Y-116242238D01*
X161095644Y-116225298D01*
X161097404Y-116208716D01*
X161099285Y-116192490D01*
X161101532Y-116179239D01*
X161104866Y-116167290D01*
X161111003Y-116153387D01*
X161119072Y-116141801D01*
X161129074Y-116132532D01*
X161141008Y-116125580D01*
X161154875Y-116120945D01*
X161166544Y-116118990D01*
X161179299Y-116118338D01*
X161192186Y-116119121D01*
X161204248Y-116121471D01*
X161215487Y-116125386D01*
X161225901Y-116130868D01*
X161235490Y-116137916D01*
X161238503Y-116140613D01*
X161246620Y-116149248D01*
X161253822Y-116160312D01*
X161258585Y-116172441D01*
X161260907Y-116185637D01*
X161261072Y-116195715D01*
X161246124Y-116494375D01*
G37*
G36*
X162003472Y-116343433D02*
G01*
X161989941Y-116342617D01*
X161977741Y-116340170D01*
X161964857Y-116335079D01*
X161953890Y-116327640D01*
X161944840Y-116317851D01*
X161939871Y-116310020D01*
X161934640Y-116297221D01*
X161931092Y-116285126D01*
X161928367Y-116273677D01*
X161925743Y-116260653D01*
X161923220Y-116246053D01*
X161921394Y-116234069D01*
X161919624Y-116221200D01*
X161918476Y-116212128D01*
X161906293Y-116215275D01*
X161892935Y-116218890D01*
X161878403Y-116222975D01*
X161862697Y-116227529D01*
X161845815Y-116232551D01*
X161833908Y-116236160D01*
X161821479Y-116239977D01*
X161808529Y-116244002D01*
X161795055Y-116248236D01*
X161781060Y-116252678D01*
X161766543Y-116257329D01*
X161751504Y-116262188D01*
X161735943Y-116267255D01*
X161727966Y-116269867D01*
X161711885Y-116276559D01*
X161696834Y-116283445D01*
X161682814Y-116290526D01*
X161669824Y-116297802D01*
X161657865Y-116305272D01*
X161646936Y-116312937D01*
X161637037Y-116320797D01*
X161628169Y-116328851D01*
X161616798Y-116341298D01*
X161607746Y-116354182D01*
X161601012Y-116367504D01*
X161596597Y-116381264D01*
X161594500Y-116395462D01*
X161594316Y-116400292D01*
X161606590Y-116404524D01*
X161618790Y-116408133D01*
X161630916Y-116411118D01*
X161642970Y-116413481D01*
X161654726Y-116415631D01*
X161666293Y-116417831D01*
X161688857Y-116422379D01*
X161710660Y-116427127D01*
X161731703Y-116432074D01*
X161751986Y-116437221D01*
X161771509Y-116442566D01*
X161790271Y-116448111D01*
X161808273Y-116453855D01*
X161825515Y-116459798D01*
X161841997Y-116465940D01*
X161857719Y-116472282D01*
X161872680Y-116478822D01*
X161886881Y-116485562D01*
X161900322Y-116492502D01*
X161913003Y-116499640D01*
X161924924Y-116506978D01*
X161941214Y-116518162D01*
X161956454Y-116529953D01*
X161970642Y-116542351D01*
X161983780Y-116555356D01*
X161995867Y-116568968D01*
X162006902Y-116583186D01*
X162016887Y-116598011D01*
X162025820Y-116613443D01*
X162033703Y-116629482D01*
X162040534Y-116646127D01*
X162046315Y-116663380D01*
X162051044Y-116681239D01*
X162054723Y-116699705D01*
X162057351Y-116718777D01*
X162058927Y-116738457D01*
X162059453Y-116758743D01*
X162058998Y-116775338D01*
X162057634Y-116791418D01*
X162055362Y-116806983D01*
X162052180Y-116822033D01*
X162048090Y-116836567D01*
X162043090Y-116850586D01*
X162037181Y-116864090D01*
X162030363Y-116877079D01*
X162022636Y-116889552D01*
X162014000Y-116901511D01*
X162004456Y-116912954D01*
X161994002Y-116923882D01*
X161982639Y-116934295D01*
X161970366Y-116944192D01*
X161957185Y-116953574D01*
X161943095Y-116962442D01*
X161930843Y-116969256D01*
X161918192Y-116975631D01*
X161905142Y-116981566D01*
X161891694Y-116987061D01*
X161877848Y-116992117D01*
X161863603Y-116996733D01*
X161848960Y-117000910D01*
X161833919Y-117004647D01*
X161818479Y-117007944D01*
X161802640Y-117010802D01*
X161786404Y-117013220D01*
X161769768Y-117015198D01*
X161752735Y-117016737D01*
X161735303Y-117017836D01*
X161717472Y-117018495D01*
X161699243Y-117018715D01*
X161685763Y-117018576D01*
X161672361Y-117018156D01*
X161659037Y-117017458D01*
X161645791Y-117016480D01*
X161632622Y-117015223D01*
X161619531Y-117013687D01*
X161606519Y-117011871D01*
X161593584Y-117009776D01*
X161580727Y-117007401D01*
X161567947Y-117004748D01*
X161555246Y-117001814D01*
X161542622Y-116998602D01*
X161530077Y-116995110D01*
X161517609Y-116991339D01*
X161505219Y-116987288D01*
X161492907Y-116982958D01*
X161477539Y-116977139D01*
X161463163Y-116971037D01*
X161449778Y-116964655D01*
X161437384Y-116957990D01*
X161425982Y-116951044D01*
X161415572Y-116943817D01*
X161406153Y-116936307D01*
X161393883Y-116924515D01*
X161383845Y-116912089D01*
X161376037Y-116899030D01*
X161370460Y-116885337D01*
X161367114Y-116871010D01*
X161365998Y-116856049D01*
X161366905Y-116844138D01*
X161370255Y-116830971D01*
X161376073Y-116818589D01*
X161383025Y-116808601D01*
X161391790Y-116799190D01*
X161401820Y-116790922D01*
X161412343Y-116784366D01*
X161423362Y-116779519D01*
X161434875Y-116776384D01*
X161446882Y-116774958D01*
X161450995Y-116774863D01*
X161462866Y-116776616D01*
X161474180Y-116780910D01*
X161486544Y-116787779D01*
X161497651Y-116795471D01*
X161507062Y-116802913D01*
X161516940Y-116811500D01*
X161527902Y-116818913D01*
X161538634Y-116823864D01*
X161551784Y-116828530D01*
X161564046Y-116832056D01*
X161577856Y-116835399D01*
X161593213Y-116838559D01*
X161605747Y-116840809D01*
X161619321Y-116842938D01*
X161632345Y-116844784D01*
X161644820Y-116846345D01*
X161656745Y-116847623D01*
X161670879Y-116848821D01*
X161684154Y-116849575D01*
X161696570Y-116849886D01*
X161698950Y-116849895D01*
X161711775Y-116849750D01*
X161724312Y-116849318D01*
X161736560Y-116848596D01*
X161748519Y-116847586D01*
X161760190Y-116846288D01*
X161775303Y-116844108D01*
X161789902Y-116841416D01*
X161803989Y-116838210D01*
X161817563Y-116834491D01*
X161820876Y-116833481D01*
X161834599Y-116828730D01*
X161846973Y-116823490D01*
X161857996Y-116817760D01*
X161870595Y-116809359D01*
X161880793Y-116800088D01*
X161888592Y-116789946D01*
X161893992Y-116778935D01*
X161896991Y-116767053D01*
X161897666Y-116757571D01*
X161897055Y-116743823D01*
X161895221Y-116730643D01*
X161892164Y-116718031D01*
X161887884Y-116705987D01*
X161882382Y-116694510D01*
X161875657Y-116683602D01*
X161867709Y-116673261D01*
X161858538Y-116663488D01*
X161848145Y-116654284D01*
X161836529Y-116645646D01*
X161823690Y-116637577D01*
X161809629Y-116630076D01*
X161794344Y-116623143D01*
X161777837Y-116616777D01*
X161760108Y-116610979D01*
X161741155Y-116605749D01*
X161655279Y-116587285D01*
X161641826Y-116584359D01*
X161628869Y-116581372D01*
X161616409Y-116578324D01*
X161604446Y-116575213D01*
X161592980Y-116572040D01*
X161576713Y-116567166D01*
X161561563Y-116562152D01*
X161547532Y-116556999D01*
X161534619Y-116551707D01*
X161522823Y-116546276D01*
X161512146Y-116540706D01*
X161499648Y-116533063D01*
X161487706Y-116524255D01*
X161476938Y-116514649D01*
X161467345Y-116504245D01*
X161458927Y-116493042D01*
X161451683Y-116481040D01*
X161445614Y-116468240D01*
X161440719Y-116454642D01*
X161437000Y-116440244D01*
X161434455Y-116425049D01*
X161433084Y-116409054D01*
X161432823Y-116397948D01*
X161433457Y-116377475D01*
X161435360Y-116357748D01*
X161438532Y-116338768D01*
X161442971Y-116320535D01*
X161448680Y-116303048D01*
X161455657Y-116286307D01*
X161463902Y-116270313D01*
X161473416Y-116255066D01*
X161484199Y-116240564D01*
X161496250Y-116226810D01*
X161509570Y-116213801D01*
X161524158Y-116201540D01*
X161540014Y-116190024D01*
X161557140Y-116179256D01*
X161575533Y-116169233D01*
X161595196Y-116159957D01*
X161608504Y-116154407D01*
X161619699Y-116150076D01*
X161631935Y-116145600D01*
X161645212Y-116140981D01*
X161659529Y-116136217D01*
X161674887Y-116131309D01*
X161691286Y-116126256D01*
X161702797Y-116122808D01*
X161714770Y-116119295D01*
X161727206Y-116115719D01*
X161740104Y-116112078D01*
X161753465Y-116108373D01*
X161766851Y-116104672D01*
X161779752Y-116101041D01*
X161792167Y-116097482D01*
X161804097Y-116093993D01*
X161815541Y-116090576D01*
X161831797Y-116085583D01*
X161846961Y-116080749D01*
X161861033Y-116076076D01*
X161874013Y-116071562D01*
X161885900Y-116067207D01*
X161900051Y-116061650D01*
X161909390Y-116057668D01*
X161922235Y-116052788D01*
X161935493Y-116048917D01*
X161949163Y-116046056D01*
X161960870Y-116044443D01*
X161972862Y-116043531D01*
X161982663Y-116043307D01*
X161995508Y-116044100D01*
X162007447Y-116046481D01*
X162018479Y-116050448D01*
X162030204Y-116057081D01*
X162040695Y-116065875D01*
X162048464Y-116074822D01*
X162055496Y-116086485D01*
X162059783Y-116097531D01*
X162062462Y-116109545D01*
X162063533Y-116122528D01*
X162063556Y-116124786D01*
X162064197Y-116137866D01*
X162065810Y-116151534D01*
X162067974Y-116164902D01*
X162070328Y-116177206D01*
X162073183Y-116190570D01*
X162073814Y-116193370D01*
X162076769Y-116206945D01*
X162079224Y-116219462D01*
X162081508Y-116233084D01*
X162083070Y-116245181D01*
X162083982Y-116257366D01*
X162084072Y-116261953D01*
X162083269Y-116275098D01*
X162080857Y-116287274D01*
X162076839Y-116298481D01*
X162070119Y-116310332D01*
X162062618Y-116319441D01*
X162061211Y-116320865D01*
X162052305Y-116328534D01*
X162040795Y-116335476D01*
X162028078Y-116340259D01*
X162016218Y-116342639D01*
X162003472Y-116343433D01*
G37*
G36*
X162815628Y-116277780D02*
G01*
X162802978Y-116277607D01*
X162790155Y-116277149D01*
X162777538Y-116276492D01*
X162774596Y-116276315D01*
X162761893Y-116275465D01*
X162750165Y-116274893D01*
X162738275Y-116274584D01*
X162733856Y-116274556D01*
X162722087Y-116275159D01*
X162709319Y-116276328D01*
X162696487Y-116277707D01*
X162681328Y-116279479D01*
X162668433Y-116281067D01*
X162654229Y-116282876D01*
X162638716Y-116284907D01*
X162621895Y-116287159D01*
X162637429Y-116764898D01*
X162638308Y-116800362D01*
X162639187Y-116841688D01*
X162639227Y-116863125D01*
X162638542Y-116883179D01*
X162637130Y-116901850D01*
X162634992Y-116919137D01*
X162632129Y-116935042D01*
X162628540Y-116949564D01*
X162624225Y-116962703D01*
X162619184Y-116974458D01*
X162613417Y-116984831D01*
X162603406Y-116997797D01*
X162591762Y-117007651D01*
X162578484Y-117014393D01*
X162563573Y-117018024D01*
X162552725Y-117018715D01*
X162540615Y-117017973D01*
X162527267Y-117015232D01*
X162514761Y-117010472D01*
X162503096Y-117003692D01*
X162495279Y-116997613D01*
X162485801Y-116987875D01*
X162478650Y-116977128D01*
X162473827Y-116965371D01*
X162471333Y-116952605D01*
X162470953Y-116944856D01*
X162471035Y-116932234D01*
X162471230Y-116920062D01*
X162471539Y-116906388D01*
X162471869Y-116894367D01*
X162472272Y-116881384D01*
X162472748Y-116867439D01*
X162473298Y-116852532D01*
X162473916Y-116837626D01*
X162474452Y-116823681D01*
X162474905Y-116810698D01*
X162475276Y-116798677D01*
X162475624Y-116785003D01*
X162475843Y-116772831D01*
X162475935Y-116760209D01*
X162459522Y-116287159D01*
X162447703Y-116286585D01*
X162434776Y-116285850D01*
X162420741Y-116284957D01*
X162405598Y-116283903D01*
X162389348Y-116282690D01*
X162371990Y-116281317D01*
X162359803Y-116280313D01*
X162347123Y-116279238D01*
X162333951Y-116278092D01*
X162320287Y-116276874D01*
X162306130Y-116275586D01*
X162291481Y-116274228D01*
X162276340Y-116272798D01*
X162263246Y-116270375D01*
X162251439Y-116266845D01*
X162237700Y-116260416D01*
X162226251Y-116252017D01*
X162217092Y-116241649D01*
X162210223Y-116229311D01*
X162205643Y-116215005D01*
X162203711Y-116202983D01*
X162203067Y-116189853D01*
X162203850Y-116176358D01*
X162206200Y-116163790D01*
X162210115Y-116152150D01*
X162215597Y-116141438D01*
X162222645Y-116131652D01*
X162225342Y-116128597D01*
X162234128Y-116120329D01*
X162245472Y-116112846D01*
X162257994Y-116107691D01*
X162269665Y-116105125D01*
X162282202Y-116104270D01*
X162455126Y-116118338D01*
X162455033Y-116105125D01*
X162454754Y-116090581D01*
X162454397Y-116077987D01*
X162453920Y-116064541D01*
X162453325Y-116050244D01*
X162452611Y-116035095D01*
X162451997Y-116023174D01*
X162451316Y-116010774D01*
X162450687Y-115998464D01*
X162449945Y-115983077D01*
X162449313Y-115968862D01*
X162448791Y-115955819D01*
X162448379Y-115943949D01*
X162448018Y-115930760D01*
X162447812Y-115917351D01*
X162447799Y-115913467D01*
X162448633Y-115901450D01*
X162451717Y-115888445D01*
X162457072Y-115876533D01*
X162464700Y-115865716D01*
X162471539Y-115858659D01*
X162480923Y-115851289D01*
X162492808Y-115844617D01*
X162505703Y-115840021D01*
X162517559Y-115837733D01*
X162530157Y-115836971D01*
X162543570Y-115837991D01*
X162555890Y-115841051D01*
X162567118Y-115846151D01*
X162577253Y-115853292D01*
X162586297Y-115862473D01*
X162594248Y-115873694D01*
X162601107Y-115886955D01*
X162606874Y-115902257D01*
X162610112Y-115913591D01*
X162612864Y-115925832D01*
X162615131Y-115938980D01*
X162616912Y-115953035D01*
X162617826Y-115966419D01*
X162618431Y-115978783D01*
X162618870Y-115991972D01*
X162619145Y-116005986D01*
X162619248Y-116018293D01*
X162619257Y-116023377D01*
X162617792Y-116069392D01*
X162616912Y-116118338D01*
X162629356Y-116116741D01*
X162641115Y-116115247D01*
X162657470Y-116113199D01*
X162672285Y-116111383D01*
X162685559Y-116109799D01*
X162697293Y-116108447D01*
X162710541Y-116107004D01*
X162723251Y-116105780D01*
X162733856Y-116105149D01*
X162749435Y-116105221D01*
X162763968Y-116105438D01*
X162777455Y-116105798D01*
X162789896Y-116106303D01*
X162804857Y-116107201D01*
X162817959Y-116108355D01*
X162831722Y-116110158D01*
X162844403Y-116112851D01*
X162846110Y-116113356D01*
X162857856Y-116118247D01*
X162868037Y-116124567D01*
X162878560Y-116134476D01*
X162886636Y-116146617D01*
X162891334Y-116157938D01*
X162894467Y-116170687D01*
X162896033Y-116184866D01*
X162896229Y-116192490D01*
X162895425Y-116205985D01*
X162893014Y-116218553D01*
X162888995Y-116230193D01*
X162883369Y-116240906D01*
X162876136Y-116250691D01*
X162873367Y-116253747D01*
X162864461Y-116261914D01*
X162854669Y-116268392D01*
X162842125Y-116273814D01*
X162830413Y-116276630D01*
X162817814Y-116277757D01*
X162815628Y-116277780D01*
G37*
G36*
X164280206Y-117056231D02*
G01*
X164266671Y-117055150D01*
X164253908Y-117051909D01*
X164241918Y-117046507D01*
X164230701Y-117038943D01*
X164220257Y-117029219D01*
X164212458Y-117019883D01*
X164206933Y-117011974D01*
X164200788Y-117001734D01*
X164194807Y-116989919D01*
X164188991Y-116976528D01*
X164184737Y-116965452D01*
X164180576Y-116953489D01*
X164176507Y-116940640D01*
X164172532Y-116926904D01*
X164168649Y-116912283D01*
X164164859Y-116896775D01*
X164162383Y-116885945D01*
X164132781Y-116739399D01*
X164128378Y-116721080D01*
X164123668Y-116700194D01*
X164118651Y-116676740D01*
X164116027Y-116664051D01*
X164113327Y-116650721D01*
X164110550Y-116636748D01*
X164107697Y-116622134D01*
X164104766Y-116606878D01*
X164101759Y-116590980D01*
X164098676Y-116574441D01*
X164095515Y-116557260D01*
X164092278Y-116539437D01*
X164088964Y-116520973D01*
X164085573Y-116501867D01*
X164082106Y-116482119D01*
X164078562Y-116461729D01*
X164074941Y-116440698D01*
X164071244Y-116419025D01*
X164067470Y-116396710D01*
X164063619Y-116373754D01*
X164059692Y-116350155D01*
X164055687Y-116325915D01*
X164051606Y-116301034D01*
X164047449Y-116275511D01*
X164043214Y-116249346D01*
X164038903Y-116222539D01*
X164034515Y-116195091D01*
X164030051Y-116167000D01*
X164025510Y-116138269D01*
X163860792Y-116651765D01*
X163812139Y-116813551D01*
X163808429Y-116825432D01*
X163804697Y-116837040D01*
X163800946Y-116848375D01*
X163795279Y-116864868D01*
X163789567Y-116880747D01*
X163783808Y-116896013D01*
X163778002Y-116910666D01*
X163772150Y-116924706D01*
X163766252Y-116938133D01*
X163760308Y-116950947D01*
X163754317Y-116963148D01*
X163750297Y-116970941D01*
X163741275Y-116982138D01*
X163731502Y-116991842D01*
X163720979Y-117000054D01*
X163709704Y-117006772D01*
X163697678Y-117011997D01*
X163684901Y-117015729D01*
X163671373Y-117017969D01*
X163657094Y-117018715D01*
X163645320Y-117018129D01*
X163631491Y-117015748D01*
X163618650Y-117011534D01*
X163606796Y-117005489D01*
X163595929Y-116997613D01*
X163586050Y-116987904D01*
X163580597Y-116981200D01*
X163574997Y-116969546D01*
X163569555Y-116956934D01*
X163564269Y-116943362D01*
X163560155Y-116931815D01*
X163556141Y-116919654D01*
X163552228Y-116906879D01*
X163548415Y-116893491D01*
X163547478Y-116890048D01*
X163523737Y-116795673D01*
X163518554Y-116776837D01*
X163513409Y-116757918D01*
X163508303Y-116738916D01*
X163503235Y-116719831D01*
X163498205Y-116700663D01*
X163493213Y-116681412D01*
X163488260Y-116662078D01*
X163483346Y-116642661D01*
X163478469Y-116623161D01*
X163473631Y-116603578D01*
X163468832Y-116583912D01*
X163464070Y-116564162D01*
X163459347Y-116544330D01*
X163454663Y-116524415D01*
X163450016Y-116504417D01*
X163445409Y-116484336D01*
X163440839Y-116464172D01*
X163436308Y-116443925D01*
X163431815Y-116423595D01*
X163427361Y-116403182D01*
X163422944Y-116382686D01*
X163418567Y-116362107D01*
X163414227Y-116341445D01*
X163409926Y-116320700D01*
X163405663Y-116299872D01*
X163401439Y-116278960D01*
X163397253Y-116257966D01*
X163393105Y-116236889D01*
X163388996Y-116215729D01*
X163384925Y-116194486D01*
X163380893Y-116173160D01*
X163376898Y-116151751D01*
X163347296Y-116302986D01*
X163240904Y-116748778D01*
X163239395Y-116764218D01*
X163237397Y-116780971D01*
X163235793Y-116792870D01*
X163233972Y-116805353D01*
X163231933Y-116818419D01*
X163229676Y-116832070D01*
X163227202Y-116846304D01*
X163224510Y-116861122D01*
X163221601Y-116876525D01*
X163218475Y-116892511D01*
X163215130Y-116909081D01*
X163211569Y-116926235D01*
X163207789Y-116943972D01*
X163203792Y-116962294D01*
X163199578Y-116981200D01*
X163192919Y-116994389D01*
X163185253Y-117005819D01*
X163176580Y-117015491D01*
X163166898Y-117023405D01*
X163156210Y-117029560D01*
X163144514Y-117033956D01*
X163131810Y-117036594D01*
X163118099Y-117037473D01*
X163105860Y-117036772D01*
X163092231Y-117034079D01*
X163079756Y-117029367D01*
X163068436Y-117022635D01*
X163058269Y-117013883D01*
X163053619Y-117008750D01*
X163046646Y-116999116D01*
X163041116Y-116988678D01*
X163037029Y-116977436D01*
X163034384Y-116965391D01*
X163033182Y-116952542D01*
X163033102Y-116948080D01*
X163033324Y-116930764D01*
X163033991Y-116912960D01*
X163035101Y-116894668D01*
X163036656Y-116875888D01*
X163038655Y-116856621D01*
X163041098Y-116836866D01*
X163043986Y-116816623D01*
X163047317Y-116795892D01*
X163051093Y-116774674D01*
X163055313Y-116752968D01*
X163059977Y-116730775D01*
X163065086Y-116708093D01*
X163067807Y-116696570D01*
X163070639Y-116684924D01*
X163073581Y-116673157D01*
X163076635Y-116661267D01*
X163079800Y-116649256D01*
X163083077Y-116637123D01*
X163086464Y-116624868D01*
X163089962Y-116612490D01*
X163180820Y-116269280D01*
X163228594Y-116001102D01*
X163230869Y-115989469D01*
X163235442Y-115966965D01*
X163240045Y-115945477D01*
X163244677Y-115925007D01*
X163249339Y-115905553D01*
X163254030Y-115887116D01*
X163258752Y-115869695D01*
X163263503Y-115853291D01*
X163268284Y-115837904D01*
X163273095Y-115823533D01*
X163277936Y-115810179D01*
X163282806Y-115797842D01*
X163287706Y-115786521D01*
X163295112Y-115771446D01*
X163302585Y-115758659D01*
X163305091Y-115754905D01*
X163313609Y-115743365D01*
X163322603Y-115733363D01*
X163332074Y-115724900D01*
X163342021Y-115717975D01*
X163352444Y-115712590D01*
X163366142Y-115708022D01*
X163380585Y-115705858D01*
X163386570Y-115705666D01*
X163399554Y-115706650D01*
X163411685Y-115709604D01*
X163422964Y-115714527D01*
X163433392Y-115721419D01*
X163442968Y-115730281D01*
X163451692Y-115741111D01*
X163459564Y-115753911D01*
X163464909Y-115764803D01*
X163466584Y-115768680D01*
X163472671Y-115784297D01*
X163476774Y-115796245D01*
X163480914Y-115809423D01*
X163485090Y-115823830D01*
X163489304Y-115839467D01*
X163493553Y-115856333D01*
X163497840Y-115874429D01*
X163502163Y-115893755D01*
X163506523Y-115914310D01*
X163510919Y-115936095D01*
X163515352Y-115959110D01*
X163517582Y-115971078D01*
X163519822Y-115983354D01*
X163522070Y-115995937D01*
X163524328Y-116008828D01*
X163526595Y-116022026D01*
X163528871Y-116035531D01*
X163531156Y-116049344D01*
X163533450Y-116063464D01*
X163535754Y-116077892D01*
X163538549Y-116095431D01*
X163541438Y-116113060D01*
X163544422Y-116130780D01*
X163547501Y-116148591D01*
X163550673Y-116166492D01*
X163553941Y-116184483D01*
X163557302Y-116202565D01*
X163560758Y-116220737D01*
X163564309Y-116239000D01*
X163567954Y-116257353D01*
X163571693Y-116275797D01*
X163575527Y-116294331D01*
X163579456Y-116312955D01*
X163583479Y-116331670D01*
X163587596Y-116350475D01*
X163591808Y-116369371D01*
X163596114Y-116388357D01*
X163600515Y-116407434D01*
X163605010Y-116426601D01*
X163609599Y-116445859D01*
X163614283Y-116465207D01*
X163619062Y-116484645D01*
X163623935Y-116504174D01*
X163628902Y-116523794D01*
X163633964Y-116543504D01*
X163639120Y-116563304D01*
X163644371Y-116583195D01*
X163649716Y-116603176D01*
X163655156Y-116623247D01*
X163660690Y-116643409D01*
X163666318Y-116663662D01*
X163672042Y-116684005D01*
X163679630Y-116663480D01*
X163687154Y-116642903D01*
X163694614Y-116622274D01*
X163702010Y-116601591D01*
X163709342Y-116580856D01*
X163716610Y-116560068D01*
X163723813Y-116539228D01*
X163730953Y-116518335D01*
X163738028Y-116497389D01*
X163745040Y-116476391D01*
X163751987Y-116455340D01*
X163758870Y-116434236D01*
X163765689Y-116413080D01*
X163772444Y-116391871D01*
X163779134Y-116370609D01*
X163785761Y-116349294D01*
X163792323Y-116327927D01*
X163798822Y-116306508D01*
X163805256Y-116285035D01*
X163811626Y-116263510D01*
X163817932Y-116241933D01*
X163824174Y-116220302D01*
X163830352Y-116198619D01*
X163836466Y-116176883D01*
X163842515Y-116155095D01*
X163848501Y-116133254D01*
X163854422Y-116111360D01*
X163860279Y-116089414D01*
X163866073Y-116067415D01*
X163871802Y-116045363D01*
X163877467Y-116023259D01*
X163883067Y-116001102D01*
X163907687Y-115876831D01*
X163910517Y-115863018D01*
X163913512Y-115849714D01*
X163916672Y-115836921D01*
X163919997Y-115824638D01*
X163923486Y-115812865D01*
X163927141Y-115801602D01*
X163932270Y-115787377D01*
X163937692Y-115774060D01*
X163943408Y-115761650D01*
X163946375Y-115755784D01*
X163954806Y-115744038D01*
X163963979Y-115733857D01*
X163973894Y-115725243D01*
X163984550Y-115718195D01*
X163995949Y-115712714D01*
X164008089Y-115708798D01*
X164020971Y-115706449D01*
X164034596Y-115705666D01*
X164047598Y-115706797D01*
X164060009Y-115710189D01*
X164071827Y-115715843D01*
X164083052Y-115723759D01*
X164093685Y-115733937D01*
X164103725Y-115746377D01*
X164113173Y-115761078D01*
X164119142Y-115772135D01*
X164124849Y-115784198D01*
X164130291Y-115797266D01*
X164135471Y-115811339D01*
X164140387Y-115826417D01*
X164142746Y-115834333D01*
X164146135Y-115848117D01*
X164148797Y-115860583D01*
X164151562Y-115874873D01*
X164154430Y-115890987D01*
X164156399Y-115902743D01*
X164158414Y-115915309D01*
X164160475Y-115928686D01*
X164162582Y-115942873D01*
X164164734Y-115957871D01*
X164166932Y-115973680D01*
X164169176Y-115990299D01*
X164171466Y-116007729D01*
X164173801Y-116025969D01*
X164174986Y-116035393D01*
X164178050Y-116059335D01*
X164181161Y-116083057D01*
X164184318Y-116106560D01*
X164187521Y-116129842D01*
X164190770Y-116152905D01*
X164194066Y-116175748D01*
X164197408Y-116198371D01*
X164200797Y-116220774D01*
X164204232Y-116242957D01*
X164207713Y-116264921D01*
X164211241Y-116286664D01*
X164214815Y-116308188D01*
X164218435Y-116329492D01*
X164222102Y-116350577D01*
X164225815Y-116371441D01*
X164229575Y-116392086D01*
X164233381Y-116412511D01*
X164237233Y-116432716D01*
X164241131Y-116452701D01*
X164245076Y-116472466D01*
X164249068Y-116492012D01*
X164253106Y-116511337D01*
X164257190Y-116530443D01*
X164261320Y-116549329D01*
X164265497Y-116567996D01*
X164269720Y-116586442D01*
X164273990Y-116604669D01*
X164278306Y-116622675D01*
X164282668Y-116640462D01*
X164287077Y-116658030D01*
X164291532Y-116675377D01*
X164296033Y-116692504D01*
X164336480Y-116839050D01*
X164340242Y-116852531D01*
X164343761Y-116865351D01*
X164347038Y-116877508D01*
X164350072Y-116889004D01*
X164354168Y-116905007D01*
X164357717Y-116919521D01*
X164360721Y-116932546D01*
X164363179Y-116944082D01*
X164365606Y-116957148D01*
X164367274Y-116969757D01*
X164367547Y-116975338D01*
X164366599Y-116987806D01*
X164363756Y-116999490D01*
X164359016Y-117010392D01*
X164352380Y-117020510D01*
X164343848Y-117029846D01*
X164340583Y-117032784D01*
X164330334Y-117040752D01*
X164319590Y-117047072D01*
X164308352Y-117051743D01*
X164296619Y-117054765D01*
X164284392Y-117056139D01*
X164280206Y-117056231D01*
G37*
G36*
X165212530Y-115940139D02*
G01*
X165198920Y-115939969D01*
X165184466Y-115939461D01*
X165169171Y-115938614D01*
X165157146Y-115937756D01*
X165144647Y-115936708D01*
X165131675Y-115935469D01*
X165118228Y-115934039D01*
X165104307Y-115932419D01*
X165089912Y-115930608D01*
X165080053Y-115929294D01*
X164947282Y-115912002D01*
X164946110Y-115927240D01*
X164944975Y-115942435D01*
X164943878Y-115957589D01*
X164942817Y-115972699D01*
X164941794Y-115987768D01*
X164940808Y-116002794D01*
X164939859Y-116017778D01*
X164938947Y-116032719D01*
X164938073Y-116047618D01*
X164937236Y-116062475D01*
X164936436Y-116077289D01*
X164935673Y-116092061D01*
X164934948Y-116106790D01*
X164934259Y-116121478D01*
X164933608Y-116136122D01*
X164932994Y-116150725D01*
X164932417Y-116165285D01*
X164931878Y-116179803D01*
X164931375Y-116194278D01*
X164930910Y-116208711D01*
X164930482Y-116223102D01*
X164930092Y-116237450D01*
X164929738Y-116251756D01*
X164929422Y-116266020D01*
X164929143Y-116280241D01*
X164928901Y-116294420D01*
X164928696Y-116308556D01*
X164928529Y-116322651D01*
X164928399Y-116336702D01*
X164928306Y-116350712D01*
X164928250Y-116364679D01*
X164928231Y-116378604D01*
X164928282Y-116393693D01*
X164928386Y-116405581D01*
X164928546Y-116417959D01*
X164928763Y-116430826D01*
X164929037Y-116444183D01*
X164929368Y-116458029D01*
X164929755Y-116472364D01*
X164930199Y-116487189D01*
X164930700Y-116502503D01*
X164931257Y-116518307D01*
X164931455Y-116523684D01*
X164932031Y-116539651D01*
X164932551Y-116555128D01*
X164933014Y-116570116D01*
X164933420Y-116584615D01*
X164933769Y-116598624D01*
X164934062Y-116612144D01*
X164934298Y-116625174D01*
X164934478Y-116637715D01*
X164934601Y-116649766D01*
X164934676Y-116665073D01*
X164934679Y-116668764D01*
X164934630Y-116683473D01*
X164934484Y-116697924D01*
X164934239Y-116712118D01*
X164933896Y-116726054D01*
X164933456Y-116739733D01*
X164932917Y-116753154D01*
X164932281Y-116766317D01*
X164931547Y-116779223D01*
X164930715Y-116791871D01*
X164929785Y-116804262D01*
X164929111Y-116812379D01*
X165188790Y-116809155D01*
X165201367Y-116810031D01*
X165213162Y-116812658D01*
X165224174Y-116817037D01*
X165234402Y-116823168D01*
X165243847Y-116831051D01*
X165246822Y-116834068D01*
X165254790Y-116843702D01*
X165261110Y-116854140D01*
X165265781Y-116865381D01*
X165268804Y-116877427D01*
X165270177Y-116890276D01*
X165270269Y-116894738D01*
X165269445Y-116908164D01*
X165266972Y-116920745D01*
X165262850Y-116932481D01*
X165257080Y-116943372D01*
X165249661Y-116953419D01*
X165246822Y-116956580D01*
X165237637Y-116964947D01*
X165227670Y-116971582D01*
X165216919Y-116976487D01*
X165205386Y-116979661D01*
X165193069Y-116981103D01*
X165188790Y-116981200D01*
X165176493Y-116981200D01*
X165162759Y-116981200D01*
X165147587Y-116981200D01*
X165135265Y-116981200D01*
X165122133Y-116981200D01*
X165108193Y-116981200D01*
X165093443Y-116981200D01*
X165077885Y-116981200D01*
X165061518Y-116981200D01*
X165050157Y-116981200D01*
X165033254Y-116981200D01*
X165017164Y-116981200D01*
X165001888Y-116981200D01*
X164987427Y-116981200D01*
X164973779Y-116981200D01*
X164960945Y-116981200D01*
X164948926Y-116981200D01*
X164934166Y-116981200D01*
X164920853Y-116981200D01*
X164911818Y-116981200D01*
X164897347Y-116981346D01*
X164885387Y-116981648D01*
X164872480Y-116982115D01*
X164858624Y-116982747D01*
X164843821Y-116983544D01*
X164828070Y-116984506D01*
X164811370Y-116985633D01*
X164793723Y-116986924D01*
X164781431Y-116987876D01*
X164768719Y-116988902D01*
X164755584Y-116990001D01*
X164748859Y-116990578D01*
X164735547Y-116991714D01*
X164722646Y-116992777D01*
X164710158Y-116993766D01*
X164698081Y-116994682D01*
X164680740Y-116995918D01*
X164664325Y-116996990D01*
X164648838Y-116997897D01*
X164634279Y-116998638D01*
X164620647Y-116999215D01*
X164607942Y-116999628D01*
X164596164Y-116999875D01*
X164585314Y-116999957D01*
X164572737Y-116999102D01*
X164560942Y-116996536D01*
X164549930Y-116992260D01*
X164539702Y-116986274D01*
X164530257Y-116978577D01*
X164527282Y-116975631D01*
X164519314Y-116966007D01*
X164512994Y-116955600D01*
X164508323Y-116944410D01*
X164505300Y-116932436D01*
X164503927Y-116919680D01*
X164503835Y-116915254D01*
X164504659Y-116902226D01*
X164507132Y-116889961D01*
X164511254Y-116878458D01*
X164517024Y-116867718D01*
X164524443Y-116857740D01*
X164527282Y-116854584D01*
X164536477Y-116846118D01*
X164546475Y-116839403D01*
X164557277Y-116834440D01*
X164568883Y-116831228D01*
X164581292Y-116829769D01*
X164585607Y-116829671D01*
X164600042Y-116829401D01*
X164612311Y-116828844D01*
X164625816Y-116827983D01*
X164640558Y-116826817D01*
X164656536Y-116825348D01*
X164673750Y-116823575D01*
X164685913Y-116822224D01*
X164698626Y-116820738D01*
X164711889Y-116819117D01*
X164725701Y-116817361D01*
X164740062Y-116815469D01*
X164754973Y-116813443D01*
X164762635Y-116812379D01*
X164764101Y-116799739D01*
X164765424Y-116786770D01*
X164766602Y-116773471D01*
X164767636Y-116759842D01*
X164768525Y-116745884D01*
X164769270Y-116731596D01*
X164769872Y-116716978D01*
X164770328Y-116702030D01*
X164770641Y-116686753D01*
X164770809Y-116671145D01*
X164770841Y-116660557D01*
X164770759Y-116646027D01*
X164770512Y-116630717D01*
X164770218Y-116618724D01*
X164769831Y-116606293D01*
X164769352Y-116593424D01*
X164768780Y-116580118D01*
X164768116Y-116566373D01*
X164767358Y-116552190D01*
X164766508Y-116537570D01*
X164765566Y-116522511D01*
X164764623Y-116507458D01*
X164763773Y-116492853D01*
X164763015Y-116478696D01*
X164762351Y-116464988D01*
X164761779Y-116451727D01*
X164761300Y-116438915D01*
X164760913Y-116426551D01*
X164760620Y-116414635D01*
X164760372Y-116399445D01*
X164760290Y-116385052D01*
X164760312Y-116373126D01*
X164760379Y-116361016D01*
X164760491Y-116348721D01*
X164760647Y-116336243D01*
X164760848Y-116323580D01*
X164761094Y-116310732D01*
X164761384Y-116297701D01*
X164761719Y-116284485D01*
X164762098Y-116271084D01*
X164762522Y-116257500D01*
X164762991Y-116243731D01*
X164763505Y-116229777D01*
X164764063Y-116215640D01*
X164764666Y-116201318D01*
X164765313Y-116186811D01*
X164766005Y-116172121D01*
X164766742Y-116157246D01*
X164767523Y-116142186D01*
X164768349Y-116126943D01*
X164769220Y-116111515D01*
X164770135Y-116095903D01*
X164771095Y-116080106D01*
X164772100Y-116064125D01*
X164773149Y-116047960D01*
X164774243Y-116031610D01*
X164775382Y-116015076D01*
X164776565Y-115998358D01*
X164777793Y-115981456D01*
X164779066Y-115964369D01*
X164780383Y-115947097D01*
X164781745Y-115929642D01*
X164783151Y-115912002D01*
X164676173Y-115915519D01*
X164568901Y-115917864D01*
X164556004Y-115917029D01*
X164543911Y-115914525D01*
X164532621Y-115910352D01*
X164522135Y-115904510D01*
X164512453Y-115896998D01*
X164509404Y-115894123D01*
X164501336Y-115884668D01*
X164494937Y-115874326D01*
X164490207Y-115863098D01*
X164487147Y-115850984D01*
X164485756Y-115837984D01*
X164485663Y-115833454D01*
X164486343Y-115819768D01*
X164488384Y-115807288D01*
X164491784Y-115796014D01*
X164498433Y-115782857D01*
X164507501Y-115771843D01*
X164518986Y-115762972D01*
X164532890Y-115756245D01*
X164544904Y-115752606D01*
X164558279Y-115750173D01*
X164563039Y-115749629D01*
X164576589Y-115748477D01*
X164592179Y-115747438D01*
X164609809Y-115746512D01*
X164622696Y-115745958D01*
X164636490Y-115745455D01*
X164651190Y-115745001D01*
X164666797Y-115744598D01*
X164683311Y-115744246D01*
X164700732Y-115743943D01*
X164719059Y-115743691D01*
X164738293Y-115743490D01*
X164758434Y-115743339D01*
X164779482Y-115743238D01*
X164801436Y-115743188D01*
X164812753Y-115743181D01*
X164833595Y-115743314D01*
X164855087Y-115743713D01*
X164877229Y-115744377D01*
X164900021Y-115745306D01*
X164923464Y-115746502D01*
X164935429Y-115747199D01*
X164947557Y-115747962D01*
X164959847Y-115748792D01*
X164972300Y-115749689D01*
X164984916Y-115750652D01*
X164997694Y-115751681D01*
X165010635Y-115752777D01*
X165023738Y-115753939D01*
X165037004Y-115755167D01*
X165050432Y-115756462D01*
X165064023Y-115757823D01*
X165077777Y-115759251D01*
X165091693Y-115760745D01*
X165105771Y-115762306D01*
X165120013Y-115763932D01*
X165134417Y-115765626D01*
X165148983Y-115767385D01*
X165163712Y-115769212D01*
X165178604Y-115771104D01*
X165193658Y-115773063D01*
X165208874Y-115775088D01*
X165224254Y-115777180D01*
X165237348Y-115779665D01*
X165249155Y-115783273D01*
X165262894Y-115789831D01*
X165274343Y-115798386D01*
X165283502Y-115808937D01*
X165290371Y-115821485D01*
X165294951Y-115836030D01*
X165296883Y-115848248D01*
X165297527Y-115861590D01*
X165296537Y-115874934D01*
X165293570Y-115887268D01*
X165288624Y-115898592D01*
X165281700Y-115908906D01*
X165272797Y-115918211D01*
X165269390Y-115921088D01*
X165258254Y-115928511D01*
X165246389Y-115934111D01*
X165233795Y-115937888D01*
X165220471Y-115939841D01*
X165212530Y-115940139D01*
G37*
G36*
X166464617Y-115948932D02*
G01*
X166452604Y-115948844D01*
X166439427Y-115948581D01*
X166425085Y-115948143D01*
X166409579Y-115947530D01*
X166392909Y-115946742D01*
X166381149Y-115946119D01*
X166368871Y-115945418D01*
X166356076Y-115944640D01*
X166342763Y-115943784D01*
X166328933Y-115942849D01*
X166314585Y-115941837D01*
X166299720Y-115940747D01*
X166284337Y-115939580D01*
X166276452Y-115938966D01*
X166261224Y-115937870D01*
X166246460Y-115936851D01*
X166232162Y-115935910D01*
X166218328Y-115935046D01*
X166204959Y-115934261D01*
X166192055Y-115933553D01*
X166179616Y-115932924D01*
X166167642Y-115932372D01*
X166150552Y-115931690D01*
X166134507Y-115931183D01*
X166119509Y-115930852D01*
X166105557Y-115930696D01*
X166092650Y-115930715D01*
X166088580Y-115930760D01*
X166029962Y-115930760D01*
X166030324Y-115945337D01*
X166030823Y-115961003D01*
X166031459Y-115977760D01*
X166032233Y-115995606D01*
X166033145Y-116014543D01*
X166034193Y-116034569D01*
X166035380Y-116055685D01*
X166036703Y-116077892D01*
X166038164Y-116101188D01*
X166038946Y-116113245D01*
X166039762Y-116125574D01*
X166040613Y-116138176D01*
X166041498Y-116151050D01*
X166042417Y-116164197D01*
X166043371Y-116177616D01*
X166044359Y-116191308D01*
X166045381Y-116205272D01*
X166046438Y-116219509D01*
X166047529Y-116234018D01*
X166048655Y-116248800D01*
X166049814Y-116263854D01*
X166051008Y-116279180D01*
X166052237Y-116294779D01*
X166053355Y-116309350D01*
X166054437Y-116323715D01*
X166055484Y-116337876D01*
X166056496Y-116351831D01*
X166057472Y-116365582D01*
X166058412Y-116379128D01*
X166059317Y-116392469D01*
X166060187Y-116405605D01*
X166061021Y-116418536D01*
X166061820Y-116431262D01*
X166062583Y-116443783D01*
X166063310Y-116456099D01*
X166064002Y-116468210D01*
X166064659Y-116480116D01*
X166065866Y-116503314D01*
X166066930Y-116525692D01*
X166067853Y-116547250D01*
X166068634Y-116567989D01*
X166069273Y-116587907D01*
X166069770Y-116607006D01*
X166070125Y-116625286D01*
X166070338Y-116642745D01*
X166070409Y-116659385D01*
X166070689Y-116673226D01*
X166071376Y-116687322D01*
X166072263Y-116700642D01*
X166073437Y-116715394D01*
X166074582Y-116728226D01*
X166075910Y-116741974D01*
X166076270Y-116745554D01*
X166077644Y-116759545D01*
X166078835Y-116772647D01*
X166079842Y-116784860D01*
X166080844Y-116798878D01*
X166081560Y-116811508D01*
X166082041Y-116824831D01*
X166082132Y-116832602D01*
X166081848Y-116846139D01*
X166080996Y-116859200D01*
X166079577Y-116871785D01*
X166077589Y-116883893D01*
X166075034Y-116895525D01*
X166071041Y-116909396D01*
X166066161Y-116922522D01*
X166063961Y-116927564D01*
X166057774Y-116940135D01*
X166050790Y-116951029D01*
X166043009Y-116960248D01*
X166032163Y-116969414D01*
X166020071Y-116975962D01*
X166006735Y-116979890D01*
X165992153Y-116981200D01*
X165980070Y-116980396D01*
X165968440Y-116977985D01*
X165957264Y-116973966D01*
X165946541Y-116968340D01*
X165936271Y-116961107D01*
X165932949Y-116958338D01*
X165923984Y-116949312D01*
X165916874Y-116939379D01*
X165911619Y-116928539D01*
X165908219Y-116916793D01*
X165906674Y-116904139D01*
X165906570Y-116899720D01*
X165907248Y-116887735D01*
X165908690Y-116875817D01*
X165910674Y-116863084D01*
X165912657Y-116850232D01*
X165914100Y-116838291D01*
X165914777Y-116826447D01*
X165914648Y-116812933D01*
X165914360Y-116800731D01*
X165913906Y-116787292D01*
X165913288Y-116772617D01*
X165912716Y-116760799D01*
X165912052Y-116748286D01*
X165911294Y-116735077D01*
X165910444Y-116721173D01*
X165909501Y-116706573D01*
X165908559Y-116691965D01*
X165907708Y-116678038D01*
X165906951Y-116664790D01*
X165906287Y-116652223D01*
X165905715Y-116640335D01*
X165905096Y-116625543D01*
X165904643Y-116611960D01*
X165904355Y-116599586D01*
X165904226Y-116585819D01*
X165904151Y-116570905D01*
X165903928Y-116555251D01*
X165903556Y-116538857D01*
X165903035Y-116521724D01*
X165902365Y-116503851D01*
X165901547Y-116485238D01*
X165900579Y-116465886D01*
X165899463Y-116445795D01*
X165898198Y-116424964D01*
X165896784Y-116403393D01*
X165895221Y-116381082D01*
X165893510Y-116358032D01*
X165892598Y-116346230D01*
X165891649Y-116334243D01*
X165890663Y-116322070D01*
X165889640Y-116309713D01*
X165888579Y-116297171D01*
X165887482Y-116284444D01*
X165886347Y-116271533D01*
X165885175Y-116258436D01*
X165883946Y-116244292D01*
X165882752Y-116230400D01*
X165881592Y-116216760D01*
X165880467Y-116203372D01*
X165879376Y-116190235D01*
X165878319Y-116177350D01*
X165877297Y-116164718D01*
X165876309Y-116152337D01*
X165875355Y-116140208D01*
X165874436Y-116128331D01*
X165872700Y-116105332D01*
X165871102Y-116083341D01*
X165869641Y-116062358D01*
X165868317Y-116042382D01*
X165867131Y-116023413D01*
X165866083Y-116005452D01*
X165865171Y-115988499D01*
X165864397Y-115972553D01*
X165863761Y-115957614D01*
X165863262Y-115943683D01*
X165862900Y-115930760D01*
X165787868Y-115931639D01*
X165765603Y-115931538D01*
X165743941Y-115931236D01*
X165722885Y-115930732D01*
X165702432Y-115930027D01*
X165682585Y-115929120D01*
X165663341Y-115928012D01*
X165644702Y-115926702D01*
X165626668Y-115925191D01*
X165609238Y-115923478D01*
X165592413Y-115921564D01*
X165576192Y-115919448D01*
X165560576Y-115917131D01*
X165545564Y-115914612D01*
X165531157Y-115911892D01*
X165517354Y-115908970D01*
X165504156Y-115905847D01*
X165492214Y-115902255D01*
X165478118Y-115896208D01*
X165466110Y-115888723D01*
X165456191Y-115879799D01*
X165448360Y-115869438D01*
X165442617Y-115857639D01*
X165438963Y-115844402D01*
X165437396Y-115829727D01*
X165437331Y-115825833D01*
X165438083Y-115813692D01*
X165440340Y-115802106D01*
X165444874Y-115789294D01*
X165450390Y-115778914D01*
X165457410Y-115769091D01*
X165458727Y-115767508D01*
X165468553Y-115757929D01*
X165479349Y-115750513D01*
X165491112Y-115745262D01*
X165503845Y-115742174D01*
X165517545Y-115741250D01*
X165522328Y-115741423D01*
X165535716Y-115742484D01*
X165547550Y-115743638D01*
X165561709Y-115745149D01*
X165573856Y-115746517D01*
X165587311Y-115748086D01*
X165602075Y-115749856D01*
X165618148Y-115751826D01*
X165635529Y-115753998D01*
X165647843Y-115755557D01*
X165654219Y-115756370D01*
X165669385Y-115758099D01*
X165684001Y-115759657D01*
X165698065Y-115761046D01*
X165711578Y-115762264D01*
X165724539Y-115763313D01*
X165736950Y-115764191D01*
X165748809Y-115764900D01*
X165763763Y-115765580D01*
X165777738Y-115765957D01*
X165787575Y-115766042D01*
X165800755Y-115766010D01*
X165815529Y-115765914D01*
X165827655Y-115765800D01*
X165840678Y-115765650D01*
X165854597Y-115765463D01*
X165869412Y-115765241D01*
X165885124Y-115764983D01*
X165901732Y-115764688D01*
X165919237Y-115764357D01*
X165931405Y-115764117D01*
X165937638Y-115763991D01*
X165950040Y-115763742D01*
X165962038Y-115763510D01*
X165979280Y-115763191D01*
X165995615Y-115762909D01*
X166011044Y-115762662D01*
X166025566Y-115762452D01*
X166039181Y-115762278D01*
X166051889Y-115762140D01*
X166063690Y-115762037D01*
X166078015Y-115761957D01*
X166087701Y-115761939D01*
X166100165Y-115762019D01*
X166113705Y-115762259D01*
X166128322Y-115762658D01*
X166144016Y-115763217D01*
X166160786Y-115763936D01*
X166172565Y-115764503D01*
X166184822Y-115765142D01*
X166197558Y-115765852D01*
X166210772Y-115766633D01*
X166224465Y-115767485D01*
X166238636Y-115768408D01*
X166253286Y-115769401D01*
X166268415Y-115770466D01*
X166276159Y-115771025D01*
X166291527Y-115772125D01*
X166306416Y-115773155D01*
X166320827Y-115774113D01*
X166334759Y-115775000D01*
X166348212Y-115775816D01*
X166361187Y-115776562D01*
X166373684Y-115777236D01*
X166385702Y-115777839D01*
X166402831Y-115778611D01*
X166418884Y-115779224D01*
X166433860Y-115779676D01*
X166447759Y-115779969D01*
X166460582Y-115780102D01*
X166464617Y-115780111D01*
X166477503Y-115780966D01*
X166489566Y-115783532D01*
X166500804Y-115787808D01*
X166511218Y-115793795D01*
X166520808Y-115801492D01*
X166523821Y-115804437D01*
X166531989Y-115813972D01*
X166538466Y-115824331D01*
X166543254Y-115835514D01*
X166546352Y-115847522D01*
X166547761Y-115860354D01*
X166547854Y-115864814D01*
X166547010Y-115877722D01*
X166544475Y-115889846D01*
X166540250Y-115901187D01*
X166534336Y-115911746D01*
X166526731Y-115921521D01*
X166523821Y-115924605D01*
X166514506Y-115932872D01*
X166504367Y-115939429D01*
X166493404Y-115944275D01*
X166481616Y-115947411D01*
X166469004Y-115948837D01*
X166464617Y-115948932D01*
G37*
X176208980Y-82279084D02*
X177208980Y-82279084D01*
X177208980Y-82279084D02*
X177208980Y-82517179D01*
X177208980Y-82517179D02*
X177161361Y-82660036D01*
X177161361Y-82660036D02*
X177066123Y-82755274D01*
X177066123Y-82755274D02*
X176970885Y-82802893D01*
X176970885Y-82802893D02*
X176780409Y-82850512D01*
X176780409Y-82850512D02*
X176637552Y-82850512D01*
X176637552Y-82850512D02*
X176447076Y-82802893D01*
X176447076Y-82802893D02*
X176351838Y-82755274D01*
X176351838Y-82755274D02*
X176256600Y-82660036D01*
X176256600Y-82660036D02*
X176208980Y-82517179D01*
X176208980Y-82517179D02*
X176208980Y-82279084D01*
X176494695Y-83231465D02*
X176494695Y-83707655D01*
X176208980Y-83136227D02*
X177208980Y-83469560D01*
X177208980Y-83469560D02*
X176208980Y-83802893D01*
X177208980Y-83993370D02*
X177208980Y-84564798D01*
X176208980Y-84279084D02*
X177208980Y-84279084D01*
X176494695Y-84850513D02*
X176494695Y-85326703D01*
X176208980Y-84755275D02*
X177208980Y-85088608D01*
X177208980Y-85088608D02*
X176208980Y-85421941D01*
X141665284Y-52217619D02*
X141665284Y-51217619D01*
X141665284Y-51217619D02*
X142046236Y-51217619D01*
X142046236Y-51217619D02*
X142141474Y-51265238D01*
X142141474Y-51265238D02*
X142189093Y-51312857D01*
X142189093Y-51312857D02*
X142236712Y-51408095D01*
X142236712Y-51408095D02*
X142236712Y-51550952D01*
X142236712Y-51550952D02*
X142189093Y-51646190D01*
X142189093Y-51646190D02*
X142141474Y-51693809D01*
X142141474Y-51693809D02*
X142046236Y-51741428D01*
X142046236Y-51741428D02*
X141665284Y-51741428D01*
X142855760Y-51217619D02*
X143046236Y-51217619D01*
X143046236Y-51217619D02*
X143141474Y-51265238D01*
X143141474Y-51265238D02*
X143236712Y-51360476D01*
X143236712Y-51360476D02*
X143284331Y-51550952D01*
X143284331Y-51550952D02*
X143284331Y-51884285D01*
X143284331Y-51884285D02*
X143236712Y-52074761D01*
X143236712Y-52074761D02*
X143141474Y-52170000D01*
X143141474Y-52170000D02*
X143046236Y-52217619D01*
X143046236Y-52217619D02*
X142855760Y-52217619D01*
X142855760Y-52217619D02*
X142760522Y-52170000D01*
X142760522Y-52170000D02*
X142665284Y-52074761D01*
X142665284Y-52074761D02*
X142617665Y-51884285D01*
X142617665Y-51884285D02*
X142617665Y-51550952D01*
X142617665Y-51550952D02*
X142665284Y-51360476D01*
X142665284Y-51360476D02*
X142760522Y-51265238D01*
X142760522Y-51265238D02*
X142855760Y-51217619D01*
X143617665Y-51217619D02*
X143855760Y-52217619D01*
X143855760Y-52217619D02*
X144046236Y-51503333D01*
X144046236Y-51503333D02*
X144236712Y-52217619D01*
X144236712Y-52217619D02*
X144474808Y-51217619D01*
X144855760Y-51693809D02*
X145189093Y-51693809D01*
X145331950Y-52217619D02*
X144855760Y-52217619D01*
X144855760Y-52217619D02*
X144855760Y-51217619D01*
X144855760Y-51217619D02*
X145331950Y-51217619D01*
X146331950Y-52217619D02*
X145998617Y-51741428D01*
X145760522Y-52217619D02*
X145760522Y-51217619D01*
X145760522Y-51217619D02*
X146141474Y-51217619D01*
X146141474Y-51217619D02*
X146236712Y-51265238D01*
X146236712Y-51265238D02*
X146284331Y-51312857D01*
X146284331Y-51312857D02*
X146331950Y-51408095D01*
X146331950Y-51408095D02*
X146331950Y-51550952D01*
X146331950Y-51550952D02*
X146284331Y-51646190D01*
X146284331Y-51646190D02*
X146236712Y-51693809D01*
X146236712Y-51693809D02*
X146141474Y-51741428D01*
X146141474Y-51741428D02*
X145760522Y-51741428D01*
D13*
%TO.C,R16*%
X157405336Y-86387000D02*
X157859464Y-86387000D01*
X157405336Y-87857000D02*
X157859464Y-87857000D01*
%TO.C,C8*%
X136117000Y-68420348D02*
X136117000Y-68942852D01*
X134647000Y-68420348D02*
X134647000Y-68942852D01*
%TO.C,C3*%
X124026600Y-68445748D02*
X124026600Y-68968252D01*
X122556600Y-68445748D02*
X122556600Y-68968252D01*
%TO.C,R10*%
X157405336Y-82018200D02*
X157859464Y-82018200D01*
X157405336Y-83488200D02*
X157859464Y-83488200D01*
%TO.C,X1*%
X131942000Y-79238800D02*
X131942000Y-82538800D01*
X131942000Y-82538800D02*
X135942000Y-82538800D01*
%TO.C,C7*%
X133627800Y-68430548D02*
X133627800Y-68953052D01*
X132157800Y-68430548D02*
X132157800Y-68953052D01*
%TO.C,R8*%
X146073864Y-94308600D02*
X145619736Y-94308600D01*
X146073864Y-92838600D02*
X145619736Y-92838600D01*
%TO.C,J1*%
X141926000Y-65795200D02*
X141926000Y-64465200D01*
X143256000Y-65795200D02*
X141926000Y-65795200D01*
X144526000Y-65795200D02*
X167446000Y-65795200D01*
X144526000Y-65795200D02*
X144526000Y-63195200D01*
X167446000Y-65795200D02*
X167446000Y-60595200D01*
X141926000Y-63195200D02*
X141926000Y-60595200D01*
X144526000Y-63195200D02*
X141926000Y-63195200D01*
X141926000Y-60595200D02*
X167446000Y-60595200D01*
%TO.C,Q1*%
X134787200Y-105810000D02*
X140797200Y-105810000D01*
X137037200Y-112630000D02*
X140797200Y-112630000D01*
X140797200Y-105810000D02*
X140797200Y-107070000D01*
X140797200Y-112630000D02*
X140797200Y-111370000D01*
%TO.C,C9*%
X138784000Y-68420348D02*
X138784000Y-68942852D01*
X137314000Y-68420348D02*
X137314000Y-68942852D01*
%TO.C,R1*%
X125149236Y-112345800D02*
X125603364Y-112345800D01*
X125149236Y-113815800D02*
X125603364Y-113815800D01*
%TO.C,C16*%
X129202548Y-105259200D02*
X129725052Y-105259200D01*
X129202548Y-106729200D02*
X129725052Y-106729200D01*
%TO.C,C2*%
X121791400Y-68445748D02*
X121791400Y-68968252D01*
X120321400Y-68445748D02*
X120321400Y-68968252D01*
%TO.C,R20*%
X125245864Y-61745800D02*
X124791736Y-61745800D01*
X125245864Y-60275800D02*
X124791736Y-60275800D01*
%TO.C,R14*%
X148109000Y-72058264D02*
X148109000Y-71604136D01*
X149579000Y-72058264D02*
X149579000Y-71604136D01*
%TO.C,TP1*%
X138119000Y-57804200D02*
X140519000Y-57804200D01*
X138119000Y-60204200D02*
X138119000Y-57804200D01*
X140519000Y-57804200D02*
X140519000Y-60204200D01*
X140519000Y-60204200D02*
X138119000Y-60204200D01*
%TO.C,R5*%
X143486200Y-69619864D02*
X143486200Y-69165736D01*
X144956200Y-69619864D02*
X144956200Y-69165736D01*
%TO.C,R4*%
X144197400Y-116762264D02*
X144197400Y-116308136D01*
X145667400Y-116762264D02*
X145667400Y-116308136D01*
%TO.C,R17*%
X135713736Y-87149000D02*
X136167864Y-87149000D01*
X135713736Y-88619000D02*
X136167864Y-88619000D01*
%TO.C,DS2*%
X135644600Y-117038000D02*
X135644600Y-115118000D01*
X135644600Y-115118000D02*
X132959600Y-115118000D01*
X132959600Y-117038000D02*
X135644600Y-117038000D01*
%TO.C,C6*%
X131138600Y-68445748D02*
X131138600Y-68968252D01*
X129668600Y-68445748D02*
X129668600Y-68968252D01*
%TO.C,C4*%
X126465000Y-68445748D02*
X126465000Y-68968252D01*
X124995000Y-68445748D02*
X124995000Y-68968252D01*
%TO.C,C15*%
X147617548Y-85828200D02*
X148140052Y-85828200D01*
X147617548Y-87298200D02*
X148140052Y-87298200D01*
%TO.C,R7*%
X132056136Y-87149000D02*
X132510264Y-87149000D01*
X132056136Y-88619000D02*
X132510264Y-88619000D01*
%TO.C,C13*%
X138050600Y-64523252D02*
X138050600Y-64000748D01*
X139520600Y-64523252D02*
X139520600Y-64000748D01*
%TO.C,C11*%
X134119252Y-78763800D02*
X133596748Y-78763800D01*
X134119252Y-77293800D02*
X133596748Y-77293800D01*
%TO.C,R12*%
X157403436Y-77497000D02*
X157857564Y-77497000D01*
X157403436Y-78967000D02*
X157857564Y-78967000D01*
%TO.C,R6*%
X140488936Y-92533800D02*
X140943064Y-92533800D01*
X140488936Y-94003800D02*
X140943064Y-94003800D01*
%TO.C,R15*%
X145823000Y-70635864D02*
X145823000Y-70181736D01*
X147293000Y-70635864D02*
X147293000Y-70181736D01*
%TO.C,U1*%
X158288400Y-112085400D02*
X158288400Y-107635400D01*
X158288400Y-106235400D02*
X158288400Y-103935400D01*
X158288400Y-102535400D02*
X158288400Y-101815400D01*
X158288400Y-101815400D02*
X155608400Y-101815400D01*
X156808400Y-113455400D02*
X155948400Y-113455400D01*
X153308400Y-101815400D02*
X149638400Y-101815400D01*
X147338400Y-101815400D02*
X146108400Y-101815400D01*
X146108400Y-101815400D02*
X146108400Y-111635400D01*
%TO.C,C1*%
X129346200Y-81084052D02*
X129346200Y-80561548D01*
X130816200Y-81084052D02*
X130816200Y-80561548D01*
%TO.C,C5*%
X128852600Y-68445748D02*
X128852600Y-68968252D01*
X127382600Y-68445748D02*
X127382600Y-68968252D01*
%TO.C,U2*%
X141356000Y-84269200D02*
X141356000Y-83794200D01*
X141831000Y-77049200D02*
X141356000Y-77049200D01*
X141831000Y-84269200D02*
X141356000Y-84269200D01*
X148101000Y-77049200D02*
X148576000Y-77049200D01*
X148101000Y-84269200D02*
X148576000Y-84269200D01*
X148576000Y-77049200D02*
X148576000Y-77524200D01*
X148576000Y-84269200D02*
X148576000Y-83794200D01*
%TO.C,R19*%
X147600936Y-88114200D02*
X148055064Y-88114200D01*
X147600936Y-89584200D02*
X148055064Y-89584200D01*
%TO.C,R13*%
X157405336Y-75211000D02*
X157859464Y-75211000D01*
X157405336Y-76681000D02*
X157859464Y-76681000D01*
%TO.C,J2*%
X126000200Y-65592000D02*
X126000200Y-64262000D01*
X127330200Y-65592000D02*
X126000200Y-65592000D01*
X128600200Y-65592000D02*
X133740200Y-65592000D01*
X128600200Y-65592000D02*
X128600200Y-62932000D01*
X133740200Y-65592000D02*
X133740200Y-62932000D01*
X128600200Y-62932000D02*
X133740200Y-62932000D01*
%TO.C,R9*%
X157859464Y-81202200D02*
X157405336Y-81202200D01*
X157859464Y-79732200D02*
X157405336Y-79732200D01*
%TO.C,R3*%
X134646936Y-83847000D02*
X135101064Y-83847000D01*
X134646936Y-85317000D02*
X135101064Y-85317000D01*
%TO.C,R18*%
X132411800Y-109751864D02*
X132411800Y-109297736D01*
X133881800Y-109751864D02*
X133881800Y-109297736D01*
%TO.C,R2*%
X138150236Y-79325800D02*
X138604364Y-79325800D01*
X138150236Y-80795800D02*
X138604364Y-80795800D01*
%TO.C,DS1*%
X123841800Y-114813200D02*
X123841800Y-116733200D01*
X123841800Y-116733200D02*
X126526800Y-116733200D01*
X126526800Y-114813200D02*
X123841800Y-114813200D01*
%TO.C,R11*%
X157405336Y-84202600D02*
X157859464Y-84202600D01*
X157405336Y-85672600D02*
X157859464Y-85672600D01*
%TO.C,C12*%
X137285400Y-64000748D02*
X137285400Y-64523252D01*
X135815400Y-64000748D02*
X135815400Y-64523252D01*
%TO.C,C14*%
X143152800Y-116273948D02*
X143152800Y-116796452D01*
X141682800Y-116273948D02*
X141682800Y-116796452D01*
%TO.C,SW1*%
X126581000Y-101046000D02*
X130721000Y-101046000D01*
X126581000Y-101346000D02*
X126581000Y-101046000D01*
X126581000Y-104186000D02*
X126581000Y-103886000D01*
X130721000Y-101046000D02*
X130721000Y-101346000D01*
X130721000Y-103886000D02*
X130721000Y-104186000D01*
X130721000Y-104186000D02*
X126581000Y-104186000D01*
%TO.C,U3*%
X114381400Y-64630200D02*
X115711400Y-64630200D01*
X114381400Y-65960200D02*
X114381400Y-64630200D01*
X114381400Y-67230200D02*
X114381400Y-102850200D01*
X114381400Y-67230200D02*
X117041400Y-67230200D01*
X114381400Y-102850200D02*
X117041400Y-102850200D01*
X117041400Y-67230200D02*
X117041400Y-102850200D01*
X124806400Y-56905200D02*
X124806400Y-55575200D01*
X126136400Y-56905200D02*
X124806400Y-56905200D01*
X127406400Y-54245200D02*
X163026400Y-54245200D01*
X127406400Y-56905200D02*
X127406400Y-54245200D01*
X127406400Y-56905200D02*
X163026400Y-56905200D01*
X163026400Y-56905200D02*
X163026400Y-54245200D01*
X170781400Y-64660200D02*
X172111400Y-64660200D01*
X170781400Y-65990200D02*
X170781400Y-64660200D01*
X170781400Y-67260200D02*
X170781400Y-102880200D01*
X170781400Y-67260200D02*
X173441400Y-67260200D01*
X170781400Y-102880200D02*
X173441400Y-102880200D01*
X173441400Y-67260200D02*
X173441400Y-102880200D01*
%TD*%
M02*
