%TF.GenerationSoftware,KiCad,Pcbnew,7.0.7*%
%TF.CreationDate,2024-02-10T00:47:32+05:30*%
%TF.ProjectId,MC_stack,4d435f73-7461-4636-9b2e-6b696361645f,rev?*%
%TF.SameCoordinates,Original*%
%TF.FileFunction,Drillmap*%
%TF.FilePolarity,Positive*%
%FSLAX45Y45*%
G04 Gerber Fmt 4.5, Leading zero omitted, Abs format (unit mm)*
G04 Created by KiCad (PCBNEW 7.0.7) date 2024-02-10 00:47:32*
%MOMM*%
%LPD*%
G01*
G04 APERTURE LIST*
%ADD10C,0.200000*%
%ADD11C,0.040000*%
%ADD12C,0.100000*%
%ADD13C,0.840000*%
G04 APERTURE END LIST*
D10*
D11*
X11775760Y-8351840D02*
X11815760Y-8391840D01*
X11815760Y-8351840D02*
X11775760Y-8391840D01*
X11882440Y-8006400D02*
X11922440Y-8046400D01*
X11922440Y-8006400D02*
X11882440Y-8046400D01*
X11948480Y-7828600D02*
X11988480Y-7868600D01*
X11988480Y-7828600D02*
X11948480Y-7868600D01*
X12050080Y-7092000D02*
X12090080Y-7132000D01*
X12090080Y-7092000D02*
X12050080Y-7132000D01*
X12121200Y-7295200D02*
X12161200Y-7335200D01*
X12161200Y-7295200D02*
X12121200Y-7335200D01*
X12126280Y-7173280D02*
X12166280Y-7213280D01*
X12166280Y-7173280D02*
X12126280Y-7213280D01*
X12205020Y-11092500D02*
X12245020Y-11132500D01*
X12245020Y-11092500D02*
X12205020Y-11132500D01*
X12263440Y-7366320D02*
X12303440Y-7406320D01*
X12303440Y-7366320D02*
X12263440Y-7406320D01*
X12278680Y-7823520D02*
X12318680Y-7863520D01*
X12318680Y-7823520D02*
X12278680Y-7863520D01*
X12283760Y-9154480D02*
X12323760Y-9194480D01*
X12323760Y-9154480D02*
X12283760Y-9194480D01*
X12329480Y-7269800D02*
X12369480Y-7309800D01*
X12369480Y-7269800D02*
X12329480Y-7309800D01*
X12334560Y-7929830D02*
X12374560Y-7969830D01*
X12374560Y-7929830D02*
X12334560Y-7969830D01*
X12441240Y-7711760D02*
X12481240Y-7751760D01*
X12481240Y-7711760D02*
X12441240Y-7751760D01*
X12441240Y-8864920D02*
X12481240Y-8904920D01*
X12481240Y-8864920D02*
X12441240Y-8904920D01*
X12443780Y-11559860D02*
X12483780Y-11599860D01*
X12483780Y-11559860D02*
X12443780Y-11599860D01*
X12522520Y-7549200D02*
X12562520Y-7589200D01*
X12562520Y-7549200D02*
X12522520Y-7589200D01*
X12542840Y-9708200D02*
X12582840Y-9748200D01*
X12582840Y-9708200D02*
X12542840Y-9748200D01*
X12631740Y-10848660D02*
X12671740Y-10888660D01*
X12671740Y-10848660D02*
X12631740Y-10888660D01*
X12664760Y-7473000D02*
X12704760Y-7513000D01*
X12704760Y-7473000D02*
X12664760Y-7513000D01*
X12781600Y-7848920D02*
X12821600Y-7888920D01*
X12821600Y-7848920D02*
X12781600Y-7888920D01*
X12812080Y-8011480D02*
X12852080Y-8051480D01*
X12852080Y-8011480D02*
X12812080Y-8051480D01*
X12928920Y-8748080D02*
X12968920Y-8788080D01*
X12968920Y-8748080D02*
X12928920Y-8788080D01*
X13015280Y-8443280D02*
X13055280Y-8483280D01*
X13055280Y-8443280D02*
X13015280Y-8483280D01*
X13025440Y-10579420D02*
X13065440Y-10619420D01*
X13065440Y-10579420D02*
X13025440Y-10619420D01*
X13167680Y-9098600D02*
X13207680Y-9138600D01*
X13207680Y-9098600D02*
X13167680Y-9138600D01*
X13299760Y-8610920D02*
X13339760Y-8650920D01*
X13339760Y-8610920D02*
X13299760Y-8650920D01*
X13299760Y-9540560D02*
X13339760Y-9580560D01*
X13339760Y-9540560D02*
X13299760Y-9580560D01*
X13401360Y-9428800D02*
X13441360Y-9468800D01*
X13441360Y-9428800D02*
X13401360Y-9468800D01*
X13485180Y-8161340D02*
X13525180Y-8201340D01*
X13525180Y-8161340D02*
X13485180Y-8201340D01*
X13492800Y-8765860D02*
X13532800Y-8805860D01*
X13532800Y-8765860D02*
X13492800Y-8805860D01*
X13556300Y-11135680D02*
X13596300Y-11175680D01*
X13596300Y-11135680D02*
X13556300Y-11175680D01*
X13713780Y-9223060D02*
X13753780Y-9263060D01*
X13753780Y-9223060D02*
X13713780Y-9263060D01*
X13741720Y-8438200D02*
X13781720Y-8478200D01*
X13781720Y-8438200D02*
X13741720Y-8478200D01*
X13792520Y-9078280D02*
X13832520Y-9118280D01*
X13832520Y-9078280D02*
X13792520Y-9118280D01*
X13802680Y-7512977D02*
X13842680Y-7552977D01*
X13842680Y-7512977D02*
X13802680Y-7552977D01*
X13850940Y-6507800D02*
X13890940Y-6547800D01*
X13890940Y-6507800D02*
X13850940Y-6547800D01*
X13868720Y-8981760D02*
X13908720Y-9021760D01*
X13908720Y-8981760D02*
X13868720Y-9021760D01*
X13904280Y-7274880D02*
X13944280Y-7314880D01*
X13944280Y-7274880D02*
X13904280Y-7314880D01*
X13944920Y-6949760D02*
X13984920Y-6989760D01*
X13984920Y-6949760D02*
X13944920Y-6989760D01*
X14010960Y-9154480D02*
X14050960Y-9194480D01*
X14050960Y-9154480D02*
X14010960Y-9194480D01*
X14051600Y-6093780D02*
X14091600Y-6133780D01*
X14091600Y-6093780D02*
X14051600Y-6133780D01*
X14148120Y-7589840D02*
X14188120Y-7629840D01*
X14188120Y-7589840D02*
X14148120Y-7629840D01*
X14198920Y-8905560D02*
X14238920Y-8945560D01*
X14238920Y-8905560D02*
X14198920Y-8945560D01*
X14219240Y-6736400D02*
X14259240Y-6776400D01*
X14259240Y-6736400D02*
X14219240Y-6776400D01*
X14224320Y-7046280D02*
X14264320Y-7086280D01*
X14264320Y-7046280D02*
X14224320Y-7086280D01*
X14226860Y-11735120D02*
X14266860Y-11775120D01*
X14266860Y-11735120D02*
X14226860Y-11775120D01*
X14254800Y-8250240D02*
X14294800Y-8290240D01*
X14294800Y-8250240D02*
X14254800Y-8290240D01*
X14264960Y-7843840D02*
X14304960Y-7883840D01*
X14304960Y-7843840D02*
X14264960Y-7883840D01*
X14310680Y-6589080D02*
X14350680Y-6629080D01*
X14350680Y-6589080D02*
X14310680Y-6629080D01*
X14371640Y-7147880D02*
X14411640Y-7187880D01*
X14411640Y-7147880D02*
X14371640Y-7187880D01*
X14478320Y-10018080D02*
X14518320Y-10058080D01*
X14518320Y-10018080D02*
X14478320Y-10058080D01*
X14625640Y-7244400D02*
X14665640Y-7284400D01*
X14665640Y-7244400D02*
X14625640Y-7284400D01*
X14681520Y-6711000D02*
X14721520Y-6751000D01*
X14721520Y-6711000D02*
X14681520Y-6751000D01*
X14681520Y-7841300D02*
X14721520Y-7881300D01*
X14721520Y-7841300D02*
X14681520Y-7881300D01*
X14696760Y-7315520D02*
X14736760Y-7355520D01*
X14736760Y-7315520D02*
X14696760Y-7355520D01*
X14696760Y-8247700D02*
X14736760Y-8287700D01*
X14736760Y-8247700D02*
X14696760Y-8287700D01*
X14717080Y-9520240D02*
X14757080Y-9560240D01*
X14757080Y-9520240D02*
X14717080Y-9560240D01*
X14861860Y-8633780D02*
X14901860Y-8673780D01*
X14901860Y-8633780D02*
X14861860Y-8673780D01*
X14955840Y-9880920D02*
X14995840Y-9920920D01*
X14995840Y-9880920D02*
X14955840Y-9920920D01*
X14955840Y-11288080D02*
X14995840Y-11328080D01*
X14995840Y-11288080D02*
X14955840Y-11328080D01*
X15159040Y-7051360D02*
X15199040Y-7091360D01*
X15199040Y-7051360D02*
X15159040Y-7091360D01*
X15169200Y-7335840D02*
X15209200Y-7375840D01*
X15209200Y-7335840D02*
X15169200Y-7375840D01*
X15240320Y-10002840D02*
X15280320Y-10042840D01*
X15280320Y-10002840D02*
X15240320Y-10042840D01*
X15296200Y-7981000D02*
X15336200Y-8021000D01*
X15336200Y-7981000D02*
X15296200Y-8021000D01*
X15362240Y-9809800D02*
X15402240Y-9849800D01*
X15402240Y-9809800D02*
X15362240Y-9849800D01*
X15413040Y-7884480D02*
X15453040Y-7924480D01*
X15453040Y-7884480D02*
X15413040Y-7924480D01*
X15474000Y-8336600D02*
X15514000Y-8376600D01*
X15514000Y-8336600D02*
X15474000Y-8376600D01*
X15560360Y-6629720D02*
X15600360Y-6669720D01*
X15600360Y-6629720D02*
X15560360Y-6669720D01*
X15595920Y-7132640D02*
X15635920Y-7172640D01*
X15635920Y-7132640D02*
X15595920Y-7172640D01*
X15824520Y-7234240D02*
X15864520Y-7274240D01*
X15864520Y-7234240D02*
X15824520Y-7274240D01*
X15926120Y-8946200D02*
X15966120Y-8986200D01*
X15966120Y-8946200D02*
X15926120Y-8986200D01*
X15946440Y-7015800D02*
X15986440Y-7055800D01*
X15986440Y-7015800D02*
X15946440Y-7055800D01*
X15961680Y-8133400D02*
X16001680Y-8173400D01*
X16001680Y-8133400D02*
X15961680Y-8173400D01*
X15971840Y-7620320D02*
X16011840Y-7660320D01*
X16011840Y-7620320D02*
X15971840Y-7660320D01*
X15992160Y-6858320D02*
X16032160Y-6898320D01*
X16032160Y-6858320D02*
X15992160Y-6898320D01*
X16012480Y-9306880D02*
X16052480Y-9346880D01*
X16052480Y-9306880D02*
X16012480Y-9346880D01*
X16037880Y-9002080D02*
X16077880Y-9042080D01*
X16077880Y-9002080D02*
X16037880Y-9042080D01*
X16037880Y-10114600D02*
X16077880Y-10154600D01*
X16077880Y-10114600D02*
X16037880Y-10154600D01*
X16088680Y-7427280D02*
X16128680Y-7467280D01*
X16128680Y-7427280D02*
X16088680Y-7467280D01*
X16185200Y-7600000D02*
X16225200Y-7640000D01*
X16225200Y-7600000D02*
X16185200Y-7640000D01*
X16185200Y-10150160D02*
X16225200Y-10190160D01*
X16225200Y-10150160D02*
X16185200Y-10190160D01*
X16190280Y-8717600D02*
X16230280Y-8757600D01*
X16230280Y-8717600D02*
X16190280Y-8757600D01*
X16195360Y-7178360D02*
X16235360Y-7218360D01*
X16235360Y-7178360D02*
X16195360Y-7218360D01*
X16205520Y-7488240D02*
X16245520Y-7528240D01*
X16245520Y-7488240D02*
X16205520Y-7528240D01*
X16230920Y-8067360D02*
X16270920Y-8107360D01*
X16270920Y-8067360D02*
X16230920Y-8107360D01*
X16281720Y-6787200D02*
X16321720Y-6827200D01*
X16321720Y-6787200D02*
X16281720Y-6827200D01*
X16281720Y-9159560D02*
X16321720Y-9199560D01*
X16321720Y-9159560D02*
X16281720Y-9199560D01*
X16307120Y-9311960D02*
X16347120Y-9351960D01*
X16347120Y-9311960D02*
X16307120Y-9351960D01*
X16342680Y-8189280D02*
X16382680Y-8229280D01*
X16382680Y-8189280D02*
X16342680Y-8229280D01*
X16360460Y-11107740D02*
X16400460Y-11147740D01*
X16400460Y-11107740D02*
X16360460Y-11147740D01*
X16378240Y-7803200D02*
X16418240Y-7843200D01*
X16418240Y-7803200D02*
X16378240Y-7843200D01*
X16383320Y-9906320D02*
X16423320Y-9946320D01*
X16423320Y-9906320D02*
X16383320Y-9946320D01*
X16393480Y-7097080D02*
X16433480Y-7137080D01*
X16433480Y-7097080D02*
X16393480Y-7137080D01*
X16444280Y-8941120D02*
X16484280Y-8981120D01*
X16484280Y-8941120D02*
X16444280Y-8981120D01*
X16495080Y-10180640D02*
X16535080Y-10220640D01*
X16535080Y-10180640D02*
X16495080Y-10220640D01*
X16515400Y-7340920D02*
X16555400Y-7380920D01*
X16555400Y-7340920D02*
X16515400Y-7380920D01*
X16525560Y-7767640D02*
X16565560Y-7807640D01*
X16565560Y-7767640D02*
X16525560Y-7807640D01*
X16566200Y-8250240D02*
X16606200Y-8290240D01*
X16606200Y-8250240D02*
X16566200Y-8290240D01*
X16576360Y-9992680D02*
X16616360Y-10032680D01*
X16616360Y-9992680D02*
X16576360Y-10032680D01*
X16662720Y-7884480D02*
X16702720Y-7924480D01*
X16702720Y-7884480D02*
X16662720Y-7924480D01*
X16708440Y-9865680D02*
X16748440Y-9905680D01*
X16748440Y-9865680D02*
X16708440Y-9905680D01*
X16744000Y-8260400D02*
X16784000Y-8300400D01*
X16784000Y-8260400D02*
X16744000Y-8300400D01*
X16810040Y-6985320D02*
X16850040Y-7025320D01*
X16850040Y-6985320D02*
X16810040Y-7025320D01*
X16845600Y-7981000D02*
X16885600Y-8021000D01*
X16885600Y-7981000D02*
X16845600Y-8021000D01*
X16860840Y-9078280D02*
X16900840Y-9118280D01*
X16900840Y-9078280D02*
X16860840Y-9118280D01*
X16947200Y-7518720D02*
X16987200Y-7558720D01*
X16987200Y-7518720D02*
X16947200Y-7558720D01*
X16947200Y-8184200D02*
X16987200Y-8224200D01*
X16987200Y-8184200D02*
X16947200Y-8224200D01*
D12*
X11621140Y-6596020D02*
G75*
G03*
X11621140Y-6596020I-50000J0D01*
G01*
X11621140Y-6850020D02*
G75*
G03*
X11621140Y-6850020I-50000J0D01*
G01*
X11621140Y-7104020D02*
G75*
G03*
X11621140Y-7104020I-50000J0D01*
G01*
X11621140Y-7358020D02*
G75*
G03*
X11621140Y-7358020I-50000J0D01*
G01*
X11621140Y-7612020D02*
G75*
G03*
X11621140Y-7612020I-50000J0D01*
G01*
X11621140Y-7866020D02*
G75*
G03*
X11621140Y-7866020I-50000J0D01*
G01*
X11621140Y-8120020D02*
G75*
G03*
X11621140Y-8120020I-50000J0D01*
G01*
X11621140Y-8374020D02*
G75*
G03*
X11621140Y-8374020I-50000J0D01*
G01*
X11621140Y-8628020D02*
G75*
G03*
X11621140Y-8628020I-50000J0D01*
G01*
X11621140Y-8882020D02*
G75*
G03*
X11621140Y-8882020I-50000J0D01*
G01*
X11621140Y-9136020D02*
G75*
G03*
X11621140Y-9136020I-50000J0D01*
G01*
X11621140Y-9390020D02*
G75*
G03*
X11621140Y-9390020I-50000J0D01*
G01*
X11621140Y-9644020D02*
G75*
G03*
X11621140Y-9644020I-50000J0D01*
G01*
X11621140Y-9898020D02*
G75*
G03*
X11621140Y-9898020I-50000J0D01*
G01*
X11621140Y-10152020D02*
G75*
G03*
X11621140Y-10152020I-50000J0D01*
G01*
X12663640Y-5557520D02*
G75*
G03*
X12663640Y-5557520I-50000J0D01*
G01*
X12783020Y-6426200D02*
G75*
G03*
X12783020Y-6426200I-50000J0D01*
G01*
X12917640Y-5557520D02*
G75*
G03*
X12917640Y-5557520I-50000J0D01*
G01*
X13037020Y-6426200D02*
G75*
G03*
X13037020Y-6426200I-50000J0D01*
G01*
X13171640Y-5557520D02*
G75*
G03*
X13171640Y-5557520I-50000J0D01*
G01*
X13291020Y-6426200D02*
G75*
G03*
X13291020Y-6426200I-50000J0D01*
G01*
X13425640Y-5557520D02*
G75*
G03*
X13425640Y-5557520I-50000J0D01*
G01*
X13679640Y-5557520D02*
G75*
G03*
X13679640Y-5557520I-50000J0D01*
G01*
X13933640Y-5557520D02*
G75*
G03*
X13933640Y-5557520I-50000J0D01*
G01*
X14187640Y-5557520D02*
G75*
G03*
X14187640Y-5557520I-50000J0D01*
G01*
X14375600Y-6192520D02*
G75*
G03*
X14375600Y-6192520I-50000J0D01*
G01*
X14375600Y-6446520D02*
G75*
G03*
X14375600Y-6446520I-50000J0D01*
G01*
X14441640Y-5557520D02*
G75*
G03*
X14441640Y-5557520I-50000J0D01*
G01*
X14629600Y-6192520D02*
G75*
G03*
X14629600Y-6192520I-50000J0D01*
G01*
X14629600Y-6446520D02*
G75*
G03*
X14629600Y-6446520I-50000J0D01*
G01*
X14695640Y-5557520D02*
G75*
G03*
X14695640Y-5557520I-50000J0D01*
G01*
X14883600Y-6192520D02*
G75*
G03*
X14883600Y-6192520I-50000J0D01*
G01*
X14883600Y-6446520D02*
G75*
G03*
X14883600Y-6446520I-50000J0D01*
G01*
X14949640Y-5557520D02*
G75*
G03*
X14949640Y-5557520I-50000J0D01*
G01*
X15137600Y-6192520D02*
G75*
G03*
X15137600Y-6192520I-50000J0D01*
G01*
X15137600Y-6446520D02*
G75*
G03*
X15137600Y-6446520I-50000J0D01*
G01*
X15203640Y-5557520D02*
G75*
G03*
X15203640Y-5557520I-50000J0D01*
G01*
X15391600Y-6192520D02*
G75*
G03*
X15391600Y-6192520I-50000J0D01*
G01*
X15391600Y-6446520D02*
G75*
G03*
X15391600Y-6446520I-50000J0D01*
G01*
X15457640Y-5557520D02*
G75*
G03*
X15457640Y-5557520I-50000J0D01*
G01*
X15645600Y-6192520D02*
G75*
G03*
X15645600Y-6192520I-50000J0D01*
G01*
X15645600Y-6446520D02*
G75*
G03*
X15645600Y-6446520I-50000J0D01*
G01*
X15711640Y-5557520D02*
G75*
G03*
X15711640Y-5557520I-50000J0D01*
G01*
X15899600Y-6192520D02*
G75*
G03*
X15899600Y-6192520I-50000J0D01*
G01*
X15899600Y-6446520D02*
G75*
G03*
X15899600Y-6446520I-50000J0D01*
G01*
X15965640Y-5557520D02*
G75*
G03*
X15965640Y-5557520I-50000J0D01*
G01*
X16153600Y-6192520D02*
G75*
G03*
X16153600Y-6192520I-50000J0D01*
G01*
X16153600Y-6446520D02*
G75*
G03*
X16153600Y-6446520I-50000J0D01*
G01*
X16219640Y-5557520D02*
G75*
G03*
X16219640Y-5557520I-50000J0D01*
G01*
X16407600Y-6192520D02*
G75*
G03*
X16407600Y-6192520I-50000J0D01*
G01*
X16407600Y-6446520D02*
G75*
G03*
X16407600Y-6446520I-50000J0D01*
G01*
X16661600Y-6192520D02*
G75*
G03*
X16661600Y-6192520I-50000J0D01*
G01*
X16661600Y-6446520D02*
G75*
G03*
X16661600Y-6446520I-50000J0D01*
G01*
X17261140Y-6599020D02*
G75*
G03*
X17261140Y-6599020I-50000J0D01*
G01*
X17261140Y-6853020D02*
G75*
G03*
X17261140Y-6853020I-50000J0D01*
G01*
X17261140Y-7107020D02*
G75*
G03*
X17261140Y-7107020I-50000J0D01*
G01*
X17261140Y-7361020D02*
G75*
G03*
X17261140Y-7361020I-50000J0D01*
G01*
X17261140Y-7615020D02*
G75*
G03*
X17261140Y-7615020I-50000J0D01*
G01*
X17261140Y-7869020D02*
G75*
G03*
X17261140Y-7869020I-50000J0D01*
G01*
X17261140Y-8123020D02*
G75*
G03*
X17261140Y-8123020I-50000J0D01*
G01*
X17261140Y-8377020D02*
G75*
G03*
X17261140Y-8377020I-50000J0D01*
G01*
X17261140Y-8631020D02*
G75*
G03*
X17261140Y-8631020I-50000J0D01*
G01*
X17261140Y-8885020D02*
G75*
G03*
X17261140Y-8885020I-50000J0D01*
G01*
X17261140Y-9139020D02*
G75*
G03*
X17261140Y-9139020I-50000J0D01*
G01*
X17261140Y-9393020D02*
G75*
G03*
X17261140Y-9393020I-50000J0D01*
G01*
X17261140Y-9647020D02*
G75*
G03*
X17261140Y-9647020I-50000J0D01*
G01*
X17261140Y-9901020D02*
G75*
G03*
X17261140Y-9901020I-50000J0D01*
G01*
X17261140Y-10155020D02*
G75*
G03*
X17261140Y-10155020I-50000J0D01*
G01*
D13*
X11611140Y-5167520D02*
X11611140Y-6007520D01*
X11191140Y-5587520D02*
X12031140Y-5587520D01*
X11611140Y-10737520D02*
X11611140Y-11577520D01*
X11191140Y-11157520D02*
X12031140Y-11157520D01*
X17171140Y-5169020D02*
X17171140Y-6009020D01*
X16751140Y-5589020D02*
X17591140Y-5589020D01*
X17171140Y-10737520D02*
X17171140Y-11577520D01*
X16751140Y-11157520D02*
X17591140Y-11157520D01*
D10*
X11149417Y-12191504D02*
X11149417Y-11991504D01*
X11149417Y-11991504D02*
X11197036Y-11991504D01*
X11197036Y-11991504D02*
X11225607Y-12001028D01*
X11225607Y-12001028D02*
X11244655Y-12020075D01*
X11244655Y-12020075D02*
X11254179Y-12039123D01*
X11254179Y-12039123D02*
X11263702Y-12077218D01*
X11263702Y-12077218D02*
X11263702Y-12105789D01*
X11263702Y-12105789D02*
X11254179Y-12143885D01*
X11254179Y-12143885D02*
X11244655Y-12162932D01*
X11244655Y-12162932D02*
X11225607Y-12181980D01*
X11225607Y-12181980D02*
X11197036Y-12191504D01*
X11197036Y-12191504D02*
X11149417Y-12191504D01*
X11349417Y-12191504D02*
X11349417Y-12058170D01*
X11349417Y-12096266D02*
X11358941Y-12077218D01*
X11358941Y-12077218D02*
X11368464Y-12067694D01*
X11368464Y-12067694D02*
X11387512Y-12058170D01*
X11387512Y-12058170D02*
X11406560Y-12058170D01*
X11473226Y-12191504D02*
X11473226Y-12058170D01*
X11473226Y-11991504D02*
X11463702Y-12001028D01*
X11463702Y-12001028D02*
X11473226Y-12010551D01*
X11473226Y-12010551D02*
X11482750Y-12001028D01*
X11482750Y-12001028D02*
X11473226Y-11991504D01*
X11473226Y-11991504D02*
X11473226Y-12010551D01*
X11597036Y-12191504D02*
X11577988Y-12181980D01*
X11577988Y-12181980D02*
X11568464Y-12162932D01*
X11568464Y-12162932D02*
X11568464Y-11991504D01*
X11701798Y-12191504D02*
X11682750Y-12181980D01*
X11682750Y-12181980D02*
X11673226Y-12162932D01*
X11673226Y-12162932D02*
X11673226Y-11991504D01*
X11930369Y-12191504D02*
X11930369Y-11991504D01*
X11930369Y-11991504D02*
X11997036Y-12134361D01*
X11997036Y-12134361D02*
X12063702Y-11991504D01*
X12063702Y-11991504D02*
X12063702Y-12191504D01*
X12244655Y-12191504D02*
X12244655Y-12086742D01*
X12244655Y-12086742D02*
X12235131Y-12067694D01*
X12235131Y-12067694D02*
X12216083Y-12058170D01*
X12216083Y-12058170D02*
X12177988Y-12058170D01*
X12177988Y-12058170D02*
X12158941Y-12067694D01*
X12244655Y-12181980D02*
X12225607Y-12191504D01*
X12225607Y-12191504D02*
X12177988Y-12191504D01*
X12177988Y-12191504D02*
X12158941Y-12181980D01*
X12158941Y-12181980D02*
X12149417Y-12162932D01*
X12149417Y-12162932D02*
X12149417Y-12143885D01*
X12149417Y-12143885D02*
X12158941Y-12124837D01*
X12158941Y-12124837D02*
X12177988Y-12115313D01*
X12177988Y-12115313D02*
X12225607Y-12115313D01*
X12225607Y-12115313D02*
X12244655Y-12105789D01*
X12339893Y-12058170D02*
X12339893Y-12258170D01*
X12339893Y-12067694D02*
X12358941Y-12058170D01*
X12358941Y-12058170D02*
X12397036Y-12058170D01*
X12397036Y-12058170D02*
X12416083Y-12067694D01*
X12416083Y-12067694D02*
X12425607Y-12077218D01*
X12425607Y-12077218D02*
X12435131Y-12096266D01*
X12435131Y-12096266D02*
X12435131Y-12153408D01*
X12435131Y-12153408D02*
X12425607Y-12172456D01*
X12425607Y-12172456D02*
X12416083Y-12181980D01*
X12416083Y-12181980D02*
X12397036Y-12191504D01*
X12397036Y-12191504D02*
X12358941Y-12191504D01*
X12358941Y-12191504D02*
X12339893Y-12181980D01*
X12520845Y-12172456D02*
X12530369Y-12181980D01*
X12530369Y-12181980D02*
X12520845Y-12191504D01*
X12520845Y-12191504D02*
X12511322Y-12181980D01*
X12511322Y-12181980D02*
X12520845Y-12172456D01*
X12520845Y-12172456D02*
X12520845Y-12191504D01*
X12520845Y-12067694D02*
X12530369Y-12077218D01*
X12530369Y-12077218D02*
X12520845Y-12086742D01*
X12520845Y-12086742D02*
X12511322Y-12077218D01*
X12511322Y-12077218D02*
X12520845Y-12067694D01*
X12520845Y-12067694D02*
X12520845Y-12086742D01*
D11*
X10848640Y-12500020D02*
X10888640Y-12540020D01*
X10888640Y-12500020D02*
X10848640Y-12540020D01*
D10*
X11187512Y-12411504D02*
X11206560Y-12411504D01*
X11206560Y-12411504D02*
X11225607Y-12421028D01*
X11225607Y-12421028D02*
X11235131Y-12430551D01*
X11235131Y-12430551D02*
X11244655Y-12449599D01*
X11244655Y-12449599D02*
X11254179Y-12487694D01*
X11254179Y-12487694D02*
X11254179Y-12535313D01*
X11254179Y-12535313D02*
X11244655Y-12573408D01*
X11244655Y-12573408D02*
X11235131Y-12592456D01*
X11235131Y-12592456D02*
X11225607Y-12601980D01*
X11225607Y-12601980D02*
X11206560Y-12611504D01*
X11206560Y-12611504D02*
X11187512Y-12611504D01*
X11187512Y-12611504D02*
X11168464Y-12601980D01*
X11168464Y-12601980D02*
X11158941Y-12592456D01*
X11158941Y-12592456D02*
X11149417Y-12573408D01*
X11149417Y-12573408D02*
X11139893Y-12535313D01*
X11139893Y-12535313D02*
X11139893Y-12487694D01*
X11139893Y-12487694D02*
X11149417Y-12449599D01*
X11149417Y-12449599D02*
X11158941Y-12430551D01*
X11158941Y-12430551D02*
X11168464Y-12421028D01*
X11168464Y-12421028D02*
X11187512Y-12411504D01*
X11339893Y-12592456D02*
X11349417Y-12601980D01*
X11349417Y-12601980D02*
X11339893Y-12611504D01*
X11339893Y-12611504D02*
X11330369Y-12601980D01*
X11330369Y-12601980D02*
X11339893Y-12592456D01*
X11339893Y-12592456D02*
X11339893Y-12611504D01*
X11520845Y-12478170D02*
X11520845Y-12611504D01*
X11473226Y-12401980D02*
X11425607Y-12544837D01*
X11425607Y-12544837D02*
X11549417Y-12544837D01*
X11663702Y-12411504D02*
X11682750Y-12411504D01*
X11682750Y-12411504D02*
X11701798Y-12421028D01*
X11701798Y-12421028D02*
X11711322Y-12430551D01*
X11711322Y-12430551D02*
X11720845Y-12449599D01*
X11720845Y-12449599D02*
X11730369Y-12487694D01*
X11730369Y-12487694D02*
X11730369Y-12535313D01*
X11730369Y-12535313D02*
X11720845Y-12573408D01*
X11720845Y-12573408D02*
X11711322Y-12592456D01*
X11711322Y-12592456D02*
X11701798Y-12601980D01*
X11701798Y-12601980D02*
X11682750Y-12611504D01*
X11682750Y-12611504D02*
X11663702Y-12611504D01*
X11663702Y-12611504D02*
X11644655Y-12601980D01*
X11644655Y-12601980D02*
X11635131Y-12592456D01*
X11635131Y-12592456D02*
X11625607Y-12573408D01*
X11625607Y-12573408D02*
X11616083Y-12535313D01*
X11616083Y-12535313D02*
X11616083Y-12487694D01*
X11616083Y-12487694D02*
X11625607Y-12449599D01*
X11625607Y-12449599D02*
X11635131Y-12430551D01*
X11635131Y-12430551D02*
X11644655Y-12421028D01*
X11644655Y-12421028D02*
X11663702Y-12411504D01*
X11854179Y-12411504D02*
X11873226Y-12411504D01*
X11873226Y-12411504D02*
X11892274Y-12421028D01*
X11892274Y-12421028D02*
X11901798Y-12430551D01*
X11901798Y-12430551D02*
X11911322Y-12449599D01*
X11911322Y-12449599D02*
X11920845Y-12487694D01*
X11920845Y-12487694D02*
X11920845Y-12535313D01*
X11920845Y-12535313D02*
X11911322Y-12573408D01*
X11911322Y-12573408D02*
X11901798Y-12592456D01*
X11901798Y-12592456D02*
X11892274Y-12601980D01*
X11892274Y-12601980D02*
X11873226Y-12611504D01*
X11873226Y-12611504D02*
X11854179Y-12611504D01*
X11854179Y-12611504D02*
X11835131Y-12601980D01*
X11835131Y-12601980D02*
X11825607Y-12592456D01*
X11825607Y-12592456D02*
X11816083Y-12573408D01*
X11816083Y-12573408D02*
X11806560Y-12535313D01*
X11806560Y-12535313D02*
X11806560Y-12487694D01*
X11806560Y-12487694D02*
X11816083Y-12449599D01*
X11816083Y-12449599D02*
X11825607Y-12430551D01*
X11825607Y-12430551D02*
X11835131Y-12421028D01*
X11835131Y-12421028D02*
X11854179Y-12411504D01*
X12006560Y-12611504D02*
X12006560Y-12478170D01*
X12006560Y-12497218D02*
X12016083Y-12487694D01*
X12016083Y-12487694D02*
X12035131Y-12478170D01*
X12035131Y-12478170D02*
X12063703Y-12478170D01*
X12063703Y-12478170D02*
X12082750Y-12487694D01*
X12082750Y-12487694D02*
X12092274Y-12506742D01*
X12092274Y-12506742D02*
X12092274Y-12611504D01*
X12092274Y-12506742D02*
X12101798Y-12487694D01*
X12101798Y-12487694D02*
X12120845Y-12478170D01*
X12120845Y-12478170D02*
X12149417Y-12478170D01*
X12149417Y-12478170D02*
X12168464Y-12487694D01*
X12168464Y-12487694D02*
X12177988Y-12506742D01*
X12177988Y-12506742D02*
X12177988Y-12611504D01*
X12273226Y-12611504D02*
X12273226Y-12478170D01*
X12273226Y-12497218D02*
X12282750Y-12487694D01*
X12282750Y-12487694D02*
X12301798Y-12478170D01*
X12301798Y-12478170D02*
X12330369Y-12478170D01*
X12330369Y-12478170D02*
X12349417Y-12487694D01*
X12349417Y-12487694D02*
X12358941Y-12506742D01*
X12358941Y-12506742D02*
X12358941Y-12611504D01*
X12358941Y-12506742D02*
X12368464Y-12487694D01*
X12368464Y-12487694D02*
X12387512Y-12478170D01*
X12387512Y-12478170D02*
X12416083Y-12478170D01*
X12416083Y-12478170D02*
X12435131Y-12487694D01*
X12435131Y-12487694D02*
X12444655Y-12506742D01*
X12444655Y-12506742D02*
X12444655Y-12611504D01*
X12835131Y-12401980D02*
X12663703Y-12659123D01*
X13092274Y-12411504D02*
X13111322Y-12411504D01*
X13111322Y-12411504D02*
X13130369Y-12421028D01*
X13130369Y-12421028D02*
X13139893Y-12430551D01*
X13139893Y-12430551D02*
X13149417Y-12449599D01*
X13149417Y-12449599D02*
X13158941Y-12487694D01*
X13158941Y-12487694D02*
X13158941Y-12535313D01*
X13158941Y-12535313D02*
X13149417Y-12573408D01*
X13149417Y-12573408D02*
X13139893Y-12592456D01*
X13139893Y-12592456D02*
X13130369Y-12601980D01*
X13130369Y-12601980D02*
X13111322Y-12611504D01*
X13111322Y-12611504D02*
X13092274Y-12611504D01*
X13092274Y-12611504D02*
X13073226Y-12601980D01*
X13073226Y-12601980D02*
X13063703Y-12592456D01*
X13063703Y-12592456D02*
X13054179Y-12573408D01*
X13054179Y-12573408D02*
X13044655Y-12535313D01*
X13044655Y-12535313D02*
X13044655Y-12487694D01*
X13044655Y-12487694D02*
X13054179Y-12449599D01*
X13054179Y-12449599D02*
X13063703Y-12430551D01*
X13063703Y-12430551D02*
X13073226Y-12421028D01*
X13073226Y-12421028D02*
X13092274Y-12411504D01*
X13244655Y-12592456D02*
X13254179Y-12601980D01*
X13254179Y-12601980D02*
X13244655Y-12611504D01*
X13244655Y-12611504D02*
X13235131Y-12601980D01*
X13235131Y-12601980D02*
X13244655Y-12592456D01*
X13244655Y-12592456D02*
X13244655Y-12611504D01*
X13377988Y-12411504D02*
X13397036Y-12411504D01*
X13397036Y-12411504D02*
X13416084Y-12421028D01*
X13416084Y-12421028D02*
X13425607Y-12430551D01*
X13425607Y-12430551D02*
X13435131Y-12449599D01*
X13435131Y-12449599D02*
X13444655Y-12487694D01*
X13444655Y-12487694D02*
X13444655Y-12535313D01*
X13444655Y-12535313D02*
X13435131Y-12573408D01*
X13435131Y-12573408D02*
X13425607Y-12592456D01*
X13425607Y-12592456D02*
X13416084Y-12601980D01*
X13416084Y-12601980D02*
X13397036Y-12611504D01*
X13397036Y-12611504D02*
X13377988Y-12611504D01*
X13377988Y-12611504D02*
X13358941Y-12601980D01*
X13358941Y-12601980D02*
X13349417Y-12592456D01*
X13349417Y-12592456D02*
X13339893Y-12573408D01*
X13339893Y-12573408D02*
X13330369Y-12535313D01*
X13330369Y-12535313D02*
X13330369Y-12487694D01*
X13330369Y-12487694D02*
X13339893Y-12449599D01*
X13339893Y-12449599D02*
X13349417Y-12430551D01*
X13349417Y-12430551D02*
X13358941Y-12421028D01*
X13358941Y-12421028D02*
X13377988Y-12411504D01*
X13635131Y-12611504D02*
X13520846Y-12611504D01*
X13577988Y-12611504D02*
X13577988Y-12411504D01*
X13577988Y-12411504D02*
X13558941Y-12440075D01*
X13558941Y-12440075D02*
X13539893Y-12459123D01*
X13539893Y-12459123D02*
X13520846Y-12468647D01*
X13816084Y-12411504D02*
X13720846Y-12411504D01*
X13720846Y-12411504D02*
X13711322Y-12506742D01*
X13711322Y-12506742D02*
X13720846Y-12497218D01*
X13720846Y-12497218D02*
X13739893Y-12487694D01*
X13739893Y-12487694D02*
X13787512Y-12487694D01*
X13787512Y-12487694D02*
X13806560Y-12497218D01*
X13806560Y-12497218D02*
X13816084Y-12506742D01*
X13816084Y-12506742D02*
X13825607Y-12525789D01*
X13825607Y-12525789D02*
X13825607Y-12573408D01*
X13825607Y-12573408D02*
X13816084Y-12592456D01*
X13816084Y-12592456D02*
X13806560Y-12601980D01*
X13806560Y-12601980D02*
X13787512Y-12611504D01*
X13787512Y-12611504D02*
X13739893Y-12611504D01*
X13739893Y-12611504D02*
X13720846Y-12601980D01*
X13720846Y-12601980D02*
X13711322Y-12592456D01*
X13892274Y-12411504D02*
X14025607Y-12411504D01*
X14025607Y-12411504D02*
X13939893Y-12611504D01*
X14092274Y-12411504D02*
X14092274Y-12449599D01*
X14168465Y-12411504D02*
X14168465Y-12449599D01*
X14463703Y-12687694D02*
X14454179Y-12678170D01*
X14454179Y-12678170D02*
X14435131Y-12649599D01*
X14435131Y-12649599D02*
X14425608Y-12630551D01*
X14425608Y-12630551D02*
X14416084Y-12601980D01*
X14416084Y-12601980D02*
X14406560Y-12554361D01*
X14406560Y-12554361D02*
X14406560Y-12516266D01*
X14406560Y-12516266D02*
X14416084Y-12468647D01*
X14416084Y-12468647D02*
X14425608Y-12440075D01*
X14425608Y-12440075D02*
X14435131Y-12421028D01*
X14435131Y-12421028D02*
X14454179Y-12392456D01*
X14454179Y-12392456D02*
X14463703Y-12382932D01*
X14644655Y-12611504D02*
X14530369Y-12611504D01*
X14587512Y-12611504D02*
X14587512Y-12411504D01*
X14587512Y-12411504D02*
X14568465Y-12440075D01*
X14568465Y-12440075D02*
X14549417Y-12459123D01*
X14549417Y-12459123D02*
X14530369Y-12468647D01*
X14768465Y-12411504D02*
X14787512Y-12411504D01*
X14787512Y-12411504D02*
X14806560Y-12421028D01*
X14806560Y-12421028D02*
X14816084Y-12430551D01*
X14816084Y-12430551D02*
X14825608Y-12449599D01*
X14825608Y-12449599D02*
X14835131Y-12487694D01*
X14835131Y-12487694D02*
X14835131Y-12535313D01*
X14835131Y-12535313D02*
X14825608Y-12573408D01*
X14825608Y-12573408D02*
X14816084Y-12592456D01*
X14816084Y-12592456D02*
X14806560Y-12601980D01*
X14806560Y-12601980D02*
X14787512Y-12611504D01*
X14787512Y-12611504D02*
X14768465Y-12611504D01*
X14768465Y-12611504D02*
X14749417Y-12601980D01*
X14749417Y-12601980D02*
X14739893Y-12592456D01*
X14739893Y-12592456D02*
X14730369Y-12573408D01*
X14730369Y-12573408D02*
X14720846Y-12535313D01*
X14720846Y-12535313D02*
X14720846Y-12487694D01*
X14720846Y-12487694D02*
X14730369Y-12449599D01*
X14730369Y-12449599D02*
X14739893Y-12430551D01*
X14739893Y-12430551D02*
X14749417Y-12421028D01*
X14749417Y-12421028D02*
X14768465Y-12411504D01*
X14901798Y-12411504D02*
X15035131Y-12411504D01*
X15035131Y-12411504D02*
X14949417Y-12611504D01*
X15263703Y-12611504D02*
X15263703Y-12411504D01*
X15349417Y-12611504D02*
X15349417Y-12506742D01*
X15349417Y-12506742D02*
X15339893Y-12487694D01*
X15339893Y-12487694D02*
X15320846Y-12478170D01*
X15320846Y-12478170D02*
X15292274Y-12478170D01*
X15292274Y-12478170D02*
X15273227Y-12487694D01*
X15273227Y-12487694D02*
X15263703Y-12497218D01*
X15473227Y-12611504D02*
X15454179Y-12601980D01*
X15454179Y-12601980D02*
X15444655Y-12592456D01*
X15444655Y-12592456D02*
X15435131Y-12573408D01*
X15435131Y-12573408D02*
X15435131Y-12516266D01*
X15435131Y-12516266D02*
X15444655Y-12497218D01*
X15444655Y-12497218D02*
X15454179Y-12487694D01*
X15454179Y-12487694D02*
X15473227Y-12478170D01*
X15473227Y-12478170D02*
X15501798Y-12478170D01*
X15501798Y-12478170D02*
X15520846Y-12487694D01*
X15520846Y-12487694D02*
X15530370Y-12497218D01*
X15530370Y-12497218D02*
X15539893Y-12516266D01*
X15539893Y-12516266D02*
X15539893Y-12573408D01*
X15539893Y-12573408D02*
X15530370Y-12592456D01*
X15530370Y-12592456D02*
X15520846Y-12601980D01*
X15520846Y-12601980D02*
X15501798Y-12611504D01*
X15501798Y-12611504D02*
X15473227Y-12611504D01*
X15654179Y-12611504D02*
X15635131Y-12601980D01*
X15635131Y-12601980D02*
X15625608Y-12582932D01*
X15625608Y-12582932D02*
X15625608Y-12411504D01*
X15806560Y-12601980D02*
X15787512Y-12611504D01*
X15787512Y-12611504D02*
X15749417Y-12611504D01*
X15749417Y-12611504D02*
X15730370Y-12601980D01*
X15730370Y-12601980D02*
X15720846Y-12582932D01*
X15720846Y-12582932D02*
X15720846Y-12506742D01*
X15720846Y-12506742D02*
X15730370Y-12487694D01*
X15730370Y-12487694D02*
X15749417Y-12478170D01*
X15749417Y-12478170D02*
X15787512Y-12478170D01*
X15787512Y-12478170D02*
X15806560Y-12487694D01*
X15806560Y-12487694D02*
X15816084Y-12506742D01*
X15816084Y-12506742D02*
X15816084Y-12525789D01*
X15816084Y-12525789D02*
X15720846Y-12544837D01*
X15892274Y-12601980D02*
X15911322Y-12611504D01*
X15911322Y-12611504D02*
X15949417Y-12611504D01*
X15949417Y-12611504D02*
X15968465Y-12601980D01*
X15968465Y-12601980D02*
X15977989Y-12582932D01*
X15977989Y-12582932D02*
X15977989Y-12573408D01*
X15977989Y-12573408D02*
X15968465Y-12554361D01*
X15968465Y-12554361D02*
X15949417Y-12544837D01*
X15949417Y-12544837D02*
X15920846Y-12544837D01*
X15920846Y-12544837D02*
X15901798Y-12535313D01*
X15901798Y-12535313D02*
X15892274Y-12516266D01*
X15892274Y-12516266D02*
X15892274Y-12506742D01*
X15892274Y-12506742D02*
X15901798Y-12487694D01*
X15901798Y-12487694D02*
X15920846Y-12478170D01*
X15920846Y-12478170D02*
X15949417Y-12478170D01*
X15949417Y-12478170D02*
X15968465Y-12487694D01*
X16044655Y-12687694D02*
X16054179Y-12678170D01*
X16054179Y-12678170D02*
X16073227Y-12649599D01*
X16073227Y-12649599D02*
X16082751Y-12630551D01*
X16082751Y-12630551D02*
X16092274Y-12601980D01*
X16092274Y-12601980D02*
X16101798Y-12554361D01*
X16101798Y-12554361D02*
X16101798Y-12516266D01*
X16101798Y-12516266D02*
X16092274Y-12468647D01*
X16092274Y-12468647D02*
X16082751Y-12440075D01*
X16082751Y-12440075D02*
X16073227Y-12421028D01*
X16073227Y-12421028D02*
X16054179Y-12392456D01*
X16054179Y-12392456D02*
X16044655Y-12382932D01*
D12*
X10888640Y-12784020D02*
G75*
G03*
X10888640Y-12784020I-50000J0D01*
G01*
D10*
X11254179Y-12875504D02*
X11139893Y-12875504D01*
X11197036Y-12875504D02*
X11197036Y-12675504D01*
X11197036Y-12675504D02*
X11177988Y-12704075D01*
X11177988Y-12704075D02*
X11158941Y-12723123D01*
X11158941Y-12723123D02*
X11139893Y-12732647D01*
X11339893Y-12856456D02*
X11349417Y-12865980D01*
X11349417Y-12865980D02*
X11339893Y-12875504D01*
X11339893Y-12875504D02*
X11330369Y-12865980D01*
X11330369Y-12865980D02*
X11339893Y-12856456D01*
X11339893Y-12856456D02*
X11339893Y-12875504D01*
X11473226Y-12675504D02*
X11492274Y-12675504D01*
X11492274Y-12675504D02*
X11511322Y-12685028D01*
X11511322Y-12685028D02*
X11520845Y-12694551D01*
X11520845Y-12694551D02*
X11530369Y-12713599D01*
X11530369Y-12713599D02*
X11539893Y-12751694D01*
X11539893Y-12751694D02*
X11539893Y-12799313D01*
X11539893Y-12799313D02*
X11530369Y-12837408D01*
X11530369Y-12837408D02*
X11520845Y-12856456D01*
X11520845Y-12856456D02*
X11511322Y-12865980D01*
X11511322Y-12865980D02*
X11492274Y-12875504D01*
X11492274Y-12875504D02*
X11473226Y-12875504D01*
X11473226Y-12875504D02*
X11454179Y-12865980D01*
X11454179Y-12865980D02*
X11444655Y-12856456D01*
X11444655Y-12856456D02*
X11435131Y-12837408D01*
X11435131Y-12837408D02*
X11425607Y-12799313D01*
X11425607Y-12799313D02*
X11425607Y-12751694D01*
X11425607Y-12751694D02*
X11435131Y-12713599D01*
X11435131Y-12713599D02*
X11444655Y-12694551D01*
X11444655Y-12694551D02*
X11454179Y-12685028D01*
X11454179Y-12685028D02*
X11473226Y-12675504D01*
X11663702Y-12675504D02*
X11682750Y-12675504D01*
X11682750Y-12675504D02*
X11701798Y-12685028D01*
X11701798Y-12685028D02*
X11711322Y-12694551D01*
X11711322Y-12694551D02*
X11720845Y-12713599D01*
X11720845Y-12713599D02*
X11730369Y-12751694D01*
X11730369Y-12751694D02*
X11730369Y-12799313D01*
X11730369Y-12799313D02*
X11720845Y-12837408D01*
X11720845Y-12837408D02*
X11711322Y-12856456D01*
X11711322Y-12856456D02*
X11701798Y-12865980D01*
X11701798Y-12865980D02*
X11682750Y-12875504D01*
X11682750Y-12875504D02*
X11663702Y-12875504D01*
X11663702Y-12875504D02*
X11644655Y-12865980D01*
X11644655Y-12865980D02*
X11635131Y-12856456D01*
X11635131Y-12856456D02*
X11625607Y-12837408D01*
X11625607Y-12837408D02*
X11616083Y-12799313D01*
X11616083Y-12799313D02*
X11616083Y-12751694D01*
X11616083Y-12751694D02*
X11625607Y-12713599D01*
X11625607Y-12713599D02*
X11635131Y-12694551D01*
X11635131Y-12694551D02*
X11644655Y-12685028D01*
X11644655Y-12685028D02*
X11663702Y-12675504D01*
X11854179Y-12675504D02*
X11873226Y-12675504D01*
X11873226Y-12675504D02*
X11892274Y-12685028D01*
X11892274Y-12685028D02*
X11901798Y-12694551D01*
X11901798Y-12694551D02*
X11911322Y-12713599D01*
X11911322Y-12713599D02*
X11920845Y-12751694D01*
X11920845Y-12751694D02*
X11920845Y-12799313D01*
X11920845Y-12799313D02*
X11911322Y-12837408D01*
X11911322Y-12837408D02*
X11901798Y-12856456D01*
X11901798Y-12856456D02*
X11892274Y-12865980D01*
X11892274Y-12865980D02*
X11873226Y-12875504D01*
X11873226Y-12875504D02*
X11854179Y-12875504D01*
X11854179Y-12875504D02*
X11835131Y-12865980D01*
X11835131Y-12865980D02*
X11825607Y-12856456D01*
X11825607Y-12856456D02*
X11816083Y-12837408D01*
X11816083Y-12837408D02*
X11806560Y-12799313D01*
X11806560Y-12799313D02*
X11806560Y-12751694D01*
X11806560Y-12751694D02*
X11816083Y-12713599D01*
X11816083Y-12713599D02*
X11825607Y-12694551D01*
X11825607Y-12694551D02*
X11835131Y-12685028D01*
X11835131Y-12685028D02*
X11854179Y-12675504D01*
X12006560Y-12875504D02*
X12006560Y-12742170D01*
X12006560Y-12761218D02*
X12016083Y-12751694D01*
X12016083Y-12751694D02*
X12035131Y-12742170D01*
X12035131Y-12742170D02*
X12063703Y-12742170D01*
X12063703Y-12742170D02*
X12082750Y-12751694D01*
X12082750Y-12751694D02*
X12092274Y-12770742D01*
X12092274Y-12770742D02*
X12092274Y-12875504D01*
X12092274Y-12770742D02*
X12101798Y-12751694D01*
X12101798Y-12751694D02*
X12120845Y-12742170D01*
X12120845Y-12742170D02*
X12149417Y-12742170D01*
X12149417Y-12742170D02*
X12168464Y-12751694D01*
X12168464Y-12751694D02*
X12177988Y-12770742D01*
X12177988Y-12770742D02*
X12177988Y-12875504D01*
X12273226Y-12875504D02*
X12273226Y-12742170D01*
X12273226Y-12761218D02*
X12282750Y-12751694D01*
X12282750Y-12751694D02*
X12301798Y-12742170D01*
X12301798Y-12742170D02*
X12330369Y-12742170D01*
X12330369Y-12742170D02*
X12349417Y-12751694D01*
X12349417Y-12751694D02*
X12358941Y-12770742D01*
X12358941Y-12770742D02*
X12358941Y-12875504D01*
X12358941Y-12770742D02*
X12368464Y-12751694D01*
X12368464Y-12751694D02*
X12387512Y-12742170D01*
X12387512Y-12742170D02*
X12416083Y-12742170D01*
X12416083Y-12742170D02*
X12435131Y-12751694D01*
X12435131Y-12751694D02*
X12444655Y-12770742D01*
X12444655Y-12770742D02*
X12444655Y-12875504D01*
X12835131Y-12665980D02*
X12663703Y-12923123D01*
X13092274Y-12675504D02*
X13111322Y-12675504D01*
X13111322Y-12675504D02*
X13130369Y-12685028D01*
X13130369Y-12685028D02*
X13139893Y-12694551D01*
X13139893Y-12694551D02*
X13149417Y-12713599D01*
X13149417Y-12713599D02*
X13158941Y-12751694D01*
X13158941Y-12751694D02*
X13158941Y-12799313D01*
X13158941Y-12799313D02*
X13149417Y-12837408D01*
X13149417Y-12837408D02*
X13139893Y-12856456D01*
X13139893Y-12856456D02*
X13130369Y-12865980D01*
X13130369Y-12865980D02*
X13111322Y-12875504D01*
X13111322Y-12875504D02*
X13092274Y-12875504D01*
X13092274Y-12875504D02*
X13073226Y-12865980D01*
X13073226Y-12865980D02*
X13063703Y-12856456D01*
X13063703Y-12856456D02*
X13054179Y-12837408D01*
X13054179Y-12837408D02*
X13044655Y-12799313D01*
X13044655Y-12799313D02*
X13044655Y-12751694D01*
X13044655Y-12751694D02*
X13054179Y-12713599D01*
X13054179Y-12713599D02*
X13063703Y-12694551D01*
X13063703Y-12694551D02*
X13073226Y-12685028D01*
X13073226Y-12685028D02*
X13092274Y-12675504D01*
X13244655Y-12856456D02*
X13254179Y-12865980D01*
X13254179Y-12865980D02*
X13244655Y-12875504D01*
X13244655Y-12875504D02*
X13235131Y-12865980D01*
X13235131Y-12865980D02*
X13244655Y-12856456D01*
X13244655Y-12856456D02*
X13244655Y-12875504D01*
X13377988Y-12675504D02*
X13397036Y-12675504D01*
X13397036Y-12675504D02*
X13416084Y-12685028D01*
X13416084Y-12685028D02*
X13425607Y-12694551D01*
X13425607Y-12694551D02*
X13435131Y-12713599D01*
X13435131Y-12713599D02*
X13444655Y-12751694D01*
X13444655Y-12751694D02*
X13444655Y-12799313D01*
X13444655Y-12799313D02*
X13435131Y-12837408D01*
X13435131Y-12837408D02*
X13425607Y-12856456D01*
X13425607Y-12856456D02*
X13416084Y-12865980D01*
X13416084Y-12865980D02*
X13397036Y-12875504D01*
X13397036Y-12875504D02*
X13377988Y-12875504D01*
X13377988Y-12875504D02*
X13358941Y-12865980D01*
X13358941Y-12865980D02*
X13349417Y-12856456D01*
X13349417Y-12856456D02*
X13339893Y-12837408D01*
X13339893Y-12837408D02*
X13330369Y-12799313D01*
X13330369Y-12799313D02*
X13330369Y-12751694D01*
X13330369Y-12751694D02*
X13339893Y-12713599D01*
X13339893Y-12713599D02*
X13349417Y-12694551D01*
X13349417Y-12694551D02*
X13358941Y-12685028D01*
X13358941Y-12685028D02*
X13377988Y-12675504D01*
X13511322Y-12675504D02*
X13635131Y-12675504D01*
X13635131Y-12675504D02*
X13568465Y-12751694D01*
X13568465Y-12751694D02*
X13597036Y-12751694D01*
X13597036Y-12751694D02*
X13616084Y-12761218D01*
X13616084Y-12761218D02*
X13625607Y-12770742D01*
X13625607Y-12770742D02*
X13635131Y-12789789D01*
X13635131Y-12789789D02*
X13635131Y-12837408D01*
X13635131Y-12837408D02*
X13625607Y-12856456D01*
X13625607Y-12856456D02*
X13616084Y-12865980D01*
X13616084Y-12865980D02*
X13597036Y-12875504D01*
X13597036Y-12875504D02*
X13539893Y-12875504D01*
X13539893Y-12875504D02*
X13520846Y-12865980D01*
X13520846Y-12865980D02*
X13511322Y-12856456D01*
X13730369Y-12875504D02*
X13768465Y-12875504D01*
X13768465Y-12875504D02*
X13787512Y-12865980D01*
X13787512Y-12865980D02*
X13797036Y-12856456D01*
X13797036Y-12856456D02*
X13816084Y-12827885D01*
X13816084Y-12827885D02*
X13825607Y-12789789D01*
X13825607Y-12789789D02*
X13825607Y-12713599D01*
X13825607Y-12713599D02*
X13816084Y-12694551D01*
X13816084Y-12694551D02*
X13806560Y-12685028D01*
X13806560Y-12685028D02*
X13787512Y-12675504D01*
X13787512Y-12675504D02*
X13749417Y-12675504D01*
X13749417Y-12675504D02*
X13730369Y-12685028D01*
X13730369Y-12685028D02*
X13720846Y-12694551D01*
X13720846Y-12694551D02*
X13711322Y-12713599D01*
X13711322Y-12713599D02*
X13711322Y-12761218D01*
X13711322Y-12761218D02*
X13720846Y-12780266D01*
X13720846Y-12780266D02*
X13730369Y-12789789D01*
X13730369Y-12789789D02*
X13749417Y-12799313D01*
X13749417Y-12799313D02*
X13787512Y-12799313D01*
X13787512Y-12799313D02*
X13806560Y-12789789D01*
X13806560Y-12789789D02*
X13816084Y-12780266D01*
X13816084Y-12780266D02*
X13825607Y-12761218D01*
X13997036Y-12742170D02*
X13997036Y-12875504D01*
X13949417Y-12665980D02*
X13901798Y-12808837D01*
X13901798Y-12808837D02*
X14025607Y-12808837D01*
X14092274Y-12675504D02*
X14092274Y-12713599D01*
X14168465Y-12675504D02*
X14168465Y-12713599D01*
X14463703Y-12951694D02*
X14454179Y-12942170D01*
X14454179Y-12942170D02*
X14435131Y-12913599D01*
X14435131Y-12913599D02*
X14425608Y-12894551D01*
X14425608Y-12894551D02*
X14416084Y-12865980D01*
X14416084Y-12865980D02*
X14406560Y-12818361D01*
X14406560Y-12818361D02*
X14406560Y-12780266D01*
X14406560Y-12780266D02*
X14416084Y-12732647D01*
X14416084Y-12732647D02*
X14425608Y-12704075D01*
X14425608Y-12704075D02*
X14435131Y-12685028D01*
X14435131Y-12685028D02*
X14454179Y-12656456D01*
X14454179Y-12656456D02*
X14463703Y-12646932D01*
X14625608Y-12675504D02*
X14587512Y-12675504D01*
X14587512Y-12675504D02*
X14568465Y-12685028D01*
X14568465Y-12685028D02*
X14558941Y-12694551D01*
X14558941Y-12694551D02*
X14539893Y-12723123D01*
X14539893Y-12723123D02*
X14530369Y-12761218D01*
X14530369Y-12761218D02*
X14530369Y-12837408D01*
X14530369Y-12837408D02*
X14539893Y-12856456D01*
X14539893Y-12856456D02*
X14549417Y-12865980D01*
X14549417Y-12865980D02*
X14568465Y-12875504D01*
X14568465Y-12875504D02*
X14606560Y-12875504D01*
X14606560Y-12875504D02*
X14625608Y-12865980D01*
X14625608Y-12865980D02*
X14635131Y-12856456D01*
X14635131Y-12856456D02*
X14644655Y-12837408D01*
X14644655Y-12837408D02*
X14644655Y-12789789D01*
X14644655Y-12789789D02*
X14635131Y-12770742D01*
X14635131Y-12770742D02*
X14625608Y-12761218D01*
X14625608Y-12761218D02*
X14606560Y-12751694D01*
X14606560Y-12751694D02*
X14568465Y-12751694D01*
X14568465Y-12751694D02*
X14549417Y-12761218D01*
X14549417Y-12761218D02*
X14539893Y-12770742D01*
X14539893Y-12770742D02*
X14530369Y-12789789D01*
X14758941Y-12761218D02*
X14739893Y-12751694D01*
X14739893Y-12751694D02*
X14730369Y-12742170D01*
X14730369Y-12742170D02*
X14720846Y-12723123D01*
X14720846Y-12723123D02*
X14720846Y-12713599D01*
X14720846Y-12713599D02*
X14730369Y-12694551D01*
X14730369Y-12694551D02*
X14739893Y-12685028D01*
X14739893Y-12685028D02*
X14758941Y-12675504D01*
X14758941Y-12675504D02*
X14797036Y-12675504D01*
X14797036Y-12675504D02*
X14816084Y-12685028D01*
X14816084Y-12685028D02*
X14825608Y-12694551D01*
X14825608Y-12694551D02*
X14835131Y-12713599D01*
X14835131Y-12713599D02*
X14835131Y-12723123D01*
X14835131Y-12723123D02*
X14825608Y-12742170D01*
X14825608Y-12742170D02*
X14816084Y-12751694D01*
X14816084Y-12751694D02*
X14797036Y-12761218D01*
X14797036Y-12761218D02*
X14758941Y-12761218D01*
X14758941Y-12761218D02*
X14739893Y-12770742D01*
X14739893Y-12770742D02*
X14730369Y-12780266D01*
X14730369Y-12780266D02*
X14720846Y-12799313D01*
X14720846Y-12799313D02*
X14720846Y-12837408D01*
X14720846Y-12837408D02*
X14730369Y-12856456D01*
X14730369Y-12856456D02*
X14739893Y-12865980D01*
X14739893Y-12865980D02*
X14758941Y-12875504D01*
X14758941Y-12875504D02*
X14797036Y-12875504D01*
X14797036Y-12875504D02*
X14816084Y-12865980D01*
X14816084Y-12865980D02*
X14825608Y-12856456D01*
X14825608Y-12856456D02*
X14835131Y-12837408D01*
X14835131Y-12837408D02*
X14835131Y-12799313D01*
X14835131Y-12799313D02*
X14825608Y-12780266D01*
X14825608Y-12780266D02*
X14816084Y-12770742D01*
X14816084Y-12770742D02*
X14797036Y-12761218D01*
X15073227Y-12875504D02*
X15073227Y-12675504D01*
X15158941Y-12875504D02*
X15158941Y-12770742D01*
X15158941Y-12770742D02*
X15149417Y-12751694D01*
X15149417Y-12751694D02*
X15130370Y-12742170D01*
X15130370Y-12742170D02*
X15101798Y-12742170D01*
X15101798Y-12742170D02*
X15082750Y-12751694D01*
X15082750Y-12751694D02*
X15073227Y-12761218D01*
X15282750Y-12875504D02*
X15263703Y-12865980D01*
X15263703Y-12865980D02*
X15254179Y-12856456D01*
X15254179Y-12856456D02*
X15244655Y-12837408D01*
X15244655Y-12837408D02*
X15244655Y-12780266D01*
X15244655Y-12780266D02*
X15254179Y-12761218D01*
X15254179Y-12761218D02*
X15263703Y-12751694D01*
X15263703Y-12751694D02*
X15282750Y-12742170D01*
X15282750Y-12742170D02*
X15311322Y-12742170D01*
X15311322Y-12742170D02*
X15330370Y-12751694D01*
X15330370Y-12751694D02*
X15339893Y-12761218D01*
X15339893Y-12761218D02*
X15349417Y-12780266D01*
X15349417Y-12780266D02*
X15349417Y-12837408D01*
X15349417Y-12837408D02*
X15339893Y-12856456D01*
X15339893Y-12856456D02*
X15330370Y-12865980D01*
X15330370Y-12865980D02*
X15311322Y-12875504D01*
X15311322Y-12875504D02*
X15282750Y-12875504D01*
X15463703Y-12875504D02*
X15444655Y-12865980D01*
X15444655Y-12865980D02*
X15435131Y-12846932D01*
X15435131Y-12846932D02*
X15435131Y-12675504D01*
X15616084Y-12865980D02*
X15597036Y-12875504D01*
X15597036Y-12875504D02*
X15558941Y-12875504D01*
X15558941Y-12875504D02*
X15539893Y-12865980D01*
X15539893Y-12865980D02*
X15530370Y-12846932D01*
X15530370Y-12846932D02*
X15530370Y-12770742D01*
X15530370Y-12770742D02*
X15539893Y-12751694D01*
X15539893Y-12751694D02*
X15558941Y-12742170D01*
X15558941Y-12742170D02*
X15597036Y-12742170D01*
X15597036Y-12742170D02*
X15616084Y-12751694D01*
X15616084Y-12751694D02*
X15625608Y-12770742D01*
X15625608Y-12770742D02*
X15625608Y-12789789D01*
X15625608Y-12789789D02*
X15530370Y-12808837D01*
X15701798Y-12865980D02*
X15720846Y-12875504D01*
X15720846Y-12875504D02*
X15758941Y-12875504D01*
X15758941Y-12875504D02*
X15777989Y-12865980D01*
X15777989Y-12865980D02*
X15787512Y-12846932D01*
X15787512Y-12846932D02*
X15787512Y-12837408D01*
X15787512Y-12837408D02*
X15777989Y-12818361D01*
X15777989Y-12818361D02*
X15758941Y-12808837D01*
X15758941Y-12808837D02*
X15730370Y-12808837D01*
X15730370Y-12808837D02*
X15711322Y-12799313D01*
X15711322Y-12799313D02*
X15701798Y-12780266D01*
X15701798Y-12780266D02*
X15701798Y-12770742D01*
X15701798Y-12770742D02*
X15711322Y-12751694D01*
X15711322Y-12751694D02*
X15730370Y-12742170D01*
X15730370Y-12742170D02*
X15758941Y-12742170D01*
X15758941Y-12742170D02*
X15777989Y-12751694D01*
X15854179Y-12951694D02*
X15863703Y-12942170D01*
X15863703Y-12942170D02*
X15882751Y-12913599D01*
X15882751Y-12913599D02*
X15892274Y-12894551D01*
X15892274Y-12894551D02*
X15901798Y-12865980D01*
X15901798Y-12865980D02*
X15911322Y-12818361D01*
X15911322Y-12818361D02*
X15911322Y-12780266D01*
X15911322Y-12780266D02*
X15901798Y-12732647D01*
X15901798Y-12732647D02*
X15892274Y-12704075D01*
X15892274Y-12704075D02*
X15882751Y-12685028D01*
X15882751Y-12685028D02*
X15863703Y-12656456D01*
X15863703Y-12656456D02*
X15854179Y-12646932D01*
X10788640Y-12948020D02*
X10788640Y-13148020D01*
X10688640Y-13048020D02*
X10888640Y-13048020D01*
X11177988Y-13025218D02*
X11158941Y-13015694D01*
X11158941Y-13015694D02*
X11149417Y-13006170D01*
X11149417Y-13006170D02*
X11139893Y-12987123D01*
X11139893Y-12987123D02*
X11139893Y-12977599D01*
X11139893Y-12977599D02*
X11149417Y-12958551D01*
X11149417Y-12958551D02*
X11158941Y-12949028D01*
X11158941Y-12949028D02*
X11177988Y-12939504D01*
X11177988Y-12939504D02*
X11216083Y-12939504D01*
X11216083Y-12939504D02*
X11235131Y-12949028D01*
X11235131Y-12949028D02*
X11244655Y-12958551D01*
X11244655Y-12958551D02*
X11254179Y-12977599D01*
X11254179Y-12977599D02*
X11254179Y-12987123D01*
X11254179Y-12987123D02*
X11244655Y-13006170D01*
X11244655Y-13006170D02*
X11235131Y-13015694D01*
X11235131Y-13015694D02*
X11216083Y-13025218D01*
X11216083Y-13025218D02*
X11177988Y-13025218D01*
X11177988Y-13025218D02*
X11158941Y-13034742D01*
X11158941Y-13034742D02*
X11149417Y-13044266D01*
X11149417Y-13044266D02*
X11139893Y-13063313D01*
X11139893Y-13063313D02*
X11139893Y-13101408D01*
X11139893Y-13101408D02*
X11149417Y-13120456D01*
X11149417Y-13120456D02*
X11158941Y-13129980D01*
X11158941Y-13129980D02*
X11177988Y-13139504D01*
X11177988Y-13139504D02*
X11216083Y-13139504D01*
X11216083Y-13139504D02*
X11235131Y-13129980D01*
X11235131Y-13129980D02*
X11244655Y-13120456D01*
X11244655Y-13120456D02*
X11254179Y-13101408D01*
X11254179Y-13101408D02*
X11254179Y-13063313D01*
X11254179Y-13063313D02*
X11244655Y-13044266D01*
X11244655Y-13044266D02*
X11235131Y-13034742D01*
X11235131Y-13034742D02*
X11216083Y-13025218D01*
X11339893Y-13120456D02*
X11349417Y-13129980D01*
X11349417Y-13129980D02*
X11339893Y-13139504D01*
X11339893Y-13139504D02*
X11330369Y-13129980D01*
X11330369Y-13129980D02*
X11339893Y-13120456D01*
X11339893Y-13120456D02*
X11339893Y-13139504D01*
X11520845Y-13006170D02*
X11520845Y-13139504D01*
X11473226Y-12929980D02*
X11425607Y-13072837D01*
X11425607Y-13072837D02*
X11549417Y-13072837D01*
X11663702Y-12939504D02*
X11682750Y-12939504D01*
X11682750Y-12939504D02*
X11701798Y-12949028D01*
X11701798Y-12949028D02*
X11711322Y-12958551D01*
X11711322Y-12958551D02*
X11720845Y-12977599D01*
X11720845Y-12977599D02*
X11730369Y-13015694D01*
X11730369Y-13015694D02*
X11730369Y-13063313D01*
X11730369Y-13063313D02*
X11720845Y-13101408D01*
X11720845Y-13101408D02*
X11711322Y-13120456D01*
X11711322Y-13120456D02*
X11701798Y-13129980D01*
X11701798Y-13129980D02*
X11682750Y-13139504D01*
X11682750Y-13139504D02*
X11663702Y-13139504D01*
X11663702Y-13139504D02*
X11644655Y-13129980D01*
X11644655Y-13129980D02*
X11635131Y-13120456D01*
X11635131Y-13120456D02*
X11625607Y-13101408D01*
X11625607Y-13101408D02*
X11616083Y-13063313D01*
X11616083Y-13063313D02*
X11616083Y-13015694D01*
X11616083Y-13015694D02*
X11625607Y-12977599D01*
X11625607Y-12977599D02*
X11635131Y-12958551D01*
X11635131Y-12958551D02*
X11644655Y-12949028D01*
X11644655Y-12949028D02*
X11663702Y-12939504D01*
X11854179Y-12939504D02*
X11873226Y-12939504D01*
X11873226Y-12939504D02*
X11892274Y-12949028D01*
X11892274Y-12949028D02*
X11901798Y-12958551D01*
X11901798Y-12958551D02*
X11911322Y-12977599D01*
X11911322Y-12977599D02*
X11920845Y-13015694D01*
X11920845Y-13015694D02*
X11920845Y-13063313D01*
X11920845Y-13063313D02*
X11911322Y-13101408D01*
X11911322Y-13101408D02*
X11901798Y-13120456D01*
X11901798Y-13120456D02*
X11892274Y-13129980D01*
X11892274Y-13129980D02*
X11873226Y-13139504D01*
X11873226Y-13139504D02*
X11854179Y-13139504D01*
X11854179Y-13139504D02*
X11835131Y-13129980D01*
X11835131Y-13129980D02*
X11825607Y-13120456D01*
X11825607Y-13120456D02*
X11816083Y-13101408D01*
X11816083Y-13101408D02*
X11806560Y-13063313D01*
X11806560Y-13063313D02*
X11806560Y-13015694D01*
X11806560Y-13015694D02*
X11816083Y-12977599D01*
X11816083Y-12977599D02*
X11825607Y-12958551D01*
X11825607Y-12958551D02*
X11835131Y-12949028D01*
X11835131Y-12949028D02*
X11854179Y-12939504D01*
X12006560Y-13139504D02*
X12006560Y-13006170D01*
X12006560Y-13025218D02*
X12016083Y-13015694D01*
X12016083Y-13015694D02*
X12035131Y-13006170D01*
X12035131Y-13006170D02*
X12063703Y-13006170D01*
X12063703Y-13006170D02*
X12082750Y-13015694D01*
X12082750Y-13015694D02*
X12092274Y-13034742D01*
X12092274Y-13034742D02*
X12092274Y-13139504D01*
X12092274Y-13034742D02*
X12101798Y-13015694D01*
X12101798Y-13015694D02*
X12120845Y-13006170D01*
X12120845Y-13006170D02*
X12149417Y-13006170D01*
X12149417Y-13006170D02*
X12168464Y-13015694D01*
X12168464Y-13015694D02*
X12177988Y-13034742D01*
X12177988Y-13034742D02*
X12177988Y-13139504D01*
X12273226Y-13139504D02*
X12273226Y-13006170D01*
X12273226Y-13025218D02*
X12282750Y-13015694D01*
X12282750Y-13015694D02*
X12301798Y-13006170D01*
X12301798Y-13006170D02*
X12330369Y-13006170D01*
X12330369Y-13006170D02*
X12349417Y-13015694D01*
X12349417Y-13015694D02*
X12358941Y-13034742D01*
X12358941Y-13034742D02*
X12358941Y-13139504D01*
X12358941Y-13034742D02*
X12368464Y-13015694D01*
X12368464Y-13015694D02*
X12387512Y-13006170D01*
X12387512Y-13006170D02*
X12416083Y-13006170D01*
X12416083Y-13006170D02*
X12435131Y-13015694D01*
X12435131Y-13015694D02*
X12444655Y-13034742D01*
X12444655Y-13034742D02*
X12444655Y-13139504D01*
X12835131Y-12929980D02*
X12663703Y-13187123D01*
X13092274Y-12939504D02*
X13111322Y-12939504D01*
X13111322Y-12939504D02*
X13130369Y-12949028D01*
X13130369Y-12949028D02*
X13139893Y-12958551D01*
X13139893Y-12958551D02*
X13149417Y-12977599D01*
X13149417Y-12977599D02*
X13158941Y-13015694D01*
X13158941Y-13015694D02*
X13158941Y-13063313D01*
X13158941Y-13063313D02*
X13149417Y-13101408D01*
X13149417Y-13101408D02*
X13139893Y-13120456D01*
X13139893Y-13120456D02*
X13130369Y-13129980D01*
X13130369Y-13129980D02*
X13111322Y-13139504D01*
X13111322Y-13139504D02*
X13092274Y-13139504D01*
X13092274Y-13139504D02*
X13073226Y-13129980D01*
X13073226Y-13129980D02*
X13063703Y-13120456D01*
X13063703Y-13120456D02*
X13054179Y-13101408D01*
X13054179Y-13101408D02*
X13044655Y-13063313D01*
X13044655Y-13063313D02*
X13044655Y-13015694D01*
X13044655Y-13015694D02*
X13054179Y-12977599D01*
X13054179Y-12977599D02*
X13063703Y-12958551D01*
X13063703Y-12958551D02*
X13073226Y-12949028D01*
X13073226Y-12949028D02*
X13092274Y-12939504D01*
X13244655Y-13120456D02*
X13254179Y-13129980D01*
X13254179Y-13129980D02*
X13244655Y-13139504D01*
X13244655Y-13139504D02*
X13235131Y-13129980D01*
X13235131Y-13129980D02*
X13244655Y-13120456D01*
X13244655Y-13120456D02*
X13244655Y-13139504D01*
X13320846Y-12939504D02*
X13444655Y-12939504D01*
X13444655Y-12939504D02*
X13377988Y-13015694D01*
X13377988Y-13015694D02*
X13406560Y-13015694D01*
X13406560Y-13015694D02*
X13425607Y-13025218D01*
X13425607Y-13025218D02*
X13435131Y-13034742D01*
X13435131Y-13034742D02*
X13444655Y-13053789D01*
X13444655Y-13053789D02*
X13444655Y-13101408D01*
X13444655Y-13101408D02*
X13435131Y-13120456D01*
X13435131Y-13120456D02*
X13425607Y-13129980D01*
X13425607Y-13129980D02*
X13406560Y-13139504D01*
X13406560Y-13139504D02*
X13349417Y-13139504D01*
X13349417Y-13139504D02*
X13330369Y-13129980D01*
X13330369Y-13129980D02*
X13320846Y-13120456D01*
X13511322Y-12939504D02*
X13635131Y-12939504D01*
X13635131Y-12939504D02*
X13568465Y-13015694D01*
X13568465Y-13015694D02*
X13597036Y-13015694D01*
X13597036Y-13015694D02*
X13616084Y-13025218D01*
X13616084Y-13025218D02*
X13625607Y-13034742D01*
X13625607Y-13034742D02*
X13635131Y-13053789D01*
X13635131Y-13053789D02*
X13635131Y-13101408D01*
X13635131Y-13101408D02*
X13625607Y-13120456D01*
X13625607Y-13120456D02*
X13616084Y-13129980D01*
X13616084Y-13129980D02*
X13597036Y-13139504D01*
X13597036Y-13139504D02*
X13539893Y-13139504D01*
X13539893Y-13139504D02*
X13520846Y-13129980D01*
X13520846Y-13129980D02*
X13511322Y-13120456D01*
X13758941Y-12939504D02*
X13777988Y-12939504D01*
X13777988Y-12939504D02*
X13797036Y-12949028D01*
X13797036Y-12949028D02*
X13806560Y-12958551D01*
X13806560Y-12958551D02*
X13816084Y-12977599D01*
X13816084Y-12977599D02*
X13825607Y-13015694D01*
X13825607Y-13015694D02*
X13825607Y-13063313D01*
X13825607Y-13063313D02*
X13816084Y-13101408D01*
X13816084Y-13101408D02*
X13806560Y-13120456D01*
X13806560Y-13120456D02*
X13797036Y-13129980D01*
X13797036Y-13129980D02*
X13777988Y-13139504D01*
X13777988Y-13139504D02*
X13758941Y-13139504D01*
X13758941Y-13139504D02*
X13739893Y-13129980D01*
X13739893Y-13129980D02*
X13730369Y-13120456D01*
X13730369Y-13120456D02*
X13720846Y-13101408D01*
X13720846Y-13101408D02*
X13711322Y-13063313D01*
X13711322Y-13063313D02*
X13711322Y-13015694D01*
X13711322Y-13015694D02*
X13720846Y-12977599D01*
X13720846Y-12977599D02*
X13730369Y-12958551D01*
X13730369Y-12958551D02*
X13739893Y-12949028D01*
X13739893Y-12949028D02*
X13758941Y-12939504D01*
X13892274Y-12939504D02*
X14025607Y-12939504D01*
X14025607Y-12939504D02*
X13939893Y-13139504D01*
X14092274Y-12939504D02*
X14092274Y-12977599D01*
X14168465Y-12939504D02*
X14168465Y-12977599D01*
X14463703Y-13215694D02*
X14454179Y-13206170D01*
X14454179Y-13206170D02*
X14435131Y-13177599D01*
X14435131Y-13177599D02*
X14425608Y-13158551D01*
X14425608Y-13158551D02*
X14416084Y-13129980D01*
X14416084Y-13129980D02*
X14406560Y-13082361D01*
X14406560Y-13082361D02*
X14406560Y-13044266D01*
X14406560Y-13044266D02*
X14416084Y-12996647D01*
X14416084Y-12996647D02*
X14425608Y-12968075D01*
X14425608Y-12968075D02*
X14435131Y-12949028D01*
X14435131Y-12949028D02*
X14454179Y-12920456D01*
X14454179Y-12920456D02*
X14463703Y-12910932D01*
X14625608Y-13006170D02*
X14625608Y-13139504D01*
X14577988Y-12929980D02*
X14530369Y-13072837D01*
X14530369Y-13072837D02*
X14654179Y-13072837D01*
X14882750Y-13139504D02*
X14882750Y-12939504D01*
X14968465Y-13139504D02*
X14968465Y-13034742D01*
X14968465Y-13034742D02*
X14958941Y-13015694D01*
X14958941Y-13015694D02*
X14939893Y-13006170D01*
X14939893Y-13006170D02*
X14911322Y-13006170D01*
X14911322Y-13006170D02*
X14892274Y-13015694D01*
X14892274Y-13015694D02*
X14882750Y-13025218D01*
X15092274Y-13139504D02*
X15073227Y-13129980D01*
X15073227Y-13129980D02*
X15063703Y-13120456D01*
X15063703Y-13120456D02*
X15054179Y-13101408D01*
X15054179Y-13101408D02*
X15054179Y-13044266D01*
X15054179Y-13044266D02*
X15063703Y-13025218D01*
X15063703Y-13025218D02*
X15073227Y-13015694D01*
X15073227Y-13015694D02*
X15092274Y-13006170D01*
X15092274Y-13006170D02*
X15120846Y-13006170D01*
X15120846Y-13006170D02*
X15139893Y-13015694D01*
X15139893Y-13015694D02*
X15149417Y-13025218D01*
X15149417Y-13025218D02*
X15158941Y-13044266D01*
X15158941Y-13044266D02*
X15158941Y-13101408D01*
X15158941Y-13101408D02*
X15149417Y-13120456D01*
X15149417Y-13120456D02*
X15139893Y-13129980D01*
X15139893Y-13129980D02*
X15120846Y-13139504D01*
X15120846Y-13139504D02*
X15092274Y-13139504D01*
X15273227Y-13139504D02*
X15254179Y-13129980D01*
X15254179Y-13129980D02*
X15244655Y-13110932D01*
X15244655Y-13110932D02*
X15244655Y-12939504D01*
X15425608Y-13129980D02*
X15406560Y-13139504D01*
X15406560Y-13139504D02*
X15368465Y-13139504D01*
X15368465Y-13139504D02*
X15349417Y-13129980D01*
X15349417Y-13129980D02*
X15339893Y-13110932D01*
X15339893Y-13110932D02*
X15339893Y-13034742D01*
X15339893Y-13034742D02*
X15349417Y-13015694D01*
X15349417Y-13015694D02*
X15368465Y-13006170D01*
X15368465Y-13006170D02*
X15406560Y-13006170D01*
X15406560Y-13006170D02*
X15425608Y-13015694D01*
X15425608Y-13015694D02*
X15435131Y-13034742D01*
X15435131Y-13034742D02*
X15435131Y-13053789D01*
X15435131Y-13053789D02*
X15339893Y-13072837D01*
X15511322Y-13129980D02*
X15530370Y-13139504D01*
X15530370Y-13139504D02*
X15568465Y-13139504D01*
X15568465Y-13139504D02*
X15587512Y-13129980D01*
X15587512Y-13129980D02*
X15597036Y-13110932D01*
X15597036Y-13110932D02*
X15597036Y-13101408D01*
X15597036Y-13101408D02*
X15587512Y-13082361D01*
X15587512Y-13082361D02*
X15568465Y-13072837D01*
X15568465Y-13072837D02*
X15539893Y-13072837D01*
X15539893Y-13072837D02*
X15520846Y-13063313D01*
X15520846Y-13063313D02*
X15511322Y-13044266D01*
X15511322Y-13044266D02*
X15511322Y-13034742D01*
X15511322Y-13034742D02*
X15520846Y-13015694D01*
X15520846Y-13015694D02*
X15539893Y-13006170D01*
X15539893Y-13006170D02*
X15568465Y-13006170D01*
X15568465Y-13006170D02*
X15587512Y-13015694D01*
X15663703Y-13215694D02*
X15673227Y-13206170D01*
X15673227Y-13206170D02*
X15692274Y-13177599D01*
X15692274Y-13177599D02*
X15701798Y-13158551D01*
X15701798Y-13158551D02*
X15711322Y-13129980D01*
X15711322Y-13129980D02*
X15720846Y-13082361D01*
X15720846Y-13082361D02*
X15720846Y-13044266D01*
X15720846Y-13044266D02*
X15711322Y-12996647D01*
X15711322Y-12996647D02*
X15701798Y-12968075D01*
X15701798Y-12968075D02*
X15692274Y-12949028D01*
X15692274Y-12949028D02*
X15673227Y-12920456D01*
X15673227Y-12920456D02*
X15663703Y-12910932D01*
M02*
