%TF.GenerationSoftware,KiCad,Pcbnew,7.0.7*%
%TF.CreationDate,2024-02-10T00:47:22+05:30*%
%TF.ProjectId,MC_stack,4d435f73-7461-4636-9b2e-6b696361645f,rev?*%
%TF.SameCoordinates,Original*%
%TF.FileFunction,Copper,L1,Top*%
%TF.FilePolarity,Positive*%
%FSLAX46Y46*%
G04 Gerber Fmt 4.6, Leading zero omitted, Abs format (unit mm)*
G04 Created by KiCad (PCBNEW 7.0.7) date 2024-02-10 00:47:22*
%MOMM*%
%LPD*%
G01*
G04 APERTURE LIST*
G04 Aperture macros list*
%AMRoundRect*
0 Rectangle with rounded corners*
0 $1 Rounding radius*
0 $2 $3 $4 $5 $6 $7 $8 $9 X,Y pos of 4 corners*
0 Add a 4 corners polygon primitive as box body*
4,1,4,$2,$3,$4,$5,$6,$7,$8,$9,$2,$3,0*
0 Add four circle primitives for the rounded corners*
1,1,$1+$1,$2,$3*
1,1,$1+$1,$4,$5*
1,1,$1+$1,$6,$7*
1,1,$1+$1,$8,$9*
0 Add four rect primitives between the rounded corners*
20,1,$1+$1,$2,$3,$4,$5,0*
20,1,$1+$1,$4,$5,$6,$7,0*
20,1,$1+$1,$6,$7,$8,$9,0*
20,1,$1+$1,$8,$9,$2,$3,0*%
G04 Aperture macros list end*
%TA.AperFunction,SMDPad,CuDef*%
%ADD10RoundRect,0.250000X-0.262500X-0.450000X0.262500X-0.450000X0.262500X0.450000X-0.262500X0.450000X0*%
%TD*%
%TA.AperFunction,SMDPad,CuDef*%
%ADD11RoundRect,0.250000X-0.475000X0.250000X-0.475000X-0.250000X0.475000X-0.250000X0.475000X0.250000X0*%
%TD*%
%TA.AperFunction,SMDPad,CuDef*%
%ADD12R,1.400000X1.200000*%
%TD*%
%TA.AperFunction,SMDPad,CuDef*%
%ADD13RoundRect,0.250000X0.262500X0.450000X-0.262500X0.450000X-0.262500X-0.450000X0.262500X-0.450000X0*%
%TD*%
%TA.AperFunction,ComponentPad*%
%ADD14R,1.700000X1.700000*%
%TD*%
%TA.AperFunction,ComponentPad*%
%ADD15O,1.700000X1.700000*%
%TD*%
%TA.AperFunction,SMDPad,CuDef*%
%ADD16R,2.000000X1.500000*%
%TD*%
%TA.AperFunction,SMDPad,CuDef*%
%ADD17R,2.000000X3.800000*%
%TD*%
%TA.AperFunction,SMDPad,CuDef*%
%ADD18RoundRect,0.250000X-0.250000X-0.475000X0.250000X-0.475000X0.250000X0.475000X-0.250000X0.475000X0*%
%TD*%
%TA.AperFunction,SMDPad,CuDef*%
%ADD19RoundRect,0.250000X0.450000X-0.262500X0.450000X0.262500X-0.450000X0.262500X-0.450000X-0.262500X0*%
%TD*%
%TA.AperFunction,SMDPad,CuDef*%
%ADD20R,2.000000X2.000000*%
%TD*%
%TA.AperFunction,SMDPad,CuDef*%
%ADD21RoundRect,0.243750X0.243750X0.456250X-0.243750X0.456250X-0.243750X-0.456250X0.243750X-0.456250X0*%
%TD*%
%TA.AperFunction,SMDPad,CuDef*%
%ADD22RoundRect,0.250000X0.475000X-0.250000X0.475000X0.250000X-0.475000X0.250000X-0.475000X-0.250000X0*%
%TD*%
%TA.AperFunction,SMDPad,CuDef*%
%ADD23RoundRect,0.250000X0.250000X0.475000X-0.250000X0.475000X-0.250000X-0.475000X0.250000X-0.475000X0*%
%TD*%
%TA.AperFunction,SMDPad,CuDef*%
%ADD24R,0.850000X1.100000*%
%TD*%
%TA.AperFunction,SMDPad,CuDef*%
%ADD25R,0.750000X1.100000*%
%TD*%
%TA.AperFunction,SMDPad,CuDef*%
%ADD26R,1.200000X1.000000*%
%TD*%
%TA.AperFunction,SMDPad,CuDef*%
%ADD27R,1.550000X1.350000*%
%TD*%
%TA.AperFunction,SMDPad,CuDef*%
%ADD28R,1.900000X1.350000*%
%TD*%
%TA.AperFunction,SMDPad,CuDef*%
%ADD29R,1.170000X1.800000*%
%TD*%
%TA.AperFunction,SMDPad,CuDef*%
%ADD30RoundRect,0.062500X-0.375000X-0.062500X0.375000X-0.062500X0.375000X0.062500X-0.375000X0.062500X0*%
%TD*%
%TA.AperFunction,SMDPad,CuDef*%
%ADD31RoundRect,0.062500X-0.062500X-0.375000X0.062500X-0.375000X0.062500X0.375000X-0.062500X0.375000X0*%
%TD*%
%TA.AperFunction,SMDPad,CuDef*%
%ADD32R,5.600000X5.600000*%
%TD*%
%TA.AperFunction,SMDPad,CuDef*%
%ADD33RoundRect,0.243750X-0.243750X-0.456250X0.243750X-0.456250X0.243750X0.456250X-0.243750X0.456250X0*%
%TD*%
%TA.AperFunction,SMDPad,CuDef*%
%ADD34RoundRect,0.200000X-0.200000X-0.800000X0.200000X-0.800000X0.200000X0.800000X-0.200000X0.800000X0*%
%TD*%
%TA.AperFunction,ComponentPad*%
%ADD35C,10.400000*%
%TD*%
%TA.AperFunction,ViaPad*%
%ADD36C,0.800000*%
%TD*%
%TA.AperFunction,Conductor*%
%ADD37C,0.250000*%
%TD*%
G04 APERTURE END LIST*
D10*
%TO.P,R16,1*%
%TO.N,Net-(U2-PB12)*%
X156719900Y-87122000D03*
%TO.P,R16,2*%
%TO.N,SCLK_SPI3*%
X158544900Y-87122000D03*
%TD*%
D11*
%TO.P,C8,1*%
%TO.N,3.3V*%
X135382000Y-67731600D03*
%TO.P,C8,2*%
%TO.N,GND*%
X135382000Y-69631600D03*
%TD*%
%TO.P,C3,1*%
%TO.N,3.3V*%
X123291600Y-67757000D03*
%TO.P,C3,2*%
%TO.N,GND*%
X123291600Y-69657000D03*
%TD*%
D10*
%TO.P,R10,1*%
%TO.N,Net-(U2-PB15)*%
X156719900Y-82753200D03*
%TO.P,R10,2*%
%TO.N,MOSI_SPI2*%
X158544900Y-82753200D03*
%TD*%
D12*
%TO.P,X1,1,1*%
%TO.N,HSE_IN*%
X132842000Y-81738800D03*
%TO.P,X1,2,2*%
%TO.N,GND*%
X135042000Y-81738800D03*
%TO.P,X1,3,3*%
%TO.N,Net-(C11-Pad1)*%
X135042000Y-80038800D03*
%TO.P,X1,4,4*%
%TO.N,GND*%
X132842000Y-80038800D03*
%TD*%
D11*
%TO.P,C7,1*%
%TO.N,3.3V*%
X132892800Y-67741800D03*
%TO.P,C7,2*%
%TO.N,GND*%
X132892800Y-69641800D03*
%TD*%
D13*
%TO.P,R8,1*%
%TO.N,MOSI_SPI1*%
X146759300Y-93573600D03*
%TO.P,R8,2*%
%TO.N,Net-(U2-PA7)*%
X144934300Y-93573600D03*
%TD*%
D14*
%TO.P,J1,1,Pin_1*%
%TO.N,3.3V*%
X143256000Y-64465200D03*
D15*
%TO.P,J1,2,Pin_2*%
X143256000Y-61925200D03*
%TO.P,J1,3,Pin_3*%
%TO.N,unconnected-(J1-Pin_3-Pad3)*%
X145796000Y-64465200D03*
%TO.P,J1,4,Pin_4*%
%TO.N,GND*%
X145796000Y-61925200D03*
%TO.P,J1,5,Pin_5*%
X148336000Y-64465200D03*
%TO.P,J1,6,Pin_6*%
X148336000Y-61925200D03*
%TO.P,J1,7,Pin_7*%
%TO.N,SWDIO*%
X150876000Y-64465200D03*
%TO.P,J1,8,Pin_8*%
%TO.N,GND*%
X150876000Y-61925200D03*
%TO.P,J1,9,Pin_9*%
%TO.N,SWCLK*%
X153416000Y-64465200D03*
%TO.P,J1,10,Pin_10*%
%TO.N,GND*%
X153416000Y-61925200D03*
%TO.P,J1,11,Pin_11*%
%TO.N,unconnected-(J1-Pin_11-Pad11)*%
X155956000Y-64465200D03*
%TO.P,J1,12,Pin_12*%
%TO.N,GND*%
X155956000Y-61925200D03*
%TO.P,J1,13,Pin_13*%
%TO.N,SWO*%
X158496000Y-64465200D03*
%TO.P,J1,14,Pin_14*%
%TO.N,GND*%
X158496000Y-61925200D03*
%TO.P,J1,15,Pin_15*%
%TO.N,NRST*%
X161036000Y-64465200D03*
%TO.P,J1,16,Pin_16*%
%TO.N,GND*%
X161036000Y-61925200D03*
%TO.P,J1,17,Pin_17*%
%TO.N,unconnected-(J1-Pin_17-Pad17)*%
X163576000Y-64465200D03*
%TO.P,J1,18,Pin_18*%
%TO.N,GND*%
X163576000Y-61925200D03*
%TO.P,J1,19,Pin_19*%
%TO.N,unconnected-(J1-Pin_19-Pad19)*%
X166116000Y-64465200D03*
%TO.P,J1,20,Pin_20*%
%TO.N,GND*%
X166116000Y-61925200D03*
%TD*%
D16*
%TO.P,Q1,1,B*%
%TO.N,LED_STM*%
X135737200Y-106920000D03*
%TO.P,Q1,2,C*%
%TO.N,Net-(Q1-C)*%
X135737200Y-109220000D03*
D17*
X142037200Y-109220000D03*
D16*
%TO.P,Q1,3,E*%
%TO.N,GND*%
X135737200Y-111520000D03*
%TD*%
D11*
%TO.P,C9,1*%
%TO.N,3.3V*%
X138049000Y-67731600D03*
%TO.P,C9,2*%
%TO.N,GND*%
X138049000Y-69631600D03*
%TD*%
D10*
%TO.P,R1,1*%
%TO.N,NRST*%
X124463800Y-113080800D03*
%TO.P,R1,2*%
%TO.N,Net-(DS1-A)*%
X126288800Y-113080800D03*
%TD*%
D18*
%TO.P,C16,1*%
%TO.N,NRST*%
X128513800Y-105994200D03*
%TO.P,C16,2*%
%TO.N,GND*%
X130413800Y-105994200D03*
%TD*%
D11*
%TO.P,C2,1*%
%TO.N,3.3V*%
X121056400Y-67757000D03*
%TO.P,C2,2*%
%TO.N,GND*%
X121056400Y-69657000D03*
%TD*%
D13*
%TO.P,R20,1*%
%TO.N,Net-(J2-Pin_2)*%
X125931300Y-61010800D03*
%TO.P,R20,2*%
%TO.N,3.3V*%
X124106300Y-61010800D03*
%TD*%
D19*
%TO.P,R14,1*%
%TO.N,Net-(U2-PA15)*%
X148844000Y-72743700D03*
%TO.P,R14,2*%
%TO.N,CS_LSM*%
X148844000Y-70918700D03*
%TD*%
D20*
%TO.P,TP1,1,1*%
%TO.N,3.3V*%
X139319000Y-59004200D03*
%TD*%
D19*
%TO.P,R5,1*%
%TO.N,I2C1_SCL*%
X144221200Y-70305300D03*
%TO.P,R5,2*%
%TO.N,3.3V*%
X144221200Y-68480300D03*
%TD*%
%TO.P,R4,1*%
%TO.N,Net-(U1-DAT0)*%
X144932400Y-117447700D03*
%TO.P,R4,2*%
%TO.N,MISO_SPI3*%
X144932400Y-115622700D03*
%TD*%
D10*
%TO.P,R17,1*%
%TO.N,GND*%
X135028300Y-87884000D03*
%TO.P,R17,2*%
%TO.N,NRST*%
X136853300Y-87884000D03*
%TD*%
D21*
%TO.P,DS2,1,K*%
%TO.N,Net-(DS2-K)*%
X134897100Y-116078000D03*
%TO.P,DS2,2,A*%
%TO.N,3.3V*%
X133022100Y-116078000D03*
%TD*%
D11*
%TO.P,C6,1*%
%TO.N,3.3V*%
X130403600Y-67757000D03*
%TO.P,C6,2*%
%TO.N,GND*%
X130403600Y-69657000D03*
%TD*%
%TO.P,C4,1*%
%TO.N,3.3V*%
X125730000Y-67757000D03*
%TO.P,C4,2*%
%TO.N,GND*%
X125730000Y-69657000D03*
%TD*%
D18*
%TO.P,C15,1*%
%TO.N,Net-(U2-VCAP1)*%
X146928800Y-86563200D03*
%TO.P,C15,2*%
%TO.N,GND*%
X148828800Y-86563200D03*
%TD*%
D10*
%TO.P,R7,1*%
%TO.N,I2C1_SDA*%
X131370700Y-87884000D03*
%TO.P,R7,2*%
%TO.N,3.3V*%
X133195700Y-87884000D03*
%TD*%
D22*
%TO.P,C13,1*%
%TO.N,GND*%
X138785600Y-65212000D03*
%TO.P,C13,2*%
%TO.N,3.3V*%
X138785600Y-63312000D03*
%TD*%
D23*
%TO.P,C11,1*%
%TO.N,Net-(C11-Pad1)*%
X134808000Y-78028800D03*
%TO.P,C11,2*%
%TO.N,GND*%
X132908000Y-78028800D03*
%TD*%
D10*
%TO.P,R12,1*%
%TO.N,Net-(U2-PA11)*%
X156718000Y-78232000D03*
%TO.P,R12,2*%
%TO.N,CS_LPS*%
X158543000Y-78232000D03*
%TD*%
%TO.P,R6,1*%
%TO.N,SCLK_SPI1*%
X139803500Y-93268800D03*
%TO.P,R6,2*%
%TO.N,Net-(U2-PA5)*%
X141628500Y-93268800D03*
%TD*%
D19*
%TO.P,R15,1*%
%TO.N,Net-(U2-PB5)*%
X146558000Y-71321300D03*
%TO.P,R15,2*%
%TO.N,MOSI_SPI3*%
X146558000Y-69496300D03*
%TD*%
D24*
%TO.P,U1,1,DAT2*%
%TO.N,unconnected-(U1-DAT2-Pad1)*%
X155323400Y-113085400D03*
%TO.P,U1,2,DAT3/CD*%
%TO.N,CS_SDCARD*%
X154223400Y-113085400D03*
%TO.P,U1,3,CMD*%
%TO.N,MOSI_SPI3*%
X153123400Y-113085400D03*
%TO.P,U1,4,VDD*%
%TO.N,3.3V*%
X152023400Y-113085400D03*
%TO.P,U1,5,CLK*%
%TO.N,SCLK_SPI3*%
X150923400Y-113085400D03*
%TO.P,U1,6,VSS*%
%TO.N,GND*%
X149823400Y-113085400D03*
%TO.P,U1,7,DAT0*%
%TO.N,Net-(U1-DAT0)*%
X148723400Y-113085400D03*
D25*
%TO.P,U1,8,DAT1*%
%TO.N,unconnected-(U1-DAT1-Pad8)*%
X147673400Y-113085400D03*
D26*
%TO.P,U1,9,SHIELD*%
%TO.N,unconnected-(U1-SHIELD-Pad9)*%
X157958400Y-106935400D03*
%TO.P,U1,10*%
%TO.N,N/C*%
X157958400Y-103235400D03*
D27*
%TO.P,U1,11*%
X157783400Y-112960400D03*
D28*
X154458400Y-102260400D03*
X148488400Y-102260400D03*
D29*
X146463400Y-112735400D03*
%TD*%
D22*
%TO.P,C1,1*%
%TO.N,HSE_IN*%
X130081200Y-81772800D03*
%TO.P,C1,2*%
%TO.N,GND*%
X130081200Y-79872800D03*
%TD*%
D11*
%TO.P,C5,1*%
%TO.N,3.3V*%
X128117600Y-67757000D03*
%TO.P,C5,2*%
%TO.N,GND*%
X128117600Y-69657000D03*
%TD*%
D30*
%TO.P,U2,1,VBAT*%
%TO.N,3.3V*%
X141528500Y-77909200D03*
%TO.P,U2,2,PC13*%
%TO.N,LED_STM*%
X141528500Y-78409200D03*
%TO.P,U2,3,PC14*%
%TO.N,unconnected-(U2-PC14-Pad3)*%
X141528500Y-78909200D03*
%TO.P,U2,4,PC15*%
%TO.N,unconnected-(U2-PC15-Pad4)*%
X141528500Y-79409200D03*
%TO.P,U2,5,PH0*%
%TO.N,HSE_IN*%
X141528500Y-79909200D03*
%TO.P,U2,6,PH1*%
%TO.N,HSE_OUT*%
X141528500Y-80409200D03*
%TO.P,U2,7,NRST*%
%TO.N,NRST*%
X141528500Y-80909200D03*
%TO.P,U2,8,VSSA*%
%TO.N,GND*%
X141528500Y-81409200D03*
%TO.P,U2,9,VDDA*%
%TO.N,3.3V*%
X141528500Y-81909200D03*
%TO.P,U2,10,PA0*%
%TO.N,PWM_SIGNAL2*%
X141528500Y-82409200D03*
%TO.P,U2,11,PA1*%
%TO.N,INT_ADXL*%
X141528500Y-82909200D03*
%TO.P,U2,12,PA2*%
%TO.N,INT_LSM*%
X141528500Y-83409200D03*
D31*
%TO.P,U2,13,PA3*%
%TO.N,INT_LPS*%
X142216000Y-84096700D03*
%TO.P,U2,14,PA4*%
%TO.N,unconnected-(U2-PA4-Pad14)*%
X142716000Y-84096700D03*
%TO.P,U2,15,PA5*%
%TO.N,Net-(U2-PA5)*%
X143216000Y-84096700D03*
%TO.P,U2,16,PA6*%
%TO.N,MISO_SPI1*%
X143716000Y-84096700D03*
%TO.P,U2,17,PA7*%
%TO.N,Net-(U2-PA7)*%
X144216000Y-84096700D03*
%TO.P,U2,18,PB0*%
%TO.N,unconnected-(U2-PB0-Pad18)*%
X144716000Y-84096700D03*
%TO.P,U2,19,PB1*%
%TO.N,PWM_SIGNAL1*%
X145216000Y-84096700D03*
%TO.P,U2,20,PB2*%
%TO.N,Net-(U2-PB2)*%
X145716000Y-84096700D03*
%TO.P,U2,21,PB10*%
%TO.N,unconnected-(U2-PB10-Pad21)*%
X146216000Y-84096700D03*
%TO.P,U2,22,VCAP1*%
%TO.N,Net-(U2-VCAP1)*%
X146716000Y-84096700D03*
%TO.P,U2,23,VSS*%
%TO.N,GND*%
X147216000Y-84096700D03*
%TO.P,U2,24,VDD*%
%TO.N,3.3V*%
X147716000Y-84096700D03*
D30*
%TO.P,U2,25,PB12*%
%TO.N,Net-(U2-PB12)*%
X148403500Y-83409200D03*
%TO.P,U2,26,PB13*%
%TO.N,Net-(U2-PB13)*%
X148403500Y-82909200D03*
%TO.P,U2,27,PB14*%
%TO.N,MISO_SPI2*%
X148403500Y-82409200D03*
%TO.P,U2,28,PB15*%
%TO.N,Net-(U2-PB15)*%
X148403500Y-81909200D03*
%TO.P,U2,29,PA8*%
%TO.N,Net-(U2-PA8)*%
X148403500Y-81409200D03*
%TO.P,U2,30,PA9*%
%TO.N,TX_UART1*%
X148403500Y-80909200D03*
%TO.P,U2,31,PA10*%
%TO.N,RX_UART1*%
X148403500Y-80409200D03*
%TO.P,U2,32,PA11*%
%TO.N,Net-(U2-PA11)*%
X148403500Y-79909200D03*
%TO.P,U2,33,PA12*%
%TO.N,Net-(U2-PA12)*%
X148403500Y-79409200D03*
%TO.P,U2,34,PA13*%
%TO.N,SWDIO*%
X148403500Y-78909200D03*
%TO.P,U2,35,VSS*%
%TO.N,GND*%
X148403500Y-78409200D03*
%TO.P,U2,36,VDD*%
%TO.N,3.3V*%
X148403500Y-77909200D03*
D31*
%TO.P,U2,37,PA14*%
%TO.N,SWCLK*%
X147716000Y-77221700D03*
%TO.P,U2,38,PA15*%
%TO.N,Net-(U2-PA15)*%
X147216000Y-77221700D03*
%TO.P,U2,39,PB3*%
%TO.N,SWO*%
X146716000Y-77221700D03*
%TO.P,U2,40,PB4*%
%TO.N,MISO_SPI3*%
X146216000Y-77221700D03*
%TO.P,U2,41,PB5*%
%TO.N,Net-(U2-PB5)*%
X145716000Y-77221700D03*
%TO.P,U2,42,PB6*%
%TO.N,I2C1_SCL*%
X145216000Y-77221700D03*
%TO.P,U2,43,PB7*%
%TO.N,I2C1_SDA*%
X144716000Y-77221700D03*
%TO.P,U2,44,BOOT0*%
%TO.N,BOOT0*%
X144216000Y-77221700D03*
%TO.P,U2,45,PB8*%
%TO.N,unconnected-(U2-PB8-Pad45)*%
X143716000Y-77221700D03*
%TO.P,U2,46,PB9*%
%TO.N,unconnected-(U2-PB9-Pad46)*%
X143216000Y-77221700D03*
%TO.P,U2,47,VSS*%
%TO.N,GND*%
X142716000Y-77221700D03*
%TO.P,U2,48,VDD*%
%TO.N,3.3V*%
X142216000Y-77221700D03*
D32*
%TO.P,U2,49,VSS*%
%TO.N,GND*%
X144966000Y-80659200D03*
%TD*%
D10*
%TO.P,R19,1*%
%TO.N,Net-(U2-PB2)*%
X146915500Y-88849200D03*
%TO.P,R19,2*%
%TO.N,CS_SDCARD*%
X148740500Y-88849200D03*
%TD*%
%TO.P,R13,1*%
%TO.N,Net-(U2-PA12)*%
X156719900Y-75946000D03*
%TO.P,R13,2*%
%TO.N,CS_ADXL*%
X158544900Y-75946000D03*
%TD*%
D14*
%TO.P,J2,1,Pin_1*%
%TO.N,BOOT0*%
X127330200Y-64262000D03*
D15*
%TO.P,J2,2,Pin_2*%
%TO.N,Net-(J2-Pin_2)*%
X129870200Y-64262000D03*
%TO.P,J2,3,Pin_3*%
%TO.N,GND*%
X132410200Y-64262000D03*
%TD*%
D13*
%TO.P,R9,1*%
%TO.N,CS_MS5607*%
X158544900Y-80467200D03*
%TO.P,R9,2*%
%TO.N,Net-(U2-PA8)*%
X156719900Y-80467200D03*
%TD*%
D10*
%TO.P,R3,1*%
%TO.N,HSE_IN*%
X133961500Y-84582000D03*
%TO.P,R3,2*%
%TO.N,HSE_OUT*%
X135786500Y-84582000D03*
%TD*%
D19*
%TO.P,R18,1*%
%TO.N,Net-(DS2-K)*%
X133146800Y-110437300D03*
%TO.P,R18,2*%
%TO.N,Net-(Q1-C)*%
X133146800Y-108612300D03*
%TD*%
D10*
%TO.P,R2,1*%
%TO.N,Net-(C11-Pad1)*%
X137464800Y-80060800D03*
%TO.P,R2,2*%
%TO.N,HSE_OUT*%
X139289800Y-80060800D03*
%TD*%
D33*
%TO.P,DS1,1,K*%
%TO.N,GND*%
X124589300Y-115773200D03*
%TO.P,DS1,2,A*%
%TO.N,Net-(DS1-A)*%
X126464300Y-115773200D03*
%TD*%
D10*
%TO.P,R11,1*%
%TO.N,Net-(U2-PB13)*%
X156719900Y-84937600D03*
%TO.P,R11,2*%
%TO.N,SCLK_SPI2*%
X158544900Y-84937600D03*
%TD*%
D11*
%TO.P,C12,1*%
%TO.N,3.3V*%
X136550400Y-63312000D03*
%TO.P,C12,2*%
%TO.N,GND*%
X136550400Y-65212000D03*
%TD*%
%TO.P,C14,1*%
%TO.N,3.3V*%
X142417800Y-115585200D03*
%TO.P,C14,2*%
%TO.N,GND*%
X142417800Y-117485200D03*
%TD*%
D34*
%TO.P,SW1,1,1*%
%TO.N,NRST*%
X126551000Y-102616000D03*
%TO.P,SW1,2,2*%
%TO.N,GND*%
X130751000Y-102616000D03*
%TD*%
D14*
%TO.P,U3,1*%
%TO.N,CS_ADXL*%
X172111400Y-65990200D03*
D15*
%TO.P,U3,2*%
%TO.N,SCLK_SPI2*%
X172111400Y-68530200D03*
%TO.P,U3,3*%
%TO.N,MOSI_SPI2*%
X172111400Y-71070200D03*
%TO.P,U3,4*%
%TO.N,MISO_SPI2*%
X172111400Y-73610200D03*
%TO.P,U3,5*%
%TO.N,INT_ADXL*%
X172111400Y-76150200D03*
%TO.P,U3,6*%
%TO.N,CS_LSM*%
X172111400Y-78690200D03*
%TO.P,U3,7*%
%TO.N,INT_LSM*%
X172111400Y-81230200D03*
%TO.P,U3,8*%
%TO.N,TX_TELEM*%
X172111400Y-83770200D03*
%TO.P,U3,9*%
%TO.N,RX_TELEM*%
X172111400Y-86310200D03*
%TO.P,U3,10*%
%TO.N,INT_LPS*%
X172111400Y-88850200D03*
%TO.P,U3,11*%
%TO.N,unconnected-(U3-Pad11)*%
X172111400Y-91390200D03*
%TO.P,U3,12*%
%TO.N,unconnected-(U3-Pad12)*%
X172111400Y-93930200D03*
%TO.P,U3,13*%
%TO.N,unconnected-(U3-Pad13)*%
X172111400Y-96470200D03*
%TO.P,U3,14*%
%TO.N,PYRO2*%
X172111400Y-99010200D03*
%TO.P,U3,15*%
%TO.N,unconnected-(U3-Pad15)*%
X172111400Y-101550200D03*
%TO.P,U3,16*%
%TO.N,unconnected-(U3-Pad16)*%
X115711400Y-101520200D03*
%TO.P,U3,17*%
%TO.N,PYRO1*%
X115711400Y-98980200D03*
%TO.P,U3,18*%
%TO.N,unconnected-(U3-Pad18)*%
X115711400Y-96440200D03*
%TO.P,U3,19*%
%TO.N,unconnected-(U3-Pad19)*%
X115711400Y-93900200D03*
%TO.P,U3,20*%
%TO.N,unconnected-(U3-Pad20)*%
X115711400Y-91360200D03*
%TO.P,U3,21*%
%TO.N,unconnected-(U3-Pad21)*%
X115711400Y-88820200D03*
%TO.P,U3,22*%
%TO.N,unconnected-(U3-Pad22)*%
X115711400Y-86280200D03*
%TO.P,U3,23*%
%TO.N,I2C1_SDA*%
X115711400Y-83740200D03*
%TO.P,U3,24*%
%TO.N,I2C1_SCL*%
X115711400Y-81200200D03*
%TO.P,U3,25*%
%TO.N,unconnected-(U3-Pad25)*%
X115711400Y-78660200D03*
%TO.P,U3,26*%
%TO.N,CS_LPS*%
X115711400Y-76120200D03*
%TO.P,U3,27*%
%TO.N,MISO_SPI1*%
X115711400Y-73580200D03*
%TO.P,U3,28*%
%TO.N,MOSI_SPI1*%
X115711400Y-71040200D03*
%TO.P,U3,29*%
%TO.N,SCLK_SPI1*%
X115711400Y-68500200D03*
D14*
%TO.P,U3,30*%
%TO.N,CS_MS5607*%
X115711400Y-65960200D03*
%TO.P,U3,31*%
%TO.N,unconnected-(U3-Pad31)*%
X126136400Y-55575200D03*
D15*
%TO.P,U3,32*%
%TO.N,unconnected-(U3-Pad32)*%
X128676400Y-55575200D03*
%TO.P,U3,33*%
%TO.N,unconnected-(U3-Pad33)*%
X131216400Y-55575200D03*
%TO.P,U3,34*%
%TO.N,unconnected-(U3-Pad34)*%
X133756400Y-55575200D03*
%TO.P,U3,35*%
%TO.N,3.3V*%
X136296400Y-55575200D03*
%TO.P,U3,36*%
%TO.N,unconnected-(U3-Pad36)*%
X138836400Y-55575200D03*
%TO.P,U3,37*%
%TO.N,3.3V*%
X141376400Y-55575200D03*
%TO.P,U3,38*%
X143916400Y-55575200D03*
%TO.P,U3,39*%
%TO.N,unconnected-(U3-Pad39)*%
X146456400Y-55575200D03*
%TO.P,U3,40*%
%TO.N,unconnected-(U3-Pad40)*%
X148996400Y-55575200D03*
%TO.P,U3,41*%
%TO.N,unconnected-(U3-Pad41)*%
X151536400Y-55575200D03*
%TO.P,U3,42*%
%TO.N,unconnected-(U3-Pad42)*%
X154076400Y-55575200D03*
%TO.P,U3,43*%
%TO.N,unconnected-(U3-Pad43)*%
X156616400Y-55575200D03*
%TO.P,U3,44*%
%TO.N,unconnected-(U3-Pad44)*%
X159156400Y-55575200D03*
%TO.P,U3,45*%
%TO.N,unconnected-(U3-Pad45)*%
X161696400Y-55575200D03*
D35*
%TO.P,U3,49,1*%
%TO.N,GND*%
X171711400Y-111575200D03*
%TO.P,U3,50,1*%
X116111400Y-111575200D03*
%TO.P,U3,51,1*%
X116111400Y-55875200D03*
%TO.P,U3,52,1*%
X171711400Y-55890200D03*
%TD*%
D36*
%TO.N,GND*%
X139649200Y-69697600D03*
X135128000Y-87858600D03*
X124637800Y-115798600D03*
X142748000Y-82702400D03*
X142468600Y-117551200D03*
X138709400Y-65278000D03*
X142849600Y-78638400D03*
X149758400Y-113080800D03*
X148818600Y-86537800D03*
X135051800Y-81813400D03*
X130454400Y-105994200D03*
X147167600Y-82677000D03*
X135763000Y-111556800D03*
X147015200Y-78613000D03*
%TO.N,3.3V*%
X119684800Y-78486000D03*
X143306800Y-66090800D03*
X137617200Y-84582000D03*
X133197600Y-86309200D03*
X122986800Y-78435200D03*
X141681200Y-76098400D03*
X125628400Y-97282000D03*
X153822400Y-98298000D03*
X128016000Y-78689200D03*
X134213600Y-94488000D03*
X131876800Y-91186000D03*
X165963600Y-100126800D03*
X129489200Y-87680800D03*
X123037600Y-91744800D03*
X155803600Y-66497200D03*
%TO.N,NRST*%
X161086800Y-74472800D03*
X163804600Y-111277400D03*
X122834400Y-73863200D03*
X167284400Y-98856800D03*
X137337800Y-92430600D03*
X122250200Y-111125000D03*
X126517400Y-108686600D03*
%TO.N,SWDIO*%
X156159200Y-71526400D03*
X151790400Y-70713600D03*
%TO.N,SWO*%
X147167600Y-73355200D03*
X158445200Y-72542400D03*
%TO.N,LED_STM*%
X138226800Y-75329774D03*
X123545600Y-79498305D03*
%TO.N,MISO_SPI3*%
X169672000Y-75387200D03*
X169672000Y-82042000D03*
X162255200Y-75082400D03*
X144983200Y-100380800D03*
X164033200Y-99263200D03*
X165862000Y-82702400D03*
X146456400Y-72644000D03*
X162153600Y-71983600D03*
%TO.N,I2C1_SCL*%
X142443200Y-70662800D03*
X120700800Y-71120000D03*
%TO.N,SCLK_SPI1*%
X119024400Y-80264000D03*
X128320800Y-80314800D03*
%TO.N,I2C1_SDA*%
X130352800Y-84632800D03*
X121412000Y-73152000D03*
X117957600Y-83718400D03*
X143916400Y-71678800D03*
%TO.N,MOSI_SPI1*%
X126847600Y-74930000D03*
X133197600Y-95605600D03*
X147370800Y-95402400D03*
%TO.N,CS_MS5607*%
X123494800Y-72898000D03*
X142392400Y-67564000D03*
X121462800Y-71932800D03*
X160121600Y-68783200D03*
X139242800Y-72948800D03*
%TO.N,MOSI_SPI2*%
X164134800Y-71170800D03*
X162509200Y-80873600D03*
X159816800Y-81534000D03*
%TO.N,SCLK_SPI2*%
X164642800Y-89611200D03*
X159461200Y-89662000D03*
%TO.N,CS_LPS*%
X124612400Y-88849200D03*
X124612400Y-77317600D03*
X159918400Y-76403200D03*
X162102800Y-87376000D03*
X163982400Y-78232000D03*
%TO.N,CS_ADXL*%
X159664400Y-70358000D03*
X168300400Y-70053200D03*
%TO.N,CS_LSM*%
X165455600Y-77876400D03*
X151892000Y-73558400D03*
X165354000Y-73609200D03*
%TO.N,MOSI_SPI3*%
X163017200Y-68072000D03*
X147015200Y-67310000D03*
%TO.N,SCLK_SPI3*%
X160324800Y-93268800D03*
X165150800Y-102006400D03*
X162052000Y-101701600D03*
X163271200Y-93319600D03*
%TO.N,CS_SDCARD*%
X160578800Y-101346000D03*
X152603200Y-100228400D03*
%TO.N,PWM_SIGNAL2*%
X168808400Y-90982800D03*
X138125200Y-90982800D03*
%TO.N,INT_ADXL*%
X138887200Y-90017600D03*
X160578800Y-90220800D03*
X162052000Y-76200000D03*
%TO.N,INT_LSM*%
X163626800Y-82092800D03*
X140309600Y-91744800D03*
X163017200Y-91795600D03*
%TO.N,INT_LPS*%
X142189200Y-89255600D03*
%TO.N,MISO_SPI1*%
X125425200Y-75692000D03*
%TO.N,MISO_SPI2*%
X167640000Y-82804000D03*
X154940000Y-83566000D03*
%TO.N,TX_UART1*%
X153162000Y-80010000D03*
X168656000Y-80010000D03*
%TO.N,RX_UART1*%
X154330400Y-79044800D03*
X166827200Y-79044800D03*
%TO.N,PWM_SIGNAL1*%
X149758400Y-99009200D03*
%TO.N,BOOT0*%
X140716000Y-61137800D03*
%TD*%
D37*
%TO.N,HSE_IN*%
X140869200Y-79909200D02*
X141528500Y-79909200D01*
X133961500Y-84582000D02*
X133961500Y-84021300D01*
X138379200Y-80873600D02*
X138379200Y-78943200D01*
X136194800Y-83058000D02*
X138379200Y-80873600D01*
X133961500Y-84021300D02*
X134924800Y-83058000D01*
X138379200Y-78943200D02*
X138633200Y-78689200D01*
X138633200Y-78689200D02*
X140258800Y-78689200D01*
X140462000Y-78892400D02*
X140462000Y-79502000D01*
X132842000Y-81738800D02*
X132842000Y-83462500D01*
X134924800Y-83058000D02*
X136194800Y-83058000D01*
X130081200Y-81772800D02*
X130115200Y-81738800D01*
X130115200Y-81738800D02*
X132842000Y-81738800D01*
X132842000Y-83462500D02*
X133961500Y-84582000D01*
X140462000Y-79502000D02*
X140869200Y-79909200D01*
X140258800Y-78689200D02*
X140462000Y-78892400D01*
%TO.N,GND*%
X136550400Y-65212000D02*
X133360200Y-65212000D01*
X134732200Y-81738800D02*
X135051800Y-81813400D01*
X132908000Y-78028800D02*
X132908000Y-79972800D01*
X130081200Y-79872800D02*
X131925200Y-78028800D01*
X145796000Y-61925200D02*
X166116000Y-61925200D01*
X125780800Y-69723000D02*
X125846800Y-69657000D01*
X130413800Y-102953200D02*
X130413800Y-105994200D01*
X139568000Y-69672200D02*
X139623800Y-69672200D01*
X141528500Y-81409200D02*
X144216000Y-81409200D01*
X142716000Y-78409200D02*
X142849600Y-78542800D01*
X139700000Y-69540200D02*
X139598400Y-69641800D01*
X144216000Y-81409200D02*
X144966000Y-80659200D01*
X147167600Y-82860800D02*
X147167600Y-82677000D01*
X135112800Y-69657000D02*
X135128000Y-69672200D01*
X138709400Y-65278000D02*
X138734800Y-65262800D01*
X133360200Y-65212000D02*
X132410200Y-64262000D01*
X135026400Y-81788000D02*
X135042000Y-81738800D01*
X146913600Y-78711600D02*
X146913600Y-78892400D01*
X147015200Y-78613000D02*
X147012200Y-78613000D01*
X146964400Y-82657600D02*
X144966000Y-80659200D01*
X146732800Y-78892400D02*
X144966000Y-80659200D01*
X146983800Y-82677000D02*
X147009200Y-82702400D01*
X130403600Y-69657000D02*
X135356600Y-69657000D01*
X147216000Y-84096700D02*
X147216000Y-82909200D01*
X139623800Y-69672200D02*
X139649200Y-69697600D01*
X135128000Y-69672200D02*
X135143200Y-69657000D01*
X139674600Y-69672200D02*
X139700000Y-69672200D01*
X146913600Y-78892400D02*
X146732800Y-78892400D01*
X130751000Y-102616000D02*
X130413800Y-102953200D01*
X139583200Y-69657000D02*
X139568000Y-69672200D01*
X139700000Y-69672200D02*
X139700000Y-69540200D01*
X131925200Y-78028800D02*
X132908000Y-78028800D01*
X147012200Y-78613000D02*
X146913600Y-78711600D01*
X130403600Y-69672200D02*
X130418800Y-69657000D01*
X147216000Y-82909200D02*
X147167600Y-82860800D01*
X139649200Y-69697600D02*
X139674600Y-69672200D01*
X142945200Y-78638400D02*
X144966000Y-80659200D01*
X135356600Y-69657000D02*
X135382000Y-69631600D01*
X146964400Y-82702400D02*
X146964400Y-82657600D01*
X142849600Y-78638400D02*
X142945200Y-78638400D01*
X147015200Y-78610000D02*
X147015200Y-78613000D01*
X135051800Y-81813400D02*
X135026400Y-81788000D01*
X133032200Y-80038800D02*
X134732200Y-81738800D01*
X147009200Y-82702400D02*
X146964400Y-82702400D01*
X121056400Y-69672200D02*
X125714800Y-69657000D01*
X147216000Y-78409200D02*
X147015200Y-78610000D01*
X136550400Y-65212000D02*
X138709400Y-65278000D01*
X148403500Y-78409200D02*
X147216000Y-78409200D01*
X142716000Y-77221700D02*
X142716000Y-78409200D01*
X125846800Y-69657000D02*
X130388400Y-69657000D01*
X121056400Y-69657000D02*
X121056400Y-69672200D01*
X132842000Y-80038800D02*
X133032200Y-80038800D01*
X142849600Y-78542800D02*
X142849600Y-78638400D01*
X130388400Y-69657000D02*
X130403600Y-69672200D01*
X135143200Y-69657000D02*
X139583200Y-69657000D01*
X147167600Y-82677000D02*
X146983800Y-82677000D01*
X125714800Y-69657000D02*
X125780800Y-69723000D01*
X132908000Y-79972800D02*
X132842000Y-80038800D01*
X138734800Y-65262800D02*
X138785600Y-65212000D01*
%TO.N,3.3V*%
X141843800Y-115585200D02*
X142417800Y-115585200D01*
X127609600Y-111709200D02*
X131978400Y-116078000D01*
X148861700Y-85242400D02*
X149860000Y-85242400D01*
X129489200Y-87680800D02*
X129489200Y-88798400D01*
X131978400Y-116078000D02*
X132559600Y-116078000D01*
X143256000Y-66141600D02*
X143306800Y-66090800D01*
X137617200Y-84582000D02*
X140290000Y-81909200D01*
X122820600Y-91527800D02*
X123037600Y-91744800D01*
X152023400Y-113567800D02*
X154381200Y-115925600D01*
X143306800Y-66090800D02*
X143256000Y-66040000D01*
X139522200Y-117906800D02*
X141843800Y-115585200D01*
X120700800Y-63246000D02*
X123215400Y-63246000D01*
X127558800Y-89154000D02*
X132842000Y-94437200D01*
X133195700Y-87884000D02*
X133195700Y-86311100D01*
X136550400Y-63312000D02*
X138785600Y-63312000D01*
X150723600Y-86106000D02*
X150723600Y-92811600D01*
X133195700Y-86311100D02*
X133197600Y-86309200D01*
X144221200Y-68480300D02*
X143256000Y-67515100D01*
X134340600Y-117906800D02*
X139522200Y-117906800D01*
X125628400Y-94335600D02*
X123037600Y-91744800D01*
X161848800Y-103581200D02*
X165303200Y-100126800D01*
X119684800Y-78486000D02*
X119532400Y-78333600D01*
X165303200Y-100126800D02*
X165963600Y-100126800D01*
X153314400Y-70713600D02*
X155803600Y-68224400D01*
X119532400Y-78333600D02*
X119532400Y-64414400D01*
X119532400Y-64414400D02*
X120700800Y-63246000D01*
X141528500Y-81909200D02*
X140290000Y-81909200D01*
X153314400Y-75031600D02*
X153314400Y-70713600D01*
X132842000Y-94437200D02*
X134061200Y-94437200D01*
X150723600Y-92811600D02*
X152146000Y-94234000D01*
X134061200Y-94437200D02*
X134213600Y-94488000D01*
X150436800Y-77909200D02*
X153314400Y-75031600D01*
X133022100Y-116588300D02*
X134340600Y-117906800D01*
X142216000Y-76734800D02*
X141681200Y-76200000D01*
X142216000Y-77221700D02*
X142216000Y-76734800D01*
X122820600Y-110323800D02*
X124206000Y-111709200D01*
X141528500Y-77909200D02*
X142216000Y-77221700D01*
X152146000Y-96520000D02*
X153822400Y-98298000D01*
X155803600Y-68224400D02*
X155803600Y-66497200D01*
X143256000Y-67515100D02*
X143256000Y-66141600D01*
X122986800Y-78435200D02*
X122820600Y-78601400D01*
X128016000Y-78689200D02*
X127558800Y-79146400D01*
X122820600Y-78601400D02*
X122820600Y-91527800D01*
X148403500Y-77909200D02*
X150436800Y-77909200D01*
X154381200Y-115925600D02*
X159258000Y-115925600D01*
X123037600Y-91744800D02*
X122820600Y-91961800D01*
X133022100Y-116078000D02*
X133022100Y-116588300D01*
X147716000Y-84096700D02*
X148861700Y-85242400D01*
X152146000Y-94234000D02*
X152146000Y-96520000D01*
X125628400Y-97282000D02*
X125628400Y-94335600D01*
X127558800Y-79146400D02*
X127558800Y-89154000D01*
X161848800Y-113334800D02*
X161848800Y-103581200D01*
X141579600Y-76098400D02*
X141630400Y-76149200D01*
X152023400Y-113085400D02*
X152023400Y-113567800D01*
X129489200Y-88798400D02*
X131876800Y-91186000D01*
X134213600Y-94488000D02*
X134162800Y-94437200D01*
X141681200Y-76098400D02*
X141579600Y-76098400D01*
X143256000Y-66040000D02*
X143256000Y-64465200D01*
X141681200Y-76200000D02*
X141681200Y-76098400D01*
X134162800Y-94437200D02*
X134112000Y-94437200D01*
X149860000Y-85242400D02*
X150723600Y-86106000D01*
X124206000Y-111709200D02*
X127609600Y-111709200D01*
X159258000Y-115925600D02*
X161848800Y-113334800D01*
X122820600Y-91961800D02*
X122820600Y-110323800D01*
%TO.N,NRST*%
X140629600Y-80909200D02*
X140157200Y-81381600D01*
X137464800Y-92430600D02*
X137464800Y-92430600D01*
X122224800Y-112979200D02*
X122961400Y-113715800D01*
X122224800Y-74218800D02*
X122224800Y-111099600D01*
X139649200Y-81381600D02*
X136855200Y-84175600D01*
X122566600Y-73877000D02*
X122224800Y-74218800D01*
X163220400Y-105740200D02*
X163220400Y-110667800D01*
X122961400Y-113715800D02*
X123828800Y-113715800D01*
X167284400Y-98856800D02*
X167284400Y-101676200D01*
X127008200Y-105994200D02*
X126551000Y-105537000D01*
X167284400Y-101676200D02*
X163220400Y-105740200D01*
X122224800Y-111150400D02*
X122224800Y-112979200D01*
X123828800Y-113715800D02*
X124463800Y-113080800D01*
X122820600Y-73877000D02*
X122566600Y-73877000D01*
X122834400Y-73863200D02*
X122820600Y-73877000D01*
X163804600Y-111277400D02*
X163830000Y-111277400D01*
X141528500Y-80909200D02*
X140629600Y-80909200D01*
X136853300Y-87884000D02*
X136853300Y-91819100D01*
X163830000Y-111277400D02*
X163753800Y-111201200D01*
X140157200Y-81381600D02*
X139649200Y-81381600D01*
X126551000Y-102616000D02*
X126551000Y-105537000D01*
X136855200Y-87882100D02*
X136853300Y-87884000D01*
X163804600Y-111252000D02*
X163804600Y-111277400D01*
X137337800Y-92430600D02*
X137464800Y-92430600D01*
X136853300Y-91819100D02*
X137337800Y-92303600D01*
X126551000Y-108653000D02*
X126517400Y-108686600D01*
X128513800Y-105994200D02*
X127008200Y-105994200D01*
X128361400Y-106146600D02*
X128513800Y-105994200D01*
X161086800Y-74472800D02*
X161036000Y-74422000D01*
X122224800Y-111099600D02*
X122250200Y-111125000D01*
X163220400Y-110667800D02*
X163804600Y-111252000D01*
X126551000Y-105537000D02*
X126551000Y-106146600D01*
X137337800Y-92303600D02*
X137337800Y-92430600D01*
X122250200Y-111125000D02*
X122224800Y-111150400D01*
X126551000Y-106146600D02*
X126551000Y-108653000D01*
X161036000Y-74422000D02*
X161036000Y-64465200D01*
X136855200Y-84175600D02*
X136855200Y-87882100D01*
%TO.N,Net-(C11-Pad1)*%
X134808000Y-78028800D02*
X134808000Y-79804800D01*
X135064000Y-80060800D02*
X135042000Y-80038800D01*
X137464800Y-80060800D02*
X135064000Y-80060800D01*
X135042000Y-80038800D02*
X134969000Y-79965800D01*
X134808000Y-79804800D02*
X135042000Y-80038800D01*
%TO.N,Net-(U2-VCAP1)*%
X146716000Y-84096700D02*
X146716000Y-86350400D01*
X146716000Y-86350400D02*
X146928800Y-86563200D01*
%TO.N,Net-(DS1-A)*%
X126926800Y-113718800D02*
X126926800Y-115773200D01*
X126288800Y-113080800D02*
X126926800Y-113718800D01*
%TO.N,Net-(DS2-K)*%
X135280400Y-114350800D02*
X135280400Y-115998800D01*
X133146800Y-110437300D02*
X133146800Y-112217200D01*
X133146800Y-112217200D02*
X135280400Y-114350800D01*
%TO.N,SWDIO*%
X151790400Y-70662800D02*
X151790400Y-70713600D01*
X155448000Y-72237600D02*
X156159200Y-71526400D01*
X148403500Y-78909200D02*
X150273604Y-78909200D01*
X153795604Y-75387200D02*
X155448000Y-75387200D01*
X155448000Y-75387200D02*
X155448000Y-72237600D01*
X150273604Y-78909200D02*
X153795604Y-75387200D01*
X150876000Y-69748400D02*
X151790400Y-70662800D01*
X150876000Y-64465200D02*
X150876000Y-69748400D01*
%TO.N,SWCLK*%
X152755600Y-74777600D02*
X152755600Y-67310000D01*
X152755600Y-67310000D02*
X153416000Y-66649600D01*
X147716000Y-76616800D02*
X148945600Y-75387200D01*
X152146000Y-75387200D02*
X152755600Y-74777600D01*
X147716000Y-77221700D02*
X147716000Y-76616800D01*
X153416000Y-66649600D02*
X153416000Y-64465200D01*
X148945600Y-75387200D02*
X152146000Y-75387200D01*
%TO.N,SWO*%
X158496000Y-64465200D02*
X158496000Y-72491600D01*
X146716000Y-77221700D02*
X146716000Y-73959200D01*
X146716000Y-73959200D02*
X147167600Y-73355200D01*
X158496000Y-72491600D02*
X158445200Y-72542400D01*
%TO.N,LED_STM*%
X123545600Y-89357200D02*
X136398000Y-102209600D01*
X140106400Y-77900404D02*
X140615196Y-78409200D01*
X139286974Y-75329774D02*
X140106400Y-76149200D01*
X140615196Y-78409200D02*
X141528500Y-78409200D01*
X138226800Y-75329774D02*
X139286974Y-75329774D01*
X140106400Y-76149200D02*
X140106400Y-77900404D01*
X136398000Y-102209600D02*
X136398000Y-106259200D01*
X136398000Y-106259200D02*
X135737200Y-106920000D01*
X123545600Y-79498305D02*
X123545600Y-89357200D01*
%TO.N,Net-(Q1-C)*%
X134975200Y-108458000D02*
X133301100Y-108458000D01*
X135737200Y-109220000D02*
X134975200Y-108458000D01*
X135737200Y-109220000D02*
X142037200Y-109220000D01*
X133301100Y-108458000D02*
X133146800Y-108612300D01*
%TO.N,HSE_OUT*%
X139289800Y-81078700D02*
X139289800Y-80060800D01*
X135786500Y-84582000D02*
X139289800Y-81078700D01*
X141528500Y-80409200D02*
X139638200Y-80409200D01*
X139638200Y-80409200D02*
X139289800Y-80060800D01*
%TO.N,Net-(U1-DAT0)*%
X148723400Y-115893800D02*
X146812000Y-117805200D01*
X146812000Y-117805200D02*
X145289900Y-117805200D01*
X145289900Y-117805200D02*
X144932400Y-117447700D01*
X148723400Y-113085400D02*
X148723400Y-115893800D01*
%TO.N,MISO_SPI3*%
X165862000Y-82702400D02*
X165862000Y-97434400D01*
X162153600Y-71983600D02*
X162153600Y-75073095D01*
X162162905Y-75082400D02*
X162255200Y-75082400D01*
X146216000Y-77221700D02*
X146216000Y-73138400D01*
X146216000Y-73138400D02*
X146456400Y-72644000D01*
X165862000Y-97434400D02*
X164033200Y-99263200D01*
X144932400Y-100431600D02*
X144983200Y-100380800D01*
X169672000Y-75387200D02*
X169672000Y-82042000D01*
X162153600Y-75073095D02*
X162162905Y-75082400D01*
X144932400Y-115622700D02*
X144932400Y-100431600D01*
%TO.N,I2C1_SCL*%
X115711400Y-81200200D02*
X119510600Y-81200200D01*
X143863700Y-70662800D02*
X144221200Y-70305300D01*
X119510600Y-81200200D02*
X120599200Y-80111600D01*
X120599200Y-71170800D02*
X120650000Y-71120000D01*
X145216000Y-77221700D02*
X145216000Y-71300100D01*
X142443200Y-70662800D02*
X143863700Y-70662800D01*
X120650000Y-71120000D02*
X120700800Y-71120000D01*
X120599200Y-80111600D02*
X120599200Y-71170800D01*
X145216000Y-71300100D02*
X144221200Y-70305300D01*
%TO.N,SCLK_SPI1*%
X118567200Y-71356000D02*
X118567200Y-79806800D01*
X115711400Y-68500200D02*
X118567200Y-71356000D01*
X128320800Y-80314800D02*
X128320800Y-88900000D01*
X118567200Y-79806800D02*
X119024400Y-80264000D01*
X128320800Y-88900000D02*
X132689600Y-93268800D01*
X132689600Y-93268800D02*
X139803500Y-93268800D01*
%TO.N,Net-(U2-PA5)*%
X141782800Y-93268800D02*
X141628500Y-93268800D01*
X143216000Y-87670000D02*
X143205200Y-87680800D01*
X143216000Y-84096700D02*
X143216000Y-87670000D01*
X143205200Y-87680800D02*
X143205200Y-91846400D01*
X143205200Y-91846400D02*
X141782800Y-93268800D01*
%TO.N,I2C1_SDA*%
X130302000Y-84632800D02*
X130403600Y-84734400D01*
X115711400Y-83740200D02*
X117783400Y-83740200D01*
X121412000Y-80111600D02*
X121412000Y-73152000D01*
X117957600Y-83718400D02*
X117957600Y-83566000D01*
X117783400Y-83740200D02*
X117805200Y-83718400D01*
X117957600Y-83566000D02*
X121412000Y-80111600D01*
X131370700Y-85701500D02*
X130352800Y-84683600D01*
X144716000Y-77221700D02*
X144716000Y-72478400D01*
X131370700Y-87884000D02*
X131370700Y-85701500D01*
X143916400Y-71678800D02*
X144716000Y-72478400D01*
X130352800Y-84632800D02*
X130302000Y-84632800D01*
X130352800Y-84683600D02*
X130352800Y-84632800D01*
X117805200Y-83718400D02*
X117957600Y-83718400D01*
%TO.N,MOSI_SPI1*%
X126847600Y-74930000D02*
X126847600Y-89306400D01*
X126847600Y-89306400D02*
X133197600Y-95605600D01*
X147370800Y-95402400D02*
X147370800Y-94185100D01*
X147370800Y-94185100D02*
X146759300Y-93573600D01*
%TO.N,Net-(U2-PA7)*%
X144216000Y-92855300D02*
X144934300Y-93573600D01*
X144216000Y-84096700D02*
X144216000Y-92855300D01*
%TO.N,CS_MS5607*%
X160063600Y-77324800D02*
X160832800Y-76555600D01*
X160223200Y-74930000D02*
X160223200Y-71272400D01*
X160578800Y-69189600D02*
X160172400Y-68783200D01*
X160121600Y-68732400D02*
X160223200Y-68834000D01*
X123494800Y-72898000D02*
X123444000Y-72948800D01*
X141718200Y-70473400D02*
X139242800Y-72948800D01*
X121462800Y-71932800D02*
X121716800Y-71932800D01*
X160578800Y-70916800D02*
X160578800Y-69189600D01*
X123342400Y-72948800D02*
X123494800Y-72898000D01*
X160832800Y-76555600D02*
X160832800Y-75539600D01*
X142392400Y-69596000D02*
X141718200Y-70270200D01*
X160172400Y-68783200D02*
X160121600Y-68783200D01*
X123444000Y-72948800D02*
X123393200Y-72948800D01*
X141718200Y-70270200D02*
X141718200Y-70473400D01*
X160063600Y-79915600D02*
X160063600Y-77324800D01*
X122732800Y-72948800D02*
X123342400Y-72948800D01*
X160223200Y-71272400D02*
X160578800Y-70916800D01*
X159512000Y-80467200D02*
X160063600Y-79915600D01*
X142392400Y-67564000D02*
X142392400Y-69596000D01*
X160832800Y-75539600D02*
X160223200Y-74930000D01*
X158544900Y-80467200D02*
X159512000Y-80467200D01*
X121716800Y-71932800D02*
X122732800Y-72948800D01*
X160121600Y-68783200D02*
X160121600Y-68732400D01*
X139242800Y-72948800D02*
X139192000Y-72948800D01*
X139192000Y-72796400D02*
X139242800Y-72948800D01*
%TO.N,Net-(U2-PA8)*%
X155777900Y-81409200D02*
X156719900Y-80467200D01*
X148403500Y-81409200D02*
X155777900Y-81409200D01*
%TO.N,Net-(U2-PB15)*%
X148403500Y-81909200D02*
X152472300Y-81909200D01*
X152472300Y-81909200D02*
X153316300Y-82753200D01*
X153316300Y-82753200D02*
X156719900Y-82753200D01*
%TO.N,MOSI_SPI2*%
X162509200Y-77927200D02*
X164134800Y-76301600D01*
X164134800Y-76301600D02*
X164134800Y-71170800D01*
X159867600Y-82346800D02*
X159816800Y-81534000D01*
X158544900Y-82753200D02*
X159461200Y-82753200D01*
X159461200Y-82753200D02*
X159867600Y-82346800D01*
X162509200Y-80873600D02*
X162509200Y-77927200D01*
%TO.N,Net-(U2-PB13)*%
X153924000Y-84937600D02*
X156719900Y-84937600D01*
X151895600Y-82909200D02*
X153924000Y-84937600D01*
X148403500Y-82909200D02*
X151895600Y-82909200D01*
%TO.N,SCLK_SPI2*%
X166217600Y-74424000D02*
X166217600Y-78629095D01*
X172111400Y-68530200D02*
X166217600Y-74424000D01*
X159867600Y-89154000D02*
X159461200Y-89662000D01*
X164541200Y-80305495D02*
X164541200Y-89509600D01*
X159258000Y-84937600D02*
X159867600Y-85547200D01*
X166217600Y-78629095D02*
X164541200Y-80305495D01*
X159867600Y-85547200D02*
X159867600Y-89154000D01*
X158544900Y-84937600D02*
X159258000Y-84937600D01*
X164541200Y-89509600D02*
X164642800Y-89611200D01*
%TO.N,Net-(U2-PA11)*%
X150672000Y-79909200D02*
X152349200Y-78232000D01*
X148403500Y-79909200D02*
X150672000Y-79909200D01*
X152349200Y-78232000D02*
X156718000Y-78232000D01*
%TO.N,CS_LPS*%
X159613600Y-76708000D02*
X159664400Y-76657200D01*
X124612400Y-77317600D02*
X124612400Y-88849200D01*
X163982400Y-78232000D02*
X163372800Y-78841600D01*
X162102800Y-82397600D02*
X162102800Y-87376000D01*
X163372800Y-81127600D02*
X162102800Y-82397600D01*
X158543000Y-78232000D02*
X159461200Y-78232000D01*
X159613600Y-78079600D02*
X159613600Y-76708000D01*
X163372800Y-78841600D02*
X163372800Y-81127600D01*
X159461200Y-78232000D02*
X159613600Y-78079600D01*
%TO.N,Net-(U2-PA12)*%
X150410000Y-79409200D02*
X153873200Y-75946000D01*
X153873200Y-75946000D02*
X156719900Y-75946000D01*
X148403500Y-79409200D02*
X150410000Y-79409200D01*
%TO.N,CS_ADXL*%
X172111400Y-65990200D02*
X169772600Y-65990200D01*
X158544900Y-74322300D02*
X158544900Y-75946000D01*
X168300400Y-67462400D02*
X168300400Y-70053200D01*
X159664400Y-73202800D02*
X158544900Y-74322300D01*
X169772600Y-65990200D02*
X168300400Y-67462400D01*
X159664400Y-70358000D02*
X159664400Y-73202800D01*
%TO.N,Net-(U2-PA15)*%
X147216000Y-77221700D02*
X147216000Y-74371700D01*
X147216000Y-74371700D02*
X148844000Y-72743700D01*
%TO.N,CS_LSM*%
X151841200Y-72136000D02*
X151892000Y-73558400D01*
X165354000Y-73609200D02*
X165354000Y-77774800D01*
X148844000Y-70918700D02*
X150623900Y-70918700D01*
X150623900Y-70918700D02*
X151841200Y-72136000D01*
X165354000Y-77774800D02*
X165455600Y-77876400D01*
%TO.N,Net-(U2-PB5)*%
X145716000Y-77221700D02*
X145716000Y-72163300D01*
X145716000Y-72163300D02*
X146558000Y-71321300D01*
%TO.N,MOSI_SPI3*%
X161303800Y-78167400D02*
X163017200Y-76454000D01*
X147015200Y-67310000D02*
X146456400Y-67868800D01*
X161303800Y-113219400D02*
X161303800Y-78167400D01*
X146456400Y-67868800D02*
X146456400Y-69394700D01*
X153123400Y-113085400D02*
X153123400Y-113885400D01*
X146456400Y-69394700D02*
X146558000Y-69496300D01*
X153123400Y-113885400D02*
X154597600Y-115359600D01*
X163017200Y-76454000D02*
X163017200Y-68072000D01*
X154597600Y-115359600D02*
X159163600Y-115359600D01*
X159163600Y-115359600D02*
X161303800Y-113219400D01*
%TO.N,Net-(U2-PB12)*%
X155472004Y-87122000D02*
X156719900Y-87122000D01*
X148403500Y-83409200D02*
X151759204Y-83409200D01*
X151759204Y-83409200D02*
X155472004Y-87122000D01*
%TO.N,SCLK_SPI3*%
X152545200Y-116375600D02*
X159671600Y-116375600D01*
X158544900Y-91539700D02*
X160274000Y-93268800D01*
X160324800Y-93268800D02*
X160324800Y-93319600D01*
X165150800Y-102057200D02*
X165150800Y-102006400D01*
X158544900Y-87122000D02*
X158544900Y-91539700D01*
X162102800Y-94488000D02*
X162052000Y-101701600D01*
X163271200Y-93319600D02*
X162102800Y-94488000D01*
X150923400Y-114753800D02*
X152545200Y-116375600D01*
X159671600Y-116375600D02*
X162407600Y-113639600D01*
X150923400Y-114753800D02*
X150923400Y-113085400D01*
X162407600Y-113639600D02*
X162407600Y-104800400D01*
X160324800Y-93319600D02*
X160223200Y-93218000D01*
X160274000Y-93268800D02*
X160324800Y-93268800D01*
X162407600Y-104800400D02*
X165150800Y-102057200D01*
%TO.N,Net-(U2-PB2)*%
X145716000Y-87649700D02*
X146915500Y-88849200D01*
X145716000Y-84096700D02*
X145716000Y-87649700D01*
%TO.N,CS_SDCARD*%
X154223400Y-113885400D02*
X155247600Y-114909600D01*
X148740500Y-88849200D02*
X148740500Y-91650300D01*
X151282400Y-98907600D02*
X152603200Y-100228400D01*
X158953200Y-114909600D02*
X160853800Y-113009000D01*
X160853800Y-101498400D02*
X160701400Y-101346000D01*
X155247600Y-114909600D02*
X158953200Y-114909600D01*
X160701400Y-101346000D02*
X160578800Y-101346000D01*
X148740500Y-91650300D02*
X151282400Y-94192200D01*
X154223400Y-113085400D02*
X154223400Y-113885400D01*
X151282400Y-94192200D02*
X151282400Y-98907600D01*
X160853800Y-113009000D02*
X160853800Y-101498400D01*
%TO.N,PWM_SIGNAL2*%
X172111400Y-99010200D02*
X168808400Y-95707200D01*
X141042992Y-82409200D02*
X141528500Y-82409200D01*
X141528500Y-82409200D02*
X140906596Y-82409200D01*
X141031392Y-82397600D02*
X141042992Y-82409200D01*
X138125200Y-85190596D02*
X138125200Y-90982800D01*
X140906596Y-82409200D02*
X138125200Y-85190596D01*
X168808400Y-95707200D02*
X168808400Y-90982800D01*
%TO.N,INT_ADXL*%
X160578800Y-77622400D02*
X162001200Y-76200000D01*
X141042992Y-82909200D02*
X138887200Y-85064992D01*
X138887200Y-90220800D02*
X138785600Y-90119200D01*
X141528500Y-82909200D02*
X141042992Y-82909200D01*
X138887200Y-90017600D02*
X138887200Y-90220800D01*
X138887200Y-85064992D02*
X138887200Y-90017600D01*
X162001200Y-76200000D02*
X162052000Y-76200000D01*
X160578800Y-90220800D02*
X160578800Y-77622400D01*
%TO.N,INT_LSM*%
X163068000Y-82651600D02*
X163068000Y-91744800D01*
X141528500Y-83409200D02*
X140055600Y-84882100D01*
X163626800Y-82092800D02*
X163068000Y-82651600D01*
X140055600Y-84882100D02*
X140055600Y-91490800D01*
X140055600Y-91490800D02*
X140309600Y-91744800D01*
X163068000Y-91744800D02*
X163017200Y-91795600D01*
%TO.N,INT_LPS*%
X142216000Y-84096700D02*
X142189200Y-84123500D01*
X142189200Y-84123500D02*
X142189200Y-89255600D01*
%TO.N,MISO_SPI1*%
X132334000Y-96469200D02*
X141071600Y-96469200D01*
X125425200Y-89560400D02*
X132334000Y-96469200D01*
X125425200Y-75692000D02*
X125425200Y-89560400D01*
X143716000Y-93824800D02*
X143716000Y-84096700D01*
X141071600Y-96469200D02*
X143716000Y-93824800D01*
%TO.N,MISO_SPI2*%
X153492704Y-83566000D02*
X154940000Y-83566000D01*
X152335904Y-82409200D02*
X153492704Y-83566000D01*
X169265600Y-73609200D02*
X170533600Y-73609200D01*
X148403500Y-82409200D02*
X152335904Y-82409200D01*
X167640000Y-82804000D02*
X167640000Y-75234800D01*
X170534600Y-73610200D02*
X172111400Y-73610200D01*
X167640000Y-75234800D02*
X169265600Y-73609200D01*
X170533600Y-73609200D02*
X170534600Y-73610200D01*
%TO.N,TX_UART1*%
X152196800Y-80010000D02*
X153162000Y-80010000D01*
X168656000Y-82092800D02*
X170333400Y-83770200D01*
X170333400Y-83770200D02*
X172111400Y-83770200D01*
X151297600Y-80909200D02*
X152196800Y-80010000D01*
X168656000Y-80010000D02*
X168656000Y-82092800D01*
X148403500Y-80909200D02*
X151297600Y-80909200D01*
%TO.N,RX_UART1*%
X150984800Y-80409200D02*
X152349200Y-79044800D01*
X171094400Y-85293200D02*
X169011600Y-85293200D01*
X152349200Y-79044800D02*
X154330400Y-79044800D01*
X172111400Y-86310200D02*
X171094400Y-85293200D01*
X166827200Y-83108800D02*
X166827200Y-79044800D01*
X169011600Y-85293200D02*
X166827200Y-83108800D01*
X148403500Y-80409200D02*
X150984800Y-80409200D01*
%TO.N,PWM_SIGNAL1*%
X149758400Y-99009200D02*
X149758400Y-94030800D01*
X145216000Y-89488400D02*
X145216000Y-84096700D01*
X149758400Y-94030800D02*
X145216000Y-89488400D01*
%TO.N,BOOT0*%
X138517800Y-72505400D02*
X138517800Y-73249105D01*
X140970000Y-67335400D02*
X140970000Y-70510400D01*
X143708000Y-75361800D02*
X144216000Y-75869800D01*
X139268200Y-72212200D02*
X138811000Y-72212200D01*
X138811000Y-72212200D02*
X138517800Y-72505400D01*
X144216000Y-75869800D02*
X144216000Y-77221700D01*
X140716000Y-67081400D02*
X140970000Y-67335400D01*
X140630495Y-75361800D02*
X143708000Y-75361800D01*
X138517800Y-73249105D02*
X140630495Y-75361800D01*
X140716000Y-61137800D02*
X140716000Y-67081400D01*
X140970000Y-70510400D02*
X139268200Y-72212200D01*
%TO.N,Net-(J2-Pin_2)*%
X128549400Y-63042800D02*
X126517400Y-61010800D01*
X129870200Y-63855600D02*
X129057400Y-63042800D01*
X129057400Y-63042800D02*
X128549400Y-63042800D01*
X129870200Y-64262000D02*
X129870200Y-63855600D01*
X126517400Y-61010800D02*
X125931300Y-61010800D01*
%TD*%
%TA.AperFunction,Conductor*%
%TO.N,3.3V*%
G36*
X136473912Y-56074707D02*
G01*
X136526715Y-56120462D01*
X136546400Y-56187501D01*
X136546400Y-56905833D01*
X136759883Y-56848633D01*
X136759892Y-56848629D01*
X136973978Y-56748800D01*
X137167482Y-56613305D01*
X137334505Y-56446282D01*
X137429632Y-56310428D01*
X137484209Y-56266804D01*
X137553708Y-56259611D01*
X137616062Y-56291133D01*
X137651476Y-56351363D01*
X137655204Y-56380694D01*
X137662463Y-57429400D01*
X137464800Y-57429400D01*
X137464800Y-60706000D01*
X137685138Y-60706000D01*
X137693400Y-61899800D01*
X139902607Y-61899800D01*
X139969646Y-61919485D01*
X140015401Y-61972289D01*
X140026556Y-62027342D01*
X140014216Y-62459186D01*
X139992625Y-62525636D01*
X139938536Y-62569864D01*
X139869121Y-62577828D01*
X139806421Y-62546999D01*
X139802586Y-62543325D01*
X139728945Y-62469684D01*
X139579724Y-62377643D01*
X139579719Y-62377641D01*
X139413297Y-62322494D01*
X139413290Y-62322493D01*
X139310586Y-62312000D01*
X139035600Y-62312000D01*
X139035600Y-63438000D01*
X139015915Y-63505039D01*
X138963111Y-63550794D01*
X138911600Y-63562000D01*
X136424400Y-63562000D01*
X136357361Y-63542315D01*
X136311606Y-63489511D01*
X136300400Y-63438000D01*
X136300400Y-62312000D01*
X136800400Y-62312000D01*
X136800400Y-63062000D01*
X138535600Y-63062000D01*
X138535600Y-62312000D01*
X138260629Y-62312000D01*
X138260612Y-62312001D01*
X138157902Y-62322494D01*
X137991480Y-62377641D01*
X137991475Y-62377643D01*
X137842257Y-62469682D01*
X137755681Y-62556258D01*
X137694357Y-62589742D01*
X137624666Y-62584758D01*
X137580319Y-62556258D01*
X137493742Y-62469682D01*
X137344524Y-62377643D01*
X137344519Y-62377641D01*
X137178097Y-62322494D01*
X137178090Y-62322493D01*
X137075386Y-62312000D01*
X136800400Y-62312000D01*
X136300400Y-62312000D01*
X136025429Y-62312000D01*
X136025412Y-62312001D01*
X135922702Y-62322494D01*
X135756280Y-62377641D01*
X135756275Y-62377643D01*
X135607054Y-62469684D01*
X135483083Y-62593655D01*
X135483080Y-62593659D01*
X135399515Y-62729139D01*
X135347567Y-62775864D01*
X135278605Y-62787085D01*
X135214523Y-62759242D01*
X135175667Y-62701173D01*
X135169978Y-62664646D01*
X135154504Y-59461400D01*
X135154121Y-59382151D01*
X137083766Y-59367063D01*
X137083766Y-57817663D01*
X135159458Y-57821015D01*
X135164479Y-56651290D01*
X135184450Y-56584341D01*
X135237450Y-56538813D01*
X135306651Y-56529166D01*
X135370081Y-56558463D01*
X135376158Y-56564146D01*
X135425317Y-56613305D01*
X135618821Y-56748800D01*
X135832907Y-56848629D01*
X135832916Y-56848633D01*
X136046400Y-56905834D01*
X136046400Y-56187501D01*
X136066085Y-56120462D01*
X136118889Y-56074707D01*
X136188047Y-56064763D01*
X136260637Y-56075200D01*
X136260638Y-56075200D01*
X136332162Y-56075200D01*
X136332163Y-56075200D01*
X136404753Y-56064763D01*
X136473912Y-56074707D01*
G37*
%TD.AperFunction*%
%TA.AperFunction,Conductor*%
G36*
X142739075Y-53309083D02*
G01*
X142785006Y-53361734D01*
X142796361Y-53416005D01*
X142782191Y-54152799D01*
X142782192Y-54152800D01*
X140106400Y-54152800D01*
X140106400Y-54584599D01*
X139175866Y-54575200D01*
X139141125Y-54569867D01*
X139042333Y-54539899D01*
X139042334Y-54539899D01*
X138836400Y-54519617D01*
X138630466Y-54539899D01*
X138630463Y-54539900D01*
X138553633Y-54563205D01*
X138516388Y-54568538D01*
X137642602Y-54559712D01*
X137643932Y-54751891D01*
X137624712Y-54819065D01*
X137572225Y-54865184D01*
X137503137Y-54875606D01*
X137439382Y-54847021D01*
X137418360Y-54823872D01*
X137334513Y-54704126D01*
X137334508Y-54704120D01*
X137167482Y-54537094D01*
X136973978Y-54401599D01*
X136759892Y-54301770D01*
X136759886Y-54301767D01*
X136546400Y-54244564D01*
X136546400Y-54962898D01*
X136526715Y-55029937D01*
X136473911Y-55075692D01*
X136404755Y-55085636D01*
X136332166Y-55075200D01*
X136332163Y-55075200D01*
X136260637Y-55075200D01*
X136260633Y-55075200D01*
X136188045Y-55085636D01*
X136118887Y-55075692D01*
X136066084Y-55029936D01*
X136046400Y-54962898D01*
X136046400Y-54244564D01*
X136046399Y-54244564D01*
X135832913Y-54301767D01*
X135832907Y-54301770D01*
X135618822Y-54401599D01*
X135618820Y-54401600D01*
X135425326Y-54537086D01*
X135425319Y-54537092D01*
X135385439Y-54576972D01*
X135324116Y-54610457D01*
X135254424Y-54605471D01*
X135198491Y-54563599D01*
X135174075Y-54498135D01*
X135173760Y-54488776D01*
X135178271Y-53437653D01*
X135198243Y-53370701D01*
X135251243Y-53325174D01*
X135301853Y-53314189D01*
X142671973Y-53289622D01*
X142739075Y-53309083D01*
G37*
%TD.AperFunction*%
%TD*%
%TA.AperFunction,Conductor*%
%TO.N,3.3V*%
G36*
X137083766Y-59367063D02*
G01*
X135154121Y-59382151D01*
X135154120Y-59382151D01*
X135154120Y-59382150D01*
X125018800Y-59461399D01*
X125018800Y-59461400D01*
X125001776Y-59853307D01*
X124979201Y-59919429D01*
X124924461Y-59962850D01*
X124854936Y-59969782D01*
X124812796Y-59953465D01*
X124687924Y-59876443D01*
X124687919Y-59876441D01*
X124521497Y-59821294D01*
X124521490Y-59821293D01*
X124418786Y-59810800D01*
X124356300Y-59810800D01*
X124356300Y-62210799D01*
X124418772Y-62210799D01*
X124418786Y-62210798D01*
X124521497Y-62200305D01*
X124687919Y-62145158D01*
X124687927Y-62145154D01*
X124708986Y-62132165D01*
X124776378Y-62113723D01*
X124843042Y-62134644D01*
X124887813Y-62188285D01*
X124897968Y-62243083D01*
X124713965Y-66479062D01*
X124713966Y-66479062D01*
X124713966Y-66479063D01*
X140217409Y-66421437D01*
X140284521Y-66440872D01*
X140330472Y-66493506D01*
X140341670Y-66538402D01*
X140454566Y-68525373D01*
X140438716Y-68593421D01*
X140388593Y-68642098D01*
X140330962Y-68656407D01*
X139207632Y-68658186D01*
X139140562Y-68638607D01*
X139094723Y-68585876D01*
X139084670Y-68516733D01*
X139112302Y-68455973D01*
X139111839Y-68455607D01*
X139113322Y-68453730D01*
X139113595Y-68453132D01*
X139114940Y-68451684D01*
X139116315Y-68449946D01*
X139208356Y-68300724D01*
X139208358Y-68300719D01*
X139263505Y-68134297D01*
X139263506Y-68134290D01*
X139273999Y-68031586D01*
X139274000Y-68031573D01*
X139274000Y-67981600D01*
X137923000Y-67981600D01*
X137855961Y-67961915D01*
X137810206Y-67909111D01*
X137799000Y-67857600D01*
X137799000Y-66731600D01*
X138299000Y-66731600D01*
X138299000Y-67481600D01*
X139273999Y-67481600D01*
X139273999Y-67431628D01*
X139273998Y-67431613D01*
X139263505Y-67328902D01*
X139208358Y-67162480D01*
X139208356Y-67162475D01*
X139116315Y-67013254D01*
X138992345Y-66889284D01*
X138843124Y-66797243D01*
X138843119Y-66797241D01*
X138676697Y-66742094D01*
X138676690Y-66742093D01*
X138573986Y-66731600D01*
X138299000Y-66731600D01*
X137799000Y-66731600D01*
X137524029Y-66731600D01*
X137524012Y-66731601D01*
X137421302Y-66742094D01*
X137254880Y-66797241D01*
X137254875Y-66797243D01*
X137105654Y-66889284D01*
X136981684Y-67013254D01*
X136889643Y-67162475D01*
X136889641Y-67162480D01*
X136833206Y-67332791D01*
X136793433Y-67390236D01*
X136728917Y-67417059D01*
X136660142Y-67404744D01*
X136608942Y-67357201D01*
X136597794Y-67332791D01*
X136541358Y-67162480D01*
X136541356Y-67162475D01*
X136449315Y-67013254D01*
X136325345Y-66889284D01*
X136176124Y-66797243D01*
X136176119Y-66797241D01*
X136009697Y-66742094D01*
X136009690Y-66742093D01*
X135906986Y-66731600D01*
X135632000Y-66731600D01*
X135632000Y-67857600D01*
X135612315Y-67924639D01*
X135559511Y-67970394D01*
X135508000Y-67981600D01*
X134136086Y-67981600D01*
X134122596Y-67988966D01*
X134096238Y-67991800D01*
X131651043Y-67991800D01*
X131628396Y-68004166D01*
X131602038Y-68007000D01*
X120930400Y-68007000D01*
X120863361Y-67987315D01*
X120817606Y-67934511D01*
X120806400Y-67883000D01*
X120806400Y-66757000D01*
X121306399Y-66757000D01*
X121306399Y-67506999D01*
X121306401Y-67507000D01*
X123041600Y-67507000D01*
X123041600Y-66757000D01*
X123541600Y-66757000D01*
X123541600Y-67507000D01*
X125480000Y-67507000D01*
X125480000Y-66757000D01*
X125980000Y-66757000D01*
X125980000Y-67507000D01*
X127867599Y-67507000D01*
X127867599Y-66757000D01*
X128367599Y-66757000D01*
X128367599Y-67506999D01*
X128367601Y-67507000D01*
X130153600Y-67507000D01*
X130653600Y-67507000D01*
X131645357Y-67507000D01*
X131668004Y-67494634D01*
X131694362Y-67491800D01*
X132642800Y-67491800D01*
X133142800Y-67491800D01*
X134138714Y-67491800D01*
X134152204Y-67484434D01*
X134178562Y-67481600D01*
X135132000Y-67481600D01*
X135132000Y-66731600D01*
X134857029Y-66731600D01*
X134857012Y-66731601D01*
X134754302Y-66742094D01*
X134587880Y-66797241D01*
X134587875Y-66797243D01*
X134438654Y-66889284D01*
X134314683Y-67013255D01*
X134314680Y-67013259D01*
X134239792Y-67134672D01*
X134187844Y-67181397D01*
X134118882Y-67192618D01*
X134054800Y-67164775D01*
X134028715Y-67134672D01*
X133960115Y-67023454D01*
X133836145Y-66899484D01*
X133686924Y-66807443D01*
X133686919Y-66807441D01*
X133520497Y-66752294D01*
X133520490Y-66752293D01*
X133417786Y-66741800D01*
X133142800Y-66741800D01*
X133142800Y-67491800D01*
X132642800Y-67491800D01*
X132642800Y-67491799D01*
X132642799Y-66741800D01*
X132367829Y-66741800D01*
X132367812Y-66741801D01*
X132265102Y-66752294D01*
X132098680Y-66807441D01*
X132098675Y-66807443D01*
X131949454Y-66899484D01*
X131825483Y-67023455D01*
X131825480Y-67023459D01*
X131749050Y-67147372D01*
X131697102Y-67194097D01*
X131628140Y-67205318D01*
X131564058Y-67177475D01*
X131537973Y-67147372D01*
X131470915Y-67038654D01*
X131346945Y-66914684D01*
X131197724Y-66822643D01*
X131197719Y-66822641D01*
X131031297Y-66767494D01*
X131031290Y-66767493D01*
X130928586Y-66757000D01*
X130653600Y-66757000D01*
X130653600Y-67507000D01*
X130153600Y-67507000D01*
X130153600Y-66757000D01*
X129878629Y-66757000D01*
X129878612Y-66757001D01*
X129775902Y-66767494D01*
X129609480Y-66822641D01*
X129609475Y-66822643D01*
X129460254Y-66914684D01*
X129348281Y-67026658D01*
X129286958Y-67060143D01*
X129217266Y-67055159D01*
X129172919Y-67026658D01*
X129060945Y-66914684D01*
X128911724Y-66822643D01*
X128911719Y-66822641D01*
X128745297Y-66767494D01*
X128745290Y-66767493D01*
X128642586Y-66757000D01*
X128367599Y-66757000D01*
X127867599Y-66757000D01*
X127592629Y-66757000D01*
X127592612Y-66757001D01*
X127489902Y-66767494D01*
X127323480Y-66822641D01*
X127323475Y-66822643D01*
X127174254Y-66914684D01*
X127050283Y-67038655D01*
X127050280Y-67038659D01*
X127029338Y-67072612D01*
X126977390Y-67119337D01*
X126908428Y-67130558D01*
X126844346Y-67102715D01*
X126818262Y-67072612D01*
X126797319Y-67038659D01*
X126797316Y-67038655D01*
X126673345Y-66914684D01*
X126524124Y-66822643D01*
X126524119Y-66822641D01*
X126357697Y-66767494D01*
X126357690Y-66767493D01*
X126254986Y-66757000D01*
X125980000Y-66757000D01*
X125480000Y-66757000D01*
X125205029Y-66757000D01*
X125205012Y-66757001D01*
X125102302Y-66767494D01*
X124935880Y-66822641D01*
X124935875Y-66822643D01*
X124786654Y-66914684D01*
X124662684Y-67038654D01*
X124616339Y-67113792D01*
X124564391Y-67160517D01*
X124495428Y-67171738D01*
X124431346Y-67143895D01*
X124405261Y-67113792D01*
X124358915Y-67038654D01*
X124234945Y-66914684D01*
X124085724Y-66822643D01*
X124085719Y-66822641D01*
X123919297Y-66767494D01*
X123919290Y-66767493D01*
X123816586Y-66757000D01*
X123541600Y-66757000D01*
X123041600Y-66757000D01*
X122766629Y-66757000D01*
X122766612Y-66757001D01*
X122663902Y-66767494D01*
X122497480Y-66822641D01*
X122497475Y-66822643D01*
X122348254Y-66914684D01*
X122261681Y-67001258D01*
X122200358Y-67034743D01*
X122130666Y-67029759D01*
X122086319Y-67001258D01*
X121999745Y-66914684D01*
X121850524Y-66822643D01*
X121850519Y-66822641D01*
X121684097Y-66767494D01*
X121684090Y-66767493D01*
X121581386Y-66757000D01*
X121306399Y-66757000D01*
X120806400Y-66757000D01*
X120531429Y-66757000D01*
X120531412Y-66757001D01*
X120428702Y-66767494D01*
X120262280Y-66822641D01*
X120262275Y-66822643D01*
X120113054Y-66914684D01*
X120048847Y-66978892D01*
X119987524Y-67012377D01*
X119917832Y-67007393D01*
X119861899Y-66965521D01*
X119837482Y-66900057D01*
X119837166Y-66891211D01*
X119837166Y-66767493D01*
X119837165Y-66627283D01*
X119856849Y-66560248D01*
X119909653Y-66514493D01*
X119959982Y-66503293D01*
X122504166Y-66479063D01*
X122504166Y-61260800D01*
X123093801Y-61260800D01*
X123093801Y-61510786D01*
X123104294Y-61613497D01*
X123159441Y-61779919D01*
X123159443Y-61779924D01*
X123251484Y-61929145D01*
X123375454Y-62053115D01*
X123524675Y-62145156D01*
X123524680Y-62145158D01*
X123691102Y-62200305D01*
X123691109Y-62200306D01*
X123793819Y-62210799D01*
X123856299Y-62210798D01*
X123856300Y-62210798D01*
X123856300Y-61260800D01*
X123093801Y-61260800D01*
X122504166Y-61260800D01*
X122504166Y-60760800D01*
X123093800Y-60760800D01*
X123856300Y-60760800D01*
X123856300Y-59810800D01*
X123856299Y-59810799D01*
X123793828Y-59810800D01*
X123793811Y-59810801D01*
X123691102Y-59821294D01*
X123524680Y-59876441D01*
X123524675Y-59876443D01*
X123375454Y-59968484D01*
X123251484Y-60092454D01*
X123159443Y-60241675D01*
X123159441Y-60241680D01*
X123104294Y-60408102D01*
X123104293Y-60408109D01*
X123093800Y-60510813D01*
X123093800Y-60760800D01*
X122504166Y-60760800D01*
X122504166Y-57966846D01*
X122523851Y-57899808D01*
X122576655Y-57854053D01*
X122627950Y-57842847D01*
X130996626Y-57828267D01*
X137083766Y-57817663D01*
X137083766Y-59367063D01*
G37*
%TD.AperFunction*%
%TD*%
%TA.AperFunction,Conductor*%
%TO.N,3.3V*%
G36*
X144093912Y-56074707D02*
G01*
X144146715Y-56120462D01*
X144166400Y-56187501D01*
X144166400Y-56905833D01*
X144379883Y-56848633D01*
X144379892Y-56848629D01*
X144593978Y-56748800D01*
X144787482Y-56613305D01*
X144954505Y-56446282D01*
X145011625Y-56364708D01*
X145066202Y-56321083D01*
X145135701Y-56313891D01*
X145198055Y-56345413D01*
X145233469Y-56405643D01*
X145237200Y-56435832D01*
X145237200Y-60124800D01*
X145217515Y-60191839D01*
X145164711Y-60237594D01*
X145113200Y-60248800D01*
X144526000Y-60248800D01*
X144526000Y-60992017D01*
X144506315Y-61059056D01*
X144453511Y-61104811D01*
X144384353Y-61114755D01*
X144320797Y-61085730D01*
X144300426Y-61063141D01*
X144294115Y-61054129D01*
X144294108Y-61054120D01*
X144127082Y-60887094D01*
X143933578Y-60751599D01*
X143719492Y-60651770D01*
X143719486Y-60651767D01*
X143506000Y-60594564D01*
X143506000Y-61312898D01*
X143486315Y-61379937D01*
X143433511Y-61425692D01*
X143364355Y-61435636D01*
X143291766Y-61425200D01*
X143291763Y-61425200D01*
X143220237Y-61425200D01*
X143220233Y-61425200D01*
X143147645Y-61435636D01*
X143078487Y-61425692D01*
X143025684Y-61379936D01*
X143006000Y-61312898D01*
X143006000Y-60594564D01*
X143005999Y-60594564D01*
X142792513Y-60651767D01*
X142792507Y-60651770D01*
X142578422Y-60751599D01*
X142578420Y-60751600D01*
X142384926Y-60887086D01*
X142384920Y-60887091D01*
X142217891Y-61054120D01*
X142217886Y-61054126D01*
X142082400Y-61247620D01*
X142082399Y-61247622D01*
X141982570Y-61461707D01*
X141982567Y-61461713D01*
X141925364Y-61675199D01*
X141925364Y-61675200D01*
X142642653Y-61675200D01*
X142709692Y-61694885D01*
X142755447Y-61747689D01*
X142765391Y-61816847D01*
X142761631Y-61834133D01*
X142756000Y-61853311D01*
X142756000Y-61997088D01*
X142761631Y-62016267D01*
X142761630Y-62086136D01*
X142723855Y-62144914D01*
X142660299Y-62173938D01*
X142642653Y-62175200D01*
X141925364Y-62175200D01*
X141982567Y-62388686D01*
X141982570Y-62388692D01*
X142082399Y-62602778D01*
X142217894Y-62796282D01*
X142340334Y-62918722D01*
X142373819Y-62980045D01*
X142368835Y-63049737D01*
X142326963Y-63105670D01*
X142295987Y-63122585D01*
X142163911Y-63171846D01*
X142163906Y-63171849D01*
X142048812Y-63258009D01*
X142048809Y-63258012D01*
X141962649Y-63373106D01*
X141962645Y-63373113D01*
X141912403Y-63507820D01*
X141912401Y-63507827D01*
X141906000Y-63567355D01*
X141906000Y-64215200D01*
X142642653Y-64215200D01*
X142709692Y-64234885D01*
X142755447Y-64287689D01*
X142765391Y-64356847D01*
X142761631Y-64374133D01*
X142756000Y-64393311D01*
X142756000Y-64537088D01*
X142761631Y-64556267D01*
X142761630Y-64626136D01*
X142723855Y-64684914D01*
X142660299Y-64713938D01*
X142642653Y-64715200D01*
X141906000Y-64715200D01*
X141906000Y-65363044D01*
X141912401Y-65422572D01*
X141912403Y-65422579D01*
X141962645Y-65557286D01*
X141962649Y-65557293D01*
X142048809Y-65672387D01*
X142048812Y-65672390D01*
X142171011Y-65763869D01*
X142169469Y-65765928D01*
X142209313Y-65805770D01*
X142224166Y-65874043D01*
X142199751Y-65939508D01*
X142143819Y-65981381D01*
X142100482Y-65989200D01*
X141754400Y-65989200D01*
X141687361Y-65969515D01*
X141641606Y-65916711D01*
X141630400Y-65865200D01*
X141630400Y-57454800D01*
X141147800Y-57454800D01*
X141147800Y-57429400D01*
X140117103Y-57429400D01*
X140106400Y-57380200D01*
X140106400Y-56508381D01*
X140126085Y-56441342D01*
X140178889Y-56395587D01*
X140248047Y-56385643D01*
X140311603Y-56414668D01*
X140331976Y-56437259D01*
X140338293Y-56446281D01*
X140505317Y-56613305D01*
X140698821Y-56748800D01*
X140912907Y-56848629D01*
X140912916Y-56848633D01*
X141126400Y-56905834D01*
X141126400Y-56187501D01*
X141146085Y-56120462D01*
X141198889Y-56074707D01*
X141268047Y-56064763D01*
X141340637Y-56075200D01*
X141340638Y-56075200D01*
X141412162Y-56075200D01*
X141412163Y-56075200D01*
X141484753Y-56064763D01*
X141553912Y-56074707D01*
X141606715Y-56120462D01*
X141626400Y-56187501D01*
X141626400Y-56905833D01*
X141839883Y-56848633D01*
X141839892Y-56848629D01*
X142053978Y-56748800D01*
X142247482Y-56613305D01*
X142414505Y-56446282D01*
X142544825Y-56260168D01*
X142599402Y-56216544D01*
X142668901Y-56209351D01*
X142731255Y-56240873D01*
X142747975Y-56260168D01*
X142878294Y-56446282D01*
X143045317Y-56613305D01*
X143238821Y-56748800D01*
X143452907Y-56848629D01*
X143452916Y-56848633D01*
X143666400Y-56905834D01*
X143666400Y-56187501D01*
X143686085Y-56120462D01*
X143738889Y-56074707D01*
X143808047Y-56064763D01*
X143880637Y-56075200D01*
X143880638Y-56075200D01*
X143952162Y-56075200D01*
X143952163Y-56075200D01*
X144024753Y-56064763D01*
X144093912Y-56074707D01*
G37*
%TD.AperFunction*%
%TA.AperFunction,Conductor*%
G36*
X143433512Y-62424707D02*
G01*
X143486315Y-62470462D01*
X143506000Y-62537501D01*
X143506000Y-63852898D01*
X143486315Y-63919937D01*
X143433511Y-63965692D01*
X143364355Y-63975636D01*
X143291766Y-63965200D01*
X143291763Y-63965200D01*
X143220237Y-63965200D01*
X143220233Y-63965200D01*
X143147645Y-63975636D01*
X143078487Y-63965692D01*
X143025684Y-63919936D01*
X143006000Y-63852898D01*
X143006000Y-62537501D01*
X143025685Y-62470462D01*
X143078489Y-62424707D01*
X143147647Y-62414763D01*
X143220237Y-62425200D01*
X143220238Y-62425200D01*
X143291762Y-62425200D01*
X143291763Y-62425200D01*
X143364353Y-62414763D01*
X143433512Y-62424707D01*
G37*
%TD.AperFunction*%
%TA.AperFunction,Conductor*%
G36*
X143370092Y-55344885D02*
G01*
X143415847Y-55397689D01*
X143425791Y-55466847D01*
X143422031Y-55484133D01*
X143416400Y-55503311D01*
X143416400Y-55647088D01*
X143422031Y-55666267D01*
X143422030Y-55736136D01*
X143384255Y-55794914D01*
X143320699Y-55823938D01*
X143303053Y-55825200D01*
X141989747Y-55825200D01*
X141922708Y-55805515D01*
X141876953Y-55752711D01*
X141867009Y-55683553D01*
X141870769Y-55666267D01*
X141876400Y-55647088D01*
X141876400Y-55503311D01*
X141870769Y-55484133D01*
X141870770Y-55414264D01*
X141908545Y-55355486D01*
X141972101Y-55326462D01*
X141989747Y-55325200D01*
X143303053Y-55325200D01*
X143370092Y-55344885D01*
G37*
%TD.AperFunction*%
%TA.AperFunction,Conductor*%
G36*
X143280086Y-54172485D02*
G01*
X143325841Y-54225289D01*
X143335785Y-54294447D01*
X143306760Y-54358003D01*
X143265452Y-54389182D01*
X143238822Y-54401599D01*
X143238820Y-54401600D01*
X143045326Y-54537086D01*
X143045320Y-54537091D01*
X142878291Y-54704120D01*
X142878290Y-54704122D01*
X142747974Y-54890231D01*
X142693396Y-54933856D01*
X142623898Y-54941048D01*
X142561543Y-54909526D01*
X142544824Y-54890230D01*
X142414513Y-54704126D01*
X142414508Y-54704120D01*
X142247482Y-54537094D01*
X142053978Y-54401599D01*
X141839892Y-54301770D01*
X141839886Y-54301767D01*
X141626400Y-54244564D01*
X141626400Y-54962898D01*
X141606715Y-55029937D01*
X141553911Y-55075692D01*
X141484755Y-55085636D01*
X141412166Y-55075200D01*
X141412163Y-55075200D01*
X141340637Y-55075200D01*
X141340633Y-55075200D01*
X141268045Y-55085636D01*
X141198887Y-55075692D01*
X141146084Y-55029936D01*
X141126400Y-54962898D01*
X141126400Y-54244564D01*
X141126399Y-54244564D01*
X140912913Y-54301767D01*
X140912907Y-54301770D01*
X140698822Y-54401599D01*
X140698820Y-54401600D01*
X140505326Y-54537086D01*
X140505320Y-54537091D01*
X140338291Y-54704120D01*
X140338284Y-54704129D01*
X140331974Y-54713141D01*
X140277397Y-54756766D01*
X140207899Y-54763958D01*
X140145544Y-54732436D01*
X140110131Y-54672206D01*
X140106400Y-54642017D01*
X140106400Y-54584600D01*
X140106400Y-54584599D01*
X140106400Y-54152800D01*
X142782192Y-54152800D01*
X143213047Y-54152800D01*
X143280086Y-54172485D01*
G37*
%TD.AperFunction*%
%TD*%
%TA.AperFunction,Conductor*%
%TO.N,3.3V*%
G36*
X137947099Y-57449085D02*
G01*
X137992854Y-57501889D01*
X138002798Y-57571047D01*
X137973773Y-57634603D01*
X137967741Y-57641081D01*
X137961809Y-57647012D01*
X137875649Y-57762106D01*
X137875645Y-57762113D01*
X137825403Y-57896820D01*
X137825401Y-57896827D01*
X137819000Y-57956355D01*
X137819000Y-58754200D01*
X140819000Y-58754200D01*
X140819000Y-57956372D01*
X140818999Y-57956355D01*
X140812598Y-57896827D01*
X140812596Y-57896820D01*
X140762354Y-57762113D01*
X140762350Y-57762106D01*
X140676190Y-57647012D01*
X140676187Y-57647009D01*
X140561093Y-57560849D01*
X140561086Y-57560845D01*
X140426379Y-57510603D01*
X140426372Y-57510601D01*
X140366844Y-57504200D01*
X140230400Y-57504200D01*
X140163361Y-57484515D01*
X140117606Y-57431711D01*
X140117103Y-57429400D01*
X141147800Y-57429400D01*
X141147800Y-57454800D01*
X141147800Y-60481101D01*
X141128115Y-60548140D01*
X141075311Y-60593895D01*
X141006153Y-60603839D01*
X140976348Y-60595662D01*
X140872765Y-60552757D01*
X140872763Y-60552756D01*
X140872762Y-60552756D01*
X140837700Y-60548140D01*
X140773460Y-60539682D01*
X140709563Y-60511415D01*
X140671093Y-60453090D01*
X140670262Y-60383225D01*
X140690380Y-60342431D01*
X140762352Y-60246289D01*
X140762354Y-60246286D01*
X140812596Y-60111579D01*
X140812598Y-60111572D01*
X140818999Y-60052044D01*
X140819000Y-60052027D01*
X140819000Y-59254200D01*
X137819000Y-59254200D01*
X137819000Y-60052044D01*
X137825401Y-60111572D01*
X137825403Y-60111579D01*
X137875645Y-60246286D01*
X137875649Y-60246293D01*
X137961809Y-60361387D01*
X137961812Y-60361390D01*
X138076906Y-60447550D01*
X138076913Y-60447554D01*
X138125881Y-60465818D01*
X138181815Y-60507689D01*
X138206232Y-60573153D01*
X138191381Y-60641426D01*
X138141975Y-60690832D01*
X138082548Y-60706000D01*
X137464800Y-60706000D01*
X137464800Y-57429400D01*
X137662463Y-57429400D01*
X137880060Y-57429400D01*
X137947099Y-57449085D01*
G37*
%TD.AperFunction*%
%TD*%
M02*
